<?xml version="1.0" encoding="UTF-8" standalone="no"?>
<!-- Generator: Adobe Illustrator 19.1.0, SVG Export Plug-In . SVG Version: 6.00 Build 0)  -->

<svg
   version="1.1"
   id="Layer_1"
   x="0px"
   y="0px"
   width="928.40002"
   height="861.40002"
   viewBox="0 0 928.40002 861.40002"
   xml:space="preserve"
   sodipodi:docname="asclepius.svg"
   inkscape:version="1.4.2 (f4327f4, 2025-05-13)"
   xmlns:inkscape="http://www.inkscape.org/namespaces/inkscape"
   xmlns:sodipodi="http://sodipodi.sourceforge.net/DTD/sodipodi-0.dtd"
   xmlns="http://www.w3.org/2000/svg"
   xmlns:svg="http://www.w3.org/2000/svg"><defs
   id="defs24">
	
	
	
	
	
	
	
	
	
	
</defs><sodipodi:namedview
   id="namedview24"
   pagecolor="#ffffff"
   bordercolor="#000000"
   borderopacity="0.25"
   inkscape:showpageshadow="2"
   inkscape:pageopacity="0.0"
   inkscape:pagecheckerboard="0"
   inkscape:deskcolor="#d1d1d1"
   showguides="true"
   inkscape:zoom="0.851"
   inkscape:cx="468.27262"
   inkscape:cy="402.46769"
   inkscape:window-width="1920"
   inkscape:window-height="1111"
   inkscape:window-x="-9"
   inkscape:window-y="-9"
   inkscape:window-maximized="1"
   inkscape:current-layer="Layer_1"><sodipodi:guide
     position="-97.904935,1047.1979"
     orientation="0,-1"
     id="guide43"
     inkscape:locked="false" /></sodipodi:namedview>
<g
   id="g43"
   transform="translate(-32.1,-75.399998)"><g
     id="g15"
     style="fill:#537bac;fill-opacity:1;fill-rule:evenodd;stroke:none;stroke-opacity:1">
		<g
   id="g7"
   style="fill:#537bac;fill-opacity:1;fill-rule:evenodd;stroke:none;stroke-opacity:1">
			<path
   d="m 32.1,122.2 c 106.7,-0.2 213.3,-0.1 320,0 28.3,-1.3 53.2,27.3 47,55.1 -3.9,13.1 -7.3,27.8 0.1,40.4 10.2,21.1 40.3,27.9 58.7,13.6 10.5,-7 15.1,-19.3 17.1,-31.2 1.3,27.8 0.4,55.7 0.5,83.6 -7.8,-11.8 -18.9,-21.7 -33,-25 -22.2,-7.4 -46.5,-0.3 -68.3,-9.3 -20.2,-7.8 -36,-26.3 -39.7,-47.7 -2,-8.9 -0.3,-18 -0.7,-26.9 -1,-12.3 -13.4,-21.9 -25.6,-20.3 -64,5.2 -128,10.8 -192.1,16.2 -14.6,1 -30,4.2 -44,-1.4 -19.8,-8.2 -34.6,-26.5 -40,-47.1 z"
   id="path1"
   style="fill:#537bac;fill-opacity:1;fill-rule:evenodd;stroke:none;stroke-opacity:1" />
			<path
   d="m 96.2,179.5 c 69.9,-6.3 139.9,-11.9 209.8,-17.9 5.7,-1.1 11.1,1.2 16.2,3.5 -4.2,6.4 -8.2,13 -11.7,19.8 -49.4,7 -98.9,13.7 -148.3,20.7 -10.5,1.4 -21.4,3.8 -31.9,0.7 -14.6,-3.6 -26,-14.5 -34.1,-26.8 z"
   id="path2"
   style="fill:#537bac;fill-opacity:1;fill-rule:evenodd;stroke:none;stroke-opacity:1" />
			<path
   d="m 312.5,211.1 c 0.2,-14.1 4.9,-28.4 14.4,-39 0.3,10.5 -1.1,21.2 0.9,31.6 4.1,22.5 20.3,42.1 41.3,51.1 26,12.2 56.9,1.1 82.5,14.9 14.9,7.5 21.5,24.2 23.3,39.8 -8.6,-13.3 -21,-25.7 -37.5,-27.6 -22.8,-1.6 -45.7,0.7 -68.5,-1.1 -32.7,-4.8 -57.4,-37.1 -56.4,-69.7 z"
   id="path3"
   style="fill:#537bac;fill-opacity:1;fill-rule:evenodd;stroke:none;stroke-opacity:1" />
			<path
   d="m 152.3,214.3 c 51.8,-8 103.8,-14.6 155.7,-22 -1.7,8.1 -2.5,16.4 -2.8,24.7 -33.7,6.7 -67.3,14.4 -101,21 -20.4,3.8 -41.1,-6.5 -51.9,-23.7 z"
   id="path4"
   style="fill:#537bac;fill-opacity:1;fill-rule:evenodd;stroke:none;stroke-opacity:1" />
			<path
   d="m 209,244.5 c 32.2,-7.5 64.7,-13.7 97,-20.8 2,7.9 4.4,15.7 7.5,23.3 -18,5.6 -36,11.2 -54.1,16.4 -18.9,4.8 -38.2,-4.8 -50.4,-18.9 z"
   id="path5"
   style="fill:#537bac;fill-opacity:1;fill-rule:evenodd;stroke:none;stroke-opacity:1" />
			<path
   d="m 261.7,270.4 c 18.2,-6.3 36.8,-11.4 55.3,-17 5.8,8.2 12.6,15.6 20.4,22 -10.5,4.4 -20.6,10.5 -32,12.5 -16.2,0.9 -32.5,-5.9 -43.7,-17.5 z"
   id="path6"
   style="fill:#537bac;fill-opacity:1;fill-rule:evenodd;stroke:none;stroke-opacity:1" />
			<path
   d="m 315.5,293 c 9.5,-4.8 19.3,-8.9 29.1,-13.1 21,11.8 45.5,8.2 68.5,8.6 13.4,0.1 28.3,-1.8 39.8,6.8 16.7,11.3 21.5,32.8 23.3,51.6 -4.8,-12.7 -14,-23.8 -26.9,-28.6 -32.3,-13.5 -68,-5.3 -101.8,-8.9 -12.2,-1.7 -22.8,-8.6 -32,-16.4 z"
   id="path7"
   style="fill:#537bac;fill-opacity:1;fill-rule:evenodd;stroke:none;stroke-opacity:1" />
		</g>
		<g
   id="g14"
   style="fill:#537bac;fill-opacity:1;fill-rule:evenodd;stroke:none;stroke-opacity:1">
			<path
   d="m 631.6,122.9 c 10.7,-1.5 21.5,-0.2 32.2,-0.2 98.9,1.8 197.8,3.8 296.7,6 -5.2,19.6 -20.8,35.8 -40.3,41.6 -13.7,4.1 -28.2,1.6 -42.2,0.6 -63.3,-5.5 -126.7,-10.7 -190,-16.2 -9.3,-1.4 -19.6,1.2 -25.1,9.3 -6.4,7.8 -3.8,18.4 -4.1,27.5 0.4,25 -16.7,48.5 -39.8,57.6 -21.1,9.2 -44.8,2.5 -66.6,9 -15,3.1 -27.6,12.8 -35.4,25.8 0.2,-27 0.1,-54 0,-81 3.7,13.6 11.4,27.4 25.3,32.8 20.8,9.6 47.9,-2.8 53.9,-25 6.2,-15.5 -5.5,-30.5 -3.3,-46.1 1.6,-20.6 18.3,-38.7 38.7,-41.7 z"
   id="path8"
   style="fill:#537bac;fill-opacity:1;fill-rule:evenodd;stroke:none;stroke-opacity:1" />
			<path
   d="m 670,164.8 c 5.6,-2.3 11.6,-4.3 17.9,-3.2 69.4,6.1 139,11.4 208.4,17.9 -10.6,16.8 -29.3,30.3 -50.1,28.1 C 791.6,200.2 737,192.3 682.3,185 c -3.8,-6.8 -8,-13.5 -12.3,-20.2 z"
   id="path9"
   style="fill:#537bac;fill-opacity:1;fill-rule:evenodd;stroke:none;stroke-opacity:1" />
			<path
   d="m 665.6,172.1 c 13.6,15.7 17.7,38.4 12,58.1 -6.7,25.4 -28.4,47.3 -55,50.8 -22.8,1.6 -45.7,-0.8 -68.5,1.1 -16.2,2 -27.6,14.6 -36.7,27 2.3,-15.2 8.3,-31.6 22.8,-39 25.4,-14.1 56.2,-3.2 82.2,-14.9 20.7,-8.6 37,-27.3 41.7,-49.3 3,-11 1.3,-22.5 1.5,-33.8 z"
   id="path10"
   style="fill:#537bac;fill-opacity:1;fill-rule:evenodd;stroke:none;stroke-opacity:1" />
			<path
   d="m 684.7,192.2 c 51.8,7.6 103.8,14 155.5,22.1 -6.6,9 -14.7,17.4 -25.4,21.2 -11.9,4.7 -25,3.3 -37.1,0.5 -30.1,-6.5 -60.3,-12.8 -90.4,-19.1 -0.4,-8.3 -1.3,-16.5 -2.6,-24.7 z"
   id="path11"
   style="fill:#537bac;fill-opacity:1;fill-rule:evenodd;stroke:none;stroke-opacity:1" />
			<path
   d="m 686.5,223.8 c 32.3,6.9 64.7,13.4 96.9,20.6 -12.1,14.3 -31.5,23.8 -50.3,19.1 C 715,258.2 697,252.6 679,247.1 c 3,-7.6 5.5,-15.4 7.5,-23.3 z"
   id="path12"
   style="fill:#537bac;fill-opacity:1;fill-rule:evenodd;stroke:none;stroke-opacity:1" />
			<path
   d="m 655.2,275.2 c 7.8,-6.3 14.6,-13.7 20.4,-21.9 18.4,5.7 37,10.8 55.2,17 -11.5,11.9 -28.3,19 -44.9,17.3 -10.9,-2.2 -20.7,-7.9 -30.7,-12.4 z"
   id="path13"
   style="fill:#537bac;fill-opacity:1;fill-rule:evenodd;stroke:none;stroke-opacity:1" />
			<path
   d="m 647.8,280 c 9.7,4.1 19.4,8.2 29,12.7 -8.7,8.1 -19.2,14.8 -31.2,16.6 -34.7,3.9 -71.7,-5 -104.6,10.1 -12.1,5 -20.3,15.9 -24.1,28.1 0.8,-14.6 3.5,-29.7 12.3,-41.8 6.9,-9.5 17.7,-16.6 29.7,-17 19.6,-0.7 39.2,0.3 58.8,-0.3 10.4,-0.3 20.6,-3.9 30.1,-8.4 z"
   id="path14"
   style="fill:#537bac;fill-opacity:1;fill-rule:evenodd;stroke:none;stroke-opacity:1" />
		</g>
	</g><path
     d="m 543.8,592.4 c -12.3,5.6 -21,8.3 -34.2,13.3 0.2,0.4 0.4,0.8 0.6,1.2 0.1,0.3 0.3,0.6 0.4,0.9 0.1,0.2 0.2,0.3 0.2,0.5 8.9,4.8 16.5,9.8 23.1,17.7 8.9,10.6 12.3,26.1 6.7,39 -7.1,16.6 -22.5,27.8 -38.5,35 -18.8,9 -39.6,17.9 -51.1,36.4 -12.3,17.8 -13.7,42.2 -4,61.5 6.1,13.6 17.9,25.8 33.3,27.5 -5.3,-8.4 -13.7,-14.6 -17.6,-24 -7.8,-17 -7.9,-38.8 4.8,-53.5 13.2,-16.5 35.2,-20.3 53.2,-29.2 25,-11.5 48.3,-33.6 51.1,-62.2 3.4,-24.7 -9.1,-48.8 -28,-64.1 z"
     id="path15"
     style="fill:#537bac;fill-opacity:1;fill-rule:evenodd;stroke:none;stroke-opacity:1" /><path
     d="m 598.4,504.2 c -1.5,-23.6 -15.5,-45 -34.2,-58.8 -17,5.3 -52.3,13.9 -52.3,13.9 14.5,5.8 30.4,12 41.1,23.8 13.9,14.6 15.2,40.1 1.1,55.1 -14.4,15.9 -35.1,24 -55,30.7 -22.7,7.9 -45.9,18.5 -61.4,37.6 -16.2,19.6 -20.2,48.7 -9,71.7 7.7,15.8 21.4,27.8 36.3,36.8 8.4,-5.7 10.7,-7 19.2,-13 -0.3,-0.6 -0.6,-1.2 -0.9,-1.8 -0.2,-0.4 -0.4,-0.7 -0.5,-1.1 -0.1,-0.2 -0.2,-0.5 -0.3,-0.7 -14,-8 -23.9,-19.4 -29.3,-35.2 -5.1,-14.6 0.7,-31.3 12.1,-41.2 13.9,-12.3 31.9,-18.2 49.2,-23.7 22.4,-6.9 44.5,-17 61.8,-33.3 16,-15.6 24.5,-38.6 22.1,-60.8 z"
     id="path16"
     style="fill:#537bac;fill-opacity:1;fill-rule:evenodd;stroke:none;stroke-opacity:1" /><path
     d="m 658.8,343.7 c -10.1,-12.9 -26.4,-18.5 -41.9,-21.8 -20.4,-3.4 -41.8,-3.6 -61.8,1.9 -12.6,3.2 -27.5,15.5 -25.7,26.7 0.1,0.8 0.2,1.5 0.4,2.1 1.1,6.3 5,11.9 10.7,14.9 1.8,1 3.8,1.6 5.5,1.5 19.1,0.5 39.3,-4.1 53.6,-17.6 11.1,-10.6 33,-6.9 38.5,7.9 3.6,10 -5.2,18.1 -13,22.6 -19.2,11.3 -41,17.3 -62.2,23.4 -29,8.2 -58.5,13.9 -87.5,22 -25.8,8 -52.3,20.8 -67.2,44.3 -14.2,21.2 -17.1,49.6 -6.6,73 8.3,20 26.1,34.4 45.1,43.6 4.6,-1.5 8.5,-4.5 12.7,-6.8 7.6,-4.6 15.7,-8.2 24,-11.4 -0.2,-0.4 -0.4,-0.8 -0.6,-1.1 -0.2,-0.3 -0.4,-0.6 -0.6,-1 -16.6,-6.9 -34,-14.9 -45.1,-29.8 -6.6,-8.7 -8.1,-20.2 -6.2,-30.7 1.8,-14.9 13.4,-26.1 25.7,-33.4 21.2,-13 46.2,-16.5 69.8,-22.6 30.7,-7.7 61.5,-15.8 90.5,-28.9 15.8,-7.4 32,-16.3 42,-31.1 9.8,-14 10.1,-34.1 -0.1,-47.7 z m -100,-8.5 c 6.5,-3.4 15,-6.9 21.5,-1.2 -5.8,5.8 -15.2,6.7 -21.5,1.2 z"
     id="path17"
     style="fill:#537bac;fill-opacity:1;fill-rule:evenodd;stroke:none;stroke-opacity:1" /><path
     d="m 530.5,718.7 c -7.5,3.4 -15.1,6.5 -22.7,9.6 0.1,0.2 0.2,0.4 0.4,0.6 0.3,0.5 0.5,1 0.8,1.5 9,5.6 17.6,12.7 22.3,22.4 7.5,14.2 5.6,31.5 -0.9,45.7 -4.1,9 -11.9,15.3 -17.6,23.2 20.9,-1.8 33.7,-22.1 38.4,-40.7 5.9,-22.7 -4,-46.6 -20.7,-62.3 z"
     id="path18"
     style="fill:#537bac;fill-opacity:1;fill-rule:evenodd;stroke:none;stroke-opacity:1" /><path
     d="m 508.6,607.4 c -0.2,-0.4 -0.3,-0.7 -0.5,-1.1 -8.4,2.8 -16.7,5.8 -24.7,9.7 0.4,27.3 0.3,54.6 0.6,81.9 0.1,0.2 0.1,0.4 0.2,0.6 0.2,0.4 0.3,0.7 0.5,1.1 0.3,0.7 0.7,1.3 1,1.9 8.4,-4.1 14.9,-7.2 22.3,-10.8 0.7,-27.3 0.8,-54.6 1.1,-81.9 v 0 c -0.1,-0.2 -0.2,-0.4 -0.3,-0.6 0.1,-0.3 -0.1,-0.6 -0.2,-0.8 z"
     id="path19"
     style="fill:#537bac;fill-opacity:1;fill-rule:evenodd;stroke:none;stroke-opacity:1" /><path
     d="m 485.7,466.2 c -4.7,0.6 -2.8,6.1 -3.3,9.3 0.4,30 0.4,59.9 0.7,89.9 0.2,0.3 0.4,0.6 0.5,1 0.2,0.4 0.7,1.8 0.9,2.2 8.4,-3.3 16.7,-6.2 25.2,-9.2 0.2,-32.8 0.3,-66.5 0.5,-99.3 v 0 c -0.1,-0.1 -0.1,-0.2 -0.2,-0.3 -8.1,2 -16.2,4.1 -24.3,6.4 z"
     id="path20"
     style="fill:#537bac;fill-opacity:1;fill-rule:evenodd;stroke:none;stroke-opacity:1" /><path
     d="m 507,729.7 c -0.1,-0.2 -0.3,-0.4 -0.4,-0.6 -7.3,3 -14.6,6.1 -21.8,9.6 1.1,54.7 1.5,109.4 5,163.9 1,11.5 1.2,23.5 6,34.2 2.6,-4.6 4.6,-9.5 5,-14.8 2.5,-19.4 2.8,-38.9 4,-58.3 1.1,-44.1 2.8,-88.2 3,-132.4 -0.3,-0.6 -0.5,-1.1 -0.8,-1.6 z"
     id="path21"
     style="fill:#537bac;fill-opacity:1;fill-rule:evenodd;stroke:none;stroke-opacity:1" /><g
     id="g23"
     style="fill:#537bac;fill-opacity:1;fill-rule:evenodd;stroke:none;stroke-opacity:1">
		<path
   d="m 457.6,171.3 c 19.7,-2.6 39.9,-0.3 59.8,-1.1 7.2,0.6 16.7,-2.1 21.6,4.8 5.4,6.5 -1,17.2 -9.2,16.2 -22.9,0.1 -45.8,0.3 -68.7,-0.1 -10.5,0.2 -13.3,-16.3 -3.5,-19.8 z"
   id="path22"
   style="fill:#537bac;fill-opacity:1;fill-rule:evenodd;stroke:none;stroke-opacity:1" />
		<path
   d="m 482,198.3 c 9.5,0 19.1,0 28.7,0 0,72.3 -0.2,144.6 -0.3,216.9 -9.3,2.4 -18.6,4.6 -27.9,6.8 C 482,347.5 481.9,272.9 482,198.3 Z"
   id="path23"
   style="fill:#537bac;fill-opacity:1;fill-rule:evenodd;stroke:none;stroke-opacity:1" />
		<circle
   cx="496.29999"
   cy="121.1"
   r="45.700001"
   id="circle23"
   style="fill:#537bac;fill-opacity:1;fill-rule:evenodd;stroke:none;stroke-opacity:1" />
	</g><path
     d="m 376.8,392.2 c -8.6,-4 -17.6,-8.2 -23.9,-15.5 -4.3,-5 -4.3,-12.6 -1,-18.1 5.1,-7.4 14.7,-10.7 23.4,-10 7.3,0.5 12.9,5.7 18.4,10 13.2,10.8 30.9,13.4 47.4,13.7 1.9,0.2 3.9,-0.5 5.9,-1.5 5.5,-2.8 9.4,-8.1 10.8,-14.1 0.5,-2.2 0.6,-4.4 0.2,-6.6 -0.7,-3.8 -2.1,-9.6 -5.1,-12.1 -11.3,-11.2 -28.2,-13.7 -43.4,-14.9 -24.7,-1.4 -51.3,1.1 -72.1,15.9 v 0 c -15.1,10.7 -19.7,32.4 -12,48.9 6.5,13.8 19,23.7 32.1,30.9 21.5,11.8 44.9,19.7 68.5,26.2 15.7,-10.7 36.7,-17.5 54.8,-23 -36.8,-8.8 -71.6,-15.8 -104,-29.8 z M 428,338.5 c -6.3,5.5 -15.7,4.6 -21.5,-1.2 6.4,-5.7 15,-2.2 21.5,1.2 z"
     id="path24"
     style="fill:#537bac;fill-opacity:1;fill-rule:evenodd;stroke:none;stroke-opacity:1" /></g>
</svg>
