<?xml version="1.0" encoding="UTF-8" standalone="no"?>
<!-- Created with Inkscape (http://www.inkscape.org/) -->

<svg
   version="1.1"
   id="svg1"
   width="246.95061"
   height="298.21204"
   viewBox="0 0 246.95061 298.21204"
   sodipodi:docname="liquids.svg"
   inkscape:version="1.4.2 (f4327f4, 2025-05-13)"
   xmlns:inkscape="http://www.inkscape.org/namespaces/inkscape"
   xmlns:sodipodi="http://sodipodi.sourceforge.net/DTD/sodipodi-0.dtd"
   xmlns="http://www.w3.org/2000/svg"
   xmlns:svg="http://www.w3.org/2000/svg">
  <defs
     id="defs1" />
  <sodipodi:namedview
     id="namedview1"
     pagecolor="#ffffff"
     bordercolor="#000000"
     borderopacity="0.25"
     inkscape:showpageshadow="2"
     inkscape:pageopacity="0.0"
     inkscape:pagecheckerboard="0"
     inkscape:deskcolor="#d1d1d1"
     showgrid="false"
     inkscape:zoom="2.659375"
     inkscape:cx="161.88014"
     inkscape:cy="134.80611"
     inkscape:window-width="1920"
     inkscape:window-height="1111"
     inkscape:window-x="-9"
     inkscape:window-y="-9"
     inkscape:window-maximized="1"
     inkscape:current-layer="g1" />
  <g
     inkscape:groupmode="layer"
     inkscape:label="Image"
     id="g1"
     transform="translate(-31.833931,-3.6298323)">
    <g
       id="g113">
      <path
         style="fill:#1f477b;fill-opacity:1"
         d="m 209.21982,241.99107 c 0,-30.536 0.0376,-43.028 0.0836,-27.76 0.046,15.268 0.046,40.252 0,55.52 -0.046,15.268 -0.0836,2.776 -0.0836,-27.76 z M 51.223405,296.79139 c 3.916,-0.0509 10.324,-0.0509 14.24,0 3.916,0.0509 0.712,0.0926 -7.12,0.0926 -7.832,0 -11.036,-0.0417 -7.12,-0.0926 z m 70.825255,-1.22699 c 0.0154,-0.37278 0.0912,-0.44861 0.19334,-0.19333 0.0924,0.231 0.0811,0.507 -0.0253,0.61333 -0.10634,0.10633 -0.18197,-0.0827 -0.16808,-0.42 z m 121.89671,-1.33248 29.122,-0.0842 -0.082,-50.06234 c -0.0451,-27.53428 0.0265,-49.95387 0.15902,-49.8213 0.13255,0.13256 0.20455,22.69737 0.16,50.14401 l -0.081,49.903 -29.20001,0.003 -29.20002,0.003 z m -95.20593,-19.68082 0.004,-18.32003 4.64,-0.0142 4.64,-0.0142 -4.55738,0.10292 -4.55738,0.10293 -0.0866,18.23126 -0.0866,18.23126 z M 31.910571,285.83107 c 0,-2.552 0.0497,-3.596 0.110436,-2.32 0.06074,1.276 0.06074,3.364 0,4.64 -0.06074,1.276 -0.110436,0.232 -0.110436,-2.32 z m 196.504429,-23.52 c -3e-5,-12.496 0.0397,-17.65458 0.0882,-11.4635 0.0486,6.19107 0.0486,16.41507 6e-5,22.72 -0.0485,6.30492 -0.0883,1.2395 -0.0883,-11.2565 z M 48.046682,283.35119 c 5.864802,-0.0489 15.368802,-0.0488 21.12,6e-5 5.751197,0.0489 0.952723,0.0888 -10.663277,0.0888 -11.616,-4e-5 -16.321526,-0.04 -10.456723,-0.0889 z M 31.938998,235.43107 c 8e-6,-24.64 0.03798,-34.67275 0.08438,-22.29499 0.0464,12.37775 0.04639,32.53775 -1.5e-5,44.8 -0.04641,12.26224 -0.08437,2.13499 -0.08436,-22.50501 z m 30.58967,22.69333 c 0.01535,-0.37278 0.09118,-0.44861 0.193333,-0.19333 0.09244,0.231 0.08107,0.507 -0.02526,0.61333 -0.106333,0.10633 -0.181965,-0.0827 -0.16807,-0.42 z m 71.339632,-1.49333 c -0.004,-0.51139 0.40485,-0.55391 4.7151,-0.48981 l 4.72,0.0702 -4.46696,0.0993 c -3.07199,0.0683 -4.54446,0.22124 -4.7151,0.48981 -0.17208,0.27084 -0.24964,0.21889 -0.25304,-0.16946 z m 29.71174,-0.32501 c 0.13495,-0.13475 4.41192,-0.2066 9.50437,-0.15967 l 9.25899,0.0853 -9.50437,0.15967 c -5.2274,0.0878 -9.39395,0.0494 -9.25899,-0.0853 z m -49.15664,-0.15431 c 2.596,-0.0538 6.844,-0.0538 9.44,0 2.596,0.0538 0.472,0.0978 -4.72,0.0978 -5.192,0 -7.316,-0.044 -4.72,-0.0978 z M 47.703405,255.1919 c 2.332,-0.0547 6.148,-0.0547 8.48,0 2.332,0.0547 0.424,0.0994 -4.24,0.0994 -4.664,0 -6.572,-0.0447 -4.24,-0.0994 z m 83.119005,-80.80083 9.9e-4,-76.239997 1.20277,-0.0336 1.20277,-0.0335 -1.12211,0.13282 -1.12211,0.13283 -0.0816,76.140727 -0.0817,76.14072 z m 35.83842,-1.52 c 0,-42.856 0.0371,-60.388 0.0826,-38.96 0.0454,21.428 0.0454,56.492 0,77.92 -0.0454,21.428 -0.0826,3.896 -0.0826,-38.96 z M 47.703405,247.1919 c 2.332,-0.0547 6.148,-0.0547 8.48,0 2.332,0.0547 0.424,0.0994 -4.24,0.0994 -4.664,0 -6.572,-0.0447 -4.24,-0.0994 z m 14.825263,-2.8275 c 0.01535,-0.37278 0.09118,-0.44861 0.193333,-0.19333 0.09244,0.231 0.08107,0.507 -0.02526,0.61333 -0.106333,0.10633 -0.181965,-0.0827 -0.16807,-0.42 z m 73.731742,-68.45333 c 0,-36.784 0.0373,-51.8795 0.083,-33.54555 0.0456,18.33395 0.0456,48.42995 1e-5,66.88 -0.0456,18.45005 -0.083,3.44955 -0.083,-33.33445 z M 62.528668,230.9244 c 0.01535,-0.37278 0.09118,-0.44861 0.193333,-0.19333 0.09244,0.231 0.08107,0.507 -0.02526,0.61333 -0.106333,0.10633 -0.181965,-0.0827 -0.16807,-0.42 z m -14.825263,-2.9325 c 2.332,-0.0547 6.148,-0.0547 8.48,0 2.332,0.0547 0.424,0.0994 -4.24,0.0994 -4.664,0 -6.572,-0.0447 -4.24,-0.0994 z m 105.119995,9e-4 c 1.54,-0.0587 4.06,-0.0587 5.6,0 1.54,0.0587 0.28,0.10666 -2.8,0.10666 -3.08,0 -4.34,-0.048 -2.8,-0.10666 z m 75.57283,-11.60173 c 0,-3.256 0.0475,-4.588 0.10559,-2.96 0.0581,1.628 0.0581,4.292 0,5.92 -0.0581,1.628 -0.10559,0.296 -0.10559,-2.96 z M 47.703405,219.9919 c 2.332,-0.0547 6.148,-0.0547 8.48,0 2.332,0.0547 0.424,0.0994 -4.24,0.0994 -4.664,0 -6.572,-0.0447 -4.24,-0.0994 z m 14.825263,-2.8275 c 0.01535,-0.37278 0.09118,-0.44861 0.193333,-0.19333 0.09244,0.231 0.08107,0.507 -0.02526,0.61333 -0.106333,0.10633 -0.181965,-0.0827 -0.16807,-0.42 z m 90.294732,-2.6116 c 1.54,-0.0587 4.06,-0.0587 5.6,0 1.54,0.0587 0.28,0.10666 -2.8,0.10666 -3.08,0 -4.34,-0.048 -2.8,-0.10666 z M 62.528668,203.7244 c 0.01535,-0.37278 0.09118,-0.44861 0.193333,-0.19333 0.09244,0.231 0.08107,0.507 -0.02526,0.61333 -0.106333,0.10633 -0.181965,-0.0827 -0.16807,-0.42 z m 90.294732,-2.6116 c 1.54,-0.0587 4.06,-0.0587 5.6,0 1.54,0.0587 0.28,0.10666 -2.8,0.10666 -3.08,0 -4.34,-0.048 -2.8,-0.10666 z M 47.703405,200.7919 c 2.332,-0.0547 6.148,-0.0547 8.48,0 2.332,0.0547 0.424,0.0994 -4.24,0.0994 -4.664,0 -6.572,-0.0447 -4.24,-0.0994 z M 230.1234,188.97247 c 0.231,-0.0924 0.507,-0.0811 0.61334,0.0253 0.10633,0.10634 -0.0827,0.18197 -0.42,0.16807 -0.37279,-0.0153 -0.44861,-0.0912 -0.19334,-0.19333 z m 4.16,0 c 0.231,-0.0924 0.507,-0.0811 0.61334,0.0253 0.10633,0.10634 -0.0827,0.18197 -0.42,0.16807 -0.37279,-0.0153 -0.44861,-0.0912 -0.19334,-0.19333 z m 20.14,-0.0129 c 0.572,-0.071 1.508,-0.071 2.08,0 0.572,0.071 0.104,0.12906 -1.04,0.12906 -1.144,0 -1.612,-0.0581 -1.04,-0.12906 z m 18.56143,-7.52823 c 0.15206,-13.29611 0.26077,-14.50936 0.32976,-3.68028 0.0379,5.94 -0.0392,10.80013 -0.17119,10.80028 -0.132,1.6e-4 -0.20336,-3.20384 -0.15857,-7.12 z m -63.77965,-5.20028 c -1.4e-4,-5.28 0.0437,-7.4849 0.0974,-4.89978 0.0537,2.58512 0.0538,6.90512 2.6e-4,9.6 -0.0536,2.69488 -0.0975,0.57978 -0.0977,-4.70022 z m 49.39822,7.3014 c 0.231,-0.0924 0.507,-0.0811 0.61334,0.0253 0.10633,0.10634 -0.0827,0.18197 -0.42,0.16807 -0.37279,-0.0153 -0.44861,-0.0912 -0.19334,-0.19333 z m -30.53465,-17.0614 c 0,-2.376 0.0504,-3.348 0.11195,-2.16 0.0616,1.188 0.0616,3.132 0,4.32 -0.0616,1.188 -0.11195,0.216 -0.11195,-2.16 z m -154.555749,1.2 -0.609596,-0.72 0.72,0.60959 c 0.676622,0.57287 0.865677,0.83041 0.609596,0.83041 -0.06072,0 -0.384722,-0.324 -0.72,-0.72 z m 180.790099,-2.64 c 7.3e-4,-1.936 0.0534,-2.68675 0.11713,-1.66832 0.0637,1.01843 0.0631,2.60243 -0.001,3.52 -0.0644,0.91757 -0.11653,0.0843 -0.11581,-1.85168 z m -188.869169,-2.4 c 0,-0.44 0.07263,-0.62 0.161404,-0.4 0.08877,0.22 0.08877,0.58 0,0.8 -0.08877,0.22 -0.161404,0.04 -0.161404,-0.4 z m -14.08,-1.6 c 0,-0.44 0.07263,-0.62 0.161404,-0.4 0.08877,0.22 0.08877,0.58 0,0.8 -0.08877,0.22 -0.161404,0.04 -0.161404,-0.4 z m 171.469469,-2.08 c 0.41336,-0.44 0.82356,-0.8 0.91156,-0.8 0.088,0 -0.1782,0.36 -0.59156,0.8 -0.41336,0.44 -0.82356,0.8 -0.91156,0.8 -0.088,0 0.1782,-0.36 0.59156,-0.8 z m -70,-6.15827 c 1.54,-0.0587 4.06,-0.0587 5.6,0 1.54,0.0587 0.28,0.10666 -2.8,0.10666 -3.08,0 -4.34,-0.048 -2.8,-0.10666 z m 68.13379,-3.35318 -0.0538,-1.51144 -4.72,-0.0978 -4.72,-0.0978 4.73004,-0.0708 c 5.24896,-0.0785 5.16912,-0.11171 4.94508,2.05558 -0.12184,1.17856 -0.12993,1.16615 -0.18133,-0.27779 z m 22.98621,-1.52855 -14.56,-0.16981 14.64,-0.0751 c 9.59673,-0.0492 14.64,0.0351 14.64,0.24491 0,0.176 -0.036,0.2862 -0.08,0.2449 -0.044,-0.0413 -6.632,-0.15151 -14.64,-0.2449 z m 25.37463,-0.23813 c 1.37204,-0.0601 3.53204,-0.0598 4.8,8.2e-4 1.26795,0.0606 0.14537,0.10977 -2.49463,0.10933 -2.64,-4.5e-4 -3.67742,-0.05 -2.30537,-0.11015 z m -60.11186,-12.40187 c 1.3e-4,-5.632 0.0437,-7.89094 0.0967,-5.01985 0.0531,2.87108 0.053,7.47908 -2.3e-4,10.24 -0.0532,2.76091 -0.0967,0.41185 -0.0965,-5.22015 z m 63.9936,0 c 2.4e-4,-3.872 0.0464,-5.41202 0.10268,-3.42227 0.0562,1.98976 0.056,5.15776 -4.4e-4,7.04 -0.0565,1.88225 -0.10249,0.25427 -0.10224,-3.61773 z m -234.280473,4 c 0,-0.968 0.05999,-1.364 0.133309,-0.88 0.07332,0.484 0.07332,1.276 0,1.76 -0.07332,0.484 -0.133309,0.088 -0.133309,-0.88 z m 113.904103,0.0817 c 1.54,-0.0587 4.06,-0.0587 5.6,0 1.54,0.0587 0.28,0.10666 -2.8,0.10666 -3.08,0 -4.34,-0.048 -2.8,-0.10666 z m -80.694732,-1.8684 c 0.01535,-0.37278 0.09118,-0.44861 0.193333,-0.19333 0.09244,0.231 0.08107,0.507 -0.02526,0.61333 -0.106333,0.10633 -0.181965,-0.0827 -0.16807,-0.42 z M 140.0234,98.071513 c 3.3,-0.052 8.7,-0.052 12,0 3.3,0.052 0.6,0.0946 -6,0.0946 -6.6,0 -9.3,-0.0426 -6,-0.0946 z m 19.04,0.0137 c 0.396,-0.0763 1.044,-0.0763 1.44,0 0.396,0.0763 0.072,0.13868 -0.72,0.13868 -0.792,0 -1.116,-0.0624 -0.72,-0.13868 z m -28.27465,-9.69416 c 0,-2.376004 0.0504,-3.348004 0.11195,-2.160004 0.0616,1.188004 0.0616,3.132004 0,4.320004 -0.0616,1.188 -0.11195,0.216 -0.11195,-2.16 z m 2.83465,-6.620588 c 0.308,-0.08049 0.812,-0.08049 1.12,0 0.308,0.08049 0.056,0.146344 -0.56,0.146344 -0.616,0 -0.868,-0.06585 -0.56,-0.146344 z m 7.2849,-0.339416 c 0.003,-0.389 0.0808,-0.440586 0.25336,-0.168936 0.17279,0.271956 1.70635,0.420966 5.0351,0.48924 l 4.78664,0.09818 -5.04,0.07076 c -4.61523,0.0648 -5.03959,0.02356 -5.0351,-0.489241 z m 16.0751,0.339416 c 0.308,-0.08049 0.812,-0.08049 1.12,0 0.308,0.08049 0.056,0.146344 -0.56,0.146344 -0.616,0 -0.868,-0.06585 -0.56,-0.146344 z m -14.88,-30.711345 c 0.22,-0.08877 0.58,-0.08877 0.8,0 0.22,0.08877 0.04,0.161403 -0.4,0.161403 -0.44,0 -0.62,-0.07263 -0.4,-0.161403 z m 6.62713,-0.188071 c -0.084,-0.22 -0.11451,-10.408 -0.0677,-22.64 l 0.085,-22.24 0.0778,22.456537 c 0.073,21.080446 0.11209,22.465504 0.63777,22.602879 0.52483,0.137152 0.5242,0.148675 -0.01,0.183464 -0.31353,0.02042 -0.6388,-0.14288 -0.72283,-0.36288 z"
         id="path8" />
      <path
         style="fill:#1f477b;fill-opacity:1"
         d="m 31.833931,280.71107 c 0,-0.44 0.07263,-0.62 0.161404,-0.4 0.08877,0.22 0.08877,0.58 0,0.8 -0.08877,0.22 -0.161404,0.04 -0.161404,-0.4 z M 209.08866,186.1244 c 0.0154,-0.37278 0.0912,-0.44861 0.19334,-0.19333 0.0924,0.231 0.0811,0.507 -0.0253,0.61333 -0.10634,0.10633 -0.18197,-0.0827 -0.16808,-0.42 z M 44.263405,174.37094 c 0,-0.0551 0.468,-0.52308 1.04,-1.04 l 1.04,-0.93987 -0.939869,1.04 c -0.87609,0.96942 -1.140131,1.18708 -1.140131,0.93987 z M 227.96866,171.0844 c 0.0154,-0.37278 0.0912,-0.44861 0.19334,-0.19333 0.0924,0.231 0.0811,0.507 -0.0253,0.61333 -0.10634,0.10633 -0.18197,-0.0827 -0.16808,-0.42 z m -152.520312,-1.49333 -1.264943,-1.36 1.36,1.26494 c 0.748,0.69572 1.36,1.30772 1.36,1.36 0,0.2421 -0.278672,-1.6e-4 -1.455057,-1.26494 z m -32.784943,-1.32082 c 0,-0.0665 0.252,-0.31845 0.56,-0.56 0.507538,-0.39804 0.518856,-0.38672 0.120817,0.12082 -0.418038,0.53304 -0.680817,0.70255 -0.680817,0.43918 z M 212.7434,159.11107 c 0.31856,-0.352 0.65119,-0.64 0.73919,-0.64 0.088,0 -0.10063,0.288 -0.41919,0.64 -0.31855,0.352 -0.65119,0.64 -0.73919,0.64 -0.088,0 0.10064,-0.288 0.41919,-0.64 z m 56.11918,-4.08 c -0.39803,-0.50754 -0.38672,-0.51886 0.12082,-0.12082 0.308,0.24155 0.56,0.49355 0.56,0.56 0,0.26337 -0.26278,0.0939 -0.68082,-0.43918 z M 133.4834,98.092473 c 0.231,-0.0924 0.507,-0.0811 0.61334,0.0253 0.10633,0.10634 -0.0827,0.18197 -0.42,0.16807 -0.37279,-0.0153 -0.44861,-0.0912 -0.19334,-0.19333 z"
         id="path7" />
      <path
         style="fill:#1f477b;fill-opacity:1"
         d="m 225.3234,287.21247 c 0.231,-0.0924 0.507,-0.0811 0.61334,0.0253 0.10633,0.10634 -0.0827,0.18197 -0.42,0.16807 -0.37279,-0.0154 -0.44861,-0.0912 -0.19334,-0.19333 z m -72.5,-94.09967 c 1.54,-0.0587 4.06,-0.0587 5.6,0 1.54,0.0587 0.28,0.10666 -2.8,0.10666 -3.08,0 -4.34,-0.048 -2.8,-0.10666 z M 48.046682,192.79119 c 5.864802,-0.0488 15.368802,-0.0488 21.12,6e-5 5.751197,0.0489 0.952723,0.0888 -10.663277,0.0888 -11.616,-4e-5 -16.321526,-0.04 -10.456723,-0.0889 z M 235.2434,188.97247 c 0.231,-0.0924 0.507,-0.0811 0.61334,0.0253 0.10633,0.10634 -0.0827,0.18197 -0.42,0.16807 -0.37279,-0.0153 -0.44861,-0.0912 -0.19334,-0.19333 z m -82.42,-1.29967 c 1.54,-0.0587 4.06,-0.0587 5.6,0 1.54,0.0587 0.28,0.10666 -2.8,0.10666 -3.08,0 -4.34,-0.048 -2.8,-0.10666 z m -94.657403,-0.32052 c 15.85978,-0.0667 20.525973,-0.17543 20.744362,-0.4836 0.207162,-0.29233 0.247083,-0.27052 0.15077,0.0824 -0.114705,0.42029 -2.694978,0.48044 -20.744362,0.4836 l -20.613362,0.004 z M 253.1634,183.53247 c 0.231,-0.0924 0.507,-0.0811 0.61334,0.0253 0.10633,0.10634 -0.0827,0.18197 -0.42,0.16807 -0.37279,-0.0153 -0.44861,-0.0912 -0.19334,-0.19333 z m 4.48,0 c 0.231,-0.0924 0.507,-0.0811 0.61334,0.0253 0.10633,0.10634 -0.0827,0.18197 -0.42,0.16807 -0.37279,-0.0153 -0.44861,-0.0912 -0.19334,-0.19333 z m -104.82,-3.85967 c 1.54,-0.0587 4.06,-0.0587 5.6,0 1.54,0.0587 0.28,0.10666 -2.8,0.10666 -3.08,0 -4.34,-0.048 -2.8,-0.10666 z m -81.220126,-6.24173 -0.939869,-1.04 1.04,0.93987 c 0.572,0.51692 1.04,0.98492 1.04,1.04 0,0.24721 -0.264041,0.0296 -1.140131,-0.93987 z m 81.220126,0.80173 c 1.54,-0.0587 4.06,-0.0587 5.6,0 1.54,0.0587 0.28,0.10666 -2.8,0.10666 -3.08,0 -4.34,-0.048 -2.8,-0.10666 z M 46.823405,171.75107 c 0.413358,-0.44 0.823561,-0.8 0.911561,-0.8 0.088,0 -0.178203,0.36 -0.591561,0.8 -0.413359,0.44 -0.823561,0.8 -0.911561,0.8 -0.088,0 0.178202,-0.36 0.591561,-0.8 z m -5.6,-2.08 c 0.687437,-0.704 1.321886,-1.28 1.409886,-1.28 0.088,0 -0.402449,0.576 -1.089886,1.28 -0.687438,0.704 -1.321887,1.28 -1.409887,1.28 -0.088,0 0.402449,-0.576 1.089887,-1.28 z M 278.52866,166.6044 c 0.0154,-0.37278 0.0912,-0.44861 0.19334,-0.19333 0.0924,0.231 0.0811,0.507 -0.0253,0.61333 -0.10634,0.10633 -0.18197,-0.0827 -0.16808,-0.42 z M 152.8234,166.2328 c 1.54,-0.0587 4.06,-0.0587 5.6,0 1.54,0.0587 0.28,0.10666 -2.8,0.10666 -3.08,0 -4.34,-0.048 -2.8,-0.10666 z m -81.919297,-4.72173 c 0.0036,-0.704 0.06908,-0.95432 0.145625,-0.55627 0.07654,0.39805 0.07364,0.97405 -0.0065,1.28 -0.08009,0.30595 -0.142718,-0.0197 -0.139167,-0.72373 z m -5.458315,-0.32 c 0.0065,-0.528 0.07824,-0.70526 0.159374,-0.39391 0.08113,0.31135 0.0758,0.74335 -0.01186,0.96 -0.08766,0.21665 -0.154038,-0.0381 -0.147517,-0.56609 z M 152.8234,160.7928 c 1.54,-0.0587 4.06,-0.0587 5.6,0 1.54,0.0587 0.28,0.10666 -2.8,0.10666 -3.08,0 -4.34,-0.048 -2.8,-0.10666 z M 72.128668,136.5244 c 0.01535,-0.37278 0.09118,-0.44861 0.193333,-0.19333 0.09244,0.231 0.08107,0.507 -0.02526,0.61333 -0.106333,0.10633 -0.181965,-0.0827 -0.16807,-0.42 z m -32.96,-0.96 c 0.01536,-0.37278 0.09118,-0.44861 0.193333,-0.19333 0.09244,0.231 0.08107,0.507 -0.02526,0.61333 -0.106333,0.10633 -0.181965,-0.0827 -0.16807,-0.42 z m 190.318922,-7.41327 c 8.1533,-0.0476 21.4013,-0.0476 29.44,3e-5 8.0387,0.0476 1.36781,0.0865 -14.82419,0.0865 -16.192,-2e-5 -22.76911,-0.0389 -14.61581,-0.0865 z m -1.78419,-5.44 c 8.932,-0.0473 23.548,-0.0473 32.48,0 8.932,0.0473 1.624,0.0859 -16.24,0.0859 -17.864,0 -25.172,-0.0387 -16.24,-0.0859 z M 57.963405,92.652473 c 0.231,-0.0924 0.507,-0.0811 0.613333,0.0253 0.106333,0.10634 -0.08267,0.18197 -0.42,0.16807 -0.372782,-0.0153 -0.448608,-0.0912 -0.193333,-0.19333 z m 97.451805,-2.6614 c 0,-1.496 0.0551,-2.108 0.1225,-1.36 0.0674,0.748 0.0674,1.972 0,2.72 -0.0674,0.748 -0.1225,0.136 -0.1225,-1.36 z m 5.45354,-1.6 c 0,-2.376004 0.0504,-3.348004 0.11195,-2.160004 0.0616,1.188004 0.0616,3.132004 0,4.320004 -0.0616,1.188 -0.11195,0.216 -0.11195,-2.16 z m -96.806163,1.36 c -0.398039,-0.50754 -0.38672,-0.51886 0.120818,-0.12082 0.533039,0.41804 0.702553,0.68082 0.439182,0.68082 -0.06645,0 -0.31845,-0.252 -0.56,-0.56 z m -6.439182,-2.53193 c 0.22,-0.0888 0.58,-0.0888 0.8,0 0.22,0.0888 0.04,0.1614 -0.4,0.1614 -0.44,0 -0.62,-0.0726 -0.4,-0.1614 z"
         id="path6" />
      <path
         style="fill:#1f477b;fill-opacity:1"
         d="m 227.7034,299.67113 c 8.932,-0.0473 23.548,-0.0473 32.48,0 8.932,0.0473 1.624,0.0859 -16.24,0.0859 -17.864,0 -25.172,-0.0387 -16.24,-0.0859 z m 50.95622,-54.64006 c 10e-6,-28.864 0.0377,-40.62464 0.0838,-26.13476 0.0461,14.48989 0.0461,38.10589 -1e-5,52.48 -0.0461,14.37412 -0.0838,2.51876 -0.0838,-26.34524 z m -64,-3.2 c 1e-5,-28.864 0.0377,-40.62464 0.0838,-26.13476 0.0461,14.48989 0.0461,38.10589 -10e-6,52.48 -0.0461,14.37412 -0.0838,2.51876 -0.0837,-26.34524 z m -71.36643,32.8 c 0,-10.12 0.0405,-14.26 0.09,-9.2 0.0495,5.06 0.0495,13.34 0,18.4 -0.0495,5.06 -0.09,0.92 -0.09,-9.2 z m -105.951397,12.16 c 0,-1.848 0.05289,-2.604 0.117529,-1.68 0.06464,0.924 0.06464,2.436 0,3.36 -0.06464,0.924 -0.117529,0.168 -0.117529,-1.68 z m 185.633207,-24.48 c -3e-5,-12.496 0.0397,-17.65458 0.0882,-11.4635 0.0486,6.19107 0.0486,16.41507 6e-5,22.72 -0.0485,6.30492 -0.0883,1.2395 -0.0883,-11.2565 z m -185.60392,15.44 c -0.08373,-0.22 -0.114676,-19.408 -0.06877,-42.64 l 0.08347,-42.24 0.07881,42.4777 0.07881,42.4777 21.04,0.0846 21.04,0.0846 -21.050043,0.0777 c -16.603022,0.0613 -21.082205,-0.007 -21.202282,-0.32234 z M 47.703405,260.6319 c 2.332,-0.0547 6.148,-0.0547 8.48,0 2.332,0.0547 0.424,0.0994 -4.24,0.0994 -4.664,0 -6.572,-0.0447 -4.24,-0.0994 z m 69.839185,-9.91781 7.67952,-0.0944 0.0816,-77.75431 0.0816,-77.754317 -9.7e-4,77.839997 -9.8e-4,77.84001 -7.76016,0.009 -7.76016,0.009 z m 17.6982,-0.002 c 1.90157,-0.0567 4.92557,-0.0565 6.72,4.8e-4 1.79444,0.0569 0.23861,0.1033 -3.45739,0.10304 -3.696,-2.6e-4 -5.16417,-0.0469 -3.26261,-0.10352 z m 15.04,0 c 1.90157,-0.0567 4.92557,-0.0565 6.72,4.8e-4 1.79444,0.0569 0.23861,0.1033 -3.45739,0.10304 -3.696,-2.6e-4 -5.16417,-0.0469 -3.26261,-0.10352 z m 20.30261,-7e-5 c 2.156,-0.0554 5.684,-0.0554 7.84,0 2.156,0.0554 0.392,0.10065 -3.92,0.10065 -4.312,0 -6.076,-0.0453 -3.92,-0.10065 z m -9.44564,-8.47341 -0.0744,-8.55244 -5.52,-0.0956 -5.52,-0.0956 5.53004,-0.0719 c 4.22068,-0.0549 5.56687,0.024 5.68556,0.33332 0.0855,0.22289 0.11447,4.14689 0.0643,8.72 l -0.0912,8.31475 z m -19.43735,-66.32755 c 0,-36.784 0.0373,-51.8795 0.083,-33.54555 0.0456,18.33395 0.0456,48.42995 1e-5,66.88 -0.0456,18.45005 -0.083,3.44955 -0.083,-33.33445 z m -93.997005,65.84083 c 2.332,-0.0547 6.148,-0.0547 8.48,0 2.332,0.0547 0.424,0.0994 -4.24,0.0994 -4.664,0 -6.572,-0.0447 -4.24,-0.0994 z M 225.3234,237.61246 c 0.231,-0.0924 0.507,-0.0811 0.61334,0.0253 0.10633,0.10634 -0.0827,0.18197 -0.42,0.16807 -0.37279,-0.0154 -0.44861,-0.0912 -0.19334,-0.19333 z M 47.703405,233.4319 c 2.332,-0.0547 6.148,-0.0547 8.48,0 2.332,0.0547 0.424,0.0994 -4.24,0.0994 -4.664,0 -6.572,-0.0447 -4.24,-0.0994 z m 113.428395,-9.27328 -0.0684,-3.91244 -5.52,-0.0956 -5.52,-0.0956 5.53004,-0.0719 c 4.3182,-0.0562 5.56533,0.02 5.69105,0.34763 0.0885,0.23076 0.11481,2.06676 0.0584,4.08 l -0.10264,3.66044 z m 61.82443,-7.76755 c 0,-3.256 0.0475,-4.588 0.10559,-2.96 0.0581,1.628 0.0581,4.292 0,5.92 -0.0581,1.628 -0.10559,0.296 -0.10559,-2.96 z M 47.703405,214.5519 c 2.332,-0.0547 6.148,-0.0547 8.48,0 2.332,0.0547 0.424,0.0994 -4.24,0.0994 -4.664,0 -6.572,-0.0447 -4.24,-0.0994 z m 113.428395,-3.83328 -0.0684,-3.91244 -5.52,-0.0956 -5.52,-0.0956 5.53004,-0.0719 c 4.3182,-0.0562 5.56533,0.02 5.69105,0.34763 0.0885,0.23076 0.11481,2.06676 0.0584,4.08 l -0.10264,3.66044 z M 47.703405,206.2319 c 2.332,-0.0547 6.148,-0.0547 8.48,0 2.332,0.0547 0.424,0.0994 -4.24,0.0994 -4.664,0 -6.572,-0.0447 -4.24,-0.0994 z m 113.483315,-9.04083 c 0,-2.2 0.0511,-3.1 0.11361,-2 0.0625,1.1 0.0625,2.9 0,4 -0.0625,1.1 -0.11361,0.2 -0.11361,-2 z m 69.08277,-2.78176 c 0.31135,-0.0811 0.74335,-0.0758 0.96,0.0119 0.21665,0.0877 -0.0381,0.15403 -0.56609,0.14751 -0.528,-0.007 -0.70526,-0.0782 -0.39391,-0.15937 z m 3.67391,0.01 c 0.22,-0.0888 0.58,-0.0888 0.8,0 0.22,0.0888 0.04,0.1614 -0.4,0.1614 -0.44,0 -0.62,-0.0726 -0.4,-0.1614 z m 44.70517,-15.30807 c -9e-5,-6.688 0.0423,-9.46948 0.0943,-6.18107 0.052,3.28842 0.0521,8.76042 1.8e-4,12.16 -0.0519,3.39959 -0.0944,0.70907 -0.0945,-5.97893 z m -117.46185,4.64 c 0,-2.2 0.0511,-3.1 0.11361,-2 0.0625,1.1 0.0625,2.9 0,4 -0.0625,1.1 -0.11361,0.2 -0.11361,-2 z m 53.45644,-8.32 c 0,-4.664 0.0447,-6.572 0.0994,-4.24 0.0547,2.332 0.0547,6.148 0,8.48 -0.0547,2.332 -0.0994,0.424 -0.0994,-4.24 z m 40.10597,8.08808 c 0.57515,-0.0712 1.43915,-0.0697 1.92,0.003 0.48085,0.073 0.0103,0.13128 -1.04573,0.12949 -1.056,-0.002 -1.44942,-0.0615 -0.87427,-0.13276 z m -93.56241,-13.20808 c 0,-2.2 0.0511,-3.1 0.11361,-2 0.0625,1.1 0.0625,2.9 0,4 -0.0625,1.1 -0.11361,0.2 -0.11361,-2 z m 98.56101,-4 c 5.6e-4,-2.288 0.0515,-3.18201 0.11327,-1.9867 0.0617,1.19532 0.0613,3.06732 -10e-4,4.16 -0.0623,1.09269 -0.11281,0.1147 -0.11225,-2.1733 z m -26.24463,-1.28 c 7.3e-4,-1.936 0.0534,-2.68675 0.11713,-1.66832 0.0637,1.01843 0.0631,2.60243 -0.001,3.52 -0.0644,0.91757 -0.11653,0.0843 -0.11581,-1.85168 z m -187.589169,-3.68 c 0,-0.44 0.07263,-0.62 0.161404,-0.4 0.08877,0.22 0.08877,0.58 0,0.8 -0.08877,0.22 -0.161404,0.04 -0.161404,-0.4 z m 115.272789,-4.48 c 0,-2.2 0.0511,-3.1 0.11361,-2 0.0625,1.1 0.0625,2.9 0,4 -0.0625,1.1 -0.11361,0.2 -0.11361,-2 z m 105.56821,-7.52 c 0.002,-0.88 0.0645,-1.20202 0.1381,-0.7156 0.0736,0.48642 0.0716,1.20642 -0.004,1.6 -0.076,0.39358 -0.13614,-0.004 -0.13373,-0.8844 z m -111.22132,-1.9955 5.51021,-0.0995 0.10456,-3.75249 0.10456,-3.75248 -0.0148,3.84 -0.0148,3.84 -5.6,0.012 -5.6,0.012 z m 123.11256,-12.0845 c 1.3e-4,-5.632 0.0437,-7.89094 0.0967,-5.01985 0.0531,2.87108 0.053,7.47908 -2.3e-4,10.24 -0.0532,2.76091 -0.0967,0.41185 -0.0965,-5.22015 z m -63.99952,6.79173 c -0.0862,-0.22455 -0.11456,-3.42855 -0.0631,-7.12 l 0.0936,-6.71173 0.0731,6.95071 0.0731,6.95071 4.24,0.0994 4.24,0.0994 -4.25004,0.0699 c -3.20281,0.0527 -4.28865,-0.0307 -4.40671,-0.33839 z m 20.59947,0.16843 c 4.9845,-0.0496 13.0485,-0.0496 17.92,9e-5 4.87151,0.0497 0.79328,0.0902 -9.06272,0.0902 -9.856,-5e-5 -13.84177,-0.0407 -8.85728,-0.0903 z m 31.83059,0.002 c 1.19532,-0.0617 3.06732,-0.0613 4.16,0.001 1.09268,0.0623 0.11469,0.11281 -2.17331,0.11225 -2.288,-5.6e-4 -3.18201,-0.0515 -1.98669,-0.11326 z M 77.605788,141.031 c 0.0065,-0.528 0.07824,-0.70526 0.159374,-0.39391 0.08113,0.31135 0.0758,0.74335 -0.01186,0.96 -0.08766,0.21665 -0.154038,-0.0381 -0.147517,-0.56609 z m -33.246491,-1.44 c 0,-0.968 0.05999,-1.364 0.133309,-0.88 0.07332,0.484 0.07332,1.276 0,1.76 -0.07332,0.484 -0.133309,0.088 -0.133309,-0.88 z m 33.209371,-2.10667 c 0.01535,-0.37278 0.09118,-0.44861 0.193333,-0.19333 0.09244,0.231 0.08107,0.507 -0.02526,0.61333 -0.106333,0.10633 -0.181965,-0.0827 -0.16807,-0.42 z m 77.965232,-3.56883 5.51049,-0.0995 0.10444,-3.99298 0.10445,-3.99297 -0.0149,4.08049 -0.0149,4.08049 -5.6,0.012 -5.6,0.012 z m 5.65383,-17.5245 c 5.6e-4,-2.288 0.0515,-3.18201 0.11327,-1.9867 0.0617,1.19532 0.0613,3.06732 -10e-4,4.16 -0.0623,1.09269 -0.11281,0.1147 -0.11225,-2.1733 z m 0.002,-13.76 c 5e-4,-2.464 0.0507,-3.429697 0.11163,-2.146 0.0609,1.2837 0.0605,3.2997 -9.1e-4,4.48 -0.0614,1.1803 -0.11122,0.13 -0.11072,-2.334 z m -32.68186,-9.989627 c 0.48642,-0.0735 1.20642,-0.0716 1.6,0.004 0.39358,0.076 -0.004,0.13613 -0.8844,0.13373 -0.88,-0.002 -1.20202,-0.0645 -0.7156,-0.1381 z m 7.80894,0.0163 c -0.29441,-0.29441 -0.27014,-5.15353 0.0267,-5.33829 0.132,-0.0822 0.19348,1.05918 0.13663,2.53632 l -0.10338,2.68571 9.54338,0.0897 9.54337,0.0897 -9.46666,0.075 c -5.20667,0.0413 -9.56267,-0.0209 -9.68,-0.13828 z m 25.46666,-0.0159 c 0.484,-0.0733 1.276,-0.0733 1.76,0 0.484,0.0733 0.088,0.1333 -0.88,0.1333 -0.968,0 -1.364,-0.06 -0.88,-0.1333 z m -19.52,-5.44977 c 2.068,-0.0557 5.452,-0.0557 7.52,0 2.068,0.0557 0.376,0.10135 -3.76,0.10135 -4.136,0 -5.828,-0.0456 -3.76,-0.10135 z m 1.03155,-58.641034 c 0,-12.408 0.0397,-17.484 0.0883,-11.28 0.0486,6.204 0.0486,16.356 0,22.56 -0.0486,6.204 -0.0883,1.128 -0.0883,-11.28 z m 2.34845,-24.858596 c 0.231,-0.09244 0.507,-0.08107 0.61334,0.02526 0.10633,0.106333 -0.0827,0.181965 -0.42,0.16807 -0.37279,-0.01535 -0.44861,-0.09118 -0.19334,-0.193333 z"
         id="path5" />
      <path
         style="fill:#1f477b;fill-opacity:1"
         d="m 274.94258,159.19107 c -0.39803,-0.50754 -0.38672,-0.51886 0.12082,-0.12082 0.308,0.24155 0.56,0.49355 0.56,0.56 0,0.26337 -0.26278,0.0939 -0.68082,-0.43918 z m -56.27918,-3.72082 c 0,-0.0665 0.252,-0.31845 0.56,-0.56 0.50754,-0.39804 0.51886,-0.38672 0.12082,0.12082 -0.41804,0.53304 -0.68082,0.70255 -0.68082,0.43918 z m 6.00373,-13.22551 c 0.39805,-0.0765 0.97405,-0.0736 1.28,0.006 0.30595,0.0801 -0.0197,0.14272 -0.72373,0.13917 -0.704,-0.004 -0.95432,-0.0691 -0.55627,-0.14563 z m 37.59627,0.006 c 0.308,-0.0805 0.812,-0.0805 1.12,0 0.308,0.0805 0.056,0.14635 -0.56,0.14635 -0.616,0 -0.868,-0.0659 -0.56,-0.14635 z M 51.623405,90.190253 c 0,-0.0665 0.252,-0.31845 0.56,-0.56 0.507538,-0.39804 0.518856,-0.38672 0.120817,0.12082 -0.418038,0.53304 -0.680817,0.70255 -0.680817,0.43918 z m 86.339995,-2.97778 c 0.231,-0.0924 0.507,-0.0811 0.61334,0.0253 0.10633,0.10634 -0.0827,0.18197 -0.42,0.16807 -0.37279,-0.0153 -0.44861,-0.0912 -0.19334,-0.19333 z m 8.64,-30.72 c 0.231,-0.09244 0.507,-0.08107 0.61334,0.02526 0.10633,0.106333 -0.0827,0.181965 -0.42,0.16807 -0.37279,-0.01535 -0.44861,-0.09118 -0.19334,-0.193333 z"
         id="path4" />
      <path
         style="fill:#1f477b;fill-opacity:1"
         d="m 145.6434,250.73247 c 0.231,-0.0924 0.507,-0.0811 0.61334,0.0253 0.10633,0.10634 -0.0827,0.18197 -0.42,0.16807 -0.37279,-0.0154 -0.44861,-0.0912 -0.19334,-0.19333 z M 259.64866,171.0844 c 0.0154,-0.37278 0.0912,-0.44861 0.19334,-0.19333 0.0924,0.231 0.0811,0.507 -0.0253,0.61333 -0.10634,0.10633 -0.18197,-0.0827 -0.16808,-0.42 z m -186.135659,-3.09333 -0.609596,-0.72 0.72,0.60959 c 0.676622,0.57287 0.865677,0.83041 0.609596,0.83041 -0.06072,0 -0.384722,-0.324 -0.72,-0.72 z M 221.8634,159.63025 c 0,-0.0664 0.252,-0.31845 0.56,-0.56 0.50754,-0.39804 0.51886,-0.38672 0.12082,0.12082 -0.41804,0.53304 -0.68082,0.70255 -0.68082,0.43918 z m -76.22,-103.137777 c 0.231,-0.09244 0.507,-0.08107 0.61334,0.02526 0.10633,0.106333 -0.0827,0.181965 -0.42,0.16807 -0.37279,-0.01535 -0.44861,-0.09118 -0.19334,-0.193333 z"
         id="path3" />
      <path
         style="fill:#1f477b;fill-opacity:1"
         d="m 39.617116,300.92497 c -2.162227,-1.02932 -4.46376,-3.16164 -5.71255,-5.29254 -1.887258,-3.22036 -1.801272,-0.57436 -1.799943,-55.3886 0.0013,-54.36501 -0.04118,-52.93289 1.726616,-58.19106 1.655443,-4.92399 3.625646,-8.04808 7.885842,-12.50432 3.414171,-3.57129 4.26199,-5.19951 4.268395,-8.19738 0.0048,-2.24694 -0.332003,-3.11547 -3.16433,-8.16 -2.863279,-5.09966 -4.090029,-11.10171 -3.423776,-16.7513 0.42542,-3.60741 10.293062,-42.621517 11.258869,-44.514657 1.288401,-2.52547 4.585601,-4.49404 7.527166,-4.49404 3.017295,0 6.221972,1.95419 7.479345,4.56085 1.031753,2.13893 11.528408,41.295947 11.865661,44.263997 0.727212,6.39995 -1.044498,13.65601 -4.712829,19.30145 -2.184491,3.36185 -2.52372,6.71258 -0.998552,9.86316 0.382279,0.78968 1.732146,2.46952 2.999703,3.73297 5.442808,5.42517 8.405294,11.12583 9.595417,18.46429 0.423099,2.60889 0.488854,9.65307 0.489968,52.4896 8.3e-4,31.90197 -0.113249,50.08027 -0.321162,51.17659 -0.733855,3.8696 -3.220279,7.34768 -6.684497,9.35046 l -1.793054,1.03663 -17.28,0.0854 -17.28,0.0854 z m 34.896441,-4.35752 c 1.871505,-0.78197 3.280443,-2.07199 4.134206,-3.78526 0.741306,-1.48761 0.815642,-1.99561 0.815642,-5.57395 v -3.93717 h -21.12 -21.12 v 3.30192 c 0,5.4348 1.291905,8.14776 4.617323,9.69623 l 1.622677,0.75559 14.970278,0.003 c 12.353156,0.003 15.164259,-0.0779 16.079874,-0.46049 z m 4.949848,-61.13638 v -42.72 h -21.12 -21.12 v 42.72 42.72 h 21.12 21.12 z m -37.294546,24.33454 c -0.851923,-0.85192 -1.021067,-2.24116 -0.375277,-3.08227 0.89047,-1.15981 1.651986,-1.25227 10.313401,-1.25227 h 8.525653 l 0.935384,0.93538 c 1.143146,1.14315 1.191517,2.21479 0.150664,3.33789 l -0.78472,0.84673 h -8.989825 -8.989825 z m 0.654546,-13.04104 c -1.619459,-0.92876 -1.911616,-2.69098 -0.654546,-3.94805 l 0.785455,-0.78545 h 8.989825 8.989825 l 0.78472,0.84672 c 1.040853,1.1231 0.992482,2.19475 -0.150664,3.33789 l -0.935384,0.93539 -8.584616,-0.01 c -5.85452,-0.007 -8.788149,-0.12646 -9.224615,-0.37677 z m -0.654546,-14.15896 c -0.851923,-0.85192 -1.021067,-2.24116 -0.375277,-3.08227 0.89047,-1.15981 1.651986,-1.25227 10.313401,-1.25227 h 8.525653 l 0.935384,0.93538 c 1.143146,1.14315 1.191517,2.21479 0.150664,3.33789 l -0.78472,0.84673 h -8.989825 -8.989825 z m 0.654546,-13.04104 c -1.619459,-0.92876 -1.911616,-2.69098 -0.654546,-3.94805 l 0.785455,-0.78545 h 8.989825 8.989825 l 0.78472,0.84672 c 1.040853,1.1231 0.992482,2.19475 -0.150664,3.33789 l -0.935384,0.93539 -8.584616,-0.01 c -5.85452,-0.007 -8.788149,-0.12646 -9.224615,-0.37677 z m -0.654546,-14.15896 c -0.851923,-0.85192 -1.021067,-2.24116 -0.375277,-3.08227 0.89047,-1.15981 1.651986,-1.25227 10.313401,-1.25227 h 8.525653 l 0.935384,0.93538 c 1.143146,1.14315 1.191517,2.21479 0.150664,3.33789 l -0.78472,0.84673 h -8.989825 -8.989825 z m 36.974546,-18.22084 c 0,-0.87686 -1.370313,-4.86719 -2.319276,-6.7537 -1.466169,-2.9147 -2.655501,-4.51198 -5.856426,-7.86522 -4.1866,-4.38581 -5.532421,-7.57976 -5.175477,-12.2826 0.204649,-2.69631 0.768098,-4.18701 3.026216,-8.00636 0.938404,-1.5872 2.092648,-4.03782 2.564985,-5.44582 0.78779,-2.34834 0.857798,-2.9701 0.846737,-7.52 l -0.01206,-4.96 -5.469807,-19.95006 C 62.547004,99.037613 61.111811,94.233533 60.55977,93.645913 c -1.498231,-1.59479 -4.511062,-1.19398 -5.381261,0.7159 -0.198097,0.43478 -2.686123,9.889217 -5.528947,21.009877 l -5.168769,20.21938 -0.0036,3.68 c -0.005,5.183 1.156737,9.14567 4.002082,13.65096 2.595187,4.10919 3.316154,7.66242 2.352563,11.59444 -0.742594,3.03022 -2.229617,5.40901 -5.422633,8.6746 -3.798683,3.88501 -5.533531,6.66144 -6.869405,10.9937 -1.182304,3.83423 -3.690343,3.4063 19.963559,3.4063 17.440497,0 20.64,-0.0692 20.64,-0.4463 z M 210.40762,298.94221 c -0.38306,-0.35687 -0.77428,-0.96887 -0.86937,-1.36 -0.0951,-0.39113 -0.13284,-30.37514 -0.0839,-66.63114 l 0.089,-65.92 1.01941,-2.15193 c 1.25638,-2.65215 3.22556,-4.61818 6.01486,-6.00522 3.36871,-1.67517 4.64573,-3.73128 4.64573,-7.47998 v -1.80287 h -4.98461 -4.98462 l -0.93538,-0.93539 -0.93539,-0.93538 v -10.44923 -10.44923 l 0.93539,-0.93539 0.93538,-0.93538 h 32.83916 32.83916 l 0.78546,0.78545 0.78545,0.78546 v 10.54837 c 0,5.8016 -0.0894,10.78148 -0.19878,11.06638 -0.44509,1.1599 -1.82689,1.45434 -6.82533,1.45434 h -4.81589 v 1.54192 c 0,3.78192 1.50255,6.04127 5.36067,8.06074 2.41168,1.26235 4.31973,3.25181 5.468,5.70129 l 0.85133,1.81605 0.083,66.65156 0.083,66.65156 -0.78843,0.78844 -0.78844,0.78844 h -32.9142 c -32.62165,0 -32.9204,-0.006 -33.61067,-0.64886 z m 62.97578,-54.65868 v -50.18754 l -1.89241,-0.52613 c -1.04083,-0.28938 -3.45283,-1.24187 -5.36,-2.11664 -4.55426,-2.08893 -6.56687,-2.58321 -10.49482,-2.57742 -4.05361,0.006 -6.39661,0.55985 -10.68326,2.52551 -1.87523,0.85989 -4.12951,1.79285 -5.00951,2.07323 -2.46496,0.78537 -7.12791,1.15853 -10.32,0.82588 -3.55536,-0.37051 -5.49215,-0.94901 -9.69588,-2.89608 -1.85673,-0.85999 -3.83673,-1.6558 -4.4,-1.76845 l -1.02412,-0.20482 v 52.52 52.52 h 29.44 29.44 z m -49.45454,42.04208 -0.78546,-0.78545 v -23.15877 -23.15876 l 0.74063,-0.69578 c 0.72973,-0.68555 1.91075,-0.88622 2.92504,-0.49701 1.44632,0.55501 1.45433,0.68969 1.45433,24.44637 0,16.44429 -0.0994,22.62362 -0.37227,23.13589 -0.88885,1.66889 -2.68369,1.99209 -3.96227,0.71351 z m 0,-62.72 c -0.78182,-0.78181 -0.78546,-0.81526 -0.78546,-7.21454 0,-6.39929 0.004,-6.43274 0.78546,-7.21455 1.05678,-1.05678 2.24485,-1.00438 3.39916,0.14993 l 0.93538,0.93539 v 5.96565 c 0,6.0213 -0.14209,6.90103 -1.25227,7.7534 -0.84112,0.64579 -2.23035,0.47665 -3.08227,-0.37528 z m 13.35879,-34.7682 c 0.93266,-0.1945 3.56775,-1.18591 5.85575,-2.20312 5.64926,-2.51157 8.02145,-3.0036 13.55498,-2.81149 4.75801,0.16518 7.25439,0.7938 11.33745,2.85493 1.09159,0.55103 2.74135,1.26219 3.66614,1.58037 l 1.68143,0.5785 -0.007,-11.26277 c -0.006,-10.29728 -0.0582,-11.37537 -0.60358,-12.57637 -0.76949,-1.6944 -1.62942,-2.47768 -4.2155,-3.83976 -2.49492,-1.31406 -4.07758,-2.85173 -5.36957,-5.21693 l -0.94518,-1.7303 -1.30957,4.16652 c -1.29158,4.10927 -1.30957,4.23306 -1.30957,9.0103 0,4.39631 -0.0584,4.90215 -0.63186,5.47564 -0.34752,0.34752 -0.95952,0.71309 -1.36,0.81237 -0.40048,0.0993 -6.82471,0.13894 -14.27608,0.0881 l -13.54795,-0.0924 -0.77205,-0.89785 c -0.74291,-0.86395 -0.77206,-1.08166 -0.77206,-5.7668 0,-4.75626 -0.0287,-4.9611 -1.2402,-8.85006 l -1.24019,-3.98111 -0.8103,1.59905 c -1.05814,2.08813 -3.25074,4.18299 -5.74567,5.48953 -2.44308,1.27938 -3.89806,2.85199 -4.36898,4.72216 -0.21415,0.85047 -0.35466,4.69115 -0.35466,9.69431 v 8.28584 l 1.98489,0.55185 c 1.09169,0.30351 3.57569,1.2915 5.52,2.19552 1.94431,0.90402 4.25511,1.81905 5.13511,2.0334 2.04317,0.49767 7.93963,0.55028 10.14425,0.0905 z m 17.21575,-23.73472 c 0,-3.16017 0.0849,-3.56256 2.17762,-10.32 l 2.17761,-7.03162 -14.70772,-0.0832 c -8.08924,-0.0458 -14.76699,-0.024 -14.83944,0.0485 -0.0725,0.0725 0.8141,3.15271 1.9701,6.84501 2.0606,6.58158 2.10183,6.78309 2.10183,10.27151 v 3.55822 h 10.56 10.56 z m 18.88,-29.83162 v -7.2 h -29.44 -29.44 v 7.2 7.2 h 29.44 29.44 z M 123.73197,297.6957 c -1.71949,-1.05485 -1.81614,-3.03878 -0.19977,-4.10059 0.66977,-0.43997 1.78002,-0.59924 5.04736,-0.72404 l 4.18872,-0.16 -2.09816,-18.24 -2.09816,-18.24 -9.75428,-0.1718 c -5.36485,-0.0945 -9.78467,-0.20249 -9.82181,-0.24 -1.63522,-1.65146 -1.80908,-2.86068 -0.58701,-4.08275 l 0.78545,-0.78545 h 8.17455 8.17454 V 172.69652 94.441983 l 0.78546,-0.78546 c 0.6607,-0.66071 1.0927,-0.78545 2.72,-0.78545 h 1.93454 v -4.46216 c 0,-4.18518 0.0453,-4.514874 0.73056,-5.31148 0.53592,-0.623038 1.13391,-0.894789 2.24448,-1.019966 1.20704,-0.136051 1.54458,-0.308045 1.66521,-0.848519 0.0832,-0.372833 1.08134,-6.921852 2.21806,-14.553375 1.576,-10.580773 2.19769,-14.020188 2.61821,-14.484852 0.3033,-0.335144 1.10316,-0.697575 1.77747,-0.805401 l 1.22601,-0.196048 V 28.245951 5.30263 l 0.74063,-0.69578 c 0.72973,-0.685547 1.91075,-0.886219 2.92504,-0.497003 1.44696,0.555254 1.45433,0.67983 1.45433,24.585331 v 22.575891 h 0.75685 c 0.87438,0 2.32693,1.042468 2.57544,1.848348 0.15745,0.510577 4.34562,28.095699 4.34707,28.631652 3.5e-4,0.132 0.51411,0.24 1.14168,0.24 1.24519,0 2.32024,0.459666 2.92878,1.25227 0.26322,0.342832 0.39313,1.988708 0.4,5.067734 l 0.0102,4.56 2,0.0102 c 2.07977,0.0106 2.75954,0.30932 3.38773,1.48879 0.2801,0.5259 0.37227,19.997477 0.37227,78.639997 v 77.94104 h 8.10422 c 7.99902,0 8.11263,0.009 8.75232,0.72 0.35645,0.396 0.74053,0.98112 0.85351,1.30027 0.28885,0.81592 -0.62697,2.42877 -1.58621,2.79347 -0.44538,0.16934 -4.9363,0.30626 -10.04506,0.30626 h -9.23956 l -0.18956,1.36 c -0.26179,1.87827 -4.00966,34.64778 -4.00966,35.05851 0,0.20751 1.60976,0.37117 4.29521,0.43669 4.03289,0.0984 4.34558,0.15217 5.12,0.88058 1.10748,1.04166 1.10712,2.52738 -8.6e-4,3.56844 l -0.82565,0.77578 -21.49435,0.0826 c -20.78554,0.0798 -21.5277,0.0621 -22.50578,-0.53792 z m 19.73143,-23.22463 v -18.4 h -4.8 c -4.35803,0 -4.80001,0.0516 -4.80017,0.56 -2e-4,0.6703 3.76994,33.70658 4.01707,35.2 l 0.1721,1.04 h 2.7055 2.7055 z m 12.44247,0.56 c 1.10915,-9.812 2.08503,-18.092 2.16864,-18.4 0.13988,-0.51529 -0.233,-0.56 -4.66954,-0.56 h -4.82157 v 18.4 18.4 h 2.65293 2.65292 z m 5.40267,-32.96 0.0852,-8.72 h -5.86481 c -5.38884,0 -5.91961,-0.0511 -6.54014,-0.62918 -0.9433,-0.87881 -1.156,-1.77286 -0.66527,-2.79631 0.71988,-1.50135 1.53787,-1.68467 7.53993,-1.6898 l 5.52,-0.005 v -4.16 -4.16 h -5.85966 c -5.38373,0 -5.91451,-0.0511 -6.535,-0.62918 -0.9433,-0.87881 -1.156,-1.77286 -0.66527,-2.79631 0.71988,-1.50135 1.53787,-1.68467 7.53993,-1.6898 l 5.52,-0.005 v -4.16 -4.16 h -5.85966 c -5.38373,0 -5.91451,-0.0511 -6.535,-0.62918 -0.9433,-0.87881 -1.156,-1.77286 -0.66527,-2.79631 0.71988,-1.50135 1.53787,-1.68467 7.53993,-1.6898 l 5.52,-0.005 v -4.16 -4.16 h -5.74215 c -5.56013,0 -5.76978,-0.0238 -6.61334,-0.74936 -1.19537,-1.02822 -1.19537,-2.59307 0,-3.62129 0.84356,-0.7256 1.05321,-0.74935 6.61334,-0.74935 h 5.74215 v -4.16 -4.16 h -5.74215 c -5.56013,0 -5.76978,-0.0238 -6.61334,-0.74936 -0.62249,-0.53544 -0.87117,-1.05231 -0.87117,-1.81064 0,-0.75833 0.24868,-1.27521 0.87117,-1.81065 0.84356,-0.7256 1.05321,-0.74935 6.61334,-0.74935 h 5.74215 v -4.16 -4.16 h -5.74215 c -5.56013,0 -5.76978,-0.0238 -6.61334,-0.74936 -0.62249,-0.53544 -0.87117,-1.05231 -0.87117,-1.81064 0,-0.75833 0.24868,-1.27521 0.87117,-1.81065 0.84356,-0.7256 1.05321,-0.74935 6.61334,-0.74935 h 5.74215 v -4.16 -4.16 l -5.52,-0.005 c -6.00206,-0.005 -6.82005,-0.18845 -7.53993,-1.6898 -0.49073,-1.02345 -0.27803,-1.91749 0.66527,-2.79631 0.62049,-0.57807 1.15127,-0.62917 6.535,-0.62917 h 5.85966 v -4.16 -4.16 l -5.52,-0.005 c -6.00206,-0.005 -6.82005,-0.18845 -7.53993,-1.6898 -0.49073,-1.02345 -0.27803,-1.91749 0.66527,-2.79631 0.62049,-0.57807 1.15127,-0.62917 6.535,-0.62917 h 5.85966 v -4.16 -4.16 h -5.45589 c -5.98295,0 -6.90231,-0.21582 -7.61888,-1.78852 -0.31249,-0.68585 -0.31624,-1.07721 -0.0172,-1.79909 0.67393,-1.62702 1.603,-1.85239 7.6361,-1.85239 h 5.45589 v -4 -4 h -5.45589 c -5.98295,0 -6.90231,-0.21582 -7.61888,-1.78852 -0.31249,-0.68585 -0.31624,-1.07721 -0.0172,-1.79909 0.67393,-1.62702 1.603,-1.85239 7.6361,-1.85239 h 5.45589 v -4.48 -4.479997 h -15.36 -15.36 v 76.483097 76.4831 l 15.28,-0.0831 15.28,-0.0831 z m -23.24992,2.35076 c -1.70631,-0.93976 -1.61169,3.04664 -1.62388,-68.41571 -0.009,-50.8696 0.0784,-66.66182 0.37096,-67.304 0.45728,-1.00361 1.90942,-1.82715 2.71743,-1.54111 0.31915,0.11299 0.90427,0.49707 1.30027,0.85352 l 0.72,0.6481 v 67.24844 67.24844 l -0.72,0.659 c -0.99406,0.90984 -1.86367,1.0996 -2.76478,0.60332 z M 155.6234,89.991073 v -2.88 h -9.76 -9.76 v 2.88 2.88 h 9.76 9.76 z m -4.6116,-8.880004 c -0.16535,-0.797539 -3.7084,-24.294121 -3.7084,-24.593175 0,-0.06975 -0.61396,-0.126825 -1.36437,-0.126825 h -1.36437 l -1.84488,12.4 c -1.01468,6.82 -1.84072,12.58 -1.83563,12.8 0.007,0.303033 1.2566,0.4 5.15468,0.4 h 5.14542 z"
         id="path2" />
    </g>
  </g>
</svg>
