<?xml version="1.0" encoding="UTF-8" standalone="no"?>
<!-- Created with Inkscape (http://www.inkscape.org/) -->

<svg
   version="1.1"
   id="svg1"
   width="192.60144"
   height="241.27797"
   viewBox="0 0 192.60144 241.27797"
   sodipodi:docname="shampoos.svg"
   inkscape:version="1.4.2 (f4327f4, 2025-05-13)"
   xmlns:inkscape="http://www.inkscape.org/namespaces/inkscape"
   xmlns:sodipodi="http://sodipodi.sourceforge.net/DTD/sodipodi-0.dtd"
   xmlns="http://www.w3.org/2000/svg"
   xmlns:svg="http://www.w3.org/2000/svg">
  <defs
     id="defs1" />
  <sodipodi:namedview
     id="namedview1"
     pagecolor="#ffffff"
     bordercolor="#000000"
     borderopacity="0.25"
     inkscape:showpageshadow="2"
     inkscape:pageopacity="0.0"
     inkscape:pagecheckerboard="0"
     inkscape:deskcolor="#d1d1d1"
     inkscape:zoom="2.659375"
     inkscape:cx="106.98002"
     inkscape:cy="118.6369"
     inkscape:window-width="1920"
     inkscape:window-height="1111"
     inkscape:window-x="-9"
     inkscape:window-y="-9"
     inkscape:window-maximized="1"
     inkscape:current-layer="g1" />
  <g
     inkscape:groupmode="layer"
     inkscape:label="Image"
     id="g1"
     transform="translate(-52.920138,-41.201016)">
    <g
       id="g2"
       transform="translate(2.2561657,-0.37602841)">
      <path
         style="fill:#bacadd"
         d="m 239.96923,270.26936 c 0.0154,-0.37278 0.0912,-0.44861 0.19334,-0.19333 0.0924,0.231 0.0811,0.507 -0.0253,0.61333 -0.10634,0.10633 -0.18197,-0.0827 -0.16808,-0.42 z m -27.87158,-39.41333 -3.03368,-3.12 3.12,3.03368 c 2.89782,2.81765 3.26557,3.20632 3.03368,3.20632 -0.0475,0 -1.45147,-1.404 -3.12,-3.12 z m 14.56632,-13.2 c 5.45387,-5.456 9.98813,-9.92 10.07613,-9.92 0.088,0 -4.30226,4.464 -9.75613,9.92 -5.45387,5.456 -9.98813,9.92 -10.07613,9.92 -0.088,0 4.30226,-4.464 9.75613,-9.92 z m -22.56,7.2 c 0.41336,-0.44 0.82356,-0.8 0.91156,-0.8 0.088,0 -0.1782,0.36 -0.59156,0.8 -0.41336,0.44 -0.82356,0.8 -0.91156,0.8 -0.088,0 0.1782,-0.36 0.59156,-0.8 z m -1.44858,-3.44 -2.23142,-2.32 2.32,2.23142 c 2.15482,2.07254 2.46614,2.40858 2.23142,2.40858 -0.0487,0 -1.09272,-1.044 -2.32,-2.32 z m -7.19142,-5.2 c 0.41336,-0.44 0.82356,-0.8 0.91156,-0.8 0.088,0 -0.1782,0.36 -0.59156,0.8 -0.41336,0.44 -0.82356,0.8 -0.91156,0.8 -0.088,0 0.1782,-0.36 0.59156,-0.8 z m -2.24632,-4.24 -3.03368,-3.12 3.12,3.03368 c 2.89782,2.81765 3.26557,3.20632 3.03368,3.20632 -0.0475,0 -1.45147,-1.404 -3.12,-3.12 z m -21.67368,0.97941 c 0.308,-0.0805 0.812,-0.0805 1.12,0 0.308,0.0805 0.056,0.14635 -0.56,0.14635 -0.616,0 -0.868,-0.0659 -0.56,-0.14635 z m 34,-6.81941 c 2.81188,-2.816 5.1845,-5.12 5.2725,-5.12 0.088,0 -2.14062,2.304 -4.9525,5.12 -2.81187,2.816 -5.1845,5.12 -5.2725,5.12 -0.088,0 2.14063,-2.304 4.9525,-5.12 z m 19.99428,-2.64 c 3.11553,-3.19515 3.52572,-3.58539 3.52572,-3.35428 0,0.0471 -1.548,1.59514 -3.44,3.44 l -3.44,3.35428 z m -23.83428,-10.8 c 2.81188,-2.816 5.1845,-5.12 5.2725,-5.12 0.088,0 -2.14062,2.304 -4.9525,5.12 -2.81187,2.816 -5.1845,5.12 -5.2725,5.12 -0.088,0 2.14063,-2.304 4.9525,-5.12 z m 31.52,3.09987 c 0,-0.0551 0.468,-0.52307 1.04,-1.04 l 1.04,-0.93987 -0.93987,1.04 c -0.87609,0.96942 -1.14013,1.18709 -1.14013,0.93987 z m -8.64,-8.64 c 0,-0.0551 0.468,-0.52307 1.04,-1.04 l 1.04,-0.93987 -0.93987,1.04 c -0.87609,0.96942 -1.14013,1.18709 -1.14013,0.93987 z m -71.1,-16.11847 c 0.231,-0.0924 0.507,-0.0811 0.61334,0.0253 0.10633,0.10634 -0.0827,0.18197 -0.42,0.16808 -0.37279,-0.0154 -0.44861,-0.0912 -0.19334,-0.19334 z m 2.54,-5.75333 c 0.22,-0.0888 0.58,-0.0888 0.8,0 0.22,0.0888 0.04,0.1614 -0.4,0.1614 -0.44,0 -0.62,-0.0726 -0.4,-0.1614 z m 66.05053,-0.74807 c 0,-0.44 0.0726,-0.62 0.1614,-0.4 0.0888,0.22 0.0888,0.58 0,0.8 -0.0888,0.22 -0.1614,0.04 -0.1614,-0.4 z m 0,-3.2 c 0,-0.44 0.0726,-0.62 0.1614,-0.4 0.0888,0.22 0.0888,0.58 0,0.8 -0.0888,0.22 -0.1614,0.04 -0.1614,-0.4 z m -47.70527,-13.30667 c 0.0154,-0.37278 0.0912,-0.44861 0.19334,-0.19333 0.0924,0.231 0.0811,0.507 -0.0253,0.61333 -0.10634,0.10633 -0.18197,-0.0827 -0.16808,-0.42 z m 5.76,-2.56 c 0.0154,-0.37278 0.0912,-0.44861 0.19334,-0.19333 0.0924,0.231 0.0811,0.507 -0.0253,0.61333 -0.10634,0.10633 -0.18197,-0.0827 -0.16808,-0.42 z m -18.58569,-52.533332 -44.95957,-45.04 45.04,44.959573 c 24.772,24.727769 45.04,44.995769 45.04,45.039999 0,0.0442 -0.0362,0.0804 -0.0804,0.0804 -0.0442,0 -20.31223,-20.268 -45.04,-45.040002 z"
         id="path8" />
      <path
         style="fill:#99b0cd"
         d="m 239.93765,203.01603 -3.03368,-3.12 3.12,3.03368 c 2.89782,2.81765 3.26557,3.20632 3.03368,3.20632 -0.0475,0 -1.45147,-1.404 -3.12,-3.12 z m -142.714091,-47.68 -46.559587,-46.64 46.64,46.55959 c 25.651998,25.60777 46.639998,46.59577 46.639998,46.64 0,0.0442 -0.0362,0.0804 -0.0804,0.0804 -0.0442,0 -21.03223,-20.988 -46.640001,-46.64 z m 133.271831,38.24 -2.23142,-2.32 2.32,2.23142 c 2.15482,2.07254 2.46614,2.40858 2.23142,2.40858 -0.0487,0 -1.09272,-1.044 -2.32,-2.32 z m -9.43774,-9.44 -3.03368,-3.12 3.12,3.03368 c 2.89782,2.81765 3.26557,3.20632 3.03368,3.20632 -0.0475,0 -1.45147,-1.404 -3.12,-3.12 z m -119.2722,-53.91814 -33.678136,-33.678139 -5.521671,5.436949 -5.521671,5.43695 5.520485,-5.59813 5.520485,-5.598143 33.839328,33.839323 c 18.61163,18.61163 33.76732,33.83933 33.67932,33.83933 -0.088,0 -15.31516,-15.15516 -33.83814,-33.67814 z M 135.38433,96.616768 101.70507,62.937509 86.744522,77.816337 71.783972,92.695166 86.744091,77.655905 101.70421,62.616645 135.5439,96.456337 c 18.61183,18.611833 33.76769,33.839693 33.67969,33.839693 -0.088,0 -15.31567,-15.15567 -33.83926,-33.679262 z m -24.56036,-43.12074 c 2.98812,-2.992 5.50494,-5.44 5.59294,-5.44 0.088,0 -2.28482,2.448 -5.27294,5.44 -2.98812,2.992 -5.50494,5.44 -5.59294,5.44 -0.088,0 2.28482,-2.448 5.27294,-5.44 z"
         id="path7" />
      <path
         style="fill:#6a8db7"
         d="m 227.7077,282.7097 c 0.39805,-0.0765 0.97405,-0.0736 1.28,0.006 0.30595,0.0801 -0.0197,0.14272 -0.72373,0.13917 -0.704,-0.004 -0.95432,-0.0691 -0.55627,-0.14563 z m 0.16236,-5.43543 c 0.31135,-0.0811 0.74335,-0.0758 0.96,0.0119 0.21665,0.0876 -0.0381,0.15404 -0.56609,0.14751 -0.528,-0.007 -0.70526,-0.0782 -0.39391,-0.15937 z m 6.94298,-71.69824 -1.74907,-1.84 1.84,1.74907 c 1.70942,1.62494 1.98659,1.93093 1.74907,1.93093 -0.05,0 -0.87801,-0.828 -1.84,-1.84 z m -8.47658,-8.48 -2.55249,-2.64 2.64,2.55249 c 1.452,1.40387 2.64,2.59187 2.64,2.64 0,0.23339 -0.35683,-0.10054 -2.72751,-2.55249 z m -124.15291,-44.48 -45.119578,-45.2 45.199998,45.11957 c 24.86,24.81577 45.2,45.15577 45.2,45.2 0,0.0442 -0.0362,0.0804 -0.0804,0.0804 -0.0442,0 -20.38424,-20.34 -45.2,-45.2 z m 115.9941,36.32 -3.03368,-3.12 3.12,3.03368 c 2.89782,2.81765 3.26557,3.20632 3.03368,3.20632 -0.0475,0 -1.45147,-1.404 -3.12,-3.12 z M 156.98397,170.7241 c 0.22,-0.0888 0.58,-0.0888 0.8,0 0.22,0.0888 0.04,0.1614 -0.4,0.1614 -0.44,0 -0.62,-0.0726 -0.4,-0.1614 z m 0.34,-5.44667 c 0.231,-0.0924 0.507,-0.0811 0.61334,0.0253 0.10633,0.10634 -0.0827,0.18197 -0.42,0.16808 -0.37279,-0.0154 -0.44861,-0.0912 -0.19334,-0.19334 z m 59.34716,-2.3414 c 0,-0.792 0.0624,-1.116 0.13868,-0.72 0.0763,0.396 0.0763,1.044 0,1.44 -0.0763,0.396 -0.13868,0.072 -0.13868,-0.72 z m 5.40337,0 c 0,-0.44 0.0726,-0.62 0.1614,-0.4 0.0888,0.22 0.0888,0.58 0,0.8 -0.0888,0.22 -0.1614,0.04 -0.1614,-0.4 z m -53.01053,-2.88 c 0.31856,-0.352 0.65119,-0.64 0.73919,-0.64 0.088,0 -0.10063,0.288 -0.41919,0.64 -0.31855,0.352 -0.65119,0.64 -0.73919,0.64 -0.088,0 0.10064,-0.288 0.41919,-0.64 z m -63.68057,-34 -33.599428,-33.680002 33.679998,33.599432 c 18.524,18.47968 33.68,33.63568 33.68,33.68 0,0.0443 -0.0363,0.0806 -0.0806,0.0806 -0.0443,0 -15.20031,-15.156 -33.68,-33.68 z m 74.42583,22.93333 c 0.0154,-0.37278 0.0912,-0.44861 0.19334,-0.19333 0.0924,0.231 0.0811,0.507 -0.0253,0.61333 -0.10634,0.10633 -0.18197,-0.0827 -0.16808,-0.42 z M 58.343972,98.296028 c 4.04513,-4.048 7.426782,-7.36 7.514782,-7.36 0.088,0 -3.149652,3.312 -7.194782,7.36 -4.04513,4.048002 -7.426782,7.360002 -7.514782,7.360002 -0.088,0 3.149652,-3.312 7.194782,-7.360002 z m 24.64,-24.64 c 8.974706,-8.976 16.389647,-16.32 16.477647,-16.32 0.088,0 -7.182941,7.344 -16.157647,16.32 -8.974706,8.976 -16.389647,16.32 -16.477647,16.32 -0.088,0 7.182941,-7.344 16.157647,-16.32 z m 24.639998,-24.64 c 4.04513,-4.048 7.42678,-7.36 7.51478,-7.36 0.088,0 -3.14965,3.312 -7.19478,7.36 -4.04513,4.048 -7.42678,7.36 -7.51478,7.36 -0.088,0 3.14965,-3.312 7.19478,-7.36 z"
         id="path6" />
      <path
         style="fill:#4b75a8"
         d="m 221.7545,269.81603 c 0,-0.44 0.0726,-0.62 0.1614,-0.4 0.0888,0.22 0.0888,0.58 0,0.8 -0.0888,0.22 -0.1614,0.04 -0.1614,-0.4 z m 12.82371,-0.32 c 0,-0.616 0.0659,-0.868 0.14635,-0.56 0.0805,0.308 0.0805,0.812 0,1.12 -0.0805,0.308 -0.14635,0.056 -0.14635,-0.56 z M 168.18397,212.6441 c 0.22,-0.0888 0.58,-0.0888 0.8,0 0.22,0.0888 0.04,0.1614 -0.4,0.1614 -0.44,0 -0.62,-0.0726 -0.4,-0.1614 z m 7.04,0 c 0.22,-0.0888 0.58,-0.0888 0.8,0 0.22,0.0888 0.04,0.1614 -0.4,0.1614 -0.44,0 -0.62,-0.0726 -0.4,-0.1614 z m -3.84,-5.13391 c 0.396,-0.0763 1.044,-0.0763 1.44,0 0.396,0.0763 0.072,0.13868 -0.72,0.13868 -0.792,0 -1.116,-0.0624 -0.72,-0.13868 z m -15.34,-36.79276 c 0.231,-0.0924 0.507,-0.0811 0.61334,0.0253 0.10633,0.10634 -0.0827,0.18197 -0.42,0.16808 -0.37279,-0.0154 -0.44861,-0.0912 -0.19334,-0.19334 z m -2.24,-5.12 c 0.231,-0.0924 0.507,-0.0811 0.61334,0.0253 0.10633,0.10634 -0.0827,0.18197 -0.42,0.16808 -0.37279,-0.0154 -0.44861,-0.0912 -0.19334,-0.19334 z m 62.83053,-0.7414 c 0,-0.44 0.0726,-0.62 0.1614,-0.4 0.0888,0.22 0.0888,0.58 0,0.8 -0.0888,0.22 -0.1614,0.04 -0.1614,-0.4 z m 0,-3.84 c 0,-0.44 0.0726,-0.62 0.1614,-0.4 0.0888,0.22 0.0888,0.58 0,0.8 -0.0888,0.22 -0.1614,0.04 -0.1614,-0.4 z m -36.82527,-12.98667 c 0.0154,-0.37278 0.0912,-0.44861 0.19334,-0.19333 0.0924,0.231 0.0811,0.507 -0.0253,0.61333 -0.10634,0.10633 -0.18197,-0.0827 -0.16808,-0.42 z m -5.09473,-2.37333 c 0,-0.44 0.0726,-0.62 0.1614,-0.4 0.0888,0.22 0.0888,0.58 0,0.8 -0.0888,0.22 -0.1614,0.04 -0.1614,-0.4 z"
         id="path5" />
      <path
         style="fill:#32629b"
         d="m 230.50397,221.49603 c 6.68626,-6.688 12.22884,-12.16 12.31684,-12.16 0.088,0 -5.31058,5.472 -11.99684,12.16 -6.68626,6.688 -12.22884,12.16 -12.31684,12.16 -0.088,0 5.31058,-5.472 11.99684,-12.16 z m -23.2,7.89987 c 0,-0.0551 0.468,-0.52307 1.04,-1.04 l 1.04,-0.93987 -0.93987,1.04 c -0.87609,0.96942 -1.14013,1.18709 -1.14013,0.93987 z m 7.35076,-3.65987 -2.07076,-2.16 2.16,2.07075 c 2.0063,1.92341 2.30628,2.24925 2.07076,2.24925 -0.0491,0 -1.02109,-0.972 -2.16,-2.16 z m -15.99076,-4.98013 c 0,-0.0551 0.468,-0.52307 1.04,-1.04 l 1.04,-0.93987 -0.93987,1.04 c -0.87609,0.96942 -1.14013,1.18709 -1.14013,0.93987 z m 8.15249,-2.85987 -2.55249,-2.64 2.64,2.55249 c 1.452,1.40387 2.64,2.59187 2.64,2.64 0,0.23339 -0.35683,-0.10054 -2.72751,-2.55249 z m 2.56751,-7.92 c 2.81188,-2.816 5.1845,-5.12 5.2725,-5.12 0.088,0 -2.14062,2.304 -4.9525,5.12 -2.81187,2.816 -5.1845,5.12 -5.2725,5.12 -0.088,0 2.14063,-2.304 4.9525,-5.12 z m -11.68706,-1.2 -2.71294,-2.8 2.8,2.71293 c 1.54,1.49212 2.8,2.75212 2.8,2.8 0,0.23284 -0.36737,-0.11238 -2.88706,-2.71293 z m 31.68134,-1.44 c 3.11553,-3.19515 3.52572,-3.58539 3.52572,-3.35428 0,0.0471 -1.548,1.59514 -3.44,3.44 l -3.44,3.35428 z m -23.67428,-10.96 c 2.9,-2.904 5.34473,-5.28 5.43273,-5.28 0.088,0 -2.21273,2.376 -5.11273,5.28 -2.9,2.904 -5.34472,5.28 -5.43272,5.28 -0.088,0 2.21272,-2.376 5.11272,-5.28 z m 31.36,3.25987 c 0,-0.0551 0.468,-0.52307 1.04,-1.04 l 1.04,-0.93987 -0.93987,1.04 c -0.87609,0.96942 -1.14013,1.18709 -1.14013,0.93987 z m -8.64,-8.64 c 0,-0.0551 0.468,-0.52307 1.04,-1.04 l 1.04,-0.93987 -0.93987,1.04 c -0.87609,0.96942 -1.14013,1.18709 -1.14013,0.93987 z m -64.00041,-102.859872 -46.23959,-46.32 46.32,46.239585 c 25.476,25.431767 46.32,46.275767 46.32,46.319997 0,0.0442 -0.0362,0.0804 -0.0804,0.0804 -0.0442,0 -20.88823,-20.844 -46.32,-46.320002 z m -25.28016,4.48 -33.75943,-33.84 33.84,33.759431 c 18.612,18.567691 33.84,33.795691 33.84,33.840001 0,0.0443 -0.0363,0.0806 -0.0806,0.0806 -0.0443,0 -15.27231,-15.228 -33.84,-33.840002 z"
         id="path4" />
      <path
         style="fill:#11498c"
         d="m 212.09765,230.53603 -3.03368,-3.12 3.12,3.03368 c 2.89782,2.81765 3.26557,3.20632 3.03368,3.20632 -0.0475,0 -1.45147,-1.404 -3.12,-3.12 z m 14.72632,-12.72 c 5.54191,-5.544 10.14819,-10.08 10.23619,-10.08 0.088,0 -4.37428,4.536 -9.91619,10.08 -5.5419,5.544 -10.14819,10.08 -10.23619,10.08 -0.088,0 4.37429,-4.536 9.91619,-10.08 z m -23.36,8.05987 c 0,-0.0551 0.468,-0.52307 1.04,-1.04 l 1.04,-0.93987 -0.93987,1.04 c -0.87609,0.96942 -1.14013,1.18709 -1.14013,0.93987 z m -0.64,-4.53987 c -1.31119,-1.32 -2.31198,-2.4 -2.22398,-2.4 0.088,0 1.23279,1.08 2.54398,2.4 1.31119,1.32 2.31198,2.4 2.22398,2.4 -0.088,0 -1.23279,-1.08 -2.54398,-2.4 z m -8,-4.10013 c 0,-0.0551 0.468,-0.52307 1.04,-1.04 l 1.04,-0.93987 -0.93987,1.04 c -0.87609,0.96942 -1.14013,1.18709 -1.14013,0.93987 z m -1.446,-5.41987 -3.194,-3.28 3.28,3.19399 c 3.04648,2.9666 3.42548,3.36601 3.194,3.36601 -0.0473,0 -1.5233,-1.476 -3.28,-3.28 z m 12.166,-5.36 c 2.81188,-2.816 5.1845,-5.12 5.2725,-5.12 0.088,0 -2.14062,2.304 -4.9525,5.12 -2.81187,2.816 -5.1845,5.12 -5.2725,5.12 -0.088,0 2.14063,-2.304 4.9525,-5.12 z m 20.16,-2.88 c 1.93,-1.936 3.58109,-3.52 3.66909,-3.52 0.088,0 -1.41909,1.584 -3.34909,3.52 -1.93,1.936 -3.58108,3.52 -3.66908,3.52 -0.088,0 1.41908,-1.584 3.34908,-3.52 z m -23.84,-10.72 c 2.72374,-2.728 5.02426,-4.96 5.11226,-4.96 0.088,0 -2.06852,2.232 -4.79226,4.96 -2.72374,2.728 -5.02425,4.96 -5.11225,4.96 -0.088,0 2.06851,-2.232 4.79225,-4.96 z m 32.32,2.24 c 0.59705,-0.616 1.15755,-1.12 1.24555,-1.12 0.088,0 -0.3285,0.504 -0.92555,1.12 -0.59705,0.616 -1.15754,1.12 -1.24554,1.12 -0.088,0 0.32849,-0.504 0.92554,-1.12 z m -8.64,-8.64 c 0.59705,-0.616 1.15755,-1.12 1.24555,-1.12 0.088,0 -0.3285,0.504 -0.92555,1.12 -0.59705,0.616 -1.15754,1.12 -1.24554,1.12 -0.088,0 0.32849,-0.504 0.92554,-1.12 z m -63.84042,-93.680002 -45.11958,-45.2 45.2,45.119575 c 24.86,24.815767 45.2,45.155767 45.2,45.199997 0,0.0442 -0.0362,0.0804 -0.0804,0.0804 -0.0442,0 -20.38424,-20.34 -45.2,-45.200002 z"
         id="path3" />
      <path
         style="fill:#003c84"
         d="m 225.14267,282.28899 c -6.32213,-1.59726 -9.32356,-7.51409 -8.25457,-16.27254 0.81514,-6.67857 3.48726,-15.39435 7.41343,-24.18067 1.81551,-4.06291 2.54542,-4.98398 3.93822,-4.96957 1.4683,0.0152 1.97074,0.56944 3.5047,3.86614 3.8112,8.19085 6.84665,17.70108 7.78727,24.39793 1.48898,10.60086 -2.4076,17.00256 -10.56069,17.3502 -1.44488,0.0616 -3.16765,-0.0246 -3.82836,-0.19149 z m 5.62248,-5.25658 c 1.63622,-0.58355 2.4236,-1.33424 3.20574,-3.05638 0.8918,-1.96359 0.84889,-6.89144 -0.10031,-11.52 -0.96941,-4.72711 -4.88826,-16.25417 -5.58284,-16.42159 -0.62649,-0.151 -4.59839,11.45985 -5.61758,16.42159 -0.95129,4.63117 -0.99887,9.55987 -0.11122,11.52 0.35867,0.792 0.95149,1.70569 1.31739,2.03042 0.91854,0.8152 2.85881,1.46149 4.38764,1.46149 0.704,0 1.82953,-0.19599 2.50118,-0.43553 z m -18.2297,-46.31925 -3.31574,-3.26286 -1.19787,1.13708 c -0.65883,0.62539 -1.44581,1.22361 -1.74885,1.32936 -0.88444,0.30865 -2.50648,-0.42497 -2.83187,-1.28081 -0.50331,-1.3238 -0.3399,-1.97074 0.82285,-3.25776 0.616,-0.68184 1.12,-1.36986 1.12,-1.52893 0,-0.15908 -1.07839,-1.36042 -2.39642,-2.66966 l -2.39642,-2.38043 -1.20358,1.16184 c -0.66197,0.63901 -1.49158,1.20303 -1.84358,1.25337 -1.20138,0.1718 -2.41499,-0.3561 -2.73132,-1.1881 -0.51547,-1.35579 -0.35806,-1.99373 0.81132,-3.28809 0.616,-0.68184 1.12,-1.36896 1.12,-1.52693 0,-0.15797 -1.43056,-1.71242 -3.17903,-3.45432 l -3.17904,-3.16711 -1.86096,0.83314 c -4.93399,2.20891 -10.36534,3.25551 -16.74097,3.2259 -8.75139,-0.0406 -16.46432,-2.53581 -23.80867,-7.70224 -1.94292,-1.36676 -14.42212,-13.63688 -49.872308,-49.03673 -47.044771,-46.97798 -47.280975,-47.22023 -47.28,-48.49008 9.72e-4,-1.26587 0.260195,-1.53574 31.92098,-33.231717 17.555998,-17.575514 32.341898,-32.140692 32.857548,-32.367061 0.63586,-0.279142 1.20616,-0.317941 1.77232,-0.120574 0.45913,0.160053 22.15633,21.635535 48.216,47.723293 50.70606,50.760699 49.01957,48.972679 52.1421,55.281249 3.66481,7.40418 5.03718,16.15413 3.81252,24.3078 -0.49871,3.32035 -2.01537,8.53575 -3.10888,10.69067 l -0.63302,1.24744 3.38403,3.38403 3.38403,3.38402 1.28571,-1.25546 c 1.56823,-1.53134 3.22248,-1.73415 4.20887,-0.51601 0.96962,1.19742 0.76371,2.42391 -0.66763,3.97673 l -1.26639,1.37388 2.54256,2.52765 2.54257,2.52766 1.28286,-1.25269 c 1.56533,-1.5285 3.22038,-1.73045 4.20603,-0.51323 0.96953,1.19732 0.7637,2.42392 -0.66723,3.9763 l -1.26601,1.37345 2.89944,2.8594 c 3.00363,2.96216 3.79174,4.15951 3.55454,5.40033 -0.081,0.42394 -5.36577,5.94753 -12.67988,13.25298 -11.53634,11.52269 -12.62719,12.52609 -13.6179,12.52609 -0.93542,0 -1.51276,-0.42884 -4.39271,-3.26287 z m 14.60484,-12.89345 10.0725,-10.07631 -2.06727,-2.08581 -2.06727,-2.08581 -3.52714,3.50803 c -1.93993,1.92942 -3.88639,3.63859 -4.32548,3.79817 -1.66728,0.60593 -3.20166,-0.62723 -3.20166,-2.57313 0,-0.42525 1.3674,-2.05396 3.74794,-4.46419 l 3.74794,-3.79468 -2.70794,-2.749 c -1.48937,-1.51195 -3.16546,-2.94724 -3.72465,-3.18954 -0.55919,-0.2423 -1.11371,-0.76699 -1.23227,-1.16598 -0.20655,-0.69507 -6.14592,-6.96543 -6.59776,-6.96543 -0.12031,0 -0.7631,0.756 -1.42841,1.68 -1.72218,2.39178 -13.60111,14.34505 -16.36485,16.46725 -1.276,0.97981 -2.32,1.87268 -2.32,1.98417 0,0.11149 1.2248,1.42114 2.72177,2.91034 l 2.72178,2.70764 5.42574,-5.4187 c 4.98344,-4.97698 5.51843,-5.4187 6.5628,-5.4187 1.40055,0 2.05079,0.61127 2.30291,2.16491 0.19291,1.18881 0.17618,1.21003 -5.28849,6.70713 l -5.48202,5.51456 2.64444,2.6307 c 2.01613,2.00566 2.85194,2.6307 3.51776,2.6307 0.96537,0 2.12634,0.97008 2.20205,1.84 0.0268,0.308 0.0644,0.73738 0.0835,0.95419 0.0342,0.38758 4.00614,4.56581 4.34043,4.56581 0.0941,0 4.70378,-4.53434 10.24366,-10.07632 z M 178.42988,207.0678 c 4.28461,-0.65349 10.01092,-2.9419 14.01951,-5.60265 3.69328,-2.45146 13.54196,-11.99648 16.80734,-16.28912 5.04179,-6.62789 7.42019,-13.6701 7.45718,-22.08 0.0425,-9.65765 -2.90932,-17.34515 -9.53821,-24.84075 -1.30319,-1.47359 -22.1833,-22.4789 -46.40024,-46.67847 l -44.0308,-43.999219 -5.67876,5.678762 -5.67876,5.678762 34.10708,34.160456 c 18.75889,18.788249 34.53655,34.736459 35.06146,35.440459 7.19716,9.65265 7.2023,23.17759 0.0126,33.2735 -3.25789,4.57482 -11.01697,8.35337 -18.33621,8.92945 -6.28874,0.49497 -13.85604,-1.82866 -19.00813,-5.83665 -0.792,-0.61613 -16.66735,-16.3217 -35.27857,-34.90127 l -33.838563,-33.781035 -5.602938,5.596075 -5.602937,5.59608 45.361508,45.39118 c 28.49826,28.51691 46.35651,46.15011 48.03803,47.43267 7.90175,6.02695 17.73995,8.41635 28.12938,6.83177 z m -18.65679,-42.12347 c 4.36693,-1.0013 8.79967,-3.57749 10.78304,-6.26683 1.2934,-1.75377 2.99338,-5.46229 3.6571,-7.978 0.32918,-1.2477 0.53571,-3.33134 0.54749,-5.52347 0.0227,-4.22558 -0.75427,-7.36687 -2.7307,-11.04 -1.19716,-2.22489 -3.80979,-4.92164 -35.80714,-36.960002 l -34.51576,-34.56 -14.961574,14.962294 -14.961574,14.962295 34.399998,34.360873 c 31.50495,31.46911 34.60198,34.472 36.8,35.68147 5.40408,2.97361 10.80562,3.73333 16.78912,2.36137 z m -19.14548,-14.69194 c -0.49907,-0.49907 -0.84364,-1.20008 -0.84364,-1.71636 0,-0.51628 0.34457,-1.21729 0.84364,-1.71637 0.49907,-0.49907 1.20008,-0.84363 1.71636,-0.84363 0.51628,0 1.21729,0.34456 1.71637,0.84363 0.49907,0.49908 0.84363,1.20009 0.84363,1.71637 0,0.51628 -0.34456,1.21729 -0.84363,1.71636 -0.49908,0.49907 -1.20009,0.84364 -1.71637,0.84364 -0.51628,0 -1.21729,-0.34457 -1.71636,-0.84364 z m 9.44925,-8.01995 c -1.05454,-0.20894 -1.75252,-1.95512 -1.30017,-3.25272 0.6674,-1.9145 3.75638,-2.0209 4.46624,-0.15384 0.36554,0.96147 0.14092,2.4591 -0.44132,2.94231 -0.51203,0.42495 -1.80838,0.64582 -2.72475,0.46425 z m -22.06867,-4.58527 c -1.3836,-1.28902 -1.20768,-2.95684 0.42471,-4.02642 2.3184,-1.51907 4.96203,2.07093 2.93045,3.9795 -0.93324,0.87673 -2.44183,0.89782 -3.35516,0.0469 z m 29.89942,-4.67478 c -0.49907,-0.49907 -0.84364,-1.20008 -0.84364,-1.71636 0,-0.51628 0.34457,-1.21729 0.84364,-1.71637 0.49907,-0.49907 1.20008,-0.84363 1.71636,-0.84363 0.51628,0 1.21729,0.34456 1.71637,0.84363 0.49907,0.49908 0.84363,1.20009 0.84363,1.71637 0,0.51628 -0.34456,1.21729 -0.84363,1.71636 -0.49908,0.49907 -1.20009,0.84364 -1.71637,0.84364 -0.51628,0 -1.21729,-0.34457 -1.71636,-0.84364 z m -20.68364,-3.53844 c -1.17456,-0.41977 -1.67426,-2.2833 -0.96675,-3.6053 0.49053,-0.91658 1.95393,-1.29394 3.11866,-0.80421 1.14565,0.48171 1.51308,1.35839 1.22127,2.91387 -0.26628,1.4194 -1.7481,2.07643 -3.37318,1.49564 z m -21.33946,-4.1011 c -1.27074,-0.53431 -1.78428,-1.90797 -1.21736,-3.25629 0.83214,-1.97907 3.85212,-1.89399 4.55712,0.1284 0.74354,2.13291 -1.25486,4.00452 -3.33976,3.12789 z m 29.40368,-4.96568 c -1.3836,-1.28902 -1.20768,-2.95684 0.42471,-4.02642 2.3184,-1.51907 4.96203,2.07093 2.93045,3.9795 -0.93324,0.87673 -2.44183,0.89782 -3.35516,0.0469 z m -21.08656,-3.83458 c -0.84819,-0.34161 -1.24594,-2.01968 -0.77335,-3.26268 0.35778,-0.94105 1.95381,-1.46073 3.23616,-1.05373 0.97818,0.31046 1.61402,1.94278 1.20917,3.10415 -0.49662,1.4246 -1.95189,1.90504 -3.67198,1.21226 z m -21.05766,-3.90306 c -1.60455,-0.92021 -1.94228,-2.87007 -0.69937,-4.03772 1.26956,-1.19269 3.14422,-0.81694 4.0071,0.80318 0.5755,1.08054 0.45173,1.67081 -0.56311,2.68565 -0.99681,0.99681 -1.71362,1.14016 -2.74462,0.54889 z m 30.02054,-4.57668 c -1.27074,-0.53431 -1.78428,-1.90797 -1.21736,-3.25629 0.83214,-1.97907 3.85212,-1.89399 4.55712,0.1284 0.74354,2.13291 -1.25486,4.00452 -3.33976,3.12789 z m -21.41349,-4.13675 c -1.76443,-0.7634 -1.70907,-3.67776 0.0828,-4.359026 1.02771,-0.390735 2.46843,-0.129665 3.03203,0.549426 0.62229,0.74981 0.49992,2.59363 -0.21789,3.2832 -0.89557,0.86033 -1.76149,1.01768 -2.89695,0.5264 z M 89.747608,99.372392 c -0.499071,-0.499071 -0.843636,-1.200084 -0.843636,-1.716364 0,-0.51628 0.344565,-1.217293 0.843636,-1.716363 0.499071,-0.499071 1.200084,-0.843637 1.716364,-0.843637 0.51628,0 1.217293,0.344566 1.716363,0.843637 0.499071,0.49907 0.843637,1.200083 0.843637,1.716363 0,0.51628 -0.344566,1.217293 -0.843637,1.716364 -0.49907,0.499071 -1.200083,0.843638 -1.716363,0.843638 -0.51628,0 -1.217293,-0.344567 -1.716364,-0.843638 z m 30.676362,-4.022865 c -1.60455,-0.920208 -1.94228,-2.870067 -0.69937,-4.037718 1.26956,-1.192692 3.14422,-0.816935 4.0071,0.803182 0.5755,1.080535 0.45173,1.670807 -0.56311,2.685653 -0.99681,0.996804 -1.71362,1.140157 -2.74462,0.548883 z M 99.088873,91.219053 c -1.96353,-0.734247 -1.709671,-4.138071 0.339182,-4.547841 1.360585,-0.272117 2.541845,0.240928 2.934875,1.274669 0.36554,0.961465 0.14092,2.459099 -0.44132,2.94231 -0.62696,0.520334 -1.921656,0.671554 -2.832737,0.330862 z m 7.938737,-9.126661 c -0.49907,-0.499071 -0.84364,-1.200084 -0.84364,-1.716364 0,-1.145327 1.41467,-2.56 2.56,-2.56 1.14533,0 2.56,1.414673 2.56,2.56 0,1.145327 -1.41467,2.56 -2.56,2.56 -0.51628,0 -1.21729,-0.344565 -1.71636,-0.843636 z"
         id="path2" />
    </g>
  </g>
</svg>
