<?xml version="1.0" encoding="UTF-8" standalone="no"?>
<!-- Created with Inkscape (http://www.inkscape.org/) -->

<svg
   version="1.1"
   id="svg1"
   width="213.69009"
   height="298.81726"
   viewBox="0 0 213.69009 298.81726"
   sodipodi:docname="soliddosage.svg"
   inkscape:version="1.4.2 (f4327f4, 2025-05-13)"
   xmlns:inkscape="http://www.inkscape.org/namespaces/inkscape"
   xmlns:sodipodi="http://sodipodi.sourceforge.net/DTD/sodipodi-0.dtd"
   xmlns="http://www.w3.org/2000/svg"
   xmlns:svg="http://www.w3.org/2000/svg">
  <defs
     id="defs1" />
  <sodipodi:namedview
     id="namedview1"
     pagecolor="#ffffff"
     bordercolor="#000000"
     borderopacity="0.25"
     inkscape:showpageshadow="2"
     inkscape:pageopacity="0.0"
     inkscape:pagecheckerboard="0"
     inkscape:deskcolor="#d1d1d1"
     inkscape:zoom="2.659375"
     inkscape:cx="95.699177"
     inkscape:cy="146.46298"
     inkscape:window-width="1920"
     inkscape:window-height="1111"
     inkscape:window-x="-9"
     inkscape:window-y="-9"
     inkscape:window-maximized="1"
     inkscape:current-layer="g1" />
  <g
     inkscape:groupmode="layer"
     inkscape:label="Image"
     id="g1"
     transform="translate(-64.160491,-13.438971)">
    <g
       id="g9"
       transform="translate(10.904814,1.1280846)">
      <path
         style="fill:#cbd7e6"
         d="m 65.687837,298.43206 -0.775781,-0.88 0.88,0.77578 c 0.822493,0.72508 1.026749,0.98422 0.775781,0.98422 -0.05732,0 -0.453321,-0.396 -0.88,-0.88 z m 65.583403,-37.76 c -0.39804,-0.50754 -0.38672,-0.51886 0.12082,-0.12082 0.308,0.24155 0.56,0.49355 0.56,0.56 0,0.26337 -0.26278,0.0939 -0.68082,-0.43918 z m 3.84,-4.16 c -0.39804,-0.50754 -0.38672,-0.51886 0.12082,-0.12082 0.308,0.24155 0.56,0.49355 0.56,0.56 0,0.26337 -0.26278,0.0939 -0.68082,-0.43918 z m 107.52,0 c -0.39804,-0.50754 -0.38672,-0.51886 0.12082,-0.12082 0.308,0.24155 0.56,0.49355 0.56,0.56 0,0.26337 -0.26278,0.0939 -0.68082,-0.43918 z m -107.52,-53.12 c -0.39804,-0.50754 -0.38672,-0.51886 0.12082,-0.12082 0.308,0.24155 0.56,0.49355 0.56,0.56 0,0.26337 -0.26278,0.0939 -0.68082,-0.43918 z m 107.52,0 c -0.39804,-0.50754 -0.38672,-0.51886 0.12082,-0.12082 0.308,0.24155 0.56,0.49355 0.56,0.56 0,0.26337 -0.26278,0.0939 -0.68082,-0.43918 z m 0.20082,-30.48 c 0.31855,-0.352 0.65119,-0.64 0.73919,-0.64 0.088,0 -0.10064,0.288 -0.41919,0.64 -0.31856,0.352 -0.6512,0.64 -0.7392,0.64 -0.088,0 0.10064,-0.288 0.4192,-0.64 z m -0.0304,-22.48 -0.60959,-0.72 0.72,0.60959 c 0.396,0.33528 0.72,0.65928 0.72,0.72 0,0.25608 -0.25754,0.067 -0.83041,-0.60959 z m -107.9696,-30.12082 c 0,-0.0665 0.252,-0.31845 0.56,-0.56 0.50753,-0.39804 0.51885,-0.38672 0.12081,0.12082 -0.41803,0.53304 -0.68081,0.70255 -0.68081,0.43918 z m 107.52,0 c 0,-0.0665 0.252,-0.31845 0.56,-0.56 0.50753,-0.39804 0.51885,-0.38672 0.12081,0.12082 -0.41803,0.53304 -0.68081,0.70255 -0.68081,0.43918 z m -107.52,-53.120001 c 0,-0.06645 0.252,-0.31845 0.56,-0.56 0.50753,-0.398039 0.51885,-0.38672 0.12081,0.120817 -0.41803,0.53304 -0.68081,0.702554 -0.68081,0.439183 z m 107.52,0 c 0,-0.06645 0.252,-0.31845 0.56,-0.56 0.50753,-0.398039 0.51885,-0.38672 0.12081,0.120817 -0.41803,0.53304 -0.68081,0.702554 -0.68081,0.439183 z m -111.36,-4.16 c 0,-0.06645 0.252,-0.31845 0.56,-0.56 0.50753,-0.398039 0.51885,-0.38672 0.12081,0.120817 -0.41803,0.53304 -0.68081,0.702554 -0.68081,0.439183 z M 65.712056,24.912056 c 0.413359,-0.44 0.823561,-0.8 0.911561,-0.8 0.088,0 -0.178202,0.36 -0.591561,0.8 -0.413358,0.44 -0.823561,0.8 -0.911561,0.8 -0.088,0 0.178203,-0.36 0.591561,-0.8 z"
         id="path15" />
      <path
         style="fill:#b9c9dc"
         d="m 120.32634,305.47207 c 21.67786,-0.0454 57.24586,-0.0454 79.04,0 21.79415,0.0454 4.05772,0.0825 -39.41428,0.0825 -43.472,10e-6 -61.303575,-0.0371 -39.62572,-0.0825 z M 53.25732,284.08539 c 0.01535,-0.37278 0.09118,-0.44861 0.193333,-0.19333 0.09244,0.231 0.08107,0.507 -0.02526,0.61333 -0.106334,0.10633 -0.181965,-0.0827 -0.16807,-0.42 z M 266.8304,161.71206 c 0,-66.968004 0.0367,-94.364004 0.0817,-60.88 0.0449,33.484 0.0449,88.276 0,121.76 -0.0449,33.484 -0.0817,6.088 -0.0817,-60.88 z m -208.000011,0 c 0,-66.616004 0.03675,-93.868004 0.08166,-60.56 0.04492,33.308 0.04492,87.812 0,121.12 -0.04491,33.308 -0.08166,6.056 -0.08166,-60.56 z m 103.937561,115.52 c 0,-0.968 0.06,-1.364 0.13331,-0.88 0.0733,0.484 0.0733,1.276 0,1.76 -0.0733,0.484 -0.13331,0.088 -0.13331,-0.88 z m -53.70266,-9.12 0.007,-10.56 7.28018,-0.009 7.28018,-0.009 -7.19582,0.0952 -7.19581,0.0952 -0.0911,10.474 -0.0911,10.47401 z m 107.52,0 0.007,-10.56 7.28018,-0.009 7.28018,-0.009 -7.19582,0.0952 -7.19581,0.0952 -0.0911,10.474 -0.0911,10.47401 z m -76.58271,-0.16 c 0,-0.44 0.0726,-0.62 0.16141,-0.4 0.0888,0.22 0.0888,0.58 0,0.8 -0.0888,0.22 -0.16141,0.04 -0.16141,-0.4 z m 22.76537,-6.72 c 0,-0.968 0.06,-1.364 0.13331,-0.88 0.0733,0.484 0.0733,1.276 0,1.76 -0.0733,0.484 -0.13331,0.088 -0.13331,-0.88 z m -70.077839,-3.75913 c 2.07793,-0.0558 5.38993,-0.0556 7.359999,4.1e-4 1.97007,0.056 0.26995,0.10173 -3.778054,0.1015 -4.048,-2.2e-4 -5.659875,-0.0461 -3.581945,-0.10191 z m 107.519999,0 c 2.07793,-0.0558 5.38993,-0.0556 7.36,4.1e-4 1.97007,0.056 0.26995,0.10173 -3.77805,0.1015 -4.048,-2.2e-4 -5.65988,-0.0461 -3.58195,-0.10191 z m -37.44216,-12.24087 c 0,-0.968 0.06,-1.364 0.13331,-0.88 0.0733,0.484 0.0733,1.276 0,1.76 -0.0733,0.484 -0.13331,0.088 -0.13331,-0.88 z m 0,-16 c 0,-0.968 0.06,-1.364 0.13331,-0.88 0.0733,0.484 0.0733,1.276 0,1.76 -0.0733,0.484 -0.13331,0.088 -0.13331,-0.88 z m -53.71245,-14.4 c 0,-5.896 0.0432,-8.308 0.096,-5.36 0.0528,2.948 0.0528,7.772 0,10.72 -0.0528,2.948 -0.096,0.536 -0.096,-5.36 z m 107.52,0 c 0,-5.896 0.0432,-8.308 0.096,-5.36 0.0528,2.948 0.0528,7.772 0,10.72 -0.0528,2.948 -0.096,0.536 -0.096,-5.36 z m -76.57292,0 c 0,-0.44 0.0726,-0.62 0.16141,-0.4 0.0888,0.22 0.0888,0.58 0,0.8 -0.0888,0.22 -0.16141,0.04 -0.16141,-0.4 z m 22.76537,-1.6 c 0,-0.968 0.06,-1.364 0.13331,-0.88 0.0733,0.484 0.0733,1.276 0,1.76 -0.0733,0.484 -0.13331,0.088 -0.13331,-0.88 z m 0,-16 c 0,-0.968 0.06,-1.364 0.13331,-0.88 0.0733,0.484 0.0733,1.276 0,1.76 -0.0733,0.484 -0.13331,0.088 -0.13331,-0.88 z m 0,-16 c 0,-0.968 0.06,-1.364 0.13331,-0.88 0.0733,0.484 0.0733,1.276 0,1.76 -0.0733,0.484 -0.13331,0.088 -0.13331,-0.88 z m -53.71245,-19.52 c 0,-5.896 0.0432,-8.308 0.096,-5.36 0.0528,2.948 0.0528,7.772 0,10.72 -0.0528,2.948 -0.096,0.536 -0.096,-5.36 z m 107.52,0 c 0,-5.896 0.0432,-8.308 0.096,-5.36 0.0528,2.948 0.0528,7.772 0,10.72 -0.0528,2.948 -0.096,0.536 -0.096,-5.36 z m -53.80755,3.52 c 0,-0.968 0.06,-1.364 0.13331,-0.88 0.0733,0.484 0.0733,1.276 0,1.76 -0.0733,0.484 -0.13331,0.088 -0.13331,-0.88 z m -22.76537,-3.52 c 0,-0.44 0.0726,-0.62 0.16141,-0.4 0.0888,0.22 0.0888,0.58 0,0.8 -0.0888,0.22 -0.16141,0.04 -0.16141,-0.4 z m 22.76537,-12.48 c 0,-0.968 0.06,-1.364 0.13331,-0.88 0.0733,0.484 0.0733,1.276 0,1.76 -0.0733,0.484 -0.13331,0.088 -0.13331,-0.88 z m 0,-16 c 0,-0.968 0.06,-1.364 0.13331,-0.88 0.0733,0.484 0.0733,1.276 0,1.76 -0.0733,0.484 -0.13331,0.088 -0.13331,-0.88 z m -53.71245,-24.64 c 0,-5.896 0.0432,-8.308 0.096,-5.36 0.0528,2.948 0.0528,7.772 0,10.72 -0.0528,2.948 -0.096,0.536 -0.096,-5.36 z m 107.52,0 c 0,-5.896 0.0432,-8.308 0.096,-5.36 0.0528,2.948 0.0528,7.772 0,10.72 -0.0528,2.948 -0.096,0.536 -0.096,-5.36 z m -53.80755,8.64 c 0,-0.968 0.06,-1.364 0.13331,-0.88 0.0733,0.484 0.0733,1.276 0,1.76 -0.0733,0.484 -0.13331,0.088 -0.13331,-0.88 z m -22.76537,-8.64 c 0,-0.44 0.0726,-0.62 0.16141,-0.4 0.0888,0.22 0.0888,0.58 0,0.8 -0.0888,0.22 -0.16141,0.04 -0.16141,-0.4 z m 22.76537,-7.36 c 0,-0.968 0.06,-1.364004 0.13331,-0.88 0.0733,0.484 0.0733,1.276 0,1.76 -0.0733,0.484 -0.13331,0.088 -0.13331,-0.88 z m 0,-16.000004 c 0,-0.968 0.06,-1.364 0.13331,-0.88 0.0733,0.484 0.0733,1.276 0,1.76 -0.0733,0.484 -0.13331,0.088 -0.13331,-0.88 z m 0,-16 c 0,-0.968 0.06,-1.364 0.13331,-0.88 0.0733,0.484 0.0733,1.276 0,1.76 -0.0733,0.484 -0.13331,0.088 -0.13331,-0.88 z M 92.690111,65.792934 c 2.07793,-0.05582 5.38993,-0.05564 7.359999,4.09e-4 1.97007,0.05605 0.26995,0.101726 -3.778054,0.101501 -4.048,-2.25e-4 -5.659875,-0.04608 -3.581945,-0.10191 z m 16.367299,-0.163646 c -0.085,-0.221523 -0.11439,-5.009523 -0.0653,-10.64 l 0.0893,-10.237232 0.0753,10.473993 0.0754,10.473992 7.28,0.09232 7.28,0.09232 -7.29005,0.07368 c -5.6185,0.05679 -7.32548,-0.01867 -7.4446,-0.329083 z m 91.1527,0.163646 c 2.07793,-0.05582 5.38993,-0.05564 7.36,4.09e-4 1.97007,0.05605 0.26995,0.101726 -3.77805,0.101501 -4.048,-2.25e-4 -5.65988,-0.04608 -3.58195,-0.10191 z m 16.3673,-0.163646 c -0.085,-0.221523 -0.11439,-5.009523 -0.0653,-10.64 l 0.0893,-10.237232 0.0753,10.473993 0.0753,10.473992 7.28,0.09232 7.28,0.09232 -7.29005,0.07368 c -5.6185,0.05679 -7.32548,-0.01867 -7.4446,-0.329083 z M 140.00258,55.472056 c 0,-0.44 0.0726,-0.62 0.16141,-0.4 0.0888,0.22 0.0888,0.58 0,0.8 -0.0888,0.22 -0.16141,0.04 -0.16141,-0.4 z m 22.76537,-2.24 c 0,-0.968 0.06,-1.364 0.13331,-0.88 0.0733,0.484 0.0733,1.276 0,1.76 -0.0733,0.484 -0.13331,0.088 -0.13331,-0.88 z M 53.25732,39.28539 c 0.01535,-0.372782 0.09118,-0.448608 0.193333,-0.193334 0.09244,0.231 0.08107,0.507 -0.02526,0.613334 -0.106334,0.106333 -0.181965,-0.08267 -0.16807,-0.42 z m 109.51063,-2.053334 c 0,-0.968 0.06,-1.364 0.13331,-0.88 0.0733,0.484 0.0733,1.276 0,1.76 -0.0733,0.484 -0.13331,0.088 -0.13331,-0.88 z M 120.32634,17.79207 c 21.67786,-0.04539 57.24586,-0.04539 79.04,-5e-6 21.79415,0.04539 4.05772,0.08253 -39.41428,0.08253 -43.472,2e-6 -61.303575,-0.03713 -39.62572,-0.08252 z"
         id="path14" />
      <path
         style="fill:#95aecb"
         d="m 253.87206,298.87124 c 0,-0.0664 0.252,-0.31845 0.56,-0.56 0.50753,-0.39804 0.51885,-0.38672 0.12081,0.12082 -0.41803,0.53304 -0.68081,0.70255 -0.68081,0.43918 z m -119.04,-19.2 c 0,-0.0665 0.252,-0.31845 0.56,-0.56 0.50753,-0.39804 0.51885,-0.38672 0.12081,0.12082 -0.41803,0.53304 -0.68081,0.70255 -0.68081,0.43918 z M 88.372056,257.49346 c 0.231,-0.0924 0.507,-0.0811 0.613334,0.0253 0.106333,0.10634 -0.08267,0.18197 -0.42,0.16807 -0.372782,-0.0153 -0.448608,-0.0912 -0.193334,-0.19333 z m 35.520004,0 c 0.231,-0.0924 0.507,-0.0811 0.61333,0.0253 0.10633,0.10634 -0.0827,0.18197 -0.42,0.16807 -0.37278,-0.0153 -0.44861,-0.0912 -0.19333,-0.19333 z m 72,0 c 0.231,-0.0924 0.507,-0.0811 0.61333,0.0253 0.10633,0.10634 -0.0827,0.18197 -0.42,0.16807 -0.37278,-0.0153 -0.44861,-0.0912 -0.19333,-0.19333 z m -11.46,-0.54222 c 0,-0.0664 0.252,-0.31845 0.56,-0.56 0.50753,-0.39804 0.51885,-0.38672 0.12081,0.12082 -0.41803,0.53304 -0.68081,0.70255 -0.68081,0.43918 z m 0.27918,-190.199184 c -0.39804,-0.507537 -0.38672,-0.518856 0.12082,-0.120817 0.53304,0.418038 0.70255,0.680817 0.43918,0.680817 -0.0665,0 -0.31845,-0.252 -0.56,-0.56 z M 88.372056,65.81346 c 0.231,-0.09244 0.507,-0.08107 0.613334,0.02526 0.106333,0.106333 -0.08267,0.181965 -0.42,0.16807 -0.372782,-0.01535 -0.448608,-0.09118 -0.193334,-0.193333 z m 35.520004,0 c 0.231,-0.09244 0.507,-0.08107 0.61333,0.02526 0.10633,0.106333 -0.0827,0.181965 -0.42,0.16807 -0.37278,-0.01535 -0.44861,-0.09118 -0.19333,-0.193333 z m 72,0 c 0.231,-0.09244 0.507,-0.08107 0.61333,0.02526 0.10633,0.106333 -0.0827,0.181965 -0.42,0.16807 -0.37278,-0.01535 -0.44861,-0.09118 -0.19333,-0.193333 z M 135.11124,44.032056 c -0.39804,-0.507537 -0.38672,-0.518856 0.12082,-0.120817 0.308,0.24155 0.56,0.49355 0.56,0.56 0,0.263371 -0.26278,0.09386 -0.68082,-0.439183 z m 119.04,-19.2 c -0.39804,-0.507537 -0.38672,-0.518856 0.12082,-0.120817 0.53304,0.418038 0.70255,0.680817 0.43918,0.680817 -0.0665,0 -0.31845,-0.252 -0.56,-0.56 z"
         id="path13" />
      <path
         style="fill:#7193ba"
         d="m 80.352056,310.94013 c 0.22,-0.0888 0.58,-0.0888 0.8,0 0.22,0.0888 0.04,0.1614 -0.4,0.1614 -0.44,0 -0.62,-0.0726 -0.4,-0.1614 z m 158.740004,-0.007 c 0.231,-0.0924 0.507,-0.0811 0.61333,0.0253 0.10633,0.10634 -0.0827,0.18197 -0.42,0.16807 -0.37278,-0.0154 -0.44861,-0.0912 -0.19333,-0.19333 z m -158.720004,-5.44 c 0.231,-0.0924 0.507,-0.0811 0.613334,0.0253 0.106333,0.10634 -0.08267,0.18197 -0.42,0.16807 -0.372782,-0.0153 -0.448608,-0.0912 -0.193334,-0.19333 z m 177.660004,-3.1414 c 0.41335,-0.44 0.82356,-0.8 0.91156,-0.8 0.088,0 -0.17821,0.36 -0.59156,0.8 -0.41336,0.44 -0.82356,0.8 -0.91156,0.8 -0.088,0 0.1782,-0.36 0.59156,-0.8 z m -197.800821,-1.68 c -0.398039,-0.50754 -0.38672,-0.51886 0.120817,-0.12082 0.308,0.24155 0.56,0.49355 0.56,0.56 0,0.26337 -0.262779,0.0939 -0.680817,-0.43918 z m -1.508656,-17.36 c 0,-0.44 0.07263,-0.62 0.161403,-0.4 0.08877,0.22 0.08877,0.58 0,0.8 -0.08877,0.22 -0.161403,0.04 -0.161403,-0.4 z m -5.465263,-0.18667 c 0.01535,-0.37278 0.09118,-0.44861 0.193333,-0.19333 0.09244,0.231 0.08107,0.507 -0.02526,0.61333 -0.106334,0.10633 -0.181965,-0.0827 -0.16807,-0.42 z m 23.933919,-3.89333 c -0.398039,-0.50754 -0.38672,-0.51886 0.120817,-0.12082 0.308,0.24155 0.56,0.49355 0.56,0.56 0,0.26337 -0.262779,0.0939 -0.680817,-0.43918 z m -4.696799,-11.12 c 0.0065,-0.528 0.07824,-0.70526 0.159373,-0.39391 0.08113,0.31135 0.0758,0.74335 -0.01186,0.96 -0.08765,0.21665 -0.154037,-0.0381 -0.147516,-0.56609 z m 107.53186,-0.16 c 0,-0.616 0.0659,-0.868 0.14634,-0.56 0.0805,0.308 0.0805,0.812 0,1.12 -0.0805,0.308 -0.14634,0.056 -0.14634,-0.56 z m 5.42814,0.16 c 0.007,-0.528 0.0782,-0.70526 0.15937,-0.39391 0.0811,0.31135 0.0758,0.74335 -0.0119,0.96 -0.0877,0.21665 -0.15404,-0.0381 -0.14752,-0.56609 z m -107.531857,-0.16 c 0,-0.44 0.07263,-0.62 0.161403,-0.4 0.08877,0.22 0.08877,0.58 0,0.8 -0.08877,0.22 -0.161403,0.04 -0.161403,-0.4 z m -0.731344,-41.84 c -0.398039,-0.50754 -0.38672,-0.51886 0.120817,-0.12082 0.308,0.24155 0.56,0.49355 0.56,0.56 0,0.26337 -0.262779,0.0939 -0.680817,-0.43918 z m 107.520001,0 c -0.39804,-0.50754 -0.38672,-0.51886 0.12082,-0.12082 0.308,0.24155 0.56,0.49355 0.56,0.56 0,0.26337 -0.26278,0.0939 -0.68082,-0.43918 z m -112.2168,-11.12 c 0.0065,-0.528 0.07824,-0.70526 0.159373,-0.39391 0.08113,0.31135 0.0758,0.74335 -0.01186,0.96 -0.08765,0.21665 -0.154037,-0.0381 -0.147516,-0.56609 z m 107.53186,-0.16 c 0,-0.616 0.0659,-0.868 0.14634,-0.56 0.0805,0.308 0.0805,0.812 0,1.12 -0.0805,0.308 -0.14634,0.056 -0.14634,-0.56 z m 5.44,0 c 0,-0.616 0.0659,-0.868 0.14634,-0.56 0.0805,0.308 0.0805,0.812 0,1.12 -0.0805,0.308 -0.14634,0.056 -0.14634,-0.56 z m -107.543717,0 c 0,-0.44 0.07263,-0.62 0.161403,-0.4 0.08877,0.22 0.08877,0.58 0,0.8 -0.08877,0.22 -0.161403,0.04 -0.161403,-0.4 z m 106.788657,-41.84 c -0.39804,-0.50754 -0.38672,-0.51886 0.12082,-0.12082 0.308,0.24155 0.56,0.49355 0.56,0.56 0,0.26337 -0.26278,0.0939 -0.68082,-0.43918 z m 3.84,-3.84 c -0.39804,-0.50754 -0.38672,-0.51886 0.12082,-0.12082 0.308,0.24155 0.56,0.49355 0.56,0.56 0,0.26337 -0.26278,0.0939 -0.68082,-0.43918 z m -8.52494,-7.44 c 0,-0.616 0.0659,-0.868 0.14634,-0.56 0.0805,0.308 0.0805,0.812 0,1.12 -0.0805,0.308 -0.14634,0.056 -0.14634,-0.56 z m 5.44,0 c 0,-0.616 0.0659,-0.868 0.14634,-0.56 0.0805,0.308 0.0805,0.812 0,1.12 -0.0805,0.308 -0.14634,0.056 -0.14634,-0.56 z m -112.983717,0 c 0,-0.44 0.07263,-0.62 0.161403,-0.4 0.08877,0.22 0.08877,0.58 0,0.8 -0.08877,0.22 -0.161403,0.04 -0.161403,-0.4 z m 5.44,0 c 0,-0.44 0.07263,-0.62 0.161403,-0.4 0.08877,0.22 0.08877,0.58 0,0.8 -0.08877,0.22 -0.161403,0.04 -0.161403,-0.4 z m 110.349477,-7.16082 c 0,-0.0665 0.252,-0.31845 0.56,-0.56 0.50753,-0.39804 0.51885,-0.38672 0.12081,0.12082 -0.41803,0.53304 -0.68081,0.70255 -0.68081,0.43918 z m -3.84,-3.84 c 0,-0.0665 0.252,-0.31845 0.56,-0.56 0.50753,-0.39804 0.51885,-0.38672 0.12081,0.12082 -0.41803,0.53304 -0.68081,0.70255 -0.68081,0.43918 z m -4.40576,-42.11918 c 0,-0.616 0.0659,-0.868 0.14634,-0.56 0.0805,0.308 0.0805,0.812 0,1.12 -0.0805,0.308 -0.14634,0.056 -0.14634,-0.56 z m 5.44,0 c 0,-0.616 0.0659,-0.868 0.14634,-0.56 0.0805,0.308 0.0805,0.812 0,1.12 -0.0805,0.308 -0.14634,0.056 -0.14634,-0.56 z m -112.97186,-0.16 c 0.0065,-0.528 0.07824,-0.70526 0.159373,-0.39391 0.08113,0.31135 0.0758,0.74335 -0.01186,0.96 -0.08765,0.21665 -0.154037,-0.0381 -0.147516,-0.56609 z m 5.428143,0.16 c 0,-0.44 0.07263,-0.62 0.161403,-0.4 0.08877,0.22 0.08877,0.58 0,0.8 -0.08877,0.22 -0.161403,0.04 -0.161403,-0.4 z M 76.912056,97.591239 c 0,-0.06645 0.252,-0.31845 0.56,-0.56 0.507538,-0.398039 0.518857,-0.38672 0.120818,0.120817 -0.418038,0.53304 -0.680818,0.702554 -0.680818,0.439183 z m 107.520004,0 c 0,-0.06645 0.252,-0.31845 0.56,-0.56 0.50753,-0.398039 0.51885,-0.38672 0.12081,0.120817 -0.41803,0.53304 -0.68081,0.702554 -0.68081,0.439183 z M 180.0263,55.472056 c 0,-0.616 0.0659,-0.868 0.14634,-0.56 0.0805,0.308 0.0805,0.812 0,1.12 -0.0805,0.308 -0.14634,0.056 -0.14634,-0.56 z m -107.53186,-0.16 c 0.0065,-0.528 0.07824,-0.705259 0.159373,-0.393909 0.08113,0.311349 0.0758,0.743349 -0.01186,0.96 -0.08765,0.21665 -0.154037,-0.03809 -0.147516,-0.566091 z m 5.428143,0.16 c 0,-0.44 0.07263,-0.62 0.161403,-0.4 0.08877,0.22 0.08877,0.58 0,0.8 -0.08877,0.22 -0.161403,0.04 -0.161403,-0.4 z m 107.531857,-0.16 c 0.007,-0.528 0.0782,-0.705259 0.15937,-0.393909 0.0811,0.311349 0.0758,0.743349 -0.0119,0.96 -0.0877,0.21665 -0.15404,-0.03809 -0.14752,-0.566091 z M 76.912056,44.471239 c 0,-0.06645 0.252,-0.31845 0.56,-0.56 0.507538,-0.398039 0.518857,-0.38672 0.120818,0.120817 -0.418038,0.53304 -0.680818,0.702554 -0.680818,0.439183 z M 53.25732,40.24539 c 0.01535,-0.372782 0.09118,-0.448608 0.193333,-0.193334 0.09244,0.231 0.08107,0.507 -0.02526,0.613334 -0.106334,0.106333 -0.181965,-0.08267 -0.16807,-0.42 z m 5.465263,-0.133334 c 0,-0.44 0.07263,-0.62 0.161403,-0.4 0.08877,0.22 0.08877,0.58 0,0.8 -0.08877,0.22 -0.161403,0.04 -0.161403,-0.4 z m 1.229473,-17.080817 c 0,-0.06645 0.252,-0.31845 0.56,-0.56 0.507538,-0.398039 0.518857,-0.38672 0.120818,0.120817 -0.418038,0.53304 -0.680818,0.702554 -0.680818,0.439183 z m 198.055784,-2.039183 -0.77578,-0.88 0.88,0.775781 c 0.484,0.426679 0.88,0.822679 0.88,0.88 0,0.250968 -0.25914,0.04671 -0.98422,-0.775781 z M 80.372056,17.81346 c 0.231,-0.09244 0.507,-0.08107 0.613334,0.02526 0.106333,0.106333 -0.08267,0.181965 -0.42,0.16807 -0.372782,-0.01535 -0.448608,-0.09118 -0.193334,-0.193333 z m -0.02,-5.433333 c 0.22,-0.08877 0.58,-0.08877 0.8,0 0.22,0.08877 0.04,0.161403 -0.4,0.161403 -0.44,0 -0.62,-0.07263 -0.4,-0.161403 z m 158.740004,-0.0067 c 0.231,-0.09244 0.507,-0.08107 0.61333,0.02526 0.10633,0.106333 -0.0827,0.181965 -0.42,0.16807 -0.37278,-0.01536 -0.44861,-0.09118 -0.19333,-0.193333 z"
         id="path12" />
      <path
         style="fill:#4570a5"
         d="m 120.67206,310.91207 c 21.692,-0.0454 57.188,-0.0454 78.88,0 21.692,0.0454 3.944,0.0825 -39.44,0.0825 -43.384,0 -61.132004,-0.0371 -39.44,-0.0825 z m -59.480821,-9.28001 c -0.398039,-0.50754 -0.38672,-0.51886 0.120817,-0.12082 0.53304,0.41804 0.702554,0.68082 0.439183,0.68082 -0.06645,0 -0.31845,-0.252 -0.56,-0.56 z m 200.199161,-139.92 c 0,-66.968004 0.0367,-94.364004 0.0817,-60.88 0.0449,33.484 0.0449,88.276 0,121.76 -0.0449,33.484 -0.0817,6.088 -0.0817,-60.88 z m -208.000011,0 c 0,-66.616004 0.03675,-93.868004 0.08166,-60.56 0.04491,33.308 0.04491,87.812 0,121.12 -0.04491,33.308 -0.08166,6.056 -0.08166,-60.56 z m 103.940821,115.36 c 0.002,-1.056 0.0615,-1.44942 0.13276,-0.87427 0.0712,0.57515 0.0697,1.43915 -0.003,1.92 -0.073,0.48085 -0.13128,0.0103 -0.12949,-1.04573 z m -53.71593,-8.96 c -1.3e-4,-5.808 0.0431,-8.22915 0.0961,-5.38033 0.053,2.84882 0.0531,7.60082 2.3e-4,10.56 -0.0529,2.95918 -0.0962,0.62833 -0.0963,-5.17967 z m 107.52,0 c -1.3e-4,-5.808 0.0431,-8.22915 0.0961,-5.38033 0.053,2.84882 0.0531,7.60082 2.3e-4,10.56 -0.0529,2.95918 -0.0962,0.62833 -0.0963,-5.17967 z m -76.5727,-0.16 c 0,-0.44 0.0726,-0.62 0.16141,-0.4 0.0888,0.22 0.0888,0.58 0,0.8 -0.0888,0.22 -0.16141,0.04 -0.16141,-0.4 z m 22.76863,-6.88 c 0.002,-1.056 0.0615,-1.44942 0.13276,-0.87427 0.0712,0.57515 0.0697,1.43915 -0.003,1.92 -0.073,0.48085 -0.13128,0.0103 -0.12949,-1.04573 z m -64.019154,-9.03911 c 2.244,-0.055 5.916,-0.055 8.160004,0 2.244,0.055 0.408,0.10001 -4.080004,0.10001 -4.488,0 -6.324,-0.045 -4.08,-0.10001 z m 17.938634,-1.4e-4 c 2.25424,-0.0551 5.85424,-0.0549 8,3.6e-4 2.14575,0.0553 0.30137,0.10034 -4.09863,0.10015 -4.4,-2e-4 -6.15562,-0.0454 -3.90137,-0.10051 z m 89.58137,1.4e-4 c 2.244,-0.055 5.916,-0.055 8.16,0 2.244,0.055 0.408,0.10001 -4.08,0.10001 -4.488,0 -6.324,-0.045 -4.08,-0.10001 z m 17.93863,-1.4e-4 c 2.25424,-0.0551 5.85424,-0.0549 8,3.6e-4 2.14575,0.0553 0.30137,0.10034 -4.09863,0.10015 -4.4,-2e-4 -6.15562,-0.0454 -3.90137,-0.10051 z m -61.43948,-6.96075 c 0.002,-1.056 0.0615,-1.44942 0.13276,-0.87427 0.0712,0.57515 0.0697,1.43915 -0.003,1.92 -0.073,0.48085 -0.13128,0.0103 -0.12949,-1.04573 z m 0,-16 c 0.002,-1.056 0.0615,-1.44942 0.13276,-0.87427 0.0712,0.57515 0.0697,1.43915 -0.003,1.92 -0.073,0.48085 -0.13128,0.0103 -0.12949,-1.04573 z m -53.71571,-14.24 c 0,-5.896 0.0432,-8.308 0.096,-5.36 0.0528,2.948 0.0528,7.772 0,10.72 -0.0528,2.948 -0.096,0.536 -0.096,-5.36 z m 107.52,0 c 0,-5.896 0.0432,-8.308 0.096,-5.36 0.0528,2.948 0.0528,7.772 0,10.72 -0.0528,2.948 -0.096,0.536 -0.096,-5.36 z m -80.14344,7.87918 c 0,-0.0665 0.252,-0.31845 0.56,-0.56 0.50753,-0.39804 0.51885,-0.38672 0.12081,0.12082 -0.41803,0.53304 -0.68081,0.70255 -0.68081,0.43918 z m 107.52,0 c 0,-0.0665 0.252,-0.31845 0.56,-0.56 0.50753,-0.39804 0.51885,-0.38672 0.12081,0.12082 -0.41803,0.53304 -0.68081,0.70255 -0.68081,0.43918 z m -103.94948,-7.87918 c 0,-0.44 0.0726,-0.62 0.16141,-0.4 0.0888,0.22 0.0888,0.58 0,0.8 -0.0888,0.22 -0.16141,0.04 -0.16141,-0.4 z m 22.76863,-1.76 c 0.002,-1.056 0.0615,-1.44942 0.13276,-0.87427 0.0712,0.57515 0.0697,1.43915 -0.003,1.92 -0.073,0.48085 -0.13128,0.0103 -0.12949,-1.04573 z m 0,-16 c 0.002,-1.056 0.0615,-1.44942 0.13276,-0.87427 0.0712,0.57515 0.0697,1.43915 -0.003,1.92 -0.073,0.48085 -0.13128,0.0103 -0.12949,-1.04573 z m 0,-16 c 0.002,-1.056 0.0615,-1.44942 0.13276,-0.87427 0.0712,0.57515 0.0697,1.43915 -0.003,1.92 -0.073,0.48085 -0.13128,0.0103 -0.12949,-1.04573 z m -53.71571,-19.36 c 0,-5.896 0.0432,-8.308 0.096,-5.36 0.0528,2.948 0.0528,7.772 0,10.72 -0.0528,2.948 -0.096,0.536 -0.096,-5.36 z m 107.52,0 c 0,-5.896 0.0432,-8.308 0.096,-5.36 0.0528,2.948 0.0528,7.772 0,10.72 -0.0528,2.948 -0.096,0.536 -0.096,-5.36 z m -53.80429,3.36 c 0.002,-1.056 0.0615,-1.44942 0.13276,-0.87427 0.0712,0.57515 0.0697,1.43915 -0.003,1.92 -0.073,0.48085 -0.13128,0.0103 -0.12949,-1.04573 z m -22.76863,-3.36 c 0,-0.44 0.0726,-0.62 0.16141,-0.4 0.0888,0.22 0.0888,0.58 0,0.8 -0.0888,0.22 -0.16141,0.04 -0.16141,-0.4 z m 22.76863,-12.64 c 0.002,-1.056 0.0615,-1.44942 0.13276,-0.87427 0.0712,0.57515 0.0697,1.43915 -0.003,1.92 -0.073,0.48085 -0.13128,0.0103 -0.12949,-1.04573 z m 0,-16 c 0.002,-1.056 0.0615,-1.44942 0.13276,-0.87427 0.0712,0.57515 0.0697,1.43915 -0.003,1.92 -0.073,0.48085 -0.13128,0.0103 -0.12949,-1.04573 z m -53.71571,-24.48 c 0,-5.896 0.0432,-8.308 0.096,-5.36 0.0528,2.948 0.0528,7.772 0,10.72 -0.0528,2.948 -0.096,0.536 -0.096,-5.36 z m 107.52,0 c 0,-5.896 0.0432,-8.308 0.096,-5.36 0.0528,2.948 0.0528,7.772 0,10.72 -0.0528,2.948 -0.096,0.536 -0.096,-5.36 z m -53.80429,8.48 c 0.002,-1.056 0.0615,-1.44942 0.13276,-0.87427 0.0712,0.57515 0.0697,1.43915 -0.003,1.92 -0.073,0.48085 -0.13128,0.0103 -0.12949,-1.04573 z m -22.76863,-8.48 c 0,-0.44 0.0726,-0.62 0.16141,-0.4 0.0888,0.22 0.0888,0.58 0,0.8 -0.0888,0.22 -0.16141,0.04 -0.16141,-0.4 z m 22.76863,-7.52 c 0.002,-1.056 0.0615,-1.449425 0.13276,-0.87427 0.0712,0.57515 0.0697,1.43915 -0.003,1.92 -0.073,0.48085 -0.13128,0.0103 -0.12949,-1.04573 z m -26.05997,-0.08 c -0.39804,-0.50754 -0.38672,-0.51886 0.12082,-0.12082 0.53304,0.41804 0.70255,0.68082 0.43918,0.68082 -0.0665,0 -0.31845,-0.252 -0.56,-0.56 z m 107.52,0 c -0.39804,-0.50754 -0.38672,-0.51886 0.12082,-0.12082 0.53304,0.41804 0.70255,0.68082 0.43918,0.68082 -0.0665,0 -0.31845,-0.252 -0.56,-0.56 z M 157.33121,85.072056 c 0.002,-1.056 0.0615,-1.449421 0.13276,-0.874269 0.0712,0.575152 0.0697,1.439152 -0.003,1.92 -0.073,0.480848 -0.13128,0.01027 -0.12949,-1.045731 z M 93.312056,71.23295 c 2.244,-0.05501 5.916,-0.05501 8.160004,0 2.244,0.05501 0.408,0.100014 -4.080004,0.100014 -4.488,0 -6.324,-0.04501 -4.08,-0.100014 z m 17.938634,-1.4e-4 c 2.25424,-0.05508 5.85424,-0.05492 8,3.56e-4 2.14575,0.05528 0.30137,0.100349 -4.09863,0.100153 -4.4,-1.95e-4 -6.15562,-0.04542 -3.90137,-0.100509 z m 89.58137,1.4e-4 c 2.244,-0.05501 5.916,-0.05501 8.16,0 2.244,0.05501 0.408,0.100014 -4.08,0.100014 -4.488,0 -6.324,-0.04501 -4.08,-0.100014 z m 17.93863,-1.4e-4 c 2.25424,-0.05508 5.85424,-0.05492 8,3.56e-4 2.14575,0.05528 0.30137,0.100349 -4.09863,0.100153 -4.4,-1.95e-4 -6.15562,-0.04542 -3.90137,-0.100509 z m -61.43948,-2.160754 c 0.002,-1.056 0.0615,-1.449421 0.13276,-0.874269 0.0712,0.575152 0.0697,1.439152 -0.003,1.92 -0.073,0.480848 -0.13128,0.01027 -0.12949,-1.045731 z m -53.71593,-13.76 c -1.3e-4,-5.808 0.0431,-8.229145 0.0961,-5.380323 0.053,2.848822 0.0531,7.600822 2.3e-4,10.56 -0.0529,2.959178 -0.0962,0.628323 -0.0963,-5.179677 z m 107.52,0 c -1.3e-4,-5.808 0.0431,-8.229145 0.0961,-5.380323 0.053,2.848822 0.0531,7.600822 2.3e-4,10.56 -0.0529,2.959178 -0.0962,0.628323 -0.0963,-5.179677 z m -76.5727,0.16 c 0,-0.44 0.0726,-0.62 0.16141,-0.4 0.0888,0.22 0.0888,0.58 0,0.8 -0.0888,0.22 -0.16141,0.04 -0.16141,-0.4 z m 22.76863,-2.4 c 0.002,-1.056 0.0615,-1.449421 0.13276,-0.874269 0.0712,0.575152 0.0697,1.439152 -0.003,1.92 -0.073,0.480848 -0.13128,0.01027 -0.12949,-1.045731 z m 0,-16 c 0.002,-1.056 0.0615,-1.449421 0.13276,-0.874269 0.0712,0.575152 0.0697,1.439152 -0.003,1.92 -0.073,0.480848 -0.13128,0.01027 -0.12949,-1.045731 z M 60.912056,22.071239 c 0,-0.06645 0.252,-0.31845 0.56,-0.56 0.507538,-0.398039 0.518857,-0.38672 0.120818,0.120817 -0.418038,0.53304 -0.680818,0.702554 -0.680818,0.439183 z m 59.760004,-9.719171 c 21.692,-0.04539 57.188,-0.04539 78.88,0 21.692,0.04539 3.944,0.08253 -39.44,0.08253 -43.384,0 -61.132004,-0.03714 -39.44,-0.08253 z"
         id="path11" />
      <path
         style="fill:#205493"
         d="m 65.521652,298.59206 -0.609596,-0.72 0.72,0.60959 c 0.396,0.33528 0.72,0.65928 0.72,0.72 0,0.25608 -0.257534,0.067 -0.830404,-0.60959 z m 173.269588,-38.24 c -0.39804,-0.50754 -0.38672,-0.51886 0.12082,-0.12082 0.308,0.24155 0.56,0.49355 0.56,0.56 0,0.26337 -0.26278,0.0939 -0.68082,-0.43918 z m -103.68,-3.52 c -0.39804,-0.50754 -0.38672,-0.51886 0.12082,-0.12082 0.53304,0.41804 0.70255,0.68082 0.43918,0.68082 -0.0665,0 -0.31845,-0.252 -0.56,-0.56 z M 88.198147,252.0503 c 0.311349,-0.0811 0.743349,-0.0758 0.96,0.0119 0.21665,0.0876 -0.03809,0.15403 -0.566091,0.14751 -0.528,-0.007 -0.705259,-0.0782 -0.393909,-0.15937 z m 17.593913,0.001 c 0.308,-0.0805 0.812,-0.0805 1.12,0 0.308,0.0805 0.056,0.14635 -0.56,0.14635 -0.616,0 -0.868,-0.0659 -0.56,-0.14635 z m 17.6,0 c 0.308,-0.0805 0.812,-0.0805 1.12,0 0.308,0.0805 0.056,0.14635 -0.56,0.14635 -0.616,0 -0.868,-0.0659 -0.56,-0.14635 z m 72.32609,-0.001 c 0.31135,-0.0811 0.74335,-0.0758 0.96,0.0119 0.21665,0.0876 -0.0381,0.15403 -0.56609,0.14751 -0.528,-0.007 -0.70526,-0.0782 -0.39391,-0.15937 z m 17.59391,0.001 c 0.308,-0.0805 0.812,-0.0805 1.12,0 0.308,0.0805 0.056,0.14635 -0.56,0.14635 -0.616,0 -0.868,-0.0659 -0.56,-0.14635 z m 17.6,0 c 0.308,-0.0805 0.812,-0.0805 1.12,0 0.308,0.0805 0.056,0.14635 -0.56,0.14635 -0.616,0 -0.868,-0.0659 -0.56,-0.14635 z m -95.95041,-48.49941 -0.60959,-0.72 0.72,0.60959 c 0.67662,0.57287 0.86567,0.83041 0.60959,0.83041 -0.0607,0 -0.38472,-0.324 -0.72,-0.72 z m 107.66959,0.16 c -0.39804,-0.50754 -0.38672,-0.51886 0.12082,-0.12082 0.308,0.24155 0.56,0.49355 0.56,0.56 0,0.26337 -0.26278,0.0939 -0.68082,-0.43918 z m -0.11918,-30.8 c 0.31855,-0.352 0.65119,-0.64 0.73919,-0.64 0.088,0 -0.10064,0.288 -0.41919,0.64 -0.31856,0.352 -0.6512,0.64 -0.7392,0.64 -0.088,0 0.10064,-0.288 0.4192,-0.64 z m -0.0304,-22.48 -0.60959,-0.72 0.72,0.60959 c 0.396,0.33528 0.72,0.65928 0.72,0.72 0,0.25608 -0.25754,0.067 -0.83041,-0.60959 z m -107.48959,-30.64 c 0.31855,-0.352 0.65119,-0.64 0.73919,-0.64 0.088,0 -0.10064,0.288 -0.41919,0.64 -0.31856,0.352 -0.6512,0.64 -0.7392,0.64 -0.088,0 0.10064,-0.288 0.4192,-0.64 z m 107.52,0 c 0.31855,-0.352 0.65119,-0.64 0.73919,-0.64 0.088,0 -0.10064,0.288 -0.41919,0.64 -0.31856,0.352 -0.6512,0.64 -0.7392,0.64 -0.088,0 0.10064,-0.288 0.4192,-0.64 z M 88.198147,71.250299 c 0.311349,-0.08113 0.743349,-0.0758 0.96,0.01186 0.21665,0.08765 -0.03809,0.154037 -0.566091,0.147516 -0.528,-0.0065 -0.705259,-0.07824 -0.393909,-0.159374 z m 17.593913,0.0012 c 0.308,-0.08049 0.812,-0.08049 1.12,0 0.308,0.08049 0.056,0.146344 -0.56,0.146344 -0.616,0 -0.868,-0.06585 -0.56,-0.146344 z m 17.6,0 c 0.308,-0.08049 0.812,-0.08049 1.12,0 0.308,0.08049 0.056,0.146344 -0.56,0.146344 -0.616,0 -0.868,-0.06585 -0.56,-0.146344 z m 72.32609,-0.0012 c 0.31135,-0.08113 0.74335,-0.0758 0.96,0.01186 0.21665,0.08765 -0.0381,0.154037 -0.56609,0.147516 -0.528,-0.0065 -0.70526,-0.07824 -0.39391,-0.159374 z m 17.59391,0.0012 c 0.308,-0.08049 0.812,-0.08049 1.12,0 0.308,0.08049 0.056,0.146344 -0.56,0.146344 -0.616,0 -0.868,-0.06585 -0.56,-0.146344 z m 17.6,0 c 0.308,-0.08049 0.812,-0.08049 1.12,0 0.308,0.08049 0.056,0.146344 -0.56,0.146344 -0.616,0 -0.868,-0.06585 -0.56,-0.146344 z m -96.08,-4.380233 c 0,-0.06645 0.252,-0.31845 0.56,-0.56 0.50753,-0.398039 0.51885,-0.38672 0.12081,0.120817 -0.41803,0.53304 -0.68081,0.702554 -0.68081,0.439183 z m 103.68,-3.52 c 0,-0.06645 0.252,-0.31845 0.56,-0.56 0.50753,-0.398039 0.51885,-0.38672 0.12081,0.120817 -0.41803,0.53304 -0.68081,0.702554 -0.68081,0.439183 z M 65.552056,24.752056 c 0.318556,-0.352 0.651192,-0.64 0.739192,-0.64 0.088,0 -0.100636,0.288 -0.419192,0.64 -0.318555,0.352 -0.651192,0.64 -0.739192,0.64 -0.088,0 0.100637,-0.288 0.419192,-0.64 z"
         id="path10" />
      <path
         style="fill:#003c84"
         d="m 78.672056,310.63393 c -0.352,-0.0705 -1.432,-0.28791 -2.4,-0.48313 -8.69995,-1.75463 -17.137716,-8.96641 -20.633315,-17.63535 -2.261191,-5.60766 -2.086685,5.33127 -2.086685,-130.80339 0,-135.41832 -0.154303,-125.16213 1.963711,-130.523466 3.430324,-8.683191 10.795509,-15.18528 20.257553,-17.883652 1.814292,-0.517397 7.227855,-0.552886 84.33874,-0.552886 h 82.4 l 2.88,0.910403 c 10.65732,3.368908 18.03869,11.223587 20.52812,21.844419 0.57046,2.433805 0.59188,7.000508 0.59188,126.205182 0,119.20467 -0.0214,123.77137 -0.59188,126.20518 -2.47058,10.54041 -9.67289,18.26384 -20.36812,21.84184 l -2.72,0.90995 -81.76,0.0465 c -44.968,0.0256 -82.048004,-0.0111 -82.400004,-0.0816 z m 163.520004,-5.40087 c 9.03038,-1.88624 16.54015,-9.13398 18.60897,-17.95964 0.56931,-2.42871 0.59103,-7.04293 0.59103,-125.56136 0,-118.518435 -0.0217,-123.132661 -0.59103,-125.561369 -1.68146,-7.173185 -7.23222,-13.664449 -14.20641,-16.613496 -4.63073,-1.958112 0.7869,-1.849881 -87.76256,-1.753283 l -80.800004,0.08814 -2.24,0.747078 c -7.909743,2.63803 -13.721695,8.529499 -16.224542,16.446519 l -0.735458,2.326403 v 124.480008 124.48 l 0.900285,2.56 c 3.013851,8.57002 9.453858,14.41562 17.979715,16.32021 3.002282,0.67068 161.269264,0.67144 164.480004,7.9e-4 z M 86.672056,283.73636 c -6.992982,-0.98686 -12.68866,-6.67249 -13.697189,-13.67303 -0.672557,-4.66845 1.031868,-9.69639 4.443495,-13.10801 2.001465,-2.00147 3.879369,-3.14689 6.651036,-4.05678 1.813121,-0.59522 2.916896,-0.62648 22.117432,-0.62648 22.21953,0 21.67614,-0.0426 25.53523,2.00043 2.25604,1.19435 5.18499,4.26705 6.40224,6.71646 4.29432,8.64121 0.12794,18.53264 -9.30773,22.09756 -1.79038,0.67643 -2.19267,0.69022 -21.50451,0.73733 -10.824004,0.0264 -20.112004,-0.013 -20.640004,-0.0875 z m 17.120004,-15.7843 v -10.56 h -8.421923 c -6.524514,0 -8.777451,0.10701 -10,0.47498 -3.430734,1.03261 -6.432346,4.41877 -7.204716,8.12774 -1.071651,5.14612 2.257043,10.65203 7.386635,12.21804 0.44,0.13432 4.724,0.2566 9.52,0.27173 l 8.720004,0.0275 z m 24.21807,9.87078 c 2.50561,-0.93746 4.87651,-3.32095 5.84967,-5.8807 1.81639,-4.77774 0.17504,-10.04727 -3.9687,-12.74144 -2.59223,-1.68542 -3.45178,-1.80864 -12.61617,-1.80864 h -8.36287 v 10.56 10.56 h 8.62799 c 8.04984,0 8.75144,-0.0462 10.47008,-0.68922 z m 66.18193,5.91352 c -3.39378,-0.47893 -6.76449,-2.20083 -9.22931,-4.71469 -2.15646,-2.19937 -3.42902,-4.43758 -4.19419,-7.37685 -2.05665,-7.90027 3.00061,-16.50892 11.07275,-18.8484 1.59093,-0.46109 4.23863,-0.52436 21.94192,-0.52436 17.58257,0 20.35282,0.0653 21.87075,0.51568 5.87009,1.74166 10.1244,6.36501 11.37669,12.36358 1.56966,7.51878 -2.88121,14.98338 -10.6941,17.93519 -1.79038,0.67643 -2.19267,0.69022 -21.50451,0.73733 -10.824,0.0264 -20.112,-0.013 -20.64,-0.0875 z m 17.12,-15.7843 v -10.56 h -8.628 c -7.89164,0 -8.77642,0.0555 -10.36707,0.65067 -4.94012,1.84833 -7.90805,7.64373 -6.46197,12.61808 0.63079,2.16984 1.14836,3.07723 2.71413,4.75836 1.11639,1.19864 2.89709,2.30341 4.50291,2.79365 0.44,0.13432 4.724,0.2566 9.52,0.27173 l 8.72,0.0275 z m 24.17361,9.88742 c 2.46044,-0.92057 4.96228,-3.43952 5.90144,-5.9418 0.9384,-2.50027 0.82344,-6.28207 -0.258,-8.48732 -1.0232,-2.08648 -2.98926,-4.0075 -5.12733,-5.00987 -1.80307,-0.84531 -1.84237,-0.84878 -10.68972,-0.94269 l -8.88,-0.0943 v 10.57426 10.57426 h 8.62799 c 7.98379,0 8.76222,-0.0502 10.42562,-0.67258 z m -76.49361,2.85381 c -1.15925,-0.67884 -1.41947,-1.34146 -1.42983,-3.64089 -0.008,-1.81363 0.11402,-2.39297 0.619,-2.935 0.87882,-0.9433 1.77286,-1.156 2.79631,-0.66527 1.19601,0.57347 1.68421,1.6835 1.6898,3.84208 0.004,1.44182 -0.14557,1.99035 -0.71528,2.62795 -0.86336,0.96623 -2.08385,1.28419 -2.96,0.77113 z m 0,-16 c -1.15925,-0.67884 -1.41947,-1.34146 -1.42983,-3.64089 -0.008,-1.81363 0.11402,-2.39297 0.619,-2.935 0.87882,-0.9433 1.77286,-1.156 2.79631,-0.66527 1.19601,0.57347 1.68421,1.6835 1.6898,3.84208 0.004,1.44182 -0.14557,1.99035 -0.71528,2.62795 -0.86336,0.96623 -2.08385,1.28419 -2.96,0.77113 z m 0,-16 c -1.15925,-0.67884 -1.41947,-1.34146 -1.42983,-3.64089 -0.008,-1.81363 0.11402,-2.39297 0.619,-2.935 0.87882,-0.9433 1.77286,-1.156 2.79631,-0.66527 1.19601,0.57347 1.68421,1.6835 1.6898,3.84208 0.004,1.44182 -0.14557,1.99035 -0.71528,2.62795 -0.86336,0.96623 -2.08385,1.28419 -2.96,0.77113 z m 0,-16 c -1.15925,-0.67884 -1.41947,-1.34146 -1.42983,-3.64089 -0.008,-1.81363 0.11402,-2.39297 0.619,-2.935 0.87882,-0.9433 1.77286,-1.156 2.79631,-0.66527 1.19601,0.57347 1.68421,1.6835 1.6898,3.84208 0.004,1.44182 -0.14557,1.99035 -0.71528,2.62795 -0.86336,0.96623 -2.08385,1.28419 -2.96,0.77113 z m -72.800004,-2.18682 c -3.648977,-0.63429 -7.621146,-2.94147 -9.859228,-5.72661 -7.07401,-8.8031 -2.876821,-21.80567 8.136566,-25.20646 1.734225,-0.53551 3.459551,-0.58134 21.882666,-0.58134 18.77085,0 20.10816,0.0371 21.76,0.60425 5.60278,1.92356 9.34638,5.56398 11.06059,10.75575 0.77799,2.35627 0.77877,6.59969 0.002,8.96 -1.87997,5.70986 -6.40876,9.81199 -12.18223,11.03455 -1.84296,0.39026 -5.52982,0.46865 -20.8,0.44225 -10.208004,-0.0176 -19.208004,-0.14472 -20.000004,-0.28239 z m 17.600004,-15.67441 v -10.56 h -8.628 c -7.891644,0 -8.776416,0.0555 -10.36707,0.65067 -2.444302,0.91453 -4.450782,2.79516 -5.708964,5.35089 -0.907903,1.84421 -1.04622,2.44985 -1.037581,4.54315 0.0182,4.40865 2.48021,8.1669 6.407865,9.78157 1.845147,0.75855 2.117528,0.77872 10.613746,0.78612 l 8.720004,0.008 z m 24.17361,9.88742 c 2.45151,-0.91723 4.95815,-3.43702 5.91077,-5.9418 1.9996,-5.25769 -0.24198,-10.98149 -5.3048,-13.54562 -1.55766,-0.7889 -1.70506,-0.80137 -10.61958,-0.89828 l -9.04,-0.0983 v 10.57828 10.57828 h 8.62799 c 7.98379,0 8.76222,-0.0502 10.42562,-0.67258 z m 65.74639,5.78699 c -8.48377,-1.4747 -14.4196,-9.43936 -13.22334,-17.743 0.89368,-6.20335 5.33086,-11.30643 11.46334,-13.18367 1.77571,-0.54357 3.42302,-0.58774 21.92,-0.58774 18.70498,0 20.11396,0.0388 21.76,0.59911 3.11985,1.06201 5.39351,2.46911 7.29,4.51155 2.26711,2.44158 3.49495,4.86164 4.14776,8.17519 0.45936,2.33166 0.45844,2.78133 -0.0106,5.16221 -1.30804,6.63943 -6.06652,11.53419 -12.54714,12.90649 -1.84296,0.39026 -5.52982,0.46865 -20.8,0.44225 -10.208,-0.0176 -19.208,-0.14472 -20,-0.28239 z m 17.6,-15.67441 v -10.56 h -8.628 c -7.91975,0 -8.77218,0.0539 -10.38452,0.6572 -4.94778,1.8512 -7.89651,7.61687 -6.44648,12.60482 1.00015,3.44039 3.04579,5.79821 6.13093,7.06657 1.83807,0.75566 2.11896,0.77642 10.60807,0.78381 l 8.72,0.008 z m 24.17361,9.88742 c 2.46044,-0.92057 4.96228,-3.43952 5.90144,-5.9418 0.94333,-2.51342 0.82385,-6.28109 -0.26994,-8.51199 -0.95242,-1.94254 -3.01821,-4.00872 -5.0327,-5.03363 -1.55098,-0.7891 -1.69562,-0.80134 -10.61241,-0.89828 l -9.04,-0.0983 v 10.57828 10.57828 h 8.62799 c 7.98379,0 8.76222,-0.0502 10.42562,-0.67258 z m -76.49361,-8.02619 c -1.15925,-0.67884 -1.41947,-1.34146 -1.42983,-3.64089 -0.008,-1.81363 0.11402,-2.39297 0.619,-2.935 0.87882,-0.9433 1.77286,-1.156 2.79631,-0.66527 1.19601,0.57347 1.68421,1.6835 1.6898,3.84208 0.004,1.44182 -0.14557,1.99035 -0.71528,2.62795 -0.86336,0.96623 -2.08385,1.28419 -2.96,0.77113 z m 0,-16 c -1.15925,-0.67884 -1.41947,-1.34146 -1.42983,-3.64089 -0.008,-1.81363 0.11402,-2.39297 0.619,-2.935 0.87882,-0.9433 1.77286,-1.156 2.79631,-0.66527 1.19601,0.57347 1.68421,1.6835 1.6898,3.84208 0.004,1.44182 -0.14557,1.99035 -0.71528,2.62795 -0.86336,0.96623 -2.08385,1.28419 -2.96,0.77113 z m 0,-16 c -1.15925,-0.67884 -1.41947,-1.34146 -1.42983,-3.64089 -0.008,-1.81363 0.11402,-2.39297 0.619,-2.935 0.87882,-0.9433 1.77286,-1.156 2.79631,-0.66527 1.19601,0.57347 1.68421,1.6835 1.6898,3.84208 0.004,1.44182 -0.14557,1.99035 -0.71528,2.62795 -0.86336,0.96623 -2.08385,1.28419 -2.96,0.77113 z m -73.440004,-7.4733 c -8.221744,-1.80726 -13.811089,-9.7101 -12.564331,-17.76484 1.026381,-6.63099 6.112865,-11.88441 12.860577,-13.28268 2.024664,-0.41955 5.220524,-0.47527 21.599998,-0.37656 17.49957,0.10545 19.37873,0.16771 20.95162,0.6941 9.99787,3.34592 14.30979,14.09545 9.26251,23.0912 -1.80429,3.21579 -5.37745,6.05238 -9.26251,7.35316 -1.57958,0.52887 -3.40304,0.58557 -21.24786,0.66068 -15.965936,0.0672 -19.898716,-10e-4 -21.600004,-0.37506 z m 18.240004,-15.50793 v -10.56 h -8.628 c -9.928052,0 -10.891969,0.19137 -13.705576,2.72104 -4.577357,4.11544 -4.576805,11.56297 0.0012,15.67895 2.808864,2.52541 3.608439,2.6842 13.612411,2.70333 l 8.720005,0.0167 z m 24.8,9.61515 c 7.96033,-3.90476 7.96033,-15.32554 0,-19.23031 -1.56717,-0.76874 -1.78554,-0.78677 -10.64,-0.87889 l -9.04,-0.094 v 10.5881 10.5881 l 9.04,-0.0941 c 8.85446,-0.0921 9.07283,-0.11016 10.64,-0.8789 z m 64.48,5.89278 c -8.77901,-1.92976 -14.49248,-10.79561 -12.32349,-19.12291 1.59912,-6.13947 6.34558,-10.62448 12.61973,-11.92461 2.02393,-0.4194 5.2265,-0.47556 21.6,-0.37879 21.15657,0.12504 20.14874,0.0336 24.20867,2.19747 2.31962,1.23635 5.23638,4.27046 6.47355,6.73399 0.49416,0.984 1.12887,2.9586 1.41048,4.388 0.46935,2.38237 0.46935,2.81546 0,5.19783 -0.28161,1.4294 -0.91632,3.404 -1.41048,4.388 -1.23717,2.46354 -4.15393,5.49764 -6.47355,6.73399 -4.07259,2.17067 -3.00379,2.07627 -24.50491,2.16432 -15.95978,0.0653 -19.89937,-0.003 -21.6,-0.37729 z m 18.24,-15.50793 v -10.56 h -8.628 c -7.91975,0 -8.77218,0.0539 -10.38452,0.6572 -3.39523,1.27031 -5.85855,4.27209 -6.66642,8.12362 -0.96786,4.61434 2.01968,9.91482 6.57558,11.66635 1.51179,0.58121 2.45791,0.641 10.38336,0.65615 l 8.72,0.0167 z m 24.79165,9.61676 c 2.03011,-0.99899 3.98612,-2.955 4.98511,-4.98511 0.66432,-1.35 0.78324,-2.0532 0.78324,-4.63165 0,-2.57846 -0.11892,-3.28166 -0.78324,-4.63166 -0.99899,-2.03011 -2.955,-3.98612 -4.98511,-4.98511 -1.55836,-0.76685 -1.78078,-0.7852 -10.63165,-0.87728 l -9.04,-0.094 v 10.5881 10.5881 l 9.04,-0.0941 c 8.85087,-0.0921 9.07329,-0.11044 10.63165,-0.87729 z m -77.11165,-2.63553 c -0.352,-0.20613 -0.81542,-0.60123 -1.02983,-0.878 -0.52856,-0.68233 -0.50902,-4.82634 0.0261,-5.53065 0.69172,-0.91045 2.05793,-1.27908 3.02391,-0.81589 1.16185,0.5571 1.64958,1.68438 1.65512,3.82546 0.004,1.44182 -0.14557,1.99035 -0.71528,2.62795 -0.86336,0.96623 -2.08385,1.28419 -2.96,0.77113 z m 0,-16 c -0.352,-0.20613 -0.81542,-0.60123 -1.02983,-0.878 -0.52856,-0.68233 -0.50902,-4.82634 0.0261,-5.53065 0.69172,-0.91045 2.05793,-1.27908 3.02391,-0.81589 1.16185,0.5571 1.64958,1.68438 1.65512,3.82546 0.004,1.44182 -0.14557,1.99035 -0.71528,2.62795 -0.86336,0.96623 -2.08385,1.28419 -2.96,0.77113 z m 0,-16 c -0.352,-0.20613 -0.81542,-0.60123 -1.02983,-0.878 -0.52856,-0.68233 -0.50902,-4.82634 0.0261,-5.53065 0.69172,-0.91045 2.05793,-1.27908 3.02391,-0.81589 1.16185,0.5571 1.64958,1.68438 1.65512,3.82546 0.004,1.44182 -0.14557,1.99035 -0.71528,2.62795 -0.86336,0.96623 -2.08385,1.28419 -2.96,0.77113 z m -72.000004,-12.3165 c -8.910199,-1.25555 -15.248657,-9.34798 -14.017189,-17.896 0.86212,-5.98427 4.823099,-10.732896 10.84276,-12.99887 1.870529,-0.704121 2.138989,-0.714433 21.278713,-0.817376 16.54291,-0.08898 19.7324,-0.03168 21.75917,0.390917 7.64253,1.593514 12.89826,7.924299 12.89826,15.536599 0,4.45376 -1.67361,8.26846 -5.01338,11.42706 -1.7924,1.69518 -3.31667,2.59721 -6.29294,3.72403 -1.72684,0.65378 -2.30485,0.67348 -21.13539,0.72054 -10.648004,0.0266 -19.792004,-0.0125 -20.320004,-0.0869 z M 103.79206,108.59206 V 98.032056 h -8.628 c -8.040719,0 -8.752953,0.04675 -10.463814,0.686868 -4.010328,1.500456 -6.631268,5.397856 -6.649801,9.888416 -0.0086,2.0933 0.129678,2.69894 1.037581,4.54315 1.237916,2.51457 3.248567,4.42398 5.618126,5.33525 1.490278,0.57312 2.470413,0.63455 10.365904,0.64964 l 8.720004,0.0167 z m 24.77958,9.6 c 6.65993,-3.37301 8.10237,-11.90414 2.89346,-17.11305 -2.87097,-2.870965 -3.67526,-3.046954 -13.92505,-3.046954 h -8.62799 v 10.578274 10.57828 l 9.04,-0.0983 c 8.91452,-0.0969 9.06192,-0.10938 10.61958,-0.89827 z m 65.94042,6.18473 c -5.51102,-0.77657 -10.28019,-4.18851 -12.56909,-8.99211 -4.09576,-8.59563 -0.0786,-18.221336 9.08773,-21.775616 l 2.20136,-0.853584 19.38428,-0.0976 c 16.52514,-0.0832 19.73458,-0.02456 21.75917,0.397578 6.60404,1.376983 11.36371,6.228536 12.68369,12.928542 0.46906,2.38088 0.46998,2.83054 0.0106,5.1622 -1.19553,6.06834 -4.85817,10.24459 -11.0241,12.57002 -1.82561,0.68851 -2.14662,0.69982 -21.21366,0.74747 -10.648,0.0266 -19.792,-0.0125 -20.32,-0.0869 z m 16.8,-15.78473 V 98.032056 h -8.628 c -8.00829,0 -8.75828,0.04874 -10.44186,0.678656 -3.13971,1.174714 -5.37312,3.684348 -6.38914,7.179318 -1.43632,4.94078 1.47833,10.71411 6.35564,12.5892 1.51179,0.58121 2.45791,0.641 10.38336,0.65615 l 8.72,0.0167 z m 24.77241,9.6 c 3.67523,-1.86985 5.71464,-5.02661 5.89195,-9.12 0.15098,-3.48533 -0.66563,-5.66735 -2.99132,-7.99305 -2.87097,-2.870965 -3.67526,-3.046954 -13.92505,-3.046954 h -8.62799 v 10.578274 10.57828 l 9.04,-0.0983 c 8.91679,-0.0969 9.06143,-0.10918 10.61241,-0.89827 z m -77.09241,2.50123 c -0.352,-0.20613 -0.81542,-0.60123 -1.02983,-0.878 -0.52856,-0.68233 -0.50902,-4.82634 0.0261,-5.53065 0.69172,-0.91045 2.05793,-1.27908 3.02391,-0.81589 1.16185,0.5571 1.64958,1.68438 1.65512,3.82546 0.004,1.44182 -0.14557,1.99035 -0.71528,2.62795 -0.86336,0.96623 -2.08385,1.28419 -2.96,0.77113 z m 0,-16 c -0.352,-0.20613 -0.81542,-0.60123 -1.02983,-0.878 -0.52856,-0.68233 -0.50902,-4.826341 0.0261,-5.530653 0.69172,-0.910452 2.05793,-1.279073 3.02391,-0.815888 1.16185,0.557102 1.64958,1.684386 1.65512,3.825461 0.004,1.44182 -0.14557,1.99035 -0.71528,2.62795 -0.86336,0.96623 -2.08385,1.28419 -2.96,0.77113 z m 0,-15.999999 c -0.352,-0.206126 -0.81542,-0.601229 -1.02983,-0.878005 -0.52856,-0.682331 -0.50902,-4.826337 0.0261,-5.530649 0.69172,-0.910452 2.05793,-1.279073 3.02391,-0.815888 1.16185,0.557102 1.64958,1.684386 1.65512,3.825463 0.004,1.441815 -0.14557,1.990351 -0.71528,2.627952 -0.86336,0.966231 -2.08385,1.28419 -2.96,0.771127 z m 0,-16 c -0.352,-0.206126 -0.81542,-0.601229 -1.02983,-0.878005 -0.52856,-0.682331 -0.50902,-4.826337 0.0261,-5.530649 0.69172,-0.910452 2.05793,-1.279073 3.02391,-0.815888 1.16185,0.557102 1.64958,1.684386 1.65512,3.825463 0.004,1.441815 -0.14557,1.990351 -0.71528,2.627952 -0.86336,0.966231 -2.08385,1.28419 -2.96,0.771127 z M 83.792056,70.405665 C 80.809605,69.32387 79.416214,68.466649 77.459262,66.509696 71.300575,60.35101 71.323576,50.500537 77.51109,44.313023 c 1.99763,-1.99763 3.706524,-3.028056 6.760966,-4.076718 1.652992,-0.56751 2.995462,-0.604249 22.080004,-0.604249 19.01127,0 20.43335,0.03856 22.08,0.598624 7.96868,2.710364 12.67612,10.389842 11.07379,18.065225 -1.25437,6.008593 -5.50395,10.622062 -11.37187,12.34563 -1.51511,0.445027 -4.34772,0.507316 -22.08,0.485537 -20.058216,-0.02464 -20.368702,-0.0347 -22.261924,-0.721407 z M 103.79206,55.454033 V 44.87601 l -9.200004,0.09802 -9.2,0.09802 -1.6,0.852353 c -3.031814,1.615109 -5.008316,4.352626 -5.652725,7.829202 -0.681108,3.674567 0.954467,7.756206 4.052725,10.11373 2.607704,1.984251 3.417957,2.117373 13.04,2.142427 l 8.560004,0.02229 z m 23.71738,9.953258 c 4.48607,-1.704573 7.059,-5.319675 7.07109,-9.935235 0.0115,-4.3855 -2.66783,-8.410648 -6.5704,-9.870787 -1.71864,-0.643029 -2.42024,-0.689213 -10.47008,-0.689213 h -8.62799 v 10.56 10.56 h 8.47656 c 7.63289,0 8.64022,-0.06218 10.12082,-0.624765 z m 63.96262,5.116562 c -7.92614,-2.566192 -12.72663,-10.97308 -10.7035,-18.744565 0.76517,-2.939266 2.03773,-5.177471 4.19419,-7.376841 2.01779,-2.057943 3.72857,-3.101587 6.82931,-4.166142 1.65299,-0.56751 2.99546,-0.604249 22.08,-0.604249 19.01127,0 20.43335,0.03856 22.08,0.598624 7.95734,2.706506 12.67591,10.390942 11.07861,18.042112 -1.25229,5.998573 -5.5066,10.621922 -11.37669,12.363577 -1.52363,0.452059 -4.24798,0.512086 -22.08,0.486498 -18.58584,-0.02667 -20.49386,-0.07838 -22.10192,-0.599014 z m 19.84,-15.06982 V 44.87601 l -9.2,0.09802 -9.2,0.09802 -1.6,0.852353 c -2.72872,1.453645 -4.55792,3.746044 -5.45704,6.838894 -1.43223,4.926694 1.50146,10.729689 6.37113,12.602435 1.49028,0.573121 2.47042,0.634547 10.36591,0.649645 l 8.72,0.01667 z m 24.68972,9.569588 c 3.72729,-1.74743 5.79326,-4.884287 5.97464,-9.071565 0.15098,-3.485323 -0.66563,-5.66735 -2.99132,-7.993043 -2.87097,-2.870968 -3.67526,-3.046957 -13.92505,-3.046957 h -8.62799 v 10.574258 10.574259 l 8.88,-0.09426 c 8.84735,-0.09391 8.88665,-0.09738 10.68972,-0.942693 z m -77.00972,-8.338066 c -1.15879,-0.664563 -1.41965,-1.328545 -1.41965,-3.613499 0,-2.450521 0.32279,-3.141313 1.71526,-3.670726 1.1094,-0.421795 2.39169,0.126779 2.9703,1.270726 0.22256,0.44 0.40677,1.639077 0.40937,2.664616 0.004,1.637447 -0.10924,1.978574 -0.93067,2.8 -0.9968,0.996805 -1.71362,1.140158 -2.74461,0.548883 z m 0,-16 c -1.15879,-0.664563 -1.41965,-1.328545 -1.41965,-3.613499 0,-2.450521 0.32279,-3.141313 1.71526,-3.670726 1.1094,-0.421795 2.39169,0.126779 2.9703,1.270726 0.22256,0.44 0.40677,1.639077 0.40937,2.664616 0.004,1.637447 -0.10924,1.978574 -0.93067,2.8 -0.9968,0.996805 -1.71362,1.140158 -2.74461,0.548883 z"
         id="path9" />
    </g>
  </g>
</svg>
