<svg width="1655" height="1535" xmlns="http://www.w3.org/2000/svg" xmlns:xlink="http://www.w3.org/1999/xlink" xml:space="preserve" overflow="hidden"><defs><clipPath id="clip0"><rect x="1279" y="470" width="1655" height="1535"/></clipPath></defs><g clip-path="url(#clip0)" transform="translate(-1279 -470)"><path d="M2106.5 827.282C1847.27 281.341 1407 608.905 1407 914.632 1407 1373.22 2106.5 1941 2106.5 1941 2106.5 1941 2806 1373.22 2806 914.632 2806 608.905 2365.73 281.341 2106.5 827.282Z" fill="#FF0000" fill-rule="evenodd" fill-opacity="0.4"/><path d="M57.2017 217.758C247.339 217.402 437.299 217.58 627.436 217.758 677.866 215.442 722.238 266.406 711.189 315.946 704.24 339.29 698.181 365.485 711.368 387.938 729.544 425.538 783.182 437.655 815.97 412.173 834.681 399.699 842.878 377.78 846.442 356.575 848.758 406.114 847.155 455.831 847.333 505.549 833.433 484.521 813.653 466.88 788.527 460.999 748.967 447.812 705.665 460.464 666.818 444.427 630.822 430.527 602.667 397.56 596.073 359.426 592.509 343.566 595.539 327.35 594.826 311.491 593.044 289.572 570.947 272.465 549.207 275.316 435.16 284.583 321.113 294.562 206.888 304.185 180.871 305.966 153.429 311.669 128.481 301.69 93.1977 287.077 66.8244 254.467 57.2017 217.758Z" fill="#537BAC" fill-rule="evenodd" transform="matrix(1.00033 0 0 1 1221.81 335.638)"/><path d="M171.427 319.866C295.987 308.639 420.726 298.66 545.287 287.968 555.444 286.008 565.067 290.107 574.155 294.205 566.671 305.61 559.543 317.371 553.306 329.489 465.276 341.963 377.068 353.902 289.038 366.376 270.327 368.87 250.903 373.147 232.192 367.623 206.175 361.208 185.861 341.784 171.427 319.866Z" fill="#537BAC" fill-rule="evenodd" transform="matrix(1.00033 0 0 1 1221.81 335.638)"/><path d="M556.87 376.177C557.226 351.051 565.601 325.568 582.53 306.679 583.065 325.39 580.57 344.457 584.134 362.99 591.44 403.085 620.308 438.011 657.73 454.049 704.062 475.789 759.125 456.009 804.744 480.601 831.295 493.966 843.056 523.725 846.264 551.524 830.939 527.823 808.842 505.727 779.439 502.341 738.81 499.49 698.003 503.588 657.374 500.381 599.103 491.827 555.088 434.269 556.87 376.177Z" fill="#537BAC" fill-rule="evenodd" transform="matrix(1.00033 0 0 1 1221.81 335.638)"/><path d="M271.396 381.879C363.703 367.623 456.366 355.862 548.851 342.675 545.821 357.109 544.396 371.9 543.861 386.69 483.808 398.63 423.934 412.351 363.881 424.112 327.528 430.884 290.641 412.529 271.396 381.879Z" fill="#537BAC" fill-rule="evenodd" transform="matrix(1.00033 0 0 1 1221.81 335.638)"/><path d="M372.434 435.695C429.814 422.33 487.729 411.282 545.287 398.63 548.851 412.707 553.128 426.607 558.652 440.15 526.576 450.129 494.5 460.108 462.246 469.374 428.567 477.928 394.175 460.821 372.434 435.695Z" fill="#537BAC" fill-rule="evenodd" transform="matrix(1.00033 0 0 1 1221.81 335.638)"/><path d="M466.345 481.848C498.777 470.622 531.922 461.534 564.889 451.554 575.224 466.167 587.342 479.353 601.241 490.758 582.53 498.599 564.532 509.469 544.218 513.033 515.349 514.637 486.303 502.519 466.345 481.848Z" fill="#537BAC" fill-rule="evenodd" transform="matrix(1.00033 0 0 1 1221.81 335.638)"/><path d="M562.216 522.121C579.144 513.568 596.608 506.261 614.071 498.777 651.493 519.804 695.152 513.389 736.137 514.102 760.016 514.28 786.567 510.895 807.06 526.22 836.819 546.356 845.373 584.669 848.58 618.17 840.027 595.539 823.633 575.759 800.645 567.205 743.087 543.148 679.47 557.761 619.239 551.346 597.499 548.316 578.61 536.02 562.216 522.121Z" fill="#537BAC" fill-rule="evenodd" transform="matrix(1.00033 0 0 1 1221.81 335.638)"/><path d="M1125.5 219.006C1144.57 216.333 1163.81 218.649 1182.88 218.649 1359.12 221.857 1535.36 225.421 1711.59 229.341 1702.33 264.268 1674.53 293.136 1639.78 303.472 1615.37 310.778 1589.53 306.323 1564.58 304.541 1451.78 294.74 1338.8 285.474 1226 275.673 1209.43 273.178 1191.08 277.811 1181.28 292.245 1169.87 306.145 1174.51 325.034 1173.97 341.25 1174.68 385.799 1144.21 427.676 1103.05 443.892 1065.45 460.286 1023.21 448.347 984.367 459.93 957.638 465.454 935.185 482.739 921.285 505.905 921.642 457.791 921.463 409.678 921.285 361.564 927.879 385.799 941.6 410.391 966.369 420.013 1003.43 437.12 1051.73 415.024 1062.42 375.464 1073.47 347.843 1052.62 321.113 1056.54 293.314 1059.39 256.606 1089.15 224.352 1125.5 219.006Z" fill="#537BAC" fill-rule="evenodd" transform="matrix(1.00033 0 0 1 1221.81 335.638)"/><path d="M1193.93 293.671C1203.91 289.572 1214.6 286.008 1225.83 287.968 1349.5 298.839 1473.52 308.283 1597.19 319.866 1578.3 349.803 1544.98 373.86 1507.91 369.94 1410.62 356.753 1313.32 342.675 1215.85 329.667 1209.08 317.549 1201.59 305.61 1193.93 293.671Z" fill="#537BAC" fill-rule="evenodd" transform="matrix(1.00033 0 0 1 1221.81 335.638)"/><path d="M1186.09 306.679C1210.32 334.656 1217.63 375.107 1207.47 410.212 1195.53 455.475 1156.86 494.5 1109.46 500.737 1068.83 503.588 1028.03 499.312 987.397 502.697 958.529 506.261 938.214 528.714 921.998 550.811 926.097 523.725 936.789 494.5 962.627 481.314 1007.89 456.188 1062.77 475.611 1109.11 454.762 1145.99 439.437 1175.04 406.114 1183.41 366.91 1188.76 347.308 1185.73 326.816 1186.09 306.679Z" fill="#537BAC" fill-rule="evenodd" transform="matrix(1.00033 0 0 1 1221.81 335.638)"/><path d="M1220.12 342.497C1312.43 356.04 1405.09 367.445 1497.22 381.879 1485.46 397.917 1471.03 412.885 1451.96 419.657 1430.75 428.032 1407.41 425.538 1385.85 420.548 1332.21 408.965 1278.39 397.739 1224.76 386.512 1224.04 371.722 1222.44 357.109 1220.12 342.497Z" fill="#537BAC" fill-rule="evenodd" transform="matrix(1.00033 0 0 1 1221.81 335.638)"/><path d="M1223.33 398.808C1280.89 411.103 1338.63 422.686 1396.01 435.517 1374.44 460.999 1339.87 477.928 1306.37 469.553 1274.12 460.108 1242.04 450.129 1209.97 440.328 1215.31 426.785 1219.77 412.885 1223.33 398.808Z" fill="#537BAC" fill-rule="evenodd" transform="matrix(1.00033 0 0 1 1221.81 335.638)"/><path d="M1167.56 490.402C1181.45 479.175 1193.57 465.989 1203.91 451.376 1236.7 461.534 1269.84 470.622 1302.27 481.67 1281.78 502.876 1251.84 515.528 1222.26 512.498 1202.84 508.578 1185.38 498.421 1167.56 490.402Z" fill="#537BAC" fill-rule="evenodd" transform="matrix(1.00033 0 0 1 1221.81 335.638)"/><path d="M1154.37 498.955C1171.65 506.261 1188.94 513.568 1206.05 521.586 1190.54 536.02 1171.83 547.96 1150.45 551.167 1088.61 558.117 1022.68 542.257 964.053 569.165 942.491 578.075 927.879 597.499 921.107 619.239 922.533 593.222 927.344 566.314 943.025 544.752 955.321 527.823 974.567 515.171 995.95 514.458 1030.88 513.211 1065.8 514.993 1100.73 513.924 1119.26 513.389 1137.44 506.974 1154.37 498.955Z" fill="#537BAC" fill-rule="evenodd" transform="matrix(1.00033 0 0 1 1221.81 335.638)"/><path d="M969.042 1055.65C947.124 1065.63 931.621 1070.44 908.099 1079.35 908.455 1080.06 908.811 1080.77 909.168 1081.49 909.346 1082.02 909.702 1082.55 909.881 1083.09 910.059 1083.45 910.237 1083.62 910.237 1083.98 926.097 1092.53 939.64 1101.44 951.401 1115.52 967.26 1134.41 973.319 1162.03 963.34 1185.02 950.688 1214.6 923.245 1234.56 894.734 1247.39 861.232 1263.43 824.167 1279.29 803.674 1312.25 781.756 1343.97 779.261 1387.45 796.546 1421.84 807.417 1446.08 828.444 1467.82 855.886 1470.85 846.442 1455.88 831.473 1444.83 824.524 1428.08 810.624 1397.79 810.446 1358.94 833.077 1332.75 856.599 1303.34 895.803 1296.57 927.879 1280.71 972.428 1260.22 1013.95 1220.84 1018.94 1169.87 1025 1125.86 1002.72 1082.91 969.042 1055.65Z" fill="#537BAC" fill-rule="evenodd" transform="matrix(1.00033 0 0 1 1221.81 335.638)"/><path d="M1066.34 898.476C1063.67 856.421 1038.72 818.287 1005.39 793.695 975.101 803.14 912.197 818.465 912.197 818.465 938.036 828.8 966.369 839.849 985.437 860.876 1010.21 886.893 1012.52 932.334 987.397 959.063 961.736 987.397 924.849 1001.83 889.388 1013.77 848.937 1027.85 807.595 1046.74 779.974 1080.77 751.106 1115.7 743.978 1167.56 763.936 1208.54 777.657 1236.7 802.071 1258.08 828.622 1274.12 843.591 1263.96 847.689 1261.64 862.836 1250.95 862.302 1249.88 861.767 1248.81 861.232 1247.74 860.876 1247.03 860.52 1246.5 860.341 1245.78 860.163 1245.43 859.985 1244.89 859.807 1244.54 834.859 1230.28 817.217 1209.97 807.595 1181.81 798.507 1155.79 808.842 1126.04 829.157 1108.39 853.926 1086.48 886.002 1075.96 916.83 1066.16 956.747 1053.86 996.128 1035.87 1026.96 1006.82 1055.47 979.021 1070.62 938.036 1066.34 898.476Z" fill="#537BAC" fill-rule="evenodd" transform="matrix(1.00033 0 0 1 1221.81 335.638)"/><path d="M1173.97 612.468C1155.97 589.48 1126.93 579.501 1099.31 573.62 1062.95 567.562 1024.82 567.205 989.179 577.006 966.726 582.708 940.174 604.627 943.382 624.585 943.56 626.011 943.738 627.258 944.095 628.327 946.055 639.554 953.005 649.533 963.162 654.879 966.369 656.661 969.933 657.73 972.963 657.552 1007 658.443 1042.99 650.246 1068.48 626.189 1088.26 607.3 1127.28 613.893 1137.08 640.266 1143.5 658.086 1127.82 672.52 1113.92 680.539 1079.7 700.676 1040.86 711.368 1003.08 722.238 951.401 736.85 898.832 747.007 847.155 761.441 801.18 775.697 753.957 798.507 727.406 840.383 702.101 878.161 696.934 928.77 715.644 970.468 730.435 1006.11 762.154 1031.77 796.012 1048.16 804.209 1045.49 811.159 1040.14 818.643 1036.04 832.186 1027.85 846.62 1021.43 861.411 1015.73 861.054 1015.02 860.698 1014.3 860.341 1013.77 859.985 1013.24 859.629 1012.7 859.272 1011.99 829.691 999.692 798.685 985.437 778.905 958.885 767.144 943.382 764.471 922.889 767.856 904.178 771.064 877.627 791.735 857.668 813.653 844.66 851.431 821.494 895.981 815.257 938.036 804.387 992.743 790.666 1047.63 776.232 1099.31 752.888 1127.46 739.701 1156.33 723.842 1174.15 697.468 1191.61 672.52 1192.15 636.703 1173.97 612.468ZM995.772 597.321C1007.35 591.262 1022.5 585.025 1034.08 595.182 1023.75 605.518 1007 607.122 995.772 597.321Z" fill="#537BAC" fill-rule="evenodd" transform="matrix(1.00033 0 0 1 1221.81 335.638)"/><path d="M945.342 1280.71C931.977 1286.77 918.434 1292.29 904.891 1297.82 905.069 1298.17 905.247 1298.53 905.604 1298.89 906.138 1299.78 906.495 1300.67 907.029 1301.56 923.067 1311.54 938.392 1324.19 946.768 1341.48 960.132 1366.78 956.747 1397.61 945.164 1422.91 937.858 1438.95 923.958 1450.18 913.801 1464.26 951.044 1461.05 973.854 1424.87 982.229 1391.73 992.743 1351.28 975.101 1308.69 945.342 1280.71Z" fill="#537BAC" fill-rule="evenodd" transform="matrix(1.00033 0 0 1 1221.81 335.638)"/><path d="M906.317 1082.38C905.96 1081.66 905.782 1081.13 905.426 1080.42 890.457 1085.41 875.666 1090.75 861.411 1097.7 862.123 1146.35 861.945 1195 862.48 1243.65 862.658 1244 862.658 1244.36 862.836 1244.72 863.193 1245.43 863.371 1245.96 863.727 1246.68 864.262 1247.92 864.975 1248.99 865.509 1250.06 880.478 1242.76 892.061 1237.23 905.247 1230.82 906.495 1182.17 906.673 1133.52 907.208 1084.87L907.208 1084.87C907.029 1084.51 906.851 1084.16 906.673 1083.8 906.851 1083.27 906.495 1082.73 906.317 1082.38Z" fill="#537BAC" fill-rule="evenodd" transform="matrix(1.00033 0 0 1 1221.81 335.638)"/><path d="M865.509 830.76C857.134 831.83 860.52 841.631 859.629 847.333 860.341 900.792 860.341 954.074 860.876 1007.53 861.232 1008.07 861.589 1008.6 861.767 1009.32 862.123 1010.03 863.014 1012.52 863.371 1013.24 878.339 1007.35 893.13 1002.19 908.277 996.841 908.633 938.392 908.811 878.339 909.168 819.89L909.168 819.89C908.99 819.712 908.99 819.534 908.811 819.356 894.377 822.92 879.943 826.662 865.509 830.76Z" fill="#537BAC" fill-rule="evenodd" transform="matrix(1.00033 0 0 1 1221.81 335.638)"/><path d="M903.465 1300.31C903.287 1299.96 902.931 1299.6 902.753 1299.24 889.744 1304.59 876.736 1310.11 863.905 1316.35 865.866 1413.83 866.578 1511.3 872.815 1608.42 874.597 1628.91 874.954 1650.29 883.507 1669.36 888.14 1661.16 891.704 1652.43 892.417 1642.99 896.872 1608.42 897.407 1573.67 899.545 1539.1 901.505 1460.51 904.535 1381.93 904.891 1303.16 904.356 1302.09 904 1301.2 903.465 1300.31Z" fill="#537BAC" fill-rule="evenodd" transform="matrix(1.00033 0 0 1 1221.81 335.638)"/><path d="M815.435 305.254C850.54 300.621 886.537 304.719 921.998 303.294 934.828 304.363 951.757 299.551 960.489 311.847 970.112 323.43 958.707 342.497 944.095 340.715 903.287 340.893 862.48 341.25 821.672 340.537 802.962 340.893 797.972 311.491 815.435 305.254Z" fill="#537BAC" fill-rule="evenodd" transform="matrix(1.00033 0 0 1 1221.81 335.638)"/><path d="M858.916 353.367C875.845 353.367 892.952 353.367 910.059 353.367 910.059 482.205 909.702 611.042 909.524 739.879 892.952 744.156 876.379 748.076 859.807 751.997 858.916 619.239 858.738 486.303 858.916 353.367Z" fill="#537BAC" fill-rule="evenodd" transform="matrix(1.00033 0 0 1 1221.81 335.638)"/><path d="M965.835 215.798C965.835 260.774 929.374 297.235 884.398 297.235 839.422 297.235 802.961 260.774 802.961 215.798 802.961 170.822 839.422 134.362 884.398 134.362 929.374 134.362 965.835 170.822 965.835 215.798Z" fill="#537BAC" fill-rule="evenodd" transform="matrix(1.00033 0 0 1 1221.81 335.638)"/><path d="M671.451 698.894C656.126 691.766 640.088 684.281 628.862 671.273 621.199 662.363 621.199 648.82 627.08 639.019 636.168 625.832 653.275 619.952 668.778 621.199 681.787 622.09 691.766 631.357 701.567 639.019 725.089 658.265 756.63 662.898 786.033 663.432 789.418 663.789 792.982 662.541 796.546 660.759 806.347 655.77 813.297 646.325 815.792 635.633 816.683 631.713 816.861 627.793 816.148 623.872 814.901 617.101 812.406 606.765 807.06 602.31 786.924 582.352 756.808 577.897 729.722 575.759 685.707 573.264 638.306 577.719 601.241 604.092L601.241 604.092C574.333 623.159 566.136 661.828 579.857 691.231 591.44 715.823 613.715 733.464 637.059 746.294 675.372 767.322 717.07 781.4 759.125 792.982 787.102 773.915 824.524 761.798 856.777 751.997 791.2 736.315 729.188 723.842 671.451 698.894ZM762.689 603.201C751.462 613.002 734.712 611.398 724.376 601.063 735.781 590.906 751.106 597.143 762.689 603.201Z" fill="#537BAC" fill-rule="evenodd" transform="matrix(1.00033 0 0 1 1221.81 335.638)"/></g></svg>