<svg width="1883" height="1747" xmlns="http://www.w3.org/2000/svg" xmlns:xlink="http://www.w3.org/1999/xlink" xml:space="preserve" overflow="hidden"><defs><clipPath id="clip0"><rect x="1354" y="328" width="1883" height="1747"/></clipPath></defs><g clip-path="url(#clip0)" transform="translate(-1354 -328)"><path d="M2295.5 1912.66C1904.36 1912.66 1584.34 1592.64 1584.34 1201.5 1584.34 810.363 1904.36 490.342 2295.5 490.342 2686.64 490.342 3006.66 810.363 3006.66 1201.5 3006.66 1592.64 2686.64 1912.66 2295.5 1912.66ZM2295.5 357C1828.8 357 1451 734.803 1451 1201.5 1451 1668.2 1828.8 2046 2295.5 2046 2762.2 2046 3140 1668.2 3140 1201.5 3140 734.803 2762.2 357 2295.5 357Z" fill="#000000" fill-rule="evenodd" fill-opacity="0.25098"/><path d="M2339.91 757 2251 757 2251 1201.51C2251 1214.84 2255.45 1225.96 2264.34 1232.62L2577.76 1546 2640 1483.77 2339.91 1183.73 2339.91 757Z" fill="#000000" fill-rule="evenodd" fill-opacity="0.25098"/><path d="M2340 623.5C2340 648.077 2320.08 668 2295.5 668 2270.92 668 2251 648.077 2251 623.5 2251 598.923 2270.92 579 2295.5 579 2320.08 579 2340 598.923 2340 623.5Z" fill="#000000" fill-rule="evenodd" fill-opacity="0.25098"/><path d="M2340 1779.5C2340 1804.08 2320.08 1824 2295.5 1824 2270.92 1824 2251 1804.08 2251 1779.5 2251 1754.92 2270.92 1735 2295.5 1735 2320.08 1735 2340 1754.92 2340 1779.5Z" fill="#000000" fill-rule="evenodd" fill-opacity="0.25098"/><path d="M1762 1201.5C1762 1226.08 1742.08 1246 1717.5 1246 1692.92 1246 1673 1226.08 1673 1201.5 1673 1176.92 1692.92 1157 1717.5 1157 1742.08 1157 1762 1176.92 1762 1201.5Z" fill="#000000" fill-rule="evenodd" fill-opacity="0.25098"/><path d="M2918 1201.5C2918 1226.08 2898.08 1246 2873.5 1246 2848.92 1246 2829 1226.08 2829 1201.5 2829 1176.92 2848.92 1157 2873.5 1157 2898.08 1157 2918 1176.92 2918 1201.5Z" fill="#000000" fill-rule="evenodd" fill-opacity="0.25098"/><path d="M65.1018 247.833C281.499 247.427 497.694 247.63 714.092 247.833 771.487 245.197 821.986 303.2 809.412 359.581 801.503 386.149 794.607 415.962 809.615 441.516 830.302 484.309 891.347 498.1 928.664 469.098 949.959 454.901 959.288 429.956 963.344 405.822 965.981 462.203 964.156 518.786 964.359 575.37 948.539 551.439 926.028 531.361 897.431 524.668 852.408 509.66 803.125 524.059 758.913 505.807 717.945 489.987 685.901 452.468 678.397 409.066 674.341 391.016 677.789 372.561 676.978 354.511 674.95 329.565 649.801 310.095 625.058 313.34 495.26 323.887 365.462 335.244 235.462 346.196 205.852 348.224 174.619 354.714 146.226 343.356 106.069 326.726 76.0535 289.612 65.1018 247.833Z" fill="#537BAC" fill-rule="evenodd" transform="matrix(1.00003 0 0 1 1288.93 175.082)"/><path d="M195.103 364.043C336.866 351.266 478.833 339.909 620.597 327.74 632.157 325.509 643.108 330.174 653.452 334.838 644.934 347.818 636.821 361.203 629.723 374.994 529.535 389.191 429.145 402.779 328.957 416.976 307.662 419.815 285.556 424.683 264.261 418.396 234.65 411.095 211.53 388.988 195.103 364.043Z" fill="#537BAC" fill-rule="evenodd" transform="matrix(1.00003 0 0 1 1288.93 175.082)"/><path d="M633.779 428.131C634.185 399.534 643.717 370.533 662.984 349.035 663.592 370.33 660.753 392.03 664.809 413.123 673.124 458.755 705.979 498.505 748.569 516.758 801.3 541.501 863.968 518.989 915.887 546.977 946.106 562.188 959.491 596.057 963.142 627.695 945.7 600.721 920.552 575.573 887.088 571.72 840.848 568.475 794.404 573.139 748.164 569.489 681.845 559.754 631.751 494.246 633.779 428.131Z" fill="#537BAC" fill-rule="evenodd" transform="matrix(1.00003 0 0 1 1288.93 175.082)"/><path d="M308.879 434.62C413.934 418.396 519.395 405.01 624.653 390.002 621.205 406.43 619.583 423.263 618.974 440.096 550.627 453.685 482.483 469.301 414.137 482.686 372.764 490.393 330.782 469.504 308.879 434.62Z" fill="#537BAC" fill-rule="evenodd" transform="matrix(1.00003 0 0 1 1288.93 175.082)"/><path d="M423.872 495.869C489.176 480.658 555.089 468.084 620.597 453.685 624.653 469.706 629.52 485.526 635.807 500.939 599.302 512.296 562.796 523.654 526.087 534.2 487.757 543.935 448.614 524.465 423.872 495.869Z" fill="#537BAC" fill-rule="evenodd" transform="matrix(1.00003 0 0 1 1288.93 175.082)"/><path d="M530.752 548.396C567.663 535.62 605.386 525.276 642.906 513.919 654.669 530.549 668.46 545.557 684.279 558.537 662.984 567.461 642.5 579.832 619.38 583.888 586.525 585.713 553.467 571.922 530.752 548.396Z" fill="#537BAC" fill-rule="evenodd" transform="matrix(1.00003 0 0 1 1288.93 175.082)"/><path d="M639.864 594.231C659.13 584.497 679.006 576.181 698.881 567.663 741.471 591.595 791.159 584.294 837.805 585.105 864.982 585.308 895.201 581.454 918.524 598.896 952.393 621.813 962.128 665.418 965.778 703.546 956.043 677.789 937.385 655.277 911.222 645.542 845.715 618.163 773.312 634.793 704.763 627.492 680.02 624.044 658.522 610.051 639.864 594.231Z" fill="#537BAC" fill-rule="evenodd" transform="matrix(1.00003 0 0 1 1288.93 175.082)"/><path d="M1280.94 249.253C1302.64 246.211 1324.55 248.847 1346.25 248.847 1546.83 252.498 1747.41 256.554 1947.98 261.016 1937.44 300.766 1905.8 333.621 1866.25 345.384 1838.47 353.699 1809.06 348.629 1780.67 346.601 1652.29 335.447 1523.71 324.901 1395.33 313.746 1376.47 310.907 1355.58 316.18 1344.42 332.607 1331.44 348.426 1336.72 369.924 1336.11 388.38 1336.92 439.082 1302.24 486.742 1255.39 505.198 1212.6 523.857 1164.53 510.268 1120.32 523.451 1089.9 529.738 1064.34 549.411 1048.52 575.776 1048.93 521.017 1048.73 466.259 1048.52 411.5 1056.03 439.082 1071.64 467.07 1099.84 478.022 1142.02 497.491 1196.98 472.343 1209.15 427.319 1221.72 395.884 1197.99 365.462 1202.46 333.824 1205.7 292.045 1239.57 255.337 1280.94 249.253Z" fill="#537BAC" fill-rule="evenodd" transform="matrix(1.00003 0 0 1 1288.93 175.082)"/><path d="M1358.82 334.23C1370.18 329.565 1382.35 325.509 1395.13 327.74 1535.88 340.111 1677.03 350.86 1817.78 364.043 1796.28 398.115 1758.36 425.494 1716.17 421.032 1605.44 406.024 1494.7 390.002 1383.77 375.197 1376.06 361.406 1367.54 347.818 1358.82 334.23Z" fill="#537BAC" fill-rule="evenodd" transform="matrix(1.00003 0 0 1 1288.93 175.082)"/><path d="M1349.9 349.035C1377.48 380.876 1385.8 426.914 1374.24 466.867 1360.65 518.381 1316.64 562.796 1262.69 569.894 1216.45 573.139 1170.01 568.272 1123.77 572.125 1090.91 576.181 1067.79 601.735 1049.34 626.884 1054 596.057 1066.17 562.796 1095.58 547.788 1147.09 519.192 1209.56 541.298 1262.29 517.569 1304.27 500.128 1337.32 462.203 1346.86 417.584 1352.94 395.275 1349.49 371.952 1349.9 349.035Z" fill="#537BAC" fill-rule="evenodd" transform="matrix(1.00003 0 0 1 1288.93 175.082)"/><path d="M1388.64 389.8C1493.69 405.213 1599.15 418.193 1704 434.62 1690.62 452.873 1674.19 469.909 1652.49 477.616 1628.36 487.148 1601.79 484.309 1577.25 478.63 1516.2 465.447 1454.95 452.67 1393.91 439.893 1393.1 423.06 1391.27 406.43 1388.64 389.8Z" fill="#537BAC" fill-rule="evenodd" transform="matrix(1.00003 0 0 1 1288.93 175.082)"/><path d="M1392.29 453.887C1457.79 467.881 1523.5 481.064 1588.81 495.666 1564.27 524.668 1524.92 543.935 1486.8 534.403 1450.09 523.654 1413.58 512.296 1377.08 501.142 1383.16 485.728 1388.23 469.909 1392.29 453.887Z" fill="#537BAC" fill-rule="evenodd" transform="matrix(1.00003 0 0 1 1288.93 175.082)"/><path d="M1328.81 558.131C1344.63 545.354 1358.42 530.346 1370.18 513.716 1407.5 525.276 1445.22 535.62 1482.13 548.194 1458.81 572.328 1424.74 586.727 1391.07 583.28 1368.96 578.818 1349.09 567.258 1328.81 558.131Z" fill="#537BAC" fill-rule="evenodd" transform="matrix(1.00003 0 0 1 1288.93 175.082)"/><path d="M1313.8 567.866C1333.47 576.181 1353.14 584.497 1372.61 593.623 1354.97 610.051 1333.67 623.639 1309.34 627.289 1238.96 635.199 1163.92 617.149 1097.2 647.773 1072.66 657.914 1056.03 680.02 1048.32 704.763 1049.94 675.152 1055.42 644.528 1073.27 619.988 1087.26 600.721 1109.16 586.322 1133.5 585.511 1173.25 584.091 1213 586.119 1252.75 584.902 1273.85 584.294 1294.53 576.993 1313.8 567.866Z" fill="#537BAC" fill-rule="evenodd" transform="matrix(1.00003 0 0 1 1288.93 175.082)"/><path d="M1102.88 1201.44C1077.93 1212.8 1060.29 1218.28 1033.52 1228.42 1033.92 1229.23 1034.33 1230.04 1034.73 1230.85 1034.94 1231.46 1035.34 1232.07 1035.54 1232.68 1035.75 1233.08 1035.95 1233.28 1035.95 1233.69 1054 1243.42 1069.41 1253.56 1082.8 1269.59 1100.85 1291.08 1107.74 1322.52 1096.39 1348.68 1081.99 1382.35 1050.76 1405.06 1018.31 1419.67 980.178 1437.92 937.993 1455.97 914.67 1493.49 889.725 1529.59 886.885 1579.07 906.558 1618.22 918.929 1645.8 942.861 1670.54 974.093 1673.99 963.344 1656.95 946.308 1644.38 938.399 1625.31 922.58 1590.84 922.377 1546.62 948.134 1516.81 974.905 1483.35 1019.52 1475.64 1056.03 1457.59 1106.73 1434.27 1153.99 1389.45 1159.66 1331.44 1166.56 1281.35 1141.21 1232.47 1102.88 1201.44Z" fill="#537BAC" fill-rule="evenodd" transform="matrix(1.00003 0 0 1 1288.93 175.082)"/><path d="M1213.61 1022.56C1210.57 974.702 1182.18 931.301 1144.25 903.313 1109.77 914.062 1038.18 931.503 1038.18 931.503 1067.59 943.266 1099.84 955.84 1121.54 979.772 1149.73 1009.38 1152.36 1061.1 1123.77 1091.52 1094.56 1123.77 1052.58 1140.19 1012.22 1153.78 966.184 1169.8 919.132 1191.3 887.697 1230.04 854.841 1269.79 846.729 1328.81 869.444 1375.45 885.06 1407.5 912.845 1431.83 943.064 1450.09 960.099 1438.53 964.764 1435.89 982.003 1423.72 981.394 1422.5 980.786 1421.29 980.178 1420.07 979.772 1419.26 979.366 1418.65 979.164 1417.84 978.961 1417.43 978.758 1416.83 978.555 1416.42 950.162 1400.2 930.084 1377.08 919.132 1345.03 908.789 1315.42 920.552 1281.55 943.672 1261.47 971.862 1236.53 1008.37 1224.56 1043.45 1213.41 1088.88 1199.41 1133.7 1178.93 1168.79 1145.87 1201.24 1114.23 1218.48 1067.59 1213.61 1022.56Z" fill="#537BAC" fill-rule="evenodd" transform="matrix(1.00003 0 0 1 1288.93 175.082)"/><path d="M1336.11 697.056C1315.62 670.893 1282.57 659.536 1251.13 652.843 1209.76 645.948 1166.36 645.542 1125.79 656.697 1100.24 663.187 1070.02 688.132 1073.67 710.847 1073.88 712.469 1074.08 713.889 1074.48 715.106 1076.71 727.883 1084.62 739.24 1096.18 745.324 1099.84 747.352 1103.89 748.569 1107.34 748.367 1146.08 749.381 1187.04 740.051 1216.04 712.672 1238.56 691.174 1282.97 698.678 1294.13 728.694 1301.43 748.975 1283.58 765.403 1267.76 774.529 1228.82 797.446 1184.61 809.615 1141.61 821.986 1082.8 838.617 1022.97 850.177 964.156 866.604 911.831 882.829 858.086 908.789 827.868 956.449 799.069 999.445 793.187 1057.04 814.482 1104.5 831.316 1145.06 867.416 1174.27 905.949 1192.92 915.279 1189.88 923.188 1183.8 931.706 1179.13 947.12 1169.8 963.547 1162.5 980.38 1156.01 979.975 1155.2 979.569 1154.39 979.164 1153.78 978.758 1153.17 978.352 1152.57 977.947 1151.75 944.28 1137.76 908.992 1121.54 886.48 1091.32 873.094 1073.67 870.052 1050.35 873.906 1029.05 877.556 998.836 901.082 976.121 926.028 961.316 969.023 934.951 1019.73 927.853 1067.59 915.481 1129.85 899.865 1192.32 883.438 1251.13 856.87 1283.17 841.862 1316.03 823.812 1336.31 793.796 1356.19 765.403 1356.79 724.638 1336.11 697.056ZM1133.3 679.817C1146.48 672.921 1163.72 665.823 1176.9 677.383 1165.14 689.146 1146.08 690.971 1133.3 679.817Z" fill="#537BAC" fill-rule="evenodd" transform="matrix(1.00003 0 0 1 1288.93 175.082)"/><path d="M1075.9 1457.59C1060.69 1464.49 1045.28 1470.77 1029.87 1477.06 1030.07 1477.47 1030.27 1477.87 1030.68 1478.28 1031.29 1479.29 1031.69 1480.31 1032.3 1481.32 1050.55 1492.68 1067.99 1507.08 1077.53 1526.75 1092.74 1555.55 1088.88 1590.63 1075.7 1619.43 1067.39 1637.69 1051.57 1650.46 1040.01 1666.48 1082.39 1662.83 1108.35 1621.66 1117.89 1583.94 1129.85 1537.9 1109.77 1489.43 1075.9 1457.59Z" fill="#537BAC" fill-rule="evenodd" transform="matrix(1.00003 0 0 1 1288.93 175.082)"/><path d="M1031.49 1231.86C1031.08 1231.05 1030.88 1230.44 1030.47 1229.63 1013.44 1235.31 996.605 1241.4 980.38 1249.31 981.192 1304.67 980.989 1360.04 981.597 1415.41 981.8 1415.81 981.8 1416.22 982.003 1416.62 982.409 1417.43 982.611 1418.04 983.017 1418.85 983.625 1420.27 984.437 1421.49 985.045 1422.71 1002.08 1414.39 1015.26 1408.11 1030.27 1400.8 1031.69 1345.44 1031.89 1290.07 1032.5 1234.7L1032.5 1234.7C1032.3 1234.3 1032.1 1233.89 1031.89 1233.49 1032.1 1232.88 1031.69 1232.27 1031.49 1231.86Z" fill="#537BAC" fill-rule="evenodd" transform="matrix(1.00003 0 0 1 1288.93 175.082)"/><path d="M985.045 945.497C975.513 946.714 979.366 957.869 978.352 964.359 979.164 1025.2 979.164 1085.84 979.772 1146.68 980.178 1147.29 980.583 1147.9 980.786 1148.71 981.192 1149.52 982.206 1152.36 982.611 1153.17 999.647 1146.48 1016.48 1140.6 1033.72 1134.52 1034.12 1067.99 1034.33 999.647 1034.73 933.126L1034.73 933.126C1034.53 932.923 1034.53 932.72 1034.33 932.517 1017.9 936.574 1001.47 940.833 985.045 945.497Z" fill="#537BAC" fill-rule="evenodd" transform="matrix(1.00003 0 0 1 1288.93 175.082)"/><path d="M1028.24 1479.9C1028.04 1479.49 1027.64 1479.09 1027.43 1478.68 1012.63 1484.77 997.822 1491.05 983.22 1498.15 985.451 1609.09 986.262 1720.03 993.36 1830.56 995.388 1853.88 995.794 1878.22 1005.53 1899.92 1010.8 1890.59 1014.86 1880.65 1015.67 1869.9 1020.74 1830.56 1021.35 1791.01 1023.78 1751.66 1026.01 1662.23 1029.46 1572.79 1029.87 1483.14 1029.26 1481.93 1028.85 1480.91 1028.24 1479.9Z" fill="#537BAC" fill-rule="evenodd" transform="matrix(1.00003 0 0 1 1288.93 175.082)"/><path d="M928.056 347.412C968.009 342.139 1008.98 346.804 1049.34 345.182 1063.94 346.398 1083.2 340.923 1093.14 354.916 1104.09 368.099 1091.11 389.8 1074.48 387.771 1028.04 387.974 981.597 388.38 935.154 387.569 913.859 387.974 908.18 354.511 928.056 347.412Z" fill="#537BAC" fill-rule="evenodd" transform="matrix(1.00003 0 0 1 1288.93 175.082)"/><path d="M977.541 402.171C996.808 402.171 1016.28 402.171 1035.75 402.171 1035.75 548.802 1035.34 695.433 1035.14 842.064 1016.28 846.932 997.416 851.394 978.555 855.855 977.541 704.763 977.338 553.467 977.541 402.171Z" fill="#537BAC" fill-rule="evenodd" transform="matrix(1.00003 0 0 1 1288.93 175.082)"/><path d="M1099.23 245.602C1099.23 296.79 1057.73 338.286 1006.54 338.286 955.355 338.286 913.859 296.79 913.859 245.602 913.859 194.414 955.355 152.918 1006.54 152.918 1057.73 152.918 1099.23 194.414 1099.23 245.602Z" fill="#537BAC" fill-rule="evenodd" transform="matrix(1.00003 0 0 1 1288.93 175.082)"/><path d="M764.186 795.418C746.744 787.306 728.491 778.788 715.714 763.983 706.993 753.842 706.993 738.429 713.686 727.274 724.029 712.266 743.499 705.574 761.143 706.993 775.949 708.008 787.306 718.554 798.46 727.274 825.231 749.178 861.129 754.451 894.592 755.059 898.445 755.465 902.502 754.045 906.558 752.017 917.712 746.338 925.622 735.59 928.461 723.421 929.475 718.959 929.678 714.497 928.867 710.036 927.447 702.329 924.608 690.566 918.524 685.496 895.606 662.781 861.331 657.711 830.504 655.277 780.41 652.438 726.463 657.508 684.279 687.524L684.279 687.524C653.655 709.224 644.325 753.234 659.942 786.698 673.124 814.685 698.475 834.763 725.043 849.366 768.647 873.297 816.105 889.319 863.968 902.502 895.809 880.801 938.399 867.01 975.107 855.855 900.474 838.008 829.896 823.812 764.186 795.418ZM868.024 686.51C855.247 697.664 836.183 695.839 824.42 684.076 837.4 672.516 854.841 679.614 868.024 686.51Z" fill="#537BAC" fill-rule="evenodd" transform="matrix(1.00003 0 0 1 1288.93 175.082)"/></g></svg>