<svg width="1688" height="1751" xmlns="http://www.w3.org/2000/svg" xmlns:xlink="http://www.w3.org/1999/xlink" xml:space="preserve" overflow="hidden"><defs><clipPath id="clip0"><rect x="1356" y="362" width="1688" height="1751"/></clipPath></defs><g clip-path="url(#clip0)" transform="translate(-1356 -362)"><path d="M2200 1979.66C1809.09 1979.66 1489.26 1659.64 1489.26 1268.5 1489.26 877.363 1809.09 557.342 2200 557.342 2590.91 557.342 2910.74 877.363 2910.74 1268.5 2910.74 1659.64 2590.91 1979.66 2200 1979.66ZM2200 424C1733.58 424 1356 801.802 1356 1268.5 1356 1735.2 1733.58 2113 2200 2113 2666.42 2113 3044 1735.2 3044 1268.5 3044 801.802 2666.42 424 2200 424Z" fill="#000000" fill-rule="evenodd" fill-opacity="0.4"/><path d="M2244.69 824 2156 824 2156 1268.51C2156 1281.84 2160.43 1292.96 2169.3 1299.62L2481.92 1613 2544 1550.77 2244.69 1250.73 2244.69 824Z" fill="#000000" fill-rule="evenodd" fill-opacity="0.4"/><path d="M2244 690.5C2244 715.077 2224.3 735 2200 735 2175.7 735 2156 715.077 2156 690.5 2156 665.923 2175.7 646 2200 646 2224.3 646 2244 665.923 2244 690.5Z" fill="#000000" fill-rule="evenodd" fill-opacity="0.4"/><path d="M2244 1845.5C2244 1870.08 2224.3 1890 2200 1890 2175.7 1890 2156 1870.08 2156 1845.5 2156 1820.92 2175.7 1801 2200 1801 2224.3 1801 2244 1820.92 2244 1845.5Z" fill="#000000" fill-rule="evenodd" fill-opacity="0.4"/><path d="M1667 1268.5C1667 1293.08 1647.08 1313 1622.5 1313 1597.92 1313 1578 1293.08 1578 1268.5 1578 1243.92 1597.92 1224 1622.5 1224 1647.08 1224 1667 1243.92 1667 1268.5Z" fill="#000000" fill-rule="evenodd" fill-opacity="0.4"/><path d="M2822 1268.5C2822 1293.08 2802.08 1313 2777.5 1313 2752.92 1313 2733 1293.08 2733 1268.5 2733 1243.92 2752.92 1224 2777.5 1224 2802.08 1224 2822 1243.92 2822 1268.5Z" fill="#000000" fill-rule="evenodd" fill-opacity="0.4"/><g><g><g><path d="M1251.29 1473.05C1251.29 1296.76 1251.51 1224.64 1251.77 1312.78 1252.04 1400.93 1252.04 1545.17 1251.77 1633.31 1251.51 1721.46 1251.29 1649.34 1251.29 1473.05ZM339.142 1789.42C361.75 1789.13 398.745 1789.13 421.352 1789.42 443.96 1789.72 425.463 1789.96 380.247 1789.96 335.031 1789.96 316.534 1789.72 339.142 1789.42ZM748.032 1782.34C748.12 1780.19 748.558 1779.75 749.148 1781.22 749.681 1782.56 749.616 1784.15 749.002 1784.76 748.388 1785.38 747.951 1784.29 748.031 1782.34ZM1451.77 1774.65 1619.9 1774.16 1619.42 1485.14C1619.16 1326.18 1619.58 1196.75 1620.34 1197.51 1621.11 1198.28 1621.52 1328.55 1621.26 1487L1620.8 1775.1 1452.22 1775.12 1283.64 1775.14ZM902.123 1661.03 902.146 1555.26 928.934 1555.18 955.722 1555.1 929.411 1555.69 903.1 1556.28 902.6 1661.54 902.1 1766.79ZM227.645 1726.15C227.645 1711.41 227.932 1705.39 228.282 1712.75 228.633 1720.12 228.633 1732.17 228.282 1739.54 227.932 1746.91 227.645 1740.88 227.645 1726.15ZM1362.11 1590.36C1362.11 1518.22 1362.34 1488.44 1362.62 1524.18 1362.9 1559.92 1362.9 1618.95 1362.62 1655.35 1362.34 1691.75 1362.11 1662.5 1362.11 1590.36ZM320.802 1711.83C354.661 1711.55 409.529 1711.55 442.732 1711.83 475.935 1712.11 448.233 1712.34 381.171 1712.34 314.109 1712.34 286.943 1712.11 320.802 1711.83ZM227.809 1435.18C227.809 1292.92 228.028 1235 228.296 1306.46 228.564 1377.92 228.564 1494.31 228.296 1565.1 228.028 1635.9 227.809 1577.43 227.809 1435.18ZM404.41 1566.19C404.498 1564.04 404.936 1563.6 405.526 1565.07 406.059 1566.41 405.994 1568 405.38 1568.61 404.766 1569.23 404.329 1568.14 404.41 1566.19ZM816.269 1557.57C816.246 1554.62 818.606 1554.37 843.49 1554.74L870.74 1555.15 844.951 1555.72C827.216 1556.11 818.715 1557 817.73 1558.55 816.736 1560.11 816.289 1559.81 816.269 1557.57ZM987.801 1555.69C988.581 1554.91 1013.27 1554.5 1042.67 1554.77L1096.13 1555.26 1041.26 1556.18C1011.08 1556.69 987.022 1556.47 987.801 1555.69ZM704.009 1554.8C718.997 1554.49 743.521 1554.49 758.509 1554.8 773.496 1555.11 761.233 1555.37 731.259 1555.37 701.284 1555.37 689.022 1555.11 704.009 1554.8ZM318.82 1549.26C332.283 1548.94 354.314 1548.94 367.777 1549.26 381.24 1549.58 370.225 1549.83 343.299 1549.83 316.372 1549.83 305.357 1549.58 318.82 1549.26ZM798.684 1082.78 798.69 642.629 805.634 642.435 812.578 642.242 806.1 643.008 799.621 643.775 799.15 1083.35 798.679 1522.93ZM1005.59 1074C1005.59 826.587 1005.8 725.371 1006.06 849.079 1006.33 972.788 1006.33 1175.22 1006.06 1298.93 1005.8 1422.64 1005.59 1321.42 1005.59 1074ZM318.82 1503.07C332.283 1502.76 354.314 1502.76 367.777 1503.07 381.24 1503.39 370.225 1503.65 343.299 1503.65 316.372 1503.65 305.357 1503.39 318.82 1503.07ZM404.41 1486.75C404.498 1484.6 404.936 1484.16 405.526 1485.63 406.059 1486.97 405.994 1488.56 405.38 1489.18 404.766 1489.79 404.329 1488.7 404.41 1486.75ZM830.079 1091.55C830.079 879.192 830.295 792.043 830.558 897.889 830.822 1003.73 830.822 1177.49 830.558 1284 830.295 1390.52 830.079 1303.92 830.079 1091.55ZM404.41 1409.16C404.498 1407.01 404.936 1406.57 405.526 1408.04 406.059 1409.38 405.994 1410.97 405.38 1411.58 404.766 1412.2 404.329 1411.11 404.41 1409.16ZM318.82 1392.23C332.283 1391.91 354.314 1391.91 367.777 1392.23 381.24 1392.54 370.225 1392.8 343.299 1392.8 316.372 1392.8 305.357 1392.54 318.82 1392.23ZM925.701 1392.23C934.592 1391.89 949.14 1391.89 958.031 1392.23 966.922 1392.57 959.647 1392.85 941.866 1392.85 924.084 1392.85 916.81 1392.57 925.701 1392.23ZM1362 1325.25C1362 1306.46 1362.27 1298.77 1362.61 1308.17 1362.94 1317.56 1362.94 1332.94 1362.61 1342.34 1362.27 1351.74 1362 1344.05 1362 1325.25ZM318.82 1346.04C332.283 1345.73 354.314 1345.73 367.777 1346.04 381.24 1346.36 370.225 1346.62 343.299 1346.62 316.372 1346.62 305.357 1346.36 318.82 1346.04ZM404.41 1329.72C404.498 1327.57 404.936 1327.13 405.526 1328.6 406.059 1329.94 405.994 1331.53 405.38 1332.14 404.766 1332.76 404.329 1331.67 404.41 1329.72ZM925.701 1314.64C934.592 1314.3 949.14 1314.3 958.031 1314.64 966.922 1314.98 959.647 1315.26 941.866 1315.26 924.084 1315.26 916.81 1314.98 925.701 1314.64ZM404.41 1252.13C404.498 1249.97 404.936 1249.54 405.526 1251.01 406.059 1252.34 405.994 1253.94 405.38 1254.55 404.766 1255.17 404.329 1254.07 404.41 1252.13ZM925.701 1237.05C934.592 1236.71 949.14 1236.71 958.031 1237.05 966.922 1237.39 959.647 1237.67 941.866 1237.67 924.084 1237.67 916.81 1237.39 925.701 1237.05ZM318.82 1235.2C332.283 1234.88 354.314 1234.88 367.777 1235.2 381.24 1235.51 370.225 1235.77 343.299 1235.77 316.372 1235.77 305.357 1235.51 318.82 1235.2ZM1371.97 1166.96C1373.3 1166.43 1374.9 1166.49 1375.51 1167.11 1376.13 1167.72 1375.03 1168.16 1373.09 1168.08 1370.93 1167.99 1370.5 1167.55 1371.97 1166.96ZM1395.99 1166.96C1397.32 1166.43 1398.91 1166.49 1399.53 1167.11 1400.14 1167.72 1399.05 1168.16 1397.1 1168.08 1394.95 1167.99 1394.51 1167.55 1395.99 1166.96ZM1512.26 1166.89C1515.56 1166.48 1520.97 1166.48 1524.27 1166.89 1527.57 1167.3 1524.87 1167.63 1518.26 1167.63 1511.66 1167.63 1508.96 1167.3 1512.26 1166.89ZM1619.42 1123.42C1620.3 1046.66 1620.92 1039.66 1621.32 1102.18 1621.54 1136.47 1621.1 1164.53 1620.33 1164.53 1619.57 1164.53 1619.16 1146.03 1619.42 1123.42ZM1251.21 1093.4C1251.2 1062.92 1251.46 1050.19 1251.77 1065.11 1252.08 1080.04 1252.08 1104.98 1251.77 1120.54 1251.46 1136.1 1251.21 1123.88 1251.21 1093.4ZM1536.39 1135.55C1537.73 1135.02 1539.32 1135.09 1539.93 1135.7 1540.55 1136.31 1539.46 1136.75 1537.51 1136.67 1535.36 1136.58 1534.92 1136.14 1536.39 1135.55ZM1360.11 1037.06C1360.11 1023.34 1360.4 1017.73 1360.76 1024.59 1361.11 1031.44 1361.11 1042.67 1360.76 1049.53 1360.4 1056.38 1360.11 1050.77 1360.11 1037.06ZM467.825 1043.98 464.305 1039.83 468.462 1043.35C472.368 1046.65 473.46 1048.14 471.981 1048.14 471.631 1048.14 469.76 1046.27 467.825 1043.98ZM1511.57 1028.74C1511.57 1017.56 1511.87 1013.23 1512.24 1019.11 1512.61 1024.99 1512.61 1034.13 1512.24 1039.43 1511.86 1044.73 1511.56 1039.92 1511.57 1028.74ZM421.182 1014.89C421.182 1012.35 421.602 1011.31 422.114 1012.58 422.627 1013.85 422.627 1015.93 422.114 1017.2 421.602 1018.47 421.182 1017.43 421.182 1014.89ZM339.895 1005.65C339.895 1003.11 340.315 1002.07 340.827 1003.34 341.34 1004.61 341.34 1006.69 340.827 1007.96 340.315 1009.23 339.895 1008.19 339.895 1005.65ZM1329.83 993.641C1332.21 991.1 1334.58 989.022 1335.09 989.022 1335.6 989.022 1334.06 991.1 1331.67 993.641 1329.29 996.181 1326.92 998.259 1326.41 998.259 1325.9 998.259 1327.44 996.181 1329.83 993.641ZM925.701 958.088C934.592 957.749 949.14 957.749 958.031 958.088 966.922 958.427 959.647 958.703 941.866 958.703 924.084 958.703 916.81 958.426 925.701 958.088ZM1319.05 938.729 1318.74 930.003 1291.49 929.438 1264.24 928.874 1291.55 928.465C1321.85 928.012 1321.39 927.82 1320.1 940.332 1319.4 947.137 1319.35 947.065 1319.05 938.729ZM1451.76 929.904 1367.7 928.924 1452.22 928.49C1507.62 928.206 1536.74 928.693 1536.74 929.904 1536.74 930.92 1536.53 931.557 1536.28 931.318 1536.02 931.08 1497.99 930.443 1451.76 929.904ZM1598.25 928.53C1606.17 928.183 1618.64 928.184 1625.96 928.534 1633.28 928.884 1626.8 929.168 1611.56 929.165 1596.32 929.163 1590.33 928.877 1598.25 928.53ZM1251.21 856.931C1251.21 824.416 1251.46 811.375 1251.77 827.95 1252.08 844.526 1252.08 871.128 1251.77 887.068 1251.46 903.007 1251.21 889.446 1251.21 856.931ZM1620.66 856.931C1620.66 834.577 1620.93 825.686 1621.25 837.173 1621.58 848.661 1621.58 866.95 1621.25 877.817 1620.92 888.683 1620.66 879.285 1620.66 856.931ZM268.108 880.024C268.108 874.435 268.454 872.149 268.877 874.943 269.3 877.738 269.3 882.31 268.877 885.104 268.454 887.898 268.108 885.612 268.108 880.024ZM925.701 880.495C934.592 880.156 949.14 880.156 958.031 880.495 966.922 880.834 959.647 881.111 941.866 881.111 924.084 881.111 916.81 880.834 925.701 880.495ZM459.833 869.709C459.921 867.557 460.359 867.119 460.949 868.593 461.482 869.926 461.417 871.52 460.803 872.133 460.189 872.747 459.752 871.656 459.833 869.709ZM851.804 642.17C870.855 641.869 902.031 641.869 921.082 642.17 940.134 642.47 924.546 642.716 886.443 642.716 848.34 642.716 832.752 642.47 851.804 642.17ZM961.726 642.249C964.012 641.808 967.753 641.808 970.039 642.249 972.325 642.689 970.455 643.049 965.883 643.049 961.31 643.049 959.44 642.689 961.726 642.249ZM798.49 586.282C798.49 572.565 798.781 566.953 799.136 573.812 799.492 580.671 799.492 591.894 799.136 598.752 798.781 605.611 798.49 599.999 798.49 586.282ZM814.855 548.06C816.633 547.595 819.543 547.595 821.321 548.06 823.099 548.525 821.644 548.905 818.088 548.905 814.532 548.905 813.077 548.525 814.855 548.06ZM856.912 546.101C856.93 543.855 857.379 543.557 858.375 545.125 859.373 546.695 868.226 547.556 887.444 547.95L915.078 548.517 885.981 548.925C859.336 549.299 856.887 549.061 856.912 546.101ZM949.718 548.06C951.496 547.595 954.405 547.595 956.184 548.06 957.962 548.525 956.507 548.905 952.951 548.905 949.394 548.905 947.939 548.525 949.718 548.06ZM863.812 370.757C865.082 370.244 867.16 370.244 868.431 370.757 869.701 371.269 868.662 371.689 866.121 371.689 863.581 371.689 862.542 371.269 863.812 370.757ZM902.072 369.671C901.587 368.401 901.411 309.583 901.681 238.965L902.172 110.569 902.621 240.215C903.042 361.917 903.268 369.914 906.303 370.707 909.333 371.499 909.329 371.565 906.245 371.766 904.435 371.884 902.557 370.941 902.072 369.671Z" fill="#B9C9DC" transform="matrix(1 0 0 1.00079 1304.45 264.987)"/><path d="M227.202 1696.59C227.202 1694.05 227.621 1693.01 228.134 1694.28 228.646 1695.55 228.646 1697.63 228.134 1698.9 227.621 1700.17 227.202 1699.13 227.202 1696.59ZM1250.53 1150.52C1250.62 1148.37 1251.06 1147.93 1251.65 1149.4 1252.18 1150.74 1252.12 1152.33 1251.5 1152.94 1250.89 1153.56 1250.45 1152.47 1250.53 1150.52ZM298.96 1082.66C298.96 1082.34 301.662 1079.64 304.964 1076.66L310.969 1071.23 305.542 1077.24C300.485 1082.83 298.96 1084.09 298.96 1082.66ZM1359.53 1063.69C1359.62 1061.54 1360.06 1061.1 1360.65 1062.57 1361.18 1063.91 1361.12 1065.5 1360.5 1066.11 1359.89 1066.73 1359.45 1065.64 1359.53 1063.69ZM478.998 1055.07 471.695 1047.22 479.547 1054.52C483.865 1058.54 487.398 1062.07 487.398 1062.37 487.398 1063.77 485.789 1062.37 478.998 1055.07ZM289.723 1047.44C289.723 1047.06 291.178 1045.6 292.956 1044.21 295.886 1041.91 295.952 1041.98 293.654 1044.91 291.24 1047.98 289.723 1048.96 289.723 1047.44ZM1271.63 994.564C1273.47 992.532 1275.39 990.87 1275.9 990.87 1276.41 990.87 1275.32 992.532 1273.48 994.564 1271.64 996.597 1269.72 998.259 1269.21 998.259 1268.7 998.259 1269.79 996.597 1271.63 994.564ZM1595.62 971.01C1593.32 968.08 1593.39 968.014 1596.32 970.312 1598.1 971.707 1599.55 973.162 1599.55 973.545 1599.55 975.066 1598.03 974.087 1595.62 971.01ZM814.047 642.291C815.38 641.757 816.974 641.822 817.588 642.437 818.202 643.051 817.11 643.487 815.163 643.407 813.011 643.319 812.573 642.88 814.047 642.291Z" fill="#97AFCC" transform="matrix(1 0 0 1.00079 1304.45 264.987)"/><path d="M1344.26 1734.12C1345.59 1733.59 1347.19 1733.65 1347.8 1734.27 1348.41 1734.88 1347.32 1735.32 1345.38 1735.24 1343.22 1735.15 1342.79 1734.71 1344.26 1734.12ZM925.701 1190.86C934.592 1190.53 949.14 1190.53 958.031 1190.86 966.922 1191.2 959.647 1191.48 941.866 1191.48 924.084 1191.48 916.81 1191.2 925.701 1190.86ZM320.802 1189.01C354.661 1188.73 409.529 1188.73 442.732 1189.01 475.935 1189.29 448.233 1189.52 381.171 1189.52 314.109 1189.52 286.943 1189.29 320.802 1189.01ZM1401.53 1166.96C1402.86 1166.43 1404.46 1166.49 1405.07 1167.11 1405.68 1167.72 1404.59 1168.16 1402.65 1168.08 1400.49 1167.99 1400.06 1167.55 1401.53 1166.96ZM925.701 1159.46C934.592 1159.12 949.14 1159.12 958.031 1159.46 966.922 1159.8 959.647 1160.07 941.866 1160.07 924.084 1160.07 916.81 1159.8 925.701 1159.46ZM379.223 1157.61C470.785 1157.22 497.724 1156.59 498.985 1154.82 500.181 1153.13 500.411 1153.25 499.855 1155.29 499.193 1157.72 484.296 1158.06 380.093 1158.08L261.088 1158.11ZM1504.99 1135.55C1506.32 1135.02 1507.91 1135.09 1508.53 1135.7 1509.14 1136.31 1508.05 1136.75 1506.1 1136.67 1503.95 1136.58 1503.51 1136.14 1504.99 1135.55ZM1530.85 1135.55C1532.18 1135.02 1533.78 1135.09 1534.39 1135.7 1535 1136.31 1533.91 1136.75 1531.97 1136.67 1529.81 1136.58 1529.38 1136.14 1530.85 1135.55ZM925.701 1113.27C934.592 1112.93 949.14 1112.93 958.031 1113.27 966.922 1113.61 959.647 1113.89 941.866 1113.89 924.084 1113.89 916.81 1113.61 925.701 1113.27ZM456.799 1077.24 451.373 1071.23 457.377 1076.66C460.68 1079.64 463.382 1082.35 463.382 1082.66 463.382 1084.09 461.857 1082.83 456.799 1077.24ZM925.701 1081.87C934.592 1081.53 949.14 1081.53 958.031 1081.87 966.922 1082.2 959.647 1082.48 941.866 1082.48 924.084 1082.48 916.81 1082.2 925.701 1081.87ZM313.74 1067.54C316.126 1065 318.494 1062.92 319.002 1062.92 319.51 1062.92 317.974 1065 315.587 1067.54 313.201 1070.08 310.833 1072.16 310.324 1072.16 309.816 1072.16 311.353 1070.08 313.74 1067.54ZM281.41 1055.53C285.378 1051.47 289.041 1048.14 289.549 1048.14 290.057 1048.14 287.226 1051.47 283.257 1055.53 279.288 1059.59 275.626 1062.92 275.117 1062.92 274.609 1062.92 277.441 1059.59 281.41 1055.53ZM1651.42 1037.83C1651.51 1035.67 1651.95 1035.24 1652.54 1036.71 1653.07 1038.04 1653.01 1039.64 1652.4 1040.25 1651.78 1040.86 1651.34 1039.77 1651.42 1037.83ZM925.701 1035.68C934.592 1035.34 949.14 1035.34 958.031 1035.68 966.922 1036.02 959.647 1036.3 941.866 1036.3 924.084 1036.3 916.81 1036.02 925.701 1035.68ZM452.763 1008.42C452.784 1004.36 453.162 1002.91 453.604 1005.21 454.045 1007.51 454.029 1010.83 453.566 1012.6 453.104 1014.36 452.742 1012.48 452.763 1008.42ZM421.251 1006.57C421.288 1003.52 421.702 1002.5 422.171 1004.3 422.639 1006.1 422.609 1008.59 422.102 1009.84 421.596 1011.09 421.213 1009.62 421.251 1006.57ZM925.701 1004.27C934.592 1003.93 949.14 1003.93 958.031 1004.27 966.922 1004.61 959.647 1004.89 941.866 1004.89 924.084 1004.89 916.81 1004.61 925.701 1004.27ZM459.833 864.167C459.921 862.014 460.359 861.577 460.949 863.051 461.482 864.384 461.417 865.977 460.803 866.591 460.189 867.205 459.752 866.114 459.833 864.167ZM269.547 858.624C269.636 856.472 270.074 856.034 270.663 857.508 271.197 858.842 271.131 860.435 270.518 861.049 269.904 861.663 269.467 860.572 269.547 858.624ZM1368.3 815.826C1415.37 815.551 1491.85 815.551 1538.26 815.826 1584.67 816.101 1546.16 816.325 1452.68 816.325 1359.2 816.325 1321.23 816.101 1368.3 815.826ZM1358 784.42C1409.57 784.146 1493.95 784.146 1545.51 784.42 1597.08 784.693 1554.89 784.916 1451.76 784.916 1348.62 784.916 1306.43 784.692 1358 784.42ZM378.053 610.884C379.387 610.351 380.98 610.416 381.594 611.03 382.208 611.644 381.117 612.081 379.17 612.001 377.017 611.912 376.58 611.474 378.053 610.885ZM940.664 595.52C940.664 586.883 940.982 583.35 941.371 587.668 941.76 591.986 941.76 599.053 941.371 603.371 940.982 607.689 940.664 604.156 940.664 595.52ZM972.148 586.282C972.148 572.565 972.439 566.954 972.795 573.812 973.15 580.671 973.15 591.894 972.795 598.753 972.439 605.611 972.148 600 972.148 586.282ZM413.265 594.134C410.967 591.204 411.033 591.138 413.963 593.436 417.04 595.85 418.019 597.367 416.498 597.367 416.115 597.367 414.66 595.912 413.265 594.134ZM376.09 579.517C377.361 579.004 379.439 579.004 380.709 579.517 381.979 580.029 380.94 580.448 378.4 580.448 375.86 580.448 374.82 580.029 376.09 579.517Z" fill="#7495BC" transform="matrix(1 0 0 1.00079 1304.45 264.987)"/><path d="M1358 1806.05C1409.57 1805.78 1493.95 1805.78 1545.51 1806.05 1597.08 1806.32 1554.89 1806.54 1451.76 1806.54 1348.62 1806.54 1306.43 1806.32 1358 1806.05ZM1652.18 1490.6C1652.18 1323.96 1652.4 1256.06 1652.66 1339.72 1652.93 1423.37 1652.93 1559.71 1652.66 1642.7 1652.4 1725.68 1652.18 1657.24 1652.18 1490.6ZM1282.7 1472.13C1282.7 1305.49 1282.91 1237.59 1283.18 1321.24 1283.44 1404.9 1283.44 1541.24 1283.18 1624.22 1282.91 1707.21 1282.69 1638.76 1282.7 1472.13ZM870.681 1661.49C870.681 1603.06 870.915 1579.16 871.201 1608.37 871.486 1637.59 871.486 1685.39 871.201 1714.6 870.915 1743.81 870.681 1719.91 870.681 1661.49ZM259 1731.69C259 1721.02 259.306 1716.66 259.679 1721.99 260.052 1727.32 260.052 1736.05 259.679 1741.39 259.306 1746.72 259 1742.36 259 1731.69ZM1330.7 1590.36C1330.7 1518.22 1330.93 1488.44 1331.21 1524.18 1331.49 1559.92 1331.49 1618.95 1331.21 1655.35 1330.93 1691.75 1330.7 1662.5 1330.7 1590.36ZM259.169 1679.5C258.686 1678.23 258.507 1567.45 258.772 1433.33L259.254 1189.47 259.709 1434.7 260.164 1679.93 381.633 1680.42 503.101 1680.91 381.575 1681.36C285.722 1681.71 259.863 1681.32 259.169 1679.5ZM318.82 1580.67C332.283 1580.35 354.314 1580.35 367.777 1580.67 381.24 1580.98 370.225 1581.24 343.299 1581.24 316.372 1581.24 305.357 1580.98 318.82 1580.67ZM722.017 1523.41 766.353 1522.86 766.824 1073.97 767.295 625.078 767.289 1074.47 767.284 1523.85 722.482 1523.91 677.681 1523.96ZM824.193 1523.4C835.171 1523.07 852.629 1523.07 862.989 1523.4 873.348 1523.73 864.366 1524 843.028 1523.99 821.691 1523.99 813.215 1523.72 824.193 1523.4ZM911.022 1523.4C922 1523.07 939.458 1523.07 949.818 1523.4 960.178 1523.73 951.195 1524 929.858 1523.99 908.52 1523.99 900.044 1523.72 911.022 1523.4ZM1028.23 1523.4C1040.68 1523.08 1061.05 1523.08 1073.5 1523.4 1085.94 1523.72 1075.76 1523.98 1050.86 1523.98 1025.97 1523.98 1015.79 1523.72 1028.23 1523.4ZM973.702 1474.48 973.272 1425.1 941.404 1424.55 909.536 1424 941.462 1423.58C965.829 1423.27 973.601 1423.72 974.286 1425.51 974.779 1426.8 974.947 1449.45 974.657 1475.85L974.131 1523.85ZM861.485 1091.55C861.485 879.192 861.701 792.043 861.965 897.889 862.228 1003.73 862.228 1177.49 861.965 1284 861.701 1390.52 861.486 1303.92 861.486 1091.55ZM318.82 1471.67C332.283 1471.35 354.314 1471.35 367.777 1471.67 381.24 1471.98 370.225 1472.24 343.299 1472.24 316.372 1472.24 305.357 1471.98 318.82 1471.67ZM1344.26 1447.77C1345.59 1447.24 1347.19 1447.3 1347.8 1447.92 1348.41 1448.53 1347.32 1448.97 1345.38 1448.89 1343.22 1448.8 1342.79 1448.36 1344.26 1447.77ZM318.82 1423.63C332.283 1423.32 354.314 1423.32 367.777 1423.63 381.24 1423.95 370.225 1424.21 343.299 1424.21 316.372 1424.21 305.357 1423.95 318.82 1423.63ZM973.667 1370.1 973.272 1347.51 941.404 1346.96 909.536 1346.41 941.462 1345.99C966.392 1345.67 973.592 1346.11 974.318 1348 974.829 1349.33 974.981 1359.93 974.655 1371.55L974.062 1392.69ZM1330.59 1325.25C1330.59 1306.46 1330.87 1298.77 1331.2 1308.17 1331.54 1317.56 1331.54 1332.94 1331.2 1342.34 1330.87 1351.74 1330.59 1344.05 1330.59 1325.25ZM318.82 1314.64C332.283 1314.32 354.314 1314.32 367.777 1314.64 381.24 1314.95 370.225 1315.21 343.299 1315.21 316.372 1315.21 305.357 1314.95 318.82 1314.64ZM973.667 1292.51 973.272 1269.92 941.404 1269.37 909.536 1268.81 941.462 1268.4C966.392 1268.08 973.592 1268.52 974.318 1270.41 974.829 1271.74 974.981 1282.34 974.655 1293.96L974.062 1315.09ZM318.82 1266.6C332.283 1266.29 354.314 1266.29 367.777 1266.6 381.24 1266.92 370.225 1267.18 343.299 1267.18 316.372 1267.18 305.357 1266.92 318.82 1266.6ZM973.984 1214.41C973.984 1201.71 974.279 1196.51 974.64 1202.86 975.001 1209.21 975.001 1219.6 974.64 1225.96 974.279 1232.31 973.984 1227.11 973.984 1214.41ZM1372.81 1198.35C1374.61 1197.88 1377.11 1197.91 1378.36 1198.42 1379.61 1198.92 1378.14 1199.31 1375.09 1199.27 1372.04 1199.23 1371.02 1198.82 1372.81 1198.35ZM1394.02 1198.41C1395.29 1197.89 1397.37 1197.89 1398.64 1198.41 1399.91 1198.92 1398.87 1199.34 1396.33 1199.34 1393.79 1199.34 1392.75 1198.92 1394.02 1198.41ZM1652.12 1110.03C1652.12 1071.42 1652.36 1055.36 1652.66 1074.35 1652.96 1093.33 1652.96 1124.92 1652.66 1144.55 1652.36 1164.17 1652.12 1148.64 1652.12 1110.03ZM973.984 1136.82C973.984 1124.12 974.279 1118.92 974.64 1125.27 975.001 1131.62 975.001 1142.01 974.64 1148.36 974.279 1154.71 973.984 1149.52 973.984 1136.82ZM1282.6 1088.78C1282.6 1061.86 1282.86 1050.84 1283.17 1064.31 1283.49 1077.77 1283.49 1099.8 1283.17 1113.26 1282.86 1126.73 1282.6 1115.71 1282.6 1088.78ZM1514.14 1135.48C1517.46 1135.07 1522.45 1135.08 1525.23 1135.5 1528 1135.92 1525.28 1136.25 1519.19 1136.24 1513.09 1136.23 1510.82 1135.89 1514.14 1135.48ZM973.984 1059.23C973.984 1046.52 974.279 1041.33 974.64 1047.68 975.001 1054.03 975.001 1064.42 974.64 1070.77 974.279 1077.12 973.984 1071.93 973.984 1059.23ZM1543 1036.13C1543 1022.92 1543.3 1017.76 1543.65 1024.66 1544.01 1031.56 1544.01 1042.37 1543.65 1048.68 1543.29 1054.99 1543 1049.34 1543 1036.13ZM1391.48 1028.74C1391.49 1017.57 1391.79 1013.23 1392.16 1019.11 1392.53 1024.99 1392.52 1034.14 1392.15 1039.43 1391.78 1044.73 1391.48 1039.92 1391.48 1028.74ZM308.489 1007.5C308.489 1004.96 308.908 1003.92 309.421 1005.19 309.933 1006.46 309.933 1008.54 309.421 1009.81 308.908 1011.08 308.489 1010.04 308.489 1007.5ZM973.984 981.633C973.984 968.932 974.279 963.736 974.64 970.087 975.001 976.438 975.001 986.829 974.64 993.18 974.279 999.53 973.984 994.334 973.984 981.633ZM1583.45 938.219C1583.46 933.138 1583.83 931.279 1584.25 934.087 1584.67 936.896 1584.66 941.052 1584.23 943.325 1583.79 945.597 1583.44 943.302 1583.45 938.219ZM941.348 926.698 973.159 926.124 973.763 904.46 974.367 882.796 974.281 904.965 974.196 927.134 941.866 927.204 909.536 927.273ZM1652.1 856.932C1652.1 824.417 1652.36 811.376 1652.66 827.951 1652.97 844.527 1652.97 871.13 1652.66 887.069 1652.35 903.008 1652.1 889.447 1652.1 856.932ZM1282.62 896.142C1282.12 894.846 1281.96 876.348 1282.26 855.037L1282.8 816.288 1283.22 856.416 1283.64 896.544 1308.12 897.118 1332.6 897.692 1308.06 898.096C1289.57 898.4 1283.3 897.918 1282.62 896.142ZM1401.55 897.114C1430.32 896.828 1476.88 896.828 1505 897.115 1533.13 897.402 1509.58 897.636 1452.68 897.636 1395.78 897.635 1372.77 897.401 1401.55 897.114ZM1585.31 897.126C1592.21 896.77 1603.02 896.772 1609.33 897.132 1615.64 897.491 1609.99 897.783 1596.78 897.78 1583.57 897.777 1578.41 897.482 1585.31 897.126ZM491.453 890.184C491.491 887.136 491.905 886.113 492.373 887.91 492.842 889.708 492.811 892.202 492.305 893.452 491.799 894.703 491.415 893.232 491.453 890.184ZM299.514 881.871C299.514 876.282 299.86 873.996 300.283 876.79 300.707 879.585 300.707 884.157 300.283 886.951 299.86 889.745 299.514 887.459 299.514 881.871ZM491.239 869.709C491.327 867.556 491.765 867.119 492.355 868.592 492.889 869.926 492.823 871.519 492.209 872.133 491.595 872.747 491.159 871.656 491.239 869.709ZM941.349 849.105 973.163 848.53 973.766 825.478 974.368 802.426 974.283 825.983 974.196 849.541 941.866 849.61 909.536 849.68ZM973.99 747.932C973.993 734.723 974.287 729.562 974.644 736.462 975 743.363 974.998 754.171 974.638 760.479 974.279 766.787 973.987 761.141 973.99 747.932ZM974.002 668.493C974.005 654.267 974.294 648.692 974.646 656.103 974.998 663.514 974.995 675.153 974.641 681.967 974.286 688.781 973.999 682.718 974.002 668.493ZM785.322 610.82C788.13 610.396 792.287 610.407 794.559 610.843 796.831 611.282 794.536 611.629 789.453 611.615 784.373 611.604 782.514 611.243 785.322 610.818ZM830.405 610.914C828.705 609.215 828.845 581.162 830.559 580.095 831.321 579.621 831.676 586.21 831.348 594.738L830.751 610.243 885.847 610.761 940.943 611.279 886.29 611.712C856.23 611.95 831.082 611.591 830.405 610.914ZM977.429 610.823C980.224 610.399 984.796 610.399 987.59 610.823 990.384 611.246 988.098 611.592 982.51 611.592 976.921 611.592 974.635 611.246 977.429 610.823ZM864.736 579.36C876.675 579.038 896.212 579.038 908.151 579.36 920.09 579.681 910.321 579.945 886.443 579.945 862.565 579.945 852.797 579.682 864.736 579.36ZM870.692 240.812C870.692 169.178 870.921 139.873 871.201 175.69 871.482 211.507 871.482 270.117 871.201 305.934 870.921 341.751 870.692 312.446 870.692 240.812ZM884.25 97.2981C885.583 96.7645 887.177 96.8301 887.791 97.444 888.404 98.0579 887.313 98.4945 885.366 98.4143 883.214 98.3257 882.776 97.8879 884.25 97.2981Z" fill="#4470A5" transform="matrix(1 0 0 1.00079 1304.45 264.987)"/><path d="M1630.72 995.026C1628.42 992.096 1628.49 992.031 1631.42 994.329 1633.2 995.723 1634.65 997.178 1634.65 997.562 1634.65 999.082 1633.14 998.104 1630.72 995.026ZM1305.81 973.545C1305.81 973.161 1307.26 971.707 1309.04 970.312 1311.97 968.014 1312.04 968.08 1309.74 971.01 1307.33 974.087 1305.81 975.066 1305.81 973.545ZM1340.47 897.191C1342.77 896.75 1346.09 896.766 1347.86 897.226 1349.63 897.689 1347.75 898.05 1343.68 898.03 1339.62 898.006 1338.17 897.631 1340.47 897.189ZM1557.52 897.226C1559.3 896.761 1562.21 896.761 1563.99 897.226 1565.77 897.691 1564.31 898.071 1560.76 898.071 1557.2 898.071 1555.74 897.691 1557.52 897.226ZM341.451 596.669C341.451 596.285 342.906 594.831 344.684 593.436 347.614 591.138 347.68 591.204 345.382 594.134 342.968 597.211 341.451 598.19 341.451 596.669ZM839.911 579.478C841.245 578.945 842.838 579.01 843.452 579.624 844.066 580.238 842.974 580.675 841.027 580.594 838.875 580.506 838.437 580.068 839.911 579.478ZM889.792 402.125C891.125 401.591 892.719 401.657 893.332 402.271 893.946 402.884 892.855 403.321 890.908 403.241 888.755 403.152 888.318 402.714 889.792 402.125Z" fill="#225694" transform="matrix(1 0 0 1.00079 1304.45 264.987)"/><path d="M884.249 1523.51C885.583 1522.98 887.176 1523.05 887.79 1523.66 888.404 1524.27 887.313 1524.71 885.365 1524.63 883.213 1524.54 882.776 1524.1 884.249 1523.52ZM1542.43 1063.69C1542.52 1061.54 1542.95 1061.1 1543.54 1062.57 1544.08 1063.91 1544.01 1065.5 1543.4 1066.11 1542.78 1066.73 1542.35 1065.64 1542.43 1063.69ZM467.825 1045.83 464.305 1041.67 468.462 1045.19C472.368 1048.5 473.46 1049.99 471.981 1049.99 471.631 1049.99 469.76 1048.12 467.825 1045.83ZM1324.28 997.562C1324.28 997.178 1325.74 995.723 1327.52 994.329 1330.45 992.031 1330.51 992.096 1328.21 995.026 1325.8 998.104 1324.28 999.082 1324.28 997.562ZM884.249 402.125C885.583 401.591 887.176 401.657 887.79 402.271 888.404 402.884 887.313 403.321 885.365 403.241 883.213 403.152 882.776 402.714 884.249 402.125Z" fill="#11498C" transform="matrix(1 0 0 1.00079 1304.45 264.987)"/><path d="M272.136 1813.29C259.653 1807.34 246.366 1795.03 239.156 1782.73 228.261 1764.14 228.757 1779.42 228.765 1462.96 228.772 1149.1 228.527 1157.37 238.733 1127.01 248.29 1098.58 259.665 1080.55 284.26 1054.82 303.97 1034.2 308.865 1024.8 308.902 1007.5 308.93 994.524 306.985 989.51 290.634 960.387 274.103 930.945 267.021 896.294 270.868 863.678 273.324 842.852 330.292 617.615 335.867 606.685 343.306 592.105 362.341 580.74 379.323 580.74 396.743 580.74 415.244 592.022 422.503 607.071 428.46 619.419 489.059 845.481 491.006 862.617 495.205 899.565 484.976 941.456 463.798 974.048 451.187 993.457 449.228 1012.8 458.033 1030.99 460.24 1035.55 468.033 1045.25 475.351 1052.54 506.774 1083.86 523.877 1116.77 530.748 1159.14 533.19 1174.2 533.57 1214.87 533.576 1462.17 533.581 1646.35 532.923 1751.3 531.722 1757.63 527.486 1779.97 513.131 1800.05 493.131 1811.61L482.78 1817.59 383.018 1818.09 283.257 1818.58ZM473.601 1788.13C484.406 1783.62 492.54 1776.17 497.469 1766.28 501.748 1757.69 502.178 1754.76 502.178 1734.1L502.178 1711.37 380.247 1711.37 258.317 1711.37 258.317 1730.43C258.317 1761.81 265.775 1777.47 284.974 1786.41L294.342 1790.77 380.768 1790.79C452.086 1790.81 468.315 1790.34 473.601 1788.13ZM502.178 1435.18 502.178 1188.54 380.247 1188.54 258.317 1188.54 258.317 1435.18 258.317 1681.81 380.247 1681.81 502.178 1681.81ZM286.868 1575.67C281.95 1570.75 280.973 1562.73 284.701 1557.87 289.842 1551.17 294.239 1550.64 344.243 1550.64L393.463 1550.64 398.864 1556.04C405.463 1562.64 405.742 1568.83 399.733 1575.31L395.203 1580.2 343.303 1580.2 291.403 1580.2ZM290.647 1500.38C281.297 1495.01 279.611 1484.84 286.868 1477.58L291.403 1473.05 343.303 1473.05 395.203 1473.05 399.733 1477.94C405.742 1484.42 405.463 1490.61 398.864 1497.21L393.463 1502.61 343.903 1502.55C310.103 1502.51 293.167 1501.82 290.647 1500.37ZM286.868 1418.63C281.95 1413.72 280.973 1405.69 284.701 1400.84 289.842 1394.14 294.239 1393.61 344.243 1393.61L393.463 1393.61 398.864 1399.01C405.463 1405.61 405.742 1411.8 399.733 1418.28L395.203 1423.17 343.303 1423.17 291.403 1423.17ZM290.647 1343.34C281.297 1337.98 279.611 1327.81 286.868 1320.55L291.403 1316.02 343.303 1316.02 395.203 1316.02 399.733 1320.91C405.742 1327.39 405.463 1333.58 398.864 1340.18L393.463 1345.58 343.903 1345.52C310.103 1345.48 293.167 1344.79 290.647 1343.34ZM286.868 1261.6C281.95 1256.68 280.973 1248.66 284.701 1243.81 289.842 1237.11 294.239 1236.58 344.243 1236.58L393.463 1236.58 398.864 1241.98C405.463 1248.58 405.742 1254.76 399.733 1261.25L395.203 1266.14 343.303 1266.14 291.403 1266.14ZM500.33 1156.41C500.33 1151.35 492.419 1128.31 486.94 1117.42 478.476 1100.59 471.61 1091.37 453.13 1072.01 428.96 1046.69 421.19 1028.25 423.251 1001.1 424.432 985.534 427.685 976.928 440.722 954.878 446.139 945.715 452.803 931.567 455.53 923.438 460.078 909.881 460.482 906.291 460.418 880.024L460.349 851.389 428.77 736.213C404.516 647.747 396.23 620.012 393.043 616.62 384.393 607.413 366.999 609.727 361.976 620.753 360.832 623.263 346.468 677.845 330.056 742.047L300.215 858.778 300.194 880.024C300.166 909.946 306.873 932.824 323.299 958.834 338.282 982.557 342.444 1003.07 336.881 1025.77 332.594 1043.27 324.009 1057 305.575 1075.85 283.645 1098.28 273.629 1114.31 265.917 1139.32 259.091 1161.46 244.611 1158.99 381.171 1158.99 481.858 1158.99 500.33 1158.59 500.33 1156.41ZM1258.15 1801.84C1255.94 1799.78 1253.68 1796.25 1253.13 1793.99 1252.58 1791.73 1252.36 1618.63 1252.64 1409.31L1253.16 1028.74 1259.04 1016.32C1266.3 1001.01 1277.66 989.657 1293.77 981.649 1313.22 971.978 1320.59 960.107 1320.59 938.465L1320.59 928.057 1291.81 928.057 1263.03 928.057 1257.63 922.657 1252.23 917.257 1252.23 856.931 1252.23 796.605 1257.63 791.205 1263.03 785.805 1452.62 785.805 1642.21 785.805 1646.74 790.339 1651.28 794.874 1651.28 855.772C1651.28 889.266 1650.76 918.016 1650.13 919.661 1647.56 926.357 1639.58 928.057 1610.73 928.057L1582.92 928.057 1582.92 936.959C1582.92 958.793 1591.6 971.836 1613.87 983.495 1627.8 990.783 1638.81 1002.27 1645.44 1016.41L1650.36 1026.89 1650.83 1411.69 1651.31 1796.48 1646.76 1801.03 1642.21 1805.59 1452.19 1805.59C1263.86 1805.59 1262.13 1805.55 1258.15 1801.84ZM1621.72 1486.28 1621.72 1196.54 1610.8 1193.5C1604.79 1191.83 1590.86 1186.33 1579.85 1181.28 1553.56 1169.22 1541.94 1166.37 1519.26 1166.4 1495.86 1166.44 1482.33 1169.63 1457.58 1180.98 1446.76 1185.95 1433.74 1191.33 1428.66 1192.95 1414.43 1197.49 1387.51 1199.64 1369.08 1197.72 1348.56 1195.58 1337.38 1192.24 1313.11 1181 1302.39 1176.04 1290.96 1171.44 1287.71 1170.79L1281.79 1169.61 1281.79 1472.82 1281.79 1776.03 1451.76 1776.03 1621.72 1776.03ZM1336.21 1729 1331.67 1724.47 1331.67 1590.77 1331.67 1457.07 1335.95 1453.05C1340.16 1449.09 1346.98 1447.93 1352.84 1450.18 1361.19 1453.38 1361.23 1454.16 1361.23 1591.31 1361.23 1686.25 1360.66 1721.93 1359.08 1724.88 1353.95 1734.52 1343.59 1736.38 1336.21 1729ZM1336.21 1366.91C1331.69 1362.39 1331.67 1362.2 1331.67 1325.25 1331.67 1288.31 1331.7 1288.12 1336.21 1283.6 1342.31 1277.5 1349.17 1277.8 1355.83 1284.47L1361.23 1289.87 1361.23 1324.31C1361.23 1359.07 1360.41 1364.15 1354 1369.07 1349.15 1372.8 1341.13 1371.82 1336.21 1366.91ZM1413.33 1166.18C1418.72 1165.06 1433.93 1159.33 1447.14 1153.46 1479.75 1138.96 1493.45 1136.12 1525.39 1137.23 1552.86 1138.18 1567.28 1141.81 1590.85 1153.71 1597.15 1156.89 1606.67 1161 1612.01 1162.84L1621.72 1166.18 1621.68 1101.15C1621.65 1041.71 1621.34 1035.48 1618.2 1028.55 1613.75 1018.77 1608.79 1014.24 1593.86 1006.38 1579.45 998.794 1570.32 989.916 1562.86 976.262L1557.4 966.272 1549.84 990.326C1542.38 1014.05 1542.28 1014.76 1542.28 1042.34 1542.28 1067.73 1541.94 1070.65 1538.63 1073.96 1536.63 1075.96 1533.09 1078.07 1530.78 1078.65 1528.47 1079.22 1491.38 1079.45 1448.36 1079.16L1370.15 1078.62 1365.69 1073.44C1361.4 1068.45 1361.23 1067.19 1361.23 1040.15 1361.23 1012.69 1361.07 1011.5 1354.07 989.052L1346.91 966.068 1342.23 975.3C1336.13 987.355 1323.47 999.449 1309.06 1006.99 1294.96 1014.38 1286.56 1023.46 1283.84 1034.25 1282.6 1039.16 1281.79 1061.34 1281.79 1090.22L1281.79 1138.06 1293.25 1141.24C1299.56 1143 1313.9 1148.7 1325.12 1153.92 1336.35 1159.14 1349.69 1164.42 1354.77 1165.66 1366.56 1168.53 1400.6 1168.84 1413.33 1166.18ZM1512.72 1029.16C1512.72 1010.91 1513.21 1008.59 1525.29 969.576L1537.87 928.981 1452.95 928.5C1406.25 928.236 1367.7 928.362 1367.28 928.78 1366.86 929.199 1371.98 946.982 1378.66 968.298 1390.55 1006.29 1390.79 1007.46 1390.79 1027.6L1390.79 1048.14 1451.76 1048.14 1512.72 1048.14ZM1621.72 856.931 1621.72 815.364 1451.76 815.364 1281.79 815.364 1281.79 856.931 1281.79 898.498 1451.76 898.498 1621.72 898.498ZM757.75 1794.64C747.823 1788.55 747.265 1777.1 756.596 1770.97 760.463 1768.43 766.873 1767.51 785.736 1766.79L809.918 1765.87 797.805 1660.56 785.692 1555.26 729.378 1554.27C698.406 1553.72 672.889 1553.1 672.675 1552.88 663.234 1543.35 662.231 1536.37 669.286 1529.31L673.821 1524.78 721.014 1524.78 768.207 1524.78 768.207 1073 768.207 621.216 772.742 616.681C776.557 612.867 779.051 612.146 788.445 612.146L799.614 612.146 799.614 586.385C799.614 562.223 799.875 560.32 803.831 555.721 806.925 552.124 810.378 550.555 816.789 549.833 823.758 549.047 825.707 548.054 826.403 544.934 826.883 542.781 832.646 504.972 839.208 460.914 848.307 399.829 851.896 379.972 854.324 377.29 856.075 375.355 860.693 373.263 864.586 372.64L871.664 371.508 871.664 239.051 871.664 106.595 875.939 102.578C880.152 98.6198 886.971 97.4613 892.826 99.7083 901.18 102.914 901.223 103.633 901.223 241.645L901.223 371.98 905.592 371.98C910.64 371.98 919.026 377.999 920.461 382.651 921.37 385.599 945.549 544.854 945.557 547.948 945.559 548.71 948.525 549.334 952.148 549.334 959.337 549.334 965.544 551.987 969.057 556.563 970.576 558.543 971.326 568.045 971.366 585.82L971.425 612.146 982.971 612.205C994.978 612.266 998.903 613.991 1002.53 620.8 1004.15 623.837 1004.68 736.25 1004.68 1074.81L1004.68 1524.78 1051.47 1524.78C1097.65 1524.78 1098.3 1524.83 1102 1528.93 1104.05 1531.22 1106.27 1534.6 1106.92 1536.44 1108.59 1541.15 1103.3 1550.46 1097.77 1552.57 1095.19 1553.55 1069.27 1554.34 1039.77 1554.34L986.431 1554.34 985.336 1562.19C983.825 1573.03 962.188 1762.22 962.188 1764.59 962.188 1765.79 971.481 1766.73 986.985 1767.11 1010.27 1767.68 1012.07 1767.99 1016.54 1772.19 1022.94 1778.21 1022.94 1786.78 1016.54 1792.79L1011.77 1797.27 887.681 1797.75C767.681 1798.21 763.396 1798.11 757.75 1794.64ZM871.664 1660.56 871.664 1554.34 843.952 1554.34C818.792 1554.34 816.241 1554.63 816.24 1557.57 816.239 1561.44 838.004 1752.16 839.431 1760.79L840.425 1766.79 856.044 1766.79 871.664 1766.79ZM943.497 1663.8C949.9 1607.15 955.534 1559.35 956.017 1557.57 956.824 1554.59 954.672 1554.34 929.058 1554.34L901.223 1554.34 901.223 1660.56 901.223 1766.79 916.538 1766.79 931.854 1766.79ZM974.688 1473.51 975.179 1423.17 941.321 1423.17C910.21 1423.17 907.145 1422.87 903.563 1419.54 898.117 1414.46 896.889 1409.3 899.722 1403.39 903.878 1394.72 908.601 1393.67 943.252 1393.64L975.12 1393.61 975.12 1369.59 975.12 1345.57 941.291 1345.57C910.209 1345.57 907.145 1345.28 903.563 1341.94 898.117 1336.87 896.889 1331.71 899.722 1325.8 903.878 1317.13 908.601 1316.07 943.252 1316.04L975.12 1316.01 975.12 1292 975.12 1267.98 941.291 1267.98C910.209 1267.98 907.145 1267.69 903.563 1264.35 898.117 1259.27 896.889 1254.11 899.722 1248.2 903.878 1239.54 908.601 1238.48 943.252 1238.45L975.12 1238.42 975.12 1214.4 975.12 1190.39 941.969 1190.39C909.87 1190.39 908.659 1190.25 903.789 1186.06 896.888 1180.12 896.888 1171.09 903.789 1165.15 908.659 1160.97 909.87 1160.83 941.969 1160.83L975.12 1160.83 975.12 1136.81 975.12 1112.79 941.969 1112.79C909.87 1112.79 908.659 1112.66 903.789 1108.47 900.195 1105.38 898.76 1102.39 898.76 1098.02 898.76 1093.64 900.195 1090.65 903.789 1087.56 908.659 1083.37 909.87 1083.24 941.969 1083.24L975.12 1083.24 975.12 1059.22 975.12 1035.2 941.969 1035.2C909.87 1035.2 908.659 1035.07 903.789 1030.88 900.195 1027.79 898.76 1024.8 898.76 1020.42 898.76 1016.05 900.195 1013.06 903.789 1009.97 908.659 1005.78 909.87 1005.64 941.969 1005.64L975.12 1005.64 975.12 981.627 975.12 957.611 943.252 957.582C908.601 957.553 903.878 956.494 899.722 947.826 896.889 941.918 898.117 936.756 903.563 931.683 907.145 928.345 910.209 928.05 941.291 928.05L975.12 928.05 975.12 904.034 975.12 880.017 943.252 879.988C908.601 879.959 903.878 878.9 899.722 870.233 896.889 864.324 898.117 859.163 903.563 854.089 907.145 850.752 910.209 850.457 941.291 850.457L975.12 850.457 975.12 826.44 975.12 802.423 943.622 802.423C909.081 802.423 903.773 801.177 899.636 792.098 897.832 788.138 897.811 785.879 899.537 781.711 903.428 772.318 908.792 771.017 943.622 771.017L975.12 771.017 975.12 747.924 975.12 724.831 943.622 724.831C909.081 724.831 903.773 723.585 899.637 714.506 897.833 710.546 897.811 708.287 899.537 704.119 903.428 694.726 908.792 693.425 943.622 693.425L975.12 693.425 975.12 667.561 975.12 641.697 886.444 641.697 797.767 641.697 797.767 1083.25 797.767 1524.8 885.982 1524.32 974.197 1523.84ZM840.461 1487.08C830.61 1481.66 831.156 1504.67 831.086 1092.1 831.034 798.422 831.538 707.25 833.227 703.543 835.867 697.748 844.251 692.994 848.916 694.645 850.758 695.298 854.136 697.515 856.422 699.573L860.579 703.315 860.579 1091.55 860.579 1479.79 856.422 1483.6C850.683 1488.85 845.663 1489.95 840.461 1487.08ZM941.866 595.52 941.866 578.893 885.519 578.893 829.173 578.893 829.173 595.52 829.173 612.146 885.519 612.146 941.866 612.146ZM915.242 544.253C914.288 539.649 893.833 403.998 893.833 402.271 893.833 401.869 890.288 401.539 885.956 401.539L878.079 401.539 867.428 473.127C861.57 512.501 856.801 545.754 856.831 547.024 856.871 548.774 864.085 549.334 886.59 549.334L916.295 549.334Z" fill="#003C84" transform="matrix(1 0 0 1.00079 1304.45 264.987)"/></g></g></g></g></svg>