<svg width="1398" height="1407" xmlns="http://www.w3.org/2000/svg" xmlns:xlink="http://www.w3.org/1999/xlink" xml:space="preserve" overflow="hidden"><defs><clipPath id="clip0"><rect x="1501" y="534" width="1398" height="1407"/></clipPath></defs><g clip-path="url(#clip0)" transform="translate(-1501 -534)"><path d="M2200 827.282C1940.96 281.341 1501 608.905 1501 914.632 1501 1373.22 2200 1941 2200 1941 2200 1941 2899 1373.22 2899 914.632 2899 608.905 2459.04 281.341 2200 827.282Z" fill="#FF0000" fill-rule="evenodd" fill-opacity="0.4"/><g><g><g><path d="M1022.43 1203.63C1022.43 1059.58 1022.6 1000.65 1022.82 1072.67 1023.04 1144.7 1023.04 1262.56 1022.82 1334.58 1022.6 1406.6 1022.43 1347.67 1022.43 1203.63ZM277.112 1462.14C295.585 1461.9 325.814 1461.9 344.287 1462.14 362.76 1462.38 347.645 1462.57 310.7 1462.57 273.754 1462.57 258.64 1462.38 277.112 1462.14ZM611.216 1456.35C611.288 1454.59 611.646 1454.23 612.128 1455.44 612.564 1456.53 612.51 1457.83 612.009 1458.33 611.507 1458.83 611.15 1457.94 611.216 1456.35ZM1186.24 1450.06 1323.62 1449.66 1323.23 1213.51C1323.02 1083.62 1323.35 977.859 1323.98 978.484 1324.6 979.11 1324.94 1085.55 1324.73 1215.03L1324.35 1450.44 1186.61 1450.45 1048.86 1450.46ZM737.124 1357.22 737.143 1270.8 759.031 1270.73 780.919 1270.67 759.421 1271.15 737.922 1271.64 737.514 1357.64 737.105 1443.64ZM186.008 1410.43C186.008 1398.39 186.243 1393.47 186.529 1399.49 186.816 1405.51 186.816 1415.36 186.529 1421.38 186.243 1427.4 186.008 1422.47 186.008 1410.43ZM1112.98 1299.48C1112.98 1240.53 1113.16 1216.2 1113.39 1245.41 1113.62 1274.61 1113.62 1322.84 1113.39 1352.58 1113.16 1382.32 1112.98 1358.43 1112.98 1299.48ZM262.127 1398.73C289.793 1398.5 334.626 1398.5 361.756 1398.73 388.886 1398.97 366.25 1399.15 311.454 1399.15 256.658 1399.15 234.461 1398.96 262.127 1398.73ZM186.142 1172.68C186.142 1056.45 186.321 1009.12 186.54 1067.51 186.759 1125.9 186.759 1221 186.54 1278.84 186.321 1336.69 186.142 1288.92 186.142 1172.68ZM330.443 1279.73C330.515 1277.97 330.873 1277.62 331.355 1278.82 331.791 1279.91 331.737 1281.21 331.236 1281.71 330.734 1282.21 330.377 1281.32 330.443 1279.73ZM666.972 1272.69C666.954 1270.28 668.882 1270.07 689.215 1270.38L711.481 1270.71 690.409 1271.18C675.917 1271.5 668.971 1272.22 668.166 1273.49 667.354 1274.76 666.989 1274.52 666.972 1272.69ZM807.131 1271.15C807.768 1270.52 827.944 1270.18 851.966 1270.4L895.644 1270.8 850.809 1271.56C826.15 1271.97 806.495 1271.79 807.131 1271.15ZM575.245 1270.43C587.491 1270.17 607.53 1270.17 619.776 1270.43 632.023 1270.68 622.003 1270.89 597.511 1270.89 573.019 1270.89 562.999 1270.68 575.245 1270.43ZM260.508 1265.9C271.508 1265.64 289.509 1265.64 300.51 1265.9 311.511 1266.16 302.51 1266.37 280.509 1266.37 258.507 1266.37 249.507 1266.16 260.508 1265.9ZM652.604 884.738 652.609 525.091 658.283 524.933 663.956 524.775 658.663 525.401 653.37 526.028 652.985 885.206 652.599 1244.38ZM821.664 877.567C821.664 675.403 821.839 592.7 822.054 693.782 822.268 794.864 822.268 960.271 822.054 1061.35 821.84 1162.44 821.664 1079.73 821.664 877.567ZM260.508 1228.16C271.508 1227.9 289.509 1227.9 300.51 1228.16 311.511 1228.42 302.51 1228.63 280.509 1228.63 258.507 1228.63 249.507 1228.42 260.508 1228.16ZM330.443 1214.82C330.515 1213.06 330.873 1212.71 331.355 1213.91 331.791 1215 331.737 1216.3 331.236 1216.8 330.734 1217.31 330.377 1216.41 330.443 1214.82ZM678.257 891.908C678.257 718.387 678.433 647.177 678.648 733.664 678.863 820.15 678.863 962.122 678.648 1049.16 678.433 1136.19 678.257 1065.43 678.257 891.908ZM330.443 1151.42C330.515 1149.66 330.873 1149.31 331.355 1150.51 331.791 1151.6 331.737 1152.9 331.236 1153.4 330.734 1153.9 330.377 1153.01 330.443 1151.42ZM260.508 1137.59C271.508 1137.33 289.509 1137.33 300.51 1137.59 311.511 1137.85 302.51 1138.06 280.509 1138.06 258.507 1138.06 249.507 1137.85 260.508 1137.59ZM756.389 1137.59C763.654 1137.32 775.541 1137.32 782.806 1137.59 790.071 1137.87 784.127 1138.1 769.598 1138.1 755.068 1138.1 749.125 1137.87 756.389 1137.59ZM1112.89 1082.86C1112.89 1067.5 1113.11 1061.22 1113.39 1068.9 1113.66 1076.58 1113.66 1089.15 1113.39 1096.83 1113.11 1104.51 1112.89 1098.22 1112.89 1082.86ZM260.508 1099.85C271.508 1099.59 289.509 1099.59 300.51 1099.85 311.511 1100.11 302.51 1100.32 280.509 1100.32 258.507 1100.32 249.507 1100.11 260.508 1099.85ZM330.443 1086.51C330.515 1084.75 330.873 1084.4 331.355 1085.6 331.791 1086.69 331.737 1087.99 331.236 1088.49 330.734 1088.99 330.377 1088.1 330.443 1086.51ZM756.389 1074.19C763.654 1073.92 775.541 1073.92 782.806 1074.19 790.071 1074.47 784.127 1074.7 769.598 1074.7 755.068 1074.7 749.125 1074.47 756.389 1074.19ZM330.443 1023.11C330.515 1021.35 330.873 1021 331.355 1022.2 331.791 1023.29 331.737 1024.59 331.236 1025.09 330.734 1025.59 330.377 1024.7 330.443 1023.11ZM756.389 1010.79C763.654 1010.51 775.541 1010.51 782.806 1010.79 790.071 1011.07 784.127 1011.3 769.598 1011.3 755.068 1011.3 749.125 1011.07 756.389 1010.79ZM260.508 1009.28C271.508 1009.02 289.509 1009.02 300.51 1009.28 311.511 1009.54 302.51 1009.75 280.509 1009.75 258.507 1009.75 249.507 1009.54 260.508 1009.28ZM1121.04 953.522C1122.13 953.087 1123.43 953.14 1123.93 953.642 1124.43 954.143 1123.54 954.5 1121.95 954.435 1120.19 954.362 1119.83 954.004 1121.04 953.523ZM1140.66 953.522C1141.75 953.087 1143.05 953.14 1143.55 953.642 1144.05 954.143 1143.16 954.5 1141.57 954.435 1139.81 954.362 1139.46 954.004 1140.66 953.523ZM1235.67 953.462C1238.36 953.127 1242.78 953.127 1245.48 953.462 1248.18 953.797 1245.97 954.07 1240.57 954.07 1235.18 954.07 1232.97 953.796 1235.67 953.462ZM1323.23 917.949C1323.94 855.227 1324.46 849.504 1324.78 900.588 1324.96 928.608 1324.6 951.535 1323.97 951.536 1323.35 951.537 1323.01 936.422 1323.23 917.949ZM1022.36 893.417C1022.36 868.51 1022.56 858.109 1022.82 870.304 1023.07 882.499 1023.07 902.877 1022.82 915.59 1022.57 928.302 1022.36 918.325 1022.36 893.417ZM1255.38 927.86C1256.47 927.424 1257.78 927.478 1258.28 927.98 1258.78 928.481 1257.89 928.838 1256.3 928.773 1254.54 928.7 1254.18 928.342 1255.38 927.861ZM1111.34 847.377C1111.34 836.168 1111.58 831.583 1111.87 837.187 1112.16 842.792 1112.16 851.962 1111.87 857.566 1111.58 863.17 1111.34 858.585 1111.34 847.377ZM382.259 853.037 379.383 849.641 382.78 852.517C385.972 855.219 386.863 856.434 385.655 856.434 385.369 856.434 383.841 854.905 382.259 853.037ZM1235.1 840.584C1235.1 831.451 1235.35 827.91 1235.65 832.714 1235.95 837.518 1235.95 844.99 1235.65 849.319 1235.34 853.647 1235.1 849.716 1235.1 840.584ZM344.148 829.262C344.148 827.187 344.49 826.338 344.909 827.375 345.328 828.413 345.328 830.111 344.909 831.149 344.49 832.187 344.148 831.338 344.148 829.262ZM277.728 821.715C277.728 819.639 278.071 818.79 278.49 819.828 278.908 820.866 278.908 822.564 278.49 823.602 278.071 824.639 277.728 823.79 277.728 821.715ZM1086.6 811.903C1088.55 809.827 1090.48 808.129 1090.9 808.129 1091.31 808.129 1090.06 809.827 1088.11 811.903 1086.16 813.978 1084.22 815.677 1083.81 815.677 1083.39 815.677 1084.65 813.978 1086.6 811.903ZM756.389 782.852C763.654 782.575 775.541 782.575 782.806 782.852 790.071 783.129 784.127 783.355 769.598 783.355 755.068 783.355 749.125 783.129 756.389 782.852ZM1077.8 767.034 1077.54 759.904 1055.28 759.443 1033.01 758.982 1055.32 758.648C1080.09 758.278 1079.71 758.121 1078.65 768.345 1078.08 773.904 1078.04 773.846 1077.8 767.034ZM1186.23 759.824 1117.55 759.023 1186.61 758.668C1231.88 758.436 1255.67 758.834 1255.67 759.824 1255.67 760.654 1255.5 761.174 1255.29 760.979 1255.08 760.784 1224.01 760.264 1186.23 759.824ZM1305.93 758.701C1312.4 758.417 1322.59 758.418 1328.57 758.704 1334.55 758.99 1329.26 759.222 1316.8 759.22 1304.35 759.218 1299.46 758.984 1305.93 758.701ZM1022.36 700.197C1022.36 673.629 1022.57 662.973 1022.82 676.517 1023.07 690.061 1023.07 711.798 1022.82 724.822 1022.57 737.846 1022.36 726.765 1022.36 700.197ZM1324.24 700.197C1324.24 681.932 1324.46 674.667 1324.72 684.053 1324.99 693.44 1324.99 708.384 1324.72 717.263 1324.46 726.142 1324.24 718.463 1324.24 700.197ZM219.07 719.066C219.07 714.5 219.353 712.632 219.699 714.915 220.045 717.198 220.045 720.934 219.699 723.218 219.353 725.501 219.07 723.633 219.07 719.066ZM756.389 719.452C763.654 719.175 775.541 719.175 782.806 719.452 790.071 719.729 784.127 719.955 769.598 719.955 755.068 719.955 749.125 719.728 756.389 719.452ZM375.729 710.638C375.801 708.879 376.159 708.522 376.641 709.726 377.077 710.816 377.023 712.118 376.521 712.619 376.02 713.121 375.663 712.229 375.729 710.638ZM696.008 524.716C711.575 524.471 737.048 524.471 752.615 524.716 768.182 524.961 755.446 525.162 724.312 525.162 693.177 525.162 680.441 524.961 696.008 524.716ZM785.825 524.781C787.693 524.421 790.75 524.421 792.618 524.781 794.486 525.141 792.958 525.435 789.222 525.435 785.485 525.435 783.957 525.141 785.825 524.781ZM652.445 479.051C652.445 467.842 652.683 463.257 652.973 468.861 653.264 474.465 653.264 483.636 652.973 489.24 652.683 494.844 652.445 490.259 652.445 479.051ZM665.817 447.819C667.27 447.44 669.648 447.44 671.101 447.819 672.554 448.199 671.365 448.51 668.459 448.51 665.553 448.51 664.364 448.199 665.817 447.819ZM700.182 446.218C700.196 444.383 700.563 444.14 701.377 445.421 702.193 446.704 709.427 447.407 725.129 447.729L747.709 448.192 723.934 448.526C702.163 448.832 700.161 448.637 700.182 446.218ZM776.013 447.819C777.466 447.44 779.844 447.44 781.297 447.819 782.749 448.199 781.561 448.51 778.655 448.51 775.749 448.51 774.56 448.199 776.013 447.819ZM705.82 302.945C706.858 302.526 708.556 302.526 709.594 302.945 710.631 303.364 709.782 303.706 707.707 303.706 705.631 303.706 704.782 303.364 705.82 302.945ZM737.082 302.058C736.686 301.02 736.542 252.96 736.763 195.258L737.164 90.3457 737.531 196.28C737.875 295.722 738.059 302.256 740.539 302.904 743.015 303.551 743.012 303.605 740.492 303.77 739.013 303.866 737.479 303.096 737.082 302.058Z" fill="#B9C9DC" transform="matrix(1 0 0 1.00018 1431.88 454.779)"/><path d="M185.647 1386.28C185.647 1384.2 185.989 1383.36 186.408 1384.39 186.827 1385.43 186.827 1387.13 186.408 1388.17 185.989 1389.2 185.647 1388.36 185.647 1386.28ZM1021.81 940.087C1021.88 938.329 1022.24 937.971 1022.72 939.175 1023.16 940.265 1023.1 941.567 1022.6 942.068 1022.1 942.57 1021.74 941.678 1021.81 940.087ZM244.28 884.643C244.28 884.383 246.488 882.175 249.186 879.737L254.092 875.303 249.658 880.209C245.526 884.782 244.28 885.809 244.28 884.643ZM1110.87 869.139C1110.94 867.381 1111.3 867.023 1111.78 868.227 1112.22 869.317 1112.17 870.619 1111.66 871.12 1111.16 871.622 1110.81 870.73 1110.87 869.139ZM391.389 862.095 385.421 855.679 391.837 861.646C395.366 864.928 398.252 867.815 398.252 868.062 398.252 869.204 396.938 868.061 391.389 862.095ZM236.732 855.864C236.732 855.55 237.921 854.362 239.374 853.222 241.768 851.345 241.822 851.398 239.944 853.792 237.972 856.307 236.732 857.106 236.732 855.864ZM1039.05 812.658C1040.55 810.997 1042.12 809.638 1042.54 809.638 1042.95 809.638 1042.06 810.997 1040.56 812.658 1039.06 814.318 1037.49 815.677 1037.07 815.677 1036.66 815.677 1037.55 814.318 1039.05 812.658ZM1303.78 793.411C1301.9 791.017 1301.96 790.963 1304.35 792.841 1305.8 793.98 1306.99 795.169 1306.99 795.483 1306.99 796.725 1305.75 795.926 1303.78 793.411ZM665.157 524.815C666.247 524.379 667.548 524.432 668.05 524.934 668.552 525.436 667.66 525.793 666.069 525.727 664.31 525.655 663.953 525.297 665.157 524.815Z" fill="#97AFCC" transform="matrix(1 0 0 1.00018 1431.88 454.779)"/><path d="M1098.39 1416.95C1099.48 1416.51 1100.78 1416.57 1101.29 1417.07 1101.79 1417.57 1100.9 1417.93 1099.3 1417.86 1097.55 1417.79 1097.19 1417.43 1098.39 1416.95ZM756.389 973.054C763.654 972.777 775.541 972.777 782.806 973.054 790.071 973.33 784.127 973.557 769.598 973.557 755.068 973.557 749.125 973.33 756.389 973.054ZM262.127 971.536C289.793 971.306 334.626 971.306 361.756 971.537 388.886 971.767 366.25 971.956 311.454 971.956 256.658 971.955 234.461 971.767 262.127 971.536ZM1145.19 953.522C1146.28 953.087 1147.58 953.14 1148.08 953.642 1148.58 954.143 1147.69 954.5 1146.1 954.435 1144.34 954.362 1143.98 954.004 1145.19 953.523ZM756.389 947.391C763.654 947.115 775.541 947.115 782.806 947.391 790.071 947.668 784.127 947.895 769.598 947.895 755.068 947.895 749.125 947.668 756.389 947.391ZM309.863 945.88C384.678 945.565 406.69 945.052 407.72 943.598 408.697 942.219 408.885 942.322 408.431 943.987 407.89 945.97 395.718 946.253 310.574 946.268L213.335 946.287ZM1229.72 927.86C1230.81 927.424 1232.11 927.478 1232.62 927.98 1233.12 928.481 1232.23 928.838 1230.63 928.773 1228.88 928.7 1228.52 928.342 1229.72 927.861ZM1250.86 927.86C1251.95 927.424 1253.25 927.478 1253.75 927.98 1254.25 928.481 1253.36 928.838 1251.77 928.773 1250.01 928.7 1249.65 928.342 1250.86 927.861ZM756.389 909.653C763.654 909.376 775.541 909.376 782.806 909.653 790.071 909.93 784.127 910.156 769.598 910.156 755.068 910.156 749.125 909.93 756.389 909.653ZM373.25 880.209 368.817 875.303 373.723 879.737C376.421 882.175 378.629 884.383 378.629 884.643 378.629 885.809 377.383 884.782 373.25 880.209ZM756.389 883.991C763.654 883.714 775.541 883.714 782.806 883.991 790.071 884.268 784.127 884.494 769.598 884.494 755.068 884.494 749.125 884.268 756.389 883.991ZM256.356 872.284C258.306 870.208 260.241 868.51 260.656 868.51 261.072 868.51 259.816 870.208 257.866 872.284 255.916 874.36 253.981 876.058 253.566 876.058 253.151 876.058 254.406 874.36 256.356 872.284ZM229.94 862.472C233.182 859.151 236.175 856.434 236.59 856.434 237.005 856.434 234.692 859.151 231.449 862.472 228.206 865.793 225.213 868.51 224.798 868.51 224.383 868.51 226.697 865.793 229.94 862.472ZM1349.38 848.006C1349.45 846.247 1349.81 845.889 1350.29 847.094 1350.73 848.183 1350.67 849.485 1350.17 849.987 1349.67 850.489 1349.31 849.597 1349.38 848.006ZM756.389 846.253C763.654 845.976 775.541 845.976 782.806 846.253 790.071 846.53 784.127 846.756 769.598 846.756 755.068 846.756 749.125 846.529 756.389 846.253ZM369.952 823.979C369.969 820.658 370.278 819.477 370.639 821.355 371 823.233 370.986 825.95 370.608 827.393 370.23 828.836 369.935 827.3 369.952 823.979ZM344.204 822.469C344.234 819.979 344.573 819.143 344.955 820.611 345.338 822.08 345.313 824.118 344.899 825.14 344.486 826.162 344.173 824.96 344.204 822.469ZM756.389 820.591C763.654 820.314 775.541 820.314 782.806 820.591 790.071 820.868 784.127 821.094 769.598 821.094 755.068 821.094 749.125 820.867 756.389 820.591ZM375.729 706.11C375.801 704.351 376.159 703.993 376.641 705.198 377.077 706.287 377.023 707.589 376.521 708.091 376.02 708.592 375.663 707.701 375.729 706.11ZM220.247 701.581C220.319 699.823 220.677 699.465 221.159 700.669 221.595 701.759 221.541 703.061 221.04 703.562 220.538 704.064 220.181 703.172 220.247 701.581ZM1118.04 666.61C1156.5 666.386 1218.99 666.386 1256.91 666.611 1294.83 666.835 1263.37 667.019 1186.98 667.019 1110.6 667.019 1079.58 666.835 1118.04 666.611ZM1109.62 640.948C1151.75 640.725 1220.7 640.725 1262.84 640.948 1304.97 641.172 1270.5 641.354 1186.23 641.354 1101.96 641.354 1067.49 641.171 1109.62 640.948ZM308.907 499.153C309.997 498.717 311.299 498.77 311.8 499.272 312.302 499.774 311.41 500.131 309.819 500.065 308.06 499.993 307.703 499.635 308.907 499.153ZM768.616 486.598C768.616 479.541 768.875 476.654 769.193 480.183 769.511 483.711 769.511 489.485 769.193 493.014 768.875 496.542 768.616 493.655 768.616 486.598ZM794.341 479.051C794.341 467.842 794.579 463.257 794.87 468.861 795.16 474.465 795.16 483.636 794.87 489.24 794.579 494.844 794.341 490.259 794.341 479.051ZM337.679 485.466C335.801 483.072 335.854 483.019 338.249 484.896 340.763 486.868 341.563 488.108 340.32 488.108 340.007 488.108 338.818 486.919 337.679 485.466ZM307.303 473.522C308.341 473.103 310.039 473.103 311.077 473.522 312.115 473.941 311.266 474.284 309.19 474.284 307.114 474.284 306.265 473.941 307.303 473.522Z" fill="#7495BC" transform="matrix(1 0 0 1.00018 1431.88 454.779)"/><path d="M1109.62 1475.72C1151.75 1475.5 1220.7 1475.5 1262.84 1475.72 1304.97 1475.94 1270.5 1476.13 1186.23 1476.13 1101.96 1476.13 1067.49 1475.94 1109.62 1475.72ZM1350 1217.97C1350 1081.81 1350.17 1026.33 1350.39 1094.68 1350.61 1163.03 1350.61 1274.44 1350.39 1342.25 1350.17 1410.05 1350 1354.13 1350 1217.97ZM1048.09 1202.87C1048.09 1066.71 1048.27 1011.23 1048.48 1079.59 1048.7 1147.94 1048.7 1259.34 1048.48 1327.15 1048.27 1394.96 1048.09 1339.03 1048.09 1202.87ZM711.432 1357.6C711.432 1309.86 711.624 1290.33 711.857 1314.2 712.091 1338.07 712.091 1377.13 711.857 1401 711.624 1424.87 711.432 1405.34 711.432 1357.6ZM211.629 1414.96C211.629 1406.24 211.878 1402.68 212.183 1407.04 212.488 1411.39 212.488 1418.53 212.183 1422.89 211.878 1427.25 211.629 1423.68 211.629 1414.96ZM1087.31 1299.48C1087.31 1240.53 1087.5 1216.2 1087.73 1245.41 1087.96 1274.61 1087.96 1322.84 1087.73 1352.58 1087.5 1382.32 1087.31 1358.43 1087.31 1299.48ZM211.767 1372.32C211.372 1371.28 211.226 1280.76 211.443 1171.17L211.836 971.913 212.208 1172.29 212.58 1372.67 311.832 1373.07 411.083 1373.47 311.784 1373.84C233.463 1374.13 212.333 1373.8 211.767 1372.32ZM260.508 1291.56C271.508 1291.3 289.509 1291.3 300.51 1291.56 311.511 1291.82 302.51 1292.03 280.509 1292.03 258.507 1292.03 249.507 1291.82 260.508 1291.56ZM589.959 1244.78 626.186 1244.33 626.571 877.541 626.956 510.751 626.951 877.945 626.947 1245.14 590.34 1245.18 553.733 1245.22ZM673.447 1244.77C682.417 1244.5 696.682 1244.5 705.147 1244.77 713.612 1245.04 706.273 1245.26 688.838 1245.25 671.403 1245.25 664.477 1245.03 673.447 1244.77ZM744.395 1244.77C753.365 1244.5 767.63 1244.5 776.095 1244.77 784.56 1245.04 777.221 1245.26 759.786 1245.25 742.351 1245.25 735.425 1245.03 744.395 1244.77ZM840.168 1244.77C850.339 1244.5 866.981 1244.5 877.152 1244.77 887.322 1245.03 879.001 1245.24 858.66 1245.24 838.319 1245.24 829.998 1245.03 840.168 1244.77ZM795.61 1204.79 795.259 1164.45 769.22 1164 743.181 1163.55 769.267 1163.21C789.178 1162.95 795.528 1163.32 796.088 1164.78 796.491 1165.83 796.628 1184.34 796.391 1205.92L795.961 1245.14ZM703.919 891.908C703.919 718.387 704.095 647.177 704.31 733.664 704.525 820.15 704.525 962.122 704.31 1049.16 704.095 1136.19 703.919 1065.43 703.919 891.908ZM260.508 1202.5C271.508 1202.24 289.509 1202.24 300.51 1202.5 311.511 1202.76 302.51 1202.97 280.509 1202.97 258.507 1202.97 249.507 1202.76 260.508 1202.5ZM1098.39 1182.97C1099.48 1182.54 1100.78 1182.59 1101.29 1183.09 1101.79 1183.59 1100.9 1183.95 1099.3 1183.88 1097.55 1183.81 1097.19 1183.45 1098.39 1182.97ZM260.508 1163.25C271.508 1162.99 289.509 1162.99 300.51 1163.25 311.511 1163.51 302.51 1163.72 280.509 1163.72 258.507 1163.72 249.507 1163.51 260.508 1163.25ZM795.582 1119.51 795.26 1101.05 769.22 1100.6 743.181 1100.15 769.268 1099.81C789.638 1099.54 795.521 1099.9 796.114 1101.45 796.531 1102.54 796.656 1111.2 796.389 1120.69L795.905 1137.96ZM1087.23 1082.86C1087.23 1067.5 1087.45 1061.22 1087.72 1068.9 1088 1076.58 1088 1089.15 1087.72 1096.83 1087.45 1104.51 1087.23 1098.22 1087.23 1082.86ZM260.508 1074.19C271.508 1073.93 289.509 1073.93 300.51 1074.19 311.511 1074.45 302.51 1074.66 280.509 1074.66 258.507 1074.66 249.507 1074.45 260.508 1074.19ZM795.582 1056.11 795.26 1037.65 769.22 1037.2 743.181 1036.75 769.268 1036.41C789.638 1036.14 795.521 1036.5 796.114 1038.05 796.531 1039.14 796.656 1047.8 796.389 1057.29L795.905 1074.56ZM260.508 1034.94C271.508 1034.68 289.509 1034.68 300.51 1034.94 311.511 1035.2 302.51 1035.41 280.509 1035.41 258.507 1035.41 249.507 1035.2 260.508 1034.94ZM795.841 992.292C795.841 981.914 796.083 977.668 796.377 982.857 796.672 988.046 796.672 996.538 796.377 1001.73 796.083 1006.92 795.841 1002.67 795.841 992.292ZM1121.72 979.17C1123.19 978.787 1125.23 978.812 1126.25 979.226 1127.28 979.639 1126.07 979.952 1123.58 979.922 1121.09 979.889 1120.26 979.553 1121.72 979.17ZM1139.06 979.217C1140.09 978.798 1141.79 978.798 1142.83 979.217 1143.87 979.636 1143.02 979.978 1140.94 979.978 1138.87 979.978 1138.02 979.636 1139.06 979.217ZM1349.94 907.004C1349.94 875.455 1350.14 862.334 1350.39 877.846 1350.63 893.359 1350.63 919.172 1350.39 935.208 1350.14 951.245 1349.94 938.553 1349.94 907.004ZM795.841 928.892C795.841 918.514 796.083 914.269 796.377 919.458 796.672 924.647 796.672 933.138 796.377 938.327 796.083 943.516 795.841 939.27 795.841 928.892ZM1048.01 889.644C1048.01 867.643 1048.22 858.642 1048.48 869.643 1048.74 880.644 1048.74 898.645 1048.48 909.646 1048.22 920.647 1048.01 911.646 1048.01 889.644ZM1237.2 927.798C1239.92 927.462 1243.99 927.47 1246.26 927.812 1248.53 928.157 1246.31 928.432 1241.33 928.423 1236.35 928.414 1234.49 928.133 1237.2 927.797ZM795.841 865.492C795.841 855.114 796.083 850.868 796.377 856.057 796.672 861.246 796.672 869.737 796.377 874.927 796.083 880.116 795.841 875.87 795.841 865.492ZM1260.78 846.623C1260.79 835.83 1261.03 831.612 1261.32 837.251 1261.61 842.89 1261.61 851.72 1261.31 856.875 1261.02 862.029 1260.78 857.416 1260.78 846.623ZM1136.98 840.585C1136.98 831.452 1137.23 827.91 1137.53 832.715 1137.83 837.519 1137.83 844.991 1137.53 849.32 1137.22 853.648 1136.98 849.717 1136.98 840.585ZM252.066 823.225C252.066 821.149 252.409 820.3 252.827 821.338 253.246 822.376 253.246 824.074 252.827 825.112 252.409 826.15 252.066 825.301 252.066 823.225ZM795.841 802.092C795.841 791.714 796.083 787.468 796.377 792.657 796.672 797.846 796.672 806.337 796.377 811.526 796.083 816.715 795.841 812.47 795.841 802.092ZM1293.84 766.618C1293.85 762.466 1294.14 760.947 1294.49 763.242 1294.84 765.536 1294.83 768.933 1294.47 770.79 1294.11 772.646 1293.83 770.771 1293.84 766.618ZM769.174 757.204 795.167 756.735 795.661 739.033 796.154 721.332 796.084 739.446 796.014 757.56 769.597 757.617 743.181 757.674ZM1349.93 700.198C1349.93 673.63 1350.14 662.974 1350.39 676.518 1350.64 690.062 1350.64 711.799 1350.39 724.823 1350.14 737.847 1349.93 726.766 1349.93 700.198ZM1048.03 732.237C1047.62 731.177 1047.49 716.063 1047.73 698.65L1048.17 666.988 1048.52 699.777 1048.86 732.565 1068.86 733.034 1088.86 733.503 1068.82 733.833C1053.71 734.082 1048.58 733.688 1048.03 732.237ZM1145.2 733.031C1168.71 732.797 1206.75 732.797 1229.73 733.032 1252.72 733.266 1233.48 733.457 1186.98 733.457 1140.49 733.457 1121.69 733.265 1145.2 733.031ZM1295.36 733.041C1300.99 732.75 1309.82 732.751 1314.98 733.045 1320.13 733.339 1315.52 733.577 1304.73 733.575 1293.93 733.572 1289.72 733.332 1295.36 733.041ZM401.566 727.369C401.596 724.878 401.935 724.042 402.318 725.51 402.7 726.979 402.675 729.017 402.262 730.039 401.848 731.061 401.535 729.859 401.566 727.369ZM244.732 720.576C244.732 716.009 245.015 714.141 245.361 716.424 245.707 718.708 245.707 722.444 245.361 724.727 245.015 727.01 244.732 725.142 244.732 720.576ZM401.391 710.638C401.463 708.879 401.821 708.522 402.303 709.726 402.739 710.816 402.685 712.117 402.184 712.619 401.682 713.121 401.325 712.229 401.391 710.638ZM769.175 693.803 795.17 693.333 795.663 674.497 796.155 655.661 796.085 674.91 796.015 694.159 769.598 694.216 743.181 694.272ZM795.846 611.134C795.849 600.341 796.089 596.124 796.38 601.763 796.672 607.401 796.67 616.232 796.376 621.387 796.082 626.541 795.844 621.928 795.846 611.134ZM795.856 546.225C795.858 534.601 796.095 530.046 796.382 536.101 796.669 542.157 796.668 551.667 796.378 557.235 796.088 562.803 795.853 557.848 795.856 546.225ZM641.686 499.101C643.98 498.754 647.377 498.763 649.233 499.119 651.09 499.478 649.215 499.762 645.061 499.75 640.91 499.741 639.391 499.446 641.686 499.099ZM678.523 499.177C677.134 497.789 677.249 474.867 678.649 473.995 679.271 473.607 679.561 478.992 679.293 485.96L678.806 498.629 723.825 499.052 768.843 499.475 724.186 499.829C699.625 500.024 679.076 499.73 678.523 499.177ZM798.656 499.102C800.94 498.757 804.676 498.757 806.959 499.102 809.242 499.448 807.374 499.731 802.808 499.731 798.241 499.731 796.373 499.448 798.656 499.102ZM706.575 473.394C716.33 473.132 732.294 473.132 742.049 473.394 751.804 473.657 743.823 473.872 724.312 473.872 704.801 473.872 696.82 473.657 706.575 473.394ZM711.441 196.767C711.441 138.235 711.628 114.29 711.858 143.556 712.087 172.822 712.087 220.712 711.858 249.978 711.628 279.245 711.441 255.3 711.441 196.767ZM722.519 79.5022C723.609 79.0661 724.911 79.1198 725.413 79.6214 725.914 80.123 725.023 80.4798 723.431 80.4142 721.673 80.3418 721.315 79.9841 722.519 79.5022Z" fill="#4470A5" transform="matrix(1 0 0 1.00018 1431.88 454.779)"/><path d="M1332.46 813.035C1330.58 810.641 1330.64 810.587 1333.03 812.465 1334.48 813.604 1335.67 814.793 1335.67 815.107 1335.67 816.349 1334.43 815.55 1332.46 813.035ZM1066.98 795.483C1066.98 795.169 1068.16 793.98 1069.62 792.841 1072.01 790.963 1072.06 791.017 1070.19 793.411 1068.22 795.925 1066.98 796.725 1066.98 795.483ZM1095.3 733.094C1097.17 732.733 1099.89 732.747 1101.34 733.122 1102.78 733.5 1101.24 733.796 1097.92 733.779 1094.6 733.76 1093.42 733.453 1095.3 733.092ZM1272.65 733.122C1274.1 732.743 1276.48 732.743 1277.93 733.122 1279.39 733.502 1278.2 733.813 1275.29 733.813 1272.39 733.813 1271.2 733.502 1272.65 733.122ZM278.999 487.538C278.999 487.224 280.188 486.036 281.641 484.896 284.035 483.019 284.089 483.072 282.211 485.466 280.239 487.981 278.999 488.78 278.999 487.538ZM686.29 473.491C687.38 473.055 688.682 473.108 689.184 473.61 689.685 474.112 688.793 474.469 687.202 474.403 685.444 474.331 685.086 473.973 686.29 473.491ZM727.048 328.576C728.137 328.14 729.439 328.193 729.941 328.695 730.443 329.196 729.551 329.553 727.96 329.488 726.201 329.415 725.844 329.058 727.048 328.576Z" fill="#225694" transform="matrix(1 0 0 1.00018 1431.88 454.779)"/><path d="M722.519 1244.86C723.609 1244.43 724.911 1244.48 725.412 1244.98 725.914 1245.48 725.022 1245.84 723.431 1245.77 721.673 1245.7 721.315 1245.34 722.519 1244.86ZM1260.32 869.139C1260.39 867.381 1260.75 867.023 1261.23 868.227 1261.66 869.317 1261.61 870.619 1261.11 871.12 1260.61 871.622 1260.25 870.73 1260.31 869.139ZM382.259 854.547 379.383 851.151 382.78 854.026C385.972 856.729 386.863 857.943 385.655 857.943 385.369 857.943 383.841 856.415 382.259 854.547ZM1082.07 815.107C1082.07 814.793 1083.26 813.604 1084.71 812.465 1087.11 810.587 1087.16 810.641 1085.28 813.035 1083.31 815.549 1082.07 816.349 1082.07 815.107ZM722.519 328.576C723.609 328.14 724.911 328.193 725.412 328.695 725.914 329.196 725.022 329.553 723.431 329.488 721.673 329.415 721.315 329.058 722.519 328.576Z" fill="#11498C" transform="matrix(1 0 0 1.00018 1431.88 454.779)"/><path d="M222.362 1481.64C212.162 1476.78 201.305 1466.72 195.414 1456.67 186.512 1441.48 186.917 1453.96 186.924 1195.38 186.93 938.929 186.729 945.684 195.069 920.88 202.878 897.652 212.172 882.915 232.268 861.894 248.374 845.047 252.373 837.366 252.404 823.224 252.426 812.625 250.837 808.528 237.477 784.731 223.97 760.675 218.183 732.361 221.326 705.71 223.332 688.693 269.881 504.652 274.437 495.722 280.515 483.808 296.069 474.522 309.945 474.522 324.178 474.522 339.296 483.741 345.227 496.037 350.094 506.127 399.61 690.842 401.201 704.843 404.631 735.034 396.274 769.263 378.969 795.894 368.664 811.753 367.064 827.559 374.259 842.421 376.062 846.146 382.43 854.07 388.409 860.031 414.084 885.623 428.059 912.514 433.673 947.132 435.669 959.439 435.979 992.668 435.985 1194.74 435.989 1345.23 435.451 1430.98 434.47 1436.16 431.008 1454.41 419.279 1470.82 402.937 1480.26L394.479 1485.15 312.964 1485.56 231.449 1485.96ZM386.979 1461.08C395.807 1457.39 402.454 1451.31 406.481 1443.22 409.978 1436.21 410.329 1433.81 410.329 1416.93L410.329 1398.36 310.7 1398.36 211.07 1398.36 211.07 1413.93C211.07 1439.57 217.165 1452.37 232.852 1459.67L240.506 1463.24 311.125 1463.25C369.399 1463.27 382.66 1462.88 386.979 1461.08ZM410.329 1172.68 410.329 971.158 310.7 971.158 211.07 971.158 211.07 1172.68 211.07 1374.2 310.7 1374.2 410.329 1374.2ZM234.4 1287.47C230.381 1283.46 229.583 1276.9 232.629 1272.93 236.83 1267.46 240.422 1267.03 281.281 1267.03L321.499 1267.03 325.911 1271.44C331.304 1276.83 331.532 1281.89 326.622 1287.19L322.92 1291.18 280.512 1291.18 238.105 1291.18ZM237.487 1225.96C229.848 1221.57 228.47 1213.26 234.4 1207.33L238.105 1203.63 280.512 1203.63 322.92 1203.63 326.622 1207.62C331.532 1212.92 331.304 1217.97 325.911 1223.37L321.499 1227.78 281.002 1227.73C253.385 1227.7 239.546 1227.14 237.487 1225.95ZM234.4 1159.16C230.381 1155.15 229.583 1148.59 232.629 1144.62 236.83 1139.15 240.422 1138.72 281.281 1138.72L321.499 1138.72 325.911 1143.13C331.304 1148.52 331.532 1153.58 326.622 1158.87L322.92 1162.87 280.512 1162.87 238.105 1162.87ZM237.487 1097.65C229.848 1093.26 228.47 1084.95 234.4 1079.02L238.105 1075.32 280.512 1075.32 322.92 1075.32 326.622 1079.31C331.532 1084.61 331.304 1089.66 325.911 1095.06L321.499 1099.47 281.002 1099.42C253.385 1099.39 239.546 1098.83 237.487 1097.64ZM234.4 1030.85C230.381 1026.83 229.583 1020.28 232.629 1016.31 236.83 1010.84 240.422 1010.41 281.281 1010.41L321.499 1010.41 325.911 1014.82C331.304 1020.21 331.532 1025.27 326.622 1030.56L322.92 1034.56 280.512 1034.56 238.105 1034.56ZM408.819 944.901C408.819 940.764 402.355 921.941 397.879 913.042 390.962 899.292 385.352 891.757 370.252 875.939 350.503 855.25 344.154 840.183 345.838 817.998 346.803 805.279 349.461 798.247 360.113 780.23 364.54 772.743 369.985 761.182 372.213 754.54 375.929 743.463 376.26 740.53 376.207 719.066L376.151 695.669 350.348 601.558C330.529 529.273 323.759 506.611 321.155 503.839 314.087 496.316 299.875 498.207 295.77 507.216 294.835 509.267 283.099 553.867 269.688 606.326L245.306 701.707 245.289 719.066C245.265 743.516 250.745 762.209 264.168 783.462 276.41 802.846 279.811 819.608 275.265 838.156 271.762 852.451 264.748 863.672 249.685 879.077 231.766 897.404 223.582 910.501 217.28 930.937 211.703 949.025 199.872 947.006 311.454 947.006 393.726 947.006 408.819 946.68 408.819 944.901ZM1028.03 1472.28C1026.22 1470.6 1024.38 1467.71 1023.93 1465.87 1023.48 1464.02 1023.3 1322.58 1023.53 1151.55L1023.95 840.584 1028.76 830.433C1034.69 817.922 1043.98 808.647 1057.14 802.104 1073.03 794.202 1079.05 784.503 1079.05 766.819L1079.05 758.314 1055.54 758.314 1032.02 758.314 1027.61 753.902 1023.2 749.489 1023.2 700.197 1023.2 650.905 1027.61 646.493 1032.02 642.08 1186.94 642.08 1341.85 642.08 1345.55 645.785 1349.26 649.491 1349.26 699.25C1349.26 726.618 1348.84 750.11 1348.32 751.454 1346.22 756.925 1339.7 758.314 1316.12 758.314L1293.41 758.314 1293.41 765.588C1293.41 783.428 1300.49 794.086 1318.69 803.613 1330.07 809.568 1339.07 818.953 1344.49 830.508L1348.5 839.074 1348.9 1153.49 1349.29 1467.9 1345.57 1471.62 1341.85 1475.34 1186.58 1475.34C1032.7 1475.34 1031.29 1475.31 1028.03 1472.28ZM1325.11 1214.44 1325.11 977.692 1316.18 975.21C1311.27 973.845 1299.89 969.351 1290.89 965.225 1269.41 955.371 1259.92 953.039 1241.39 953.066 1222.26 953.095 1211.21 955.707 1190.99 964.98 1182.15 969.036 1171.51 973.437 1167.36 974.76 1155.73 978.465 1133.74 980.225 1118.68 978.656 1101.91 976.908 1092.77 974.179 1072.94 964.994 1064.18 960.937 1054.84 957.183 1052.18 956.652L1047.35 955.686 1047.35 1203.44 1047.35 1451.19 1186.23 1451.19 1325.11 1451.19ZM1091.81 1412.77 1088.11 1409.06 1088.11 1299.81 1088.11 1190.57 1091.6 1187.28C1095.05 1184.05 1100.62 1183.1 1105.4 1184.94 1112.22 1187.56 1112.26 1188.19 1112.26 1300.26 1112.26 1377.83 1111.79 1406.98 1110.51 1409.4 1106.31 1417.27 1097.85 1418.8 1091.81 1412.77ZM1091.81 1116.9C1088.13 1113.21 1088.11 1113.05 1088.11 1082.86 1088.11 1052.68 1088.13 1052.52 1091.81 1048.83 1096.8 1043.85 1102.4 1044.09 1107.85 1049.54L1112.26 1053.95 1112.26 1082.09C1112.26 1110.5 1111.59 1114.65 1106.35 1118.67 1102.39 1121.71 1095.83 1120.92 1091.81 1116.9ZM1154.83 952.885C1159.23 951.968 1171.66 947.291 1182.45 942.492 1209.1 930.645 1220.29 928.324 1246.4 929.23 1268.84 930.009 1280.62 932.974 1299.88 942.697 1305.03 945.297 1312.81 948.652 1317.17 950.153L1325.11 952.881 1325.07 899.752C1325.04 851.176 1324.8 846.091 1322.23 840.425 1318.6 832.432 1314.54 828.737 1302.34 822.312 1290.57 816.113 1283.1 808.86 1277.01 797.702L1272.55 789.54 1266.37 809.195C1260.28 828.579 1260.2 829.163 1260.2 851.699 1260.2 872.438 1259.92 874.824 1257.22 877.529 1255.58 879.168 1252.69 880.893 1250.8 881.361 1248.91 881.83 1218.61 882.017 1183.46 881.777L1119.55 881.341 1115.9 877.106C1112.4 873.03 1112.26 872.003 1112.26 849.902 1112.26 827.465 1112.13 826.499 1106.41 808.154L1100.56 789.373 1096.74 796.917C1091.75 806.767 1081.4 816.649 1069.63 822.812 1058.11 828.848 1051.25 836.266 1049.02 845.088 1048.01 849.1 1047.35 867.218 1047.35 890.819L1047.35 929.906 1056.72 932.509C1061.86 933.941 1073.58 938.601 1082.75 942.866 1091.93 947.13 1102.83 951.447 1106.98 952.458 1116.62 954.806 1144.43 955.054 1154.83 952.885ZM1236.04 840.922C1236.04 826.014 1236.44 824.116 1246.32 792.239L1256.59 759.069 1187.21 758.677C1149.05 758.461 1117.55 758.563 1117.21 758.905 1116.86 759.247 1121.05 773.778 1126.5 791.195 1136.22 822.243 1136.41 823.193 1136.41 839.649L1136.41 856.434 1186.23 856.434 1236.04 856.434ZM1325.11 700.197 1325.11 666.233 1186.23 666.233 1047.35 666.233 1047.35 700.197 1047.35 734.162 1186.23 734.162 1325.11 734.162ZM619.156 1466.4C611.045 1461.43 610.589 1452.07 618.214 1447.06 621.374 1444.98 626.611 1444.23 642.024 1443.64L661.783 1442.89 651.886 1356.84 641.988 1270.8 595.974 1269.99C570.667 1269.54 549.817 1269.04 549.642 1268.86 541.928 1261.07 541.108 1255.36 546.873 1249.6L550.578 1245.89 589.14 1245.89 627.701 1245.89 627.701 876.744 627.701 507.595 631.407 503.889C634.523 500.773 636.561 500.184 644.238 500.184L653.364 500.184 653.364 479.135C653.364 459.392 653.577 457.837 656.81 454.079 659.338 451.14 662.159 449.858 667.398 449.268 673.092 448.626 674.684 447.814 675.253 445.265 675.645 443.506 680.354 412.612 685.716 376.612 693.151 326.7 696.083 310.475 698.067 308.283 699.498 306.702 703.271 304.992 706.452 304.484L712.235 303.559 712.235 195.329 712.235 87.0983 715.729 83.8161C719.172 80.5821 724.743 79.6355 729.527 81.4716 736.353 84.0909 736.388 84.6785 736.388 197.448L736.388 303.945 739.958 303.945C744.083 303.945 750.935 308.862 752.107 312.664 752.85 315.073 772.607 445.2 772.614 447.728 772.615 448.351 775.039 448.86 777.999 448.86 783.873 448.86 788.945 451.028 791.815 454.767 793.057 456.385 793.67 464.149 793.702 478.673L793.75 500.184 803.185 500.232C812.996 500.282 816.202 501.691 819.166 507.255 820.487 509.736 820.922 601.589 820.922 878.223L820.922 1245.89 859.152 1245.89C896.885 1245.89 897.422 1245.94 900.439 1249.29 902.121 1251.16 903.932 1253.92 904.465 1255.42 905.828 1259.27 901.508 1266.88 896.983 1268.6 894.882 1269.4 873.697 1270.05 849.597 1270.05L806.012 1270.05 805.117 1276.46C803.882 1285.32 786.203 1439.91 786.203 1441.84 786.203 1442.82 793.796 1443.59 806.464 1443.9 825.489 1444.37 826.964 1444.62 830.617 1448.06 835.841 1452.97 835.84 1459.98 830.613 1464.89L826.718 1468.55 725.323 1468.94C627.271 1469.32 623.77 1469.23 619.157 1466.4ZM712.235 1356.84 712.235 1270.05 689.592 1270.05C669.034 1270.05 666.949 1270.29 666.949 1272.69 666.948 1275.85 684.733 1431.69 685.898 1438.74L686.71 1443.64 699.473 1443.64 712.235 1443.64ZM770.93 1359.49C776.162 1313.2 780.766 1274.14 781.16 1272.69 781.82 1270.26 780.061 1270.05 759.133 1270.05L736.388 1270.05 736.388 1356.84 736.388 1443.64 748.903 1443.64 761.417 1443.64ZM796.416 1204 796.818 1162.87 769.152 1162.87C743.731 1162.87 741.227 1162.63 738.3 1159.9 733.85 1155.76 732.847 1151.54 735.162 1146.71 738.558 1139.63 742.417 1138.76 770.73 1138.74L796.769 1138.72 796.769 1119.09 796.769 1099.47 769.128 1099.47C743.731 1099.47 741.227 1099.23 738.3 1096.5 733.85 1092.35 732.847 1088.14 735.162 1083.31 738.558 1076.23 742.417 1075.36 770.73 1075.34L796.769 1075.31 796.769 1055.69 796.769 1036.07 769.128 1036.07C743.731 1036.07 741.227 1035.82 738.3 1033.1 733.85 1028.95 732.847 1024.73 735.162 1019.91 738.558 1012.82 742.417 1011.96 770.73 1011.94L796.769 1011.91 796.769 992.288 796.769 972.664 769.682 972.664C743.453 972.664 742.464 972.552 738.485 969.129 732.846 964.279 732.846 956.897 738.485 952.046 742.464 948.623 743.453 948.511 769.682 948.511L796.769 948.511 796.769 928.887 796.769 909.264 769.682 909.264C743.453 909.264 742.464 909.151 738.485 905.729 735.549 903.203 734.375 900.765 734.375 897.187 734.375 893.61 735.549 891.172 738.485 888.646 742.464 885.223 743.453 885.111 769.682 885.111L796.769 885.111 796.769 865.487 796.769 845.863 769.682 845.863C743.453 845.863 742.464 845.751 738.485 842.328 735.549 839.802 734.375 837.364 734.375 833.787 734.375 830.21 735.549 827.771 738.485 825.245 742.464 821.823 743.453 821.711 769.682 821.711L796.769 821.711 796.769 802.087 796.769 782.463 770.73 782.439C742.417 782.416 738.558 781.55 735.162 774.468 732.847 769.64 733.85 765.422 738.3 761.277 741.227 758.55 743.731 758.309 769.128 758.309L796.769 758.309 796.769 738.685 796.769 719.061 770.73 719.037C742.417 719.014 738.558 718.148 735.162 711.066 732.847 706.238 733.85 702.021 738.3 697.875 741.227 695.148 743.731 694.907 769.128 694.907L796.769 694.907 796.769 675.283 796.769 655.659 771.032 655.659C742.809 655.659 738.472 654.641 735.092 647.222 733.618 643.987 733.6 642.141 735.011 638.735 738.19 631.06 742.573 629.997 771.033 629.997L796.77 629.997 796.77 611.128 796.77 592.259 771.033 592.259C742.809 592.259 738.472 591.241 735.092 583.822 733.618 580.587 733.6 578.74 735.011 575.335 738.19 567.66 742.573 566.597 771.033 566.597L796.77 566.597 796.77 545.463 796.77 524.33 724.312 524.33 651.854 524.33 651.854 885.123 651.854 1245.92 723.935 1245.52 796.015 1245.13ZM686.739 1215.09C678.69 1210.66 679.137 1229.47 679.079 892.356 679.037 652.39 679.449 577.893 680.829 574.864 682.986 570.129 689.836 566.245 693.648 567.594 695.154 568.127 697.914 569.939 699.782 571.62L703.178 574.678 703.178 891.908 703.178 1209.14 699.782 1212.25C695.092 1216.54 690.99 1217.43 686.739 1215.09ZM769.598 486.598 769.598 473.013 723.557 473.013 677.516 473.013 677.516 486.598 677.516 500.184 723.557 500.184 769.598 500.184ZM747.843 444.709C747.063 440.947 730.35 330.106 730.35 328.696 730.35 328.367 727.454 328.097 723.914 328.097L717.478 328.097 708.775 386.592C703.988 418.764 700.091 445.935 700.115 446.973 700.148 448.403 706.043 448.86 724.432 448.86L748.704 448.86Z" fill="#003C84" transform="matrix(1 0 0 1.00018 1431.88 454.779)"/></g></g></g></g></svg>