<svg width="1399" height="1696" xmlns="http://www.w3.org/2000/svg" xmlns:xlink="http://www.w3.org/1999/xlink" xml:space="preserve" overflow="hidden"><defs><clipPath id="clip0"><rect x="1499" y="353" width="1399" height="1696"/></clipPath></defs><g clip-path="url(#clip0)" transform="translate(-1499 -353)"><path d="M2198.5 790.282C1939.27 244.341 1499 571.906 1499 877.632 1499 1336.22 2198.5 1904 2198.5 1904 2198.5 1904 2898 1336.22 2898 877.632 2898 571.906 2457.73 244.341 2198.5 790.282Z" fill="#FF0000" fill-rule="evenodd" fill-opacity="0.4"/><g><g><g><path d="M1686.54 1899.5C1686.65 1896.88 1687.18 1896.34 1687.9 1898.14 1688.55 1899.76 1688.47 1901.7 1687.72 1902.45 1686.98 1903.2 1686.44 1901.87 1686.54 1899.5ZM1490.66 1622.49 1469.34 1600.57 1491.26 1621.89C1511.63 1641.69 1514.21 1644.42 1512.58 1644.42 1512.25 1644.42 1502.38 1634.55 1490.66 1622.49ZM1593.03 1529.72C1631.36 1491.38 1663.23 1460 1663.85 1460 1664.47 1460 1633.61 1491.38 1595.28 1529.72 1556.95 1568.07 1525.08 1599.44 1524.46 1599.44 1523.84 1599.44 1554.7 1568.07 1593.03 1529.72ZM1434.48 1580.32C1437.38 1577.23 1440.26 1574.7 1440.88 1574.7 1441.5 1574.7 1439.63 1577.23 1436.72 1580.32 1433.82 1583.42 1430.94 1585.95 1430.32 1585.95 1429.7 1585.95 1431.57 1583.42 1434.48 1580.32ZM1424.29 1556.15 1408.61 1539.84 1424.92 1555.53C1440.06 1570.09 1442.25 1572.45 1440.6 1572.45 1440.26 1572.45 1432.92 1565.12 1424.29 1556.15ZM1373.75 1519.6C1376.66 1516.51 1379.54 1513.98 1380.16 1513.98 1380.78 1513.98 1378.91 1516.51 1376 1519.6 1373.1 1522.69 1370.21 1525.22 1369.59 1525.22 1368.98 1525.22 1370.85 1522.69 1373.75 1519.6ZM1357.96 1489.8 1336.64 1467.87 1358.57 1489.2C1378.94 1509 1381.52 1511.73 1379.89 1511.73 1379.56 1511.73 1369.69 1501.86 1357.96 1489.8ZM1205.64 1496.69C1207.8 1496.12 1211.35 1496.12 1213.51 1496.69 1215.68 1497.25 1213.9 1497.71 1209.57 1497.71 1205.25 1497.71 1203.47 1497.25 1205.64 1496.69ZM1444.6 1448.76C1464.36 1428.97 1481.03 1412.77 1481.65 1412.77 1482.27 1412.77 1466.61 1428.97 1446.85 1448.76 1427.08 1468.55 1410.41 1484.74 1409.79 1484.74 1409.17 1484.74 1424.83 1468.55 1444.6 1448.76ZM1585.12 1430.2C1607.02 1407.75 1609.9 1405 1609.9 1406.63 1609.9 1406.96 1599.02 1417.84 1585.72 1430.81L1561.54 1454.38ZM1417.61 1354.3C1437.37 1334.51 1454.05 1318.31 1454.66 1318.31 1455.28 1318.31 1439.62 1334.51 1419.86 1354.3 1400.09 1374.09 1383.42 1390.28 1382.8 1390.28 1382.18 1390.28 1397.85 1374.09 1417.61 1354.3ZM1639.14 1376.09C1639.14 1375.7 1642.43 1372.41 1646.45 1368.78L1653.75 1362.17 1647.15 1369.48C1640.99 1376.29 1639.14 1377.82 1639.14 1376.09ZM1578.41 1315.36C1578.41 1314.97 1581.7 1311.69 1585.72 1308.05L1593.03 1301.45 1586.43 1308.76C1580.27 1315.57 1578.41 1317.1 1578.41 1315.36ZM1078.71 1202.08C1080.33 1201.43 1082.27 1201.51 1083.02 1202.26 1083.77 1203 1082.44 1203.54 1080.07 1203.44 1077.45 1203.33 1076.92 1202.8 1078.71 1202.08ZM1096.56 1161.64C1098.11 1161.02 1100.64 1161.02 1102.18 1161.64 1103.73 1162.27 1102.47 1162.78 1099.37 1162.78 1096.28 1162.78 1095.02 1162.27 1096.56 1161.64ZM1560.78 1156.39C1560.78 1153.29 1561.29 1152.03 1561.91 1153.57 1562.53 1155.12 1562.53 1157.65 1561.91 1159.2 1561.29 1160.74 1560.78 1159.48 1560.78 1156.39ZM1560.78 1133.9C1560.78 1130.8 1561.29 1129.54 1561.91 1131.08 1562.53 1132.63 1562.53 1135.16 1561.91 1136.71 1561.29 1138.25 1560.78 1136.99 1560.78 1133.9ZM1225.5 1040.37C1225.6 1037.75 1226.14 1037.22 1226.85 1039.02 1227.5 1040.64 1227.42 1042.58 1226.68 1043.33 1225.93 1044.07 1225.4 1042.74 1225.49 1040.37ZM1265.98 1022.38C1266.09 1019.76 1266.62 1019.23 1267.34 1021.02 1267.99 1022.65 1267.91 1024.59 1267.16 1025.33 1266.41 1026.08 1265.88 1024.75 1265.98 1022.38ZM1135.35 653.169 819.371 336.621 1135.92 652.604C1310.02 826.395 1452.47 968.842 1452.47 969.153 1452.47 969.463 1452.21 969.718 1451.9 969.718 1451.59 969.718 1309.15 827.271 1135.35 653.169Z" fill="#BACADD" transform="matrix(1 0 0 1.00015 1166.11 60.7451)"/><path d="M1686.32 1426.83 1665 1404.9 1686.93 1426.22C1707.29 1446.03 1709.88 1448.76 1708.25 1448.76 1707.91 1448.76 1698.05 1438.89 1686.32 1426.83ZM683.303 1091.73 356.075 763.933 683.868 1091.16C864.154 1271.14 1011.66 1418.64 1011.66 1418.96 1011.66 1419.27 1011.41 1419.52 1011.1 1419.52 1010.79 1419.52 863.279 1272.01 683.303 1091.73ZM1619.96 1360.48 1604.28 1344.18 1620.58 1359.86C1635.73 1374.43 1637.91 1376.79 1636.26 1376.79 1635.92 1376.79 1628.58 1369.45 1619.96 1360.48ZM1553.63 1294.14 1532.31 1272.21 1554.24 1293.53C1574.6 1313.33 1577.19 1316.07 1575.56 1316.07 1575.22 1316.07 1565.36 1306.2 1553.63 1294.14ZM715.365 915.192 478.669 678.497 439.862 716.709 401.055 754.921 439.854 715.576 478.653 676.231 716.481 914.06C847.286 1044.87 953.803 1151.89 953.185 1151.89 952.566 1151.89 845.547 1045.38 715.365 915.192ZM951.503 679.038 714.8 442.335 609.655 546.906 504.509 651.477 609.651 545.778 714.794 440.08 952.625 677.911C1083.43 808.718 1189.95 915.742 1189.33 915.742 1188.71 915.742 1081.69 809.225 951.503 679.038ZM778.889 375.979C799.89 354.951 817.578 337.746 818.197 337.746 818.815 337.746 802.139 354.951 781.138 375.979 760.137 397.007 742.448 414.212 741.83 414.212 741.211 414.212 757.888 397.007 778.889 375.979Z" fill="#99B0CD" transform="matrix(1 0 0 1.00015 1166.11 60.7451)"/><path d="M1600.37 1986.93C1603.16 1986.39 1607.21 1986.41 1609.36 1986.97 1611.51 1987.53 1609.22 1987.97 1604.28 1987.95 1599.33 1987.92 1597.57 1987.46 1600.37 1986.93ZM1601.51 1948.73C1603.7 1948.16 1606.73 1948.2 1608.25 1948.81 1609.78 1949.43 1607.99 1949.89 1604.28 1949.85 1600.57 1949.8 1599.32 1949.3 1601.51 1948.73ZM1650.3 1444.82 1638.01 1431.89 1650.94 1444.18C1662.96 1455.6 1664.91 1457.75 1663.24 1457.75 1662.88 1457.75 1657.07 1451.93 1650.3 1444.82ZM1590.73 1385.22 1572.79 1366.67 1591.34 1384.61C1601.55 1394.47 1609.9 1402.82 1609.9 1403.16 1609.9 1404.8 1607.39 1402.46 1590.73 1385.22ZM718.163 1072.61 401.055 754.937 718.728 1072.04C893.448 1246.45 1036.4 1389.41 1036.4 1389.72 1036.4 1390.03 1036.15 1390.28 1035.84 1390.28 1035.53 1390.28 892.572 1247.33 718.163 1072.61ZM1533.39 1327.87 1512.07 1305.95 1533.99 1327.27C1554.36 1347.07 1556.95 1349.8 1555.32 1349.8 1554.98 1349.8 1545.11 1339.93 1533.39 1327.87ZM1103.31 1199.88C1104.85 1199.25 1107.39 1199.25 1108.93 1199.88 1110.48 1200.5 1109.21 1201.01 1106.12 1201.01 1103.03 1201.01 1101.76 1200.5 1103.31 1199.88ZM1105.7 1161.6C1107.32 1160.95 1109.26 1161.03 1110.01 1161.77 1110.76 1162.52 1109.43 1163.05 1107.06 1162.96 1104.44 1162.85 1103.9 1162.31 1105.7 1161.6ZM1522.8 1145.14C1522.8 1139.57 1523.24 1137.3 1523.77 1140.08 1524.31 1142.86 1524.31 1147.42 1523.77 1150.2 1523.24 1152.98 1522.8 1150.71 1522.8 1145.14ZM1560.78 1145.14C1560.78 1142.05 1561.29 1140.78 1561.91 1142.33 1562.53 1143.88 1562.53 1146.41 1561.91 1147.95 1561.29 1149.5 1560.78 1148.23 1560.78 1145.14ZM1188.21 1124.9C1190.45 1122.43 1192.79 1120.4 1193.4 1120.4 1194.02 1120.4 1192.7 1122.43 1190.46 1124.9 1188.22 1127.37 1185.88 1129.4 1185.26 1129.4 1184.64 1129.4 1185.97 1127.37 1188.21 1124.9ZM740.652 885.942 504.509 649.234 741.218 885.376C871.408 1015.25 977.926 1121.77 977.926 1122.08 977.926 1122.4 977.671 1122.65 977.36 1122.65 977.049 1122.65 870.53 1016.13 740.651 885.942ZM1263.73 1047.12C1263.84 1044.5 1264.37 1043.97 1265.09 1045.76 1265.74 1047.39 1265.66 1049.33 1264.91 1050.07 1264.16 1050.82 1263.63 1049.49 1263.73 1047.12ZM410.051 690.84C438.481 662.39 462.247 639.113 462.866 639.113 463.484 639.113 440.73 662.39 412.3 690.84 383.87 719.29 360.103 742.568 359.485 742.568 358.866 742.568 381.621 719.29 410.051 690.84ZM583.225 517.667C646.3 454.582 698.414 402.967 699.032 402.967 699.651 402.967 648.549 454.582 585.474 517.667 522.398 580.751 470.285 632.366 469.666 632.366 469.048 632.366 520.149 580.751 583.225 517.667ZM756.399 344.493C784.828 316.043 808.595 292.765 809.214 292.765 809.832 292.765 787.078 316.043 758.648 344.493 730.218 372.943 706.451 396.22 705.833 396.22 705.214 396.22 727.969 372.943 756.399 344.493Z" fill="#6A8DB7" transform="matrix(1 0 0 1.00015 1166.11 60.7451)"/><path d="M1558.53 1896.31C1558.53 1893.22 1559.04 1891.95 1559.66 1893.5 1560.29 1895.05 1560.29 1897.58 1559.66 1899.12 1559.04 1900.67 1558.53 1899.4 1558.53 1896.31ZM1648.65 1894.06C1648.65 1889.73 1649.12 1887.96 1649.68 1890.13 1650.25 1892.29 1650.25 1895.83 1649.68 1898 1649.12 1900.16 1648.65 1898.39 1648.65 1894.06ZM1182.02 1494.5C1183.57 1493.87 1186.1 1493.87 1187.65 1494.5 1189.19 1495.12 1187.93 1495.63 1184.84 1495.63 1181.74 1495.63 1180.48 1495.12 1182.02 1494.5ZM1231.5 1494.5C1233.05 1493.87 1235.58 1493.87 1237.12 1494.5 1238.67 1495.12 1237.41 1495.63 1234.31 1495.63 1231.22 1495.63 1229.96 1495.12 1231.5 1494.5ZM1204.51 1458.42C1207.3 1457.88 1211.85 1457.88 1214.63 1458.42 1217.42 1458.95 1215.14 1459.39 1209.57 1459.39 1204.01 1459.39 1201.73 1458.95 1204.51 1458.42ZM1096.7 1199.83C1098.33 1199.18 1100.27 1199.26 1101.01 1200.01 1101.76 1200.76 1100.43 1201.29 1098.06 1201.19 1095.44 1201.08 1094.91 1200.55 1096.7 1199.83ZM1080.96 1163.85C1082.58 1163.2 1084.52 1163.28 1085.27 1164.02 1086.02 1164.77 1084.69 1165.3 1082.32 1165.2 1079.7 1165.1 1079.17 1164.56 1080.96 1163.85ZM1522.54 1158.63C1522.54 1155.54 1523.05 1154.28 1523.68 1155.82 1524.3 1157.37 1524.3 1159.9 1523.68 1161.45 1523.05 1162.99 1522.54 1161.73 1522.54 1158.63ZM1522.54 1131.65C1522.54 1128.55 1523.05 1127.29 1523.68 1128.84 1524.3 1130.38 1524.3 1132.91 1523.68 1134.46 1523.05 1136 1522.54 1134.74 1522.54 1131.65ZM1263.73 1040.37C1263.84 1037.75 1264.37 1037.22 1265.09 1039.02 1265.74 1040.64 1265.66 1042.58 1264.91 1043.33 1264.16 1044.07 1263.63 1042.74 1263.73 1040.37ZM1227.92 1023.69C1227.92 1020.6 1228.43 1019.34 1229.06 1020.88 1229.68 1022.43 1229.68 1024.96 1229.06 1026.51 1228.43 1028.05 1227.92 1026.79 1227.92 1023.69Z" fill="#4B75A8" transform="matrix(1 0 0 1.00015 1166.11 60.7451)"/><path d="M1620.02 1556.71C1667.01 1509.71 1705.97 1471.25 1706.58 1471.25 1707.2 1471.25 1669.26 1509.71 1622.27 1556.71 1575.28 1603.71 1536.32 1642.17 1535.7 1642.17 1535.08 1642.17 1573.03 1603.71 1620.02 1556.71ZM1456.97 1612.23C1456.97 1611.84 1460.26 1608.56 1464.28 1604.92L1471.58 1598.32 1464.98 1605.63C1458.82 1612.44 1456.97 1613.97 1456.97 1612.23ZM1508.63 1586.51 1494.07 1571.33 1509.26 1585.88C1523.36 1599.4 1525.46 1601.69 1523.81 1601.69 1523.46 1601.69 1516.63 1594.86 1508.63 1586.51ZM1396.24 1551.51C1396.24 1551.12 1399.53 1547.83 1403.55 1544.2L1410.86 1537.59 1404.26 1544.9C1398.1 1551.72 1396.24 1553.25 1396.24 1551.51ZM1453.54 1531.41 1435.6 1512.85 1454.15 1530.79C1464.36 1540.66 1472.71 1549.01 1472.71 1549.35 1472.71 1550.99 1470.2 1548.64 1453.54 1531.41ZM1471.58 1475.75C1491.35 1455.95 1508.02 1439.76 1508.64 1439.76 1509.26 1439.76 1493.6 1455.95 1473.83 1475.75 1454.07 1495.54 1437.4 1511.73 1436.78 1511.73 1436.16 1511.73 1451.82 1495.54 1471.58 1475.75ZM1389.45 1467.31 1370.38 1447.63 1390.06 1466.7C1400.88 1477.19 1409.74 1486.04 1409.74 1486.38 1409.74 1488.02 1407.15 1485.59 1389.45 1467.31ZM1612.11 1457.19C1634 1434.74 1636.89 1431.99 1636.89 1433.62 1636.89 1433.95 1626.01 1444.83 1612.71 1457.79L1588.53 1481.37ZM1445.72 1380.16C1466.1 1359.75 1483.28 1343.05 1483.9 1343.05 1484.52 1343.05 1468.35 1359.75 1447.97 1380.16 1427.59 1400.57 1410.41 1417.27 1409.79 1417.27 1409.17 1417.27 1425.34 1400.57 1445.72 1380.16ZM1666.12 1403.07C1666.12 1402.69 1669.41 1399.4 1673.43 1395.76L1680.74 1389.16 1674.14 1396.47C1667.98 1403.28 1666.12 1404.81 1666.12 1403.07ZM1605.4 1342.35C1605.4 1341.96 1608.69 1338.67 1612.71 1335.04L1620.02 1328.44 1613.41 1335.74C1607.26 1342.56 1605.4 1344.09 1605.4 1342.35ZM1155.6 619.434 830.616 293.89 1156.16 618.869C1335.21 797.608 1481.71 944.103 1481.71 944.414 1481.71 944.724 1481.45 944.979 1481.14 944.979 1480.83 944.979 1334.33 798.484 1155.6 619.434ZM977.922 650.92 740.656 413.087 978.489 650.354C1109.3 780.851 1216.32 887.876 1216.32 888.187 1216.32 888.499 1216.07 888.754 1215.76 888.754 1215.44 888.754 1108.42 781.729 977.922 650.921Z" fill="#32629B" transform="matrix(1 0 0 1.00015 1166.11 60.7451)"/><path d="M1490.66 1620.24 1469.34 1598.32 1491.26 1619.64C1511.63 1639.44 1514.21 1642.17 1512.58 1642.17 1512.25 1642.17 1502.38 1632.3 1490.66 1620.24ZM1594.16 1530.85C1633.1 1491.88 1665.48 1460 1666.1 1460 1666.72 1460 1635.35 1491.88 1596.4 1530.85 1557.46 1569.81 1525.08 1601.69 1524.46 1601.69 1523.84 1601.69 1555.21 1569.81 1594.16 1530.85ZM1429.98 1587.49C1429.98 1587.11 1433.27 1583.82 1437.29 1580.18L1444.6 1573.58 1437.99 1580.89C1431.83 1587.7 1429.98 1589.23 1429.98 1587.49ZM1425.48 1555.59C1416.26 1546.31 1409.23 1538.72 1409.85 1538.72 1410.47 1538.72 1418.51 1546.31 1427.73 1555.59 1436.94 1564.86 1443.98 1572.45 1443.36 1572.45 1442.74 1572.45 1434.69 1564.86 1425.48 1555.59ZM1369.25 1526.77C1369.25 1526.38 1372.54 1523.09 1376.56 1519.46L1383.87 1512.85 1377.27 1520.16C1371.11 1526.98 1369.25 1528.51 1369.25 1526.77ZM1359.09 1488.68 1336.64 1465.62 1359.7 1488.07C1381.11 1508.92 1383.77 1511.73 1382.14 1511.73 1381.81 1511.73 1371.44 1501.36 1359.09 1488.68ZM1444.6 1451.01C1464.36 1431.22 1481.03 1415.02 1481.65 1415.02 1482.27 1415.02 1466.61 1431.22 1446.85 1451.01 1427.08 1470.8 1410.41 1486.99 1409.79 1486.99 1409.17 1486.99 1424.83 1470.8 1444.6 1451.01ZM1586.28 1430.77C1599.85 1417.16 1611.45 1406.03 1612.07 1406.03 1612.69 1406.03 1602.1 1417.16 1588.53 1430.77 1574.97 1444.37 1563.36 1455.5 1562.75 1455.5 1562.13 1455.5 1572.72 1444.37 1586.28 1430.77ZM1418.73 1355.42C1437.88 1336.25 1454.04 1320.56 1454.66 1320.56 1455.28 1320.56 1440.12 1336.25 1420.98 1355.42 1401.84 1374.6 1385.67 1390.28 1385.05 1390.28 1384.43 1390.28 1399.59 1374.6 1418.73 1355.42ZM1645.88 1371.17C1650.08 1366.84 1654.02 1363.29 1654.64 1363.29 1655.26 1363.29 1652.33 1366.84 1648.13 1371.17 1643.94 1375.5 1640 1379.04 1639.38 1379.04 1638.76 1379.04 1641.69 1375.5 1645.88 1371.17ZM1585.16 1310.44C1589.36 1306.11 1593.3 1302.57 1593.91 1302.57 1594.53 1302.57 1591.6 1306.11 1587.41 1310.44 1583.21 1314.77 1579.27 1318.31 1578.65 1318.31 1578.04 1318.31 1580.96 1314.77 1585.16 1310.44ZM1136.48 652.045 819.371 334.372 1137.04 651.48C1311.76 825.889 1454.72 968.842 1454.72 969.153 1454.72 969.463 1454.46 969.718 1454.15 969.718 1453.84 969.718 1310.89 826.765 1136.48 652.045Z" fill="#11498C" transform="matrix(1 0 0 1.00015 1166.11 60.7451)"/><path d="M1582.34 1983.97C1537.91 1972.75 1516.81 1931.16 1524.32 1869.61 1530.05 1822.67 1548.83 1761.41 1576.43 1699.66 1589.19 1671.11 1594.32 1664.63 1604.11 1664.73 1614.43 1664.84 1617.96 1668.74 1628.74 1691.91 1655.52 1749.47 1676.86 1816.31 1683.47 1863.38 1693.93 1937.88 1666.55 1982.88 1609.25 1985.32 1599.09 1985.75 1586.98 1985.15 1582.34 1983.97ZM1621.85 1947.03C1633.35 1942.93 1638.89 1937.65 1644.39 1925.55 1650.65 1911.75 1650.35 1877.11 1643.68 1844.58 1636.87 1811.36 1609.32 1730.35 1604.44 1729.17 1600.04 1728.11 1572.12 1809.71 1564.96 1844.58 1558.28 1877.13 1557.94 1911.77 1564.18 1925.55 1566.7 1931.11 1570.87 1937.54 1573.44 1939.82 1579.89 1945.55 1593.53 1950.09 1604.28 1950.09 1609.22 1950.09 1617.13 1948.71 1621.85 1947.03ZM1493.73 1621.49 1470.43 1598.56 1462.01 1606.55C1457.38 1610.94 1451.85 1615.15 1449.72 1615.89 1443.5 1618.06 1432.1 1612.91 1429.82 1606.89 1426.28 1597.59 1427.43 1593.04 1435.6 1583.99 1439.93 1579.2 1443.47 1574.37 1443.47 1573.25 1443.47 1572.13 1435.89 1563.69 1426.63 1554.49L1409.79 1537.76 1401.33 1545.92C1396.68 1550.41 1390.84 1554.38 1388.37 1554.73 1379.93 1555.94 1371.4 1552.23 1369.17 1546.38 1365.55 1536.85 1366.66 1532.37 1374.88 1523.27 1379.21 1518.48 1382.75 1513.65 1382.75 1512.54 1382.75 1511.43 1372.69 1500.5 1360.41 1488.26L1338.06 1466 1324.98 1471.86C1290.31 1487.38 1252.13 1494.74 1207.33 1494.53 1145.82 1494.25 1091.61 1476.71 1039.99 1440.4 1026.34 1430.79 938.633 1344.56 689.484 1095.76 358.845 765.591 357.185 763.888 357.192 754.964 357.199 746.067 359.021 744.17 581.538 521.406 704.924 397.882 808.842 295.516 812.466 293.925 816.935 291.963 820.943 291.69 824.922 293.077 828.149 294.202 980.641 445.136 1163.79 628.485 1520.16 985.239 1508.31 972.672 1530.26 1017.01 1556.01 1069.05 1565.66 1130.54 1557.05 1187.85 1553.55 1211.19 1542.89 1247.84 1535.2 1262.98L1530.75 1271.75 1554.54 1295.54 1578.32 1319.32 1587.35 1310.5C1598.38 1299.73 1610 1298.31 1616.94 1306.87 1623.75 1315.28 1622.3 1323.9 1612.24 1334.82L1603.34 1344.47 1621.21 1362.24 1639.08 1380 1648.1 1371.2C1659.1 1360.46 1670.73 1359.04 1677.66 1367.59 1684.47 1376.01 1683.03 1384.63 1672.97 1395.54L1664.07 1405.19 1684.45 1425.29C1705.56 1446.11 1711.1 1454.52 1709.43 1463.24 1708.86 1466.22 1671.72 1505.04 1620.32 1556.39 1539.24 1637.37 1531.57 1644.42 1524.61 1644.42 1518.03 1644.42 1513.97 1641.41 1493.73 1621.49ZM1596.38 1530.87 1667.17 1460.05 1652.64 1445.39 1638.11 1430.74 1613.32 1455.39C1599.69 1468.95 1586.01 1480.96 1582.92 1482.08 1571.2 1486.34 1560.42 1477.68 1560.42 1464 1560.42 1461.01 1570.03 1449.56 1586.76 1432.63L1613.1 1405.96 1594.07 1386.64C1583.6 1376.01 1571.82 1365.92 1567.89 1364.22 1563.96 1362.52 1560.07 1358.83 1559.23 1356.02 1557.78 1351.14 1516.04 1307.07 1512.86 1307.07 1512.02 1307.07 1507.5 1312.38 1502.82 1318.88 1490.72 1335.69 1407.23 1419.7 1387.81 1434.61 1378.84 1441.5 1371.5 1447.77 1371.5 1448.56 1371.5 1449.34 1380.11 1458.54 1390.63 1469.01L1409.76 1488.04 1447.89 1449.96C1482.92 1414.98 1486.68 1411.87 1494.02 1411.87 1503.86 1411.87 1508.43 1416.17 1510.2 1427.09 1511.56 1435.44 1511.44 1435.59 1473.04 1474.23L1434.51 1512.98 1453.09 1531.47C1467.26 1545.57 1473.14 1549.96 1477.82 1549.96 1484.6 1549.96 1492.76 1556.78 1493.29 1562.89 1493.48 1565.06 1493.75 1568.08 1493.88 1569.6 1494.12 1572.32 1522.04 1601.69 1524.38 1601.69 1525.05 1601.69 1557.44 1569.82 1596.38 1530.87ZM1254.03 1455.31C1284.15 1450.71 1324.39 1434.63 1352.57 1415.93 1378.52 1398.7 1447.74 1331.62 1470.69 1301.45 1506.12 1254.87 1522.84 1205.37 1523.1 1146.27 1523.4 1078.39 1502.65 1024.36 1456.06 971.68 1446.91 961.324 1300.16 813.695 1129.96 643.617L820.5 334.383 780.589 374.294 740.678 414.206 980.388 654.291C1112.23 786.338 1223.12 898.424 1226.81 903.372 1277.39 971.212 1277.42 1066.27 1226.89 1137.22 1204 1169.38 1149.47 1195.93 1098.02 1199.98 1053.83 1203.46 1000.64 1187.13 964.432 1158.96 958.866 1154.63 847.291 1044.25 716.489 913.668L478.666 676.25 439.287 715.58 399.909 754.91 718.717 1073.93C919.007 1274.35 1044.52 1398.28 1056.34 1407.29 1111.87 1449.65 1181.02 1466.44 1254.03 1455.31ZM1122.91 1159.26C1153.6 1152.22 1184.76 1134.11 1198.7 1115.21 1207.79 1102.89 1219.73 1076.82 1224.4 1059.14 1226.71 1050.37 1228.16 1035.73 1228.25 1020.32 1228.41 990.623 1222.95 968.545 1209.05 942.73 1200.64 927.093 1182.28 908.14 957.396 682.969L714.814 440.076 609.662 545.233 504.509 650.39 746.278 891.884C967.7 1113.05 989.466 1134.16 1004.91 1142.66 1042.9 1163.56 1080.86 1168.9 1122.91 1159.26ZM988.354 1056C984.846 1052.49 982.424 1047.56 982.424 1043.94 982.424 1040.31 984.846 1035.38 988.354 1031.87 991.861 1028.36 996.788 1025.94 1000.42 1025.94 1004.04 1025.94 1008.97 1028.36 1012.48 1031.87 1015.99 1035.38 1018.41 1040.31 1018.41 1043.94 1018.41 1047.56 1015.99 1052.49 1012.48 1056 1008.97 1059.51 1004.04 1061.93 1000.42 1061.93 996.788 1061.93 991.861 1059.51 988.354 1056ZM1054.76 999.633C1047.35 998.164 1042.45 985.892 1045.63 976.772 1050.32 963.317 1072.03 962.569 1077.02 975.691 1079.59 982.448 1078.01 992.974 1073.91 996.37 1070.32 999.356 1061.2 1000.91 1054.76 999.633ZM899.662 967.407C889.938 958.347 891.174 946.625 902.647 939.108 918.941 928.432 937.521 953.663 923.243 967.077 916.684 973.239 906.081 973.387 899.662 967.406ZM1109.8 934.552C1106.29 931.044 1103.87 926.117 1103.87 922.489 1103.87 918.86 1106.29 913.933 1109.8 910.426 1113.31 906.918 1118.23 904.497 1121.86 904.497 1125.49 904.497 1130.42 906.918 1133.93 910.426 1137.43 913.933 1139.86 918.86 1139.86 922.489 1139.86 926.117 1137.43 931.044 1133.93 934.552 1130.42 938.059 1125.49 940.481 1121.86 940.481 1118.23 940.481 1113.31 938.059 1109.8 934.552ZM964.432 909.683C956.177 906.733 952.665 893.635 957.638 884.344 961.085 877.902 971.37 875.25 979.556 878.692 987.608 882.078 990.19 888.239 988.14 899.171 986.268 909.147 975.854 913.765 964.432 909.683ZM814.455 880.86C805.524 877.104 801.915 867.45 805.899 857.974 811.748 844.065 832.973 844.663 837.927 858.876 843.153 873.867 829.108 887.021 814.455 880.86ZM1021.11 845.96C1011.38 836.901 1012.62 825.179 1024.09 817.662 1040.39 806.985 1058.97 832.216 1044.69 845.63 1038.13 851.792 1027.53 851.94 1021.11 845.96ZM872.909 819.01C866.948 816.609 864.153 804.815 867.474 796.079 869.988 789.465 881.206 785.813 890.218 788.673 897.093 790.855 901.562 802.328 898.716 810.49 895.226 820.502 884.998 823.879 872.909 819.01ZM724.913 791.579C713.635 785.111 711.262 771.407 719.997 763.201 728.92 754.818 742.095 757.459 748.16 768.846 752.204 776.44 751.335 780.588 744.202 787.721 737.196 794.727 732.159 795.734 724.913 791.579ZM935.902 759.413C926.971 755.658 923.362 746.003 927.346 736.527 933.194 722.618 954.419 723.216 959.374 737.43 964.6 752.42 950.555 765.574 935.902 759.413ZM785.404 730.339C773.004 724.974 773.393 704.491 785.986 699.703 793.209 696.957 803.335 698.792 807.296 703.565 811.669 708.834 810.809 721.793 805.764 726.64 799.47 732.686 793.384 733.792 785.404 730.339ZM630.761 698.405C627.253 694.898 624.831 689.971 624.831 686.342 624.831 682.714 627.253 677.787 630.761 674.28 634.268 670.772 639.195 668.35 642.824 668.35 646.452 668.35 651.379 670.772 654.886 674.28 658.394 677.787 660.816 682.714 660.816 686.342 660.816 689.971 658.394 694.898 654.886 698.405 651.379 701.913 646.452 704.334 642.824 704.334 639.195 704.334 634.268 701.913 630.761 698.405ZM846.359 670.132C835.082 663.665 832.708 649.961 841.444 641.754 850.367 633.372 863.542 636.013 869.606 647.399 873.651 654.993 872.781 659.142 865.649 666.274 858.643 673.28 853.605 674.288 846.359 670.132ZM696.413 641.102C682.613 635.942 684.397 612.019 698.796 609.139 708.359 607.227 716.661 610.833 719.423 618.098 721.992 624.855 720.414 635.381 716.322 638.777 711.915 642.434 702.816 643.497 696.413 641.102ZM752.207 576.959C748.7 573.451 746.278 568.524 746.278 564.896 746.278 556.846 756.221 546.904 764.27 546.904 772.32 546.904 782.262 556.846 782.262 564.896 782.262 572.945 772.32 582.888 764.27 582.888 760.642 582.888 755.715 580.466 752.207 576.959Z" fill="#003C84" transform="matrix(1 0 0 1.00015 1166.11 60.7451)"/></g></g></g></g></svg>