<svg width="1689" height="1696" xmlns="http://www.w3.org/2000/svg" xmlns:xlink="http://www.w3.org/1999/xlink" xml:space="preserve" overflow="hidden"><defs><clipPath id="clip0"><rect x="1446" y="407" width="1689" height="1696"/></clipPath></defs><g clip-path="url(#clip0)" transform="translate(-1446 -407)"><path d="M2290.5 1966.66C1899.36 1966.66 1579.34 1646.64 1579.34 1255.5 1579.34 864.363 1899.36 544.342 2290.5 544.342 2681.64 544.342 3001.66 864.363 3001.66 1255.5 3001.66 1646.64 2681.64 1966.66 2290.5 1966.66ZM2290.5 411C1823.8 411 1446 788.803 1446 1255.5 1446 1722.2 1823.8 2100 2290.5 2100 2757.2 2100 3135 1722.2 3135 1255.5 3135 788.803 2757.2 411 2290.5 411Z" fill="#000000" fill-rule="evenodd" fill-opacity="0.25098"/><path d="M2334.91 811 2246 811 2246 1255.51C2246 1268.84 2250.45 1279.96 2259.34 1286.62L2572.76 1600 2635 1537.77 2334.91 1237.73 2334.91 811Z" fill="#000000" fill-rule="evenodd" fill-opacity="0.25098"/><path d="M2335 677.5C2335 702.077 2315.08 722 2290.5 722 2265.92 722 2246 702.077 2246 677.5 2246 652.923 2265.92 633 2290.5 633 2315.08 633 2335 652.923 2335 677.5Z" fill="#000000" fill-rule="evenodd" fill-opacity="0.25098"/><path d="M2335 1833.5C2335 1858.08 2315.08 1878 2290.5 1878 2265.92 1878 2246 1858.08 2246 1833.5 2246 1808.92 2265.92 1789 2290.5 1789 2315.08 1789 2335 1808.92 2335 1833.5Z" fill="#000000" fill-rule="evenodd" fill-opacity="0.25098"/><path d="M1757 1255.5C1757 1280.08 1737.08 1300 1712.5 1300 1687.92 1300 1668 1280.08 1668 1255.5 1668 1230.92 1687.92 1211 1712.5 1211 1737.08 1211 1757 1230.92 1757 1255.5Z" fill="#000000" fill-rule="evenodd" fill-opacity="0.25098"/><path d="M2913 1255.5C2913 1280.08 2893.08 1300 2868.5 1300 2843.92 1300 2824 1280.08 2824 1255.5 2824 1230.92 2843.92 1211 2868.5 1211 2893.08 1211 2913 1230.92 2913 1255.5Z" fill="#000000" fill-rule="evenodd" fill-opacity="0.25098"/><g><g><g><path d="M1686.8 1899.79C1686.91 1897.17 1687.44 1896.63 1688.16 1898.43 1688.81 1900.05 1688.73 1901.99 1687.98 1902.74 1687.23 1903.49 1686.7 1902.16 1686.8 1899.79ZM1490.88 1622.74 1469.56 1600.81 1491.49 1622.14C1511.86 1641.94 1514.45 1644.67 1512.82 1644.67 1512.48 1644.67 1502.61 1634.8 1490.88 1622.74ZM1593.27 1529.96C1631.61 1491.6 1663.48 1460.23 1664.1 1460.23 1664.72 1460.23 1633.86 1491.6 1595.52 1529.96 1557.19 1568.31 1525.32 1599.69 1524.7 1599.69 1524.08 1599.69 1554.94 1568.31 1593.27 1529.96ZM1434.7 1580.57C1437.6 1577.47 1440.48 1574.94 1441.1 1574.94 1441.72 1574.94 1439.85 1577.47 1436.94 1580.57 1434.04 1583.66 1431.16 1586.19 1430.54 1586.19 1429.92 1586.19 1431.79 1583.66 1434.7 1580.57ZM1424.51 1556.39 1408.83 1540.08 1425.14 1555.76C1440.28 1570.33 1442.47 1572.69 1440.82 1572.69 1440.48 1572.69 1433.14 1565.36 1424.51 1556.39ZM1373.96 1519.83C1376.87 1516.74 1379.75 1514.21 1380.37 1514.21 1380.99 1514.21 1379.12 1516.74 1376.21 1519.83 1373.31 1522.93 1370.42 1525.46 1369.8 1525.46 1369.19 1525.46 1371.06 1522.93 1373.96 1519.83ZM1358.17 1490.03 1336.85 1468.1 1358.78 1489.42C1379.15 1509.23 1381.73 1511.96 1380.1 1511.96 1379.77 1511.96 1369.9 1502.09 1358.17 1490.03ZM1205.82 1496.91C1207.99 1496.35 1211.53 1496.35 1213.7 1496.91 1215.86 1497.48 1214.09 1497.94 1209.76 1497.94 1205.43 1497.94 1203.66 1497.48 1205.82 1496.91ZM1444.82 1448.98C1464.58 1429.18 1481.26 1412.99 1481.88 1412.99 1482.5 1412.99 1466.83 1429.18 1447.07 1448.98 1427.3 1468.77 1410.62 1484.97 1410.01 1484.97 1409.39 1484.97 1425.05 1468.77 1444.82 1448.98ZM1585.36 1430.42C1607.26 1407.96 1610.15 1405.22 1610.15 1406.84 1610.15 1407.17 1599.26 1418.06 1585.96 1431.02L1561.78 1454.6ZM1417.83 1354.51C1437.59 1334.71 1454.27 1318.52 1454.89 1318.52 1455.51 1318.52 1439.84 1334.71 1420.07 1354.51 1400.31 1374.3 1383.63 1390.5 1383.01 1390.5 1382.39 1390.5 1398.06 1374.3 1417.83 1354.51ZM1639.39 1376.3C1639.39 1375.91 1642.68 1372.62 1646.7 1368.99L1654.01 1362.38 1647.4 1369.69C1641.24 1376.5 1639.39 1378.03 1639.39 1376.3ZM1578.65 1315.56C1578.65 1315.18 1581.94 1311.89 1585.96 1308.25L1593.27 1301.65 1586.67 1308.96C1580.51 1315.77 1578.65 1317.3 1578.65 1315.56ZM1078.88 1202.26C1080.5 1201.61 1082.44 1201.69 1083.19 1202.44 1083.93 1203.19 1082.61 1203.72 1080.23 1203.62 1077.61 1203.51 1077.08 1202.98 1078.88 1202.26ZM1096.73 1161.82C1098.28 1161.2 1100.81 1161.2 1102.35 1161.82 1103.9 1162.45 1102.63 1162.96 1099.54 1162.96 1096.45 1162.96 1095.18 1162.45 1096.73 1161.82ZM1561.01 1156.56C1561.01 1153.47 1561.52 1152.2 1562.15 1153.75 1562.77 1155.3 1562.77 1157.83 1562.15 1159.37 1561.52 1160.92 1561.01 1159.66 1561.01 1156.56ZM1561.01 1134.07C1561.01 1130.98 1561.52 1129.71 1562.15 1131.26 1562.77 1132.8 1562.77 1135.33 1562.15 1136.88 1561.52 1138.43 1561.01 1137.16 1561.01 1134.07ZM1225.68 1040.53C1225.79 1037.91 1226.32 1037.38 1227.04 1039.17 1227.69 1040.8 1227.61 1042.74 1226.86 1043.49 1226.12 1044.23 1225.58 1042.9 1225.68 1040.53ZM1266.17 1022.54C1266.28 1019.92 1266.81 1019.39 1267.53 1021.18 1268.18 1022.8 1268.1 1024.74 1267.35 1025.49 1266.6 1026.24 1266.07 1024.91 1266.17 1022.54ZM1135.53 653.269 819.496 336.673 1136.09 652.704C1310.22 826.521 1452.69 968.99 1452.69 969.301 1452.69 969.612 1452.44 969.866 1452.12 969.866 1451.81 969.866 1309.35 827.397 1135.53 653.269Z" fill="#BACADD" transform="matrix(1.00058 0 0 1 1256.85 114.745)"/><path d="M1686.58 1427.05 1665.25 1405.12 1687.19 1426.44C1707.55 1446.25 1710.14 1448.98 1708.51 1448.98 1708.18 1448.98 1698.31 1439.11 1686.58 1427.05ZM683.407 1091.89 356.129 764.05 683.973 1091.33C864.287 1271.33 1011.82 1418.86 1011.82 1419.17 1011.82 1419.48 1011.56 1419.74 1011.25 1419.74 1010.94 1419.74 863.411 1272.21 683.408 1091.89ZM1620.21 1360.69 1604.52 1344.38 1620.83 1360.07C1635.98 1374.64 1638.16 1377 1636.51 1377 1636.17 1377 1628.83 1369.66 1620.21 1360.69ZM1553.87 1294.34 1532.54 1272.4 1554.47 1293.73C1574.84 1313.54 1577.43 1316.27 1575.8 1316.27 1575.46 1316.27 1565.6 1306.4 1553.87 1294.34ZM715.474 915.332 478.742 678.601 439.929 716.818 401.116 755.036 439.921 715.685 478.726 676.335 716.59 914.199C847.416 1045.03 953.949 1152.06 953.33 1152.06 952.712 1152.06 845.677 1045.53 715.474 915.332ZM951.649 679.142 714.909 442.403 609.748 546.99 504.587 651.576 609.745 545.862 714.903 440.147 952.77 678.014C1083.6 808.841 1190.13 915.882 1189.51 915.882 1188.89 915.882 1081.86 809.349 951.649 679.142ZM779.008 376.036C800.012 355.005 817.703 337.797 818.322 337.797 818.941 337.797 802.262 355.005 781.257 376.036 760.253 397.068 742.562 414.275 741.943 414.275 741.325 414.275 758.004 397.068 779.008 376.036Z" fill="#99B0CD" transform="matrix(1.00058 0 0 1 1256.85 114.745)"/><path d="M1600.61 1987.23C1603.41 1986.7 1607.46 1986.72 1609.61 1987.28 1611.76 1987.84 1609.47 1988.28 1604.52 1988.25 1599.57 1988.23 1597.81 1987.77 1600.61 1987.23ZM1601.75 1949.03C1603.94 1948.46 1606.98 1948.49 1608.5 1949.11 1610.02 1949.73 1608.23 1950.19 1604.52 1950.15 1600.81 1950.1 1599.56 1949.6 1601.75 1949.03ZM1650.56 1445.04 1638.26 1432.11 1651.2 1444.4C1663.21 1455.83 1665.16 1457.98 1663.49 1457.98 1663.14 1457.98 1657.32 1452.16 1650.56 1445.04ZM1590.97 1385.43 1573.03 1366.88 1591.59 1384.82C1601.79 1394.69 1610.15 1403.04 1610.15 1403.38 1610.15 1405.02 1607.64 1402.67 1590.97 1385.43ZM718.272 1072.77 401.116 755.053 718.838 1072.21C893.585 1246.64 1036.56 1389.62 1036.56 1389.93 1036.56 1390.24 1036.3 1390.5 1035.99 1390.5 1035.68 1390.5 892.708 1247.52 718.273 1072.77ZM1533.62 1328.08 1512.3 1306.14 1534.23 1327.47C1554.6 1347.28 1557.18 1350.01 1555.55 1350.01 1555.22 1350.01 1545.35 1340.14 1533.62 1328.08ZM1103.48 1200.06C1105.02 1199.44 1107.55 1199.44 1109.1 1200.06 1110.65 1200.68 1109.38 1201.19 1106.29 1201.19 1103.2 1201.19 1101.93 1200.68 1103.48 1200.06ZM1105.87 1161.77C1107.49 1161.12 1109.43 1161.2 1110.18 1161.95 1110.93 1162.7 1109.6 1163.23 1107.23 1163.13 1104.61 1163.03 1104.07 1162.49 1105.87 1161.77ZM1523.03 1145.32C1523.03 1139.75 1523.47 1137.47 1524.01 1140.26 1524.54 1143.04 1524.54 1147.59 1524.01 1150.38 1523.47 1153.16 1523.03 1150.88 1523.03 1145.32ZM1561.01 1145.32C1561.01 1142.22 1561.52 1140.96 1562.15 1142.5 1562.77 1144.05 1562.77 1146.58 1562.15 1148.13 1561.52 1149.67 1561.01 1148.41 1561.01 1145.32ZM1188.39 1125.07C1190.63 1122.6 1192.97 1120.57 1193.59 1120.57 1194.21 1120.57 1192.88 1122.6 1190.64 1125.07 1188.4 1127.55 1186.06 1129.57 1185.44 1129.57 1184.83 1129.57 1186.15 1127.55 1188.39 1125.07ZM740.765 886.078 504.587 649.333 741.331 885.511C871.541 1015.41 978.076 1121.94 978.076 1122.26 978.076 1122.57 977.821 1122.82 977.509 1122.82 977.198 1122.82 870.663 1016.29 740.765 886.078ZM1263.92 1047.28C1264.03 1044.66 1264.56 1044.13 1265.28 1045.92 1265.93 1047.55 1265.85 1049.49 1265.1 1050.23 1264.36 1050.98 1263.82 1049.65 1263.92 1047.28ZM410.114 690.946C438.548 662.492 462.318 639.211 462.937 639.211 463.555 639.211 440.797 662.492 412.363 690.946 383.929 719.401 360.158 742.681 359.54 742.681 358.921 742.681 381.679 719.401 410.114 690.946ZM583.314 517.746C646.399 454.651 698.521 403.029 699.139 403.029 699.758 403.029 648.649 454.651 585.563 517.746 522.478 580.84 470.357 632.463 469.738 632.463 469.12 632.463 520.229 580.84 583.314 517.746ZM756.514 344.545C784.949 316.091 808.719 292.81 809.338 292.81 809.956 292.81 787.198 316.091 758.764 344.545 730.33 373 706.559 396.28 705.941 396.28 705.322 396.28 728.08 373 756.514 344.545Z" fill="#6A8DB7" transform="matrix(1.00058 0 0 1 1256.85 114.745)"/><path d="M1558.77 1896.6C1558.77 1893.51 1559.28 1892.24 1559.9 1893.79 1560.52 1895.34 1560.52 1897.87 1559.9 1899.41 1559.28 1900.96 1558.77 1899.69 1558.77 1896.6ZM1648.91 1894.35C1648.91 1890.02 1649.37 1888.25 1649.93 1890.42 1650.5 1892.58 1650.5 1896.12 1649.93 1898.29 1649.37 1900.45 1648.91 1898.68 1648.91 1894.35ZM1182.21 1494.73C1183.75 1494.1 1186.28 1494.1 1187.83 1494.73 1189.37 1495.35 1188.11 1495.86 1185.02 1495.86 1181.92 1495.86 1180.66 1495.35 1182.21 1494.73ZM1231.69 1494.73C1233.24 1494.1 1235.77 1494.1 1237.31 1494.73 1238.86 1495.35 1237.6 1495.86 1234.5 1495.86 1231.41 1495.86 1230.14 1495.35 1231.69 1494.73ZM1204.7 1458.64C1207.48 1458.1 1212.04 1458.1 1214.82 1458.64 1217.6 1459.17 1215.33 1459.61 1209.76 1459.61 1204.19 1459.61 1201.92 1459.17 1204.7 1458.64ZM1096.87 1200.01C1098.49 1199.36 1100.43 1199.44 1101.18 1200.19 1101.93 1200.94 1100.6 1201.47 1098.23 1201.37 1095.61 1201.26 1095.08 1200.73 1096.87 1200.01ZM1081.12 1164.02C1082.75 1163.37 1084.69 1163.45 1085.44 1164.2 1086.18 1164.95 1084.85 1165.48 1082.48 1165.38 1079.86 1165.27 1079.33 1164.74 1081.12 1164.02ZM1522.78 1158.81C1522.78 1155.72 1523.29 1154.45 1523.91 1156 1524.53 1157.55 1524.53 1160.08 1523.91 1161.62 1523.29 1163.17 1522.78 1161.91 1522.78 1158.81ZM1522.78 1131.82C1522.78 1128.73 1523.29 1127.46 1523.91 1129.01 1524.53 1130.55 1524.53 1133.09 1523.91 1134.63 1523.29 1136.18 1522.78 1134.91 1522.78 1131.82ZM1263.92 1040.53C1264.03 1037.91 1264.56 1037.38 1265.28 1039.17 1265.93 1040.8 1265.85 1042.74 1265.1 1043.49 1264.36 1044.23 1263.82 1042.9 1263.92 1040.53ZM1228.11 1023.85C1228.11 1020.76 1228.62 1019.49 1229.24 1021.04 1229.87 1022.59 1229.87 1025.12 1229.24 1026.66 1228.62 1028.21 1228.11 1026.94 1228.11 1023.85Z" fill="#4B75A8" transform="matrix(1.00058 0 0 1 1256.85 114.745)"/><path d="M1620.27 1556.95C1667.27 1509.94 1706.23 1471.47 1706.85 1471.47 1707.46 1471.47 1669.52 1509.94 1622.52 1556.95 1575.52 1603.96 1536.56 1642.42 1535.94 1642.42 1535.32 1642.42 1573.27 1603.96 1620.27 1556.95ZM1457.19 1612.48C1457.19 1612.09 1460.48 1608.8 1464.5 1605.17L1471.81 1598.56 1465.2 1605.87C1459.04 1612.69 1457.19 1614.22 1457.19 1612.48ZM1508.86 1586.75 1494.3 1571.57 1509.49 1586.12C1523.59 1599.64 1525.7 1601.94 1524.04 1601.94 1523.7 1601.94 1516.86 1595.1 1508.86 1586.75ZM1396.46 1551.75C1396.46 1551.36 1399.75 1548.07 1403.77 1544.44L1411.08 1537.83 1404.47 1545.14C1398.31 1551.95 1396.46 1553.48 1396.46 1551.75ZM1453.76 1531.64 1435.82 1513.09 1454.38 1531.03C1464.58 1540.9 1472.93 1549.25 1472.93 1549.58 1472.93 1551.23 1470.43 1548.88 1453.76 1531.64ZM1471.81 1475.97C1491.57 1456.18 1508.25 1439.98 1508.87 1439.98 1509.49 1439.98 1493.82 1456.18 1474.06 1475.97 1454.29 1495.77 1437.62 1511.96 1437 1511.96 1436.38 1511.96 1452.04 1495.77 1471.81 1475.97ZM1389.66 1467.54 1370.59 1447.85 1390.27 1466.92C1401.1 1477.41 1409.95 1486.27 1409.95 1486.61 1409.95 1488.24 1407.37 1485.82 1389.66 1467.54ZM1612.35 1457.41C1634.25 1434.95 1637.14 1432.21 1637.14 1433.84 1637.14 1434.17 1626.26 1445.05 1612.96 1458.02L1588.78 1481.59ZM1445.94 1380.37C1466.33 1359.96 1483.51 1343.26 1484.13 1343.26 1484.75 1343.26 1468.58 1359.96 1448.19 1380.37 1427.81 1400.79 1410.62 1417.49 1410 1417.49 1409.38 1417.49 1425.56 1400.79 1445.94 1380.37ZM1666.38 1403.29C1666.38 1402.9 1669.67 1399.61 1673.69 1395.98L1681 1389.37 1674.39 1396.68C1668.23 1403.5 1666.38 1405.03 1666.38 1403.29ZM1605.65 1342.56C1605.65 1342.17 1608.94 1338.88 1612.96 1335.25L1620.27 1328.64 1613.66 1335.95C1607.5 1342.76 1605.65 1344.29 1605.65 1342.56ZM1155.77 619.529 830.743 293.935 1156.34 618.964C1335.41 797.73 1481.93 944.247 1481.93 944.558 1481.93 944.869 1481.68 945.123 1481.37 945.123 1481.06 945.123 1334.54 798.606 1155.77 619.529ZM978.072 651.02 740.769 413.151 978.638 650.454C1109.47 780.97 1216.51 888.012 1216.51 888.323 1216.51 888.635 1216.25 888.89 1215.94 888.89 1215.63 888.89 1108.59 781.848 978.072 651.02Z" fill="#32629B" transform="matrix(1.00058 0 0 1 1256.85 114.745)"/><path d="M1490.88 1620.49 1469.56 1598.56 1491.49 1619.89C1511.86 1639.69 1514.45 1642.42 1512.82 1642.42 1512.48 1642.42 1502.61 1632.55 1490.88 1620.49ZM1594.4 1531.08C1633.35 1492.11 1665.73 1460.23 1666.35 1460.23 1666.97 1460.23 1635.6 1492.11 1596.65 1531.08 1557.69 1570.05 1525.31 1601.94 1524.7 1601.94 1524.08 1601.94 1555.44 1570.05 1594.4 1531.08ZM1430.2 1587.74C1430.2 1587.35 1433.49 1584.06 1437.51 1580.42L1444.82 1573.82 1438.21 1581.13C1432.05 1587.94 1430.2 1589.47 1430.2 1587.74ZM1425.7 1555.82C1416.48 1546.54 1409.45 1538.95 1410.06 1538.95 1410.68 1538.95 1418.73 1546.54 1427.95 1555.82 1437.16 1565.1 1444.2 1572.69 1443.58 1572.69 1442.96 1572.69 1434.91 1565.1 1425.7 1555.82ZM1369.46 1527C1369.46 1526.62 1372.75 1523.33 1376.77 1519.69L1384.08 1513.09 1377.48 1520.4C1371.32 1527.21 1369.46 1528.74 1369.46 1527ZM1359.3 1488.91 1336.85 1465.85 1359.9 1488.3C1381.32 1509.15 1383.98 1511.96 1382.36 1511.96 1382.02 1511.96 1371.65 1501.59 1359.3 1488.91ZM1444.82 1451.23C1464.58 1431.43 1481.26 1415.24 1481.88 1415.24 1482.5 1415.24 1466.83 1431.43 1447.07 1451.23 1427.3 1471.02 1410.62 1487.22 1410.01 1487.22 1409.39 1487.22 1425.05 1471.02 1444.82 1451.23ZM1586.53 1430.98C1600.09 1417.38 1611.7 1406.24 1612.32 1406.24 1612.94 1406.24 1602.34 1417.38 1588.78 1430.98 1575.21 1444.59 1563.6 1455.73 1562.99 1455.73 1562.37 1455.73 1572.96 1444.59 1586.53 1430.98ZM1418.95 1355.63C1438.1 1336.46 1454.27 1320.77 1454.89 1320.77 1455.5 1320.77 1440.34 1336.46 1421.2 1355.63 1402.05 1374.81 1385.88 1390.5 1385.26 1390.5 1384.65 1390.5 1399.8 1374.81 1418.95 1355.63ZM1646.13 1371.38C1650.33 1367.05 1654.27 1363.5 1654.89 1363.5 1655.51 1363.5 1652.58 1367.05 1648.38 1371.38 1644.19 1375.71 1640.25 1379.25 1639.63 1379.25 1639.01 1379.25 1641.94 1375.71 1646.13 1371.38ZM1585.4 1310.64C1589.6 1306.31 1593.54 1302.77 1594.16 1302.77 1594.78 1302.77 1591.85 1306.31 1587.65 1310.64 1583.45 1314.97 1579.51 1318.52 1578.9 1318.52 1578.28 1318.52 1581.21 1314.97 1585.4 1310.64ZM1136.65 652.145 819.496 334.423 1137.22 651.579C1311.96 826.015 1454.94 968.99 1454.94 969.301 1454.94 969.612 1454.68 969.866 1454.37 969.866 1454.06 969.866 1311.09 826.891 1136.65 652.145Z" fill="#11498C" transform="matrix(1.00058 0 0 1 1256.85 114.745)"/><path d="M1582.58 1984.28C1538.14 1973.05 1517.04 1931.46 1524.56 1869.89 1530.29 1822.95 1549.07 1761.68 1576.67 1699.92 1589.43 1671.36 1594.56 1664.89 1604.35 1664.99 1614.67 1665.1 1618.2 1668.99 1628.99 1692.16 1655.78 1749.74 1677.11 1816.59 1683.73 1863.66 1694.19 1938.18 1666.8 1983.18 1609.49 1985.62 1599.34 1986.06 1587.23 1985.45 1582.58 1984.28ZM1622.1 1947.33C1633.6 1943.22 1639.14 1937.95 1644.64 1925.84 1650.91 1912.04 1650.6 1877.4 1643.93 1844.87 1637.12 1811.64 1609.57 1730.61 1604.69 1729.43 1600.29 1728.37 1572.37 1809.99 1565.2 1844.87 1558.51 1877.42 1558.18 1912.06 1564.42 1925.84 1566.94 1931.41 1571.11 1937.83 1573.68 1940.11 1580.14 1945.85 1593.78 1950.39 1604.52 1950.39 1609.47 1950.39 1617.38 1949.01 1622.1 1947.33ZM1493.96 1621.74 1470.66 1598.8 1462.23 1606.79C1457.6 1611.19 1452.07 1615.4 1449.94 1616.14 1443.72 1618.31 1432.32 1613.15 1430.04 1607.14 1426.5 1597.83 1427.65 1593.28 1435.82 1584.24 1440.15 1579.44 1443.69 1574.61 1443.69 1573.49 1443.69 1572.37 1436.11 1563.93 1426.85 1554.72L1410 1537.99 1401.54 1546.16C1396.89 1550.65 1391.06 1554.61 1388.58 1554.97 1380.14 1556.18 1371.61 1552.47 1369.38 1546.62 1365.76 1537.09 1366.87 1532.6 1375.09 1523.5 1379.42 1518.71 1382.96 1513.88 1382.96 1512.77 1382.96 1511.66 1372.9 1500.73 1360.61 1488.49L1338.27 1466.23 1325.19 1472.08C1290.5 1487.61 1252.33 1494.97 1207.51 1494.76 1145.99 1494.47 1091.78 1476.93 1040.15 1440.62 1026.5 1431.01 938.777 1344.76 689.589 1095.93 358.9 765.708 357.24 764.005 357.247 755.079 357.254 746.181 359.076 744.284 581.627 521.486 705.032 397.943 808.966 295.561 812.591 293.97 817.06 292.008 821.069 291.735 825.049 293.122 828.276 294.247 980.791 445.204 1163.97 628.581 1520.4 985.39 1508.54 972.821 1530.49 1017.17 1556.25 1069.21 1565.9 1130.72 1557.29 1188.03 1553.78 1211.37 1543.12 1248.03 1535.44 1263.18L1530.99 1271.95 1554.77 1295.73 1578.56 1319.52 1587.6 1310.7C1598.62 1299.93 1610.25 1298.51 1617.18 1307.07 1624 1315.49 1622.55 1324.11 1612.49 1335.02L1603.59 1344.68 1621.46 1362.45 1639.33 1380.21 1648.35 1371.41C1659.35 1360.66 1670.99 1359.25 1677.92 1367.8 1684.73 1376.22 1683.28 1384.84 1673.23 1395.75L1664.33 1405.41 1684.71 1425.51C1705.82 1446.33 1711.36 1454.74 1709.69 1463.47 1709.12 1466.45 1671.98 1505.27 1620.56 1556.62 1539.47 1637.62 1531.8 1644.67 1524.84 1644.67 1518.26 1644.67 1514.21 1641.66 1493.96 1621.74ZM1596.62 1531.11 1667.42 1460.28 1652.89 1445.62 1638.36 1430.95 1613.57 1455.61C1599.93 1469.18 1586.25 1481.19 1583.16 1482.31 1571.44 1486.57 1560.66 1477.9 1560.66 1464.22 1560.66 1461.23 1570.27 1449.79 1587 1432.84L1613.35 1406.17 1594.31 1386.85C1583.85 1376.22 1572.06 1366.13 1568.13 1364.43 1564.2 1362.72 1560.3 1359.04 1559.47 1356.23 1558.02 1351.35 1516.27 1307.27 1513.09 1307.27 1512.25 1307.27 1507.73 1312.58 1503.05 1319.08 1490.95 1335.89 1407.45 1419.91 1388.02 1434.83 1379.05 1441.72 1371.71 1447.99 1371.71 1448.78 1371.71 1449.56 1380.32 1458.77 1390.85 1469.24L1409.98 1488.27 1448.12 1450.18C1483.15 1415.19 1486.91 1412.09 1494.25 1412.09 1504.09 1412.09 1508.66 1416.39 1510.44 1427.31 1511.79 1435.66 1511.67 1435.81 1473.26 1474.45L1434.73 1513.22 1453.32 1531.71C1467.49 1545.81 1473.36 1550.2 1478.04 1550.2 1484.83 1550.2 1492.99 1557.02 1493.52 1563.13 1493.71 1565.3 1493.97 1568.32 1494.11 1569.84 1494.35 1572.57 1522.27 1601.94 1524.62 1601.94 1525.28 1601.94 1557.68 1570.06 1596.62 1531.11ZM1254.23 1455.53C1284.34 1450.94 1324.6 1434.85 1352.77 1416.15 1378.73 1398.91 1447.96 1331.82 1470.92 1301.65 1506.36 1255.06 1523.07 1205.56 1523.33 1146.44 1523.63 1078.55 1502.88 1024.52 1456.29 971.829 1447.13 961.471 1300.36 813.82 1130.13 643.715L820.626 334.434 780.709 374.352 740.791 414.269 980.538 654.391C1112.4 786.458 1223.3 898.562 1226.99 903.51 1277.58 971.361 1277.62 1066.43 1227.08 1137.4 1204.18 1169.56 1149.64 1196.12 1098.19 1200.16 1053.99 1203.64 1000.79 1187.31 964.58 1159.14 959.013 1154.81 847.421 1044.41 716.598 913.808L478.739 676.353 439.355 715.69 399.97 755.026 718.827 1074.09C919.148 1274.54 1044.68 1398.49 1056.5 1407.51 1112.04 1449.87 1181.2 1466.67 1254.23 1455.53ZM1123.08 1159.43C1153.78 1152.39 1184.94 1134.29 1198.88 1115.38 1207.97 1103.05 1219.92 1076.99 1224.59 1059.3 1226.9 1050.53 1228.35 1035.89 1228.43 1020.48 1228.59 990.774 1223.13 968.693 1209.24 942.874 1200.82 927.235 1182.46 908.279 957.543 683.073L714.924 440.143 609.755 545.316 504.587 650.49 746.392 892.021C967.848 1113.22 989.618 1134.33 1005.07 1142.83 1043.05 1163.74 1081.02 1169.08 1123.08 1159.43ZM988.505 1056.16C984.997 1052.65 982.575 1047.72 982.575 1044.09 982.575 1040.47 984.997 1035.54 988.505 1032.03 992.013 1028.52 996.94 1026.1 1000.57 1026.1 1004.2 1026.1 1009.13 1028.52 1012.63 1032.03 1016.14 1035.54 1018.56 1040.47 1018.56 1044.09 1018.56 1047.72 1016.14 1052.65 1012.63 1056.16 1009.13 1059.67 1004.2 1062.09 1000.57 1062.09 996.94 1062.09 992.013 1059.67 988.505 1056.16ZM1054.93 999.786C1047.51 998.317 1042.61 986.043 1045.79 976.921 1050.48 963.464 1072.19 962.716 1077.18 975.84 1079.75 982.598 1078.17 993.126 1074.08 996.522 1070.48 999.509 1061.37 1001.06 1054.93 999.786ZM899.8 967.555C890.074 958.494 891.311 946.77 902.785 939.252 919.082 928.574 937.665 953.809 923.384 967.225 916.824 973.388 906.22 973.536 899.8 967.555ZM1109.97 934.695C1106.46 931.186 1104.04 926.259 1104.04 922.63 1104.04 919.001 1106.46 914.073 1109.97 910.565 1113.48 907.057 1118.41 904.635 1122.03 904.635 1125.66 904.635 1130.59 907.057 1134.1 910.565 1137.61 914.073 1140.03 919.001 1140.03 922.63 1140.03 926.259 1137.61 931.186 1134.1 934.695 1130.59 938.203 1125.66 940.625 1122.03 940.625 1118.41 940.625 1113.48 938.203 1109.97 934.695ZM964.58 909.822C956.324 906.871 952.811 893.772 957.784 884.479 961.232 878.037 971.519 875.384 979.706 878.826 987.759 882.213 990.342 888.375 988.291 899.309 986.419 909.286 976.003 913.904 964.58 909.822ZM814.58 880.994C805.647 877.239 802.038 867.583 806.023 858.105 811.872 844.194 833.1 844.792 838.056 859.008 843.282 874 829.235 887.156 814.58 880.994ZM1021.27 846.089C1011.54 837.029 1012.78 825.305 1024.25 817.787 1040.55 807.109 1059.13 832.344 1044.85 845.76 1038.29 851.922 1027.69 852.071 1021.27 846.089ZM873.043 819.135C867.081 816.734 864.285 804.938 867.607 796.201 870.122 789.586 881.34 785.933 890.354 788.794 897.23 790.976 901.7 802.45 898.854 810.614 895.363 820.628 885.134 824.005 873.043 819.135ZM725.023 791.7C713.745 785.231 711.371 771.525 720.107 763.318 729.031 754.934 742.209 757.575 748.274 768.963 752.32 776.559 751.45 780.708 744.316 787.841 737.309 794.848 732.271 795.856 725.023 791.7ZM936.045 759.529C927.113 755.773 923.503 746.118 927.488 736.64 933.337 722.729 954.565 723.327 959.521 737.542 964.747 752.535 950.7 765.691 936.045 759.529ZM785.524 730.451C773.122 725.085 773.511 704.599 786.106 699.81 793.33 697.064 803.458 698.899 807.419 703.672 811.794 708.943 810.933 721.904 805.888 726.751 799.593 732.798 793.506 733.904 785.524 730.451ZM630.857 698.512C627.349 695.004 624.927 690.076 624.927 686.447 624.927 682.818 627.349 677.891 630.857 674.383 634.365 670.875 639.293 668.453 642.922 668.453 646.551 668.453 651.479 670.875 654.987 674.383 658.495 677.891 660.917 682.818 660.917 686.447 660.917 690.076 658.495 695.004 654.987 698.512 651.479 702.02 646.551 704.442 642.922 704.442 639.293 704.442 634.365 702.02 630.857 698.512ZM846.489 670.234C835.21 663.766 832.836 650.06 841.573 641.852 850.497 633.469 863.674 636.11 869.739 647.498 873.785 655.093 872.915 659.243 865.781 666.376 858.774 673.383 853.736 674.391 846.489 670.234ZM696.519 641.2C682.717 636.039 684.502 612.113 698.903 609.232 708.467 607.32 716.771 610.926 719.533 618.193 722.103 624.951 720.524 635.478 716.431 638.875 712.024 642.532 702.923 643.595 696.519 641.2ZM752.322 577.047C748.814 573.539 746.392 568.611 746.392 564.982 746.392 556.931 756.336 546.987 764.387 546.987 772.438 546.987 782.382 556.931 782.382 564.982 782.382 573.033 772.438 582.977 764.387 582.977 760.758 582.977 755.831 580.555 752.322 577.047Z" fill="#003C84" transform="matrix(1.00058 0 0 1 1256.85 114.745)"/></g></g></g></g></svg>