<svg width="1398" height="1408" xmlns="http://www.w3.org/2000/svg" xmlns:xlink="http://www.w3.org/1999/xlink" xml:space="preserve" overflow="hidden"><defs><clipPath id="clip0"><rect x="1501" y="463" width="1398" height="1408"/></clipPath></defs><g clip-path="url(#clip0)" transform="translate(-1501 -463)"><path d="M2200 756.49C1940.96 210.162 1501 537.959 1501 843.903 1501 1302.82 2200 1871 2200 1871 2200 1871 2899 1302.82 2899 843.903 2899 537.959 2459.04 210.162 2200 756.49Z" fill="#FF0000" fill-rule="evenodd" fill-opacity="0.4"/><g><g><g><path d="M285.64 1297.72 282.267 1293.89 286.094 1297.26C289.67 1300.42 290.558 1301.54 289.467 1301.54 289.218 1301.54 287.496 1299.82 285.64 1297.72ZM570.827 1133.52C569.096 1131.31 569.145 1131.26 571.352 1132.99 572.692 1134.05 573.787 1135.14 573.787 1135.43 573.787 1136.58 572.645 1135.84 570.827 1133.52ZM587.525 1115.43C585.794 1113.22 585.843 1113.17 588.05 1114.91 589.39 1115.96 590.485 1117.05 590.485 1117.34 590.485 1118.49 589.343 1117.75 587.525 1115.43ZM1055.07 1115.43C1053.34 1113.22 1053.39 1113.17 1055.6 1114.91 1056.94 1115.96 1058.03 1117.05 1058.03 1117.34 1058.03 1118.49 1056.89 1117.75 1055.07 1115.43ZM587.525 884.441C585.794 882.234 585.843 882.185 588.05 883.915 589.39 884.966 590.485 886.062 590.485 886.351 590.485 887.496 589.343 886.759 587.525 884.441ZM1055.07 884.441C1053.34 882.234 1053.39 882.185 1055.6 883.915 1056.94 884.966 1058.03 886.062 1058.03 886.351 1058.03 887.496 1056.89 886.759 1055.07 884.441ZM1055.94 751.9C1057.33 750.369 1058.78 749.117 1059.16 749.117 1059.54 749.117 1058.72 750.369 1057.34 751.9 1055.95 753.431 1054.5 754.683 1054.12 754.683 1053.74 754.683 1054.56 753.431 1055.94 751.9ZM1055.81 654.147 1053.16 651.016 1056.29 653.667C1058.01 655.125 1059.42 656.533 1059.42 656.798 1059.42 657.911 1058.3 657.089 1055.81 654.147ZM586.311 523.168C586.311 522.879 587.407 521.783 588.746 520.733 590.953 519.002 591.002 519.051 589.271 521.258 587.454 523.576 586.311 524.313 586.311 523.168ZM1053.86 523.168C1053.86 522.879 1054.95 521.783 1056.29 520.733 1058.5 519.002 1058.55 519.051 1056.82 521.258 1055 523.576 1053.86 524.313 1053.86 523.168ZM586.311 292.178C586.311 291.889 587.407 290.793 588.746 289.743 590.953 288.012 591.002 288.061 589.271 290.268 587.454 292.586 586.311 293.323 586.311 292.178ZM1053.86 292.178C1053.86 291.889 1054.95 290.793 1056.29 289.743 1058.5 288.012 1058.55 288.061 1056.82 290.268 1055 292.586 1053.86 293.323 1053.86 292.178ZM569.613 274.088C569.613 273.799 570.709 272.704 572.048 271.653 574.255 269.922 574.304 269.972 572.573 272.179 570.755 274.497 569.613 275.234 569.613 274.088ZM285.746 108.329C287.543 106.416 289.327 104.85 289.71 104.85 290.092 104.85 288.935 106.416 287.137 108.329 285.34 110.242 283.556 111.808 283.173 111.808 282.791 111.808 283.948 110.242 285.746 108.329Z" fill="#CBD7E6" transform="matrix(1 0 0 1.00047 1503.81 463.442)"/><path d="M523.233 1328.33C617.499 1328.13 772.164 1328.13 866.935 1328.33 961.706 1328.53 884.58 1328.69 695.544 1328.69 506.508 1328.69 428.968 1328.53 523.233 1328.33ZM231.587 1235.33C231.654 1233.71 231.983 1233.38 232.428 1234.49 232.83 1235.5 232.78 1236.7 232.318 1237.16 231.855 1237.62 231.527 1236.8 231.587 1235.33ZM1160.3 703.197C1160.3 411.99 1160.46 292.86 1160.65 438.464 1160.85 584.067 1160.85 822.328 1160.65 967.931 1160.46 1113.53 1160.3 994.404 1160.3 703.197ZM255.821 703.197C255.821 413.521 255.981 295.017 256.176 439.855 256.372 584.693 256.372 821.701 256.176 966.54 255.981 1111.38 255.821 992.874 255.821 703.197ZM707.789 1205.53C707.789 1201.32 708.05 1199.6 708.368 1201.7 708.687 1203.81 708.687 1207.25 708.368 1209.36 708.05 1211.46 707.789 1209.74 707.789 1205.53ZM474.265 1165.87 474.296 1119.95 505.953 1119.91 537.611 1119.87 506.32 1120.29 475.029 1120.7 474.633 1166.25 474.237 1211.79ZM941.811 1165.87 941.841 1119.95 973.499 1119.91 1005.16 1119.87 973.866 1120.29 942.575 1120.7 942.179 1166.25 941.783 1211.79ZM608.795 1165.18C608.795 1163.26 609.11 1162.48 609.497 1163.44 609.883 1164.39 609.883 1165.96 609.497 1166.92 609.11 1167.87 608.795 1167.09 608.795 1165.18ZM707.789 1135.96C707.789 1131.75 708.05 1130.02 708.368 1132.13 708.687 1134.23 708.687 1137.68 708.368 1139.78 708.05 1141.89 707.789 1140.16 707.789 1135.96ZM403.059 1119.61C412.094 1119.37 426.496 1119.37 435.063 1119.61 443.63 1119.85 436.237 1120.05 418.635 1120.05 401.032 1120.05 394.023 1119.85 403.059 1119.61ZM870.604 1119.61C879.64 1119.37 894.042 1119.37 902.609 1119.61 911.176 1119.85 903.783 1120.05 886.18 1120.05 868.578 1120.05 861.568 1119.85 870.604 1119.61ZM707.789 1066.38C707.789 1062.17 708.05 1060.45 708.368 1062.55 708.687 1064.66 708.687 1068.1 708.368 1070.21 708.05 1072.31 707.789 1070.59 707.789 1066.38ZM707.789 996.805C707.789 992.596 708.05 990.874 708.368 992.978 708.687 995.083 708.687 998.527 708.368 1000.63 708.05 1002.74 707.789 1001.01 707.789 996.805ZM474.223 934.187C474.223 908.549 474.411 898.06 474.64 910.879 474.87 923.699 474.87 944.676 474.64 957.495 474.411 970.314 474.223 959.826 474.223 934.187ZM941.768 934.187C941.768 908.549 941.956 898.06 942.186 910.879 942.415 923.699 942.415 944.676 942.186 957.495 941.956 970.314 941.768 959.826 941.768 934.187ZM608.795 934.187C608.795 932.274 609.11 931.491 609.497 932.448 609.883 933.404 609.883 934.97 609.497 935.927 609.11 936.883 608.795 936.1 608.795 934.187ZM707.789 927.23C707.789 923.02 708.05 921.298 708.368 923.403 708.687 925.508 708.687 928.952 708.368 931.056 708.05 933.161 707.789 931.439 707.789 927.23ZM707.789 857.654C707.789 853.445 708.05 851.723 708.368 853.828 708.687 855.932 708.687 859.376 708.368 861.481 708.05 863.586 707.789 861.864 707.789 857.654ZM707.789 788.079C707.789 783.87 708.05 782.148 708.368 784.253 708.687 786.357 708.687 789.801 708.368 791.906 708.05 794.01 707.789 792.288 707.789 788.079ZM474.223 703.197C474.223 677.559 474.411 667.07 474.64 679.89 474.87 692.709 474.87 713.686 474.64 726.505 474.411 739.324 474.223 728.836 474.223 703.197ZM941.768 703.197C941.768 677.559 941.956 667.07 942.186 679.89 942.415 692.709 942.415 713.686 942.186 726.505 941.956 739.324 941.768 728.836 941.768 703.197ZM707.789 718.504C707.789 714.294 708.05 712.573 708.368 714.677 708.687 716.782 708.687 720.226 708.368 722.331 708.05 724.435 707.789 722.713 707.789 718.504ZM608.795 703.197C608.795 701.284 609.11 700.501 609.497 701.458 609.883 702.415 609.883 703.98 609.497 704.937 609.11 705.893 608.795 705.111 608.795 703.197ZM707.789 648.929C707.789 644.719 708.05 642.997 708.368 645.102 708.687 647.207 708.687 650.651 708.368 652.755 708.05 654.86 707.789 653.138 707.789 648.929ZM707.789 579.353C707.789 575.144 708.05 573.422 708.368 575.527 708.687 577.631 708.687 581.075 708.368 583.18 708.05 585.285 707.789 583.563 707.789 579.353ZM474.223 472.207C474.223 446.569 474.411 436.081 474.64 448.9 474.87 461.719 474.87 482.696 474.64 495.515 474.411 508.334 474.223 497.846 474.223 472.207ZM941.768 472.207C941.768 446.569 941.956 436.081 942.186 448.9 942.415 461.719 942.415 482.696 942.186 495.515 941.956 508.334 941.768 497.846 941.768 472.207ZM707.789 509.778C707.789 505.569 708.05 503.847 708.368 505.951 708.687 508.056 708.687 511.5 708.368 513.605 708.05 515.709 707.789 513.987 707.789 509.778ZM608.795 472.207C608.795 470.294 609.11 469.511 609.497 470.468 609.883 471.425 609.883 472.99 609.497 473.947 609.11 474.904 608.795 474.121 608.795 472.207ZM707.789 440.203C707.789 435.994 708.05 434.272 708.368 436.376 708.687 438.481 708.687 441.925 708.368 444.03 708.05 446.134 707.789 444.412 707.789 440.203ZM707.789 370.628C707.789 366.418 708.05 364.696 708.368 366.801 708.687 368.906 708.687 372.35 708.368 374.454 708.05 376.559 707.789 374.837 707.789 370.628ZM707.789 301.052C707.789 296.843 708.05 295.121 708.368 297.226 708.687 299.33 708.687 302.774 708.368 304.879 708.05 306.984 707.789 305.262 707.789 301.052ZM403.059 286.097C412.094 285.855 426.496 285.856 435.063 286.099 443.63 286.343 436.237 286.542 418.635 286.541 401.032 286.54 394.023 286.34 403.059 286.097ZM474.231 285.386C473.861 284.423 473.734 263.602 473.947 239.118L474.335 194.602 474.663 240.148 474.991 285.694 506.647 286.095 538.304 286.496 506.604 286.817C482.172 287.064 474.749 286.736 474.231 285.386ZM870.604 286.097C879.64 285.855 894.042 285.856 902.609 286.099 911.176 286.343 903.783 286.542 886.18 286.541 868.578 286.54 861.568 286.34 870.604 286.097ZM941.777 285.386C941.407 284.423 941.279 263.602 941.493 239.118L941.881 194.602 942.208 240.148 942.536 285.694 974.193 286.095 1005.85 286.496 974.149 286.817C949.717 287.064 942.294 286.736 941.776 285.386ZM608.795 241.218C608.795 239.304 609.11 238.522 609.497 239.478 609.883 240.435 609.883 242 609.497 242.957 609.11 243.914 608.795 243.131 608.795 241.218ZM707.789 231.477C707.789 227.268 708.05 225.546 708.368 227.65 708.687 229.755 708.687 233.199 708.368 235.304 708.05 237.408 707.789 235.686 707.789 231.477ZM231.587 170.831C231.654 169.21 231.983 168.88 232.428 169.99 232.83 170.994 232.78 172.195 232.318 172.657 231.855 173.119 231.527 172.298 231.587 170.831ZM707.789 161.902C707.789 157.693 708.05 155.971 708.368 158.075 708.687 160.18 708.687 163.624 708.368 165.728 708.05 167.833 707.789 166.111 707.789 161.902ZM523.233 77.368C617.499 77.1706 772.164 77.1706 866.935 77.368 961.706 77.5653 884.58 77.7268 695.544 77.7268 506.508 77.7268 428.968 77.5654 523.233 77.368Z" fill="#B9C9DC" transform="matrix(1 0 0 1.00047 1503.81 463.442)"/><path d="M1103.95 1299.63C1103.95 1299.34 1105.05 1298.24 1106.39 1297.19 1108.59 1295.46 1108.64 1295.51 1106.91 1297.72 1105.09 1300.04 1103.95 1300.77 1103.95 1299.63ZM586.311 1216.14C586.311 1215.85 587.407 1214.75 588.746 1213.7 590.953 1211.97 591.002 1212.02 589.271 1214.23 587.454 1216.55 586.311 1217.28 586.311 1216.14ZM384.282 1119.7C385.286 1119.3 386.486 1119.35 386.949 1119.81 387.411 1120.27 386.589 1120.6 385.122 1120.54 383.501 1120.47 383.172 1120.14 384.282 1119.7ZM538.739 1119.7C539.743 1119.3 540.943 1119.35 541.406 1119.81 541.868 1120.27 541.046 1120.6 539.579 1120.54 537.958 1120.47 537.629 1120.14 538.739 1119.7ZM851.827 1119.7C852.832 1119.3 854.032 1119.35 854.494 1119.81 854.957 1120.27 854.135 1120.6 852.668 1120.54 851.047 1120.47 850.717 1120.14 851.827 1119.7ZM801.994 1117.34C801.994 1117.05 803.09 1115.96 804.429 1114.91 806.636 1113.17 806.685 1113.22 804.955 1115.43 803.137 1117.75 801.994 1118.49 801.994 1117.34ZM803.208 290.268C801.477 288.061 801.527 288.012 803.734 289.743 806.051 291.561 806.789 292.703 805.643 292.703 805.354 292.703 804.259 291.608 803.208 290.268ZM384.282 286.187C385.286 285.785 386.486 285.834 386.949 286.297 387.411 286.759 386.589 287.088 385.122 287.027 383.501 286.961 383.172 286.631 384.282 286.187ZM538.739 286.187C539.743 285.785 540.943 285.834 541.406 286.297 541.868 286.759 541.046 287.088 539.579 287.027 537.958 286.961 537.629 286.631 538.739 286.187ZM851.827 286.187C852.832 285.785 854.032 285.834 854.494 286.297 854.957 286.759 854.135 287.088 852.668 287.027 851.047 286.961 850.717 286.631 851.827 286.187ZM587.525 191.471C585.794 189.264 585.843 189.215 588.05 190.946 589.39 191.996 590.485 193.092 590.485 193.381 590.485 194.526 589.343 193.789 587.525 191.471ZM1105.16 107.981C1103.43 105.774 1103.48 105.725 1105.69 107.456 1108.01 109.273 1108.75 110.416 1107.6 110.416 1107.31 110.416 1106.22 109.32 1105.16 107.981Z" fill="#95AECB" transform="matrix(1 0 0 1.00047 1503.81 463.442)"/><path d="M349.407 1352.11C350.364 1351.72 351.929 1351.72 352.886 1352.11 353.843 1352.49 353.06 1352.81 351.147 1352.81 349.233 1352.81 348.451 1352.49 349.407 1352.11ZM1039.68 1352.08C1040.69 1351.68 1041.89 1351.73 1042.35 1352.19 1042.81 1352.65 1041.99 1352.98 1040.52 1352.92 1038.9 1352.85 1038.57 1352.52 1039.68 1352.08ZM349.494 1328.42C350.499 1328.02 351.699 1328.07 352.161 1328.53 352.624 1328.99 351.802 1329.32 350.335 1329.26 348.714 1329.2 348.384 1328.87 349.494 1328.42ZM1122.04 1314.76C1123.84 1312.85 1125.62 1311.28 1126 1311.28 1126.39 1311.28 1125.23 1312.85 1123.43 1314.76 1121.63 1316.68 1119.85 1318.24 1119.47 1318.24 1119.09 1318.24 1120.24 1316.68 1122.04 1314.76ZM261.913 1307.46C260.182 1305.25 260.231 1305.2 262.438 1306.93 263.777 1307.98 264.873 1309.08 264.873 1309.37 264.873 1310.51 263.731 1309.77 261.913 1307.46ZM255.352 1231.97C255.352 1230.05 255.668 1229.27 256.054 1230.23 256.44 1231.19 256.44 1232.75 256.054 1233.71 255.668 1234.66 255.352 1233.88 255.352 1231.97ZM231.587 1231.16C231.654 1229.54 231.983 1229.21 232.428 1230.32 232.83 1231.32 232.78 1232.52 232.318 1232.98 231.855 1233.44 231.527 1232.62 231.587 1231.16ZM335.662 1214.23C333.932 1212.02 333.981 1211.97 336.188 1213.7 337.527 1214.75 338.623 1215.85 338.623 1216.14 338.623 1217.28 337.48 1216.54 335.662 1214.23ZM315.239 1165.87C315.267 1163.58 315.579 1162.8 315.932 1164.16 316.284 1165.51 316.261 1167.39 315.88 1168.33 315.499 1169.28 315.21 1168.17 315.239 1165.87ZM782.836 1165.18C782.836 1162.5 783.122 1161.4 783.472 1162.74 783.822 1164.08 783.822 1166.27 783.472 1167.61 783.122 1168.95 782.836 1167.85 782.836 1165.18ZM806.44 1165.87C806.47 1163.58 806.78 1162.8 807.133 1164.16 807.486 1165.51 807.463 1167.39 807.081 1168.33 806.7 1169.28 806.411 1168.17 806.44 1165.87ZM338.843 1165.18C338.843 1163.26 339.159 1162.48 339.545 1163.44 339.931 1164.39 339.931 1165.96 339.545 1166.91 339.159 1167.87 338.843 1167.09 338.843 1165.18ZM335.662 983.236C333.932 981.029 333.981 980.98 336.188 982.711 337.527 983.761 338.623 984.857 338.623 985.146 338.623 986.291 337.48 985.554 335.662 983.236ZM803.208 983.236C801.477 981.029 801.527 980.98 803.734 982.711 805.073 983.761 806.169 984.857 806.169 985.146 806.169 986.291 805.026 985.554 803.208 983.236ZM315.239 934.881C315.267 932.585 315.579 931.815 315.932 933.169 316.284 934.522 316.261 936.401 315.88 937.343 315.499 938.285 315.21 937.177 315.239 934.881ZM782.836 934.186C782.836 931.507 783.122 930.411 783.472 931.751 783.822 933.09 783.822 935.281 783.472 936.621 783.122 937.96 782.836 936.864 782.836 934.186ZM806.491 934.186C806.491 931.507 806.778 930.411 807.128 931.751 807.478 933.09 807.478 935.281 807.128 936.621 806.778 937.96 806.491 936.864 806.491 934.186ZM338.843 934.186C338.843 932.272 339.159 931.49 339.545 932.446 339.931 933.403 339.931 934.968 339.545 935.925 339.159 936.882 338.843 936.099 338.843 934.186ZM803.208 752.246C801.477 750.039 801.527 749.99 803.734 751.721 805.073 752.771 806.169 753.867 806.169 754.156 806.169 755.301 805.026 754.565 803.208 752.246ZM819.906 735.548C818.175 733.341 818.225 733.292 820.432 735.023 821.771 736.073 822.867 737.169 822.867 737.458 822.867 738.603 821.724 737.866 819.906 735.548ZM782.836 703.196C782.836 700.517 783.122 699.421 783.472 700.761 783.822 702.1 783.822 704.292 783.472 705.631 783.122 706.97 782.836 705.875 782.836 703.196ZM806.491 703.196C806.491 700.517 806.778 699.421 807.128 700.761 807.478 702.1 807.478 704.292 807.128 705.631 806.778 706.97 806.491 705.875 806.491 703.196ZM315.187 703.196C315.187 701.283 315.503 700.5 315.889 701.457 316.275 702.413 316.275 703.979 315.889 704.935 315.503 705.892 315.187 705.109 315.187 703.196ZM338.843 703.196C338.843 701.283 339.159 700.5 339.545 701.457 339.931 702.413 339.931 703.979 339.545 704.935 339.159 705.892 338.843 705.109 338.843 703.196ZM818.692 672.057C818.692 671.768 819.788 670.673 821.127 669.622 823.334 667.891 823.384 667.941 821.653 670.148 819.835 672.466 818.692 673.203 818.692 672.057ZM801.994 655.359C801.994 655.07 803.09 653.975 804.429 652.924 806.636 651.193 806.685 651.243 804.955 653.45 803.137 655.767 801.994 656.505 801.994 655.359ZM782.836 472.206C782.836 469.527 783.122 468.432 783.472 469.771 783.822 471.11 783.822 473.302 783.472 474.641 783.122 475.98 782.836 474.885 782.836 472.206ZM806.491 472.206C806.491 469.527 806.778 468.432 807.128 469.771 807.478 471.11 807.478 473.302 807.128 474.641 806.778 475.98 806.491 474.885 806.491 472.206ZM315.239 471.51C315.267 469.214 315.579 468.444 315.932 469.797 316.284 471.151 316.261 473.03 315.88 473.972 315.499 474.914 315.21 473.806 315.239 471.51ZM338.843 472.206C338.843 470.293 339.159 469.51 339.545 470.467 339.931 471.423 339.931 472.989 339.545 473.945 339.159 474.902 338.843 474.119 338.843 472.206ZM334.448 424.371C334.448 424.082 335.544 422.986 336.884 421.936 339.091 420.205 339.14 420.254 337.409 422.461 335.591 424.779 334.448 425.516 334.448 424.371ZM801.994 424.371C801.994 424.082 803.09 422.986 804.429 421.936 806.636 420.205 806.685 420.254 804.955 422.461 803.137 424.779 801.994 425.516 801.994 424.371ZM782.836 241.218C782.836 238.539 783.122 237.443 783.472 238.783 783.822 240.122 783.822 242.313 783.472 243.653 783.122 244.992 782.836 243.896 782.836 241.218ZM315.239 240.522C315.267 238.226 315.579 237.455 315.932 238.809 316.284 240.163 316.261 242.041 315.88 242.984 315.499 243.926 315.21 242.818 315.239 240.522ZM338.843 241.218C338.843 239.304 339.159 238.522 339.545 239.478 339.931 240.435 339.931 242 339.545 242.957 339.159 243.914 338.843 243.131 338.843 241.218ZM806.44 240.522C806.47 238.226 806.78 237.455 807.133 238.809 807.486 240.163 807.463 242.041 807.081 242.984 806.7 243.926 806.411 242.818 806.44 240.522ZM334.448 193.381C334.448 193.092 335.544 191.996 336.884 190.946 339.091 189.215 339.14 189.264 337.409 191.471 335.591 193.789 334.448 194.526 334.448 193.381ZM231.587 175.005C231.654 173.384 231.983 173.054 232.428 174.164 232.83 175.169 232.78 176.369 232.318 176.832 231.855 177.294 231.527 176.472 231.587 175.005ZM255.352 174.425C255.352 172.512 255.668 171.729 256.054 172.686 256.44 173.643 256.44 175.208 256.054 176.165 255.668 177.121 255.352 176.339 255.352 174.425ZM260.699 100.15C260.699 99.8613 261.794 98.7655 263.134 97.7151 265.341 95.9843 265.39 96.0335 263.659 98.2405 261.841 100.558 260.699 101.296 260.699 100.15ZM1121.93 91.283 1118.56 87.4563 1122.39 90.8298C1124.49 92.6852 1126.21 94.4072 1126.21 94.6564 1126.21 95.7477 1125.09 94.8595 1121.93 91.283ZM349.494 77.461C350.499 77.059 351.699 77.1085 352.161 77.5708 352.624 78.0332 351.802 78.3621 350.335 78.3017 348.714 78.2349 348.384 77.9052 349.494 77.461ZM349.407 53.8344C350.364 53.4484 351.929 53.4484 352.886 53.8344 353.843 54.2204 353.06 54.5363 351.147 54.5363 349.233 54.5363 348.451 54.2204 349.407 53.8344ZM1039.68 53.8053C1040.69 53.4033 1041.89 53.4527 1042.35 53.9151 1042.81 54.3775 1041.99 54.7064 1040.52 54.646 1038.9 54.5792 1038.57 54.2495 1039.68 53.8053Z" fill="#7193BA" transform="matrix(1 0 0 1.00047 1503.81 463.442)"/><path d="M524.737 1351.99C619.063 1351.79 773.416 1351.79 867.743 1351.99 962.069 1352.18 884.893 1352.35 696.24 1352.35 507.586 1352.35 430.41 1352.18 524.737 1351.99ZM266.087 1311.63C264.356 1309.43 264.406 1309.38 266.613 1311.11 268.931 1312.93 269.668 1314.07 268.522 1314.07 268.233 1314.07 267.138 1312.97 266.087 1311.63ZM1136.64 703.197C1136.64 411.99 1136.8 292.86 1137 438.464 1137.19 584.067 1137.19 822.328 1137 967.931 1136.8 1113.53 1136.64 994.404 1136.64 703.197ZM232.166 703.197C232.166 413.521 232.325 295.017 232.521 439.855 232.716 584.693 232.716 821.701 232.521 966.54 232.325 1111.38 232.166 992.874 232.166 703.197ZM684.147 1204.83C684.156 1200.24 684.415 1198.53 684.725 1201.03 685.034 1203.53 685.028 1207.29 684.712 1209.38 684.394 1211.47 684.141 1209.43 684.149 1204.83ZM450.566 1165.87C450.566 1140.62 450.754 1130.09 450.984 1142.48 451.215 1154.86 451.215 1175.53 450.985 1188.4 450.755 1201.26 450.567 1191.13 450.566 1165.87ZM918.112 1165.87C918.111 1140.62 918.299 1130.09 918.53 1142.48 918.76 1154.86 918.761 1175.53 918.531 1188.4 918.301 1201.26 918.112 1191.13 918.112 1165.87ZM585.139 1165.18C585.139 1163.26 585.455 1162.48 585.841 1163.44 586.227 1164.39 586.227 1165.96 585.841 1166.92 585.455 1167.87 585.139 1167.09 585.139 1165.18ZM684.147 1135.26C684.156 1130.67 684.415 1128.96 684.725 1131.46 685.034 1133.96 685.028 1137.72 684.712 1139.81 684.394 1141.9 684.141 1139.85 684.149 1135.26ZM405.763 1095.95C415.521 1095.71 431.489 1095.71 441.246 1095.95 451.004 1096.19 443.021 1096.39 423.505 1096.39 403.989 1096.39 396.005 1096.19 405.763 1095.95ZM483.768 1095.95C493.571 1095.71 509.225 1095.71 518.556 1095.95 527.887 1096.19 519.867 1096.39 500.733 1096.39 481.6 1096.39 473.966 1096.19 483.768 1095.95ZM873.309 1095.95C883.067 1095.71 899.034 1095.71 908.792 1095.95 918.55 1096.19 910.566 1096.39 891.05 1096.39 871.535 1096.39 863.551 1096.19 873.309 1095.95ZM951.314 1095.95C961.117 1095.71 976.771 1095.71 986.102 1095.95 995.432 1096.19 987.412 1096.39 968.279 1096.39 949.146 1096.39 941.512 1096.19 951.314 1095.95ZM684.147 1065.68C684.156 1061.09 684.415 1059.38 684.725 1061.88 685.034 1064.38 685.028 1068.14 684.712 1070.23 684.394 1072.32 684.141 1070.28 684.149 1065.68ZM684.147 996.109C684.156 991.517 684.415 989.806 684.725 992.307 685.034 994.808 685.028 998.565 684.712 1000.66 684.394 1002.75 684.141 1000.7 684.149 996.109ZM450.567 934.187C450.567 908.549 450.755 898.06 450.985 910.879 451.214 923.699 451.214 944.676 450.985 957.495 450.755 970.314 450.567 959.826 450.567 934.187ZM918.113 934.187C918.113 908.549 918.301 898.06 918.53 910.879 918.76 923.699 918.76 944.676 918.53 957.495 918.301 970.314 918.113 959.826 918.113 934.187ZM569.613 968.449C569.613 968.16 570.709 967.065 572.048 966.014 574.255 964.283 574.304 964.333 572.573 966.54 570.755 968.857 569.613 969.595 569.613 968.449ZM1037.16 968.449C1037.16 968.16 1038.25 967.065 1039.59 966.014 1041.8 964.283 1041.85 964.333 1040.12 966.54 1038.3 968.857 1037.16 969.595 1037.16 968.449ZM585.139 934.187C585.139 932.274 585.455 931.491 585.841 932.448 586.227 933.404 586.227 934.97 585.841 935.927 585.455 936.883 585.139 936.1 585.139 934.187ZM684.147 926.534C684.156 921.942 684.415 920.231 684.725 922.732 685.034 925.233 685.028 928.99 684.712 931.081 684.394 933.172 684.141 931.126 684.149 926.534ZM684.147 856.959C684.156 852.367 684.415 850.656 684.725 853.157 685.034 855.658 685.028 859.415 684.712 861.506 684.394 863.597 684.141 861.551 684.149 856.959ZM684.147 787.383C684.156 782.791 684.415 781.081 684.725 783.582 685.034 786.083 685.028 789.84 684.712 791.931 684.394 794.022 684.141 791.975 684.149 787.383ZM450.567 703.197C450.567 677.559 450.755 667.07 450.985 679.89 451.214 692.709 451.214 713.686 450.985 726.505 450.755 739.324 450.567 728.836 450.567 703.197ZM918.113 703.197C918.113 677.559 918.301 667.07 918.53 679.89 918.76 692.709 918.76 713.686 918.53 726.505 918.301 739.324 918.113 728.836 918.113 703.197ZM684.147 717.808C684.156 713.216 684.415 711.505 684.725 714.006 685.034 716.507 685.028 720.264 684.712 722.355 684.394 724.446 684.141 722.4 684.149 717.808ZM585.139 703.197C585.139 701.284 585.455 700.501 585.841 701.458 586.227 702.415 586.227 703.98 585.841 704.937 585.455 705.893 585.139 705.111 585.139 703.197ZM684.147 648.233C684.156 643.641 684.415 641.93 684.725 644.431 685.034 646.932 685.028 650.689 684.712 652.78 684.394 654.871 684.141 652.825 684.149 648.233ZM684.147 578.658C684.156 574.066 684.415 572.355 684.725 574.856 685.034 577.357 685.028 581.114 684.712 583.205 684.394 585.296 684.141 583.25 684.149 578.658ZM450.567 472.207C450.567 446.569 450.755 436.081 450.985 448.9 451.214 461.719 451.214 482.696 450.985 495.515 450.755 508.334 450.567 497.846 450.567 472.207ZM918.113 472.207C918.113 446.569 918.301 436.081 918.53 448.9 918.76 461.719 918.76 482.696 918.53 495.515 918.301 508.334 918.113 497.846 918.113 472.207ZM684.147 509.082C684.156 504.49 684.415 502.78 684.725 505.281 685.034 507.782 685.028 511.539 684.712 513.63 684.394 515.721 684.141 513.674 684.149 509.082ZM585.139 472.207C585.139 470.294 585.455 469.511 585.841 470.468 586.227 471.425 586.227 472.99 585.841 473.947 585.455 474.904 585.139 474.121 585.139 472.207ZM684.147 439.507C684.156 434.915 684.415 433.204 684.725 435.705 685.034 438.206 685.028 441.963 684.712 444.054 684.394 446.145 684.141 444.099 684.149 439.507ZM570.827 439.159C569.096 436.952 569.145 436.903 571.352 438.634 573.67 440.452 574.407 441.594 573.262 441.594 572.973 441.594 571.877 440.499 570.827 439.159ZM1038.37 439.159C1036.64 436.952 1036.69 436.903 1038.9 438.634 1041.22 440.452 1041.95 441.594 1040.81 441.594 1040.52 441.594 1039.42 440.499 1038.37 439.159ZM684.147 369.932C684.156 365.34 684.415 363.629 684.725 366.13 685.034 368.631 685.028 372.388 684.712 374.479 684.394 376.57 684.141 374.524 684.149 369.932ZM405.763 309.753C415.521 309.514 431.489 309.514 441.246 309.753 451.004 309.992 443.021 310.188 423.505 310.188 403.989 310.188 396.005 309.992 405.763 309.753ZM483.768 309.753C493.571 309.513 509.225 309.514 518.556 309.754 527.887 309.994 519.867 310.19 500.733 310.19 481.6 310.189 473.966 309.992 483.768 309.753ZM873.309 309.753C883.067 309.514 899.034 309.514 908.792 309.753 918.55 309.992 910.566 310.188 891.05 310.188 871.535 310.188 863.551 309.992 873.309 309.753ZM951.314 309.753C961.117 309.513 976.771 309.514 986.102 309.754 995.432 309.994 987.412 310.19 968.279 310.19 949.146 310.189 941.512 309.992 951.314 309.753ZM684.147 300.357C684.156 295.765 684.415 294.054 684.725 296.555 685.034 299.056 685.028 302.813 684.712 304.904 684.394 306.995 684.141 304.949 684.149 300.357ZM450.566 240.522C450.566 215.266 450.754 204.738 450.984 217.126 451.215 229.514 451.215 250.178 450.985 263.045 450.755 275.913 450.567 265.778 450.566 240.522ZM918.112 240.522C918.111 215.266 918.299 204.738 918.53 217.126 918.76 229.514 918.761 250.178 918.531 263.045 918.301 275.913 918.112 265.778 918.112 240.522ZM585.139 241.218C585.139 239.304 585.455 238.522 585.841 239.478 586.227 240.435 586.227 242 585.841 242.957 585.455 243.914 585.139 243.131 585.139 241.218ZM684.147 230.781C684.156 226.189 684.415 224.479 684.725 226.98 685.034 229.481 685.028 233.238 684.712 235.329 684.394 237.42 684.141 235.373 684.149 230.781ZM684.147 161.206C684.156 156.614 684.415 154.903 684.725 157.404 685.034 159.905 685.028 163.662 684.712 165.753 684.394 167.844 684.141 165.798 684.149 161.206ZM264.873 95.9757C264.873 95.6868 265.969 94.591 267.308 93.5406 269.515 91.8098 269.565 91.859 267.834 94.066 266.016 96.3839 264.873 97.121 264.873 95.9757ZM524.737 53.7124C619.063 53.515 773.416 53.515 867.743 53.7124 962.069 53.9098 884.893 54.0713 696.24 54.0713 507.586 54.0713 430.41 53.9098 524.737 53.7124Z" fill="#4570A5" transform="matrix(1 0 0 1.00047 1503.81 463.442)"/><path d="M284.918 1298.41 282.267 1295.28 285.398 1297.93C287.12 1299.39 288.529 1300.8 288.529 1301.06 288.529 1302.18 287.409 1301.36 284.918 1298.41ZM1038.37 1132.13C1036.64 1129.92 1036.69 1129.87 1038.9 1131.6 1040.24 1132.65 1041.33 1133.75 1041.33 1134.04 1041.33 1135.18 1040.19 1134.45 1038.37 1132.13ZM587.525 1116.82C585.794 1114.62 585.843 1114.57 588.05 1116.3 590.368 1118.11 591.105 1119.26 589.96 1119.26 589.671 1119.26 588.575 1118.16 587.525 1116.82ZM383.526 1096.03C384.879 1095.68 386.758 1095.7 387.7 1096.08 388.642 1096.46 387.534 1096.75 385.238 1096.72 382.942 1096.69 382.172 1096.38 383.526 1096.03ZM460.032 1096.03C461.371 1095.68 463.563 1095.68 464.902 1096.03 466.241 1096.38 465.146 1096.67 462.467 1096.67 459.788 1096.67 458.693 1096.38 460.032 1096.03ZM536.565 1096.03C537.904 1095.68 540.096 1095.68 541.435 1096.03 542.774 1096.38 541.678 1096.67 539 1096.67 536.321 1096.67 535.225 1096.38 536.565 1096.03ZM851.071 1096.03C852.425 1095.68 854.304 1095.7 855.246 1096.08 856.188 1096.46 855.08 1096.75 852.784 1096.72 850.488 1096.69 849.717 1096.38 851.071 1096.03ZM927.577 1096.03C928.917 1095.68 931.108 1095.68 932.448 1096.03 933.787 1096.38 932.691 1096.67 930.013 1096.67 927.334 1096.67 926.238 1096.38 927.577 1096.03ZM1004.11 1096.03C1005.45 1095.68 1007.64 1095.68 1008.98 1096.03 1010.32 1096.38 1009.22 1096.67 1006.55 1096.67 1003.87 1096.67 1002.77 1096.38 1004.11 1096.03ZM586.874 885.136 584.224 882.005 587.355 884.656C590.297 887.147 591.119 888.267 590.005 888.267 589.741 888.267 588.332 886.858 586.874 885.136ZM1055.07 885.832C1053.34 883.625 1053.39 883.575 1055.6 885.306 1056.94 886.357 1058.03 887.452 1058.03 887.741 1058.03 888.887 1056.89 888.15 1055.07 885.832ZM1054.55 751.899C1055.94 750.369 1057.38 749.116 1057.77 749.116 1058.15 749.116 1057.33 750.369 1055.94 751.899 1054.56 753.43 1053.11 754.682 1052.73 754.682 1052.35 754.682 1053.17 753.43 1054.55 751.899ZM1054.42 654.146 1051.77 651.015 1054.9 653.666C1056.62 655.124 1058.03 656.533 1058.03 656.797 1058.03 657.91 1056.91 657.088 1054.42 654.146ZM587.007 520.909C588.392 519.379 589.838 518.126 590.221 518.126 590.604 518.126 589.783 519.379 588.398 520.909 587.013 522.44 585.566 523.692 585.184 523.692 584.801 523.692 585.621 522.44 587.007 520.909ZM1054.55 520.909C1055.94 519.379 1057.38 518.126 1057.77 518.126 1058.15 518.126 1057.33 519.379 1055.94 520.909 1054.56 522.44 1053.11 523.692 1052.73 523.692 1052.35 523.692 1053.17 522.44 1054.55 520.909ZM383.526 309.829C384.879 309.476 386.758 309.499 387.7 309.88 388.642 310.261 387.534 310.55 385.238 310.522 382.942 310.493 382.172 310.181 383.526 309.829ZM460.032 309.834C461.371 309.484 463.563 309.484 464.902 309.834 466.241 310.184 465.146 310.47 462.467 310.47 459.788 310.47 458.693 310.184 460.032 309.834ZM536.565 309.834C537.904 309.484 540.096 309.484 541.435 309.834 542.774 310.184 541.678 310.47 539 310.47 536.321 310.47 535.225 310.184 536.565 309.834ZM851.071 309.829C852.425 309.476 854.304 309.499 855.246 309.88 856.188 310.261 855.08 310.55 852.784 310.522 850.488 310.493 849.717 310.181 851.071 309.829ZM927.577 309.834C928.917 309.484 931.108 309.484 932.448 309.834 933.787 310.184 932.691 310.47 930.013 310.47 927.334 310.47 926.238 310.184 927.577 309.834ZM1004.11 309.834C1005.45 309.484 1007.64 309.484 1008.98 309.834 1010.32 310.184 1009.22 310.47 1006.55 310.47 1003.87 310.47 1002.77 310.184 1004.11 309.834ZM586.311 290.787C586.311 290.498 587.407 289.402 588.746 288.351 590.953 286.621 591.002 286.67 589.271 288.877 587.454 291.195 586.311 291.932 586.311 290.787ZM1037.16 275.48C1037.16 275.191 1038.25 274.095 1039.59 273.045 1041.8 271.314 1041.85 271.363 1040.12 273.57 1038.3 275.888 1037.16 276.625 1037.16 275.48ZM285.05 107.633C286.435 106.103 287.882 104.85 288.264 104.85 288.647 104.85 287.827 106.103 286.442 107.633 285.056 109.164 283.61 110.416 283.227 110.416 282.845 110.416 283.665 109.164 285.05 107.633Z" fill="#205493" transform="matrix(1 0 0 1.00047 1503.81 463.442)"/><path d="M342.102 1350.78C340.571 1350.47 335.875 1349.53 331.665 1348.68 293.834 1341.05 257.143 1309.69 241.942 1271.99 232.11 1247.6 232.869 1295.17 232.869 703.197 232.869 114.337 232.198 158.936 241.408 135.622 256.324 97.8637 288.351 69.5897 329.497 57.8559 337.386 55.606 360.927 55.4517 696.24 55.4517L1054.55 55.4517 1067.08 59.4106C1113.42 74.0601 1145.52 108.216 1156.34 154.4 1158.82 164.983 1158.92 184.841 1158.92 703.197 1158.92 1221.55 1158.82 1241.41 1156.34 1251.99 1145.6 1297.83 1114.28 1331.41 1067.77 1346.97L1055.94 1350.93 700.414 1351.13C504.873 1351.24 343.632 1351.08 342.102 1350.78ZM1053.16 1327.29C1092.43 1319.09 1125.08 1287.57 1134.08 1249.19 1136.56 1238.63 1136.65 1218.57 1136.65 703.197 1136.65 187.825 1136.56 167.761 1134.08 157.2 1126.77 126.007 1102.63 97.7804 1072.31 84.9566 1052.17 76.4418 1075.73 76.9125 690.674 77.3325L339.319 77.7158 329.578 80.9644C295.183 92.4358 269.91 118.055 259.027 152.481L255.828 162.598 255.828 703.893 255.828 1245.19 259.743 1256.32C272.849 1293.59 300.853 1319.01 337.927 1327.29 350.983 1330.2 1039.2 1330.21 1053.16 1327.29ZM376.889 1233.81C346.481 1229.52 321.713 1204.8 317.328 1174.36 314.403 1154.06 321.815 1132.19 336.65 1117.36 345.353 1108.65 353.519 1103.67 365.572 1099.72 373.456 1097.13 378.256 1096.99 461.748 1096.99 558.369 1096.99 556.006 1096.81 572.787 1105.69 582.597 1110.89 595.334 1124.25 600.627 1134.9 619.301 1172.47 601.183 1215.49 560.153 1230.99 552.367 1233.93 550.618 1233.99 466.641 1234.19 419.574 1234.31 379.185 1234.14 376.889 1233.81ZM451.335 1165.18 451.335 1119.26 414.713 1119.26C386.341 1119.26 376.544 1119.72 371.228 1121.32 356.31 1125.81 343.257 1140.54 339.899 1156.67 335.239 1179.04 349.713 1202.99 372.019 1209.8 373.932 1210.38 392.561 1210.91 413.416 1210.98L451.335 1211.1ZM556.646 1208.1C567.542 1204.02 577.851 1193.66 582.083 1182.53 589.982 1161.75 582.844 1138.84 564.825 1127.12 553.553 1119.79 549.815 1119.26 509.965 1119.26L473.599 1119.26 473.599 1165.18 473.599 1211.1 511.117 1211.1C546.122 1211.1 549.173 1210.9 556.646 1208.1ZM844.435 1233.81C829.677 1231.73 815.02 1224.24 804.302 1213.31 794.925 1203.75 789.391 1194.02 786.064 1181.23 777.12 1146.88 799.112 1109.45 834.213 1099.27 841.131 1097.27 852.644 1096.99 929.626 1096.99 1006.08 1096.99 1018.13 1097.28 1024.73 1099.24 1050.26 1106.81 1068.76 1126.91 1074.2 1153 1081.03 1185.69 1061.67 1218.15 1027.7 1230.99 1019.91 1233.93 1018.16 1233.99 934.187 1234.19 887.119 1234.31 846.731 1234.14 844.435 1233.81ZM918.881 1165.18 918.881 1119.26 881.362 1119.26C847.046 1119.26 843.198 1119.5 836.281 1122.09 814.8 1130.12 801.894 1155.33 808.182 1176.96 810.925 1186.39 813.175 1190.34 819.984 1197.65 824.839 1202.86 832.582 1207.66 839.565 1209.8 841.478 1210.38 860.107 1210.91 880.962 1210.98L918.881 1211.1ZM1024 1208.17C1034.7 1204.17 1045.58 1193.22 1049.66 1182.33 1053.74 1171.46 1053.24 1155.02 1048.54 1145.43 1044.09 1136.35 1035.54 1128 1026.24 1123.64 1018.4 1119.97 1018.23 1119.95 979.759 1119.54L941.145 1119.13 941.145 1165.11 941.145 1211.1 978.663 1211.1C1013.38 1211.1 1016.77 1210.88 1024 1208.17ZM691.37 1220.58C686.329 1217.63 685.197 1214.75 685.152 1204.75 685.117 1196.86 685.648 1194.34 687.844 1191.99 691.665 1187.88 695.553 1186.96 700.003 1189.09 705.204 1191.59 707.327 1196.41 707.351 1205.8 707.369 1212.07 706.718 1214.46 704.241 1217.23 700.487 1221.43 695.179 1222.81 691.37 1220.58ZM691.37 1151.01C686.329 1148.05 685.197 1145.17 685.152 1135.17 685.117 1127.29 685.648 1124.77 687.844 1122.41 691.665 1118.31 695.553 1117.38 700.003 1119.52 705.204 1122.01 707.327 1126.84 707.351 1136.23 707.369 1142.5 706.718 1144.88 704.241 1147.65 700.487 1151.85 695.179 1153.24 691.37 1151.01ZM691.37 1081.43C686.329 1078.48 685.197 1075.6 685.152 1065.6 685.117 1057.71 685.648 1055.19 687.844 1052.84 691.665 1048.73 695.553 1047.81 700.003 1049.94 705.204 1052.44 707.327 1057.26 707.351 1066.65 707.369 1072.92 706.718 1075.31 704.241 1078.08 700.487 1082.28 695.179 1083.66 691.37 1081.43ZM691.37 1011.86C686.329 1008.9 685.197 1006.02 685.152 996.024 685.117 988.137 685.648 985.618 687.844 983.261 691.665 979.159 695.553 978.234 700.003 980.368 705.204 982.862 707.327 987.689 707.351 997.075 707.369 1003.34 706.718 1005.73 704.241 1008.5 700.487 1012.7 695.179 1014.09 691.37 1011.86ZM374.802 1002.35C358.935 999.588 341.662 989.556 331.93 977.445 301.169 939.165 319.42 882.624 367.311 867.836 374.852 865.507 382.355 865.308 462.467 865.308 544.091 865.308 549.906 865.469 557.089 867.935 581.453 876.3 597.732 892.13 605.186 914.706 608.569 924.952 608.572 943.404 605.194 953.668 597.019 978.497 577.326 996.335 552.221 1001.65 544.207 1003.35 528.174 1003.69 461.773 1003.57 417.384 1003.5 378.248 1002.95 374.804 1002.35ZM451.335 934.187 451.335 888.267 413.816 888.267C379.5 888.267 375.653 888.509 368.736 891.097 358.107 895.074 349.382 903.252 343.911 914.365 339.963 922.384 339.361 925.018 339.399 934.121 339.478 953.291 350.184 969.634 367.263 976.655 375.287 979.954 376.471 980.042 413.416 980.074L451.335 980.109ZM556.453 977.182C567.113 973.194 578.013 962.236 582.155 951.344 590.851 928.482 581.103 903.592 559.088 892.442 552.314 889.011 551.673 888.957 512.909 888.536L473.599 888.108 473.599 934.108 473.599 980.107 511.117 980.107C545.835 980.107 549.219 979.888 556.453 977.182ZM842.348 1002.35C805.456 995.934 779.645 961.3 784.847 925.192 788.733 898.217 808.028 876.026 834.695 867.863 842.416 865.5 849.579 865.308 930.013 865.308 1011.35 865.308 1017.48 865.476 1024.64 867.913 1038.2 872.531 1048.09 878.65 1056.34 887.531 1066.19 898.148 1071.53 908.672 1074.37 923.081 1076.37 933.22 1076.36 935.175 1074.33 945.528 1068.64 974.399 1047.95 995.684 1019.76 1001.65 1011.75 1003.35 995.719 1003.69 929.317 1003.57 884.928 1003.5 845.792 1002.95 842.348 1002.35ZM918.881 934.187 918.881 888.267 881.362 888.267C846.923 888.267 843.217 888.502 836.206 891.125 814.69 899.175 801.868 924.247 808.173 945.937 812.522 960.897 821.418 971.15 834.833 976.665 842.826 979.951 844.048 980.042 880.962 980.074L918.881 980.109ZM1024 977.182C1034.7 973.179 1045.58 962.225 1049.66 951.344 1053.76 940.415 1053.24 924.031 1048.49 914.33 1044.35 905.883 1035.36 896.899 1026.6 892.442 1019.86 889.011 1019.23 888.957 980.455 888.536L941.145 888.108 941.145 934.108 941.145 980.107 978.663 980.107C1013.38 980.107 1016.77 979.888 1024 977.182ZM691.37 942.281C686.329 939.329 685.197 936.447 685.152 926.448 685.117 918.562 685.648 916.043 687.844 913.686 691.665 909.584 695.553 908.659 700.003 910.793 705.204 913.286 707.327 918.113 707.351 927.5 707.369 933.77 706.718 936.155 704.241 938.927 700.487 943.129 695.179 944.512 691.37 942.281ZM691.37 872.705C686.329 869.753 685.197 866.872 685.152 856.873 685.117 848.987 685.648 846.467 687.844 844.11 691.665 840.009 695.553 839.084 700.003 841.218 705.204 843.711 707.327 848.538 707.351 857.925 707.369 864.194 706.718 866.58 704.241 869.352 700.487 873.554 695.179 874.936 691.37 872.705ZM691.37 803.13C686.329 800.178 685.197 797.297 685.152 787.298 685.117 779.411 685.648 776.892 687.844 774.535 691.665 770.433 695.553 769.508 700.003 771.642 705.204 774.136 707.327 778.963 707.351 788.349 707.369 794.619 706.718 797.004 704.241 799.777 700.487 803.979 695.179 805.361 691.37 803.13ZM372.019 770.633C336.267 762.774 311.962 728.409 317.384 693.383 321.847 664.549 343.965 641.704 373.307 635.624 382.111 633.8 396.009 633.557 467.234 633.987 543.33 634.445 551.501 634.716 558.341 637.005 601.816 651.555 620.567 698.298 598.619 737.416 590.773 751.4 575.235 763.734 558.341 769.391 551.472 771.691 543.543 771.937 465.946 772.264 396.519 772.556 379.417 772.259 372.019 770.633ZM451.335 703.197 451.335 657.278 413.816 657.278C370.645 657.278 366.453 658.11 354.218 669.11 334.314 687.006 334.316 719.391 354.224 737.289 366.438 748.271 369.915 748.961 413.417 749.044L451.335 749.117ZM559.177 745.008C593.792 728.029 593.792 678.366 559.177 661.386 552.362 658.043 551.412 657.965 512.909 657.564L473.599 657.156 473.599 703.198 473.599 749.239 512.909 748.83C551.412 748.43 552.362 748.351 559.177 745.008ZM839.565 770.633C801.39 762.241 776.545 723.689 785.977 687.478 792.93 660.781 813.57 641.278 840.853 635.624 849.654 633.8 863.58 633.556 934.78 633.977 1026.78 634.521 1022.4 634.123 1040.05 643.533 1050.14 648.909 1062.82 662.102 1068.2 672.815 1070.35 677.094 1073.11 685.68 1074.33 691.896 1076.37 702.256 1076.37 704.139 1074.33 714.499 1073.11 720.714 1070.35 729.301 1068.2 733.58 1062.82 744.292 1050.14 757.486 1040.05 762.862 1022.34 772.301 1026.99 771.891 933.491 772.273 864.091 772.557 846.96 772.26 839.565 770.633ZM918.881 703.197 918.881 657.278 881.362 657.278C846.923 657.278 843.217 657.512 836.206 660.135 821.442 665.659 810.73 678.712 807.217 695.461 803.008 715.526 815.999 738.575 835.81 746.191 842.384 748.719 846.499 748.979 880.962 749.044L918.881 749.117ZM1026.69 745.015C1035.51 740.671 1044.02 732.166 1048.36 723.338 1051.25 717.467 1051.77 714.41 1051.77 703.197 1051.77 691.985 1051.25 688.927 1048.36 683.057 1044.02 674.229 1035.51 665.723 1026.69 661.379 1019.91 658.045 1018.94 657.965 980.455 657.564L941.145 657.156 941.145 703.198 941.145 749.239 980.455 748.83C1018.94 748.43 1019.91 748.35 1026.69 745.015ZM691.37 733.555C689.839 732.659 687.824 730.94 686.891 729.737 684.593 726.77 684.678 708.75 687.005 705.687 690.013 701.728 695.954 700.125 700.154 702.139 705.206 704.562 707.327 709.464 707.351 718.774 707.369 725.044 706.718 727.429 704.241 730.202 700.487 734.403 695.179 735.786 691.37 733.555ZM691.37 663.98C689.839 663.083 687.824 661.365 686.891 660.162 684.593 657.195 684.678 639.175 687.005 636.112 690.013 632.153 695.954 630.55 700.154 632.564 705.206 634.987 707.327 639.888 707.351 649.199 707.369 655.469 706.718 657.854 704.241 660.626 700.487 664.828 695.179 666.211 691.37 663.98ZM691.37 594.404C689.839 593.508 687.824 591.79 686.891 590.586 684.593 587.619 684.678 569.599 687.005 566.537 690.013 562.578 695.954 560.975 700.154 562.989 705.206 565.411 707.327 570.313 707.351 579.624 707.369 585.893 706.718 588.279 704.241 591.051 700.487 595.253 695.179 596.635 691.37 594.404ZM378.281 540.847C339.535 535.387 311.973 500.197 317.328 463.027 321.077 437.004 338.301 416.355 364.477 406.502 372.611 403.44 373.778 403.395 457.006 402.947 528.943 402.56 542.812 402.81 551.625 404.647 584.858 411.577 607.713 439.106 607.713 472.207 607.713 491.574 600.435 508.162 585.912 521.898 578.118 529.269 571.49 533.191 558.548 538.091 551.039 540.934 548.525 541.02 466.641 541.225 420.339 541.34 380.577 541.17 378.281 540.847ZM451.335 472.207 451.335 426.288 413.816 426.288C378.852 426.288 375.755 426.491 368.315 429.275 350.876 435.799 339.479 452.747 339.399 472.274 339.361 481.377 339.963 484.01 343.911 492.03 349.294 502.964 358.037 511.267 368.341 515.23 374.821 517.722 379.083 517.989 413.416 518.055L451.335 518.127ZM559.088 513.953C588.048 499.285 594.32 462.188 571.67 439.537 559.186 427.053 555.688 426.288 511.117 426.288L473.599 426.288 473.599 472.287 473.599 518.286 512.909 517.859C551.673 517.437 552.314 517.383 559.088 513.953ZM845.827 540.847C821.862 537.47 801.124 522.633 791.17 501.745 773.36 464.367 790.829 422.51 830.688 407.055L840.26 403.343 924.552 402.918C996.411 402.557 1010.37 402.812 1019.17 404.647 1047.89 410.635 1068.59 431.732 1074.33 460.866 1076.36 471.22 1076.37 473.175 1074.37 483.314 1069.17 509.702 1053.25 527.862 1026.43 537.974 1018.5 540.968 1017.1 541.017 934.187 541.225 887.885 541.34 848.122 541.17 845.826 540.847ZM918.881 472.207 918.881 426.288 881.362 426.288C846.538 426.288 843.277 426.5 835.956 429.239 822.303 434.347 812.591 445.26 808.173 460.458 801.927 481.943 814.602 507.048 835.81 515.201 842.384 517.729 846.499 517.989 880.962 518.055L918.881 518.127ZM1026.6 513.953C1042.58 505.822 1051.45 492.095 1052.22 474.295 1052.88 459.139 1049.33 449.651 1039.22 439.537 1026.73 427.053 1023.23 426.288 978.663 426.288L941.145 426.288 941.145 472.287 941.145 518.286 980.455 517.859C1019.23 517.437 1019.86 517.384 1026.6 513.953ZM691.37 524.829C689.839 523.933 687.824 522.215 686.891 521.011 684.593 518.044 684.678 500.024 687.005 496.961 690.013 493.002 695.954 491.399 700.154 493.414 705.206 495.836 707.327 500.738 707.351 510.048 707.369 516.318 706.718 518.703 704.241 521.476 700.487 525.677 695.179 527.06 691.37 524.829ZM691.37 455.254C689.839 454.358 687.824 452.639 686.891 451.436 684.593 448.469 684.678 430.449 687.005 427.386 690.013 423.427 695.954 421.824 700.154 423.838 705.206 426.261 707.327 431.163 707.351 440.473 707.369 446.743 706.718 449.128 704.241 451.901 700.487 456.102 695.179 457.485 691.37 455.254ZM691.37 385.679C689.839 384.782 687.824 383.064 686.891 381.861 684.593 378.894 684.678 360.874 687.005 357.811 690.013 353.852 695.954 352.249 700.154 354.263 705.206 356.686 707.327 361.588 707.351 370.898 707.369 377.168 706.718 379.553 704.241 382.325 700.487 386.527 695.179 387.91 691.37 385.679ZM691.37 316.103C689.839 315.207 687.824 313.489 686.891 312.285 684.593 309.318 684.678 291.298 687.005 288.236 690.013 284.277 695.954 282.674 700.154 284.688 705.206 287.11 707.327 292.012 707.351 301.323 707.369 307.592 706.718 309.978 704.241 312.75 700.487 316.952 695.179 318.334 691.37 316.103ZM364.366 306.156C351.397 301.452 345.338 297.724 336.828 289.214 310.047 262.434 310.147 219.599 337.053 192.693 345.74 184.007 353.171 179.526 366.453 174.966 373.641 172.498 379.479 172.338 462.467 172.338 545.137 172.338 551.32 172.506 558.481 174.941 593.132 186.727 613.602 220.121 606.635 253.497 601.18 279.625 582.701 299.687 557.185 307.181 550.596 309.117 538.279 309.387 461.171 309.293 373.949 309.186 372.598 309.142 364.366 306.156ZM451.335 241.139 451.335 195.141 411.329 195.567 371.323 195.994 364.366 199.7C351.182 206.723 342.587 218.627 339.785 233.745 336.823 249.724 343.936 267.473 357.408 277.724 368.748 286.353 372.271 286.931 414.112 287.04L451.335 287.137ZM554.469 284.421C573.976 277.008 585.165 261.288 585.217 241.218 585.267 222.147 573.616 204.644 556.646 198.295 549.173 195.499 546.122 195.298 511.117 195.298L473.599 195.298 473.599 241.218 473.599 287.137 510.459 287.137C543.65 287.137 548.031 286.867 554.469 284.421ZM832.607 306.67C798.141 295.511 777.266 258.954 786.064 225.16 789.391 212.379 794.925 202.646 804.302 193.082 813.076 184.133 820.515 179.595 833.999 174.966 841.187 172.498 847.024 172.338 930.013 172.338 1012.68 172.338 1018.87 172.506 1026.03 174.941 1060.63 186.71 1081.15 220.126 1074.2 253.396 1068.76 279.481 1050.26 299.585 1024.73 307.159 1018.1 309.125 1006.26 309.386 928.716 309.274 847.897 309.158 839.6 308.934 832.607 306.67ZM918.881 241.139 918.881 195.141 878.875 195.567 838.869 195.994 831.911 199.7C820.046 206.021 812.092 215.99 808.182 229.439 801.954 250.862 814.711 276.096 835.886 284.24 842.367 286.732 846.629 286.999 880.962 287.065L918.881 287.137ZM1026.24 282.752C1042.45 275.154 1051.43 261.513 1052.22 243.305 1052.88 228.149 1049.33 218.661 1039.22 208.548 1026.73 196.063 1023.23 195.298 978.663 195.298L941.145 195.298 941.145 241.28 941.145 287.261 979.759 286.851C1018.23 286.443 1018.4 286.428 1026.24 282.752ZM691.37 246.494C686.331 243.605 685.196 240.717 685.196 230.781 685.196 220.125 686.6 217.121 692.655 214.819 697.479 212.985 703.055 215.371 705.571 220.345 706.539 222.258 707.34 227.473 707.351 231.932 707.369 239.052 706.876 240.536 703.304 244.108 698.97 248.442 695.853 249.066 691.37 246.494ZM691.37 176.919C686.331 174.029 685.196 171.142 685.196 161.206 685.196 150.55 686.6 147.546 692.655 145.244 697.479 143.41 703.055 145.795 705.571 150.77 706.539 152.683 707.34 157.897 707.351 162.357 707.369 169.477 706.876 170.961 703.304 174.532 698.97 178.867 695.853 179.49 691.37 176.919Z" fill="#003C84" transform="matrix(1 0 0 1.00047 1503.81 463.442)"/></g></g></g></g></svg>