<svg width="1689" height="1689" xmlns="http://www.w3.org/2000/svg" xmlns:xlink="http://www.w3.org/1999/xlink" xml:space="preserve" overflow="hidden"><defs><clipPath id="clip0"><rect x="1401" y="469" width="1689" height="1689"/></clipPath></defs><g clip-path="url(#clip0)" transform="translate(-1401 -469)"><path d="M2245.5 2024.66C1854.36 2024.66 1534.34 1704.64 1534.34 1313.5 1534.34 922.363 1854.36 602.342 2245.5 602.342 2636.64 602.342 2956.66 922.363 2956.66 1313.5 2956.66 1704.64 2636.64 2024.66 2245.5 2024.66ZM2245.5 469C1778.8 469 1401 846.802 1401 1313.5 1401 1780.2 1778.8 2158 2245.5 2158 2712.2 2158 3090 1780.2 3090 1313.5 3090 846.802 2712.2 469 2245.5 469Z" fill="#000000" fill-rule="evenodd" fill-opacity="0.4"/><path d="M2290.69 869 2202 869 2202 1313.51C2202 1326.84 2206.43 1337.96 2215.3 1344.62L2527.92 1658 2590 1595.77 2290.69 1295.73 2290.69 869Z" fill="#000000" fill-rule="evenodd" fill-opacity="0.4"/><path d="M2290 735.5C2290 760.077 2270.3 780 2246 780 2221.7 780 2202 760.077 2202 735.5 2202 710.923 2221.7 691 2246 691 2270.3 691 2290 710.923 2290 735.5Z" fill="#000000" fill-rule="evenodd" fill-opacity="0.4"/><path d="M2290 1891.5C2290 1916.08 2270.3 1936 2246 1936 2221.7 1936 2202 1916.08 2202 1891.5 2202 1866.92 2221.7 1847 2246 1847 2270.3 1847 2290 1866.92 2290 1891.5Z" fill="#000000" fill-rule="evenodd" fill-opacity="0.4"/><path d="M1713 1313.5C1713 1338.08 1693.08 1358 1668.5 1358 1643.92 1358 1624 1338.08 1624 1313.5 1624 1288.92 1643.92 1269 1668.5 1269 1693.08 1269 1713 1288.92 1713 1313.5Z" fill="#000000" fill-rule="evenodd" fill-opacity="0.4"/><path d="M2868 1313.5C2868 1338.08 2848.08 1358 2823.5 1358 2798.92 1358 2779 1338.08 2779 1313.5 2779 1288.92 2798.92 1269 2823.5 1269 2848.08 1269 2868 1288.92 2868 1313.5Z" fill="#000000" fill-rule="evenodd" fill-opacity="0.4"/><g><g><g><path d="M371.025 1685.64 366.644 1680.67 371.614 1685.05C376.26 1689.14 377.413 1690.61 375.996 1690.61 375.672 1690.61 373.435 1688.37 371.025 1685.64ZM741.461 1472.36C739.213 1469.49 739.277 1469.43 742.143 1471.67 743.883 1473.04 745.306 1474.46 745.306 1474.84 745.306 1476.33 743.822 1475.37 741.461 1472.36ZM763.15 1448.86C760.902 1445.99 760.966 1445.93 763.833 1448.18 765.572 1449.54 766.996 1450.97 766.996 1451.34 766.996 1452.83 765.512 1451.87 763.15 1448.86ZM1370.46 1448.86C1368.21 1445.99 1368.27 1445.93 1371.14 1448.18 1372.88 1449.54 1374.3 1450.97 1374.3 1451.34 1374.3 1452.83 1372.82 1451.87 1370.46 1448.86ZM763.15 1148.82C760.902 1145.95 760.966 1145.89 763.833 1148.14 765.572 1149.5 766.996 1150.93 766.996 1151.3 766.996 1152.79 765.512 1151.83 763.15 1148.82ZM1370.46 1148.82C1368.21 1145.95 1368.27 1145.89 1371.14 1148.14 1372.88 1149.5 1374.3 1150.93 1374.3 1151.3 1374.3 1152.79 1372.82 1151.83 1370.46 1148.82ZM1371.59 976.661C1373.39 974.673 1375.27 973.046 1375.77 973.046 1376.26 973.046 1375.2 974.673 1373.4 976.661 1371.6 978.649 1369.72 980.276 1369.22 980.276 1368.73 980.276 1369.79 978.649 1371.59 976.661ZM1371.42 849.687 1367.98 845.62 1372.04 849.064C1374.28 850.957 1376.11 852.787 1376.11 853.13 1376.11 854.577 1374.66 853.509 1371.42 849.687ZM761.573 679.555C761.573 679.18 762.997 677.757 764.737 676.392 767.603 674.144 767.667 674.208 765.419 677.075 763.058 680.086 761.573 681.043 761.573 679.555ZM1368.88 679.555C1368.88 679.18 1370.3 677.757 1372.04 676.392 1374.91 674.144 1374.97 674.208 1372.73 677.075 1370.36 680.086 1368.88 681.043 1368.88 679.555ZM761.573 379.517C761.573 379.142 762.997 377.718 764.737 376.354 767.603 374.106 767.667 374.17 765.419 377.036 763.058 380.047 761.573 381.005 761.573 379.517ZM1368.88 379.517C1368.88 379.142 1370.3 377.718 1372.04 376.354 1374.91 374.106 1374.97 374.17 1372.73 377.036 1370.36 380.047 1368.88 381.005 1368.88 379.517ZM739.884 356.02C739.884 355.645 741.307 354.221 743.047 352.857 745.914 350.609 745.978 350.673 743.729 353.539 741.368 356.55 739.884 357.508 739.884 356.02ZM371.162 140.711C373.497 138.226 375.814 136.192 376.311 136.192 376.808 136.192 375.304 138.226 372.97 140.711 370.635 143.196 368.318 145.23 367.821 145.23 367.324 145.23 368.827 143.196 371.162 140.711Z" fill="#CBD7E6" transform="matrix(1 0 0 1.0007 1341.7 399.415)"/><path d="M679.641 1725.4C802.084 1725.15 1002.98 1725.15 1126.08 1725.4 1249.18 1725.66 1149 1725.87 903.459 1725.87 657.916 1725.87 557.197 1725.66 679.641 1725.4ZM300.814 1604.6C300.901 1602.5 301.329 1602.07 301.906 1603.51 302.428 1604.82 302.364 1606.37 301.763 1606.98 301.163 1607.58 300.735 1606.51 300.814 1604.6ZM1507.14 913.4C1507.14 535.144 1507.35 380.403 1507.6 569.531 1507.86 758.659 1507.86 1068.14 1507.6 1257.27 1507.35 1446.4 1507.14 1291.66 1507.14 913.4ZM332.292 913.4C332.292 537.132 332.5 383.204 332.754 571.338 333.007 759.472 333.007 1067.33 332.754 1255.46 332.5 1443.6 332.292 1289.67 332.292 913.4ZM919.364 1565.89C919.364 1560.43 919.703 1558.19 920.117 1560.92 920.531 1563.66 920.531 1568.13 920.117 1570.86 919.703 1573.6 919.364 1571.36 919.364 1565.89ZM616.035 1514.38 616.074 1454.73 657.195 1454.68 698.316 1454.63 657.672 1455.17 617.027 1455.71 616.513 1514.87 615.998 1574.03ZM1223.34 1514.38 1223.38 1454.73 1264.5 1454.68 1305.62 1454.63 1264.98 1455.17 1224.33 1455.71 1223.82 1514.87 1223.3 1574.03ZM790.778 1513.48C790.778 1510.99 791.188 1509.97 791.69 1511.22 792.191 1512.46 792.191 1514.49 791.69 1515.74 791.188 1516.98 790.778 1515.96 790.778 1513.48ZM919.364 1475.52C919.364 1470.05 919.703 1467.82 920.117 1470.55 920.531 1473.28 920.531 1477.76 920.117 1480.49 919.703 1483.22 919.364 1480.99 919.364 1475.52ZM523.543 1454.29C535.279 1453.97 553.987 1453.97 565.114 1454.29 576.242 1454.61 566.639 1454.86 543.775 1454.86 520.91 1454.86 511.806 1454.6 523.543 1454.29ZM1130.85 1454.29C1142.59 1453.97 1161.29 1453.97 1172.42 1454.29 1183.55 1454.61 1173.95 1454.86 1151.08 1454.86 1128.22 1454.86 1119.11 1454.6 1130.85 1454.29ZM919.364 1385.15C919.364 1379.68 919.703 1377.44 920.117 1380.18 920.531 1382.91 920.531 1387.38 920.117 1390.12 919.703 1392.85 919.364 1390.61 919.364 1385.15ZM919.364 1294.77C919.364 1289.31 919.703 1287.07 920.117 1289.8 920.531 1292.54 920.531 1297.01 920.117 1299.74 919.703 1302.48 919.364 1300.24 919.364 1294.77ZM615.979 1213.44C615.979 1180.14 616.223 1166.51 616.522 1183.16 616.82 1199.81 616.82 1227.06 616.522 1243.71 616.223 1260.36 615.979 1246.74 615.979 1213.44ZM1223.29 1213.44C1223.29 1180.14 1223.53 1166.51 1223.83 1183.16 1224.13 1199.81 1224.13 1227.06 1223.83 1243.71 1223.53 1260.36 1223.29 1246.74 1223.29 1213.44ZM790.778 1213.44C790.778 1210.95 791.188 1209.94 791.69 1211.18 792.191 1212.42 792.191 1214.46 791.69 1215.7 791.188 1216.94 790.778 1215.92 790.778 1213.44ZM919.364 1204.4C919.364 1198.93 919.703 1196.7 920.117 1199.43 920.531 1202.16 920.531 1206.64 920.117 1209.37 919.703 1212.11 919.364 1209.87 919.364 1204.4ZM919.364 1114.03C919.364 1108.56 919.703 1106.32 920.117 1109.06 920.531 1111.79 920.531 1116.26 920.117 1119 919.703 1121.73 919.364 1119.5 919.364 1114.03ZM919.364 1023.66C919.364 1018.19 919.703 1015.95 920.117 1018.68 920.531 1021.42 920.531 1025.89 920.117 1028.63 919.703 1031.36 919.364 1029.12 919.364 1023.66ZM615.979 913.4C615.979 880.098 616.223 866.474 616.522 883.125 616.82 899.776 616.82 927.024 616.522 943.675 616.223 960.326 615.979 946.703 615.979 913.4ZM1223.29 913.4C1223.29 880.098 1223.53 866.474 1223.83 883.125 1224.13 899.776 1224.13 927.024 1223.83 943.675 1223.53 960.326 1223.29 946.703 1223.29 913.4ZM919.364 933.282C919.364 927.815 919.703 925.578 920.117 928.312 920.531 931.045 920.531 935.519 920.117 938.253 919.703 940.986 919.364 938.75 919.364 933.282ZM790.778 913.4C790.778 910.915 791.188 909.898 791.69 911.141 792.191 912.383 792.191 914.417 791.69 915.659 791.188 916.902 790.778 915.885 790.778 913.4ZM919.364 842.909C919.364 837.442 919.703 835.205 920.117 837.939 920.531 840.672 920.531 845.146 920.117 847.88 919.703 850.613 919.364 848.377 919.364 842.909ZM919.364 752.536C919.364 747.069 919.703 744.832 920.117 747.566 920.531 750.299 920.531 754.773 920.117 757.507 919.703 760.24 919.364 758.004 919.364 752.536ZM615.979 613.362C615.979 580.059 616.223 566.436 616.522 583.087 616.82 599.738 616.82 626.986 616.522 643.637 616.223 660.288 615.979 646.664 615.979 613.362ZM1223.29 613.362C1223.29 580.059 1223.53 566.436 1223.83 583.087 1224.13 599.738 1224.13 626.986 1223.83 643.637 1223.53 660.288 1223.29 646.664 1223.29 613.362ZM919.364 662.163C919.364 656.696 919.703 654.459 920.117 657.193 920.531 659.926 920.531 664.4 920.117 667.134 919.703 669.867 919.364 667.631 919.364 662.163ZM790.778 613.362C790.778 610.877 791.188 609.86 791.69 611.102 792.191 612.345 792.191 614.378 791.69 615.621 791.188 616.864 790.778 615.847 790.778 613.362ZM919.364 571.79C919.364 566.323 919.703 564.086 920.117 566.82 920.531 569.553 920.531 574.027 920.117 576.761 919.703 579.495 919.364 577.258 919.364 571.79ZM919.364 481.417C919.364 475.95 919.703 473.713 920.117 476.447 920.531 479.181 920.531 483.654 920.117 486.388 919.703 489.121 919.364 486.885 919.364 481.417ZM919.364 391.044C919.364 385.577 919.703 383.34 920.117 386.074 920.531 388.808 920.531 393.281 920.117 396.015 919.703 398.749 919.364 396.512 919.364 391.044ZM523.543 371.619C535.279 371.304 553.987 371.305 565.114 371.621 576.242 371.938 566.639 372.196 543.775 372.195 520.91 372.193 511.806 371.934 523.543 371.619ZM615.99 370.695C615.51 369.443 615.344 342.399 615.621 310.597L616.126 252.774 616.551 311.934 616.977 371.094 658.097 371.616 699.216 372.137 658.04 372.553C626.305 372.874 616.663 372.448 615.99 370.695ZM1130.85 371.619C1142.59 371.304 1161.29 371.305 1172.42 371.621 1183.55 371.938 1173.95 372.196 1151.08 372.195 1128.22 372.193 1119.11 371.934 1130.85 371.619ZM1223.3 370.695C1222.82 369.443 1222.65 342.399 1222.93 310.597L1223.43 252.774 1223.86 311.934 1224.28 371.094 1265.4 371.616 1306.52 372.137 1265.35 372.553C1233.61 372.874 1223.97 372.448 1223.3 370.695ZM790.778 313.323C790.778 310.838 791.188 309.822 791.69 311.064 792.191 312.307 792.191 314.34 791.69 315.583 791.188 316.825 790.778 315.809 790.778 313.323ZM919.364 300.671C919.364 295.204 919.703 292.967 920.117 295.701 920.531 298.435 920.531 302.908 920.117 305.642 919.703 308.376 919.364 306.139 919.364 300.671ZM300.814 221.896C300.901 219.791 301.329 219.362 301.906 220.804 302.428 222.109 302.364 223.668 301.763 224.268 301.163 224.869 300.735 223.801 300.814 221.896ZM919.364 210.298C919.364 204.831 919.703 202.594 920.117 205.328 920.531 208.062 920.531 212.535 920.117 215.269 919.703 218.003 919.364 215.766 919.364 210.298ZM679.641 100.495C802.084 100.239 1002.98 100.239 1126.08 100.495 1249.18 100.752 1149 100.961 903.459 100.961 657.916 100.961 557.197 100.752 679.641 100.495Z" fill="#B9C9DC" transform="matrix(1 0 0 1.0007 1341.7 399.415)"/><path d="M1433.95 1688.12C1433.95 1687.74 1435.37 1686.32 1437.11 1684.95 1439.98 1682.71 1440.04 1682.77 1437.79 1685.64 1435.43 1688.65 1433.95 1689.61 1433.95 1688.12ZM761.573 1579.67C761.573 1579.29 762.997 1577.87 764.737 1576.51 767.603 1574.26 767.667 1574.32 765.419 1577.19 763.058 1580.2 761.573 1581.16 761.573 1579.67ZM499.153 1454.4C500.458 1453.88 502.017 1453.95 502.617 1454.55 503.218 1455.15 502.15 1455.57 500.245 1455.5 498.139 1455.41 497.711 1454.98 499.153 1454.4ZM699.781 1454.4C701.086 1453.88 702.645 1453.95 703.245 1454.55 703.846 1455.15 702.778 1455.57 700.873 1455.5 698.767 1455.41 698.339 1454.98 699.781 1454.4ZM1106.46 1454.4C1107.76 1453.88 1109.32 1453.95 1109.92 1454.55 1110.52 1455.15 1109.46 1455.57 1107.55 1455.5 1105.45 1455.41 1105.02 1454.98 1106.46 1454.4ZM1041.73 1451.34C1041.73 1450.97 1043.15 1449.54 1044.89 1448.18 1047.76 1445.93 1047.82 1445.99 1045.58 1448.86 1043.21 1451.87 1041.73 1452.83 1041.73 1451.34ZM1043.31 377.036C1041.06 374.17 1041.12 374.106 1043.99 376.354 1047 378.715 1047.96 380.199 1046.47 380.199 1046.09 380.199 1044.67 378.776 1043.31 377.036ZM499.153 371.735C500.458 371.213 502.017 371.277 502.617 371.878 503.218 372.478 502.15 372.905 500.245 372.827 498.139 372.74 497.711 372.312 499.153 371.735ZM699.781 371.735C701.086 371.213 702.645 371.277 703.245 371.878 703.846 372.478 702.778 372.905 700.873 372.827 698.767 372.74 698.339 372.312 699.781 371.735ZM1106.46 371.735C1107.76 371.213 1109.32 371.277 1109.92 371.878 1110.52 372.478 1109.46 372.905 1107.55 372.827 1105.45 372.74 1105.02 372.312 1106.46 371.735ZM763.15 248.707C760.902 245.84 760.966 245.776 763.833 248.024 765.572 249.389 766.996 250.812 766.996 251.187 766.996 252.675 765.512 251.718 763.15 248.707ZM1435.53 140.259C1433.28 137.392 1433.34 137.329 1436.21 139.577 1439.22 141.938 1440.18 143.422 1438.69 143.422 1438.31 143.422 1436.89 141.999 1435.53 140.259Z" fill="#95AECB" transform="matrix(1 0 0 1.0007 1341.7 399.415)"/><path d="M453.853 1756.29C455.096 1755.79 457.129 1755.79 458.372 1756.29 459.615 1756.79 458.598 1757.2 456.113 1757.2 453.628 1757.2 452.611 1756.79 453.853 1756.29ZM1350.47 1756.25C1351.77 1755.73 1353.33 1755.79 1353.93 1756.39 1354.53 1756.99 1353.46 1757.42 1351.56 1757.34 1349.45 1757.25 1349.02 1756.82 1350.47 1756.25ZM453.966 1725.52C455.271 1725 456.83 1725.06 457.431 1725.66 458.031 1726.26 456.964 1726.69 455.058 1726.61 452.953 1726.53 452.525 1726.1 453.966 1725.52ZM1457.45 1707.78C1459.78 1705.29 1462.1 1703.26 1462.59 1703.26 1463.09 1703.26 1461.59 1705.29 1459.25 1707.78 1456.92 1710.26 1454.6 1712.3 1454.1 1712.3 1453.61 1712.3 1455.11 1710.26 1457.45 1707.78ZM340.205 1698.29C337.957 1695.42 338.021 1695.36 340.887 1697.61 342.627 1698.97 344.05 1700.39 344.05 1700.77 344.05 1702.26 342.566 1701.3 340.205 1698.29ZM331.683 1600.23C331.683 1597.75 332.094 1596.73 332.595 1597.97 333.096 1599.22 333.096 1601.25 332.595 1602.49 332.094 1603.73 331.683 1602.72 331.683 1600.23ZM300.814 1599.18C300.901 1597.07 301.329 1596.64 301.906 1598.09 302.428 1599.39 302.364 1600.95 301.763 1601.55 301.163 1602.15 300.735 1601.08 300.814 1599.18ZM436 1577.19C433.752 1574.32 433.816 1574.26 436.683 1576.51 438.422 1577.87 439.846 1579.29 439.846 1579.67 439.846 1581.16 438.361 1580.2 436 1577.19ZM409.471 1514.38C409.508 1511.4 409.913 1510.4 410.371 1512.15 410.83 1513.91 410.8 1516.35 410.304 1517.58 409.809 1518.8 409.434 1517.36 409.471 1514.38ZM1016.84 1513.47C1016.84 1510 1017.22 1508.57 1017.67 1510.31 1018.13 1512.05 1018.13 1514.9 1017.67 1516.64 1017.22 1518.38 1016.84 1516.95 1016.84 1513.47ZM1047.5 1514.38C1047.54 1511.4 1047.95 1510.4 1048.4 1512.15 1048.86 1513.91 1048.83 1516.35 1048.34 1517.58 1047.84 1518.8 1047.47 1517.36 1047.5 1514.38ZM440.131 1513.47C440.131 1510.99 440.541 1509.97 441.043 1511.22 441.544 1512.46 441.544 1514.49 441.043 1515.73 440.541 1516.98 440.131 1515.96 440.131 1513.47ZM436 1277.15C433.752 1274.28 433.816 1274.22 436.683 1276.47 438.422 1277.83 439.846 1279.25 439.846 1279.63 439.846 1281.12 438.361 1280.16 436 1277.15ZM1043.31 1277.15C1041.06 1274.28 1041.12 1274.22 1043.99 1276.47 1045.73 1277.83 1047.15 1279.25 1047.15 1279.63 1047.15 1281.12 1045.67 1280.16 1043.31 1277.15ZM409.471 1214.34C409.508 1211.36 409.913 1210.36 410.371 1212.12 410.83 1213.87 410.8 1216.31 410.304 1217.54 409.809 1218.76 409.434 1217.32 409.471 1214.34ZM1016.84 1213.44C1016.84 1209.96 1017.22 1208.53 1017.67 1210.27 1018.13 1212.01 1018.13 1214.86 1017.67 1216.6 1017.22 1218.34 1016.84 1216.92 1016.84 1213.44ZM1047.57 1213.44C1047.57 1209.96 1047.94 1208.53 1048.4 1210.27 1048.85 1212.01 1048.85 1214.86 1048.4 1216.6 1047.94 1218.34 1047.57 1216.92 1047.57 1213.44ZM440.131 1213.44C440.131 1210.95 440.541 1209.93 441.043 1211.18 441.544 1212.42 441.544 1214.45 441.043 1215.7 440.541 1216.94 440.131 1215.92 440.131 1213.44ZM1043.31 977.111C1041.06 974.244 1041.12 974.181 1043.99 976.429 1045.73 977.793 1047.15 979.216 1047.15 979.592 1047.15 981.079 1045.67 980.122 1043.31 977.111ZM1065 955.422C1062.75 952.555 1062.81 952.491 1065.68 954.739 1067.42 956.104 1068.84 957.527 1068.84 957.902 1068.84 959.39 1067.36 958.433 1065 955.422ZM1016.84 913.398C1016.84 909.919 1017.22 908.496 1017.67 910.235 1018.13 911.975 1018.13 914.822 1017.67 916.561 1017.22 918.301 1016.84 916.878 1016.84 913.398ZM1047.57 913.398C1047.57 909.919 1047.94 908.496 1048.4 910.235 1048.85 911.975 1048.85 914.822 1048.4 916.561 1047.94 918.301 1047.57 916.878 1047.57 913.398ZM409.404 913.398C409.404 910.913 409.814 909.896 410.316 911.139 410.817 912.382 410.817 914.415 410.316 915.658 409.814 916.9 409.404 915.884 409.404 913.398ZM440.131 913.398C440.131 910.913 440.541 909.896 441.043 911.139 441.544 912.382 441.544 914.415 441.043 915.658 440.541 916.9 440.131 915.884 440.131 913.398ZM1063.42 872.952C1063.42 872.576 1064.84 871.153 1066.58 869.789 1069.45 867.54 1069.51 867.604 1067.26 870.471 1064.9 873.482 1063.42 874.439 1063.42 872.952ZM1041.73 851.262C1041.73 850.887 1043.15 849.463 1044.89 848.099 1047.76 845.851 1047.82 845.915 1045.58 848.782 1043.21 851.792 1041.73 852.75 1041.73 851.262ZM1016.84 613.36C1016.84 609.881 1017.22 608.457 1017.67 610.197 1018.13 611.937 1018.13 614.783 1017.67 616.523 1017.22 618.263 1016.84 616.839 1016.84 613.36ZM1047.57 613.36C1047.57 609.881 1047.94 608.457 1048.4 610.197 1048.85 611.937 1048.85 614.783 1048.4 616.523 1047.94 618.263 1047.57 616.839 1047.57 613.36ZM409.471 612.456C409.508 609.474 409.913 608.473 410.371 610.231 410.83 611.99 410.8 614.43 410.304 615.654 409.809 616.877 409.434 615.438 409.471 612.456ZM440.131 613.36C440.131 610.875 440.541 609.858 441.043 611.101 441.544 612.343 441.544 614.377 441.043 615.619 440.541 616.862 440.131 615.845 440.131 613.36ZM434.423 551.226C434.423 550.85 435.847 549.427 437.586 548.063 440.453 545.814 440.517 545.878 438.269 548.745 435.908 551.756 434.423 552.713 434.423 551.226ZM1041.73 551.226C1041.73 550.85 1043.15 549.427 1044.89 548.063 1047.76 545.814 1047.82 545.878 1045.58 548.745 1043.21 551.756 1041.73 552.713 1041.73 551.226ZM1016.84 313.323C1016.84 309.844 1017.22 308.421 1017.67 310.16 1018.13 311.9 1018.13 314.747 1017.67 316.487 1017.22 318.226 1016.84 316.803 1016.84 313.323ZM409.471 312.42C409.508 309.437 409.913 308.436 410.371 310.195 410.83 311.953 410.8 314.393 410.304 315.617 409.809 316.841 409.434 315.402 409.471 312.42ZM440.131 313.323C440.131 310.838 440.541 309.822 441.043 311.064 441.544 312.307 441.544 314.34 441.043 315.583 440.541 316.825 440.131 315.809 440.131 313.323ZM1047.5 312.42C1047.54 309.437 1047.95 308.436 1048.4 310.195 1048.86 311.953 1048.83 314.393 1048.34 315.617 1047.84 316.841 1047.47 315.402 1047.5 312.42ZM434.423 251.187C434.423 250.812 435.847 249.389 437.586 248.024 440.453 245.776 440.517 245.84 438.269 248.707 435.908 251.718 434.423 252.675 434.423 251.187ZM300.814 227.319C300.901 225.213 301.329 224.785 301.906 226.226 302.428 227.531 302.364 229.09 301.763 229.691 301.163 230.291 300.735 229.224 300.814 227.319ZM331.683 226.565C331.683 224.08 332.094 223.063 332.595 224.306 333.096 225.549 333.096 227.582 332.595 228.825 332.094 230.067 331.683 229.051 331.683 226.565ZM338.628 130.088C338.628 129.712 340.051 128.289 341.791 126.925 344.658 124.676 344.722 124.74 342.473 127.607 340.112 130.618 338.628 131.575 338.628 130.088ZM1457.31 118.57 1452.93 113.599 1457.9 117.981C1460.63 120.391 1462.87 122.628 1462.87 122.952 1462.87 124.369 1461.4 123.215 1457.31 118.57ZM453.966 100.616C455.271 100.094 456.83 100.158 457.431 100.759 458.031 101.359 456.964 101.786 455.058 101.708 452.953 101.621 452.525 101.193 453.966 100.616ZM453.853 69.9268C455.096 69.4254 457.129 69.4254 458.372 69.9268 459.615 70.4282 458.598 70.8385 456.113 70.8385 453.628 70.8385 452.611 70.4282 453.853 69.9268ZM1350.47 69.889C1351.77 69.3668 1353.33 69.4311 1353.93 70.0316 1354.53 70.6322 1353.46 71.0594 1351.56 70.981 1349.45 70.8942 1349.02 70.466 1350.47 69.889Z" fill="#7193BA" transform="matrix(1 0 0 1.0007 1341.7 399.415)"/><path d="M681.593 1756.13C804.117 1755.87 1004.61 1755.87 1127.13 1756.13 1249.66 1756.38 1149.41 1756.59 904.363 1756.59 659.316 1756.59 559.07 1756.38 681.593 1756.13ZM345.627 1703.71C343.379 1700.85 343.443 1700.78 346.31 1703.03 349.32 1705.39 350.278 1706.87 348.79 1706.87 348.415 1706.87 346.992 1705.45 345.627 1703.71ZM1476.41 913.4C1476.41 535.144 1476.62 380.403 1476.88 569.531 1477.13 758.659 1477.13 1068.14 1476.88 1257.27 1476.62 1446.4 1476.41 1291.66 1476.41 913.4ZM301.566 913.4C301.566 537.132 301.773 383.204 302.027 571.338 302.28 759.472 302.28 1067.33 302.027 1255.46 301.773 1443.6 301.566 1289.67 301.566 913.4ZM888.656 1564.99C888.667 1559.02 889.003 1556.8 889.406 1560.05 889.808 1563.3 889.799 1568.18 889.389 1570.9 888.976 1573.61 888.647 1570.95 888.657 1564.99ZM585.251 1514.38C585.251 1481.57 585.495 1467.9 585.794 1483.99 586.094 1500.08 586.094 1526.92 585.795 1543.64 585.497 1560.35 585.252 1547.19 585.252 1514.38ZM1192.56 1514.38C1192.56 1481.57 1192.8 1467.9 1193.1 1483.99 1193.4 1500.08 1193.4 1526.92 1193.1 1543.64 1192.8 1560.35 1192.56 1547.19 1192.56 1514.38ZM760.051 1513.48C760.051 1510.99 760.461 1509.97 760.963 1511.22 761.465 1512.46 761.465 1514.49 760.963 1515.74 760.462 1516.98 760.051 1515.96 760.051 1513.48ZM888.656 1474.62C888.667 1468.65 889.003 1466.43 889.406 1469.68 889.808 1472.93 889.799 1477.81 889.389 1480.52 888.976 1483.24 888.647 1480.58 888.657 1474.62ZM527.056 1423.56C539.73 1423.25 560.471 1423.25 573.146 1423.56 585.821 1423.87 575.45 1424.13 550.101 1424.13 524.751 1424.13 514.381 1423.87 527.056 1423.56ZM628.379 1423.56C641.111 1423.25 661.445 1423.25 673.565 1423.56 685.685 1423.87 675.267 1424.13 650.415 1424.13 625.562 1424.13 615.646 1423.87 628.379 1423.56ZM1134.36 1423.56C1147.04 1423.25 1167.78 1423.25 1180.45 1423.56 1193.13 1423.87 1182.76 1424.13 1157.41 1424.13 1132.06 1424.13 1121.69 1423.87 1134.36 1423.56ZM1235.69 1423.56C1248.42 1423.25 1268.75 1423.25 1280.87 1423.56 1292.99 1423.87 1282.57 1424.13 1257.72 1424.13 1232.87 1424.13 1222.95 1423.87 1235.69 1423.56ZM888.656 1384.24C888.667 1378.28 889.003 1376.06 889.406 1379.31 889.808 1382.55 889.799 1387.43 889.389 1390.15 888.976 1392.87 888.647 1390.21 888.657 1384.24ZM888.656 1293.87C888.667 1287.91 889.003 1285.68 889.406 1288.93 889.808 1292.18 889.799 1297.06 889.389 1299.78 888.976 1302.49 888.647 1299.84 888.657 1293.87ZM585.253 1213.44C585.253 1180.14 585.497 1166.51 585.795 1183.16 586.093 1199.81 586.093 1227.06 585.795 1243.71 585.497 1260.36 585.253 1246.74 585.253 1213.44ZM1192.56 1213.44C1192.56 1180.14 1192.8 1166.51 1193.1 1183.16 1193.4 1199.81 1193.4 1227.06 1193.1 1243.71 1192.8 1260.36 1192.56 1246.74 1192.56 1213.44ZM739.884 1257.94C739.884 1257.57 741.307 1256.14 743.047 1254.78 745.914 1252.53 745.978 1252.6 743.729 1255.46 741.368 1258.47 739.884 1259.43 739.884 1257.94ZM1347.19 1257.94C1347.19 1257.57 1348.61 1256.14 1350.35 1254.78 1353.22 1252.53 1353.28 1252.6 1351.04 1255.46 1348.67 1258.47 1347.19 1259.43 1347.19 1257.94ZM760.051 1213.44C760.051 1210.95 760.461 1209.94 760.963 1211.18 761.465 1212.42 761.465 1214.46 760.963 1215.7 760.462 1216.94 760.051 1215.92 760.051 1213.44ZM888.656 1203.5C888.667 1197.53 889.003 1195.31 889.406 1198.56 889.808 1201.81 889.799 1206.69 889.389 1209.4 888.976 1212.12 888.647 1209.46 888.657 1203.5ZM888.656 1113.12C888.667 1107.16 889.003 1104.94 889.406 1108.19 889.808 1111.43 889.799 1116.31 889.389 1119.03 888.976 1121.75 888.647 1119.09 888.657 1113.12ZM888.656 1022.75C888.667 1016.79 889.003 1014.56 889.406 1017.81 889.808 1021.06 889.799 1025.94 889.389 1028.66 888.976 1031.37 888.647 1028.72 888.657 1022.75ZM585.253 913.4C585.253 880.098 585.497 866.474 585.795 883.125 586.093 899.776 586.093 927.024 585.795 943.675 585.497 960.326 585.253 946.703 585.253 913.4ZM1192.56 913.4C1192.56 880.098 1192.8 866.474 1193.1 883.125 1193.4 899.776 1193.4 927.024 1193.1 943.675 1192.8 960.326 1192.56 946.703 1192.56 913.4ZM888.656 932.378C888.667 926.414 889.003 924.192 889.406 927.44 889.808 930.689 889.799 935.569 889.389 938.285 888.976 941.001 888.647 938.343 888.657 932.378ZM760.051 913.4C760.051 910.915 760.461 909.898 760.963 911.141 761.465 912.383 761.465 914.417 760.963 915.659 760.462 916.902 760.051 915.885 760.051 913.4ZM888.656 842.005C888.667 836.041 889.003 833.819 889.406 837.067 889.808 840.316 889.799 845.196 889.389 847.912 888.976 850.628 888.647 847.97 888.657 842.005ZM888.656 751.633C888.667 745.668 889.003 743.446 889.406 746.694 889.808 749.943 889.799 754.823 889.389 757.539 888.976 760.255 888.647 757.597 888.657 751.633ZM585.253 613.362C585.253 580.059 585.497 566.436 585.795 583.087 586.093 599.738 586.093 626.986 585.795 643.637 585.497 660.288 585.253 646.664 585.253 613.362ZM1192.56 613.362C1192.56 580.059 1192.8 566.436 1193.1 583.087 1193.4 599.738 1193.4 626.986 1193.1 643.637 1192.8 660.288 1192.56 646.664 1192.56 613.362ZM888.656 661.259C888.667 655.295 889.003 653.073 889.406 656.321 889.808 659.57 889.799 664.45 889.389 667.166 888.976 669.882 888.647 667.224 888.657 661.259ZM760.051 613.362C760.051 610.877 760.461 609.86 760.963 611.102 761.465 612.345 761.465 614.378 760.963 615.621 760.462 616.864 760.051 615.847 760.051 613.362ZM888.656 570.886C888.667 564.922 889.003 562.7 889.406 565.948 889.808 569.197 889.799 574.077 889.389 576.793 888.976 579.509 888.647 576.851 888.657 570.886ZM741.461 570.435C739.213 567.568 739.277 567.504 742.143 569.752 745.154 572.113 746.112 573.598 744.624 573.598 744.248 573.598 742.825 572.174 741.461 570.435ZM1348.77 570.435C1346.52 567.568 1346.58 567.504 1349.45 569.752 1352.46 572.113 1353.42 573.598 1351.93 573.598 1351.55 573.598 1350.13 572.174 1348.77 570.435ZM888.656 480.513C888.667 474.549 889.003 472.327 889.406 475.575 889.808 478.824 889.799 483.704 889.389 486.42 888.976 489.136 888.647 486.478 888.657 480.513ZM527.056 402.346C539.73 402.035 560.471 402.035 573.146 402.346 585.821 402.657 575.45 402.911 550.101 402.911 524.751 402.911 514.381 402.657 527.056 402.346ZM628.379 402.345C641.111 402.034 661.445 402.035 673.565 402.347 685.685 402.659 675.267 402.914 650.415 402.913 625.562 402.912 615.646 402.656 628.379 402.345ZM1134.36 402.346C1147.04 402.035 1167.78 402.035 1180.45 402.346 1193.13 402.657 1182.76 402.911 1157.41 402.911 1132.06 402.911 1121.69 402.657 1134.36 402.346ZM1235.69 402.345C1248.42 402.034 1268.75 402.035 1280.87 402.347 1292.99 402.659 1282.57 402.914 1257.72 402.913 1232.87 402.912 1222.95 402.656 1235.69 402.345ZM888.656 390.141C888.667 384.176 889.003 381.954 889.406 385.202 889.808 388.451 889.799 393.331 889.389 396.047 888.976 398.763 888.647 396.105 888.657 390.141ZM585.251 312.42C585.251 279.614 585.495 265.939 585.794 282.03 586.094 298.121 586.094 324.962 585.795 341.676 585.497 358.391 585.252 345.225 585.252 312.42ZM1192.56 312.42C1192.56 279.614 1192.8 265.939 1193.1 282.03 1193.4 298.121 1193.4 324.962 1193.1 341.676 1192.8 358.391 1192.56 345.225 1192.56 312.42ZM760.051 313.323C760.051 310.838 760.461 309.822 760.963 311.064 761.465 312.307 761.465 314.34 760.963 315.583 760.462 316.825 760.051 315.809 760.051 313.323ZM888.656 299.768C888.667 293.803 889.003 291.581 889.406 294.829 889.808 298.078 889.799 302.958 889.389 305.674 888.976 308.39 888.647 305.732 888.657 299.768ZM888.656 209.395C888.667 203.43 889.003 201.208 889.406 204.456 889.808 207.705 889.799 212.585 889.389 215.301 888.976 218.017 888.647 215.359 888.657 209.395ZM344.05 124.665C344.05 124.29 345.474 122.867 347.213 121.502 350.08 119.254 350.144 119.318 347.896 122.185 345.535 125.195 344.05 126.153 344.05 124.665ZM681.593 69.7683C804.117 69.5119 1004.61 69.5119 1127.13 69.7683 1249.66 70.0247 1149.41 70.2345 904.363 70.2345 659.316 70.2345 559.07 70.0247 681.593 69.7683Z" fill="#4570A5" transform="matrix(1 0 0 1.0007 1341.7 399.415)"/><path d="M370.087 1686.54 366.644 1682.47 370.71 1685.92C372.947 1687.81 374.777 1689.64 374.777 1689.98 374.777 1691.43 373.322 1690.36 370.087 1686.54ZM1348.77 1470.55C1346.52 1467.68 1346.58 1467.62 1349.45 1469.87 1351.19 1471.23 1352.61 1472.65 1352.61 1473.03 1352.61 1474.52 1351.13 1473.56 1348.77 1470.55ZM763.15 1450.67C760.902 1447.8 760.966 1447.74 763.833 1449.99 766.844 1452.35 767.801 1453.83 766.313 1453.83 765.938 1453.83 764.515 1452.41 763.15 1450.67ZM498.171 1423.66C499.929 1423.2 502.369 1423.23 503.593 1423.73 504.817 1424.22 503.378 1424.6 500.396 1424.56 497.413 1424.52 496.412 1424.12 498.171 1423.66ZM597.547 1423.66C599.286 1423.21 602.133 1423.21 603.873 1423.66 605.612 1424.12 604.189 1424.49 600.71 1424.49 597.23 1424.49 595.807 1424.12 597.547 1423.66ZM696.957 1423.66C698.696 1423.21 701.543 1423.21 703.283 1423.66 705.023 1424.12 703.599 1424.49 700.12 1424.49 696.641 1424.49 695.217 1424.12 696.957 1423.66ZM1105.48 1423.66C1107.24 1423.2 1109.68 1423.23 1110.9 1423.73 1112.12 1424.22 1110.68 1424.6 1107.7 1424.56 1104.72 1424.52 1103.72 1424.12 1105.48 1423.66ZM1204.85 1423.66C1206.59 1423.21 1209.44 1423.21 1211.18 1423.66 1212.92 1424.12 1211.5 1424.49 1208.02 1424.49 1204.54 1424.49 1203.11 1424.12 1204.85 1423.66ZM1304.26 1423.66C1306 1423.21 1308.85 1423.21 1310.59 1423.66 1312.33 1424.12 1310.91 1424.49 1307.43 1424.49 1303.95 1424.49 1302.52 1424.12 1304.26 1423.66ZM762.305 1149.72 758.862 1145.66 762.929 1149.1C766.751 1152.34 767.819 1153.79 766.372 1153.79 766.029 1153.79 764.199 1151.96 762.305 1149.72ZM1370.46 1150.63C1368.21 1147.76 1368.27 1147.7 1371.14 1149.95 1372.88 1151.31 1374.3 1152.73 1374.3 1153.11 1374.3 1154.6 1372.82 1153.64 1370.46 1150.63ZM1369.78 976.66C1371.58 974.672 1373.46 973.045 1373.96 973.045 1374.46 973.045 1373.39 974.672 1371.59 976.66 1369.79 978.648 1367.91 980.275 1367.42 980.275 1366.92 980.275 1367.98 978.648 1369.78 976.66ZM1369.61 849.686 1366.17 845.619 1370.24 849.063C1372.47 850.956 1374.3 852.786 1374.3 853.129 1374.3 854.576 1372.85 853.508 1369.61 849.686ZM762.477 676.622C764.277 674.634 766.155 673.007 766.652 673.007 767.149 673.007 766.084 674.634 764.285 676.622 762.485 678.61 760.607 680.237 760.11 680.237 759.612 680.237 760.678 678.61 762.477 676.622ZM1369.78 676.622C1371.58 674.634 1373.46 673.007 1373.96 673.007 1374.46 673.007 1373.39 674.634 1371.59 676.622 1369.79 678.61 1367.91 680.237 1367.42 680.237 1366.92 680.237 1367.98 678.61 1369.78 676.622ZM498.171 402.444C499.929 401.986 502.369 402.016 503.593 402.511 504.817 403.006 503.378 403.381 500.396 403.344 497.413 403.307 496.412 402.902 498.171 402.444ZM597.547 402.451C599.286 401.996 602.133 401.996 603.873 402.451 605.612 402.905 604.189 403.277 600.71 403.277 597.23 403.277 595.807 402.905 597.547 402.451ZM696.957 402.451C698.696 401.996 701.543 401.996 703.283 402.451 705.023 402.905 703.599 403.277 700.12 403.277 696.641 403.277 695.217 402.905 696.957 402.451ZM1105.48 402.444C1107.24 401.986 1109.68 402.016 1110.9 402.511 1112.12 403.006 1110.68 403.381 1107.7 403.344 1104.72 403.307 1103.72 402.902 1105.48 402.444ZM1204.85 402.451C1206.59 401.996 1209.44 401.996 1211.18 402.451 1212.92 402.905 1211.5 403.277 1208.02 403.277 1204.54 403.277 1203.11 402.905 1204.85 402.451ZM1304.26 402.451C1306 401.996 1308.85 401.996 1310.59 402.451 1312.33 402.905 1310.91 403.277 1307.43 403.277 1303.95 403.277 1302.52 402.905 1304.26 402.451ZM761.573 377.71C761.573 377.334 762.997 375.911 764.737 374.547 767.603 372.298 767.667 372.362 765.419 375.229 763.058 378.24 761.573 379.197 761.573 377.71ZM1347.19 357.828C1347.19 357.452 1348.61 356.029 1350.35 354.665 1353.22 352.416 1353.28 352.48 1351.04 355.347 1348.67 358.358 1347.19 359.315 1347.19 357.828ZM370.258 139.807C372.058 137.819 373.937 136.192 374.434 136.192 374.931 136.192 373.865 137.819 372.066 139.807 370.267 141.796 368.388 143.422 367.891 143.422 367.394 143.422 368.459 141.796 370.258 139.807Z" fill="#205493" transform="matrix(1 0 0 1.0007 1341.7 399.415)"/><path d="M444.364 1754.56C442.376 1754.16 436.276 1752.93 430.808 1751.83 381.668 1741.92 334.009 1701.18 314.265 1652.22 301.493 1620.54 302.479 1682.33 302.479 913.4 302.479 148.515 301.607 206.445 313.57 176.163 332.946 127.118 374.547 90.3917 427.991 75.1505 438.239 72.228 468.816 72.0276 904.363 72.0276L1369.78 72.0276 1386.05 77.1698C1446.25 96.1985 1487.94 140.564 1502 200.554 1505.22 214.301 1505.34 240.095 1505.34 913.4 1505.34 1586.71 1505.22 1612.5 1502 1626.25 1488.05 1685.78 1447.36 1729.41 1386.95 1749.62L1371.59 1754.76 909.785 1755.02C655.792 1755.16 446.352 1754.96 444.364 1754.56ZM1367.98 1724.05C1418.98 1713.4 1461.4 1672.46 1473.09 1622.61 1476.3 1608.89 1476.42 1582.83 1476.42 913.4 1476.42 243.971 1476.3 217.908 1473.09 204.19 1463.59 163.674 1432.24 127.009 1392.84 110.352 1366.69 99.2921 1397.29 99.9035 897.133 100.449L440.749 100.947 428.097 105.167C383.42 120.067 350.593 153.344 336.456 198.062L332.302 211.202 332.302 914.304 332.302 1617.41 337.387 1631.87C354.41 1680.27 390.785 1713.29 438.942 1724.05 455.9 1727.84 1349.84 1727.84 1367.98 1724.05ZM489.551 1602.63C450.052 1597.06 417.881 1564.94 412.185 1525.4 408.386 1499.03 418.013 1470.63 437.283 1451.36 448.588 1440.06 459.195 1433.59 474.85 1428.45 485.091 1425.09 491.326 1424.91 599.776 1424.91 725.279 1424.91 722.21 1424.67 744.007 1436.21 756.75 1442.96 773.294 1460.31 780.169 1474.15 804.425 1522.96 780.892 1578.82 727.596 1598.96 717.484 1602.78 715.211 1602.86 606.132 1603.13 544.995 1603.27 492.533 1603.05 489.551 1602.63ZM586.25 1513.48 586.25 1453.83 538.68 1453.83C501.828 1453.83 489.103 1454.44 482.197 1456.51 462.819 1462.35 445.865 1481.47 441.503 1502.42 435.45 1531.49 454.251 1562.59 483.225 1571.43 485.71 1572.19 509.907 1572.88 536.997 1572.97L586.25 1573.12ZM723.041 1569.23C737.194 1563.93 750.585 1550.47 756.082 1536.01 766.341 1509.03 757.07 1479.26 733.665 1464.05 719.024 1454.53 714.169 1453.83 662.405 1453.83L615.169 1453.83 615.169 1513.48 615.169 1573.12 663.903 1573.12C709.371 1573.12 713.334 1572.86 723.041 1569.23ZM1096.86 1602.63C1077.69 1599.93 1058.65 1590.2 1044.73 1576 1032.55 1563.58 1025.36 1550.94 1021.04 1534.33 1009.42 1489.71 1037.99 1441.09 1083.58 1427.87 1092.57 1425.27 1107.52 1424.91 1207.51 1424.91 1306.83 1424.91 1322.47 1425.28 1331.05 1427.82 1364.2 1437.66 1388.23 1463.78 1395.31 1497.66 1404.17 1540.13 1379.03 1582.29 1334.9 1598.96 1324.79 1602.78 1322.52 1602.86 1213.44 1603.13 1152.3 1603.27 1099.84 1603.05 1096.86 1602.63ZM1193.56 1513.48 1193.56 1453.83 1144.82 1453.83C1100.25 1453.83 1095.25 1454.14 1086.27 1457.51 1058.36 1467.95 1041.6 1500.68 1049.77 1528.78 1053.33 1541.03 1056.25 1546.16 1065.1 1555.65 1071.4 1562.42 1081.46 1568.66 1090.53 1571.43 1093.02 1572.19 1117.21 1572.88 1144.3 1572.97L1193.56 1573.12ZM1330.1 1569.32C1343.99 1564.12 1358.12 1549.9 1363.43 1535.76 1368.73 1521.64 1368.08 1500.28 1361.97 1487.82 1356.19 1476.04 1345.09 1465.19 1333.01 1459.53 1322.83 1454.75 1322.61 1454.73 1272.63 1454.2L1222.48 1453.67 1222.48 1513.4 1222.48 1573.12 1271.21 1573.12C1316.3 1573.12 1320.7 1572.84 1330.1 1569.32ZM898.037 1585.44C891.489 1581.61 890.019 1577.87 889.961 1564.88 889.915 1554.63 890.605 1551.36 893.457 1548.3 898.421 1542.97 903.471 1541.77 909.251 1544.54 916.007 1547.78 918.764 1554.05 918.796 1566.24 918.818 1574.39 917.974 1577.49 914.756 1581.09 909.879 1586.55 902.985 1588.34 898.037 1585.44ZM898.037 1495.07C891.489 1491.24 890.019 1487.49 889.961 1474.51 889.915 1464.26 890.605 1460.99 893.457 1457.93 898.421 1452.6 903.471 1451.4 909.251 1454.17 916.007 1457.41 918.764 1463.68 918.796 1475.87 918.818 1484.01 917.974 1487.11 914.756 1490.71 909.879 1496.17 902.985 1497.97 898.037 1495.07ZM898.037 1404.7C891.489 1400.86 890.019 1397.12 889.961 1384.13 889.915 1373.89 890.605 1370.62 893.457 1367.55 898.421 1362.23 903.471 1361.03 909.251 1363.8 916.007 1367.04 918.764 1373.31 918.796 1385.5 918.818 1393.64 917.974 1396.74 914.756 1400.34 909.879 1405.8 902.985 1407.6 898.037 1404.7ZM898.037 1314.32C891.489 1310.49 890.019 1306.75 889.961 1293.76 889.915 1283.52 890.605 1280.24 893.457 1277.18 898.421 1271.85 903.471 1270.65 909.251 1273.42 916.007 1276.66 918.764 1282.93 918.796 1295.13 918.818 1303.27 917.974 1306.37 914.756 1309.97 909.879 1315.43 902.985 1317.22 898.037 1314.32ZM486.84 1301.97C466.229 1298.39 443.793 1285.36 431.152 1269.63 391.195 1219.9 414.902 1146.46 477.109 1127.25 486.905 1124.23 496.65 1123.97 600.71 1123.97 706.733 1123.97 714.287 1124.18 723.617 1127.38 755.263 1138.25 776.408 1158.81 786.091 1188.13 790.485 1201.44 790.489 1225.41 786.102 1238.74 775.483 1270.99 749.903 1294.16 717.293 1301.07 706.883 1303.27 686.059 1303.72 599.808 1303.57 542.15 1303.47 491.315 1302.75 486.842 1301.97ZM586.25 1213.44 586.25 1153.79 537.516 1153.79C492.942 1153.79 487.944 1154.11 478.96 1157.47 465.154 1162.63 453.82 1173.26 446.714 1187.69 441.586 1198.11 440.804 1201.53 440.853 1213.35 440.956 1238.25 454.862 1259.48 477.047 1268.6 487.469 1272.89 489.007 1273 536.997 1273.04L586.25 1273.09ZM722.79 1269.29C736.637 1264.1 750.795 1249.87 756.176 1235.72 767.47 1206.03 754.809 1173.7 726.213 1159.21 717.415 1154.76 716.582 1154.69 666.23 1154.14L615.169 1153.59 615.169 1213.34 615.169 1273.08 663.903 1273.08C708.998 1273.08 713.395 1272.8 722.79 1269.29ZM1094.15 1301.97C1046.23 1293.64 1012.7 1248.66 1019.46 1201.75 1024.5 1166.72 1049.57 1137.89 1084.21 1127.29 1094.23 1124.22 1103.54 1123.97 1208.02 1123.97 1313.67 1123.97 1321.63 1124.19 1330.92 1127.35 1348.55 1133.35 1361.39 1141.3 1372.1 1152.84 1384.9 1166.63 1391.84 1180.3 1395.53 1199.01 1398.12 1212.18 1398.12 1214.72 1395.47 1228.17 1388.08 1265.67 1361.2 1293.32 1324.6 1301.07 1314.19 1303.27 1293.36 1303.72 1207.11 1303.57 1149.45 1303.47 1098.62 1302.75 1094.15 1301.97ZM1193.56 1213.44 1193.56 1153.79 1144.82 1153.79C1100.09 1153.79 1095.27 1154.1 1086.17 1157.5 1058.22 1167.96 1041.57 1200.53 1049.76 1228.7 1055.41 1248.13 1066.96 1261.45 1084.39 1268.61 1094.77 1272.88 1096.35 1273 1144.3 1273.04L1193.56 1273.09ZM1330.1 1269.29C1343.99 1264.09 1358.12 1249.86 1363.43 1235.72 1368.76 1221.53 1368.08 1200.25 1361.9 1187.65 1356.53 1176.67 1344.86 1165 1333.48 1159.21 1324.72 1154.76 1323.9 1154.69 1273.54 1154.14L1222.48 1153.59 1222.48 1213.34 1222.48 1273.08 1271.21 1273.08C1316.3 1273.08 1320.7 1272.8 1330.1 1269.29ZM898.037 1223.95C891.489 1220.12 890.019 1216.37 889.961 1203.39 889.915 1193.14 890.605 1189.87 893.457 1186.81 898.421 1181.48 903.471 1180.28 909.251 1183.05 916.007 1186.29 918.764 1192.56 918.796 1204.75 918.818 1212.9 917.974 1215.99 914.756 1219.6 909.879 1225.05 902.985 1226.85 898.037 1223.95ZM898.037 1133.58C891.489 1129.74 890.019 1126 889.961 1113.01 889.915 1102.77 890.605 1099.5 893.457 1096.44 898.421 1091.11 903.471 1089.91 909.251 1092.68 916.007 1095.92 918.764 1102.19 918.796 1114.38 918.818 1122.52 917.974 1125.62 914.756 1129.22 909.879 1134.68 902.985 1136.48 898.037 1133.58ZM898.037 1043.21C891.489 1039.37 890.019 1035.63 889.961 1022.64 889.915 1012.4 890.605 1009.12 893.457 1006.06 898.421 1000.73 903.471 999.533 909.251 1002.3 916.007 1005.54 918.764 1011.81 918.796 1024.01 918.818 1032.15 917.974 1035.25 914.756 1038.85 909.879 1044.31 902.985 1046.1 898.037 1043.21ZM483.225 1000.99C436.786 990.786 405.215 946.148 412.257 900.652 418.055 863.198 446.785 833.526 484.898 825.628 496.334 823.258 514.385 822.943 606.901 823.501 705.745 824.096 716.359 824.448 725.243 827.421 781.714 846.32 806.069 907.037 777.56 957.847 767.369 976.011 747.187 992.033 725.243 999.38 716.321 1002.37 706.021 1002.69 605.228 1003.11 515.048 1003.49 492.834 1003.11 483.225 1000.99ZM586.25 913.4 586.25 853.754 537.516 853.754C481.44 853.754 475.995 854.835 460.103 869.123 434.249 892.369 434.252 934.434 460.11 957.683 475.975 971.947 480.491 972.844 536.997 972.952L586.25 973.046ZM726.328 967.709C771.29 945.654 771.29 881.146 726.328 859.091 717.476 854.749 716.243 854.647 666.23 854.126L615.169 853.596 615.169 913.4 615.169 973.205 666.23 972.674C716.243 972.154 717.476 972.052 726.328 967.709ZM1090.53 1000.99C1040.94 990.094 1008.67 940.017 1020.92 892.982 1029.96 858.304 1056.77 832.971 1092.2 825.628 1103.64 823.259 1121.73 822.942 1214.21 823.488 1333.71 824.194 1328.01 823.678 1350.95 835.9 1364.05 842.883 1380.52 860.021 1387.51 873.936 1390.3 879.494 1393.89 890.647 1395.48 898.721 1398.13 912.177 1398.13 914.623 1395.48 928.08 1393.89 936.153 1390.3 947.306 1387.51 952.864 1380.52 966.779 1364.05 983.917 1350.95 990.9 1327.94 1003.16 1333.98 1002.63 1212.53 1003.12 1122.39 1003.49 1100.14 1003.11 1090.53 1000.99ZM1193.56 913.4 1193.56 853.754 1144.82 853.754C1100.09 853.754 1095.27 854.058 1086.17 857.466 1066.99 864.641 1053.08 881.596 1048.51 903.351 1043.05 929.414 1059.92 959.353 1085.65 969.246 1094.19 972.529 1099.54 972.867 1144.3 972.952L1193.56 973.046ZM1333.59 967.719C1345.05 962.076 1356.1 951.028 1361.74 939.561 1365.5 931.936 1366.17 927.964 1366.17 913.4 1366.17 898.836 1365.5 894.864 1361.74 887.239 1356.1 875.772 1345.05 864.724 1333.59 859.082 1324.79 854.75 1323.53 854.647 1273.54 854.126L1222.48 853.596 1222.48 913.4 1222.48 973.205 1273.54 972.674C1323.53 972.154 1324.79 972.05 1333.59 967.719ZM898.037 952.832C896.049 951.668 893.431 949.436 892.22 947.873 889.234 944.019 889.345 920.612 892.367 916.634 896.274 911.492 903.991 909.41 909.447 912.026 916.01 915.172 918.765 921.54 918.796 933.633 918.818 941.777 917.974 944.875 914.756 948.477 909.879 953.934 902.986 955.73 898.037 952.832ZM898.037 862.459C896.049 861.295 893.431 859.063 892.22 857.5 889.234 853.646 889.345 830.239 892.367 826.261 896.274 821.119 903.991 819.037 909.447 821.653 916.01 824.799 918.765 831.167 918.796 843.26 918.818 851.404 917.974 854.502 914.756 858.104 909.879 863.561 902.986 865.357 898.037 862.459ZM898.037 772.086C896.049 770.922 893.431 768.69 892.22 767.127 889.234 763.273 889.345 739.866 892.367 735.888 896.274 730.746 903.991 728.664 909.447 731.28 916.01 734.427 918.765 740.794 918.796 752.887 918.818 761.031 917.974 764.129 914.756 767.731 909.879 773.188 902.986 774.984 898.037 772.086ZM491.358 702.519C441.031 695.427 405.229 649.719 412.185 601.437 417.054 567.636 439.427 540.814 473.428 528.015 483.993 524.038 485.51 523.98 593.617 523.398 687.056 522.896 705.072 523.219 716.519 525.606 759.687 534.607 789.373 570.365 789.373 613.362 789.373 638.518 779.92 660.065 761.056 677.905 750.932 687.48 742.322 692.575 725.511 698.94 715.758 702.633 712.493 702.744 606.132 703.01 545.989 703.16 494.341 702.939 491.358 702.519ZM586.25 613.362 586.25 553.716 537.516 553.716C492.1 553.716 488.077 553.98 478.413 557.595 455.762 566.07 440.958 588.084 440.853 613.448 440.805 625.272 441.586 628.693 446.714 639.109 453.706 653.312 465.063 664.097 478.447 669.244 486.864 672.482 492.4 672.829 536.997 672.914L586.25 673.008ZM726.213 667.586C763.83 648.534 771.977 600.347 742.556 570.926 726.34 554.71 721.797 553.716 663.903 553.716L615.169 553.716 615.169 613.465 615.169 673.214 666.23 672.659C716.582 672.112 717.415 672.041 726.213 667.585ZM1098.66 702.519C1067.54 698.133 1040.6 678.861 1027.67 651.729 1004.54 603.178 1027.23 548.809 1079 528.733L1091.43 523.912 1200.92 523.361C1294.26 522.891 1312.39 523.222 1323.83 525.606 1361.13 533.384 1388.01 560.787 1395.47 598.631 1398.12 612.079 1398.12 614.618 1395.53 627.788 1388.77 662.064 1368.09 685.653 1333.26 698.788 1322.95 702.677 1321.13 702.741 1213.44 703.01 1153.3 703.16 1101.65 702.939 1098.66 702.519ZM1193.56 613.362 1193.56 553.716 1144.82 553.716C1099.59 553.716 1095.35 553.991 1085.84 557.549 1068.11 564.184 1055.49 578.359 1049.76 598.1 1041.64 626.007 1058.11 658.617 1085.65 669.208 1094.19 672.49 1099.54 672.828 1144.3 672.914L1193.56 673.008ZM1333.48 667.586C1354.24 657.024 1365.76 639.194 1366.76 616.073 1367.61 596.387 1363 584.062 1349.86 570.926 1333.65 554.71 1329.1 553.716 1271.21 553.716L1222.48 553.716 1222.48 613.465 1222.48 673.214 1273.54 672.659C1323.9 672.112 1324.72 672.043 1333.48 667.585ZM898.037 681.713C896.049 680.549 893.431 678.317 892.22 676.754 889.234 672.9 889.345 649.493 892.367 645.515 896.274 640.373 903.991 638.291 909.447 640.907 916.01 644.054 918.765 650.421 918.796 662.514 918.818 670.658 917.974 673.756 914.756 677.358 909.879 682.815 902.986 684.611 898.037 681.713ZM898.037 591.34C896.049 590.176 893.431 587.944 892.22 586.381 889.234 582.527 889.345 559.12 892.367 555.142 896.274 550 903.991 547.918 909.447 550.534 916.01 553.681 918.765 560.048 918.796 572.141 918.818 580.285 917.974 583.383 914.756 586.985 909.879 592.442 902.986 594.238 898.037 591.34ZM898.037 500.967C896.049 499.803 893.431 497.571 892.22 496.008 889.234 492.154 889.345 468.747 892.367 464.769 896.274 459.627 903.991 457.545 909.447 460.161 916.01 463.308 918.765 469.675 918.796 481.768 918.818 489.912 917.974 493.01 914.756 496.612 909.879 502.069 902.986 503.865 898.037 500.967ZM898.037 410.594C896.049 409.43 893.431 407.198 892.22 405.635 889.234 401.781 889.345 378.374 892.367 374.396 896.274 369.254 903.991 367.172 909.447 369.788 916.01 372.935 918.765 379.302 918.796 391.395 918.818 399.539 917.974 402.637 914.756 406.239 909.879 411.696 902.986 413.492 898.037 410.594ZM473.284 397.673C456.438 391.563 448.568 386.721 437.514 375.667 402.728 340.881 402.858 285.243 437.807 250.294 449.09 239.011 458.742 233.19 475.995 227.267 485.331 224.062 492.914 223.854 600.71 223.854 708.091 223.854 716.123 224.072 725.424 227.235 770.434 242.544 797.023 285.92 787.972 329.273 780.887 363.212 756.885 389.27 723.741 399.005 715.183 401.519 699.183 401.871 599.026 401.748 485.731 401.609 483.977 401.552 473.284 397.673ZM586.25 313.222 586.25 253.474 534.285 254.027 482.321 254.581 473.284 259.395C456.159 268.518 444.995 283.98 441.355 303.617 437.508 324.372 446.746 347.427 464.246 360.743 478.975 371.95 483.552 372.702 537.9 372.844L586.25 372.97ZM720.213 369.441C745.552 359.813 760.084 339.394 760.153 313.323 760.218 288.553 745.084 265.818 723.041 257.57 713.334 253.938 709.371 253.677 663.903 253.677L615.169 253.677 615.169 313.323 615.169 372.97 663.047 372.97C706.16 372.97 711.85 372.618 720.213 369.441ZM1081.49 398.341C1036.72 383.846 1009.61 336.361 1021.04 292.466 1025.36 275.864 1032.55 263.222 1044.73 250.799 1056.12 239.175 1065.79 233.28 1083.3 227.267 1092.64 224.062 1100.22 223.854 1208.02 223.854 1315.4 223.854 1323.43 224.072 1332.73 227.235 1377.68 242.523 1404.33 285.927 1395.31 329.143 1388.23 363.025 1364.2 389.139 1331.05 398.976 1322.44 401.53 1307.05 401.869 1206.33 401.724 1101.35 401.573 1090.58 401.281 1081.49 398.341ZM1193.56 313.222 1193.56 253.474 1141.59 254.027 1089.63 254.581 1080.59 259.395C1065.18 267.606 1054.85 280.554 1049.77 298.024 1041.68 325.851 1058.25 358.628 1085.75 369.206 1094.17 372.443 1099.71 372.79 1144.3 372.875L1193.56 372.97ZM1333.01 367.274C1354.06 357.404 1365.73 339.686 1366.76 316.035 1367.61 296.348 1363 284.024 1349.86 270.887 1333.65 254.671 1329.1 253.677 1271.21 253.677L1222.48 253.677 1222.48 313.404 1222.48 373.131 1272.63 372.598C1322.61 372.068 1322.83 372.048 1333.01 367.274ZM898.037 320.178C891.491 316.424 890.018 312.674 890.018 299.768 890.018 285.926 891.841 282.024 899.706 279.034 905.973 276.652 913.215 279.75 916.484 286.212 917.741 288.697 918.781 295.47 918.796 301.262 918.818 310.511 918.179 312.438 913.539 317.077 907.909 322.708 903.86 323.517 898.037 320.178ZM898.037 229.805C891.491 226.051 890.018 222.301 890.018 209.395 890.018 195.553 891.841 191.651 899.706 188.661 905.973 186.279 913.215 189.377 916.484 195.839 917.741 198.324 918.781 205.097 918.796 210.889 918.818 220.138 918.179 222.065 913.539 226.704 907.909 232.335 903.86 233.144 898.037 229.805Z" fill="#003C84" transform="matrix(1 0 0 1.0007 1341.7 399.415)"/></g></g></g></g></svg>