<svg width="1506" height="1544" xmlns="http://www.w3.org/2000/svg" xmlns:xlink="http://www.w3.org/1999/xlink" xml:space="preserve" overflow="hidden"><g transform="translate(-1167 -394)"><path d="M1451.5 626.336C1451.5 531.434 1528.43 454.5 1623.34 454.5L2310.66 454.5C2405.57 454.5 2482.5 531.434 2482.5 626.336L2482.5 1751.66C2482.5 1846.57 2405.57 1923.5 2310.66 1923.5L1623.34 1923.5C1528.43 1923.5 1451.5 1846.57 1451.5 1751.66Z" stroke="#003C84" stroke-width="28.6458" stroke-miterlimit="8" fill="#FFFFFF" fill-rule="evenodd"/><path d="M1475.77 476.092 1517.46 825.358 1195.79 709.689Z" stroke="#003C84" stroke-width="28.6458" stroke-miterlimit="8" fill="#FFFFFF" fill-rule="evenodd"/><path d="M1451.5 491.75C1451.5 537.728 1682.3 575 1967 575 2251.7 575 2482.5 537.728 2482.5 491.75L2482.5 991.25C2482.5 1037.23 2251.7 1074.5 1967 1074.5 1682.3 1074.5 1451.5 1037.23 1451.5 991.25Z" fill="#FFFFFF" fill-rule="evenodd"/><path d="M1451.5 491.75C1451.5 445.772 1682.3 408.5 1967 408.5 2251.7 408.5 2482.5 445.772 2482.5 491.75 2482.5 537.728 2251.7 575 1967 575 1682.3 575 1451.5 537.728 1451.5 491.75Z" fill="#FFFFFF" fill-rule="evenodd"/><path d="M2482.5 491.75C2482.5 537.728 2251.7 575 1967 575 1682.3 575 1451.5 537.728 1451.5 491.75 1451.5 445.772 1682.3 408.5 1967 408.5 2251.7 408.5 2482.5 445.772 2482.5 491.75L2482.5 991.25C2482.5 1037.23 2251.7 1074.5 1967 1074.5 1682.3 1074.5 1451.5 1037.23 1451.5 991.25L1451.5 491.75" stroke="#003C84" stroke-width="28.6458" stroke-miterlimit="8" fill="none" fill-rule="evenodd"/><rect x="1464" y="890" width="1004" height="425" fill="#83CBEB"/><path d="M1466 1065.17C1466 972.845 1540.84 898 1633.17 898L2301.83 898C2394.16 898 2469 972.845 2469 1065.17L2469 1742.83C2469 1835.16 2394.16 1910 2301.83 1910L1633.17 1910C1540.84 1910 1466 1835.16 1466 1742.83Z" fill="#83CBEB" fill-rule="evenodd"/><path d="M1794 1043C1794 1034.16 1801.16 1027 1810 1027 1818.84 1027 1826 1034.16 1826 1043 1826 1051.84 1818.84 1059 1810 1059 1801.16 1059 1794 1051.84 1794 1043Z" fill="#003C84" fill-rule="evenodd"/><path d="M1728 1145C1728 1136.16 1735.16 1129 1744 1129 1752.84 1129 1760 1136.16 1760 1145 1760 1153.84 1752.84 1161 1744 1161 1735.16 1161 1728 1153.84 1728 1145Z" fill="#003C84" fill-rule="evenodd"/><path d="M1833 1154C1833 1145.16 1840.16 1138 1849 1138 1857.84 1138 1865 1145.16 1865 1154 1865 1162.84 1857.84 1170 1849 1170 1840.16 1170 1833 1162.84 1833 1154Z" fill="#003C84" fill-rule="evenodd"/><path d="M1665 1073C1665 1064.16 1672.16 1057 1681 1057 1689.84 1057 1697 1064.16 1697 1073 1697 1081.84 1689.84 1089 1681 1089 1672.16 1089 1665 1081.84 1665 1073Z" fill="#003C84" fill-rule="evenodd"/><path d="M1728 1230.5C1728 1221.39 1735.16 1214 1744 1214 1752.84 1214 1760 1221.39 1760 1230.5 1760 1239.61 1752.84 1247 1744 1247 1735.16 1247 1728 1239.61 1728 1230.5Z" fill="#003C84" fill-rule="evenodd"/><path d="M1936.35 1292.4C1927.47 1293.6 1919.29 1287.36 1918.09 1278.48 1916.9 1269.59 1923.13 1261.41 1932.02 1260.21 1940.91 1259.02 1949.08 1265.25 1950.28 1274.14 1951.48 1283.03 1945.24 1291.21 1936.35 1292.4Z" fill="#003C84" fill-rule="evenodd"/><path d="M2041.11 1301.51C2032.23 1302.7 2024.05 1296.47 2022.85 1287.58 2021.65 1278.69 2027.89 1270.51 2036.78 1269.32 2045.67 1268.12 2053.84 1274.36 2055.04 1283.24 2056.24 1292.13 2050 1300.31 2041.11 1301.51Z" fill="#003C84" fill-rule="evenodd"/><path d="M2111.76 1260.59C2102.87 1261.79 2094.69 1255.56 2093.5 1246.67 2092.3 1237.78 2098.53 1229.6 2107.42 1228.4 2116.31 1227.21 2124.49 1233.44 2125.69 1242.33 2126.88 1251.22 2120.65 1259.4 2111.76 1260.59Z" fill="#003C84" fill-rule="evenodd"/><path d="M2024.87 1387.02C2015.98 1388.21 2007.81 1381.98 2006.61 1373.09 2005.41 1364.2 2011.65 1356.02 2020.54 1354.83 2029.43 1353.63 2037.6 1359.87 2038.8 1368.75 2040 1377.64 2033.76 1385.82 2024.87 1387.02Z" fill="#003C84" fill-rule="evenodd"/><path d="M1873.27 1220.35C1864.38 1221.55 1856.21 1215.31 1855.01 1206.42 1853.81 1197.53 1860.05 1189.36 1868.94 1188.16 1877.82 1186.96 1886 1193.2 1887.2 1202.09 1888.39 1210.98 1882.16 1219.15 1873.27 1220.35Z" fill="#003C84" fill-rule="evenodd"/><path d="M1984.22 1452.6C1975.33 1453.8 1967.15 1447.57 1965.96 1438.68 1964.76 1429.79 1971 1421.61 1979.88 1420.41 1988.77 1419.22 1996.95 1425.45 1998.15 1434.34 1999.34 1443.23 1993.11 1451.41 1984.22 1452.6Z" fill="#003C84" fill-rule="evenodd"/><path d="M1703 1255.5C1703 1246.39 1710.16 1239 1719 1239 1727.84 1239 1735 1246.39 1735 1255.5 1735 1264.61 1727.84 1272 1719 1272 1710.16 1272 1703 1264.61 1703 1255.5Z" fill="#003C84" fill-rule="evenodd"/><path d="M1812 1326C1812 1317.16 1819.39 1310 1828.5 1310 1837.61 1310 1845 1317.16 1845 1326 1845 1334.84 1837.61 1342 1828.5 1342 1819.39 1342 1812 1334.84 1812 1326Z" fill="#003C84" fill-rule="evenodd"/><path d="M1725 1452.5C1725 1443.39 1732.39 1436 1741.5 1436 1750.61 1436 1758 1443.39 1758 1452.5 1758 1461.61 1750.61 1469 1741.5 1469 1732.39 1469 1725 1461.61 1725 1452.5Z" fill="#003C84" fill-rule="evenodd"/><path d="M1685 1518C1685 1509.16 1692.16 1502 1701 1502 1709.84 1502 1717 1509.16 1717 1518 1717 1526.84 1709.84 1534 1701 1534 1692.16 1534 1685 1526.84 1685 1518Z" fill="#003C84" fill-rule="evenodd"/><path d="M1637 1443C1637 1434.16 1644.16 1427 1653 1427 1661.84 1427 1669 1434.16 1669 1443 1669 1451.84 1661.84 1459 1653 1459 1644.16 1459 1637 1451.84 1637 1443Z" fill="#003C84" fill-rule="evenodd"/><path d="M1849 1098C1849 1089.16 1856.16 1082 1865 1082 1873.84 1082 1881 1089.16 1881 1098 1881 1106.84 1873.84 1114 1865 1114 1856.16 1114 1849 1106.84 1849 1098Z" fill="#003C84" fill-rule="evenodd"/><path d="M1888 1209C1888 1200.16 1895.16 1193 1904 1193 1912.84 1193 1920 1200.16 1920 1209 1920 1217.84 1912.84 1225 1904 1225 1895.16 1225 1888 1217.84 1888 1209Z" fill="#003C84" fill-rule="evenodd"/><path d="M1958 1168C1958 1159.16 1965.39 1152 1974.5 1152 1983.61 1152 1991 1159.16 1991 1168 1991 1176.84 1983.61 1184 1974.5 1184 1965.39 1184 1958 1176.84 1958 1168Z" fill="#003C84" fill-rule="evenodd"/><path d="M1871 1294.5C1871 1285.39 1878.39 1278 1887.5 1278 1896.61 1278 1904 1285.39 1904 1294.5 1904 1303.61 1896.61 1311 1887.5 1311 1878.39 1311 1871 1303.61 1871 1294.5Z" fill="#003C84" fill-rule="evenodd"/><path d="M1831 1360C1831 1351.16 1838.16 1344 1847 1344 1855.84 1344 1863 1351.16 1863 1360 1863 1368.84 1855.84 1376 1847 1376 1838.16 1376 1831 1368.84 1831 1360Z" fill="#003C84" fill-rule="evenodd"/><path d="M1783 1285.5C1783 1276.39 1790.16 1269 1799 1269 1807.84 1269 1815 1276.39 1815 1285.5 1815 1294.61 1807.84 1302 1799 1302 1790.16 1302 1783 1294.61 1783 1285.5Z" fill="#003C84" fill-rule="evenodd"/><path d="M2266 944C2266 935.164 2273.16 928 2282 928 2290.84 928 2298 935.164 2298 944 2298 952.837 2290.84 960 2282 960 2273.16 960 2266 952.837 2266 944Z" fill="#003C84" fill-rule="evenodd"/><path d="M2200 1046C2200 1037.16 2207.16 1030 2216 1030 2224.84 1030 2232 1037.16 2232 1046 2232 1054.84 2224.84 1062 2216 1062 2207.16 1062 2200 1054.84 2200 1046Z" fill="#003C84" fill-rule="evenodd"/><path d="M2305 1055C2305 1046.16 2312.16 1039 2321 1039 2329.84 1039 2337 1046.16 2337 1055 2337 1063.84 2329.84 1071 2321 1071 2312.16 1071 2305 1063.84 2305 1055Z" fill="#003C84" fill-rule="evenodd"/><path d="M2375 1014.5C2375 1005.39 2382.39 998 2391.5 998 2400.61 998 2408 1005.39 2408 1014.5 2408 1023.61 2400.61 1031 2391.5 1031 2382.39 1031 2375 1023.61 2375 1014.5Z" fill="#003C84" fill-rule="evenodd"/><path d="M2288 1140.5C2288 1131.39 2295.39 1124 2304.5 1124 2313.61 1124 2321 1131.39 2321 1140.5 2321 1149.61 2313.61 1157 2304.5 1157 2295.39 1157 2288 1149.61 2288 1140.5Z" fill="#003C84" fill-rule="evenodd"/><path d="M2137 974C2137 965.164 2144.16 958 2153 958 2161.84 958 2169 965.164 2169 974 2169 982.837 2161.84 990 2153 990 2144.16 990 2137 982.837 2137 974Z" fill="#003C84" fill-rule="evenodd"/><path d="M2248 1206.5C2248 1197.39 2255.16 1190 2264 1190 2272.84 1190 2280 1197.39 2280 1206.5 2280 1215.61 2272.84 1223 2264 1223 2255.16 1223 2248 1215.61 2248 1206.5Z" fill="#003C84" fill-rule="evenodd"/><path d="M2200 1131.5C2200 1122.39 2207.16 1115 2216 1115 2224.84 1115 2232 1122.39 2232 1131.5 2232 1140.61 2224.84 1148 2216 1148 2207.16 1148 2200 1140.61 2200 1131.5Z" fill="#003C84" fill-rule="evenodd"/><path d="M2274 1354.5C2274 1345.39 2281.39 1338 2290.5 1338 2299.61 1338 2307 1345.39 2307 1354.5 2307 1363.61 2299.61 1371 2290.5 1371 2281.39 1371 2274 1363.61 2274 1354.5Z" fill="#003C84" fill-rule="evenodd"/><path d="M2208 1456.5C2208 1447.39 2215.39 1440 2224.5 1440 2233.61 1440 2241 1447.39 2241 1456.5 2241 1465.61 2233.61 1473 2224.5 1473 2215.39 1473 2208 1465.61 2208 1456.5Z" fill="#003C84" fill-rule="evenodd"/><path d="M2313 1466C2313 1457.16 2320.16 1450 2329 1450 2337.84 1450 2345 1457.16 2345 1466 2345 1474.84 2337.84 1482 2329 1482 2320.16 1482 2313 1474.84 2313 1466Z" fill="#003C84" fill-rule="evenodd"/><path d="M2384 1425C2384 1416.16 2391.16 1409 2400 1409 2408.84 1409 2416 1416.16 2416 1425 2416 1433.84 2408.84 1441 2400 1441 2391.16 1441 2384 1433.84 2384 1425Z" fill="#003C84" fill-rule="evenodd"/><path d="M2297 1551.5C2297 1542.39 2304.16 1535 2313 1535 2321.84 1535 2329 1542.39 2329 1551.5 2329 1560.61 2321.84 1568 2313 1568 2304.16 1568 2297 1560.61 2297 1551.5Z" fill="#003C84" fill-rule="evenodd"/><path d="M2145 1384.5C2145 1375.39 2152.39 1368 2161.5 1368 2170.61 1368 2178 1375.39 2178 1384.5 2178 1393.61 2170.61 1401 2161.5 1401 2152.39 1401 2145 1393.61 2145 1384.5Z" fill="#003C84" fill-rule="evenodd"/><path d="M2256 1617C2256 1608.16 2263.39 1601 2272.5 1601 2281.61 1601 2289 1608.16 2289 1617 2289 1625.84 2281.61 1633 2272.5 1633 2263.39 1633 2256 1625.84 2256 1617Z" fill="#003C84" fill-rule="evenodd"/><path d="M2208 1542C2208 1533.16 2215.39 1526 2224.5 1526 2233.61 1526 2241 1533.16 2241 1542 2241 1550.84 2233.61 1558 2224.5 1558 2215.39 1558 2208 1550.84 2208 1542Z" fill="#003C84" fill-rule="evenodd"/><path d="M2036 1490.5C2036 1481.39 2043.16 1474 2052 1474 2060.84 1474 2068 1481.39 2068 1490.5 2068 1499.61 2060.84 1507 2052 1507 2043.16 1507 2036 1499.61 2036 1490.5Z" fill="#003C84" fill-rule="evenodd"/><path d="M1970 1592.5C1970 1583.39 1977.16 1576 1986 1576 1994.84 1576 2002 1583.39 2002 1592.5 2002 1601.61 1994.84 1609 1986 1609 1977.16 1609 1970 1601.61 1970 1592.5Z" fill="#003C84" fill-rule="evenodd"/><path d="M2074 1602C2074 1593.16 2081.39 1586 2090.5 1586 2099.61 1586 2107 1593.16 2107 1602 2107 1610.84 2099.61 1618 2090.5 1618 2081.39 1618 2074 1610.84 2074 1602Z" fill="#003C84" fill-rule="evenodd"/><path d="M2145 1561C2145 1552.16 2152.39 1545 2161.5 1545 2170.61 1545 2178 1552.16 2178 1561 2178 1569.84 2170.61 1577 2161.5 1577 2152.39 1577 2145 1569.84 2145 1561Z" fill="#003C84" fill-rule="evenodd"/><path d="M1907 1520.5C1907 1511.39 1914.16 1504 1923 1504 1931.84 1504 1939 1511.39 1939 1520.5 1939 1529.61 1931.84 1537 1923 1537 1914.16 1537 1907 1529.61 1907 1520.5Z" fill="#003C84" fill-rule="evenodd"/><path d="M1978 1682.5C1978 1673.39 1985.16 1666 1994 1666 2002.84 1666 2010 1673.39 2010 1682.5 2010 1691.61 2002.84 1699 1994 1699 1985.16 1699 1978 1691.61 1978 1682.5Z" fill="#003C84" fill-rule="evenodd"/><path d="M1776 1556C1776 1547.16 1783.16 1540 1792 1540 1800.84 1540 1808 1547.16 1808 1556 1808 1564.84 1800.84 1572 1792 1572 1783.16 1572 1776 1564.84 1776 1556Z" fill="#003C84" fill-rule="evenodd"/><path d="M1710 1658C1710 1649.16 1717.16 1642 1726 1642 1734.84 1642 1742 1649.16 1742 1658 1742 1666.84 1734.84 1674 1726 1674 1717.16 1674 1710 1666.84 1710 1658Z" fill="#003C84" fill-rule="evenodd"/><path d="M1820 1679.5C1820 1670.39 1827.39 1663 1836.5 1663 1845.61 1663 1853 1670.39 1853 1679.5 1853 1688.61 1845.61 1696 1836.5 1696 1827.39 1696 1820 1688.61 1820 1679.5Z" fill="#003C84" fill-rule="evenodd"/><path d="M1885 1626C1885 1617.16 1892.39 1610 1901.5 1610 1910.61 1610 1918 1617.16 1918 1626 1918 1634.84 1910.61 1642 1901.5 1642 1892.39 1642 1885 1634.84 1885 1626Z" fill="#003C84" fill-rule="evenodd"/><path d="M1798 1752.5C1798 1743.39 1805.39 1736 1814.5 1736 1823.61 1736 1831 1743.39 1831 1752.5 1831 1761.61 1823.61 1769 1814.5 1769 1805.39 1769 1798 1761.61 1798 1752.5Z" fill="#003C84" fill-rule="evenodd"/><path d="M1647 1586C1647 1577.16 1654.16 1570 1663 1570 1671.84 1570 1679 1577.16 1679 1586 1679 1594.84 1671.84 1602 1663 1602 1654.16 1602 1647 1594.84 1647 1586Z" fill="#003C84" fill-rule="evenodd"/><path d="M1758 1818C1758 1809.16 1765.16 1802 1774 1802 1782.84 1802 1790 1809.16 1790 1818 1790 1826.84 1782.84 1834 1774 1834 1765.16 1834 1758 1826.84 1758 1818Z" fill="#003C84" fill-rule="evenodd"/><path d="M1710 1743.5C1710 1734.39 1717.16 1727 1726 1727 1734.84 1727 1742 1734.39 1742 1743.5 1742 1752.61 1734.84 1760 1726 1760 1717.16 1760 1710 1752.61 1710 1743.5Z" fill="#003C84" fill-rule="evenodd"/><path d="M1977 962C1977 953.163 1984.39 946 1993.5 946 2002.61 946 2010 953.163 2010 962 2010 970.837 2002.61 978 1993.5 978 1984.39 978 1977 970.837 1977 962Z" fill="#003C84" fill-rule="evenodd"/><path d="M1911 1064C1911 1055.16 1918.39 1048 1927.5 1048 1936.61 1048 1944 1055.16 1944 1064 1944 1072.84 1936.61 1080 1927.5 1080 1918.39 1080 1911 1072.84 1911 1064Z" fill="#003C84" fill-rule="evenodd"/><path d="M2016 1073C2016 1064.16 2023.39 1057 2032.5 1057 2041.61 1057 2049 1064.16 2049 1073 2049 1081.84 2041.61 1089 2032.5 1089 2023.39 1089 2016 1081.84 2016 1073Z" fill="#003C84" fill-rule="evenodd"/><path d="M2087 1032C2087 1023.16 2094.16 1016 2103 1016 2111.84 1016 2119 1023.16 2119 1032 2119 1040.84 2111.84 1048 2103 1048 2094.16 1048 2087 1040.84 2087 1032Z" fill="#003C84" fill-rule="evenodd"/><path d="M2000 1158.5C2000 1149.39 2007.16 1142 2016 1142 2024.84 1142 2032 1149.39 2032 1158.5 2032 1167.61 2024.84 1175 2016 1175 2007.16 1175 2000 1167.61 2000 1158.5Z" fill="#003C84" fill-rule="evenodd"/><path d="M1848 992C1848 983.163 1855.39 976 1864.5 976 1873.61 976 1881 983.163 1881 992 1881 1000.84 1873.61 1008 1864.5 1008 1855.39 1008 1848 1000.84 1848 992Z" fill="#003C84" fill-rule="evenodd"/><path d="M1911 1149.5C1911 1140.39 1918.39 1133 1927.5 1133 1936.61 1133 1944 1140.39 1944 1149.5 1944 1158.61 1936.61 1166 1927.5 1166 1918.39 1166 1911 1158.61 1911 1149.5Z" fill="#003C84" fill-rule="evenodd"/><path d="M1640 973.5C1640 964.387 1647.16 957 1656 957 1664.84 957 1672 964.387 1672 973.5 1672 982.613 1664.84 990 1656 990 1647.16 990 1640 982.613 1640 973.5Z" fill="#003C84" fill-rule="evenodd"/><path d="M1574 1075.5C1574 1066.39 1581.16 1059 1590 1059 1598.84 1059 1606 1066.39 1606 1075.5 1606 1084.61 1598.84 1092 1590 1092 1581.16 1092 1574 1084.61 1574 1075.5Z" fill="#003C84" fill-rule="evenodd"/><path d="M1749 1044C1749 1035.16 1756.39 1028 1765.5 1028 1774.61 1028 1782 1035.16 1782 1044 1782 1052.84 1774.61 1060 1765.5 1060 1756.39 1060 1749 1052.84 1749 1044Z" fill="#003C84" fill-rule="evenodd"/><path d="M1663 1170.5C1663 1161.39 1670.16 1154 1679 1154 1687.84 1154 1695 1161.39 1695 1170.5 1695 1179.61 1687.84 1187 1679 1187 1670.16 1187 1663 1179.61 1663 1170.5Z" fill="#003C84" fill-rule="evenodd"/><path d="M1511 1003.5C1511 994.387 1518.16 987 1527 987 1535.84 987 1543 994.387 1543 1003.5 1543 1012.61 1535.84 1020 1527 1020 1518.16 1020 1511 1012.61 1511 1003.5Z" fill="#003C84" fill-rule="evenodd"/><path d="M1622 1236C1622 1227.16 1629.16 1220 1638 1220 1646.84 1220 1654 1227.16 1654 1236 1654 1244.84 1646.84 1252 1638 1252 1629.16 1252 1622 1244.84 1622 1236Z" fill="#003C84" fill-rule="evenodd"/><path d="M1574 1161C1574 1152.16 1581.16 1145 1590 1145 1598.84 1145 1606 1152.16 1606 1161 1606 1169.84 1598.84 1177 1590 1177 1581.16 1177 1574 1169.84 1574 1161Z" fill="#003C84" fill-rule="evenodd"/><path d="M1596 1604C1596 1595.16 1603.16 1588 1612 1588 1620.84 1588 1628 1595.16 1628 1604 1628 1612.84 1620.84 1620 1612 1620 1603.16 1620 1596 1612.84 1596 1604Z" fill="#003C84" fill-rule="evenodd"/><path d="M1701 1613C1701 1604.16 1708.16 1597 1717 1597 1725.84 1597 1733 1604.16 1733 1613 1733 1621.84 1725.84 1629 1717 1629 1708.16 1629 1701 1621.84 1701 1613Z" fill="#003C84" fill-rule="evenodd"/><path d="M1533 1532C1533 1523.16 1540.16 1516 1549 1516 1557.84 1516 1565 1523.16 1565 1532 1565 1540.84 1557.84 1548 1549 1548 1540.16 1548 1533 1540.84 1533 1532Z" fill="#003C84" fill-rule="evenodd"/><path d="M1644 1764C1644 1755.16 1651.16 1748 1660 1748 1668.84 1748 1676 1755.16 1676 1764 1676 1772.84 1668.84 1780 1660 1780 1651.16 1780 1644 1772.84 1644 1764Z" fill="#003C84" fill-rule="evenodd"/><path d="M1596 1689.5C1596 1680.39 1603.16 1673 1612 1673 1620.84 1673 1628 1680.39 1628 1689.5 1628 1698.61 1620.84 1706 1612 1706 1603.16 1706 1596 1698.61 1596 1689.5Z" fill="#003C84" fill-rule="evenodd"/><path d="M2335 1594C2335 1585.16 2342.39 1578 2351.5 1578 2360.61 1578 2368 1585.16 2368 1594 2368 1602.84 2360.61 1610 2351.5 1610 2342.39 1610 2335 1602.84 2335 1594Z" fill="#003C84" fill-rule="evenodd"/><path d="M2239 1732C2239 1723.16 2246.16 1716 2255 1716 2263.84 1716 2271 1723.16 2271 1732 2271 1740.84 2263.84 1748 2255 1748 2246.16 1748 2239 1740.84 2239 1732Z" fill="#003C84" fill-rule="evenodd"/><path d="M2374 1705C2374 1696.16 2381.16 1689 2390 1689 2398.84 1689 2406 1696.16 2406 1705 2406 1713.84 2398.84 1721 2390 1721 2381.16 1721 2374 1713.84 2374 1705Z" fill="#003C84" fill-rule="evenodd"/><path d="M2445 1664.5C2445 1655.39 2452.16 1648 2461 1648 2469.84 1648 2477 1655.39 2477 1664.5 2477 1673.61 2469.84 1681 2461 1681 2452.16 1681 2445 1673.61 2445 1664.5Z" fill="#003C84" fill-rule="evenodd"/><path d="M2358 1790.5C2358 1781.39 2365.16 1774 2374 1774 2382.84 1774 2390 1781.39 2390 1790.5 2390 1799.61 2382.84 1807 2374 1807 2365.16 1807 2358 1799.61 2358 1790.5Z" fill="#003C84" fill-rule="evenodd"/><path d="M2206 1624C2206 1615.16 2213.39 1608 2222.5 1608 2231.61 1608 2239 1615.16 2239 1624 2239 1632.84 2231.61 1640 2222.5 1640 2213.39 1640 2206 1632.84 2206 1624Z" fill="#003C84" fill-rule="evenodd"/><path d="M2317 1856.5C2317 1847.39 2324.39 1840 2333.5 1840 2342.61 1840 2350 1847.39 2350 1856.5 2350 1865.61 2342.61 1873 2333.5 1873 2324.39 1873 2317 1865.61 2317 1856.5Z" fill="#003C84" fill-rule="evenodd"/><path d="M2269 1781.5C2269 1772.39 2276.39 1765 2285.5 1765 2294.61 1765 2302 1772.39 2302 1781.5 2302 1790.61 2294.61 1798 2285.5 1798 2276.39 1798 2269 1790.61 2269 1781.5Z" fill="#003C84" fill-rule="evenodd"/><path d="M2135 1604C2135 1595.16 2142.16 1588 2151 1588 2159.84 1588 2167 1595.16 2167 1604 2167 1612.84 2159.84 1620 2151 1620 2142.16 1620 2135 1612.84 2135 1604Z" fill="#003C84" fill-rule="evenodd"/><path d="M2069 1706C2069 1697.16 2076.16 1690 2085 1690 2093.84 1690 2101 1697.16 2101 1706 2101 1714.84 2093.84 1722 2085 1722 2076.16 1722 2069 1714.84 2069 1706Z" fill="#003C84" fill-rule="evenodd"/><path d="M2173 1715C2173 1706.16 2180.39 1699 2189.5 1699 2198.61 1699 2206 1706.16 2206 1715 2206 1723.84 2198.61 1731 2189.5 1731 2180.39 1731 2173 1723.84 2173 1715Z" fill="#003C84" fill-rule="evenodd"/><path d="M2244 1674C2244 1665.16 2251.16 1658 2260 1658 2268.84 1658 2276 1665.16 2276 1674 2276 1682.84 2268.84 1690 2260 1690 2251.16 1690 2244 1682.84 2244 1674Z" fill="#003C84" fill-rule="evenodd"/><path d="M2157 1800.5C2157 1791.39 2164.39 1784 2173.5 1784 2182.61 1784 2190 1791.39 2190 1800.5 2190 1809.61 2182.61 1817 2173.5 1817 2164.39 1817 2157 1809.61 2157 1800.5Z" fill="#003C84" fill-rule="evenodd"/><path d="M2005 1634C2005 1625.16 2012.39 1618 2021.5 1618 2030.61 1618 2038 1625.16 2038 1634 2038 1642.84 2030.61 1650 2021.5 1650 2012.39 1650 2005 1642.84 2005 1634Z" fill="#003C84" fill-rule="evenodd"/><path d="M2116 1866C2116 1857.16 2123.39 1850 2132.5 1850 2141.61 1850 2149 1857.16 2149 1866 2149 1874.84 2141.61 1882 2132.5 1882 2123.39 1882 2116 1874.84 2116 1866Z" fill="#003C84" fill-rule="evenodd"/><path d="M2069 1791.5C2069 1782.39 2076.16 1775 2085 1775 2093.84 1775 2101 1782.39 2101 1791.5 2101 1800.61 2093.84 1808 2085 1808 2076.16 1808 2069 1800.61 2069 1791.5Z" fill="#003C84" fill-rule="evenodd"/><path d="M1856 1716.5C1856 1707.39 1863.16 1700 1872 1700 1880.84 1700 1888 1707.39 1888 1716.5 1888 1725.61 1880.84 1733 1872 1733 1863.16 1733 1856 1725.61 1856 1716.5Z" fill="#003C84" fill-rule="evenodd"/><path d="M1961 1725.5C1961 1716.39 1968.16 1709 1977 1709 1985.84 1709 1993 1716.39 1993 1725.5 1993 1734.61 1985.84 1742 1977 1742 1968.16 1742 1961 1734.61 1961 1725.5Z" fill="#003C84" fill-rule="evenodd"/><path d="M2031 1685C2031 1676.16 2038.39 1669 2047.5 1669 2056.61 1669 2064 1676.16 2064 1685 2064 1693.84 2056.61 1701 2047.5 1701 2038.39 1701 2031 1693.84 2031 1685Z" fill="#003C84" fill-rule="evenodd"/><path d="M1944 1811C1944 1802.16 1951.39 1795 1960.5 1795 1969.61 1795 1977 1802.16 1977 1811 1977 1819.84 1969.61 1827 1960.5 1827 1951.39 1827 1944 1819.84 1944 1811Z" fill="#003C84" fill-rule="evenodd"/><path d="M1793 1644.5C1793 1635.39 1800.16 1628 1809 1628 1817.84 1628 1825 1635.39 1825 1644.5 1825 1653.61 1817.84 1661 1809 1661 1800.16 1661 1793 1653.61 1793 1644.5Z" fill="#003C84" fill-rule="evenodd"/><path d="M1904 1877C1904 1868.16 1911.16 1861 1920 1861 1928.84 1861 1936 1868.16 1936 1877 1936 1885.84 1928.84 1893 1920 1893 1911.16 1893 1904 1885.84 1904 1877Z" fill="#003C84" fill-rule="evenodd"/><path d="M1856 1802C1856 1793.16 1863.16 1786 1872 1786 1880.84 1786 1888 1793.16 1888 1802 1888 1810.84 1880.84 1818 1872 1818 1863.16 1818 1856 1810.84 1856 1802Z" fill="#003C84" fill-rule="evenodd"/><path d="M2200 1322C2200 1313.16 2207.16 1306 2216 1306 2224.84 1306 2232 1313.16 2232 1322 2232 1330.84 2224.84 1338 2216 1338 2207.16 1338 2200 1330.84 2200 1322Z" fill="#003C84" fill-rule="evenodd"/><path d="M2113 1448C2113 1439.16 2120.16 1432 2129 1432 2137.84 1432 2145 1439.16 2145 1448 2145 1456.84 2137.84 1464 2129 1464 2120.16 1464 2113 1456.84 2113 1448Z" fill="#003C84" fill-rule="evenodd"/><path d="M1961 1281.5C1961 1272.39 1968.39 1265 1977.5 1265 1986.61 1265 1994 1272.39 1994 1281.5 1994 1290.61 1986.61 1298 1977.5 1298 1968.39 1298 1961 1290.61 1961 1281.5Z" fill="#003C84" fill-rule="evenodd"/><path d="M2072 1514C2072 1505.16 2079.39 1498 2088.5 1498 2097.61 1498 2105 1505.16 2105 1514 2105 1522.84 2097.61 1530 2088.5 1530 2079.39 1530 2072 1522.84 2072 1514Z" fill="#003C84" fill-rule="evenodd"/><path d="M2024 1439C2024 1430.16 2031.39 1423 2040.5 1423 2049.61 1423 2057 1430.16 2057 1439 2057 1447.84 2049.61 1455 2040.5 1455 2031.39 1455 2024 1447.84 2024 1439Z" fill="#003C84" fill-rule="evenodd"/><path d="M2013 1223C2013 1214.16 2020.39 1207 2029.5 1207 2038.61 1207 2046 1214.16 2046 1223 2046 1231.84 2038.61 1239 2029.5 1239 2020.39 1239 2013 1231.84 2013 1223Z" fill="#003C84" fill-rule="evenodd"/><path d="M1926 1349.5C1926 1340.39 1933.39 1333 1942.5 1333 1951.61 1333 1959 1340.39 1959 1349.5 1959 1358.61 1951.61 1366 1942.5 1366 1933.39 1366 1926 1358.61 1926 1349.5Z" fill="#003C84" fill-rule="evenodd"/><path d="M1775 1183C1775 1174.16 1782.16 1167 1791 1167 1799.84 1167 1807 1174.16 1807 1183 1807 1191.84 1799.84 1199 1791 1199 1782.16 1199 1775 1191.84 1775 1183Z" fill="#003C84" fill-rule="evenodd"/><path d="M2134 1174C2134 1165.16 2141.39 1158 2150.5 1158 2159.61 1158 2167 1165.16 2167 1174 2167 1182.84 2159.61 1190 2150.5 1190 2141.39 1190 2134 1182.84 2134 1174Z" fill="#003C84" fill-rule="evenodd"/><path d="M2223 1269C2223 1260.16 2230.16 1253 2239 1253 2247.84 1253 2255 1260.16 2255 1269 2255 1277.84 2247.84 1285 2239 1285 2230.16 1285 2223 1277.84 2223 1269Z" fill="#003C84" fill-rule="evenodd"/><path d="M2071 1102C2071 1093.16 2078.39 1086 2087.5 1086 2096.61 1086 2104 1093.16 2104 1102 2104 1110.84 2096.61 1118 2087.5 1118 2078.39 1118 2071 1110.84 2071 1102Z" fill="#003C84" fill-rule="evenodd"/><path d="M2134 1259.5C2134 1250.39 2141.39 1243 2150.5 1243 2159.61 1243 2167 1250.39 2167 1259.5 2167 1268.61 2159.61 1276 2150.5 1276 2141.39 1276 2134 1268.61 2134 1259.5Z" fill="#003C84" fill-rule="evenodd"/><path d="M2322 1190C2322 1181.16 2329.16 1174 2338 1174 2346.84 1174 2354 1181.16 2354 1190 2354 1198.84 2346.84 1206 2338 1206 2329.16 1206 2322 1198.84 2322 1190Z" fill="#003C84" fill-rule="evenodd"/><path d="M2256 1292C2256 1283.16 2263.16 1276 2272 1276 2280.84 1276 2288 1283.16 2288 1292 2288 1300.84 2280.84 1308 2272 1308 2263.16 1308 2256 1300.84 2256 1292Z" fill="#003C84" fill-rule="evenodd"/><path d="M2360 1301C2360 1292.16 2367.39 1285 2376.5 1285 2385.61 1285 2393 1292.16 2393 1301 2393 1309.84 2385.61 1317 2376.5 1317 2367.39 1317 2360 1309.84 2360 1301Z" fill="#003C84" fill-rule="evenodd"/><path d="M2431 1260C2431 1251.16 2438.16 1244 2447 1244 2455.84 1244 2463 1251.16 2463 1260 2463 1268.84 2455.84 1276 2447 1276 2438.16 1276 2431 1268.84 2431 1260Z" fill="#003C84" fill-rule="evenodd"/><path d="M2344 1386.5C2344 1377.39 2351.39 1370 2360.5 1370 2369.61 1370 2377 1377.39 2377 1386.5 2377 1395.61 2369.61 1403 2360.5 1403 2351.39 1403 2344 1395.61 2344 1386.5Z" fill="#003C84" fill-rule="evenodd"/><path d="M2193 1220C2193 1211.16 2200.16 1204 2209 1204 2217.84 1204 2225 1211.16 2225 1220 2225 1228.84 2217.84 1236 2209 1236 2200.16 1236 2193 1228.84 2193 1220Z" fill="#003C84" fill-rule="evenodd"/><path d="M2256 1377.5C2256 1368.39 2263.16 1361 2272 1361 2280.84 1361 2288 1368.39 2288 1377.5 2288 1386.61 2280.84 1394 2272 1394 2263.16 1394 2256 1386.61 2256 1377.5Z" fill="#003C84" fill-rule="evenodd"/><path d="M1544 1283.5C1544 1274.39 1551.39 1267 1560.5 1267 1569.61 1267 1577 1274.39 1577 1283.5 1577 1292.61 1569.61 1300 1560.5 1300 1551.39 1300 1544 1292.61 1544 1283.5Z" fill="#003C84" fill-rule="evenodd"/><path d="M1649 1293C1649 1284.16 1656.39 1277 1665.5 1277 1674.61 1277 1682 1284.16 1682 1293 1682 1301.84 1674.61 1309 1665.5 1309 1656.39 1309 1649 1301.84 1649 1293Z" fill="#003C84" fill-rule="evenodd"/><path d="M1633 1378.5C1633 1369.39 1640.16 1362 1649 1362 1657.84 1362 1665 1369.39 1665 1378.5 1665 1387.61 1657.84 1395 1649 1395 1640.16 1395 1633 1387.61 1633 1378.5Z" fill="#003C84" fill-rule="evenodd"/><path d="M1481 1211.5C1481 1202.39 1488.39 1195 1497.5 1195 1506.61 1195 1514 1202.39 1514 1211.5 1514 1220.61 1506.61 1228 1497.5 1228 1488.39 1228 1481 1220.61 1481 1211.5Z" fill="#003C84" fill-rule="evenodd"/><path d="M1592 1444C1592 1435.16 1599.39 1428 1608.5 1428 1617.61 1428 1625 1435.16 1625 1444 1625 1452.84 1617.61 1460 1608.5 1460 1599.39 1460 1592 1452.84 1592 1444Z" fill="#003C84" fill-rule="evenodd"/><path d="M1544 1369C1544 1360.16 1551.39 1353 1560.5 1353 1569.61 1353 1577 1360.16 1577 1369 1577 1377.84 1569.61 1385 1560.5 1385 1551.39 1385 1544 1377.84 1544 1369Z" fill="#003C84" fill-rule="evenodd"/><path d="M1838 1500.5C1838 1491.39 1845.39 1484 1854.5 1484 1863.61 1484 1871 1491.39 1871 1500.5 1871 1509.61 1863.61 1517 1854.5 1517 1845.39 1517 1838 1509.61 1838 1500.5Z" fill="#003C84" fill-rule="evenodd"/><path d="M1943 1509.5C1943 1500.39 1950.16 1493 1959 1493 1967.84 1493 1975 1500.39 1975 1509.5 1975 1518.61 1967.84 1526 1959 1526 1950.16 1526 1943 1518.61 1943 1509.5Z" fill="#003C84" fill-rule="evenodd"/><path d="M1927 1595C1927 1586.16 1934.16 1579 1943 1579 1951.84 1579 1959 1586.16 1959 1595 1959 1603.84 1951.84 1611 1943 1611 1934.16 1611 1927 1603.84 1927 1595Z" fill="#003C84" fill-rule="evenodd"/><path d="M1775 1428.5C1775 1419.39 1782.39 1412 1791.5 1412 1800.61 1412 1808 1419.39 1808 1428.5 1808 1437.61 1800.61 1445 1791.5 1445 1782.39 1445 1775 1437.61 1775 1428.5Z" fill="#003C84" fill-rule="evenodd"/><path d="M1886 1661C1886 1652.16 1893.39 1645 1902.5 1645 1911.61 1645 1919 1652.16 1919 1661 1919 1669.84 1911.61 1677 1902.5 1677 1893.39 1677 1886 1669.84 1886 1661Z" fill="#003C84" fill-rule="evenodd"/><path d="M1838 1586C1838 1577.16 1845.39 1570 1854.5 1570 1863.61 1570 1871 1577.16 1871 1586 1871 1594.84 1863.61 1602 1854.5 1602 1845.39 1602 1838 1594.84 1838 1586Z" fill="#003C84" fill-rule="evenodd"/><path d="M1556 1699C1556 1690.16 1563.39 1683 1572.5 1683 1581.61 1683 1589 1690.16 1589 1699 1589 1707.84 1581.61 1715 1572.5 1715 1563.39 1715 1556 1707.84 1556 1699Z" fill="#003C84" fill-rule="evenodd"/><path d="M1661 1708C1661 1699.16 1668.39 1692 1677.5 1692 1686.61 1692 1694 1699.16 1694 1708 1694 1716.84 1686.61 1724 1677.5 1724 1668.39 1724 1661 1716.84 1661 1708Z" fill="#003C84" fill-rule="evenodd"/><path d="M1493 1627C1493 1618.16 1500.39 1611 1509.5 1611 1518.61 1611 1526 1618.16 1526 1627 1526 1635.84 1518.61 1643 1509.5 1643 1500.39 1643 1493 1635.84 1493 1627Z" fill="#003C84" fill-rule="evenodd"/><path d="M1604 1859C1604 1850.16 1611.39 1843 1620.5 1843 1629.61 1843 1637 1850.16 1637 1859 1637 1867.84 1629.61 1875 1620.5 1875 1611.39 1875 1604 1867.84 1604 1859Z" fill="#003C84" fill-rule="evenodd"/><path d="M1556 1784.5C1556 1775.39 1563.39 1768 1572.5 1768 1581.61 1768 1589 1775.39 1589 1784.5 1589 1793.61 1581.61 1801 1572.5 1801 1563.39 1801 1556 1793.61 1556 1784.5Z" fill="#003C84" fill-rule="evenodd"/><path d="M1959 1208C1959 1199.16 1966.16 1192 1975 1192 1983.84 1192 1991 1199.16 1991 1208 1991 1216.84 1983.84 1224 1975 1224 1966.16 1224 1959 1216.84 1959 1208Z" fill="#003C84" fill-rule="evenodd"/><path d="M1998 1319C1998 1310.16 2005.16 1303 2014 1303 2022.84 1303 2030 1310.16 2030 1319 2030 1327.84 2022.84 1335 2014 1335 2005.16 1335 1998 1327.84 1998 1319Z" fill="#003C84" fill-rule="evenodd"/><path d="M2068 1278C2068 1269.16 2075.39 1262 2084.5 1262 2093.61 1262 2101 1269.16 2101 1278 2101 1286.84 2093.61 1294 2084.5 1294 2075.39 1294 2068 1286.84 2068 1278Z" fill="#003C84" fill-rule="evenodd"/><path d="M1981 1404.5C1981 1395.39 1988.39 1388 1997.5 1388 2006.61 1388 2014 1395.39 2014 1404.5 2014 1413.61 2006.61 1421 1997.5 1421 1988.39 1421 1981 1413.61 1981 1404.5Z" fill="#003C84" fill-rule="evenodd"/><path d="M1830 1238C1830 1229.16 1837.16 1222 1846 1222 1854.84 1222 1862 1229.16 1862 1238 1862 1246.84 1854.84 1254 1846 1254 1837.16 1254 1830 1246.84 1830 1238Z" fill="#003C84" fill-rule="evenodd"/><path d="M1941 1470C1941 1461.16 1948.16 1454 1957 1454 1965.84 1454 1973 1461.16 1973 1470 1973 1478.84 1965.84 1486 1957 1486 1948.16 1486 1941 1478.84 1941 1470Z" fill="#003C84" fill-rule="evenodd"/><path d="M1893 1395.5C1893 1386.39 1900.16 1379 1909 1379 1917.84 1379 1925 1386.39 1925 1395.5 1925 1404.61 1917.84 1412 1909 1412 1900.16 1412 1893 1404.61 1893 1395.5Z" fill="#003C84" fill-rule="evenodd"/><path d="M1614 1307C1614 1298.16 1621.39 1291 1630.5 1291 1639.61 1291 1647 1298.16 1647 1307 1647 1315.84 1639.61 1323 1630.5 1323 1621.39 1323 1614 1315.84 1614 1307Z" fill="#003C84" fill-rule="evenodd"/><path d="M1548 1409C1548 1400.16 1555.39 1393 1564.5 1393 1573.61 1393 1581 1400.16 1581 1409 1581 1417.84 1573.61 1425 1564.5 1425 1555.39 1425 1548 1417.84 1548 1409Z" fill="#003C84" fill-rule="evenodd"/><path d="M1724 1377.5C1724 1368.39 1731.16 1361 1740 1361 1748.84 1361 1756 1368.39 1756 1377.5 1756 1386.61 1748.84 1394 1740 1394 1731.16 1394 1724 1386.61 1724 1377.5Z" fill="#003C84" fill-rule="evenodd"/><path d="M1637 1503.5C1637 1494.39 1644.16 1487 1653 1487 1661.84 1487 1669 1494.39 1669 1503.5 1669 1512.61 1661.84 1520 1653 1520 1644.16 1520 1637 1512.61 1637 1503.5Z" fill="#003C84" fill-rule="evenodd"/><path d="M1485 1337C1485 1328.16 1492.39 1321 1501.5 1321 1510.61 1321 1518 1328.16 1518 1337 1518 1345.84 1510.61 1353 1501.5 1353 1492.39 1353 1485 1345.84 1485 1337Z" fill="#003C84" fill-rule="evenodd"/><path d="M1596 1569.5C1596 1560.39 1603.39 1553 1612.5 1553 1621.61 1553 1629 1560.39 1629 1569.5 1629 1578.61 1621.61 1586 1612.5 1586 1603.39 1586 1596 1578.61 1596 1569.5Z" fill="#003C84" fill-rule="evenodd"/><path d="M1548 1494.5C1548 1485.39 1555.39 1478 1564.5 1478 1573.61 1478 1581 1485.39 1581 1494.5 1581 1503.61 1573.61 1511 1564.5 1511 1555.39 1511 1548 1503.61 1548 1494.5Z" fill="#003C84" fill-rule="evenodd"/><path d="M1977 914C1977 905.163 1984.39 898 1993.5 898 2002.61 898 2010 905.163 2010 914 2010 922.836 2002.61 930 1993.5 930 1984.39 930 1977 922.836 1977 914Z" fill="#003C84" fill-rule="evenodd"/><path d="M1911 1016C1911 1007.16 1918.39 1000 1927.5 1000 1936.61 1000 1944 1007.16 1944 1016 1944 1024.84 1936.61 1032 1927.5 1032 1918.39 1032 1911 1024.84 1911 1016Z" fill="#003C84" fill-rule="evenodd"/><path d="M2016 1025C2016 1016.16 2023.39 1009 2032.5 1009 2041.61 1009 2049 1016.16 2049 1025 2049 1033.84 2041.61 1041 2032.5 1041 2023.39 1041 2016 1033.84 2016 1025Z" fill="#003C84" fill-rule="evenodd"/><path d="M2087 984C2087 975.163 2094.16 968 2103 968 2111.84 968 2119 975.163 2119 984 2119 992.837 2111.84 1000 2103 1000 2094.16 1000 2087 992.837 2087 984Z" fill="#003C84" fill-rule="evenodd"/><path d="M2000 1110.5C2000 1101.39 2007.16 1094 2016 1094 2024.84 1094 2032 1101.39 2032 1110.5 2032 1119.61 2024.84 1127 2016 1127 2007.16 1127 2000 1119.61 2000 1110.5Z" fill="#003C84" fill-rule="evenodd"/><path d="M1848 944C1848 935.164 1855.39 928 1864.5 928 1873.61 928 1881 935.164 1881 944 1881 952.837 1873.61 960 1864.5 960 1855.39 960 1848 952.837 1848 944Z" fill="#003C84" fill-rule="evenodd"/><path d="M1911 1101.5C1911 1092.39 1918.39 1085 1927.5 1085 1936.61 1085 1944 1092.39 1944 1101.5 1944 1110.61 1936.61 1118 1927.5 1118 1918.39 1118 1911 1110.61 1911 1101.5Z" fill="#003C84" fill-rule="evenodd"/><path d="M1647 933C1647 924.164 1654.39 917 1663.5 917 1672.61 917 1680 924.164 1680 933 1680 941.837 1672.61 949 1663.5 949 1654.39 949 1647 941.837 1647 933Z" fill="#003C84" fill-rule="evenodd"/><path d="M1581 1035C1581 1026.16 1588.39 1019 1597.5 1019 1606.61 1019 1614 1026.16 1614 1035 1614 1043.84 1606.61 1051 1597.5 1051 1588.39 1051 1581 1043.84 1581 1035Z" fill="#003C84" fill-rule="evenodd"/><path d="M1686 1044C1686 1035.16 1693.16 1028 1702 1028 1710.84 1028 1718 1035.16 1718 1044 1718 1052.84 1710.84 1060 1702 1060 1693.16 1060 1686 1052.84 1686 1044Z" fill="#003C84" fill-rule="evenodd"/><path d="M1757 1003C1757 994.163 1764.16 987 1773 987 1781.84 987 1789 994.163 1789 1003 1789 1011.84 1781.84 1019 1773 1019 1764.16 1019 1757 1011.84 1757 1003Z" fill="#003C84" fill-rule="evenodd"/><path d="M1670 1129.5C1670 1120.39 1677.16 1113 1686 1113 1694.84 1113 1702 1120.39 1702 1129.5 1702 1138.61 1694.84 1146 1686 1146 1677.16 1146 1670 1138.61 1670 1129.5Z" fill="#003C84" fill-rule="evenodd"/><path d="M1518 963C1518 954.164 1525.39 947 1534.5 947 1543.61 947 1551 954.164 1551 963 1551 971.837 1543.61 979 1534.5 979 1525.39 979 1518 971.837 1518 963Z" fill="#003C84" fill-rule="evenodd"/><path d="M1629 1195C1629 1186.16 1636.39 1179 1645.5 1179 1654.61 1179 1662 1186.16 1662 1195 1662 1203.84 1654.61 1211 1645.5 1211 1636.39 1211 1629 1203.84 1629 1195Z" fill="#003C84" fill-rule="evenodd"/><path d="M1581 1120.5C1581 1111.39 1588.39 1104 1597.5 1104 1606.61 1104 1614 1111.39 1614 1120.5 1614 1129.61 1606.61 1137 1597.5 1137 1588.39 1137 1581 1129.61 1581 1120.5Z" fill="#003C84" fill-rule="evenodd"/><path d="M2248 1561.5C2248 1552.39 2255.39 1545 2264.5 1545 2273.61 1545 2281 1552.39 2281 1561.5 2281 1570.61 2273.61 1578 2264.5 1578 2255.39 1578 2248 1570.61 2248 1561.5Z" fill="#003C84" fill-rule="evenodd"/><path d="M2424 1529.5C2424 1520.39 2431.16 1513 2440 1513 2448.84 1513 2456 1520.39 2456 1529.5 2456 1538.61 2448.84 1546 2440 1546 2431.16 1546 2424 1538.61 2424 1529.5Z" fill="#003C84" fill-rule="evenodd"/><path d="M2337 1656C2337 1647.16 2344.16 1640 2353 1640 2361.84 1640 2369 1647.16 2369 1656 2369 1664.84 2361.84 1672 2353 1672 2344.16 1672 2337 1664.84 2337 1656Z" fill="#003C84" fill-rule="evenodd"/><path d="M2185 1489C2185 1480.16 2192.39 1473 2201.5 1473 2210.61 1473 2218 1480.16 2218 1489 2218 1497.84 2210.61 1505 2201.5 1505 2192.39 1505 2185 1497.84 2185 1489Z" fill="#003C84" fill-rule="evenodd"/><path d="M2296 1721.5C2296 1712.39 2303.39 1705 2312.5 1705 2321.61 1705 2329 1712.39 2329 1721.5 2329 1730.61 2321.61 1738 2312.5 1738 2303.39 1738 2296 1730.61 2296 1721.5Z" fill="#003C84" fill-rule="evenodd"/><path d="M2006 1563C2006 1554.16 2013.39 1547 2022.5 1547 2031.61 1547 2039 1554.16 2039 1563 2039 1571.84 2031.61 1579 2022.5 1579 2013.39 1579 2006 1571.84 2006 1563Z" fill="#003C84" fill-rule="evenodd"/><path d="M1940 1665C1940 1656.16 1947.39 1649 1956.5 1649 1965.61 1649 1973 1656.16 1973 1665 1973 1673.84 1965.61 1681 1956.5 1681 1947.39 1681 1940 1673.84 1940 1665Z" fill="#003C84" fill-rule="evenodd"/><path d="M2116 1633.5C2116 1624.39 2123.16 1617 2132 1617 2140.84 1617 2148 1624.39 2148 1633.5 2148 1642.61 2140.84 1650 2132 1650 2123.16 1650 2116 1642.61 2116 1633.5Z" fill="#003C84" fill-rule="evenodd"/><path d="M2029 1760C2029 1751.16 2036.16 1744 2045 1744 2053.84 1744 2061 1751.16 2061 1760 2061 1768.84 2053.84 1776 2045 1776 2036.16 1776 2029 1768.84 2029 1760Z" fill="#003C84" fill-rule="evenodd"/><path d="M1877 1593C1877 1584.16 1884.39 1577 1893.5 1577 1902.61 1577 1910 1584.16 1910 1593 1910 1601.84 1902.61 1609 1893.5 1609 1884.39 1609 1877 1601.84 1877 1593Z" fill="#003C84" fill-rule="evenodd"/><path d="M1988 1825.5C1988 1816.39 1995.39 1809 2004.5 1809 2013.61 1809 2021 1816.39 2021 1825.5 2021 1834.61 2013.61 1842 2004.5 1842 1995.39 1842 1988 1834.61 1988 1825.5Z" fill="#003C84" fill-rule="evenodd"/><path d="M1940 1750.5C1940 1741.39 1947.39 1734 1956.5 1734 1965.61 1734 1973 1741.39 1973 1750.5 1973 1759.61 1965.61 1767 1956.5 1767 1947.39 1767 1940 1759.61 1940 1750.5Z" fill="#003C84" fill-rule="evenodd"/><path d="M2343 928C2343 919.163 2350.16 912 2359 912 2367.84 912 2375 919.163 2375 928 2375 936.836 2367.84 944 2359 944 2350.16 944 2343 936.836 2343 928Z" fill="#003C84" fill-rule="evenodd"/><path d="M2266 1005.5C2266 996.387 2273.39 989 2282.5 989 2291.61 989 2299 996.387 2299 1005.5 2299 1014.61 2291.61 1022 2282.5 1022 2273.39 1022 2266 1014.61 2266 1005.5Z" fill="#003C84" fill-rule="evenodd"/><path d="M2371 1014.5C2371 1005.39 2378.39 998 2387.5 998 2396.61 998 2404 1005.39 2404 1014.5 2404 1023.61 2396.61 1031 2387.5 1031 2378.39 1031 2371 1023.61 2371 1014.5Z" fill="#003C84" fill-rule="evenodd"/><path d="M2442 973.5C2442 964.387 2449.16 957 2458 957 2466.84 957 2474 964.387 2474 973.5 2474 982.613 2466.84 990 2458 990 2449.16 990 2442 982.613 2442 973.5Z" fill="#003C84" fill-rule="evenodd"/><path d="M2355 1100C2355 1091.16 2362.16 1084 2371 1084 2379.84 1084 2387 1091.16 2387 1100 2387 1108.84 2379.84 1116 2371 1116 2362.16 1116 2355 1108.84 2355 1100Z" fill="#003C84" fill-rule="evenodd"/><path d="M2203 933.5C2203 924.387 2210.39 917 2219.5 917 2228.61 917 2236 924.387 2236 933.5 2236 942.613 2228.61 950 2219.5 950 2210.39 950 2203 942.613 2203 933.5Z" fill="#003C84" fill-rule="evenodd"/><path d="M2266 1091C2266 1082.16 2273.39 1075 2282.5 1075 2291.61 1075 2299 1082.16 2299 1091 2299 1099.84 2291.61 1107 2282.5 1107 2273.39 1107 2266 1099.84 2266 1091Z" fill="#003C84" fill-rule="evenodd"/><path d="M1973.5 755.282C1714.27 209.341 1274 536.906 1274 842.632 1274 1301.22 1973.5 1869 1973.5 1869 1973.5 1869 2673 1301.22 2673 842.632 2673 536.906 2232.73 209.341 1973.5 755.282Z" fill="#FF0000" fill-rule="evenodd" fill-opacity="0.25098"/></g></svg>