<svg width="1689" height="1689" xmlns="http://www.w3.org/2000/svg" xmlns:xlink="http://www.w3.org/1999/xlink" xml:space="preserve" overflow="hidden"><defs><clipPath id="clip0"><rect x="1449" y="443" width="1689" height="1689"/></clipPath></defs><g clip-path="url(#clip0)" transform="translate(-1449 -443)"><path d="M1771.5 748.336C1771.5 653.434 1848.43 576.5 1943.34 576.5L2630.66 576.5C2725.57 576.5 2802.5 653.434 2802.5 748.336L2802.5 1873.66C2802.5 1968.57 2725.57 2045.5 2630.66 2045.5L1943.34 2045.5C1848.43 2045.5 1771.5 1968.57 1771.5 1873.66Z" stroke="#003C84" stroke-width="28.6458" stroke-miterlimit="8" fill="#FFFFFF" fill-rule="evenodd"/><path d="M1795.95 598.041 1837.64 947.308 1515.97 831.638Z" stroke="#003C84" stroke-width="28.6458" stroke-miterlimit="8" fill="#FFFFFF" fill-rule="evenodd"/><path d="M1771.5 613.75C1771.5 659.728 2002.3 697 2287 697 2571.7 697 2802.5 659.728 2802.5 613.75L2802.5 1113.25C2802.5 1159.23 2571.7 1196.5 2287 1196.5 2002.3 1196.5 1771.5 1159.23 1771.5 1113.25Z" fill="#FFFFFF" fill-rule="evenodd"/><path d="M1771.5 613.75C1771.5 567.772 2002.3 530.5 2287 530.5 2571.7 530.5 2802.5 567.772 2802.5 613.75 2802.5 659.728 2571.7 697 2287 697 2002.3 697 1771.5 659.728 1771.5 613.75Z" fill="#FFFFFF" fill-rule="evenodd"/><path d="M2802.5 613.75C2802.5 659.728 2571.7 697 2287 697 2002.3 697 1771.5 659.728 1771.5 613.75 1771.5 567.772 2002.3 530.5 2287 530.5 2571.7 530.5 2802.5 567.772 2802.5 613.75L2802.5 1113.25C2802.5 1159.23 2571.7 1196.5 2287 1196.5 2002.3 1196.5 1771.5 1159.23 1771.5 1113.25L1771.5 613.75" stroke="#003C84" stroke-width="28.6458" stroke-miterlimit="8" fill="none" fill-rule="evenodd"/><rect x="1785" y="1011" width="1003" height="426" fill="#83CBEB"/><path d="M1786 1187.17C1786 1094.84 1860.84 1020 1953.17 1020L2621.83 1020C2714.16 1020 2789 1094.84 2789 1187.17L2789 1864.83C2789 1957.16 2714.16 2032 2621.83 2032L1953.17 2032C1860.84 2032 1786 1957.16 1786 1864.83Z" fill="#83CBEB" fill-rule="evenodd"/><path d="M2114 1165C2114 1156.16 2121.16 1149 2130 1149 2138.84 1149 2146 1156.16 2146 1165 2146 1173.84 2138.84 1181 2130 1181 2121.16 1181 2114 1173.84 2114 1165Z" fill="#003C84" fill-rule="evenodd"/><path d="M2048 1267C2048 1258.16 2055.16 1251 2064 1251 2072.84 1251 2080 1258.16 2080 1267 2080 1275.84 2072.84 1283 2064 1283 2055.16 1283 2048 1275.84 2048 1267Z" fill="#003C84" fill-rule="evenodd"/><path d="M2153 1276C2153 1267.16 2160.16 1260 2169 1260 2177.84 1260 2185 1267.16 2185 1276 2185 1284.84 2177.84 1292 2169 1292 2160.16 1292 2153 1284.84 2153 1276Z" fill="#003C84" fill-rule="evenodd"/><path d="M1985 1194.5C1985 1185.39 1992.16 1178 2001 1178 2009.84 1178 2017 1185.39 2017 1194.5 2017 1203.61 2009.84 1211 2001 1211 1992.16 1211 1985 1203.61 1985 1194.5Z" fill="#003C84" fill-rule="evenodd"/><path d="M2048 1352.5C2048 1343.39 2055.16 1336 2064 1336 2072.84 1336 2080 1343.39 2080 1352.5 2080 1361.61 2072.84 1369 2064 1369 2055.16 1369 2048 1361.61 2048 1352.5Z" fill="#003C84" fill-rule="evenodd"/><path d="M2256.54 1414.35C2247.65 1415.55 2239.47 1409.31 2238.27 1400.42 2237.08 1391.54 2243.31 1383.36 2252.2 1382.16 2261.09 1380.97 2269.27 1387.2 2270.46 1396.09 2271.66 1404.98 2265.43 1413.16 2256.54 1414.35Z" fill="#003C84" fill-rule="evenodd"/><path d="M2361.3 1423.46C2352.41 1424.65 2344.23 1418.42 2343.03 1409.53 2341.84 1400.64 2348.07 1392.46 2356.96 1391.27 2365.85 1390.07 2374.03 1396.3 2375.22 1405.19 2376.42 1414.08 2370.19 1422.26 2361.3 1423.46Z" fill="#003C84" fill-rule="evenodd"/><path d="M2431.94 1382.54C2423.05 1383.74 2414.88 1377.51 2413.68 1368.62 2412.48 1359.73 2418.72 1351.55 2427.61 1350.35 2436.49 1349.16 2444.67 1355.39 2445.87 1364.28 2447.07 1373.17 2440.83 1381.35 2431.94 1382.54Z" fill="#003C84" fill-rule="evenodd"/><path d="M2345.06 1508.97C2336.17 1510.16 2327.99 1503.93 2326.79 1495.04 2325.6 1486.15 2331.83 1477.97 2340.72 1476.78 2349.61 1475.58 2357.79 1481.81 2358.98 1490.7 2360.18 1499.59 2353.94 1507.77 2345.06 1508.97Z" fill="#003C84" fill-rule="evenodd"/><path d="M2193.45 1342.3C2184.56 1343.5 2176.39 1337.26 2175.19 1328.37 2173.99 1319.48 2180.23 1311.31 2189.12 1310.11 2198.01 1308.91 2206.18 1315.15 2207.38 1324.04 2208.58 1332.93 2202.34 1341.1 2193.45 1342.3Z" fill="#003C84" fill-rule="evenodd"/><path d="M2304.4 1574.55C2295.51 1575.75 2287.34 1569.52 2286.14 1560.63 2284.94 1551.74 2291.18 1543.56 2300.07 1542.36 2308.96 1541.17 2317.13 1547.4 2318.33 1556.29 2319.53 1565.18 2313.29 1573.36 2304.4 1574.55Z" fill="#003C84" fill-rule="evenodd"/><path d="M2023 1377.5C2023 1368.39 2030.16 1361 2039 1361 2047.84 1361 2055 1368.39 2055 1377.5 2055 1386.61 2047.84 1394 2039 1394 2030.16 1394 2023 1386.61 2023 1377.5Z" fill="#003C84" fill-rule="evenodd"/><path d="M2132 1448C2132 1439.16 2139.39 1432 2148.5 1432 2157.61 1432 2165 1439.16 2165 1448 2165 1456.84 2157.61 1464 2148.5 1464 2139.39 1464 2132 1456.84 2132 1448Z" fill="#003C84" fill-rule="evenodd"/><path d="M2045 1574.5C2045 1565.39 2052.39 1558 2061.5 1558 2070.61 1558 2078 1565.39 2078 1574.5 2078 1583.61 2070.61 1591 2061.5 1591 2052.39 1591 2045 1583.61 2045 1574.5Z" fill="#003C84" fill-rule="evenodd"/><path d="M2005 1640C2005 1631.16 2012.16 1624 2021 1624 2029.84 1624 2037 1631.16 2037 1640 2037 1648.84 2029.84 1656 2021 1656 2012.16 1656 2005 1648.84 2005 1640Z" fill="#003C84" fill-rule="evenodd"/><path d="M1957 1565C1957 1556.16 1964.16 1549 1973 1549 1981.84 1549 1989 1556.16 1989 1565 1989 1573.84 1981.84 1581 1973 1581 1964.16 1581 1957 1573.84 1957 1565Z" fill="#003C84" fill-rule="evenodd"/><path d="M2169 1220C2169 1211.16 2176.16 1204 2185 1204 2193.84 1204 2201 1211.16 2201 1220 2201 1228.84 2193.84 1236 2185 1236 2176.16 1236 2169 1228.84 2169 1220Z" fill="#003C84" fill-rule="evenodd"/><path d="M2208 1331C2208 1322.16 2215.16 1315 2224 1315 2232.84 1315 2240 1322.16 2240 1331 2240 1339.84 2232.84 1347 2224 1347 2215.16 1347 2208 1339.84 2208 1331Z" fill="#003C84" fill-rule="evenodd"/><path d="M2278 1290C2278 1281.16 2285.39 1274 2294.5 1274 2303.61 1274 2311 1281.16 2311 1290 2311 1298.84 2303.61 1306 2294.5 1306 2285.39 1306 2278 1298.84 2278 1290Z" fill="#003C84" fill-rule="evenodd"/><path d="M2191 1416.5C2191 1407.39 2198.39 1400 2207.5 1400 2216.61 1400 2224 1407.39 2224 1416.5 2224 1425.61 2216.61 1433 2207.5 1433 2198.39 1433 2191 1425.61 2191 1416.5Z" fill="#003C84" fill-rule="evenodd"/><path d="M2151 1482C2151 1473.16 2158.16 1466 2167 1466 2175.84 1466 2183 1473.16 2183 1482 2183 1490.84 2175.84 1498 2167 1498 2158.16 1498 2151 1490.84 2151 1482Z" fill="#003C84" fill-rule="evenodd"/><path d="M2103 1407.5C2103 1398.39 2110.16 1391 2119 1391 2127.84 1391 2135 1398.39 2135 1407.5 2135 1416.61 2127.84 1424 2119 1424 2110.16 1424 2103 1416.61 2103 1407.5Z" fill="#003C84" fill-rule="evenodd"/><path d="M2586 1066C2586 1057.16 2593.16 1050 2602 1050 2610.84 1050 2618 1057.16 2618 1066 2618 1074.84 2610.84 1082 2602 1082 2593.16 1082 2586 1074.84 2586 1066Z" fill="#003C84" fill-rule="evenodd"/><path d="M2520 1168C2520 1159.16 2527.16 1152 2536 1152 2544.84 1152 2552 1159.16 2552 1168 2552 1176.84 2544.84 1184 2536 1184 2527.16 1184 2520 1176.84 2520 1168Z" fill="#003C84" fill-rule="evenodd"/><path d="M2625 1177C2625 1168.16 2632.16 1161 2641 1161 2649.84 1161 2657 1168.16 2657 1177 2657 1185.84 2649.84 1193 2641 1193 2632.16 1193 2625 1185.84 2625 1177Z" fill="#003C84" fill-rule="evenodd"/><path d="M2695 1136C2695 1127.16 2702.39 1120 2711.5 1120 2720.61 1120 2728 1127.16 2728 1136 2728 1144.84 2720.61 1152 2711.5 1152 2702.39 1152 2695 1144.84 2695 1136Z" fill="#003C84" fill-rule="evenodd"/><path d="M2608 1262.5C2608 1253.39 2615.39 1246 2624.5 1246 2633.61 1246 2641 1253.39 2641 1262.5 2641 1271.61 2633.61 1279 2624.5 1279 2615.39 1279 2608 1271.61 2608 1262.5Z" fill="#003C84" fill-rule="evenodd"/><path d="M2457 1096C2457 1087.16 2464.16 1080 2473 1080 2481.84 1080 2489 1087.16 2489 1096 2489 1104.84 2481.84 1112 2473 1112 2464.16 1112 2457 1104.84 2457 1096Z" fill="#003C84" fill-rule="evenodd"/><path d="M2568 1328C2568 1319.16 2575.16 1312 2584 1312 2592.84 1312 2600 1319.16 2600 1328 2600 1336.84 2592.84 1344 2584 1344 2575.16 1344 2568 1336.84 2568 1328Z" fill="#003C84" fill-rule="evenodd"/><path d="M2520 1253.5C2520 1244.39 2527.16 1237 2536 1237 2544.84 1237 2552 1244.39 2552 1253.5 2552 1262.61 2544.84 1270 2536 1270 2527.16 1270 2520 1262.61 2520 1253.5Z" fill="#003C84" fill-rule="evenodd"/><path d="M2594 1476.5C2594 1467.39 2601.39 1460 2610.5 1460 2619.61 1460 2627 1467.39 2627 1476.5 2627 1485.61 2619.61 1493 2610.5 1493 2601.39 1493 2594 1485.61 2594 1476.5Z" fill="#003C84" fill-rule="evenodd"/><path d="M2528 1578.5C2528 1569.39 2535.39 1562 2544.5 1562 2553.61 1562 2561 1569.39 2561 1578.5 2561 1587.61 2553.61 1595 2544.5 1595 2535.39 1595 2528 1587.61 2528 1578.5Z" fill="#003C84" fill-rule="evenodd"/><path d="M2633 1587.5C2633 1578.39 2640.39 1571 2649.5 1571 2658.61 1571 2666 1578.39 2666 1587.5 2666 1596.61 2658.61 1604 2649.5 1604 2640.39 1604 2633 1596.61 2633 1587.5Z" fill="#003C84" fill-rule="evenodd"/><path d="M2704 1547C2704 1538.16 2711.16 1531 2720 1531 2728.84 1531 2736 1538.16 2736 1547 2736 1555.84 2728.84 1563 2720 1563 2711.16 1563 2704 1555.84 2704 1547Z" fill="#003C84" fill-rule="evenodd"/><path d="M2617 1673C2617 1664.16 2624.16 1657 2633 1657 2641.84 1657 2649 1664.16 2649 1673 2649 1681.84 2641.84 1689 2633 1689 2624.16 1689 2617 1681.84 2617 1673Z" fill="#003C84" fill-rule="evenodd"/><path d="M2465 1506.5C2465 1497.39 2472.39 1490 2481.5 1490 2490.61 1490 2498 1497.39 2498 1506.5 2498 1515.61 2490.61 1523 2481.5 1523 2472.39 1523 2465 1515.61 2465 1506.5Z" fill="#003C84" fill-rule="evenodd"/><path d="M2576 1739C2576 1730.16 2583.39 1723 2592.5 1723 2601.61 1723 2609 1730.16 2609 1739 2609 1747.84 2601.61 1755 2592.5 1755 2583.39 1755 2576 1747.84 2576 1739Z" fill="#003C84" fill-rule="evenodd"/><path d="M2528 1664C2528 1655.16 2535.39 1648 2544.5 1648 2553.61 1648 2561 1655.16 2561 1664 2561 1672.84 2553.61 1680 2544.5 1680 2535.39 1680 2528 1672.84 2528 1664Z" fill="#003C84" fill-rule="evenodd"/><path d="M2356 1612.5C2356 1603.39 2363.16 1596 2372 1596 2380.84 1596 2388 1603.39 2388 1612.5 2388 1621.61 2380.84 1629 2372 1629 2363.16 1629 2356 1621.61 2356 1612.5Z" fill="#003C84" fill-rule="evenodd"/><path d="M2290 1714.5C2290 1705.39 2297.16 1698 2306 1698 2314.84 1698 2322 1705.39 2322 1714.5 2322 1723.61 2314.84 1731 2306 1731 2297.16 1731 2290 1723.61 2290 1714.5Z" fill="#003C84" fill-rule="evenodd"/><path d="M2395 1724C2395 1715.16 2402.16 1708 2411 1708 2419.84 1708 2427 1715.16 2427 1724 2427 1732.84 2419.84 1740 2411 1740 2402.16 1740 2395 1732.84 2395 1724Z" fill="#003C84" fill-rule="evenodd"/><path d="M2465 1683C2465 1674.16 2472.39 1667 2481.5 1667 2490.61 1667 2498 1674.16 2498 1683 2498 1691.84 2490.61 1699 2481.5 1699 2472.39 1699 2465 1691.84 2465 1683Z" fill="#003C84" fill-rule="evenodd"/><path d="M2227 1642.5C2227 1633.39 2234.16 1626 2243 1626 2251.84 1626 2259 1633.39 2259 1642.5 2259 1651.61 2251.84 1659 2243 1659 2234.16 1659 2227 1651.61 2227 1642.5Z" fill="#003C84" fill-rule="evenodd"/><path d="M2298 1804.5C2298 1795.39 2305.16 1788 2314 1788 2322.84 1788 2330 1795.39 2330 1804.5 2330 1813.61 2322.84 1821 2314 1821 2305.16 1821 2298 1813.61 2298 1804.5Z" fill="#003C84" fill-rule="evenodd"/><path d="M2096 1678C2096 1669.16 2103.39 1662 2112.5 1662 2121.61 1662 2129 1669.16 2129 1678 2129 1686.84 2121.61 1694 2112.5 1694 2103.39 1694 2096 1686.84 2096 1678Z" fill="#003C84" fill-rule="evenodd"/><path d="M2030 1780C2030 1771.16 2037.39 1764 2046.5 1764 2055.61 1764 2063 1771.16 2063 1780 2063 1788.84 2055.61 1796 2046.5 1796 2037.39 1796 2030 1788.84 2030 1780Z" fill="#003C84" fill-rule="evenodd"/><path d="M2141 1801.5C2141 1792.39 2148.16 1785 2157 1785 2165.84 1785 2173 1792.39 2173 1801.5 2173 1810.61 2165.84 1818 2157 1818 2148.16 1818 2141 1810.61 2141 1801.5Z" fill="#003C84" fill-rule="evenodd"/><path d="M2205 1748C2205 1739.16 2212.39 1732 2221.5 1732 2230.61 1732 2238 1739.16 2238 1748 2238 1756.84 2230.61 1764 2221.5 1764 2212.39 1764 2205 1756.84 2205 1748Z" fill="#003C84" fill-rule="evenodd"/><path d="M2119 1874.5C2119 1865.39 2126.16 1858 2135 1858 2143.84 1858 2151 1865.39 2151 1874.5 2151 1883.61 2143.84 1891 2135 1891 2126.16 1891 2119 1883.61 2119 1874.5Z" fill="#003C84" fill-rule="evenodd"/><path d="M1967 1708C1967 1699.16 1974.16 1692 1983 1692 1991.84 1692 1999 1699.16 1999 1708 1999 1716.84 1991.84 1724 1983 1724 1974.16 1724 1967 1716.84 1967 1708Z" fill="#003C84" fill-rule="evenodd"/><path d="M2078 1940C2078 1931.16 2085.16 1924 2094 1924 2102.84 1924 2110 1931.16 2110 1940 2110 1948.84 2102.84 1956 2094 1956 2085.16 1956 2078 1948.84 2078 1940Z" fill="#003C84" fill-rule="evenodd"/><path d="M2030 1865.5C2030 1856.39 2037.39 1849 2046.5 1849 2055.61 1849 2063 1856.39 2063 1865.5 2063 1874.61 2055.61 1882 2046.5 1882 2037.39 1882 2030 1874.61 2030 1865.5Z" fill="#003C84" fill-rule="evenodd"/><path d="M2298 1084C2298 1075.16 2305.16 1068 2314 1068 2322.84 1068 2330 1075.16 2330 1084 2330 1092.84 2322.84 1100 2314 1100 2305.16 1100 2298 1092.84 2298 1084Z" fill="#003C84" fill-rule="evenodd"/><path d="M2232 1186C2232 1177.16 2239.16 1170 2248 1170 2256.84 1170 2264 1177.16 2264 1186 2264 1194.84 2256.84 1202 2248 1202 2239.16 1202 2232 1194.84 2232 1186Z" fill="#003C84" fill-rule="evenodd"/><path d="M2336 1195C2336 1186.16 2343.39 1179 2352.5 1179 2361.61 1179 2369 1186.16 2369 1195 2369 1203.84 2361.61 1211 2352.5 1211 2343.39 1211 2336 1203.84 2336 1195Z" fill="#003C84" fill-rule="evenodd"/><path d="M2407 1154C2407 1145.16 2414.16 1138 2423 1138 2431.84 1138 2439 1145.16 2439 1154 2439 1162.84 2431.84 1170 2423 1170 2414.16 1170 2407 1162.84 2407 1154Z" fill="#003C84" fill-rule="evenodd"/><path d="M2320 1280.5C2320 1271.39 2327.39 1264 2336.5 1264 2345.61 1264 2353 1271.39 2353 1280.5 2353 1289.61 2345.61 1297 2336.5 1297 2327.39 1297 2320 1289.61 2320 1280.5Z" fill="#003C84" fill-rule="evenodd"/><path d="M2168 1114C2168 1105.16 2175.39 1098 2184.5 1098 2193.61 1098 2201 1105.16 2201 1114 2201 1122.84 2193.61 1130 2184.5 1130 2175.39 1130 2168 1122.84 2168 1114Z" fill="#003C84" fill-rule="evenodd"/><path d="M2232 1271.5C2232 1262.39 2239.16 1255 2248 1255 2256.84 1255 2264 1262.39 2264 1271.5 2264 1280.61 2256.84 1288 2248 1288 2239.16 1288 2232 1280.61 2232 1271.5Z" fill="#003C84" fill-rule="evenodd"/><path d="M1960 1095.5C1960 1086.39 1967.39 1079 1976.5 1079 1985.61 1079 1993 1086.39 1993 1095.5 1993 1104.61 1985.61 1112 1976.5 1112 1967.39 1112 1960 1104.61 1960 1095.5Z" fill="#003C84" fill-rule="evenodd"/><path d="M1894 1197.5C1894 1188.39 1901.39 1181 1910.5 1181 1919.61 1181 1927 1188.39 1927 1197.5 1927 1206.61 1919.61 1214 1910.5 1214 1901.39 1214 1894 1206.61 1894 1197.5Z" fill="#003C84" fill-rule="evenodd"/><path d="M2070 1166C2070 1157.16 2077.16 1150 2086 1150 2094.84 1150 2102 1157.16 2102 1166 2102 1174.84 2094.84 1182 2086 1182 2077.16 1182 2070 1174.84 2070 1166Z" fill="#003C84" fill-rule="evenodd"/><path d="M1983 1292C1983 1283.16 1990.16 1276 1999 1276 2007.84 1276 2015 1283.16 2015 1292 2015 1300.84 2007.84 1308 1999 1308 1990.16 1308 1983 1300.84 1983 1292Z" fill="#003C84" fill-rule="evenodd"/><path d="M1831 1125.5C1831 1116.39 1838.39 1109 1847.5 1109 1856.61 1109 1864 1116.39 1864 1125.5 1864 1134.61 1856.61 1142 1847.5 1142 1838.39 1142 1831 1134.61 1831 1125.5Z" fill="#003C84" fill-rule="evenodd"/><path d="M1942 1358C1942 1349.16 1949.39 1342 1958.5 1342 1967.61 1342 1975 1349.16 1975 1358 1975 1366.84 1967.61 1374 1958.5 1374 1949.39 1374 1942 1366.84 1942 1358Z" fill="#003C84" fill-rule="evenodd"/><path d="M1894 1283C1894 1274.16 1901.39 1267 1910.5 1267 1919.61 1267 1927 1274.16 1927 1283 1927 1291.84 1919.61 1299 1910.5 1299 1901.39 1299 1894 1291.84 1894 1283Z" fill="#003C84" fill-rule="evenodd"/><path d="M1916 1726C1916 1717.16 1923.39 1710 1932.5 1710 1941.61 1710 1949 1717.16 1949 1726 1949 1734.84 1941.61 1742 1932.5 1742 1923.39 1742 1916 1734.84 1916 1726Z" fill="#003C84" fill-rule="evenodd"/><path d="M2021 1735C2021 1726.16 2028.16 1719 2037 1719 2045.84 1719 2053 1726.16 2053 1735 2053 1743.84 2045.84 1751 2037 1751 2028.16 1751 2021 1743.84 2021 1735Z" fill="#003C84" fill-rule="evenodd"/><path d="M1853 1654C1853 1645.16 1860.39 1638 1869.5 1638 1878.61 1638 1886 1645.16 1886 1654 1886 1662.84 1878.61 1670 1869.5 1670 1860.39 1670 1853 1662.84 1853 1654Z" fill="#003C84" fill-rule="evenodd"/><path d="M1964 1886C1964 1877.16 1971.39 1870 1980.5 1870 1989.61 1870 1997 1877.16 1997 1886 1997 1894.84 1989.61 1902 1980.5 1902 1971.39 1902 1964 1894.84 1964 1886Z" fill="#003C84" fill-rule="evenodd"/><path d="M1916 1811.5C1916 1802.39 1923.39 1795 1932.5 1795 1941.61 1795 1949 1802.39 1949 1811.5 1949 1820.61 1941.61 1828 1932.5 1828 1923.39 1828 1916 1820.61 1916 1811.5Z" fill="#003C84" fill-rule="evenodd"/><path d="M2655 1716C2655 1707.16 2662.39 1700 2671.5 1700 2680.61 1700 2688 1707.16 2688 1716 2688 1724.84 2680.61 1732 2671.5 1732 2662.39 1732 2655 1724.84 2655 1716Z" fill="#003C84" fill-rule="evenodd"/><path d="M2559 1854C2559 1845.16 2566.16 1838 2575 1838 2583.84 1838 2591 1845.16 2591 1854 2591 1862.84 2583.84 1870 2575 1870 2566.16 1870 2559 1862.84 2559 1854Z" fill="#003C84" fill-rule="evenodd"/><path d="M2694 1827C2694 1818.16 2701.39 1811 2710.5 1811 2719.61 1811 2727 1818.16 2727 1827 2727 1835.84 2719.61 1843 2710.5 1843 2701.39 1843 2694 1835.84 2694 1827Z" fill="#003C84" fill-rule="evenodd"/><path d="M2765 1786C2765 1777.16 2772.16 1770 2781 1770 2789.84 1770 2797 1777.16 2797 1786 2797 1794.84 2789.84 1802 2781 1802 2772.16 1802 2765 1794.84 2765 1786Z" fill="#003C84" fill-rule="evenodd"/><path d="M2678 1912.5C2678 1903.39 2685.16 1896 2694 1896 2702.84 1896 2710 1903.39 2710 1912.5 2710 1921.61 2702.84 1929 2694 1929 2685.16 1929 2678 1921.61 2678 1912.5Z" fill="#003C84" fill-rule="evenodd"/><path d="M2526 1746C2526 1737.16 2533.39 1730 2542.5 1730 2551.61 1730 2559 1737.16 2559 1746 2559 1754.84 2551.61 1762 2542.5 1762 2533.39 1762 2526 1754.84 2526 1746Z" fill="#003C84" fill-rule="evenodd"/><path d="M2637 1978C2637 1969.16 2644.39 1962 2653.5 1962 2662.61 1962 2670 1969.16 2670 1978 2670 1986.84 2662.61 1994 2653.5 1994 2644.39 1994 2637 1986.84 2637 1978Z" fill="#003C84" fill-rule="evenodd"/><path d="M2589 1903.5C2589 1894.39 2596.39 1887 2605.5 1887 2614.61 1887 2622 1894.39 2622 1903.5 2622 1912.61 2614.61 1920 2605.5 1920 2596.39 1920 2589 1912.61 2589 1903.5Z" fill="#003C84" fill-rule="evenodd"/><path d="M2455 1725.5C2455 1716.39 2462.16 1709 2471 1709 2479.84 1709 2487 1716.39 2487 1725.5 2487 1734.61 2479.84 1742 2471 1742 2462.16 1742 2455 1734.61 2455 1725.5Z" fill="#003C84" fill-rule="evenodd"/><path d="M2389 1828C2389 1819.16 2396.16 1812 2405 1812 2413.84 1812 2421 1819.16 2421 1828 2421 1836.84 2413.84 1844 2405 1844 2396.16 1844 2389 1836.84 2389 1828Z" fill="#003C84" fill-rule="evenodd"/><path d="M2493 1837C2493 1828.16 2500.39 1821 2509.5 1821 2518.61 1821 2526 1828.16 2526 1837 2526 1845.84 2518.61 1853 2509.5 1853 2500.39 1853 2493 1845.84 2493 1837Z" fill="#003C84" fill-rule="evenodd"/><path d="M2564 1796C2564 1787.16 2571.39 1780 2580.5 1780 2589.61 1780 2597 1787.16 2597 1796 2597 1804.84 2589.61 1812 2580.5 1812 2571.39 1812 2564 1804.84 2564 1796Z" fill="#003C84" fill-rule="evenodd"/><path d="M2477 1922.5C2477 1913.39 2484.39 1906 2493.5 1906 2502.61 1906 2510 1913.39 2510 1922.5 2510 1931.61 2502.61 1939 2493.5 1939 2484.39 1939 2477 1931.61 2477 1922.5Z" fill="#003C84" fill-rule="evenodd"/><path d="M2326 1755.5C2326 1746.39 2333.16 1739 2342 1739 2350.84 1739 2358 1746.39 2358 1755.5 2358 1764.61 2350.84 1772 2342 1772 2333.16 1772 2326 1764.61 2326 1755.5Z" fill="#003C84" fill-rule="evenodd"/><path d="M2437 1988C2437 1979.16 2444.16 1972 2453 1972 2461.84 1972 2469 1979.16 2469 1988 2469 1996.84 2461.84 2004 2453 2004 2444.16 2004 2437 1996.84 2437 1988Z" fill="#003C84" fill-rule="evenodd"/><path d="M2389 1913C2389 1904.16 2396.16 1897 2405 1897 2413.84 1897 2421 1904.16 2421 1913 2421 1921.84 2413.84 1929 2405 1929 2396.16 1929 2389 1921.84 2389 1913Z" fill="#003C84" fill-rule="evenodd"/><path d="M2176 1838.5C2176 1829.39 2183.39 1822 2192.5 1822 2201.61 1822 2209 1829.39 2209 1838.5 2209 1847.61 2201.61 1855 2192.5 1855 2183.39 1855 2176 1847.61 2176 1838.5Z" fill="#003C84" fill-rule="evenodd"/><path d="M2281 1847.5C2281 1838.39 2288.16 1831 2297 1831 2305.84 1831 2313 1838.39 2313 1847.5 2313 1856.61 2305.84 1864 2297 1864 2288.16 1864 2281 1856.61 2281 1847.5Z" fill="#003C84" fill-rule="evenodd"/><path d="M2351 1806.5C2351 1797.39 2358.39 1790 2367.5 1790 2376.61 1790 2384 1797.39 2384 1806.5 2384 1815.61 2376.61 1823 2367.5 1823 2358.39 1823 2351 1815.61 2351 1806.5Z" fill="#003C84" fill-rule="evenodd"/><path d="M2265 1933C2265 1924.16 2272.16 1917 2281 1917 2289.84 1917 2297 1924.16 2297 1933 2297 1941.84 2289.84 1949 2281 1949 2272.16 1949 2265 1941.84 2265 1933Z" fill="#003C84" fill-rule="evenodd"/><path d="M2113 1766.5C2113 1757.39 2120.16 1750 2129 1750 2137.84 1750 2145 1757.39 2145 1766.5 2145 1775.61 2137.84 1783 2129 1783 2120.16 1783 2113 1775.61 2113 1766.5Z" fill="#003C84" fill-rule="evenodd"/><path d="M2224 1998.5C2224 1989.39 2231.16 1982 2240 1982 2248.84 1982 2256 1989.39 2256 1998.5 2256 2007.61 2248.84 2015 2240 2015 2231.16 2015 2224 2007.61 2224 1998.5Z" fill="#003C84" fill-rule="evenodd"/><path d="M2176 1924C2176 1915.16 2183.39 1908 2192.5 1908 2201.61 1908 2209 1915.16 2209 1924 2209 1932.84 2201.61 1940 2192.5 1940 2183.39 1940 2176 1932.84 2176 1924Z" fill="#003C84" fill-rule="evenodd"/><path d="M2520 1444C2520 1435.16 2527.16 1428 2536 1428 2544.84 1428 2552 1435.16 2552 1444 2552 1452.84 2544.84 1460 2536 1460 2527.16 1460 2520 1452.84 2520 1444Z" fill="#003C84" fill-rule="evenodd"/><path d="M2433 1570C2433 1561.16 2440.16 1554 2449 1554 2457.84 1554 2465 1561.16 2465 1570 2465 1578.84 2457.84 1586 2449 1586 2440.16 1586 2433 1578.84 2433 1570Z" fill="#003C84" fill-rule="evenodd"/><path d="M2281 1403.5C2281 1394.39 2288.39 1387 2297.5 1387 2306.61 1387 2314 1394.39 2314 1403.5 2314 1412.61 2306.61 1420 2297.5 1420 2288.39 1420 2281 1412.61 2281 1403.5Z" fill="#003C84" fill-rule="evenodd"/><path d="M2392 1636C2392 1627.16 2399.39 1620 2408.5 1620 2417.61 1620 2425 1627.16 2425 1636 2425 1644.84 2417.61 1652 2408.5 1652 2399.39 1652 2392 1644.84 2392 1636Z" fill="#003C84" fill-rule="evenodd"/><path d="M2344 1561C2344 1552.16 2351.39 1545 2360.5 1545 2369.61 1545 2377 1552.16 2377 1561 2377 1569.84 2369.61 1577 2360.5 1577 2351.39 1577 2344 1569.84 2344 1561Z" fill="#003C84" fill-rule="evenodd"/><path d="M2333 1345C2333 1336.16 2340.39 1329 2349.5 1329 2358.61 1329 2366 1336.16 2366 1345 2366 1353.84 2358.61 1361 2349.5 1361 2340.39 1361 2333 1353.84 2333 1345Z" fill="#003C84" fill-rule="evenodd"/><path d="M2246 1471.5C2246 1462.39 2253.39 1455 2262.5 1455 2271.61 1455 2279 1462.39 2279 1471.5 2279 1480.61 2271.61 1488 2262.5 1488 2253.39 1488 2246 1480.61 2246 1471.5Z" fill="#003C84" fill-rule="evenodd"/><path d="M2095 1304.5C2095 1295.39 2102.16 1288 2111 1288 2119.84 1288 2127 1295.39 2127 1304.5 2127 1313.61 2119.84 1321 2111 1321 2102.16 1321 2095 1313.61 2095 1304.5Z" fill="#003C84" fill-rule="evenodd"/><path d="M2455 1296C2455 1287.16 2462.16 1280 2471 1280 2479.84 1280 2487 1287.16 2487 1296 2487 1304.84 2479.84 1312 2471 1312 2462.16 1312 2455 1304.84 2455 1296Z" fill="#003C84" fill-rule="evenodd"/><path d="M2543 1390.5C2543 1381.39 2550.39 1374 2559.5 1374 2568.61 1374 2576 1381.39 2576 1390.5 2576 1399.61 2568.61 1407 2559.5 1407 2550.39 1407 2543 1399.61 2543 1390.5Z" fill="#003C84" fill-rule="evenodd"/><path d="M2391 1224C2391 1215.16 2398.39 1208 2407.5 1208 2416.61 1208 2424 1215.16 2424 1224 2424 1232.84 2416.61 1240 2407.5 1240 2398.39 1240 2391 1232.84 2391 1224Z" fill="#003C84" fill-rule="evenodd"/><path d="M2455 1381.5C2455 1372.39 2462.16 1365 2471 1365 2479.84 1365 2487 1372.39 2487 1381.5 2487 1390.61 2479.84 1398 2471 1398 2462.16 1398 2455 1390.61 2455 1381.5Z" fill="#003C84" fill-rule="evenodd"/><path d="M2642 1312C2642 1303.16 2649.16 1296 2658 1296 2666.84 1296 2674 1303.16 2674 1312 2674 1320.84 2666.84 1328 2658 1328 2649.16 1328 2642 1320.84 2642 1312Z" fill="#003C84" fill-rule="evenodd"/><path d="M2576 1414C2576 1405.16 2583.16 1398 2592 1398 2600.84 1398 2608 1405.16 2608 1414 2608 1422.84 2600.84 1430 2592 1430 2583.16 1430 2576 1422.84 2576 1414Z" fill="#003C84" fill-rule="evenodd"/><path d="M2681 1423C2681 1414.16 2688.16 1407 2697 1407 2705.84 1407 2713 1414.16 2713 1423 2713 1431.84 2705.84 1439 2697 1439 2688.16 1439 2681 1431.84 2681 1423Z" fill="#003C84" fill-rule="evenodd"/><path d="M2751 1382C2751 1373.16 2758.39 1366 2767.5 1366 2776.61 1366 2784 1373.16 2784 1382 2784 1390.84 2776.61 1398 2767.5 1398 2758.39 1398 2751 1390.84 2751 1382Z" fill="#003C84" fill-rule="evenodd"/><path d="M2664 1508.5C2664 1499.39 2671.39 1492 2680.5 1492 2689.61 1492 2697 1499.39 2697 1508.5 2697 1517.61 2689.61 1525 2680.5 1525 2671.39 1525 2664 1517.61 2664 1508.5Z" fill="#003C84" fill-rule="evenodd"/><path d="M2513 1342C2513 1333.16 2520.16 1326 2529 1326 2537.84 1326 2545 1333.16 2545 1342 2545 1350.84 2537.84 1358 2529 1358 2520.16 1358 2513 1350.84 2513 1342Z" fill="#003C84" fill-rule="evenodd"/><path d="M2576 1499.5C2576 1490.39 2583.16 1483 2592 1483 2600.84 1483 2608 1490.39 2608 1499.5 2608 1508.61 2600.84 1516 2592 1516 2583.16 1516 2576 1508.61 2576 1499.5Z" fill="#003C84" fill-rule="evenodd"/><path d="M1865 1405.5C1865 1396.39 1872.16 1389 1881 1389 1889.84 1389 1897 1396.39 1897 1405.5 1897 1414.61 1889.84 1422 1881 1422 1872.16 1422 1865 1414.61 1865 1405.5Z" fill="#003C84" fill-rule="evenodd"/><path d="M1969 1415C1969 1406.16 1976.39 1399 1985.5 1399 1994.61 1399 2002 1406.16 2002 1415 2002 1423.84 1994.61 1431 1985.5 1431 1976.39 1431 1969 1423.84 1969 1415Z" fill="#003C84" fill-rule="evenodd"/><path d="M1953 1500.5C1953 1491.39 1960.39 1484 1969.5 1484 1978.61 1484 1986 1491.39 1986 1500.5 1986 1509.61 1978.61 1517 1969.5 1517 1960.39 1517 1953 1509.61 1953 1500.5Z" fill="#003C84" fill-rule="evenodd"/><path d="M1802 1333.5C1802 1324.39 1809.16 1317 1818 1317 1826.84 1317 1834 1324.39 1834 1333.5 1834 1342.61 1826.84 1350 1818 1350 1809.16 1350 1802 1342.61 1802 1333.5Z" fill="#003C84" fill-rule="evenodd"/><path d="M1912 1566C1912 1557.16 1919.39 1550 1928.5 1550 1937.61 1550 1945 1557.16 1945 1566 1945 1574.84 1937.61 1582 1928.5 1582 1919.39 1582 1912 1574.84 1912 1566Z" fill="#003C84" fill-rule="evenodd"/><path d="M1865 1491C1865 1482.16 1872.16 1475 1881 1475 1889.84 1475 1897 1482.16 1897 1491 1897 1499.84 1889.84 1507 1881 1507 1872.16 1507 1865 1499.84 1865 1491Z" fill="#003C84" fill-rule="evenodd"/><path d="M2158 1622.5C2158 1613.39 2165.39 1606 2174.5 1606 2183.61 1606 2191 1613.39 2191 1622.5 2191 1631.61 2183.61 1639 2174.5 1639 2165.39 1639 2158 1631.61 2158 1622.5Z" fill="#003C84" fill-rule="evenodd"/><path d="M2263 1631.5C2263 1622.39 2270.39 1615 2279.5 1615 2288.61 1615 2296 1622.39 2296 1631.5 2296 1640.61 2288.61 1648 2279.5 1648 2270.39 1648 2263 1640.61 2263 1631.5Z" fill="#003C84" fill-rule="evenodd"/><path d="M2247 1717C2247 1708.16 2254.16 1701 2263 1701 2271.84 1701 2279 1708.16 2279 1717 2279 1725.84 2271.84 1733 2263 1733 2254.16 1733 2247 1725.84 2247 1717Z" fill="#003C84" fill-rule="evenodd"/><path d="M2095 1550.5C2095 1541.39 2102.39 1534 2111.5 1534 2120.61 1534 2128 1541.39 2128 1550.5 2128 1559.61 2120.61 1567 2111.5 1567 2102.39 1567 2095 1559.61 2095 1550.5Z" fill="#003C84" fill-rule="evenodd"/><path d="M2206 1783C2206 1774.16 2213.39 1767 2222.5 1767 2231.61 1767 2239 1774.16 2239 1783 2239 1791.84 2231.61 1799 2222.5 1799 2213.39 1799 2206 1791.84 2206 1783Z" fill="#003C84" fill-rule="evenodd"/><path d="M2158 1708C2158 1699.16 2165.39 1692 2174.5 1692 2183.61 1692 2191 1699.16 2191 1708 2191 1716.84 2183.61 1724 2174.5 1724 2165.39 1724 2158 1716.84 2158 1708Z" fill="#003C84" fill-rule="evenodd"/><path d="M1877 1821C1877 1812.16 1884.16 1805 1893 1805 1901.84 1805 1909 1812.16 1909 1821 1909 1829.84 1901.84 1837 1893 1837 1884.16 1837 1877 1829.84 1877 1821Z" fill="#003C84" fill-rule="evenodd"/><path d="M1981 1830C1981 1821.16 1988.39 1814 1997.5 1814 2006.61 1814 2014 1821.16 2014 1830 2014 1838.84 2006.61 1846 1997.5 1846 1988.39 1846 1981 1838.84 1981 1830Z" fill="#003C84" fill-rule="evenodd"/><path d="M1813 1748.5C1813 1739.39 1820.39 1732 1829.5 1732 1838.61 1732 1846 1739.39 1846 1748.5 1846 1757.61 1838.61 1765 1829.5 1765 1820.39 1765 1813 1757.61 1813 1748.5Z" fill="#003C84" fill-rule="evenodd"/><path d="M1924 1981C1924 1972.16 1931.39 1965 1940.5 1965 1949.61 1965 1957 1972.16 1957 1981 1957 1989.84 1949.61 1997 1940.5 1997 1931.39 1997 1924 1989.84 1924 1981Z" fill="#003C84" fill-rule="evenodd"/><path d="M1877 1906.5C1877 1897.39 1884.16 1890 1893 1890 1901.84 1890 1909 1897.39 1909 1906.5 1909 1915.61 1901.84 1923 1893 1923 1884.16 1923 1877 1915.61 1877 1906.5Z" fill="#003C84" fill-rule="evenodd"/><path d="M2279 1330C2279 1321.16 2286.16 1314 2295 1314 2303.84 1314 2311 1321.16 2311 1330 2311 1338.84 2303.84 1346 2295 1346 2286.16 1346 2279 1338.84 2279 1330Z" fill="#003C84" fill-rule="evenodd"/><path d="M2318 1441C2318 1432.16 2325.16 1425 2334 1425 2342.84 1425 2350 1432.16 2350 1441 2350 1449.84 2342.84 1457 2334 1457 2325.16 1457 2318 1449.84 2318 1441Z" fill="#003C84" fill-rule="evenodd"/><path d="M2388 1400C2388 1391.16 2395.39 1384 2404.5 1384 2413.61 1384 2421 1391.16 2421 1400 2421 1408.84 2413.61 1416 2404.5 1416 2395.39 1416 2388 1408.84 2388 1400Z" fill="#003C84" fill-rule="evenodd"/><path d="M2301 1526.5C2301 1517.39 2308.39 1510 2317.5 1510 2326.61 1510 2334 1517.39 2334 1526.5 2334 1535.61 2326.61 1543 2317.5 1543 2308.39 1543 2301 1535.61 2301 1526.5Z" fill="#003C84" fill-rule="evenodd"/><path d="M2150 1359.5C2150 1350.39 2157.16 1343 2166 1343 2174.84 1343 2182 1350.39 2182 1359.5 2182 1368.61 2174.84 1376 2166 1376 2157.16 1376 2150 1368.61 2150 1359.5Z" fill="#003C84" fill-rule="evenodd"/><path d="M2261 1592C2261 1583.16 2268.16 1576 2277 1576 2285.84 1576 2293 1583.16 2293 1592 2293 1600.84 2285.84 1608 2277 1608 2268.16 1608 2261 1600.84 2261 1592Z" fill="#003C84" fill-rule="evenodd"/><path d="M2213 1517.5C2213 1508.39 2220.16 1501 2229 1501 2237.84 1501 2245 1508.39 2245 1517.5 2245 1526.61 2237.84 1534 2229 1534 2220.16 1534 2213 1526.61 2213 1517.5Z" fill="#003C84" fill-rule="evenodd"/><path d="M1934 1429C1934 1420.16 1941.39 1413 1950.5 1413 1959.61 1413 1967 1420.16 1967 1429 1967 1437.84 1959.61 1445 1950.5 1445 1941.39 1445 1934 1437.84 1934 1429Z" fill="#003C84" fill-rule="evenodd"/><path d="M1868 1531C1868 1522.16 1875.39 1515 1884.5 1515 1893.61 1515 1901 1522.16 1901 1531 1901 1539.84 1893.61 1547 1884.5 1547 1875.39 1547 1868 1539.84 1868 1531Z" fill="#003C84" fill-rule="evenodd"/><path d="M2044 1499.5C2044 1490.39 2051.16 1483 2060 1483 2068.84 1483 2076 1490.39 2076 1499.5 2076 1508.61 2068.84 1516 2060 1516 2051.16 1516 2044 1508.61 2044 1499.5Z" fill="#003C84" fill-rule="evenodd"/><path d="M1957 1625.5C1957 1616.39 1964.16 1609 1973 1609 1981.84 1609 1989 1616.39 1989 1625.5 1989 1634.61 1981.84 1642 1973 1642 1964.16 1642 1957 1634.61 1957 1625.5Z" fill="#003C84" fill-rule="evenodd"/><path d="M1805 1459C1805 1450.16 1812.39 1443 1821.5 1443 1830.61 1443 1838 1450.16 1838 1459 1838 1467.84 1830.61 1475 1821.5 1475 1812.39 1475 1805 1467.84 1805 1459Z" fill="#003C84" fill-rule="evenodd"/><path d="M1916 1691.5C1916 1682.39 1923.39 1675 1932.5 1675 1941.61 1675 1949 1682.39 1949 1691.5 1949 1700.61 1941.61 1708 1932.5 1708 1923.39 1708 1916 1700.61 1916 1691.5Z" fill="#003C84" fill-rule="evenodd"/><path d="M1868 1616.5C1868 1607.39 1875.39 1600 1884.5 1600 1893.61 1600 1901 1607.39 1901 1616.5 1901 1625.61 1893.61 1633 1884.5 1633 1875.39 1633 1868 1625.61 1868 1616.5Z" fill="#003C84" fill-rule="evenodd"/><path d="M2298 1036C2298 1027.16 2305.16 1020 2314 1020 2322.84 1020 2330 1027.16 2330 1036 2330 1044.84 2322.84 1052 2314 1052 2305.16 1052 2298 1044.84 2298 1036Z" fill="#003C84" fill-rule="evenodd"/><path d="M2232 1138C2232 1129.16 2239.16 1122 2248 1122 2256.84 1122 2264 1129.16 2264 1138 2264 1146.84 2256.84 1154 2248 1154 2239.16 1154 2232 1146.84 2232 1138Z" fill="#003C84" fill-rule="evenodd"/><path d="M2336 1147C2336 1138.16 2343.39 1131 2352.5 1131 2361.61 1131 2369 1138.16 2369 1147 2369 1155.84 2361.61 1163 2352.5 1163 2343.39 1163 2336 1155.84 2336 1147Z" fill="#003C84" fill-rule="evenodd"/><path d="M2407 1106C2407 1097.16 2414.16 1090 2423 1090 2431.84 1090 2439 1097.16 2439 1106 2439 1114.84 2431.84 1122 2423 1122 2414.16 1122 2407 1114.84 2407 1106Z" fill="#003C84" fill-rule="evenodd"/><path d="M2320 1232.5C2320 1223.39 2327.39 1216 2336.5 1216 2345.61 1216 2353 1223.39 2353 1232.5 2353 1241.61 2345.61 1249 2336.5 1249 2327.39 1249 2320 1241.61 2320 1232.5Z" fill="#003C84" fill-rule="evenodd"/><path d="M2168 1066C2168 1057.16 2175.39 1050 2184.5 1050 2193.61 1050 2201 1057.16 2201 1066 2201 1074.84 2193.61 1082 2184.5 1082 2175.39 1082 2168 1074.84 2168 1066Z" fill="#003C84" fill-rule="evenodd"/><path d="M2232 1223.5C2232 1214.39 2239.16 1207 2248 1207 2256.84 1207 2264 1214.39 2264 1223.5 2264 1232.61 2256.84 1240 2248 1240 2239.16 1240 2232 1232.61 2232 1223.5Z" fill="#003C84" fill-rule="evenodd"/><path d="M1967 1055C1967 1046.16 1974.39 1039 1983.5 1039 1992.61 1039 2000 1046.16 2000 1055 2000 1063.84 1992.61 1071 1983.5 1071 1974.39 1071 1967 1063.84 1967 1055Z" fill="#003C84" fill-rule="evenodd"/><path d="M1901 1157C1901 1148.16 1908.39 1141 1917.5 1141 1926.61 1141 1934 1148.16 1934 1157 1934 1165.84 1926.61 1173 1917.5 1173 1908.39 1173 1901 1165.84 1901 1157Z" fill="#003C84" fill-rule="evenodd"/><path d="M2006 1166C2006 1157.16 2013.39 1150 2022.5 1150 2031.61 1150 2039 1157.16 2039 1166 2039 1174.84 2031.61 1182 2022.5 1182 2013.39 1182 2006 1174.84 2006 1166Z" fill="#003C84" fill-rule="evenodd"/><path d="M2077 1125C2077 1116.16 2084.16 1109 2093 1109 2101.84 1109 2109 1116.16 2109 1125 2109 1133.84 2101.84 1141 2093 1141 2084.16 1141 2077 1133.84 2077 1125Z" fill="#003C84" fill-rule="evenodd"/><path d="M1990 1251.5C1990 1242.39 1997.16 1235 2006 1235 2014.84 1235 2022 1242.39 2022 1251.5 2022 1260.61 2014.84 1268 2006 1268 1997.16 1268 1990 1260.61 1990 1251.5Z" fill="#003C84" fill-rule="evenodd"/><path d="M1838 1085C1838 1076.16 1845.39 1069 1854.5 1069 1863.61 1069 1871 1076.16 1871 1085 1871 1093.84 1863.61 1101 1854.5 1101 1845.39 1101 1838 1093.84 1838 1085Z" fill="#003C84" fill-rule="evenodd"/><path d="M1949 1317C1949 1308.16 1956.39 1301 1965.5 1301 1974.61 1301 1982 1308.16 1982 1317 1982 1325.84 1974.61 1333 1965.5 1333 1956.39 1333 1949 1325.84 1949 1317Z" fill="#003C84" fill-rule="evenodd"/><path d="M1901 1242.5C1901 1233.39 1908.39 1226 1917.5 1226 1926.61 1226 1934 1233.39 1934 1242.5 1934 1251.61 1926.61 1259 1917.5 1259 1908.39 1259 1901 1251.61 1901 1242.5Z" fill="#003C84" fill-rule="evenodd"/><path d="M2569 1683C2569 1674.16 2576.16 1667 2585 1667 2593.84 1667 2601 1674.16 2601 1683 2601 1691.84 2593.84 1699 2585 1699 2576.16 1699 2569 1691.84 2569 1683Z" fill="#003C84" fill-rule="evenodd"/><path d="M2744 1651.5C2744 1642.39 2751.16 1635 2760 1635 2768.84 1635 2776 1642.39 2776 1651.5 2776 1660.61 2768.84 1668 2760 1668 2751.16 1668 2744 1660.61 2744 1651.5Z" fill="#003C84" fill-rule="evenodd"/><path d="M2657 1778C2657 1769.16 2664.39 1762 2673.5 1762 2682.61 1762 2690 1769.16 2690 1778 2690 1786.84 2682.61 1794 2673.5 1794 2664.39 1794 2657 1786.84 2657 1778Z" fill="#003C84" fill-rule="evenodd"/><path d="M2505 1611C2505 1602.16 2512.39 1595 2521.5 1595 2530.61 1595 2538 1602.16 2538 1611 2538 1619.84 2530.61 1627 2521.5 1627 2512.39 1627 2505 1619.84 2505 1611Z" fill="#003C84" fill-rule="evenodd"/><path d="M2616 1843.5C2616 1834.39 2623.39 1827 2632.5 1827 2641.61 1827 2649 1834.39 2649 1843.5 2649 1852.61 2641.61 1860 2632.5 1860 2623.39 1860 2616 1852.61 2616 1843.5Z" fill="#003C84" fill-rule="evenodd"/><path d="M2327 1685C2327 1676.16 2334.16 1669 2343 1669 2351.84 1669 2359 1676.16 2359 1685 2359 1693.84 2351.84 1701 2343 1701 2334.16 1701 2327 1693.84 2327 1685Z" fill="#003C84" fill-rule="evenodd"/><path d="M2261 1787C2261 1778.16 2268.16 1771 2277 1771 2285.84 1771 2293 1778.16 2293 1787 2293 1795.84 2285.84 1803 2277 1803 2268.16 1803 2261 1795.84 2261 1787Z" fill="#003C84" fill-rule="evenodd"/><path d="M2436 1755.5C2436 1746.39 2443.16 1739 2452 1739 2460.84 1739 2468 1746.39 2468 1755.5 2468 1764.61 2460.84 1772 2452 1772 2443.16 1772 2436 1764.61 2436 1755.5Z" fill="#003C84" fill-rule="evenodd"/><path d="M2349 1882C2349 1873.16 2356.39 1866 2365.5 1866 2374.61 1866 2382 1873.16 2382 1882 2382 1890.84 2374.61 1898 2365.5 1898 2356.39 1898 2349 1890.84 2349 1882Z" fill="#003C84" fill-rule="evenodd"/><path d="M2197 1715C2197 1706.16 2204.39 1699 2213.5 1699 2222.61 1699 2230 1706.16 2230 1715 2230 1723.84 2222.61 1731 2213.5 1731 2204.39 1731 2197 1723.84 2197 1715Z" fill="#003C84" fill-rule="evenodd"/><path d="M2308 1947.5C2308 1938.39 2315.39 1931 2324.5 1931 2333.61 1931 2341 1938.39 2341 1947.5 2341 1956.61 2333.61 1964 2324.5 1964 2315.39 1964 2308 1956.61 2308 1947.5Z" fill="#003C84" fill-rule="evenodd"/><path d="M2261 1872.5C2261 1863.39 2268.16 1856 2277 1856 2285.84 1856 2293 1863.39 2293 1872.5 2293 1881.61 2285.84 1889 2277 1889 2268.16 1889 2261 1881.61 2261 1872.5Z" fill="#003C84" fill-rule="evenodd"/><path d="M2663 1050C2663 1041.16 2670.16 1034 2679 1034 2687.84 1034 2695 1041.16 2695 1050 2695 1058.84 2687.84 1066 2679 1066 2670.16 1066 2663 1058.84 2663 1050Z" fill="#003C84" fill-rule="evenodd"/><path d="M2587 1127.5C2587 1118.39 2594.16 1111 2603 1111 2611.84 1111 2619 1118.39 2619 1127.5 2619 1136.61 2611.84 1144 2603 1144 2594.16 1144 2587 1136.61 2587 1127.5Z" fill="#003C84" fill-rule="evenodd"/><path d="M2691 1136.5C2691 1127.39 2698.39 1120 2707.5 1120 2716.61 1120 2724 1127.39 2724 1136.5 2724 1145.61 2716.61 1153 2707.5 1153 2698.39 1153 2691 1145.61 2691 1136.5Z" fill="#003C84" fill-rule="evenodd"/><path d="M2762 1095.5C2762 1086.39 2769.39 1079 2778.5 1079 2787.61 1079 2795 1086.39 2795 1095.5 2795 1104.61 2787.61 1112 2778.5 1112 2769.39 1112 2762 1104.61 2762 1095.5Z" fill="#003C84" fill-rule="evenodd"/><path d="M2675 1222C2675 1213.16 2682.39 1206 2691.5 1206 2700.61 1206 2708 1213.16 2708 1222 2708 1230.84 2700.61 1238 2691.5 1238 2682.39 1238 2675 1230.84 2675 1222Z" fill="#003C84" fill-rule="evenodd"/><path d="M2524 1055.5C2524 1046.39 2531.16 1039 2540 1039 2548.84 1039 2556 1046.39 2556 1055.5 2556 1064.61 2548.84 1072 2540 1072 2531.16 1072 2524 1064.61 2524 1055.5Z" fill="#003C84" fill-rule="evenodd"/><path d="M2587 1213C2587 1204.16 2594.16 1197 2603 1197 2611.84 1197 2619 1204.16 2619 1213 2619 1221.84 2611.84 1229 2603 1229 2594.16 1229 2587 1221.84 2587 1213Z" fill="#003C84" fill-rule="evenodd"/><path d="M2293.5 1998.66C1902.36 1998.66 1582.34 1678.64 1582.34 1287.5 1582.34 896.363 1902.36 576.342 2293.5 576.342 2684.64 576.342 3004.66 896.363 3004.66 1287.5 3004.66 1678.64 2684.64 1998.66 2293.5 1998.66ZM2293.5 443C1826.8 443 1449 820.803 1449 1287.5 1449 1754.2 1826.8 2132 2293.5 2132 2760.2 2132 3138 1754.2 3138 1287.5 3138 820.803 2760.2 443 2293.5 443Z" fill="#000000" fill-rule="evenodd" fill-opacity="0.25098"/><path d="M2337.91 843 2249 843 2249 1287.51C2249 1300.84 2253.45 1311.96 2262.34 1318.62L2575.76 1632 2638 1569.77 2337.91 1269.73 2337.91 843Z" fill="#000000" fill-rule="evenodd" fill-opacity="0.25098"/><path d="M2338 709.5C2338 734.077 2318.08 754 2293.5 754 2268.92 754 2249 734.077 2249 709.5 2249 684.924 2268.92 665 2293.5 665 2318.08 665 2338 684.924 2338 709.5Z" fill="#000000" fill-rule="evenodd" fill-opacity="0.25098"/><path d="M2338 1865.5C2338 1890.08 2318.08 1910 2293.5 1910 2268.92 1910 2249 1890.08 2249 1865.5 2249 1840.92 2268.92 1821 2293.5 1821 2318.08 1821 2338 1840.92 2338 1865.5Z" fill="#000000" fill-rule="evenodd" fill-opacity="0.25098"/><path d="M1760 1287.5C1760 1312.08 1740.08 1332 1715.5 1332 1690.92 1332 1671 1312.08 1671 1287.5 1671 1262.92 1690.92 1243 1715.5 1243 1740.08 1243 1760 1262.92 1760 1287.5Z" fill="#000000" fill-rule="evenodd" fill-opacity="0.25098"/><path d="M2916 1287.5C2916 1312.08 2896.08 1332 2871.5 1332 2846.92 1332 2827 1312.08 2827 1287.5 2827 1262.92 2846.92 1243 2871.5 1243 2896.08 1243 2916 1262.92 2916 1287.5Z" fill="#000000" fill-rule="evenodd" fill-opacity="0.25098"/></g></svg>