<?xml version="1.0" encoding="UTF-8" standalone="no"?>
<!-- Created with Inkscape (http://www.inkscape.org/) -->

<svg
   version="1.1"
   id="svg1"
   width="658.85968"
   height="251.29997"
   viewBox="0 0 658.85968 251.29998"
   sodipodi:docname="adepssolidus.svg"
   inkscape:version="1.4.2 (f4327f4, 2025-05-13)"
   xmlns:inkscape="http://www.inkscape.org/namespaces/inkscape"
   xmlns:sodipodi="http://sodipodi.sourceforge.net/DTD/sodipodi-0.dtd"
   xmlns="http://www.w3.org/2000/svg"
   xmlns:svg="http://www.w3.org/2000/svg">
  <defs
     id="defs1" />
  <sodipodi:namedview
     id="namedview1"
     pagecolor="#ffffff"
     bordercolor="#000000"
     borderopacity="0.25"
     inkscape:showpageshadow="2"
     inkscape:pageopacity="0.0"
     inkscape:pagecheckerboard="0"
     inkscape:deskcolor="#d1d1d1"
     inkscape:zoom="1.3993271"
     inkscape:cx="373.75107"
     inkscape:cy="187.23285"
     inkscape:window-width="1920"
     inkscape:window-height="1111"
     inkscape:window-x="-9"
     inkscape:window-y="-9"
     inkscape:window-maximized="1"
     inkscape:current-layer="g1" />
  <g
     inkscape:groupmode="layer"
     inkscape:label="Image"
     id="g1"
     transform="translate(27.870539,46.450905)">
    <path
       style="fill:#000000"
       d="m 628.05527,204.58842 c -0.36002,-0.39782 -0.19765,-1.11089 0.66501,-2.92052 0.82128,-1.72282 1.0379,-2.69058 0.67051,-2.99549 -0.36125,-0.29981 -0.7625,-0.0264 -2.59008,1.76508 -0.97845,0.95909 -1.96878,1.84 -2.20073,1.95756 -0.51975,0.26342 -1.09347,0.27245 -1.68219,0.0265 -1.12008,-0.468 -1.15569,-1.96023 -0.10874,-4.55671 0.78294,-1.94171 0.89761,-2.39289 0.70135,-2.7596 -0.3496,-0.65323 -1.19581,-0.19498 -2.48073,1.3434 -1.17075,1.40169 -1.99898,2.13289 -2.7338,2.41352 -0.7163,0.27356 -1.15341,0.17659 -1.70902,-0.37914 -0.82426,-0.82445 -0.73584,-2.05315 0.3287,-4.56717 0.43435,-1.02577 0.66072,-1.74672 0.66072,-2.10427 0,-1.15031 -0.73976,-0.84074 -2.83321,1.18564 -1.89711,1.83632 -2.45194,2.23207 -3.1293,2.23207 -0.38395,0 -0.61154,-0.1037 -0.99069,-0.45139 l -0.49223,-0.45139 v -1.22877 c 0,-1.19161 0.0189,-1.26882 0.62474,-2.55233 0.63372,-1.34257 0.86119,-2.27027 0.70716,-2.88399 -0.16351,-0.65147 -0.55625,-0.41734 -2.49953,1.49012 -1.02479,1.0059 -2.05304,1.92504 -2.28499,2.04255 -0.56396,0.2857 -1.12695,0.26928 -1.75513,-0.0512 -0.66497,-0.33924 -0.95024,-0.88806 -0.91475,-1.75986 0.0151,-0.3722 0.0202,-0.72166 0.0112,-0.77658 -0.0243,-0.14847 -2.21366,0.97979 -11.67867,6.0185 -4.71105,2.50794 -9.52068,5.04616 -10.68807,5.64049 l -2.12252,1.08061 -1.30369,-0.77438 c -2.26758,-1.3469 -8.43645,-5.14522 -16.03459,-9.87286 -4.04324,-2.51575 -7.42974,-4.60417 -7.52556,-4.64094 -0.0958,-0.0368 -5.94955,3.02628 -13.0083,6.80678 -7.05875,3.78049 -12.89339,6.87635 -12.96586,6.87968 -0.0725,0.003 -5.60503,-3.39062 -12.29455,-7.54211 -11.83664,-7.34577 -12.17714,-7.54623 -12.69889,-7.47625 -0.80809,0.10839 -4.0957,1.77533 -15.5201,7.86928 l -10.39288,5.54372 -7.02998,-4.37529 c -6.77266,-4.21514 -14.22963,-8.81361 -16.60215,-10.23801 -0.62613,-0.37591 -1.24107,-0.68348 -1.36655,-0.68348 -0.25757,0 -5.13715,2.55097 -15.94391,8.33522 -4.05875,2.17243 -7.97647,4.26874 -8.70605,4.65848 l -1.3265,0.70861 -0.51838,-0.38099 c -1.15381,-0.848 -14.48211,-9.11776 -21.17149,-13.13621 l -3.16744,-1.90274 -3.44182,1.76458 c -1.89301,0.97052 -6.19927,3.23322 -9.56948,5.02823 -6.83213,3.63885 -12.66716,6.65303 -12.87936,6.65303 -0.26416,0 -9.0239,-5.3372 -19.96577,-12.1649 l -4.97416,-3.10387 -7.54472,4.02257 c -13.45775,7.17518 -18.24403,9.6089 -18.67549,9.49607 -0.24528,-0.0641 -7.45657,-4.49277 -17.92619,-11.00889 -3.66012,-2.27801 -6.71407,-4.14081 -6.78654,-4.13957 -0.0725,0.001 -2.77063,1.42266 -5.99589,3.1587 -8.33851,4.48835 -16.24471,8.68477 -18.30291,9.71476 -1.36876,0.68497 -1.78974,0.84388 -1.87582,0.7081 -0.30595,-0.48261 0.002,-0.74684 2.72488,-2.3398 2.8174,-1.64811 13.40693,-7.34866 21.15111,-11.38605 l 2.18182,-1.13748 1.44207,0.80104 c 1.96588,1.092 4.74774,2.76746 10.6665,6.42425 5.68744,3.51387 12.06667,7.39046 12.70346,7.71976 l 0.42819,0.22142 3.77872,-1.96918 c 2.07829,-1.08306 7.30706,-3.85108 11.61949,-6.15117 9.0571,-4.83073 9.78787,-5.20618 10.13302,-5.20618 0.84109,0 2.33019,0.88888 21.74594,12.98079 1.84201,1.14718 3.41346,2.08553 3.49211,2.08522 0.0787,-3.1e-4 3.25624,-1.66266 7.06132,-3.69411 13.87911,-7.40975 18.8751,-9.99023 19.13996,-9.886 0.091,0.0358 4.25716,2.61154 9.25812,5.72385 10.58165,6.58541 14.89543,9.24719 15.1359,9.33947 0.31962,0.12264 5.97274,-2.78 19.56272,-10.04466 3.57401,-1.91052 6.55331,-3.47368 6.62067,-3.47368 0.0673,0 2.42086,1.43157 5.23,3.18127 7.50866,4.67682 14.84015,9.21382 17.16519,10.62244 1.84776,1.11946 2.0931,1.23218 2.57254,1.1819 0.74362,-0.078 3.54469,-1.46107 11.39589,-5.62696 8.0343,-4.26304 13.85319,-7.21664 14.4311,-7.32506 0.34228,-0.0642 0.62403,0.0445 1.59091,0.61384 1.51165,0.89013 6.57464,3.98756 10.86062,6.6443 4.9263,3.05364 9.61622,5.91382 11.26001,6.86699 l 1.44257,0.83648 2.28682,-1.18771 c 1.25775,-0.65324 5.79734,-3.06237 10.08797,-5.35362 4.29063,-2.29125 9.0606,-4.8144 10.59994,-5.607 l 2.79878,-1.4411 1.61577,0.95471 c 2.25386,1.33173 8.87698,5.41165 16.57252,10.20885 3.58765,2.23645 6.64159,4.06834 6.78655,4.07088 0.24895,0.004 5.89998,-2.97294 19.55584,-10.30314 4.24692,-2.27966 6.08215,-3.19988 6.32533,-3.17164 0.484,0.0562 0.50512,0.53934 0.0794,1.81754 -0.19111,0.57383 -0.32868,1.23879 -0.30572,1.47768 0.0394,0.40967 0.0698,0.43349 0.53521,0.41937 0.68474,-0.0208 1.45633,-0.56488 1.78843,-1.26116 0.43973,-0.92194 0.53948,-2.23588 0.74635,-9.83077 0.24253,-8.90426 0.44176,-13.9333 0.59579,-15.03886 0.11761,-0.84414 0.25823,-1.06051 0.69168,-1.0643 0.21367,-0.002 0.23043,0.24254 0.22804,3.32537 -0.001,1.83006 -0.0894,6.17378 -0.19543,9.65271 -0.22349,7.32986 -0.24737,10.6081 -0.0773,10.6081 0.066,0 0.45318,-0.12748 0.86033,-0.28329 0.64859,-0.2482 0.80601,-0.26359 1.27116,-0.12422 0.29199,0.0875 0.64182,0.26998 0.7774,0.40556 0.61015,0.61015 0.40385,2.38957 -0.5306,4.57673 -0.62356,1.45947 -0.82278,2.61628 -0.47363,2.75026 0.49566,0.1902 0.96541,-0.13946 2.56741,-1.80175 2.03048,-2.1069 2.28991,-2.28089 3.27873,-2.19889 0.62034,0.0514 0.79775,0.12707 1.1051,0.47105 0.71427,0.7994 0.63397,1.98998 -0.26751,3.96647 -0.8035,1.76168 -1.04096,3.07662 -0.61886,3.42694 0.23438,0.19452 0.55413,-0.0608 2.71619,-2.16929 0.90597,-0.88351 1.84884,-1.70902 2.09526,-1.83447 0.89322,-0.45473 1.64747,-0.2484 2.30338,0.63012 0.4487,0.60099 0.33887,1.38493 -0.48466,3.45927 -1.1032,2.77879 -1.22434,3.4846 -0.59806,3.4846 0.4096,0 0.95859,-0.43277 2.67996,-2.11262 0.86973,-0.84875 1.78388,-1.64638 2.03143,-1.77251 0.60218,-0.3068 1.63575,-0.21525 2.03088,0.17988 0.38423,0.38423 0.46919,1.99044 0.16757,3.16778 -0.26933,1.05131 -0.26487,1.19636 0.0368,1.19636 0.13608,0 0.3236,0.0918 0.41672,0.204 0.13879,0.16723 0.13271,0.28072 -0.0337,0.6297 -0.43921,0.92104 -1.70082,2.06541 -2.277,2.06541 -0.15909,0 -0.39538,-0.11727 -0.52509,-0.2606 z m -26.25159,-17.56233 c -0.14765,-0.22813 -0.0902,-3.59831 0.21627,-12.68359 0.29066,-8.617 0.3635,-10.05608 0.54456,-10.75927 0.13446,-0.52221 0.44417,-0.73157 0.7306,-0.49386 0.24082,0.19987 0.23752,2.97038 -0.0129,10.79191 -0.31234,9.75741 -0.45227,12.25322 -0.72756,12.97729 -0.13512,0.35539 -0.56706,0.45174 -0.75101,0.16752 z m 2.72601,-26.62512 c -1.21731,-0.34329 -2.77745,-1.76265 -3.40189,-3.09494 -0.33699,-0.71899 -0.35317,-0.85023 -0.35317,-2.86472 v -2.11122 l 0.43335,-0.88026 c 0.77025,-1.56461 2.59863,-2.94149 4.16032,-3.13299 3.69539,-0.45314 6.61722,2.56962 6.36849,6.58846 -0.14943,2.41435 -1.31569,4.27433 -3.25317,5.18824 -0.73886,0.34852 -1.02858,0.4089 -2.10844,0.43943 -0.72593,0.0205 -1.50128,-0.0349 -1.84549,-0.132 z m 3.04453,-1.29131 c 0.74153,-0.18559 1.33298,-0.65829 1.8013,-1.43964 0.5771,-0.96284 0.70517,-1.42749 0.78414,-2.84497 0.10715,-1.92312 -0.32651,-3.32021 -1.3478,-4.34211 -0.64021,-0.64061 -1.47217,-0.91918 -2.70024,-0.90416 -1.99522,0.0244 -3.27485,1.03733 -3.77454,2.98782 -0.30341,1.18433 -0.19975,3.48534 0.19705,4.374 0.93098,2.08501 2.56542,2.78842 5.04009,2.16906 z M 435.39371,143.19294 c -1.66444,-0.43071 -3.22297,-2.12216 -3.83941,-4.16685 -0.32979,-1.09388 -0.32467,-3.58681 0.0101,-4.94166 0.62245,-2.51874 1.64274,-3.69881 3.7706,-4.36107 3.08521,-0.96022 6.38694,0.12378 7.69451,2.52622 0.56158,1.0318 0.74204,1.86927 0.8213,3.81152 0.083,2.03322 -0.0552,3.0142 -0.57553,4.0851 -0.44366,0.91314 -1.73882,2.2237 -2.6801,2.71197 -0.69059,0.35822 -0.8074,0.37536 -2.76362,0.40555 -1.12341,0.0173 -2.22046,-0.0145 -2.43789,-0.0708 z m 3.38833,-1.72628 c 0.95436,-0.35733 1.56398,-0.89642 2.04083,-1.80474 0.53953,-1.02772 0.75618,-1.98902 0.75209,-3.33727 -0.0101,-3.34799 -2.05778,-5.57493 -4.62999,-5.0354 -2.12836,0.44643 -3.33222,2.23681 -3.32869,4.95045 0.005,3.86527 2.38114,6.26954 5.16576,5.22696 z m 7.91039,-5.10906 0.0342,-6.68772 0.82937,0.002 c 0.93944,0.002 1.07621,0.11326 1.07939,0.88019 0.003,0.7756 0.23809,0.74632 1.0527,-0.13122 0.85993,-0.92638 1.18359,-1.08279 2.2194,-1.0725 1.01564,0.0101 1.62856,0.23858 1.84329,0.6872 0.14824,0.30969 0.14263,0.47587 -0.0369,1.09341 -0.11644,0.40052 -0.29597,0.76055 -0.39897,0.80008 -0.103,0.0395 -0.4895,-0.0285 -0.8589,-0.15122 -1.23395,-0.40985 -2.27769,0.0699 -2.83815,1.30466 -0.39616,0.87276 -0.54876,2.40321 -0.66165,6.63592 l -0.0888,3.32738 h -1.10457 -1.10457 z m -234.85946,-4.64516 v -9.48799 l 0.8895,0.003 c 2.23466,0.008 8.63785,0.26872 9.58682,0.39016 0.57982,0.0742 1.35879,0.22328 1.73104,0.3313 0.94366,0.27381 1.87726,1.14217 2.36603,2.20071 0.35295,0.76438 0.38337,0.9505 0.38337,2.3457 0,1.8548 -0.26588,2.58057 -1.27906,3.49151 -0.75541,0.67918 -2.34621,1.51604 -2.88186,1.51604 -0.68006,0 -0.57253,0.27347 0.53674,1.36503 0.59859,0.58902 1.34313,1.40206 1.65453,1.80675 0.5592,0.72672 3.1651,4.65454 3.4692,5.22905 l 0.15694,0.29649 h -1.52479 -1.5248 l -1.39905,-2.14138 c -1.70509,-2.60981 -3.34205,-4.84579 -3.87734,-5.29621 -0.21898,-0.18426 -0.70756,-0.42497 -1.08574,-0.53491 -0.59119,-0.17186 -3.21308,-0.44901 -4.33537,-0.45827 l -0.36239,-0.003 v 4.21688 4.21688 h -1.25188 -1.25189 z m 9.21579,-1.0566 c 1.16581,-0.19659 2.03215,-0.59645 2.5613,-1.18215 0.57763,-0.63936 0.78493,-1.29242 0.7154,-2.25363 -0.0636,-0.87936 -0.4552,-1.48398 -1.38916,-2.14485 -0.70433,-0.49838 -1.97839,-0.62762 -5.72053,-0.58026 l -2.81314,0.0356 -0.0353,3.21602 -0.0353,3.21603 2.93444,-0.0819 c 1.61394,-0.045 3.316,-0.14624 3.78235,-0.22488 z m 9.36485,4.28515 v -1.12011 h 6.19355 6.19355 v 1.12011 1.12011 h -6.19355 -6.19355 z m 0,-5.79822 v -1.12011 h 6.19355 6.19355 v 1.12011 1.12011 h -6.19355 -6.19355 z m 385.44761,-21.48209 c -0.28134,-0.339 -0.0551,-1.40513 0.65799,-3.10038 0.74845,-1.77939 0.95339,-2.7083 0.62529,-2.83421 -0.36096,-0.13851 -0.97919,0.30813 -2.74931,1.98626 -1.11327,1.0554 -1.98867,1.76901 -2.44248,1.99104 -0.66311,0.32443 -0.7379,0.33442 -1.19661,0.15983 -0.71084,-0.27054 -1.08666,-0.89727 -1.08575,-1.81063 9.2e-4,-0.91855 0.14746,-1.45993 0.82409,-3.04434 0.43117,-1.009645 0.53696,-1.417625 0.54673,-2.108435 0.0118,-0.83662 0.004,-0.85751 -0.3446,-0.89771 -0.38432,-0.0443 -0.62417,0.1695 -2.82774,2.520935 -1.41117,1.50588 -2.24121,1.83628 -3.39841,1.35277 -1.12055,-0.46819 -1.14225,-1.55405 -0.0865,-4.326535 0.74185,-1.94808 0.88515,-2.52989 0.75289,-3.05686 -0.15979,-0.63666 -0.54865,-0.40143 -2.56341,1.55065 -2.11508,2.04928 -2.86989,2.54939 -3.63199,2.40642 -1.52038,-0.28523 -1.63082,-1.93229 -0.34327,-5.11955 0.74472,-1.84355 0.86989,-2.73211 0.38484,-2.73211 -0.42195,0 -0.96034,0.42558 -2.75473,2.17749 -0.90597,0.88453 -1.78729,1.68124 -1.95848,1.77046 -0.3746,0.19524 -1.4893,0.20541 -1.84171,0.0168 -0.3272,-0.17512 -0.62896,-0.93868 -0.74824,-1.89337 -0.052,-0.4164 -0.1459,-0.78881 -0.20862,-0.82758 -0.0627,-0.0388 -4.48846,2.26718 -9.83498,5.12432 -5.34652,2.85713 -10.79692,5.767935 -12.112,6.468455 l -2.39106,1.27367 -3.7366,-2.33168 C 551.20745,94.770245 545.68092,91.401925 543.22139,90.080005 l -1.28414,-0.69019 -1.81263,0.95357 c -0.99695,0.52447 -4.51078,2.38891 -7.80852,4.14321 -7.79607,4.14728 -13.20455,6.996835 -14.72749,7.759455 l -1.22028,0.61107 -0.53114,-0.27097 c -0.7839,-0.39992 -4.79331,-2.836245 -11.92068,-7.243635 -8.46237,-5.23292 -12.25634,-7.51203 -12.50505,-7.51203 -0.28144,0 -6.75894,3.29754 -13.45357,6.84889 -7.65474,4.06067 -12.36113,6.460645 -12.66943,6.460645 -0.29556,0 -0.1152,0.10812 -6.30661,-3.780595 -4.92626,-3.0941 -12.5134,-7.77258 -16.2472,-10.01855 l -2.27877,-1.37074 -4.969,2.597 c -5.91242,3.09008 -15.82356,8.36789 -18.41031,9.80374 -1.01469,0.56323 -1.982,1.06606 -2.14958,1.11741 -0.35012,0.10729 -3.02816,-1.466 -13.00485,-7.64003 -9.3864,-5.80874 -12.19283,-7.46039 -12.50929,-7.36199 -0.40864,0.12706 -6.12269,3.1103 -15.49345,8.08896 -4.60234,2.4452 -8.79034,4.65798 -9.30667,4.91728 l -0.93879,0.47145 -1.43321,-0.87129 c -0.78826,-0.47921 -6.14755,-3.78805 -11.90953,-7.35298 -5.76197,-3.56492 -10.72541,-6.62367 -11.02985,-6.79723 l -0.55354,-0.31555 -1.02779,0.50805 c -0.56529,0.27942 -4.73405,2.48009 -9.2639,4.89037 -9.54789,5.08031 -14.96177,7.90742 -15.39136,8.03734 -0.29432,0.089 -0.68551,-0.10316 -0.68551,-0.33675 0,-0.15549 1.23359,-0.97258 3.14553,-2.08351 3.15394,-1.83258 16.68977,-9.07165 20.96966,-11.21475 l 2.12894,-1.06603 1.24928,0.67347 c 1.81672,0.97936 4.84009,2.78566 10.65621,6.36651 6.44283,3.9667 11.62026,7.08468 12.65636,7.62198 l 0.79637,0.41298 4.60651,-2.44387 c 2.53358,-1.34413 6.41516,-3.4069 8.62573,-4.58394 5.24486,-2.79266 11.58609,-6.00555 12.23934,-6.20127 0.50216,-0.15045 0.54887,-0.13531 1.68285,0.54546 1.57047,0.94282 11.56864,7.11851 17.87805,11.04296 2.8134,1.74993 5.22916,3.24265 5.36835,3.31714 0.21041,0.11261 1.9367,-0.76231 10.23683,-5.18819 5.49105,-2.928 11.30107,-6.01591 12.91116,-6.86201 l 2.92742,-1.53836 0.41067,0.21237 c 0.48417,0.25037 3.91528,2.36115 13.6329,8.38679 11.17486,6.929225 10.399,6.47999 11.04356,6.39447 0.32045,-0.0425 1.60544,-0.6018 3.05665,-1.3304 1.95806,-0.98307 14.79922,-7.79222 21.74331,-11.5296 l 1.05422,-0.56739 6.39121,3.98113 c 10.88684,6.78149 18.02075,11.190655 18.34578,11.338745 0.27339,0.12456 0.63245,-0.0301 2.94163,-1.26701 13.91237,-7.452225 22.40258,-11.929035 22.95686,-12.104965 0.21015,-0.0667 0.81054,0.2281 2.42924,1.19278 2.03132,1.21058 3.50543,2.11468 14.40542,8.83509 7.1137,4.385965 8.08174,4.943115 8.41045,4.840565 0.59817,-0.1866 7.50594,-3.709385 13.39875,-6.833005 6.93417,-3.67562 12.28269,-6.39869 12.56802,-6.39869 0.30636,0 0.31841,0.25957 0.0642,1.38367 -0.29384,1.29947 -0.3184,2.28627 -0.0594,2.38567 0.31221,0.1198 0.91552,-0.28487 1.74216,-1.16855 l 0.7882,-0.84259 0.16384,-7.36915 c 0.20324,-9.14187 0.37154,-13.50689 0.54571,-14.15371 0.18269,-0.67843 0.45981,-0.90207 0.65828,-0.53123 0.28312,0.52902 0.30337,4.48217 0.0637,12.43906 -0.13229,4.39249 -0.20391,8.02298 -0.15914,8.06774 0.0448,0.0448 0.27012,-0.053 0.50078,-0.21723 0.8773,-0.62469 2.15474,-0.3303 2.71498,0.62568 0.46653,0.79607 0.37737,1.40499 -0.54398,3.7154 -0.83537,2.09482 -1.00546,2.89354 -0.67463,3.16811 0.33594,0.2788 0.62826,0.0736 2.64575,-1.85696 1.01469,-0.97098 2.05944,-1.89728 2.32166,-2.05844 1.07173,-0.65868 2.10909,-0.1654 2.29774,1.0926 0.13432,0.89569 -0.1013,1.99788 -0.78847,3.68834 -0.70147,1.72562 -0.84982,2.440875 -0.55671,2.684125 0.35581,0.2953 1.07165,-0.19195 2.97136,-2.022485 1.89793,-1.82883 2.36398,-2.12871 3.09507,-1.99156 1.53221,0.28745 1.78667,1.85711 0.72464,4.470025 -0.54248,1.33467 -0.90221,2.47245 -0.90518,2.863 -8.6e-4,0.11299 0.0802,0.31724 0.18013,0.4539 0.17686,0.24187 0.19175,0.24203 0.56005,0.006 0.2081,-0.13349 1.1036,-0.97308 1.99,-1.86577 1.77384,-1.78641 2.18787,-2.06769 3.06647,-2.08327 1.6623,-0.0295 2.13978,0.88112 1.63222,3.11273 -0.1682,0.7395 -0.18198,1.03751 -0.0659,1.42497 0.22085,0.73713 0.18079,1.0789 -0.19424,1.65728 -0.61966,0.95567 -1.73643,1.42419 -2.1647,0.90816 z M 67.800018,87.698715 v -11.85999 l 1.54839,0.003 c 3.44569,0.007 11.40726,0.2617 12.24744,0.39183 1.95495,0.30279 3.55444,1.55599 4.492,3.5195 0.48561,1.01699 0.49047,1.04356 0.48889,2.67442 -0.001,1.42793 -0.0436,1.75247 -0.31739,2.43788 -0.6305,1.57858 -2.59489,3.06887 -5.05095,3.83194 -0.41675,0.12947 -0.75772,0.28155 -0.75772,0.33793 0,0.0564 0.43328,0.42296 0.96284,0.81459 1.4864,1.09924 2.19152,1.99971 5.22182,6.66852 l 1.97327,3.04023 h -2.00377 -2.00376 l -0.65859,-1.08396 c -1.19198,-1.96186 -3.50941,-5.41992 -4.35147,-6.49326 -1.04495,-1.33195 -1.7149,-1.97683 -2.31212,-2.22559 -0.5878,-0.24484 -2.47036,-0.56404 -3.94421,-0.66875 -0.61606,-0.0438 -1.40179,-0.11279 -1.74606,-0.15337 l -0.62595,-0.0738 v 5.34936 5.34936 h -1.58133 -1.58133 z m 11.51659,-1.45285 c 1.65967,-0.16279 2.08452,-0.3117 2.84217,-0.99619 1.81977,-1.64405 1.6246,-4.81229 -0.36295,-5.89194 -1.23347,-0.67003 -2.07338,-0.777 -6.6492,-0.84686 l -4.18395,-0.0639 v 3.945 c 0,2.16976 0.0246,3.96972 0.0547,3.99992 0.10983,0.11028 6.90498,-0.009 8.29925,-0.14606 z m 510.306422,4.05778 c -0.29068,-0.54314 0.0592,-18.38011 0.3959,-20.1823 0.0653,-0.34955 0.2178,-0.73311 0.33888,-0.85236 0.20447,-0.20136 0.23473,-0.19802 0.42467,0.0467 0.18107,0.23335 0.19542,1.01881 0.12519,6.85244 -0.0855,7.10069 -0.26843,12.0466 -0.49232,13.30954 -0.19685,1.11049 -0.48133,1.40703 -0.79232,0.82593 z M 92.309708,81.919815 c -0.52721,-0.52721 -0.51635,-0.96918 0.0339,-1.37944 1.35121,-1.00744 16.150642,-8.67119 19.780622,-10.24322 l 1.03526,-0.44833 0.31546,0.36675 c 0.39549,0.45978 0.40234,0.93626 0.019,1.31867 -0.3227,0.32188 -2.43438,1.48825 -7.54427,4.167 -3.96702,2.07963 -12.532332,6.39367 -12.948112,6.5215 -0.22712,0.0698 -0.3907,-0.002 -0.69183,-0.30293 z M 221.71629,65.955405 v -11.85998 l 2.20728,0.004 c 3.80906,0.007 10.73352,0.23719 11.67514,0.38779 2.21328,0.35398 4.02787,1.99204 4.71842,4.2594 0.36892,1.21133 0.29947,3.20977 -0.15207,4.37541 -0.59929,1.54706 -2.60677,3.06137 -5.10043,3.84743 -0.38373,0.12095 -0.69769,0.26618 -0.69769,0.32272 0,0.0565 0.34725,0.33862 0.77167,0.62684 0.42442,0.28821 1.14318,0.9279 1.59723,1.42152 0.66444,0.72233 3.29972,4.55118 5.44978,7.9181 l 0.35985,0.56351 -2.00654,-0.0364 -2.00654,-0.0364 -1.73077,-2.71564 c -2.88329,-4.52398 -4.45216,-6.50412 -5.53145,-6.98147 -0.70632,-0.31239 -2.40179,-0.6069 -4.45467,-0.77381 -0.92804,-0.0755 -1.74342,-0.13718 -1.81195,-0.13718 -0.0762,0 -0.1246,2.07181 -0.1246,5.33699 v 5.337 h -1.58133 -1.58133 z m 11.3847,-1.45412 c 0.89494,-0.0849 1.67607,-0.23962 2.07439,-0.41097 1.83852,-0.79091 2.68384,-3.20678 1.79862,-5.14035 -0.82264,-1.79689 -2.43803,-2.21899 -8.49211,-2.21899 h -3.60294 v 3.95333 3.95333 l 3.39328,-1.1e-4 c 1.8663,-6e-5 4.03924,-0.0614 4.82876,-0.13624 z m -106.13281,8.50621 c -3.58329,-0.715 -6.6264,-3.24596 -7.92458,-6.59087 -0.73923,-1.90473 -0.9366,-3.24127 -0.86592,-5.8641 0.0748,-2.77692 0.32244,-3.91845 1.27427,-5.87431 0.71876,-1.47697 1.87719,-2.84937 3.34097,-3.95808 2.85123,-2.15962 7.37672,-2.58663 11.15268,-1.05232 2.91633,1.18501 4.70617,3.21124 5.98747,6.77824 1.59024,4.42708 0.50349,10.34616 -2.46867,13.4458 -2.43135,2.53563 -6.84186,3.84482 -10.49622,3.11564 z m 4.67834,-2.89558 c 2.93193,-0.98033 4.5785,-2.72541 5.35176,-5.67195 0.33778,-1.28711 0.49163,-4.82483 0.26362,-6.06177 -0.1774,-0.96244 -1.22194,-3.14772 -2.00576,-4.19628 -0.62709,-0.83889 -1.83393,-1.82312 -2.7243,-2.22178 -2.8167,-1.26117 -6.72937,-0.43529 -8.91519,1.8818 -0.94329,0.99993 -1.6063,2.23853 -2.00499,3.74559 -0.19687,0.74417 -0.2438,1.40634 -0.24283,3.42622 10e-4,2.2169 0.0359,2.62404 0.30387,3.55337 0.45889,1.59136 1.00229,2.50761 2.19389,3.69921 1.72987,1.72987 3.20884,2.33713 5.47382,2.24753 0.90383,-0.0357 1.5453,-0.14756 2.30611,-0.40194 z m 460.75657,-3.41309 c -0.97534,-0.21013 -1.75543,-0.68883 -2.64835,-1.62514 -1.20039,-1.25872 -1.56488,-2.28108 -1.56488,-4.38938 0,-2.19705 0.44788,-3.3474 1.7933,-4.60598 1.07108,-1.00194 2.03843,-1.47285 3.19563,-1.55565 3.46776,-0.24812 6.08443,2.43029 6.07883,6.22226 -0.004,2.42372 -1.11829,4.45133 -2.98944,5.43765 -1.26861,0.6687 -2.43458,0.82444 -3.86509,0.51624 z m 2.57344,-1.34198 c 1.08247,-0.28195 1.55188,-0.68588 2.10148,-1.80833 1.31269,-2.68093 0.58087,-6.35803 -1.46448,-7.35837 -0.85997,-0.42059 -2.38379,-0.50107 -3.35838,-0.17737 -0.99426,0.33025 -1.95084,1.31735 -2.29227,2.36542 -0.37956,1.16513 -0.35354,3.66389 0.0488,4.68856 0.82012,2.08852 2.5952,2.9073 4.96483,2.29009 z m -363.2586,-14.62216 c -0.30213,-0.16323 -0.35291,-0.29287 -0.42701,-1.09011 -0.26864,-2.89052 0.85123,-22.99674 1.35462,-24.32074 0.21356,-0.56171 0.86024,-0.64439 1.40114,-0.17913 l 0.35331,0.30391 -0.15406,3.94592 c -0.26308,6.7381 -0.8845,17.06387 -1.20057,19.94913 -0.067,0.61179 -0.19736,1.1836 -0.28963,1.27069 -0.28434,0.26835 -0.67911,0.31412 -1.0378,0.12033 z m -101.78118,-5.12001 c -0.23179,-0.16949 -0.23998,-0.37273 -0.15786,-3.92038 0.17363,-7.50146 1.30397,-31.7491501 1.67572,-35.9467101 0.0731,-0.82549 0.11649,-1.51293 0.0964,-1.52763 -0.0201,-0.0147 -0.48126,-0.31217 -1.02485,-0.66104 -0.54358,-0.34886 -8.04502,-5.18053 -16.66986,-10.73703 C 85.038078,-25.744055 83.296938,-26.859995 83.158298,-26.853295 c -0.0759,0.004 -4.52616,2.27003 -9.88951,5.03635 -11.577901,5.97167 -25.170362,12.7908899 -25.495562,12.7908899 -0.127287,0 -0.387678,-0.12291 -0.578646,-0.27312 -0.415231,-0.32662 -0.476035,-1.0234499 -0.116605,-1.3363299 0.289405,-0.25193 2.575161,-1.47628 8.862045,-4.74689 13.264498,-6.90056 25.651588,-13.13298 27.021348,-13.59547 l 0.7317,-0.24706 5.39596,3.48937 c 24.892492,16.0970399 42.812812,27.5653599 43.155192,27.6176599 0.18654,0.0285 0.8857,-0.16825 1.58133,-0.44497 1.48492,-0.59072002 9.9023,-4.81943 22.66082,-11.38432 5.10967,-2.6291799 13.57363,-6.9395799 18.80879,-9.5786599 8.57707,-4.32376 9.54804,-4.7827 9.81743,-4.64032 1.91096,1.00999 18.37216,11.51889 27.11571,17.3107799 4.28122,2.83595 5.98516,4.101 6.12739,4.54912 0.11423,0.35991 -0.2516,0.92331 -0.59952,0.92331 -0.82101,0 -4.54078,-2.29855 -24.24029,-14.9787999 -4.3849,-2.82249 -8.15807,-5.24084 -8.38481,-5.37411 l -0.41227,-0.24231 -25.42789,13.0783999 -25.42789,13.0784 -0.15313,1.40315 c -0.19456,1.78277 -0.43102,6.0636501 -1.0092,18.2706801 -0.61354,12.95356 -1.02605,20.19392 -1.19929,21.04987 -0.14259,0.70452 -1.02559,1.10652 -1.56465,0.71235 z m 101.66286,-26.36839 c -3.56982,-0.76342 -6.35394,-3.02525 -7.81615,-6.34989 -0.77206,-1.75542 -0.94148,-2.76875 -0.94427,-5.6479201 -0.002,-2.35023 0.0311,-2.76394 0.30802,-3.82155 0.74501,-2.84502002 2.35906,-5.17818 4.69313,-6.78406 1.52595,-1.04988 3.62827,-1.63031 5.9336,-1.63822 3.36663,-0.0115 6.48757,1.2329 8.40457,3.35125 0.90631,1.00150998 2.14278,3.39716 2.68532,5.20281 0.32686,1.08783 0.35691,1.37689 0.36301,3.49211 0.007,2.54411 -0.16596,3.5438401 -0.98024,5.6553601 -1.20381,3.12156 -3.9012,5.46587 -7.30999,6.35311 -1.36071,0.35416 -4.1056,0.45034 -5.337,0.187 z m 4.54633,-2.84201 c 2.96907,-0.92316 4.74662,-2.78423 5.53537,-5.79547 0.34215,-1.3062101 0.42923,-5.2012701 0.14145,-6.3270701 -0.5519,-2.15912 -2.0637,-4.42147002 -3.67459,-5.4989 -1.28901,-0.86214 -2.30222,-1.15416 -3.97889,-1.14678 -2.31552,0.0102 -4.26169,0.79733 -5.81038,2.35005998 -1.0379,1.04061002 -1.55289,1.96955002 -2.05459,3.70613002 -0.26944,0.93262 -0.30369,1.33004 -0.30075,3.49034 0.003,1.88175 0.0563,2.64832 0.23536,3.3603301 0.73979,2.94098 3.06715,5.38368 5.79189,6.07895 0.96965,0.24743 2.95762,0.14231 4.11513,-0.21759 z M 28.332618,9.6277649 c -4.023114,-0.94304 -6.826171,-3.45771 -8.087074,-7.25506 -0.565919,-1.70432002 -0.722094,-3.03325002 -0.640306,-5.44849 0.07889,-2.32981 0.353726,-3.65153 1.095883,-5.27034 0.829509,-1.8093399 2.307825,-3.5214799 4.024136,-4.6606399 2.740171,-1.81872 7.152265,-2.12362 10.525686,-0.72739 2.019722,0.83595 3.41002,1.8758 4.339463,3.24562 2.963855,4.3681599 3.324579,9.84127988 0.96491,14.6402399 -0.50716,1.03143 -0.813748,1.45141 -1.741022,2.3849 -1.486169,1.49613 -2.974028,2.33983 -5.225509,2.96316 -1.076726,0.29809 -4.205485,0.37428 -5.256167,0.128 z m 4.678106,-2.84181 c 2.334815,-0.78127 3.850575,-2.01479 4.724112,-3.84447 0.73334,-1.53602 0.969546,-2.69637002 1.041256,-5.11511 0.0774,-2.61078 -0.04431,-3.25787 -0.962293,-5.11609 -1.325458,-2.68304 -3.263695,-4.2727699 -5.65963,-4.6419899 -1.565339,-0.24123 -3.712424,0.15181 -5.266478,0.96405 -1.089479,0.56943 -2.526983,2.0384399 -3.060506,3.1275999 -0.851419,1.73812 -1.028523,2.6798 -1.028523,5.46877 0,2.22198998 0.03416,2.62189998 0.303513,3.55337 0.457933,1.5836 1.004778,2.50794 2.194744,3.70979 1.110891,1.12198 2.093624,1.72778 3.401317,2.09671 0.983489,0.27746 3.187197,0.17391 4.312488,-0.20263 z M 12.682815,-12.032455 c -1.655258,-0.85616 -3.1507334,-1.77826 -8.3337254,-5.13851 -7.540475,-4.88866 -8.272748,-5.44063 -8.139893,-6.13561 0.145339,-0.7603 0.689515,-0.76929 2.215292,-0.0366 2.623706,1.25992 14.6000034,9.0057 16.0336294,10.36989 0.700848,0.6669 0.769408,0.77927 0.686508,1.12511 -0.05065,0.21132 -0.117049,0.4287 -0.147545,0.48306 -0.148945,0.26549 -0.966621,0.0297 -2.314266,-0.66735 z m -40.553354,-22.55846 v -11.85999 h 0.507677 c 2.296949,0 12.047591,0.29978 12.933641,0.39763 2.643394,0.29195 4.7311366,2.20791 5.2788896,4.84456 0.216839,1.04376 0.09078,2.81176 -0.26781,3.75619 -0.580701,1.5294 -2.1515456,2.81124 -4.5530546,3.71539 -0.581579,0.21896 -1.085629,0.45364 -1.12011,0.52151 -0.03448,0.0679 0.366944,0.45332 0.892056,0.85656 1.051496,0.80744 1.738913,1.58153 2.991489,3.3687 0.903645,1.28931 4.0263086,6.09542 4.0263086,6.19692 0,0.0344 -0.879937,0.0625 -1.955416,0.0625 h -1.9554156 l -0.835114,-1.35073 c -1.413568,-2.28631 -3.653833,-5.56828 -4.548269,-6.66317 -1.335781,-1.63514 -1.963642,-1.96328 -4.331945,-2.26402 -1.452671,-0.18447 -3.767363,-0.35327 -3.840561,-0.28007 -0.03284,0.0328 -0.0597,2.42181 -0.0597,5.30884 v 5.24914 h -1.581331 -1.581332 z m 11.976456,-1.45317 c 1.268404,-0.16165 1.857718,-0.42525 2.544817,-1.13827 0.716277,-0.74331 1.022146,-1.51827 1.025593,-2.59849 0.0037,-1.15658 -0.191454,-1.79777 -0.743394,-2.44259 -1.032185,-1.20587 -2.26124,-1.45724 -7.588647,-1.55201 l -4.052162,-0.0721 v 4.05645 4.05645 l 3.854496,-0.0843 c 2.119972,-0.0464 4.351656,-0.14768 4.959297,-0.22512 z"
       id="path1" />
  </g>
</svg>
