<?xml version="1.0" encoding="UTF-8" standalone="no"?>
<!-- Created with Inkscape (http://www.inkscape.org/) -->

<svg
   version="1.1"
   id="svg1"
   width="2810.7112"
   height="1189.3308"
   viewBox="0 0 2810.7112 1189.3309"
   sodipodi:docname="agaragar.svg"
   xml:space="preserve"
   inkscape:version="1.4.2 (f4327f4, 2025-05-13)"
   xmlns:inkscape="http://www.inkscape.org/namespaces/inkscape"
   xmlns:sodipodi="http://sodipodi.sourceforge.net/DTD/sodipodi-0.dtd"
   xmlns="http://www.w3.org/2000/svg"
   xmlns:svg="http://www.w3.org/2000/svg"><defs
     id="defs1"><clipPath
       clipPathUnits="userSpaceOnUse"
       id="13085494739-clipPath1"><path
         d="M 0,0 H 1520 V 655 H 0 Z"
         id="path11-9" /></clipPath><clipPath
       clipPathUnits="userSpaceOnUse"
       id="clipPath3679"><path
         d="M 0,0 H 1520 V 655 H 0 Z"
         id="path3677" /></clipPath><clipPath
       clipPathUnits="userSpaceOnUse"
       id="clipPath3683"><path
         d="M 0,0 H 1520 V 655 H 0 Z"
         id="path3681" /></clipPath><clipPath
       clipPathUnits="userSpaceOnUse"
       id="clipPath3687"><path
         d="M 0,0 H 1520 V 655 H 0 Z"
         id="path3685" /></clipPath><clipPath
       clipPathUnits="userSpaceOnUse"
       id="clipPath3691"><path
         d="M 0,0 H 1520 V 655 H 0 Z"
         id="path3689" /></clipPath><clipPath
       clipPathUnits="userSpaceOnUse"
       id="clipPath3695"><path
         d="M 0,0 H 1520 V 655 H 0 Z"
         id="path3693" /></clipPath><defs
       id="172241740143-defs1"><clipPath
         clipPathUnits="userSpaceOnUse"
         id="1722417401333-clipPath1"><path
           d="M 0,0 H 590 V 315 H 0 Z"
           id="path11" /></clipPath><clipPath
         clipPathUnits="userSpaceOnUse"
         id="1722417401312-clipPath1"><path
           d="m -419.3506,-80.7739 h 590 v 315 h -590 z"
           id="path14" /></clipPath><clipPath
         clipPathUnits="userSpaceOnUse"
         id="1722417401349-clipPath1"><path
           d="m -218.9974,-162.5967 h 590 v 315 h -590 z"
           id="path17" /></clipPath><clipPath
         clipPathUnits="userSpaceOnUse"
         id="1722417401890-clipPath1"><path
           d="m -316.5032,-193.5334 h 590 v 315 h -590 z"
           id="path20" /></clipPath><clipPath
         clipPathUnits="userSpaceOnUse"
         id="172241740154-clipPath1"><path
           d="m -225.628,-257.8834 h 590 v 315 h -590 z"
           id="path23" /></clipPath><clipPath
         clipPathUnits="userSpaceOnUse"
         id="1722417401342-clipPath1"><path
           d="m -23.2346,-202.2236 h 590 v 315 h -590 z"
           id="path26" /></clipPath><clipPath
         clipPathUnits="userSpaceOnUse"
         id="1722417401955-clipPath1"><path
           d="m -81.0718,-89.4631 h 590 v 315 h -590 z"
           id="path29" /></clipPath><clipPath
         clipPathUnits="userSpaceOnUse"
         id="172241740122-clipPath1"><path
           d="M -163.7001,-63.9984 H 426.3 v 315 h -590.0001 z"
           id="path32" /></clipPath><clipPath
         clipPathUnits="userSpaceOnUse"
         id="1722417401614-clipPath1"><path
           d="m -515.8575,-96.5261 h 590 v 314.9999 h -590 z"
           id="path35" /></clipPath><clipPath
         clipPathUnits="userSpaceOnUse"
         id="1722417401994-clipPath1"><path
           d="m -347.6606,-172.9844 h 590 v 315 h -590 z"
           id="path38" /></clipPath><clipPath
         clipPathUnits="userSpaceOnUse"
         id="1722417401382-clipPath1"><path
           d="m -214.9463,-28.0858 h 589.9999 v 315 h -589.9999 z"
           id="path41" /></clipPath></defs><clipPath
       clipPathUnits="userSpaceOnUse"
       id="1722417401333-clipPath1-5"><path
         d="M 0,0 H 590 V 315 H 0 Z"
         id="path11-4" /></clipPath><clipPath
       clipPathUnits="userSpaceOnUse"
       id="clipPath1"><path
         d="M 0,0 H 590 V 315 H 0 Z"
         id="path1" /></clipPath><clipPath
       clipPathUnits="userSpaceOnUse"
       id="clipPath2"><path
         d="m -419.3506,-80.7739 h 590 v 315 h -590 z"
         id="path2" /></clipPath><clipPath
       clipPathUnits="userSpaceOnUse"
       id="clipPath3"><path
         d="m -218.9974,-162.5967 h 590 v 315 h -590 z"
         id="path3" /></clipPath><clipPath
       clipPathUnits="userSpaceOnUse"
       id="clipPath4"><path
         d="m -316.5032,-193.5334 h 590 v 315 h -590 z"
         id="path4" /></clipPath><clipPath
       clipPathUnits="userSpaceOnUse"
       id="clipPath5"><path
         d="m -225.628,-257.8834 h 590 v 315 h -590 z"
         id="path5" /></clipPath><clipPath
       clipPathUnits="userSpaceOnUse"
       id="clipPath6"><path
         d="m -23.2346,-202.2236 h 590 v 315 h -590 z"
         id="path6" /></clipPath><clipPath
       clipPathUnits="userSpaceOnUse"
       id="clipPath7"><path
         d="m -81.0718,-89.4631 h 590 v 315 h -590 z"
         id="path7" /></clipPath><clipPath
       clipPathUnits="userSpaceOnUse"
       id="clipPath8"><path
         d="M -163.7001,-63.9984 H 426.3 v 315 h -590.0001 z"
         id="path8" /></clipPath><clipPath
       clipPathUnits="userSpaceOnUse"
       id="clipPath9"><path
         d="m -515.8575,-96.5261 h 590 v 314.9999 h -590 z"
         id="path9" /></clipPath><clipPath
       clipPathUnits="userSpaceOnUse"
       id="clipPath10"><path
         d="m -347.6606,-172.9844 h 590 v 315 h -590 z"
         id="path10" /></clipPath><clipPath
       clipPathUnits="userSpaceOnUse"
       id="clipPath12"><path
         d="m -214.9463,-28.0858 h 589.9999 v 315 h -589.9999 z"
         id="path12" /></clipPath></defs><sodipodi:namedview
     id="namedview1"
     pagecolor="#ffffff"
     bordercolor="#000000"
     borderopacity="0.25"
     inkscape:showpageshadow="2"
     inkscape:pageopacity="0.0"
     inkscape:pagecheckerboard="0"
     inkscape:deskcolor="#d1d1d1"
     showgrid="false"
     inkscape:zoom="0.23105469"
     inkscape:cx="1084.1589"
     inkscape:cy="876.41589"
     inkscape:window-width="1920"
     inkscape:window-height="1111"
     inkscape:window-x="-9"
     inkscape:window-y="-9"
     inkscape:window-maximized="1"
     inkscape:current-layer="g1" /><g
     inkscape:groupmode="layer"
     inkscape:label="Image"
     id="g1"
     transform="translate(-101.41373,-31.96988)"><path
       style="fill:#000000;stroke-width:0.626143"
       d="m 1552.5613,590.20033 v -14.64102 h 2.2066 c 1.8957,0 2.2353,0.22347 2.41,1.58589 l 0.2034,1.58588 2.4579,-1.86034 c 2.8876,-2.18565 6.8286,-2.92713 10.4412,-1.96447 5.549,1.47867 6.1489,2.83307 6.7705,15.28594 0.8045,16.1161 0.9982,14.64913 -1.9338,14.64913 h -2.5082 l -0.2232,-11.03133 -0.223,-11.0313 -2.0989,-1.77957 c -1.5264,-1.29431 -2.7532,-1.77895 -4.4986,-1.77729 -2.8487,0.002 -6.3913,1.88969 -7.1543,3.81076 -0.2997,0.75477 -0.7456,5.4901 -0.9908,10.52295 -0.2452,5.03285 -0.5906,9.63104 -0.7676,10.2182 -0.2124,0.7046 -0.9626,1.06758 -2.2066,1.06758 h -1.8846 z M 187.69209,587.96618 c -0.44183,-0.16923 -0.80333,-0.59771 -0.80333,-0.95216 0,-0.35446 -0.5061,-0.99571 -1.12467,-1.42502 -1.06086,-0.73625 -1.13451,-5.8377 -1.29787,-89.89594 -0.1464,-75.34549 -0.31041,-89.1154 -1.06137,-89.1154 -0.4885,0 -5.76076,1.23483 -11.71619,2.74408 -12.52325,3.17371 -13.4244,3.26239 -13.95762,1.3737 -0.90038,-3.18917 -1.86143,-2.71342 13.73365,-6.79867 l 11.88939,-3.11451 0.38541,-169.28668 c 0.21188,-93.10767 0.6124,-172.400776 0.8899,-176.206896 0.44807,-6.14572 0.68149,-7.10159 2.08553,-8.54059 l 1.58096,-1.62036 16.96988,-0.18944 16.96981,-0.18944 v 2.78212 2.78212 H 206.16884 190.10211 V 224.72786 399.14264 l 8.19403,-2.10576 c 10.40495,-2.67393 16.5835,-3.83705 18.22205,-3.43032 1.86085,0.46192 1.38733,3.28466 -0.71027,4.23413 -0.88425,0.40024 -6.95748,2.06207 -13.49606,3.69296 l -11.88842,2.96527 -0.16279,89.19045 -0.16279,89.19045 h 16.06886 16.06885 v 2.74519 2.74519 l -16.87007,-0.0481 c -9.27854,-0.0265 -17.23157,-0.18662 -17.67341,-0.35585 z m 1294.81821,-2.34117 v -2.74519 h 16.3881 16.388 V 441.98361 301.08741 l -2.41,-0.60359 c -1.3255,-0.33198 -10.5263,-2.52778 -20.4461,-4.87955 -9.9199,-2.35178 -18.5031,-4.44604 -19.0737,-4.65391 -0.7836,-0.28543 -1.7644,0.7913 -4.0063,4.39851 -1.6327,2.62704 -17.572,32.43423 -35.4205,66.23819 -17.8486,33.80395 -32.7768,61.46173 -33.1739,61.46173 -1.7702,0 -20.43,-10.65141 -20.43,-11.66192 0,-0.69257 8.4385,-13.04056 36.6382,-53.61258 35.0434,-50.41808 44.6765,-64.55517 44.2508,-64.94026 -0.1288,-0.11639 -11.3683,2.78553 -24.9768,6.44872 -44.5353,11.98816 -148.7713,40.38705 -149.0619,40.61159 -0.1562,0.12069 -0.4968,8.92851 -0.7571,19.57292 -0.2602,10.64441 -0.6717,25.48955 -0.9144,32.98919 l -0.4413,13.6357 -2.0064,-0.3809 c -3.596,-0.6827 -3.5798,-0.59451 -2.9692,-16.21477 0.3082,-7.88479 0.5748,-22.29866 0.5924,-32.03081 l 0.032,-17.69483 -34.8648,-9.41139 c -19.1757,-5.17626 -37.9737,-10.33236 -41.7735,-11.45798 l -6.9089,-2.04659 v -2.41687 c 0,-1.32928 0.297,-2.41687 0.6601,-2.41687 0.3631,0 19.6673,5.12411 42.8982,11.38693 23.2309,6.26281 42.6718,11.36337 43.2021,11.33459 0.5302,-0.0288 42.4654,-11.31135 93.1893,-25.07239 l 92.2253,-25.02005 22.2936,5.28155 c 12.2615,2.90485 22.4321,5.15008 22.6014,4.98939 0.1693,-0.16069 0.4028,-55.19461 0.5189,-122.29761 l 0.2111,-122.005436 -16.2274,-0.16298 -16.2274,-0.16299 v -2.77898 -2.77899 l 17.3252,0.19678 c 19.0689,0.21658 18.0581,0.007 20.1006,4.16206 0.5609,1.14083 0.8121,32.53193 0.9967,124.586716 l 0.2468,123.06162 2.0341,0.53117 c 1.1187,0.29213 10.8163,2.55601 21.55,5.03082 10.7338,2.47482 19.6385,4.80285 19.7883,5.17341 0.1499,0.37055 -0.021,1.40737 -0.3805,2.30404 -0.4898,1.22255 -1.0959,1.63031 -2.4236,1.63031 -0.9738,0 -10.2653,-1.93905 -20.6477,-4.309 -10.3824,-2.36995 -19.0641,-4.13147 -19.2927,-3.91449 -0.2287,0.21697 -0.5992,63.16785 -0.8234,139.89084 -0.2242,76.72299 -0.635,140.17048 -0.9129,140.99442 -0.2778,0.82394 -1.2211,2.12791 -2.0961,2.8977 -1.5754,1.38586 -1.7576,1.39963 -18.5279,1.39963 h -16.9369 z m -208.8676,-56.35334 c -6.8013,-2.13361 -13.1907,-7.50496 -16.4172,-13.8015 -1.7727,-3.45932 -1.888,-4.16258 -2.1009,-12.81088 -0.2,-8.12515 -0.074,-9.53374 1.1241,-12.56913 5.0176,-12.71224 18.0446,-19.43566 31.3712,-16.19116 12.5216,3.04852 19.4873,11.56932 20.5223,25.10419 1.0231,13.37845 -4.4929,23.83039 -15.0516,28.52059 -3.792,1.6844 -5.0241,1.91552 -11.0544,2.0738 -3.7328,0.098 -7.5098,-0.0487 -8.3935,-0.32591 z m 14.6334,-6.88666 c 2.8449,-0.82846 7.909,-5.65621 9.655,-9.2043 3.1404,-6.38186 3.219,-16.21799 0.1817,-22.75326 -5.0539,-10.87464 -19.5994,-13.94979 -28.8083,-6.09054 -6.736,5.74887 -9.066,17.78748 -5.2936,27.35152 3.7169,9.42329 13.6307,13.79346 24.2652,10.69658 z m -90.4683,-20.97492 v -27.78602 l 4.0166,0.18162 4.0167,0.18162 0.1749,11.43829 0.1748,11.43829 h 15.0886 15.0885 v -11.5908 -11.5908 h 3.856 3.856 v 27.75691 27.75692 h -3.856 -3.856 v -12.81089 -12.81088 h -15.1027 -15.1027 v 12.81088 12.81089 h -4.1774 -4.1773 z m -569.50532,0.70401 c -6.7956,-2.30421 -12.2643,-7.11894 -15.5395,-13.68123 -2.012,-4.0313 -2.0338,-4.17624 -2.0338,-13.56214 v -9.48729 l 2.4117,-4.63192 c 3.0133,-5.7875 8.3585,-10.72849 13.7935,-12.75057 4.9113,-1.82722 13.6499,-1.95975 18.8203,-0.28543 9.0986,2.94634 15.1337,9.6334 17.2684,19.13382 1.0207,4.54249 0.9032,13.2525 -0.2346,17.39912 -2.508,9.14026 -8.969,15.60788 -17.8281,17.84651 -4.2228,1.06706 -13.5358,1.07776 -16.6579,0.0192 z m 16.7622,-7.0711 c 3.396,-1.66485 6.8168,-5.32831 8.838,-9.46489 1.6254,-3.32663 1.7895,-4.29971 1.8009,-10.67574 0.012,-6.45916 -0.1345,-7.31771 -1.8419,-10.82671 -4.1273,-8.48277 -13.0087,-12.70843 -21.6758,-10.31311 -9.2269,2.55001 -14.0404,9.90696 -14.0583,21.48663 -0.017,10.80159 5.1195,18.43043 13.9976,20.7906 3.7618,1.00004 9.8179,0.53352 12.9395,-0.99678 z m 28.9675,-20.14063 v -27.45189 h 4.1773 4.1774 v 11.28578 11.28577 h 15.1027 15.1027 v -11.28577 -11.28578 h 3.8561 3.856 v 27.45189 27.45189 h -3.856 -3.8561 V 489.54338 476.7325 h -15.1027 -15.1027 v 12.81088 12.81088 h -4.1774 -4.1773 z m 688.81022,0.3597 c -6.8738,-2.32961 -13.1727,-8.43688 -15.9384,-15.45362 -1.2169,-3.08718 -1.3461,-4.48958 -1.1648,-12.64298 0.1992,-8.95884 0.2529,-9.26584 2.3274,-13.29247 5.296,-10.2797 15.9785,-15.65111 27.6948,-13.92556 12.1715,1.79261 19.5973,8.7201 22.3035,20.80699 1.1904,5.31686 0.9101,13.25357 -0.635,17.98183 -2.4945,7.63296 -8.5018,13.72458 -15.8611,16.08367 -4.7662,1.52787 -14.8222,1.7653 -18.7264,0.44214 z m 17.8773,-7.38396 c 3.2779,-1.82261 6.4935,-5.24098 8.0284,-8.53467 2.9258,-6.27855 2.8885,-16.46301 -0.082,-22.46241 -4.5912,-9.2714 -15.2604,-13.07048 -24.5677,-8.74802 -6.1726,2.86665 -9.3548,7.37 -10.8021,15.28682 -2.2876,12.51275 3.7757,23.41535 14.4979,26.06913 3.3581,0.83114 10.0292,-2.2e-4 12.9259,-1.61085 z m -101.9256,-1.18622 c -0.3723,-0.92965 -0.3732,-5.74293 0,-12.65838 0.3292,-6.13709 0.6067,-11.99806 0.6167,-13.02439 0.026,-2.66933 1.2403,-3.92749 3.3924,-3.51546 l 1.7673,0.33838 v 15.17994 15.17993 h -2.5866 c -2.1561,0 -2.6866,-0.24963 -3.1874,-1.50002 z M 973.07038,434.2104 c -46.5109,-25.28022 -54.8239,-30.0846 -54.8239,-31.68497 0,-0.49958 0.3003,-1.44092 0.6673,-2.09187 0.8467,-1.50176 -3.1697,-3.50428 42.0023,20.94148 20.4638,11.0744 37.6713,20.24702 38.2389,20.38361 0.7645,0.18398 2.92472,-2.8802 8.33552,-11.82343 4.017,-6.63948 25.2009,-41.74236 47.0755,-78.00639 l 39.772,-65.93461 v -43.72045 -43.72046 h 2.245 2.2451 l 0.1649,43.40121 0.165,43.40122 35.6681,9.56624 c 19.6175,5.26144 36.7527,9.90985 38.0782,10.3298 2.3076,0.73112 2.41,0.87993 2.41,3.50255 0,2.56452 -0.092,2.71087 -1.446,2.2976 -0.7953,-0.24276 -13.988,-3.82103 -29.317,-7.9517 -29.4083,-7.92456 -46.2237,-12.16753 -46.608,-11.76045 -0.6192,0.6559 -14.3269,23.23198 -43.1154,71.00983 -39.1059,64.90079 -46.7801,77.81996 -46.4263,78.15582 0.3431,0.32566 26.7578,-8.18475 110.5167,-35.60668 l 64.7473,-21.19767 -0.03,-57.03893 -0.03,-57.03894 -26.9914,-32.33223 c -14.8444,-17.78272 -29.3184,-35.1492 -32.1636,-38.59216 l -5.1731,-6.25993 1.5081,-1.19279 c 0.8294,-0.65603 2.0017,-1.20192 2.605,-1.21308 0.696,-0.0129 13.0265,14.30377 33.7401,39.17491 l 32.6433,39.1952 0.2166,59.86055 0.2166,59.86055 9.4234,2.57907 c 5.1829,1.4185 39.0334,10.64051 75.2234,20.49337 36.1899,9.85285 65.9457,18.05267 66.1238,18.22181 0.3829,0.36344 -1.4059,6.6294 -3.1886,11.16902 -0.8306,2.11537 -1.6237,3.2032 -2.3361,3.20413 -1.6924,0.002 -25.4978,-6.28933 -85.2767,-22.53779 l -55.2779,-15.02509 -60.0812,13.28197 c -33.0446,7.30508 -75.8426,16.73431 -95.1066,20.95384 -19.264,4.21953 -35.9491,7.9029 -37.0779,8.18527 -1.9025,0.4759 -4.06112,-0.57848 -29.56282,-14.43943 z M 101.41373,420.30361 v -27.75692 h 3.84188 3.84181 l 0.17487,11.43829 0.17481,11.43829 15.2634,0.16355 15.26339,0.16355 v -11.60184 -11.60184 h 3.85602 3.85602 v 27.75692 27.75691 h -3.85602 -3.85602 v -12.81088 -12.81089 h -15.42406 -15.42407 v 12.81089 12.81088 h -3.85601 -3.85602 z m 514.61825,21.19896 c -2.9814,-3.93142 -6.2654,-9.10523 -18.4897,-29.12951 -13.9572,-22.8631 -24.1891,-39.02803 -25.1935,-39.80212 -1.1737,-0.90456 -20.6066,4.09736 -124.00153,31.91726 l -53.12818,14.2949 -43.9149,-9.48132 c -42.54698,-9.18599 -56.13051,-12.28239 -59.82096,-13.63633 -1.38793,-0.50919 -1.76734,-1.04452 -1.76734,-2.49362 0,-1.43083 0.28509,-1.84522 1.26945,-1.84522 0.6982,0 17.52729,3.42463 37.39797,7.6103 19.87069,4.18567 36.2341,7.51009 36.36314,7.3876 0.27686,-0.26281 -28.13915,-54.26184 -58.57164,-111.30384 l -21.60027,-40.48709 v -44.15625 -44.15625 h 2.80045 2.80047 l 0.41288,3.74974 c 0.22709,2.06236 0.41289,21.50412 0.41289,43.20391 v 39.45416 l 16.2274,4.45058 c 101.57766,27.85898 145.81703,39.80688 146.166,39.47563 0.4014,-0.38103 -29.16284,-19.57214 -79.25167,-51.44485 l -14.86535,-9.45917 2.89049,-4.97545 c 7.34972,-12.65118 41.24138,-67.57979 44.00348,-71.31696 1.02213,-1.38296 1.45731,-1.56642 2.4815,-1.04611 2.77312,1.40878 1.83888,3.28989 -17.93607,36.11483 -17.96764,29.82495 -22.72072,38.14222 -22.47346,39.32564 0.10964,0.52476 4.82656,3.98235 10.48205,7.68352 14.55441,9.52497 88.71927,56.59768 92.35064,58.61529 l 3.0196,1.67771 10.15512,-2.52829 c 13.15413,-3.27493 35.71667,-9.28825 91.13144,-24.28813 24.7428,-6.69747 45.696,-12.27469 46.5626,-12.39382 1.3087,-0.17989 1.6798,0.1238 2.1896,1.79227 0.3671,1.20148 0.3795,2.22543 0.031,2.54768 -0.6949,0.64231 -148.89314,40.89158 -150.56326,40.89158 -0.63487,0 -33.52068,-8.80824 -73.07958,-19.57388 -88.58311,-24.10717 -103.79486,-28.15822 -104.21983,-27.75483 -1.06103,1.00718 93.26727,139.83615 96.16948,141.53876 0.41365,0.24267 9.63631,-1.93933 20.4948,-4.84888 44.584,-11.94638 60.70576,-16.27413 111.46942,-29.92305 29.24157,-7.86226 53.45417,-14.295 53.80567,-14.295 0.3516,0 15.035,4.69208 32.6299,10.42685 57.7913,18.83618 130.8969,42.46038 134.3357,43.4108 1.8557,0.51288 3.374,0.78245 3.374,0.59903 0,-0.64027 -11.3202,-19.69474 -38.8645,-65.41744 -15.2604,-25.332 -28.5803,-47.52389 -29.5997,-49.31531 l -1.8534,-3.25714 1.5793,-1.16104 c 0.8687,-0.63858 1.9656,-1.09451 2.4377,-1.01317 0.6743,0.11617 37.0459,59.45661 70.6637,115.28812 2.803,4.6551 4.6905,7.1646 5.3914,7.16799 1.4833,0.007 69.2165,-15.23896 88.0953,-19.82948 1.5988,-0.38876 1.8675,-0.21042 2.769,1.83747 0.549,1.2474 0.8869,2.37375 0.7507,2.50299 -0.3363,0.3193 -64.4731,15.34705 -80.4827,18.85776 -12.1261,2.65909 -13.0716,2.77941 -16.7094,2.12644 -5.4183,-0.97256 -28.9566,-6.03717 -96.4004,-20.74196 -69.8837,-15.23674 -72.3003,-15.75222 -72.3003,-15.42153 0,0.14219 6.6736,11.37399 14.8302,24.95958 8.1567,13.58559 16.544,27.79805 18.6384,31.58326 3.658,6.61083 3.7617,6.92202 2.6319,7.89264 -0.647,0.55575 -1.3458,1.01045 -1.5529,1.01045 -0.2072,0 -1.3656,-1.30397 -2.5742,-2.8977 z M 246.8,415.6904 c -6.79333,-1.27083 -14.08384,-7.22519 -17.6869,-14.44541 -2.03039,-4.06866 -2.05751,-4.24355 -2.05751,-13.27361 v -9.15064 l 2.37737,-4.72588 c 2.87305,-5.7112 7.07187,-9.90321 12.41226,-12.39213 3.58924,-1.67279 4.34438,-1.79225 11.23848,-1.77778 6.26185,0.0131 7.979,0.23794 11.24203,1.4718 7.01628,2.65311 12.94227,9.73341 15.05613,17.98899 0.96738,3.77799 1.0077,13.13052 0.0735,17.05587 -3.35931,14.11595 -17.02696,22.17237 -32.6554,19.24879 z m 14.48359,-7.62866 c 3.98127,-1.88322 6.83729,-4.83338 9.08721,-9.38679 1.51008,-3.05605 1.67165,-4.09194 1.67165,-10.7164 0,-7.05989 -0.0789,-7.48545 -2.11567,-11.41268 -3.5956,-6.93297 -9.14441,-10.24497 -17.1182,-10.21759 -11.69009,0.0401 -19.03317,9.67998 -18.2441,23.95055 0.23721,4.28927 0.65128,5.9028 2.36104,9.1995 3.56617,6.87609 8.78818,10.00936 16.83536,10.10138 3.30288,0.0378 4.92632,-0.28982 7.52271,-1.51797 z m 616.07809,4.68525 c -9.1558,-2.24732 -17.2558,-10.94013 -18.8421,-20.22081 -2.0396,-11.93317 0.3019,-21.24445 7.1243,-28.33031 7.8594,-8.16286 21.1944,-9.99477 32.2435,-4.42948 9.073,4.57002 13.5922,13.17512 13.531,25.76482 -0.05,10.16859 -2.5769,16.16027 -9.2014,21.8139 -4.5561,3.88835 -9.1044,5.43352 -16.7466,5.6893 -3.3579,0.11238 -7.0069,-0.017 -8.1087,-0.28742 z m 14.8567,-7.32244 c 3.5836,-1.57008 7.2728,-5.26 9.1973,-9.19909 3.1106,-6.36671 2.5972,-18.82378 -1.0037,-24.35302 -3.139,-4.81997 -8.4117,-7.94053 -14.2587,-8.4388 -12.6837,-1.08087 -21.3619,9.12552 -20.4255,24.02258 0.5197,8.2681 4.3675,14.46527 10.9001,17.55531 4.2056,1.98935 11.5487,2.18389 15.5905,0.41302 z m 700.05992,-57.45957 c -7.3311,-1.02046 -14.6821,-6.19552 -18.2235,-12.82941 -2.6335,-4.93314 -2.8804,-6.24009 -2.8872,-15.28319 -0.01,-9.4376 0.7824,-12.32871 4.9269,-18.04074 4.7873,-6.59806 12.0066,-10.09068 20.8109,-10.06817 16.0449,0.041 25.9424,9.28209 27.3723,25.55686 1.4292,16.26744 -7.3695,28.40886 -22.2309,30.67666 -4.6306,0.70663 -4.6056,0.70666 -9.7685,-0.012 z m 13.9048,-8.13187 c 5.7805,-3.21556 8.9808,-8.26772 9.9811,-15.75619 1.9741,-14.78042 -6.0321,-25.61355 -18.9374,-25.62392 -11.936,-0.01 -19.8918,10.28695 -18.7754,24.29943 0.6831,8.57362 6.1197,16.07448 13.2229,18.24347 4.349,1.32802 10.9877,0.79597 14.5088,-1.16279 z m 28.6398,-19.5764 v -27.75692 h 3.856 3.8561 v 11.28578 11.28578 h 15.424 15.4241 v -11.28578 -11.28578 h 3.856 3.856 v 27.75692 27.75691 h -3.8432 -3.8432 l -0.1735,-12.96339 -0.1734,-12.9634 h -15.1028 -15.1027 l -0.1735,12.9634 -0.1734,12.96339 h -3.8432 -3.8433 z M 653.69388,283.95742 c -7.2741,-1.01083 -14.0122,-5.8658 -17.9081,-12.9033 -2.0426,-3.68975 -2.5261,-5.29278 -2.9683,-9.8409 -0.2905,-2.98823 -0.2808,-7.74931 0.021,-10.58018 1.9547,-18.30598 20.6369,-28.22733 38.3984,-20.39185 7.9106,3.48973 12.9536,10.7872 14.4677,20.93515 2.546,17.06478 -6.3738,30.36851 -21.9556,32.74624 -4.5988,0.70176 -5.2401,0.70399 -10.0555,0.0348 z m 14.2261,-8.19774 c 6.5446,-3.64067 9.9833,-10.3455 10.0644,-19.62387 0.1168,-13.36586 -7.4543,-21.85891 -19.3911,-21.75218 -6.0528,0.0541 -11.4811,2.96829 -14.8098,7.95058 -3.8137,5.7083 -4.7955,16.36908 -2.1669,23.52856 1.593,4.33864 6.7675,9.34489 11.2075,10.84295 4.8245,1.62782 11.1857,1.22917 15.0959,-0.94604 z m 422.38942,-84.54967 c -9.708,-1.55012 -18.7079,-10.62777 -20.4298,-20.60643 -1.3949,-8.08416 -0.3058,-16.77656 2.8016,-22.35822 5.4063,-9.71121 15.2625,-14.47096 27.055,-13.06541 10.6607,1.27064 18.3494,7.49613 21.6041,17.49242 3.8023,11.67846 1.1923,24.66616 -6.4063,31.87903 -3.8257,3.63146 -8.3614,5.75851 -14.1693,6.64478 -4.6814,0.71435 -6.0567,0.71617 -10.4553,0.0138 z m 11.2423,-6.71549 c 5.5392,-1.46025 10.5972,-6.82391 12.4267,-13.17757 1.4898,-5.17367 1.0729,-14.63047 -0.8211,-18.62396 -7.0595,-14.88534 -28.2753,-14.5847 -34.2174,0.48489 -3.1167,7.90406 -2.3138,17.70984 1.9739,24.10643 4.211,6.28226 12.7895,9.27927 20.6379,7.21021 z M 278.79049,157.35939 c -4.81619,-1.27103 -9.97585,-4.7702 -13.2399,-8.97901 -4.50916,-5.81426 -5.07619,-7.90995 -5.07619,-18.76182 0,-9.31218 0.0302,-9.51582 1.99061,-13.42093 2.79728,-5.57219 7.12681,-9.90011 12.3394,-12.3347 4.09376,-1.91204 4.61645,-2.00128 11.7211,-2.00128 7.3076,0 7.52123,0.0399 12.34796,2.30469 10.26679,4.81744 15.22568,14.53917 14.46536,28.35887 -0.659,11.97809 -6.72631,20.60086 -16.87891,23.98805 -4.98504,1.66316 -13.10092,2.0518 -17.66943,0.84613 z m 15.94025,-7.23386 c 3.09691,-1.53253 6.72724,-5.20549 8.31582,-8.41347 2.92435,-5.90547 3.39471,-15.01633 1.10028,-21.31254 -3.62403,-9.94479 -15.45128,-14.98762 -25.03501,-10.67429 -6.43301,2.89531 -10.06242,8.17825 -11.26723,16.40043 -1.73187,11.81944 3.7206,21.87515 13.51241,24.92025 2.6423,0.82172 11.01816,0.24529 13.37373,-0.92038 z m 29.04661,-20.20195 v -27.75691 h 4.17735 4.17735 v 11.5908 11.59079 h 15.10273 15.10273 v -11.59079 -11.5908 h 3.85602 3.85601 v 27.75691 27.75691 h -3.84323 -3.84323 l -0.17345,-12.96339 -0.17345,-12.96339 -14.94207,-0.16376 -14.94206,-0.16375 v 13.12715 13.12714 h -4.17735 -4.17735 z m 96.58424,24.43173 c -6.61634,-1.96279 -12.06322,-6.55424 -15.71535,-13.24727 -2.04253,-3.74321 -2.11581,-4.13422 -2.34508,-12.51246 -0.2816,-10.29054 0.4624,-13.43447 4.54299,-19.19762 7.34144,-10.368506 20.69831,-13.691846 33.72545,-8.39126 8.75524,3.5624 14.91991,14.2604 14.94547,25.93592 0.0314,14.35153 -7.05731,24.29014 -19.59191,27.46845 -4.04514,1.02568 -12.01235,0.99714 -15.56157,-0.0558 z m 17.78585,-7.94316 c 6.49473,-4.27459 9.33175,-10.34977 9.26677,-19.8438 -0.053,-7.75023 -1.68084,-11.90708 -6.37479,-16.27899 -7.09774,-6.6108 -17.19786,-6.79904 -24.62668,-0.45898 -3.84555,3.28195 -5.70015,7.15886 -6.65076,13.90292 -1.55161,11.00788 3.51625,20.90334 12.28582,23.98912 1.4241,0.5011 4.41994,0.75266 7.82639,0.65715 4.93431,-0.13833 5.81091,-0.34679 8.27325,-1.96742 z m 27.65984,-19.56789 V 99.058244 l 4.01669,0.18162 4.01668,0.18162 0.17485,11.438286 0.17485,11.43828 h 15.08855 15.08855 V 110.70726 99.116464 h 3.85601 3.85602 v 27.756906 27.75691 h -3.85602 -3.85601 V 141.8194 129.00852 h -15.10274 -15.10273 v 12.81088 12.81088 h -4.17735 -4.17735 z"
       id="path13" /><g
       style="font-style:normal;font-weight:normal;font-size:12px;font-family:Dialog;color-interpolation:auto;fill:#000000;fill-opacity:1;stroke:#000000;stroke-width:1;stroke-linecap:square;stroke-linejoin:miter;stroke-miterlimit:10;stroke-dasharray:none;stroke-dashoffset:0;stroke-opacity:1;color-rendering:auto;image-rendering:auto;shape-rendering:auto;text-rendering:auto"
       id="g12"
       transform="matrix(1.9514284,0,0,1.8565362,1708.9557,4.1218369)"><g
         id="g4125"
         transform="translate(3.6419587,6.0573515)"><path
           d="m 503.868,90.0416 v 0 l -46.8144,12.5439 c -0.7876,0.211 -1.5972,-0.2564 -1.8082,-1.044 -0.211,-0.7876 0.2564,-1.5972 1.044,-1.8082 v 0 l 46.8144,-12.5439 c 0.7876,-0.211 1.5972,0.2564 1.8082,1.044 0.211,0.7876 -0.2564,1.5972 -1.044,1.8082 z"
           stroke="none"
           clip-path="url(#1722417401333-clipPath1)"
           id="path45"
           style="text-rendering:geometricPrecision" /><path
           d="m 503.4859,88.6155 -1.2786,-0.7382 -36.1746,55.7664 2.3739,5.731 2.3738,5.731 33.9841,-65.752 z"
           stroke="none"
           clip-path="url(#1722417401333-clipPath1)"
           id="path49"
           style="text-rendering:geometricPrecision" /><path
           d="m 414.454,103.682 v 0 L 365.2468,93.0311 c -0.797,-0.1725 -1.3032,-0.9584 -1.1307,-1.7554 0.1725,-0.7969 0.9584,-1.3031 1.7553,-1.1306 v 0 l 49.2072,10.6509 c 0.797,0.1725 1.3032,0.9584 1.1307,1.7553 -0.1725,0.7969 -0.9584,1.3032 -1.7553,1.1307 z"
           stroke="none"
           clip-path="url(#1722417401333-clipPath1)"
           id="path53"
           style="text-rendering:geometricPrecision" /><path
           d="m 468.4066,149.3747 2.3738,5.731 -70.1419,-18.7944 v -5.095 -5.0949 l 65.3942,17.5223 z"
           stroke="none"
           clip-path="url(#1722417401333-clipPath1)"
           id="path57"
           style="text-rendering:geometricPrecision" /><path
           d="m 366.8441,92.315 v 0 l -32.6887,57.7866 c -0.4015,0.7098 -1.3023,0.9596 -2.012,0.5582 -0.7097,-0.4015 -0.9596,-1.3023 -0.5581,-2.012 v 0 L 364.274,90.8611 c 0.4015,-0.7097 1.3023,-0.9595 2.012,-0.5581 0.7097,0.4015 0.9596,1.3023 0.5581,2.012 z"
           stroke="none"
           clip-path="url(#1722417401333-clipPath1)"
           id="path61"
           style="text-rendering:geometricPrecision" /><path
           d="m 97.8211,184.1957 v 0 l 67.767,18.1593 c 0.7876,0.211 1.2549,1.0206 1.0439,1.8082 -0.2111,0.7876 -1.0206,1.255 -1.8082,1.044 v 0 l -67.767,-18.1593 c -0.7876,-0.211 -1.255,-1.0206 -1.0439,-1.8082 0.2111,-0.7876 1.0206,-1.255 1.8082,-1.044 z"
           stroke="none"
           clip-path="url(#1722417401333-clipPath1)"
           id="path69"
           style="text-rendering:geometricPrecision" /><path
           d="m 97.439,185.6218 -1.2786,0.7382 33.9841,65.7531 2.3738,-5.7311 2.3739,-5.7311 -36.1746,-55.7673 z"
           stroke="none"
           clip-path="url(#1722417401333-clipPath1)"
           id="path73"
           style="text-rendering:geometricPrecision" /><path
           d="m 164.8936,202.3381 v 0 l 49.2072,-10.6499 c 0.797,-0.1725 1.5828,0.3338 1.7553,1.1307 0.1725,0.797 -0.3337,1.5828 -1.1307,1.7553 v 0 l -49.2072,10.6499 c -0.7969,0.1724 -1.5828,-0.3338 -1.7553,-1.1307 -0.1725,-0.797 0.3338,-1.5828 1.1307,-1.7553 z"
           stroke="none"
           clip-path="url(#1722417401333-clipPath1)"
           id="path77"
           style="text-rendering:geometricPrecision" /><path
           d="m 132.5183,246.382 2.3739,-5.7311 65.393,-17.5232 v 5.095 5.095 l -70.1407,18.7954 z"
           stroke="none"
           clip-path="url(#1722417401333-clipPath1)"
           id="path81"
           style="text-rendering:geometricPrecision" /><path
           d="m 268.0522,246.382 0.3821,-1.4261 -68.1491,-21.8282 v 5.095 5.095 l 67.3848,14.4904 z"
           stroke="none"
           clip-path="url(#1722417401333-clipPath1)"
           id="path85"
           style="text-rendering:geometricPrecision" /><path
           d="m 250.3317,212.057 v 0 l 19.0055,33.5981 c 0.4015,0.7097 0.1516,1.6105 -0.5581,2.0119 -0.7097,0.4015 -1.6105,0.1516 -2.012,-0.5581 v 0 l -19.0055,-33.5981 c -0.4015,-0.7097 -0.1516,-1.6105 0.5581,-2.012 0.7097,-0.4014 1.6105,-0.1516 2.012,0.5582 z"
           stroke="none"
           clip-path="url(#1722417401333-clipPath1)"
           id="path89"
           style="text-rendering:geometricPrecision" /><path
           d="m 267.4872,245.018 v 0 l 43.9299,-18.1964 c 0.7533,-0.312 1.617,0.0457 1.929,0.799 0.312,0.7533 -0.0457,1.617 -0.799,1.929 v 0 l -43.9299,18.1964 c -0.7534,0.312 -1.617,-0.0457 -1.9291,-0.799 -0.312,-0.7534 0.0458,-1.617 0.7991,-1.929 z"
           stroke="none"
           clip-path="url(#1722417401333-clipPath1)"
           id="path93"
           style="text-rendering:geometricPrecision" /><path
           d="m 201.4566,227.3239 v 0 l 26.3368,34.3229 c 0.4964,0.6468 0.3743,1.5737 -0.2726,2.07 -0.6469,0.4964 -1.5737,0.3744 -2.07,-0.2725 v 0 L 199.114,229.1215 c -0.4964,-0.6469 -0.3744,-1.5737 0.2725,-2.0701 0.6469,-0.4964 1.5737,-0.3744 2.0701,0.2725 z"
           stroke="none"
           clip-path="url(#1722417401333-clipPath1)"
           id="path97"
           style="text-rendering:geometricPrecision" /><path
           d="m 132.1362,247.8081 v 0 l -40.832,-10.9409 c -0.7876,-0.2111 -1.255,-1.0206 -1.0439,-1.8082 0.211,-0.7877 1.0206,-1.255 1.8082,-1.044 v 0 l 40.832,10.9409 c 0.7876,0.211 1.255,1.0206 1.0439,1.8082 -0.211,0.7876 -1.0206,1.255 -1.8082,1.044 z"
           stroke="none"
           clip-path="url(#1722417401333-clipPath1)"
           id="path101"
           style="text-rendering:geometricPrecision" /><path
           d="m 95.9626,185.6218 v 0 -42.9889 c 0,-0.8154 0.661,-1.4764 1.4764,-1.4764 0.8154,0 1.4764,0.661 1.4764,1.4764 v 0 42.9889 c 0,0.8154 -0.661,1.4764 -1.4764,1.4764 -0.8154,0 -1.4764,-0.661 -1.4764,-1.4764 z"
           stroke="none"
           clip-path="url(#1722417401333-clipPath1)"
           id="path105"
           style="text-rendering:geometricPrecision" /><path
           d="m 163.8419,204.3461 v 0 l -26.8486,-64.8182 c -0.312,-0.7533 0.0457,-1.617 0.799,-1.929 0.7534,-0.3121 1.617,0.0457 1.9291,0.799 v 0 l 26.8485,64.8182 c 0.3121,0.7533 -0.0457,1.617 -0.799,1.929 -0.7533,0.312 -1.617,-0.0457 -1.929,-0.799 z"
           stroke="none"
           clip-path="url(#1722417401333-clipPath1)"
           id="path109"
           style="text-rendering:geometricPrecision" /><path
           d="m 137.2447,137.9924 v 0 l 24.9833,-28.6419 c 0.536,-0.6145 1.4686,-0.6781 2.0831,-0.1421 0.6145,0.536 0.6781,1.4686 0.1421,2.0831 v 0 L 139.47,139.9334 c -0.536,0.6145 -1.4687,0.6781 -2.0832,0.1421 -0.6144,-0.536 -0.6781,-1.4686 -0.1421,-2.0831 z"
           stroke="none"
           clip-path="url(#1722417401333-clipPath1)"
           id="path113"
           style="text-rendering:geometricPrecision" /><path
           d="m 67.0764,99.6381 v 0 l -1.2786,-0.7382 c -0.7061,-0.4077 -0.9481,-1.3107 -0.5404,-2.0168 0.4077,-0.7062 1.3107,-0.9481 2.0168,-0.5404 v 0 l 1.2786,0.7382 c 0.7062,0.4077 0.9481,1.3106 0.5404,2.0168 -0.4077,0.7061 -1.3106,0.9481 -2.0168,0.5404 z m -8.9502,-5.1674 v 0 l -1.2786,-0.7382 c -0.7062,-0.4077 -0.9481,-1.3107 -0.5404,-2.0168 0.4077,-0.7062 1.3106,-0.9481 2.0168,-0.5404 v 0 l 1.2786,0.7382 c 0.7062,0.4077 0.9481,1.3106 0.5404,2.0168 -0.4077,0.7061 -1.3106,0.9481 -2.0168,0.5404 z M 49.176,89.3033 v 0 l -1.2786,-0.7382 c -0.7062,-0.4077 -0.9481,-1.3107 -0.5404,-2.0168 0.4077,-0.7062 1.3106,-0.9481 2.0168,-0.5404 v 0 l 1.2786,0.7382 c 0.7061,0.4077 0.9481,1.3106 0.5404,2.0168 -0.4077,0.7061 -1.3107,0.9481 -2.0168,0.5404 z m -8.9502,-5.1674 v 0 L 38.9472,83.3977 C 38.241,82.99 37.9991,82.087 38.4068,81.3809 c 0.4076,-0.7062 1.3106,-0.9482 2.0168,-0.5405 v 0 l 1.2786,0.7383 c 0.7061,0.4076 0.9481,1.3106 0.5404,2.0168 -0.4077,0.7061 -1.3107,0.9481 -2.0168,0.5404 z m -8.9503,-5.1675 v 0 l -1.2786,-0.7382 c -0.7061,-0.4077 -0.9481,-1.3106 -0.5404,-2.0168 0.4077,-0.7061 1.3107,-0.9481 2.0168,-0.5404 v 0 l 1.2786,0.7382 c 0.7062,0.4077 0.9481,1.3107 0.5404,2.0168 -0.4077,0.7062 -1.3106,0.9481 -2.0168,0.5404 z M 22.3253,73.801 v 0 l -1.2786,-0.7382 c -0.7061,-0.4077 -0.9481,-1.3106 -0.5404,-2.0168 0.4077,-0.7061 1.3107,-0.9481 2.0168,-0.5404 v 0 l 1.2786,0.7382 c 0.7062,0.4077 0.9481,1.3107 0.5404,2.0168 -0.4077,0.7062 -1.3106,0.9481 -2.0168,0.5404 z m -8.9502,-5.1674 v 0 l -1.2786,-0.7382 c -0.7062,-0.4077 -0.9481,-1.3106 -0.5404,-2.0168 0.4077,-0.7061 1.3106,-0.9481 2.0168,-0.5404 v 0 l 1.2786,0.7382 c 0.7062,0.4077 0.9481,1.3107 0.5404,2.0168 -0.4077,0.7062 -1.3107,0.9481 -2.0168,0.5404 z m 62.6515,36.1719 v 0 l -1.2786,-0.7382 c -0.7061,-0.4077 -0.9481,-1.3106 -0.5404,-2.0168 0.4077,-0.7062 1.3107,-0.9481 2.0168,-0.5404 v 0 l 1.2786,0.7382 c 0.7062,0.4077 0.9481,1.3107 0.5404,2.0168 -0.4077,0.7062 -1.3106,0.9481 -2.0168,0.5404 z"
           stroke="none"
           clip-path="url(#1722417401333-clipPath1)"
           id="path117"
           style="text-rendering:geometricPrecision" /><path
           d="m 332.8704,149.3747 0.3821,1.4261 67.386,-14.4895 v -5.095 -5.0949 l -68.1503,21.8272 z"
           stroke="none"
           clip-path="url(#1722417401333-clipPath1)"
           id="path121"
           style="text-rendering:geometricPrecision" /><path
           d="m 467.8416,148.0107 v 0 l 43.9299,-18.1964 c 0.7533,-0.312 1.6169,0.0457 1.929,0.7991 0.312,0.7533 -0.0457,1.6169 -0.7991,1.929 v 0 l -43.9299,18.1963 c -0.7533,0.3121 -1.6169,-0.0457 -1.929,-0.799 -0.312,-0.7533 0.0457,-1.617 0.7991,-1.929 z"
           stroke="none"
           clip-path="url(#1722417401333-clipPath1)"
           id="path125"
           style="text-rendering:geometricPrecision" /><path
           d="m 402.0942,131.4625 v 0 l -6.9736,41.2298 c -0.136,0.8039 -0.898,1.3455 -1.702,1.2095 -0.8039,-0.136 -1.3454,-0.898 -1.2095,-1.702 v 0 l 6.9736,-41.2297 c 0.136,-0.804 0.898,-1.3455 1.702,-1.2095 0.804,0.136 1.3455,0.898 1.2095,1.7019 z"
           stroke="none"
           clip-path="url(#1722417401333-clipPath1)"
           id="path129"
           style="text-rendering:geometricPrecision" /><path
           d="m 365.9412,93.0142 v 0 l -67.7681,18.1584 c -0.7876,0.211 -1.5971,-0.2564 -1.8082,-1.044 -0.211,-0.7876 0.2564,-1.5972 1.044,-1.8082 v 0 L 365.177,90.162 c 0.7876,-0.2111 1.5972,0.2563 1.8082,1.0439 0.211,0.7877 -0.2564,1.5972 -1.044,1.8083 z"
           stroke="none"
           clip-path="url(#1722417401333-clipPath1)"
           id="path133"
           style="text-rendering:geometricPrecision" /><path
           d="m 334.3468,149.3747 v 0 43.7839 c 0,0.8154 -0.661,1.4764 -1.4764,1.4764 -0.8154,0 -1.4764,-0.661 -1.4764,-1.4764 v 0 -43.7839 c 0,-0.8154 0.661,-1.4764 1.4764,-1.4764 0.8154,0 1.4764,0.661 1.4764,1.4764 z"
           stroke="none"
           clip-path="url(#1722417401333-clipPath1)"
           id="path137"
           style="text-rendering:geometricPrecision" /><path
           d="m 296.6197,110.6452 v 0 L 271.7163,78.1905 c -0.4964,-0.6469 -0.3744,-1.5737 0.2725,-2.0701 0.6469,-0.4964 1.5737,-0.3744 2.0701,0.2725 v 0 l 24.9034,32.4548 c 0.4964,0.6469 0.3744,1.5737 -0.2725,2.0701 -0.6469,0.4964 -1.5737,0.3743 -2.0701,-0.2726 z"
           stroke="none"
           clip-path="url(#1722417401333-clipPath1)"
           id="path141"
           style="text-rendering:geometricPrecision" /><g
           aria-label="O"
           id="text145"
           clip-path="url(#1722417401312-clipPath1)"
           style="font-size:43px;font-family:sans-serif;stroke:none;text-rendering:geometricPrecision"
           transform="translate(419.3506,80.7739)"><path
             d="m 27.504883,14.327148 q 1.910644,2.09961 2.918457,5.144043 1.028808,3.044434 1.028808,6.907715 0,3.863281 -1.049804,6.928711 -1.028809,3.044434 -2.897461,5.081055 -1.931641,2.120605 -4.577149,3.191406 -2.624511,1.070801 -6.004882,1.070801 -3.296387,0 -6.004883,-1.091797 -2.6875002,-1.091797 -4.5771487,-3.17041 -1.8896484,-2.078613 -2.918457,-5.102051 -1.0078125,-3.023437 -1.0078125,-6.907715 0,-3.821289 1.0078125,-6.844726 1.0078125,-3.044434 2.9394531,-5.207032 1.8476563,-2.057617 4.5771486,-3.149414 2.750488,-1.091796 5.983887,-1.091796 3.359375,0 6.025878,1.112792 2.6875,1.091797 4.556153,3.128418 z m -0.37793,12.051758 q 0,-6.088867 -2.729492,-9.385254 -2.729492,-3.317382 -7.453613,-3.317382 -4.766114,0 -7.4956058,3.317382 -2.7084961,3.296387 -2.7084961,9.385254 0,6.151856 2.7714844,9.427246 2.7714845,3.254395 7.4326175,3.254395 4.661132,0 7.411621,-3.254395 2.771484,-3.27539 2.771484,-9.427246 z"
             style="stroke:none"
             id="path193" /></g><g
           aria-label="O"
           id="text149"
           clip-path="url(#1722417401349-clipPath1)"
           style="font-size:43px;font-family:sans-serif;stroke:none;text-rendering:geometricPrecision"
           transform="translate(218.9974,162.5967)"><path
             d="m 27.504883,14.327148 q 1.910644,2.09961 2.918457,5.144043 1.028808,3.044434 1.028808,6.907715 0,3.863281 -1.049804,6.928711 -1.028809,3.044434 -2.897461,5.081055 -1.931641,2.120605 -4.577149,3.191406 -2.624511,1.070801 -6.004882,1.070801 -3.296387,0 -6.004883,-1.091797 -2.6875002,-1.091797 -4.5771487,-3.17041 -1.8896484,-2.078613 -2.918457,-5.102051 -1.0078125,-3.023437 -1.0078125,-6.907715 0,-3.821289 1.0078125,-6.844726 1.0078125,-3.044434 2.9394531,-5.207032 1.8476563,-2.057617 4.5771486,-3.149414 2.750488,-1.091796 5.983887,-1.091796 3.359375,0 6.025878,1.112792 2.6875,1.091797 4.556153,3.128418 z m -0.37793,12.051758 q 0,-6.088867 -2.729492,-9.385254 -2.729492,-3.317382 -7.453613,-3.317382 -4.766114,0 -7.4956058,3.317382 -2.7084961,3.296387 -2.7084961,9.385254 0,6.151856 2.7714844,9.427246 2.7714845,3.254395 7.4326175,3.254395 4.661132,0 7.411621,-3.254395 2.771484,-3.27539 2.771484,-9.427246 z"
             style="stroke:none"
             id="path196" /></g><g
           aria-label="O"
           id="text153"
           clip-path="url(#1722417401890-clipPath1)"
           style="font-size:43px;font-family:sans-serif;stroke:none;text-rendering:geometricPrecision"
           transform="translate(316.5032,193.5334)"><path
             d="m 27.504883,14.327148 q 1.910644,2.09961 2.918457,5.144043 1.028808,3.044434 1.028808,6.907715 0,3.863281 -1.049804,6.928711 -1.028809,3.044434 -2.897461,5.081055 -1.931641,2.120605 -4.577149,3.191406 -2.624511,1.070801 -6.004882,1.070801 -3.296387,0 -6.004883,-1.091797 -2.6875002,-1.091797 -4.5771487,-3.17041 -1.8896484,-2.078613 -2.918457,-5.102051 -1.0078125,-3.023437 -1.0078125,-6.907715 0,-3.821289 1.0078125,-6.844726 1.0078125,-3.044434 2.9394531,-5.207032 1.8476563,-2.057617 4.5771486,-3.149414 2.750488,-1.091796 5.983887,-1.091796 3.359375,0 6.025878,1.112792 2.6875,1.091797 4.556153,3.128418 z m -0.37793,12.051758 q 0,-6.088867 -2.729492,-9.385254 -2.729492,-3.317382 -7.453613,-3.317382 -4.766114,0 -7.4956058,3.317382 -2.7084961,3.296387 -2.7084961,9.385254 0,6.151856 2.7714844,9.427246 2.7714845,3.254395 7.4326175,3.254395 4.661132,0 7.411621,-3.254395 2.771484,-3.27539 2.771484,-9.427246 z"
             style="stroke:none"
             id="path199" /></g><g
           aria-label="OH"
           id="text157"
           clip-path="url(#172241740154-clipPath1)"
           style="font-size:43px;font-family:sans-serif;stroke:none;text-rendering:geometricPrecision"
           transform="translate(225.628,257.8834)"><path
             d="m 27.504883,14.327148 q 1.910644,2.09961 2.918457,5.144043 1.028808,3.044434 1.028808,6.907715 0,3.863281 -1.049804,6.928711 -1.028809,3.044434 -2.897461,5.081055 -1.931641,2.120605 -4.577149,3.191406 -2.624511,1.070801 -6.004882,1.070801 -3.296387,0 -6.004883,-1.091797 -2.6875002,-1.091797 -4.5771487,-3.17041 -1.8896484,-2.078613 -2.918457,-5.102051 -1.0078125,-3.023437 -1.0078125,-6.907715 0,-3.821289 1.0078125,-6.844726 1.0078125,-3.044434 2.9394531,-5.207032 1.8476563,-2.057617 4.5771486,-3.149414 2.750488,-1.091796 5.983887,-1.091796 3.359375,0 6.025878,1.112792 2.6875,1.091797 4.556153,3.128418 z m -0.37793,12.051758 q 0,-6.088867 -2.729492,-9.385254 -2.729492,-3.317382 -7.453613,-3.317382 -4.766114,0 -7.4956058,3.317382 -2.7084961,3.296387 -2.7084961,9.385254 0,6.151856 2.7714844,9.427246 2.7714845,3.254395 7.4326175,3.254395 4.661132,0 7.411621,-3.254395 2.771484,-3.27539 2.771484,-9.427246 z"
             style="stroke:none"
             id="path202" /><path
             d="M 61.959473,42 H 57.802246 V 26.693848 H 42.202148 V 42 H 38.044922 V 10.736816 h 4.157226 V 22.998535 H 57.802246 V 10.736816 h 4.157227 z"
             style="stroke:none"
             id="path204" /></g><g
           aria-label="HO"
           id="text161"
           clip-path="url(#1722417401342-clipPath1)"
           style="font-size:43px;font-family:sans-serif;stroke:none;text-rendering:geometricPrecision"
           transform="translate(23.2346,202.2236)"><path
             d="M 28.11377,42 H 23.956543 V 26.693848 H 8.3564453 V 42 H 4.1992187 V 10.736816 H 8.3564453 V 22.998535 H 23.956543 V 10.736816 h 4.157227 z"
             style="stroke:none"
             id="path207" /><path
             d="m 59.838867,14.327148 q 1.910645,2.09961 2.918457,5.144043 1.028809,3.044434 1.028809,6.907715 0,3.863281 -1.049805,6.928711 -1.028808,3.044434 -2.897461,5.081055 -1.93164,2.120605 -4.577148,3.191406 -2.624512,1.070801 -6.004883,1.070801 -3.296387,0 -6.004883,-1.091797 -2.6875,-1.091797 -4.577148,-3.17041 -1.889649,-2.078613 -2.918457,-5.102051 -1.007813,-3.023437 -1.007813,-6.907715 0,-3.821289 1.007813,-6.844726 1.007812,-3.044434 2.939453,-5.207032 1.847656,-2.057617 4.577148,-3.149414 2.750488,-1.091796 5.983887,-1.091796 3.359375,0 6.025879,1.112792 2.6875,1.091797 4.556152,3.128418 z m -0.37793,12.051758 q 0,-6.088867 -2.729492,-9.385254 -2.729492,-3.317382 -7.453613,-3.317382 -4.766113,0 -7.495605,3.317382 -2.708497,3.296387 -2.708497,9.385254 0,6.151856 2.771485,9.427246 2.771484,3.254395 7.432617,3.254395 4.661133,0 7.411621,-3.254395 2.771484,-3.27539 2.771484,-9.427246 z"
             style="stroke:none"
             id="path209" /></g><g
           aria-label="O"
           id="text165"
           clip-path="url(#1722417401955-clipPath1)"
           style="font-size:43px;font-family:sans-serif;stroke:none;text-rendering:geometricPrecision"
           transform="translate(81.0718,89.4631)"><path
             d="m 27.504883,14.327148 q 1.910644,2.09961 2.918457,5.144043 1.028808,3.044434 1.028808,6.907715 0,3.863281 -1.049804,6.928711 -1.028809,3.044434 -2.897461,5.081055 -1.931641,2.120605 -4.577149,3.191406 -2.624511,1.070801 -6.004882,1.070801 -3.296387,0 -6.004883,-1.091797 -2.6875002,-1.091797 -4.5771487,-3.17041 -1.8896484,-2.078613 -2.918457,-5.102051 -1.0078125,-3.023437 -1.0078125,-6.907715 0,-3.821289 1.0078125,-6.844726 1.0078125,-3.044434 2.9394531,-5.207032 1.8476563,-2.057617 4.5771486,-3.149414 2.750488,-1.091796 5.983887,-1.091796 3.359375,0 6.025878,1.112792 2.6875,1.091797 4.556153,3.128418 z m -0.37793,12.051758 q 0,-6.088867 -2.729492,-9.385254 -2.729492,-3.317382 -7.453613,-3.317382 -4.766114,0 -7.4956058,3.317382 -2.7084961,3.296387 -2.7084961,9.385254 0,6.151856 2.7714844,9.427246 2.7714845,3.254395 7.4326175,3.254395 4.661132,0 7.411621,-3.254395 2.771484,-3.27539 2.771484,-9.427246 z"
             style="stroke:none"
             id="path212" /></g><g
           aria-label="OH"
           id="text169"
           clip-path="url(#172241740122-clipPath1)"
           style="font-size:43px;font-family:sans-serif;stroke:none;text-rendering:geometricPrecision"
           transform="translate(163.7001,63.9984)"><path
             d="m 27.504883,14.327148 q 1.910644,2.09961 2.918457,5.144043 1.028808,3.044434 1.028808,6.907715 0,3.863281 -1.049804,6.928711 -1.028809,3.044434 -2.897461,5.081055 -1.931641,2.120605 -4.577149,3.191406 -2.624511,1.070801 -6.004882,1.070801 -3.296387,0 -6.004883,-1.091797 -2.6875002,-1.091797 -4.5771487,-3.17041 -1.8896484,-2.078613 -2.918457,-5.102051 -1.0078125,-3.023437 -1.0078125,-6.907715 0,-3.821289 1.0078125,-6.844726 1.0078125,-3.044434 2.9394531,-5.207032 1.8476563,-2.057617 4.5771486,-3.149414 2.750488,-1.091796 5.983887,-1.091796 3.359375,0 6.025878,1.112792 2.6875,1.091797 4.556153,3.128418 z m -0.37793,12.051758 q 0,-6.088867 -2.729492,-9.385254 -2.729492,-3.317382 -7.453613,-3.317382 -4.766114,0 -7.4956058,3.317382 -2.7084961,3.296387 -2.7084961,9.385254 0,6.151856 2.7714844,9.427246 2.7714845,3.254395 7.4326175,3.254395 4.661132,0 7.411621,-3.254395 2.771484,-3.27539 2.771484,-9.427246 z"
             style="stroke:none"
             id="path215" /><path
             d="M 61.959473,42 H 57.802246 V 26.693848 H 42.202148 V 42 H 38.044922 V 10.736816 h 4.157226 V 22.998535 H 57.802246 V 10.736816 h 4.157227 z"
             style="stroke:none"
             id="path217" /></g><g
           aria-label="OH"
           id="text173"
           clip-path="url(#1722417401614-clipPath1)"
           style="font-size:43px;font-family:sans-serif;stroke:none;text-rendering:geometricPrecision"
           transform="translate(515.8575,96.5261)"><path
             d="m 27.504883,14.327148 q 1.910644,2.09961 2.918457,5.144043 1.028808,3.044434 1.028808,6.907715 0,3.863281 -1.049804,6.928711 -1.028809,3.044434 -2.897461,5.081055 -1.931641,2.120605 -4.577149,3.191406 -2.624511,1.070801 -6.004882,1.070801 -3.296387,0 -6.004883,-1.091797 -2.6875002,-1.091797 -4.5771487,-3.17041 -1.8896484,-2.078613 -2.918457,-5.102051 -1.0078125,-3.023437 -1.0078125,-6.907715 0,-3.821289 1.0078125,-6.844726 1.0078125,-3.044434 2.9394531,-5.207032 1.8476563,-2.057617 4.5771486,-3.149414 2.750488,-1.091796 5.983887,-1.091796 3.359375,0 6.025878,1.112792 2.6875,1.091797 4.556153,3.128418 z m -0.37793,12.051758 q 0,-6.088867 -2.729492,-9.385254 -2.729492,-3.317382 -7.453613,-3.317382 -4.766114,0 -7.4956058,3.317382 -2.7084961,3.296387 -2.7084961,9.385254 0,6.151856 2.7714844,9.427246 2.7714845,3.254395 7.4326175,3.254395 4.661132,0 7.411621,-3.254395 2.771484,-3.27539 2.771484,-9.427246 z"
             style="stroke:none"
             id="path220" /><path
             d="M 61.959473,42 H 57.802246 V 26.693848 H 42.202148 V 42 H 38.044922 V 10.736816 h 4.157226 V 22.998535 H 57.802246 V 10.736816 h 4.157227 z"
             style="stroke:none"
             id="path222" /></g><g
           aria-label="HO"
           id="text177"
           clip-path="url(#1722417401994-clipPath1)"
           style="font-size:43px;font-family:sans-serif;stroke:none;text-rendering:geometricPrecision"
           transform="translate(347.6605,172.9844)"><path
             d="M 28.11377,42 H 23.956543 V 26.693848 H 8.3564453 V 42 H 4.1992187 V 10.736816 H 8.3564453 V 22.998535 H 23.956543 V 10.736816 h 4.157227 z"
             style="stroke:none"
             id="path225" /><path
             d="m 59.838867,14.327148 q 1.910645,2.09961 2.918457,5.144043 1.028809,3.044434 1.028809,6.907715 0,3.863281 -1.049805,6.928711 -1.028808,3.044434 -2.897461,5.081055 -1.93164,2.120605 -4.577148,3.191406 -2.624512,1.070801 -6.004883,1.070801 -3.296387,0 -6.004883,-1.091797 -2.6875,-1.091797 -4.577148,-3.17041 -1.889649,-2.078613 -2.918457,-5.102051 -1.007813,-3.023437 -1.007813,-6.907715 0,-3.821289 1.007813,-6.844726 1.007812,-3.044434 2.939453,-5.207032 1.847656,-2.057617 4.577148,-3.149414 2.750488,-1.091796 5.983887,-1.091796 3.359375,0 6.025879,1.112792 2.6875,1.091797 4.556152,3.128418 z m -0.37793,12.051758 q 0,-6.088867 -2.729492,-9.385254 -2.729492,-3.317382 -7.453613,-3.317382 -4.766113,0 -7.495605,3.317382 -2.708497,3.296387 -2.708497,9.385254 0,6.151856 2.771485,9.427246 2.771484,3.254395 7.432617,3.254395 4.661133,0 7.411621,-3.254395 2.771484,-3.27539 2.771484,-9.427246 z"
             style="stroke:none"
             id="path227" /></g><g
           aria-label="RO"
           id="text181"
           clip-path="url(#1722417401382-clipPath1)"
           style="font-size:43px;font-family:sans-serif;stroke:none;text-rendering:geometricPrecision"
           transform="translate(214.9463,28.0858)"><path
             d="M 30.066406,42 H 24.67041 L 14.214355,29.570312 H 8.3564453 V 42 H 4.1992187 V 10.736816 H 12.95459 q 2.834473,0 4.724121,0.37793 1.889648,0.356934 3.401367,1.301758 1.700684,1.070801 2.645508,2.708496 0.96582,1.616699 0.96582,4.115234 0,3.380371 -1.700683,5.668946 -1.700684,2.267578 -4.682129,3.422363 z M 20.345215,19.53418 q 0,-1.34375 -0.48291,-2.372559 -0.461914,-1.049805 -1.553711,-1.763672 -0.902832,-0.608886 -2.141602,-0.839844 -1.238769,-0.251953 -2.918457,-0.251953 H 8.3564453 v 11.799805 h 4.1992187 q 1.973633,0 3.443359,-0.335937 1.469727,-0.356934 2.498536,-1.301758 0.944824,-0.881836 1.385742,-2.015625 0.461914,-1.154785 0.461914,-2.918457 z"
             style="stroke:none"
             id="path230" /><path
             d="m 57.40332,14.327148 q 1.910645,2.09961 2.918457,5.144043 1.028809,3.044434 1.028809,6.907715 0,3.863281 -1.049805,6.928711 -1.028808,3.044434 -2.897461,5.081055 -1.93164,2.120605 -4.577148,3.191406 -2.624512,1.070801 -6.004883,1.070801 -3.296387,0 -6.004883,-1.091797 -2.6875,-1.091797 -4.577148,-3.17041 -1.889649,-2.078613 -2.918457,-5.102051 -1.007813,-3.023437 -1.007813,-6.907715 0,-3.821289 1.007813,-6.844726 1.007812,-3.044434 2.939453,-5.207032 1.847656,-2.057617 4.577148,-3.149414 2.750489,-1.091796 5.983887,-1.091796 3.359375,0 6.025879,1.112792 2.6875,1.091797 4.556152,3.128418 z m -0.377929,12.051758 q 0,-6.088867 -2.729493,-9.385254 -2.729492,-3.317382 -7.453613,-3.317382 -4.766113,0 -7.495605,3.317382 -2.708496,3.296387 -2.708496,9.385254 0,6.151856 2.771484,9.427246 2.771484,3.254395 7.432617,3.254395 4.661133,0 7.411621,-3.254395 2.771485,-3.27539 2.771485,-9.427246 z"
             style="stroke:none"
             id="path232" /></g><path
           id="line57"
           clip-path="url(#13085494739-clipPath1)"
           style="font-weight:bold;font-size:49px;font-family:Arial;fill:none;stroke-width:5.6109;text-rendering:geometricPrecision"
           transform="matrix(0.49128045,0,0,0.56785036,-453.19627,-51.174789)"
           d="M 965.73401,108.6739 V 639.84161" /><path
           id="line59"
           clip-path="url(#13085494739-clipPath1)"
           style="font-weight:bold;font-size:49px;font-family:Arial;fill:none;stroke-width:5.6109;text-rendering:geometricPrecision"
           transform="matrix(0.49128045,0,0,0.56785036,-453.19627,-51.174789)"
           d="m 965.73401,108.6739 h 14.22027" /><path
           id="line61"
           clip-path="url(#13085494739-clipPath1)"
           style="font-weight:bold;font-size:49px;font-family:Arial;fill:none;stroke-width:5.6109;text-rendering:geometricPrecision"
           transform="matrix(0.49128045,0,0,0.56785036,-453.19627,-51.174789)"
           d="m 965.73401,639.84161 h 14.22027" /><path
           id="line63"
           clip-path="url(#13085494739-clipPath1)"
           style="font-weight:bold;font-size:49px;font-family:Arial;fill:none;stroke-width:5.6109;text-rendering:geometricPrecision"
           transform="matrix(0.49128045,0,0,0.56785036,-159.57478,-51.174789)"
           d="M 1508.1237,639.84161 V 108.6739" /><path
           id="line65"
           clip-path="url(#13085494739-clipPath1)"
           style="font-weight:bold;font-size:49px;font-family:Arial;fill:none;stroke-width:5.6109;text-rendering:geometricPrecision"
           transform="matrix(0.49128045,0,0,0.56785036,-159.57478,-51.174789)"
           d="m 1508.1237,639.84161 h -14.2205" /><path
           id="line67"
           clip-path="url(#13085494739-clipPath1)"
           style="font-weight:bold;font-size:49px;font-family:Arial;fill:none;stroke-width:5.6109;text-rendering:geometricPrecision"
           transform="matrix(0.49128045,0,0,0.56785036,-159.57478,-51.174789)"
           d="m 1508.1237,108.6739 h -14.2205" /><path
           d="m 592.63115,322.80712 4.33594,-20.74219 h 3.20312 l -0.76172,3.61328 q 2.08985,-2.1289 3.90625,-3.10547 1.81641,-0.97656 3.71094,-0.97656 2.51953,0 3.94531,1.36719 1.44532,1.36719 1.44532,3.65234 0,1.15235 -0.50782,3.63282 l -2.63671,12.55859 h -3.53516 l 2.75391,-13.14453 q 0.41015,-1.91406 0.41015,-2.83203 0,-1.03516 -0.72265,-1.67969 -0.70313,-0.64453 -2.05079,-0.64453 -2.71484,0 -4.84375,1.95312 -2.10937,1.95313 -3.10546,6.69922 l -2.01172,9.64844 z"
           style="font-style:italic;font-variant:normal;font-weight:normal;font-stretch:normal;font-size:40px;line-height:0;font-family:Arial;-inkscape-font-specification:'Arial Italic';letter-spacing:0px"
           id="path3462" /><path
           d="m 67.0764,99.6381 v 0 l -1.2786,-0.7382 c -0.7061,-0.4077 -0.9481,-1.3107 -0.5404,-2.0168 0.4077,-0.7062 1.3107,-0.9481 2.0168,-0.5404 v 0 l 1.2786,0.7382 c 0.7062,0.4077 0.9481,1.3106 0.5404,2.0168 -0.4077,0.7061 -1.3106,0.9481 -2.0168,0.5404 z m -8.9502,-5.1674 v 0 l -1.2786,-0.7382 c -0.7062,-0.4077 -0.9481,-1.3107 -0.5404,-2.0168 0.4077,-0.7062 1.3106,-0.9481 2.0168,-0.5404 v 0 l 1.2786,0.7382 c 0.7062,0.4077 0.9481,1.3106 0.5404,2.0168 -0.4077,0.7061 -1.3106,0.9481 -2.0168,0.5404 z M 49.176,89.3033 v 0 l -1.2786,-0.7382 c -0.7062,-0.4077 -0.9481,-1.3107 -0.5404,-2.0168 0.4077,-0.7062 1.3106,-0.9481 2.0168,-0.5404 v 0 l 1.2786,0.7382 c 0.7061,0.4077 0.9481,1.3106 0.5404,2.0168 -0.4077,0.7061 -1.3107,0.9481 -2.0168,0.5404 z m -8.9502,-5.1674 v 0 L 38.9472,83.3977 C 38.241,82.99 37.9991,82.087 38.4068,81.3809 c 0.4076,-0.7062 1.3106,-0.9482 2.0168,-0.5405 v 0 l 1.2786,0.7383 c 0.7061,0.4076 0.9481,1.3106 0.5404,2.0168 -0.4077,0.7061 -1.3107,0.9481 -2.0168,0.5404 z m -8.9503,-5.1675 v 0 l -1.2786,-0.7382 c -0.7061,-0.4077 -0.9481,-1.3106 -0.5404,-2.0168 0.4077,-0.7061 1.3107,-0.9481 2.0168,-0.5404 v 0 l 1.2786,0.7382 c 0.7062,0.4077 0.9481,1.3107 0.5404,2.0168 -0.4077,0.7062 -1.3106,0.9481 -2.0168,0.5404 z M 22.3253,73.801 v 0 l -1.2786,-0.7382 c -0.7061,-0.4077 -0.9481,-1.3106 -0.5404,-2.0168 0.4077,-0.7061 1.3107,-0.9481 2.0168,-0.5404 v 0 l 1.2786,0.7382 c 0.7062,0.4077 0.9481,1.3107 0.5404,2.0168 -0.4077,0.7062 -1.3106,0.9481 -2.0168,0.5404 z m -8.9502,-5.1674 v 0 l -1.2786,-0.7382 c -0.7062,-0.4077 -0.9481,-1.3106 -0.5404,-2.0168 0.4077,-0.7061 1.3106,-0.9481 2.0168,-0.5404 v 0 l 1.2786,0.7382 c 0.7062,0.4077 0.9481,1.3107 0.5404,2.0168 -0.4077,0.7062 -1.3107,0.9481 -2.0168,0.5404 z m 62.6515,36.1719 v 0 l -1.2786,-0.7382 c -0.7061,-0.4077 -0.9481,-1.3106 -0.5404,-2.0168 0.4077,-0.7062 1.3107,-0.9481 2.0168,-0.5404 v 0 l 1.2786,0.7382 c 0.7062,0.4077 0.9481,1.3107 0.5404,2.0168 -0.4077,0.7062 -1.3106,0.9481 -2.0168,0.5404 z"
           stroke="none"
           clip-path="url(#1722417401333-clipPath1-5)"
           id="path117-8"
           transform="matrix(-1.160245,0,0,1,601.3289,-21.4518)"
           style="text-rendering:geometricPrecision" /></g></g><path
       style="fill:#000000;stroke-width:3.90529"
       d="m 1790.0716,1219.6834 c -13.0267,-5.5267 -16.9803,-26.574 -7.1331,-37.9731 8.2255,-9.522 23.8933,-9.522 32.1189,0 9.9594,11.5291 5.8461,32.6295 -7.4126,38.0254 -5.1757,2.1065 -12.5366,2.0845 -17.5732,-0.054 z m 15.932,-5.0696 c 5.1972,-2.6178 8.0593,-8.5234 8.0593,-16.6298 0,-11.1092 -6.0187,-18.5007 -15.065,-18.5007 -9.0005,0 -14.9298,7.3051 -15.017,18.5007 -0.1124,14.39 10.5243,22.4216 22.0227,16.6298 z m -262.1497,-16.6298 v -22.2008 h 3.1656 c 3.0952,0 3.1655,0.2042 3.1655,9.2503 v 9.2504 h 11.3961 11.396 v -9.2504 c 0,-9.0445 0.07,-9.2503 3.1655,-9.2503 h 3.1656 v 22.2008 22.2008 h -3.1656 c -3.1283,0 -3.1655,-0.1234 -3.1655,-10.4837 v -10.4837 h -11.396 -11.3961 v 10.4837 c 0,10.3603 -0.035,10.4837 -3.1655,10.4837 h -3.1656 z m 286.1665,0 v -22.2008 h 3.1656 c 3.0952,0 3.1655,0.2042 3.1655,9.2503 v 9.2504 h 11.396 11.3961 v -9.2504 c 0,-9.0445 0.07,-9.2503 3.1655,-9.2503 h 3.1655 v 22.2008 22.2008 h -3.1655 c -3.1283,0 -3.1655,-0.1234 -3.1655,-10.4837 v -10.4837 h -11.3961 -11.396 v 10.4837 c 0,10.3603 -0.035,10.4837 -3.1655,10.4837 h -3.1656 z m -268.8614,-30.4232 c -0.4643,-0.4522 -0.8441,-16.2702 -0.8441,-35.1513 0,-18.8811 -0.4965,-34.3292 -1.1031,-34.3292 -0.6068,0 -17.2734,-24.9177 -37.0371,-55.3728 l -35.9339,-55.37299 -0.6331,35.33059 c -0.5432,30.3086 -0.9032,35.3305 -2.5325,35.3305 -1.668,0 -1.8993,-9.3872 -1.8993,-77.08622 0,-67.69861 0.231,-77.08617 1.8993,-77.08617 1.6381,0 1.9454,5.03607 2.2346,36.6171 l 0.3352,36.61673 85.3995,-60.05088 85.3995,-60.05134 0.3684,-54.78235 0.3683,-54.78281 48.7497,-14.56547 c 26.8122,-8.01075 49.4618,-14.57847 50.3323,-14.59474 0.8705,0 1.5827,0.71384 1.5827,1.62236 0,1.09685 -14.993,6.12833 -44.6343,14.97775 -24.5489,7.32944 -46.4862,13.82741 -48.7496,14.44017 l -4.1153,1.11396 v 52.97746 52.97699 h 103.3028 c 82.0793,0 103.1944,0.31605 102.7752,1.54176 -0.4151,1.21298 -22.4399,1.60918 -103.3027,1.85735 l -102.7753,0.31606 v 22.19348 c 0,18.90546 -0.2813,22.19348 -1.8993,22.19348 -1.6141,0 -1.8992,-3.16319 -1.8992,-21.06989 0,-12.2475 -0.4861,-20.89811 -1.1609,-20.65911 -2.411,0.85373 -169.6532,118.858 -169.7148,119.74866 -0.035,0.51308 16.6021,21.22687 36.9725,46.03047 l 37.037,45.0974 0.6331,-22.4957 c 0.463,-16.4487 1.0586,-22.6329 2.2159,-23.0071 1.2325,-0.3989 1.5828,5.1883 1.5828,25.2449 0,18.3886 0.4347,26.1804 1.5195,27.2369 1.1597,1.1296 29.0387,1.48 117.7587,1.48 h 116.2394 V 1054.81 c 0,-21.2408 0.3486,-27.1243 1.5828,-26.725 1.1697,0.3777 1.7479,7.1355 2.2159,25.8952 l 0.6331,25.3825 84.8369,-48.6421 c 46.6603,-26.7528 84.6837,-49.21379 84.4964,-49.91295 -0.1871,-0.69916 -13.1914,-21.20875 -28.8981,-45.57639 -15.7066,-24.36773 -28.1807,-44.89883 -27.7202,-45.62464 0.5475,-0.86299 1.3502,-0.90534 2.3187,-0.12334 0.8148,0.6583 13.4422,19.78687 28.0608,42.50727 l 26.5794,41.31008 0.6331,-34.63716 c 0.4705,-25.7437 1.0306,-34.76583 2.1812,-35.13892 1.1941,-0.38703 1.6286,8.61817 1.8994,39.36633 0.6225,70.67102 -0.1167,115.97992 -1.8829,115.40682 -1.1849,-0.3854 -1.646,-9.3875 -1.9,-37.0981 -0.1844,-20.1248 -0.6644,-36.59085 -1.0666,-36.59085 -0.4021,0 -38.7128,25.56215 -85.1346,56.80445 l -84.4035,56.8043 -0.6331,34.6722 c -0.474,25.9534 -1.0262,34.7994 -2.1961,35.1787 -1.2099,0.392 -1.6388,-7.3833 -1.8993,-34.4328 l -0.3364,-34.9393 h -117.1257 -117.1256 l -0.3363,34.8429 c -0.1848,19.1636 -0.8023,34.8429 -1.3718,34.8429 -0.5695,0 -1.4153,-0.37 -1.8796,-0.8221 z m 1026.6961,-17.2654 c -9.2245,-4.7477 -13.2398,-11.7926 -13.2398,-23.2306 0,-15.4207 8.9175,-25.2843 22.8596,-25.2843 15.8191,0 26.337,14.8706 22.5816,31.9272 -1.6404,7.4503 -7.16,14.4093 -13.4642,16.975 -5.432,2.2109 -14.0345,2.0328 -18.7372,-0.3873 z m 18.1198,-6.6116 c 5.0202,-2.9814 7.8377,-8.9555 7.8377,-16.619 0,-11.329 -6.7013,-19.1081 -16.4608,-19.1081 -9.7886,0 -16.4609,7.7787 -16.4609,19.1905 0,15.0002 13.1138,23.6454 25.084,16.5366 z M 885.30043,1122.3533 c -7.85225,-4.0267 -11.77022,-11.1829 -11.67228,-21.3202 0.0997,-10.3214 3.99758,-17.3413 11.74141,-21.1451 16.32526,-8.0185 32.91441,2.7046 32.91441,21.2758 0,18.6113 -16.8729,29.4508 -32.98354,21.1895 z m 17.71937,-3.859 c 11.67691,-5.8817 11.69678,-28.7689 0.0316,-34.6456 -5.9188,-2.9813 -13.20351,-1.7514 -18.14688,3.0638 -3.75669,3.6589 -3.9169,4.239 -3.9169,14.1757 0,9.3445 0.31061,10.6861 3.16555,13.6782 5.3938,5.6531 12.32661,7.0229 18.8682,3.7279 z m 569.2297,-8.5816 c -13.0267,-5.5267 -16.9802,-26.5739 -7.133,-37.973 8.2255,-9.5221 23.8932,-9.5221 32.1187,0 9.9595,11.529 5.8463,32.6294 -7.4126,38.0254 -5.1755,2.1064 -12.5364,2.0844 -17.5731,-0.054 z m 15.932,-5.0696 c 5.1972,-2.6178 8.0593,-8.5234 8.0593,-16.6298 0,-11.1092 -6.0186,-18.5007 -15.0649,-18.5007 -9.0005,0 -14.9298,7.3052 -15.0171,18.5007 -0.1124,14.3901 10.5243,22.4217 22.0227,16.6298 z m 477.8951,5.0696 c -13.0267,-5.5267 -16.9803,-26.5739 -7.133,-37.973 8.2255,-9.5221 23.8932,-9.5221 32.1188,0 9.9594,11.529 5.8462,32.6294 -7.4126,38.0254 -5.1756,2.1064 -12.5365,2.0844 -17.5732,-0.054 z m 15.932,-5.0696 c 5.1972,-2.6178 8.0593,-8.5234 8.0593,-16.6298 0,-11.1092 -6.0186,-18.5007 -15.0649,-18.5007 -9.0005,0 -14.9298,7.3052 -15.0171,18.5007 -0.1123,14.3901 10.5243,22.4217 22.0227,16.6298 z m -566.0433,-16.6298 v -22.2008 h 3.1656 c 3.0952,0 3.1656,0.2043 3.1656,9.2504 v 9.2503 h 11.396 11.396 v -9.2503 c 0,-9.0446 0.07,-9.2504 3.1656,-9.2504 h 3.1655 v 22.2008 22.2009 h -3.1655 c -3.1284,0 -3.1656,-0.1234 -3.1656,-10.4838 v -10.4837 h -11.396 -11.396 v 10.4837 c 0,10.3604 -0.035,10.4838 -3.1656,10.4838 h -3.1656 z m 590.0602,0 v -22.2008 h 3.1656 c 3.0951,0 3.1654,0.2043 3.1654,9.2504 v 9.2503 h 11.3961 11.396 v -9.2503 c 0,-9.0446 0.071,-9.2504 3.1655,-9.2504 h 3.1656 v 22.2008 22.2009 h -3.1656 c -3.1283,0 -3.1655,-0.1234 -3.1655,-10.4838 v -10.4837 h -11.396 -11.3961 v 10.4837 c 0,10.3604 -0.035,10.4838 -3.1654,10.4838 h -3.1656 z m 577.9658,7.063 c -0.3312,-0.841 -0.4523,-20.3961 -0.2687,-43.4557 0.2888,-36.3015 0.5886,-41.9268 2.2331,-41.9268 1.6453,0 1.9438,5.7132 2.2321,42.7219 0.2932,37.6535 0.1,42.809 -1.6307,43.4558 -1.08,0.4039 -2.2346,0.046 -2.5659,-0.7952 z m 26.5907,0 c -0.3312,-0.841 -0.4523,-20.3961 -0.2687,-43.4557 0.2888,-36.3015 0.5886,-41.9268 2.233,-41.9268 1.6454,0 1.9439,5.7132 2.2322,42.7219 0.2932,37.6535 0.1,42.809 -1.6307,43.4558 -1.08,0.4039 -2.2346,0.046 -2.5659,-0.7952 z M 884.29109,1069.2598 c -1.02057,-1.198 -1.35842,-8.752 -1.11764,-24.991 0.3312,-22.3403 0.4467,-23.2746 2.87749,-23.2746 2.43215,0 2.54606,0.9339 2.87571,23.5699 0.27541,18.9127 -0.004,23.8508 -1.41476,24.9913 -1.34457,1.0869 -2.10209,1.0175 -3.2208,-0.2968 z m 25.32446,0 c -1.02056,-1.198 -1.35841,-8.752 -1.11763,-24.991 0.33119,-22.3403 0.4467,-23.2746 2.87752,-23.2746 2.43211,0 2.546,0.9339 2.87566,23.5699 0.27546,18.9127 0,23.8508 -1.41471,24.9913 -1.34462,1.0869 -2.1021,1.0175 -3.22084,-0.2968 z m 298.58965,-41.9349 c -12.6655,-4.4101 -18.0035,-13.2157 -17.8468,-29.43847 0.1068,-11.04527 3.7139,-18.55574 11.4077,-23.75217 4.9403,-3.33665 6.4632,-3.70778 15.1947,-3.70161 8.5752,0 10.3251,0.41658 15.0418,3.5274 7.9356,5.23421 11.764,13.51977 11.7286,25.38407 -0.047,15.71978 -7.073,25.56958 -20.1943,28.31068 -8.0454,1.6809 -9.6579,1.6463 -15.3317,-0.3276 z m 16.7228,-8.8792 c 7.5302,-3.793 11.3128,-20.42668 6.9553,-30.58511 -5.3467,-12.46482 -22.8421,-12.90421 -29.3018,-0.73657 -2.4131,4.54506 -2.4425,18.44058 -0.051,24.01588 3.4431,8.0266 14.0789,11.4959 22.3975,7.3058 z m 31.0711,8.51 c -0.4642,-0.4521 -0.8441,-13.2176 -0.8441,-28.36778 v -27.5456 h 4.4318 c 4.1029,0 4.4317,0.28137 4.4317,3.78801 v 3.78801 l 4.2648,-4.40469 c 3.1625,-3.26615 5.3112,-4.4047 8.3137,-4.4047 3.2529,0 7.7549,1.38682 9.9028,3.0507 0.1772,0.13877 -0.3146,2.02931 -1.0931,4.20431 -1.3674,3.82074 -1.5993,3.9279 -6.845,3.16169 -10.4447,-1.52558 -13.2592,4.96276 -13.2699,30.59315 l -0.01,16.959 h -4.2209 c -2.3213,0 -4.6005,-0.37 -5.0648,-0.8221 z m -1105.41292,-1.2334 c -0.46427,-0.4521 -0.84414,-17.9353 -0.84414,-38.8515 v -38.02926 h 24.39455 c 27.2646,0 30.56944,0.78781 36.03679,8.58853 8.5347,12.17737 2.42522,28.2471 -12.19737,32.08215 l -5.48872,1.43956 3.00217,2.03277 c 1.6512,1.11817 4.033,3.1601 5.29294,4.53766 3.86301,4.22359 18.60192,26.18389 18.60192,27.71599 0,0.9493 -2.04008,1.3132 -5.97404,1.0657 l -5.97404,-0.3777 -9.86807,-14.5189 c -11.94049,-17.5679 -14.49794,-19.38785 -27.25,-19.3944 h -9.18011 v 17.2673 17.2673 h -4.85388 c -2.66959,0 -5.23369,-0.37 -5.698,-0.8221 z m 44.58942,-44.94663 c 6.40148,-2.1735 9.76618,-11.15551 6.44405,-17.20184 -2.64918,-4.82174 -7.79807,-6.09859 -24.59093,-6.09859 h -15.89066 v 12.33371 12.33381 h 15.00573 c 8.25312,0 16.81746,-0.61519 19.03181,-1.36709 z m 377.38553,41.61573 c -12.66551,-4.4101 -18.00356,-13.2157 -17.84686,-29.43846 0.10683,-11.04526 3.71391,-18.55583 11.40776,-23.75217 4.94029,-3.33665 6.46312,-3.70787 15.19468,-3.7017 8.57526,0 10.3251,0.41667 15.04175,3.5275 7.93561,5.23411 11.76404,13.51977 11.72863,25.38407 -0.0471,15.71986 -7.07293,25.56956 -20.19425,28.31076 -8.04551,1.6808 -9.65792,1.6461 -15.33171,-0.3315 z m 16.72281,-8.8792 c 7.53016,-3.793 11.3128,-20.42666 6.95529,-30.5851 -5.34675,-12.46481 -22.84212,-12.9042 -29.30187,-0.73656 -2.41303,4.54505 -2.44247,18.44056 -0.051,24.01586 3.4431,8.0265 14.0789,11.4958 22.39751,7.3058 z m 31.07111,8.51 c -0.46427,-0.4521 -0.84414,-13.2177 -0.84414,-28.36776 v -27.5456 h 4.43178 c 4.10289,0 4.43179,0.28136 4.43179,3.78801 v 3.78801 l 4.26471,-4.4047 c 3.16252,-3.26614 5.31126,-4.4047 8.31371,-4.4047 3.25289,0 7.7549,1.38682 9.90273,3.0507 0.17727,0.13877 -0.31457,2.02932 -1.09306,4.20422 -1.3674,3.82083 -1.59928,3.92799 -6.84492,3.16169 -10.44477,-1.52549 -13.25922,4.96285 -13.26991,30.59323 l -0.008,16.959 h -4.22075 c -2.32139,0 -4.60059,-0.3701 -5.0649,-0.8221 z m 1546.38125,-3.3309 c -12.6656,-4.4102 -18.0036,-13.2158 -17.8469,-29.43847 0.1069,-11.04536 3.714,-18.55584 11.4078,-23.75217 4.9403,-3.33674 6.4631,-3.70788 15.1947,-3.7017 8.5753,0 10.3251,0.41667 15.0417,3.52749 7.9357,5.23412 11.7641,13.51968 11.7287,25.38407 -0.047,15.71978 -7.0729,25.56938 -20.1943,28.31058 -8.0455,1.681 -9.6579,1.6463 -15.3317,-0.3313 z m 16.7229,-8.8792 c 7.53,-3.7931 11.3127,-20.42668 6.9552,-30.58511 -5.3467,-12.46481 -22.8421,-12.90421 -29.3019,-0.73657 -2.413,4.54496 -2.4424,18.44054 -0.051,24.01578 3.4431,8.0266 14.079,11.4959 22.3975,7.3059 z m -631.4376,7.5972 c -13.0267,-5.5267 -16.9803,-26.57394 -7.1331,-37.97304 8.2256,-9.52202 23.8933,-9.52202 32.1188,0 9.9595,11.52898 5.8462,32.62944 -7.4126,38.02544 -5.1755,2.1064 -12.5364,2.0844 -17.5731,-0.054 z m 15.932,-5.0696 c 5.1971,-2.6179 8.0592,-8.5234 8.0592,-16.62977 0,-11.10932 -6.0185,-18.50066 -15.0648,-18.50066 -9.0005,0 -14.9299,7.30504 -15.0172,18.50066 -0.1123,14.39007 10.5244,22.42167 22.0228,16.62977 z m 646.5766,5.9823 c -0.4643,-0.4522 -0.8441,-13.2176 -0.8441,-28.36768 v -27.5456 h 4.4318 c 4.1028,0 4.4317,0.28137 4.4317,3.78801 v 3.78801 l 4.2648,-4.40469 c 3.1625,-3.26615 5.3113,-4.4047 8.3137,-4.4047 3.2528,0 7.7549,1.38672 9.9027,3.0507 0.1773,0.13867 -0.3146,2.02922 -1.0931,4.20422 -1.3674,3.82083 -1.5992,3.92799 -6.8449,3.16169 -10.4447,-1.52549 -13.2592,4.96285 -13.2699,30.59324 l -0.01,16.9589 h -4.2207 c -2.3214,0 -4.6006,-0.37 -5.065,-0.8221 z m -622.5598,-22.61207 v -22.20077 h 3.1656 c 3.0952,0 3.1655,0.20422 3.1655,9.25028 v 9.25038 h 11.3961 11.3959 v -9.25038 c 0,-9.04447 0.071,-9.25028 3.1656,-9.25028 h 3.1656 v 22.20077 22.20077 h -3.1656 c -3.1283,0 -3.1656,-0.1233 -3.1656,-10.4837 v -10.4837 h -11.3959 -11.3961 v 10.4837 c 0,10.3604 -0.035,10.4837 -3.1655,10.4837 h -3.1656 z m 189.9336,0 v -22.20077 h 3.1655 c 3.0951,0 3.1655,0.20422 3.1655,9.25028 v 9.25038 h 11.3961 11.3959 v -9.25038 c 0,-9.04447 0.071,-9.25028 3.1656,-9.25028 h 3.1656 v 22.20077 22.20077 h -3.1656 c -3.1283,0 -3.1656,-0.1233 -3.1656,-10.4837 v -10.4837 h -11.3959 -11.3961 v 10.4837 c 0,10.3604 -0.035,10.4837 -3.1655,10.4837 h -3.1655 z m 605.4953,16.34217 c 0.2711,-1.3721 19.737,-13.02749 53.4339,-31.99411 48.6121,-27.36214 53.2306,-29.70012 55.6969,-28.19548 1.4791,0.90235 23.772,13.44692 49.5396,27.87709 25.7677,14.43016 48.0179,26.9698 49.4449,27.8666 2.3514,1.477 5.7773,-0.158 36.5523,-17.46692 18.6768,-10.50338 34.7121,-19.09696 35.6339,-19.09696 2.755,0 3.1808,2.0108 0.8461,3.99616 -5.1813,4.40629 -69.1256,39.34212 -71.0924,38.84102 -1.1797,-0.3007 -25.0099,-13.3891 -52.9558,-29.08532 l -50.811,-28.53922 -51.4732,28.97777 c -28.3103,15.93797 -52.3211,28.97787 -53.3574,28.97787 -1.1127,0 -1.7096,-0.8838 -1.4578,-2.1585 z M 421.98006,986.45955 v -24.05083 h 3.79868 3.79866 v 9.86697 9.86707 h 12.02913 12.02912 v -9.86707 -9.86697 h 3.79867 3.79867 v 24.05083 24.05095 h -3.79867 -3.79867 V 999.41005 988.30961 H 441.60653 429.5774 v 11.10044 11.10045 h -3.79866 -3.79868 z m 466.06024,21.89065 c -4.57712,-2.2733 -8.19563,-6.4707 -9.56767,-11.0986 -0.69531,-2.3449 -0.33831,-2.77504 2.30421,-2.77504 2.32088,0 3.46111,0.93349 4.42292,3.6211 2.25622,6.30414 12.28154,9.37834 19.76061,6.05894 5.99465,-2.6606 5.85936,-10.87068 -0.21645,-13.14236 -1.92403,-0.71964 -6.83353,-2.20969 -10.91002,-3.31122 -13.40384,-3.62231 -17.53746,-12.19934 -9.89494,-20.53081 3.01508,-3.2869 4.70078,-3.99962 10.58821,-4.4752 8.90403,-0.71917 15.23202,1.98611 18.01669,7.70207 2.60642,5.35016 2.559,5.57682 -1.16833,5.57682 -1.7411,0 -3.1656,-0.58013 -3.1656,-1.28929 0,-0.70917 -1.39862,-2.6518 -3.10803,-4.3168 -6.08336,-5.92561 -18.41776,-2.97945 -18.41776,4.39927 0,4.21853 1.50629,5.17483 12.53648,7.95876 9.80397,2.4745 13.33335,4.60938 15.31136,9.26075 5.33821,12.55341 -12.26709,23.42681 -26.4916,16.36161 z m 115.0189,-0.7012 c -7.85226,-4.0266 -11.77024,-11.18287 -11.67226,-21.32008 0.1,-10.32142 3.9976,-17.34125 11.74126,-21.14507 16.3254,-8.0185 32.9146,2.70454 32.9146,21.2757 0,18.61125 -16.873,29.45085 -32.9836,21.18945 z m 17.7193,-3.8589 c 11.677,-5.8817 11.6969,-28.76892 0.032,-34.64562 -5.9188,-2.98132 -13.2035,-1.75141 -18.1468,3.06379 -3.75666,3.65888 -3.91686,4.239 -3.91686,14.17573 0,9.34445 0.3106,10.6861 3.16546,13.6782 5.3938,5.6531 12.3266,7.0229 18.8682,3.7279 z m 25.4496,-17.33055 v -22.81746 h 3.1656 c 3.1128,0 3.1656,0.1657 3.1656,9.86707 v 9.86697 h 12.029 12.0292 v -9.86697 -9.86707 h 3.7987 3.7987 v 22.81746 22.81755 h -3.7987 -3.7987 v -10.48374 -10.48375 h -12.0292 -12.029 v 10.48375 c 0,10.36044 -0.035,10.48374 -3.1656,10.48374 h -3.1656 z m -787.09761,16.12375 c -0.38146,-0.9682 -0.50602,-3.04954 -0.27699,-4.62515 l 0.41671,-2.8649 26.27413,-0.33532 26.27414,-0.33149 v 4.95855 4.95851 h -25.99732 c -21.35192,0 -26.12123,-0.316 -26.69083,-1.7602 z m 521.32285,-11.70128 c -0.97202,-0.59939 -1.41726,-1.97845 -0.9894,-3.06454 0.69267,-1.75833 5.61886,-1.97461 44.98037,-1.97461 35.13144,0 44.48801,0.33532 45.59366,1.63274 3.504,4.11249 -0.67419,4.53458 -44.70244,4.51532 -23.7132,0 -43.91017,-0.50915 -44.88219,-1.10891 z m 145.96483,-0.66297 c -1.5724,-3.99149 0.87408,-4.37618 27.83028,-4.37618 27.46749,0 31.7639,0.6842 28.48336,4.5342 -2.14202,2.51416 -55.31971,2.36464 -56.31364,-0.15802 z M 259.13049,979.14909 c -0.38146,-0.96818 -0.50602,-3.04948 -0.27699,-4.62518 l 0.41671,-2.8649 26.27413,-0.33532 26.27414,-0.3314 v 4.95855 4.95854 h -25.99732 c -21.35192,0 -26.12123,-0.31605 -26.69083,-1.76029 z M 2691.6854,972.6889 c -9.2245,-4.74768 -13.2398,-11.79258 -13.2398,-23.23067 0,-15.42069 8.9175,-25.28421 22.8596,-25.28421 15.819,0 26.3369,14.87068 22.5816,31.92712 -1.6403,7.45034 -7.16,14.40931 -13.4641,16.97517 -5.4321,2.21081 -14.0346,2.03277 -18.7373,-0.38741 z m 18.1199,-6.61167 c 5.0202,-2.98132 7.8377,-8.95545 7.8377,-16.619 0,-11.32897 -6.7014,-19.10809 -16.4609,-19.10809 -9.7885,0 -16.461,7.77875 -16.461,19.19056 0,15.00019 13.1138,23.64539 25.0842,16.53653 z m 24.2985,-16.619 V 925.4074 h 3.7987 3.7987 v 9.86697 9.86706 h 12.0292 12.0291 v -9.86706 -9.86697 h 3.7986 3.7987 v 24.05083 24.05093 h -3.7987 -3.7986 v -11.10044 -11.10043 h -12.0291 -12.0292 v 11.10043 11.10044 h -3.7987 -3.7987 z m -1849.81271,5.09731 c -1.02057,-1.19793 -1.35842,-8.75198 -1.11764,-24.99096 0.3312,-22.34029 0.4467,-23.27463 2.87749,-23.27463 2.43215,0 2.54606,0.93396 2.87571,23.56993 0.27541,18.91265 -0.004,23.85082 -1.41476,24.99133 -1.34457,1.08685 -2.10209,1.01746 -3.2208,-0.29679 z m 25.32446,0 c -1.02056,-1.19793 -1.35841,-8.75198 -1.11763,-24.99096 0.33119,-22.34029 0.4467,-23.27463 2.87752,-23.27463 2.43211,0 2.546,0.93396 2.87566,23.56993 0.27546,18.91265 0,23.85082 -1.41471,24.99133 -1.34462,1.08685 -2.1021,1.01746 -3.22084,-0.29679 z M 1638.8206,934.041 v -22.20078 h 3.1656 c 3.0952,0 3.1656,0.20422 3.1656,9.25028 v 9.25038 h 11.396 11.396 v -9.25038 c 0,-9.04447 0.07,-9.25028 3.1656,-9.25028 h 3.1655 v 22.20078 22.20077 h -3.1655 c -3.1283,0 -3.1656,-0.12334 -3.1656,-10.48365 v -10.48375 h -11.396 -11.396 v 10.48375 c 0,10.36031 -0.035,10.48365 -3.1656,10.48365 h -3.1656 z m 839.7453,21.11159 c -1.1704,-0.70458 -1.4593,-11.09501 -1.2057,-43.37867 0.3086,-39.30087 0.4979,-42.48295 2.5494,-42.86727 2.0762,-0.38928 2.2159,2.30488 2.2159,42.77049 0,23.75217 -0.4547,43.45965 -1.0102,43.79384 -0.5555,0.33532 -1.7027,0.19272 -2.5494,-0.31989 z m 26.5907,0 c -1.1704,-0.70458 -1.4593,-11.09501 -1.2057,-43.37867 0.3086,-39.30087 0.4979,-42.48295 2.5494,-42.86727 2.0762,-0.38928 2.2159,2.30488 2.2159,42.77049 0,23.75217 -0.4547,43.45965 -1.0102,43.79384 -0.5555,0.33532 -1.7027,0.19272 -2.5494,-0.31989 z M 885.30043,892.94486 c -7.85225,-4.02665 -11.77022,-11.18291 -11.67228,-21.32012 0.0997,-10.32142 3.99758,-17.34126 11.74141,-21.14507 16.32526,-8.0185 32.91441,2.70453 32.91441,21.2757 0,18.61128 -16.8729,29.45083 -32.98354,21.18949 z m 17.71937,-3.85899 c 11.67691,-5.88165 11.69678,-28.76887 0.0316,-34.64557 -5.9188,-2.98132 -13.20351,-1.75141 -18.14688,3.06379 -3.75669,3.65888 -3.9169,4.239 -3.9169,14.17573 0,9.34444 0.31061,10.6861 3.16555,13.67817 5.3938,5.65312 12.32661,7.02301 18.8682,3.72788 z m 561.062,-17.94718 v -22.20078 h 3.1656 c 3.0952,0 3.1656,0.20431 3.1656,9.25038 v 9.25028 h 11.396 11.396 v -9.25028 c 0,-9.04457 0.07,-9.25038 3.1655,-9.25038 h 3.1656 v 22.20078 22.20087 h -3.1656 c -3.1282,0 -3.1655,-0.12334 -3.1655,-10.48375 v -10.48375 h -11.396 -11.396 v 10.48375 c 0,10.36041 -0.035,10.48375 -3.1656,10.48375 h -3.1656 z m 493.8272,0 v -22.20078 h 3.1655 c 3.0952,0 3.1656,0.20431 3.1656,9.25038 v 9.25028 h 11.396 11.396 v -9.25028 c 0,-9.04457 0.07,-9.25038 3.1655,-9.25038 h 3.1656 v 22.20078 22.20087 h -3.1656 c -3.1282,0 -3.1655,-0.12334 -3.1655,-10.48375 v -10.48375 h -11.396 -11.396 v 10.48375 c 0,10.36041 -0.035,10.48375 -3.1656,10.48375 h -3.1655 z m -71.6045,6.89883 c -13.0267,-5.5267 -16.9802,-26.57386 -7.133,-37.97296 8.2255,-9.52212 23.8932,-9.52212 32.1188,0 9.9594,11.52898 5.8462,32.62935 -7.4126,38.02542 -5.1756,2.10636 -12.5365,2.08439 -17.5732,-0.0542 z m 15.9321,-5.06954 c 5.1971,-2.61785 8.0593,-8.52344 8.0593,-16.62984 0,-11.10923 -6.0187,-18.50067 -15.065,-18.50067 -9.0004,0 -14.9298,7.30513 -15.0171,18.50067 -0.1123,14.38967 10.5243,22.42173 22.0228,16.62984 z m 580.522,-17.45 c -9.2246,-4.74778 -13.2398,-11.79268 -13.2398,-23.23068 0,-15.42069 8.9175,-25.28429 22.8595,-25.28429 15.8191,0 26.337,14.87077 22.5817,31.9272 -1.6404,7.45035 -7.1601,14.40931 -13.4642,16.97517 -5.432,2.21081 -14.0346,2.03268 -18.7372,-0.3874 z m 18.1199,-6.61168 c 5.0201,-2.98131 7.8377,-8.95545 7.8377,-16.619 0,-11.32896 -6.7015,-19.10809 -16.461,-19.10809 -9.7885,0 -16.4609,7.77875 -16.4609,19.19057 0,15.00019 13.1138,23.64538 25.0842,16.53652 z M 1621.6154,740.38441 c -15.9566,-11.48504 -29.2121,-21.81113 -29.4569,-22.9466 -0.3165,-1.46883 0.1449,-1.84426 1.5988,-1.30079 3.2284,1.20672 58.9919,41.69356 58.9919,42.83099 0,3.22837 -4.8617,0.32756 -31.1338,-18.5836 z m 9.608,-22.16609 c -28.4179,-20.53306 -36.3881,-27.34512 -30.6738,-26.21741 2.9147,0.57544 66.0353,46.51146 66.0822,48.09138 0.024,0.84793 -0.6665,1.5224 -1.537,1.49893 -0.8705,-0.0383 -16.1127,-10.54154 -33.8714,-23.3729 z m 146.186,11.81381 c -13.0268,-5.5267 -16.9804,-26.57387 -7.1332,-37.97297 8.2256,-9.52211 23.8934,-9.52211 32.1189,0 9.9595,11.52898 5.8462,32.62936 -7.4126,38.02543 -5.1756,2.10636 -12.5365,2.08439 -17.5731,-0.0542 z m 15.932,-5.06954 c 5.1971,-2.61785 8.0592,-8.52345 8.0592,-16.62985 0,-11.10922 -6.0185,-18.50066 -15.0649,-18.50066 -9.0005,0 -14.9299,7.30513 -15.0171,18.50066 -0.1124,14.38968 10.5244,22.42174 22.0228,16.62985 z m 24.0168,-16.62985 v -22.20077 h 3.1655 c 3.0952,0 3.1656,0.20431 3.1656,9.25037 v 9.25029 h 11.396 11.396 v -9.25029 c 0,-9.04456 0.07,-9.25037 3.1656,-9.25037 h 3.1655 v 22.20077 22.20087 h -3.1655 c -3.1284,0 -3.1656,-0.12333 -3.1656,-10.48375 v -10.48365 h -11.396 -11.396 v 10.48365 c 0,10.36042 -0.035,10.48375 -3.1656,10.48375 h -3.1655 z m -259.0055,-2.96813 c -13.0267,-5.5267 -16.9803,-26.57396 -7.1331,-37.97306 8.2255,-9.52202 23.8933,-9.52202 32.1189,0 9.9594,11.52898 5.8462,32.62945 -7.4126,38.02542 -5.1756,2.10637 -12.5366,2.08449 -17.5732,-0.0542 z m 15.932,-5.06963 c 5.1972,-2.61785 8.0593,-8.52336 8.0593,-16.62976 0,-11.10931 -6.0186,-18.50066 -15.065,-18.50066 -9.0004,0 -14.9298,7.30504 -15.017,18.50066 -0.1124,14.38968 10.5243,22.42165 22.0227,16.62976 z"
       id="path16" /></g></svg>
