<?xml version="1.0" encoding="UTF-8" standalone="no"?>
<!-- Created with Inkscape (http://www.inkscape.org/) -->

<svg
   version="1.1"
   id="svg1"
   width="218.73564"
   height="227.15558"
   viewBox="0 0 218.73564 227.15558"
   sodipodi:docname="aluminiumchloride.svg"
   inkscape:version="1.4.2 (f4327f4, 2025-05-13)"
   xmlns:inkscape="http://www.inkscape.org/namespaces/inkscape"
   xmlns:sodipodi="http://sodipodi.sourceforge.net/DTD/sodipodi-0.dtd"
   xmlns="http://www.w3.org/2000/svg"
   xmlns:svg="http://www.w3.org/2000/svg">
  <defs
     id="defs1" />
  <sodipodi:namedview
     id="namedview1"
     pagecolor="#ffffff"
     bordercolor="#000000"
     borderopacity="0.25"
     inkscape:showpageshadow="2"
     inkscape:pageopacity="0.0"
     inkscape:pagecheckerboard="0"
     inkscape:deskcolor="#d1d1d1"
     inkscape:zoom="3.5411117"
     inkscape:cx="43.630366"
     inkscape:cy="114.51206"
     inkscape:window-width="1920"
     inkscape:window-height="1111"
     inkscape:window-x="-9"
     inkscape:window-y="-9"
     inkscape:window-maximized="1"
     inkscape:current-layer="g1" />
  <g
     inkscape:groupmode="layer"
     inkscape:label="Image"
     id="g1"
     transform="translate(-68.1453,-5.5833574)">
    <path
       style="fill:#000000"
       d="m 75.978334,232.31526 c -3.47516,-0.937 -5.726856,-3.11115 -7.113725,-6.86873 -0.908568,-2.46167 -0.967101,-7.73181 -0.114692,-10.32657 0.867367,-2.64028 2.557894,-4.6726 4.996326,-6.0065 1.81472,-0.99271 2.40252,-1.14591 4.844668,-1.26267 3.543145,-0.1694 5.449958,0.42474 7.617448,2.3735 1.404609,1.26287 2.98097,4.00681 2.549651,4.43813 -0.07443,0.0744 -0.741012,0.27141 -1.481289,0.43774 l -1.345959,0.30242 -0.718242,-1.43814 c -0.395033,-0.79098 -1.12379,-1.77939 -1.61946,-2.19647 -2.867855,-2.41314 -8.504031,-1.48831 -10.644857,1.7467 -1.059936,1.60167 -1.853772,5.44568 -1.593896,7.71815 0.673551,5.88981 3.111737,8.62594 7.686635,8.62594 3.33381,0 5.546147,-1.50772 6.719124,-4.57911 l 0.541709,-1.41845 1.169583,0.30326 c 2.070766,0.53691 1.992706,0.44236 1.505423,1.82346 -1.820026,5.15851 -7.349943,7.85034 -12.998447,6.32734 z m 16.662608,-12.20244 v -12 h 1.6 1.6 v 12 12 h -1.6 -1.6 z m 8.522028,-12.16587 c -0.10985,-0.28628 -0.0388,-0.83406 0.15799,-1.21732 2.11844,-4.12652 40.79056,-70.62147 41.15289,-70.76051 0.69398,-0.26631 1.44434,0.46505 1.27654,1.24423 -0.0781,0.36271 -9.2962,16.49946 -20.48466,35.85947 -17.51516,30.30743 -20.4511,35.21352 -21.12284,35.29731 -0.49143,0.0613 -0.85411,-0.0953 -0.97992,-0.42318 z m 165.85536,-76.75169 c -3.47516,-0.93701 -5.72685,-3.11115 -7.11372,-6.86873 -0.90857,-2.46167 -0.9671,-7.73182 -0.11469,-10.32657 0.86736,-2.64028 2.55789,-4.67261 4.99632,-6.0065 1.81472,-0.99271 2.40252,-1.14591 4.84467,-1.26267 3.54314,-0.1694 5.44996,0.42474 7.61745,2.3735 1.40461,1.26286 2.98097,4.0068 2.54965,4.43812 -0.0744,0.0744 -0.74101,0.27142 -1.48129,0.43775 l -1.34596,0.30242 -0.71824,-1.43814 c -0.39503,-0.79098 -1.12379,-1.77939 -1.61946,-2.19647 -2.86786,-2.41314 -8.50403,-1.48831 -10.64486,1.7467 -1.05993,1.60167 -1.85377,5.44567 -1.59389,7.71814 0.67355,5.88982 3.11173,8.62595 7.68663,8.62595 3.33381,0 5.54615,-1.50772 6.71912,-4.57912 l 0.54171,-1.41844 1.16959,0.30325 c 2.07076,0.53692 1.9927,0.44236 1.50542,1.82347 -1.82003,5.1585 -7.34994,7.85034 -12.99845,6.32734 z M 141.995,130.61097 c 0.0861,-0.22999 2.15463,-5.63816 4.59682,-12.01816 l 4.44035,-11.6 1.76439,7.8e-4 1.76438,7.7e-4 4.8,11.72917 c 2.64,6.45105 4.85054,11.85832 4.91231,12.01616 0.0618,0.15785 -0.72581,0.24337 -1.75019,0.19006 l -1.86251,-0.0969 -1.2898,-3.43643 -1.28981,-3.43644 -5.15814,-0.004 -5.15815,-0.004 -1.24586,3.44 -1.24585,3.44 -1.7172,0.0982 c -1.30912,0.0748 -1.68002,-0.001 -1.56074,-0.32 z m 14.88307,-9.61816 c -0.0832,-0.22 -0.96966,-2.632 -1.96984,-5.36 -1.00017,-2.728 -1.89847,-5.176 -1.99623,-5.44 -0.0986,-0.2664 -0.49845,0.58801 -0.89845,1.92 -0.3964,1.32 -1.24437,3.768 -1.88438,5.44 -0.64001,1.672 -1.16468,3.22 -1.16594,3.44 -0.002,0.29897 1.01667,0.4 4.03195,0.4 3.09477,0 3.99899,-0.0931 3.88289,-0.4 z m 9.04287,-2 v -12 h 1.6 1.6 v 12 12 h -1.6 -1.6 z m 117.76,0 v -12 h 1.6 1.6 v 12 12 h -1.6 -1.6 z m -108.97884,1.29875 c -0.49735,-0.36932 -0.55043,-0.57662 -0.26628,-1.04 0.33929,-0.55334 2.10892,-0.57875 40.31561,-0.57875 39.25107,0 39.96286,0.011 40.07993,0.61885 0.2892,1.50175 1.40799,1.46115 -40.27042,1.46115 -33.66872,0 -39.32584,-0.0655 -39.85884,-0.46125 z m -33.19064,-18.31868 c -0.41957,-0.67104 -9.72696,-16.745246 -20.68309,-35.720462 -11.54243,-19.990629 -19.8449,-34.696741 -19.7411,-34.967259 0.29961,-0.780758 1.16493,-0.905455 1.78213,-0.256812 1.17949,1.239588 40.99909,70.653573 40.90559,71.307103 -0.17185,1.2012 -1.40976,1.00292 -2.26353,-0.36257 z M 75.978334,30.075252 c -3.47516,-0.937004 -5.726856,-3.111151 -7.113725,-6.86873 -0.908568,-2.461671 -0.967101,-7.731815 -0.114692,-10.326567 0.867367,-2.640281 2.557894,-4.672606 4.996326,-6.006503 1.81472,-0.9927071 2.40252,-1.1459055 4.844668,-1.2626661 3.543145,-0.1693998 5.449958,0.4247387 7.617448,2.3734989 1.404609,1.2628636 2.98097,4.0068032 2.549651,4.4381222 -0.07443,0.07443 -0.741012,0.271419 -1.481289,0.437748 L 85.930762,13.162572 85.21252,11.724431 C 84.817487,10.933454 84.08873,9.9450454 83.59306,9.5279664 80.725205,7.1148248 75.089029,8.0396549 72.948203,11.274662 c -1.059936,1.601671 -1.853772,5.445677 -1.593896,7.718147 0.673551,5.889811 3.111737,8.625944 7.686635,8.625944 3.33381,0 5.546147,-1.507718 6.719124,-4.579114 l 0.541709,-1.418445 1.169583,0.303253 c 2.070766,0.536914 1.992706,0.442363 1.505423,1.823469 -1.820026,5.158503 -7.349943,7.850335 -12.998447,6.327336 z M 92.640942,17.872809 V 5.8728086 h 1.6 1.6 v 12.0000004 12 h -1.6 -1.6 z"
       id="path1" />
  </g>
</svg>
