<?xml version="1.0" encoding="UTF-8" standalone="no"?>
<!-- Created with Inkscape (http://www.inkscape.org/) -->

<svg
   version="1.1"
   id="svg1"
   width="135.2"
   height="69.683357"
   viewBox="0 0 135.2 69.683358"
   sodipodi:docname="arabicgum.svg"
   inkscape:version="1.4.2 (f4327f4, 2025-05-13)"
   xmlns:inkscape="http://www.inkscape.org/namespaces/inkscape"
   xmlns:sodipodi="http://sodipodi.sourceforge.net/DTD/sodipodi-0.dtd"
   xmlns="http://www.w3.org/2000/svg"
   xmlns:svg="http://www.w3.org/2000/svg">
  <defs
     id="defs1" />
  <sodipodi:namedview
     id="namedview1"
     pagecolor="#ffffff"
     bordercolor="#000000"
     borderopacity="0.25"
     inkscape:showpageshadow="2"
     inkscape:pageopacity="0.0"
     inkscape:pagecheckerboard="0"
     inkscape:deskcolor="#d1d1d1"
     showgrid="false"
     inkscape:zoom="4.3492647"
     inkscape:cx="24.256974"
     inkscape:cy="40.581572"
     inkscape:window-width="1920"
     inkscape:window-height="1111"
     inkscape:window-x="-9"
     inkscape:window-y="-9"
     inkscape:window-maximized="1"
     inkscape:current-layer="g1" />
  <g
     inkscape:groupmode="layer"
     inkscape:label="Image"
     id="g1"
     transform="translate(-1.4696165,-1.0998432)">
    <path
       style="fill:#000000"
       d="m 26.58962,70.737478 c 0,-0.170117 0.343733,-0.517629 0.512,-0.517629 0.248345,0 0.12399,0.310887 -0.192,0.48 -0.176,0.09419 -0.32,0.111125 -0.32,0.03763 z m 22.482664,-0.42042 c -0.502253,-0.502253 -0.514138,-1.056705 -0.03235,-1.509319 0.480597,-0.451497 0.832611,-0.439513 1.316961,0.04484 0.463161,0.463161 0.499086,0.888817 0.112727,1.335644 -0.467967,0.541207 -0.941322,0.584852 -1.397336,0.128838 z m 1.108191,-0.300797 c 0.272454,-0.415817 0.174741,-1.00933 -0.189162,-1.148972 -0.724032,-0.277837 -1.285852,0.61337 -0.755858,1.199007 0.371997,0.411052 0.65264,0.396194 0.94502,-0.05003 z m 0.889145,-0.525855 c 0,-0.658886 0.05954,-1.012642 0.16,-0.950557 0.088,0.05439 0.16,0.274636 0.16,0.489442 0,0.327286 0.07776,0.390558 0.48,0.390558 0.426667,0 0.48,-0.05333 0.48,-0.48 0,-0.264 0.072,-0.48 0.16,-0.48 0.09026,0 0.16,0.453333 0.16,1.04 0,0.586666 -0.06974,1.04 -0.16,1.04 -0.088,0 -0.16,-0.216 -0.16,-0.48 0,-0.426667 -0.05333,-0.48 -0.48,-0.48 -0.426667,0 -0.48,0.05333 -0.48,0.48 0,0.264 -0.072,0.48 -0.16,0.48 -0.0904,0 -0.16,-0.456481 -0.16,-1.049443 z m -23.52,0.586561 c 0,-0.177451 0.492227,-0.378225 0.618267,-0.252185 0.05086,0.05086 -0.01345,0.159449 -0.142901,0.241316 -0.299178,0.189206 -0.475366,0.193235 -0.475366,0.01087 z M 1.4696165,40.859848 v -28.88 h 1.92 c 1.17334,0 1.92,0.06222 1.92,0.16 0,0.09697 -0.69333,0.16 -1.76,0.16 h -1.76 v 28.63476 28.63476 l 1.8,0.05104 1.8,0.05104 -1.96,0.0342 -1.96,0.0342 z M 28.50962,69.580456 c 0,-0.193969 0.448722,-0.405219 0.580604,-0.273337 0.04774,0.04774 -0.06336,0.16717 -0.246901,0.265396 -0.23139,0.123836 -0.333703,0.126271 -0.333703,0.0079 z m 0.96,-0.623489 c 0,-0.177451 0.492227,-0.378225 0.618267,-0.252185 0.05086,0.05086 -0.01345,0.159449 -0.142901,0.241316 -0.299178,0.189206 -0.475366,0.193235 -0.475366,0.01087 z m 0.999925,-0.537118 c 0.03663,-0.11 0.202334,-0.226305 0.36824,-0.258455 0.260976,-0.05057 0.272727,-0.02361 0.08715,0.2 -0.253792,0.305801 -0.550425,0.343877 -0.455391,0.05846 z m 1.082644,-0.233075 c -0.564658,-0.717846 -0.143301,-1.686925 0.733477,-1.686925 0.883633,0 1.339165,1.164789 0.703954,1.8 -0.450593,0.450592 -1.029896,0.405022 -1.437431,-0.113075 z m 1.346313,-0.41038 c 0.127787,-0.364842 0.09636,-0.502415 -0.177287,-0.776062 -0.275037,-0.275036 -0.391371,-0.301159 -0.672101,-0.150916 -0.383665,0.205331 -0.486858,1.202122 -0.139494,1.347428 0.43447,0.181742 0.838065,0.01014 0.988882,-0.42045 z M 46.58962,67.099849 c -1.012,-0.831385 -1.902867,-1.513497 -1.979704,-1.515805 -0.07684,-0.0023 -1.824363,0.607805 -3.88339,1.355805 -2.059026,0.748 -3.888765,1.36 -4.066085,1.36 -0.548802,0 -3.030821,-0.67123 -3.030821,-0.819646 0,-0.188954 0.0599,-0.181637 1.433901,0.175153 0.656645,0.170513 1.208382,0.295279 1.226082,0.277258 0.0177,-0.01802 -0.995726,-1.486613 -2.252055,-3.263537 -1.25633,-1.776924 -2.327846,-3.448821 -2.381147,-3.715326 -0.0533,-0.266505 -0.144171,-0.972658 -0.201933,-1.569228 -0.146492,-1.512986 0.162973,-1.113946 0.378178,0.487642 0.09255,0.688774 0.195429,1.279472 0.228619,1.312662 0.09058,0.09058 7.559048,1.329833 7.627451,1.26563 0.0325,-0.03051 -0.453498,-0.759609 -1.08,-1.620229 -0.626503,-0.860619 -1.139096,-1.669433 -1.139096,-1.797365 0,-0.376247 0.65793,-2.639211 0.815525,-2.805015 0.220765,-0.232264 0.188069,0.01524 -0.202011,1.529175 l -0.354842,1.377174 1.240955,1.702826 c 0.682526,0.936554 1.257932,1.702826 1.278681,1.702826 0.02075,0 1.460316,-0.504 3.19904,-1.12 3.453169,-1.2234 3.302652,-1.178614 3.302652,-0.982685 0,0.07552 -1.484926,0.661403 -3.299836,1.301954 l -3.299835,1.164638 -3.620165,-0.595343 c -1.99109,-0.327439 -3.784892,-0.633808 -3.986227,-0.680821 -0.287778,-0.0672 0.115947,0.59435 1.887814,3.09339 1.239632,1.748376 2.311042,3.199094 2.380911,3.223816 0.06987,0.02472 1.829232,-0.569278 3.909697,-1.32 2.080466,-0.750722 3.926848,-1.364949 4.103073,-1.364949 0.176225,0 1.99034,0.287004 4.031367,0.637787 2.041028,0.350784 3.725326,0.620784 3.742887,0.6 0.01756,-0.02078 -0.787435,-1.1874 -1.788879,-2.592482 -1.001444,-1.405083 -1.820807,-2.611083 -1.820807,-2.68 0,-0.366692 0.410373,0.13472 2.132778,2.605925 l 1.892778,2.715646 1.034888,-0.723438 c 1.08662,-0.759602 1.179556,-0.806052 1.179556,-0.589551 0,0.07364 -0.497627,0.476995 -1.105839,0.896348 l -1.105838,0.762461 -3.814162,-0.639042 c -2.097788,-0.351473 -3.831432,-0.623558 -3.852541,-0.604635 -0.02111,0.01892 0.713712,0.641136 1.632936,1.382694 1.535066,1.23837 1.887858,1.595364 1.565444,1.584091 -0.066,-0.0023 -0.948,-0.68442 -1.96,-1.515804 z m 26.783953,0.27755 c -0.587446,-0.392248 -0.621884,-1.498955 -0.05607,-1.801771 0.768728,-0.41141 1.592114,0.06429 1.592114,0.919822 0,0.703458 -0.969603,1.260173 -1.536047,0.881949 z m 1.066879,-0.537789 c 0.288137,-0.53839 -0.05292,-1.134641 -0.612185,-1.070258 -0.34781,0.04004 -0.449401,0.144412 -0.490579,0.504012 -0.02856,0.249434 -0.01282,0.555434 0.03498,0.68 0.135473,0.353038 0.85923,0.275934 1.067785,-0.113754 z m 0.789168,-0.379761 c 0,-0.586667 0.06974,-1.04 0.16,-1.04 0.088,0 0.16,0.18 0.16,0.4 0,0.337777 0.07467,0.4 0.48,0.4 0.405333,0 0.48,-0.06222 0.48,-0.4 0,-0.22 0.072,-0.4 0.16,-0.4 0.09026,0 0.16,0.453333 0.16,1.04 0,0.586666 -0.06974,1.04 -0.16,1.04 -0.088,0 -0.16,-0.216 -0.16,-0.48 0,-0.426667 -0.05333,-0.48 -0.48,-0.48 -0.426667,0 -0.48,0.05333 -0.48,0.48 0,0.264 -0.072,0.48 -0.16,0.48 -0.09026,0 -0.16,-0.453334 -0.16,-1.04 z m 54.24,-0.88 c 0,-0.09626 0.65332,-0.159994 1.64,-0.159984 l 1.64,1.6e-5 -0.0419,-12.725767 c -0.0365,-11.092848 -0.0725,-12.737491 -0.28,-12.817135 -0.13096,-0.05025 -0.2381,-0.163367 -0.2381,-0.251367 0,-0.088 0.108,-0.118557 0.24,-0.0679 0.21223,0.08144 0.24,-1.564192 0.24,-14.222882 V 11.019848 h -1.6 c -0.96,0 -1.6,-0.064 -1.6,-0.16 0,-0.09697 0.69333,-0.16 1.76,-0.16 h 1.76 v 27.52 27.520001 h -1.76 c -1.06667,0 -1.76,-0.06303 -1.76,-0.16 z m -58.673372,-1.587642 -1.935527,-1.587641 -3.991544,1.41695 -3.991544,1.41695 -1.477241,-0.375877 c -0.812483,-0.206732 -1.519286,-0.417921 -1.570673,-0.469308 -0.237664,-0.237665 0.149576,-0.213143 1.303901,0.08257 0.688863,0.17647 1.274746,0.298587 1.301963,0.27137 0.02722,-0.02722 -0.983481,-1.494938 -2.245993,-3.261603 l -2.295478,-3.21212 -0.172246,-1.238402 c -0.208871,-1.501729 -0.212397,-1.695248 -0.03089,-1.695248 0.07775,0 0.193028,0.482459 0.256176,1.07213 0.196666,1.836441 -0.130266,1.648565 4.076744,2.342763 2.041432,0.336857 3.747131,0.57703 3.790444,0.533717 0.04331,-0.04331 -0.380476,-0.715468 -0.941752,-1.49368 -0.561276,-0.778211 -1.078978,-1.511678 -1.150448,-1.629926 -0.133187,-0.220359 0.481931,-2.85621 0.73207,-3.137004 0.229682,-0.257829 0.153457,0.367641 -0.203568,1.670396 l -0.338975,1.236889 1.236435,1.761719 1.236435,1.761718 1.542539,-0.55377 c 0.848397,-0.304574 2.315243,-0.830509 3.259658,-1.168745 0.944415,-0.338237 1.75255,-0.557646 1.795855,-0.487576 0.04331,0.07007 -1.449398,0.672998 -3.317118,1.339842 l -3.395855,1.212444 -3.6,-0.633211 c -1.98,-0.348267 -3.731723,-0.613973 -3.892719,-0.590459 -0.232336,0.03393 0.17062,0.69072 1.953427,3.183932 l 2.246144,3.141179 3.94734,-1.413832 3.947339,-1.413832 3.847246,0.63665 c 2.115985,0.350157 3.898441,0.616851 3.961015,0.592653 0.06257,-0.0242 -0.706031,-1.188786 -1.708011,-2.587973 -1.678526,-2.343932 -2.071322,-2.989133 -1.668027,-2.739883 0.08456,0.05226 0.990595,1.281036 2.013399,2.730604 1.176521,1.667425 1.92819,2.595241 2.046245,2.525766 0.102631,-0.0604 0.634296,-0.499689 1.181478,-0.976203 0.547183,-0.476515 1.074749,-0.839766 1.17237,-0.807226 0.262656,0.08755 -2.339475,2.210919 -2.709425,2.210919 -0.173988,0 -1.879468,-0.253707 -3.789955,-0.563793 -1.910488,-0.310086 -3.501454,-0.535953 -3.535481,-0.501926 -0.03403,0.03403 0.660267,0.652319 1.542874,1.373982 1.338701,1.094588 1.837907,1.611737 1.555818,1.611737 -0.02691,0 -0.91991,-0.714439 -1.984449,-1.587642 z M 55.801049,65.16842 c -0.343966,-0.343966 -0.320468,-1.236496 0.04117,-1.563773 0.670951,-0.607203 1.627401,-0.09824 1.627401,0.866005 0,0.811055 -1.096674,1.269665 -1.668571,0.697768 z m 1.156571,-0.260571 c 0.1056,-0.1056 0.192,-0.348784 0.192,-0.540409 0,-0.820268 -1.159476,-0.981488 -1.251932,-0.174076 -0.02856,0.249434 -0.01282,0.555434 0.03498,0.68 0.106009,0.276255 0.761141,0.298297 1.024953,0.03449 z m 23.232,-3.648 c -0.618824,-0.618824 -0.217796,-1.76 0.618492,-1.76 0.688807,0 1.045508,0.354821 1.045508,1.04 0,0.974604 -0.983739,1.400261 -1.664,0.72 z m 1.281928,-0.4 c 0.188324,-0.517518 -0.09311,-1.04 -0.560202,-1.04 -0.533099,0 -0.840008,0.600025 -0.567426,1.10935 0.236353,0.441629 0.95783,0.397258 1.127628,-0.06935 z M 47.401233,60.678271 c -0.396273,-0.50378 -0.416674,-0.825779 -0.08254,-1.302821 0.17401,-0.248436 0.412369,-0.355601 0.790927,-0.355601 0.93479,0 1.383399,1.0966 0.72,1.76 -0.446534,0.446534 -1.029873,0.405051 -1.428387,-0.101578 z m 1.262758,-0.207904 c 0.23571,-0.440429 0.208599,-0.607549 -0.158038,-0.974185 -0.568397,-0.568398 -1.24398,0.101438 -0.93761,0.929634 0.167243,0.4521 0.862406,0.480367 1.095648,0.04455 z m 33.605629,-0.01052 c 0,-0.09403 0.577212,-0.162399 1.4,-0.165819 l 1.4,-0.0058 -2.993343,-2.9142 -2.993344,-2.914182 -0.33729,-1.2481 c -0.185509,-0.686455 -0.304887,-1.334455 -0.265284,-1.44 0.08695,-0.231726 0.133098,-0.119809 0.597125,1.4481 l 0.343304,1.16 h 1.799118 c 0.989515,0 2.773522,-0.04673 3.96446,-0.103847 l 2.165342,-0.103848 -3.340044,-3.669319 c -1.837024,-2.018123 -3.336214,-3.789392 -3.331532,-3.93615 0.01508,-0.472658 2.018269,-5.689094 2.20913,-5.752714 0.101415,-0.03381 -0.03839,0.538688 -0.310671,1.272208 -1.259379,3.392704 -1.594236,4.3746 -1.55223,4.551586 0.02489,0.104877 1.545129,1.848979 3.378304,3.875782 l 3.333045,3.685096 1.386955,-0.816739 c 0.762825,-0.449206 2.095653,-1.236434 2.96184,-1.749395 1.681441,-0.99576 1.705115,-1.006766 1.705115,-0.792643 0,0.07701 -1.350087,0.932002 -3.000192,1.899987 l -3.000193,1.759972 -4.045858,0.119033 -4.045858,0.119033 1.966051,1.860592 c 1.081327,1.023325 2.378151,2.247915 2.881831,2.721311 l 0.915781,0.860719 3.564219,-2.121079 3.564219,-2.12108 4.078412,-0.08176 4.078408,-0.08176 -2.398266,-2.284297 c -1.319049,-1.256364 -2.351948,-2.33062 -2.295331,-2.387237 0.05662,-0.05662 1.172552,0.909635 2.479858,2.147224 1.941689,1.838143 2.397639,2.198818 2.490069,1.969748 0.0622,-0.154234 0.66222,-3.376421 1.33329,-7.160421 1.25578,-7.080974 1.36552,-7.60678 1.46823,-7.035202 0.0796,0.443036 -2.49731,14.674726 -2.69344,14.875202 -0.0913,0.09332 -1.770374,0.193341 -4.02888,0.24 l -3.87235,0.08 1.92,1.022142 c 2.158732,1.149235 2.087029,1.104163 1.959478,1.231714 -0.05162,0.05162 -1.073796,-0.423339 -2.271501,-1.055465 l -2.177645,-1.149321 -3.456465,2.037119 c -1.901056,1.120415 -3.716881,2.097657 -4.035166,2.171648 -0.815906,0.189672 -2.898701,0.176856 -2.898701,-0.01784 z m 15.352924,-0.408526 c -0.516717,-0.622606 -0.02044,-1.831475 0.751874,-1.831475 0.854192,0 1.350565,1.246905 0.722603,1.815202 -0.368988,0.33393 -1.203204,0.343137 -1.474477,0.01627 z m 1.413115,-0.650971 c 0.07867,-0.517471 -0.336667,-0.922645 -0.821144,-0.801049 -0.356586,0.0895 -0.424895,0.194903 -0.424895,0.655643 0,0.674175 0.39857,0.971888 0.88,0.65732 0.176,-0.114999 0.340717,-0.34536 0.366039,-0.511914 z m 0.673961,-0.140503 c 0,-0.586667 0.06974,-1.040001 0.16,-1.040001 0.088,0 0.16,0.18 0.16,0.4 0,0.337778 0.0747,0.400001 0.48,0.400001 0.40533,0 0.48,-0.06222 0.48,-0.400001 0,-0.22 0.072,-0.4 0.16,-0.4 0.0903,0 0.16,0.453334 0.16,1.040001 0,0.586666 -0.0697,1.04 -0.16,1.04 -0.088,0 -0.16,-0.216 -0.16,-0.48 0,-0.426667 -0.0533,-0.48 -0.48,-0.48 -0.42667,0 -0.48,0.05333 -0.48,0.48 0,0.264 -0.072,0.48 -0.16,0.48 -0.09026,0 -0.16,-0.453334 -0.16,-1.04 z m -71.2,-2.240001 c 0,-0.586666 0.06974,-1.04 0.16,-1.04 0.088,0 0.16,0.18 0.16,0.4 0,0.337778 0.07467,0.4 0.48,0.4 0.405333,0 0.48,-0.06222 0.48,-0.4 0,-0.22 0.072,-0.4 0.16,-0.4 0.09026,0 0.16,0.453334 0.16,1.04 0,0.586667 -0.06974,1.04 -0.16,1.04 -0.088,0 -0.16,-0.216 -0.16,-0.48 0,-0.426666 -0.05333,-0.48 -0.48,-0.48 -0.426667,0 -0.48,0.05333 -0.48,0.48 0,0.264 -0.072,0.48 -0.16,0.48 -0.09026,0 -0.16,-0.453333 -0.16,-1.04 z m 2.169073,0.684399 c -0.7175,-1.024373 0.434204,-2.233005 1.432346,-1.503146 0.203258,0.148626 0.302581,0.417381 0.302581,0.818747 0,0.401367 -0.09932,0.670122 -0.302581,0.818748 -0.463127,0.338647 -1.145904,0.274605 -1.432346,-0.134349 z m 1.352855,-0.364399 c 0.188324,-0.517517 -0.09311,-1.04 -0.560202,-1.04 -0.533099,0 -0.840008,0.600026 -0.567426,1.109351 0.236353,0.441629 0.95783,0.397258 1.127628,-0.06935 z m 39.742025,0.441684 c -0.413662,-0.28592 -0.565243,-0.834027 -0.351218,-1.26998 0.298528,-0.60808 0.661116,-0.790805 1.195971,-0.602707 0.982189,0.345417 0.831681,1.862709 -0.193697,1.952689 -0.261255,0.02292 -0.55423,-0.01308 -0.651056,-0.08 z m 1.024047,-0.393684 c 0.1056,-0.1056 0.192,-0.348783 0.192,-0.540408 0,-0.820268 -1.159476,-0.981488 -1.251932,-0.174076 -0.02856,0.249434 -0.01282,0.555434 0.03498,0.68 0.106009,0.276255 0.761141,0.298297 1.024953,0.03448 z M 37.535671,55.421014 c -0.645653,-0.98539 0.626031,-2.246226 1.44228,-1.429977 0.717545,0.717545 0.335743,1.828811 -0.628331,1.828811 -0.412477,0 -0.618896,-0.101145 -0.813949,-0.398834 z m 1.451977,-0.394952 c 0.24559,-0.773786 -0.816648,-1.358829 -1.192399,-0.656732 -0.23571,0.440429 -0.208599,0.607549 0.158038,0.974185 0.372604,0.372605 0.863126,0.22206 1.034361,-0.317453 z m 1.70122,-0.04621 c 0.184019,-0.462 0.372028,-0.933534 0.417798,-1.047854 0.172416,-0.430643 0.566457,-0.07992 0.938159,0.835034 0.455545,1.121332 0.446449,1.05282 0.139773,1.05282 -0.134761,0 -0.286465,-0.108 -0.337118,-0.24 -0.05065,-0.132 -0.25669,-0.24 -0.45786,-0.24 -0.20117,0 -0.407207,0.108 -0.45786,0.24 -0.05065,0.132 -0.201306,0.24 -0.334784,0.24 -0.205247,0 -0.19107,-0.129588 0.09189,-0.84 z m 0.940752,-0.110557 c 0,-0.268227 -0.283767,-0.334645 -0.378213,-0.08852 -0.05573,0.145222 5.01e-4,0.239077 0.143235,0.239077 0.129238,0 0.234978,-0.06775 0.234978,-0.150557 z m 0.96,0.230557 c 0,-0.693333 0.01778,-0.72 0.48,-0.72 0.264,0 0.48,0.072 0.48,0.16 0,0.088 -0.108,0.16 -0.24,0.16 -0.167619,0 -0.24,0.168889 -0.24,0.56 0,0.391112 -0.07238,0.56 -0.24,0.56 -0.177778,0 -0.24,-0.186666 -0.24,-0.72 z m 1.071921,0.505491 c -0.106596,-0.277786 0.03387,-0.467497 0.528079,-0.713243 l 0.4,-0.198899 -0.45566,0.0903 c -0.3298,0.06536 -0.436602,0.03314 -0.386666,-0.116674 0.03849,-0.115453 0.310718,-0.206975 0.615659,-0.206975 0.528753,0 0.548279,0.02228 0.595867,0.68 l 0.0492,0.68 h -0.632081 c -0.380869,0 -0.664797,-0.08525 -0.714398,-0.214509 z m 0.848079,-0.265491 c 0,-0.088 -0.06775,-0.16 -0.150557,-0.16 -0.08281,0 -0.195056,0.072 -0.249443,0.16 -0.05439,0.088 0.01336,0.16 0.150557,0.16 0.137194,0 0.249443,-0.072 0.249443,-0.16 z m -4.96,-0.32 c 0,-0.088 0.139751,-0.16 0.310557,-0.16 0.170807,0 0.355056,0.072 0.409443,0.16 0.05608,0.09075 -0.07834,0.16 -0.310557,0.16 -0.225194,0 -0.409443,-0.072 -0.409443,-0.16 z M 55.205785,54.79794 c -0.588077,-0.293188 -0.746071,-0.967441 -0.351113,-1.498409 0.426859,-0.573855 0.945303,-0.640887 1.430606,-0.184968 0.875372,0.822369 -0.01658,2.213296 -1.079493,1.683377 z M 56.1192,54.307683 c 0.287616,-0.438958 0.194037,-0.966162 -0.198211,-1.116682 -0.696946,-0.267443 -1.196276,0.482813 -0.762224,1.14526 0.308608,0.470995 0.639554,0.461148 0.960435,-0.02858 z m -3.44958,-0.487835 c 0,-0.586666 0.06974,-1.04 0.16,-1.04 0.088,0 0.16,0.171828 0.16,0.381841 0,0.301944 0.100434,0.39658 0.48,0.452289 0.412937,0.06061 0.48,0.01975 0.48,-0.292398 0,-0.199565 0.072,-0.407345 0.16,-0.461732 0.100455,-0.06208 0.16,0.291672 0.16,0.950558 0,0.592962 -0.0696,1.049442 -0.16,1.049442 -0.088,0 -0.16,-0.216 -0.16,-0.48 0,-0.426666 -0.05333,-0.48 -0.48,-0.48 -0.426667,0 -0.48,0.05333 -0.48,0.48 0,0.264 -0.072,0.48 -0.16,0.48 -0.09026,0 -0.16,-0.453333 -0.16,-1.04 z m 9.192727,-1.432727 c -0.216,-0.216 -0.392727,-0.543273 -0.392727,-0.727273 0,-0.378809 0.669156,-1.12 1.01115,-1.12 0.124132,0 0.415405,0.149226 0.647273,0.331613 0.56647,0.445586 0.56647,1.131189 0,1.576775 -0.546203,0.429642 -0.786544,0.418037 -1.265696,-0.06112 z m 1.115844,-0.178701 c 0.138286,-0.138286 0.251429,-0.385143 0.251429,-0.548572 0,-0.337219 -0.404602,-0.8 -0.699429,-0.8 -0.322116,0 -0.580571,0.35614 -0.580571,0.8 0,0.732194 0.551054,1.02609 1.028571,0.548572 z m 1.658502,0.485168 c -0.04744,-0.04744 0.08032,-0.497444 0.283915,-1 0.517547,-1.277506 0.840794,-1.284669 1.325876,-0.02938 0.402044,1.040406 0.366994,1.331624 -0.108482,0.901325 -0.36562,-0.330882 -0.923868,-0.344587 -1.046242,-0.02569 -0.09318,0.242812 -0.297101,0.311706 -0.455067,0.15374 z m 1.152927,-1.024297 c 0,-0.08281 -0.072,-0.195056 -0.16,-0.249443 -0.088,-0.05439 -0.16,0.01336 -0.16,0.150558 0,0.137193 0.072,0.249442 0.16,0.249442 0.088,0 0.16,-0.06775 0.16,-0.150557 z m 1.069333,1.006557 c -0.06013,-0.06013 -0.109333,-0.421333 -0.109333,-0.802666 0,-0.663704 0.02051,-0.693334 0.48,-0.693334 0.32,0 0.48,0.08 0.48,0.24 0,0.132 -0.09,0.222 -0.2,0.2 -0.116101,-0.02322 -0.221944,0.161357 -0.252312,0.44 -0.05718,0.524665 -0.227034,0.787322 -0.398355,0.616 z m 1.210667,-0.01512 c -0.354674,-0.11979 -0.221259,-0.68072 0.2,-0.840883 0.528232,-0.200833 0.51368,-0.354628 -0.02086,-0.220467 -0.318684,0.07999 -0.402848,0.05159 -0.346667,-0.116952 0.04407,-0.1322 0.296171,-0.222581 0.62086,-0.222581 0.534309,0 0.547724,0.01628 0.593416,0.72 0.04479,0.689751 0.02798,0.720598 -0.4,0.734217 -0.245712,0.0078 -0.536749,-0.01618 -0.646749,-0.05333 z m 0.6,-0.525304 c 0,-0.08004 -0.107586,-0.104251 -0.239081,-0.05379 -0.131495,0.05046 -0.19852,0.157374 -0.148944,0.237588 0.10369,0.167773 0.388025,0.03309 0.388025,-0.183798 z m -4.96,-0.155579 c 0,-0.088 0.18,-0.16 0.4,-0.16 0.22,0 0.4,0.072 0.4,0.16 0,0.088 -0.18,0.16 -0.4,0.16 -0.22,0 -0.4,-0.072 -0.4,-0.16 z m 12.742317,-0.591016 c -0.05627,-0.05627 -0.102317,-0.270317 -0.102317,-0.47565 0,-0.308148 -0.08381,-0.373334 -0.48,-0.373334 -0.405333,0 -0.48,0.06222 -0.48,0.4 0,0.22 -0.072,0.4 -0.16,0.4 -0.08889,0 -0.16,-0.426666 -0.16,-0.96 0,-0.533333 0.07111,-0.96 0.16,-0.96 0.088,0 0.16,0.18 0.16,0.4 0,0.337778 0.07467,0.4 0.48,0.4 0.405333,0 0.48,-0.06222 0.48,-0.4 0,-0.248888 0.09067,-0.4 0.24,-0.4 0.186402,0 0.24,0.212285 0.24,0.950558 0,0.887809 -0.137508,1.258601 -0.377683,1.018426 z m 0.915086,-0.297035 c -0.473456,-0.473456 -0.423255,-1.086217 0.127145,-1.551949 0.428243,-0.362366 0.639604,-0.352912 1.153875,0.05161 0.530457,0.417258 0.562388,1.124737 0.07141,1.582155 -0.466875,0.43496 -0.859394,0.411214 -1.352427,-0.08182 z m 1.131168,-0.163377 c 0.138286,-0.138286 0.251429,-0.385143 0.251429,-0.548572 0,-0.337219 -0.404602,-0.8 -0.699429,-0.8 -0.322116,0 -0.580571,0.35614 -0.580571,0.8 0,0.732194 0.551054,1.02609 1.028571,0.548572 z m 15.700502,-0.104173 c -0.334134,-0.477042 -0.313733,-0.799041 0.08254,-1.302821 0.398514,-0.506629 0.981853,-0.548112 1.428387,-0.101578 0.663399,0.6634 0.21479,1.76 -0.72,1.76 -0.378558,0 -0.616917,-0.107165 -0.790927,-0.355601 z m 1.460998,-0.385068 c 0.234343,-0.610686 -0.479411,-1.245439 -1.008506,-0.896881 -0.661525,0.435802 -0.10009,1.680686 0.59114,1.310751 0.178954,-0.09577 0.366769,-0.282015 0.417366,-0.41387 z M 24.590056,48.30033 c -0.323224,-0.357158 -0.361573,-1.181732 -0.07123,-1.531573 0.269979,-0.325305 1.168826,-0.286781 1.485997,0.06369 0.35918,0.396889 0.333532,1.078668 -0.0552,1.467401 -0.408841,0.408841 -0.989818,0.409047 -1.359564,4.82e-4 z m 1.246784,-0.335717 c 0.393316,-0.627814 -0.278089,-1.426446 -0.904495,-1.075892 -0.308734,0.172776 -0.349215,0.940638 -0.06459,1.225259 0.255656,0.255656 0.764482,0.17723 0.969089,-0.149367 z m 0.75278,-0.384765 c 0,-0.586666 0.06974,-1.04 0.16,-1.04 0.088,0 0.16,0.18 0.16,0.4 0,0.337778 0.07467,0.4 0.48,0.4 0.409462,0 0.48,-0.06074 0.48,-0.413333 0,-0.235062 0.07763,-0.387455 0.18,-0.353333 0.21199,0.07066 0.250337,1.884167 0.04,1.891641 -0.077,0.0027 -0.162782,-0.177264 -0.190628,-0.4 -0.04122,-0.329762 -0.1378,-0.404975 -0.52,-0.404975 -0.414858,0 -0.469372,0.05575 -0.469372,0.48 0,0.264 -0.072,0.48 -0.16,0.48 -0.09026,0 -0.16,-0.453333 -0.16,-1.04 z m -23.0400035,0.64 c 0.10955,-0.132 0.27119,-0.24 0.35919,-0.24 0.0893,0 0.0719,0.106122 -0.0392,0.24 -0.10955,0.132 -0.27118,0.24 -0.35918,0.24 -0.0892,0 -0.0719,-0.106121 0.0392,-0.24 z m 0.64,-0.526644 c 0,-0.166684 0.34576,-0.513356 0.512,-0.513356 0.23575,0 0.13127,0.240985 -0.192,0.442869 -0.176,0.109914 -0.32,0.141633 -0.32,0.07049 z M 49.207023,47.251797 c -0.318771,-0.318771 -0.384381,-0.502366 -0.299864,-0.839105 0.16117,-0.642156 0.383944,-0.832844 0.97298,-0.832844 0.924554,0 1.368411,1.10107 0.709481,1.76 -0.431901,0.431901 -0.891943,0.402603 -1.382597,-0.08805 z m 1.291479,-0.435403 c 0.127787,-0.364843 0.09636,-0.502415 -0.177287,-0.776062 -0.275037,-0.275037 -0.391371,-0.301159 -0.672101,-0.150916 -0.383665,0.205331 -0.486858,1.202122 -0.139494,1.347427 0.43447,0.181743 0.838065,0.01014 0.988882,-0.420449 z m 0.731118,-0.196546 c 0,-0.586666 0.06974,-1.04 0.16,-1.04 0.088,0 0.16,0.18 0.16,0.4 0,0.337778 0.07467,0.4 0.48,0.4 0.405333,0 0.48,-0.06222 0.48,-0.4 0,-0.22 0.072,-0.4 0.16,-0.4 0.0904,0 0.16,0.456481 0.16,1.049443 0,0.658886 -0.05954,1.012642 -0.16,0.950557 -0.088,-0.05439 -0.16,-0.274636 -0.16,-0.489442 0,-0.327286 -0.07776,-0.390558 -0.48,-0.390558 -0.426667,0 -0.48,0.05333 -0.48,0.48 0,0.264 -0.072,0.48 -0.16,0.48 -0.09026,0 -0.16,-0.453333 -0.16,-1.04 z m -46.2400035,0.272 c 0,-0.166244 0.34667,-0.512 0.51336,-0.512 0.0711,0 0.0394,0.144 -0.0705,0.32 -0.20188,0.323268 -0.44287,0.427744 -0.44287,0.192 z m 68.6400035,-0.512 c -0.673474,-0.673474 -0.271171,-1.813333 0.64,-1.813333 0.631065,0 0.96,0.38199 0.96,1.114841 0,0.898273 -0.974705,1.323788 -1.6,0.698492 z m 1.088,-0.192 c 0.574938,-0.574938 -0.06935,-1.621906 -0.768,-1.248 -0.58578,0.3135 -0.335447,1.44 0.32,1.44 0.1408,0 0.3424,-0.0864 0.448,-0.192 z m 0.952,0.420625 c -0.180722,-0.18367 -0.144416,-1.988625 0.04,-1.988625 0.088,0 0.16,0.18 0.16,0.4 0,0.337778 0.07467,0.4 0.48,0.4 0.409462,0 0.48,-0.06074 0.48,-0.413333 0,-0.259556 0.07441,-0.38853 0.2,-0.346667 0.242417,0.08081 0.280544,1.877496 0.04,1.884975 -0.088,0.0027 -0.182782,-0.177264 -0.210628,-0.4 -0.04094,-0.327477 -0.138509,-0.404975 -0.509862,-0.404975 -0.395948,0 -0.466145,0.06826 -0.509373,0.495291 -0.02757,0.27241 -0.104137,0.44041 -0.170137,0.373334 z m -53.296025,-1.804575 -1.730568,-1.735951 -4.026704,1.034616 -4.026703,1.034616 -1.56,-0.36752 c -0.858003,-0.202136 -1.5600035,-0.426535 -1.5600035,-0.498665 0,-0.197962 0.29402,-0.161746 1.5100315,0.186003 0.609955,0.174431 1.125413,0.300431 1.145463,0.28 0.02005,-0.02043 -0.893233,-1.618353 -2.029514,-3.550936 L 8.0296165,37.672275 v -1.406214 c 0,-1.831965 0.29327,-1.838084 0.35377,-0.0074 l 0.0462,1.398852 3.7600035,0.984633 c 2.068,0.541547 3.780289,0.965784 3.805087,0.942747 0.0248,-0.02304 -0.393447,-0.789596 -0.929432,-1.703465 -1.073154,-1.829757 -1.09558,-1.98244 -0.555443,-3.78158 0.417673,-1.391222 0.563923,-0.943904 0.171663,0.525043 l -0.364515,1.365043 1.035731,1.794957 c 0.569652,0.987227 1.062061,1.824022 1.094241,1.859545 0.03218,0.03552 1.536381,-0.317541 3.342668,-0.784588 1.806287,-0.467046 3.329208,-0.804125 3.384269,-0.749064 0.145278,0.145278 -0.321073,0.290621 -3.717818,1.15869 l -3.053549,0.780363 -3.814643,-0.993469 C 10.489797,38.50996 8.7482465,38.087855 8.7177465,38.118357 c -0.0813,0.08132 3.8062935,6.661491 3.9356505,6.661491 0.06032,0 1.895794,-0.458098 4.07883,-1.017996 l 3.969158,-1.017996 3.864102,1.002093 c 2.125257,0.551151 3.87494,0.991249 3.888185,0.977996 0.01324,-0.01325 -0.688755,-1.232812 -1.56,-2.710132 -0.871245,-1.477319 -1.584082,-2.770748 -1.584082,-2.874286 0,-0.357055 0.419183,0.267004 1.98557,2.956023 l 1.558631,2.675702 1.284456,-0.645812 c 0.706451,-0.355197 1.325006,-0.605262 1.374566,-0.555702 0.118987,0.118987 0.152703,0.09681 -1.357494,0.892862 l -1.31427,0.692776 -3.792301,-0.977298 -3.792302,-0.977298 1.546572,1.552396 c 0.850615,0.853819 1.546572,1.605109 1.546572,1.669535 0,0.296472 -0.363744,-0.0015 -1.976025,-1.618813 z M 5.7896165,46.07944 c 0,-0.07722 0.108,-0.230041 0.24,-0.339592 0.26052,-0.216207 0.29308,-0.16449 0.14288,0.226914 -0.1028,0.267915 -0.38288,0.350337 -0.38288,0.112678 z m 41.2176255,-2.241915 -1.736921,-1.742323 -4.02035,1.038749 -4.020351,1.03875 -1.56,-0.365281 c -0.858,-0.200904 -1.56,-0.424296 -1.56,-0.496426 0,-0.190802 0.264002,-0.160985 1.563792,0.176617 l 1.163792,0.302279 -0.325318,-0.526376 C 36.332961,42.974008 35.395254,41.383931 34.428094,39.730012 L 32.66962,36.722884 v -1.411518 c 0,-0.834345 0.06542,-1.411518 0.16,-1.411518 0.09416,0 0.16,0.561674 0.16,1.365022 0,0.99495 0.05827,1.38738 0.214917,1.447493 0.118205,0.04536 1.845235,0.504555 3.837846,1.020434 3.390579,0.877808 3.611408,0.915807 3.4433,0.592507 -0.0988,-0.190001 -0.470796,-0.848227 -0.826669,-1.462725 -1.099247,-1.898106 -1.066176,-1.793309 -0.826891,-2.62034 0.118139,-0.408315 0.295265,-1.050563 0.393614,-1.427219 0.09835,-0.376655 0.240638,-0.64662 0.316198,-0.599922 0.07556,0.0467 -0.03175,0.699644 -0.238467,1.450991 l -0.375848,1.366085 1.047123,1.793837 c 0.575918,0.986611 1.074934,1.822904 1.108926,1.85843 0.03399,0.03553 1.497651,-0.314169 3.252577,-0.7771 1.754927,-0.462931 3.28586,-0.80638 3.402075,-0.76322 0.164537,0.06111 0.158186,0.0992 -0.0287,0.172131 -0.508079,0.198277 -6.409292,1.70358 -6.67733,1.703277 -0.155468,-1.75e-4 -1.930432,-0.434413 -3.944363,-0.964974 -2.013931,-0.53056 -3.693375,-0.932972 -3.732098,-0.894249 -0.06592,0.06592 3.519524,6.264536 3.789578,6.551536 0.06831,0.0726 1.935551,-0.335178 4.149423,-0.906166 l 4.025222,-1.038159 3.874784,1.009573 c 2.131131,0.555265 3.883359,0.999039 3.893839,0.986166 0.01048,-0.01287 -0.68744,-1.211408 -1.550932,-2.663408 -0.863492,-1.452 -1.574067,-2.7444 -1.579055,-2.872 -0.01535,-0.392608 0.223652,-0.0386 1.830932,2.712 0.848458,1.452 1.591949,2.690795 1.652203,2.752877 0.06025,0.06208 0.604697,-0.174376 1.209876,-0.525464 1.005776,-0.583489 1.385443,-0.700056 1.16622,-0.358058 -0.04606,0.07185 -0.611269,0.408832 -1.256022,0.748838 l -1.172278,0.618193 -3.752608,-0.973786 -3.752609,-0.973787 1.552609,1.558456 c 0.853934,0.857151 1.552608,1.611168 1.552608,1.675594 0,0.296594 -0.364245,-0.002 -1.982378,-1.625186 z M 6.5896165,45.292773 c 0,-0.08456 0.11631,-0.250266 0.25846,-0.36824 0.2236,-0.185577 0.25057,-0.173826 0.2,0.08715 -0.0603,0.31098 -0.45846,0.555121 -0.45846,0.28109 z m 0.98455,-0.472925 c -0.5504,-0.465731 -0.6006,-1.078492 -0.12714,-1.551948 0.49303,-0.493033 0.88555,-0.516779 1.35242,-0.08182 0.49098,0.457418 0.45905,1.164897 -0.0714,1.582155 -0.51427,0.404525 -0.72564,0.413979 -1.15388,0.05161 z m 1.00402,-0.291428 c 0.13829,-0.138286 0.25143,-0.385143 0.25143,-0.548572 0,-0.337219 -0.4046,-0.8 -0.69943,-0.8 -0.32211,0 -0.58057,0.35614 -0.58057,0.8 0,0.732194 0.55106,1.02609 1.02857,0.548572 z M 110.18962,44.61985 c -0.0561,-0.09074 0.0783,-0.16 0.31056,-0.16 0.29684,0 0.40944,-0.08434 0.40944,-0.306666 0,-0.168667 -0.09,-0.336958 -0.2,-0.373981 -0.15622,-0.05258 -0.15228,-0.125129 0.018,-0.33144 0.18585,-0.225157 0.18108,-0.2783 -0.0323,-0.360197 -0.1377,-0.05284 -0.3438,-0.04355 -0.45802,0.02065 -0.11421,0.06419 -0.0803,-0.01821 0.0753,-0.18311 0.42768,-0.453107 0.78286,-0.134701 0.86075,0.771646 0.0531,0.617915 0.01,0.776663 -0.24923,0.915335 -0.39304,0.210346 -0.60792,0.212619 -0.73452,0.0078 z m 12.7556,-0.08907 c -0.51733,-0.362355 -0.50096,-1.408304 0.0275,-1.75454 1.04924,-0.687517 2.1144,0.78611 1.2169,1.68361 -0.38442,0.384418 -0.76579,0.406156 -1.2444,0.07093 z m 1.13162,-0.406163 c 0.39868,-0.636382 -0.38383,-1.555739 -0.9349,-1.098392 -0.28414,0.235819 -0.30447,0.977482 -0.0342,1.247759 0.25566,0.255655 0.76448,0.17723 0.96909,-0.149367 z M 71.380607,42.878648 69.54962,41.146086 65.560297,42.173628 61.570973,43.20117 60.120297,42.849581 c -0.797872,-0.193375 -1.519077,-0.414172 -1.602677,-0.49066 -0.252908,-0.231395 0.399422,-0.160117 1.552509,0.169636 0.59372,0.169789 1.079491,0.282974 1.079491,0.251523 0,-0.03145 -0.9,-1.585267 -2,-3.452926 l -2,-3.395742 v -1.495781 c 0,-0.89052 0.06474,-1.495781 0.16,-1.495781 0.09439,0 0.160474,0.574104 0.161156,1.4 l 0.0012,1.4 3.718844,0.971352 c 2.045364,0.534244 3.744482,0.952606 3.775817,0.929694 0.03134,-0.02291 -0.402654,-0.820021 -0.96442,-1.771352 l -1.021437,-1.729694 -1.01393,-6.4 c -0.557661,-3.52 -1.023672,-6.408867 -1.035579,-6.419705 -0.01191,-0.01084 -1.59876,-0.43136 -3.526338,-0.934494 -1.927577,-0.503135 -3.619577,-0.954033 -3.76,-1.001997 -0.140422,-0.04796 0.499401,0.678559 1.421828,1.614495 0.922428,0.935936 1.610221,1.701701 1.528429,1.701701 -0.08179,0 -0.944506,-0.784454 -1.917141,-1.743232 l -1.768429,-1.743232 -3.84,1.018731 c -2.112,0.560301 -4.015097,1.020756 -4.229104,1.023232 -0.488154,0.0056 -2.918257,-0.629893 -3.122896,-0.816725 -0.234518,-0.214111 0.188739,-0.165303 1.4842,0.171152 0.790869,0.205403 1.148021,0.243549 1.097874,0.117258 -0.04088,-0.102951 -0.946232,-1.663184 -2.011897,-3.467184 l -1.937571,-3.28 -3.03e-4,-1.48 c -1.8e-4,-0.880202 0.06454,-1.48 0.159697,-1.48 0.0946,0 0.16,0.578268 0.16,1.414803 v 1.414803 l 3.793168,0.978696 c 2.086243,0.538282 3.808421,0.963443 3.827062,0.944802 0.01864,-0.01864 -0.436864,-0.813873 -1.012233,-1.767181 l -1.046125,-1.733288 0.363291,-1.351848 c 0.19981,-0.743517 0.424389,-1.3896088 0.499064,-1.4357598 0.207196,-0.128055 0.166233,0.185264 -0.198163,1.5157258 l -0.333937,1.219247 1.065175,1.8 c 0.585846,0.99 1.145455,1.8 1.243576,1.8 0.09812,0 1.576387,-0.363559 3.285037,-0.807908 1.708649,-0.44435 3.189311,-0.776932 3.29036,-0.739072 0.283382,0.106176 -0.364585,0.309673 -3.686795,1.157858 l -3.070521,0.783926 -3.8822,-0.991348 c -2.13521,-0.545241 -3.896391,-0.976072 -3.913736,-0.957402 -0.01734,0.01867 0.824279,1.473946 1.870273,3.233946 1.045994,1.76 1.926539,3.270889 1.956766,3.357531 0.06009,0.172228 0.586511,0.05486 5.240356,-1.16836 l 2.970417,-0.780746 3.829486,1.002551 c 2.106217,0.551403 3.853118,0.978919 3.882002,0.950034 0.02888,-0.02888 -0.673072,-1.290431 -1.559903,-2.803437 -0.886831,-1.513006 -1.61242,-2.779417 -1.61242,-2.814247 0,-0.390658 0.556051,0.418651 2.011775,2.928052 l 1.735322,2.991378 0.582911,3.608622 c 0.3206,1.984742 0.783725,4.889765 1.029165,6.455605 l 0.446255,2.846983 0.956432,1.633017 c 0.526037,0.89816 1.045963,1.728593 1.15539,1.845407 0.164455,0.175557 0.639774,0.09726 2.740854,-0.451469 1.398043,-0.365123 2.882332,-0.762353 3.298421,-0.882734 0.416089,-0.120381 0.795014,-0.156598 0.842056,-0.08048 0.09651,0.156161 -0.486211,0.33439 -4.238581,1.296397 l -2.64,0.676826 -3.814187,-0.997944 c -2.097803,-0.548869 -3.836693,-0.974327 -3.8642,-0.945463 -0.03865,0.04055 3.653084,6.441333 3.843118,6.66325 0.02391,0.02792 1.86863,-0.41636 4.099373,-0.987298 l 4.055896,-1.038072 3.84,0.997662 c 2.112,0.548714 3.858708,0.98629 3.881573,0.972392 0.02287,-0.0139 -0.686389,-1.265308 -1.576118,-2.780911 -0.88973,-1.515604 -1.574438,-2.798896 -1.521573,-2.851761 0.129375,-0.129375 0.01205,-0.308984 1.853356,2.837215 0.901283,1.54 1.65238,2.815769 1.669104,2.835042 0.01672,0.01927 0.949802,-0.579006 2.073505,-1.329509 1.123704,-0.750503 2.117678,-1.339691 2.208833,-1.309306 0.09115,0.03038 -0.84083,0.722859 -2.071076,1.538832 l -2.236811,1.483588 -3.561221,-0.902336 c -1.958671,-0.496285 -3.67785,-0.942271 -3.820396,-0.99108 -0.142547,-0.04881 0.457153,0.638718 1.332666,1.527837 0.875513,0.88912 1.555457,1.652966 1.510987,1.697436 -0.04447,0.04447 -0.904799,-0.698797 -1.911842,-1.651706 z m 53.449013,0.781202 c 0,-0.533333 0.0711,-0.96 0.16,-0.96 0.088,0 0.16,0.18 0.16,0.4 0,0.337778 0.0747,0.4 0.48,0.4 0.40533,0 0.48,-0.06222 0.48,-0.4 0,-0.22 0.072,-0.4 0.16,-0.4 0.0889,0 0.16,0.426667 0.16,0.96 0,0.533334 -0.0711,0.96 -0.16,0.96 -0.088,0 -0.16,-0.18 -0.16,-0.4 0,-0.337777 -0.0747,-0.4 -0.48,-0.4 -0.40533,0 -0.48,0.06222 -0.48,0.4 0,0.22 -0.072,0.4 -0.16,0.4 -0.0889,0 -0.16,-0.426666 -0.16,-0.96 z m -92.503835,0.258088 c -0.58795,-0.293125 -0.746052,-0.967402 -0.351341,-1.498409 0.45269,-0.609009 1.047783,-0.652106 1.476613,-0.106938 0.398809,0.507004 0.424902,0.832791 0.103458,1.291717 -0.301621,0.430624 -0.759594,0.54752 -1.22873,0.31363 z m 0.922843,-0.504642 c 0.458189,-0.699286 -0.177182,-1.518472 -0.830679,-1.070996 -0.331696,0.227127 -0.397988,0.718978 -0.14827,1.100095 0.319913,0.488249 0.646327,0.478546 0.978949,-0.0291 z M 56.432577,42.75995 c -0.417716,-0.417715 -0.260722,-1.355603 0.277043,-1.655073 0.395123,-0.220036 0.484877,-0.220036 0.88,0 0.331994,0.184881 0.451898,0.386189 0.488472,0.8201 0.05862,0.695402 -0.280144,1.094873 -0.928472,1.094873 -0.251429,0 -0.574098,-0.116955 -0.717043,-0.2599 z m 1.277043,-0.682662 c 0,-0.956773 -1.03418,-1.123862 -1.172653,-0.189461 -0.09208,0.621316 0.08726,0.836625 0.651553,0.782243 0.475813,-0.04586 0.5211,-0.09737 0.5211,-0.592782 z m 62.92841,-1.125204 -1.83774,-1.754944 -4.01662,1.035942 -4.01662,1.035941 -2.60108,-0.701693 c -1.4306,-0.385932 -2.62663,-0.778334 -2.65786,-0.872005 -0.0312,-0.09367 0.86534,0.07848 1.99237,0.382561 1.12703,0.304081 2.24672,0.595334 2.4882,0.647231 0.40947,0.088 0.30201,-0.136115 -1.59453,-3.325455 l -2.03359,-3.419812 -0.062,-1.415501 c -0.0394,-0.899252 0.002,-1.479873 0.11453,-1.592 0.12867,-0.128665 0.1765,0.220766 0.1765,1.289334 v 1.465833 l 0.68,0.186372 c 3.26269,0.894226 7.16,1.855253 7.16,1.765564 0,-0.06075 -0.25168,-1.785241 -0.55929,-3.832193 l -0.55929,-3.721732 2.17438,-6.272839 c 2.25308,-6.499899 2.36976,-6.807266 2.49544,-6.573384 0.0415,0.0773 -0.91891,2.984546 -2.13432,6.460546 l -2.20984,6.32 0.56104,3.831248 c 0.30857,2.107186 0.58118,3.851384 0.60579,3.875996 0.0246,0.02461 1.51655,-0.342347 3.31542,-0.815464 2.9742,-0.782239 3.76844,-0.928864 3.23047,-0.59638 -0.10501,0.0649 -1.65591,0.500558 -3.44644,0.968128 l -3.25551,0.850126 -3.73306,-0.982117 c -2.05318,-0.540164 -3.79206,-0.961736 -3.86419,-0.936827 -0.0946,0.03267 3.49623,6.371145 3.76214,6.640861 0.0193,0.01956 1.8524,-0.431363 4.07359,-1.002059 l 4.03853,-1.03763 3.76793,0.973362 c 2.07237,0.535348 3.80341,0.937889 3.84677,0.894533 0.0434,-0.04335 -0.62134,-1.274658 -1.47711,-2.73623 -0.85576,-1.461571 -1.51015,-2.703184 -1.45419,-2.759141 0.13266,-0.132656 8.7e-4,-0.333512 1.7004,2.591594 0.81807,1.408 1.56766,2.677214 1.66575,2.820475 0.15883,0.23195 0.30963,0.184649 1.37698,-0.431936 1.2441,-0.718691 1.43861,-0.796937 1.43861,-0.578716 0,0.0714 -0.61192,0.470558 -1.35982,0.887011 l -1.35981,0.757187 -3.48019,-0.895824 c -1.9141,-0.492703 -3.62418,-0.935162 -3.80018,-0.983241 -0.176,-0.04808 0.39633,0.637558 1.27184,1.523638 0.87552,0.886081 1.5519,1.650999 1.50308,1.69982 -0.0488,0.04882 -0.91575,-0.700961 -1.92651,-1.66618 z m 15.55622,1.114016 c -0.12945,-0.08187 -0.19375,-0.19046 -0.1429,-0.241316 0.12604,-0.12604 0.61827,0.07473 0.61827,0.252185 0,0.182365 -0.17619,0.178337 -0.47537,-0.01087 z m -0.89631,-0.562814 c -0.2707,-0.204796 -0.27531,-0.233879 -0.0378,-0.238347 0.1488,-0.0028 0.31801,0.0717 0.37602,0.165556 0.17429,0.282013 -0.009,0.321552 -0.33826,0.07279 z M 134.27425,40.9461 c -0.12945,-0.08187 -0.19375,-0.19046 -0.1429,-0.241316 0.12604,-0.12604 0.61827,0.07473 0.61827,0.252185 0,0.182365 -0.17619,0.178337 -0.47537,-0.01087 z M 78.02962,39.819329 c 0,-1.30176 0.352292,-1.301087 0.425789,8.13e-4 0.04354,0.77126 0.007,0.960146 -0.185789,0.959553 -0.186574,-5.75e-4 -0.24,-0.21436 -0.24,-0.960366 z m 55.34832,0.563957 c -0.2707,-0.204796 -0.27531,-0.233879 -0.0378,-0.238347 0.1488,-0.0028 0.31801,0.0717 0.37602,0.165556 0.17429,0.282013 -0.009,0.321552 -0.33826,0.07279 z M 82.678693,40.104249 c -0.540588,-0.771797 -0.12511,-1.724399 0.752097,-1.724399 0.564536,0 0.91883,0.395861 0.91883,1.026631 0,0.96787 -1.14642,1.446607 -1.670927,0.697768 z M 83.94962,39.41985 c 0,-0.546444 -0.05391,-0.647642 -0.368807,-0.692282 -0.467974,-0.06634 -0.831193,0.230754 -0.831193,0.679873 0,0.476735 0.318393,0.755436 0.798876,0.699286 0.353499,-0.04131 0.401124,-0.122864 0.401124,-0.686877 z m 19.44,0.72 c -0.3836,-0.3836 -0.41066,-0.919365 -0.0709,-1.404399 0.51017,-0.728402 1.8309,-0.234713 1.8309,0.684399 0,0.513484 -0.52652,1.04 -1.04,1.04 -0.22,0 -0.544,-0.144 -0.72,-0.32 z m 1.29083,-0.340239 c 0.26719,-0.499243 -0.0445,-1.099761 -0.57083,-1.099761 -0.27294,0 -0.46382,0.125005 -0.57989,0.379761 -0.23599,0.517947 0.0606,1.060239 0.57989,1.060239 0.2327,0 0.46183,-0.136575 0.57083,-0.340239 z m 25.51824,-0.175362 c -0.51329,-0.732832 -0.0652,-1.724399 0.77932,-1.724399 0.41962,0 1.05161,0.664661 1.05161,1.105977 0,0.529652 -0.47447,0.974023 -1.04,0.974023 -0.37856,0 -0.61692,-0.107166 -0.79093,-0.355601 z m 1.34044,-0.340687 c 0.18621,-0.503377 0.0176,-0.895831 -0.43352,-1.009055 -0.74534,-0.187068 -1.14086,0.833655 -0.49762,1.284201 0.40529,0.283878 0.7635,0.17803 0.93114,-0.275146 z m -4.0153,-0.582282 c -0.0374,-0.661671 0.008,-0.982237 0.14579,-1.034979 0.14314,-0.05468 0.2,0.145887 0.2,0.705485 0,0.430041 0.0437,0.895781 0.0971,1.034978 0.0623,0.162292 0.01,0.253086 -0.14579,0.253086 -0.18415,0 -0.25602,-0.231881 -0.29712,-0.95857 z M 23.798693,38.504249 c -0.334134,-0.477042 -0.313733,-0.799041 0.08254,-1.302821 0.398514,-0.506629 0.981853,-0.548112 1.428387,-0.101578 0.663399,0.663399 0.21479,1.76 -0.72,1.76 -0.378558,0 -0.616917,-0.107166 -0.790927,-0.355601 z m 1.428955,-0.438185 c 0.268524,-0.846045 -0.88829,-1.380887 -1.202011,-0.555738 -0.167703,0.441092 0.0022,0.944982 0.36215,1.073959 0.296714,0.106324 0.725638,-0.158337 0.839861,-0.518221 z m 23.211045,-0.521815 c -0.339731,-0.485034 -0.312673,-1.020798 0.07093,-1.404399 0.879364,-0.879363 2.221598,0.311682 1.533949,1.361166 -0.350036,0.534223 -1.244104,0.558308 -1.604876,0.04323 z m 1.34532,-0.273923 c 0.260671,-0.487067 -0.05456,-1.130476 -0.553863,-1.130476 -0.52685,0 -0.838696,0.600243 -0.571362,1.099761 0.23111,0.431832 0.900771,0.450111 1.125225,0.03072 z m 23.137036,-0.581904 c -0.343966,-0.343966 -0.320468,-1.236496 0.04117,-1.563774 0.670951,-0.607202 1.627401,-0.09824 1.627401,0.866005 0,0.811056 -1.096674,1.269666 -1.668571,0.697769 z M 74.07762,36.42785 c 0.1056,-0.1056 0.192,-0.348784 0.192,-0.540409 0,-0.820267 -1.159476,-0.981487 -1.251932,-0.174075 -0.02856,0.249434 -0.01282,0.555434 0.03498,0.68 0.106009,0.276255 0.761141,0.298297 1.024953,0.03448 z m -17.888,-0.048 c 0,-0.149333 -0.151111,-0.24 -0.4,-0.24 -0.22,0 -0.4,-0.06402 -0.4,-0.142274 0,-0.221459 0.628677,-0.921942 0.634677,-0.707168 0.0029,0.104806 -0.06668,0.235055 -0.154677,0.289442 -0.256045,0.158245 -0.184477,0.39935 0.08756,0.294962 0.164645,-0.06318 0.231627,-0.257135 0.2,-0.57912 -0.02765,-0.281463 0.03617,-0.513088 0.152445,-0.553316 0.134225,-0.04644 0.2,0.108838 0.2,0.472141 0,0.297733 0.0864,0.627733 0.192,0.733333 0.149333,0.149334 0.149333,0.192 0,0.192 -0.1056,0 -0.192,0.108 -0.192,0.24 0,0.132 -0.072,0.24 -0.16,0.24 -0.088,0 -0.16,-0.108 -0.16,-0.24 z m 66.14395,-1.48245 c -0.58744,-0.392247 -0.62188,-1.498954 -0.0561,-1.80177 0.76872,-0.411411 1.59211,0.06429 1.59211,0.919821 0,0.703459 -0.9696,1.260174 -1.53605,0.881949 z m 1.09082,-0.609975 c 0.25107,-0.551039 -0.005,-0.947575 -0.61221,-0.947575 -0.38907,0 -0.47081,0.07205 -0.51449,0.453516 -0.0756,0.659784 0.0688,0.906484 0.53034,0.906484 0.28369,0 0.46585,-0.125969 0.59636,-0.412425 z M 7.6511965,34.208235 c -0.56647,-0.445585 -0.56647,-1.131188 0,-1.576774 0.23187,-0.182387 0.52314,-0.331613 0.64727,-0.331613 0.342,0 1.01115,0.741191 1.01115,1.12 0,0.37881 -0.66915,1.12 -1.01115,1.12 -0.12413,0 -0.4154,-0.149225 -0.64727,-0.331613 z m 0.98642,-0.180387 c 0.40937,-0.409363 0.13377,-1.408 -0.38857,-1.408 -0.29482,0 -0.69943,0.462781 -0.69943,0.8 0,0.33722 0.40461,0.8 0.69943,0.8 0.10812,0 0.28297,-0.0864 0.38857,-0.192 z m 0.992,-0.608 c 0,-0.533333 0.0711,-0.96 0.16,-0.96 0.088,0 0.16,0.18 0.16,0.4 0,0.337778 0.074701,0.4 0.4800005,0.4 0.405336,0 0.480003,-0.06222 0.480003,-0.4 0,-0.22 0.072,-0.4 0.16,-0.4 0.08889,0 0.16,0.426667 0.16,0.96 0,0.533334 -0.07111,0.96 -0.16,0.96 -0.088,0 -0.16,-0.18 -0.16,-0.4 0,-0.337777 -0.07467,-0.4 -0.480003,-0.4 -0.40533,0 -0.4800005,0.06222 -0.4800005,0.4 0,0.22 -0.072,0.4 -0.16,0.4 -0.0889,0 -0.16,-0.426666 -0.16,-0.96 z M 32.291197,33.248235 c -0.515791,-0.405721 -0.56198,-1.127984 -0.101577,-1.588387 0.641489,-0.641489 1.653333,-0.151887 1.653333,0.8 0,0.358344 -0.117957,0.625383 -0.364392,0.824933 -0.466231,0.377532 -0.668879,0.371295 -1.187364,-0.03655 z m 0.986423,-0.180387 c 0.409364,-0.409363 0.133766,-1.408 -0.388571,-1.408 -0.294827,0 -0.699429,0.462781 -0.699429,0.8 0,0.33722 0.404602,0.8 0.699429,0.8 0.108114,0 0.282971,-0.0864 0.388571,-0.192 z m 0.992,-0.697442 c 0,-0.658886 0.05954,-1.012642 0.16,-0.950558 0.088,0.05439 0.16,0.274636 0.16,0.489443 0,0.327286 0.07776,0.390557 0.48,0.390557 0.428725,0 0.48,-0.05228 0.48,-0.489442 0,-0.285553 0.06665,-0.44825 0.16,-0.390558 0.088,0.05439 0.16,0.526636 0.16,1.049443 0,0.527038 -0.07129,0.950557 -0.16,0.950557 -0.088,0 -0.16,-0.18 -0.16,-0.4 0,-0.337778 -0.07467,-0.4 -0.48,-0.4 -0.405333,0 -0.48,0.06222 -0.48,0.4 0,0.22 -0.072,0.4 -0.16,0.4 -0.0904,0 -0.16,-0.456481 -0.16,-1.049442 z m 31.153167,0.843243 c -0.3112,-0.240246 -0.37317,-0.546483 -0.224455,-1.109182 0.11217,-0.424424 0.685769,-0.883471 0.871658,-0.697582 0.05113,0.05113 0.0115,0.09296 -0.08807,0.09296 -0.09957,0 -0.262754,0.152689 -0.36263,0.339309 -0.105056,0.196299 -0.113514,0.297233 -0.02007,0.239481 0.317886,-0.196465 0.670402,0.09416 0.670402,0.552699 0,0.556134 -0.465823,0.87645 -0.846833,0.582312 z m 0.526833,-0.513801 c 0,-0.248889 -0.09067,-0.4 -0.24,-0.4 -0.149333,0 -0.24,0.151111 -0.24,0.4 0,0.248889 0.09067,0.4 0.24,0.4 0.149333,0 0.24,-0.151111 0.24,-0.4 z M 14.662347,32.547121 c -0.216,-0.216 -0.392727,-0.543273 -0.392727,-0.727273 0,-0.393746 0.674379,-1.12 1.04,-1.12 0.365621,0 1.04,0.726254 1.04,1.12 0,0.393746 -0.674379,1.12 -1.04,1.12 -0.14,0 -0.431273,-0.176727 -0.647273,-0.392727 z m 1.115844,-0.178701 c 0.316358,-0.316357 0.316897,-0.5439 0.0024,-0.992971 -0.321123,-0.458468 -0.640965,-0.451117 -0.950868,0.02185 -0.508398,0.775914 0.307932,1.611698 0.948512,0.971117 z m 1.691429,0.352765 c 0,-0.120265 0.153599,-0.588265 0.341332,-1.04 0.461528,-1.110561 0.76282,-1.07659 1.246253,0.140514 0.375781,0.946077 0.342733,1.46635 -0.05831,0.917898 -0.250424,-0.342481 -0.980902,-0.368706 -1.107135,-0.03975 -0.115167,0.300119 -0.42214,0.315634 -0.42214,0.02134 z m 1.12,-0.891894 c 0,-0.08281 -0.072,-0.195056 -0.16,-0.249443 -0.088,-0.05439 -0.16,0.01336 -0.16,0.150558 0,0.137193 0.072,0.249442 0.16,0.249442 0.088,0 0.16,-0.06775 0.16,-0.150557 z m 1.066667,1.003891 c -0.05867,-0.05867 -0.106667,-0.418667 -0.106667,-0.8 0,-0.663704 0.02051,-0.693334 0.48,-0.693334 0.32,0 0.48,0.08 0.48,0.24 0,0.132 -0.108,0.24 -0.24,0.24 -0.167619,0 -0.24,0.168889 -0.24,0.56 0,0.529474 -0.134216,0.692451 -0.373333,0.453334 z m 1.065236,-0.148859 c -0.137507,-0.358337 0.07037,-0.704475 0.423075,-0.704475 0.178762,0 0.325022,-0.07337 0.325022,-0.163048 0,-0.09618 -0.172605,-0.119727 -0.42086,-0.05742 -0.318684,0.07998 -0.402848,0.05159 -0.346667,-0.116952 0.04407,-0.1322 0.296171,-0.222581 0.62086,-0.222581 0.53518,0 0.547664,0.0153 0.59413,0.728079 l 0.04746,0.728078 -0.578442,0.0164 c -0.361045,0.01024 -0.610816,-0.06797 -0.664581,-0.208078 z m 0.748097,-0.40336 c 0,-0.088 -0.072,-0.115502 -0.16,-0.06111 -0.088,0.05439 -0.16,0.170886 -0.16,0.258886 0,0.088 0.072,0.115501 0.16,0.06111 0.088,-0.05439 0.16,-0.170885 0.16,-0.258886 z m 35.397673,0.173038 c -0.743179,-0.298568 -0.778925,-1.517447 -0.05585,-1.904424 0.466934,-0.249896 0.779243,-0.208663 1.138177,0.150271 0.460403,0.460403 0.414214,1.182666 -0.101577,1.588387 -0.469347,0.369189 -0.472906,0.36979 -0.98075,0.165766 z m 0.830898,-0.405581 c 0.292294,-0.292293 0.318115,-0.605006 0.0858,-1.03909 -0.329574,-0.615814 -1.114371,-0.270365 -1.114371,0.490518 0,0.732194 0.551054,1.026089 1.028571,0.548572 z m 0.891429,-0.638014 c 0,-0.658886 0.05954,-1.012642 0.16,-0.950558 0.088,0.05439 0.16,0.274636 0.16,0.489443 0,0.327286 0.07776,0.390557 0.48,0.390557 0.402239,0 0.48,-0.06327 0.48,-0.390557 0,-0.214807 0.072,-0.435056 0.16,-0.489443 0.100455,-0.06208 0.16,0.291672 0.16,0.950558 0,0.592961 -0.0696,1.049442 -0.16,1.049442 -0.088,0 -0.16,-0.216 -0.16,-0.48 0,-0.426666 -0.05333,-0.48 -0.48,-0.48 -0.426667,0 -0.48,0.05333 -0.48,0.48 0,0.264 -0.072,0.48 -0.16,0.48 -0.0904,0 -0.16,-0.456481 -0.16,-1.049442 z m -42.08,0.729442 c 0,-0.088 0.18,-0.16 0.4,-0.16 0.22,0 0.4,0.072 0.4,0.16 0,0.088 -0.18,0.16 -0.4,0.16 -0.22,0 -0.4,-0.072 -0.4,-0.16 z m 22.821577,-0.491613 c -0.27955,-0.219894 -0.421577,-0.485497 -0.421577,-0.788387 0,-0.459461 0.615629,-1.12 1.043852,-1.12 0.336386,0 0.856568,0.534902 0.96465,0.991949 0.07891,0.333674 0.0093,0.524785 -0.305905,0.84 -0.494665,0.494665 -0.731375,0.508789 -1.28102,0.07644 z m 0.986423,-0.180387 c 0.409364,-0.409363 0.133766,-1.408 -0.388571,-1.408 -0.294827,0 -0.699429,0.462781 -0.699429,0.8 0,0.33722 0.404602,0.8 0.699429,0.8 0.108114,0 0.282971,-0.0864 0.388571,-0.192 z m 1.754238,0.420905 c -0.0501,-0.0501 0.07483,-0.500102 0.277617,-1 0.510934,-1.259496 0.850246,-1.280148 1.318643,-0.08026 0.352299,0.902479 0.289655,1.42315 -0.11287,0.938136 -0.261828,-0.315482 -0.903397,-0.319733 -1.023488,-0.0068 -0.09425,0.245603 -0.297421,0.311386 -0.459902,0.148905 z m 1.055622,-1.108905 c -0.05065,-0.132 -0.11269,-0.24 -0.13786,-0.24 -0.02517,0 -0.08721,0.108 -0.13786,0.24 -0.05554,0.144728 -8.11e-4,0.24 0.13786,0.24 0.138671,0 0.193397,-0.09527 0.13786,-0.24 z m 1.164457,1.088984 c -0.05627,-0.05627 -0.102317,-0.414317 -0.102317,-0.79565 0,-0.663704 0.02051,-0.693334 0.48,-0.693334 0.505736,0 0.646628,0.221823 0.24,0.37786 -0.138848,0.05328 -0.24,0.292538 -0.24,0.567676 0,0.473977 -0.183342,0.737789 -0.377683,0.543448 z m 1.076922,-0.172602 c -0.17677,-0.17677 -0.187267,-0.282117 -0.04517,-0.453333 0.101813,-0.122677 0.280049,-0.223049 0.39608,-0.223049 0.116032,0 0.257249,-0.07489 0.313815,-0.166413 0.06727,-0.108841 -0.04739,-0.128706 -0.331417,-0.05742 -0.331308,0.08315 -0.416676,0.05622 -0.360073,-0.113587 0.04407,-0.132199 0.29617,-0.22258 0.620859,-0.22258 0.535772,0 0.547617,0.01461 0.594345,0.733334 0.04718,0.725685 0.04243,0.733333 -0.455239,0.733333 -0.276603,0 -0.606543,-0.103628 -0.7332,-0.230285 z m 0.740761,-0.360803 c 0,-0.08004 -0.107586,-0.104251 -0.239081,-0.05379 -0.131495,0.05046 -0.19852,0.157374 -0.148944,0.237589 0.10369,0.167773 0.388025,0.03309 0.388025,-0.183797 z m -4.924103,-0.183269 c 0.0818,-0.245395 0.761637,-0.291636 0.769077,-0.05231 0.0027,0.088 -0.18511,0.18354 -0.417436,0.21231 -0.295094,0.03654 -0.401081,-0.01168 -0.351641,-0.16 z m 64.533173,-0.967911 c -0.33973,-0.485034 -0.31267,-1.020798 0.0709,-1.404399 0.87936,-0.879363 2.2216,0.311682 1.53395,1.361166 -0.35004,0.534223 -1.24411,0.558308 -1.60488,0.04323 z m 1.34532,-0.273923 c 0.26067,-0.487067 -0.0546,-1.130476 -0.55386,-1.130476 -0.52685,0 -0.8387,0.600243 -0.57136,1.099761 0.23111,0.431832 0.90077,0.450111 1.12522,0.03071 z m 0.80561,-0.419918 c 0,-0.658886 0.0596,-1.012642 0.16,-0.950558 0.088,0.05439 0.16,0.238636 0.16,0.409443 0,0.238397 0.11153,0.310557 0.48,0.310557 0.40533,0 0.48,-0.06222 0.48,-0.4 0,-0.22 0.072,-0.4 0.16,-0.4 0.0903,0 0.16,0.453334 0.16,1.04 0,0.586667 -0.0697,1.04 -0.16,1.04 -0.088,0 -0.16,-0.216 -0.16,-0.48 0,-0.426666 -0.0533,-0.48 -0.48,-0.48 -0.42667,0 -0.48,0.05333 -0.48,0.48 0,0.264 -0.072,0.48 -0.16,0.48 -0.0904,0 -0.16,-0.456481 -0.16,-1.049442 z m 7.5219,-0.707012 c -0.3005,-0.561493 0.2198,-1.618786 0.7829,-1.590914 0.16817,0.0083 0.18637,0.04036 0.0534,0.09394 -0.28241,0.113775 -0.59764,0.712656 -0.32187,0.611504 0.35943,-0.131842 0.63133,0.179086 0.57651,0.659281 -0.0418,0.36647 -0.14204,0.472947 -0.48205,0.512228 -0.30447,0.03517 -0.48145,-0.04797 -0.60886,-0.286043 z m 0.7981,-0.243546 c 0,-0.248889 -0.0907,-0.4 -0.24,-0.4 -0.14933,0 -0.24,0.151111 -0.24,0.4 0,0.248889 0.0907,0.4 0.24,0.4 0.14933,0 0.24,-0.151111 0.24,-0.4 z M 32.281289,25.48866 c -0.715178,-0.715178 -0.335842,-1.828812 0.622947,-1.828812 0.940031,0 1.391058,1.094326 0.725384,1.76 -0.383402,0.383402 -1.002162,0.414981 -1.348331,0.06881 z m 1.199163,-0.409051 c 0.267186,-0.499243 -0.04451,-1.099761 -0.570832,-1.099761 -0.272935,0 -0.463817,0.125005 -0.579891,0.379761 -0.235992,0.517947 0.06061,1.060239 0.579891,1.060239 0.232696,0 0.461834,-0.136575 0.570832,-0.340239 z m 0.789168,-0.370318 c 0,-0.592962 0.0696,-1.049443 0.16,-1.049443 0.088,0 0.16,0.18 0.16,0.4 0,0.337778 0.07467,0.4 0.48,0.4 0.405333,0 0.48,-0.06222 0.48,-0.4 0,-0.22 0.072,-0.4 0.16,-0.4 0.09026,0 0.16,0.453334 0.16,1.04 0,0.586667 -0.06974,1.04 -0.16,1.04 -0.088,0 -0.16,-0.216 -0.16,-0.48 0,-0.426666 -0.05333,-0.48 -0.48,-0.48 -0.402239,0 -0.48,0.06327 -0.48,0.390557 0,0.214807 -0.072,0.435056 -0.16,0.489443 -0.100455,0.06208 -0.16,-0.291672 -0.16,-0.950557 z m 22.56,-0.249443 c -0.665674,-0.665674 -0.214647,-1.76 0.725384,-1.76 0.958789,0 1.338125,1.113634 0.622947,1.828812 -0.346169,0.346169 -0.964929,0.31459 -1.348331,-0.06881 z m 1.281928,-0.4 c 0.188324,-0.517518 -0.09311,-1.04 -0.560202,-1.04 -0.533099,0 -0.840008,0.600025 -0.567426,1.10935 0.236353,0.44163 0.95783,0.397259 1.127628,-0.06935 z m 0.740389,0.608984 c -0.05627,-0.05627 -0.102317,-0.522317 -0.102317,-1.03565 0,-0.722963 0.05409,-0.933334 0.24,-0.933334 0.149333,0 0.24,0.151111 0.24,0.4 0,0.337778 0.07467,0.4 0.48,0.4 0.405333,0 0.48,-0.06222 0.48,-0.4 0,-0.22 0.072,-0.4 0.16,-0.4 0.09026,0 0.16,0.453334 0.16,1.04 0,0.586667 -0.06974,1.04 -0.16,1.04 -0.088,0 -0.16,-0.216 -0.16,-0.48 0,-0.426666 -0.05333,-0.48 -0.48,-0.48 -0.402239,0 -0.48,0.06327 -0.48,0.390557 0,0.401473 -0.196332,0.639778 -0.377683,0.458427 z M 30.10962,21.979848 c -0.920855,-0.924 -1.800634,-1.68 -1.955064,-1.68 -0.15443,0 -1.92691,0.432 -3.938845,0.96 -2.011935,0.528 -3.83087,0.960973 -4.042078,0.962161 -0.566588,0.0032 -3.024013,-0.66837 -3.024013,-0.826395 0,-0.189169 0.100415,-0.176392 1.361161,0.173202 0.61283,0.169933 1.138918,0.284287 1.169085,0.25412 0.03017,-0.03017 -0.850798,-1.59608 -1.957699,-3.479807 L 15.70962,14.91817 v -1.469161 c 0,-0.872774 0.06495,-1.469161 0.16,-1.469161 0.09462,0 0.16,0.57891 0.16,1.416731 v 1.41673 l 3.792034,0.977902 c 2.085619,0.537847 3.806737,0.962318 3.824707,0.94327 0.01797,-0.01905 -0.433929,-0.823646 -1.00422,-1.787995 l -1.036894,-1.753363 0.384515,-1.357414 c 0.211484,-0.746577 0.465247,-1.384324 0.563918,-1.417215 0.11292,-0.03764 0.06255,0.344345 -0.135927,1.030777 -0.173431,0.599817 -0.354212,1.239413 -0.401735,1.421324 -0.05897,0.225733 0.253616,0.898843 0.984512,2.12 0.589003,0.984089 1.136136,1.789253 1.215851,1.789253 0.07971,0 1.579672,-0.36 3.333239,-0.8 3.513029,-0.881479 3.36,-0.850782 3.36,-0.674004 0,0.0693 -1.545331,0.519266 -3.434068,0.999929 l -3.434069,0.873932 -3.878552,-0.993974 c -2.133204,-0.546686 -3.889547,-0.978654 -3.902985,-0.959929 -0.01344,0.01872 0.868854,1.550633 1.960649,3.404239 l 1.985081,3.370194 3.850638,-1.010194 c 2.117851,-0.555606 4.040239,-1.00968 4.271972,-1.009052 0.231734,6.27e-4 2.038692,0.429269 4.015463,0.952538 1.97677,0.523268 3.622024,0.923502 3.656118,0.889408 0.03409,-0.03409 -0.659089,-1.290304 -1.540406,-2.791577 -0.881317,-1.501273 -1.544119,-2.765603 -1.472894,-2.809623 0.07123,-0.04402 0.869182,1.197547 1.773236,2.759039 0.904055,1.561491 1.668822,2.870292 1.699484,2.908448 0.03066,0.03816 0.639867,-0.241858 1.353791,-0.622253 0.713924,-0.380394 1.269088,-0.604759 1.233697,-0.498587 -0.03539,0.106171 -0.615692,0.492105 -1.28956,0.857629 -1.429066,0.775165 -0.915527,0.819441 -5.959256,-0.513791 l -3.03166,-0.801373 1.668802,1.6745 c 0.917841,0.920976 1.596801,1.674501 1.508801,1.674501 -0.088,0 -0.913427,-0.756 -1.834282,-1.68 z M 7.8696165,22.108811 c -0.70505,-0.251979 -0.88743,-1.45751 -0.2844,-1.87989 0.45251,-0.316947 0.75969,-0.314573 1.22229,0.0094 0.46271,0.324098 0.22196,0.669002 -0.25783,0.369368 -0.47294,-0.295356 -0.84006,-0.08029 -0.84006,0.492115 0,0.531732 0.30243,0.751531 0.76,0.552357 0.26667,-0.116076 0.26667,-0.125069 0,-0.18885 -0.48326,-0.115586 -0.32742,-0.523507 0.2,-0.523507 0.42754,0 0.48,0.05289 0.48,0.48396 0,0.372279 -0.0947,0.519969 -0.41041,0.64 -0.44648,0.169752 -0.51117,0.173099 -0.86959,0.045 z m 2.4756205,-0.213808 c -0.23294,-0.25739 -0.2622,-0.415206 -0.14095,-0.76 0.12589,-0.357956 0.24934,-0.435155 0.695853,-0.435155 0.303957,0 0.57341,0.09179 0.612345,0.208595 0.04853,0.145602 -0.06823,0.19392 -0.386667,0.16 -0.36573,-0.03896 -0.456198,0.01486 -0.456198,0.271405 0,0.253589 0.09132,0.310442 0.44,0.273944 0.508356,-0.05321 0.582897,0.198321 0.130519,0.440427 -0.434738,0.232664 -0.560507,0.210288 -0.894902,-0.159216 z m 4.79711,-0.06788 c -0.216,-0.216002 -0.392727,-0.543275 -0.392727,-0.727275 0,-0.393746 0.674379,-1.12 1.04,-1.12 0.365621,0 1.04,0.726254 1.04,1.12 0,0.393746 -0.674379,1.12 -1.04,1.12 -0.14,0 -0.431273,-0.176727 -0.647273,-0.392727 z m 1.141986,-0.327275 c 0.242787,-0.370539 0.242787,-0.42946 0,-0.8 -0.144149,-0.22 -0.363287,-0.4 -0.486973,-0.4 -0.319146,0 -0.72774,0.449165 -0.72774,0.8 0,0.350835 0.408594,0.8 0.72774,0.8 0.123686,0 0.342824,-0.18 0.486973,-0.4 z m -6.8147165,-0.4 c 0,-0.746666 0.0533,-0.96 0.24,-0.96 0.18667,0 0.24,0.213334 0.24,0.96 0,0.746667 -0.0533,0.96 -0.24,0.96 -0.18666,0 -0.24,-0.213333 -0.24,-0.96 z m 2.2400035,0.821337 c 0,-0.07626 0.153599,-0.508265 0.341332,-0.96 0.461191,-1.109749 0.791337,-1.090284 1.236463,0.0729 0.407471,1.064789 0.403583,1.025763 0.102205,1.025763 -0.132,0 -0.24,-0.072 -0.24,-0.16 0,-0.088 -0.216,-0.16 -0.48,-0.16 -0.264,0 -0.48,0.072 -0.48,0.16 0,0.088 -0.108,0.16 -0.24,0.16 -0.132,0 -0.24,-0.0624 -0.24,-0.138663 z m 1.12,-0.811894 c 0,-0.08281 -0.072,-0.195056 -0.16,-0.249443 -0.088,-0.05439 -0.16,0.01336 -0.16,0.150557 0,0.137194 0.072,0.249443 0.16,0.249443 0.088,0 0.16,-0.06775 0.16,-0.150557 z m 0.96,0.310557 c 0,-0.088 0.18,-0.16 0.4,-0.16 0.22,0 0.4,0.072 0.4,0.16 0,0.088 -0.18,0.16 -0.4,0.16 -0.22,0 -0.4,-0.072 -0.4,-0.16 z M 84.614418,21.28725 c -0.570559,-0.630461 -0.130751,-1.787402 0.679477,-1.787402 0.658445,0 1.05063,0.515946 0.994682,1.308572 -0.05068,0.717953 -1.168437,1.037646 -1.674159,0.47883 z m 1.255202,-0.747402 c 0,-0.546444 -0.05391,-0.647643 -0.368807,-0.692282 -0.467974,-0.06634 -0.831193,0.230754 -0.831193,0.679873 0,0.476735 0.318393,0.755436 0.798876,0.699285 0.353499,-0.04131 0.401124,-0.122863 0.401124,-0.686876 z m 0.88,0 c 0,-0.586666 0.06974,-1.04 0.16,-1.04 0.088,0 0.16,0.18 0.16,0.4 0,0.337778 0.07467,0.4 0.48,0.4 0.405333,0 0.48,-0.06222 0.48,-0.4 0,-0.22 0.072,-0.4 0.16,-0.4 0.09026,0 0.16,0.453334 0.16,1.04 0,0.586667 -0.06974,1.04 -0.16,1.04 -0.088,0 -0.16,-0.216 -0.16,-0.48 0,-0.426666 -0.05333,-0.48 -0.48,-0.48 -0.426667,0 -0.48,0.05333 -0.48,0.48 0,0.264 -0.072,0.48 -0.16,0.48 -0.09026,0 -0.16,-0.453333 -0.16,-1.04 z m -14.96,0.72 c -0.05608,-0.09075 0.07834,-0.16 0.310557,-0.16 0.296842,0 0.409443,-0.08434 0.409443,-0.306666 0,-0.168667 -0.09,-0.336958 -0.2,-0.373981 -0.156222,-0.05258 -0.152277,-0.125129 0.01802,-0.33144 0.185853,-0.225157 0.181082,-0.278301 -0.03234,-0.360198 -0.137697,-0.05284 -0.343806,-0.04355 -0.45802,0.02065 -0.114214,0.06419 -0.08031,-0.0182 0.07534,-0.18311 0.427682,-0.453108 0.782854,-0.134701 0.860746,0.771646 0.0531,0.617914 0.0099,0.776662 -0.249232,0.915335 -0.393034,0.210342 -0.607909,0.212615 -0.734514,0.0078 z M 39.811197,20.928235 c -0.515791,-0.405721 -0.56198,-1.127984 -0.101577,-1.588387 0.641489,-0.641489 1.653333,-0.151887 1.653333,0.8 0,0.358343 -0.117957,0.625383 -0.364392,0.824933 -0.466231,0.377532 -0.668879,0.371294 -1.187364,-0.03655 z m 0.986423,-0.180387 c 0.409364,-0.409364 0.133766,-1.408 -0.388571,-1.408 -0.294827,0 -0.699429,0.462781 -0.699429,0.8 0,0.33722 0.404602,0.8 0.699429,0.8 0.108114,0 0.282971,-0.0864 0.388571,-0.192 z m 68.70852,-0.0064 c -0.73719,-0.352101 -0.63302,-1.668523 0.15393,-1.945278 0.63547,-0.223481 1.24955,0.227066 1.24955,0.916783 0,0.898151 -0.66148,1.382894 -1.40348,1.028495 z m 0.82663,-0.329493 c 0.62502,-0.457028 -0.0127,-1.70245 -0.66315,-1.295154 -0.39569,0.247757 -0.45841,1.035376 -0.10315,1.295154 0.15637,0.11434 0.32879,0.20789 0.38315,0.20789 0.0544,0 0.22678,-0.09355 0.38315,-0.20789 z m 0.92922,-0.632107 c 0.0472,-0.990145 0.31863,-1.323968 0.41918,-0.515461 0.0429,0.345269 0.12309,0.406219 0.48,0.364975 0.33403,-0.0386 0.43966,-0.147078 0.47934,-0.492227 0.0913,-0.794003 0.34911,-0.282802 0.34911,0.692156 0,0.956776 -0.25513,1.329612 -0.34937,0.510557 -0.041,-0.356172 -0.13446,-0.443076 -0.49063,-0.456146 -0.38088,-0.01398 -0.44,0.04514 -0.44,0.44 0,0.305047 -0.082,0.456146 -0.24763,0.456146 -0.20218,0 -0.2389,-0.183557 -0.2,-1 z m -28.863053,-1.988822 -1.708822,-1.708822 -3.838248,0.988822 c -2.111036,0.543852 -3.978811,0.988822 -4.15061,0.988822 -0.1718,0 -1.2392,-0.514548 -2.372,-1.143441 -2.341928,-1.30016 -2.225012,-1.224517 -2.094455,-1.355074 0.05418,-0.05418 0.912183,0.351895 1.906666,0.902396 0.994484,0.5505 1.857951,1.028485 1.918815,1.062187 0.06087,0.0337 -0.785135,-1.4583 -1.88,-3.315562 L 68.18962,10.833516 V 9.3266822 c 0,-0.89789 0.06466,-1.506834 0.16,-1.506834 0.09481,0 0.16,0.586666 0.16,1.44 0,0.7919998 0.03544,1.4399998 0.07876,1.4399998 0.04331,0 1.713901,0.429414 3.712414,0.954253 1.998512,0.524839 3.660852,0.927059 3.694089,0.893823 0.03324,-0.03324 -0.383943,-0.830281 -0.927066,-1.771209 l -0.987502,-1.7107778 0.371272,-1.423045 c 0.204199,-0.782674 0.426793,-1.423044 0.494652,-1.423044 0.178054,0 0.163987,0.101717 -0.21249,1.536524 l -0.340194,1.296524 1.082261,1.8448818 1.08226,1.844883 3.354885,-0.86896 c 2.902529,-0.751794 3.751435,-0.906197 3.463326,-0.629925 -0.03667,0.03516 -1.597428,0.460501 -3.468359,0.945202 l -3.401691,0.881275 -3.87338,-1.016798 c -2.130359,-0.559238 -3.887236,-1.002579 -3.904172,-0.985202 -0.02382,0.02445 1.765971,3.108301 3.779174,6.511595 0.121829,0.205951 0.71848,0.0936 4.205619,-0.791969 l 4.063649,-1.031969 3.819415,0.985468 c 2.100678,0.542007 3.839046,0.965835 3.86304,0.941842 0.02399,-0.02399 -0.670823,-1.261178 -1.544036,-2.749298 -0.873214,-1.48812 -1.549884,-2.74345 -1.503712,-2.789622 0.124446,-0.124445 0.401854,0.298754 2.015065,3.074078 0.806109,1.386809 1.525291,2.52147 1.598181,2.52147 0.07289,0 0.632934,-0.252 1.24454,-0.56 1.216257,-0.612497 1.28,-0.632658 1.28,-0.404845 0,0.204075 -2.347805,1.285695 -2.782533,1.281896 -0.185607,-0.0016 -1.94561,-0.423015 -3.911118,-0.936429 l -3.573652,-0.933481 1.650793,1.656429 c 0.907936,0.911037 1.54366,1.65643 1.412721,1.65643 -0.130939,0 -1.007041,-0.76897 -1.946894,-1.708822 z m 24.735873,-0.704214 -1.7606,-1.760592 -4.07229,1.065958 c -3.942237,1.031914 -4.097851,1.059509 -4.8723,0.864021 -1.630177,-0.411494 -2.327299,-0.655099 -2.246911,-0.785168 0.04541,-0.07348 0.659548,0.02921 1.364741,0.228205 0.705194,0.198995 1.28217,0.338239 1.28217,0.30943 0,-0.02881 -0.9,-1.583215 -2,-3.454238 l -2,-3.401861 V 8.5767652 c 0,-1.009792 0.05747,-1.540284 0.16,-1.476917 0.088,0.05439 0.160319,0.724636 0.160709,1.489442 l 7.08e-4,1.390558 3.685493,0.9404648 c 2.027021,0.517256 3.71663,0.909331 3.75468,0.871277 0.038,-0.03805 -0.36074,-0.809035 -0.8862,-1.713292 -0.525465,-0.9042568 -0.95539,-1.7164678 -0.95539,-1.8049128 0,-0.331759 1.168997,-4.539817 1.30164,-4.685537 0.25095,-0.275691 0.15483,0.272364 -0.439383,2.505388 l -0.583671,2.193388 0.898258,1.572682 c 0.494046,0.8649748 0.989356,1.6967028 1.100706,1.8482838 0.18854,0.256665 0.43112,0.216937 3.53026,-0.578157 1.83029,-0.469568 3.36214,-0.798215 3.40409,-0.730325 0.0871,0.140951 -0.0912,0.194099 -4.00019,1.192376 l -2.86829,0.732502 -3.822748,-0.987698 c -2.102511,-0.543234 -3.846628,-0.962665 -3.875815,-0.932069 -0.02919,0.0306 0.800196,1.495629 1.843073,3.255629 1.042877,1.76 1.921008,3.26385 1.951401,3.341888 0.03039,0.07804 1.893638,-0.339426 4.140539,-0.927699 l 4.08528,-1.069587 3.82743,1.023211 c 2.10508,0.562766 3.84647,1.009181 3.86975,0.992033 0.0233,-0.01715 -0.68107,-1.27577 -1.56524,-2.796937 -0.88417,-1.521167 -1.56922,-2.804117 -1.52233,-2.851 0.12326,-0.123259 0.0729,-0.200671 1.85352,2.848091 0.89944,1.54 1.64772,2.816182 1.66283,2.835959 0.0151,0.01978 0.83788,-0.545635 1.82838,-1.256472 0.99049,-0.710837 1.84551,-1.247818 1.90004,-1.193292 0.0545,0.05453 0.0319,0.158303 -0.0502,0.230614 -0.45825,0.403451 -3.61449,2.583191 -3.74044,2.583191 -0.0823,0 -1.77236,-0.432 -3.75577,-0.96 -1.98341,-0.528 -3.6604,-0.96 -3.72665,-0.96 -0.0663,0 0.59451,0.717671 1.46837,1.594825 0.87387,0.877153 1.55332,1.630353 1.50989,1.673777 -0.0434,0.04342 -0.87122,-0.713313 -1.83954,-1.681638 z M 92.134418,16.96725 c -0.351466,-0.388366 -0.336781,-1.192662 0.0278,-1.522604 0.664546,-0.601407 1.627401,-0.126309 1.627401,0.803003 0,0.890849 -1.07663,1.358915 -1.655201,0.719601 z m 1.275714,-0.452166 c 0.05863,-0.23362 0.03429,-0.53962 -0.0541,-0.68 -0.355733,-0.564966 -1.166412,-0.306172 -1.166412,0.372355 0,0.791596 1.033656,1.052141 1.220512,0.307645 z M 31.651197,15.808235 c -0.27955,-0.219894 -0.421577,-0.485497 -0.421577,-0.788387 0,-0.459462 0.615629,-1.12 1.043852,-1.12 0.336386,0 0.856568,0.534902 0.96465,0.991948 0.07891,0.333675 0.0093,0.524785 -0.305905,0.84 -0.494665,0.494666 -0.731375,0.50879 -1.28102,0.07644 z m 0.986423,-0.180387 c 0.409364,-0.409364 0.133766,-1.408 -0.388571,-1.408 -0.294827,0 -0.699429,0.46278 -0.699429,0.8 0,0.33722 0.404602,0.8 0.699429,0.8 0.108114,0 0.282971,-0.0864 0.388571,-0.192 z m 25.632,0.238312 c 0,-0.06253 0.161633,-0.530528 0.359185,-1.04 0.457347,-1.179462 0.762046,-1.205691 1.219483,-0.104975 0.187733,0.451735 0.341332,0.919735 0.341332,1.04 0,0.294297 -0.306973,0.278782 -0.42214,-0.02134 -0.05065,-0.132 -0.266653,-0.24 -0.48,-0.24 -0.213347,0 -0.429347,0.108 -0.48,0.24 -0.09157,0.238631 -0.53786,0.343438 -0.53786,0.126312 z m 1.12,-1.095755 c 0,-0.137193 -0.072,-0.204944 -0.16,-0.150557 -0.088,0.05439 -0.16,0.166636 -0.16,0.249443 0,0.08281 0.072,0.150557 0.16,0.150557 0.088,0 0.16,-0.112249 0.16,-0.249443 z m 1.371669,0.958255 c -0.710529,-0.710529 -0.336041,-1.828812 0.612428,-1.828812 0.295197,0 0.627797,0.10974 0.739112,0.243867 0.274233,0.33043 0.05591,0.510028 -0.328315,0.270076 -0.433555,-0.270759 -0.597002,-0.243707 -0.798128,0.132101 -0.255976,0.478294 -0.04954,0.953956 0.414016,0.953956 0.21407,0 0.389218,-0.072 0.389218,-0.16 0,-0.088 -0.072,-0.16 -0.16,-0.16 -0.088,0 -0.16,-0.072 -0.16,-0.16 0,-0.088 0.216,-0.16 0.48,-0.16 0.403506,0 0.48,0.06285 0.48,0.394371 0,0.671941 -1.145167,0.997605 -1.668331,0.474441 z m 1.893739,0.03086 c -0.151873,-0.395777 0.0081,-1.752504 0.214592,-1.820497 0.146414,-0.0482 0.2,0.216378 0.2,0.987493 0,0.977529 -0.202784,1.384966 -0.414592,0.833004 z m 0.902622,-0.01 c -0.330339,-0.398035 -0.140222,-1.105541 0.342411,-1.274256 0.493621,-0.172556 1.070335,0.147804 0.783121,0.435018 -0.106667,0.106667 -0.241629,0.09225 -0.404888,-0.04324 -0.201511,-0.167239 -0.262425,-0.157536 -0.343899,0.05478 -0.05446,0.141911 -0.05694,0.367651 -0.0055,0.501644 0.07707,0.20083 0.149055,0.20892 0.409841,0.04606 0.388896,-0.242869 0.610288,-0.06631 0.334117,0.266454 -0.25562,0.308003 -0.86466,0.315399 -1.115179,0.01354 z m 2.656768,-0.06227 c -0.334991,-0.370161 -0.342276,-1.207067 -0.01337,-1.535973 0.323366,-0.323367 1.093776,-0.323367 1.417142,0 0.343966,0.343965 0.320468,1.236495 -0.04117,1.563773 -0.386426,0.349711 -1.032896,0.336522 -1.362602,-0.0278 z m 1.143816,-0.766978 c 0.03419,-0.351365 -0.03116,-0.530188 -0.22028,-0.602761 -0.353828,-0.135776 -0.708334,0.172148 -0.708334,0.615262 0,0.452207 0.145193,0.59226 0.553416,0.533824 0.235907,-0.03377 0.340082,-0.185457 0.375198,-0.546325 z m 22.053955,-0.06043 c 0.02995,-1.273994 0.276621,-1.30012 0.377431,-0.03997 0.06542,0.817778 0.03626,1.000037 -0.16,1.000098 -0.189187,5.8e-5 -0.235222,-0.203221 -0.217431,-0.960123 z M 65.078885,15.37578 c -0.200962,-0.200962 -0.06567,-0.355932 0.310735,-0.355932 0.22,0 0.4,0.0636 0.4,0.141339 0,0.167569 -0.582027,0.343301 -0.710735,0.214593 z m 49.133495,-1.030089 c 0.0309,-1.347192 0.3345,-1.387981 0.4032,-0.05416 0.0438,0.849863 0.008,1.048945 -0.18596,1.048752 -0.19001,-1.88e-4 -0.23526,-0.207364 -0.21724,-0.99459 z m -57.917619,0.505347 c -0.519351,-0.408521 -0.566981,-1.12935 -0.105141,-1.59119 0.661256,-0.661256 1.6,-0.198056 1.6,0.789482 0,0.955251 -0.772776,1.369699 -1.494859,0.801708 z m 0.982859,-0.18319 c 0.1056,-0.1056 0.192,-0.3792 0.192,-0.608 0,-0.760884 -0.784797,-1.106332 -1.114371,-0.490519 -0.232315,0.434085 -0.206494,0.746797 0.0858,1.039091 0.300642,0.300642 0.57581,0.320189 0.836571,0.05943 z m 60.71679,0.187294 c -0.74381,-0.296174 -0.64029,-1.702564 0.14566,-1.978969 0.67612,-0.23778 1.24955,0.224692 1.24955,1.007772 0,0.84385 -0.62406,1.278256 -1.39521,0.971197 z m 0.90718,-0.385618 c 0.26153,-0.31513 0.14933,-1.059017 -0.19197,-1.27272 -0.39437,-0.246934 -0.82619,0.05808 -0.89373,0.631292 -0.0826,0.700768 0.66829,1.144374 1.0857,0.641428 z M 84.065221,11.730775 c -0.754139,-0.528219 -0.294815,-1.8309268 0.645569,-1.8309268 0.568847,0 0.91883,0.3970338 0.91883,1.0423558 0,0.557343 -0.444361,1.037644 -0.96,1.037644 -0.136839,0 -0.408818,-0.112083 -0.604399,-0.249073 z m 1.076369,-0.301251 c 0.105134,-0.126679 0.16795,-0.432679 0.139591,-0.68 -0.04557,-0.397428 -0.116628,-0.449676 -0.611561,-0.449676 -0.494933,0 -0.565991,0.05225 -0.611561,0.449676 -0.05932,0.517312 0.204711,0.910324 0.611561,0.910324 0.15445,0 0.366836,-0.103646 0.47197,-0.230324 z m -69.91197,-0.08968 c -0.318292,-0.318292 -0.421909,-1.040039 -0.19755,-1.3760478 0.276521,-0.414129 0.829458,-0.565261 1.280607,-0.350023 0.356552,0.170107 0.44586,0.33059 0.48541,0.8722628 0.0395,0.541002 -0.01889,0.710977 -0.315601,0.918805 -0.486868,0.341015 -0.866551,0.321318 -1.252866,-0.065 z m 1.088,-0.192 c 0.304235,-0.304235 0.233274,-1.054652 -0.117481,-1.2423708 -0.40025,-0.214207 -0.421636,-0.211655 -0.71909,0.0858 -0.474548,0.4745478 -0.22271,1.3485718 0.388571,1.3485718 0.1408,0 0.3424,-0.0864 0.448,-0.192001 z m 0.832,-0.608 c 0,-0.533334 0.07111,-0.9599998 0.16,-0.9599998 0.088,0 0.16,0.184562 0.16,0.410137 0,0.3663368 0.05553,0.4047828 0.52,0.3599998 0.398551,-0.03843 0.531941,-0.134217 0.571128,-0.4101368 0.105424,-0.742307 0.348872,-0.323618 0.348872,0.5999998 0,0.533333 -0.07111,0.96 -0.16,0.96 -0.088,0 -0.16,-0.18 -0.16,-0.4 0,-0.350476 -0.06933,-0.4 -0.56,-0.4 -0.490667,0 -0.56,0.04952 -0.56,0.4 0,0.22 -0.072,0.4 -0.16,0.4 -0.08889,0 -0.16,-0.426667 -0.16,-0.96 z m 91.4648,0.347402 c -0.35147,-0.388366 -0.33678,-1.1926618 0.0278,-1.5226038 0.66455,-0.601407 1.6274,-0.126309 1.6274,0.8030018 0,0.89085 -1.07663,1.358916 -1.6552,0.719602 z m 1.27571,-0.452167 c 0.18442,-0.7347628 -0.45935,-1.2877568 -0.9882,-0.8488558 -0.23624,0.196065 -0.31987,0.9727318 -0.12564,1.1669538 0.0587,0.05867 0.30929,0.106667 0.55695,0.106667 0.35386,0 0.47311,-0.09095 0.55689,-0.424765 z m -69.815723,0.101554 c -0.195367,-0.07861 -0.403711,-0.33616 -0.462985,-0.5723278 -0.26073,-1.038833 0.623475,-1.826102 1.445799,-1.287295 0.557095,0.365023 0.590241,1.4001268 0.0568,1.7737648 -0.398995,0.279468 -0.5313,0.290394 -1.039612,0.08586 z m 0.907183,-0.38711 c 0.261534,-0.3151288 0.14933,-1.0590168 -0.19197,-1.2727188 -0.394375,-0.246934 -0.826186,0.05808 -0.893726,0.631291 -0.08257,0.7007688 0.668288,1.1443748 1.085696,0.6414278 z m 0.80803,-0.5602328 c 0,-0.522806 0.072,-0.995055 0.16,-1.049442 0.09335,-0.05769 0.16,0.105005 0.16,0.390557 0,0.434696 0.0525,0.489443 0.469372,0.489443 0.3822,0 0.478775,-0.07521 0.52,-0.404975 0.100044,-0.800254 0.371357,-0.45972 0.418263,0.524975 0.03889,0.8164428 0.0022,0.9999998 -0.2,0.9999998 -0.157477,0 -0.247635,-0.14563 -0.247635,-0.4 0,-0.3377778 -0.07467,-0.3999998 -0.48,-0.3999998 -0.405333,0 -0.48,0.06222 -0.48,0.3999998 0,0.22 -0.072,0.4 -0.16,0.4 -0.08871,0 -0.16,-0.423519 -0.16,-0.9505578 z m -19.52,0.150558 c -0.823088,-0.823088 0.116654,-2.296975 1.121615,-1.759136 0.711639,0.380858 0.721625,1.53207 0.01656,1.909407 -0.466934,0.2498958 -0.779243,0.2086628 -1.138177,-0.150271 z m 1.088,-0.192 c 0.26511,-0.26511 0.240979,-1.008169 -0.04032,-1.241628 -0.326631,-0.27108 -0.869201,-0.0557 -0.980911,0.389389 -0.190583,0.759343 0.520618,1.3528538 1.021233,0.852239 z m 2.147601,0.262927 c -0.402825,-0.28215 -0.504875,-1.352319 -0.155601,-1.631754 0.427464,-0.34199 0.934731,-0.386325 1.344938,-0.117546 0.499693,0.327411 0.281366,0.702413 -0.22488,0.386258 -0.472941,-0.295357 -0.840058,-0.0803 -0.840058,0.492115 0,0.531731 0.302427,0.751531 0.76,0.552357 0.266667,-0.116076 0.266667,-0.125069 0,-0.18885 -0.480198,-0.114854 -0.338803,-0.551528 0.16,-0.494135 0.345573,0.03976 0.450863,0.145038 0.49062,0.49055 0.04039,0.351019 -0.03447,0.472272 -0.370416,0.6 -0.569129,0.2163818 -0.748147,0.2027028 -1.164603,-0.08899 z m 1.889084,-0.06217 c -0.161452,-0.301677 0.06211,-0.648754 0.417872,-0.648754 0.109207,0 0.24484,-0.07489 0.301406,-0.166413 0.06727,-0.108842 -0.04739,-0.128706 -0.331417,-0.05742 -0.331308,0.08315 -0.416676,0.05622 -0.360073,-0.113587 0.04407,-0.132201 0.296171,-0.222581 0.62086,-0.222581 0.53518,0 0.547664,0.0153 0.59413,0.728078 l 0.04746,0.728078 -0.570267,0.01616 c -0.390914,0.01108 -0.617346,-0.07181 -0.719971,-0.2635664 z m 0.795315,-0.333175 c 0,-0.08004 -0.107586,-0.104251 -0.239081,-0.05379 -0.131495,0.05046 -0.19852,0.157374 -0.148944,0.237588 0.10369,0.167774 0.388025,0.03309 0.388025,-0.183796 z m 0.902317,0.533404 c -0.05627,-0.05627 -0.102317,-0.522317 -0.102317,-1.03565 0,-0.722963 0.0541,-0.933333 0.24,-0.933333 0.186402,0 0.24,0.212284 0.24,0.950557 0,0.887809 -0.137508,1.2586008 -0.377683,1.018426 z M 76.38162,9.5478512 c -0.324203,-0.324204 -0.227575,-1.158799 0.178312,-1.54011 0.203672,-0.19134 0.471692,-0.34789 0.595601,-0.34789 0.137912,0 0.08737,0.0966 -0.130312,0.249072 -0.447561,0.313484 -0.446896,0.434889 0.0035,0.632987 0.450695,0.198245 0.535374,0.600645 0.197498,0.93852 -0.308223,0.308223 -0.581912,0.330072 -0.844563,0.06742 z m 0.688885,-0.129432 c 0.153691,-0.248678 -0.07469,-0.798568 -0.331667,-0.798568 -0.133466,0 -0.229218,0.155953 -0.229218,0.373333 0,0.539779 0.333723,0.792791 0.560885,0.425235 z M 24.18962,9.2598512 c 0,-0.088 0.184249,-0.16 0.409443,-0.16 0.232218,0 0.366641,0.06925 0.310557,0.16 -0.05439,0.088 -0.238636,0.16 -0.409443,0.16 -0.170806,0 -0.310557,-0.072 -0.310557,-0.16 z m 22.924787,-0.323218 c -0.195367,-0.07861 -0.403711,-0.33616 -0.462985,-0.572328 -0.26073,-1.038833 0.623475,-1.826102 1.445799,-1.287295 0.557095,0.365023 0.590241,1.400127 0.0568,1.773765 -0.398995,0.279467 -0.5313,0.290394 -1.039612,0.08586 z m 0.907183,-0.38711 c 0.261534,-0.315129 0.14933,-1.059017 -0.19197,-1.272719 -0.394375,-0.246934 -0.826186,0.05808 -0.893726,0.631291 -0.08257,0.700769 0.668288,1.144374 1.085696,0.641428 z m 1.870347,0.439308 c -0.113131,-0.11313 -0.142963,-1.875004 -0.0336,-1.984367 0.03779,-0.03779 0.395177,-0.04275 0.794185,-0.01102 0.824298,0.06556 1.132091,0.49998 0.676813,0.955258 -0.230889,0.230889 -0.230891,0.277797 -2.5e-5,0.532901 0.139232,0.15385 0.220904,0.373893 0.181494,0.488985 -0.04783,0.139667 -0.234262,0.03633 -0.560613,-0.310742 -0.585734,-0.62292 -0.680571,-0.640958 -0.680571,-0.129443 0,0.401473 -0.196332,0.639778 -0.377683,0.458426 z m 1.097683,-1.408983 c 0,-0.088 -0.162,-0.183008 -0.36,-0.211128 -0.247707,-0.03518 -0.36,0.03068 -0.36,0.211128 0,0.180452 0.112293,0.246308 0.36,0.211128 0.198,-0.02812 0.36,-0.123128 0.36,-0.211128 z m 0.989333,1.416 c -0.177466,-0.177466 -0.124743,-1.947591 0.06144,-2.062656 0.09403,-0.05812 0.210265,0.04549 0.258661,0.230557 0.05803,0.221912 0.216413,0.336099 0.466183,0.336099 0.409475,0 0.6152,0.454543 0.517648,1.143726 -0.08418,0.59471 -0.368173,0.438036 -0.423511,-0.233643 -0.05907,-0.717012 -0.402429,-0.729651 -0.482062,-0.01774 -0.05751,0.514107 -0.228614,0.773401 -0.398355,0.603661 z m 1.649702,-0.137164 c -0.259662,-0.312872 -0.08657,-0.718836 0.306501,-0.718836 0.173568,0 0.366567,-0.0825 0.428886,-0.183335 0.0802,-0.129768 -0.01511,-0.151104 -0.326217,-0.07302 -0.323063,0.08108 -0.421511,0.05547 -0.371543,-0.09667 0.03739,-0.113838 0.293966,-0.229356 0.57017,-0.256707 0.419693,-0.04156 0.51841,0.0149 0.600939,0.343726 0.188977,0.752945 0.03396,1.10658 -0.510836,1.165341 -0.304433,0.03283 -0.579995,-0.03843 -0.6979,-0.180503 z m 0.800965,-0.393815 c 0,-0.08524 -0.108,-0.113535 -0.24,-0.06288 -0.132,0.05065 -0.24,0.120394 -0.24,0.154979 0,0.03458 0.108,0.06288 0.24,0.06288 0.132,0 0.24,-0.06974 0.24,-0.154979 z m -5.68,-0.165021 c -0.05785,-0.0936 0.108153,-0.16 0.4,-0.16 0.291847,0 0.457848,0.0664 0.4,0.16 -0.05439,0.088 -0.234387,0.16 -0.4,0.16 -0.165613,0 -0.345613,-0.072 -0.4,-0.16 z m -21.68,-0.446644 c 0,-0.166685 0.345756,-0.513356 0.512,-0.513356 0.235744,0 0.131268,0.240984 -0.192,0.442868 -0.176,0.109914 -0.32,0.141633 -0.32,0.07049 z m 40.584798,-0.645955 c -0.334991,-0.370161 -0.342276,-1.207066 -0.01337,-1.535973 0.596278,-0.596279 1.668571,-0.10712 1.668571,0.76117 0,0.883555 -1.093533,1.39544 -1.655201,0.774803 z m 1.222422,-0.362637 c 0.08795,-0.14038 0.110829,-0.450757 0.05085,-0.689728 -0.09418,-0.375231 -0.179226,-0.42771 -0.623561,-0.384764 -0.430442,0.0416 -0.522935,0.123202 -0.566071,0.499403 -0.02836,0.247322 0.03734,0.556796 0.145999,0.687721 0.242718,0.292458 0.776972,0.231846 0.992783,-0.112632 z m 0.87278,0.56386 c -0.180722,-0.18367 -0.144416,-1.988624 0.04,-1.988624 0.088,0 0.16,0.18 0.16,0.4 0,0.335668 0.07541,0.4 0.468872,0.4 0.358864,0 0.480867,-0.08152 0.52,-0.347468 0.02812,-0.191107 0.144751,-0.378315 0.259179,-0.416017 0.159292,-0.05248 0.196789,0.16956 0.16,0.947468 -0.02883,0.609596 -0.112053,0.984016 -0.208051,0.936017 -0.088,-0.044 -0.157162,-0.242 -0.153693,-0.44 0.0053,-0.300243 -0.07937,-0.36 -0.509862,-0.36 -0.459599,0 -0.521665,0.05428 -0.566308,0.495291 -0.02757,0.27241 -0.104137,0.44041 -0.170137,0.373333 z m -41.88,-0.363404 c 0,-0.248833 0.440819,-0.53806 0.550237,-0.361017 0.0543,0.08786 -0.04729,0.237887 -0.225756,0.333398 -0.178464,0.09551 -0.324481,0.10794 -0.324481,0.027619 z m 64.403914,-0.562573 c -0.655391,-0.479233 -0.164543,-1.862647 0.660884,-1.862647 0.854192,0 1.350565,1.246904 0.722603,1.815202 -0.354763,0.321056 -0.979979,0.342497 -1.383487,0.04744 z m 1.233636,-0.330977 c 0.397143,-0.57999 -0.08675,-1.314329 -0.755472,-1.146489 -0.33171,0.08325 -0.402078,0.196997 -0.402078,0.649917 0,0.77776 0.745904,1.097743 1.15755,0.496572 z m 0.76245,-0.49167 c 0,-0.586667 0.06974,-1.04 0.16,-1.04 0.088,0 0.16,0.18 0.16,0.4 0,0.335668 0.07541,0.4 0.468872,0.4 0.348529,0 0.481995,-0.08376 0.52,-0.326338 0.02812,-0.179486 0.117128,-0.323486 0.197795,-0.32 0.220397,0.0095 0.182165,1.816727 -0.04,1.890782 -0.115316,0.03844 -0.186667,-0.126349 -0.186667,-0.431111 0,-0.441481 -0.05045,-0.493333 -0.48,-0.493333 -0.426667,0 -0.48,0.05333 -0.48,0.48 0,0.264 -0.072,0.48 -0.16,0.48 -0.09026,0 -0.16,-0.453334 -0.16,-1.04 z m -65.6,0.592924 c 0,-0.08456 0.116304,-0.250266 0.258454,-0.36824 0.223606,-0.185576 0.250573,-0.173826 0.2,0.08715 -0.06026,0.31098 -0.458454,0.555121 -0.458454,0.28109 z m 46.024798,-0.645523 c -0.299712,-0.331178 -0.345743,-1.017191 -0.09917,-1.47792 0.20635,-0.385567 1.139389,-0.421607 1.502942,-0.05805 0.343966,0.343966 0.320468,1.236496 -0.04117,1.563773 -0.386426,0.349712 -1.032896,0.336522 -1.362603,-0.0278 z m 1.143816,-0.766978 c 0.03282,-0.337298 -0.03214,-0.530565 -0.2,-0.594978 -0.416463,-0.159812 -0.728614,0.06511 -0.728614,0.525006 0,0.533957 0.128551,0.677116 0.553416,0.616298 0.235907,-0.03377 0.340082,-0.185457 0.375198,-0.546326 z m 1.71772,0.699577 c 0.263926,-0.88058 0.714547,-1.72 0.923337,-1.72 0.192546,0 0.399686,0.381196 1.02158,1.88 0.04663,0.112386 -0.03185,0.2 -0.179154,0.2 -0.144177,0 -0.303584,-0.108 -0.354237,-0.24 -0.05065,-0.132 -0.266653,-0.24 -0.48,-0.24 -0.213347,0 -0.429347,0.108 -0.48,0.24 -0.156216,0.407092 -0.576062,0.295511 -0.451526,-0.12 z m 1.033666,-0.84 c 0,-0.132 -0.0283,-0.24 -0.06288,-0.24 -0.03458,0 -0.104325,0.108 -0.154978,0.24 -0.05065,0.132 -0.02236,0.24 0.06288,0.24 0.08524,0 0.154978,-0.108 0.154978,-0.24 z m 1.12,0.437682 c 0,-0.76695 0.0134,-0.789366 0.48,-0.802632 0.507037,-0.01442 0.632962,0.182495 0.253882,0.396999 -0.124365,0.07037 -0.250365,0.338398 -0.28,0.595612 -0.09633,0.836082 -0.453882,0.686423 -0.453882,-0.189979 z m 1.013277,0.510373 c -0.105974,-0.276162 0.215063,-0.708055 0.526314,-0.708055 0.121225,0 0.220409,-0.06526 0.220409,-0.145021 0,-0.07976 -0.153639,-0.104843 -0.341421,-0.05574 -0.245746,0.06426 -0.320697,0.02644 -0.267467,-0.13498 0.09737,-0.295278 0.725133,-0.379758 1.017695,-0.136953 0.127156,0.10553 0.231193,0.462569 0.231193,0.79342 0,0.59503 -0.007,0.601645 -0.648823,0.610502 -0.425799,0.0059 -0.679442,-0.07084 -0.7379,-0.223176 z m 0.826723,-0.228055 c 0.05439,-0.088 -0.01336,-0.16 -0.150557,-0.16 -0.137194,0 -0.249443,0.072 -0.249443,0.16 0,0.088 0.06775,0.16 0.150557,0.16 0.08281,0 0.195056,-0.072 0.249443,-0.16 z m -52.08,0.03292 c 0,-0.08456 0.116304,-0.250267 0.258454,-0.368241 0.223606,-0.185576 0.250573,-0.173825 0.2,0.08715 -0.06026,0.31098 -0.458454,0.555121 -0.458454,0.281091 z m 47.2,-0.352925 c 0,-0.088 0.18,-0.16 0.4,-0.16 0.22,0 0.4,0.072 0.4,0.16 0,0.088 -0.18,0.16 -0.4,0.16 -0.22,0 -0.4,-0.072 -0.4,-0.16 z m -46.4,-0.447076 c 0,-0.08456 0.116304,-0.250266 0.258454,-0.36824 0.223606,-0.185576 0.250573,-0.173826 0.2,0.08715 -0.06026,0.31098 -0.458454,0.555121 -0.458454,0.28109 z m 69.522957,-1.732825 c -0.417716,-0.417715 -0.260722,-1.355602 0.277043,-1.655072 0.39512,-0.220036 0.48488,-0.220036 0.88,0 0.53777,0.29947 0.69476,1.237357 0.27704,1.655072 -0.3341,0.334105 -1.09998,0.334105 -1.434083,0 z m 1.100183,-0.10799 c 0.35527,-0.259778 0.29255,-1.047397 -0.10314,-1.295153 -0.65049,-0.407297 -1.288169,0.838125 -0.66315,1.295153 0.15637,0.11434 0.32879,0.207891 0.38315,0.207891 0.0544,0 0.22678,-0.09355 0.38314,-0.207891 z m 1.85686,-0.35942 v -0.72731 l 1.08,0.04731 1.08,0.04731 0.0492,0.68 c 0.0383,0.529994 -0.006,0.68 -0.2,0.68 -0.17924,0 -0.2492,-0.160964 -0.2492,-0.573333 0,-0.728398 -0.37806,-0.665199 -0.45086,0.07537 -0.0647,0.657671 -0.4112,0.574984 -0.47928,-0.114357 -0.068,-0.688736 -0.34986,-0.646586 -0.34986,0.05232 0,0.391111 -0.0724,0.56 -0.24,0.56 -0.17814,0 -0.24,-0.187479 -0.24,-0.72731 z m 2.72921,0.498402 c -0.33324,-0.401522 -0.25663,-1.233358 0.14342,-1.557298 0.43596,-0.353014 1.01619,-0.380543 1.28155,-0.0608 0.27851,0.335583 0.0639,0.605985 -0.3004,0.378481 -0.4488,-0.280278 -0.81378,-0.0522 -0.81378,0.508528 0,0.531731 0.30243,0.751531 0.76,0.552357 0.26667,-0.116076 0.26667,-0.125069 0,-0.188851 -0.48326,-0.115586 -0.32742,-0.523506 0.2,-0.523506 0.42272,0 0.48,0.05524 0.48,0.462881 0,0.27449 -0.10301,0.502409 -0.25309,0.56 -0.45814,0.175806 -1.30421,0.101356 -1.4977,-0.13179 z m 2.07079,-0.811091 c 0,-0.586667 0.0697,-1.04 0.16,-1.04 0.0903,0 0.16,0.453333 0.16,1.04 0,0.586666 -0.0697,1.04 -0.16,1.04 -0.0903,0 -0.16,-0.453334 -0.16,-1.04 z m 0.832,0.848 c -0.26242,-0.262425 -0.24166,-0.847605 0.0383,-1.07997 0.29566,-0.245377 1.08282,-0.155483 1.1782,0.134551 0.0555,0.168766 -0.0294,0.196829 -0.35117,0.116069 -0.30977,-0.07775 -0.45077,-0.03773 -0.52211,0.148174 -0.14266,0.371781 0.19014,0.654287 0.48373,0.410625 0.25588,-0.21236 0.51641,0.01877 0.34103,0.302551 -0.13748,0.222453 -0.93541,0.200592 -1.168,-0.032 z m 1.68917,-0.848 c 0.22694,-0.572 0.50515,-1.04 0.61824,-1.04 0.11309,0 0.34609,0.317571 0.51779,0.705714 0.51465,1.163464 0.55585,1.374286 0.26856,1.374286 -0.14069,0 -0.29725,-0.108 -0.3479,-0.24 -0.0507,-0.132 -0.23065,-0.24 -0.4,-0.24 -0.16935,0 -0.34935,0.108 -0.4,0.24 -0.0506,0.132 -0.22197,0.24 -0.38071,0.24 -0.26543,0 -0.25547,-0.08354 0.12402,-1.04 z m 0.83883,0.08944 c 0,-0.268228 -0.28377,-0.334646 -0.37821,-0.08852 -0.0557,0.145225 5e-4,0.239081 0.14323,0.239081 0.12924,0 0.23498,-0.06775 0.23498,-0.150557 z m -9.19435,0.319707 c -0.1128,-0.182518 -0.0896,-0.195596 0.39435,-0.222483 0.176,-0.0098 0.338,0.05222 0.36,0.137777 0.0556,0.216085 -0.62586,0.292602 -0.75435,0.08471 z"
       id="path1" />
  </g>
</svg>
