<?xml version="1.0" encoding="UTF-8" standalone="no"?>
<!-- Created with Inkscape (http://www.inkscape.org/) -->
<svg
   xmlns:svg="http://www.w3.org/2000/svg"
   xmlns="http://www.w3.org/2000/svg"
   version="1.0"
   width="469.98001"
   height="280"
   id="svg2">
  <defs
     id="defs4" />
  <g
     transform="translate(-178.50805,-350.14789)"
     id="layer1">
    <path
       d="M 372.94703,619.71917 C 372.94703,618.68613 374.09613,617.27991 378.02047,613.51045 C 381.62139,610.05165 382.2078,609.30858 382.20384,608.20958 C 382.19418,605.53388 378.35077,604.24859 376.34804,606.25132 C 375.80498,606.79439 375.36065,607.51847 375.36065,607.86039 C 375.36065,608.54348 374.65929,608.66259 373.80909,608.12388 C 373.1671,607.71709 373.50432,606.25662 374.50217,605.12218 C 377.88,601.28201 384.7387,603.72535 384.09307,608.53884 C 383.82196,610.56008 382.48877,612.29026 378.97491,615.18099 C 377.42956,616.4523 376.16519,617.63738 376.16519,617.8145 C 376.16519,617.99163 377.9754,618.13655 380.18788,618.13655 C 384.21057,618.13655 384.21057,618.13655 384.21057,619.14222 L 384.21057,620.14789 L 378.5788,620.14789 C 374.86087,620.14789 372.94703,620.0022 372.94703,619.71917 z M 241.52298,613.15316 C 238.96161,612.31579 236.76489,610.35155 235.49286,607.76118 C 234.49791,605.73507 234.36532,605.01569 234.36532,601.64351 C 234.36532,598.26791 234.4974,597.55299 235.49713,595.51712 C 237.9178,590.5876 242.94017,588.51682 248.4723,590.16729 C 252.73503,591.43904 255.3608,595.1656 255.76562,600.51813 C 256.32683,607.93865 252.31861,613.15393 245.74788,613.5527 C 244.26172,613.64289 242.516,613.4778 241.52298,613.15316 z M 249.34366,609.43669 C 251.28946,607.88561 252.29039,605.83956 252.56047,602.86105 C 252.97454,598.29464 251.27502,594.60766 248.08917,593.16091 C 243.9305,591.27238 239.27739,593.39685 237.97628,597.77815 C 235.83305,604.9952 239.41805,611.17726 245.52211,610.79034 C 247.34919,610.67453 248.14401,610.39299 249.34366,609.43669 z M 517.88188,613.15316 C 515.32051,612.31579 513.12379,610.35155 511.85175,607.76118 C 510.8568,605.73507 510.72421,605.01569 510.72421,601.64351 C 510.72421,598.26791 510.85629,597.55299 511.85602,595.51712 C 514.27671,590.5876 519.29906,588.51682 524.83119,590.16729 C 529.09393,591.43904 531.7197,595.1656 532.12451,600.51813 C 532.68573,607.93865 528.67751,613.15393 522.10677,613.5527 C 520.62062,613.64289 518.8749,613.4778 517.88188,613.15316 z M 525.70257,609.43669 C 527.64836,607.88561 528.64929,605.83956 528.91937,602.86105 C 529.33343,598.29464 527.63392,594.60766 524.44806,593.16091 C 520.2894,591.27238 515.63629,593.39685 514.33518,597.77815 C 512.19195,604.9952 515.77694,611.17726 521.88101,610.79034 C 523.70808,610.67453 524.50291,610.39299 525.70257,609.43669 z M 259.90941,601.64351 L 259.90941,589.9777 L 261.51848,589.9777 L 263.12756,589.9777 L 263.12756,594.80493 L 263.12756,599.63216 L 269.1616,599.63216 L 275.19564,599.63216 L 275.19564,594.80493 L 275.19564,589.9777 L 276.80471,589.9777 L 278.41379,589.9777 L 278.41379,601.64351 L 278.41379,613.30931 L 276.80471,613.30931 L 275.19564,613.30931 L 275.19564,607.87868 L 275.19564,602.44805 L 269.1616,602.44805 L 263.12756,602.44805 L 263.12756,607.87868 L 263.12756,613.30931 L 261.51848,613.30931 L 259.90941,613.30931 L 259.90941,601.64351 z M 328.29516,601.64351 L 328.29516,589.9777 L 330.00481,589.98794 L 331.71445,589.99818 L 337.64681,598.93842 L 343.57918,607.87868 L 343.58028,598.92819 L 343.58138,589.9777 L 345.19047,589.9777 L 346.79954,589.9777 L 346.79954,601.64351 L 346.79954,613.30931 L 345.0899,613.29908 L 343.38025,613.28885 L 337.44788,604.34859 L 331.51551,595.40834 L 331.51441,604.35883 L 331.51331,613.30931 L 329.90424,613.30931 L 328.29516,613.30931 L 328.29516,601.64351 z M 351.2245,601.64351 L 351.2245,589.9777 L 352.83357,589.9777 L 354.44266,589.9777 L 354.44266,594.80493 L 354.44266,599.63216 L 360.47669,599.63216 L 366.51073,599.63216 L 366.51073,594.80493 L 366.51073,589.9777 L 368.11981,589.9777 L 369.72888,589.9777 L 369.72888,601.64351 L 369.72888,613.30931 L 368.11981,613.30931 L 366.51073,613.30931 L 366.51073,607.87868 L 366.51073,602.44805 L 360.47669,602.44805 L 354.44266,602.44805 L 354.44266,607.87868 L 354.44266,613.30931 L 352.83357,613.30931 L 351.2245,613.30931 L 351.2245,601.64351 z M 244.20905,569.96482 L 244.19719,552.76781 L 227.44245,543.11335 C 218.22734,537.8034 210.62735,533.27055 210.55358,533.04036 C 210.47981,532.81016 210.64818,532.31608 210.92772,531.94241 C 211.38587,531.32998 213.042,532.18991 227.72788,540.66579 L 244.01978,550.06859 L 244.14508,548.46884 C 244.24551,547.18673 244.50459,546.73585 245.44991,546.19803 C 246.09865,545.82894 246.63059,545.4104 246.63199,545.26793 C 246.63338,545.12546 239.80098,541.06657 231.44887,536.24819 C 223.09675,531.4298 215.78083,527.19512 215.19126,526.83777 C 214.1604,526.21297 214.14524,526.15367 214.796,525.29095 L 215.47269,524.39383 L 231.95872,533.9385 C 241.02603,539.18808 248.80678,543.48866 249.24928,543.49537 C 249.69177,543.50207 259.27327,538.18434 270.54147,531.67818 C 281.80969,525.17201 291.22279,519.85441 291.45947,519.86129 C 291.69616,519.86817 301.75546,525.57291 313.81347,532.53851 C 325.87149,539.50409 336.15141,545.42193 336.65774,545.68925 C 337.49715,546.1324 339.38545,545.13544 358.0657,534.38645 L 378.55303,522.59762 L 378.56591,503.18814 L 378.5788,483.77865 L 379.58448,483.77865 L 380.59015,483.77865 L 380.59015,502.48416 C 380.59015,512.7722 380.67629,521.18968 380.78157,521.18968 C 380.88683,521.18968 381.55964,520.8329 382.27668,520.39685 C 383.5679,519.61161 383.59305,519.61149 384.90115,520.38329 L 386.22192,521.16255 L 386.22192,502.4706 L 386.22192,483.77865 L 387.42873,483.77865 L 388.63553,483.77865 L 388.64279,503.18814 L 388.65005,522.59762 L 402.5167,530.57707 C 415.72536,538.17788 416.36188,538.59782 415.93096,539.42699 C 415.68215,539.90576 415.43001,540.35548 415.37062,540.42639 C 415.31125,540.4973 408.16811,536.45686 399.49696,531.44764 C 390.82584,526.43843 383.52232,522.42299 383.26695,522.52444 C 382.5113,522.82466 339.38627,547.76357 339.04632,548.09693 C 338.87514,548.26481 339.60836,557.12308 340.67568,567.78198 L 342.61628,587.16182 L 337.47476,587.16182 L 332.33324,587.16182 L 332.54969,585.45218 C 333.44825,578.35446 336.23602,548.28923 336.01495,548.08037 C 335.52819,547.62045 291.64761,522.39587 291.36054,522.41094 C 291.20914,522.4189 281.12911,528.17831 268.96046,535.20966 L 246.83566,547.99391 L 246.73127,567.57787 L 246.62687,587.16182 L 245.42389,587.16182 L 244.22092,587.16182 L 244.20905,569.96482 z M 516.55712,566.48954 L 516.55712,545.81726 L 496.23342,534.08876 C 483.97248,527.01316 475.71385,522.47846 475.41599,522.6582 C 475.14444,522.82208 468.62619,527.5446 460.931,533.15271 C 453.2358,538.76082 446.69718,543.44233 446.40073,543.55609 C 446.04374,543.69309 445.03704,542.29969 443.41939,539.42952 L 440.97706,535.09611 L 457.84631,527.64006 L 474.71558,520.18401 L 474.71835,493.58454 L 474.72113,466.98506 L 497.65047,453.76379 L 520.57981,440.54253 L 520.57981,413.93196 L 520.57981,387.32139 L 544.1841,373.70115 C 557.16647,366.21001 567.89212,360.11111 568.0189,360.14806 C 568.14567,360.18499 578.74846,366.28381 591.58067,373.70097 L 614.91192,387.18672 L 615.01526,414.49504 L 615.11861,441.80337 L 591.64455,455.34903 C 578.73383,462.79915 568.0309,468.8947 567.86027,468.8947 C 567.68964,468.8947 557.36382,463.01151 544.91402,455.82095 C 532.46422,448.63039 522.03169,442.75321 521.73061,442.76056 C 521.42954,442.76792 511.22705,448.53341 499.05841,455.57277 L 476.93361,468.3716 L 476.83013,494.28195 L 476.72667,520.19229 L 499.27203,533.20761 L 521.81739,546.22293 L 530.55136,541.1941 C 535.35504,538.42823 542.58736,534.2563 546.62319,531.92312 C 553.94495,527.69029 553.9624,527.68291 554.57562,528.55842 C 555.11606,529.32999 555.11863,529.48818 554.59692,529.86967 C 554.27061,530.10826 547.93144,533.80863 540.50987,538.09271 L 527.01612,545.88192 L 527.01612,566.52187 L 527.01612,587.16182 L 525.80931,587.16182 L 524.60249,587.16182 L 524.60249,567.20976 L 524.60249,547.25771 L 523.26551,548.04655 C 521.95073,548.82228 521.90395,548.82279 520.44962,548.07668 L 518.97073,547.31796 L 518.97073,567.23989 L 518.97073,587.16182 L 517.76393,587.16182 L 516.55712,587.16182 L 516.55712,566.48954 z M 591.47975,452.79965 L 612.69944,440.56371 L 612.69944,414.544 L 612.69944,388.52431 L 590.31123,375.5972 C 577.99774,368.4873 567.8025,362.7211 567.65515,362.78344 C 567.5078,362.84578 557.39863,368.66815 545.19034,375.72206 L 522.99342,388.54735 L 522.99342,414.54328 L 522.99342,440.5392 L 545.41993,453.48296 L 567.84643,466.42671 L 569.05324,465.73117 C 569.71699,465.34861 579.80891,459.52943 591.47975,452.79965 z M 548.045,448.45785 C 537.81796,442.55139 529.44572,437.52716 529.44005,437.29289 C 529.43438,437.05862 529.656,436.577 529.93257,436.22263 C 530.37657,435.6537 532.48303,436.76245 547.93744,445.69964 C 557.56356,451.26635 566.12071,456.22444 566.95334,456.71761 C 568.31786,457.52581 568.41712,457.69447 567.95948,458.42726 C 567.68024,458.87439 567.26904,459.23047 567.04569,459.21855 C 566.82236,459.20662 558.27205,454.36431 548.045,448.45785 z M 604.65405,414.58837 L 604.65405,392.46356 L 605.86087,392.46356 L 607.06768,392.46356 L 607.06768,414.58837 L 607.06768,436.71317 L 605.86087,436.71317 L 604.65405,436.71317 L 604.65405,414.58837 z M 529.92125,392.79417 C 529.65091,392.52383 529.42973,392.10541 529.42973,391.86434 C 529.42973,391.62328 537.89246,386.52212 548.23581,380.52844 C 566.89715,369.71471 567.04744,369.63715 567.76192,370.45147 C 568.15794,370.9028 568.33896,371.41032 568.1642,371.57928 C 567.79244,371.93868 531.66352,392.80572 530.91712,393.09213 C 530.63972,393.19858 530.19158,393.0645 529.92125,392.79417 z M 420.41479,575.09375 L 420.41479,563.42794 L 422.02387,563.42794 L 423.63294,563.42794 L 423.63294,568.25517 L 423.63294,573.0824 L 429.66698,573.0824 L 435.70102,573.0824 L 435.70102,568.25517 L 435.70102,563.42794 L 437.3101,563.42794 L 438.91917,563.42794 L 438.91917,575.09375 L 438.91917,586.75955 L 437.3101,586.75955 L 435.70102,586.75955 L 435.70102,581.32892 L 435.70102,575.89829 L 429.66698,575.89829 L 423.63294,575.89829 L 423.63294,581.32892 L 423.63294,586.75955 L 422.02387,586.75955 L 420.41479,586.75955 L 420.41479,575.09375 z M 420.41479,548.54399 L 420.41479,536.87818 L 422.12444,536.88842 L 423.83408,536.89865 L 429.76644,545.8389 L 435.69881,554.77915 L 435.69992,545.82867 L 435.70102,536.87818 L 437.3101,536.87818 L 438.91917,536.87818 L 438.91917,548.54399 L 438.91917,560.20979 L 437.20953,560.19955 L 435.49989,560.18931 L 429.56752,551.24907 L 423.63515,542.30881 L 423.63405,551.2593 L 423.63294,560.20979 L 422.02387,560.20979 L 420.41479,560.20979 L 420.41479,548.54399 z M 630.09239,539.29305 C 629.37048,538.85289 628.47201,537.84725 628.09577,537.05829 C 627.50117,535.81143 627.4887,535.57513 628.00039,535.25149 C 628.99979,534.61937 629.47736,534.81906 630.00337,536.08901 C 630.60033,537.5302 631.4908,538.08499 633.207,538.08499 C 635.57725,538.08499 637.16517,535.3769 636.03415,533.26353 C 635.55344,532.3653 633.21026,531.52145 632.23548,531.8955 C 631.6799,532.10869 631.56337,531.97807 631.67126,531.26305 C 631.76708,530.628 632.27048,530.20343 633.37607,529.82514 C 635.76117,529.00912 636.3274,527.52007 634.82424,526.01692 C 633.32724,524.51991 630.25631,525.44015 629.53581,527.60166 C 629.41754,527.95649 629.05542,528.03897 628.45391,527.84806 C 627.31162,527.48551 627.58396,526.3133 629.19594,524.65408 C 630.79451,523.00863 633.6616,522.74718 635.59776,524.07029 C 637.81862,525.58794 638.23114,528.39246 636.45697,529.91156 C 635.72296,530.54005 635.74303,530.60366 637.0714,531.85646 C 641.31047,535.85443 635.17514,542.39202 630.09239,539.29305 z M 195.6643,533.1016 C 193.10294,532.26423 190.90622,530.29999 189.63418,527.70962 C 188.63922,525.68351 188.50664,524.96413 188.50664,521.59195 C 188.50664,518.21635 188.63871,517.50143 189.63844,515.46556 C 192.05913,510.53605 197.08149,508.46526 202.61361,510.11573 C 206.87635,511.38748 209.50212,515.11404 209.90693,520.46657 C 210.46814,527.8871 206.45994,533.10238 199.88919,533.50114 C 198.40304,533.59133 196.65733,533.42625 195.6643,533.1016 z M 203.48499,529.38513 C 205.43078,527.83405 206.43171,525.788 206.70179,522.80949 C 207.11586,518.24308 205.41634,514.55611 202.23048,513.10935 C 198.07182,511.22083 193.41871,513.34529 192.1176,517.7266 C 189.97437,524.94364 193.55937,531.1257 199.66343,530.73879 C 201.4905,530.62298 202.28533,530.34143 203.48499,529.38513 z M 564.14282,533.1016 C 561.58146,532.26423 559.38475,530.29999 558.11271,527.70962 C 557.11775,525.68351 556.98517,524.96413 556.98517,521.59195 C 556.98517,518.21635 557.11724,517.50143 558.11697,515.46556 C 560.53765,510.53605 565.56002,508.46526 571.09214,510.11573 C 575.35488,511.38748 577.98065,515.11404 578.38546,520.46657 C 578.94667,527.8871 574.93847,533.10238 568.36773,533.50114 C 566.88156,533.59133 565.13585,533.42625 564.14282,533.1016 z M 571.96352,529.38513 C 573.9093,527.83405 574.91023,525.788 575.18033,522.80949 C 575.59439,518.24308 573.89487,514.55611 570.70902,513.10935 C 566.55035,511.22083 561.89723,513.34529 560.59613,517.7266 C 558.45289,524.94364 562.0379,531.1257 568.14196,530.73879 C 569.96904,530.62298 570.76386,530.34143 571.96352,529.38513 z M 588.43609,533.07722 C 585.90208,532.17347 584.57822,530.84214 583.01547,527.62599 C 582.08339,525.7078 581.93942,524.90518 581.93312,521.59195 C 581.92508,517.36751 582.75275,514.82943 584.86387,512.60462 C 587.26425,510.075 591.72211,508.92871 595.34656,509.9091 C 597.44765,510.47744 599.97623,512.7514 600.82474,514.83566 L 601.4314,516.32587 L 599.92514,516.74222 C 599.09671,516.97123 598.3729,517.02471 598.31671,516.86108 C 597.9084,515.67207 596.4005,513.81007 595.30496,513.14213 C 592.39498,511.36789 587.93897,512.73948 586.14968,515.96019 C 585.27457,517.53539 585.144,518.26652 585.144,521.59195 C 585.144,524.91737 585.27457,525.64852 586.14968,527.22372 C 587.49301,529.64173 589.97847,530.96709 592.71652,530.72548 C 595.13524,530.51203 596.52387,529.51781 597.81548,527.07467 C 598.78363,525.2434 598.87369,525.182 600.2291,525.4294 C 601.00347,525.57075 601.69489,525.74318 601.76561,525.8126 C 602.19133,526.23052 599.87027,530.28406 598.566,531.40046 C 595.99272,533.60311 591.83865,534.29071 588.43609,533.07722 z M 605.86087,521.59195 L 605.86087,509.92615 L 607.46994,509.92615 L 609.07902,509.92615 L 609.07902,514.75338 L 609.07902,519.58061 L 615.11305,519.58061 L 621.14709,519.58061 L 621.14709,514.75338 L 621.14709,509.92615 L 622.75617,509.92615 L 624.36524,509.92615 L 624.36524,521.59195 L 624.36524,533.25775 L 622.75617,533.25775 L 621.14709,533.25775 L 621.14709,527.82713 L 621.14709,522.39649 L 615.11305,522.39649 L 609.07902,522.39649 L 609.07902,527.82713 L 609.07902,533.25775 L 607.46994,533.25775 L 605.86087,533.25775 L 605.86087,521.59195 z M 379.90356,480.00208 C 377.3422,479.16471 375.14548,477.20045 373.87345,474.6101 C 372.87849,472.58399 372.7459,471.86461 372.7459,468.49243 C 372.7459,465.11683 372.87797,464.4019 373.87771,462.36603 C 376.29839,457.43652 381.32076,455.36574 386.85287,457.01621 C 391.11561,458.28795 393.74139,462.01451 394.1462,467.36705 C 394.70741,474.78757 390.6992,480.00284 384.12847,480.40161 C 382.6423,480.4918 380.89659,480.32671 379.90356,480.00208 z M 387.72425,476.28561 C 389.67004,474.73453 390.67097,472.68848 390.94105,469.70997 C 391.35513,465.14355 389.6556,461.45658 386.46975,460.00983 C 382.31109,458.12129 377.65797,460.24577 376.35686,464.62706 C 374.21363,471.84411 377.79864,478.02618 383.9027,477.63926 C 385.72976,477.52345 386.5246,477.24191 387.72425,476.28561 z"
       id="path2462"
       style="fill:#000000" />
  </g>
</svg>
