<?xml version="1.0" encoding="UTF-8" standalone="no"?>
<!-- Generator: Adobe Illustrator 12.0.1, SVG Export Plug-In . SVG Version: 6.00 Build 51448)  -->
<svg
   xmlns:dc="http://purl.org/dc/elements/1.1/"
   xmlns:cc="http://web.resource.org/cc/"
   xmlns:rdf="http://www.w3.org/1999/02/22-rdf-syntax-ns#"
   xmlns:svg="http://www.w3.org/2000/svg"
   xmlns="http://www.w3.org/2000/svg"
   xmlns:sodipodi="http://sodipodi.sourceforge.net/DTD/sodipodi-0.dtd"
   xmlns:inkscape="http://www.inkscape.org/namespaces/inkscape"
   version="1.1"
   id="Layer_1"
   width="101.602"
   height="147.885"
   viewBox="0 0 101.602 147.885"
   style="overflow:visible;enable-background:new 0 0 101.602 147.885;"
   xml:space="preserve"
   sodipodi:version="0.32"
   inkscape:version="0.45.1"
   sodipodi:docname="Benzoesäure.svg"
   inkscape:output_extension="org.inkscape.output.svg.inkscape"
   sodipodi:docbase="C:\"><metadata
   id="metadata42"><rdf:RDF><cc:Work
       rdf:about=""><dc:format>image/svg+xml</dc:format><dc:type
         rdf:resource="http://purl.org/dc/dcmitype/StillImage" /></cc:Work></rdf:RDF></metadata><defs
   id="defs40" /><sodipodi:namedview
   inkscape:window-height="579"
   inkscape:window-width="801"
   inkscape:pageshadow="2"
   inkscape:pageopacity="0.0"
   guidetolerance="10.0"
   gridtolerance="10.0"
   objecttolerance="10.0"
   borderopacity="1.0"
   bordercolor="#666666"
   pagecolor="#ffffff"
   id="base"
   inkscape:zoom="2.5560403"
   inkscape:cx="50.800999"
   inkscape:cy="73.942497"
   inkscape:window-x="154"
   inkscape:window-y="154"
   inkscape:current-layer="Layer_1" />
<path
   style="fill:#231f20"
   d="M 11.130875,123.95288 L 9.515875,124.85538 L 9.515875,86.237875 L 11.130875,87.187875 L 11.130875,123.95288 z "
   id="polygon3" />
<path
   style="fill:#231f20"
   d="M 15.168375,89.990374 L 16.783375,89.990374 L 16.783375,121.15038 L 15.168375,121.15038 L 15.168375,89.990374 z "
   id="rect5" />
<path
   style="fill:#231f20"
   d="M 42.955875,142.33538 L 42.955875,144.18787 L 9.515875,124.85538 L 11.130875,123.95288 L 42.955875,142.33538 z "
   id="polygon7" />
<path
   style="fill:#231f20"
   d="M 74.829325,123.95288 L 76.443375,124.85538 L 42.955875,144.18787 L 42.955875,142.33538 L 74.829325,123.95288 z "
   id="polygon9" />
<path
   style="fill:#231f20"
   d="M 69.555875,120.43788 L 70.364325,121.81538 L 43.383375,137.44288 L 42.576825,136.01788 L 69.555875,120.43788 z "
   id="polygon11" />
<path
   style="fill:#231f20"
   d="M 74.829325,87.187875 L 76.443375,86.237875 L 76.443375,124.85538 L 74.829325,123.95288 L 74.829325,87.187875 z "
   id="polygon13" />
<path
   style="fill:#231f20"
   d="M 42.955875,68.805375 L 42.955875,67.855375 L 43.764325,67.380375 L 76.443375,86.237875 L 74.829325,87.187875 L 42.955875,68.805375 z "
   id="polygon15" />
<path
   style="fill:#231f20"
   d="M 42.576825,75.075375 L 43.383375,73.697875 L 70.364325,89.277875 L 69.555875,90.655375 L 42.576825,75.075375 z "
   id="polygon17" />
<path
   style="fill:#231f20"
   d="M 11.130875,87.187875 L 9.515875,86.237875 L 42.148375,67.380375 L 42.955875,67.855375 L 42.955875,68.805375 L 11.130875,87.187875 z "
   id="polygon19" />
<path
   style="fill:#231f20"
   d="M 42.148375,29.712875 L 43.764325,30.662875 L 43.764325,67.380375 L 42.955875,67.855375 L 42.148375,67.380375 L 42.148375,29.712875 z "
   id="polygon21" />
<g
   id="g23"
   transform="matrix(0.95,0,0,0.95,2.540025,3.697125)">
	<path
   style="fill:#231f20"
   d="M 0,9.119 C 0,6.266 0.766,4.034 2.298,2.421 C 3.83,0.807 5.808,0 8.23,0 C 9.817,0 11.247,0.379 12.521,1.137 C 13.795,1.896 14.766,2.952 15.435,4.308 C 16.104,5.664 16.437,7.202 16.437,8.92 C 16.437,10.663 16.085,12.222 15.382,13.597 C 14.679,14.972 13.682,16.014 12.392,16.721 C 11.102,17.428 9.711,17.782 8.218,17.782 C 6.6,17.782 5.154,17.391 3.88,16.61 C 2.606,15.829 1.641,14.761 0.984,13.41 C 0.327,12.059 0,10.628 0,9.119 z M 2.344,9.148 C 2.344,11.218 2.901,12.849 4.015,14.041 C 5.129,15.233 6.527,15.828 8.207,15.828 C 9.919,15.828 11.328,15.226 12.435,14.023 C 13.541,12.82 14.094,11.113 14.094,8.902 C 14.094,7.504 13.858,6.283 13.385,5.24 C 12.912,4.197 12.22,3.388 11.309,2.814 C 10.398,2.24 9.376,1.953 8.242,1.953 C 6.632,1.953 5.246,2.506 4.085,3.611 C 2.924,4.716 2.344,6.563 2.344,9.148 z "
   id="path25" />
</g>
<path
   style="fill:#231f20"
   d="M 17.876825,19.880375 L 18.684325,18.502875 L 43.383375,32.752875 L 42.576825,34.130375 L 17.876825,19.880375 z "
   id="polygon27" />
<path
   style="fill:#231f20"
   d="M 20.678375,14.987875 L 21.485875,13.610375 L 46.185875,27.860375 L 45.378375,29.237875 L 20.678375,14.987875 z "
   id="polygon29" />
<g
   id="g31"
   transform="matrix(0.95,0,0,0.95,2.540025,3.697125)">
	<path
   style="fill:#231f20"
   d="M 68.699,9.119 C 68.699,6.266 69.465,4.034 70.998,2.421 C 72.529,0.807 74.508,0 76.93,0 C 78.518,0 79.948,0.379 81.221,1.137 C 82.495,1.896 83.467,2.952 84.135,4.308 C 84.803,5.664 85.137,7.202 85.137,8.92 C 85.137,10.663 84.785,12.222 84.082,13.597 C 83.379,14.972 82.382,16.014 81.092,16.721 C 79.803,17.428 78.411,17.782 76.918,17.782 C 75.301,17.782 73.854,17.391 72.58,16.61 C 71.306,15.829 70.342,14.761 69.684,13.41 C 69.026,12.059 68.699,10.628 68.699,9.119 z M 71.043,9.148 C 71.043,11.218 71.6,12.849 72.715,14.041 C 73.828,15.232 75.227,15.828 76.906,15.828 C 78.619,15.828 80.027,15.226 81.135,14.023 C 82.24,12.82 82.793,11.113 82.793,8.902 C 82.793,7.504 82.557,6.283 82.084,5.24 C 81.611,4.197 80.919,3.388 80.008,2.814 C 79.098,2.24 78.076,1.953 76.942,1.953 C 75.333,1.953 73.946,2.506 72.786,3.611 C 71.623,4.717 71.043,6.563 71.043,9.148 z "
   id="path33" />
	<path
   style="fill:#231f20"
   d="M 88.148,17.484 L 88.148,0.297 L 90.429,0.297 L 90.429,7.36 L 99.32,7.36 L 99.32,0.297 L 101.601,0.297 L 101.601,17.485 L 99.32,17.485 L 99.32,9.391 L 90.43,9.391 L 90.43,17.485 L 88.148,17.485 L 88.148,17.484 z "
   id="path35" />
</g>
<path
   style="fill:#231f20"
   d="M 65.946825,15.985375 L 66.754325,17.410375 L 43.764325,30.662875 L 42.148375,29.712875 L 65.946825,15.985375 z "
   id="polygon37" />
</svg>