<?xml version="1.0" encoding="UTF-8"?>
<!-- Converted by misc2svg (http://www.network-science.de/tools/misc2svg/) -->
<svg xmlns="http://www.w3.org/2000/svg" xmlns:xlink="http://www.w3.org/1999/xlink" width="391pt" height="189pt" viewBox="0 0 391 189" version="1.1">
<defs>
<clipPath id="clip1">
  <path d="M 0 0 L 391.25 0 L 391.25 188.75 L 0 188.75 L 0 0 Z M 0 0 "/>
</clipPath>
<clipPath id="clip2">
  <path d="M 0 188.75 L 391.25 188.75 L 391.25 0 L 0 0 L 0 188.75 Z M 0 188.75 "/>
</clipPath>
</defs>
<g id="misc2svg">
<g clip-path="url(#clip1)" clip-rule="nonzero">
<g clip-path="url(#clip2)" clip-rule="nonzero">
<path style=" stroke:none;fill-rule:nonzero;fill:rgb(0%,0%,0%);fill-opacity:1;" d="M 4.8125 91.5 L 2.6875 92.75 L 2.6875 41.875 L 4.8125 43.125 L 4.8125 91.5 Z M 4.8125 91.5 "/>
<path style=" stroke:none;fill-rule:nonzero;fill:rgb(0%,0%,0%);fill-opacity:1;" d="M 12.25 87.8125 L 10.125 87.8125 L 10.125 46.8125 L 12.25 46.8125 L 12.25 87.8125 Z M 12.25 87.8125 "/>
<path style=" stroke:none;fill-rule:nonzero;fill:rgb(0%,0%,0%);fill-opacity:1;" d="M 46.6875 115.6875 L 46.6875 118.125 L 2.6875 92.75 L 4.8125 91.5 L 46.6875 115.6875 Z M 46.6875 115.6875 "/>
<path style=" stroke:none;fill-rule:nonzero;fill:rgb(0%,0%,0%);fill-opacity:1;" d="M 88.625 91.5 L 90.75 92.75 L 46.6875 118.125 L 46.6875 115.6875 L 88.625 91.5 Z M 88.625 91.5 "/>
<path style=" stroke:none;fill-rule:nonzero;fill:rgb(0%,0%,0%);fill-opacity:1;" d="M 81.6875 86.875 L 82.75 88.75 L 47.25 109.25 L 46.1875 107.375 L 81.6875 86.875 Z M 81.6875 86.875 "/>
<path style=" stroke:none;fill-rule:nonzero;fill:rgb(0%,0%,0%);fill-opacity:1;" d="M 88.625 43.125 L 89.6875 42.5 L 90.75 43.125 L 90.75 92.75 L 88.625 91.5 L 88.625 43.125 Z M 88.625 43.125 "/>
<path style=" stroke:none;fill-rule:nonzero;fill:rgb(0%,0%,0%);fill-opacity:1;" d="M 46.6875 18.9375 L 46.6875 16.4375 L 89.6875 41.25 L 89.6875 42.5 L 88.625 43.125 L 46.6875 18.9375 Z M 46.6875 18.9375 "/>
<path style=" stroke:none;fill-rule:nonzero;fill:rgb(0%,0%,0%);fill-opacity:1;" d="M 46.1875 27.1875 L 47.25 25.375 L 82.75 45.875 L 81.6875 47.6875 L 46.1875 27.1875 Z M 46.1875 27.1875 "/>
<path style=" stroke:none;fill-rule:nonzero;fill:rgb(0%,0%,0%);fill-opacity:1;" d="M 4.8125 43.125 L 2.6875 41.875 L 46.6875 16.4375 L 46.6875 18.9375 L 4.8125 43.125 Z M 4.8125 43.125 "/>
<path style=" stroke:none;fill-rule:nonzero;fill:rgb(0%,0%,0%);fill-opacity:1;" d="M 132.625 16.4375 L 132.625 18.9375 L 90.75 43.125 L 89.6875 42.5 L 89.6875 41.25 L 132.625 16.4375 Z M 132.625 16.4375 "/>
<path style=" stroke:none;fill-rule:nonzero;fill:rgb(0%,0%,0%);fill-opacity:1;" d="M 167.097656 53.25 L 167.097656 31.765625 L 170.007812 31.765625 L 181.296875 48.640625 L 181.296875 31.765625 L 184.011719 31.765625 L 184.011719 53.25 L 181.101562 53.25 L 169.832031 36.375 L 169.832031 53.25 L 167.097656 53.25 Z M 167.097656 53.25 "/>
<path style=" stroke:none;fill-rule:nonzero;fill:rgb(0%,0%,0%);fill-opacity:1;" d="M 163.25 34.125 L 162.1875 36 L 132.625 18.9375 L 132.625 16.4375 L 163.25 34.125 Z M 163.25 34.125 "/>
<path style=" stroke:none;fill-rule:nonzero;fill:rgb(0%,0%,0%);fill-opacity:1;" d="M 225.199219 21.085938 L 228.050781 21.808594 C 227.449219 24.140625 226.375 25.925781 224.828125 27.160156 C 223.273438 28.386719 221.382812 28.996094 219.144531 28.996094 C 216.839844 28.996094 214.953125 28.527344 213.5 27.589844 C 212.054688 26.640625 210.953125 25.273438 210.199219 23.488281 C 209.441406 21.691406 209.066406 19.773438 209.066406 17.726562 C 209.066406 15.492188 209.484375 13.539062 210.335938 11.867188 C 211.195312 10.203125 212.410156 8.9375 213.988281 8.078125 C 215.5625 7.21875 217.296875 6.789062 219.203125 6.789062 C 221.351562 6.789062 223.152344 7.335938 224.613281 8.429688 C 226.082031 9.523438 227.101562 11.0625 227.679688 13.039062 L 224.886719 13.703125 C 224.378906 12.140625 223.648438 11.003906 222.699219 10.285156 C 221.761719 9.570312 220.574219 9.210938 219.144531 9.210938 C 217.488281 9.210938 216.109375 9.609375 215.003906 10.402344 C 213.894531 11.199219 213.113281 12.257812 212.660156 13.585938 C 212.214844 14.914062 211.996094 16.289062 211.996094 17.707031 C 211.996094 19.53125 212.253906 21.125 212.777344 22.492188 C 213.308594 23.859375 214.132812 24.882812 215.257812 25.558594 C 216.390625 26.222656 217.605469 26.554688 218.910156 26.554688 C 220.511719 26.554688 221.859375 26.101562 222.953125 25.1875 C 224.054688 24.265625 224.808594 22.898438 225.199219 21.085938 Z M 225.199219 21.085938 "/>
<path style=" stroke:none;fill-rule:nonzero;fill:rgb(0%,0%,0%);fill-opacity:1;" d="M 230.773438 34.980469 L 230.773438 23.320312 L 232.550781 23.320312 L 232.550781 24.980469 C 233.410156 23.691406 234.644531 23.046875 236.261719 23.046875 C 236.964844 23.046875 237.609375 23.179688 238.195312 23.4375 C 238.792969 23.6875 239.234375 24.019531 239.523438 24.433594 C 239.820312 24.839844 240.03125 25.324219 240.148438 25.878906 C 240.210938 26.246094 240.246094 26.890625 240.246094 27.8125 L 240.246094 34.980469 L 238.273438 34.980469 L 238.273438 27.890625 C 238.273438 27.085938 238.195312 26.480469 238.039062 26.074219 C 237.894531 25.675781 237.621094 25.351562 237.21875 25.117188 C 236.828125 24.882812 236.371094 24.765625 235.851562 24.765625 C 235.003906 24.765625 234.273438 25.035156 233.664062 25.566406 C 233.050781 26.105469 232.746094 27.121094 232.746094 28.613281 L 232.746094 34.980469 L 230.773438 34.980469 Z M 230.773438 34.980469 "/>
<path style=" stroke:none;fill-rule:nonzero;fill:rgb(0%,0%,0%);fill-opacity:1;" d="M 244.269531 28.625 L 244.269531 7.140625 L 247.121094 7.140625 L 247.121094 15.96875 L 258.273438 15.96875 L 258.273438 7.140625 L 261.125 7.140625 L 261.125 28.625 L 258.273438 28.625 L 258.273438 18.507812 L 247.121094 18.507812 L 247.121094 28.625 L 244.269531 28.625 Z M 244.269531 28.625 "/>
<path style=" stroke:none;fill-rule:nonzero;fill:rgb(0%,0%,0%);fill-opacity:1;" d="M 274.921875 33.085938 L 274.921875 34.980469 L 264.277344 34.980469 C 264.261719 34.503906 264.339844 34.042969 264.511719 33.613281 C 264.785156 32.886719 265.214844 32.167969 265.800781 31.464844 C 266.394531 30.761719 267.265625 29.953125 268.398438 29.023438 C 270.140625 27.59375 271.316406 26.460938 271.933594 25.625 C 272.558594 24.78125 272.871094 23.984375 272.871094 23.242188 C 272.871094 22.453125 272.585938 21.789062 272.03125 21.25 C 271.46875 20.71875 270.742188 20.449219 269.84375 20.449219 C 268.875 20.449219 268.109375 20.738281 267.539062 21.308594 C 266.976562 21.886719 266.6875 22.671875 266.679688 23.671875 L 264.648438 23.457031 C 264.789062 21.949219 265.3125 20.796875 266.210938 20 C 267.117188 19.210938 268.34375 18.808594 269.882812 18.808594 C 271.414062 18.808594 272.636719 19.238281 273.535156 20.097656 C 274.441406 20.957031 274.902344 22.023438 274.902344 23.28125 C 274.902344 23.921875 274.765625 24.550781 274.492188 25.175781 C 274.226562 25.800781 273.792969 26.460938 273.183594 27.148438 C 272.566406 27.84375 271.550781 28.785156 270.136719 29.980469 C 268.949219 30.988281 268.1875 31.660156 267.851562 32.011719 C 267.507812 32.363281 267.234375 32.726562 267.03125 33.085938 L 274.921875 33.085938 Z M 274.921875 33.085938 "/>
<path style=" stroke:none;fill-rule:nonzero;fill:rgb(0%,0%,0%);fill-opacity:1;" d="M 277.652344 34.980469 L 277.652344 23.320312 L 279.429688 23.320312 L 279.429688 24.980469 C 280.289062 23.691406 281.527344 23.046875 283.140625 23.046875 C 283.84375 23.046875 284.488281 23.179688 285.074219 23.4375 C 285.671875 23.6875 286.117188 24.019531 286.402344 24.433594 C 286.703125 24.839844 286.910156 25.324219 287.027344 25.878906 C 287.09375 26.246094 287.125 26.890625 287.125 27.8125 L 287.125 34.980469 L 285.152344 34.980469 L 285.152344 27.890625 C 285.152344 27.085938 285.074219 26.480469 284.917969 26.074219 C 284.773438 25.675781 284.5 25.351562 284.097656 25.117188 C 283.707031 24.882812 283.25 24.765625 282.730469 24.765625 C 281.882812 24.765625 281.15625 25.035156 280.542969 25.566406 C 279.929688 26.105469 279.625 27.121094 279.625 28.613281 L 279.625 34.980469 L 277.652344 34.980469 Z M 277.652344 34.980469 "/>
<path style=" stroke:none;fill-rule:nonzero;fill:rgb(0%,0%,0%);fill-opacity:1;" d="M 294.328125 32.382812 L 294.328125 27.96875 L 289.933594 27.96875 L 289.933594 26.113281 L 294.328125 26.113281 L 294.328125 21.738281 L 296.183594 21.738281 L 296.183594 26.113281 L 300.578125 26.113281 L 300.578125 27.96875 L 296.183594 27.96875 L 296.183594 32.382812 L 294.328125 32.382812 Z M 294.328125 32.382812 "/>
<path style=" stroke:none;fill-rule:nonzero;fill:rgb(0%,0%,0%);fill-opacity:1;" d="M 310.203125 34.980469 L 308.230469 34.980469 L 308.230469 22.382812 C 307.746094 22.84375 307.121094 23.296875 306.355469 23.75 C 305.582031 24.195312 304.890625 24.53125 304.265625 24.765625 L 304.265625 22.851562 C 305.367188 22.335938 306.339844 21.699219 307.175781 20.957031 C 308.003906 20.214844 308.589844 19.503906 308.933594 18.808594 L 310.203125 18.808594 L 310.203125 34.980469 Z M 310.203125 34.980469 "/>
<path style=" stroke:none;fill-rule:nonzero;fill:rgb(0%,0%,0%);fill-opacity:1;" d="M 206.6875 23.3125 L 207.75 25.1875 L 188.875 36.0625 L 187.8125 34.25 L 206.6875 23.3125 Z M 206.6875 23.3125 "/>
<path style=" stroke:none;fill-rule:nonzero;fill:rgb(0%,0%,0%);fill-opacity:1;" d="M 108.949219 98.5 L 108.949219 77.015625 L 111.800781 77.015625 L 111.800781 85.84375 L 122.953125 85.84375 L 122.953125 77.015625 L 125.804688 77.015625 L 125.804688 98.5 L 122.953125 98.5 L 122.953125 88.382812 L 111.800781 88.382812 L 111.800781 98.5 L 108.949219 98.5 Z M 108.949219 98.5 "/>
<path style=" stroke:none;fill-rule:nonzero;fill:rgb(0%,0%,0%);fill-opacity:1;" d="M 129.210938 100.597656 L 131.203125 100.34375 C 131.421875 101.46875 131.808594 102.273438 132.355469 102.765625 C 132.902344 103.265625 133.566406 103.507812 134.347656 103.507812 C 135.285156 103.507812 136.070312 103.191406 136.710938 102.550781 C 137.347656 101.902344 137.667969 101.101562 137.667969 100.148438 C 137.667969 99.242188 137.367188 98.488281 136.769531 97.902344 C 136.183594 97.308594 135.433594 97.003906 134.523438 97.003906 C 134.144531 97.003906 133.675781 97.082031 133.117188 97.238281 L 133.332031 95.5 C 133.460938 95.515625 133.570312 95.519531 133.664062 95.519531 C 134.496094 95.519531 135.25 95.300781 135.929688 94.855469 C 136.605469 94.417969 136.945312 93.738281 136.945312 92.824219 C 136.945312 92.097656 136.695312 91.496094 136.203125 91.027344 C 135.707031 90.550781 135.074219 90.304688 134.308594 90.304688 C 133.539062 90.304688 132.894531 90.550781 132.375 91.027344 C 131.867188 91.511719 131.539062 92.238281 131.398438 93.214844 L 129.425781 92.863281 C 129.660156 91.535156 130.207031 90.511719 131.066406 89.777344 C 131.925781 89.050781 132.992188 88.683594 134.269531 88.683594 C 135.140625 88.683594 135.949219 88.875 136.691406 89.25 C 137.433594 89.632812 138 90.144531 138.390625 90.792969 C 138.78125 91.449219 138.976562 92.136719 138.976562 92.863281 C 138.976562 93.566406 138.785156 94.207031 138.410156 94.777344 C 138.042969 95.339844 137.492188 95.789062 136.75 96.125 C 137.699219 96.351562 138.433594 96.808594 138.957031 97.511719 C 139.488281 98.207031 139.757812 99.066406 139.757812 100.089844 C 139.757812 101.496094 139.242188 102.699219 138.214844 103.683594 C 137.199219 104.660156 135.910156 105.148438 134.347656 105.148438 C 132.925781 105.148438 131.75 104.730469 130.8125 103.878906 C 129.886719 103.035156 129.351562 101.941406 129.210938 100.597656 Z M 129.210938 100.597656 "/>
<path style=" stroke:none;fill-rule:nonzero;fill:rgb(0%,0%,0%);fill-opacity:1;" d="M 158.488281 90.960938 L 161.339844 91.683594 C 160.738281 94.015625 159.664062 95.800781 158.117188 97.035156 C 156.5625 98.261719 154.667969 98.871094 152.433594 98.871094 C 150.128906 98.871094 148.242188 98.402344 146.789062 97.464844 C 145.34375 96.515625 144.238281 95.148438 143.488281 93.363281 C 142.730469 91.566406 142.355469 89.648438 142.355469 87.601562 C 142.355469 85.367188 142.773438 83.414062 143.625 81.742188 C 144.484375 80.078125 145.699219 78.8125 147.277344 77.953125 C 148.847656 77.09375 150.585938 76.664062 152.492188 76.664062 C 154.640625 76.664062 156.441406 77.210938 157.902344 78.304688 C 159.371094 79.398438 160.390625 80.9375 160.96875 82.914062 L 158.175781 83.578125 C 157.667969 82.015625 156.933594 80.878906 155.988281 80.160156 C 155.050781 79.445312 153.863281 79.085938 152.433594 79.085938 C 150.777344 79.085938 149.394531 79.484375 148.292969 80.277344 C 147.183594 81.074219 146.402344 82.132812 145.949219 83.460938 C 145.503906 84.789062 145.285156 86.164062 145.285156 87.582031 C 145.285156 89.40625 145.542969 91 146.066406 92.367188 C 146.597656 93.734375 147.421875 94.757812 148.546875 95.433594 C 149.679688 96.097656 150.894531 96.429688 152.199219 96.429688 C 153.800781 96.429688 155.148438 95.976562 156.242188 95.0625 C 157.34375 94.140625 158.097656 92.773438 158.488281 90.960938 Z M 158.488281 90.960938 "/>
<path style=" stroke:none;fill-rule:nonzero;fill:rgb(0%,0%,0%);fill-opacity:1;" d="M 159.25 75.75 L 157.375 74.8125 L 167.0625 56.4375 L 168.9375 57.375 L 159.25 75.75 Z M 159.25 75.75 "/>
<path style=" stroke:none;fill-rule:nonzero;fill:rgb(0%,0%,0%);fill-opacity:1;" d="M 209.199219 90.335938 L 212.050781 91.058594 C 211.449219 93.390625 210.375 95.175781 208.828125 96.410156 C 207.273438 97.636719 205.382812 98.246094 203.144531 98.246094 C 200.839844 98.246094 198.953125 97.777344 197.5 96.839844 C 196.054688 95.890625 194.953125 94.523438 194.199219 92.738281 C 193.441406 90.941406 193.066406 89.023438 193.066406 86.976562 C 193.066406 84.742188 193.484375 82.789062 194.335938 81.117188 C 195.195312 79.453125 196.410156 78.1875 197.988281 77.328125 C 199.5625 76.46875 201.296875 76.039062 203.203125 76.039062 C 205.351562 76.039062 207.152344 76.585938 208.613281 77.679688 C 210.082031 78.773438 211.101562 80.3125 211.679688 82.289062 L 208.886719 82.953125 C 208.378906 81.390625 207.648438 80.253906 206.699219 79.535156 C 205.761719 78.820312 204.574219 78.460938 203.144531 78.460938 C 201.488281 78.460938 200.109375 78.859375 199.003906 79.652344 C 197.894531 80.449219 197.113281 81.507812 196.660156 82.835938 C 196.214844 84.164062 195.996094 85.539062 195.996094 86.957031 C 195.996094 88.78125 196.253906 90.375 196.777344 91.742188 C 197.308594 93.109375 198.132812 94.132812 199.257812 94.808594 C 200.390625 95.472656 201.605469 95.804688 202.910156 95.804688 C 204.511719 95.804688 205.859375 95.351562 206.953125 94.4375 C 208.054688 93.515625 208.808594 92.148438 209.199219 90.335938 Z M 209.199219 90.335938 "/>
<path style=" stroke:none;fill-rule:nonzero;fill:rgb(0%,0%,0%);fill-opacity:1;" d="M 215.628906 97.875 L 215.628906 76.390625 L 218.480469 76.390625 L 218.480469 85.21875 L 229.632812 85.21875 L 229.632812 76.390625 L 232.484375 76.390625 L 232.484375 97.875 L 229.632812 97.875 L 229.632812 87.757812 L 218.480469 87.757812 L 218.480469 97.875 L 215.628906 97.875 Z M 215.628906 97.875 "/>
<path style=" stroke:none;fill-rule:nonzero;fill:rgb(0%,0%,0%);fill-opacity:1;" d="M 235.894531 99.972656 L 237.886719 99.71875 C 238.105469 100.84375 238.492188 101.648438 239.039062 102.140625 C 239.585938 102.640625 240.25 102.882812 241.03125 102.882812 C 241.96875 102.882812 242.753906 102.566406 243.394531 101.925781 C 244.027344 101.277344 244.351562 100.476562 244.351562 99.523438 C 244.351562 98.617188 244.046875 97.863281 243.453125 97.277344 C 242.867188 96.683594 242.113281 96.378906 241.207031 96.378906 C 240.824219 96.378906 240.355469 96.457031 239.800781 96.613281 L 240.015625 94.875 C 240.140625 94.890625 240.253906 94.894531 240.347656 94.894531 C 241.175781 94.894531 241.933594 94.675781 242.613281 94.230469 C 243.285156 93.792969 243.628906 93.113281 243.628906 92.199219 C 243.628906 91.472656 243.378906 90.871094 242.886719 90.402344 C 242.386719 89.925781 241.757812 89.679688 240.992188 89.679688 C 240.21875 89.679688 239.574219 89.925781 239.058594 90.402344 C 238.550781 90.886719 238.222656 91.613281 238.082031 92.589844 L 236.109375 92.238281 C 236.34375 90.910156 236.890625 89.886719 237.75 89.152344 C 238.609375 88.425781 239.671875 88.058594 240.953125 88.058594 C 241.820312 88.058594 242.632812 88.25 243.375 88.625 C 244.117188 89.007812 244.683594 89.519531 245.074219 90.167969 C 245.464844 90.824219 245.660156 91.511719 245.660156 92.238281 C 245.660156 92.941406 245.46875 93.582031 245.09375 94.152344 C 244.726562 94.714844 244.175781 95.164062 243.433594 95.5 C 244.378906 95.726562 245.117188 96.183594 245.640625 96.886719 C 246.171875 97.582031 246.441406 98.441406 246.441406 99.464844 C 246.441406 100.871094 245.921875 102.074219 244.898438 103.058594 C 243.882812 104.035156 242.59375 104.523438 241.03125 104.523438 C 239.609375 104.523438 238.433594 104.105469 237.496094 103.253906 C 236.566406 102.410156 236.035156 101.316406 235.894531 99.972656 Z M 235.894531 99.972656 "/>
<path style=" stroke:none;fill-rule:nonzero;fill:rgb(0%,0%,0%);fill-opacity:1;" d="M 196.5 74.9375 L 194.6875 76 L 183.1875 57.0625 L 185 55.9375 L 196.5 74.9375 Z M 196.5 74.9375 "/>
<path style="fill:none;stroke-width:27;stroke-linecap:butt;stroke-linejoin:miter;stroke:rgb(0%,0%,0%);stroke-opacity:1;stroke-miterlimit:10;" d="M 4911.9375 2444.3125 C 4911.9375 2357.25 4841.375 2286.625 4754.3125 2286.625 C 4667.25 2286.625 4596.625 2357.25 4596.625 2444.3125 C 4596.625 2531.375 4667.25 2601.9375 4754.3125 2601.9375 C 4841.375 2601.9375 4911.9375 2531.375 4911.9375 2444.3125 Z M 4911.9375 2444.3125 " transform="matrix(0.0625,0,0,0.0625,-121.25,-135)"/>
<path style="fill:none;stroke-width:27;stroke-linecap:butt;stroke-linejoin:miter;stroke:rgb(0%,0%,0%);stroke-opacity:1;stroke-miterlimit:10;" d="M 4675.4375 2444.3125 L 4833.125 2444.3125 " transform="matrix(0.0625,0,0,0.0625,-121.25,-135)"/>
<path style="fill:none;stroke-width:27;stroke-linecap:butt;stroke-linejoin:miter;stroke:rgb(0%,0%,0%);stroke-opacity:1;stroke-miterlimit:10;" d="M 4754.3125 2365.5 L 4754.3125 2523.125 " transform="matrix(0.0625,0,0,0.0625,-121.25,-135)"/>
<path style=" stroke:none;fill-rule:nonzero;fill:rgb(0%,0%,0%);fill-opacity:1;" d="M 354.386719 77.773438 L 357.238281 78.496094 C 356.636719 80.828125 355.5625 82.613281 354.015625 83.847656 C 352.460938 85.074219 350.570312 85.683594 348.332031 85.683594 C 346.027344 85.683594 344.140625 85.214844 342.6875 84.277344 C 341.242188 83.328125 340.140625 81.960938 339.386719 80.175781 C 338.628906 78.378906 338.253906 76.460938 338.253906 74.414062 C 338.253906 72.179688 338.671875 70.226562 339.523438 68.554688 C 340.382812 66.890625 341.597656 65.625 343.175781 64.765625 C 344.75 63.90625 346.484375 63.476562 348.390625 63.476562 C 350.539062 63.476562 352.339844 64.023438 353.800781 65.117188 C 355.269531 66.210938 356.289062 67.75 356.867188 69.726562 L 354.074219 70.390625 C 353.566406 68.828125 352.835938 67.691406 351.886719 66.972656 C 350.949219 66.257812 349.761719 65.898438 348.332031 65.898438 C 346.675781 65.898438 345.296875 66.296875 344.191406 67.089844 C 343.082031 67.886719 342.300781 68.945312 341.847656 70.273438 C 341.402344 71.601562 341.183594 72.976562 341.183594 74.394531 C 341.183594 76.21875 341.441406 77.8125 341.964844 79.179688 C 342.496094 80.546875 343.320312 81.570312 344.445312 82.246094 C 345.578125 82.910156 346.792969 83.242188 348.097656 83.242188 C 349.699219 83.242188 351.046875 82.789062 352.140625 81.875 C 353.242188 80.953125 353.996094 79.585938 354.386719 77.773438 Z M 354.386719 77.773438 "/>
<path style=" stroke:none;fill-rule:nonzero;fill:rgb(0%,0%,0%);fill-opacity:1;" d="M 360.328125 85.3125 L 360.328125 63.828125 L 362.964844 63.828125 L 362.964844 85.3125 L 360.328125 85.3125 Z M 360.328125 85.3125 "/>
<path style="fill:none;stroke-width:27;stroke-linecap:butt;stroke-linejoin:miter;stroke:rgb(0%,0%,0%);stroke-opacity:1;stroke-miterlimit:10;" d="M 8110.25 3123.4375 C 8110.25 3036.875 8040.0625 2966.625 7953.4375 2966.625 C 7866.875 2966.625 7796.625 3036.875 7796.625 3123.4375 C 7796.625 3210.0625 7866.875 3280.25 7953.4375 3280.25 C 8040.0625 3280.25 8110.25 3210.0625 8110.25 3123.4375 Z M 8110.25 3123.4375 " transform="matrix(0.0625,0,0,0.0625,-121.25,-135)"/>
<path style="fill:none;stroke-width:27;stroke-linecap:butt;stroke-linejoin:miter;stroke:rgb(0%,0%,0%);stroke-opacity:1;stroke-miterlimit:10;" d="M 7875.0625 3123.4375 L 8031.875 3123.4375 " transform="matrix(0.0625,0,0,0.0625,-121.25,-135)"/>
<path style=" stroke:none;fill-rule:nonzero;fill:rgb(0%,0%,0%);fill-opacity:1;" d="M 34.535156 181.4375 L 34.535156 165.871094 L 36.917969 165.871094 L 36.917969 168.097656 C 38.0625 166.378906 39.710938 165.519531 41.859375 165.519531 C 42.796875 165.519531 43.65625 165.691406 44.4375 166.027344 C 45.226562 166.367188 45.824219 166.808594 46.214844 167.355469 C 46.605469 167.902344 46.878906 168.554688 47.035156 169.308594 C 47.136719 169.792969 47.191406 170.648438 47.191406 171.867188 L 47.191406 181.4375 L 44.554688 181.4375 L 44.554688 171.964844 C 44.554688 170.898438 44.445312 170.101562 44.242188 169.5625 C 44.03125 169.03125 43.664062 168.605469 43.148438 168.292969 C 42.625 167.96875 42.015625 167.804688 41.3125 167.804688 C 40.1875 167.804688 39.222656 168.164062 38.402344 168.878906 C 37.582031 169.597656 37.171875 170.949219 37.171875 172.941406 L 37.171875 181.4375 L 34.535156 181.4375 Z M 34.535156 181.4375 "/>
<path style=" stroke:none;fill-rule:nonzero;fill:rgb(0%,0%,0%);fill-opacity:1;" d=""/>
<path style=" stroke:none;fill-rule:nonzero;fill:rgb(0%,0%,0%);fill-opacity:1;" d="M 73.441406 168.800781 L 59.261719 168.800781 L 59.261719 166.339844 L 73.441406 166.339844 L 73.441406 168.800781 Z M 73.441406 175.324219 L 59.261719 175.324219 L 59.261719 172.863281 L 73.441406 172.863281 L 73.441406 175.324219 Z M 73.441406 175.324219 "/>
<path style=" stroke:none;fill-rule:nonzero;fill:rgb(0%,0%,0%);fill-opacity:1;" d=""/>
<path style=" stroke:none;fill-rule:nonzero;fill:rgb(0%,0%,0%);fill-opacity:1;" d="M 88.75 169.796875 C 87.65625 169.398438 86.839844 168.820312 86.308594 168.078125 C 85.785156 167.335938 85.527344 166.445312 85.527344 165.402344 C 85.527344 163.839844 86.082031 162.53125 87.207031 161.476562 C 88.324219 160.414062 89.8125 159.875 91.679688 159.875 C 93.554688 159.875 95.0625 160.421875 96.210938 161.515625 C 97.351562 162.601562 97.929688 163.917969 97.929688 165.480469 C 97.929688 166.484375 97.664062 167.355469 97.148438 168.097656 C 96.625 168.828125 95.828125 169.398438 94.765625 169.796875 C 96.078125 170.226562 97.078125 170.925781 97.773438 171.886719 C 98.460938 172.839844 98.808594 173.976562 98.808594 175.304688 C 98.808594 177.140625 98.152344 178.683594 96.855469 179.933594 C 95.550781 181.183594 93.847656 181.808594 91.738281 181.808594 C 89.613281 181.808594 87.898438 181.183594 86.601562 179.933594 C 85.296875 178.671875 84.648438 177.101562 84.648438 175.226562 C 84.648438 173.835938 85 172.667969 85.703125 171.730469 C 86.414062 170.78125 87.429688 170.140625 88.75 169.796875 Z M 88.222656 165.324219 C 88.222656 166.339844 88.542969 167.175781 89.199219 167.824219 C 89.847656 168.464844 90.691406 168.78125 91.738281 168.78125 C 92.753906 168.78125 93.582031 168.464844 94.238281 167.824219 C 94.886719 167.1875 95.214844 166.398438 95.214844 165.460938 C 95.214844 164.5 94.871094 163.695312 94.199219 163.039062 C 93.535156 162.375 92.703125 162.042969 91.71875 162.042969 C 90.710938 162.042969 89.882812 162.371094 89.21875 163.019531 C 88.554688 163.660156 88.222656 164.425781 88.222656 165.324219 Z M 87.363281 175.246094 C 87.363281 175.988281 87.539062 176.710938 87.890625 177.414062 C 88.25 178.117188 88.789062 178.664062 89.492188 179.054688 C 90.195312 179.445312 90.945312 179.640625 91.757812 179.640625 C 93.015625 179.640625 94.0625 179.242188 94.882812 178.429688 C 95.703125 177.609375 96.113281 176.574219 96.113281 175.324219 C 96.113281 174.0625 95.6875 173.015625 94.84375 172.179688 C 93.992188 171.351562 92.9375 170.929688 91.679688 170.929688 C 90.429688 170.929688 89.394531 171.339844 88.574219 172.160156 C 87.761719 172.980469 87.363281 174.011719 87.363281 175.246094 Z M 87.363281 175.246094 "/>
<path style=" stroke:none;fill-rule:nonzero;fill:rgb(0%,0%,0%);fill-opacity:1;" d="M 102.796875 181.4375 L 102.796875 178.429688 L 105.785156 178.429688 L 105.785156 181.4375 C 105.785156 182.539062 105.589844 183.433594 105.199219 184.113281 C 104.808594 184.789062 104.191406 185.3125 103.34375 185.695312 L 102.621094 184.5625 C 103.167969 184.3125 103.570312 183.945312 103.832031 183.46875 C 104.105469 183 104.253906 182.320312 104.28125 181.4375 L 102.796875 181.4375 Z M 102.796875 181.4375 "/>
<path style=" stroke:none;fill-rule:nonzero;fill:rgb(0%,0%,0%);fill-opacity:1;" d=""/>
<path style=" stroke:none;fill-rule:nonzero;fill:rgb(0%,0%,0%);fill-opacity:1;" d="M 127.960938 181.4375 L 125.324219 181.4375 L 125.324219 164.640625 C 124.699219 165.242188 123.867188 165.847656 122.824219 166.457031 C 121.796875 167.058594 120.871094 167.507812 120.050781 167.804688 L 120.050781 165.265625 C 121.535156 164.578125 122.824219 163.738281 123.917969 162.746094 C 125.023438 161.757812 125.804688 160.804688 126.261719 159.875 L 127.960938 159.875 L 127.960938 181.4375 Z M 127.960938 181.4375 "/>
<path style=" stroke:none;fill-rule:nonzero;fill:rgb(0%,0%,0%);fill-opacity:1;" d="M 134.726562 170.851562 C 134.726562 168.3125 134.984375 166.273438 135.507812 164.71875 C 136.023438 163.171875 136.800781 161.980469 137.832031 161.144531 C 138.855469 160.300781 140.15625 159.875 141.71875 159.875 C 142.875 159.875 143.886719 160.109375 144.746094 160.578125 C 145.613281 161.039062 146.332031 161.703125 146.894531 162.570312 C 147.464844 163.445312 147.914062 164.515625 148.242188 165.773438 C 148.5625 167.023438 148.730469 168.71875 148.730469 170.851562 C 148.730469 173.367188 148.464844 175.398438 147.949219 176.945312 C 147.425781 178.5 146.648438 179.695312 145.625 180.539062 C 144.59375 181.390625 143.289062 181.808594 141.71875 181.808594 C 139.648438 181.808594 138.027344 181.066406 136.855469 179.582031 C 135.433594 177.785156 134.726562 174.875 134.726562 170.851562 Z M 137.441406 170.851562 C 137.441406 174.367188 137.851562 176.710938 138.671875 177.882812 C 139.492188 179.054688 140.507812 179.640625 141.71875 179.640625 C 142.929688 179.640625 143.945312 179.054688 144.765625 177.882812 C 145.59375 176.710938 146.015625 174.367188 146.015625 170.851562 C 146.015625 167.3125 145.59375 164.960938 144.765625 163.800781 C 143.945312 162.644531 142.917969 162.0625 141.699219 162.0625 C 140.488281 162.0625 139.515625 162.570312 138.789062 163.585938 C 137.890625 164.90625 137.441406 167.328125 137.441406 170.851562 Z M 137.441406 170.851562 "/>
<path style=" stroke:none;fill-rule:nonzero;fill:rgb(0%,0%,0%);fill-opacity:1;" d="M 152.839844 181.4375 L 152.839844 178.429688 L 155.828125 178.429688 L 155.828125 181.4375 C 155.828125 182.539062 155.632812 183.433594 155.242188 184.113281 C 154.851562 184.789062 154.230469 185.3125 153.386719 185.695312 L 152.664062 184.5625 C 153.210938 184.3125 153.609375 183.945312 153.875 183.46875 C 154.148438 183 154.292969 182.320312 154.324219 181.4375 L 152.839844 181.4375 Z M 152.839844 181.4375 "/>
<path style=" stroke:none;fill-rule:nonzero;fill:rgb(0%,0%,0%);fill-opacity:1;" d=""/>
<path style=" stroke:none;fill-rule:nonzero;fill:rgb(0%,0%,0%);fill-opacity:1;" d="M 178.003906 181.4375 L 175.367188 181.4375 L 175.367188 164.640625 C 174.742188 165.242188 173.90625 165.847656 172.867188 166.457031 C 171.835938 167.058594 170.914062 167.507812 170.09375 167.804688 L 170.09375 165.265625 C 171.578125 164.578125 172.867188 163.738281 173.960938 162.746094 C 175.0625 161.757812 175.84375 160.804688 176.304688 159.875 L 178.003906 159.875 L 178.003906 181.4375 Z M 178.003906 181.4375 "/>
<path style=" stroke:none;fill-rule:nonzero;fill:rgb(0%,0%,0%);fill-opacity:1;" d="M 198.613281 178.898438 L 198.613281 181.4375 L 184.433594 181.4375 C 184.40625 180.804688 184.503906 180.1875 184.726562 179.601562 C 185.089844 178.640625 185.667969 177.6875 186.464844 176.75 C 187.257812 175.8125 188.410156 174.726562 189.921875 173.488281 C 192.25 171.574219 193.828125 170.066406 194.648438 168.957031 C 195.46875 167.839844 195.878906 166.78125 195.878906 165.773438 C 195.878906 164.734375 195.5 163.855469 194.746094 163.136719 C 194.003906 162.421875 193.03125 162.0625 191.835938 162.0625 C 190.570312 162.0625 189.554688 162.449219 188.789062 163.214844 C 188.03125 163.972656 187.648438 165.023438 187.636719 166.359375 L 184.921875 166.085938 C 185.101562 164.070312 185.800781 162.53125 187.011719 161.476562 C 188.222656 160.414062 189.847656 159.875 191.894531 159.875 C 193.949219 159.875 195.578125 160.453125 196.777344 161.59375 C 197.988281 162.726562 198.59375 164.140625 198.59375 165.832031 C 198.59375 166.691406 198.417969 167.539062 198.066406 168.371094 C 197.714844 169.207031 197.128906 170.085938 196.308594 171.007812 C 195.5 171.921875 194.144531 173.175781 192.246094 174.777344 C 190.667969 176.105469 189.652344 177.003906 189.199219 177.472656 C 188.753906 177.941406 188.382812 178.421875 188.085938 178.898438 L 198.613281 178.898438 Z M 198.613281 178.898438 "/>
<path style=" stroke:none;fill-rule:nonzero;fill:rgb(0%,0%,0%);fill-opacity:1;" d="M 202.878906 181.4375 L 202.878906 178.429688 L 205.867188 178.429688 L 205.867188 181.4375 C 205.867188 182.539062 205.671875 183.433594 205.28125 184.113281 C 204.890625 184.789062 204.269531 185.3125 203.425781 185.695312 L 202.703125 184.5625 C 203.25 184.3125 203.648438 183.945312 203.914062 183.46875 C 204.1875 183 204.332031 182.320312 204.363281 181.4375 L 202.878906 181.4375 Z M 202.878906 181.4375 "/>
<path style=" stroke:none;fill-rule:nonzero;fill:rgb(0%,0%,0%);fill-opacity:1;" d=""/>
<path style=" stroke:none;fill-rule:nonzero;fill:rgb(0%,0%,0%);fill-opacity:1;" d="M 228.042969 181.4375 L 225.40625 181.4375 L 225.40625 164.640625 C 224.78125 165.242188 223.945312 165.847656 222.90625 166.457031 C 221.875 167.058594 220.953125 167.507812 220.132812 167.804688 L 220.132812 165.265625 C 221.617188 164.578125 222.90625 163.738281 224 162.746094 C 225.101562 161.757812 225.882812 160.804688 226.34375 159.875 L 228.042969 159.875 L 228.042969 181.4375 Z M 228.042969 181.4375 "/>
<path style=" stroke:none;fill-rule:nonzero;fill:rgb(0%,0%,0%);fill-opacity:1;" d="M 243.261719 181.4375 L 243.261719 176.300781 L 233.945312 176.300781 L 233.945312 173.878906 L 243.730469 159.953125 L 245.898438 159.953125 L 245.898438 173.878906 L 248.789062 173.878906 L 248.789062 176.300781 L 245.898438 176.300781 L 245.898438 181.4375 L 243.261719 181.4375 Z M 243.261719 173.878906 L 243.261719 164.191406 L 236.523438 173.878906 L 243.261719 173.878906 Z M 243.261719 173.878906 "/>
<path style=" stroke:none;fill-rule:nonzero;fill:rgb(0%,0%,0%);fill-opacity:1;" d="M 252.917969 181.4375 L 252.917969 178.429688 L 255.90625 178.429688 L 255.90625 181.4375 C 255.90625 182.539062 255.710938 183.433594 255.320312 184.113281 C 254.929688 184.789062 254.308594 185.3125 253.464844 185.695312 L 252.742188 184.5625 C 253.289062 184.3125 253.691406 183.945312 253.953125 183.46875 C 254.226562 183 254.375 182.320312 254.402344 181.4375 L 252.917969 181.4375 Z M 252.917969 181.4375 "/>
<path style=" stroke:none;fill-rule:nonzero;fill:rgb(0%,0%,0%);fill-opacity:1;" d=""/>
<path style=" stroke:none;fill-rule:nonzero;fill:rgb(0%,0%,0%);fill-opacity:1;" d="M 278.082031 181.4375 L 275.445312 181.4375 L 275.445312 164.640625 C 274.820312 165.242188 273.984375 165.847656 272.945312 166.457031 C 271.914062 167.058594 270.992188 167.507812 270.171875 167.804688 L 270.171875 165.265625 C 271.65625 164.578125 272.945312 163.738281 274.039062 162.746094 C 275.144531 161.757812 275.925781 160.804688 276.382812 159.875 L 278.082031 159.875 L 278.082031 181.4375 Z M 278.082031 181.4375 "/>
<path style=" stroke:none;fill-rule:nonzero;fill:rgb(0%,0%,0%);fill-opacity:1;" d="M 298.519531 165.226562 L 295.902344 165.421875 C 295.667969 164.398438 295.335938 163.644531 294.90625 163.175781 C 294.1875 162.421875 293.308594 162.042969 292.269531 162.042969 C 291.433594 162.042969 290.695312 162.277344 290.0625 162.746094 C 289.226562 163.347656 288.566406 164.230469 288.089844 165.402344 C 287.621094 166.5625 287.371094 168.214844 287.347656 170.363281 C 287.980469 169.402344 288.757812 168.683594 289.671875 168.214844 C 290.59375 167.746094 291.554688 167.511719 292.5625 167.511719 C 294.320312 167.511719 295.8125 168.15625 297.054688 169.445312 C 298.289062 170.734375 298.910156 172.410156 298.910156 174.464844 C 298.910156 175.808594 298.617188 177.058594 298.03125 178.214844 C 297.453125 179.375 296.664062 180.265625 295.648438 180.890625 C 294.632812 181.5 293.480469 181.808594 292.191406 181.808594 C 289.988281 181.808594 288.191406 181.003906 286.800781 179.386719 C 285.417969 177.761719 284.730469 175.089844 284.730469 171.378906 C 284.730469 167.238281 285.496094 164.226562 287.035156 162.335938 C 288.363281 160.695312 290.160156 159.875 292.425781 159.875 C 294.113281 159.875 295.5 160.351562 296.585938 161.300781 C 297.664062 162.238281 298.308594 163.546875 298.519531 165.226562 Z M 287.757812 174.484375 C 287.757812 175.382812 287.941406 176.25 288.324219 177.082031 C 288.714844 177.917969 289.25 178.554688 289.945312 178.996094 C 290.648438 179.425781 291.375 179.640625 292.132812 179.640625 C 293.25 179.640625 294.207031 179.191406 295.003906 178.292969 C 295.808594 177.394531 296.214844 176.171875 296.214844 174.621094 C 296.214844 173.136719 295.8125 171.976562 295.023438 171.125 C 294.226562 170.265625 293.230469 169.835938 292.035156 169.835938 C 290.847656 169.835938 289.835938 170.265625 289.007812 171.125 C 288.171875 171.976562 287.757812 173.09375 287.757812 174.484375 Z M 287.757812 174.484375 "/>
<path style=" stroke:none;fill-rule:nonzero;fill:rgb(0%,0%,0%);fill-opacity:1;" d="M 302.957031 181.4375 L 302.957031 178.429688 L 305.945312 178.429688 L 305.945312 181.4375 C 305.945312 182.539062 305.75 183.433594 305.359375 184.113281 C 304.96875 184.789062 304.351562 185.3125 303.503906 185.695312 L 302.78125 184.5625 C 303.328125 184.3125 303.730469 183.945312 303.992188 183.46875 C 304.265625 183 304.414062 182.320312 304.441406 181.4375 L 302.957031 181.4375 Z M 302.957031 181.4375 "/>
<path style=" stroke:none;fill-rule:nonzero;fill:rgb(0%,0%,0%);fill-opacity:1;" d=""/>
<path style=" stroke:none;fill-rule:nonzero;fill:rgb(0%,0%,0%);fill-opacity:1;" d="M 328.121094 181.4375 L 325.484375 181.4375 L 325.484375 164.640625 C 324.859375 165.242188 324.027344 165.847656 322.984375 166.457031 C 321.957031 167.058594 321.03125 167.507812 320.210938 167.804688 L 320.210938 165.265625 C 321.695312 164.578125 322.984375 163.738281 324.078125 162.746094 C 325.183594 161.757812 325.964844 160.804688 326.421875 159.875 L 328.121094 159.875 L 328.121094 181.4375 Z M 328.121094 181.4375 "/>
<path style=" stroke:none;fill-rule:nonzero;fill:rgb(0%,0%,0%);fill-opacity:1;" d="M 338.949219 169.796875 C 337.855469 169.398438 337.039062 168.820312 336.507812 168.078125 C 335.984375 167.335938 335.726562 166.445312 335.726562 165.402344 C 335.726562 163.839844 336.28125 162.53125 337.40625 161.476562 C 338.523438 160.414062 340.011719 159.875 341.878906 159.875 C 343.753906 159.875 345.261719 160.421875 346.410156 161.515625 C 347.550781 162.601562 348.128906 163.917969 348.128906 165.480469 C 348.128906 166.484375 347.863281 167.355469 347.347656 168.097656 C 346.824219 168.828125 346.027344 169.398438 344.964844 169.796875 C 346.277344 170.226562 347.277344 170.925781 347.972656 171.886719 C 348.660156 172.839844 349.007812 173.976562 349.007812 175.304688 C 349.007812 177.140625 348.351562 178.683594 347.054688 179.933594 C 345.75 181.183594 344.046875 181.808594 341.9375 181.808594 C 339.8125 181.808594 338.097656 181.183594 336.800781 179.933594 C 335.496094 178.671875 334.847656 177.101562 334.847656 175.226562 C 334.847656 173.835938 335.199219 172.667969 335.902344 171.730469 C 336.613281 170.78125 337.628906 170.140625 338.949219 169.796875 Z M 338.421875 165.324219 C 338.421875 166.339844 338.742188 167.175781 339.398438 167.824219 C 340.046875 168.464844 340.890625 168.78125 341.9375 168.78125 C 342.953125 168.78125 343.78125 168.464844 344.4375 167.824219 C 345.085938 167.1875 345.414062 166.398438 345.414062 165.460938 C 345.414062 164.5 345.070312 163.695312 344.398438 163.039062 C 343.734375 162.375 342.902344 162.042969 341.917969 162.042969 C 340.910156 162.042969 340.082031 162.371094 339.417969 163.019531 C 338.753906 163.660156 338.421875 164.425781 338.421875 165.324219 Z M 337.5625 175.246094 C 337.5625 175.988281 337.738281 176.710938 338.089844 177.414062 C 338.449219 178.117188 338.988281 178.664062 339.691406 179.054688 C 340.394531 179.445312 341.144531 179.640625 341.957031 179.640625 C 343.214844 179.640625 344.261719 179.242188 345.082031 178.429688 C 345.902344 177.609375 346.3125 176.574219 346.3125 175.324219 C 346.3125 174.0625 345.886719 173.015625 345.042969 172.179688 C 344.191406 171.351562 343.136719 170.929688 341.878906 170.929688 C 340.628906 170.929688 339.59375 171.339844 338.773438 172.160156 C 337.960938 172.980469 337.5625 174.011719 337.5625 175.246094 Z M 337.5625 175.246094 "/>
</g>
</g>
</g>
</svg>
