<?xml version="1.0" encoding="UTF-8" standalone="no"?>
<svg
   fill-opacity="1"
   color-rendering="auto"
   color-interpolation="auto"
   text-rendering="auto"
   stroke="black"
   stroke-linecap="square"
   width="1230"
   stroke-miterlimit="10"
   shape-rendering="auto"
   stroke-opacity="1"
   fill="black"
   stroke-dasharray="none"
   font-weight="normal"
   stroke-width="1"
   height="240"
   font-family="'Dialog'"
   font-style="normal"
   stroke-linejoin="miter"
   font-size="12px"
   stroke-dashoffset="0"
   image-rendering="auto"
   version="1.1"
   id="svg37"
   sodipodi:docname="betaines.svg"
   inkscape:version="1.4.2 (f4327f4, 2025-05-13)"
   xmlns:inkscape="http://www.inkscape.org/namespaces/inkscape"
   xmlns:sodipodi="http://sodipodi.sourceforge.net/DTD/sodipodi-0.dtd"
   xmlns="http://www.w3.org/2000/svg"
   xmlns:svg="http://www.w3.org/2000/svg">
  <sodipodi:namedview
     id="namedview37"
     pagecolor="#ffffff"
     bordercolor="#000000"
     borderopacity="0.25"
     inkscape:showpageshadow="2"
     inkscape:pageopacity="0.0"
     inkscape:pagecheckerboard="0"
     inkscape:deskcolor="#d1d1d1"
     inkscape:zoom="1.4788618"
     inkscape:cx="615"
     inkscape:cy="120.02474"
     inkscape:window-width="1920"
     inkscape:window-height="1111"
     inkscape:window-x="-9"
     inkscape:window-y="-9"
     inkscape:window-maximized="1"
     inkscape:current-layer="svg37" />
  <!--Generated by Marvin with Batik SVG Generator-->
  <defs
     id="genericDefs" />
  <g
     id="g37">
    <defs
       id="75403747519-defs1">
      <clipPath
         clipPathUnits="userSpaceOnUse"
         id="754037475165-clipPath1">
        <path
           d="M0 0 L1230 0 L1230 240 L0 240 L0 0 Z"
           id="path1" />
      </clipPath>
      <clipPath
         clipPathUnits="userSpaceOnUse"
         id="754037475891-clipPath1">
        <path
           d="M-729.2802 -109.2014 L500.7198 -109.2014 L500.7198 130.7986 L-729.2802 130.7986 L-729.2802 -109.2014 Z"
           id="path2" />
      </clipPath>
      <clipPath
         clipPathUnits="userSpaceOnUse"
         id="754037475551-clipPath1">
        <path
           d="M-729.2802 -157.8139 L500.7198 -157.8139 L500.7198 82.1861 L-729.2802 82.1861 L-729.2802 -157.8139 Z"
           id="path3" />
      </clipPath>
      <clipPath
         clipPathUnits="userSpaceOnUse"
         id="754037475186-clipPath1">
        <path
           d="M-971.774 -109.2014 L258.226 -109.2014 L258.226 130.7986 L-971.774 130.7986 L-971.774 -109.2014 Z"
           id="path4" />
      </clipPath>
      <clipPath
         clipPathUnits="userSpaceOnUse"
         id="75403747517-clipPath1">
        <path
           d="M-667.7019 -4.1985 L562.2981 -4.1985 L562.2981 235.8015 L-667.7019 235.8015 L-667.7019 -4.1985 Z"
           id="path5" />
      </clipPath>
      <clipPath
         clipPathUnits="userSpaceOnUse"
         id="754037475663-clipPath1">
        <path
           d="M-1152.6896 -74.2004 L77.3104 -74.2004 L77.3104 165.7996 L-1152.6896 165.7996 L-1152.6896 -74.2004 Z"
           id="path6" />
      </clipPath>
      <clipPath
         clipPathUnits="userSpaceOnUse"
         id="754037475504-clipPath1">
        <path
           d="M-1092.0662 -179.2034 L137.9339 -179.2034 L137.9339 60.7966 L-1092.0662 60.7966 L-1092.0662 -179.2034 Z"
           id="path7" />
      </clipPath>
    </defs>
    <g
       text-rendering="geometricPrecision"
       id="g8">
      <path
         d="M18.3792 135.9257 L18.3792 135.9257 L79.0027 100.9247 C79.7073 100.5179 80.6082 100.7593 81.015 101.4639 C81.4218 102.1685 81.1804 103.0694 80.4758 103.4762 L80.4758 103.4762 L19.8523 138.4772 C19.1478 138.8839 18.2468 138.6425 17.84 137.938 C17.4333 137.2334 17.6747 136.3325 18.3792 135.9257 Z"
         stroke="none"
         clip-path="url(#754037475165-clipPath1)"
         id="path8" />
    </g>
    <g
       text-rendering="geometricPrecision"
       id="g9">
      <path
         d="M80.4758 100.9247 L80.4758 100.9247 L141.0993 135.9257 C141.8038 136.3325 142.0452 137.2334 141.6385 137.938 C141.2317 138.6425 140.3307 138.8839 139.6262 138.4772 L139.6262 138.4772 L79.0027 103.4762 C78.2981 103.0694 78.0567 102.1685 78.4635 101.4639 C78.8703 100.7593 79.7712 100.5179 80.4758 100.9247 Z"
         stroke="none"
         clip-path="url(#754037475165-clipPath1)"
         id="path9" />
    </g>
    <g
       text-rendering="geometricPrecision"
       id="g10">
      <path
         d="M139.6262 135.9257 L139.6262 135.9257 L200.2496 100.9247 C200.9542 100.5179 201.8551 100.7593 202.2619 101.4639 C202.6687 102.1685 202.4273 103.0694 201.7227 103.4762 L201.7227 103.4762 L141.0993 138.4772 C140.3947 138.8839 139.4938 138.6425 139.087 137.938 C138.6802 137.2334 138.9216 136.3325 139.6262 135.9257 Z"
         stroke="none"
         clip-path="url(#754037475165-clipPath1)"
         id="path10" />
    </g>
    <g
       text-rendering="geometricPrecision"
       id="g11">
      <path
         d="M201.7227 100.9247 L201.7227 100.9247 L262.3462 135.9257 C263.0508 136.3325 263.2922 137.2334 262.8854 137.938 C262.4786 138.6425 261.5777 138.8839 260.8731 138.4772 L260.8731 138.4772 L200.2496 103.4762 C199.545 103.0694 199.3036 102.1685 199.7104 101.4639 C200.1172 100.7593 201.0182 100.5179 201.7227 100.9247 Z"
         stroke="none"
         clip-path="url(#754037475165-clipPath1)"
         id="path11" />
    </g>
    <g
       text-rendering="geometricPrecision"
       id="g12">
      <path
         d="M260.8731 135.9257 L260.8731 135.9257 L321.4966 100.9247 C322.2011 100.5179 323.1021 100.7593 323.5089 101.4639 C323.9156 102.1685 323.6742 103.0694 322.9697 103.4762 L322.9697 103.4762 L262.3462 138.4772 C261.6416 138.8839 260.7407 138.6425 260.3339 137.938 C259.9271 137.2334 260.1685 136.3325 260.8731 135.9257 Z"
         stroke="none"
         clip-path="url(#754037475165-clipPath1)"
         id="path12" />
    </g>
    <g
       text-rendering="geometricPrecision"
       id="g13">
      <path
         d="M322.9697 100.9247 L322.9697 100.9247 L383.5931 135.9257 C384.2977 136.3325 384.5391 137.2334 384.1323 137.938 C383.7255 138.6425 382.8246 138.8839 382.12 138.4772 L382.12 138.4772 L321.4966 103.4762 C320.792 103.0694 320.5506 102.1685 320.9574 101.4639 C321.3641 100.7593 322.2651 100.5179 322.9697 100.9247 Z"
         stroke="none"
         clip-path="url(#754037475165-clipPath1)"
         id="path13" />
    </g>
    <g
       text-rendering="geometricPrecision"
       id="g14">
      <path
         d="M382.12 135.9257 L382.12 135.9257 L442.7435 100.9247 C443.4481 100.5179 444.349 100.7593 444.7558 101.4639 C445.1626 102.1685 444.9211 103.0694 444.2166 103.4762 L444.2166 103.4762 L383.5931 138.4772 C382.8885 138.8839 381.9876 138.6425 381.5808 137.938 C381.174 137.2334 381.4154 136.3325 382.12 135.9257 Z"
         stroke="none"
         clip-path="url(#754037475165-clipPath1)"
         id="path14" />
    </g>
    <g
       text-rendering="geometricPrecision"
       id="g15">
      <path
         d="M444.2166 100.9247 L444.2166 100.9247 L504.8401 135.9257 C505.5446 136.3325 505.786 137.2334 505.3792 137.938 C504.9724 138.6425 504.0715 138.8839 503.3669 138.4772 L503.3669 138.4772 L442.7435 103.4762 C442.0389 103.0694 441.7975 102.1685 442.2043 101.4639 C442.6111 100.7593 443.512 100.5179 444.2166 100.9247 Z"
         stroke="none"
         clip-path="url(#754037475165-clipPath1)"
         id="path15" />
    </g>
    <g
       text-rendering="geometricPrecision"
       id="g16">
      <path
         d="M503.3669 135.9257 L503.3669 135.9257 L563.9904 100.9247 C564.6949 100.5179 565.5959 100.7593 566.0027 101.4639 C566.4095 102.1685 566.1681 103.0694 565.4635 103.4762 L565.4635 103.4762 L504.8401 138.4772 C504.1355 138.8839 503.2345 138.6425 502.8278 137.938 C502.421 137.2334 502.6624 136.3325 503.3669 135.9257 Z"
         stroke="none"
         clip-path="url(#754037475165-clipPath1)"
         id="path16" />
    </g>
    <g
       text-rendering="geometricPrecision"
       id="g17">
      <path
         d="M565.4635 100.9247 L565.4635 100.9247 L626.087 135.9257 C626.7916 136.3325 627.033 137.2334 626.6262 137.938 C626.2194 138.6425 625.3184 138.8839 624.6139 138.4772 L624.6139 138.4772 L563.9904 103.4762 C563.2858 103.0694 563.0444 102.1685 563.4512 101.4639 C563.858 100.7593 564.7589 100.5179 565.4635 100.9247 Z"
         stroke="none"
         clip-path="url(#754037475165-clipPath1)"
         id="path17" />
    </g>
    <g
       text-rendering="geometricPrecision"
       id="g18">
      <path
         d="M624.6139 135.9257 L624.6139 135.9257 L685.2373 100.9247 C685.9419 100.5179 686.8428 100.7593 687.2496 101.4639 C687.6564 102.1685 687.415 103.0694 686.7104 103.4762 L686.7104 103.4762 L626.087 138.4772 C625.3824 138.8839 624.4814 138.6425 624.0746 137.938 C623.6679 137.2334 623.9093 136.3325 624.6139 135.9257 Z"
         stroke="none"
         clip-path="url(#754037475165-clipPath1)"
         id="path18" />
    </g>
    <g
       text-rendering="geometricPrecision"
       id="g19">
      <path
         d="M686.7104 100.9247 L686.7104 100.9247 L727.6772 124.5769 C728.3818 124.9837 728.6232 125.8846 728.2164 126.5892 C727.8096 127.2938 726.9087 127.5352 726.2041 127.1284 L726.2041 127.1284 L685.2373 103.4762 C684.5328 103.0694 684.2913 102.1685 684.6981 101.4639 C685.1049 100.7593 686.0059 100.5179 686.7104 100.9247 Z"
         stroke="none"
         clip-path="url(#754037475165-clipPath1)"
         id="path19" />
    </g>
    <g
       text-rendering="geometricPrecision"
       id="g20">
      <path
         d="M765.5175 124.5769 L765.5175 124.5769 L806.4843 100.9247 C807.1888 100.5179 808.0898 100.7593 808.4965 101.4639 C808.9033 102.1685 808.6619 103.0694 807.9573 103.4762 L807.9573 103.4762 L766.9905 127.1284 C766.286 127.5352 765.3851 127.2938 764.9783 126.5892 C764.5715 125.8846 764.8129 124.9837 765.5175 124.5769 Z"
         stroke="none"
         clip-path="url(#754037475165-clipPath1)"
         id="path20" />
    </g>
    <g
       text-rendering="geometricPrecision"
       id="g21">
      <path
         d="M807.9573 100.9247 L807.9573 100.9247 L868.5808 135.9257 C869.2854 136.3325 869.5268 137.2334 869.12 137.938 C868.7132 138.6425 867.8123 138.8839 867.1077 138.4772 L867.1077 138.4772 L806.4843 103.4762 C805.7797 103.0694 805.5383 102.1685 805.9451 101.4639 C806.3519 100.7593 807.2528 100.5179 807.9573 100.9247 Z"
         stroke="none"
         clip-path="url(#754037475165-clipPath1)"
         id="path21" />
    </g>
    <g
       text-rendering="geometricPrecision"
       id="g22">
      <path
         d="M867.1077 135.9257 L867.1077 135.9257 L927.7312 100.9247 C928.4357 100.5179 929.3367 100.7593 929.7435 101.4639 C930.1503 102.1685 929.9089 103.0694 929.2043 103.4762 L929.2043 103.4762 L868.5808 138.4772 C867.8762 138.8839 866.9753 138.6425 866.5685 137.938 C866.1617 137.2334 866.4031 136.3325 867.1077 135.9257 Z"
         stroke="none"
         clip-path="url(#754037475165-clipPath1)"
         id="path22" />
    </g>
    <g
       text-rendering="geometricPrecision"
       id="g23">
      <path
         d="M929.2043 100.9247 L929.2043 100.9247 L970.1711 124.5769 C970.8757 124.9837 971.1171 125.8846 970.7103 126.5892 C970.3035 127.2938 969.4025 127.5352 968.6979 127.1284 L968.6979 127.1284 L927.7312 103.4762 C927.0266 103.0694 926.7852 102.1685 927.192 101.4639 C927.5988 100.7593 928.4997 100.5179 929.2043 100.9247 Z"
         stroke="none"
         clip-path="url(#754037475165-clipPath1)"
         id="path23" />
    </g>
    <g
       text-rendering="geometricPrecision"
       id="g24">
      <path
         d="M1008.0113 124.5769 L1008.0113 124.5769 L1048.9781 100.9247 C1049.6826 100.5179 1050.5836 100.7593 1050.9904 101.4639 C1051.3972 102.1685 1051.1558 103.0694 1050.4512 103.4762 L1050.4512 103.4762 L1009.4844 127.1284 C1008.7798 127.5352 1007.8789 127.2938 1007.4721 126.5892 C1007.0653 125.8846 1007.3068 124.9837 1008.0113 124.5769 Z"
         stroke="none"
         clip-path="url(#754037475165-clipPath1)"
         id="path24" />
    </g>
    <g
       text-rendering="geometricPrecision"
       id="g25">
      <path
         d="M1050.4512 100.9247 L1050.4512 100.9247 L1111.0747 135.9257 C1111.7793 136.3325 1112.0206 137.2334 1111.6139 137.938 C1111.207 138.6425 1110.3062 138.8839 1109.6016 138.4772 L1109.6016 138.4772 L1048.9781 103.4762 C1048.2736 103.0694 1048.0321 102.1685 1048.439 101.4639 C1048.8457 100.7593 1049.7466 100.5179 1050.4512 100.9247 Z"
         stroke="none"
         clip-path="url(#754037475165-clipPath1)"
         id="path25" />
    </g>
    <g
       text-rendering="geometricPrecision"
       id="g26">
      <path
         d="M678.137 105.8746 C678.137 106.6882 678.7965 107.3477 679.61 107.3477 C680.4236 107.3477 681.0832 106.6882 681.0832 105.8746 L681.0832 61.0746 C681.0832 60.261 680.4236 59.6015 679.61 59.6015 C678.7965 59.6015 678.137 60.261 678.137 61.0746 ZM690.8646 105.8746 C690.8646 106.6882 691.5241 107.3477 692.3377 107.3477 C693.1512 107.3477 693.8108 106.6882 693.8108 105.8746 L693.8108 61.0746 C693.8108 60.261 693.1512 59.6015 692.3377 59.6015 C691.5241 59.6015 690.8646 60.261 690.8646 61.0746 Z"
         stroke="none"
         clip-path="url(#754037475165-clipPath1)"
         id="path26" />
    </g>
    <g
       text-rendering="geometricPrecision"
       id="g27">
      <path
         d="M974.2333 158.9845 L974.2333 158.9845 L947.6454 193.6345 C947.1501 194.2799 946.2254 194.4017 945.58 193.9064 C944.9345 193.4111 944.8127 192.4864 945.308 191.8409 L945.308 191.8409 L971.8959 157.1909 C972.3912 156.5455 973.3159 156.4237 973.9614 156.919 C974.6068 157.4143 974.7285 158.339 974.2333 158.9845 Z"
         stroke="none"
         clip-path="url(#754037475165-clipPath1)"
         id="path27" />
    </g>
    <g
       text-rendering="geometricPrecision"
       id="g28">
      <path
         d="M1006.2865 157.1909 L1006.2865 157.1909 L1032.8744 191.8409 C1033.3696 192.4864 1033.2479 193.4111 1032.6024 193.9064 C1031.957 194.4017 1031.0322 194.2799 1030.537 193.6345 L1030.537 193.6345 L1003.9491 158.9845 C1003.4539 158.339 1003.5756 157.4143 1004.221 156.919 C1004.8665 156.4237 1005.7912 156.5455 1006.2865 157.1909 Z"
         stroke="none"
         clip-path="url(#754037475165-clipPath1)"
         id="path28" />
    </g>
    <g
       text-rendering="geometricPrecision"
       id="g29">
      <path
         d="M1109.6016 135.9257 L1109.6016 135.9257 L1147.6135 113.9795 C1148.3181 113.5727 1149.219 113.8141 1149.6259 114.5187 C1150.0326 115.2232 1149.7911 116.1242 1149.0867 116.531 L1149.0867 116.531 L1111.0747 138.4772 C1110.3701 138.8839 1109.4691 138.6425 1109.0624 137.938 C1108.6556 137.2334 1108.897 136.3325 1109.6016 135.9257 Z"
         stroke="none"
         clip-path="url(#754037475165-clipPath1)"
         id="path29" />
    </g>
    <g
       text-rendering="geometricPrecision"
       id="g30">
      <path
         d="M1118.175 133.5273 C1118.175 132.7137 1117.5155 132.0542 1116.7019 132.0542 C1115.8883 132.0542 1115.2289 132.7137 1115.2289 133.5273 L1115.2289 178.9254 C1115.2289 179.739 1115.8883 180.3985 1116.7019 180.3985 C1117.5155 180.3985 1118.175 179.739 1118.175 178.9254 ZM1105.4474 133.5273 C1105.4474 132.7137 1104.7878 132.0542 1103.9742 132.0542 C1103.1608 132.0542 1102.5012 132.7137 1102.5012 133.5273 L1102.5012 178.9254 C1102.5012 179.739 1103.1608 180.3985 1103.9742 180.3985 C1104.7878 180.3985 1105.4474 179.739 1105.4474 178.9254 Z"
         stroke="none"
         clip-path="url(#754037475165-clipPath1)"
         id="path30" />
    </g>
    <g
       text-rendering="geometricPrecision"
       font-size="48px"
       font-family="'Arial'"
       transform="translate(729.2802,109.2014)"
       id="g31">
      <path
         d="M 3.65625,45 V 10.640625 H 8.3203125 L 26.367187,37.617187 V 10.640625 h 4.359375 V 45 H 26.0625 L 8.015625,18 v 27 z"
         id="text30"
         clip-path="url(#754037475891-clipPath1)"
         style="stroke:none"
         aria-label="N" />
    </g>
    <g
       text-rendering="geometricPrecision"
       font-size="48px"
       font-family="'Arial'"
       transform="translate(729.2802,157.8139)"
       id="g32">
      <path
         d="M 3.84375,45 V 10.640625 H 8.390625 V 24.75 H 26.25 V 10.640625 h 4.546875 V 45 H 26.25 V 28.804687 H 8.390625 V 45 Z"
         id="text31"
         clip-path="url(#754037475551-clipPath1)"
         style="stroke:none"
         aria-label="H" />
    </g>
    <g
       text-rendering="geometricPrecision"
       font-size="48px"
       font-family="'Arial'"
       transform="translate(971.7741,109.2014)"
       id="g33">
      <path
         d="M 3.65625,45 V 10.640625 H 8.3203125 L 26.367187,37.617187 V 10.640625 h 4.359375 V 45 H 26.0625 L 8.015625,18 v 27 z"
         id="text32"
         clip-path="url(#754037475186-clipPath1)"
         style="stroke:none"
         aria-label="N" />
    </g>
    <g
       font-family="'Arial'"
       font-size="48px"
       text-rendering="geometricPrecision"
       id="g34">
      <path
         d="M996.7326 95.3194 L996.7326 102.7907 L989.2612 102.7907 L989.2612 105.2812 L996.7326 105.2812 L996.7326 112.7526 L999.2231 112.7526 L999.2231 105.2812 L1006.6945 105.2812 L1006.6945 102.7907 L999.2231 102.7907 L999.2231 95.3194 ZM1011.6754 90.3385 L1011.6754 117.7335 L984.2803 117.7335 L984.2803 90.3385 ZM984.2803 90.3385 L984.2803 90.3385 L984.2803 117.7335 L984.2803 117.7335 L1011.6754 117.7335 L1011.6754 117.7335 L1011.6754 90.3385 L1011.6754 90.3385 Z"
         stroke="none"
         clip-path="url(#754037475165-clipPath1)"
         id="path33" />
      <path
         d="m 2.3203125,28.265625 q 0,-8.554688 4.59375,-13.382812 4.5937505,-4.851563 11.8593745,-4.851563 4.757813,0 8.578125,2.273438 3.820313,2.273437 5.8125,6.351562 2.015625,4.054687 2.015625,9.210937 0,5.226563 -2.109375,9.351563 -2.109375,4.125 -5.976562,6.257812 -3.867188,2.109375 -8.34375,2.109375 -4.851562,0 -8.671875,-2.34375 -3.8203125,-2.34375 -5.7890625,-6.398437 -1.96875,-4.054688 -1.96875,-8.578125 z m 4.6875,0.07031 q 0,6.210938 3.3281255,9.796875 3.351562,3.5625 8.390624,3.5625 5.132813,0 8.4375,-3.609375 3.328125,-3.609375 3.328125,-10.242187 0,-4.195313 -1.429687,-7.3125 -1.40625,-3.140625 -4.148438,-4.851562 -2.71875,-1.734375 -6.117187,-1.734375 -4.828125,0 -8.320312,3.328124 -3.4687505,3.304688 -3.4687505,11.0625 z"
         id="text33"
         clip-path="url(#75403747517-clipPath1)"
         style="stroke:none"
         transform="translate(667.7019,4.1985)"
         aria-label="O" />
    </g>
    <g
       text-rendering="geometricPrecision"
       font-size="48px"
       font-family="'Arial'"
       transform="translate(1152.6896,74.2004)"
       id="g35">
      <path
         d="m 2.3203125,28.265625 q 0,-8.554688 4.59375,-13.382812 4.5937505,-4.851563 11.8593745,-4.851563 4.757813,0 8.578125,2.273438 3.820313,2.273437 5.8125,6.351562 2.015625,4.054687 2.015625,9.210937 0,5.226563 -2.109375,9.351563 -2.109375,4.125 -5.976562,6.257812 -3.867188,2.109375 -8.34375,2.109375 -4.851562,0 -8.671875,-2.34375 -3.8203125,-2.34375 -5.7890625,-6.398437 -1.96875,-4.054688 -1.96875,-8.578125 z m 4.6875,0.07031 q 0,6.210938 3.3281255,9.796875 3.351562,3.5625 8.390624,3.5625 5.132813,0 8.4375,-3.609375 3.328125,-3.609375 3.328125,-10.242187 0,-4.195313 -1.429687,-7.3125 -1.40625,-3.140625 -4.148438,-4.851562 -2.71875,-1.734375 -6.117187,-1.734375 -4.828125,0 -8.320312,3.328124 -3.4687505,3.304688 -3.4687505,11.0625 z"
         id="text34"
         clip-path="url(#754037475663-clipPath1)"
         style="stroke:none"
         aria-label="O" />
    </g>
    <g
       font-family="'Arial'"
       font-size="48px"
       text-rendering="geometricPrecision"
       id="g36">
      <path
         d="M1189.3354 85.6136 L1189.3354 88.1041 L1206.7686 88.1041 L1206.7686 85.6136 ZM1211.7495 73.1614 L1211.7495 100.5563 L1184.3545 100.5563 L1184.3545 73.1614 ZM1184.3545 73.1613 L1184.3545 73.1614 L1184.3545 100.5564 L1184.3545 100.5564 L1211.7495 100.5564 L1211.7495 100.5564 L1211.7495 73.1614 L1211.7495 73.1613 Z"
         stroke="none"
         clip-path="url(#754037475165-clipPath1)"
         id="path35" />
      <path
         d="m 2.3203125,28.265625 q 0,-8.554688 4.59375,-13.382812 4.5937505,-4.851563 11.8593745,-4.851563 4.757813,0 8.578125,2.273438 3.820313,2.273437 5.8125,6.351562 2.015625,4.054687 2.015625,9.210937 0,5.226563 -2.109375,9.351563 -2.109375,4.125 -5.976562,6.257812 -3.867188,2.109375 -8.34375,2.109375 -4.851562,0 -8.671875,-2.34375 -3.8203125,-2.34375 -5.7890625,-6.398437 -1.96875,-4.054688 -1.96875,-8.578125 z m 4.6875,0.07031 q 0,6.210938 3.3281255,9.796875 3.351562,3.5625 8.390624,3.5625 5.132813,0 8.4375,-3.609375 3.328125,-3.609375 3.328125,-10.242187 0,-4.195313 -1.429687,-7.3125 -1.40625,-3.140625 -4.148438,-4.851562 -2.71875,-1.734375 -6.117187,-1.734375 -4.828125,0 -8.320312,3.328124 -3.4687505,3.304688 -3.4687505,11.0625 z"
         id="text35"
         clip-path="url(#754037475504-clipPath1)"
         style="stroke:none"
         transform="translate(1092.0661,179.2034)"
         aria-label="O" />
    </g>
  </g>
</svg>
