<?xml version="1.0" encoding="UTF-8" standalone="no"?>
<!-- Created with Inkscape (http://www.inkscape.org/) -->

<svg
   version="1.1"
   id="svg1"
   width="896.5097"
   height="1000"
   viewBox="0 0 896.5097 1000"
   sodipodi:docname="boricacid.svg"
   inkscape:version="1.4.2 (f4327f4, 2025-05-13)"
   xmlns:inkscape="http://www.inkscape.org/namespaces/inkscape"
   xmlns:sodipodi="http://sodipodi.sourceforge.net/DTD/sodipodi-0.dtd"
   xmlns="http://www.w3.org/2000/svg"
   xmlns:svg="http://www.w3.org/2000/svg">
  <defs
     id="defs1" />
  <sodipodi:namedview
     id="namedview1"
     pagecolor="#ffffff"
     bordercolor="#000000"
     borderopacity="0.25"
     inkscape:showpageshadow="2"
     inkscape:pageopacity="0.0"
     inkscape:pagecheckerboard="0"
     inkscape:deskcolor="#d1d1d1"
     inkscape:zoom="0.39818182"
     inkscape:cx="1003.3105"
     inkscape:cy="459.58904"
     inkscape:window-width="1920"
     inkscape:window-height="1111"
     inkscape:window-x="-9"
     inkscape:window-y="-9"
     inkscape:window-maximized="1"
     inkscape:current-layer="g1" />
  <g
     inkscape:groupmode="layer"
     inkscape:label="Image"
     id="g1"
     transform="translate(632.61475,-97.716895)">
    <path
       style="fill:#000000"
       d="m -623.10502,1039.7169 v -58.00001 h 7.5 7.5 v 24.00001 24 h 30.5 30.5 v -24 -24.00001 h 7.5 7.5 v 58.00001 58 h -7.48393 -7.48393 l -0.26607,-27.25 -0.26607,-27.25 h -30 -30 l -0.26607,27.25 -0.26608,27.25 h -7.48392 -7.48393 z m 40,-128.50001 v -54.5 h 5.5 5.5 v 54.5 54.5 h -5.5 -5.5 z m -7.63805,-71.92692 c -18.95907,-4.32984 -33.90524,-18.93066 -39.99725,-39.07308 -2.51086,-8.30184 -2.49637,-29.33934 0.0265,-38.5 5.28668,-19.19603 16.96456,-32.1709 34.34256,-38.15678 9.67123,-3.33127 26.82789,-3.34314 36.45666,-0.0252 23.58814,8.12809 36.84636,28.84751 36.7922,57.49738 -0.0656,34.68648 -20.4738,57.95345 -51.98264,59.26428 -5.97059,0.24838 -11.78039,-0.12558 -15.63804,-1.00658 z m 28.88881,-15.31811 c 6.42626,-2.89904 14.80931,-11.04361 18.13736,-17.62139 7.09875,-14.03042 6.95052,-37.28732 -0.32839,-51.52562 -3.33334,-6.52035 -10.57101,-13.7185 -16.93334,-16.84088 -5.10593,-2.50578 -6.64394,-2.76147 -16.62639,-2.76414 -10.23305,-0.003 -11.4532,0.21282 -17.5,3.09161 -16.37706,7.79686 -22.68009,21.25342 -21.83423,46.61465 0.3734,11.1959 0.68611,12.88083 3.51028,18.91418 4.96424,10.60522 12.42129,17.53755 23.16813,21.53786 5.70441,2.12337 22.41641,1.29604 28.40658,-1.40627 z m 543.249238,15.72844 c -25.46624,-5.07708 -41.92146,-25.81316 -43.23557,-54.48341 -0.97194,-21.20513 4.34171,-37.25391 16.30297,-49.23978 21.55354,-21.59787 61.61934,-19.82248 79.95817,3.54309 9.63943,12.28163 12.9558,23.13875 12.88919,42.19669 -0.042,12.02588 -0.3446,14.36156 -2.77095,21.39015 -3.63056,10.51691 -6.9373,16.00667 -13.61898,22.60985 -11.8251,11.68615 -32.1965505,17.43806 -49.52483,13.98341 z M 9.7351875,823.34821 c 15.3374805,-7.91669 22.2463505,-21.15635 22.2463505,-42.63132 0,-21.47807 -6.92338,-34.74219 -22.2463505,-42.62058 -4.36741,-2.24553 -7.01192,-2.82457 -14.51706,-3.17864 -11.3954395,-0.53761 -18.1517595,1.3627 -26.3794795,7.4196 -9.05071,6.66276 -13.15218,15.05595 -15.09914,30.8987 -2.06475,16.80124 1.61513,31.44604 10.28536,40.93267 9.21922,10.08729 15.61404,12.66235 30.3701095,12.22941 8.61749,-0.25284 10.73829,-0.67448 15.34021,-3.04984 z M -513.9825,743.7211 c -2.49502,-4.43929 -2.31069,-5.25246 1.64736,-7.26738 1.50157,-0.7644 22.30512,-12.78611 46.23012,-26.71493 23.925,-13.92881 45.3,-26.33485 47.5,-27.56897 2.2,-1.23413 11.875,-6.86567 21.5,-12.51454 21.77584,-12.78015 32.62098,-18.93839 33.35199,-18.93839 0.71736,0 6.01797,8.99572 5.5195,9.36721 -0.34694,0.25856 -4.57917,2.68813 -12.87149,7.38905 -5.98671,3.39388 -43.04086,24.67656 -52.3935,30.0931 -4.89142,2.83285 -9.00832,5.15064 -9.14866,5.15064 -0.14035,0 -5.95662,3.375 -12.92504,7.5 -6.96843,4.125 -12.79946,7.5 -12.95784,7.5 -0.43651,0 -16.50107,9.29699 -21.30867,12.3319 -2.3246,1.46745 -4.39592,2.6681 -4.60292,2.6681 -0.32684,0 -6.14747,3.32137 -22.16337,12.64685 -2.2,1.28098 -4.25464,2.33448 -4.56586,2.3411 -0.31122,0.007 -1.57645,-1.78606 -2.81162,-3.98374 z m 570.999998,0 c -1.23517,-2.19768 -2.00548,-4.38457 -1.71181,-4.85973 0.29367,-0.47517 4.7089,-3.25654 9.81162,-6.18082 5.10272,-2.92429 21.65267,-12.50755 36.777672,-21.29615 15.125,-8.78859 29.525,-17.09845 32,-18.46634 2.475,-1.3679 5.69447,-3.32275 7.15437,-4.34412 1.4599,-1.02138 3.03818,-1.85705 3.50728,-1.85705 0.4691,0 2.03578,1.95831 3.4815,4.35181 l 2.62859,4.35181 -2.88919,1.70669 c -9.76587,5.76884 -32.20067,18.58969 -32.52951,18.58969 -0.21603,0 -2.29473,1.20065 -4.61933,2.6681 -4.73206,2.98722 -20.869212,12.3319 -21.295722,12.3319 -0.15127,0 -4.92419,2.74658 -10.60651,6.10352 -11.16325,6.5949 -18.73601,10.89648 -19.18282,10.89648 -0.15421,0 -1.29097,-1.79811 -2.52614,-3.99579 z m -143.46833,-4.0199 c -6.51519,-3.84137 -11.98209,-6.98431 -12.14867,-6.98431 -0.16657,0 -6.004298,-3.375 -12.972718,-7.5 -6.96843,-4.125 -12.83319,-7.5 -13.0328,-7.5 -0.19961,0 -6.06437,-3.375 -13.0328,-7.5 -6.96842,-4.125 -12.78469,-7.5 -12.92504,-7.5 -0.14034,0 -4.14474,-2.25 -8.89866,-5 -4.75393,-2.75 -12.53307,-7.25 -17.287,-10 -4.75392,-2.75 -8.82554,-5 -9.04803,-5 -0.2225,0 -2.86666,-1.575 -5.87592,-3.5 -3.00926,-1.925 -5.67972,-3.5 -5.93435,-3.5 -0.25464,0 -3.40383,-1.8 -6.9982,-4 -3.59437,-2.2 -6.77392,-4 -7.06565,-4 -0.29173,0 -2.99254,-1.575 -6.0018,-3.5 -3.00926,-1.925 -5.69659,-3.5 -5.97184,-3.5 -0.27525,0 -2.29128,-1.1305 -4.48006,-2.51221 l -3.9796,-2.51222 2.24947,-4.46032 c 1.23722,-2.45318 2.59774,-4.47268 3.0234,-4.48779 0.77697,-0.0276 9.18229,4.76475 48.37464,27.58093 11.63171,6.77151 22.73986,13.20561 24.68479,14.29801 1.94492,1.09239 5.35663,3.13535 7.58156,4.53989 2.22494,1.40454 4.22446,2.55371 4.44337,2.55371 0.21891,0 13.10768,7.425 28.64172,16.5 15.534038,9.075 28.386778,16.5 28.561638,16.5 0.17487,0 3.91426,2.16184 8.30974,4.80408 l 7.99179,4.80408 -2.18158,3.86818 c -1.19988,2.1275 -2.63159,4.0086 -3.18159,4.18022 -0.55,0.17163 -6.33061,-2.83089 -12.84581,-6.67225 z M 172.89498,650.71689 v -58 h 7.5 7.5 v 24 24 h 29.9819 29.9819 l 0.2681,-23.75 0.2681,-23.75 7.75,-0.29206 7.75,-0.29207 v 58.04207 58.04206 h -8 -8 v -27 -27 h -30 -30 v 27 27 h -7.5 -7.5 z m -509,-35 v -58 l 24.75,0.008 c 34.15054,0.0104 41.99901,1.60981 50.40506,10.27167 11.61487,11.96832 9.78726,31.60916 -3.77733,40.59397 l -4.37115,2.89533 5.46115,2.67189 c 15.05031,7.36343 20.3891,23.98703 12.99505,40.46317 -4.49675,10.02011 -12.37627,15.68504 -25.08432,18.03425 -3.16018,0.58375 -18.03813,1.06172 -33.06212,1.06172 h -27.31634 z m 61.4634,42.66315 c 7.65895,-3.36129 11.5366,-9.29559 11.5366,-17.65543 0,-6.64176 -1.89963,-10.95509 -6.49176,-14.74032 -5.51291,-4.5442 -9.98826,-5.40037 -31.25824,-5.97993 l -19.25,-0.52452 v 20.71957 20.71957 l 20.75,-0.39976 c 16.90237,-0.32563 21.48493,-0.7223 24.7134,-2.13918 z m -2.98017,-54.6717 c 6.25077,-3.12518 8.80248,-7.28557 8.80248,-14.35185 0,-8.45681 -4.30624,-14.49951 -11.78571,-16.53817 -2.2,-0.59965 -11.9875,-1.09279 -21.75,-1.09585 l -17.75,-0.006 v 17.60783 17.60782 l 18.75,-0.36638 c 17.5953,-0.34382 19.05689,-0.51981 23.73323,-2.85782 z m -20.48323,-151.99145 v -90 h 5.5 5.5 v 90 90 h -5.5 -5.5 z m -7,-107.5666 c -20.24615,-4.38438 -34.83412,-19.25307 -40.65115,-41.4334 -3.81153,-14.53336 -1.242,-36.91575 5.74232,-50.01968 6.83872,-12.83075 21.08611,-23.21835 35.72443,-26.04626 8.40578,-1.62387 22.97848,-0.66007 30.6844,2.0294 16.95974,5.91917 29.54916,20.51968 34.09072,39.53654 2.18733,9.159 2.19697,25.80567 0.0202,34.89955 -7.2713,30.37741 -34.93289,47.67729 -65.61093,41.03385 z m 29.25091,-15.76773 c 14.76059,-7.22168 22.72345,-22.00182 22.71695,-42.16567 -0.008,-26.02246 -12.15496,-43.07078 -33.08899,-46.4421 -13.05761,-2.10287 -26.8117,2.62457 -35.38771,12.16315 -7.64839,8.50685 -11.15558,21.82718 -10.21037,38.77895 1.09616,19.65873 10.39794,33.61923 26.14239,39.23559 7.97226,2.84386 22.35337,2.08695 29.82773,-1.56992 z m -90.75091,-80.37518 c -3.3,-1.94184 -8.025,-4.67524 -10.5,-6.07422 -2.475,-1.39899 -8.92936,-5.16996 -14.34303,-8.37994 -5.41367,-3.20998 -9.9616,-5.83633 -10.10651,-5.83633 -0.14491,0 -4.26554,-2.31815 -9.15696,-5.15144 -22.18353,-12.84953 -36.00193,-20.8944 -37.25085,-21.6869 -1.0902,-0.6918 -0.84173,-1.6781 1.26255,-5.01149 1.44094,-2.28259 2.95174,-4.14901 3.35734,-4.1476 0.40561,0.001 3.3475,1.57641 6.53754,3.5 3.19004,1.92359 5.99381,3.49743 6.23058,3.49743 0.23678,0 2.89263,1.575 5.90189,3.5 3.00926,1.925 5.71007,3.5 6.0018,3.5 0.29173,0 3.47128,1.8 7.06565,4 3.59437,2.2 6.77392,4 7.06565,4 0.29173,0 2.99254,1.575 6.0018,3.5 3.00926,1.925 5.68089,3.5 5.93694,3.5 0.25606,0 2.60982,1.28049 5.23059,2.84553 2.62076,1.56505 11.17752,6.55663 19.01502,11.09242 7.8375,4.53578 14.25,8.43924 14.25,8.67434 0,1.03623 -5.09886,8.37876 -5.76254,8.29826 -0.40561,-0.0492 -3.43746,-1.67823 -6.73746,-3.62006 z m -195.5,-92.29049 V 97.716895 h 7.5 7.5 v 23.999995 24 h 30.5 30.5 v -24 -23.999995 h 7.5 7.5 v 57.999995 58 h -7.5 -7.5 v -27 -27 h -30.5 -30.5 v 27 27 h -7.5 -7.5 z"
       id="path1" />
  </g>
</svg>
