<?xml version="1.0" encoding="UTF-8" standalone="no"?>
<!-- Created with Inkscape (http://www.inkscape.org/) -->

<svg
   version="1.1"
   id="svg1"
   width="398.12891"
   height="56.023319"
   viewBox="0 0 398.12891 56.023321"
   sodipodi:docname="brij.svg"
   inkscape:version="1.4.2 (f4327f4, 2025-05-13)"
   xmlns:inkscape="http://www.inkscape.org/namespaces/inkscape"
   xmlns:sodipodi="http://sodipodi.sourceforge.net/DTD/sodipodi-0.dtd"
   xmlns="http://www.w3.org/2000/svg"
   xmlns:svg="http://www.w3.org/2000/svg">
  <defs
     id="defs1" />
  <sodipodi:namedview
     id="namedview1"
     pagecolor="#ffffff"
     bordercolor="#000000"
     borderopacity="0.25"
     inkscape:showpageshadow="2"
     inkscape:pageopacity="0.0"
     inkscape:pagecheckerboard="0"
     inkscape:deskcolor="#d1d1d1"
     inkscape:zoom="0.75808864"
     inkscape:cx="310.64969"
     inkscape:cy="330.43629"
     inkscape:window-width="1920"
     inkscape:window-height="1111"
     inkscape:window-x="-9"
     inkscape:window-y="-9"
     inkscape:window-maximized="1"
     inkscape:current-layer="g1">
    <inkscape:page
       x="0"
       y="0"
       inkscape:label="1"
       id="page1"
       width="398.12891"
       height="56.023319"
       margin="0"
       bleed="0" />
  </sodipodi:namedview>
  <g
     id="g1"
     inkscape:groupmode="layer"
     inkscape:label="1"
     transform="translate(-86.082031,-230.38293)">
    <g
       id="g17">
      <path
         id="path1"
         d="m 14.110078,-6.0221484 2.273438,0.5742187 c -0.477539,1.8691406 -1.335938,3.2929688 -2.578125,4.2773438 -1.236328,0.97851559 -2.748047,1.46484371 -4.5351566,1.46484371 -1.8515625,0 -3.3603516,-0.375 -4.5234375,-1.125 C 3.5895703,-1.5866016 2.7077344,-2.6823047 2.0983594,-4.1119922 1.4948438,-5.5416797 1.1960156,-7.0768359 1.1960156,-8.7174609 c 0,-1.7871091 0.3398438,-3.3457031 1.0195313,-4.6757811 0.6855469,-1.335938 1.6582031,-2.34668 2.9179687,-3.035156 1.265625,-0.694336 2.6542969,-1.042969 4.171875,-1.042969 1.7167974,0 3.1640624,0.439453 4.3359374,1.3125 1.171875,0.875976 1.986328,2.106445 2.449219,3.691406 l -2.238281,0.527344 c -0.398438,-1.248047 -0.978516,-2.15918 -1.734375,-2.730469 -0.758789,-0.568359 -1.710938,-0.855469 -2.8593754,-0.855469 -1.321289,0 -2.4257812,0.316407 -3.3164062,0.949219 -0.8847656,0.632813 -1.5058594,1.485352 -1.8632813,2.554688 -0.3603515,1.063476 -0.5390625,2.1621089 -0.5390625,3.2929683 0,1.4619141 0.2109375,2.7392578 0.6328125,3.8320313 0.4277344,1.086914 1.0927735,1.8984375 1.9921875,2.4375 0.8964844,0.5390625 1.8691407,0.8085937 2.9179688,0.8085937 1.2714846,0 2.3496096,-0.3662109 3.2343746,-1.1015625 0.881836,-0.7324219 1.479493,-1.8222656 1.792969,-3.2695312 z m 0,0"
         style="fill:#000000;fill-opacity:1;fill-rule:nonzero;stroke:none"
         aria-label="C"
         transform="matrix(1.3333333,0,0,1.3333333,120.96,277.76)" />
      <path
         id="path2"
         d="M 1.9215234,0.00128906 V -17.178398 h 2.2734375 v 7.054687 h 8.9296871 v -7.054687 h 2.273438 V 0.00128906 H 13.124648 V -8.0963672 H 4.1949609 v 8.09765626 z m 0,0"
         style="fill:#000000;fill-opacity:1;fill-rule:nonzero;stroke:none"
         aria-label="H"
         transform="matrix(1.3333333,0,0,1.3333333,83.52,277.76)" />
      <path
         id="path3"
         d="M 0.79605469,-3.5873438 2.4718359,-3.81 c 0.1875,0.9462891 0.5097657,1.6289062 0.9726563,2.0507812 0.4599609,0.4160157 1.0224609,0.6210938 1.6875,0.6210938 0.7792969,0 1.4414062,-0.2724609 1.9804687,-0.8203125 0.5449219,-0.5449219 0.8203125,-1.2216797 0.8203125,-2.0273438 0,-0.7646484 -0.2519531,-1.3945312 -0.75,-1.8867187 -0.5009765,-0.4980469 -1.1367187,-0.75 -1.9101562,-0.75 -0.3222656,0 -0.7148438,0.064453 -1.1835938,0.1875 l 0.1875,-1.4648438 c 0.1083985,0.00879 0.1992188,0.011719 0.2695313,0.011719 0.7089844,0 1.3476562,-0.1816406 1.9101562,-0.5507813 0.5683594,-0.375 0.8554688,-0.9492187 0.8554688,-1.7226569 0,-0.609375 -0.2080078,-1.113281 -0.6210938,-1.511718 -0.4160156,-0.404297 -0.946289,-0.609375 -1.59375,-0.609375 -0.65625,0 -1.2011718,0.208008 -1.6289062,0.621093 -0.4306641,0.407227 -0.7089844,1.016602 -0.8320313,1.8281257 L 0.96011719,-10.126406 c 0.20214841,-1.125 0.66796871,-1.992188 1.39453121,-2.601563 0.7265625,-0.615234 1.6230469,-0.925781 2.6953125,-0.925781 0.741211,0 1.4238282,0.161133 2.0507813,0.480469 0.6240234,0.313476 1.1015625,0.74707 1.4296875,1.300781 0.3339844,0.547852 0.5039062,1.130859 0.5039062,1.746094 0,0.5947263 -0.1611328,1.1337888 -0.4804687,1.6171872 -0.3134766,0.4775391 -0.7792969,0.8613282 -1.3945313,1.1484375 0.8027344,0.1816407 1.4296875,0.5625 1.875,1.1484375 0.4453125,0.5859375 0.6679688,1.3183594 0.6679688,2.1914063 0,1.1894531 -0.4335938,2.1972656 -1.3007813,3.0234375 -0.8671875,0.82910156 -1.9628906,1.2421875 -3.28125,1.2421875 -1.1953125,0 -2.1884765,-0.35449219 -2.9765625,-1.06640625 C 1.3526953,-1.5307031 0.90445313,-2.4535547 0.79605469,-3.5873438 Z m 0,0"
         style="fill:#000000;fill-opacity:1;fill-rule:nonzero;stroke:none"
         aria-label="3"
         transform="matrix(1.3333333,0,0,1.3333333,106.88,286.08)" />
      <path
         id="path4"
         d="m 1.15875,-8.3657812 c 0,-2.8505858 0.7646484,-5.0800778 2.296875,-6.6914058 1.5292969,-1.617188 3.5068359,-2.425782 5.9296875,-2.425782 1.5849605,0 3.0146485,0.38086 4.2890625,1.136719 1.271484,0.758789 2.241211,1.816406 2.90625,3.175781 0.670898,1.353516 1.007812,2.888672 1.007812,4.605469 0,1.7431641 -0.351562,3.3017578 -1.054687,4.6757813 -0.703125,1.3769531 -1.699219,2.4199218 -2.988281,3.1289062 -1.289063,0.703125 -2.680664,1.0546875 -4.1718753,1.0546875 -1.6171875,0 -3.0644531,-0.38964844 -4.3359375,-1.171875 C 3.7632422,-1.6567969 2.799375,-2.7232031 2.143125,-4.0767187 1.486875,-5.4273047 1.15875,-6.8569922 1.15875,-8.3657812 Z m 2.34375,0.035156 c 0,2.0712891 0.5537109,3.703125 1.6640625,4.8984375 1.1162109,1.1894531 2.5136719,1.78125 4.1953125,1.78125 1.710937,0 3.117187,-0.6005859 4.21875,-1.8046875 1.107422,-1.2011719 1.664062,-2.9091797 1.664062,-5.1210937 0,-1.397461 -0.240234,-2.6162111 -0.714843,-3.6562501 -0.46875,-1.045898 -1.160157,-1.854492 -2.074219,-2.425781 -0.908203,-0.577148 -1.927734,-0.867187 -3.0585938,-0.867187 -1.6113281,0 -2.9970703,0.55664 -4.1601562,1.664062 -1.1572266,1.101563 -1.734375,2.947266 -1.734375,5.5312498 z m 0,0"
         style="fill:#000000;fill-opacity:1;fill-rule:nonzero;stroke:none"
         aria-label="O"
         transform="matrix(1.3333333,0,0,1.3333333,254.08,281.92)" />
      <path
         id="path5"
         d="m 1.1614453,-8.3682422 c 0,-2.8505858 0.7646485,-5.0800778 2.296875,-6.6914058 1.5292969,-1.617188 3.506836,-2.425782 5.9296875,-2.425782 1.5849612,0 3.0146482,0.38086 4.2890622,1.136719 1.271485,0.758789 2.241211,1.816406 2.90625,3.175781 0.670899,1.353516 1.007813,2.888672 1.007813,4.6054691 0,1.743164 -0.351563,3.3017578 -1.054688,4.6757812 -0.703125,1.3769531 -1.699218,2.4199219 -2.988281,3.12890626 -1.289062,0.703125 -2.680664,1.0546875 -4.1718749,1.0546875 -1.6171875,0 -3.0644532,-0.38964843 -4.3359375,-1.171875 C 3.7659375,-1.6592578 2.8020703,-2.7256641 2.1458203,-4.0791797 1.4895703,-5.4297656 1.1614453,-6.8594531 1.1614453,-8.3682422 Z m 2.34375,0.035156 c 0,2.071289 0.553711,3.703125 1.6640625,4.8984375 1.116211,1.1894531 2.5136719,1.78125 4.1953125,1.78125 1.7109377,0 3.1171877,-0.600586 4.2187497,-1.8046875 1.107422,-1.2011719 1.664063,-2.9091797 1.664063,-5.1210938 0,-1.3974609 -0.240235,-2.616211 -0.714844,-3.65625 -0.46875,-1.045898 -1.160156,-1.854492 -2.074219,-2.425781 -0.908203,-0.577148 -1.927734,-0.867187 -3.0585934,-0.867187 -1.6113282,0 -2.9970703,0.55664 -4.1601563,1.664062 -1.1572265,1.101563 -1.734375,2.947266 -1.734375,5.5312498 z m 0,0"
         style="fill:#000000;fill-opacity:1;fill-rule:nonzero;stroke:none"
         aria-label="O"
         transform="matrix(1.3333333,0,0,1.3333333,437.76,258.56)" />
      <path
         id="path6"
         d="M 1.9216406,-0.00105469 V -17.180742 h 2.2734375 v 7.054687 h 8.9296879 v -7.054687 h 2.273437 V -0.00105469 H 13.124766 V -8.0987109 H 4.1950781 v 8.09765621 z m 0,0"
         style="fill:#000000;fill-opacity:1;fill-rule:nonzero;stroke:none"
         aria-label="H"
         transform="matrix(1.3333333,0,0,1.3333333,463.68,258.56)" />
      <path
         style="baseline-shift:baseline;display:inline;overflow:visible;opacity:1;vector-effect:none;stroke-linecap:round;stroke-linejoin:round;stroke-miterlimit:10;enable-background:accumulate;stop-color:#000000;stop-opacity:1"
         d="m 110.56836,647.56055 a 0.83999997,0.83999997 0 0 0 -0.46094,0.44726 0.83999997,0.83999997 0 0 0 0.44141,1.10352 l 35.51953,15.25 a 0.83999997,0.83999997 0 0 0 1.10351,-0.43946 0.83999997,0.83999997 0 0 0 -0.4414,-1.10351 l -35.51953,-15.25 a 0.83999997,0.83999997 0 0 0 -0.64258,-0.008 z"
         id="path7"
         transform="matrix(1.3333333,0,0,-1.3333333,0,1122.56)" />
      <path
         style="baseline-shift:baseline;display:inline;overflow:visible;opacity:1;vector-effect:none;stroke-linecap:round;stroke-linejoin:round;stroke-miterlimit:10;enable-background:accumulate;stop-color:#000000;stop-opacity:1"
         d="m 187.58594,644.87891 -41.51953,17.93945 a 0.83999997,0.83999997 0 0 0 -0.4375,1.10547 0.83999997,0.83999997 0 0 0 1.10351,0.4375 l 41.52149,-17.93946 a 0.83999997,0.83999997 0 0 0 0.4375,-1.10546 0.83999997,0.83999997 0 0 0 -1.10547,-0.4375 z"
         id="path8"
         transform="matrix(1.3333333,0,0,-1.3333333,0,1122.56)" />
      <path
         style="baseline-shift:baseline;display:inline;overflow:visible;opacity:1;vector-effect:none;stroke-linecap:round;stroke-linejoin:round;stroke-miterlimit:10;enable-background:accumulate;stop-color:#000000;stop-opacity:1"
         d="m 213.00195,645.41211 a 0.83999997,0.83999997 0 0 0 -1.12109,0.39648 0.83999997,0.83999997 0 0 0 0.39844,1.11914 l 30.33007,14.45118 a 0.83999997,0.83999997 0 0 0 1.11915,-0.39844 0.83999997,0.83999997 0 0 0 -0.39649,-1.11914 z"
         id="path9"
         transform="matrix(1.3333333,0,0,-1.3333333,0,1122.56)" />
      <path
         style="baseline-shift:baseline;display:inline;overflow:visible;opacity:1;vector-effect:none;stroke-linecap:round;stroke-linejoin:round;stroke-miterlimit:10;enable-background:accumulate;stop-color:#000000;stop-opacity:1"
         d="m 289.01562,636.70898 -46.41992,23.16016 a 0.83999997,0.83999997 0 0 0 -0.37695,1.125 0.83999997,0.83999997 0 0 0 1.12695,0.37695 l 46.41992,-23.16015 a 0.83999997,0.83999997 0 0 0 0.37696,-1.125 0.83999997,0.83999997 0 0 0 -1.12696,-0.37696 z"
         id="path10"
         transform="matrix(1.3333333,0,0,-1.3333333,0,1122.56)" />
      <path
         style="baseline-shift:baseline;display:inline;overflow:visible;opacity:1;vector-effect:none;stroke-linecap:round;stroke-linejoin:round;stroke-miterlimit:10;enable-background:accumulate;stop-color:#000000;stop-opacity:1"
         d="m 289.07031,636.68359 a 0.83999997,0.83999997 0 0 0 -0.45508,0.45313 0.83999997,0.83999997 0 0 0 0.45313,1.09961 l 36.28906,15.08008 a 0.83999997,0.83999997 0 0 0 1.09766,-0.45313 0.83999997,0.83999997 0 0 0 -0.45313,-1.09961 l -36.28906,-15.08008 a 0.83999997,0.83999997 0 0 0 -0.64258,0 z"
         id="path11"
         transform="matrix(1.3333333,0,0,-1.3333333,0,1122.56)" />
      <g
         id="path12"
         style="opacity:1"
         transform="matrix(1.3333333,0,0,-1.3333333,0,1122.56)">
        <path
           style="baseline-shift:baseline;display:inline;overflow:visible;vector-effect:none;fill-rule:evenodd;stroke-linecap:round;stroke-linejoin:round;stroke-miterlimit:10;enable-background:accumulate;stop-color:#000000;stop-opacity:1"
           d="m 123.6,669.12 h 3.12 v -0.24 h -2.4 V 638.4 h 2.4 v -0.24 h -3.12 z"
           id="path18" />
        <path
           style="baseline-shift:baseline;display:inline;overflow:visible;vector-effect:none;fill-rule:evenodd;stroke-linecap:round;stroke-linejoin:round;stroke-miterlimit:10;enable-background:accumulate;stop-color:#000000;stop-opacity:1"
           d="m 123.59961,638.14844 a 0.0120012,0.0120012 0 0 0 -0.0117,0.0117 v 30.95898 a 0.0120012,0.0120012 0 0 0 0.0117,0.0137 h 3.12109 a 0.0120012,0.0120012 0 0 0 0.0117,-0.0137 v -0.23828 a 0.0120012,0.0120012 0 0 0 -0.0117,-0.0137 h -2.38867 v -30.45508 h 2.38867 a 0.0120012,0.0120012 0 0 0 0.0117,-0.0117 v -0.24023 a 0.0120012,0.0120012 0 0 0 -0.0117,-0.0117 z m 0.0117,0.0234 h 3.0957 v 0.2168 h -2.38672 a 0.0120012,0.0120012 0 0 0 -0.0117,0.0117 v 30.48047 a 0.0120012,0.0120012 0 0 0 0.0117,0.0117 h 2.38672 v 0.21484 h -3.0957 z"
           id="path19" />
      </g>
      <g
         id="path13"
         style="opacity:1"
         transform="matrix(1.3333333,0,0,-1.3333333,0,1122.56)">
        <path
           style="baseline-shift:baseline;display:inline;overflow:visible;vector-effect:none;fill-rule:evenodd;stroke-linecap:round;stroke-linejoin:round;stroke-miterlimit:10;enable-background:accumulate;stop-color:#000000;stop-opacity:1"
           d="m 166.32,636.48 h -3.12 v 0.24 h 2.4 v 30.72 h -2.4 v 0.24 h 3.12 z"
           id="path20" />
        <path
           style="baseline-shift:baseline;display:inline;overflow:visible;vector-effect:none;fill-rule:evenodd;stroke-linecap:round;stroke-linejoin:round;stroke-miterlimit:10;enable-background:accumulate;stop-color:#000000;stop-opacity:1"
           d="m 163.19922,636.46875 a 0.0120012,0.0120012 0 0 0 -0.0117,0.0117 v 0.24023 a 0.0120012,0.0120012 0 0 0 0.0117,0.0117 h 2.38867 v 30.69531 h -2.38867 a 0.0120012,0.0120012 0 0 0 -0.0117,0.0117 v 0.24024 a 0.0120012,0.0120012 0 0 0 0.0117,0.0117 h 3.12109 a 0.0120012,0.0120012 0 0 0 0.0117,-0.0117 v -31.19922 a 0.0120012,0.0120012 0 0 0 -0.0117,-0.0117 z m 0.0137,0.0234 h 3.0957 v 31.17578 h -3.0957 v -0.2168 h 2.38672 a 0.0120012,0.0120012 0 0 0 0.0117,-0.0117 V 636.7207 a 0.0120012,0.0120012 0 0 0 -0.0117,-0.0137 h -2.38672 z"
           id="path21" />
      </g>
      <path
         id="path14"
         d="M 0.32789063,-0.00128906 1.4177344,-5.1809766 h 0.796875 l -0.1875,0.9023438 c 0.3427734,-0.3574219 0.6679687,-0.6152344 0.9726562,-0.7734375 0.3046875,-0.1640625 0.6123047,-0.2460938 0.9257813,-0.2460938 0.421875,0 0.75,0.1142578 0.984375,0.3398438 0.2402344,0.2285156 0.3632812,0.5332031 0.3632812,0.9140625 0,0.1875 -0.043945,0.4892578 -0.1289062,0.9023437 l -0.65625,3.14062504 H 3.6091406 L 4.3005469,-3.2825391 c 0.061523,-0.3193359 0.09375,-0.5566406 0.09375,-0.7148437 0,-0.1699219 -0.058594,-0.3076172 -0.1757813,-0.4101563 -0.1171875,-0.1083984 -0.290039,-0.1640625 -0.515625,-0.1640625 -0.4541015,0 -0.8554687,0.1640625 -1.2070312,0.4921875 -0.3515625,0.3222657 -0.609375,0.8759766 -0.7734375,1.6640625 l -0.5039063,2.41406254 z m 0,0"
         style="fill:#000000;fill-opacity:1;fill-rule:nonzero;stroke:none"
         aria-label="n"
         transform="matrix(1.3333333,0,0,1.3333333,223.68,282.24)" />
      <g
         id="path15"
         style="opacity:1"
         transform="matrix(1.3333333,0,0,-1.3333333,0,1122.56)">
        <path
           style="baseline-shift:baseline;display:inline;overflow:visible;vector-effect:none;fill-rule:evenodd;stroke-linecap:round;stroke-linejoin:round;stroke-miterlimit:10;enable-background:accumulate;stop-color:#000000;stop-opacity:1"
           d="m 180.48,667.68 h 2.88 v -0.24 h -2.16 v -30.72 h 2.16 v -0.24 h -2.88 z"
           id="path22" />
        <path
           style="baseline-shift:baseline;display:inline;overflow:visible;vector-effect:none;fill-rule:evenodd;stroke-linecap:round;stroke-linejoin:round;stroke-miterlimit:10;enable-background:accumulate;stop-color:#000000;stop-opacity:1"
           d="m 180.48047,636.46875 a 0.0120012,0.0120012 0 0 0 -0.0117,0.0117 v 31.19922 a 0.0120012,0.0120012 0 0 0 0.0117,0.0117 h 2.8789 a 0.0120012,0.0120012 0 0 0 0.0117,-0.0117 v -0.24024 a 0.0120012,0.0120012 0 0 0 -0.0117,-0.0117 h -2.14648 v -30.69531 h 2.14648 a 0.0120012,0.0120012 0 0 0 0.0117,-0.0117 v -0.24023 a 0.0120012,0.0120012 0 0 0 -0.0117,-0.0117 z m 0.0117,0.0234 h 2.85547 v 0.21484 h -2.14844 a 0.0120012,0.0120012 0 0 0 -0.0117,0.0137 v 30.71875 a 0.0120012,0.0120012 0 0 0 0.0117,0.0117 h 2.14844 v 0.2168 h -2.85547 z"
           id="path23" />
      </g>
      <g
         id="path16"
         style="opacity:1"
         transform="matrix(1.3333333,0,0,-1.3333333,0,1122.56)">
        <path
           style="baseline-shift:baseline;display:inline;overflow:visible;vector-effect:none;fill-rule:evenodd;stroke-linecap:round;stroke-linejoin:round;stroke-miterlimit:10;enable-background:accumulate;stop-color:#000000;stop-opacity:1"
           d="m 315.6,633.36 h -2.88 v 0.24 h 2.16 v 30.72 h -2.16 v 0.24 h 2.88 z"
           id="path24" />
        <path
           style="baseline-shift:baseline;display:inline;overflow:visible;vector-effect:none;fill-rule:evenodd;stroke-linecap:round;stroke-linejoin:round;stroke-miterlimit:10;enable-background:accumulate;stop-color:#000000;stop-opacity:1"
           d="m 312.7207,633.34766 a 0.0120012,0.0120012 0 0 0 -0.0137,0.0117 v 0.24024 a 0.0120012,0.0120012 0 0 0 0.0137,0.0117 h 2.14649 v 30.69726 h -2.14649 a 0.0120012,0.0120012 0 0 0 -0.0137,0.0117 v 0.24024 a 0.0120012,0.0120012 0 0 0 0.0137,0.0117 h 2.87891 a 0.0120012,0.0120012 0 0 0 0.0117,-0.0117 v -31.20118 a 0.0120012,0.0120012 0 0 0 -0.0117,-0.0117 z m 0.0117,0.0234 h 2.85547 v 31.17774 h -2.85547 v -0.2168 h 2.14844 a 0.0120012,0.0120012 0 0 0 0.0117,-0.0117 v -30.7207 a 0.0120012,0.0120012 0 0 0 -0.0117,-0.0117 h -2.14844 z"
           id="path25" />
      </g>
      <path
         id="path17"
         d="m 0.3271875,-0.00117187 1.078125,-5.17968753 h 0.890625 l -0.1875,0.8554688 c 0.328125,-0.375 0.6210937,-0.6269531 0.8789062,-0.7617188 0.2636719,-0.140625 0.5449219,-0.2109375 0.84375,-0.2109375 0.328125,0 0.5976563,0.087891 0.8085938,0.2578125 0.2167969,0.1640625 0.3632812,0.4042969 0.4335937,0.7148438 0.2578125,-0.328125 0.5302735,-0.5683594 0.8203125,-0.7265625 0.2958985,-0.1640625 0.6035157,-0.2460938 0.9257813,-0.2460938 0.4365234,0 0.7617187,0.1025391 0.9726562,0.3046875 0.2167969,0.2050782 0.328125,0.4921875 0.328125,0.8671875 0,0.1582032 -0.041016,0.4189453 -0.1171875,0.7851563 L 7.3115625,-0.00117187 H 6.4326562 l 0.703125,-3.42187503 c 0.061523,-0.28125 0.09375,-0.4833984 0.09375,-0.609375 0,-0.1640625 -0.055664,-0.2929687 -0.1640625,-0.3867187 -0.102539,-0.099609 -0.2519531,-0.1523438 -0.4453125,-0.1523438 -0.2666015,0 -0.5361328,0.082031 -0.8085937,0.2460938 -0.2753906,0.1582031 -0.4892578,0.3632812 -0.6445313,0.6210937 -0.149414,0.2578125 -0.2783203,0.65625 -0.3867187,1.1953125 L 4.2529687,-0.00117187 H 3.3623437 L 4.100625,-3.5050781 c 0.052734,-0.234375 0.082031,-0.4013672 0.082031,-0.5039063 0,-0.1699218 -0.055664,-0.3076172 -0.1640625,-0.4101562 C 3.9072656,-4.51875 3.7725,-4.5714844 3.6084375,-4.5714844 c -0.2519531,0 -0.515625,0.082031 -0.796875,0.2460938 -0.2753906,0.1582031 -0.4980469,0.375 -0.6679688,0.65625 -0.1728515,0.28125 -0.3134765,0.6884765 -0.421875,1.21875 l -0.515625,2.44921873 z m 0,0"
         style="fill:#000000;fill-opacity:1;fill-rule:nonzero;stroke:none"
         aria-label="m"
         transform="matrix(1.3333333,0,0,1.3333333,422.72,286.4)" />
    </g>
  </g>
</svg>
