<?xml version="1.0" encoding="UTF-8"?>
<svg width="296pt" version="1.1" xmlns="http://www.w3.org/2000/svg" height="190pt" viewBox="0 0 296 190" xmlns:xlink="http://www.w3.org/1999/xlink">
 <defs>
  <clipPath id="Clip0">
   <path d="M0 0 L296 0 L296 190 L0 190 L0 0 Z" transform="translate(0, 0)"/>
  </clipPath>
 </defs>
 <g id="Hintergrund">
  <g id="Gruppe1" clip-path="url(#Clip0)">
   <path style="fill:#000000; fill-rule:nonzero;stroke:none;" d="M1.7 39.2 L0 40.2 L0 0.5 L0.85 0 L1.7 0.5 L1.7 39.2 Z" transform="translate(113.15, 74)"/>
   <path style="fill:#000000; fill-rule:nonzero;stroke:none;" d="M1.7 32.7998 L0 32.7998 L0 0 L1.7 0 L1.7 32.7998 Z" transform="translate(119.1, 77.4502)"/>
   <path style="fill:#000000; fill-rule:nonzero;stroke:none;" d="M35.2 19.35 L35.2 20.35 L34.35 20.85 L0 1 L1.7 0 L35.2 19.35 Z" transform="translate(113.15, 113.2)"/>
   <path style="fill:#000000; fill-rule:nonzero;stroke:none;" d="M33.55 0 L35.25 1 L0.85 20.85 L0 20.35 L0 19.35 L33.55 0 Z" transform="translate(148.35, 113.2)"/>
   <path style="fill:#000000; fill-rule:nonzero;stroke:none;" d="M28.4 0 L29.25 1.5 L0.85 17.9 L0 16.4 L28.4 0 Z" transform="translate(147.95, 109.5)"/>
   <path style="fill:#000000; fill-rule:nonzero;stroke:none;" d="M0 0.5 L0.85 0 L1.7 0.5 L1.7 40.2 L0 39.2 L0 0.5 Z" transform="translate(181.9, 74)"/>
   <path style="fill:#000000; fill-rule:nonzero;stroke:none;" d="M0 1.5 L0 0.5 L0.85 0 L34.4 19.3496 L34.4 20.3496 L33.55 20.8496 L0 1.5 Z" transform="translate(148.35, 53.6504)"/>
   <path style="fill:#000000; fill-rule:nonzero;stroke:none;" d="M0 1.4502 L0.85 0 L29.25 16.4004 L28.4 17.8506 L0 1.4502 Z" transform="translate(147.95, 60.2998)"/>
   <path style="fill:#000000; fill-rule:nonzero;stroke:none;" d="M0.85 20.8496 L0 20.3496 L0 19.3496 L33.5 0 L34.35 0.5 L34.35 1.5 L0.85 20.8496 Z" transform="translate(114, 53.6504)"/>
   <path style="fill:#000000; fill-rule:evenodd;stroke:none;" d="M8.421 0 C3.41 0 0 3.69532 0 9.16795 C0 14.6601 3.382 18.332 8.449 18.332 C10.582 18.332 12.453 17.6836 13.871 16.4843 C15.765 14.8789 16.894 12.1679 16.894 9.31255 C16.894 3.67188 13.558 0 8.421 0 Z M8.421 1.96875 C12.214 1.96875 14.66 4.82425 14.66 9.26175 C14.66 13.4882 12.14 16.3671 8.449 16.3671 C4.703 16.3671 2.234 13.4882 2.234 9.16795 C2.234 4.84765 4.703 1.96875 8.421 1.96875 Z" transform="translate(141.061, 5.26855)"/>
   <path style="fill:#000000; fill-rule:evenodd;stroke:none;" d="M11.227 9.52738 L11.227 17.4922 L13.461 17.4922 L13.461 0 L11.227 0 L11.227 7.55858 L2.231 7.55858 L2.231 0 L0 0 L0 17.4922 L2.231 17.4922 L2.231 9.52738 L11.227 9.52738 Z" transform="translate(160.814, 5.55762)"/>
   <path style="fill:#000000; fill-rule:nonzero;stroke:none;" d="M0 0 L1.7 0 L1.7 28.1006 L0.85 28.6006 L0 28.1006 L0 0 Z" transform="translate(147.5, 25.5498)"/>
   <path style="fill:#000000; fill-rule:evenodd;stroke:none;" d="M14.731 5.71 C14.035 1.875 11.828 0 7.988 0 C5.637 0 3.742 0.746 2.445 2.183 C0.863 3.914 0 6.41 0 9.238 C0 12.117 0.887 14.589 2.52 16.293 C3.887 17.683 5.613 18.332 7.895 18.332 C12.164 18.332 14.563 16.031 15.09 11.398 L12.789 11.398 C12.598 12.597 12.356 13.414 11.996 14.109 C11.277 15.55 9.789 16.367 7.918 16.367 C4.438 16.367 2.231 13.582 2.231 9.214 C2.231 4.73 4.317 1.968 7.727 1.968 C9.141 1.968 10.461 2.378 11.18 3.074 C11.828 3.671 12.188 4.394 12.453 5.71 L14.731 5.71 Z" transform="translate(141.952, 164.019)"/>
   <path style="fill:#000000; fill-rule:evenodd;stroke:none;" d="M11.227 9.527 L11.227 17.492 L13.461 17.492 L13.461 0 L11.227 0 L11.227 7.558 L2.231 7.558 L2.231 0 L0 0 L0 17.492 L2.231 17.492 L2.231 9.527 L11.227 9.527 Z" transform="translate(160.119, 164.308)"/>
   <path style="fill:#000000; fill-rule:evenodd;stroke:none;" d="M3.406 6.925 L3.606 6.925 L4.274 6.906 C6.024 6.906 6.922 7.699 6.922 9.234 C6.922 10.836 5.934 11.793 4.274 11.793 C2.543 11.793 1.696 10.925 1.586 9.07 L0 9.07 C0.071 10.097 0.25 10.765 0.559 11.343 C1.207 12.57 2.469 13.199 4.219 13.199 C6.852 13.199 8.547 11.632 8.547 9.214 C8.547 7.589 7.914 6.691 6.383 6.168 C7.574 5.679 8.168 4.797 8.168 3.515 C8.168 1.316 6.707 0 4.274 0 C1.696 0 0.324 1.406 0.27 4.129 L1.856 4.129 C1.875 3.355 1.946 2.922 2.145 2.523 C2.504 1.82 3.301 1.386 4.289 1.386 C5.699 1.386 6.547 2.199 6.547 3.57 C6.547 4.472 6.219 5.011 5.516 5.3 C5.086 5.48 4.524 5.554 3.406 5.57 L3.406 6.925 Z" transform="translate(176.032, 173.515)"/>
   <path style="fill:#000000; fill-rule:nonzero;stroke:none;" d="M1.7 28.5 L0 28.5 L0 0.5 L0.85 0 L1.7 0.5 L1.7 28.5 Z" transform="translate(147.5, 133.55)"/>
   <path style="fill:#000000; fill-rule:nonzero;stroke:none;" d="M33.5 0 L34.35 0.5 L34.25 1.5498 L0.85 20.8496 L0 20.3496 L0 19.3496 L33.5 0 Z" transform="translate(182.75, 53.6504)"/>
   <path style="fill:#000000; fill-rule:nonzero;stroke:none;" d="M0.0996 1.5498 L0 0.5 L0.8496 0 L34.3496 19.3496 L34.3496 20.3496 L33.4996 20.8496 L0.0996 1.5498 Z" transform="translate(79.6504, 53.6504)"/>
   <path style="fill:#000000; fill-rule:evenodd;stroke:none;" d="M14.731 5.71095 C14.036 1.875 11.828 0 7.989 0 C5.637 0 3.743 0.7461 2.446 2.1836 C0.864 3.91407 0 6.41015 0 9.23825 C0 12.1171 0.887 14.5899 2.52 16.2929 C3.887 17.6836 5.614 18.332 7.895 18.332 C12.164 18.332 14.563 16.0313 15.09 11.3985 L12.789 11.3985 C12.598 12.5976 12.356 13.414 11.996 14.1093 C11.278 15.5507 9.789 16.3671 7.918 16.3671 C4.438 16.3671 2.231 13.582 2.231 9.21485 C2.231 4.73047 4.317 1.96875 7.727 1.96875 C9.141 1.96875 10.461 2.37891 11.18 3.07422 C11.828 3.67188 12.188 4.39454 12.453 5.71095 L14.731 5.71095 Z" transform="translate(210.652, 5.26855)"/>
   <path style="fill:#000000; fill-rule:evenodd;stroke:none;" d="M11.227 9.52738 L11.227 17.4922 L13.461 17.4922 L13.461 0 L11.227 0 L11.227 7.55858 L2.231 7.55858 L2.231 0 L0 0 L0 17.4922 L2.231 17.4922 L2.231 9.52738 L11.227 9.52738 Z" transform="translate(228.819, 5.55762)"/>
   <path style="fill:#000000; fill-rule:evenodd;stroke:none;" d="M3.407 6.9258 L3.606 6.9258 L4.274 6.9063 C6.024 6.9063 6.922 7.6993 6.922 9.2344 C6.922 10.836 5.934 11.793 4.274 11.793 C2.543 11.793 1.696 10.9258 1.586 9.0704 L0 9.0704 C0.071 10.0977 0.25 10.7657 0.559 11.3438 C1.207 12.5704 2.469 13.1993 4.219 13.1993 C6.852 13.1993 8.547 11.6329 8.547 9.2149 C8.547 7.5899 7.914 6.6915 6.383 6.168 C7.575 5.6797 8.168 4.7969 8.168 3.5157 C8.168 1.3165 6.707 0 4.274 0 C1.696 0 0.325 1.4063 0.27 4.129 L1.856 4.129 C1.875 3.3555 1.946 2.9219 2.145 2.5235 C2.504 1.8204 3.301 1.3868 4.289 1.3868 C5.7 1.3868 6.547 2.1993 6.547 3.5704 C6.547 4.4727 6.219 5.0118 5.516 5.3008 C5.086 5.4805 4.524 5.5547 3.407 5.5704 L3.407 6.9258 Z" transform="translate(244.732, 14.7646)"/>
   <path style="fill:#000000; fill-rule:nonzero;stroke:none;" d="M0 0 L1.7 0 L1.7 27.75 L0.85 28.6006 L0 28.1006 L0 0 Z" transform="translate(216.25, 25.5498)"/>
   <path style="fill:#000000; fill-rule:evenodd;stroke:none;" d="M14.7305 5.71095 C14.0352 1.875 11.8282 0 7.9883 0 C5.6368 0 3.7422 0.7461 2.4454 2.1836 C0.8633 3.91407 0 6.41015 0 9.23825 C0 12.1171 0.8868 14.5899 2.5196 16.2929 C3.8868 17.6836 5.6133 18.332 7.8946 18.332 C12.1641 18.332 14.5625 16.0313 15.0899 11.3985 L12.7891 11.3985 C12.5977 12.5976 12.3555 13.414 11.9961 14.1093 C11.2774 15.5507 9.7891 16.3671 7.918 16.3671 C4.4375 16.3671 2.2305 13.582 2.2305 9.21485 C2.2305 4.73047 4.3165 1.96875 7.7266 1.96875 C9.1407 1.96875 10.461 2.37891 11.1797 3.07422 C11.8282 3.67188 12.1875 4.39454 12.4532 5.71095 L14.7305 5.71095 Z" transform="translate(73.2021, 5.26855)"/>
   <path style="fill:#000000; fill-rule:evenodd;stroke:none;" d="M11.2269 9.52738 L11.2269 17.4922 L13.4609 17.4922 L13.4609 0 L11.2269 0 L11.2269 7.55858 L2.2305 7.55858 L2.2305 0 L0 0 L0 17.4922 L2.2305 17.4922 L2.2305 9.52738 L11.2269 9.52738 Z" transform="translate(91.3691, 5.55762)"/>
   <path style="fill:#000000; fill-rule:evenodd;stroke:none;" d="M3.406 6.9258 L3.606 6.9258 L4.274 6.9063 C6.024 6.9063 6.922 7.6993 6.922 9.2344 C6.922 10.836 5.934 11.793 4.274 11.793 C2.543 11.793 1.696 10.9258 1.586 9.0704 L0 9.0704 C0.071 10.0977 0.25 10.7657 0.559 11.3438 C1.207 12.5704 2.469 13.1993 4.219 13.1993 C6.852 13.1993 8.547 11.6329 8.547 9.2149 C8.547 7.5899 7.914 6.6915 6.383 6.168 C7.574 5.6797 8.168 4.7969 8.168 3.5157 C8.168 1.3165 6.707 0 4.274 0 C1.696 0 0.324 1.4063 0.27 4.129 L1.856 4.129 C1.875 3.3555 1.946 2.9219 2.145 2.5235 C2.504 1.8204 3.301 1.3868 4.289 1.3868 C5.699 1.3868 6.547 2.1993 6.547 3.5704 C6.547 4.4727 6.219 5.0118 5.516 5.3008 C5.086 5.4805 4.524 5.5547 3.406 5.5704 L3.406 6.9258 Z" transform="translate(107.282, 14.7646)"/>
   <path style="fill:#000000; fill-rule:nonzero;stroke:none;" d="M0 0 L1.7002 0 L1.7002 28.1006 L0.8506 28.6006 L0 27.75 L0 0 Z" transform="translate(78.7998, 25.5498)"/>
   <path style="fill:#000000; fill-rule:evenodd;stroke:none;" d="M11.2266 9.5274 L11.2266 17.4922 L13.4609 17.4922 L13.4609 0 L11.2266 0 L11.2266 7.5586 L2.23047 7.5586 L2.23047 0 L0 0 L0 17.4922 L2.23047 17.4922 L2.23047 9.5274 L11.2266 9.5274 Z" transform="translate(4.86719, 45.2578)"/>
   <path style="fill:#000000; fill-rule:evenodd;stroke:none;" d="M3.4062 6.9258 L3.6054 6.9258 L4.2734 6.9063 C6.0234 6.9063 6.9218 7.6993 6.9218 9.2344 C6.9218 10.836 5.9336 11.793 4.2734 11.793 C2.5429 11.793 1.6953 10.9258 1.5859 9.0704 L0 9.0704 C0.0703 10.0977 0.25 10.7657 0.5586 11.3438 C1.207 12.5704 2.4687 13.1993 4.2187 13.1993 C6.8515 13.1993 8.5468 11.6329 8.5468 9.2149 C8.5468 7.5899 7.914 6.6915 6.3828 6.168 C7.5742 5.6797 8.1679 4.7969 8.1679 3.5157 C8.1679 1.3165 6.707 0 4.2734 0 C1.6953 0 0.3242 1.4063 0.2695 4.129 L1.8554 4.129 C1.875 3.3555 1.9453 2.9219 2.1445 2.5235 C2.5039 1.8204 3.3008 1.3868 4.289 1.3868 C5.6992 1.3868 6.5468 2.1993 6.5468 3.5704 C6.5468 4.4727 6.2187 5.0118 5.5156 5.3008 C5.0859 5.4805 4.5234 5.5547 3.4062 5.5704 L3.4062 6.9258 Z" transform="translate(20.7803, 54.4648)"/>
   <path style="fill:#000000; fill-rule:evenodd;stroke:none;" d="M14.7305 5.7109 C14.0352 1.875 11.8281 0 7.9883 0 C5.6367 0 3.7422 0.746 2.4453 2.1835 C0.8633 3.914 0 6.4101 0 9.2382 C0 12.1171 0.8867 14.5898 2.5195 16.2929 C3.8867 17.6835 5.6133 18.332 7.8945 18.332 C12.1641 18.332 14.5625 16.0312 15.0898 11.3984 L12.7891 11.3984 C12.5977 12.5976 12.3555 13.414 11.9961 14.1093 C11.2773 15.5507 9.7891 16.3671 7.918 16.3671 C4.4375 16.3671 2.2305 13.582 2.2305 9.2148 C2.2305 4.7304 4.3164 1.9687 7.7266 1.9687 C9.1406 1.9687 10.4609 2.3789 11.1797 3.0742 C11.8281 3.6718 12.1875 4.3945 12.4531 5.7109 L14.7305 5.7109 Z" transform="translate(31.3623, 44.9688)"/>
   <path style="fill:#000000; fill-rule:nonzero;stroke:none;" d="M0 1.7002 L0 0 L31.1494 0 L32 0.8506 L29.9492 1.7002 L0 1.7002 Z" transform="translate(47.6504, 53.2998)"/>
   <path style="fill:#000000; fill-rule:evenodd;stroke:none;" d="M11.2265 9.5274 L11.2265 17.4922 L13.4609 17.4922 L13.4609 0 L11.2265 0 L11.2265 7.5586 L2.2304 7.5586 L2.2304 0 L0 0 L0 17.4922 L2.2304 17.4922 L2.2304 9.5274 L11.2265 9.5274 Z" transform="translate(16.4678, 73.3076)"/>
   <path style="fill:#000000; fill-rule:evenodd;stroke:none;" d="M3.4062 6.9258 L3.6054 6.9258 L4.2734 6.9063 C6.0234 6.9063 6.9218 7.6993 6.9218 9.2344 C6.9218 10.836 5.9336 11.793 4.2734 11.793 C2.5429 11.793 1.6953 10.9258 1.5859 9.0704 L0 9.0704 C0.0703 10.0977 0.25 10.7657 0.5586 11.3438 C1.207 12.5704 2.4687 13.1993 4.2187 13.1993 C6.8515 13.1993 8.5468 11.6329 8.5468 9.2149 C8.5468 7.5899 7.914 6.6915 6.3828 6.168 C7.5742 5.6797 8.1679 4.7969 8.1679 3.5157 C8.1679 1.3165 6.707 0 4.2734 0 C1.6953 0 0.3242 1.4063 0.2695 4.129 L1.8554 4.129 C1.875 3.3555 1.9453 2.9219 2.1445 2.5235 C2.5039 1.8204 3.3007 1.3868 4.289 1.3868 C5.6992 1.3868 6.5468 2.1993 6.5468 3.5704 C6.5468 4.4727 6.2187 5.0118 5.5156 5.3008 C5.0859 5.4805 4.5234 5.5547 3.4062 5.5704 L3.4062 6.9258 Z" transform="translate(32.3809, 82.5146)"/>
   <path style="fill:#000000; fill-rule:evenodd;stroke:none;" d="M14.7305 5.7109 C14.0351 1.875 11.8281 0 7.9883 0 C5.6367 0 3.7422 0.746 2.4453 2.1835 C0.8633 3.914 0 6.4101 0 9.2382 C0 12.1171 0.8867 14.5898 2.5195 16.2929 C3.8867 17.6835 5.6133 18.332 7.8945 18.332 C12.1641 18.332 14.5625 16.0312 15.0898 11.3984 L12.7891 11.3984 C12.5976 12.5976 12.3555 13.414 11.9961 14.1093 C11.2773 15.5507 9.7891 16.3671 7.918 16.3671 C4.4375 16.3671 2.2305 13.582 2.2305 9.2148 C2.2305 4.7304 4.3164 1.9687 7.7266 1.9687 C9.1406 1.9687 10.4609 2.3789 11.1797 3.0742 C11.8281 3.6718 12.1875 4.3945 12.4531 5.7109 L14.7305 5.7109 Z" transform="translate(42.9629, 73.0186)"/>
   <path style="fill:#000000; fill-rule:nonzero;stroke:none;" d="M1.2002 21.8994 L0 20.6494 L19.8496 0.8496 L21.9004 0 L22 1.0498 L1.2002 21.8994 Z" transform="translate(57.75, 54.1504)"/>
   <path style="fill:#000000; fill-rule:evenodd;stroke:none;" d="M14.73 5.7109 C14.035 1.875 11.828 0 7.988 0 C5.636 0 3.742 0.746 2.445 2.1835 C0.863 3.914 0 6.4101 0 9.2382 C0 12.1171 0.886 14.5898 2.519 16.2929 C3.886 17.6835 5.613 18.332 7.894 18.332 C12.164 18.332 14.562 16.0312 15.089 11.3984 L12.789 11.3984 C12.597 12.5976 12.355 13.414 11.996 14.1093 C11.277 15.5507 9.789 16.3671 7.918 16.3671 C4.437 16.3671 2.23 13.582 2.23 9.2148 C2.23 4.7304 4.316 1.9687 7.726 1.9687 C9.14 1.9687 10.46 2.3789 11.179 3.0742 C11.828 3.6718 12.187 4.3945 12.453 5.7109 L14.73 5.7109 Z" transform="translate(250.353, 44.9688)"/>
   <path style="fill:#000000; fill-rule:evenodd;stroke:none;" d="M11.226 9.5274 L11.226 17.4922 L13.46 17.4922 L13.46 0 L11.226 0 L11.226 7.5586 L2.23 7.5586 L2.23 0 L0 0 L0 17.4922 L2.23 17.4922 L2.23 9.5274 L11.226 9.5274 Z" transform="translate(268.52, 45.2578)"/>
   <path style="fill:#000000; fill-rule:evenodd;stroke:none;" d="M3.406 6.9258 L3.605 6.9258 L4.273 6.9063 C6.023 6.9063 6.921 7.6993 6.921 9.2344 C6.921 10.836 5.933 11.793 4.273 11.793 C2.543 11.793 1.695 10.9258 1.586 9.0704 L0 9.0704 C0.07 10.0977 0.25 10.7657 0.558 11.3438 C1.207 12.5704 2.468 13.1993 4.218 13.1993 C6.851 13.1993 8.546 11.6329 8.546 9.2149 C8.546 7.5899 7.914 6.6915 6.382 6.168 C7.574 5.6797 8.168 4.7969 8.168 3.5157 C8.168 1.3165 6.707 0 4.273 0 C1.695 0 0.324 1.4063 0.269 4.129 L1.855 4.129 C1.875 3.3555 1.945 2.9219 2.144 2.5235 C2.504 1.8204 3.3 1.3868 4.289 1.3868 C5.699 1.3868 6.546 2.1993 6.546 3.5704 C6.546 4.4727 6.218 5.0118 5.515 5.3008 C5.086 5.4805 4.523 5.5547 3.406 5.5704 L3.406 6.9258 Z" transform="translate(284.433, 54.4648)"/>
   <path style="fill:#000000; fill-rule:nonzero;stroke:none;" d="M29.85 0 L29.85 1.7002 L2.05 1.7002 L0 0.8506 L0.85 0 L29.85 0 Z" transform="translate(217.1, 53.2998)"/>
   <path style="fill:#000000; fill-rule:evenodd;stroke:none;" d="M14.73 5.7109 C14.035 1.875 11.828 0 7.988 0 C5.637 0 3.742 0.746 2.445 2.1835 C0.863 3.914 0 6.4101 0 9.2382 C0 12.1171 0.887 14.5898 2.519 16.2929 C3.887 17.6835 5.613 18.332 7.894 18.332 C12.164 18.332 14.562 16.0312 15.09 11.3984 L12.789 11.3984 C12.598 12.5976 12.355 13.414 11.996 14.1093 C11.277 15.5507 9.789 16.3671 7.918 16.3671 C4.437 16.3671 2.23 13.582 2.23 9.2148 C2.23 4.7304 4.316 1.9687 7.727 1.9687 C9.141 1.9687 10.461 2.3789 11.18 3.0742 C11.828 3.6718 12.187 4.3945 12.453 5.7109 L14.73 5.7109 Z" transform="translate(238.752, 73.0186)"/>
   <path style="fill:#000000; fill-rule:evenodd;stroke:none;" d="M11.227 9.5274 L11.227 17.4922 L13.461 17.4922 L13.461 0 L11.227 0 L11.227 7.5586 L2.23 7.5586 L2.23 0 L0 0 L0 17.4922 L2.23 17.4922 L2.23 9.5274 L11.227 9.5274 Z" transform="translate(256.919, 73.3076)"/>
   <path style="fill:#000000; fill-rule:evenodd;stroke:none;" d="M3.406 6.9258 L3.606 6.9258 L4.273 6.9063 C6.023 6.9063 6.922 7.6993 6.922 9.2344 C6.922 10.836 5.934 11.793 4.273 11.793 C2.543 11.793 1.695 10.9258 1.586 9.0704 L0 9.0704 C0.07 10.0977 0.25 10.7657 0.559 11.3438 C1.207 12.5704 2.469 13.1993 4.219 13.1993 C6.852 13.1993 8.547 11.6329 8.547 9.2149 C8.547 7.5899 7.914 6.6915 6.383 6.168 C7.574 5.6797 8.168 4.7969 8.168 3.5157 C8.168 1.3165 6.707 0 4.273 0 C1.695 0 0.324 1.4063 0.27 4.129 L1.856 4.129 C1.875 3.3555 1.945 2.9219 2.145 2.5235 C2.504 1.8204 3.301 1.3868 4.289 1.3868 C5.699 1.3868 6.547 2.1993 6.547 3.5704 C6.547 4.4727 6.219 5.0118 5.516 5.3008 C5.086 5.4805 4.523 5.5547 3.406 5.5704 L3.406 6.9258 Z" transform="translate(272.832, 82.5146)"/>
   <path style="fill:#000000; fill-rule:nonzero;stroke:none;" d="M21.2 19.8994 L20 21.0996 L0 1.0498 L0.1 0 L2.15 0.8496 L21.2 19.8994 Z" transform="translate(217, 54.1504)"/>
  </g>
 </g>
</svg>
