<?xml version="1.0" encoding="UTF-8" standalone="no"?>
<svg
   width="186px"
   height="204px"
   viewBox="0 0 186 204"
   style="background-color: #ffffff00"
   version="1.1"
   id="svg45"
   sodipodi:docname="CAP.svg"
   inkscape:version="1.4.2 (f4327f4, 2025-05-13)"
   xmlns:inkscape="http://www.inkscape.org/namespaces/inkscape"
   xmlns:sodipodi="http://sodipodi.sourceforge.net/DTD/sodipodi-0.dtd"
   xmlns="http://www.w3.org/2000/svg"
   xmlns:svg="http://www.w3.org/2000/svg">
  <defs
     id="defs45" />
  <sodipodi:namedview
     id="namedview45"
     pagecolor="#ffffff"
     bordercolor="#000000"
     borderopacity="0.25"
     inkscape:showpageshadow="2"
     inkscape:pageopacity="0.0"
     inkscape:pagecheckerboard="0"
     inkscape:deskcolor="#d1d1d1"
     inkscape:zoom="4.1715686"
     inkscape:cx="93.010576"
     inkscape:cy="102"
     inkscape:window-width="1920"
     inkscape:window-height="1111"
     inkscape:window-x="-9"
     inkscape:window-y="-9"
     inkscape:window-maximized="1"
     inkscape:current-layer="svg45" />
  <path
     d="m 9.6679688,-69.726562 q 0,-35.644528 19.1406252,-55.761718 19.140625,-20.21484 49.414062,-20.21484 19.824219,0 35.742184,9.47265 15.91797,9.47266 24.21875,26.46484 8.39844,16.894536 8.39844,38.378911 0,21.777344 -8.78906,38.964844 -8.78906,17.1875 -24.90234,26.0742188 -16.113286,8.7890625 -34.76563,8.7890625 -20.214844,0 -36.132813,-9.765625 Q 26.074219,-17.089844 17.871094,-33.984375 9.6679688,-50.878906 9.6679688,-69.726562 Z m 19.5312502,0.292968 q 0,25.878907 13.867187,40.820313 13.964844,14.84375 34.960938,14.84375 21.386718,0 35.156246,-15.039063 13.86719,-15.039062 13.86719,-42.675781 0,-17.480469 -5.95703,-30.468755 -5.85937,-13.08593 -17.28516,-20.21484 -11.328121,-7.22656 -25.488278,-7.22656 -20.117187,0 -34.667968,13.86719 -14.453125,13.76953 -14.453125,46.093746 z"
     id="text1"
     style="font-size:200px;font-family:Arial"
     transform="matrix(0.0833333 0 0 0.0833333 109.791 74.531)"
     aria-label="O" />
  <path
     stroke="none"
     fill="#000000"
     transform="matrix(0.0833333 0 0 0.0833333 -232.417 -104)"
     d="M 4395.69,2419.59 L 4392.74,2426.49 L 4379.51,2415.53 L 4235.67,2165.39 L 4246.07,2159.41 L 4395.69,2419.59 Z "
     id="path1" />
  <path
     stroke="none"
     fill="#000000"
     transform="matrix(0.0833333 0 0 0.0833333 -232.417 -104)"
     d="M 4023.75,2349.65 L 3991.49,2311.7 L 4008.77,2286.01 L 4379.51,2415.53 L 4392.74,2426.49 L 4392.83,2432.65 L 4023.75,2349.65 Z "
     id="path2" />
  <path
     stroke="none"
     fill="#000000"
     transform="matrix(0.0833333 0 0 0.0833333 -232.417 -104)"
     d="M 3605.42,2400.39 L 3586.67,2426.49 L 3554.39,2428.87 L 3376.99,2072.85 L 3379.46,2064.37 L 3393.27,2074.6 L 3605.42,2400.39 Z "
     id="path3" />
  <path
     stroke="none"
     fill="#000000"
     transform="matrix(0.0833333 0 0 0.0833333 -232.417 -104)"
     d="M 3746.18,2163.82 L 3781.19,2180.16 L 3781.18,2186.4 L 3393.27,2074.6 L 3379.46,2064.37 L 3378.62,2057.88 L 3746.18,2163.82 Z "
     id="path4" />
  <path
     stroke="none"
     fill="#000000"
     transform="matrix(0.0833333 0 0 0.0833333 -232.417 -104)"
     d="M 3781.18,2186.4 L 3781.19,2180.16 L 3782.22,2173.62 L 4083.33,2087.18 L 4086.64,2098.71 L 3781.18,2186.4 Z "
     id="path5" />
  <path
     d="m 9.6679688,-69.726562 q 0,-35.644528 19.1406252,-55.761718 19.140625,-20.21484 49.414062,-20.21484 19.824219,0 35.742184,9.47265 15.91797,9.47266 24.21875,26.46484 8.39844,16.894536 8.39844,38.378911 0,21.777344 -8.78906,38.964844 -8.78906,17.1875 -24.90234,26.0742188 -16.113286,8.7890625 -34.76563,8.7890625 -20.214844,0 -36.132813,-9.765625 Q 26.074219,-17.089844 17.871094,-33.984375 9.6679688,-50.878906 9.6679688,-69.726562 Z m 19.5312502,0.292968 q 0,25.878907 13.867187,40.820313 13.964844,14.84375 34.960938,14.84375 21.386718,0 35.156246,-15.039063 13.86719,-15.039062 13.86719,-42.675781 0,-17.480469 -5.95703,-30.468755 -5.85937,-13.08593 -17.28516,-20.21484 -11.328121,-7.22656 -25.488278,-7.22656 -20.117187,0 -34.667968,13.86719 -14.453125,13.76953 -14.453125,46.093746 z"
     id="text5"
     style="font-size:200px;font-family:Arial"
     transform="matrix(0.0833333 0 0 0.0833333 22.0913 86.8881)"
     aria-label="O" />
  <path
     stroke="none"
     fill="#000000"
     transform="matrix(0.0833333 0 0 0.0833333 -232.417 -104)"
     d="M 3220.07,2166.92 L 3213.9,2156.63 L 3378.62,2057.88 L 3379.46,2064.37 L 3376.99,2072.85 L 3220.07,2166.92 Z "
     id="path6" />
  <path
     d="m 9.6679688,-69.726562 q 0,-35.644528 19.1406252,-55.761718 19.140625,-20.21484 49.414062,-20.21484 19.824219,0 35.742184,9.47265 15.91797,9.47266 24.21875,26.46484 8.39844,16.894536 8.39844,38.378911 0,21.777344 -8.78906,38.964844 -8.78906,17.1875 -24.90234,26.0742188 -16.113286,8.7890625 -34.76563,8.7890625 -20.214844,0 -36.132813,-9.765625 Q 26.074219,-17.089844 17.871094,-33.984375 9.6679688,-50.878906 9.6679688,-69.726562 Z m 19.5312502,0.292968 q 0,25.878907 13.867187,40.820313 13.964844,14.84375 34.960938,14.84375 21.386718,0 35.156246,-15.039063 13.86719,-15.039062 13.86719,-42.675781 0,-17.480469 -5.95703,-30.468755 -5.85937,-13.08593 -17.28516,-20.21484 -11.328121,-7.22656 -25.488278,-7.22656 -20.117187,0 -34.667968,13.86719 -14.453125,13.76953 -14.453125,46.093746 z"
     id="text6"
     style="font-size:200px;font-family:Arial"
     transform="matrix(0.0833333 0 0 0.0833333 106.399 114.354)"
     aria-label="O" />
  <path
     stroke="none"
     fill="#000000"
     transform="matrix(0.0833333 0 0 0.0833333 -232.417 -104)"
     d="M 3997,2330.93 L 3991.49,2311.7 L 4023.75,2349.65 L 4094.39,2456.6 L 4084.38,2463.21 L 3997,2330.93 Z "
     id="path7" />
  <path
     stroke="none"
     fill="#000000"
     transform="matrix(0.0833333 0 0 0.0833333 -232.417 -104)"
     d="M 3535.99,2022.33 L 3547.99,2015.94 L 3782.22,2173.62 L 3781.19,2180.16 L 3746.18,2163.82 L 3535.99,2022.33 Z "
     id="path8" />
  <path
     d="m 9.6679688,-69.726562 q 0,-35.644528 19.1406252,-55.761718 19.140625,-20.21484 49.414062,-20.21484 19.824219,0 35.742184,9.47265 15.91797,9.47266 24.21875,26.46484 8.39844,16.894536 8.39844,38.378911 0,21.777344 -8.78906,38.964844 -8.78906,17.1875 -24.90234,26.0742188 -16.113286,8.7890625 -34.76563,8.7890625 -20.214844,0 -36.132813,-9.765625 Q 26.074219,-17.089844 17.871094,-33.984375 9.6679688,-50.878906 9.6679688,-69.726562 Z m 19.5312502,0.292968 q 0,25.878907 13.867187,40.820313 13.964844,14.84375 34.960938,14.84375 21.386718,0 35.156246,-15.039063 13.86719,-15.039062 13.86719,-42.675781 0,-17.480469 -5.95703,-30.468755 -5.85937,-13.08593 -17.28516,-20.21484 -11.328121,-7.22656 -25.488278,-7.22656 -20.117187,0 -34.667968,13.86719 -14.453125,13.76953 -14.453125,46.093746 z"
     id="text8"
     style="font-size:200px;font-family:Arial"
     transform="matrix(0.0833333 0 0 0.0833333 150.424 98.9509)"
     aria-label="O" />
  <path
     stroke="none"
     fill="#000000"
     transform="matrix(0.0833333 0 0 0.0833333 -232.417 -104)"
     d="M 4570.67,2376.31 L 4573.55,2387.96 L 4392.83,2432.65 L 4392.74,2426.49 L 4395.69,2419.59 L 4570.67,2376.31 Z "
     id="path9" />
  <path
     stroke="none"
     fill="#000000"
     transform="matrix(0.0833333 0 0 0.0833333 -232.417 -104)"
     d="M 3592.13,2445.74 L 3586.67,2426.49 L 3605.42,2400.39 L 4008.77,2286.01 L 3991.49,2311.7 L 3997,2330.93 L 3592.13,2445.74 Z "
     id="path10" />
  <path
     d="m 9.6679688,-69.726562 q 0,-35.644528 19.1406252,-55.761718 19.140625,-20.21484 49.414062,-20.21484 19.824219,0 35.742184,9.47265 15.91797,9.47266 24.21875,26.46484 8.39844,16.894536 8.39844,38.378911 0,21.777344 -8.78906,38.964844 -8.78906,17.1875 -24.90234,26.0742188 -16.113286,8.7890625 -34.76563,8.7890625 -20.214844,0 -36.132813,-9.765625 Q 26.074219,-17.089844 17.871094,-33.984375 9.6679688,-50.878906 9.6679688,-69.726562 Z m 19.5312502,0.292968 q 0,25.878907 13.867187,40.820313 13.964844,14.84375 34.960938,14.84375 21.386718,0 35.156246,-15.039063 13.86719,-15.039062 13.86719,-42.675781 0,-17.480469 -5.95703,-30.468755 -5.85937,-13.08593 -17.28516,-20.21484 -11.328121,-7.22656 -25.488278,-7.22656 -20.117187,0 -34.667968,13.86719 -14.453125,13.76953 -14.453125,46.093746 z"
     id="text10"
     style="font-size:200px;font-family:Arial"
     transform="matrix(0.0833333 0 0 0.0833333 56.2495 46.7647)"
     aria-label="O" />
  <path
     stroke="none"
     fill="#000000"
     transform="matrix(0.0833333 0 0 0.0833333 -232.417 -104)"
     d="M 3535.99,1843.01 L 3547.99,1843.01 L 3547.99,2015.94 L 3535.99,2022.33 L 3535.99,1843.01 Z "
     id="path11" />
  <path
     stroke="none"
     fill="#000000"
     transform="matrix(0.0833333 0 0 0.0833333 -232.417 -104)"
     d="M 4924.5,2496.22 L 4918.5,2506.61 L 4762.2,2416.36 L 4768.2,2405.97 L 4924.5,2496.22 Z "
     id="path12" />
  <path
     stroke="none"
     fill="#000000"
     transform="matrix(0.0833333 0 0 0.0833333 -232.417 -104)"
     d="M 2879.68,2073.85 L 2885.68,2063.46 L 3049.41,2157.99 L 3043.41,2168.38 L 2879.68,2073.85 Z "
     id="path13" />
  <path
     d="m 9.6679688,-69.726562 q 0,-35.644528 19.1406252,-55.761718 19.140625,-20.21484 49.414062,-20.21484 19.824219,0 35.742184,9.47265 15.91797,9.47266 24.21875,26.46484 8.39844,16.894536 8.39844,38.378911 0,21.777344 -8.78906,38.964844 -8.78906,17.1875 -24.90234,26.0742188 -16.113286,8.7890625 -34.76563,8.7890625 -20.214844,0 -36.132813,-9.765625 Q 26.074219,-17.089844 17.871094,-33.984375 9.6679688,-50.878906 9.6679688,-69.726562 Z m 19.5312502,0.292968 q 0,25.878907 13.867187,40.820313 13.964844,14.84375 34.960938,14.84375 21.386718,0 35.156246,-15.039063 13.86719,-15.039062 13.86719,-42.675781 0,-17.480469 -5.95703,-30.468755 -5.85937,-13.08593 -17.28516,-20.21484 -11.328121,-7.22656 -25.488278,-7.22656 -20.117187,0 -34.667968,13.86719 -14.453125,13.76953 -14.453125,46.093746 z"
     id="text13"
     style="font-size:200px;font-family:Arial"
     transform="matrix(0.0833333 0 0 0.0833333 36.7787 110.875)"
     aria-label="O" />
  <path
     stroke="none"
     fill="#000000"
     transform="matrix(0.0833333 0 0 0.0833333 -232.417 -104)"
     d="M 3405.72,2480.81 L 3402.64,2469.22 L 3554.39,2428.87 L 3586.67,2426.49 L 3588.22,2432.29 L 3405.72,2480.81 Z "
     id="path14" />
  <path
     stroke="none"
     fill="#000000"
     transform="matrix(0.0833333 0 0 0.0833333 -232.417 -104)"
     d="M 3286.58,1590.64 L 3298.58,1583.71 L 3459.3,1676.51 L 3453.3,1686.9 L 3286.58,1590.64 Z "
     id="path15" />
  <path
     stroke="none"
     fill="#000000"
     transform="matrix(0.0833333 0 0 0.0833333 -232.417 -104)"
     d="M 3286.58,1299.18 L 3298.58,1299.18 L 3298.58,1583.71 L 3286.58,1590.64 L 3286.58,1299.18 Z "
     id="path16" />
  <path
     d="m 9.6679688,-69.726562 q 0,-35.644528 19.1406252,-55.761718 19.140625,-20.21484 49.414062,-20.21484 19.824219,0 35.742184,9.47265 15.91797,9.47266 24.21875,26.46484 8.39844,16.894536 8.39844,38.378911 0,21.777344 -8.78906,38.964844 -8.78906,17.1875 -24.90234,26.0742188 -16.113286,8.7890625 -34.76563,8.7890625 -20.214844,0 -36.132813,-9.765625 Q 26.074219,-17.089844 17.871094,-33.984375 9.6679688,-50.878906 9.6679688,-69.726562 Z m 19.5312502,0.292968 q 0,25.878907 13.867187,40.820313 13.964844,14.84375 34.960938,14.84375 21.386718,0 35.156246,-15.039063 13.86719,-15.039062 13.86719,-42.675781 0,-17.480469 -5.95703,-30.468755 -5.85937,-13.08593 -17.28516,-20.21484 -11.328121,-7.22656 -25.488278,-7.22656 -20.117187,0 -34.667968,13.86719 -14.453125,13.76953 -14.453125,46.093746 z"
     id="text16"
     style="font-size:200px;font-family:Arial"
     transform="matrix(0.0833333 0 0 0.0833333 14.6803 46.7647)"
     aria-label="O" />
  <path
     stroke="none"
     fill="#000000"
     transform="matrix(0.0833333 0 0 0.0833333 -232.417 -104)"
     d="M 3144.81,1709.35 L 3138.81,1698.95 L 3315.5,1596.95 L 3321.5,1607.34 L 3144.81,1709.35 Z "
     id="path17" />
  <path
     stroke="none"
     fill="#000000"
     transform="matrix(0.0833333 0 0 0.0833333 -232.417 -104)"
     d="M 3118.89,1664.45 L 3112.89,1654.06 L 3289.58,1552.05 L 3295.58,1562.44 L 3118.89,1664.45 Z "
     id="path18" />
  <path
     stroke="none"
     fill="#000000"
     transform="matrix(0.0833333 0 0 0.0833333 -232.417 -104)"
     d="M 3208.17,2766.89 L 3194.46,2768.86 L 3260.51,2603.86 L 3271.65,2608.32 L 3208.17,2766.89 Z "
     id="path19" />
  <path
     stroke="none"
     fill="#000000"
     transform="matrix(0.0833333 0 0 0.0833333 -232.417 -104)"
     d="M 3384.07,2990.54 L 3374.64,2997.96 L 3194.46,2768.86 L 3208.17,2766.89 L 3384.07,2990.54 Z "
     id="path20" />
  <path
     d="m 9.6679688,-69.726562 q 0,-35.644528 19.1406252,-55.761718 19.140625,-20.21484 49.414062,-20.21484 19.824219,0 35.742184,9.47265 15.91797,9.47266 24.21875,26.46484 8.39844,16.894536 8.39844,38.378911 0,21.777344 -8.78906,38.964844 -8.78906,17.1875 -24.90234,26.0742188 -16.113286,8.7890625 -34.76563,8.7890625 -20.214844,0 -36.132813,-9.765625 Q 26.074219,-17.089844 17.871094,-33.984375 9.6679688,-50.878906 9.6679688,-69.726562 Z m 19.5312502,0.292968 q 0,25.878907 13.867187,40.820313 13.964844,14.84375 34.960938,14.84375 21.386718,0 35.156246,-15.039063 13.86719,-15.039062 13.86719,-42.675781 0,-17.480469 -5.95703,-30.468755 -5.85937,-13.08593 -17.28516,-20.21484 -11.328121,-7.22656 -25.488278,-7.22656 -20.117187,0 -34.667968,13.86719 -14.453125,13.76953 -14.453125,46.093746 z"
     id="text20"
     style="font-size:200px;font-family:Arial"
     transform="matrix(0.0833333 0 0 0.0833333 4.10424 136.573)"
     aria-label="O" />
  <path
     stroke="none"
     fill="#000000"
     transform="matrix(0.0833333 0 0 0.0833333 -232.417 -104)"
     d="M 3019.09,2826.33 L 3017.38,2814.45 L 3218.97,2785.46 L 3220.67,2797.34 L 3019.09,2826.33 Z "
     id="path21" />
  <path
     stroke="none"
     fill="#000000"
     transform="matrix(0.0833333 0 0 0.0833333 -232.417 -104)"
     d="M 3011.71,2775.02 L 3010,2763.14 L 3211.59,2734.15 L 3213.29,2746.02 L 3011.71,2775.02 Z "
     id="path22" />
  <path
     stroke="none"
     fill="#000000"
     transform="matrix(0.0833333 0 0 0.0833333 -232.417 -104)"
     d="M 4021.95,2799.46 L 4008.12,2800.29 L 4087.79,2640.87 L 4098.52,2646.23 L 4021.95,2799.46 Z "
     id="path23" />
  <path
     stroke="none"
     fill="#000000"
     transform="matrix(0.0833333 0 0 0.0833333 -232.417 -104)"
     d="M 4176.87,3033.98 L 4173.77,3040.18 L 4166.85,3040.6 L 4008.12,2800.29 L 4021.95,2799.46 L 4176.87,3033.98 Z "
     id="path24" />
  <path
     d="m 9.6679688,-69.726562 q 0,-35.644528 19.1406252,-55.761718 19.140625,-20.21484 49.414062,-20.21484 19.824219,0 35.742184,9.47265 15.91797,9.47266 24.21875,26.46484 8.39844,16.894536 8.39844,38.378911 0,21.777344 -8.78906,38.964844 -8.78906,17.1875 -24.90234,26.0742188 -16.113286,8.7890625 -34.76563,8.7890625 -20.214844,0 -36.132813,-9.765625 Q 26.074219,-17.089844 17.871094,-33.984375 9.6679688,-50.878906 9.6679688,-69.726562 Z m 19.5312502,0.292968 q 0,25.878907 13.867187,40.820313 13.964844,14.84375 34.960938,14.84375 21.386718,0 35.156246,-15.039063 13.86719,-15.039062 13.86719,-42.675781 0,-17.480469 -5.95703,-30.468755 -5.85937,-13.08593 -17.28516,-20.21484 -11.328121,-7.22656 -25.488278,-7.22656 -20.117187,0 -34.667968,13.86719 -14.453125,13.76953 -14.453125,46.093746 z"
     id="text24"
     style="font-size:200px;font-family:Arial"
     transform="matrix(0.0833333 0 0 0.0833333 71.7131 137.266)"
     aria-label="O" />
  <path
     stroke="none"
     fill="#000000"
     transform="matrix(0.0833333 0 0 0.0833333 -232.417 -104)"
     d="M 3829.17,2843.04 L 3828.45,2831.07 L 4031.17,2818.86 L 4031.89,2830.84 L 3829.17,2843.04 Z "
     id="path25" />
  <path
     stroke="none"
     fill="#000000"
     transform="matrix(0.0833333 0 0 0.0833333 -232.417 -104)"
     d="M 3826.06,2791.3 L 3825.33,2779.32 L 4028.06,2767.11 L 4028.78,2779.09 L 3826.06,2791.3 Z "
     id="path26" />
  <path
     stroke="none"
     fill="#000000"
     transform="matrix(0.0833333 0 0 0.0833333 -232.417 -104)"
     d="M 4051.94,3297.38 L 4045.02,3297.8 L 4041.21,3292.02 L 4166.85,3040.6 L 4173.77,3040.18 L 4177.59,3045.96 L 4051.94,3297.38 Z "
     id="path27" />
  <path
     stroke="none"
     fill="#000000"
     transform="matrix(0.0833333 0 0 0.0833333 -232.417 -104)"
     d="M 4110.14,3296.88 L 4099.41,3291.52 L 4201.4,3087.45 L 4212.13,3092.81 L 4110.14,3296.88 Z "
     id="path28" />
  <path
     stroke="none"
     fill="#000000"
     transform="matrix(0.0833333 0 0 0.0833333 -232.417 -104)"
     d="M 4206.85,3531.91 L 4200.66,3544.31 L 4041.93,3304 L 4045.02,3297.8 L 4051.94,3297.38 L 4206.85,3531.91 Z "
     id="path29" />
  <path
     stroke="none"
     fill="#000000"
     transform="matrix(0.0833333 0 0 0.0833333 -232.417 -104)"
     d="M 4487.42,3515.01 L 4495.06,3526.58 L 4200.66,3544.31 L 4206.85,3531.91 L 4487.42,3515.01 Z "
     id="path30" />
  <path
     stroke="none"
     fill="#000000"
     transform="matrix(0.0833333 0 0 0.0833333 -232.417 -104)"
     d="M 4457.88,3464.86 L 4458.61,3476.84 L 4230.88,3490.55 L 4230.16,3478.57 L 4457.88,3464.86 Z "
     id="path31" />
  <path
     stroke="none"
     fill="#000000"
     transform="matrix(0.0833333 0 0 0.0833333 -232.417 -104)"
     d="M 4613.07,3263.59 L 4626.9,3262.76 L 4495.06,3526.58 L 4487.42,3515.01 L 4613.07,3263.59 Z "
     id="path32" />
  <path
     stroke="none"
     fill="#000000"
     transform="matrix(0.0833333 0 0 0.0833333 -232.417 -104)"
     d="M 4458.15,3029.06 L 4464.35,3016.67 L 4626.9,3262.76 L 4613.07,3263.59 L 4458.15,3029.06 Z "
     id="path33" />
  <path
     stroke="none"
     fill="#000000"
     transform="matrix(0.0833333 0 0 0.0833333 -232.417 -104)"
     d="M 4429.48,3079.72 L 4439.5,3073.11 L 4565.24,3263.47 L 4555.22,3270.08 L 4429.48,3079.72 Z "
     id="path34" />
  <path
     stroke="none"
     fill="#000000"
     transform="matrix(0.0833333 0 0 0.0833333 -232.417 -104)"
     d="M 4177.59,3045.96 L 4173.77,3040.18 L 4176.87,3033.98 L 4464.35,3016.67 L 4458.15,3029.06 L 4177.59,3045.96 Z "
     id="path35" />
  <path
     stroke="none"
     fill="#000000"
     transform="matrix(0.0833333 0 0 0.0833333 -232.417 -104)"
     d="M 3761.36,3320.9 L 3753.73,3309.33 L 4041.21,3292.02 L 4045.02,3297.8 L 4041.93,3304 L 3761.36,3320.9 Z "
     id="path36" />
  <path
     d="M 16.015625,0 V -143.16406 H 34.960937 V -84.375 H 109.375 v -58.78906 h 18.94531 V 0 H 109.375 V -67.480469 H 34.960937 V 0 Z M 154.10156,-69.726562 q 0,-35.644528 19.14063,-55.761718 19.14062,-20.21484 49.41406,-20.21484 19.82422,0 35.74219,9.47265 15.91797,9.47266 24.21875,26.46484 8.39843,16.894536 8.39843,38.378911 0,21.777344 -8.78906,38.964844 -8.78906,17.1875 -24.90234,26.0742188 -16.11328,8.7890625 -34.76563,8.7890625 -20.21484,0 -36.13281,-9.765625 -15.91797,-9.7656253 -24.12109,-26.6601563 -8.20313,-16.894531 -8.20313,-35.742187 z m 19.53125,0.292968 q 0,25.878907 13.86719,40.820313 13.96484,14.84375 34.96094,14.84375 21.38672,0 35.15625,-15.039063 13.86718,-15.039062 13.86718,-42.675781 0,-17.480469 -5.95703,-30.468755 -5.85937,-13.08593 -17.28515,-20.21484 -11.32813,-7.22656 -25.48828,-7.22656 -20.11719,0 -34.66797,13.86719 -14.45313,13.76953 -14.45313,46.093746 z"
     id="text36"
     style="font-size:200px;font-family:Arial"
     transform="matrix(0.0833333 0 0 0.0833333 51.4472 200.228)"
     aria-label="HO" />
  <path
     stroke="none"
     fill="#000000"
     transform="matrix(0.0833333 0 0 0.0833333 -232.417 -104)"
     d="M 3678.04,3487.63 L 3667.31,3482.26 L 3753.73,3309.33 L 3761.36,3320.9 L 3678.04,3487.63 Z "
     id="path37" />
  <path
     d="m 9.6679688,-69.726562 q 0,-35.644528 19.1406252,-55.761718 19.140625,-20.21484 49.414062,-20.21484 19.824219,0 35.742184,9.47265 15.91797,9.47266 24.21875,26.46484 8.39844,16.894536 8.39844,38.378911 0,21.777344 -8.78906,38.964844 -8.78906,17.1875 -24.90234,26.0742188 -16.113286,8.7890625 -34.76563,8.7890625 -20.214844,0 -36.132813,-9.765625 Q 26.074219,-17.089844 17.871094,-33.984375 9.6679688,-50.878906 9.6679688,-69.726562 Z m 19.5312502,0.292968 q 0,25.878907 13.867187,40.820313 13.964844,14.84375 34.960938,14.84375 21.386718,0 35.156246,-15.039063 13.86719,-15.039062 13.86719,-42.675781 0,-17.480469 -5.95703,-30.468755 -5.85937,-13.08593 -17.28516,-20.21484 -11.328121,-7.22656 -25.488278,-7.22656 -20.117187,0 -34.667968,13.86719 -14.453125,13.76953 -14.453125,46.093746 z"
     id="text37"
     style="font-size:200px;font-family:Arial"
     transform="matrix(0.0833333 0 0 0.0833333 60.9843 158.734)"
     aria-label="O" />
  <path
     stroke="none"
     fill="#000000"
     transform="matrix(0.0833333 0 0 0.0833333 -232.417 -104)"
     d="M 3634.25,3186.36 L 3644.26,3179.75 L 3749.17,3338.58 L 3739.16,3345.19 L 3634.25,3186.36 Z "
     id="path38" />
  <path
     stroke="none"
     fill="#000000"
     transform="matrix(0.0833333 0 0 0.0833333 -232.417 -104)"
     d="M 3677.5,3157.79 L 3687.51,3151.18 L 3792.43,3310.01 L 3782.41,3316.62 L 3677.5,3157.79 Z "
     id="path39" />
  <path
     stroke="#000000"
     stroke-width="12"
     fill="none"
     transform="matrix(0.0833333 0 0 0.0833333 -232.417 -104)"
     d="M 4795.5,1920 L 4848,1920 "
     id="path40" />
  <path
     stroke="#000000"
     stroke-width="12"
     fill="none"
     transform="matrix(0.0833333 0 0 0.0833333 -232.417 -104)"
     d="M 4848,1920 L 4848,2640 "
     id="path41" />
  <path
     stroke="#000000"
     stroke-width="12"
     fill="none"
     transform="matrix(0.0833333 0 0 0.0833333 -232.417 -104)"
     d="M 4848,2640 L 4795.5,2640 "
     id="path42" />
  <path
     d="M 9.8876953,0 V -77.783203 H 21.75293 v 11.05957 q 8.569336,-12.817383 24.755859,-12.817383 7.03125,0 12.890625,2.563477 5.932617,2.490234 8.862305,6.591797 2.929687,4.101562 4.101562,9.741211 0.732422,3.662109 0.732422,12.817383 V 0 H 59.912109 v -47.314453 q 0,-8.056641 -1.538086,-12.011719 -1.538086,-4.02832 -5.493164,-6.37207 -3.881836,-2.416992 -9.155273,-2.416992 -8.422852,0 -14.575195,5.346679 -6.079102,5.34668 -6.079102,20.288086 V 0 Z"
     id="text42"
     style="font-size:150px;font-family:Arial"
     transform="matrix(0.0833333 0 0 0.0833333 175.333 119.84)"
     aria-label="n" />
  <path
     stroke="#000000"
     stroke-width="12"
     fill="none"
     transform="matrix(0.0833333 0 0 0.0833333 -232.417 -104)"
     d="M 3016.5,2640 L 2964,2640 "
     id="path43" />
  <path
     stroke="#000000"
     stroke-width="12"
     fill="none"
     transform="matrix(0.0833333 0 0 0.0833333 -232.417 -104)"
     d="M 2964,2640 L 2964,1920 "
     id="path44" />
  <path
     stroke="#000000"
     stroke-width="12"
     fill="none"
     transform="matrix(0.0833333 0 0 0.0833333 -232.417 -104)"
     d="M 2964,1920 L 3016.5,1920 "
     id="path45" />
</svg>
