<?xml version="1.0" encoding="UTF-8"?>
<!-- Converted by misc2svg (http://www.network-science.de/tools/misc2svg/) -->
<svg xmlns="http://www.w3.org/2000/svg" xmlns:xlink="http://www.w3.org/1999/xlink" width="454pt" height="563pt" viewBox="0 0 454 563" version="1.1">
<defs>
<clipPath id="clip1">
  <path d="M 0 562.5 L 453.75 562.5 L 453.75 0 L 0 0 L 0 562.5 Z M 0 562.5 "/>
</clipPath>
</defs>
<g id="misc2svg">
<g clip-path="url(#clip1)" clip-rule="nonzero">
<path style=" stroke:none;fill-rule:nonzero;fill:rgb(0%,0%,0%);fill-opacity:1;" d="M 295.382812 318.96875 C 295.382812 315.414062 296.339844 312.632812 298.253906 310.609375 C 300.167969 308.59375 302.640625 307.582031 305.675781 307.582031 C 307.652344 307.582031 309.4375 308.0625 311.027344 309.007812 C 312.628906 309.945312 313.84375 311.269531 314.679688 312.972656 C 315.507812 314.667969 315.929688 316.585938 315.929688 318.734375 C 315.929688 320.914062 315.484375 322.855469 314.601562 324.574219 C 313.726562 326.292969 312.484375 327.597656 310.871094 328.480469 C 309.253906 329.367188 307.515625 329.808594 305.65625 329.808594 C 303.632812 329.808594 301.828125 329.320312 300.226562 328.34375 C 298.632812 327.367188 297.433594 326.035156 296.613281 324.339844 C 295.792969 322.648438 295.382812 320.859375 295.382812 318.96875 Z M 298.3125 319.027344 C 298.3125 321.605469 299.007812 323.648438 300.402344 325.140625 C 301.792969 326.625 303.539062 327.367188 305.636719 327.367188 C 307.785156 327.367188 309.546875 326.621094 310.929688 325.121094 C 312.304688 323.613281 313 321.476562 313 318.714844 C 313 316.972656 312.695312 315.449219 312.101562 314.144531 C 311.515625 312.832031 310.648438 311.816406 309.503906 311.097656 C 308.371094 310.382812 307.101562 310.023438 305.695312 310.023438 C 303.671875 310.023438 301.9375 310.71875 300.480469 312.09375 C 299.035156 313.476562 298.3125 315.785156 298.3125 319.027344 Z M 298.3125 319.027344 "/>
<path style=" stroke:none;fill-rule:nonzero;fill:rgb(0%,0%,0%);fill-opacity:1;" d="M 338.320312 393.34375 C 338.320312 389.789062 339.277344 387.007812 341.191406 384.984375 C 343.105469 382.96875 345.578125 381.957031 348.613281 381.957031 C 350.589844 381.957031 352.375 382.4375 353.964844 383.382812 C 355.566406 384.320312 356.78125 385.644531 357.617188 387.347656 C 358.445312 389.042969 358.867188 390.960938 358.867188 393.109375 C 358.867188 395.289062 358.421875 397.230469 357.539062 398.949219 C 356.664062 400.667969 355.421875 401.972656 353.808594 402.855469 C 352.191406 403.742188 350.453125 404.183594 348.59375 404.183594 C 346.570312 404.183594 344.765625 403.695312 343.164062 402.71875 C 341.570312 401.742188 340.371094 400.410156 339.550781 398.714844 C 338.730469 397.023438 338.320312 395.234375 338.320312 393.34375 Z M 341.25 393.402344 C 341.25 395.980469 341.945312 398.023438 343.339844 399.515625 C 344.730469 401 346.476562 401.742188 348.574219 401.742188 C 350.722656 401.742188 352.484375 400.996094 353.867188 399.496094 C 355.242188 397.988281 355.9375 395.851562 355.9375 393.089844 C 355.9375 391.347656 355.632812 389.824219 355.039062 388.519531 C 354.453125 387.207031 353.585938 386.191406 352.441406 385.472656 C 351.308594 384.757812 350.039062 384.398438 348.632812 384.398438 C 346.609375 384.398438 344.875 385.09375 343.417969 386.46875 C 341.972656 387.851562 341.25 390.160156 341.25 393.402344 Z M 341.25 393.402344 "/>
<path style=" stroke:none;fill-rule:nonzero;fill:rgb(0%,0%,0%);fill-opacity:1;" d="M 308.25 370.25 L 310.375 370.25 L 310.375 332.625 L 308.25 332.625 L 308.25 370.25 Z M 308.25 370.25 "/>
<path style=" stroke:none;fill-rule:nonzero;fill:rgb(0%,0%,0%);fill-opacity:1;" d="M 300.8125 370.25 L 302.9375 370.25 L 302.9375 332.625 L 300.8125 332.625 L 300.8125 370.25 Z M 300.8125 370.25 "/>
<path style=" stroke:none;fill-rule:nonzero;fill:rgb(0%,0%,0%);fill-opacity:1;" d="M 337.4375 385.25 L 336.375 387.125 L 305.5625 369.3125 L 305.5625 366.875 L 337.4375 385.25 Z M 337.4375 385.25 "/>
<path style=" stroke:none;fill-rule:nonzero;fill:rgb(0%,0%,0%);fill-opacity:1;" d="M 262.625 394.125 L 262.625 391.6875 L 305.5625 366.875 L 305.5625 369.3125 L 262.625 394.125 Z M 262.625 394.125 "/>
<path style=" stroke:none;fill-rule:nonzero;fill:rgb(0%,0%,0%);fill-opacity:1;" d="M 219.625 369.3125 L 219.625 366.875 L 262.625 391.6875 L 262.625 394.125 L 219.625 369.3125 Z M 219.625 369.3125 "/>
<path style=" stroke:none;fill-rule:nonzero;fill:rgb(0%,0%,0%);fill-opacity:1;" d="M 176.6875 394.125 L 176.6875 391.6875 L 219.625 366.875 L 219.625 369.3125 L 176.6875 394.125 Z M 176.6875 394.125 "/>
<path style=" stroke:none;fill-rule:nonzero;fill:rgb(0%,0%,0%);fill-opacity:1;" d="M 133.6875 369.3125 L 133.6875 366.875 L 176.6875 391.6875 L 176.6875 394.125 L 133.6875 369.3125 Z M 133.6875 369.3125 "/>
<path style=" stroke:none;fill-rule:nonzero;fill:rgb(0%,0%,0%);fill-opacity:1;" d="M 90.75 394.125 L 90.75 391.6875 L 133.6875 366.875 L 133.6875 369.3125 L 90.75 394.125 Z M 90.75 394.125 "/>
<path style=" stroke:none;fill-rule:nonzero;fill:rgb(0%,0%,0%);fill-opacity:1;" d="M 47.75 369.3125 L 47.75 366.875 L 90.75 391.6875 L 90.75 394.125 L 47.75 369.3125 Z M 47.75 369.3125 "/>
<path style=" stroke:none;fill-rule:nonzero;fill:rgb(0%,0%,0%);fill-opacity:1;" d="M 5.875 393.5 L 3.75 392.3125 L 47.75 366.875 L 47.75 369.3125 L 5.875 393.5 Z M 5.875 393.5 "/>
<path style=" stroke:none;fill-rule:nonzero;fill:rgb(0%,0%,0%);fill-opacity:1;" d="M 5.875 441.875 L 3.75 443.125 L 3.75 392.3125 L 5.875 393.5 L 5.875 441.875 Z M 5.875 441.875 "/>
<path style=" stroke:none;fill-rule:nonzero;fill:rgb(0%,0%,0%);fill-opacity:1;" d="M 47.75 466.0625 L 47.75 468.5625 L 3.75 443.125 L 5.875 441.875 L 47.75 466.0625 Z M 47.75 466.0625 "/>
<path style=" stroke:none;fill-rule:nonzero;fill:rgb(0%,0%,0%);fill-opacity:1;" d="M 90.75 441.3125 L 90.75 443.75 L 47.75 468.5625 L 47.75 466.0625 L 90.75 441.3125 Z M 90.75 441.3125 "/>
<path style=" stroke:none;fill-rule:nonzero;fill:rgb(0%,0%,0%);fill-opacity:1;" d="M 133.6875 466.0625 L 133.6875 468.5625 L 90.75 443.75 L 90.75 441.3125 L 133.6875 466.0625 Z M 133.6875 466.0625 "/>
<path style=" stroke:none;fill-rule:nonzero;fill:rgb(0%,0%,0%);fill-opacity:1;" d="M 176.6875 441.3125 L 176.6875 443.75 L 133.6875 468.5625 L 133.6875 466.0625 L 176.6875 441.3125 Z M 176.6875 441.3125 "/>
<path style=" stroke:none;fill-rule:nonzero;fill:rgb(0%,0%,0%);fill-opacity:1;" d="M 219.625 466.0625 L 219.625 468.5625 L 176.6875 443.75 L 176.6875 441.3125 L 219.625 466.0625 Z M 219.625 466.0625 "/>
<path style=" stroke:none;fill-rule:nonzero;fill:rgb(0%,0%,0%);fill-opacity:1;" d="M 262.625 441.3125 L 262.625 443.75 L 219.625 468.5625 L 219.625 466.0625 L 262.625 441.3125 Z M 262.625 441.3125 "/>
<path style=" stroke:none;fill-rule:nonzero;fill:rgb(0%,0%,0%);fill-opacity:1;" d="M 306.625 466.6875 L 304.5 467.9375 L 262.625 443.75 L 262.625 441.3125 L 306.625 466.6875 Z M 306.625 466.6875 "/>
<path style=" stroke:none;fill-rule:nonzero;fill:rgb(0%,0%,0%);fill-opacity:1;" d="M 306.625 517.5625 L 304.5 516.3125 L 304.5 467.9375 L 306.625 466.6875 L 306.625 517.5625 Z M 306.625 517.5625 "/>
<path style=" stroke:none;fill-rule:nonzero;fill:rgb(0%,0%,0%);fill-opacity:1;" d="M 219.761719 552.6875 L 219.761719 531.203125 L 222.613281 531.203125 L 222.613281 540.03125 L 233.765625 540.03125 L 233.765625 531.203125 L 236.617188 531.203125 L 236.617188 552.6875 L 233.765625 552.6875 L 233.765625 542.570312 L 222.613281 542.570312 L 222.613281 552.6875 L 219.761719 552.6875 Z M 219.761719 552.6875 "/>
<path style=" stroke:none;fill-rule:nonzero;fill:rgb(0%,0%,0%);fill-opacity:1;" d="M 240.023438 554.789062 L 242.015625 554.535156 C 242.234375 555.65625 242.621094 556.460938 243.167969 556.957031 C 243.714844 557.453125 244.378906 557.699219 245.160156 557.699219 C 246.097656 557.699219 246.882812 557.378906 247.523438 556.742188 C 248.160156 556.089844 248.480469 555.289062 248.480469 554.339844 C 248.480469 553.429688 248.179688 552.679688 247.582031 552.09375 C 246.996094 551.496094 246.246094 551.195312 245.335938 551.195312 C 244.957031 551.195312 244.488281 551.273438 243.929688 551.429688 L 244.144531 549.691406 C 244.273438 549.703125 244.382812 549.710938 244.476562 549.710938 C 245.308594 549.710938 246.0625 549.488281 246.742188 549.046875 C 247.417969 548.605469 247.757812 547.925781 247.757812 547.015625 C 247.757812 546.285156 247.507812 545.6875 247.015625 545.21875 C 246.519531 544.738281 245.886719 544.496094 245.121094 544.496094 C 244.351562 544.496094 243.707031 544.738281 243.1875 545.21875 C 242.679688 545.699219 242.351562 546.429688 242.210938 547.40625 L 240.238281 547.054688 C 240.472656 545.726562 241.019531 544.699219 241.878906 543.96875 C 242.738281 543.238281 243.804688 542.875 245.082031 542.875 C 245.953125 542.875 246.761719 543.0625 247.503906 543.441406 C 248.246094 543.820312 248.8125 544.332031 249.203125 544.984375 C 249.59375 545.636719 249.789062 546.324219 249.789062 547.054688 C 249.789062 547.757812 249.597656 548.394531 249.222656 548.96875 C 248.855469 549.527344 248.304688 549.976562 247.5625 550.316406 C 248.511719 550.539062 249.246094 551 249.769531 551.703125 C 250.300781 552.394531 250.570312 553.253906 250.570312 554.28125 C 250.570312 555.6875 250.054688 556.886719 249.027344 557.875 C 248.011719 558.851562 246.722656 559.339844 245.160156 559.339844 C 243.738281 559.339844 242.5625 558.917969 241.625 558.070312 C 240.699219 557.222656 240.164062 556.128906 240.023438 554.789062 Z M 240.023438 554.789062 "/>
<path style=" stroke:none;fill-rule:nonzero;fill:rgb(0%,0%,0%);fill-opacity:1;" d="M 269.300781 545.148438 L 272.152344 545.871094 C 271.550781 548.207031 270.476562 549.988281 268.929688 551.222656 C 267.375 552.449219 265.480469 553.058594 263.246094 553.058594 C 260.941406 553.058594 259.054688 552.589844 257.601562 551.652344 C 256.15625 550.707031 255.050781 549.339844 254.300781 547.550781 C 253.542969 545.753906 253.167969 543.835938 253.167969 541.789062 C 253.167969 539.554688 253.585938 537.601562 254.4375 535.929688 C 255.296875 534.265625 256.511719 533 258.089844 532.140625 C 259.660156 531.28125 261.398438 530.851562 263.304688 530.851562 C 265.453125 530.851562 267.253906 531.398438 268.714844 532.492188 C 270.183594 533.585938 271.203125 535.125 271.78125 537.101562 L 268.988281 537.765625 C 268.480469 536.203125 267.746094 535.066406 266.800781 534.347656 C 265.863281 533.636719 264.675781 533.273438 263.246094 533.273438 C 261.589844 533.273438 260.207031 533.675781 259.105469 534.464844 C 257.996094 535.261719 257.214844 536.320312 256.761719 537.648438 C 256.316406 538.976562 256.097656 540.355469 256.097656 541.769531 C 256.097656 543.597656 256.355469 545.1875 256.878906 546.554688 C 257.410156 547.921875 258.234375 548.949219 259.359375 549.621094 C 260.492188 550.285156 261.707031 550.617188 263.011719 550.617188 C 264.613281 550.617188 265.960938 550.164062 267.054688 549.25 C 268.15625 548.328125 268.910156 546.960938 269.300781 545.148438 Z M 269.300781 545.148438 "/>
<path style=" stroke:none;fill-rule:nonzero;fill:rgb(0%,0%,0%);fill-opacity:1;" d="M 274.625 536 L 273.5625 534.1875 L 304.5 516.3125 L 306.625 517.5625 L 274.625 536 Z M 274.625 536 "/>
<path style="fill:none;stroke-width:27;stroke-linecap:butt;stroke-linejoin:miter;stroke:rgb(0%,0%,0%);stroke-opacity:1;stroke-miterlimit:10;" d="M 7573.125 7398.875 C 7573.125 7308.5 7499.8125 7235.25 7409.5 7235.25 C 7319.125 7235.25 7245.875 7308.5 7245.875 7398.875 C 7245.875 7489.3125 7319.125 7562.5 7409.5 7562.5 C 7499.8125 7562.5 7573.125 7489.3125 7573.125 7398.875 Z M 7573.125 7398.875 " transform="matrix(0.0625,0,0,0.0625,-92.5,-82.5)"/>
<path style="fill:none;stroke-width:27;stroke-linecap:butt;stroke-linejoin:miter;stroke:rgb(0%,0%,0%);stroke-opacity:1;stroke-miterlimit:10;" d="M 7327.6875 7398.875 L 7491.3125 7398.875 " transform="matrix(0.0625,0,0,0.0625,-92.5,-82.5)"/>
<path style="fill:none;stroke-width:27;stroke-linecap:butt;stroke-linejoin:miter;stroke:rgb(0%,0%,0%);stroke-opacity:1;stroke-miterlimit:10;" d="M 8661.9375 5478.5 C 8661.9375 5388.125 8588.6875 5314.8125 8498.3125 5314.8125 C 8408 5314.8125 8334.6875 5388.125 8334.6875 5478.5 C 8334.6875 5568.8125 8408 5642.125 8498.3125 5642.125 C 8588.6875 5642.125 8661.9375 5568.8125 8661.9375 5478.5 Z M 8661.9375 5478.5 " transform="matrix(0.0625,0,0,0.0625,-92.5,-82.5)"/>
<path style="fill:none;stroke-width:27;stroke-linecap:butt;stroke-linejoin:miter;stroke:rgb(0%,0%,0%);stroke-opacity:1;stroke-miterlimit:10;" d="M 8416.5 5478.5 L 8580.125 5478.5 " transform="matrix(0.0625,0,0,0.0625,-92.5,-82.5)"/>
<path style="fill:none;stroke-width:27;stroke-linecap:butt;stroke-linejoin:miter;stroke:rgb(0%,0%,0%);stroke-opacity:1;stroke-miterlimit:10;" d="M 8498.3125 5396.625 L 8498.3125 5560.3125 " transform="matrix(0.0625,0,0,0.0625,-92.5,-82.5)"/>
<path style=" stroke:none;fill-rule:nonzero;fill:rgb(0%,0%,0%);fill-opacity:1;" d="M 393.011719 271.710938 L 395.863281 272.433594 C 395.261719 274.765625 394.1875 276.550781 392.640625 277.785156 C 391.085938 279.011719 389.195312 279.621094 386.957031 279.621094 C 384.652344 279.621094 382.765625 279.152344 381.3125 278.214844 C 379.867188 277.265625 378.765625 275.898438 378.011719 274.113281 C 377.253906 272.316406 376.878906 270.398438 376.878906 268.351562 C 376.878906 266.117188 377.296875 264.164062 378.148438 262.492188 C 379.007812 260.828125 380.222656 259.5625 381.800781 258.703125 C 383.375 257.84375 385.109375 257.414062 387.015625 257.414062 C 389.164062 257.414062 390.964844 257.960938 392.425781 259.054688 C 393.894531 260.148438 394.914062 261.6875 395.492188 263.664062 L 392.699219 264.328125 C 392.191406 262.765625 391.460938 261.628906 390.511719 260.910156 C 389.574219 260.195312 388.386719 259.835938 386.957031 259.835938 C 385.300781 259.835938 383.921875 260.234375 382.816406 261.027344 C 381.707031 261.824219 380.925781 262.882812 380.472656 264.210938 C 380.027344 265.539062 379.808594 266.914062 379.808594 268.332031 C 379.808594 270.15625 380.066406 271.75 380.589844 273.117188 C 381.121094 274.484375 381.945312 275.507812 383.070312 276.183594 C 384.203125 276.847656 385.417969 277.179688 386.722656 277.179688 C 388.324219 277.179688 389.671875 276.726562 390.765625 275.8125 C 391.867188 274.890625 392.621094 273.523438 393.011719 271.710938 Z M 393.011719 271.710938 "/>
<path style=" stroke:none;fill-rule:nonzero;fill:rgb(0%,0%,0%);fill-opacity:1;" d="M 409.167969 277.335938 C 408.191406 278.15625 407.246094 278.742188 406.335938 279.09375 C 405.4375 279.429688 404.472656 279.601562 403.445312 279.601562 C 401.738281 279.601562 400.425781 279.1875 399.5 278.351562 C 398.589844 277.523438 398.132812 276.453125 398.132812 275.148438 C 398.132812 274.382812 398.300781 273.683594 398.640625 273.058594 C 398.992188 272.433594 399.449219 271.9375 400.007812 271.554688 C 400.566406 271.164062 401.199219 270.871094 401.902344 270.675781 C 402.421875 270.546875 403.203125 270.417969 404.246094 270.285156 C 406.382812 270.027344 407.949219 269.71875 408.953125 269.367188 C 408.964844 269.015625 408.972656 268.789062 408.972656 268.683594 C 408.972656 267.617188 408.71875 266.863281 408.210938 266.417969 C 407.546875 265.820312 406.550781 265.519531 405.222656 265.519531 C 403.972656 265.519531 403.054688 265.742188 402.46875 266.183594 C 401.882812 266.613281 401.445312 267.382812 401.160156 268.488281 L 398.582031 268.136719 C 398.816406 267.03125 399.199219 266.140625 399.734375 265.460938 C 400.269531 264.789062 401.042969 264.265625 402.058594 263.898438 C 403.074219 263.523438 404.253906 263.332031 405.59375 263.332031 C 406.921875 263.332031 408.003906 263.488281 408.835938 263.800781 C 409.667969 264.113281 410.28125 264.515625 410.671875 264.992188 C 411.0625 265.460938 411.335938 266.0625 411.492188 266.789062 C 411.570312 267.234375 411.609375 268.039062 411.609375 269.210938 L 411.609375 272.726562 C 411.609375 275.179688 411.667969 276.726562 411.785156 277.375 C 411.902344 278.03125 412.125 278.65625 412.449219 279.25 L 409.695312 279.25 C 409.421875 278.703125 409.246094 278.070312 409.167969 277.335938 Z M 408.953125 271.4375 C 407.988281 271.828125 406.550781 272.160156 404.636719 272.433594 C 403.554688 272.589844 402.789062 272.765625 402.332031 272.960938 C 401.890625 273.15625 401.542969 273.445312 401.296875 273.820312 C 401.0625 274.203125 400.945312 274.617188 400.945312 275.070312 C 400.945312 275.773438 401.207031 276.359375 401.726562 276.828125 C 402.261719 277.296875 403.042969 277.53125 404.070312 277.53125 C 405.085938 277.53125 405.992188 277.3125 406.785156 276.867188 C 407.578125 276.429688 408.160156 275.820312 408.523438 275.050781 C 408.808594 274.453125 408.953125 273.578125 408.953125 272.414062 L 408.953125 271.4375 Z M 408.953125 271.4375 "/>
<path style=" stroke:none;fill-rule:nonzero;fill:rgb(0%,0%,0%);fill-opacity:1;" d="M 425.117188 267.171875 L 425.117188 269.066406 L 414.472656 269.066406 C 414.457031 268.585938 414.535156 268.128906 414.707031 267.699219 C 414.980469 266.972656 415.410156 266.253906 415.996094 265.550781 C 416.589844 264.847656 417.460938 264.035156 418.59375 263.109375 C 420.335938 261.679688 421.511719 260.546875 422.128906 259.710938 C 422.753906 258.867188 423.066406 258.070312 423.066406 257.328125 C 423.066406 256.535156 422.78125 255.871094 422.226562 255.335938 C 421.664062 254.804688 420.9375 254.535156 420.039062 254.535156 C 419.070312 254.535156 418.304688 254.824219 417.734375 255.394531 C 417.171875 255.96875 416.882812 256.757812 416.875 257.757812 L 414.84375 257.542969 C 414.984375 256.035156 415.507812 254.882812 416.40625 254.085938 C 417.3125 253.292969 418.539062 252.894531 420.078125 252.894531 C 421.609375 252.894531 422.832031 253.324219 423.730469 254.183594 C 424.636719 255.042969 425.097656 256.105469 425.097656 257.367188 C 425.097656 258.007812 424.960938 258.636719 424.6875 259.261719 C 424.421875 259.886719 423.988281 260.546875 423.378906 261.234375 C 422.761719 261.925781 421.746094 262.871094 420.332031 264.066406 C 419.144531 265.070312 418.382812 265.746094 418.046875 266.097656 C 417.703125 266.449219 417.429688 266.808594 417.226562 267.171875 L 425.117188 267.171875 Z M 425.117188 267.171875 "/>
<path style=" stroke:none;fill-rule:nonzero;fill:rgb(0%,0%,0%);fill-opacity:1;" d="M 296.195312 241.46875 C 296.195312 237.914062 297.152344 235.132812 299.066406 233.109375 C 300.980469 231.09375 303.453125 230.082031 306.488281 230.082031 C 308.464844 230.082031 310.25 230.5625 311.839844 231.507812 C 313.441406 232.445312 314.65625 233.769531 315.492188 235.472656 C 316.320312 237.167969 316.742188 239.085938 316.742188 241.234375 C 316.742188 243.414062 316.296875 245.355469 315.414062 247.074219 C 314.539062 248.792969 313.296875 250.097656 311.683594 250.980469 C 310.066406 251.867188 308.328125 252.308594 306.46875 252.308594 C 304.445312 252.308594 302.640625 251.820312 301.039062 250.84375 C 299.445312 249.867188 298.246094 248.535156 297.425781 246.839844 C 296.605469 245.148438 296.195312 243.359375 296.195312 241.46875 Z M 299.125 241.527344 C 299.125 244.105469 299.820312 246.148438 301.214844 247.640625 C 302.605469 249.125 304.351562 249.867188 306.449219 249.867188 C 308.597656 249.867188 310.359375 249.121094 311.742188 247.621094 C 313.117188 246.113281 313.8125 243.976562 313.8125 241.214844 C 313.8125 239.472656 313.507812 237.949219 312.914062 236.644531 C 312.328125 235.332031 311.460938 234.316406 310.316406 233.597656 C 309.183594 232.882812 307.914062 232.523438 306.507812 232.523438 C 304.484375 232.523438 302.75 233.21875 301.292969 234.59375 C 299.847656 235.976562 299.125 238.285156 299.125 241.527344 Z M 299.125 241.527344 "/>
<path style=" stroke:none;fill-rule:nonzero;fill:rgb(0%,0%,0%);fill-opacity:1;" d="M 339.132812 167.03125 C 339.132812 163.476562 340.089844 160.695312 342.003906 158.671875 C 343.917969 156.65625 346.390625 155.644531 349.425781 155.644531 C 351.402344 155.644531 353.1875 156.125 354.777344 157.070312 C 356.378906 158.007812 357.59375 159.332031 358.429688 161.035156 C 359.257812 162.730469 359.679688 164.648438 359.679688 166.796875 C 359.679688 168.976562 359.234375 170.917969 358.351562 172.636719 C 357.476562 174.355469 356.234375 175.660156 354.621094 176.542969 C 353.003906 177.429688 351.265625 177.871094 349.40625 177.871094 C 347.382812 177.871094 345.578125 177.382812 343.976562 176.40625 C 342.382812 175.429688 341.183594 174.097656 340.363281 172.402344 C 339.542969 170.710938 339.132812 168.921875 339.132812 167.03125 Z M 342.0625 167.089844 C 342.0625 169.667969 342.757812 171.710938 344.152344 173.203125 C 345.542969 174.6875 347.289062 175.429688 349.386719 175.429688 C 351.535156 175.429688 353.296875 174.683594 354.679688 173.183594 C 356.054688 171.675781 356.75 169.539062 356.75 166.777344 C 356.75 165.035156 356.445312 163.511719 355.851562 162.207031 C 355.265625 160.894531 354.398438 159.878906 353.253906 159.160156 C 352.121094 158.445312 350.851562 158.085938 349.445312 158.085938 C 347.421875 158.085938 345.6875 158.78125 344.230469 160.15625 C 342.785156 161.539062 342.0625 163.847656 342.0625 167.089844 Z M 342.0625 167.089844 "/>
<path style=" stroke:none;fill-rule:nonzero;fill:rgb(0%,0%,0%);fill-opacity:1;" d="M 301.625 227.3125 L 303.75 227.3125 L 303.75 189.25 L 301.625 189.25 L 301.625 227.3125 Z M 301.625 227.3125 "/>
<path style=" stroke:none;fill-rule:nonzero;fill:rgb(0%,0%,0%);fill-opacity:1;" d="M 309.0625 227.3125 L 311.1875 227.3125 L 311.1875 189.25 L 309.0625 189.25 L 309.0625 227.3125 Z M 309.0625 227.3125 "/>
<path style=" stroke:none;fill-rule:nonzero;fill:rgb(0%,0%,0%);fill-opacity:1;" d="M 337.0625 172.4375 L 338.125 174.3125 L 306.375 192.625 L 306.375 190.1875 L 337.0625 172.4375 Z M 337.0625 172.4375 "/>
<path style=" stroke:none;fill-rule:nonzero;fill:rgb(0%,0%,0%);fill-opacity:1;" d="M 263.4375 167.8125 L 263.4375 165.375 L 306.375 190.1875 L 306.375 192.625 L 263.4375 167.8125 Z M 263.4375 167.8125 "/>
<path style=" stroke:none;fill-rule:nonzero;fill:rgb(0%,0%,0%);fill-opacity:1;" d="M 220.4375 192.625 L 220.4375 190.1875 L 263.4375 165.375 L 263.4375 167.8125 L 220.4375 192.625 Z M 220.4375 192.625 "/>
<path style=" stroke:none;fill-rule:nonzero;fill:rgb(0%,0%,0%);fill-opacity:1;" d="M 177.5 167.8125 L 177.5 165.375 L 220.4375 190.1875 L 220.4375 192.625 L 177.5 167.8125 Z M 177.5 167.8125 "/>
<path style=" stroke:none;fill-rule:nonzero;fill:rgb(0%,0%,0%);fill-opacity:1;" d="M 134.5625 192.625 L 134.5625 190.1875 L 177.5 165.375 L 177.5 167.8125 L 134.5625 192.625 Z M 134.5625 192.625 "/>
<path style=" stroke:none;fill-rule:nonzero;fill:rgb(0%,0%,0%);fill-opacity:1;" d="M 91.5625 167.8125 L 91.5625 165.375 L 134.5625 190.1875 L 134.5625 192.625 L 91.5625 167.8125 Z M 91.5625 167.8125 "/>
<path style=" stroke:none;fill-rule:nonzero;fill:rgb(0%,0%,0%);fill-opacity:1;" d="M 48.625 192.625 L 48.625 190.1875 L 91.5625 165.375 L 91.5625 167.8125 L 48.625 192.625 Z M 48.625 192.625 "/>
<path style=" stroke:none;fill-rule:nonzero;fill:rgb(0%,0%,0%);fill-opacity:1;" d="M 4.5625 167.1875 L 6.6875 166 L 48.625 190.1875 L 48.625 192.625 L 4.5625 167.1875 Z M 4.5625 167.1875 "/>
<path style=" stroke:none;fill-rule:nonzero;fill:rgb(0%,0%,0%);fill-opacity:1;" d="M 4.5625 116.375 L 6.6875 117.5625 L 6.6875 166 L 4.5625 167.1875 L 4.5625 116.375 Z M 4.5625 116.375 "/>
<path style=" stroke:none;fill-rule:nonzero;fill:rgb(0%,0%,0%);fill-opacity:1;" d="M 48.625 90.9375 L 48.625 93.375 L 6.6875 117.5625 L 4.5625 116.375 L 48.625 90.9375 Z M 48.625 90.9375 "/>
<path style=" stroke:none;fill-rule:nonzero;fill:rgb(0%,0%,0%);fill-opacity:1;" d="M 91.5625 115.75 L 91.5625 118.1875 L 48.625 93.375 L 48.625 90.9375 L 91.5625 115.75 Z M 91.5625 115.75 "/>
<path style=" stroke:none;fill-rule:nonzero;fill:rgb(0%,0%,0%);fill-opacity:1;" d="M 134.5625 90.9375 L 134.5625 93.375 L 91.5625 118.1875 L 91.5625 115.75 L 134.5625 90.9375 Z M 134.5625 90.9375 "/>
<path style=" stroke:none;fill-rule:nonzero;fill:rgb(0%,0%,0%);fill-opacity:1;" d="M 177.5 115.75 L 177.5 118.1875 L 134.5625 93.375 L 134.5625 90.9375 L 177.5 115.75 Z M 177.5 115.75 "/>
<path style=" stroke:none;fill-rule:nonzero;fill:rgb(0%,0%,0%);fill-opacity:1;" d="M 220.4375 90.9375 L 220.4375 93.375 L 177.5 118.1875 L 177.5 115.75 L 220.4375 90.9375 Z M 220.4375 90.9375 "/>
<path style=" stroke:none;fill-rule:nonzero;fill:rgb(0%,0%,0%);fill-opacity:1;" d="M 263.4375 115.75 L 263.4375 118.1875 L 220.4375 93.375 L 220.4375 90.9375 L 263.4375 115.75 Z M 263.4375 115.75 "/>
<path style=" stroke:none;fill-rule:nonzero;fill:rgb(0%,0%,0%);fill-opacity:1;" d="M 305.3125 91.5625 L 307.4375 92.75 L 263.4375 118.1875 L 263.4375 115.75 L 305.3125 91.5625 Z M 305.3125 91.5625 "/>
<path style=" stroke:none;fill-rule:nonzero;fill:rgb(0%,0%,0%);fill-opacity:1;" d="M 305.3125 43.1875 L 307.4375 41.9375 L 307.4375 92.75 L 305.3125 91.5625 L 305.3125 43.1875 Z M 305.3125 43.1875 "/>
<path style=" stroke:none;fill-rule:nonzero;fill:rgb(0%,0%,0%);fill-opacity:1;" d="M 220.636719 28.6875 L 220.636719 7.203125 L 223.488281 7.203125 L 223.488281 16.03125 L 234.640625 16.03125 L 234.640625 7.203125 L 237.492188 7.203125 L 237.492188 28.6875 L 234.640625 28.6875 L 234.640625 18.570312 L 223.488281 18.570312 L 223.488281 28.6875 L 220.636719 28.6875 Z M 220.636719 28.6875 "/>
<path style=" stroke:none;fill-rule:nonzero;fill:rgb(0%,0%,0%);fill-opacity:1;" d="M 240.898438 30.785156 L 242.890625 30.53125 C 243.109375 31.65625 243.496094 32.460938 244.042969 32.953125 C 244.589844 33.453125 245.253906 33.695312 246.035156 33.695312 C 246.972656 33.695312 247.757812 33.378906 248.398438 32.738281 C 249.035156 32.089844 249.355469 31.289062 249.355469 30.335938 C 249.355469 29.429688 249.054688 28.675781 248.457031 28.089844 C 247.871094 27.496094 247.121094 27.191406 246.210938 27.191406 C 245.832031 27.191406 245.363281 27.269531 244.804688 27.425781 L 245.019531 25.6875 C 245.148438 25.703125 245.257812 25.707031 245.351562 25.707031 C 246.183594 25.707031 246.9375 25.488281 247.617188 25.042969 C 248.292969 24.605469 248.632812 23.925781 248.632812 23.011719 C 248.632812 22.285156 248.382812 21.683594 247.890625 21.214844 C 247.394531 20.738281 246.761719 20.492188 245.996094 20.492188 C 245.226562 20.492188 244.582031 20.738281 244.0625 21.214844 C 243.554688 21.699219 243.226562 22.425781 243.085938 23.402344 L 241.113281 23.050781 C 241.347656 21.722656 241.894531 20.699219 242.753906 19.964844 C 243.613281 19.238281 244.679688 18.871094 245.957031 18.871094 C 246.828125 18.871094 247.636719 19.0625 248.378906 19.4375 C 249.121094 19.820312 249.6875 20.332031 250.078125 20.980469 C 250.46875 21.636719 250.664062 22.324219 250.664062 23.050781 C 250.664062 23.753906 250.472656 24.394531 250.097656 24.964844 C 249.730469 25.527344 249.179688 25.976562 248.4375 26.3125 C 249.386719 26.539062 250.121094 26.996094 250.644531 27.699219 C 251.175781 28.394531 251.445312 29.253906 251.445312 30.277344 C 251.445312 31.683594 250.929688 32.886719 249.902344 33.871094 C 248.886719 34.847656 247.597656 35.335938 246.035156 35.335938 C 244.613281 35.335938 243.4375 34.917969 242.5 34.066406 C 241.574219 33.222656 241.039062 32.128906 240.898438 30.785156 Z M 240.898438 30.785156 "/>
<path style=" stroke:none;fill-rule:nonzero;fill:rgb(0%,0%,0%);fill-opacity:1;" d="M 270.175781 21.148438 L 273.027344 21.871094 C 272.425781 24.203125 271.351562 25.988281 269.804688 27.222656 C 268.25 28.449219 266.355469 29.058594 264.121094 29.058594 C 261.816406 29.058594 259.929688 28.589844 258.476562 27.652344 C 257.03125 26.703125 255.925781 25.335938 255.175781 23.550781 C 254.417969 21.753906 254.042969 19.835938 254.042969 17.789062 C 254.042969 15.554688 254.460938 13.601562 255.3125 11.929688 C 256.171875 10.265625 257.386719 9 258.964844 8.140625 C 260.535156 7.28125 262.273438 6.851562 264.179688 6.851562 C 266.328125 6.851562 268.128906 7.398438 269.589844 8.492188 C 271.058594 9.585938 272.078125 11.125 272.65625 13.101562 L 269.863281 13.765625 C 269.355469 12.203125 268.621094 11.066406 267.675781 10.347656 C 266.738281 9.632812 265.550781 9.273438 264.121094 9.273438 C 262.464844 9.273438 261.082031 9.671875 259.980469 10.464844 C 258.871094 11.261719 258.089844 12.320312 257.636719 13.648438 C 257.191406 14.976562 256.972656 16.351562 256.972656 17.769531 C 256.972656 19.59375 257.230469 21.1875 257.753906 22.554688 C 258.285156 23.921875 259.109375 24.945312 260.234375 25.621094 C 261.367188 26.285156 262.582031 26.617188 263.886719 26.617188 C 265.488281 26.617188 266.835938 26.164062 267.929688 25.25 C 269.03125 24.328125 269.785156 22.960938 270.175781 21.148438 Z M 270.175781 21.148438 "/>
<path style=" stroke:none;fill-rule:nonzero;fill:rgb(0%,0%,0%);fill-opacity:1;" d="M 274.625 25.4375 L 275.6875 23.625 L 307.4375 41.9375 L 305.3125 43.1875 L 274.625 25.4375 Z M 274.625 25.4375 "/>
<path style="fill:none;stroke-width:27;stroke-linecap:butt;stroke-linejoin:miter;stroke:rgb(0%,0%,0%);stroke-opacity:1;stroke-miterlimit:10;" d="M 7586.375 4190.625 C 7586.375 4100.25 7513.1875 4027.0625 7422.8125 4027.0625 C 7332.4375 4027.0625 7259.1875 4100.25 7259.1875 4190.625 C 7259.1875 4281 7332.4375 4354.3125 7422.8125 4354.3125 C 7513.1875 4354.3125 7586.375 4281 7586.375 4190.625 L 7586.375 4190.625 Z M 7586.375 4190.625 " transform="matrix(0.0625,0,0,0.0625,-92.5,-82.5)"/>
<path style="fill:none;stroke-width:27;stroke-linecap:butt;stroke-linejoin:miter;stroke:rgb(0%,0%,0%);stroke-opacity:1;stroke-miterlimit:10;" d="M 7341 4190.625 L 7504.625 4190.625 " transform="matrix(0.0625,0,0,0.0625,-92.5,-82.5)"/>
</g>
</g>
</svg>
