<?xml version="1.0" encoding="UTF-8" standalone="no"?>
<!-- Created with Inkscape (http://www.inkscape.org/) -->

<svg
   version="1.1"
   id="svg1"
   width="401.08594"
   height="70.422806"
   viewBox="0 0 401.08594 70.422808"
   sodipodi:docname="cetostearylalcohol.svg"
   inkscape:version="1.4.2 (f4327f4, 2025-05-13)"
   xmlns:inkscape="http://www.inkscape.org/namespaces/inkscape"
   xmlns:sodipodi="http://sodipodi.sourceforge.net/DTD/sodipodi-0.dtd"
   xmlns="http://www.w3.org/2000/svg"
   xmlns:svg="http://www.w3.org/2000/svg">
  <defs
     id="defs1" />
  <sodipodi:namedview
     id="namedview1"
     pagecolor="#ffffff"
     bordercolor="#000000"
     borderopacity="0.25"
     inkscape:showpageshadow="2"
     inkscape:pageopacity="0.0"
     inkscape:pagecheckerboard="0"
     inkscape:deskcolor="#d1d1d1"
     inkscape:zoom="0.75808864"
     inkscape:cx="335.71272"
     inkscape:cy="486.09091"
     inkscape:window-width="1920"
     inkscape:window-height="1111"
     inkscape:window-x="-9"
     inkscape:window-y="-9"
     inkscape:window-maximized="1"
     inkscape:current-layer="g1">
    <inkscape:page
       x="0"
       y="0"
       inkscape:label="1"
       id="page1"
       width="401.08594"
       height="70.422806"
       margin="0"
       bleed="0" />
  </sodipodi:namedview>
  <g
     id="g1"
     inkscape:groupmode="layer"
     inkscape:label="1"
     transform="translate(-60.902343,-75.639691)">
    <g
       id="g40">
      <path
         id="path1"
         d="m 5.8705078,-2.50875 0.9492188,0.234375 c -0.1962891,0.7822266 -0.5507813,1.37695312 -1.0664063,1.78125 -0.515625,0.40722656 -1.1484375,0.609375 -1.8984375,0.609375 -0.7675781,0 -1.3916015,-0.15527344 -1.875,-0.46875 -0.4863281,-0.31054688 -0.8554687,-0.7646484 -1.11328124,-1.359375 -0.25195312,-0.5917969 -0.375,-1.2333984 -0.375,-1.921875 0,-0.7412109 0.140625,-1.3886719 0.421875,-1.9453125 C 1.2005859,-6.1327734 1.6078125,-6.5546484 2.1322266,-6.8446875 2.6625,-7.1317969 3.2455078,-7.2782813 3.8783203,-7.2782813 c 0.7089844,0 1.3066406,0.1845704 1.7929688,0.5507813 0.4921875,0.3603516 0.8349609,0.8730469 1.03125,1.5351562 l -0.9375,0.2226563 C 5.6009766,-5.4911719 5.3578125,-5.8720313 5.0384766,-6.1064063 4.725,-6.3466406 4.3294922,-6.4696875 3.8548828,-6.4696875 c -0.5478515,0 -1.0078125,0.1347656 -1.3828125,0.3984375 -0.3691406,0.2666016 -0.6269531,0.6210937 -0.7734375,1.0664062 -0.149414,0.4394532 -0.2226562,0.8964844 -0.2226562,1.3710938 0,0.609375 0.084961,1.1425781 0.2578125,1.59375 0.1787109,0.4541016 0.4570312,0.7939453 0.8320312,1.0195312 0.375,0.21972661 0.7792969,0.32812505 1.21875,0.32812505 0.5302735,0 0.9785156,-0.15234375 1.3476563,-0.45703125 0.3662109,-0.3046875 0.6123047,-0.7558594 0.7382812,-1.359375 z m 0,0"
         style="fill:#000000;fill-opacity:1;fill-rule:nonzero;stroke:none"
         aria-label="C"
         transform="matrix(1.3333333,0,0,1.3333333,75.2,94.72)" />
      <path
         id="path2"
         d="M 0.79675781,-9.375e-4 V -7.1610938 H 1.7459766 v 2.9414063 H 5.4608203 V -7.1610938 H 6.4100391 V -9.375e-4 H 5.4608203 v -3.375 H 1.7459766 v 3.375 z m 0,0"
         style="fill:#000000;fill-opacity:1;fill-rule:nonzero;stroke:none"
         aria-label="H"
         transform="matrix(1.3333333,0,0,1.3333333,59.84,94.72)" />
      <path
         id="path3"
         d="m 0.34089844,-1.5130078 0.70312496,-0.09375 c 0.076172,0.3984375 0.2138672,0.68847655 0.4101563,0.86718749 0.1933594,0.17285156 0.4277344,0.2578125 0.703125,0.2578125 0.3339844,0 0.6152344,-0.11132813 0.84375,-0.33984375 0.2255859,-0.23437504 0.3398437,-0.51855474 0.3398437,-0.85546874 0,-0.319336 -0.1054687,-0.5859375 -0.3164062,-0.796875 -0.2109375,-0.2109375 -0.4804688,-0.3164063 -0.8085938,-0.3164063 -0.1347656,0 -0.2988281,0.029297 -0.4921875,0.082031 l 0.082031,-0.6210938 c 0.046875,0.00879 0.082031,0.011719 0.1054687,0.011719 0.3046875,0 0.5742188,-0.076172 0.8085938,-0.234375 0.2402344,-0.1552735 0.3632812,-0.3984375 0.3632812,-0.7265625 0,-0.2578125 -0.09082,-0.4716797 -0.2695312,-0.6445313 -0.1728516,-0.1699218 -0.3955078,-0.2578125 -0.6679688,-0.2578125 -0.2753906,0 -0.5039062,0.087891 -0.6914062,0.2578125 C 1.2725391,-4.7503125 1.1612109,-4.4925 1.1143359,-4.1497266 L 0.41121094,-4.2669141 c 0.0849609,-0.4746093 0.28125,-0.84375 0.5859375,-1.1015625 0.30468746,-0.2578125 0.68261716,-0.3867187 1.13671876,-0.3867187 0.3105469,0 0.5976562,0.067383 0.8554687,0.1992187 0.2636719,0.1347657 0.46875,0.3164063 0.609375,0.5507813 0.140625,0.234375 0.2109375,0.4804687 0.2109375,0.7382812 0,0.2519532 -0.067383,0.4775391 -0.1992187,0.6796875 -0.1347656,0.2050782 -0.3339844,0.3632813 -0.5976563,0.4804688 0.3427735,0.079102 0.609375,0.243164 0.796875,0.4921875 0.1875,0.243164 0.28125,0.5507812 0.28125,0.9257812 0,0.5009766 -0.1845703,0.92578129 -0.5507812,1.27734379 -0.3691406,0.34570312 -0.8291016,0.515625 -1.3828125,0.515625 -0.5009766,0 -0.9199219,-0.14648438 -1.25390626,-0.4453125 -0.328125,-0.3046875 -0.515625,-0.69433599 -0.5625,-1.17187499 z m 0,0"
         style="fill:#000000;fill-opacity:1;fill-rule:nonzero;stroke:none"
         aria-label="3"
         transform="matrix(1.3333333,0,0,1.3333333,69.44,98.24)" />
      <path
         id="path4"
         d="m 0.47964844,-3.48 c 0,-1.1865234 0.31933594,-2.1152344 0.96093746,-2.7890625 0.6386719,-0.6708984 1.4648438,-1.0078125 2.4726563,-1.0078125 0.65625,0 1.2480469,0.1582031 1.78125,0.46875 0.5302734,0.3134766 0.9316406,0.7558594 1.2070312,1.3242187 0.28125,0.5625 0.421875,1.2041016 0.421875,1.921875 0,0.7207032 -0.149414,1.3681641 -0.4453125,1.9453125 -0.290039,0.5712891 -0.703125,1.00488286 -1.2421875,1.3007813 -0.5332031,0.29003906 -1.1103515,0.43359375 -1.734375,0.43359375 -0.6738281,0 -1.274414,-0.15820313 -1.8046875,-0.48046875 C 1.5636328,-0.6909375 1.1622656,-1.13625 0.88980469,-1.69875 0.61441406,-2.26125 0.47964844,-2.8530469 0.47964844,-3.48 Z m 0.98437496,0.011719 c 0,0.8613282 0.2285157,1.5410157 0.6914063,2.0390625 0.4599609,0.49218755 1.0429687,0.7382813 1.7460937,0.7382813 0.7089844,0 1.2949219,-0.24902344 1.7578125,-0.75 0.459961,-0.4980469 0.6914063,-1.2099609 0.6914063,-2.1328125 0,-0.5771484 -0.1025391,-1.0839844 -0.3046875,-1.5234375 C 5.8497656,-5.5337109 5.5597266,-5.870625 5.1788672,-6.105 c -0.375,-0.2402344 -0.796875,-0.3632813 -1.265625,-0.3632813 -0.6738281,0 -1.2509766,0.2314454 -1.734375,0.6914063 -0.4775391,0.4628906 -0.7148438,1.2304687 -0.7148438,2.308594 z m 0,0"
         style="fill:#000000;fill-opacity:1;fill-rule:nonzero;stroke:none"
         aria-label="O"
         transform="matrix(1.3333333,0,0,1.3333333,442.88,96.64)" />
      <path
         id="path5"
         d="M 0.79792969,4.6875e-4 V -7.1596875 H 1.7471484 v 2.9414062 H 5.4619922 V -7.1596875 H 6.4112109 V 4.6875e-4 H 5.4619922 V -3.3745313 H 1.7471484 V 4.6875e-4 Z m 0,0"
         style="fill:#000000;fill-opacity:1;fill-rule:nonzero;stroke:none"
         aria-label="H"
         transform="matrix(1.3333333,0,0,1.3333333,453.44,96.64)" />
      <path
         style="baseline-shift:baseline;display:inline;overflow:visible;opacity:1;vector-effect:none;stroke-linecap:round;stroke-linejoin:round;stroke-miterlimit:10;enable-background:accumulate;stop-color:#000000;stop-opacity:1"
         d="m 64.738281,777.24805 a 0.36000001,0.36000001 0 0 0 -0.490234,0.13281 0.36000001,0.36000001 0 0 0 0.132812,0.49219 l 12.75,7.26953 a 0.36000001,0.36000001 0 0 0 0.492188,-0.13477 0.36000001,0.36000001 0 0 0 -0.134766,-0.49023 z"
         id="path6"
         transform="matrix(1.3333333,0,0,-1.3333333,0,1122.56)" />
      <path
         style="baseline-shift:baseline;display:inline;overflow:visible;opacity:1;vector-effect:none;stroke-linecap:round;stroke-linejoin:round;stroke-miterlimit:10;enable-background:accumulate;stop-color:#000000;stop-opacity:1"
         d="M 94.318359,774.45898 77.128906,784.51953 A 0.36000001,0.36000001 0 0 0 77,785.01172 a 0.36000001,0.36000001 0 0 0 0.492187,0.1289 l 17.189454,-10.06054 a 0.36000001,0.36000001 0 0 0 0.128906,-0.49219 0.36000001,0.36000001 0 0 0 -0.492188,-0.12891 z"
         id="path7"
         transform="matrix(1.3333333,0,0,-1.3333333,0,1122.56)" />
      <path
         style="baseline-shift:baseline;display:inline;overflow:visible;opacity:1;vector-effect:none;stroke-linecap:round;stroke-linejoin:round;stroke-miterlimit:10;enable-background:accumulate;stop-color:#000000;stop-opacity:1"
         d="m 94.677734,774.45703 a 0.36000001,0.36000001 0 0 0 -0.490234,0.13477 0.36000001,0.36000001 0 0 0 0.134766,0.49023 l 17.308594,9.87109 a 0.36000001,0.36000001 0 0 0 0.49219,-0.13476 0.36000001,0.36000001 0 0 0 -0.13477,-0.49024 z"
         id="path8"
         transform="matrix(1.3333333,0,0,-1.3333333,0,1122.56)" />
      <path
         style="baseline-shift:baseline;display:inline;overflow:visible;opacity:1;vector-effect:none;stroke-linecap:round;stroke-linejoin:round;stroke-miterlimit:10;enable-background:accumulate;stop-color:#000000;stop-opacity:1"
         d="m 128.81836,774.26953 -17.18945,10.06055 a 0.36000001,0.36000001 0 0 0 -0.12891,0.49219 0.36000001,0.36000001 0 0 0 0.49219,0.1289 l 17.18945,-10.06055 a 0.36000001,0.36000001 0 0 0 0.12891,-0.49218 0.36000001,0.36000001 0 0 0 -0.49219,-0.12891 z"
         id="path9"
         transform="matrix(1.3333333,0,0,-1.3333333,0,1122.56)" />
      <path
         style="baseline-shift:baseline;display:inline;overflow:visible;opacity:1;vector-effect:none;stroke-linecap:round;stroke-linejoin:round;stroke-miterlimit:10;enable-background:accumulate;stop-color:#000000;stop-opacity:1"
         d="m 129.17773,774.26758 a 0.36000001,0.36000001 0 0 0 -0.49023,0.13476 0.36000001,0.36000001 0 0 0 0.13477,0.49024 l 17.30859,9.87109 a 0.36000001,0.36000001 0 0 0 0.49219,-0.13476 0.36000001,0.36000001 0 0 0 -0.13477,-0.49219 z"
         id="path10"
         transform="matrix(1.3333333,0,0,-1.3333333,0,1122.56)" />
      <path
         style="baseline-shift:baseline;display:inline;overflow:visible;opacity:1;vector-effect:none;stroke-linecap:round;stroke-linejoin:round;stroke-miterlimit:10;enable-background:accumulate;stop-color:#000000;stop-opacity:1"
         d="m 163.32812,774.08008 -17.19921,10.05859 A 0.36000001,0.36000001 0 0 0 146,784.63086 a 0.36000001,0.36000001 0 0 0 0.49219,0.13086 l 17.19922,-10.06055 a 0.36000001,0.36000001 0 0 0 0.1289,-0.49219 0.36000001,0.36000001 0 0 0 -0.49219,-0.1289 z"
         id="path11"
         transform="matrix(1.3333333,0,0,-1.3333333,0,1122.56)" />
      <path
         style="baseline-shift:baseline;display:inline;overflow:visible;opacity:1;vector-effect:none;stroke-linecap:round;stroke-linejoin:round;stroke-miterlimit:10;enable-background:accumulate;stop-color:#000000;stop-opacity:1"
         d="m 163.6875,774.07812 a 0.36000001,0.36000001 0 0 0 -0.49023,0.13282 0.36000001,0.36000001 0 0 0 0.13476,0.49218 l 17.29883,9.86915 a 0.36000001,0.36000001 0 0 0 0.49219,-0.13477 0.36000001,0.36000001 0 0 0 -0.13477,-0.49023 z"
         id="path12"
         transform="matrix(1.3333333,0,0,-1.3333333,0,1122.56)" />
      <path
         style="baseline-shift:baseline;display:inline;overflow:visible;opacity:1;vector-effect:none;stroke-linecap:round;stroke-linejoin:round;stroke-miterlimit:10;enable-background:accumulate;stop-color:#000000;stop-opacity:1"
         d="m 197.82812,773.89844 -17.19921,10.05078 a 0.36000001,0.36000001 0 0 0 -0.12891,0.49219 0.36000001,0.36000001 0 0 0 0.49219,0.1289 l 17.19922,-10.04883 a 0.36000001,0.36000001 0 0 0 0.1289,-0.49218 0.36000001,0.36000001 0 0 0 -0.49219,-0.13086 z"
         id="path13"
         transform="matrix(1.3333333,0,0,-1.3333333,0,1122.56)" />
      <path
         style="baseline-shift:baseline;display:inline;overflow:visible;opacity:1;vector-effect:none;stroke-linecap:round;stroke-linejoin:round;stroke-miterlimit:10;enable-background:accumulate;stop-color:#000000;stop-opacity:1"
         d="m 198.1875,773.89648 a 0.36000001,0.36000001 0 0 0 -0.49023,0.13477 0.36000001,0.36000001 0 0 0 0.13476,0.49219 l 17.29883,9.85937 a 0.36000001,0.36000001 0 0 0 0.49219,-0.13476 0.36000001,0.36000001 0 0 0 -0.13477,-0.49024 z"
         id="path14"
         transform="matrix(1.3333333,0,0,-1.3333333,0,1122.56)" />
      <path
         style="baseline-shift:baseline;display:inline;overflow:visible;opacity:1;vector-effect:none;stroke-linecap:round;stroke-linejoin:round;stroke-miterlimit:10;enable-background:accumulate;stop-color:#000000;stop-opacity:1"
         d="m 232.32812,773.70898 -17.19921,10.05079 A 0.36000001,0.36000001 0 0 0 215,784.25195 a 0.36000001,0.36000001 0 0 0 0.49219,0.12891 l 17.19922,-10.05078 a 0.36000001,0.36000001 0 0 0 0.1289,-0.49219 0.36000001,0.36000001 0 0 0 -0.49219,-0.12891 z"
         id="path15"
         transform="matrix(1.3333333,0,0,-1.3333333,0,1122.56)" />
      <path
         style="baseline-shift:baseline;display:inline;overflow:visible;opacity:1;vector-effect:none;stroke-linecap:round;stroke-linejoin:round;stroke-miterlimit:10;enable-background:accumulate;stop-color:#000000;stop-opacity:1"
         d="m 232.6875,773.70703 a 0.36000001,0.36000001 0 0 0 -0.49023,0.13477 0.36000001,0.36000001 0 0 0 0.13476,0.49023 l 17.31055,9.86133 a 0.36000001,0.36000001 0 0 0 0.49023,-0.13477 0.36000001,0.36000001 0 0 0 -0.13476,-0.49218 z"
         id="path16"
         transform="matrix(1.3333333,0,0,-1.3333333,0,1122.56)" />
      <path
         style="baseline-shift:baseline;display:inline;overflow:visible;opacity:1;vector-effect:none;stroke-linecap:round;stroke-linejoin:round;stroke-miterlimit:10;enable-background:accumulate;stop-color:#000000;stop-opacity:1"
         d="m 266.82812,773.51953 -17.18945,10.04883 a 0.36000001,0.36000001 0 0 0 -0.1289,0.49414 0.36000001,0.36000001 0 0 0 0.49218,0.12891 l 17.18946,-10.05079 a 0.36000001,0.36000001 0 0 0 0.1289,-0.49218 0.36000001,0.36000001 0 0 0 -0.49219,-0.12891 z"
         id="path17"
         transform="matrix(1.3333333,0,0,-1.3333333,0,1122.56)" />
      <path
         style="baseline-shift:baseline;display:inline;overflow:visible;opacity:1;vector-effect:none;stroke-linecap:round;stroke-linejoin:round;stroke-miterlimit:10;enable-background:accumulate;stop-color:#000000;stop-opacity:1"
         d="m 267.1875,773.51758 a 0.36000001,0.36000001 0 0 0 -0.49023,0.13476 0.36000001,0.36000001 0 0 0 0.13476,0.49024 l 17.31055,9.85937 a 0.36000001,0.36000001 0 0 0 0.49023,-0.13281 0.36000001,0.36000001 0 0 0 -0.13476,-0.49219 z"
         id="path18"
         transform="matrix(1.3333333,0,0,-1.3333333,0,1122.56)" />
      <path
         style="baseline-shift:baseline;display:inline;overflow:visible;opacity:1;vector-effect:none;stroke-linecap:round;stroke-linejoin:round;stroke-miterlimit:10;enable-background:accumulate;stop-color:#000000;stop-opacity:1"
         d="m 301.32812,773.33008 -17.18945,10.04883 a 0.36000001,0.36000001 0 0 0 -0.1289,0.49218 0.36000001,0.36000001 0 0 0 0.49218,0.12891 l 17.18946,-10.04883 a 0.36000001,0.36000001 0 0 0 0.1289,-0.49219 0.36000001,0.36000001 0 0 0 -0.49219,-0.1289 z"
         id="path19"
         transform="matrix(1.3333333,0,0,-1.3333333,0,1122.56)" />
      <path
         style="baseline-shift:baseline;display:inline;overflow:visible;opacity:1;vector-effect:none;stroke-linecap:round;stroke-linejoin:round;stroke-miterlimit:10;enable-background:accumulate;stop-color:#000000;stop-opacity:1"
         d="m 301.6875,773.32812 a 0.36000001,0.36000001 0 0 0 -0.49023,0.13282 0.36000001,0.36000001 0 0 0 0.13476,0.49218 l 17.31055,9.85938 a 0.36000001,0.36000001 0 0 0 0.49023,-0.13477 0.36000001,0.36000001 0 0 0 -0.13476,-0.49023 z"
         id="path20"
         transform="matrix(1.3333333,0,0,-1.3333333,0,1122.56)" />
      <path
         style="baseline-shift:baseline;display:inline;overflow:visible;opacity:1;vector-effect:none;stroke-linecap:round;stroke-linejoin:round;stroke-miterlimit:10;enable-background:accumulate;stop-color:#000000;stop-opacity:1"
         d="m 331.01758,775.95898 -12.37891,7.23047 a 0.36000001,0.36000001 0 0 0 -0.1289,0.49219 0.36000001,0.36000001 0 0 0 0.49218,0.12891 l 12.37891,-7.23047 a 0.36000001,0.36000001 0 0 0 0.13086,-0.49219 0.36000001,0.36000001 0 0 0 -0.49414,-0.12891 z"
         id="path21"
         transform="matrix(1.3333333,0,0,-1.3333333,0,1122.56)" />
      <path
         id="path22"
         d="m 5.8703906,-2.5089844 0.9492188,0.234375 c -0.1962891,0.7822266 -0.5507813,1.37695315 -1.0664063,1.78125003 -0.515625,0.40722656 -1.1484375,0.609375 -1.8984375,0.609375 -0.7675781,0 -1.3916015,-0.15527344 -1.875,-0.46875 C 1.4934375,-0.66328125 1.1242969,-1.1173828 0.86648437,-1.7121094 c -0.25195312,-0.5917968 -0.375,-1.2333984 -0.375,-1.921875 0,-0.7412109 0.140625,-1.3886718 0.421875,-1.9453125 0.28710933,-0.5537109 0.69433593,-0.9755859 1.21875003,-1.265625 0.5302734,-0.2871093 1.1132812,-0.4335937 1.7460937,-0.4335937 0.7089844,0 1.3066406,0.1845703 1.7929688,0.5507812 0.4921875,0.3603516 0.8349609,0.8730469 1.03125,1.5351563 l -0.9375,0.2226562 C 5.6008594,-5.4914062 5.3576953,-5.8722656 5.0383594,-6.1066406 4.7248828,-6.346875 4.329375,-6.4699219 3.8547656,-6.4699219 c -0.5478515,0 -1.0078125,0.1347657 -1.3828125,0.3984375 -0.3691406,0.2666016 -0.6269531,0.6210938 -0.7734375,1.0664063 -0.149414,0.4394531 -0.2226562,0.8964844 -0.2226562,1.3710937 0,0.609375 0.084961,1.1425782 0.2578125,1.59375 0.1787109,0.4541016 0.4570312,0.7939453 0.8320312,1.0195313 0.375,0.21972654 0.7792969,0.32812498 1.21875,0.32812498 0.5302735,0 0.9785156,-0.15234375 1.3476563,-0.45703128 0.3662109,-0.3046875 0.6123047,-0.7558593 0.7382812,-1.359375 z m 0,0"
         style="fill:#000000;fill-opacity:1;fill-rule:nonzero;stroke:none"
         aria-label="C"
         transform="matrix(1.3333333,0,0,1.3333333,119.04,142.4)" />
      <path
         id="path23"
         d="M 0.79664062,-0.00117187 V -7.1613281 H 1.7458594 v 2.9414062 h 3.7148437 v -2.9414062 h 0.9492188 v 7.16015623 H 5.4607031 V -3.3761719 H 1.7458594 v 3.37500003 z m 0,0"
         style="fill:#000000;fill-opacity:1;fill-rule:nonzero;stroke:none"
         aria-label="H"
         transform="matrix(1.3333333,0,0,1.3333333,103.68,142.4)" />
      <path
         id="path24"
         d="m 0.34078125,-1.5103125 0.70312495,-0.09375 c 0.076172,0.3984375 0.2138672,0.68847656 0.4101563,0.8671875 0.1933594,0.17285156 0.4277344,0.2578125 0.703125,0.2578125 0.3339844,0 0.6152344,-0.11132812 0.84375,-0.33984375 0.2255859,-0.23437495 0.3398437,-0.51855465 0.3398437,-0.85546875 0,-0.3193359 -0.1054687,-0.5859375 -0.3164062,-0.796875 -0.2109375,-0.2109375 -0.4804688,-0.3164062 -0.8085938,-0.3164062 -0.1347656,0 -0.2988281,0.029297 -0.4921875,0.082031 l 0.082031,-0.6210937 c 0.046875,0.00879 0.082031,0.011719 0.1054687,0.011719 0.3046875,0 0.5742188,-0.076172 0.8085938,-0.234375 0.2402344,-0.1552734 0.3632812,-0.3984375 0.3632812,-0.7265625 0,-0.2578125 -0.09082,-0.4716797 -0.2695312,-0.6445312 -0.1728516,-0.1699219 -0.3955078,-0.2578125 -0.6679688,-0.2578125 -0.2753906,0 -0.5039062,0.087891 -0.6914062,0.2578125 -0.1816406,0.1728515 -0.2929688,0.430664 -0.3398438,0.7734375 L 0.41109375,-4.2642187 c 0.0849609,-0.4746094 0.28125,-0.84375 0.5859375,-1.1015625 C 1.3017187,-5.6235937 1.6796484,-5.7525 2.13375,-5.7525 c 0.3105469,0 0.5976562,0.067383 0.8554687,0.1992188 0.2636719,0.1347656 0.46875,0.3164062 0.609375,0.5507812 0.140625,0.234375 0.2109375,0.4804688 0.2109375,0.7382813 0,0.2519531 -0.067383,0.477539 -0.1992187,0.6796875 -0.1347656,0.2050781 -0.3339844,0.3632812 -0.5976563,0.4804687 0.3427735,0.079102 0.609375,0.2431641 0.796875,0.4921875 0.1875,0.2431641 0.28125,0.5507813 0.28125,0.9257813 0,0.5009765 -0.1845703,0.9257812 -0.5507812,1.2773437 -0.3691406,0.34570313 -0.8291016,0.515625 -1.3828125,0.515625 -0.5009766,0 -0.9199219,-0.14648437 -1.25390625,-0.4453125 -0.328125,-0.3046875 -0.515625,-0.6943359 -0.5625,-1.171875 z m 0,0"
         style="fill:#000000;fill-opacity:1;fill-rule:nonzero;stroke:none"
         aria-label="3"
         transform="matrix(1.3333333,0,0,1.3333333,113.28,145.92)" />
      <path
         id="path25"
         d="m 0.48117188,-3.4802344 c 0,-1.1865234 0.31933593,-2.1152343 0.96093752,-2.7890625 0.6386719,-0.6708984 1.4648437,-1.0078125 2.4726562,-1.0078125 0.65625,0 1.2480469,0.1582032 1.78125,0.46875 0.5302735,0.3134766 0.9316407,0.7558594 1.2070313,1.3242188 0.28125,0.5625 0.421875,1.2041015 0.421875,1.921875 0,0.7207031 -0.1494141,1.368164 -0.4453125,1.9453125 -0.2900391,0.571289 -0.703125,1.00488279 -1.2421875,1.30078123 -0.5332031,0.29003906 -1.1103516,0.43359375 -1.734375,0.43359375 -0.6738281,0 -1.2744141,-0.15820313 -1.8046875,-0.48046875 -0.5332031,-0.328125 -0.9345703,-0.77343753 -1.20703127,-1.33593753 -0.27539063,-0.5625 -0.41015625,-1.1542968 -0.41015625,-1.78125 z m 0.98437502,0.011719 c 0,0.8613281 0.2285156,1.5410156 0.6914062,2.0390625 0.459961,0.49218748 1.0429688,0.73828123 1.7460938,0.73828123 0.7089844,0 1.2949219,-0.24902344 1.7578125,-0.75000003 0.4599609,-0.4980468 0.6914062,-1.2099609 0.6914062,-2.1328125 0,-0.5771484 -0.102539,-1.0839843 -0.3046875,-1.5234375 -0.196289,-0.4365234 -0.4863281,-0.7734375 -0.8671875,-1.0078125 -0.375,-0.2402343 -0.796875,-0.3632812 -1.265625,-0.3632812 -0.6738281,0 -1.2509765,0.2314453 -1.734375,0.6914062 -0.477539,0.4628907 -0.7148437,1.2304688 -0.7148437,2.3085938 z m 0,0"
         style="fill:#000000;fill-opacity:1;fill-rule:nonzero;stroke:none"
         aria-label="O"
         transform="matrix(1.3333333,0,0,1.3333333,440.96,144.32)" />
      <path
         id="path26"
         d="M 0.79652344,2.34375e-4 V -7.1599219 H 1.7457422 v 2.9414063 H 5.4605859 V -7.1599219 H 6.4098047 V 2.34375e-4 H 5.4605859 V -3.3747656 H 1.7457422 V 2.34375e-4 Z m 0,0"
         style="fill:#000000;fill-opacity:1;fill-rule:nonzero;stroke:none"
         aria-label="H"
         transform="matrix(1.3333333,0,0,1.3333333,451.52,144.32)" />
      <path
         style="baseline-shift:baseline;display:inline;overflow:visible;opacity:1;vector-effect:none;stroke-linecap:round;stroke-linejoin:round;stroke-miterlimit:10;enable-background:accumulate;stop-color:#000000;stop-opacity:1"
         d="m 97.619141,741.19727 a 0.36000001,0.36000001 0 0 0 -0.492188,0.13476 0.36000001,0.36000001 0 0 0 0.134766,0.49024 l 12.929691,7.37109 a 0.36000001,0.36000001 0 0 0 0.49218,-0.13477 0.36000001,0.36000001 0 0 0 -0.13476,-0.49218 z"
         id="path27"
         transform="matrix(1.3333333,0,0,-1.3333333,0,1122.56)" />
      <path
         style="baseline-shift:baseline;display:inline;overflow:visible;opacity:1;vector-effect:none;stroke-linecap:round;stroke-linejoin:round;stroke-miterlimit:10;enable-background:accumulate;stop-color:#000000;stop-opacity:1"
         d="m 127.37891,738.50977 -17.19141,10.05859 a 0.36000001,0.36000001 0 0 0 -0.12891,0.49414 0.36000001,0.36000001 0 0 0 0.49414,0.12891 l 17.18946,-10.06055 a 0.36000001,0.36000001 0 0 0 0.1289,-0.49219 0.36000001,0.36000001 0 0 0 -0.49218,-0.1289 z"
         id="path28"
         transform="matrix(1.3333333,0,0,-1.3333333,0,1122.56)" />
      <path
         style="baseline-shift:baseline;display:inline;overflow:visible;opacity:1;vector-effect:none;stroke-linecap:round;stroke-linejoin:round;stroke-miterlimit:10;enable-background:accumulate;stop-color:#000000;stop-opacity:1"
         d="m 127.73828,738.50781 a 0.36000001,0.36000001 0 0 0 -0.49023,0.13477 0.36000001,0.36000001 0 0 0 0.13281,0.49023 l 17.31055,9.86914 a 0.36000001,0.36000001 0 0 0 0.49218,-0.13281 0.36000001,0.36000001 0 0 0 -0.13476,-0.49219 z"
         id="path29"
         transform="matrix(1.3333333,0,0,-1.3333333,0,1122.56)" />
      <path
         style="baseline-shift:baseline;display:inline;overflow:visible;opacity:1;vector-effect:none;stroke-linecap:round;stroke-linejoin:round;stroke-miterlimit:10;enable-background:accumulate;stop-color:#000000;stop-opacity:1"
         d="m 161.88867,738.31836 -17.20117,10.06055 a 0.36000001,0.36000001 0 0 0 -0.12891,0.49218 0.36000001,0.36000001 0 0 0 0.49219,0.12891 l 17.20117,-10.05859 a 0.36000001,0.36000001 0 0 0 0.12891,-0.49219 0.36000001,0.36000001 0 0 0 -0.49219,-0.13086 z"
         id="path30"
         transform="matrix(1.3333333,0,0,-1.3333333,0,1122.56)" />
      <path
         style="baseline-shift:baseline;display:inline;overflow:visible;opacity:1;vector-effect:none;stroke-linecap:round;stroke-linejoin:round;stroke-miterlimit:10;enable-background:accumulate;stop-color:#000000;stop-opacity:1"
         d="m 162.24805,738.31641 a 0.36000001,0.36000001 0 0 0 -0.49024,0.13476 0.36000001,0.36000001 0 0 0 0.13477,0.49219 l 17.29883,9.86914 a 0.36000001,0.36000001 0 0 0 0.49218,-0.13477 0.36000001,0.36000001 0 0 0 -0.13476,-0.49023 z"
         id="path31"
         transform="matrix(1.3333333,0,0,-1.3333333,0,1122.56)" />
      <path
         style="baseline-shift:baseline;display:inline;overflow:visible;opacity:1;vector-effect:none;stroke-linecap:round;stroke-linejoin:round;stroke-miterlimit:10;enable-background:accumulate;stop-color:#000000;stop-opacity:1"
         d="m 196.38867,738.13867 -17.20117,10.05078 a 0.36000001,0.36000001 0 0 0 -0.12891,0.49219 0.36000001,0.36000001 0 0 0 0.49219,0.12891 l 17.20117,-10.04883 a 0.36000001,0.36000001 0 0 0 0.12891,-0.49414 0.36000001,0.36000001 0 0 0 -0.49219,-0.12891 z"
         id="path32"
         transform="matrix(1.3333333,0,0,-1.3333333,0,1122.56)" />
      <path
         style="baseline-shift:baseline;display:inline;overflow:visible;opacity:1;vector-effect:none;stroke-linecap:round;stroke-linejoin:round;stroke-miterlimit:10;enable-background:accumulate;stop-color:#000000;stop-opacity:1"
         d="m 196.74805,738.13672 a 0.36000001,0.36000001 0 0 0 -0.49024,0.13476 0.36000001,0.36000001 0 0 0 0.13477,0.49219 l 17.29883,9.85938 a 0.36000001,0.36000001 0 0 0 0.49218,-0.13477 0.36000001,0.36000001 0 0 0 -0.13476,-0.49023 z"
         id="path33"
         transform="matrix(1.3333333,0,0,-1.3333333,0,1122.56)" />
      <path
         style="baseline-shift:baseline;display:inline;overflow:visible;opacity:1;vector-effect:none;stroke-linecap:round;stroke-linejoin:round;stroke-miterlimit:10;enable-background:accumulate;stop-color:#000000;stop-opacity:1"
         d="M 230.88867,737.94922 213.6875,748 a 0.36000001,0.36000001 0 0 0 -0.12891,0.49219 0.36000001,0.36000001 0 0 0 0.49219,0.1289 l 17.20117,-10.05078 a 0.36000001,0.36000001 0 0 0 0.12891,-0.49219 0.36000001,0.36000001 0 0 0 -0.49219,-0.1289 z"
         id="path34"
         transform="matrix(1.3333333,0,0,-1.3333333,0,1122.56)" />
      <path
         style="baseline-shift:baseline;display:inline;overflow:visible;opacity:1;vector-effect:none;stroke-linecap:round;stroke-linejoin:round;stroke-miterlimit:10;enable-background:accumulate;stop-color:#000000;stop-opacity:1"
         d="m 231.24805,737.94727 a 0.36000001,0.36000001 0 0 0 -0.49024,0.13476 0.36000001,0.36000001 0 0 0 0.13477,0.49024 l 17.30859,9.86132 a 0.36000001,0.36000001 0 0 0 0.49219,-0.13476 0.36000001,0.36000001 0 0 0 -0.13477,-0.49219 z"
         id="path35"
         transform="matrix(1.3333333,0,0,-1.3333333,0,1122.56)" />
      <path
         style="baseline-shift:baseline;display:inline;overflow:visible;opacity:1;vector-effect:none;stroke-linecap:round;stroke-linejoin:round;stroke-miterlimit:10;enable-background:accumulate;stop-color:#000000;stop-opacity:1"
         d="m 265.38867,737.75977 -17.18945,10.04882 a 0.36000001,0.36000001 0 0 0 -0.13086,0.49219 0.36000001,0.36000001 0 0 0 0.49414,0.13086 l 17.18945,-10.05078 a 0.36000001,0.36000001 0 0 0 0.12891,-0.49219 0.36000001,0.36000001 0 0 0 -0.49219,-0.1289 z"
         id="path36"
         transform="matrix(1.3333333,0,0,-1.3333333,0,1122.56)" />
      <path
         style="baseline-shift:baseline;display:inline;overflow:visible;opacity:1;vector-effect:none;stroke-linecap:round;stroke-linejoin:round;stroke-miterlimit:10;enable-background:accumulate;stop-color:#000000;stop-opacity:1"
         d="m 265.74805,737.75781 a 0.36000001,0.36000001 0 0 0 -0.49024,0.13477 0.36000001,0.36000001 0 0 0 0.13477,0.49023 l 17.30859,9.85938 a 0.36000001,0.36000001 0 0 0 0.49219,-0.13477 0.36000001,0.36000001 0 0 0 -0.13477,-0.49023 z"
         id="path37"
         transform="matrix(1.3333333,0,0,-1.3333333,0,1122.56)" />
      <path
         style="baseline-shift:baseline;display:inline;overflow:visible;opacity:1;vector-effect:none;stroke-linecap:round;stroke-linejoin:round;stroke-miterlimit:10;enable-background:accumulate;stop-color:#000000;stop-opacity:1"
         d="m 299.88867,737.56836 -17.18945,10.05078 a 0.36000001,0.36000001 0 0 0 -0.13086,0.49219 0.36000001,0.36000001 0 0 0 0.49414,0.1289 l 17.18945,-10.04882 a 0.36000001,0.36000001 0 0 0 0.12891,-0.49219 0.36000001,0.36000001 0 0 0 -0.49219,-0.13086 z"
         id="path38"
         transform="matrix(1.3333333,0,0,-1.3333333,0,1122.56)" />
      <path
         style="baseline-shift:baseline;display:inline;overflow:visible;opacity:1;vector-effect:none;stroke-linecap:round;stroke-linejoin:round;stroke-miterlimit:10;enable-background:accumulate;stop-color:#000000;stop-opacity:1"
         d="m 300.24805,737.56641 a 0.36000001,0.36000001 0 0 0 -0.49024,0.13476 0.36000001,0.36000001 0 0 0 0.13477,0.49219 l 17.30859,9.85937 a 0.36000001,0.36000001 0 0 0 0.49219,-0.13476 0.36000001,0.36000001 0 0 0 -0.13477,-0.49024 z"
         id="path39"
         transform="matrix(1.3333333,0,0,-1.3333333,0,1122.56)" />
      <path
         style="baseline-shift:baseline;display:inline;overflow:visible;opacity:1;vector-effect:none;stroke-linecap:round;stroke-linejoin:round;stroke-miterlimit:10;enable-background:accumulate;stop-color:#000000;stop-opacity:1"
         d="m 329.57812,740.19922 -12.3789,7.23047 a 0.36000001,0.36000001 0 0 0 -0.13086,0.49218 0.36000001,0.36000001 0 0 0 0.49414,0.12891 l 12.37891,-7.23047 a 0.36000001,0.36000001 0 0 0 0.1289,-0.49219 0.36000001,0.36000001 0 0 0 -0.49219,-0.1289 z"
         id="path40"
         transform="matrix(1.3333333,0,0,-1.3333333,0,1122.56)" />
    </g>
  </g>
</svg>
