<?xml version="1.0" encoding="UTF-8" standalone="no"?>
<!-- Created with Inkscape (http://www.inkscape.org/) -->

<svg
   width="129.03468mm"
   height="40.4613mm"
   viewBox="0 0 129.03468 40.4613"
   version="1.1"
   id="svg1"
   xml:space="preserve"
   inkscape:version="1.4.2 (f4327f4, 2025-05-13)"
   sodipodi:docname="cetomacrogolemulsifyingwax.svg"
   xmlns:inkscape="http://www.inkscape.org/namespaces/inkscape"
   xmlns:sodipodi="http://sodipodi.sourceforge.net/DTD/sodipodi-0.dtd"
   xmlns="http://www.w3.org/2000/svg"
   xmlns:svg="http://www.w3.org/2000/svg"><sodipodi:namedview
     id="namedview1"
     pagecolor="#ffffff"
     bordercolor="#000000"
     borderopacity="0.25"
     inkscape:showpageshadow="2"
     inkscape:pageopacity="0.0"
     inkscape:pagecheckerboard="0"
     inkscape:deskcolor="#d1d1d1"
     inkscape:document-units="mm"
     inkscape:zoom="1.5554293"
     inkscape:cx="266.48592"
     inkscape:cy="60.112022"
     inkscape:window-width="1920"
     inkscape:window-height="1111"
     inkscape:window-x="-9"
     inkscape:window-y="-9"
     inkscape:window-maximized="1"
     inkscape:current-layer="layer1" /><defs
     id="defs1"><clipPath
       clipPathUnits="userSpaceOnUse"
       id="13085494739-clipPath1"><path
         d="M 0,0 H 1520 V 655 H 0 Z"
         id="path11-7" /></clipPath><clipPath
       clipPathUnits="userSpaceOnUse"
       id="clipPath1"><path
         d="M 0,0 H 1520 V 655 H 0 Z"
         id="path1-9" /></clipPath><clipPath
       clipPathUnits="userSpaceOnUse"
       id="clipPath2"><path
         d="M 0,0 H 1520 V 655 H 0 Z"
         id="path2-3" /></clipPath><clipPath
       clipPathUnits="userSpaceOnUse"
       id="clipPath3"><path
         d="M 0,0 H 1520 V 655 H 0 Z"
         id="path3-8" /></clipPath><clipPath
       clipPathUnits="userSpaceOnUse"
       id="clipPath4"><path
         d="M 0,0 H 1520 V 655 H 0 Z"
         id="path4-0" /></clipPath><clipPath
       clipPathUnits="userSpaceOnUse"
       id="clipPath5"><path
         d="M 0,0 H 1520 V 655 H 0 Z"
         id="path5-2" /></clipPath><clipPath
       clipPathUnits="userSpaceOnUse"
       id="386007785271-clipPath1"><path
         d="M 0,0 H 1240 V 95 H 0 Z"
         id="path1" /></clipPath><clipPath
       clipPathUnits="userSpaceOnUse"
       id="386007785152-clipPath1"><path
         d="M -1129.528,-36.9745 H 110.4721 v 95 H -1129.528 Z"
         id="path2" /></clipPath><clipPath
       clipPathUnits="userSpaceOnUse"
       id="386007785550-clipPath1"><path
         d="m -955.3388,-3.4518 h 1240 v 95 h -1240 z"
         id="path3" /></clipPath></defs><g
     inkscape:label="Laag 1"
     inkscape:groupmode="layer"
     id="layer1"
     transform="translate(-33.117436,-22.015888)"><g
       style="font-style:normal;font-weight:normal;font-size:12px;font-family:Dialog;color-interpolation:auto;fill:#000000;fill-opacity:1;stroke:#000000;stroke-width:1;stroke-linecap:square;stroke-linejoin:miter;stroke-miterlimit:10;stroke-dasharray:none;stroke-dashoffset:0;stroke-opacity:1;color-rendering:auto;image-rendering:auto;shape-rendering:auto;text-rendering:auto"
       id="g27"
       transform="matrix(0.11202722,0,0,0.12392974,31.463638,42.841754)"><g
         id="g26"
         transform="translate(-28.243902,38.644986)"><g
           id="g25"><defs
             id="386007785435-defs1"><clipPath
               clipPathUnits="userSpaceOnUse"
               id="clipPath6"><path
                 d="M 0,0 H 1240 V 95 H 0 Z"
                 id="path4" /></clipPath><clipPath
               clipPathUnits="userSpaceOnUse"
               id="clipPath7"><path
                 d="M -1129.528,-36.9745 H 110.4721 v 95 H -1129.528 Z"
                 id="path6" /></clipPath><clipPath
               clipPathUnits="userSpaceOnUse"
               id="clipPath8"><path
                 d="m -955.3388,-3.4518 h 1240 v 95 h -1240 z"
                 id="path7" /></clipPath></defs><g
             text-rendering="geometricPrecision"
             id="g4"><path
               clip-path="url(#386007785271-clipPath1)"
               d="m 1030.7838,62.7526 v 0 l 58.063,-33.5227 c 0.6749,-0.3896 1.5377,-0.1584 1.9274,0.5164 0.3896,0.6749 0.1584,1.5377 -0.5165,1.9273 v 0 l -58.063,33.5228 c -0.6748,0.3896 -1.5377,0.1584 -1.9274,-0.5165 -0.3895,-0.6748 -0.1583,-1.5377 0.5165,-1.9273 z"
               stroke="none"
               id="path8" /></g><g
             text-rendering="geometricPrecision"
             id="g5"><path
               clip-path="url(#386007785271-clipPath1)"
               d="m 1090.2577,29.2299 v 0 l 36.4415,21.0395 c 0.6748,0.3896 0.906,1.2525 0.5164,1.9273 -0.3896,0.6748 -1.2525,0.906 -1.9273,0.5164 v 0 l -36.4415,-21.0395 c -0.6748,-0.3896 -0.906,-1.2524 -0.5164,-1.9273 0.3897,-0.6748 1.2525,-0.906 1.9273,-0.5164 z"
               stroke="none"
               id="path5" /></g><g
             text-rendering="geometricPrecision"
             id="g6"><path
               clip-path="url(#386007785271-clipPath1)"
               d="m 1030.7838,65.1964 v 0 L 994.4011,44.1908 c -0.6748,-0.3896 -0.906,-1.2525 -0.5165,-1.9273 0.3896,-0.6749 1.2525,-0.9061 1.9274,-0.5165 v 0 l 36.3827,21.0056 c 0.6748,0.3896 0.906,1.2525 0.5165,1.9273 -0.3897,0.6749 -1.2526,0.9061 -1.9274,0.5165 z"
               stroke="none"
               id="path9" /></g><g
             text-rendering="geometricPrecision"
             id="g7"><path
               clip-path="url(#386007785271-clipPath1)"
               d="m 952.4514,44.1908 v 0 l -36.3828,21.0056 c -0.6748,0.3896 -1.5377,0.1584 -1.9273,-0.5165 -0.3896,-0.6748 -0.1584,-1.5377 0.5164,-1.9273 v 0 L 951.0405,41.747 c 0.6748,-0.3896 1.5377,-0.1584 1.9273,0.5165 0.3896,0.6748 0.1584,1.5377 -0.5164,1.9273 z"
               stroke="none"
               id="path10" /></g><g
             text-rendering="geometricPrecision"
             id="g8"><path
               clip-path="url(#386007785271-clipPath1)"
               d="m 914.6577,65.1964 v 0 l -58.063,-33.5228 c -0.6748,-0.3896 -0.906,-1.2524 -0.5165,-1.9273 0.3897,-0.6748 1.2525,-0.906 1.9274,-0.5164 v 0 l 58.063,33.5227 c 0.6748,0.3896 0.9061,1.2525 0.5164,1.9273 -0.3896,0.6749 -1.2525,0.9061 -1.9273,0.5165 z"
               stroke="none"
               id="path11" /></g><g
             text-rendering="geometricPrecision"
             id="g9"><path
               clip-path="url(#386007785271-clipPath1)"
               d="m 858.0056,31.6736 v 0 l -58.0631,33.5228 c -0.6748,0.3896 -1.5377,0.1584 -1.9273,-0.5165 -0.3896,-0.6748 -0.1584,-1.5377 0.5164,-1.9273 v 0 l 58.0631,-33.5227 c 0.6748,-0.3896 1.5377,-0.1584 1.9273,0.5164 0.3896,0.6749 0.1584,1.5377 -0.5164,1.9273 z"
               stroke="none"
               id="path12" /></g><g
             text-rendering="geometricPrecision"
             id="g10"><path
               clip-path="url(#386007785271-clipPath1)"
               d="m 798.5316,65.1964 v 0 l -58.063,-33.5228 c -0.6748,-0.3896 -0.906,-1.2524 -0.5165,-1.9273 0.3897,-0.6748 1.2526,-0.906 1.9274,-0.5164 v 0 l 58.063,33.5227 c 0.6749,0.3896 0.9061,1.2525 0.5164,1.9273 -0.3896,0.6749 -1.2524,0.9061 -1.9273,0.5165 z"
               stroke="none"
               id="path13" /></g><g
             text-rendering="geometricPrecision"
             id="g11"><path
               clip-path="url(#386007785271-clipPath1)"
               d="m 741.8795,31.6736 v 0 l -58.063,33.5228 c -0.6749,0.3896 -1.5378,0.1584 -1.9274,-0.5165 -0.3896,-0.6748 -0.1584,-1.5377 0.5165,-1.9273 v 0 l 58.063,-33.5227 c 0.6748,-0.3896 1.5377,-0.1584 1.9273,0.5164 0.3896,0.6749 0.1584,1.5377 -0.5164,1.9273 z"
               stroke="none"
               id="path14" /></g><g
             text-rendering="geometricPrecision"
             id="g12"><path
               clip-path="url(#386007785271-clipPath1)"
               d="m 682.4056,65.1964 v 0 L 624.3425,31.6736 c -0.6748,-0.3896 -0.906,-1.2524 -0.5164,-1.9273 0.3896,-0.6748 1.2525,-0.906 1.9273,-0.5164 v 0 l 58.0631,33.5227 c 0.6748,0.3896 0.906,1.2525 0.5164,1.9273 -0.3897,0.6749 -1.2525,0.9061 -1.9273,0.5165 z"
               stroke="none"
               id="path15" /></g><g
             text-rendering="geometricPrecision"
             id="g13"><path
               clip-path="url(#386007785271-clipPath1)"
               d="m 625.7534,31.6736 v 0 l -58.063,33.5228 c -0.6748,0.3896 -1.5378,0.1584 -1.9273,-0.5165 -0.3897,-0.6748 -0.1584,-1.5377 0.5164,-1.9273 v 0 l 58.063,-33.5227 c 0.6748,-0.3896 1.5377,-0.1584 1.9273,0.5164 0.3896,0.6749 0.1584,1.5377 -0.5164,1.9273 z"
               stroke="none"
               id="path16" /></g><g
             text-rendering="geometricPrecision"
             id="g14"><path
               clip-path="url(#386007785271-clipPath1)"
               d="m 566.2795,65.1964 v 0 L 508.2164,31.6736 c -0.6748,-0.3896 -0.906,-1.2524 -0.5164,-1.9273 0.3896,-0.6748 1.2525,-0.906 1.9273,-0.5164 v 0 l 58.0631,33.5227 c 0.6748,0.3896 0.906,1.2525 0.5164,1.9273 -0.3897,0.6749 -1.2525,0.9061 -1.9273,0.5165 z"
               stroke="none"
               id="path17" /></g><g
             text-rendering="geometricPrecision"
             id="g15"><path
               clip-path="url(#386007785271-clipPath1)"
               d="m 509.6273,31.6736 v 0 l -58.063,33.5228 c -0.6749,0.3896 -1.5377,0.1584 -1.9273,-0.5165 -0.3897,-0.6748 -0.1585,-1.5377 0.5164,-1.9273 v 0 l 58.063,-33.5227 c 0.6748,-0.3896 1.5377,-0.1584 1.9273,0.5164 0.3896,0.6749 0.1584,1.5377 -0.5164,1.9273 z"
               stroke="none"
               id="path18" /></g><g
             text-rendering="geometricPrecision"
             id="g16"><path
               clip-path="url(#386007785271-clipPath1)"
               d="m 450.1534,65.1964 v 0 L 392.0903,31.6736 c -0.6748,-0.3896 -0.906,-1.2524 -0.5164,-1.9273 0.3896,-0.6748 1.2525,-0.906 1.9273,-0.5164 v 0 l 58.0631,33.5227 c 0.6748,0.3896 0.906,1.2525 0.5164,1.9273 -0.3896,0.6749 -1.2525,0.9061 -1.9273,0.5165 z"
               stroke="none"
               id="path19" /></g><g
             text-rendering="geometricPrecision"
             id="g17"><path
               clip-path="url(#386007785271-clipPath1)"
               d="m 393.5012,31.6736 v 0 l -58.063,33.5228 c -0.6748,0.3896 -1.5377,0.1584 -1.9273,-0.5165 -0.3896,-0.6748 -0.1584,-1.5377 0.5164,-1.9273 v 0 l 58.063,-33.5227 c 0.6748,-0.3896 1.5377,-0.1584 1.9273,0.5164 0.3897,0.6749 0.1584,1.5377 -0.5164,1.9273 z"
               stroke="none"
               id="path20" /></g><g
             text-rendering="geometricPrecision"
             id="g18"><path
               clip-path="url(#386007785271-clipPath1)"
               d="m 334.0273,65.1964 v 0 L 275.9642,31.6736 c -0.6748,-0.3896 -0.906,-1.2524 -0.5164,-1.9273 0.3896,-0.6748 1.2525,-0.906 1.9273,-0.5164 v 0 l 58.0631,33.5227 c 0.6748,0.3896 0.906,1.2525 0.5164,1.9273 -0.3896,0.6749 -1.2525,0.9061 -1.9273,0.5165 z"
               stroke="none"
               id="path21" /></g><g
             text-rendering="geometricPrecision"
             id="g19"><path
               clip-path="url(#386007785271-clipPath1)"
               d="m 277.3751,31.6736 v 0 l -58.063,33.5228 c -0.6748,0.3896 -1.5377,0.1584 -1.9273,-0.5165 -0.3896,-0.6748 -0.1584,-1.5377 0.5164,-1.9273 v 0 l 58.063,-33.5227 c 0.6749,-0.3896 1.5378,-0.1584 1.9273,0.5164 0.3897,0.6749 0.1585,1.5377 -0.5164,1.9273 z"
               stroke="none"
               id="path22" /></g><g
             text-rendering="geometricPrecision"
             id="g20"><path
               clip-path="url(#386007785271-clipPath1)"
               d="m 217.9012,65.1964 v 0 l -58.063,-33.5228 c -0.6749,-0.3896 -0.9061,-1.2524 -0.5165,-1.9273 0.3896,-0.6748 1.2525,-0.906 1.9274,-0.5164 v 0 l 58.063,33.5227 c 0.6748,0.3896 0.906,1.2525 0.5164,1.9273 -0.3896,0.6749 -1.2525,0.9061 -1.9273,0.5165 z"
               stroke="none"
               id="path23" /></g><g
             text-rendering="geometricPrecision"
             id="g21"><path
               clip-path="url(#386007785271-clipPath1)"
               d="m 161.2491,31.6736 v 0 L 103.186,65.1964 c -0.6748,0.3896 -1.5377,0.1584 -1.9273,-0.5165 -0.3896,-0.6748 -0.1584,-1.5377 0.5164,-1.9273 v 0 l 58.0631,-33.5227 c 0.6748,-0.3896 1.5377,-0.1584 1.9273,0.5164 0.3896,0.6749 0.1584,1.5377 -0.5164,1.9273 z"
               stroke="none"
               id="path24" /></g><g
             text-rendering="geometricPrecision"
             id="g22"><path
               clip-path="url(#386007785271-clipPath1)"
               d="m 101.7751,65.1964 v 0 L 43.7121,31.6736 c -0.6748,-0.3896 -0.9061,-1.2524 -0.5165,-1.9273 0.3897,-0.6748 1.2525,-0.906 1.9274,-0.5164 v 0 l 58.063,33.5227 c 0.6748,0.3896 0.906,1.2525 0.5164,1.9273 -0.3896,0.6749 -1.2525,0.9061 -1.9273,0.5165 z"
               stroke="none"
               id="path25" /></g><g
             font-family="Arial"
             font-size="46px"
             text-rendering="geometricPrecision"
             transform="translate(1129.5279,36.9745)"
             id="g23"><path
               d="m 2.2236328,27.962891 q 0,-8.198243 4.4023438,-12.825196 4.4023434,-4.649414 11.3652344,-4.649414 4.55957,0 8.220703,2.178711 3.661133,2.178711 5.570313,6.086914 1.93164,3.885742 1.93164,8.827149 0,5.008789 -2.021484,8.961914 -2.021485,3.953125 -5.727539,5.99707 -3.706055,2.021484 -7.996094,2.021484 -4.649414,0 -8.3105469,-2.246093 Q 5.9970703,40.069336 4.1103516,36.183594 2.2236328,32.297852 2.2236328,27.962891 Z m 4.4921875,0.06738 q 0,5.952149 3.1894531,9.388672 3.2119146,3.414063 8.0410156,3.414063 4.918945,0 8.085938,-3.458985 3.189453,-3.458984 3.189453,-9.815429 0,-4.020508 -1.370118,-7.007813 -1.347656,-3.009765 -3.975585,-4.649414 -2.605469,-1.662109 -5.862305,-1.662109 -4.626953,0 -7.973633,3.189453 -3.3242187,3.166992 -3.3242187,10.601562 z M 39.463867,44 V 11.072266 h 4.357422 V 24.59375 H 60.936523 V 11.072266 h 4.357422 V 44 H 60.936523 V 28.479492 H 43.821289 V 44 Z"
               id="text22"
               clip-path="url(#386007785152-clipPath1)"
               style="stroke:none"
               aria-label="OH" /></g><g
             font-family="Arial"
             font-size="46px"
             text-rendering="geometricPrecision"
             transform="translate(955.3388,3.4518)"
             id="g24"><path
               d="m 2.2236328,27.962891 q 0,-8.198243 4.4023438,-12.825196 4.4023434,-4.649414 11.3652344,-4.649414 4.55957,0 8.220703,2.178711 3.661133,2.178711 5.570313,6.086914 1.93164,3.885742 1.93164,8.827149 0,5.008789 -2.021484,8.961914 -2.021485,3.953125 -5.727539,5.99707 -3.706055,2.021484 -7.996094,2.021484 -4.649414,0 -8.3105469,-2.246093 Q 5.9970703,40.069336 4.1103516,36.183594 2.2236328,32.297852 2.2236328,27.962891 Z m 4.4921875,0.06738 q 0,5.952149 3.1894531,9.388672 3.2119146,3.414063 8.0410156,3.414063 4.918945,0 8.085938,-3.458985 3.189453,-3.458984 3.189453,-9.815429 0,-4.020508 -1.370118,-7.007813 -1.347656,-3.009765 -3.975585,-4.649414 -2.605469,-1.662109 -5.862305,-1.662109 -4.626953,0 -7.973633,3.189453 -3.3242187,3.166992 -3.3242187,10.601562 z"
               id="text23"
               clip-path="url(#386007785550-clipPath1)"
               style="stroke:none"
               aria-label="O" /></g></g><g
           text-rendering="geometricPrecision"
           stroke-width="5.6109"
           font-size="49px"
           font-weight="bold"
           font-family="Arial"
           id="g55"
           transform="matrix(0.5221471,0,0,0.5221471,661.65335,-222.72334)"><path
             style="font-weight:normal;font-size:medium;baseline-shift:baseline;display:inline;overflow:visible;opacity:1;color-interpolation:sRGB;vector-effect:none;stroke:none;stroke-linecap:butt;text-rendering:auto;enable-background:accumulate;stop-color:#000000;stop-opacity:1"
             d="m 529.01758,382.67383 v 2.80664 258.10156 2.80469 h 5.60937 v -2.80469 -258.10156 -2.80664 z"
             id="line43" /><path
             style="font-weight:normal;font-size:medium;baseline-shift:baseline;display:inline;overflow:visible;opacity:1;color-interpolation:sRGB;vector-effect:none;stroke:none;stroke-linecap:butt;text-rendering:auto;enable-background:accumulate;stop-color:#000000;stop-opacity:1"
             d="m 529.01758,382.67383 v 5.61133 h 2.80469 14.2207 2.80469 v -5.61133 h -2.80469 -14.2207 z"
             id="line45" /><path
             style="font-weight:normal;font-size:medium;baseline-shift:baseline;display:inline;overflow:visible;opacity:1;color-interpolation:sRGB;vector-effect:none;stroke:none;stroke-linecap:butt;text-rendering:auto;enable-background:accumulate;stop-color:#000000;stop-opacity:1"
             d="m 529.01758,640.77734 v 5.60938 h 2.80469 14.2207 2.80469 v -5.60938 h -2.80469 -14.2207 z"
             id="line47" /><path
             style="font-weight:normal;font-size:medium;baseline-shift:baseline;display:inline;overflow:visible;opacity:1;color-interpolation:sRGB;vector-effect:none;stroke:none;stroke-linecap:butt;text-rendering:auto;enable-background:accumulate;stop-color:#000000;stop-opacity:1"
             d="m 846.96875,382.67383 v 2.80664 258.10156 2.80469 h 5.61133 v -2.80469 -258.10156 -2.80664 z"
             id="line49" /><path
             style="font-weight:normal;font-size:medium;baseline-shift:baseline;display:inline;overflow:visible;opacity:1;color-interpolation:sRGB;vector-effect:none;stroke:none;stroke-linecap:butt;text-rendering:auto;enable-background:accumulate;stop-color:#000000;stop-opacity:1"
             d="m 832.75,640.77734 v 5.60938 h 2.80469 14.2207 2.80469 v -5.60938 h -2.80469 -14.2207 z"
             id="line51" /><path
             style="font-weight:normal;font-size:medium;baseline-shift:baseline;display:inline;overflow:visible;opacity:1;color-interpolation:sRGB;vector-effect:none;stroke:none;stroke-linecap:butt;text-rendering:auto;enable-background:accumulate;stop-color:#000000;stop-opacity:1"
             d="m 832.75,382.67383 v 5.61133 h 2.80469 14.2207 2.80469 v -5.61133 h -2.80469 -14.2207 z"
             id="line53" /></g><g
           id="text25"
           style="opacity:1"><path
             style="font-style:italic;font-size:29.3333px;font-family:Arial;-inkscape-font-specification:'Arial, Italic';baseline-shift:baseline;display:inline;overflow:visible;color-interpolation:sRGB;vector-effect:none;fill:#1a1a1a;stroke:none;stroke-linecap:butt;enable-background:accumulate;stop-color:#000000;stop-opacity:1"
             d="m 1114.9577,119.29539 3.1797,-15.21092 h 2.349 l -0.5586,2.64973 q 1.5325,-1.56119 2.8645,-2.27734 1.3321,-0.71614 2.7214,-0.71614 1.8477,0 2.8932,1.0026 1.0599,1.0026 1.0599,2.67838 0,0.84505 -0.3724,2.66406 l -1.9336,9.20963 h -2.5924 l 2.0195,-9.63931 q 0.3008,-1.40365 0.3008,-2.07683 0,-0.75911 -0.5299,-1.23176 -0.5157,-0.47266 -1.504,-0.47266 -1.9908,0 -3.552,1.43229 -1.5469,1.43229 -2.2774,4.91275 l -1.4752,7.07552 z"
             id="path27" /><path
             style="font-style:italic;font-size:29.3333px;font-family:Arial;-inkscape-font-specification:'Arial, Italic';baseline-shift:baseline;display:inline;overflow:visible;color-interpolation:sRGB;vector-effect:none;stroke:none;stroke-linecap:butt;enable-background:accumulate;stop-color:#000000;stop-opacity:1"
             d="m 1125.5137,103.24023 c -1.0121,0 -2.0071,0.26364 -2.959,0.7754 -0.5902,0.3173 -1.228,0.93932 -1.8516,1.4707 l 0.4004,-1.90235 h -3.373 l -3.3887,16.21094 h 3.6152 l 1.5586,-7.47265 c 0.4753,-2.26437 1.2151,-3.8041 2.127,-4.64844 0.9622,-0.88193 2.0065,-1.29883 3.2129,-1.29883 0.5791,0 0.9395,0.13419 1.166,0.3418 v 0.002 0.002 c 0.254,0.22659 0.3633,0.46965 0.3633,0.85938 0,0.37431 -0.092,1.05095 -0.2891,1.9707 v 0.002 l -2.1465,10.24219 h 3.6133 l 2.0176,-9.60742 v -0.002 c 0.2513,-1.22758 0.3828,-2.12686 0.3828,-2.76367 0,-1.22261 -0.4092,-2.27705 -1.2168,-3.04102 -0.803,-0.7682 -1.9158,-1.14063 -3.2363,-1.14063 z m 0,1 c 1.1413,0 1.9561,0.29673 2.5468,0.86329 v 0.002 0.002 c 0.6056,0.57283 0.9043,1.30268 0.9043,2.31446 0,0.48991 -0.1161,1.36668 -0.3613,2.56445 l -1.8516,8.80859 h -1.5684 l 1.8907,-9.0332 c 0.2039,-0.95178 0.3125,-1.65838 0.3125,-2.18164 0,-0.6215 -0.2441,-1.19999 -0.6953,-1.60352 -0.4609,-0.42059 -1.101,-0.60156 -1.8379,-0.60156 -1.4471,0 -2.7718,0.53802 -3.8907,1.56445 v 0 c -1.1506,1.06538 -1.929,2.80149 -2.4277,5.17774 l -1.3907,6.67773 h -1.5703 l 2.9688,-14.21094 h 1.3281 l -0.7852,3.72266 1.1993,-1.22266 c 0.9977,-1.01638 1.9191,-1.74395 2.7441,-2.1875 0.8242,-0.44309 1.6441,-0.65625 2.4844,-0.65625 z"
             id="path28" /></g></g></g><g
       id="g40"
       transform="matrix(0.26458333,0,0,0.26458333,29.776124,2.0028856)"><path
         id="path1-2"
         d="m 5.8705078,-2.50875 0.9492188,0.234375 c -0.1962891,0.7822266 -0.5507813,1.37695312 -1.0664063,1.78125 -0.515625,0.40722656 -1.1484375,0.609375 -1.8984375,0.609375 -0.7675781,0 -1.3916015,-0.15527344 -1.875,-0.46875 -0.4863281,-0.31054688 -0.8554687,-0.7646484 -1.11328124,-1.359375 -0.25195312,-0.5917969 -0.375,-1.2333984 -0.375,-1.921875 0,-0.7412109 0.140625,-1.3886719 0.421875,-1.9453125 C 1.2005859,-6.1327734 1.6078125,-6.5546484 2.1322266,-6.8446875 2.6625,-7.1317969 3.2455078,-7.2782813 3.8783203,-7.2782813 c 0.7089844,0 1.3066406,0.1845704 1.7929688,0.5507813 0.4921875,0.3603516 0.8349609,0.8730469 1.03125,1.5351562 l -0.9375,0.2226563 C 5.6009766,-5.4911719 5.3578125,-5.8720313 5.0384766,-6.1064063 4.725,-6.3466406 4.3294922,-6.4696875 3.8548828,-6.4696875 c -0.5478515,0 -1.0078125,0.1347656 -1.3828125,0.3984375 -0.3691406,0.2666016 -0.6269531,0.6210937 -0.7734375,1.0664062 -0.149414,0.4394532 -0.2226562,0.8964844 -0.2226562,1.3710938 0,0.609375 0.084961,1.1425781 0.2578125,1.59375 0.1787109,0.4541016 0.4570312,0.7939453 0.8320312,1.0195312 0.375,0.21972661 0.7792969,0.32812505 1.21875,0.32812505 0.5302735,0 0.9785156,-0.15234375 1.3476563,-0.45703125 0.3662109,-0.3046875 0.6123047,-0.7558594 0.7382812,-1.359375 z m 0,0"
         style="fill:#000000;fill-opacity:1;fill-rule:nonzero;stroke:none"
         aria-label="C"
         transform="matrix(1.3333333,0,0,1.3333333,75.2,94.72)" /><path
         id="path2-1"
         d="M 0.79675781,-9.375e-4 V -7.1610938 H 1.7459766 v 2.9414063 H 5.4608203 V -7.1610938 H 6.4100391 V -9.375e-4 H 5.4608203 v -3.375 H 1.7459766 v 3.375 z m 0,0"
         style="fill:#000000;fill-opacity:1;fill-rule:nonzero;stroke:none"
         aria-label="H"
         transform="matrix(1.3333333,0,0,1.3333333,59.84,94.72)" /><path
         id="path3-6"
         d="m 0.34089844,-1.5130078 0.70312496,-0.09375 c 0.076172,0.3984375 0.2138672,0.68847655 0.4101563,0.86718749 0.1933594,0.17285156 0.4277344,0.2578125 0.703125,0.2578125 0.3339844,0 0.6152344,-0.11132813 0.84375,-0.33984375 0.2255859,-0.23437504 0.3398437,-0.51855474 0.3398437,-0.85546874 0,-0.319336 -0.1054687,-0.5859375 -0.3164062,-0.796875 -0.2109375,-0.2109375 -0.4804688,-0.3164063 -0.8085938,-0.3164063 -0.1347656,0 -0.2988281,0.029297 -0.4921875,0.082031 l 0.082031,-0.6210938 c 0.046875,0.00879 0.082031,0.011719 0.1054687,0.011719 0.3046875,0 0.5742188,-0.076172 0.8085938,-0.234375 0.2402344,-0.1552735 0.3632812,-0.3984375 0.3632812,-0.7265625 0,-0.2578125 -0.09082,-0.4716797 -0.2695312,-0.6445313 -0.1728516,-0.1699218 -0.3955078,-0.2578125 -0.6679688,-0.2578125 -0.2753906,0 -0.5039062,0.087891 -0.6914062,0.2578125 C 1.2725391,-4.7503125 1.1612109,-4.4925 1.1143359,-4.1497266 L 0.41121094,-4.2669141 c 0.0849609,-0.4746093 0.28125,-0.84375 0.5859375,-1.1015625 0.30468746,-0.2578125 0.68261716,-0.3867187 1.13671876,-0.3867187 0.3105469,0 0.5976562,0.067383 0.8554687,0.1992187 0.2636719,0.1347657 0.46875,0.3164063 0.609375,0.5507813 0.140625,0.234375 0.2109375,0.4804687 0.2109375,0.7382812 0,0.2519532 -0.067383,0.4775391 -0.1992187,0.6796875 -0.1347656,0.2050782 -0.3339844,0.3632813 -0.5976563,0.4804688 0.3427735,0.079102 0.609375,0.243164 0.796875,0.4921875 0.1875,0.243164 0.28125,0.5507812 0.28125,0.9257812 0,0.5009766 -0.1845703,0.92578129 -0.5507812,1.27734379 -0.3691406,0.34570312 -0.8291016,0.515625 -1.3828125,0.515625 -0.5009766,0 -0.9199219,-0.14648438 -1.25390626,-0.4453125 -0.328125,-0.3046875 -0.515625,-0.69433599 -0.5625,-1.17187499 z m 0,0"
         style="fill:#000000;fill-opacity:1;fill-rule:nonzero;stroke:none"
         aria-label="3"
         transform="matrix(1.3333333,0,0,1.3333333,69.44,98.24)" /><path
         id="path4-8"
         d="m 0.47964844,-3.48 c 0,-1.1865234 0.31933594,-2.1152344 0.96093746,-2.7890625 0.6386719,-0.6708984 1.4648438,-1.0078125 2.4726563,-1.0078125 0.65625,0 1.2480469,0.1582031 1.78125,0.46875 0.5302734,0.3134766 0.9316406,0.7558594 1.2070312,1.3242187 0.28125,0.5625 0.421875,1.2041016 0.421875,1.921875 0,0.7207032 -0.149414,1.3681641 -0.4453125,1.9453125 -0.290039,0.5712891 -0.703125,1.00488286 -1.2421875,1.3007813 -0.5332031,0.29003906 -1.1103515,0.43359375 -1.734375,0.43359375 -0.6738281,0 -1.274414,-0.15820313 -1.8046875,-0.48046875 C 1.5636328,-0.6909375 1.1622656,-1.13625 0.88980469,-1.69875 0.61441406,-2.26125 0.47964844,-2.8530469 0.47964844,-3.48 Z m 0.98437496,0.011719 c 0,0.8613282 0.2285157,1.5410157 0.6914063,2.0390625 0.4599609,0.49218755 1.0429687,0.7382813 1.7460937,0.7382813 0.7089844,0 1.2949219,-0.24902344 1.7578125,-0.75 0.459961,-0.4980469 0.6914063,-1.2099609 0.6914063,-2.1328125 0,-0.5771484 -0.1025391,-1.0839844 -0.3046875,-1.5234375 C 5.8497656,-5.5337109 5.5597266,-5.870625 5.1788672,-6.105 c -0.375,-0.2402344 -0.796875,-0.3632813 -1.265625,-0.3632813 -0.6738281,0 -1.2509766,0.2314454 -1.734375,0.6914063 -0.4775391,0.4628906 -0.7148438,1.2304687 -0.7148438,2.308594 z m 0,0"
         style="fill:#000000;fill-opacity:1;fill-rule:nonzero;stroke:none"
         aria-label="O"
         transform="matrix(1.3333333,0,0,1.3333333,442.88,96.64)" /><path
         id="path5-5"
         d="M 0.79792969,4.6875e-4 V -7.1596875 H 1.7471484 v 2.9414062 H 5.4619922 V -7.1596875 H 6.4112109 V 4.6875e-4 H 5.4619922 V -3.3745313 H 1.7471484 V 4.6875e-4 Z m 0,0"
         style="fill:#000000;fill-opacity:1;fill-rule:nonzero;stroke:none"
         aria-label="H"
         transform="matrix(1.3333333,0,0,1.3333333,453.44,96.64)" /><path
         style="baseline-shift:baseline;display:inline;overflow:visible;opacity:1;vector-effect:none;stroke-linecap:round;stroke-linejoin:round;stroke-miterlimit:10;enable-background:accumulate;stop-color:#000000;stop-opacity:1"
         d="m 64.738281,777.24805 a 0.36000001,0.36000001 0 0 0 -0.490234,0.13281 0.36000001,0.36000001 0 0 0 0.132812,0.49219 l 12.75,7.26953 a 0.36000001,0.36000001 0 0 0 0.492188,-0.13477 0.36000001,0.36000001 0 0 0 -0.134766,-0.49023 z"
         id="path6-7"
         transform="matrix(1.3333333,0,0,-1.3333333,0,1122.56)" /><path
         style="baseline-shift:baseline;display:inline;overflow:visible;opacity:1;vector-effect:none;stroke-linecap:round;stroke-linejoin:round;stroke-miterlimit:10;enable-background:accumulate;stop-color:#000000;stop-opacity:1"
         d="M 94.318359,774.45898 77.128906,784.51953 A 0.36000001,0.36000001 0 0 0 77,785.01172 a 0.36000001,0.36000001 0 0 0 0.492187,0.1289 l 17.189454,-10.06054 a 0.36000001,0.36000001 0 0 0 0.128906,-0.49219 0.36000001,0.36000001 0 0 0 -0.492188,-0.12891 z"
         id="path7-6"
         transform="matrix(1.3333333,0,0,-1.3333333,0,1122.56)" /><path
         style="baseline-shift:baseline;display:inline;overflow:visible;opacity:1;vector-effect:none;stroke-linecap:round;stroke-linejoin:round;stroke-miterlimit:10;enable-background:accumulate;stop-color:#000000;stop-opacity:1"
         d="m 94.677734,774.45703 a 0.36000001,0.36000001 0 0 0 -0.490234,0.13477 0.36000001,0.36000001 0 0 0 0.134766,0.49023 l 17.308594,9.87109 a 0.36000001,0.36000001 0 0 0 0.49219,-0.13476 0.36000001,0.36000001 0 0 0 -0.13477,-0.49024 z"
         id="path8-1"
         transform="matrix(1.3333333,0,0,-1.3333333,0,1122.56)" /><path
         style="baseline-shift:baseline;display:inline;overflow:visible;opacity:1;vector-effect:none;stroke-linecap:round;stroke-linejoin:round;stroke-miterlimit:10;enable-background:accumulate;stop-color:#000000;stop-opacity:1"
         d="m 128.81836,774.26953 -17.18945,10.06055 a 0.36000001,0.36000001 0 0 0 -0.12891,0.49219 0.36000001,0.36000001 0 0 0 0.49219,0.1289 l 17.18945,-10.06055 a 0.36000001,0.36000001 0 0 0 0.12891,-0.49218 0.36000001,0.36000001 0 0 0 -0.49219,-0.12891 z"
         id="path9-8"
         transform="matrix(1.3333333,0,0,-1.3333333,0,1122.56)" /><path
         style="baseline-shift:baseline;display:inline;overflow:visible;opacity:1;vector-effect:none;stroke-linecap:round;stroke-linejoin:round;stroke-miterlimit:10;enable-background:accumulate;stop-color:#000000;stop-opacity:1"
         d="m 129.17773,774.26758 a 0.36000001,0.36000001 0 0 0 -0.49023,0.13476 0.36000001,0.36000001 0 0 0 0.13477,0.49024 l 17.30859,9.87109 a 0.36000001,0.36000001 0 0 0 0.49219,-0.13476 0.36000001,0.36000001 0 0 0 -0.13477,-0.49219 z"
         id="path10-9"
         transform="matrix(1.3333333,0,0,-1.3333333,0,1122.56)" /><path
         style="baseline-shift:baseline;display:inline;overflow:visible;opacity:1;vector-effect:none;stroke-linecap:round;stroke-linejoin:round;stroke-miterlimit:10;enable-background:accumulate;stop-color:#000000;stop-opacity:1"
         d="m 163.32812,774.08008 -17.19921,10.05859 A 0.36000001,0.36000001 0 0 0 146,784.63086 a 0.36000001,0.36000001 0 0 0 0.49219,0.13086 l 17.19922,-10.06055 a 0.36000001,0.36000001 0 0 0 0.1289,-0.49219 0.36000001,0.36000001 0 0 0 -0.49219,-0.1289 z"
         id="path11-2"
         transform="matrix(1.3333333,0,0,-1.3333333,0,1122.56)" /><path
         style="baseline-shift:baseline;display:inline;overflow:visible;opacity:1;vector-effect:none;stroke-linecap:round;stroke-linejoin:round;stroke-miterlimit:10;enable-background:accumulate;stop-color:#000000;stop-opacity:1"
         d="m 163.6875,774.07812 a 0.36000001,0.36000001 0 0 0 -0.49023,0.13282 0.36000001,0.36000001 0 0 0 0.13476,0.49218 l 17.29883,9.86915 a 0.36000001,0.36000001 0 0 0 0.49219,-0.13477 0.36000001,0.36000001 0 0 0 -0.13477,-0.49023 z"
         id="path12-7"
         transform="matrix(1.3333333,0,0,-1.3333333,0,1122.56)" /><path
         style="baseline-shift:baseline;display:inline;overflow:visible;opacity:1;vector-effect:none;stroke-linecap:round;stroke-linejoin:round;stroke-miterlimit:10;enable-background:accumulate;stop-color:#000000;stop-opacity:1"
         d="m 197.82812,773.89844 -17.19921,10.05078 a 0.36000001,0.36000001 0 0 0 -0.12891,0.49219 0.36000001,0.36000001 0 0 0 0.49219,0.1289 l 17.19922,-10.04883 a 0.36000001,0.36000001 0 0 0 0.1289,-0.49218 0.36000001,0.36000001 0 0 0 -0.49219,-0.13086 z"
         id="path13-9"
         transform="matrix(1.3333333,0,0,-1.3333333,0,1122.56)" /><path
         style="baseline-shift:baseline;display:inline;overflow:visible;opacity:1;vector-effect:none;stroke-linecap:round;stroke-linejoin:round;stroke-miterlimit:10;enable-background:accumulate;stop-color:#000000;stop-opacity:1"
         d="m 198.1875,773.89648 a 0.36000001,0.36000001 0 0 0 -0.49023,0.13477 0.36000001,0.36000001 0 0 0 0.13476,0.49219 l 17.29883,9.85937 a 0.36000001,0.36000001 0 0 0 0.49219,-0.13476 0.36000001,0.36000001 0 0 0 -0.13477,-0.49024 z"
         id="path14-5"
         transform="matrix(1.3333333,0,0,-1.3333333,0,1122.56)" /><path
         style="baseline-shift:baseline;display:inline;overflow:visible;opacity:1;vector-effect:none;stroke-linecap:round;stroke-linejoin:round;stroke-miterlimit:10;enable-background:accumulate;stop-color:#000000;stop-opacity:1"
         d="m 232.32812,773.70898 -17.19921,10.05079 A 0.36000001,0.36000001 0 0 0 215,784.25195 a 0.36000001,0.36000001 0 0 0 0.49219,0.12891 l 17.19922,-10.05078 a 0.36000001,0.36000001 0 0 0 0.1289,-0.49219 0.36000001,0.36000001 0 0 0 -0.49219,-0.12891 z"
         id="path15-4"
         transform="matrix(1.3333333,0,0,-1.3333333,0,1122.56)" /><path
         style="baseline-shift:baseline;display:inline;overflow:visible;opacity:1;vector-effect:none;stroke-linecap:round;stroke-linejoin:round;stroke-miterlimit:10;enable-background:accumulate;stop-color:#000000;stop-opacity:1"
         d="m 232.6875,773.70703 a 0.36000001,0.36000001 0 0 0 -0.49023,0.13477 0.36000001,0.36000001 0 0 0 0.13476,0.49023 l 17.31055,9.86133 a 0.36000001,0.36000001 0 0 0 0.49023,-0.13477 0.36000001,0.36000001 0 0 0 -0.13476,-0.49218 z"
         id="path16-3"
         transform="matrix(1.3333333,0,0,-1.3333333,0,1122.56)" /><path
         style="baseline-shift:baseline;display:inline;overflow:visible;opacity:1;vector-effect:none;stroke-linecap:round;stroke-linejoin:round;stroke-miterlimit:10;enable-background:accumulate;stop-color:#000000;stop-opacity:1"
         d="m 266.82812,773.51953 -17.18945,10.04883 a 0.36000001,0.36000001 0 0 0 -0.1289,0.49414 0.36000001,0.36000001 0 0 0 0.49218,0.12891 l 17.18946,-10.05079 a 0.36000001,0.36000001 0 0 0 0.1289,-0.49218 0.36000001,0.36000001 0 0 0 -0.49219,-0.12891 z"
         id="path17-1"
         transform="matrix(1.3333333,0,0,-1.3333333,0,1122.56)" /><path
         style="baseline-shift:baseline;display:inline;overflow:visible;opacity:1;vector-effect:none;stroke-linecap:round;stroke-linejoin:round;stroke-miterlimit:10;enable-background:accumulate;stop-color:#000000;stop-opacity:1"
         d="m 267.1875,773.51758 a 0.36000001,0.36000001 0 0 0 -0.49023,0.13476 0.36000001,0.36000001 0 0 0 0.13476,0.49024 l 17.31055,9.85937 a 0.36000001,0.36000001 0 0 0 0.49023,-0.13281 0.36000001,0.36000001 0 0 0 -0.13476,-0.49219 z"
         id="path18-2"
         transform="matrix(1.3333333,0,0,-1.3333333,0,1122.56)" /><path
         style="baseline-shift:baseline;display:inline;overflow:visible;opacity:1;vector-effect:none;stroke-linecap:round;stroke-linejoin:round;stroke-miterlimit:10;enable-background:accumulate;stop-color:#000000;stop-opacity:1"
         d="m 301.32812,773.33008 -17.18945,10.04883 a 0.36000001,0.36000001 0 0 0 -0.1289,0.49218 0.36000001,0.36000001 0 0 0 0.49218,0.12891 l 17.18946,-10.04883 a 0.36000001,0.36000001 0 0 0 0.1289,-0.49219 0.36000001,0.36000001 0 0 0 -0.49219,-0.1289 z"
         id="path19-3"
         transform="matrix(1.3333333,0,0,-1.3333333,0,1122.56)" /><path
         style="baseline-shift:baseline;display:inline;overflow:visible;opacity:1;vector-effect:none;stroke-linecap:round;stroke-linejoin:round;stroke-miterlimit:10;enable-background:accumulate;stop-color:#000000;stop-opacity:1"
         d="m 301.6875,773.32812 a 0.36000001,0.36000001 0 0 0 -0.49023,0.13282 0.36000001,0.36000001 0 0 0 0.13476,0.49218 l 17.31055,9.85938 a 0.36000001,0.36000001 0 0 0 0.49023,-0.13477 0.36000001,0.36000001 0 0 0 -0.13476,-0.49023 z"
         id="path20-3"
         transform="matrix(1.3333333,0,0,-1.3333333,0,1122.56)" /><path
         style="baseline-shift:baseline;display:inline;overflow:visible;opacity:1;vector-effect:none;stroke-linecap:round;stroke-linejoin:round;stroke-miterlimit:10;enable-background:accumulate;stop-color:#000000;stop-opacity:1"
         d="m 331.01758,775.95898 -12.37891,7.23047 a 0.36000001,0.36000001 0 0 0 -0.1289,0.49219 0.36000001,0.36000001 0 0 0 0.49218,0.12891 l 12.37891,-7.23047 a 0.36000001,0.36000001 0 0 0 0.13086,-0.49219 0.36000001,0.36000001 0 0 0 -0.49414,-0.12891 z"
         id="path21-4"
         transform="matrix(1.3333333,0,0,-1.3333333,0,1122.56)" /><path
         id="path22-1"
         d="m 5.8703906,-2.5089844 0.9492188,0.234375 c -0.1962891,0.7822266 -0.5507813,1.37695315 -1.0664063,1.78125003 -0.515625,0.40722656 -1.1484375,0.609375 -1.8984375,0.609375 -0.7675781,0 -1.3916015,-0.15527344 -1.875,-0.46875 C 1.4934375,-0.66328125 1.1242969,-1.1173828 0.86648437,-1.7121094 c -0.25195312,-0.5917968 -0.375,-1.2333984 -0.375,-1.921875 0,-0.7412109 0.140625,-1.3886718 0.421875,-1.9453125 0.28710933,-0.5537109 0.69433593,-0.9755859 1.21875003,-1.265625 0.5302734,-0.2871093 1.1132812,-0.4335937 1.7460937,-0.4335937 0.7089844,0 1.3066406,0.1845703 1.7929688,0.5507812 0.4921875,0.3603516 0.8349609,0.8730469 1.03125,1.5351563 l -0.9375,0.2226562 C 5.6008594,-5.4914062 5.3576953,-5.8722656 5.0383594,-6.1066406 4.7248828,-6.346875 4.329375,-6.4699219 3.8547656,-6.4699219 c -0.5478515,0 -1.0078125,0.1347657 -1.3828125,0.3984375 -0.3691406,0.2666016 -0.6269531,0.6210938 -0.7734375,1.0664063 -0.149414,0.4394531 -0.2226562,0.8964844 -0.2226562,1.3710937 0,0.609375 0.084961,1.1425782 0.2578125,1.59375 0.1787109,0.4541016 0.4570312,0.7939453 0.8320312,1.0195313 0.375,0.21972654 0.7792969,0.32812498 1.21875,0.32812498 0.5302735,0 0.9785156,-0.15234375 1.3476563,-0.45703128 0.3662109,-0.3046875 0.6123047,-0.7558593 0.7382812,-1.359375 z m 0,0"
         style="fill:#000000;fill-opacity:1;fill-rule:nonzero;stroke:none"
         aria-label="C"
         transform="matrix(1.3333333,0,0,1.3333333,119.04,142.4)" /><path
         id="path23-1"
         d="M 0.79664062,-0.00117187 V -7.1613281 H 1.7458594 v 2.9414062 h 3.7148437 v -2.9414062 h 0.9492188 v 7.16015623 H 5.4607031 V -3.3761719 H 1.7458594 v 3.37500003 z m 0,0"
         style="fill:#000000;fill-opacity:1;fill-rule:nonzero;stroke:none"
         aria-label="H"
         transform="matrix(1.3333333,0,0,1.3333333,103.68,142.4)" /><path
         id="path24-3"
         d="m 0.34078125,-1.5103125 0.70312495,-0.09375 c 0.076172,0.3984375 0.2138672,0.68847656 0.4101563,0.8671875 0.1933594,0.17285156 0.4277344,0.2578125 0.703125,0.2578125 0.3339844,0 0.6152344,-0.11132812 0.84375,-0.33984375 0.2255859,-0.23437495 0.3398437,-0.51855465 0.3398437,-0.85546875 0,-0.3193359 -0.1054687,-0.5859375 -0.3164062,-0.796875 -0.2109375,-0.2109375 -0.4804688,-0.3164062 -0.8085938,-0.3164062 -0.1347656,0 -0.2988281,0.029297 -0.4921875,0.082031 l 0.082031,-0.6210937 c 0.046875,0.00879 0.082031,0.011719 0.1054687,0.011719 0.3046875,0 0.5742188,-0.076172 0.8085938,-0.234375 0.2402344,-0.1552734 0.3632812,-0.3984375 0.3632812,-0.7265625 0,-0.2578125 -0.09082,-0.4716797 -0.2695312,-0.6445312 -0.1728516,-0.1699219 -0.3955078,-0.2578125 -0.6679688,-0.2578125 -0.2753906,0 -0.5039062,0.087891 -0.6914062,0.2578125 -0.1816406,0.1728515 -0.2929688,0.430664 -0.3398438,0.7734375 L 0.41109375,-4.2642187 c 0.0849609,-0.4746094 0.28125,-0.84375 0.5859375,-1.1015625 C 1.3017187,-5.6235937 1.6796484,-5.7525 2.13375,-5.7525 c 0.3105469,0 0.5976562,0.067383 0.8554687,0.1992188 0.2636719,0.1347656 0.46875,0.3164062 0.609375,0.5507812 0.140625,0.234375 0.2109375,0.4804688 0.2109375,0.7382813 0,0.2519531 -0.067383,0.477539 -0.1992187,0.6796875 -0.1347656,0.2050781 -0.3339844,0.3632812 -0.5976563,0.4804687 0.3427735,0.079102 0.609375,0.2431641 0.796875,0.4921875 0.1875,0.2431641 0.28125,0.5507813 0.28125,0.9257813 0,0.5009765 -0.1845703,0.9257812 -0.5507812,1.2773437 -0.3691406,0.34570313 -0.8291016,0.515625 -1.3828125,0.515625 -0.5009766,0 -0.9199219,-0.14648437 -1.25390625,-0.4453125 -0.328125,-0.3046875 -0.515625,-0.6943359 -0.5625,-1.171875 z m 0,0"
         style="fill:#000000;fill-opacity:1;fill-rule:nonzero;stroke:none"
         aria-label="3"
         transform="matrix(1.3333333,0,0,1.3333333,113.28,145.92)" /><path
         id="path25-8"
         d="m 0.48117188,-3.4802344 c 0,-1.1865234 0.31933593,-2.1152343 0.96093752,-2.7890625 0.6386719,-0.6708984 1.4648437,-1.0078125 2.4726562,-1.0078125 0.65625,0 1.2480469,0.1582032 1.78125,0.46875 0.5302735,0.3134766 0.9316407,0.7558594 1.2070313,1.3242188 0.28125,0.5625 0.421875,1.2041015 0.421875,1.921875 0,0.7207031 -0.1494141,1.368164 -0.4453125,1.9453125 -0.2900391,0.571289 -0.703125,1.00488279 -1.2421875,1.30078123 -0.5332031,0.29003906 -1.1103516,0.43359375 -1.734375,0.43359375 -0.6738281,0 -1.2744141,-0.15820313 -1.8046875,-0.48046875 -0.5332031,-0.328125 -0.9345703,-0.77343753 -1.20703127,-1.33593753 -0.27539063,-0.5625 -0.41015625,-1.1542968 -0.41015625,-1.78125 z m 0.98437502,0.011719 c 0,0.8613281 0.2285156,1.5410156 0.6914062,2.0390625 0.459961,0.49218748 1.0429688,0.73828123 1.7460938,0.73828123 0.7089844,0 1.2949219,-0.24902344 1.7578125,-0.75000003 0.4599609,-0.4980468 0.6914062,-1.2099609 0.6914062,-2.1328125 0,-0.5771484 -0.102539,-1.0839843 -0.3046875,-1.5234375 -0.196289,-0.4365234 -0.4863281,-0.7734375 -0.8671875,-1.0078125 -0.375,-0.2402343 -0.796875,-0.3632812 -1.265625,-0.3632812 -0.6738281,0 -1.2509765,0.2314453 -1.734375,0.6914062 -0.477539,0.4628907 -0.7148437,1.2304688 -0.7148437,2.3085938 z m 0,0"
         style="fill:#000000;fill-opacity:1;fill-rule:nonzero;stroke:none"
         aria-label="O"
         transform="matrix(1.3333333,0,0,1.3333333,440.96,144.32)" /><path
         id="path26"
         d="M 0.79652344,2.34375e-4 V -7.1599219 H 1.7457422 v 2.9414063 H 5.4605859 V -7.1599219 H 6.4098047 V 2.34375e-4 H 5.4605859 V -3.3747656 H 1.7457422 V 2.34375e-4 Z m 0,0"
         style="fill:#000000;fill-opacity:1;fill-rule:nonzero;stroke:none"
         aria-label="H"
         transform="matrix(1.3333333,0,0,1.3333333,451.52,144.32)" /><path
         style="baseline-shift:baseline;display:inline;overflow:visible;opacity:1;vector-effect:none;stroke-linecap:round;stroke-linejoin:round;stroke-miterlimit:10;enable-background:accumulate;stop-color:#000000;stop-opacity:1"
         d="m 97.619141,741.19727 a 0.36000001,0.36000001 0 0 0 -0.492188,0.13476 0.36000001,0.36000001 0 0 0 0.134766,0.49024 l 12.929691,7.37109 a 0.36000001,0.36000001 0 0 0 0.49218,-0.13477 0.36000001,0.36000001 0 0 0 -0.13476,-0.49218 z"
         id="path27-7"
         transform="matrix(1.3333333,0,0,-1.3333333,0,1122.56)" /><path
         style="baseline-shift:baseline;display:inline;overflow:visible;opacity:1;vector-effect:none;stroke-linecap:round;stroke-linejoin:round;stroke-miterlimit:10;enable-background:accumulate;stop-color:#000000;stop-opacity:1"
         d="m 127.37891,738.50977 -17.19141,10.05859 a 0.36000001,0.36000001 0 0 0 -0.12891,0.49414 0.36000001,0.36000001 0 0 0 0.49414,0.12891 l 17.18946,-10.06055 a 0.36000001,0.36000001 0 0 0 0.1289,-0.49219 0.36000001,0.36000001 0 0 0 -0.49218,-0.1289 z"
         id="path28-4"
         transform="matrix(1.3333333,0,0,-1.3333333,0,1122.56)" /><path
         style="baseline-shift:baseline;display:inline;overflow:visible;opacity:1;vector-effect:none;stroke-linecap:round;stroke-linejoin:round;stroke-miterlimit:10;enable-background:accumulate;stop-color:#000000;stop-opacity:1"
         d="m 127.73828,738.50781 a 0.36000001,0.36000001 0 0 0 -0.49023,0.13477 0.36000001,0.36000001 0 0 0 0.13281,0.49023 l 17.31055,9.86914 a 0.36000001,0.36000001 0 0 0 0.49218,-0.13281 0.36000001,0.36000001 0 0 0 -0.13476,-0.49219 z"
         id="path29"
         transform="matrix(1.3333333,0,0,-1.3333333,0,1122.56)" /><path
         style="baseline-shift:baseline;display:inline;overflow:visible;opacity:1;vector-effect:none;stroke-linecap:round;stroke-linejoin:round;stroke-miterlimit:10;enable-background:accumulate;stop-color:#000000;stop-opacity:1"
         d="m 161.88867,738.31836 -17.20117,10.06055 a 0.36000001,0.36000001 0 0 0 -0.12891,0.49218 0.36000001,0.36000001 0 0 0 0.49219,0.12891 l 17.20117,-10.05859 a 0.36000001,0.36000001 0 0 0 0.12891,-0.49219 0.36000001,0.36000001 0 0 0 -0.49219,-0.13086 z"
         id="path30"
         transform="matrix(1.3333333,0,0,-1.3333333,0,1122.56)" /><path
         style="baseline-shift:baseline;display:inline;overflow:visible;opacity:1;vector-effect:none;stroke-linecap:round;stroke-linejoin:round;stroke-miterlimit:10;enable-background:accumulate;stop-color:#000000;stop-opacity:1"
         d="m 162.24805,738.31641 a 0.36000001,0.36000001 0 0 0 -0.49024,0.13476 0.36000001,0.36000001 0 0 0 0.13477,0.49219 l 17.29883,9.86914 a 0.36000001,0.36000001 0 0 0 0.49218,-0.13477 0.36000001,0.36000001 0 0 0 -0.13476,-0.49023 z"
         id="path31"
         transform="matrix(1.3333333,0,0,-1.3333333,0,1122.56)" /><path
         style="baseline-shift:baseline;display:inline;overflow:visible;opacity:1;vector-effect:none;stroke-linecap:round;stroke-linejoin:round;stroke-miterlimit:10;enable-background:accumulate;stop-color:#000000;stop-opacity:1"
         d="m 196.38867,738.13867 -17.20117,10.05078 a 0.36000001,0.36000001 0 0 0 -0.12891,0.49219 0.36000001,0.36000001 0 0 0 0.49219,0.12891 l 17.20117,-10.04883 a 0.36000001,0.36000001 0 0 0 0.12891,-0.49414 0.36000001,0.36000001 0 0 0 -0.49219,-0.12891 z"
         id="path32"
         transform="matrix(1.3333333,0,0,-1.3333333,0,1122.56)" /><path
         style="baseline-shift:baseline;display:inline;overflow:visible;opacity:1;vector-effect:none;stroke-linecap:round;stroke-linejoin:round;stroke-miterlimit:10;enable-background:accumulate;stop-color:#000000;stop-opacity:1"
         d="m 196.74805,738.13672 a 0.36000001,0.36000001 0 0 0 -0.49024,0.13476 0.36000001,0.36000001 0 0 0 0.13477,0.49219 l 17.29883,9.85938 a 0.36000001,0.36000001 0 0 0 0.49218,-0.13477 0.36000001,0.36000001 0 0 0 -0.13476,-0.49023 z"
         id="path33"
         transform="matrix(1.3333333,0,0,-1.3333333,0,1122.56)" /><path
         style="baseline-shift:baseline;display:inline;overflow:visible;opacity:1;vector-effect:none;stroke-linecap:round;stroke-linejoin:round;stroke-miterlimit:10;enable-background:accumulate;stop-color:#000000;stop-opacity:1"
         d="M 230.88867,737.94922 213.6875,748 a 0.36000001,0.36000001 0 0 0 -0.12891,0.49219 0.36000001,0.36000001 0 0 0 0.49219,0.1289 l 17.20117,-10.05078 a 0.36000001,0.36000001 0 0 0 0.12891,-0.49219 0.36000001,0.36000001 0 0 0 -0.49219,-0.1289 z"
         id="path34"
         transform="matrix(1.3333333,0,0,-1.3333333,0,1122.56)" /><path
         style="baseline-shift:baseline;display:inline;overflow:visible;opacity:1;vector-effect:none;stroke-linecap:round;stroke-linejoin:round;stroke-miterlimit:10;enable-background:accumulate;stop-color:#000000;stop-opacity:1"
         d="m 231.24805,737.94727 a 0.36000001,0.36000001 0 0 0 -0.49024,0.13476 0.36000001,0.36000001 0 0 0 0.13477,0.49024 l 17.30859,9.86132 a 0.36000001,0.36000001 0 0 0 0.49219,-0.13476 0.36000001,0.36000001 0 0 0 -0.13477,-0.49219 z"
         id="path35"
         transform="matrix(1.3333333,0,0,-1.3333333,0,1122.56)" /><path
         style="baseline-shift:baseline;display:inline;overflow:visible;opacity:1;vector-effect:none;stroke-linecap:round;stroke-linejoin:round;stroke-miterlimit:10;enable-background:accumulate;stop-color:#000000;stop-opacity:1"
         d="m 265.38867,737.75977 -17.18945,10.04882 a 0.36000001,0.36000001 0 0 0 -0.13086,0.49219 0.36000001,0.36000001 0 0 0 0.49414,0.13086 l 17.18945,-10.05078 a 0.36000001,0.36000001 0 0 0 0.12891,-0.49219 0.36000001,0.36000001 0 0 0 -0.49219,-0.1289 z"
         id="path36"
         transform="matrix(1.3333333,0,0,-1.3333333,0,1122.56)" /><path
         style="baseline-shift:baseline;display:inline;overflow:visible;opacity:1;vector-effect:none;stroke-linecap:round;stroke-linejoin:round;stroke-miterlimit:10;enable-background:accumulate;stop-color:#000000;stop-opacity:1"
         d="m 265.74805,737.75781 a 0.36000001,0.36000001 0 0 0 -0.49024,0.13477 0.36000001,0.36000001 0 0 0 0.13477,0.49023 l 17.30859,9.85938 a 0.36000001,0.36000001 0 0 0 0.49219,-0.13477 0.36000001,0.36000001 0 0 0 -0.13477,-0.49023 z"
         id="path37"
         transform="matrix(1.3333333,0,0,-1.3333333,0,1122.56)" /><path
         style="baseline-shift:baseline;display:inline;overflow:visible;opacity:1;vector-effect:none;stroke-linecap:round;stroke-linejoin:round;stroke-miterlimit:10;enable-background:accumulate;stop-color:#000000;stop-opacity:1"
         d="m 299.88867,737.56836 -17.18945,10.05078 a 0.36000001,0.36000001 0 0 0 -0.13086,0.49219 0.36000001,0.36000001 0 0 0 0.49414,0.1289 l 17.18945,-10.04882 a 0.36000001,0.36000001 0 0 0 0.12891,-0.49219 0.36000001,0.36000001 0 0 0 -0.49219,-0.13086 z"
         id="path38"
         transform="matrix(1.3333333,0,0,-1.3333333,0,1122.56)" /><path
         style="baseline-shift:baseline;display:inline;overflow:visible;opacity:1;vector-effect:none;stroke-linecap:round;stroke-linejoin:round;stroke-miterlimit:10;enable-background:accumulate;stop-color:#000000;stop-opacity:1"
         d="m 300.24805,737.56641 a 0.36000001,0.36000001 0 0 0 -0.49024,0.13476 0.36000001,0.36000001 0 0 0 0.13477,0.49219 l 17.30859,9.85937 a 0.36000001,0.36000001 0 0 0 0.49219,-0.13476 0.36000001,0.36000001 0 0 0 -0.13477,-0.49024 z"
         id="path39"
         transform="matrix(1.3333333,0,0,-1.3333333,0,1122.56)" /><path
         style="baseline-shift:baseline;display:inline;overflow:visible;opacity:1;vector-effect:none;stroke-linecap:round;stroke-linejoin:round;stroke-miterlimit:10;enable-background:accumulate;stop-color:#000000;stop-opacity:1"
         d="m 329.57812,740.19922 -12.3789,7.23047 a 0.36000001,0.36000001 0 0 0 -0.13086,0.49218 0.36000001,0.36000001 0 0 0 0.49414,0.12891 l 12.37891,-7.23047 a 0.36000001,0.36000001 0 0 0 0.1289,-0.49219 0.36000001,0.36000001 0 0 0 -0.49219,-0.1289 z"
         id="path40"
         transform="matrix(1.3333333,0,0,-1.3333333,0,1122.56)" /></g></g></svg>
