<?xml version="1.0" encoding="UTF-8" standalone="no"?>
<svg
   xmlns:dc="http://purl.org/dc/elements/1.1/"
   xmlns:cc="http://creativecommons.org/ns#"
   xmlns:rdf="http://www.w3.org/1999/02/22-rdf-syntax-ns#"
   xmlns:svg="http://www.w3.org/2000/svg"
   xmlns="http://www.w3.org/2000/svg"
   id="svg32"
   version="1.1"
   style="background-color: #ffffffff"
   viewBox="0 0 71 35"
   height="35px"
   width="71px">
  <metadata
     id="metadata38">
    <rdf:RDF>
      <cc:Work
         rdf:about="">
        <dc:format>image/svg+xml</dc:format>
        <dc:type
           rdf:resource="http://purl.org/dc/dcmitype/StillImage" />
        <dc:title></dc:title>
      </cc:Work>
    </rdf:RDF>
  </metadata>
  <defs
     id="defs36" />
  <path
     id="path2"
     d="M 20.667969 2.3789062 L 20.148438 2.6796875 L 24.234375 9.7558594 L 24.753906 9.4550781 L 20.667969 2.3789062 z M 34.548828 2.3789062 L 30.445312 9.4863281 L 30.964844 9.7851562 L 35.068359 2.6796875 L 34.548828 2.3789062 z M 11.699219 10.033203 L 11.699219 19.869141 L 2.8164062 14.740234 L 2.515625 15.259766 L 11.699219 20.5625 L 11.699219 29.966797 L 13.423828 29.966797 L 13.423828 29.367188 L 12.300781 29.367188 L 12.300781 20.910156 L 15.136719 22.546875 L 17.699219 21.068359 L 17.699219 29.367188 L 16.576172 29.367188 L 16.576172 29.966797 L 18.300781 29.966797 L 18.300781 20.720703 L 22.714844 18.171875 L 22.414062 17.652344 L 18.300781 20.027344 L 18.300781 10.033203 L 16.576172 10.033203 L 16.576172 10.632812 L 17.699219 10.632812 L 17.699219 20.375 L 15.136719 21.853516 L 12.300781 20.216797 L 12.300781 10.632812 L 13.423828 10.632812 L 13.423828 10.033203 L 11.699219 10.033203 z M 33.097656 10.583984 L 33.097656 12.044922 L 31.636719 12.044922 L 31.636719 12.660156 L 33.097656 12.660156 L 33.097656 14.132812 L 33.720703 14.132812 L 33.720703 12.660156 L 35.181641 12.660156 L 35.181641 12.044922 L 33.720703 12.044922 L 33.720703 10.583984 L 33.097656 10.583984 z M 24.759766 11.314453 L 24.759766 18.472656 L 25.667969 18.472656 L 25.667969 12.847656 L 29.427734 18.472656 L 30.398438 18.472656 L 30.398438 11.314453 L 29.490234 11.314453 L 29.490234 16.933594 L 25.730469 11.314453 L 24.759766 11.314453 z M 53.265625 11.314453 L 53.265625 18.472656 L 55.996094 18.472656 C 56.451823 18.472656 56.835938 18.433594 57.148438 18.355469 C 57.464193 18.274089 57.72526 18.154297 57.933594 17.998047 C 58.141927 17.841797 58.317057 17.620442 58.457031 17.333984 C 58.600261 17.04427 58.671875 16.73177 58.671875 16.396484 C 58.671875 15.979818 58.554688 15.61849 58.320312 15.3125 C 58.089193 15.006511 57.757161 14.791016 57.324219 14.664062 C 57.659505 14.498047 57.910157 14.279948 58.076172 14.009766 C 58.242188 13.739584 58.324219 13.450521 58.324219 13.144531 C 58.324219 12.815755 58.229818 12.502604 58.041016 12.203125 C 57.855468 11.90039 57.597656 11.676432 57.265625 11.533203 C 56.936849 11.386718 56.498047 11.314453 55.951172 11.314453 L 53.265625 11.314453 z M 63.986328 12.035156 L 63.986328 12.650391 L 67.53125 12.650391 L 67.53125 12.035156 L 63.986328 12.035156 z M 54.212891 12.158203 L 55.644531 12.158203 C 56.158854 12.158203 56.520833 12.193359 56.732422 12.261719 C 56.944011 12.326823 57.106771 12.450521 57.220703 12.632812 C 57.334635 12.811849 57.392578 13.020182 57.392578 13.257812 C 57.392578 13.508464 57.330729 13.716797 57.207031 13.882812 C 57.086589 14.048829 56.904948 14.166667 56.664062 14.238281 C 56.481771 14.293621 56.181641 14.322266 55.761719 14.322266 L 54.212891 14.322266 L 54.212891 12.158203 z M 61.777344 13.169922 C 61.572266 13.169922 61.383464 13.228516 61.210938 13.345703 C 61.041667 13.46289 60.85612 13.704427 60.654297 14.072266 L 60.654297 13.287109 L 59.863281 13.287109 L 59.863281 18.472656 L 60.742188 18.472656 L 60.742188 15.757812 C 60.742188 15.386719 60.791016 15.044922 60.888672 14.732422 C 60.953777 14.527343 61.061849 14.367838 61.214844 14.253906 C 61.367838 14.136719 61.540365 14.078125 61.732422 14.078125 C 61.947266 14.078125 62.16211 14.140625 62.376953 14.267578 L 62.679688 13.453125 C 62.373698 13.264323 62.073568 13.169922 61.777344 13.169922 z M 54.212891 15.166016 L 55.869141 15.166016 C 56.32487 15.166016 56.673177 15.207683 56.914062 15.289062 C 57.158203 15.367188 57.347656 15.504558 57.484375 15.703125 C 57.621094 15.898438 57.689453 16.129557 57.689453 16.396484 C 57.689453 16.624349 57.643229 16.826172 57.548828 17.001953 C 57.454427 17.174479 57.333985 17.307292 57.1875 17.398438 C 57.041016 17.489586 56.858724 17.55469 56.640625 17.59375 C 56.516927 17.616537 56.302083 17.626953 55.996094 17.626953 L 54.212891 17.626953 L 54.212891 15.166016 z M 32.710938 17.599609 L 32.410156 18.119141 L 39.929688 22.460938 L 40.228516 21.939453 L 32.710938 17.599609 z M 21.878906 27.322266 C 21.76416 27.554199 21.568848 27.79248 21.292969 28.039062 C 21.01709 28.285644 20.694825 28.496582 20.326172 28.669922 L 20.326172 29.306641 C 20.531251 29.230957 20.763184 29.118164 21.019531 28.966797 C 21.278321 28.81543 21.48584 28.663086 21.644531 28.511719 L 21.644531 32.712891 L 22.304688 32.712891 L 22.304688 27.322266 L 21.878906 27.322266 z M 25.498047 27.322266 C 25.383301 27.554199 25.187989 27.79248 24.912109 28.039062 C 24.636231 28.285644 24.313965 28.496582 23.945312 28.669922 L 23.945312 29.306641 C 24.150391 29.230957 24.380371 29.118164 24.636719 28.966797 C 24.895508 28.81543 25.104981 28.663086 25.263672 28.511719 L 25.263672 32.712891 L 25.921875 32.712891 L 25.921875 27.322266 L 25.498047 27.322266 z M 32.177734 27.322266 C 32.062988 27.554199 31.867676 27.79248 31.591797 28.039062 C 31.315918 28.285644 30.993652 28.496582 30.625 28.669922 L 30.625 29.306641 C 30.830078 29.230957 31.060058 29.118164 31.316406 28.966797 C 31.575195 28.81543 31.784668 28.663086 31.943359 28.511719 L 31.943359 32.712891 L 32.601562 32.712891 L 32.601562 27.322266 L 32.177734 27.322266 z M 35.978516 27.322266 C 35.553711 27.322266 35.197754 27.44336 34.912109 27.6875 C 34.626465 27.929199 34.443847 28.270996 34.363281 28.712891 L 35.023438 28.830078 C 35.072266 28.507812 35.180664 28.266601 35.351562 28.105469 C 35.522461 27.944336 35.737793 27.863281 35.994141 27.863281 C 36.25293 27.863281 36.463379 27.942871 36.626953 28.101562 C 36.790528 28.260254 36.873047 28.461426 36.873047 28.703125 C 36.873047 29.0083 36.759766 29.234375 36.535156 29.380859 C 36.310547 29.527344 36.058105 29.599609 35.777344 29.599609 C 35.75049 29.599609 35.715822 29.596664 35.671875 29.591797 L 35.597656 30.171875 C 35.783204 30.123048 35.937989 30.097656 36.0625 30.097656 C 36.367676 30.097656 36.618652 30.196777 36.816406 30.394531 C 37.01416 30.589844 37.113281 30.83789 37.113281 31.140625 C 37.113281 31.458008 37.00586 31.72461 36.791016 31.939453 C 36.578614 32.154297 36.317871 32.261719 36.007812 32.261719 C 35.746582 32.261719 35.524902 32.181152 35.341797 32.017578 C 35.161133 31.851562 35.032715 31.580566 34.957031 31.207031 L 34.296875 31.294922 C 34.34082 31.741699 34.518066 32.105957 34.828125 32.386719 C 35.140625 32.66748 35.532715 32.808594 36.003906 32.808594 C 36.526367 32.808594 36.958985 32.645019 37.300781 32.320312 C 37.642579 31.993164 37.8125 31.595703 37.8125 31.126953 C 37.8125 30.780274 37.724609 30.491211 37.548828 30.261719 C 37.373047 30.029785 37.12793 29.87793 36.810547 29.804688 C 37.054688 29.692383 37.23877 29.541992 37.363281 29.351562 C 37.487793 29.161133 37.548828 28.948731 37.548828 28.716797 C 37.548828 28.472656 37.483398 28.242675 37.351562 28.025391 C 37.222168 27.808105 37.033691 27.636231 36.787109 27.511719 C 36.540527 27.384766 36.271484 27.322266 35.978516 27.322266 z M 27.541016 30.4375 L 27.541016 31.101562 L 29.566406 31.101562 L 29.566406 30.4375 L 27.541016 30.4375 z "
     style="fill:#000000;stroke-width:0.05" />
</svg>
