<?xml version="1.0" encoding="UTF-8" standalone="no"?>
<svg
   height="69.03125"
   version="1.0"
   viewBox="0 0 234.10955 73.861631"
   width="218.84375"
   id="svg2"
   inkscape:version="1.4.2 (f4327f4, 2025-05-13)"
   sodipodi:docname="cetylalcohol.svg"
   xmlns:inkscape="http://www.inkscape.org/namespaces/inkscape"
   xmlns:sodipodi="http://sodipodi.sourceforge.net/DTD/sodipodi-0.dtd"
   xmlns="http://www.w3.org/2000/svg"
   xmlns:svg="http://www.w3.org/2000/svg"
   xmlns:rdf="http://www.w3.org/1999/02/22-rdf-syntax-ns#"
   xmlns:cc="http://creativecommons.org/ns#"
   xmlns:dc="http://purl.org/dc/elements/1.1/"
   xmlns:cdml="http://www.freesoftware.fsf.org/bkchem/cdml">
  <metadata
     id="metadata76">
    <rdf:RDF>
      <cc:Work
         rdf:about="">
        <dc:format>image/svg+xml</dc:format>
        <dc:type
           rdf:resource="http://purl.org/dc/dcmitype/StillImage" />
      </cc:Work>
    </rdf:RDF>
  </metadata>
  <defs
     id="defs74" />
  <sodipodi:namedview
     pagecolor="#ffffff"
     bordercolor="#666666"
     borderopacity="1"
     objecttolerance="10"
     gridtolerance="10"
     guidetolerance="10"
     inkscape:pageopacity="0"
     inkscape:pageshadow="2"
     inkscape:window-width="1920"
     inkscape:window-height="1111"
     id="namedview72"
     showgrid="false"
     fit-margin-top="0"
     fit-margin-left="0"
     fit-margin-right="0"
     fit-margin-bottom="0"
     inkscape:zoom="2.2"
     inkscape:cx="117.95455"
     inkscape:cy="32.045455"
     inkscape:window-x="-9"
     inkscape:window-y="-9"
     inkscape:window-maximized="1"
     inkscape:current-layer="svg2"
     inkscape:showpageshadow="2"
     inkscape:pagecheckerboard="0"
     inkscape:deskcolor="#d1d1d1" />
  <g
     font-size="12pt"
     id="g4"
     style="font-size:15px;stroke-linecap:round;font-family:Helvetica"
     transform="translate(-153.37406,-77.038114)">
    <g
       id="g6"
       style="stroke:#000000;stroke-width:1">
      <g
         id="line8"
         style="opacity:1">
        <path
           style="baseline-shift:baseline;display:inline;overflow:visible;vector-effect:none;stroke:none;stroke-linecap:butt;enable-background:accumulate;stop-color:#000000;stop-opacity:1"
           d="M 274.95001,89.220001 297.92999,102.5"
           id="path1" />
        <path
           style="baseline-shift:baseline;display:inline;overflow:visible;vector-effect:none;stroke:none;stroke-linecap:butt;enable-background:accumulate;stop-color:#000000;stop-opacity:1"
           d="m 274.82031,88.736328 a 0.5,0.5 0 0 0 -0.30273,0.234375 0.5,0.5 0 0 0 0.18164,0.681641 l 22.98047,13.281246 a 0.5,0.5 0 0 0 0.68359,-0.18359 0.5,0.5 0 0 0 -0.18359,-0.68359 L 275.19922,88.787109 a 0.5,0.5 0 0 0 -0.37891,-0.05078 z"
           id="path2" />
      </g>
    </g>
    <g
       id="g10"
       style="stroke:#000000;stroke-width:1">
      <g
         id="line12"
         style="opacity:1">
        <path
           style="baseline-shift:baseline;display:inline;overflow:visible;vector-effect:none;stroke:none;stroke-linecap:butt;enable-background:accumulate;stop-color:#000000;stop-opacity:1"
           d="M 320.95999,89.220001 343.94,102.5"
           id="path3" />
        <path
           style="baseline-shift:baseline;display:inline;overflow:visible;vector-effect:none;stroke:none;stroke-linecap:butt;enable-background:accumulate;stop-color:#000000;stop-opacity:1"
           d="m 321.21094,88.787109 a 0.5,0.5 0 0 0 -0.6836,0.183594 0.5,0.5 0 0 0 0.18164,0.681641 l 22.98047,13.281246 a 0.5,0.5 0 0 0 0.6836,-0.18359 0.5,0.5 0 0 0 -0.1836,-0.68359 z"
           id="path4" />
      </g>
    </g>
    <g
       id="g14"
       style="stroke:#000000;stroke-width:1">
      <g
         id="line16"
         style="opacity:1">
        <path
           style="baseline-shift:baseline;display:inline;overflow:visible;vector-effect:none;stroke:none;stroke-linecap:butt;enable-background:accumulate;stop-color:#000000;stop-opacity:1"
           d="M 251.97,102.5 274.95001,89.220001"
           id="path5" />
        <path
           style="baseline-shift:baseline;display:inline;overflow:visible;vector-effect:none;stroke:none;stroke-linecap:butt;enable-background:accumulate;stop-color:#000000;stop-opacity:1"
           d="M 274.69922,88.787109 251.7207,102.06641 a 0.5,0.5 0 0 0 -0.18359,0.68359 0.5,0.5 0 0 0 0.68359,0.18359 l 22.97852,-13.281246 a 0.5,0.5 0 0 0 0.18359,-0.681641 0.5,0.5 0 0 0 -0.68359,-0.183594 z"
           id="path6" />
      </g>
    </g>
    <g
       id="g18"
       style="stroke:#000000;stroke-width:1">
      <g
         id="line20"
         style="opacity:1">
        <path
           style="baseline-shift:baseline;display:inline;overflow:visible;vector-effect:none;stroke:none;stroke-linecap:butt;enable-background:accumulate;stop-color:#000000;stop-opacity:1"
           d="m 182.98,142.32001 22.98001,-13.28002"
           id="path7" />
        <path
           style="baseline-shift:baseline;display:inline;overflow:visible;vector-effect:none;stroke:none;stroke-linecap:butt;enable-background:accumulate;stop-color:#000000;stop-opacity:1"
           d="m 206.08984,128.55664 a 0.5,0.5 0 0 0 -0.38086,0.0508 l -22.97851,13.2793 a 0.5,0.5 0 0 0 -0.1836,0.68359 0.5,0.5 0 0 0 0.6836,0.18164 l 22.98047,-13.27929 a 0.5,0.5 0 0 0 0.18164,-0.6836 0.5,0.5 0 0 0 -0.30274,-0.23242 z"
           id="path8" />
      </g>
    </g>
    <g
       id="g22"
       style="stroke:#000000;stroke-width:1">
      <g
         id="line24"
         style="opacity:1">
        <path
           style="baseline-shift:baseline;display:inline;overflow:visible;vector-effect:none;stroke:none;stroke-linecap:butt;enable-background:accumulate;stop-color:#000000;stop-opacity:1"
           d="M 343.94,102.5 359,93.800003"
           id="path9" />
        <path
           style="baseline-shift:baseline;display:inline;overflow:visible;vector-effect:none;stroke:none;stroke-linecap:butt;enable-background:accumulate;stop-color:#000000;stop-opacity:1"
           d="m 359.12891,93.316406 a 0.5,0.5 0 0 0 -0.37891,0.05078 l -15.06055,8.699223 a 0.5,0.5 0 0 0 -0.18164,0.68359 0.5,0.5 0 0 0 0.68164,0.18359 L 359.25,94.232422 a 0.5,0.5 0 0 0 0.18359,-0.681641 0.5,0.5 0 0 0 -0.30468,-0.234375 z"
           id="path10" />
      </g>
    </g>
    <g
       id="g26"
       style="stroke:#000000;stroke-width:1">
      <g
         id="line28"
         style="opacity:1">
        <path
           style="baseline-shift:baseline;display:inline;overflow:visible;vector-effect:none;stroke:none;stroke-linecap:butt;enable-background:accumulate;stop-color:#000000;stop-opacity:1"
           d="m 160,129.03999 22.98,13.28002"
           id="path11" />
        <path
           style="baseline-shift:baseline;display:inline;overflow:visible;vector-effect:none;stroke:none;stroke-linecap:butt;enable-background:accumulate;stop-color:#000000;stop-opacity:1"
           d="m 160.25,128.60742 a 0.5,0.5 0 0 0 -0.68359,0.18164 0.5,0.5 0 0 0 0.18359,0.6836 l 22.98047,13.27929 a 0.5,0.5 0 0 0 0.68164,-0.18164 0.5,0.5 0 0 0 -0.18164,-0.68359 z"
           id="path12" />
      </g>
    </g>
    <g
       id="g30"
       style="stroke:#000000;stroke-width:1">
      <g
         id="line32"
         style="opacity:1">
        <path
           style="baseline-shift:baseline;display:inline;overflow:visible;vector-effect:none;stroke:none;stroke-linecap:butt;enable-background:accumulate;stop-color:#000000;stop-opacity:1"
           d="m 274.95001,142.32001 22.97998,-13.28002"
           id="path13" />
        <path
           style="baseline-shift:baseline;display:inline;overflow:visible;vector-effect:none;stroke:none;stroke-linecap:butt;enable-background:accumulate;stop-color:#000000;stop-opacity:1"
           d="m 297.67969,128.60742 -22.98047,13.2793 a 0.5,0.5 0 0 0 -0.18164,0.68359 0.5,0.5 0 0 0 0.68164,0.18164 l 22.98047,-13.27929 a 0.5,0.5 0 0 0 0.18359,-0.6836 0.5,0.5 0 0 0 -0.68359,-0.18164 z"
           id="path14" />
      </g>
    </g>
    <g
       id="g34"
       style="stroke:#000000;stroke-width:1">
      <g
         id="line36"
         style="opacity:1">
        <path
           style="baseline-shift:baseline;display:inline;overflow:visible;vector-effect:none;stroke:none;stroke-linecap:butt;enable-background:accumulate;stop-color:#000000;stop-opacity:1"
           d="m 205.96001,129.03999 23.03,13.28002"
           id="path15" />
        <path
           style="baseline-shift:baseline;display:inline;overflow:visible;vector-effect:none;stroke:none;stroke-linecap:butt;enable-background:accumulate;stop-color:#000000;stop-opacity:1"
           d="m 205.83008,128.55664 a 0.5,0.5 0 0 0 -0.30274,0.23438 0.5,0.5 0 0 0 0.1836,0.68164 l 23.02929,13.28125 a 0.5,0.5 0 0 0 0.6836,-0.1836 0.5,0.5 0 0 0 -0.1836,-0.68359 l -23.03125,-13.2793 a 0.5,0.5 0 0 0 -0.3789,-0.0508 z"
           id="path16" />
      </g>
    </g>
    <g
       id="g38"
       style="stroke:#000000;stroke-width:1">
      <g
         id="line40"
         style="opacity:1">
        <path
           style="baseline-shift:baseline;display:inline;overflow:visible;vector-effect:none;stroke:none;stroke-linecap:butt;enable-background:accumulate;stop-color:#000000;stop-opacity:1"
           d="m 251.97,129.03999 22.98001,13.28002"
           id="path17" />
        <path
           style="baseline-shift:baseline;display:inline;overflow:visible;vector-effect:none;stroke:none;stroke-linecap:butt;enable-background:accumulate;stop-color:#000000;stop-opacity:1"
           d="m 251.83984,128.55664 a 0.5,0.5 0 0 0 -0.30273,0.23242 0.5,0.5 0 0 0 0.18359,0.6836 l 22.97852,13.27929 a 0.5,0.5 0 0 0 0.68359,-0.18164 0.5,0.5 0 0 0 -0.18359,-0.68359 l -22.97852,-13.2793 a 0.5,0.5 0 0 0 -0.38086,-0.0508 z"
           id="path18" />
      </g>
    </g>
    <g
       id="g42"
       style="stroke:#000000;stroke-width:1">
      <g
         id="line44"
         style="opacity:1">
        <path
           style="baseline-shift:baseline;display:inline;overflow:visible;vector-effect:none;stroke:none;stroke-linecap:butt;enable-background:accumulate;stop-color:#000000;stop-opacity:1"
           d="M 228.99001,89.220001 251.97,102.5"
           id="path19" />
        <path
           style="baseline-shift:baseline;display:inline;overflow:visible;vector-effect:none;stroke:none;stroke-linecap:butt;enable-background:accumulate;stop-color:#000000;stop-opacity:1"
           d="m 229.24023,88.787109 a 0.5,0.5 0 0 0 -0.68359,0.183594 0.5,0.5 0 0 0 0.18359,0.681641 l 22.98047,13.281246 a 0.5,0.5 0 0 0 0.68164,-0.18359 0.5,0.5 0 0 0 -0.18164,-0.68359 z"
           id="path20" />
      </g>
    </g>
    <g
       id="g46"
       style="stroke:#000000;stroke-width:1">
      <g
         id="line48"
         style="opacity:1">
        <path
           style="baseline-shift:baseline;display:inline;overflow:visible;vector-effect:none;stroke:none;stroke-linecap:butt;enable-background:accumulate;stop-color:#000000;stop-opacity:1"
           d="m 160,102.5 v 26.53999"
           id="path21" />
        <path
           style="baseline-shift:baseline;display:inline;overflow:visible;vector-effect:none;stroke:none;stroke-linecap:butt;enable-background:accumulate;stop-color:#000000;stop-opacity:1"
           d="m 160,102 a 0.5,0.5 0 0 0 -0.5,0.5 v 26.53906 a 0.5,0.5 0 0 0 0.5,0.5 0.5,0.5 0 0 0 0.5,-0.5 V 102.5 A 0.5,0.5 0 0 0 160,102 Z"
           id="path22" />
      </g>
    </g>
    <g
       id="g50"
       style="stroke:#000000;stroke-width:1">
      <g
         id="line52"
         style="opacity:1">
        <path
           style="baseline-shift:baseline;display:inline;overflow:visible;vector-effect:none;stroke:none;stroke-linecap:butt;enable-background:accumulate;stop-color:#000000;stop-opacity:1"
           d="m 205.96001,102.5 23.03,-13.279999"
           id="path23" />
        <path
           style="baseline-shift:baseline;display:inline;overflow:visible;vector-effect:none;stroke:none;stroke-linecap:butt;enable-background:accumulate;stop-color:#000000;stop-opacity:1"
           d="m 229.11914,88.736328 a 0.5,0.5 0 0 0 -0.37891,0.05078 l -23.02929,13.279301 a 0.5,0.5 0 0 0 -0.1836,0.68359 0.5,0.5 0 0 0 0.68164,0.18359 l 23.03125,-13.281246 a 0.5,0.5 0 0 0 0.1836,-0.681641 0.5,0.5 0 0 0 -0.30469,-0.234375 z"
           id="path24" />
      </g>
    </g>
    <g
       id="g54"
       style="stroke:#000000;stroke-width:1">
      <g
         id="line56"
         style="opacity:1">
        <path
           style="baseline-shift:baseline;display:inline;overflow:visible;vector-effect:none;stroke:none;stroke-linecap:butt;enable-background:accumulate;stop-color:#000000;stop-opacity:1"
           d="m 297.92999,102.5 23.03,-13.279999"
           id="path25" />
        <path
           style="baseline-shift:baseline;display:inline;overflow:visible;vector-effect:none;stroke:none;stroke-linecap:butt;enable-background:accumulate;stop-color:#000000;stop-opacity:1"
           d="m 321.08984,88.736328 a 0.5,0.5 0 0 0 -0.3789,0.05078 l -23.03125,13.279301 a 0.5,0.5 0 0 0 -0.1836,0.68359 0.5,0.5 0 0 0 0.6836,0.18359 l 23.02929,-13.281246 a 0.5,0.5 0 0 0 0.1836,-0.681641 0.5,0.5 0 0 0 -0.30274,-0.234375 z"
           id="path26" />
      </g>
    </g>
    <g
       id="g58"
       style="stroke:#000000;stroke-width:1">
      <g
         id="line60"
         style="opacity:1">
        <path
           style="baseline-shift:baseline;display:inline;overflow:visible;vector-effect:none;stroke:none;stroke-linecap:butt;enable-background:accumulate;stop-color:#000000;stop-opacity:1"
           d="M 182.98,89.220001 205.96001,102.5"
           id="path27" />
        <path
           style="baseline-shift:baseline;display:inline;overflow:visible;vector-effect:none;stroke:none;stroke-linecap:butt;enable-background:accumulate;stop-color:#000000;stop-opacity:1"
           d="m 182.85156,88.736328 a 0.5,0.5 0 0 0 -0.30469,0.234375 0.5,0.5 0 0 0 0.1836,0.681641 l 22.97851,13.281246 a 0.5,0.5 0 0 0 0.6836,-0.18359 0.5,0.5 0 0 0 -0.18164,-0.68359 L 183.23047,88.787109 a 0.5,0.5 0 0 0 -0.37891,-0.05078 z"
           id="path28" />
      </g>
    </g>
    <g
       id="g62"
       style="stroke:#000000;stroke-width:1">
      <g
         id="line64"
         style="opacity:1">
        <path
           style="baseline-shift:baseline;display:inline;overflow:visible;vector-effect:none;stroke:none;stroke-linecap:butt;enable-background:accumulate;stop-color:#000000;stop-opacity:1"
           d="M 228.99001,142.32001 251.97,129.03999"
           id="path29" />
        <path
           style="baseline-shift:baseline;display:inline;overflow:visible;vector-effect:none;stroke:none;stroke-linecap:butt;enable-background:accumulate;stop-color:#000000;stop-opacity:1"
           d="m 252.09961,128.55664 a 0.5,0.5 0 0 0 -0.37891,0.0508 l -22.98047,13.2793 a 0.5,0.5 0 0 0 -0.18359,0.68359 0.5,0.5 0 0 0 0.68359,0.18164 l 22.98047,-13.27929 a 0.5,0.5 0 0 0 0.18164,-0.6836 0.5,0.5 0 0 0 -0.30273,-0.23242 z"
           id="path30" />
      </g>
    </g>
    <g
       id="g66"
       style="stroke:#000000;stroke-width:1">
      <g
         id="line68"
         style="opacity:1">
        <path
           style="baseline-shift:baseline;display:inline;overflow:visible;vector-effect:none;stroke:none;stroke-linecap:butt;enable-background:accumulate;stop-color:#000000;stop-opacity:1"
           d="M 160,102.5 182.98,89.220001"
           id="path31" />
        <path
           style="baseline-shift:baseline;display:inline;overflow:visible;vector-effect:none;stroke:none;stroke-linecap:butt;enable-background:accumulate;stop-color:#000000;stop-opacity:1"
           d="m 183.10937,88.736328 a 0.5,0.5 0 0 0 -0.3789,0.05078 L 159.75,102.06641 a 0.5,0.5 0 0 0 -0.18359,0.68359 0.5,0.5 0 0 0 0.68359,0.18359 l 22.98047,-13.281246 a 0.5,0.5 0 0 0 0.18164,-0.681641 0.5,0.5 0 0 0 -0.30274,-0.234375 z"
           id="path32" />
      </g>
    </g>
    <path
       d="m 361.02509,88.990509 q 0,-2.67334 1.43554,-4.182129 1.43555,-1.516113 3.70606,-1.516113 1.48681,0 2.68066,0.710449 1.19385,0.710449 1.81641,1.984863 0.62988,1.26709 0.62988,2.878418 0,1.633301 -0.65918,2.922364 -0.65918,1.289062 -1.86768,1.955566 -1.20849,0.65918 -2.60742,0.65918 -1.51611,0 -2.70996,-0.732422 -1.19385,-0.732422 -1.80908,-1.999512 -0.61523,-1.26709 -0.61523,-2.680664 z m 1.46484,0.02197 q 0,1.940918 1.04004,3.061523 1.04736,1.113281 2.62207,1.113281 1.604,0 2.63672,-1.127929 1.04004,-1.12793 1.04004,-3.200684 0,-1.311035 -0.44678,-2.285156 -0.43945,-0.981445 -1.29639,-1.516113 -0.84961,-0.541993 -1.91162,-0.541993 -1.50879,0 -2.6001,1.040039 -1.08398,1.032715 -1.08398,3.457032 z m 10.67871,5.207519 V 83.482697 h 1.4209 v 4.409179 h 5.58105 v -4.409179 h 1.4209 v 10.737304 h -1.4209 v -5.061035 h -5.58105 v 5.061035 z"
       id="text70"
       style="line-height:0%;font-family:helvetica"
       aria-label="OH" />
  </g>
  <cdml:cdml
     version="0.15">
    <cdml:info>
      <cdml:author_program
         version="0.13.0">BKchem</cdml:author_program>
    </cdml:info>
    <cdml:paper
       crop_margin="10"
       crop_svg="0"
       orientation="portrait"
       replace_minus="0"
       type="A4"
       use_real_minus="0" />
    <cdml:viewport
       viewport="0.000000 0.000000 640.000000 480.000000" />
    <cdml:standard
       area_color=""
       font_family="helvetica"
       font_size="12"
       line_color="#000"
       line_width="1px"
       paper_crop_margin="10"
       paper_crop_svg="0"
       paper_orientation="portrait"
       paper_type="A4">
      <cdml:bond
         double-ratio="0.75"
         length="0.7cm"
         wedge-width="5px"
         width="6px" />
      <cdml:arrow
         length="1.6cm" />
      <cdml:atom
         show_hydrogens="0" />
    </cdml:standard>
    <cdml:molecule
       id="molecule30440"
       name="">
      <cdml:atom
         id="atom32313"
         name="C"
         valency="4">
        <cdml:point
           x="4.219cm"
           y="2.703cm" />
      </cdml:atom>
      <cdml:atom
         id="atom50746"
         name="C"
         valency="4">
        <cdml:point
           x="4.825cm"
           y="2.353cm" />
      </cdml:atom>
      <cdml:atom
         id="atom6497"
         name="C"
         valency="4">
        <cdml:point
           x="5.431cm"
           y="2.703cm" />
      </cdml:atom>
      <cdml:atom
         id="atom14304"
         name="C"
         valency="4">
        <cdml:point
           x="6.038cm"
           y="2.353cm" />
      </cdml:atom>
      <cdml:atom
         id="atom63726"
         name="C"
         valency="4">
        <cdml:point
           x="6.644cm"
           y="2.703cm" />
      </cdml:atom>
      <cdml:atom
         id="atom97146"
         name="C"
         valency="4">
        <cdml:point
           x="7.250cm"
           y="2.353cm" />
      </cdml:atom>
      <cdml:atom
         id="atom26097"
         name="C"
         valency="4">
        <cdml:point
           x="7.856cm"
           y="2.703cm" />
      </cdml:atom>
      <cdml:atom
         id="atom62106"
         name="C"
         valency="4">
        <cdml:point
           x="8.463cm"
           y="2.353cm" />
      </cdml:atom>
      <cdml:atom
         id="atom93069"
         name="C"
         valency="4">
        <cdml:point
           x="9.069cm"
           y="2.703cm" />
      </cdml:atom>
      <cdml:atom
         id="atom23676"
         name="C"
         valency="4">
        <cdml:point
           x="4.219cm"
           y="3.403cm" />
      </cdml:atom>
      <cdml:atom
         id="atom22792"
         name="C"
         valency="4">
        <cdml:point
           x="4.825cm"
           y="3.753cm" />
      </cdml:atom>
      <cdml:atom
         id="atom60641"
         name="C"
         valency="4">
        <cdml:point
           x="5.431cm"
           y="3.403cm" />
      </cdml:atom>
      <cdml:atom
         id="atom4939"
         name="C"
         valency="4">
        <cdml:point
           x="6.038cm"
           y="3.753cm" />
      </cdml:atom>
      <cdml:atom
         id="atom21936"
         name="C"
         valency="4">
        <cdml:point
           x="6.644cm"
           y="3.403cm" />
      </cdml:atom>
      <cdml:atom
         id="atom54261"
         name="C"
         valency="4">
        <cdml:point
           x="7.250cm"
           y="3.753cm" />
      </cdml:atom>
      <cdml:atom
         id="atom21680"
         name="C"
         valency="4">
        <cdml:point
           x="7.856cm"
           y="3.403cm" />
      </cdml:atom>
      <cdml:atom
         hydrogens="on"
         id="atom31367"
         name="O"
         pos="center-first"
         valency="2">
        <cdml:point
           x="9.675cm"
           y="2.353cm" />
      </cdml:atom>
      <cdml:bond
         double_ratio="0.75"
         end="atom26097"
         id="bond30697"
         line_width="1.0"
         start="atom97146"
         type="n1" />
      <cdml:bond
         double_ratio="0.75"
         end="atom93069"
         id="bond29317"
         line_width="1.0"
         start="atom62106"
         type="n1" />
      <cdml:bond
         double_ratio="0.75"
         end="atom97146"
         id="bond38810"
         line_width="1.0"
         start="atom63726"
         type="n1" />
      <cdml:bond
         double_ratio="0.75"
         end="atom60641"
         id="bond60321"
         line_width="1.0"
         start="atom22792"
         type="n1" />
      <cdml:bond
         double_ratio="0.75"
         end="atom31367"
         id="bond21754"
         line_width="1.0"
         start="atom93069"
         type="n1" />
      <cdml:bond
         double_ratio="0.75"
         end="atom22792"
         id="bond99002"
         line_width="1.0"
         start="atom23676"
         type="n1" />
      <cdml:bond
         double_ratio="0.75"
         end="atom21680"
         id="bond39460"
         line_width="1.0"
         start="atom54261"
         type="n1" />
      <cdml:bond
         double_ratio="0.75"
         end="atom4939"
         id="bond9673"
         line_width="1.0"
         start="atom60641"
         type="n1" />
      <cdml:bond
         double_ratio="0.75"
         end="atom54261"
         id="bond584"
         line_width="1.0"
         start="atom21936"
         type="n1" />
      <cdml:bond
         double_ratio="0.75"
         end="atom63726"
         id="bond21967"
         line_width="1.0"
         start="atom14304"
         type="n1" />
      <cdml:bond
         double_ratio="0.75"
         end="atom23676"
         id="bond42565"
         line_width="1.0"
         start="atom32313"
         type="n1" />
      <cdml:bond
         double_ratio="0.75"
         end="atom14304"
         id="bond78523"
         line_width="1.0"
         start="atom6497"
         type="n1" />
      <cdml:bond
         double_ratio="0.75"
         end="atom62106"
         id="bond95416"
         line_width="1.0"
         start="atom26097"
         type="n1" />
      <cdml:bond
         double_ratio="0.75"
         end="atom6497"
         id="bond17995"
         line_width="1.0"
         start="atom50746"
         type="n1" />
      <cdml:bond
         double_ratio="0.75"
         end="atom21936"
         id="bond72028"
         line_width="1.0"
         start="atom4939"
         type="n1" />
      <cdml:bond
         double_ratio="0.75"
         end="atom50746"
         id="bond82738"
         line_width="1.0"
         start="atom32313"
         type="n1" />
    </cdml:molecule>
  </cdml:cdml>
</svg>
