<?xml version="1.0" encoding="UTF-8"?>
<!-- Converted by misc2svg (http://www.network-science.de/tools/misc2svg/) -->
<svg xmlns="http://www.w3.org/2000/svg" xmlns:xlink="http://www.w3.org/1999/xlink" width="136pt" height="110pt" viewBox="0 0 136 110" version="1.1">
<defs>
<clipPath id="clip1">
  <path d="M 0 0 L 136.25 0 L 136.25 110 L 0 110 L 0 0 Z M 0 0 "/>
</clipPath>
<clipPath id="clip2">
  <path d="M 0 110 L 136.25 110 L 136.25 0 L 0 0 L 0 110 Z M 0 110 "/>
</clipPath>
</defs>
<g id="misc2svg">
<g clip-path="url(#clip1)" clip-rule="nonzero">
<g clip-path="url(#clip2)" clip-rule="nonzero">
<path style=" stroke:none;fill-rule:nonzero;fill:rgb(0%,0%,0%);fill-opacity:1;" d="M 15.5 32.605469 L 17.511719 33.113281 C 17.082031 34.769531 16.320312 36.03125 15.226562 36.902344 C 14.132812 37.761719 12.789062 38.191406 11.203125 38.191406 C 9.5625 38.191406 8.226562 37.859375 7.199219 37.195312 C 6.183594 36.53125 5.402344 35.570312 4.855469 34.304688 C 4.320312 33.03125 4.054688 31.667969 4.054688 30.222656 C 4.054688 28.636719 4.351562 27.253906 4.953125 26.082031 C 5.5625 24.898438 6.429688 24 7.550781 23.386719 C 8.667969 22.777344 9.898438 22.46875 11.242188 22.46875 C 12.765625 22.46875 14.039062 22.859375 15.070312 23.640625 C 16.109375 24.414062 16.832031 25.496094 17.238281 26.902344 L 15.265625 27.371094 C 14.914062 26.265625 14.398438 25.457031 13.722656 24.949219 C 13.058594 24.441406 12.21875 24.1875 11.203125 24.1875 C 10.03125 24.1875 9.046875 24.46875 8.253906 25.027344 C 7.472656 25.589844 6.917969 26.34375 6.59375 27.292969 C 6.28125 28.230469 6.125 29.203125 6.125 30.203125 C 6.125 31.507812 6.3125 32.640625 6.691406 33.601562 C 7.066406 34.570312 7.652344 35.289062 8.449219 35.769531 C 9.253906 36.238281 10.121094 36.472656 11.046875 36.472656 C 12.164062 36.472656 13.117188 36.148438 13.898438 35.496094 C 14.679688 34.847656 15.210938 33.882812 15.5 32.605469 Z M 15.5 32.605469 "/>
<path style=" stroke:none;fill-rule:nonzero;fill:rgb(0%,0%,0%);fill-opacity:1;" d="M 19.535156 37.9375 L 19.535156 22.722656 L 21.390625 22.722656 L 21.390625 37.9375 L 19.535156 37.9375 Z M 19.535156 37.9375 "/>
<path style=" stroke:none;fill-rule:nonzero;fill:rgb(0%,0%,0%);fill-opacity:1;" d="M 48.4375 46.375 L 49.1875 47.625 L 47.6875 47.625 L 24.0625 34 L 24.8125 32.6875 L 48.4375 46.375 Z M 48.4375 46.375 "/>
<path style=" stroke:none;fill-rule:nonzero;fill:rgb(0%,0%,0%);fill-opacity:1;" d="M 79.25 64.125 L 79.25 65 L 78.25 65.25 L 49.1875 48.5 L 49.1875 47.625 L 49.9375 47.1875 L 79.25 64.125 Z M 79.25 64.125 "/>
<path style=" stroke:none;fill-rule:nonzero;fill:rgb(0%,0%,0%);fill-opacity:1;" d="M 103.097656 47.910156 C 103.097656 45.386719 103.773438 43.40625 105.128906 41.972656 C 106.480469 40.542969 108.234375 39.824219 110.382812 39.824219 C 111.773438 39.824219 113.039062 40.164062 114.171875 40.839844 C 115.304688 41.503906 116.164062 42.441406 116.75 43.652344 C 117.335938 44.851562 117.628906 46.210938 117.628906 47.734375 C 117.628906 49.273438 117.316406 50.65625 116.691406 51.875 C 116.078125 53.085938 115.195312 54.003906 114.054688 54.628906 C 112.90625 55.253906 111.675781 55.566406 110.363281 55.566406 C 108.929688 55.566406 107.648438 55.226562 106.515625 54.53125 C 105.390625 53.84375 104.542969 52.898438 103.957031 51.699219 C 103.382812 50.503906 103.097656 49.238281 103.097656 47.910156 Z M 105.167969 47.929688 C 105.167969 49.765625 105.65625 51.210938 106.632812 52.265625 C 107.617188 53.320312 108.859375 53.847656 110.34375 53.847656 C 111.867188 53.847656 113.117188 53.316406 114.09375 52.246094 C 115.070312 51.179688 115.558594 49.667969 115.558594 47.714844 C 115.558594 46.480469 115.347656 45.398438 114.933594 44.472656 C 114.515625 43.550781 113.902344 42.832031 113.097656 42.324219 C 112.289062 41.816406 111.382812 41.5625 110.382812 41.5625 C 108.960938 41.5625 107.734375 42.050781 106.710938 43.027344 C 105.679688 44.003906 105.167969 45.640625 105.167969 47.929688 Z M 105.167969 47.929688 "/>
<path style=" stroke:none;fill-rule:nonzero;fill:rgb(0%,0%,0%);fill-opacity:1;" d="M 120.09375 55.3125 L 120.09375 40.097656 L 122.105469 40.097656 L 122.105469 46.347656 L 130.015625 46.347656 L 130.015625 40.097656 L 132.027344 40.097656 L 132.027344 55.3125 L 130.015625 55.3125 L 130.015625 48.144531 L 122.105469 48.144531 L 122.105469 55.3125 L 120.09375 55.3125 Z M 120.09375 55.3125 "/>
<path style=" stroke:none;fill-rule:nonzero;fill:rgb(0%,0%,0%);fill-opacity:1;" d="M 101.375 51.375 L 102.125 52.625 L 80.25 65.25 L 79.25 65 L 79.25 64.125 L 101.375 51.375 Z M 101.375 51.375 "/>
<path style=" stroke:none;fill-rule:nonzero;fill:rgb(0%,0%,0%);fill-opacity:1;" d="M 55.0625 15.292969 L 57.074219 15.800781 C 56.644531 17.457031 55.882812 18.71875 54.789062 19.589844 C 53.695312 20.449219 52.351562 20.878906 50.765625 20.878906 C 49.125 20.878906 47.789062 20.546875 46.761719 19.882812 C 45.746094 19.21875 44.964844 18.257812 44.417969 16.992188 C 43.882812 15.71875 43.617188 14.355469 43.617188 12.910156 C 43.617188 11.324219 43.914062 9.941406 44.515625 8.769531 C 45.125 7.585938 45.992188 6.6875 47.113281 6.074219 C 48.230469 5.464844 49.460938 5.15625 50.804688 5.15625 C 52.328125 5.15625 53.601562 5.546875 54.632812 6.328125 C 55.671875 7.101562 56.394531 8.183594 56.800781 9.589844 L 54.828125 10.058594 C 54.476562 8.953125 53.960938 8.144531 53.285156 7.636719 C 52.621094 7.128906 51.78125 6.875 50.765625 6.875 C 49.59375 6.875 48.609375 7.15625 47.816406 7.714844 C 47.035156 8.277344 46.476562 9.03125 46.15625 9.980469 C 45.84375 10.917969 45.6875 11.890625 45.6875 12.890625 C 45.6875 14.195312 45.875 15.328125 46.253906 16.289062 C 46.628906 17.257812 47.214844 17.976562 48.011719 18.457031 C 48.816406 18.925781 49.679688 19.160156 50.609375 19.160156 C 51.726562 19.160156 52.679688 18.835938 53.460938 18.183594 C 54.242188 17.535156 54.773438 16.570312 55.0625 15.292969 Z M 55.0625 15.292969 "/>
<path style=" stroke:none;fill-rule:nonzero;fill:rgb(0%,0%,0%);fill-opacity:1;" d="M 59.097656 20.625 L 59.097656 5.410156 L 60.953125 5.410156 L 60.953125 20.625 L 59.097656 20.625 Z M 59.097656 20.625 "/>
<path style=" stroke:none;fill-rule:nonzero;fill:rgb(0%,0%,0%);fill-opacity:1;" d="M 48.4375 22.5625 L 49.9375 22.5625 L 49.9375 47.1875 L 49.1875 47.625 L 48.4375 46.375 L 48.4375 22.5625 Z M 48.4375 22.5625 "/>
<path style=" stroke:none;fill-rule:nonzero;fill:rgb(0%,0%,0%);fill-opacity:1;" d="M 15.5 67.292969 L 17.511719 67.800781 C 17.082031 69.457031 16.320312 70.71875 15.226562 71.589844 C 14.132812 72.449219 12.789062 72.878906 11.203125 72.878906 C 9.5625 72.878906 8.226562 72.546875 7.199219 71.882812 C 6.183594 71.21875 5.402344 70.257812 4.855469 68.992188 C 4.320312 67.71875 4.054688 66.355469 4.054688 64.910156 C 4.054688 63.324219 4.351562 61.941406 4.953125 60.769531 C 5.5625 59.585938 6.429688 58.6875 7.550781 58.074219 C 8.667969 57.464844 9.898438 57.15625 11.242188 57.15625 C 12.765625 57.15625 14.039062 57.546875 15.070312 58.328125 C 16.109375 59.101562 16.832031 60.183594 17.238281 61.589844 L 15.265625 62.058594 C 14.914062 60.953125 14.398438 60.144531 13.722656 59.636719 C 13.058594 59.128906 12.21875 58.875 11.203125 58.875 C 10.03125 58.875 9.046875 59.15625 8.253906 59.714844 C 7.472656 60.277344 6.917969 61.03125 6.59375 61.980469 C 6.28125 62.917969 6.125 63.890625 6.125 64.890625 C 6.125 66.195312 6.3125 67.328125 6.691406 68.289062 C 7.066406 69.257812 7.652344 69.976562 8.449219 70.457031 C 9.253906 70.925781 10.121094 71.160156 11.046875 71.160156 C 12.164062 71.160156 13.117188 70.835938 13.898438 70.183594 C 14.679688 69.535156 15.210938 68.570312 15.5 67.292969 Z M 15.5 67.292969 "/>
<path style=" stroke:none;fill-rule:nonzero;fill:rgb(0%,0%,0%);fill-opacity:1;" d="M 19.535156 72.625 L 19.535156 57.410156 L 21.390625 57.410156 L 21.390625 72.625 L 19.535156 72.625 Z M 19.535156 72.625 "/>
<path style=" stroke:none;fill-rule:nonzero;fill:rgb(0%,0%,0%);fill-opacity:1;" d="M 24.8125 62.5625 L 24.0625 61.3125 L 47.6875 47.625 L 49.1875 47.625 L 49.1875 48.5 L 24.8125 62.5625 Z M 24.8125 62.5625 "/>
<path style=" stroke:none;fill-rule:nonzero;fill:rgb(0%,0%,0%);fill-opacity:1;" d="M 32.996094 102.6875 L 32.996094 87.472656 L 35.007812 87.472656 L 35.007812 93.722656 L 42.917969 93.722656 L 42.917969 87.472656 L 44.929688 87.472656 L 44.929688 102.6875 L 42.917969 102.6875 L 42.917969 95.519531 L 35.007812 95.519531 L 35.007812 102.6875 L 32.996094 102.6875 Z M 32.996094 102.6875 "/>
<path style=" stroke:none;fill-rule:nonzero;fill:rgb(0%,0%,0%);fill-opacity:1;" d="M 47.207031 104.070312 L 48.632812 103.875 C 48.800781 104.6875 49.082031 105.273438 49.472656 105.632812 C 49.863281 105.984375 50.34375 106.160156 50.917969 106.160156 C 51.582031 106.160156 52.140625 105.9375 52.597656 105.476562 C 53.066406 105.007812 53.300781 104.433594 53.300781 103.738281 C 53.300781 103.074219 53.085938 102.539062 52.65625 102.117188 C 52.238281 101.6875 51.699219 101.472656 51.035156 101.472656 C 50.761719 101.472656 50.421875 101.527344 50.019531 101.628906 L 50.175781 100.378906 C 50.28125 100.394531 50.359375 100.398438 50.410156 100.398438 C 51.023438 100.398438 51.570312 100.242188 52.050781 99.929688 C 52.546875 99.609375 52.792969 99.109375 52.792969 98.445312 C 52.792969 97.929688 52.609375 97.5 52.246094 97.15625 C 51.894531 96.804688 51.4375 96.628906 50.878906 96.628906 C 50.320312 96.628906 49.855469 96.804688 49.492188 97.15625 C 49.128906 97.507812 48.886719 98.03125 48.769531 98.71875 L 47.34375 98.464844 C 47.527344 97.519531 47.921875 96.78125 48.535156 96.257812 C 49.160156 95.726562 49.929688 95.457031 50.839844 95.457031 C 51.476562 95.457031 52.0625 95.59375 52.597656 95.867188 C 53.132812 96.140625 53.542969 96.511719 53.828125 96.980469 C 54.113281 97.449219 54.257812 97.953125 54.257812 98.484375 C 54.257812 98.984375 54.121094 99.4375 53.847656 99.851562 C 53.574219 100.273438 53.175781 100.59375 52.65625 100.828125 C 53.332031 101 53.859375 101.332031 54.238281 101.824219 C 54.628906 102.324219 54.824219 102.949219 54.824219 103.699219 C 54.824219 104.714844 54.453125 105.585938 53.710938 106.296875 C 52.96875 107 52.03125 107.351562 50.898438 107.351562 C 49.882812 107.351562 49.035156 107.050781 48.359375 106.433594 C 47.683594 105.824219 47.296875 105.039062 47.207031 104.070312 Z M 47.207031 104.070312 "/>
<path style=" stroke:none;fill-rule:nonzero;fill:rgb(0%,0%,0%);fill-opacity:1;" d="M 67.847656 97.355469 L 69.859375 97.863281 C 69.429688 99.519531 68.667969 100.785156 67.574219 101.652344 C 66.480469 102.511719 65.136719 102.941406 63.550781 102.941406 C 61.910156 102.941406 60.570312 102.609375 59.546875 101.945312 C 58.53125 101.28125 57.75 100.320312 57.203125 99.054688 C 56.664062 97.78125 56.402344 96.417969 56.402344 94.972656 C 56.402344 93.386719 56.699219 92.003906 57.300781 90.832031 C 57.910156 89.652344 58.773438 88.753906 59.898438 88.136719 C 61.015625 87.527344 62.246094 87.21875 63.589844 87.21875 C 65.113281 87.21875 66.386719 87.609375 67.417969 88.390625 C 68.457031 89.164062 69.179688 90.246094 69.585938 91.652344 L 67.613281 92.121094 C 67.261719 91.019531 66.742188 90.207031 66.070312 89.699219 C 65.40625 89.191406 64.566406 88.9375 63.550781 88.9375 C 62.378906 88.9375 61.390625 89.222656 60.601562 89.777344 C 59.820312 90.339844 59.261719 91.097656 58.941406 92.042969 C 58.628906 92.980469 58.472656 93.953125 58.472656 94.953125 C 58.472656 96.257812 58.65625 97.390625 59.039062 98.351562 C 59.414062 99.320312 60 100.042969 60.796875 100.519531 C 61.601562 100.988281 62.464844 101.222656 63.394531 101.222656 C 64.511719 101.222656 65.464844 100.902344 66.246094 100.246094 C 67.027344 99.597656 67.558594 98.636719 67.847656 97.355469 Z M 67.847656 97.355469 "/>
<path style=" stroke:none;fill-rule:nonzero;fill:rgb(0%,0%,0%);fill-opacity:1;" d="M 67.625 86.5625 L 66.375 85.8125 L 78.25 65.25 L 79.25 65 L 79.25 66.5 L 67.625 86.5625 Z M 67.625 86.5625 "/>
<path style=" stroke:none;fill-rule:nonzero;fill:rgb(0%,0%,0%);fill-opacity:1;" d="M 102.4375 97.355469 L 104.449219 97.863281 C 104.019531 99.519531 103.257812 100.785156 102.164062 101.652344 C 101.070312 102.511719 99.726562 102.941406 98.140625 102.941406 C 96.5 102.941406 95.164062 102.609375 94.136719 101.945312 C 93.121094 101.28125 92.339844 100.320312 91.792969 99.054688 C 91.257812 97.78125 90.992188 96.417969 90.992188 94.972656 C 90.992188 93.386719 91.289062 92.003906 91.890625 90.832031 C 92.5 89.652344 93.367188 88.753906 94.488281 88.136719 C 95.605469 87.527344 96.835938 87.21875 98.179688 87.21875 C 99.703125 87.21875 100.976562 87.609375 102.007812 88.390625 C 103.046875 89.164062 103.769531 90.246094 104.175781 91.652344 L 102.203125 92.121094 C 101.851562 91.019531 101.335938 90.207031 100.660156 89.699219 C 99.996094 89.191406 99.15625 88.9375 98.140625 88.9375 C 96.96875 88.9375 95.984375 89.222656 95.191406 89.777344 C 94.410156 90.339844 93.851562 91.097656 93.53125 92.042969 C 93.21875 92.980469 93.0625 93.953125 93.0625 94.953125 C 93.0625 96.257812 93.25 97.390625 93.628906 98.351562 C 94.003906 99.320312 94.589844 100.042969 95.386719 100.519531 C 96.191406 100.988281 97.054688 101.222656 97.984375 101.222656 C 99.101562 101.222656 100.054688 100.902344 100.835938 100.246094 C 101.617188 99.597656 102.148438 98.636719 102.4375 97.355469 Z M 102.4375 97.355469 "/>
<path style=" stroke:none;fill-rule:nonzero;fill:rgb(0%,0%,0%);fill-opacity:1;" d="M 106.804688 102.6875 L 106.804688 87.472656 L 108.816406 87.472656 L 108.816406 93.722656 L 116.726562 93.722656 L 116.726562 87.472656 L 118.738281 87.472656 L 118.738281 102.6875 L 116.726562 102.6875 L 116.726562 95.519531 L 108.816406 95.519531 L 108.816406 102.6875 L 106.804688 102.6875 Z M 106.804688 102.6875 "/>
<path style=" stroke:none;fill-rule:nonzero;fill:rgb(0%,0%,0%);fill-opacity:1;" d="M 121.015625 104.070312 L 122.441406 103.875 C 122.605469 104.6875 122.890625 105.273438 123.28125 105.632812 C 123.671875 105.984375 124.148438 106.160156 124.726562 106.160156 C 125.390625 106.160156 125.945312 105.9375 126.40625 105.476562 C 126.875 105.007812 127.109375 104.433594 127.109375 103.738281 C 127.109375 103.074219 126.894531 102.539062 126.464844 102.117188 C 126.042969 101.6875 125.507812 101.472656 124.84375 101.472656 C 124.570312 101.472656 124.226562 101.527344 123.828125 101.628906 L 123.984375 100.378906 C 124.085938 100.394531 124.164062 100.398438 124.21875 100.398438 C 124.828125 100.398438 125.375 100.242188 125.859375 99.929688 C 126.351562 99.609375 126.601562 99.109375 126.601562 98.445312 C 126.601562 97.929688 126.414062 97.5 126.054688 97.15625 C 125.703125 96.804688 125.242188 96.628906 124.6875 96.628906 C 124.125 96.628906 123.660156 96.804688 123.300781 97.15625 C 122.933594 97.507812 122.695312 98.03125 122.578125 98.71875 L 121.152344 98.464844 C 121.332031 97.519531 121.726562 96.78125 122.34375 96.257812 C 122.96875 95.726562 123.734375 95.457031 124.648438 95.457031 C 125.28125 95.457031 125.867188 95.59375 126.40625 95.867188 C 126.9375 96.140625 127.347656 96.511719 127.636719 96.980469 C 127.917969 97.449219 128.066406 97.953125 128.066406 98.484375 C 128.066406 98.984375 127.929688 99.4375 127.65625 99.851562 C 127.382812 100.273438 126.980469 100.59375 126.464844 100.828125 C 127.136719 101 127.664062 101.332031 128.046875 101.824219 C 128.4375 102.324219 128.632812 102.949219 128.632812 103.699219 C 128.632812 104.714844 128.261719 105.585938 127.519531 106.296875 C 126.777344 107 125.839844 107.351562 124.707031 107.351562 C 123.691406 107.351562 122.839844 107.050781 122.167969 106.433594 C 121.488281 105.824219 121.101562 105.039062 121.015625 104.070312 Z M 121.015625 104.070312 "/>
<path style=" stroke:none;fill-rule:nonzero;fill:rgb(0%,0%,0%);fill-opacity:1;" d="M 92.8125 87 L 91.5 87.75 L 79.25 66.5 L 79.25 65 L 80.25 65.25 L 92.8125 87 Z M 92.8125 87 "/>
</g>
</g>
</g>
</svg>
