<?xml version="1.0" encoding="UTF-8" standalone="no"?>
<!-- Created with Inkscape (http://www.inkscape.org/) -->

<svg
   width="717.2843mm"
   height="140.0948mm"
   viewBox="0 0 717.2843 140.0948"
   version="1.1"
   id="svg1"
   inkscape:version="1.4 (86a8ad7, 2024-10-11)"
   sodipodi:docname="Chlorhexidine_3D_tautomer.svg"
   xmlns:inkscape="http://www.inkscape.org/namespaces/inkscape"
   xmlns:sodipodi="http://sodipodi.sourceforge.net/DTD/sodipodi-0.dtd"
   xmlns="http://www.w3.org/2000/svg"
   xmlns:svg="http://www.w3.org/2000/svg">
  <sodipodi:namedview
     id="namedview1"
     pagecolor="#ffffff"
     bordercolor="#000000"
     borderopacity="0.25"
     inkscape:showpageshadow="2"
     inkscape:pageopacity="0.0"
     inkscape:pagecheckerboard="0"
     inkscape:deskcolor="#d1d1d1"
     inkscape:document-units="mm"
     inkscape:zoom="0.26110523"
     inkscape:cx="1154.7069"
     inkscape:cy="-331.28406"
     inkscape:window-width="1920"
     inkscape:window-height="1009"
     inkscape:window-x="-8"
     inkscape:window-y="-8"
     inkscape:window-maximized="1"
     inkscape:current-layer="layer1" />
  <defs
     id="defs1" />
  <g
     inkscape:label="Layer 1"
     inkscape:groupmode="layer"
     id="layer1"
     transform="translate(206.0937,-98.924067)">
    <path
       fill="none"
       stroke-width="1.31961"
       stroke-linecap="butt"
       stroke-linejoin="miter"
       stroke="#000000"
       stroke-opacity="1"
       stroke-miterlimit="10"
       d="M 489.71085,222.87413 472.20702,212.76725"
       id="path7" />
    <path
       fill="none"
       stroke-width="1.31961"
       stroke-linecap="butt"
       stroke-linejoin="miter"
       stroke="#000000"
       stroke-opacity="1"
       stroke-miterlimit="10"
       d="m -184.61387,115.06985 17.50489,10.10585"
       id="path8" />
    <path
       fill="none"
       stroke-width="1.31961"
       stroke-linecap="butt"
       stroke-linejoin="miter"
       stroke="#000000"
       stroke-opacity="1"
       stroke-miterlimit="10"
       d="M 247.86928,166.72253 228.4069,177.95906"
       id="path9" />
    <path
       fill="none"
       stroke-width="1.31961"
       stroke-linecap="butt"
       stroke-linejoin="miter"
       stroke="#000000"
       stroke-opacity="1"
       stroke-miterlimit="10"
       d="m 269.88346,169.17922 19.80135,11.4339"
       id="path10" />
    <path
       fill="none"
       stroke-width="1.31961"
       stroke-linecap="butt"
       stroke-linejoin="miter"
       stroke="#000000"
       stroke-opacity="1"
       stroke-miterlimit="10"
       d="m 272.34634,164.9128 19.80241,11.43288"
       id="path11" />
    <path
       fill="none"
       stroke-width="1.31961"
       stroke-linecap="butt"
       stroke-linejoin="miter"
       stroke="#000000"
       stroke-opacity="1"
       stroke-miterlimit="10"
       d="M 57.227704,171.21941 76.690077,159.98288"
       id="path12" />
    <path
       fill="none"
       stroke-width="1.31961"
       stroke-linecap="butt"
       stroke-linejoin="miter"
       stroke="#000000"
       stroke-opacity="1"
       stroke-miterlimit="10"
       d="M 35.213523,168.76272 15.412169,157.32878"
       id="path13" />
    <path
       fill="none"
       stroke-width="1.31961"
       stroke-linecap="butt"
       stroke-linejoin="miter"
       stroke="#000000"
       stroke-opacity="1"
       stroke-miterlimit="10"
       d="M 32.750639,173.0291 12.948229,161.59622"
       id="path14" />
    <path
       fill="none"
       stroke-width="1.31961"
       stroke-linecap="butt"
       stroke-linejoin="miter"
       stroke="#000000"
       stroke-opacity="1"
       stroke-miterlimit="10"
       d="m 308.81647,166.72253 -19.46135,11.23653"
       id="path15" />
    <path
       fill="none"
       stroke-width="1.31961"
       stroke-linecap="butt"
       stroke-linejoin="miter"
       stroke="#000000"
       stroke-opacity="1"
       stroke-miterlimit="10"
       d="m 330.83167,169.17922 19.80551,11.43288"
       id="path16" />
    <path
       fill="none"
       stroke-width="1.31961"
       stroke-linecap="butt"
       stroke-linejoin="miter"
       stroke="#000000"
       stroke-opacity="1"
       stroke-miterlimit="10"
       d="m 333.29456,164.9128 19.8055,11.43288"
       id="path17" />
    <path
       fill="none"
       stroke-width="1.31961"
       stroke-linecap="butt"
       stroke-linejoin="miter"
       stroke="#000000"
       stroke-opacity="1"
       stroke-miterlimit="10"
       d="M -3.7205133,171.21941 15.74186,159.98288"
       id="path18" />
    <path
       fill="none"
       stroke-width="1.31961"
       stroke-linecap="butt"
       stroke-linejoin="miter"
       stroke="#000000"
       stroke-opacity="1"
       stroke-miterlimit="10"
       d="M -25.734694,168.76166 -45.538125,157.32878"
       id="path19" />
    <path
       fill="none"
       stroke-width="1.31961"
       stroke-linecap="butt"
       stroke-linejoin="miter"
       stroke="#000000"
       stroke-opacity="1"
       stroke-miterlimit="10"
       d="M -28.198634,173.02808 -48.001044,161.5952"
       id="path20" />
    <path
       fill="none"
       stroke-width="1.31961"
       stroke-linecap="butt"
       stroke-linejoin="miter"
       stroke="#000000"
       stroke-opacity="1"
       stroke-miterlimit="10"
       d="M 289.68481,201.23514 V 177.38751"
       id="path21" />
    <path
       fill="none"
       stroke-width="1.31961"
       stroke-linecap="butt"
       stroke-linejoin="miter"
       stroke="#000000"
       stroke-opacity="1"
       stroke-miterlimit="10"
       d="m 369.76881,166.72253 -19.46238,11.23653"
       id="path22" />
    <path
       fill="none"
       stroke-width="1.31961"
       stroke-linecap="butt"
       stroke-linejoin="miter"
       stroke="#000000"
       stroke-opacity="1"
       stroke-miterlimit="10"
       d="m 392.45272,166.72253 19.46237,11.23653"
       id="path23" />
    <path
       fill="none"
       stroke-width="1.31961"
       stroke-linecap="butt"
       stroke-linejoin="miter"
       stroke="#000000"
       stroke-opacity="1"
       stroke-miterlimit="10"
       d="m -64.671862,171.22043 19.464449,-11.23857"
       id="path24" />
    <path
       fill="none"
       stroke-width="1.31961"
       stroke-linecap="butt"
       stroke-linejoin="miter"
       stroke="#000000"
       stroke-opacity="1"
       stroke-miterlimit="10"
       d="M -87.356756,171.22148 -106.81913,159.98496"
       id="path25" />
    <path
       fill="none"
       stroke-width="1.31961"
       stroke-linecap="butt"
       stroke-linejoin="miter"
       stroke="#000000"
       stroke-opacity="1"
       stroke-miterlimit="10"
       d="M 350.63718,201.23514 V 177.38751"
       id="path26" />
    <path
       fill="none"
       stroke-width="1.31961"
       stroke-linecap="butt"
       stroke-linejoin="miter"
       stroke="#000000"
       stroke-opacity="1"
       stroke-miterlimit="10"
       d="m -45.538125,136.70677 v 23.8466"
       id="path27" />
    <path
       fill="none"
       stroke-width="1.31961"
       stroke-linecap="butt"
       stroke-linejoin="miter"
       stroke="#000000"
       stroke-opacity="1"
       stroke-miterlimit="10"
       d="M 168.11497,177.95906 136.98095,159.98288"
       id="path28" />
    <path
       fill="none"
       stroke-width="1.31961"
       stroke-linecap="butt"
       stroke-linejoin="miter"
       stroke="#000000"
       stroke-opacity="1"
       stroke-miterlimit="10"
       d="m 167.45559,177.95906 31.13402,-17.97618"
       id="path29" />
    <path
       fill="none"
       stroke-width="1.31961"
       stroke-linecap="butt"
       stroke-linejoin="miter"
       stroke="#000000"
       stroke-opacity="1"
       stroke-miterlimit="10"
       d="m 137.64139,159.98288 -31.13402,17.97618"
       id="path30" />
    <path
       fill="none"
       stroke-width="1.31961"
       stroke-linecap="butt"
       stroke-linejoin="miter"
       stroke="#000000"
       stroke-opacity="1"
       stroke-miterlimit="10"
       d="m 197.92917,159.98288 31.13817,17.97618"
       id="path31" />
    <path
       fill="none"
       stroke-width="1.31961"
       stroke-linecap="butt"
       stroke-linejoin="miter"
       stroke="#000000"
       stroke-opacity="1"
       stroke-miterlimit="10"
       d="M 107.16675,177.95906 76.029639,159.98288"
       id="path32" />
    <path
       fill="none"
       stroke-width="1.31961"
       stroke-linecap="butt"
       stroke-linejoin="miter"
       stroke="#000000"
       stroke-opacity="1"
       stroke-miterlimit="10"
       d="M 411.58434,177.76784 V 213.3388"
       id="path33" />
    <path
       fill="none"
       stroke-width="1.31961"
       stroke-linecap="butt"
       stroke-linejoin="miter"
       stroke="#000000"
       stroke-opacity="1"
       stroke-miterlimit="10"
       d="m 416.5112,180.6121 v 29.88244"
       id="path34" />
    <path
       fill="none"
       stroke-width="1.31961"
       stroke-linecap="butt"
       stroke-linejoin="miter"
       stroke="#000000"
       stroke-opacity="1"
       stroke-miterlimit="10"
       d="m 411.25465,177.95906 31.13402,-17.97618"
       id="path35" />
    <path
       fill="none"
       stroke-width="1.31961"
       stroke-linecap="butt"
       stroke-linejoin="miter"
       stroke="#000000"
       stroke-opacity="1"
       stroke-miterlimit="10"
       d="m -106.48944,160.17512 -30.80433,17.78394"
       id="path36" />
    <path
       fill="none"
       stroke-width="1.31961"
       stroke-linecap="butt"
       stroke-linejoin="miter"
       stroke="#000000"
       stroke-opacity="1"
       stroke-miterlimit="10"
       d="m -111.41524,157.33085 -25.87853,14.93963"
       id="path37" />
    <path
       fill="none"
       stroke-width="1.31961"
       stroke-linecap="butt"
       stroke-linejoin="miter"
       stroke="#000000"
       stroke-opacity="1"
       stroke-miterlimit="10"
       d="m -106.48944,160.55647 0.002,-35.95439"
       id="path38" />
    <path
       fill="none"
       stroke-width="1.31961"
       stroke-linecap="butt"
       stroke-linejoin="miter"
       stroke="#000000"
       stroke-opacity="1"
       stroke-miterlimit="10"
       d="m 411.25465,212.76725 31.13402,17.97618"
       id="path39" />
    <path
       fill="none"
       stroke-width="1.31961"
       stroke-linecap="butt"
       stroke-linejoin="miter"
       stroke="#000000"
       stroke-opacity="1"
       stroke-miterlimit="10"
       d="M -136.63333,177.95906 -167.7684,159.9839"
       id="path40" />
    <path
       fill="none"
       stroke-width="1.31961"
       stroke-linecap="butt"
       stroke-linejoin="miter"
       stroke="#000000"
       stroke-opacity="1"
       stroke-miterlimit="10"
       d="m 441.72929,159.98288 31.13711,17.97618"
       id="path41" />
    <path
       fill="none"
       stroke-width="1.31961"
       stroke-linecap="butt"
       stroke-linejoin="miter"
       stroke="#000000"
       stroke-opacity="1"
       stroke-miterlimit="10"
       d="m 441.72929,165.67142 26.21029,15.1319"
       id="path42" />
    <path
       fill="none"
       stroke-width="1.31961"
       stroke-linecap="butt"
       stroke-linejoin="miter"
       stroke="#000000"
       stroke-opacity="1"
       stroke-miterlimit="10"
       d="M -106.15767,125.17363 -137.29275,107.1985"
       id="path43" />
    <path
       fill="none"
       stroke-width="1.31961"
       stroke-linecap="butt"
       stroke-linejoin="miter"
       stroke="#000000"
       stroke-opacity="1"
       stroke-miterlimit="10"
       d="m -111.08453,128.01789 -26.20822,-15.13085"
       id="path44" />
    <path
       fill="none"
       stroke-width="1.31961"
       stroke-linecap="butt"
       stroke-linejoin="miter"
       stroke="#000000"
       stroke-opacity="1"
       stroke-miterlimit="10"
       d="m 441.72929,230.74343 30.80742,-17.78601"
       id="path45" />
    <path
       fill="none"
       stroke-width="1.31961"
       stroke-linecap="butt"
       stroke-linejoin="miter"
       stroke="#000000"
       stroke-opacity="1"
       stroke-miterlimit="10"
       d="m 441.72929,225.05384 25.8806,-14.94069"
       id="path46" />
    <path
       fill="none"
       stroke-width="1.31961"
       stroke-linecap="butt"
       stroke-linejoin="miter"
       stroke="#000000"
       stroke-opacity="1"
       stroke-miterlimit="10"
       d="M -167.43871,160.55545 V 124.98554"
       id="path47" />
    <path
       fill="none"
       stroke-width="1.31961"
       stroke-linecap="butt"
       stroke-linejoin="miter"
       stroke="#000000"
       stroke-opacity="1"
       stroke-miterlimit="10"
       d="M -162.51185,157.71118 V 127.82981"
       id="path48" />
    <path
       fill="none"
       stroke-width="1.31961"
       stroke-linecap="butt"
       stroke-linejoin="miter"
       stroke="#000000"
       stroke-opacity="1"
       stroke-miterlimit="10"
       d="M 472.53671,177.38751 V 213.3388"
       id="path49" />
    <path
       fill="none"
       stroke-width="1.31961"
       stroke-linecap="butt"
       stroke-linejoin="miter"
       stroke="#000000"
       stroke-opacity="1"
       stroke-miterlimit="10"
       d="m -136.63231,107.1985 -31.13609,17.9772"
       id="path50" />
    <path
       fill="none"
       stroke-width="1.31961"
       stroke-linecap="butt"
       stroke-linejoin="miter"
       stroke="#000000"
       stroke-opacity="1"
       stroke-miterlimit="10"
       d="m 15.412169,136.70677 v 23.84766"
       id="path51" />
    <g
       fill="#000000"
       fill-opacity="1"
       id="g52"
       transform="matrix(0.26458333,0,0,0.26458333,-208.2114,96.740221)">
      <g
         id="use51"
         transform="translate(2652.0898,536.91797)">
        <path
           d="m 33.5,-53.609375 c -6.375,0 -11.390625,2.136719 -15.046875,6.40625 -3.65625,4.261719 -5.484375,10.105469 -5.484375,17.53125 0,7.367187 1.703125,13.199219 5.109375,17.5 3.40625,4.292969 8.519531,6.4375 15.34375,6.4375 2.601563,0 5.066406,-0.21875 7.390625,-0.65625 2.332031,-0.445313 4.601562,-1.003906 6.8125,-1.671875 v 6.484375 c -2.210938,0.835937 -4.496094,1.445313 -6.859375,1.828125 -2.355469,0.382812 -5.167969,0.578125 -8.4375,0.578125 -6.03125,0 -11.074219,-1.242187 -15.125,-3.734375 -4.042969,-2.5 -7.074219,-6.046875 -9.09375,-10.640625 -2.023437,-4.601563 -3.03125,-10.007813 -3.03125,-16.21875 0,-5.976563 1.09375,-11.253906 3.28125,-15.828125 2.1875,-4.570312 5.410156,-8.144531 9.671875,-10.71875 4.269531,-2.582031 9.453125,-3.875 15.546875,-3.875 6.257813,0 11.71875,1.167969 16.375,3.5 l -2.984375,6.3125 c -1.835938,-0.832031 -3.875,-1.578125 -6.125,-2.234375 -2.242188,-0.664063 -4.6875,-1 -7.34375,-1 z m 0,0"
           id="path1" />
      </g>
      <g
         id="use52"
         transform="translate(2704.6248,536.91797)">
        <path
           d="M 14.375,0 H 7.0625 v -63.171875 h 7.3125 z m 0,0"
           id="path83" />
      </g>
    </g>
    <g
       fill="#000000"
       fill-opacity="1"
       id="g54"
       transform="matrix(0.26458333,0,0,0.26458333,-208.2114,96.740221)">
      <g
         id="use53"
         transform="translate(2.925781,71.425781)">
        <path
           d="m 33.5,-53.609375 c -6.375,0 -11.390625,2.136719 -15.046875,6.40625 -3.65625,4.261719 -5.484375,10.105469 -5.484375,17.53125 0,7.367187 1.703125,13.199219 5.109375,17.5 3.40625,4.292969 8.519531,6.4375 15.34375,6.4375 2.601563,0 5.066406,-0.21875 7.390625,-0.65625 2.332031,-0.445313 4.601562,-1.003906 6.8125,-1.671875 v 6.484375 c -2.210938,0.835937 -4.496094,1.445313 -6.859375,1.828125 -2.355469,0.382812 -5.167969,0.578125 -8.4375,0.578125 -6.03125,0 -11.074219,-1.242187 -15.125,-3.734375 -4.042969,-2.5 -7.074219,-6.046875 -9.09375,-10.640625 -2.023437,-4.601563 -3.03125,-10.007813 -3.03125,-16.21875 0,-5.976563 1.09375,-11.253906 3.28125,-15.828125 2.1875,-4.570312 5.410156,-8.144531 9.671875,-10.71875 4.269531,-2.582031 9.453125,-3.875 15.546875,-3.875 6.257813,0 11.71875,1.167969 16.375,3.5 l -2.984375,6.3125 c -1.835938,-0.832031 -3.875,-1.578125 -6.125,-2.234375 -2.242188,-0.664063 -4.6875,-1 -7.34375,-1 z m 0,0"
           id="path52" />
      </g>
      <g
         id="use54"
         transform="translate(55.460785,71.425781)">
        <path
           d="M 14.375,0 H 7.0625 v -63.171875 h 7.3125 z m 0,0"
           id="path84" />
      </g>
    </g>
    <g
       fill="#000000"
       fill-opacity="1"
       id="g55"
       transform="matrix(0.26458333,0,0,0.26458333,-208.2114,96.740221)">
      <g
         id="use55"
         transform="translate(1735.0469,269.42187)">
        <path
           d="m 55.109375,0 h -8.71875 L 14.625,-49.296875 h -0.328125 c 0.113281,1.9375 0.253906,4.351563 0.421875,7.234375 0.164062,2.886719 0.25,5.851562 0.25,8.890625 V 0 H 8.0625 v -59.34375 h 8.640625 l 31.671875,49.125 h 0.34375 c -0.0625,-0.882812 -0.136719,-2.210938 -0.21875,-3.984375 -0.08594,-1.78125 -0.167969,-3.722656 -0.25,-5.828125 -0.08594,-2.101562 -0.125,-4.046875 -0.125,-5.828125 V -59.34375 h 6.984375 z m 0,0"
           id="path85" />
      </g>
    </g>
    <g
       fill="#000000"
       fill-opacity="1"
       id="g56"
       transform="matrix(0.26458333,0,0,0.26458333,-208.2114,96.740221)">
      <g
         id="use56"
         transform="translate(928.77734,335.92187)">
        <path
           d="m 55.109375,0 h -8.71875 L 14.625,-49.296875 h -0.328125 c 0.113281,1.9375 0.253906,4.351563 0.421875,7.234375 0.164062,2.886719 0.25,5.851562 0.25,8.890625 V 0 H 8.0625 v -59.34375 h 8.640625 l 31.671875,49.125 h 0.34375 c -0.0625,-0.882812 -0.136719,-2.210938 -0.21875,-3.984375 -0.08594,-1.78125 -0.167969,-3.722656 -0.25,-5.828125 -0.08594,-2.101562 -0.125,-4.046875 -0.125,-5.828125 V -59.34375 h 6.984375 z m 0,0"
           id="path86" />
      </g>
    </g>
    <g
       fill="#000000"
       fill-opacity="1"
       id="g57"
       transform="matrix(0.26458333,0,0,0.26458333,-208.2114,96.740221)">
      <g
         id="use57"
         transform="translate(1965.4023,269.42187)">
        <path
           d="m 55.109375,0 h -8.71875 L 14.625,-49.296875 h -0.328125 c 0.113281,1.9375 0.253906,4.351563 0.421875,7.234375 0.164062,2.886719 0.25,5.851562 0.25,8.890625 V 0 H 8.0625 v -59.34375 h 8.640625 l 31.671875,49.125 h 0.34375 c -0.0625,-0.882812 -0.136719,-2.210938 -0.21875,-3.984375 -0.08594,-1.78125 -0.167969,-3.722656 -0.25,-5.828125 -0.08594,-2.101562 -0.125,-4.046875 -0.125,-5.828125 V -59.34375 h 6.984375 z m 0,0"
           id="path87" />
      </g>
    </g>
    <g
       fill="#000000"
       fill-opacity="1"
       id="g58"
       transform="matrix(0.26458333,0,0,0.26458333,-208.2114,96.740221)">
      <g
         id="use58"
         transform="translate(698.42187,335.91797)">
        <path
           d="m 55.109375,0 h -8.71875 L 14.625,-49.296875 h -0.328125 c 0.113281,1.9375 0.253906,4.351563 0.421875,7.234375 0.164062,2.886719 0.25,5.851562 0.25,8.890625 V 0 H 8.0625 v -59.34375 h 8.640625 l 31.671875,49.125 h 0.34375 c -0.0625,-0.882812 -0.136719,-2.210938 -0.21875,-3.984375 -0.08594,-1.78125 -0.167969,-3.722656 -0.25,-5.828125 -0.08594,-2.101562 -0.125,-4.046875 -0.125,-5.828125 V -59.34375 h 6.984375 z m 0,0"
           id="path88" />
      </g>
    </g>
    <g
       fill="#000000"
       fill-opacity="1"
       id="g59"
       transform="matrix(0.26458333,0,0,0.26458333,-208.2114,96.740221)">
      <g
         id="use59"
         transform="translate(1850.2266,468.92187)">
        <path
           d="m 55.109375,0 h -8.71875 L 14.625,-49.296875 h -0.328125 c 0.113281,1.9375 0.253906,4.351563 0.421875,7.234375 0.164062,2.886719 0.25,5.851562 0.25,8.890625 V 0 H 8.0625 v -59.34375 h 8.640625 l 31.671875,49.125 h 0.34375 c -0.0625,-0.882812 -0.136719,-2.210938 -0.21875,-3.984375 -0.08594,-1.78125 -0.167969,-3.722656 -0.25,-5.828125 -0.08594,-2.101562 -0.125,-4.046875 -0.125,-5.828125 V -59.34375 h 6.984375 z m 0,0"
           id="path89" />
      </g>
    </g>
    <g
       fill="#000000"
       fill-opacity="1"
       id="g60"
       transform="matrix(0.26458333,0,0,0.26458333,-208.2114,96.740221)">
      <g
         id="use60"
         transform="translate(1901.707,468.92187)">
        <path
           d="M 53.453125,0 H 45.96875 V -27.6875 H 15.546875 V 0 H 8.0625 v -59.34375 h 7.484375 V -34.25 H 45.96875 v -25.09375 h 7.484375 z m 0,0"
           id="path53" />
      </g>
    </g>
    <g
       fill="#000000"
       fill-opacity="1"
       id="g61"
       transform="matrix(0.26458333,0,0,0.26458333,-208.2114,96.740221)">
      <g
         id="use61"
         transform="translate(1955.6016,493.49609)">
        <path
           d="M 43.21875,0 H 3.984375 V -6.0625 L 19.53125,-21.78125 c 2.988281,-2.988281 5.507812,-5.644531 7.5625,-7.96875 2.050781,-2.332031 3.601562,-4.617188 4.65625,-6.859375 1.050781,-2.25 1.578125,-4.703125 1.578125,-7.359375 0,-3.269531 -0.96875,-5.75 -2.90625,-7.4375 -1.9375,-1.695312 -4.460937,-2.546875 -7.5625,-2.546875 -2.886719,0 -5.421875,0.5 -7.609375,1.5 -2.1875,1 -4.417969,2.386719 -6.6875,4.15625 l -3.90625,-4.90625 c 2.320312,-1.9375 4.992188,-3.582031 8.015625,-4.9375 3.019531,-1.363281 6.414063,-2.046875 10.1875,-2.046875 5.539063,0 9.914063,1.402344 13.125,4.203125 3.21875,2.804687 4.828125,6.667969 4.828125,11.59375 0,3.105469 -0.640625,6.015625 -1.921875,8.734375 -1.273437,2.710938 -3.042969,5.382812 -5.3125,8.015625 -2.273437,2.636719 -4.929687,5.449219 -7.96875,8.4375 L 13.21875,-6.984375 v 0.328125 h 30 z m 0,0"
           id="path79" />
      </g>
    </g>
    <g
       fill="#000000"
       fill-opacity="1"
       id="g62"
       transform="matrix(0.26458333,0,0,0.26458333,-208.2114,96.740221)">
      <g
         id="use62"
         transform="translate(2195.7695,269.42187)">
        <path
           d="m 55.109375,0 h -8.71875 L 14.625,-49.296875 h -0.328125 c 0.113281,1.9375 0.253906,4.351563 0.421875,7.234375 0.164062,2.886719 0.25,5.851562 0.25,8.890625 V 0 H 8.0625 v -59.34375 h 8.640625 l 31.671875,49.125 h 0.34375 c -0.0625,-0.882812 -0.136719,-2.210938 -0.21875,-3.984375 -0.08594,-1.78125 -0.167969,-3.722656 -0.25,-5.828125 -0.08594,-2.101562 -0.125,-4.046875 -0.125,-5.828125 V -59.34375 h 6.984375 z m 0,0"
           id="path90" />
      </g>
    </g>
    <g
       fill="#000000"
       fill-opacity="1"
       id="g63"
       transform="matrix(0.26458333,0,0,0.26458333,-208.2114,96.740221)">
      <g
         id="use63"
         transform="translate(2196.6016,205.63672)">
        <path
           d="M 53.453125,0 H 45.96875 V -27.6875 H 15.546875 V 0 H 8.0625 v -59.34375 h 7.484375 V -34.25 H 45.96875 v -25.09375 h 7.484375 z m 0,0"
           id="path54" />
      </g>
    </g>
    <g
       fill="#000000"
       fill-opacity="1"
       id="g64"
       transform="matrix(0.26458333,0,0,0.26458333,-208.2114,96.740221)">
      <g
         id="use64"
         transform="translate(468.05469,335.92969)">
        <path
           d="m 55.109375,0 h -8.71875 L 14.625,-49.296875 h -0.328125 c 0.113281,1.9375 0.253906,4.351563 0.421875,7.234375 0.164062,2.886719 0.25,5.851562 0.25,8.890625 V 0 H 8.0625 v -59.34375 h 8.640625 l 31.671875,49.125 h 0.34375 c -0.0625,-0.882812 -0.136719,-2.210938 -0.21875,-3.984375 -0.08594,-1.78125 -0.167969,-3.722656 -0.25,-5.828125 -0.08594,-2.101562 -0.125,-4.046875 -0.125,-5.828125 V -59.34375 h 6.984375 z m 0,0"
           id="path91" />
      </g>
    </g>
    <g
       fill="#000000"
       fill-opacity="1"
       id="g65"
       transform="matrix(0.26458333,0,0,0.26458333,-208.2114,96.740221)">
      <g
         id="use65"
         transform="translate(468.88672,399.71094)">
        <path
           d="M 53.453125,0 H 45.96875 V -27.6875 H 15.546875 V 0 H 8.0625 v -59.34375 h 7.484375 V -34.25 H 45.96875 v -25.09375 h 7.484375 z m 0,0"
           id="path75" />
      </g>
    </g>
    <g
       fill="#000000"
       fill-opacity="1"
       id="g66"
       transform="matrix(0.26458333,0,0,0.26458333,-208.2114,96.740221)">
      <g
         id="use66"
         transform="translate(2080.5938,468.92187)">
        <path
           d="m 55.109375,0 h -8.71875 L 14.625,-49.296875 h -0.328125 c 0.113281,1.9375 0.253906,4.351563 0.421875,7.234375 0.164062,2.886719 0.25,5.851562 0.25,8.890625 V 0 H 8.0625 v -59.34375 h 8.640625 l 31.671875,49.125 h 0.34375 c -0.0625,-0.882812 -0.136719,-2.210938 -0.21875,-3.984375 -0.08594,-1.78125 -0.167969,-3.722656 -0.25,-5.828125 -0.08594,-2.101562 -0.125,-4.046875 -0.125,-5.828125 V -59.34375 h 6.984375 z m 0,0"
           id="path92" />
      </g>
    </g>
    <g
       fill="#000000"
       fill-opacity="1"
       id="g67"
       transform="matrix(0.26458333,0,0,0.26458333,-208.2114,96.740221)">
      <g
         id="use67"
         transform="translate(2132.0742,468.92187)">
        <path
           d="M 53.453125,0 H 45.96875 V -27.6875 H 15.546875 V 0 H 8.0625 v -59.34375 h 7.484375 V -34.25 H 45.96875 v -25.09375 h 7.484375 z m 0,0"
           id="path76" />
      </g>
    </g>
    <g
       fill="#000000"
       fill-opacity="1"
       id="g68"
       transform="matrix(0.26458333,0,0,0.26458333,-208.2114,96.740221)">
      <g
         id="use68"
         transform="translate(2185.9688,493.49609)">
        <path
           d="M 43.21875,0 H 3.984375 V -6.0625 L 19.53125,-21.78125 c 2.988281,-2.988281 5.507812,-5.644531 7.5625,-7.96875 2.050781,-2.332031 3.601562,-4.617188 4.65625,-6.859375 1.050781,-2.25 1.578125,-4.703125 1.578125,-7.359375 0,-3.269531 -0.96875,-5.75 -2.90625,-7.4375 -1.9375,-1.695312 -4.460937,-2.546875 -7.5625,-2.546875 -2.886719,0 -5.421875,0.5 -7.609375,1.5 -2.1875,1 -4.417969,2.386719 -6.6875,4.15625 l -3.90625,-4.90625 c 2.320312,-1.9375 4.992188,-3.582031 8.015625,-4.9375 3.019531,-1.363281 6.414063,-2.046875 10.1875,-2.046875 5.539063,0 9.914063,1.402344 13.125,4.203125 3.21875,2.804687 4.828125,6.667969 4.828125,11.59375 0,3.105469 -0.640625,6.015625 -1.921875,8.734375 -1.273437,2.710938 -3.042969,5.382812 -5.3125,8.015625 -2.273437,2.636719 -4.929687,5.449219 -7.96875,8.4375 L 13.21875,-6.984375 v 0.328125 h 30 z m 0,0"
           id="path80" />
      </g>
    </g>
    <g
       fill="#000000"
       fill-opacity="1"
       id="g69"
       transform="matrix(0.26458333,0,0,0.26458333,-208.2114,96.740221)">
      <g
         id="use69"
         transform="translate(583.23828,136.42187)">
        <path
           d="m 55.109375,0 h -8.71875 L 14.625,-49.296875 h -0.328125 c 0.113281,1.9375 0.253906,4.351563 0.421875,7.234375 0.164062,2.886719 0.25,5.851562 0.25,8.890625 V 0 H 8.0625 v -59.34375 h 8.640625 l 31.671875,49.125 h 0.34375 c -0.0625,-0.882812 -0.136719,-2.210938 -0.21875,-3.984375 -0.08594,-1.78125 -0.167969,-3.722656 -0.25,-5.828125 -0.08594,-2.101562 -0.125,-4.046875 -0.125,-5.828125 V -59.34375 h 6.984375 z m 0,0"
           id="path93" />
      </g>
    </g>
    <g
       fill="#000000"
       fill-opacity="1"
       id="g70"
       transform="matrix(0.26458333,0,0,0.26458333,-208.2114,96.740221)">
      <g
         id="use70"
         transform="translate(634.72266,136.42187)">
        <path
           d="M 53.453125,0 H 45.96875 V -27.6875 H 15.546875 V 0 H 8.0625 v -59.34375 h 7.484375 V -34.25 H 45.96875 v -25.09375 h 7.484375 z m 0,0"
           id="path77" />
      </g>
    </g>
    <g
       fill="#000000"
       fill-opacity="1"
       id="g71"
       transform="matrix(0.26458333,0,0,0.26458333,-208.2114,96.740221)">
      <g
         id="use71"
         transform="translate(688.61328,160.99609)">
        <path
           d="M 43.21875,0 H 3.984375 V -6.0625 L 19.53125,-21.78125 c 2.988281,-2.988281 5.507812,-5.644531 7.5625,-7.96875 2.050781,-2.332031 3.601562,-4.617188 4.65625,-6.859375 1.050781,-2.25 1.578125,-4.703125 1.578125,-7.359375 0,-3.269531 -0.96875,-5.75 -2.90625,-7.4375 -1.9375,-1.695312 -4.460937,-2.546875 -7.5625,-2.546875 -2.886719,0 -5.421875,0.5 -7.609375,1.5 -2.1875,1 -4.417969,2.386719 -6.6875,4.15625 l -3.90625,-4.90625 c 2.320312,-1.9375 4.992188,-3.582031 8.015625,-4.9375 3.019531,-1.363281 6.414063,-2.046875 10.1875,-2.046875 5.539063,0 9.914063,1.402344 13.125,4.203125 3.21875,2.804687 4.828125,6.667969 4.828125,11.59375 0,3.105469 -0.640625,6.015625 -1.921875,8.734375 -1.273437,2.710938 -3.042969,5.382812 -5.3125,8.015625 -2.273437,2.636719 -4.929687,5.449219 -7.96875,8.4375 L 13.21875,-6.984375 v 0.328125 h 30 z m 0,0"
           id="path81" />
      </g>
    </g>
    <g
       fill="#000000"
       fill-opacity="1"
       id="g72"
       transform="matrix(0.26458333,0,0,0.26458333,-208.2114,96.740221)">
      <g
         id="use72"
         transform="translate(813.60156,136.42187)">
        <path
           d="m 55.109375,0 h -8.71875 L 14.625,-49.296875 h -0.328125 c 0.113281,1.9375 0.253906,4.351563 0.421875,7.234375 0.164062,2.886719 0.25,5.851562 0.25,8.890625 V 0 H 8.0625 v -59.34375 h 8.640625 l 31.671875,49.125 h 0.34375 c -0.0625,-0.882812 -0.136719,-2.210938 -0.21875,-3.984375 -0.08594,-1.78125 -0.167969,-3.722656 -0.25,-5.828125 -0.08594,-2.101562 -0.125,-4.046875 -0.125,-5.828125 V -59.34375 h 6.984375 z m 0,0"
           id="path94" />
      </g>
    </g>
    <g
       fill="#000000"
       fill-opacity="1"
       id="g73"
       transform="matrix(0.26458333,0,0,0.26458333,-208.2114,96.740221)">
      <g
         id="use73"
         transform="translate(865.08203,136.42187)">
        <path
           d="M 53.453125,0 H 45.96875 V -27.6875 H 15.546875 V 0 H 8.0625 v -59.34375 h 7.484375 V -34.25 H 45.96875 v -25.09375 h 7.484375 z m 0,0"
           id="path78" />
      </g>
    </g>
    <g
       fill="#000000"
       fill-opacity="1"
       id="g74"
       transform="matrix(0.26458333,0,0,0.26458333,-208.2114,96.740221)">
      <g
         id="use74"
         transform="translate(918.97656,160.99609)">
        <path
           d="M 43.21875,0 H 3.984375 V -6.0625 L 19.53125,-21.78125 c 2.988281,-2.988281 5.507812,-5.644531 7.5625,-7.96875 2.050781,-2.332031 3.601562,-4.617188 4.65625,-6.859375 1.050781,-2.25 1.578125,-4.703125 1.578125,-7.359375 0,-3.269531 -0.96875,-5.75 -2.90625,-7.4375 -1.9375,-1.695312 -4.460937,-2.546875 -7.5625,-2.546875 -2.886719,0 -5.421875,0.5 -7.609375,1.5 -2.1875,1 -4.417969,2.386719 -6.6875,4.15625 l -3.90625,-4.90625 c 2.320312,-1.9375 4.992188,-3.582031 8.015625,-4.9375 3.019531,-1.363281 6.414063,-2.046875 10.1875,-2.046875 5.539063,0 9.914063,1.402344 13.125,4.203125 3.21875,2.804687 4.828125,6.667969 4.828125,11.59375 0,3.105469 -0.640625,6.015625 -1.921875,8.734375 -1.273437,2.710938 -3.042969,5.382812 -5.3125,8.015625 -2.273437,2.636719 -4.929687,5.449219 -7.96875,8.4375 L 13.21875,-6.984375 v 0.328125 h 30 z m 0,0"
           id="path82" />
      </g>
    </g>
  </g>
</svg>
