<?xml version="1.0" encoding="UTF-8" standalone="no"?>
<!-- Created with Inkscape (http://www.inkscape.org/) -->

<svg
   version="1.1"
   id="svg1"
   width="385"
   height="500"
   viewBox="0 0 385 500"
   sodipodi:docname="chlorocresol.svg"
   inkscape:version="1.4.2 (f4327f4, 2025-05-13)"
   xmlns:inkscape="http://www.inkscape.org/namespaces/inkscape"
   xmlns:sodipodi="http://sodipodi.sourceforge.net/DTD/sodipodi-0.dtd"
   xmlns="http://www.w3.org/2000/svg"
   xmlns:svg="http://www.w3.org/2000/svg">
  <defs
     id="defs1" />
  <sodipodi:namedview
     id="namedview1"
     pagecolor="#ffffff"
     bordercolor="#000000"
     borderopacity="0.25"
     inkscape:showpageshadow="2"
     inkscape:pageopacity="0.0"
     inkscape:pagecheckerboard="0"
     inkscape:deskcolor="#d1d1d1"
     inkscape:zoom="1.702"
     inkscape:cx="193.00823"
     inkscape:cy="215.3349"
     inkscape:window-width="1920"
     inkscape:window-height="1111"
     inkscape:window-x="-9"
     inkscape:window-y="-9"
     inkscape:window-maximized="1"
     inkscape:current-layer="g1" />
  <g
     inkscape:groupmode="layer"
     inkscape:label="Image"
     id="g1">
    <g
       id="g2"
       transform="translate(-4.1128061,-8.8131613)">
      <path
         style="fill:#d0d0d0;fill-opacity:1"
         d="m 104.5,481.13944 c -4.17547,-2.57917 -6.463044,-5.37023 -8.051188,-9.82324 l -1.361026,-3.8162 -0.02193,-5.5 -0.02193,-5.5 1.846119,-4 C 100.11224,445.51845 105.48279,442 112.91722,442 h 3.78701 l 3.34382,2.2534 3.34382,2.2534 1.95366,3.34513 1.95366,3.34513 -1.39959,0.88616 c -2.4325,1.54014 -3.64567,1.01234 -5.70822,-2.48343 l -2.00617,-3.4002 -3.0926,-0.67925 -3.09261,-0.67925 -2.97297,0.65297 -2.97297,0.65298 -2.46647,2.93123 -2.46647,2.93124 -0.66204,4.41483 -0.662049,4.41482 0.706589,4.18228 0.70659,4.18228 2.6449,2.95988 2.64489,2.95989 4,0.47743 4,0.47742 2.47883,-1.30815 2.47883,-1.30815 2.02117,-3.48508 2.02117,-3.48508 2.25,0.32361 2.25,0.32361 v 1.09259 c 0,0.60093 -1.10965,2.98607 -2.4659,5.30033 l -2.46589,4.20773 -3.43523,1.63012 L 116.19774,483 111.84887,482.996 107.5,482.992 Z M 134,462.5 V 443 h 2.5 2.5 V 462.5 482 H 136.5 134 Z M 109.60699,436.41821 C 109.27314,435.54823 109,417.42298 109,396.13989 V 357.44335 L 65.75,333.05721 C 41.9625,319.64483 21.2625,307.81443 19.75,306.76744 L 17,304.86381 V 251.93191 199 l 1.753579,-1.75 c 0.964469,-0.9625 21.664469,-13.4276 46,-27.70022 L 109,143.59957 v -37.718 C 109,67.512745 109.15952,65 111.59538,65 h 1.38141 l 0.2616,39.13752 0.26161,39.13752 45.5,26.72494 45.5,26.72494 0.5,53.28033 0.5,53.28033 33.5,18.71308 33.5,18.71307 0.32332,1.64414 0.32333,1.64413 h -1.56603 c -0.86131,0 -16.51028,-8.347 -34.77549,-18.5489 l -33.20946,-18.54889 -4.54783,2.48631 C 196.54653,310.756 176.275,322.18722 154,334.79123 l -40.5,22.91639 -0.26134,40.14619 L 112.97731,438 h -1.38167 c -0.75991,0 -1.65481,-0.7118 -1.98865,-1.58179 z M 156.83206,328.53309 201,303.56618 v -52.08287 -52.08288 l -44.17217,-25.95021 c -24.2947,-14.27262 -44.46499,-26.07365 -44.82287,-26.22451 -0.35789,-0.15086 -20.867907,11.59942 -45.577829,26.11174 L 21.5,199.72347 v 51.78789 51.7879 L 66,328.5782 c 24.475,13.90342 44.98693,25.19858 45.58206,25.10037 0.59513,-0.0982 20.95763,-11.41368 45.25,-25.14548 z m -47.65538,7.83111 0.32332,-1.6358 38,-21.80672 c 20.9,-11.9937 38.8205,-21.83259 39.82332,-21.8642 l 1.82333,-0.0575 -0.32333,1.6358 -0.32332,1.6358 -38,21.80672 c -20.9,11.9937 -38.8205,21.83259 -39.82332,21.8642 L 108.85335,338 Z M 35.666667,296.33333 35,295.66667 V 252.41512 C 35,208.48911 35.139805,206 37.606989,206 H 39 v 45.5 45.5 h -1.333333 c -0.733334,0 -1.633334,-0.3 -2,-0.66667 z M 147.5,188.07832 l -38,-21.80672 -0.32332,-1.6358 -0.32333,-1.6358 1.82333,0.0575 C 111.6795,163.0891 129.6,172.928 150.5,184.9217 l 38,21.80672 0.32332,1.6358 0.32333,1.6358 -1.82333,-0.0575 C 186.3205,209.91091 168.4,200.07202 147.5,188.07832 Z m 210.42308,197.9986 c -3.31464,-3.31463 -3.62361,-4.59412 -1.32263,-5.47709 l 1.60044,-0.61415 1.97214,2.50716 1.97213,2.50716 h 2.35599 2.35599 l 1.57143,-1.57143 c 1.82683,-1.82683 1.98822,-3.78128 0.53625,-6.49431 L 367.92963,375 H 364.96482 362 v -1.78076 -1.78076 l 3,-1.13238 3,-1.13237 v -1.96442 -1.96442 l -1.48701,-1.23411 -1.48702,-1.23411 -2.51298,0.63071 c -1.38215,0.3469 -2.51988,0.95965 -2.5283,1.36167 -0.008,0.40202 -0.3819,1.30869 -0.82995,2.01482 l -0.81464,1.28387 -1.67005,-0.64086 c -2.26334,-0.86852 -2.11233,-1.74781 0.91884,-5.35015 L 360.17779,359 h 3.45656 3.45656 l 2.45454,2.45455 2.45455,2.45454 v 2.35433 c 0,1.29487 -0.59789,3.17198 -1.32864,4.17135 l -1.32865,1.81703 2.32865,2.32865 2.32864,2.32864 v 3.12238 3.12238 l -2.92308,2.92307 L 368.15385,389 H 364.5 360.84615 Z M 288.5,375.13944 c -4.17547,-2.57917 -6.46304,-5.37023 -8.05119,-9.82324 l -1.36102,-3.8162 -0.0219,-5.5 -0.0219,-5.5 1.84612,-4 c 3.2222,-6.98155 8.59275,-10.5 16.02718,-10.5 h 3.78701 l 3.34382,2.2534 3.34382,2.2534 1.95366,3.34513 1.95366,3.34513 -1.39959,0.88616 c -2.4325,1.54014 -3.64567,1.01234 -5.70822,-2.48343 l -2.00617,-3.4002 -3.0926,-0.67925 -3.09261,-0.67925 -2.97297,0.65297 -2.97297,0.65298 -2.46647,2.93123 -2.46647,2.93124 -0.66204,4.41483 -0.66205,4.41482 0.70659,4.18228 0.70659,4.18228 2.6449,2.95988 2.64489,2.95989 4,0.47743 4,0.47742 2.47883,-1.30815 2.47883,-1.30815 2.02117,-3.48508 2.02117,-3.48508 2.25,0.32361 2.25,0.32361 v 1.09259 c 0,0.60093 -1.10965,2.98607 -2.4659,5.30033 l -2.46589,4.20773 -3.43523,1.63012 -3.43524,1.63013 -4.34887,-0.004 -4.34887,-0.004 z M 319,356.5 V 337 h 2.5 2.5 v 8 8 h 10.5 10.5 v -8 -8 h 2.5 2.5 v 19.5 19.5 h -2.5 -2.5 v -9 -9 H 334.5 324 v 9 9 H 321.5 319 Z M 103.84018,55.97818 C 99.200172,53.526932 96.309392,49.857329 94.892191,44.619453 L 93.777598,40.5 l 0.50167,-5.58785 0.50167,-5.587851 1.60848,-3.110456 c 0.884663,-1.710751 3.216413,-4.336888 5.181662,-5.835859 l 3.57319,-2.725403 5.25335,-0.435648 5.25334,-0.435648 3.92452,2.002948 c 4.9471,2.524838 7.25231,5.067329 8.97571,9.899571 L 129.91221,32.5 v 5 5 l -1.36102,3.816196 c -1.70453,4.779341 -4.02593,7.373354 -8.76135,9.790214 L 116.07968,58 111.78984,57.9558 107.5,57.9116 Z m 13.72398,-4.440541 3.49992,-1.46236 1.946,-4.28764 1.946,-4.287639 0.022,-4.03811 L 125,33.42378 122.75,28.96189 120.5,24.5 l -4.15549,-1.436604 -4.15549,-1.436604 -4.04428,1.211697 -4.04429,1.211698 -2.30022,3.224906 L 99.5,30.5 l 0.0096,7 0.0096,7 1.94276,2.883378 1.94275,2.883377 3.0476,1.327481 c 3.99761,1.741289 6.84351,1.726794 11.11176,-0.0566 z M 137,37.5 V 18 h 2.5 2.5 v 8 8 h 10.5 10.5 v -8 -8 h 2.5 2.5 V 37.5 57 H 165.5 163 V 48 39 H 152.5 142 v 9 9 h -2.5 -2.5 z"
         id="path9" />
      <path
         style="fill:#b9b9b9;fill-opacity:1"
         d="m 106.00051,481.87655 c -3.23409,-1.28961 -6.820073,-4.66449 -8.608235,-8.10147 l -1.417697,-2.72492 -0.598538,-5.77508 -0.598538,-5.77508 1.207349,-4.46375 1.207349,-4.46374 3.70331,-3.70331 3.70331,-3.70331 3.70059,-0.69424 3.70059,-0.69423 3.39855,0.63757 c 4.19019,0.78609 8.14247,3.79676 10.19517,7.76624 1.74049,3.36575 1.75858,3.30833 -1.34294,4.26168 l -2.24923,0.69137 -0.93766,-2.46623 c -0.51571,-1.35642 -1.96618,-3.18663 -3.22328,-4.06714 L 115.55499,447 h -3.64264 -3.64263 l -2.75604,2.1679 -2.75604,2.1679 -1.37882,3.29998 L 100,457.93576 v 4.56424 4.56424 l 1.36198,3.21788 c 0.7491,1.76983 2.30583,4.0586 3.45942,5.08614 l 2.09744,1.86827 4.33662,0.4888 4.33662,0.4888 3.09481,-2.60412 3.09481,-2.60411 0.59412,-2.36715 0.59412,-2.36715 2.51503,0.48078 c 3.0269,0.57862 3.0254,0.56189 0.51494,5.7478 l -2.00009,4.13164 -3.88606,2.18409 -3.88607,2.18409 -3.86384,-0.0634 c -2.12512,-0.0349 -4.98862,-0.51189 -6.36334,-1.06006 z M 134,462.5 V 443 h 2.5 2.5 V 462.5 482 H 136.5 134 Z M 109.60699,436.41821 C 109.27314,435.54823 109,417.42298 109,396.13989 V 357.44335 L 65.75,333.05721 C 41.9625,319.64483 21.2625,307.81443 19.75,306.76744 L 17,304.86381 V 251.93191 199 l 1.753579,-1.75 c 0.964469,-0.9625 21.664469,-13.4276 46,-27.70022 L 109,143.59957 v -37.718 C 109,67.512745 109.15952,65 111.59538,65 h 1.38141 l 0.2616,39.13752 0.26161,39.13752 45.5,26.72494 45.5,26.72494 0.5,53.28033 0.5,53.28033 33.5,18.71308 33.5,18.71307 0.32332,1.64414 0.32333,1.64413 h -1.56603 c -0.86131,0 -16.51028,-8.347 -34.77549,-18.5489 l -33.20946,-18.54889 -4.54783,2.48631 C 196.54653,310.756 176.275,322.18722 154,334.79123 l -40.5,22.91639 -0.26134,40.14619 L 112.97731,438 h -1.38167 c -0.75991,0 -1.65481,-0.7118 -1.98865,-1.58179 z M 156.83206,328.53309 201,303.56618 v -52.08287 -52.08288 l -44.17217,-25.95021 c -24.2947,-14.27262 -44.46499,-26.07365 -44.82287,-26.22451 -0.35789,-0.15086 -20.867907,11.59942 -45.577829,26.11174 L 21.5,199.72347 v 51.78789 51.7879 L 66,328.5782 c 24.475,13.90342 44.98693,25.19858 45.58206,25.10037 0.59513,-0.0982 20.95763,-11.41368 45.25,-25.14548 z m -47.65538,7.83111 0.32332,-1.6358 38,-21.80672 c 20.9,-11.9937 38.8205,-21.83259 39.82332,-21.8642 l 1.82333,-0.0575 -0.32333,1.6358 -0.32332,1.6358 -38,21.80672 c -20.9,11.9937 -38.8205,21.83259 -39.82332,21.8642 L 108.85335,338 Z M 35.666667,296.33333 35,295.66667 V 252.41512 C 35,208.48911 35.139805,206 37.606989,206 H 39 v 45.5 45.5 h -1.333333 c -0.733334,0 -1.633334,-0.3 -2,-0.66667 z M 147.5,188.07832 l -38,-21.80672 -0.32332,-1.6358 -0.32333,-1.6358 1.82333,0.0575 C 111.6795,163.0891 129.6,172.928 150.5,184.9217 l 38,21.80672 0.32332,1.6358 0.32333,1.6358 -1.82333,-0.0575 C 186.3205,209.91091 168.4,200.07202 147.5,188.07832 Z m 210.42308,197.9986 c -3.36028,-3.36027 -3.62619,-4.59313 -1.19216,-5.52716 l 1.73093,-0.66422 0.35836,1.07509 c 0.1971,0.5913 1.02533,1.74205 1.8405,2.55723 L 362.14286,385 h 2.35714 2.35714 l 1.57143,-1.57143 L 370,381.85714 v -2.30612 -2.30613 l -1.50308,-1.24745 c -0.82669,-0.68609 -2.62669,-1.24744 -4,-1.24744 -3.53886,0 -3.05266,-2.11196 1.00308,-4.35718 1.1,-0.60895 2.14966,-1.86807 2.33258,-2.79804 l 0.33257,-1.69086 -1.20502,-1.45196 c -2.17061,-2.61542 -6.90755,-1.10971 -8.13992,2.58741 l -0.35836,1.07509 -1.73093,-0.66422 c -2.43403,-0.93403 -2.16812,-2.16689 1.19216,-5.52716 L 360.84615,359 h 3.12238 3.12238 l 2.45454,2.45455 2.45455,2.45454 v 2.5065 2.5065 l -2.18856,2.03895 L 367.62288,373 h 1.18856 c 0.65371,0 2.08856,0.9 3.18856,2 l 2,2 v 3.07692 3.07693 l -2.92308,2.92307 L 368.15385,389 H 364.5 360.84615 Z m -67.92257,-10.20037 c -3.23409,-1.28961 -6.82007,-4.66449 -8.60823,-8.10147 l -1.4177,-2.72492 -0.59854,-5.77508 -0.59854,-5.77508 1.20735,-4.46375 1.20735,-4.46374 3.70331,-3.70331 3.70331,-3.70331 3.70059,-0.69424 3.70059,-0.69423 3.39855,0.63757 c 4.19019,0.78609 8.14247,3.79676 10.19517,7.76624 1.74049,3.36575 1.75858,3.30833 -1.34294,4.26168 l -2.24923,0.69137 -0.93766,-2.46623 c -0.51571,-1.35642 -1.96618,-3.18663 -3.22328,-4.06714 L 299.55499,341 h -3.64264 -3.64263 l -2.75604,2.1679 -2.75604,2.1679 -1.37882,3.29998 L 284,351.93576 v 4.56424 4.56424 l 1.36198,3.21788 c 0.7491,1.76983 2.30583,4.0586 3.45942,5.08614 l 2.09744,1.86827 4.33662,0.4888 4.33662,0.4888 3.09481,-2.60412 3.09481,-2.60411 0.59412,-2.36715 0.59412,-2.36715 2.51503,0.48078 c 3.0269,0.57862 3.0254,0.56189 0.51494,5.7478 l -2.00009,4.13164 -3.88606,2.18409 -3.88607,2.18409 -3.86384,-0.0634 c -2.12512,-0.0349 -4.98862,-0.51189 -6.36334,-1.06006 z M 319,356.5 V 337 h 2.5 2.5 v 8 8 h 10.5 10.5 v -8 -8 h 2.5 2.5 v 19.5 19.5 h -2.5 -2.5 v -9 -9 H 334.5 324 v 9 9 H 321.5 319 Z M 104.40107,56.094566 100.30214,54.233055 98.289875,51.366528 C 97.18313,49.789937 95.708877,46.747737 95.013756,44.606082 L 93.749902,40.712165 94.309099,35.29406 94.868297,29.875955 96.771135,26.187977 98.673974,22.5 101.94874,20.274348 c 1.80112,-1.224109 4.79948,-2.511689 6.66301,-2.861291 L 112,16.777418 l 3.38825,0.635639 c 1.86353,0.349602 4.86189,1.637182 6.66301,2.861291 l 3.27477,2.225652 1.90283,3.687977 1.90284,3.687978 0.5592,5.418105 0.5592,5.418105 -1.26386,3.893917 c -0.69512,2.141655 -2.16937,5.183855 -3.27611,6.760446 l -2.01227,2.866527 -4.09893,1.861511 -4.09893,1.86151 h -3.5 -3.5 z m 14.40911,-5.120201 3.31017,-2.018158 1.43983,-3.445985 L 125,42.064237 v -4.630989 -4.63099 L 123.33004,29.283069 121.66007,25.76388 118.58004,23.885678 115.5,22.007476 h -3.5 -3.5 l -3.31018,2.018159 -3.31017,2.018158 -1.43983,3.445985 L 99,32.935763 V 37.5 42.064237 l 1.43982,3.445985 1.43983,3.445985 3.31017,2.018158 3.31018,2.018159 h 3.5 3.5 z M 137,37.5 V 18 h 2.5 2.5 v 8 8 h 10.5 10.5 v -8 -8 h 2.5 2.5 V 37.5 57 H 165.5 163 V 48 39 H 152.5 142 v 9 9 h -2.5 -2.5 z"
         id="path8" />
      <path
         style="fill:#a3a3a3;fill-opacity:1"
         d="m 106,481.93363 c -1.375,-0.57657 -3.74808,-2.24184 -5.27351,-3.70058 l -2.773506,-2.65228 -1.476492,-4.97188 c -1.898765,-6.39384 -1.86734,-11.10554 0.112831,-16.91702 l 1.589322,-4.6644 2.955745,-2.4871 c 1.62566,-1.3679 4.69206,-3.0073 6.81421,-3.64312 l 3.85848,-1.15602 3.56702,0.66917 3.56703,0.66918 2.93485,2.46952 2.93486,2.46952 1.00965,2.89627 1.00964,2.89627 -2.16506,0.5689 -2.16507,0.56891 -0.41346,-1.21487 c -0.22741,-0.66818 -1.65529,-2.4567 -3.17308,-3.97448 L 116.15385,447 h -3.52987 c -4.57682,0 -8.19214,1.69198 -10.21631,4.78126 l -1.62038,2.47301 -0.53195,5.86645 -0.531954,5.86645 1.638784,4.29109 1.63878,4.29108 2.90382,1.71533 2.90381,1.71533 h 3.51899 3.51898 l 3.02328,-2.54392 c 1.6628,-1.39916 3.31098,-3.45039 3.66261,-4.5583 l 0.63934,-2.01437 2.16411,0.30829 2.16411,0.3083 -0.30694,2 c -0.39959,2.60366 -3.14869,6.37773 -6.43036,8.82785 l -2.61372,1.95142 -4.82449,0.35134 -4.82449,0.35134 z M 134,462.5 V 443 h 2.5 2.5 V 462.5 482 H 136.5 134 Z M 109.60699,436.41821 C 109.27314,435.54823 109,417.42298 109,396.13989 V 357.44335 L 65.75,333.05721 C 41.9625,319.64483 21.2625,307.81443 19.75,306.76744 L 17,304.86381 V 251.93191 199 l 1.753579,-1.75 c 0.964469,-0.9625 21.664469,-13.4276 46,-27.70022 L 109,143.59957 v -37.718 C 109,67.512745 109.15952,65 111.59538,65 h 1.38141 l 0.2616,39.13752 0.26161,39.13752 45.5,26.72494 45.5,26.72494 0.5,53.28033 0.5,53.28033 33.5,18.71308 33.5,18.71307 0.32332,1.64414 0.32333,1.64413 h -1.56603 c -0.86131,0 -16.51028,-8.347 -34.77549,-18.5489 l -33.20946,-18.54889 -4.54783,2.48631 C 196.54653,310.756 176.275,322.18722 154,334.79123 l -40.5,22.91639 -0.26134,40.14619 L 112.97731,438 h -1.38167 c -0.75991,0 -1.65481,-0.7118 -1.98865,-1.58179 z M 156.83206,328.53309 201,303.56618 v -52.08287 -52.08288 l -44.17217,-25.95021 c -24.2947,-14.27262 -44.46499,-26.07365 -44.82287,-26.22451 -0.35789,-0.15086 -20.867907,11.59942 -45.577829,26.11174 L 21.5,199.72347 v 51.78789 51.7879 L 66,328.5782 c 24.475,13.90342 44.98693,25.19858 45.58206,25.10037 0.59513,-0.0982 20.95763,-11.41368 45.25,-25.14548 z m -47.65538,7.83111 0.32332,-1.6358 38,-21.80672 c 20.9,-11.9937 38.8205,-21.83259 39.82332,-21.8642 l 1.82333,-0.0575 -0.32333,1.6358 -0.32332,1.6358 -38,21.80672 c -20.9,11.9937 -38.8205,21.83259 -39.82332,21.8642 L 108.85335,338 Z M 35.666667,296.33333 35,295.66667 V 252.41512 C 35,208.48911 35.139805,206 37.606989,206 H 39 v 45.5 45.5 h -1.333333 c -0.733334,0 -1.633334,-0.3 -2,-0.66667 z M 147.5,188.07832 l -38,-21.80672 -0.32332,-1.6358 -0.32333,-1.6358 1.82333,0.0575 C 111.6795,163.0891 129.6,172.928 150.5,184.9217 l 38,21.80672 0.32332,1.6358 0.32333,1.6358 -1.82333,-0.0575 C 186.3205,209.91091 168.4,200.07202 147.5,188.07832 Z m 210.42308,197.9986 c -3.4068,-3.4068 -3.64709,-4.65432 -1.02839,-5.33913 l 1.89469,-0.49547 1.08387,2.37884 1.08387,2.37884 h 2.95001 2.95001 l 1.57143,-1.57143 L 370,381.85714 v -2.30612 -2.30613 l -1.50308,-1.24745 c -0.82669,-0.68609 -2.56985,-1.24744 -3.87369,-1.24744 h -2.37061 l 0.43524,-1.66437 c 0.23938,-0.91541 1.41742,-2.09666 2.61785,-2.625 l 2.18261,-0.96063 0.33841,-1.79804 0.33842,-1.79804 -1.20502,-1.45196 L 365.75511,363 h -2.39899 -2.399 l -1.08387,2.37884 -1.08387,2.37884 -1.89469,-0.49547 c -2.63876,-0.69005 -2.37642,-1.93432 1.1517,-5.46245 l 3.04639,-3.04639 3.70361,0.5929 3.70361,0.5929 1.75,2.1412 c 0.9625,1.17766 1.75,3.07484 1.75,4.21596 v 2.07477 l -2.08551,2.21992 -2.08551,2.21992 2.08657,0.66226 c 1.14762,0.36424 2.57729,1.57916 3.17705,2.69982 l 1.09047,2.03757 -0.64579,3.4424 -0.6458,3.4424 -3.19574,1.94857 -3.19574,1.94856 -2.82692,0.004 -2.82693,0.004 z M 290,375.93363 c -1.375,-0.57657 -3.74808,-2.24184 -5.27351,-3.70058 l -2.77351,-2.65228 -1.47649,-4.97188 c -1.89876,-6.39384 -1.86734,-11.10554 0.11283,-16.91702 l 1.58933,-4.6644 2.95574,-2.4871 c 1.62566,-1.3679 4.69206,-3.0073 6.81421,-3.64312 l 3.85848,-1.15602 3.56702,0.66917 3.56703,0.66918 2.93485,2.46952 2.93486,2.46952 1.00965,2.89627 1.00964,2.89627 -2.16506,0.5689 -2.16507,0.56891 -0.41346,-1.21487 c -0.22741,-0.66818 -1.65529,-2.4567 -3.17308,-3.97448 L 300.15385,341 h -3.52987 c -4.57682,0 -8.19214,1.69198 -10.21631,4.78126 l -1.62038,2.47301 -0.53195,5.86645 -0.53195,5.86645 1.63878,4.29109 1.63878,4.29108 2.90382,1.71533 2.90381,1.71533 h 3.51899 3.51898 l 3.02328,-2.54392 c 1.6628,-1.39916 3.31098,-3.45039 3.66261,-4.5583 l 0.63934,-2.01437 2.16411,0.30829 2.16411,0.3083 -0.30694,2 c -0.39959,2.60366 -3.14869,6.37773 -6.43036,8.82785 l -2.61372,1.95142 -4.82449,0.35134 -4.82449,0.35134 z M 319,356.5 V 337 h 2.5 2.5 v 8 8 h 10.5 10.5 v -8 -8 h 2.5 2.5 v 19.5 19.5 h -2.5 -2.5 v -9 -9 H 334.5 324 v 9 9 H 321.5 319 Z M 104.22312,55.881408 99.946232,53.764392 97.223116,49.132196 94.5,44.5 l 4.07e-4,-7 4.06e-4,-7 L 97.000407,26 99.5,21.5 l 4.5,-2.315374 4.5,-2.315373 4.62502,0.406572 4.62502,0.406572 3.65607,2.259573 3.65606,2.259573 2.18922,4.149229 2.18921,4.149228 0.0293,7 0.0293,7 -2.4996,4.5 -2.49959,4.5 -4.46189,2.25 -4.46189,2.25 -3.53811,-7.89e-4 -3.53811,-7.88e-4 z m 14.58706,-4.907043 3.31017,-2.018158 1.43983,-3.445985 L 125,42.064237 V 37.5 32.935763 l -1.43982,-3.445985 -1.43983,-3.445985 -3.31017,-2.018158 L 115.5,22.007476 h -3.5 -3.5 l -3.31018,2.018159 -3.31017,2.018158 -1.43983,3.445985 L 99,32.935763 V 37.5 42.064237 l 1.43982,3.445985 1.43983,3.445985 3.31017,2.018158 3.31018,2.018159 h 3.5 3.5 z M 137,37.5 V 18 h 2.5 2.5 v 8 8 h 10.5 10.5 v -8 -8 h 2.5 2.5 V 37.5 57 H 165.5 163 V 48 39 H 152.5 142 v 9 9 h -2.5 -2.5 z"
         id="path7" />
      <path
         style="fill:#8c8c8c;fill-opacity:1"
         d="m 107.20904,482.0585 c -6.05707,-1.51411 -10.351263,-7.47358 -11.609348,-16.1114 l -0.663123,-4.55289 1.119204,-5.21867 1.119204,-5.21867 3.186953,-3.37915 3.18696,-3.37916 4.24037,-1.14181 4.24037,-1.14182 3.73519,0.68992 3.73518,0.68991 3.11439,3.28003 c 1.71291,1.80402 3.34722,4.1704 3.6318,5.25864 l 0.51742,1.97861 -2.35977,0.45109 -2.35976,0.4511 -0.58115,-1.83103 c -0.31963,-1.00707 -1.74023,-2.74277 -3.1569,-3.85711 L 115.73028,447 h -3.4148 -3.4148 l -2.81549,1.45595 -2.8155,1.45595 -1.63485,3.44518 L 100,456.80226 v 5.69774 5.69774 l 1.63484,3.44518 1.63485,3.44518 2.8155,1.45595 2.81549,1.45595 h 3.47293 3.47294 l 3.02328,-2.54392 c 1.6628,-1.39916 3.30265,-3.42416 3.64411,-4.5 L 123.13478,469 H 125.06739 127 l -0.004,1.75 c -0.011,5.16565 -6.12138,10.85733 -12.49626,11.64004 l -4,0.49112 z M 134,462.5 V 443 h 2.5 2.5 V 462.5 482 H 136.5 134 Z M 109.60699,436.41821 C 109.27314,435.54823 109,417.42298 109,396.13989 V 357.44335 L 65.75,333.05721 C 41.9625,319.64483 21.2625,307.81443 19.75,306.76744 L 17,304.86381 V 251.93191 199 l 1.753579,-1.75 c 0.964469,-0.9625 21.664469,-13.4276 46,-27.70022 L 109,143.59957 v -37.718 C 109,67.512745 109.15952,65 111.59538,65 h 1.38141 l 0.2616,39.13752 0.26161,39.13752 45.5,26.72494 45.5,26.72494 0.5,53.28033 0.5,53.28033 33.5,18.71308 33.5,18.71307 0.32332,1.64414 0.32333,1.64413 h -1.56603 c -0.86131,0 -16.51028,-8.347 -34.77549,-18.5489 l -33.20946,-18.54889 -4.54783,2.48631 C 196.54653,310.756 176.275,322.18722 154,334.79123 l -40.5,22.91639 -0.26134,40.14619 L 112.97731,438 h -1.38167 c -0.75991,0 -1.65481,-0.7118 -1.98865,-1.58179 z M 156.83206,328.53309 201,303.56618 v -52.08287 -52.08288 l -44.17217,-25.95021 c -24.2947,-14.27262 -44.46499,-26.07365 -44.82287,-26.22451 -0.35789,-0.15086 -20.867907,11.59942 -45.577829,26.11174 L 21.5,199.72347 v 51.78789 51.7879 L 66,328.5782 c 24.475,13.90342 44.98693,25.19858 45.58206,25.10037 0.59513,-0.0982 20.95763,-11.41368 45.25,-25.14548 z m -47.65538,7.83111 0.32332,-1.6358 38,-21.80672 c 20.9,-11.9937 38.8205,-21.83259 39.82332,-21.8642 l 1.82333,-0.0575 -0.32333,1.6358 -0.32332,1.6358 -38,21.80672 c -20.9,11.9937 -38.8205,21.83259 -39.82332,21.8642 L 108.85335,338 Z M 35.666667,296.33333 35,295.66667 V 252.41512 C 35,208.48911 35.139805,206 37.606989,206 H 39 v 45.5 45.5 h -1.333333 c -0.733334,0 -1.633334,-0.3 -2,-0.66667 z M 147.5,188.07832 l -38,-21.80672 -0.32332,-1.6358 -0.32333,-1.6358 1.82333,0.0575 C 111.6795,163.0891 129.6,172.928 150.5,184.9217 l 38,21.80672 0.32332,1.6358 0.32333,1.6358 -1.82333,-0.0575 C 186.3205,209.91091 168.4,200.07202 147.5,188.07832 Z m 212.51971,199.63723 c -1.36416,-0.69023 -3.03647,-2.37054 -3.71624,-3.73402 l -1.23594,-2.47905 1.71624,-0.6207 1.71623,-0.62069 1.28194,2.36945 1.28193,2.36946 h 3.34562 3.34562 l 1.1947,-1.43953 1.19471,-1.43953 -0.32226,-2.81047 L 369.5,376.5 366.27164,375 c -3.80732,-1.769 -4.12069,-3.15325 -1.02164,-4.51287 l 2.25,-0.98713 0.29826,-2.08751 0.29825,-2.0875 -1.49321,-1.23926 -1.49322,-1.23926 -2.28001,0.32677 -2.28001,0.32676 -1.02503,2.02248 -1.02503,2.02248 -1.69457,-0.33513 -1.69458,-0.33513 0.59658,-1.68735 c 0.99255,-2.80735 3.2963,-4.97147 6.01991,-5.65505 l 2.58014,-0.64758 2.76047,1.14343 2.76048,1.14342 1.23107,2.97207 1.23107,2.97207 -2.0441,2.76479 -2.0441,2.76479 1.93418,1.20791 c 1.06379,0.66435 2.43125,2.29889 3.0388,3.6323 l 1.10462,2.42438 -1.31226,3.16807 -1.31225,3.16806 -3.29561,1.377 c -4.0306,1.68409 -5.16966,1.69673 -8.34014,0.0925 z M 291.20904,376.0585 c -6.05707,-1.51411 -10.35126,-7.47358 -11.60935,-16.1114 l -0.66312,-4.55289 1.1192,-5.21867 1.11921,-5.21867 3.18695,-3.37915 3.18696,-3.37916 4.24037,-1.14181 4.24037,-1.14182 3.73519,0.68992 3.73518,0.68991 3.11439,3.28003 c 1.71291,1.80402 3.34722,4.1704 3.6318,5.25864 l 0.51742,1.97861 -2.35977,0.45109 -2.35976,0.4511 -0.58115,-1.83103 c -0.31963,-1.00707 -1.74023,-2.74277 -3.1569,-3.85711 L 299.73028,341 h -3.4148 -3.4148 l -2.81549,1.45595 -2.8155,1.45595 -1.63485,3.44518 L 284,350.80226 v 5.69774 5.69774 l 1.63484,3.44518 1.63485,3.44518 2.8155,1.45595 2.81549,1.45595 h 3.47293 3.47294 l 3.02328,-2.54392 c 1.6628,-1.39916 3.30265,-3.42416 3.64411,-4.5 L 307.13478,363 H 309.06739 311 l -0.004,1.75 c -0.011,5.16565 -6.12138,10.85733 -12.49626,11.64004 l -4,0.49112 z M 319,356.5 V 337 h 2.5 2.5 v 8 8 h 10.5 10.5 v -8 -8 h 2.5 2.5 v 19.5 19.5 h -2.5 -2.5 v -9 -9 H 334.5 324 v 9 9 H 321.5 319 Z M 106.91357,57.09556 c -4.48585,-1.448386 -7.458066,-3.941033 -9.94052,-8.336626 L 94.567776,44.5 l 0.05331,-7.074171 0.05331,-7.074171 2.374716,-4.225237 2.374716,-4.225237 3.533672,-2.183925 3.53366,-2.183926 h 5.50885 5.50885 l 3.53366,2.183926 3.53367,2.183925 2.42648,4.299408 2.42647,4.299408 v 7 7 l -2.42647,4.299408 -2.42648,4.299408 -3.15829,1.951932 -3.15829,1.951931 -4.3798,0.463991 -4.3798,0.463991 z m 12.47155,-6.183856 c 1.46016,-1.148563 3.32085,-3.376216 4.13486,-4.95034 L 125,43.09932 v -5.081779 -5.081778 l -1.36198,-3.217882 c -0.7491,-1.769834 -2.31954,-4.071 -3.48987,-5.1137 l -2.12789,-1.895819 -4.76013,-0.396438 -4.76013,-0.396437 -2.46998,1.306825 c -1.3585,0.718754 -3.496,2.829317 -4.75,4.69014 L 99,31.295766 v 5.901777 5.901777 l 1.48002,2.862044 c 0.81401,1.574124 2.6747,3.801777 4.13486,4.95034 L 107.26972,53 H 112 116.73028 Z M 137,37.5 V 18 h 2.5 2.5 v 8 8 h 10.5 10.5 v -8 -8 h 2.5 2.5 V 37.5 57 H 165.5 163 V 48 39 H 152.5 142 v 9 9 h -2.5 -2.5 z"
         id="path6" />
      <path
         style="fill:#767676;fill-opacity:1"
         d="m 107.20904,482.0585 c -5.96396,-1.49084 -9.359251,-5.99763 -11.285663,-14.98018 l -1.076944,-5.02162 1.148738,-5.53344 1.148739,-5.53344 3.20249,-3.39563 3.20249,-3.39563 4.24037,-1.14181 4.24037,-1.14182 3.58115,0.67183 3.58114,0.67183 3.25791,3.25791 c 1.79185,1.79185 3.49548,4.16638 3.78585,5.27672 l 0.52793,2.01882 -2.35977,0.45109 -2.35976,0.4511 -0.58115,-1.83103 c -0.31963,-1.00707 -1.74023,-2.74277 -3.1569,-3.85711 L 115.73028,447 h -4.14263 -4.14264 l -2.32814,1.63069 -2.32814,1.6307 -1.39436,3.33718 L 100,456.93576 v 5.56424 5.56424 l 1.42122,3.40146 1.42122,3.40146 3.02912,1.56642 L 108.90068,478 H 112 c 1.70463,0 4.36359,-0.65378 5.90881,-1.45284 l 2.80948,-1.45284 1.26218,-3.04716 L 123.24264,469 H 125.12132 127 l -0.004,1.75 c -0.011,5.16565 -6.12138,10.85733 -12.49626,11.64004 l -4,0.49112 z M 134,462.5 V 443 h 2.5 2.5 V 462.5 482 H 136.5 134 Z M 109.60699,436.41821 C 109.27314,435.54823 109,417.42298 109,396.13989 V 357.44335 L 65.75,333.05721 C 41.9625,319.64483 21.2625,307.81443 19.75,306.76744 L 17,304.86381 V 251.93191 199 l 1.753579,-1.75 c 0.964469,-0.9625 21.664469,-13.4276 46,-27.70022 L 109,143.59957 v -37.718 C 109,67.512745 109.15952,65 111.59538,65 h 1.38141 l 0.2616,39.13752 0.26161,39.13752 45.5,26.72494 45.5,26.72494 0.5,53.28033 0.5,53.28033 33.5,18.71308 33.5,18.71307 0.32332,1.64414 0.32333,1.64413 h -1.56603 c -0.86131,0 -16.51028,-8.347 -34.77549,-18.5489 l -33.20946,-18.54889 -4.54783,2.48631 C 196.54653,310.756 176.275,322.18722 154,334.79123 l -40.5,22.91639 -0.26134,40.14619 L 112.97731,438 h -1.38167 c -0.75991,0 -1.65481,-0.7118 -1.98865,-1.58179 z M 156.83206,328.53309 201,303.56618 v -52.08287 -52.08288 l -44.17217,-25.95021 c -24.2947,-14.27262 -44.46499,-26.07365 -44.82287,-26.22451 -0.35789,-0.15086 -20.867907,11.59942 -45.577829,26.11174 L 21.5,199.72347 v 51.78789 51.7879 L 66,328.5782 c 24.475,13.90342 44.98693,25.19858 45.58206,25.10037 0.59513,-0.0982 20.95763,-11.41368 45.25,-25.14548 z m -47.65538,7.83111 0.32332,-1.6358 38,-21.80672 c 20.9,-11.9937 38.8205,-21.83259 39.82332,-21.8642 l 1.82333,-0.0575 -0.32333,1.6358 -0.32332,1.6358 -38,21.80672 c -20.9,11.9937 -38.8205,21.83259 -39.82332,21.8642 L 108.85335,338 Z M 35.666667,296.33333 35,295.66667 V 252.41512 C 35,208.48911 35.139805,206 37.606989,206 H 39 v 45.5 45.5 h -1.333333 c -0.733334,0 -1.633334,-0.3 -2,-0.66667 z M 147.5,188.07832 l -38,-21.80672 -0.32332,-1.6358 -0.32333,-1.6358 1.82333,0.0575 C 111.6795,163.0891 129.6,172.928 150.5,184.9217 l 38,21.80672 0.32332,1.6358 0.32333,1.6358 -1.82333,-0.0575 C 186.3205,209.91091 168.4,200.07202 147.5,188.07832 Z m 212.51971,199.63723 c -1.36416,-0.69023 -3.03647,-2.37054 -3.71624,-3.73402 l -1.23594,-2.47905 1.71624,-0.6207 1.71623,-0.62069 1.28194,2.36945 1.28193,2.36946 h 3.34562 3.34562 l 1.1947,-1.43953 1.19471,-1.43953 -0.32226,-2.81047 L 369.5,376.5 l -3.22836,-1.5 -3.22836,-1.5 -0.0216,-1.14159 -0.0216,-1.14159 2.5608,-0.64272 2.5608,-0.64272 -0.3108,-3.21569 L 367.5,363.5 h -3.47047 -3.47046 l -1.0447,2.09546 -1.0447,2.09546 -1.70107,-0.5967 -1.70107,-0.5967 1.2455,-2.49876 1.2455,-2.49876 2.6721,-1.28126 2.67211,-1.28126 2.56444,0.64364 2.56445,0.64364 1.98419,2.52248 c 2.48638,3.16092 2.48529,4.34599 -0.007,7.51433 l -1.9911,2.53128 1.43284,0.54983 c 0.78806,0.30241 2.1746,1.68191 3.0812,3.06556 l 1.64837,2.51572 -1.19959,3.6348 -1.19959,3.63479 -3.35839,1.40322 c -4.09565,1.71128 -5.22402,1.72723 -8.40292,0.11878 z M 291.20904,376.0585 c -5.96396,-1.49084 -9.35925,-5.99763 -11.28566,-14.98018 l -1.07695,-5.02162 1.14874,-5.53344 1.14874,-5.53344 3.20249,-3.39563 3.20249,-3.39563 4.24037,-1.14181 4.24037,-1.14182 3.58115,0.67183 3.58114,0.67183 3.25791,3.25791 c 1.79185,1.79185 3.49548,4.16638 3.78585,5.27672 l 0.52793,2.01882 -2.35977,0.45109 -2.35976,0.4511 -0.58115,-1.83103 c -0.31963,-1.00707 -1.74023,-2.74277 -3.1569,-3.85711 L 299.73028,341 h -4.14263 -4.14264 l -2.32814,1.63069 -2.32814,1.6307 -1.39436,3.33718 L 284,350.93576 v 5.56424 5.56424 l 1.42122,3.40146 1.42122,3.40146 3.02912,1.56642 L 292.90068,372 H 296 c 1.70463,0 4.36359,-0.65378 5.90881,-1.45284 l 2.80948,-1.45284 1.26218,-3.04716 L 307.24264,363 H 309.12132 311 l -0.004,1.75 c -0.011,5.16565 -6.12138,10.85733 -12.49626,11.64004 l -4,0.49112 z M 319,356.5 V 337 h 2.5 2.5 v 8 8 h 10.5 10.5 v -8 -8 h 2.5 2.5 v 19.5 19.5 h -2.5 -2.5 v -9 -9 H 334.5 324 v 9 9 H 321.5 319 Z M 107.01873,56.976638 l -3.48127,-0.818639 -3.621951,-3.882922 -3.621951,-3.882922 -1.231057,-5.131623 -1.231058,-5.131624 1.185812,-5.712026 1.185812,-5.712027 3.648467,-3.90544 3.648466,-3.905441 4.25,-0.952025 4.25,-0.952024 4.25,0.952024 4.25,0.952025 3.63161,3.887372 3.63161,3.887373 1.14923,5.358631 1.14922,5.358632 -1.12211,5.405156 -1.12211,5.405157 -3.42052,3.786107 -3.42052,3.786107 -4.43102,1.115746 c -4.9153,1.237685 -4.66651,1.235273 -9.52666,0.09238 z m 12.36639,-6.064934 c 1.46016,-1.148563 3.32085,-3.376216 4.13486,-4.95034 L 125,43.09932 V 37.5 31.90068 l -1.48002,-2.862044 c -0.81401,-1.574124 -2.6747,-3.801777 -4.13486,-4.95034 L 116.73028,22 H 112 107.26972 l -2.65484,2.088296 c -1.46016,1.148563 -3.32085,3.376216 -4.13486,4.95034 L 99,31.90068 V 37.5 43.09932 l 1.48002,2.862044 c 0.81401,1.574124 2.6747,3.801777 4.13486,4.95034 L 107.26972,53 H 112 116.73028 Z M 137,37.5 V 18 h 2.5 2.5 v 8 8 h 10.5 10.5 v -8 -8 h 2.5 2.5 V 37.5 57 H 165.5 163 V 48 39 H 152.5 142 v 9 9 h -2.5 -2.5 z"
         id="path5" />
      <path
         style="fill:#606060;fill-opacity:1"
         d="m 106.6838,481.55119 c -5.1825,-1.84831 -7.292075,-3.96488 -9.392533,-9.42365 l -1.78061,-4.62754 0.06504,-6.06018 0.06504,-6.06018 2.429635,-4.3887 2.429638,-4.3887 3.42166,-1.99343 3.42166,-1.99343 4.57834,0.0165 4.57834,0.0165 3.23307,1.69276 3.23308,1.69276 1.51692,2.93342 c 0.8343,1.61332 1.51692,3.40571 1.51692,3.98302 V 454 l -1.75,-3e-5 -1.75,-3e-5 -2.79263,-3.49997 L 116.91474,447 h -4.73487 -4.73486 l -2.32814,1.63069 -2.32814,1.6307 -1.39436,3.33718 L 100,456.93576 v 5.56424 5.56424 l 1.39437,3.33719 1.39436,3.33718 2.32814,1.6307 2.32814,1.63069 h 4.31268 4.31268 l 2.36369,-1.54875 2.36368,-1.54875 1.24162,-2.99752 1.24161,-2.99752 1.59803,0.30775 1.59803,0.30776 0.272,1.48851 c 0.1496,0.81869 -0.64203,2.97718 -1.75918,4.79666 l -2.03117,3.30814 -4.22934,1.9199 c -4.98116,2.26118 -6.91731,2.34396 -12.04554,0.51501 z M 134,462.5 V 443 h 2.5 2.5 V 462.5 482 H 136.5 134 Z M 109.60699,436.41821 C 109.27314,435.54823 109,417.42298 109,396.13989 V 357.44335 L 65.75,333.05721 C 41.9625,319.64483 21.2625,307.81443 19.75,306.76744 L 17,304.86381 V 251.93191 199 l 1.753579,-1.75 c 0.964469,-0.9625 21.664469,-13.4276 46,-27.70022 L 109,143.59957 v -37.718 C 109,67.512745 109.15952,65 111.59538,65 h 1.38141 l 0.2616,39.13752 0.26161,39.13752 45.5,26.72494 45.5,26.72494 0.5,53.28033 0.5,53.28033 33.5,18.71308 33.5,18.71307 0.32332,1.64414 0.32333,1.64413 h -1.56603 c -0.86131,0 -16.51028,-8.347 -34.77549,-18.5489 l -33.20946,-18.54889 -4.54783,2.48631 C 196.54653,310.756 176.275,322.18722 154,334.79123 l -40.5,22.91639 -0.26134,40.14619 L 112.97731,438 h -1.38167 c -0.75991,0 -1.65481,-0.7118 -1.98865,-1.58179 z M 156.83206,328.53309 201,303.56618 v -52.08287 -52.08288 l -44.17217,-25.95021 c -24.2947,-14.27262 -44.46499,-26.07365 -44.82287,-26.22451 -0.35789,-0.15086 -20.867907,11.59942 -45.577829,26.11174 L 21.5,199.72347 v 51.78789 51.7879 L 66,328.5782 c 24.475,13.90342 44.98693,25.19858 45.58206,25.10037 0.59513,-0.0982 20.95763,-11.41368 45.25,-25.14548 z m -47.65538,7.83111 0.32332,-1.6358 38,-21.80672 c 20.9,-11.9937 38.8205,-21.83259 39.82332,-21.8642 l 1.82333,-0.0575 -0.32333,1.6358 -0.32332,1.6358 -38,21.80672 c -20.9,11.9937 -38.8205,21.83259 -39.82332,21.8642 L 108.85335,338 Z M 35.666667,296.33333 35,295.66667 V 252.41512 C 35,208.48911 35.139805,206 37.606989,206 H 39 v 45.5 45.5 h -1.333333 c -0.733334,0 -1.633334,-0.3 -2,-0.66667 z M 147.5,188.07832 l -38,-21.80672 -0.32332,-1.6358 -0.32333,-1.6358 1.82333,0.0575 C 111.6795,163.0891 129.6,172.928 150.5,184.9217 l 38,21.80672 0.32332,1.6358 0.32333,1.6358 -1.82333,-0.0575 C 186.3205,209.91091 168.4,200.07202 147.5,188.07832 Z M 360.08466,387.273 356.66932,385.5 355.86688,383.25 355.06445,381 h 1.72723 1.72723 l 1.24902,2 1.24902,2 h 3.29152 3.29153 l 1.2,-1.2 1.2,-1.2 v -2.64501 -2.64501 l -1.82874,-1.65499 C 367.16545,374.74474 365.59045,374 364.67126,374 H 363 v -1.39159 -1.39159 l 2.5608,-0.64272 2.5608,-0.64272 -0.3108,-3.21569 L 367.5,363.5 l -3.15394,-0.30619 -3.15393,-0.3062 -1.50399,2.14725 -1.504,2.14725 -1.59198,-0.34105 -1.59198,-0.34106 1.90476,-3.11771 1.90476,-3.11771 2.64378,-0.66355 2.64378,-0.66355 2.66504,1.28126 2.66505,1.28126 1.51579,2.70417 1.51579,2.70417 -2.00837,2.69 -2.00837,2.69 2.88099,2.881 2.881,2.881 -0.66339,2.72483 c -0.83185,3.41679 -4.27089,6.92229 -7.54079,7.68653 l -2.5,0.58429 z M 290.6838,375.55119 c -5.1825,-1.84831 -7.29207,-3.96488 -9.39253,-9.42365 l -1.78061,-4.62754 0.065,-6.06018 0.065,-6.06018 2.42964,-4.3887 2.42963,-4.3887 3.42166,-1.99343 3.42166,-1.99343 4.57834,0.0165 4.57834,0.0165 3.23307,1.69276 3.23308,1.69276 1.51692,2.93342 c 0.83438,1.61332 1.517,3.40571 1.517,3.98302 V 348 l -1.75,-3e-5 -1.75,-3e-5 -2.79263,-3.49997 L 300.91474,341 h -4.73487 -4.73486 l -2.32814,1.63069 -2.32814,1.6307 -1.39436,3.33718 L 284,350.93576 v 5.56424 5.56424 l 1.39437,3.33719 1.39436,3.33718 2.32814,1.6307 2.32814,1.63069 h 4.31268 4.31268 l 2.36369,-1.54875 2.36368,-1.54875 1.24162,-2.99752 1.24161,-2.99752 1.59803,0.30775 1.59803,0.30776 0.272,1.48851 c 0.1496,0.81869 -0.64203,2.97718 -1.75918,4.79666 l -2.03117,3.30814 -4.22934,1.9199 c -4.98116,2.26118 -6.91731,2.34396 -12.04554,0.51501 z M 319,356.5 V 337 h 2.5 2.5 v 8 8 h 10.5 10.5 v -8 -8 h 2.5 2.5 v 19.5 19.5 h -2.5 -2.5 v -9 -9 H 334.5 324 v 9 9 H 321.5 319 Z M 106.5,56.530486 l -4,-1.446995 -3.154397,-3.422739 -3.154396,-3.422739 -1.126437,-5.426016 -1.126436,-5.426015 1.13868,-5.309485 1.138681,-5.309484 3.403946,-3.767761 3.403949,-3.767761 4.53454,-1.141812 4.53455,-1.141812 4.16741,1.122167 4.1674,1.122166 3.65119,3.6539 3.6512,3.6539 1.16589,5.442991 1.1659,5.442991 -1.10381,5.317008 -1.10381,5.317008 -2.54614,3.025918 c -3.00305,3.568923 -6.5646,5.565061 -11.34247,6.357094 L 110.5,57.977482 Z m 14.20916,-6.902761 3.67979,-3.372275 0.42266,-6.637821 0.42267,-6.637821 -1.24685,-3.010152 c -0.68576,-1.655583 -2.573,-4.12604 -4.19386,-5.489904 L 116.84655,22 h -4.93796 -4.93796 L 103.23531,25.423161 99.5,28.846321 V 37.5 46.153679 l 3.73531,3.42316 L 106.97063,53 H 112 117.02937 Z M 137,37.5 V 18 h 2.5 2.5 v 8 8 h 10.5 10.5 v -8 -8 h 2.5 2.5 V 37.5 57 H 165.5 163 V 48 39 H 152.5 142 v 9 9 h -2.5 -2.5 z"
         id="path4" />
      <path
         style="fill:#494949;fill-opacity:1"
         d="m 106.74052,481.60332 c -5.06669,-1.85197 -6.26007,-2.97939 -8.877987,-8.38729 L 95.625,468.5939 V 462.5 456.4061 l 2.236607,-4.62022 2.236603,-4.62021 2.64233,-1.73132 c 1.45328,-0.95223 4.24369,-2.09698 6.2009,-2.54388 l 3.55856,-0.81256 3.65865,0.97499 3.65866,0.97499 3.09134,3.52085 C 124.60889,449.48521 126,451.72893 126,452.5348 V 454 h -2 c -1.1,0 -2,-0.38429 -2,-0.85398 0,-0.46968 -1.10351,-2.04468 -2.45225,-3.5 L 117.0955,447 h -4.82524 -4.82525 l -2.22822,1.5607 c -1.22551,0.85839 -2.90064,2.86104 -3.7225,4.45034 L 100,455.90068 v 6.59932 6.59932 l 1.49429,2.88964 c 0.82186,1.5893 2.49699,3.59195 3.7225,4.45034 L 107.44501,478 h 4.85442 4.85442 l 2.92307,-2.92308 L 123,472.15385 V 470.57692 469 h 1.53138 1.53139 l 0.56586,1.47462 0.56587,1.47461 -2.1938,3.54963 -2.19379,3.54963 -2.68801,1.39002 c -1.4784,0.76452 -4.24746,1.64854 -6.15346,1.9645 L 110.5,482.97748 Z M 134,462.5 V 443 h 2.5 2.5 V 462.5 482 H 136.5 134 Z M 109.60699,436.41821 C 109.27314,435.54823 109,417.42298 109,396.13989 V 357.44335 L 65.75,333.05721 C 41.9625,319.64483 21.2625,307.81443 19.75,306.76744 L 17,304.86381 V 251.93191 199 l 1.753579,-1.75 c 0.964469,-0.9625 21.664469,-13.4276 46,-27.70022 L 109,143.59957 v -37.718 C 109,67.512745 109.15952,65 111.59538,65 h 1.38141 l 0.2616,39.13752 0.26161,39.13752 45.5,26.72494 45.5,26.72494 0.5,53.28033 0.5,53.28033 33.5,18.71308 33.5,18.71307 0.32332,1.64414 0.32333,1.64413 h -1.56603 c -0.86131,0 -16.51028,-8.347 -34.77549,-18.5489 l -33.20946,-18.54889 -4.54783,2.48631 C 196.54653,310.756 176.275,322.18722 154,334.79123 l -40.5,22.91639 -0.26134,40.14619 L 112.97731,438 h -1.38167 c -0.75991,0 -1.65481,-0.7118 -1.98865,-1.58179 z M 156.83206,328.53309 201,303.56618 v -52.08287 -52.08288 l -44.17217,-25.95021 c -24.2947,-14.27262 -44.46499,-26.07365 -44.82287,-26.22451 -0.35789,-0.15086 -20.867907,11.59942 -45.577829,26.11174 L 21.5,199.72347 v 51.78789 51.7879 L 66,328.5782 c 24.475,13.90342 44.98693,25.19858 45.58206,25.10037 0.59513,-0.0982 20.95763,-11.41368 45.25,-25.14548 z m -47.65538,7.83111 0.32332,-1.6358 38,-21.80672 c 20.9,-11.9937 38.8205,-21.83259 39.82332,-21.8642 l 1.82333,-0.0575 -0.32333,1.6358 -0.32332,1.6358 -38,21.80672 c -20.9,11.9937 -38.8205,21.83259 -39.82332,21.8642 L 108.85335,338 Z M 35.666667,296.33333 35,295.66667 V 252.41512 C 35,208.48911 35.139805,206 37.606989,206 H 39 v 45.5 45.5 h -1.333333 c -0.733334,0 -1.633334,-0.3 -2,-0.66667 z M 147.5,188.07832 l -38,-21.80672 -0.32332,-1.6358 -0.32333,-1.6358 1.82333,0.0575 C 111.6795,163.0891 129.6,172.928 150.5,184.9217 l 38,21.80672 0.32332,1.6358 0.32333,1.6358 -1.82333,-0.0575 C 186.3205,209.91091 168.4,200.07202 147.5,188.07832 Z m 212.89966,199.51644 -3.10034,-1.37236 -0.64966,-1.69299 c -1.50137,-3.91251 0.89575,-5.08822 3.11827,-1.52941 l 1.24902,2 h 3.36908 3.36908 l 1.19068,-1.43468 1.19067,-1.43467 -0.31823,-3.31533 L 369.5,375.5 366.25,374.5432 363,373.58641 v -1.22366 -1.22365 l 2.25,-0.31955 2.25,-0.31955 v -3.5 -3.5 l -3.2041,-0.30993 -3.20409,-0.30994 -1.28645,2.05994 c -1.3005,2.08241 -3.80536,2.83395 -3.80536,1.14172 0,-2.26452 1.46179,-4.26923 4.11255,-5.63999 l 2.87019,-1.48424 2.43503,0.61116 c 1.33927,0.33613 3.19941,1.45577 4.13363,2.48808 l 1.6986,1.87693 v 2.62242 2.62242 l -1.62397,1.62397 -1.62397,1.62397 2.66564,2.12551 2.66563,2.1255 v 3.22185 3.22184 l -2.41666,2.3781 c -1.32917,1.30795 -3.54167,2.62328 -4.91667,2.92295 l -2.5,0.54485 z m -69.65914,-11.99144 c -5.06669,-1.85197 -6.26007,-2.97939 -8.87799,-8.38729 L 279.625,362.5939 V 356.5 350.4061 l 2.23661,-4.62022 2.2366,-4.62021 2.64233,-1.73132 c 1.45328,-0.95223 4.24369,-2.09698 6.2009,-2.54388 l 3.55856,-0.81256 3.65865,0.97499 3.65866,0.97499 3.09134,3.52085 C 308.60889,343.48521 310,345.72893 310,346.5348 V 348 h -2 c -1.1,0 -2,-0.38429 -2,-0.85398 0,-0.46968 -1.10351,-2.04468 -2.45225,-3.5 L 301.0955,341 h -4.82524 -4.82525 l -2.22822,1.5607 c -1.22551,0.85839 -2.90064,2.86104 -3.7225,4.45034 L 284,349.90068 v 6.59932 6.59932 l 1.49429,2.88964 c 0.82186,1.5893 2.49699,3.59195 3.7225,4.45034 L 291.44501,372 h 4.85442 4.85442 l 2.92307,-2.92308 L 307,366.15385 V 364.57692 363 h 1.53138 1.53139 l 0.56586,1.47462 0.56587,1.47461 -2.1938,3.54963 -2.19379,3.54963 -2.68801,1.39002 c -1.4784,0.76452 -4.24746,1.64854 -6.15346,1.9645 L 294.5,376.97748 Z M 319,356.5 V 337 h 2.5 2.5 v 8 8 h 10.5 10.5 v -8 -8 h 2.5 2.5 v 19.5 19.5 h -2.5 -2.5 v -9 -9 H 334.5 324 v 9 9 H 321.5 319 Z M 106.6838,56.583822 C 100.15017,54.197765 96.065108,48.884924 94.615958,40.888956 L 93.961511,37.277912 95.07608,32.080856 96.190649,26.8838 99.845324,23.045796 103.5,19.207793 l 4.25,-1.142441 4.25,-1.14244 4.25,1.14244 4.25,1.142441 3.67049,3.85463 3.67049,3.854631 1.11835,5.387056 1.11835,5.387057 -1.09422,4.882632 -1.09422,4.882633 -2.49631,3.272835 c -2.86001,3.749661 -6.45567,5.849559 -11.42749,6.673743 L 110.5,57.977482 Z m 12.23101,-5.039771 2.8155,-1.455949 1.63485,-3.44518 L 125,43.197742 V 37.5 31.802258 l -1.63484,-3.44518 -1.63485,-3.44518 -2.8155,-1.455949 L 116.09932,22 H 112 107.90068 l -3.02912,1.566418 -3.02912,1.566417 -1.42122,3.401464 L 99,31.935763 99.0066,38.217881 99.0132,44.5 l 1.93316,2.932574 c 1.06325,1.612916 2.97278,3.50947 4.24342,4.214565 l 2.31024,1.28199 4.29966,0.03544 L 116.09932,53 Z M 137,37.5 V 18 h 2.5 2.5 v 8 8 h 10.5 10.5 v -8 -8 h 2.5 2.5 V 37.5 57 H 165.5 163 V 48 39 H 152.5 142 v 9 9 h -2.5 -2.5 z"
         id="path3" />
      <path
         style="fill:#333333;fill-opacity:1"
         d="m 106.74052,481.60332 c -5.06669,-1.85197 -6.26007,-2.97939 -8.877987,-8.38729 L 95.625,468.5939 V 462.5 456.4061 l 2.236607,-4.62022 2.236603,-4.62021 2.64233,-1.73132 c 1.45328,-0.95223 4.24369,-2.09698 6.2009,-2.54388 l 3.55856,-0.81256 3.65865,0.97499 3.65866,0.97499 3.09134,3.52085 C 124.60889,449.48521 126,451.72893 126,452.5348 V 454 h -2 c -1.1,0 -2,-0.38429 -2,-0.85398 0,-0.46968 -1.10351,-2.04468 -2.45225,-3.5 L 117.0955,447 h -4.82524 -4.82525 l -2.22822,1.5607 c -1.22551,0.85839 -2.90064,2.86104 -3.7225,4.45034 L 100,455.90068 v 6.59932 6.59932 l 1.49429,2.88964 c 0.82186,1.5893 2.49699,3.59195 3.7225,4.45034 L 107.44501,478 h 4.85442 4.85442 l 2.92307,-2.92308 L 123,472.15385 V 470.57692 469 h 1.53138 1.53139 l 0.56586,1.47462 0.56587,1.47461 -2.1938,3.54963 -2.19379,3.54963 -2.68801,1.39002 c -1.4784,0.76452 -4.24746,1.64854 -6.15346,1.9645 L 110.5,482.97748 Z M 134,462.5 V 443 h 2.5 2.5 V 462.5 482 H 136.5 134 Z M 109.60699,436.41821 C 109.27314,435.54823 109,417.42298 109,396.13989 V 357.44335 L 65.75,333.05721 C 41.9625,319.64483 21.2625,307.81443 19.75,306.76744 L 17,304.86381 V 251.93191 199 l 1.753579,-1.75 c 0.964469,-0.9625 21.664469,-13.4276 46,-27.70022 L 109,143.59957 v -37.718 C 109,67.512745 109.15952,65 111.59538,65 h 1.38141 l 0.2616,39.13752 0.26161,39.13752 45.5,26.72494 45.5,26.72494 0.5,53.28033 0.5,53.28033 33.5,18.71308 33.5,18.71307 0.32332,1.64414 0.32333,1.64413 h -1.56603 c -0.86131,0 -16.51028,-8.347 -34.77549,-18.5489 l -33.20946,-18.54889 -4.54783,2.48631 C 196.54653,310.756 176.275,322.18722 154,334.79123 l -40.5,22.91639 -0.26134,40.14619 L 112.97731,438 h -1.38167 c -0.75991,0 -1.65481,-0.7118 -1.98865,-1.58179 z M 156.83206,328.53309 201,303.56618 v -52.08287 -52.08288 l -44.17217,-25.95021 c -24.2947,-14.27262 -44.46499,-26.07365 -44.82287,-26.22451 -0.35789,-0.15086 -20.867907,11.59942 -45.577829,26.11174 L 21.5,199.72347 v 51.78789 51.7879 L 66,328.5782 c 24.475,13.90342 44.98693,25.19858 45.58206,25.10037 0.59513,-0.0982 20.95763,-11.41368 45.25,-25.14548 z m -47.65538,7.83111 0.32332,-1.6358 38,-21.80672 c 20.9,-11.9937 38.8205,-21.83259 39.82332,-21.8642 l 1.82333,-0.0575 -0.32333,1.6358 -0.32332,1.6358 -38,21.80672 c -20.9,11.9937 -38.8205,21.83259 -39.82332,21.8642 L 108.85335,338 Z M 35.666667,296.33333 35,295.66667 V 252.41512 C 35,208.48911 35.139805,206 37.606989,206 H 39 v 45.5 45.5 h -1.333333 c -0.733334,0 -1.633334,-0.3 -2,-0.66667 z M 147.5,188.07832 l -38,-21.80672 -0.32332,-1.6358 -0.32333,-1.6358 1.82333,0.0575 C 111.6795,163.0891 129.6,172.928 150.5,184.9217 l 38,21.80672 0.32332,1.6358 0.32333,1.6358 -1.82333,-0.0575 C 186.3205,209.91091 168.4,200.07202 147.5,188.07832 Z m 212.89966,199.51644 -3.10034,-1.37236 -0.64966,-1.69299 c -1.50137,-3.91251 0.89575,-5.08822 3.11827,-1.52941 l 1.24902,2 h 3.36908 3.36908 l 1.19068,-1.43468 1.19067,-1.43467 -0.31823,-3.31533 L 369.5,375.5 366.25,374.5432 363,373.58641 v -1.22366 -1.22365 l 2.25,-0.31955 2.25,-0.31955 v -3.5 -3.5 l -3.2041,-0.30993 -3.20409,-0.30994 -1.28645,2.05994 c -1.3005,2.08241 -3.80536,2.83395 -3.80536,1.14172 0,-2.26452 1.46179,-4.26923 4.11255,-5.63999 l 2.87019,-1.48424 2.43503,0.61116 c 1.33927,0.33613 3.19941,1.45577 4.13363,2.48808 l 1.6986,1.87693 v 2.62242 2.62242 l -1.62397,1.62397 -1.62397,1.62397 2.66564,2.12551 2.66563,2.1255 v 3.22185 3.22184 l -2.41666,2.3781 c -1.32917,1.30795 -3.54167,2.62328 -4.91667,2.92295 l -2.5,0.54485 z m -69.65914,-11.99144 c -5.06669,-1.85197 -6.26007,-2.97939 -8.87799,-8.38729 L 279.625,362.5939 V 356.5 350.4061 l 2.23661,-4.62022 2.2366,-4.62021 2.64233,-1.73132 c 1.45328,-0.95223 4.24369,-2.09698 6.2009,-2.54388 l 3.55856,-0.81256 3.65865,0.97499 3.65866,0.97499 3.09134,3.52085 C 308.60889,343.48521 310,345.72893 310,346.5348 V 348 h -2 c -1.1,0 -2,-0.38429 -2,-0.85398 0,-0.46968 -1.10351,-2.04468 -2.45225,-3.5 L 301.0955,341 h -4.82524 -4.82525 l -2.22822,1.5607 c -1.22551,0.85839 -2.90064,2.86104 -3.7225,4.45034 L 284,349.90068 v 6.59932 6.59932 l 1.49429,2.88964 c 0.82186,1.5893 2.49699,3.59195 3.7225,4.45034 L 291.44501,372 h 4.85442 4.85442 l 2.92307,-2.92308 L 307,366.15385 V 364.57692 363 h 1.53138 1.53139 l 0.56586,1.47462 0.56587,1.47461 -2.1938,3.54963 -2.19379,3.54963 -2.68801,1.39002 c -1.4784,0.76452 -4.24746,1.64854 -6.15346,1.9645 L 294.5,376.97748 Z M 319,356.5 V 337 h 2.5 2.5 v 8 8 h 10.5 10.5 v -8 -8 h 2.5 2.5 v 19.5 19.5 h -2.5 -2.5 v -9 -9 H 334.5 324 v 9 9 H 321.5 319 Z M 106.6838,56.583822 C 100.15017,54.197765 96.065108,48.884924 94.615958,40.888956 L 93.961511,37.277912 95.07608,32.080856 96.190649,26.8838 99.845324,23.045796 103.5,19.207793 l 4.25,-1.142441 4.25,-1.14244 4.25,1.14244 4.25,1.142441 3.67049,3.85463 3.67049,3.854631 1.11835,5.387056 1.11835,5.387057 -1.09422,4.882632 -1.09422,4.882633 -2.49631,3.272835 c -2.86001,3.749661 -6.45567,5.849559 -11.42749,6.673743 L 110.5,57.977482 Z m 12.23101,-5.039771 2.8155,-1.455949 1.63485,-3.44518 L 125,43.197742 V 37.5 31.802258 l -1.63484,-3.44518 -1.63485,-3.44518 -2.8155,-1.455949 L 116.09932,22 H 112 107.90068 l -3.02912,1.566418 -3.02912,1.566417 -1.42122,3.401464 L 99,31.935763 99.0066,38.217881 99.0132,44.5 l 1.93316,2.932574 c 1.06325,1.612916 2.97278,3.50947 4.24342,4.214565 l 2.31024,1.28199 4.29966,0.03544 L 116.09932,53 Z M 137,37.5 V 18 h 2.5 2.5 v 8 8 h 10.5 10.5 v -8 -8 h 2.5 2.5 V 37.5 57 H 165.5 163 V 48 39 H 152.5 142 v 9 9 h -2.5 -2.5 z"
         id="path2" />
    </g>
  </g>
</svg>
