<?xml version="1.0" encoding="UTF-8" standalone="no"?>
<!-- Created with Inkscape (http://www.inkscape.org/) -->

<svg
   version="1.1"
   id="svg1"
   width="445.35156"
   height="212.74217"
   viewBox="0 0 445.35156 212.74218"
   sodipodi:docname="comperlan.svg"
   inkscape:version="1.4.2 (f4327f4, 2025-05-13)"
   xmlns:inkscape="http://www.inkscape.org/namespaces/inkscape"
   xmlns:sodipodi="http://sodipodi.sourceforge.net/DTD/sodipodi-0.dtd"
   xmlns="http://www.w3.org/2000/svg"
   xmlns:svg="http://www.w3.org/2000/svg">
  <defs
     id="defs1" />
  <sodipodi:namedview
     id="namedview1"
     pagecolor="#ffffff"
     bordercolor="#000000"
     borderopacity="0.25"
     inkscape:showpageshadow="2"
     inkscape:pageopacity="0.0"
     inkscape:pagecheckerboard="0"
     inkscape:deskcolor="#d1d1d1"
     inkscape:zoom="0.75808864"
     inkscape:cx="330.43629"
     inkscape:cy="508.51573"
     inkscape:window-width="1920"
     inkscape:window-height="1111"
     inkscape:window-x="-9"
     inkscape:window-y="-9"
     inkscape:window-maximized="1"
     inkscape:current-layer="g1">
    <inkscape:page
       x="7.3427299e-07"
       y="2.1877433e-08"
       inkscape:label="1"
       id="page1"
       width="445.35156"
       height="212.74219"
       margin="0"
       bleed="0" />
  </sodipodi:namedview>
  <g
     id="g1"
     inkscape:groupmode="layer"
     inkscape:label="1"
     transform="translate(-65.703125,-52.695314)">
    <g
       id="g142">
      <path
         id="path1"
         d="M 0.76125,-0.00140625 V -7.1615625 h 0.9726563 l 3.7617187,5.625 v -5.625 h 0.9023438 v 7.16015625 H 5.4253125 L 1.6635938,-5.6264063 v 5.62500005 z m 0,0"
         style="fill:#000000;fill-opacity:1;fill-rule:nonzero;stroke:none"
         aria-label="N"
         transform="matrix(1.3333333,0,0,1.3333333,143.36,102.08)" />
      <path
         id="path2"
         d="M 0.79757813,-0.00140625 V -7.1615625 H 1.7467969 v 2.9414062 h 3.7148437 v -2.9414062 h 0.9492188 v 7.16015625 H 5.4616406 V -3.3764063 H 1.7467969 v 3.37500005 z m 0,0"
         style="fill:#000000;fill-opacity:1;fill-rule:nonzero;stroke:none"
         aria-label="H"
         transform="matrix(1.3333333,0,0,1.3333333,152.96,102.08)" />
      <path
         id="path3"
         d="m 0.47917969,-3.48 c 0,-1.1865234 0.31933594,-2.1152344 0.96093751,-2.7890625 0.6386719,-0.6708984 1.4648437,-1.0078125 2.4726562,-1.0078125 0.65625,0 1.2480469,0.1582031 1.78125,0.46875 0.5302735,0.3134766 0.9316407,0.7558594 1.2070313,1.3242187 0.28125,0.5625 0.421875,1.2041016 0.421875,1.921875 0,0.7207032 -0.1494141,1.3681641 -0.4453125,1.9453125 -0.2900391,0.5712891 -0.703125,1.00488286 -1.2421875,1.3007813 -0.5332031,0.29003906 -1.1103516,0.43359375 -1.734375,0.43359375 -0.6738281,0 -1.2744141,-0.15820313 -1.8046875,-0.48046875 C 1.5631641,-0.6909375 1.1617969,-1.13625 0.88933594,-1.69875 0.61394531,-2.26125 0.47917969,-2.8530469 0.47917969,-3.48 Z m 0.98437501,0.011719 c 0,0.8613282 0.2285156,1.5410157 0.6914062,2.0390625 0.459961,0.49218755 1.0429688,0.7382813 1.7460938,0.7382813 0.7089844,0 1.2949219,-0.24902344 1.7578125,-0.75 0.4599609,-0.4980469 0.6914062,-1.2099609 0.6914062,-2.1328125 0,-0.5771484 -0.102539,-1.0839844 -0.3046875,-1.5234375 C 5.8492969,-5.5337109 5.5592578,-5.870625 5.1783984,-6.105 c -0.375,-0.2402344 -0.796875,-0.3632813 -1.265625,-0.3632813 -0.6738281,0 -1.2509765,0.2314454 -1.734375,0.6914063 -0.477539,0.4628906 -0.7148437,1.2304687 -0.7148437,2.308594 z m 0,0"
         style="fill:#000000;fill-opacity:1;fill-rule:nonzero;stroke:none"
         aria-label="O"
         transform="matrix(1.3333333,0,0,1.3333333,74.24,88.64)" />
      <path
         id="path4"
         d="M 0.79734375,4.6875e-4 V -7.1596875 H 1.7465625 v 2.9414062 H 5.4614063 V -7.1596875 H 6.410625 V 4.6875e-4 H 5.4614063 V -3.3745313 H 1.7465625 V 4.6875e-4 Z m 0,0"
         style="fill:#000000;fill-opacity:1;fill-rule:nonzero;stroke:none"
         aria-label="H"
         transform="matrix(1.3333333,0,0,1.3333333,64.64,88.64)" />
      <path
         id="path5"
         d="m 0.4790625,-3.4816406 c 0,-1.1865235 0.31933594,-2.1152344 0.9609375,-2.7890625 0.6386719,-0.6708985 1.4648438,-1.0078125 2.4726563,-1.0078125 0.65625,0 1.2480468,0.1582031 1.78125,0.46875 0.5302734,0.3134765 0.9316406,0.7558593 1.2070312,1.3242187 0.28125,0.5625 0.421875,1.2041016 0.421875,1.921875 0,0.7207031 -0.1494141,1.3681641 -0.4453125,1.9453125 -0.2900391,0.5712891 -0.703125,1.00488284 -1.2421875,1.30078127 -0.5332031,0.29003907 -1.1103516,0.43359375 -1.734375,0.43359375 -0.6738281,0 -1.2744141,-0.15820312 -1.8046875,-0.48046875 C 1.5630469,-0.69257813 1.1616797,-1.1378906 0.88921875,-1.7003906 0.61382813,-2.2628906 0.4790625,-2.8546875 0.4790625,-3.4816406 Z m 0.984375,0.011719 c 0,0.8613281 0.2285156,1.5410156 0.6914063,2.0390625 0.4599609,0.49218752 1.0429687,0.73828127 1.7460937,0.73828127 0.7089844,0 1.2949219,-0.24902343 1.7578125,-0.74999997 0.4599609,-0.4980469 0.6914063,-1.209961 0.6914063,-2.1328125 0,-0.5771485 -0.1025391,-1.0839844 -0.3046875,-1.5234375 -0.1962891,-0.4365235 -0.4863282,-0.7734375 -0.8671875,-1.0078125 -0.375,-0.2402344 -0.796875,-0.3632813 -1.265625,-0.3632813 -0.6738282,0 -1.2509766,0.2314453 -1.734375,0.6914063 -0.4775391,0.4628906 -0.7148438,1.2304687 -0.7148438,2.3085937 z m 0,0"
         style="fill:#000000;fill-opacity:1;fill-rule:nonzero;stroke:none"
         aria-label="O"
         transform="matrix(1.3333333,0,0,1.3333333,166.08,62.4)" />
      <path
         id="path6"
         d="m 5.8716797,-2.5071094 0.9492187,0.234375 c -0.196289,0.7822266 -0.5507812,1.37695315 -1.0664062,1.78125002 -0.515625,0.40722657 -1.1484375,0.609375 -1.8984375,0.609375 -0.7675781,0 -1.3916016,-0.15527343 -1.875,-0.46875 C 1.4947266,-0.66140625 1.1255859,-1.1155078 0.86777344,-1.7102344 c -0.25195313,-0.5917969 -0.375,-1.2333984 -0.375,-1.921875 0,-0.7412109 0.140625,-1.3886719 0.421875,-1.9453125 0.28710936,-0.5537109 0.69433596,-0.9755859 1.21874996,-1.265625 0.5302735,-0.2871094 1.1132813,-0.4335937 1.7460938,-0.4335937 0.7089844,0 1.3066406,0.1845703 1.7929687,0.5507812 0.4921875,0.3603516 0.834961,0.8730469 1.03125,1.5351563 l -0.9375,0.2226562 C 5.6021484,-5.4895313 5.3589844,-5.8703906 5.0396484,-6.1047656 4.7261719,-6.345 4.3306641,-6.4680469 3.8560547,-6.4680469 c -0.5478516,0 -1.0078125,0.1347656 -1.3828125,0.3984375 -0.3691406,0.2666016 -0.6269531,0.6210938 -0.7734375,1.0664063 -0.1494141,0.4394531 -0.2226563,0.8964843 -0.2226563,1.3710937 0,0.609375 0.084961,1.1425781 0.2578125,1.59375 0.178711,0.4541016 0.4570313,0.7939453 0.8320313,1.0195313 0.375,0.21972654 0.7792969,0.32812497 1.21875,0.32812497 0.5302734,0 0.9785156,-0.15234375 1.3476562,-0.45703127 0.366211,-0.3046875 0.6123047,-0.7558594 0.7382813,-1.359375 z m 0,0"
         style="fill:#000000;fill-opacity:1;fill-rule:nonzero;stroke:none"
         aria-label="C"
         transform="matrix(1.3333333,0,0,1.3333333,212.8,88.96)" />
      <path
         id="path7"
         d="M 0.79570312,7.03125e-4 V -7.1594531 H 1.7449219 v 2.9414062 H 5.4597656 V -7.1594531 H 6.4089844 V 7.03125e-4 H 5.4597656 V -3.3742969 H 1.7449219 V 7.03125e-4 Z m 0,0"
         style="fill:#000000;fill-opacity:1;fill-rule:nonzero;stroke:none"
         aria-label="H"
         transform="matrix(1.3333333,0,0,1.3333333,222.4,88.96)" />
      <path
         id="path8"
         d="m 0.33984375,-1.5113672 0.70312495,-0.09375 c 0.076172,0.3984375 0.2138672,0.68847657 0.4101563,0.86718751 0.1933594,0.17285156 0.4277344,0.2578125 0.703125,0.2578125 0.3339844,0 0.6152344,-0.11132812 0.84375,-0.33984375 0.2255859,-0.23437496 0.3398438,-0.51855466 0.3398438,-0.85546876 0,-0.3193359 -0.1054688,-0.5859375 -0.3164063,-0.796875 C 2.8125,-2.6832422 2.5429688,-2.7887109 2.2148438,-2.7887109 c -0.1347657,0 -0.2988282,0.029297 -0.4921876,0.082031 l 0.082031,-0.6210937 c 0.046875,0.00879 0.082031,0.011719 0.1054687,0.011719 0.3046876,0 0.5742188,-0.076172 0.8085938,-0.234375 0.2402344,-0.1552734 0.3632813,-0.3984375 0.3632813,-0.7265625 0,-0.2578125 -0.09082,-0.4716797 -0.2695313,-0.6445312 -0.1728516,-0.1699219 -0.3955078,-0.2578125 -0.6679687,-0.2578125 -0.2753907,0 -0.5039063,0.087891 -0.6914063,0.2578125 -0.1816406,0.1728515 -0.2929688,0.430664 -0.3398438,0.7734375 L 0.41015625,-4.2652734 c 0.0849609,-0.4746094 0.28125,-0.84375 0.5859375,-1.1015625 0.30468745,-0.2578125 0.68261715,-0.3867188 1.13671875,-0.3867188 0.3105469,0 0.5976563,0.067383 0.8554688,0.1992188 0.2636718,0.1347656 0.46875,0.3164062 0.609375,0.5507812 0.140625,0.234375 0.2109375,0.4804688 0.2109375,0.7382813 0,0.2519531 -0.067383,0.477539 -0.1992188,0.6796875 -0.1347656,0.2050781 -0.3339844,0.3632812 -0.5976562,0.4804687 0.3427734,0.079102 0.609375,0.2431641 0.796875,0.4921875 0.1875,0.2431641 0.2812499,0.5507813 0.2812499,0.9257813 0,0.5009765 -0.1845703,0.92578121 -0.5507812,1.27734371 -0.3691406,0.34570313 -0.8291016,0.515625 -1.3828125,0.515625 -0.5009766,0 -0.9199219,-0.14648437 -1.25390625,-0.4453125 -0.328125,-0.3046875 -0.515625,-0.69433591 -0.5625,-1.17187501 z m 0,0"
         style="fill:#000000;fill-opacity:1;fill-rule:nonzero;stroke:none"
         aria-label="3"
         transform="matrix(1.3333333,0,0,1.3333333,232,92.48)" />
      <path
         style="baseline-shift:baseline;display:inline;overflow:visible;opacity:1;vector-effect:none;stroke-linecap:round;stroke-linejoin:round;stroke-miterlimit:10;enable-background:accumulate;stop-color:#000000;stop-opacity:1"
         d="m 145.58984,768.91797 -17.24023,9.98047 a 0.36000001,0.36000001 0 0 0 -0.13086,0.49218 0.36000001,0.36000001 0 0 0 0.49219,0.13086 l 17.24023,-9.98046 a 0.36000001,0.36000001 0 0 0 0.13086,-0.49219 0.36000001,0.36000001 0 0 0 -0.49219,-0.13086 z"
         id="path9"
         transform="matrix(1.3333333,0,0,-1.3333333,0,1122.56)" />
      <path
         style="baseline-shift:baseline;display:inline;overflow:visible;opacity:1;vector-effect:none;stroke-linecap:round;stroke-linejoin:round;stroke-miterlimit:10;enable-background:accumulate;stop-color:#000000;stop-opacity:1"
         d="m 120.49023,774.16797 a 0.36000001,0.36000001 0 0 0 -0.49218,0.13281 0.36000001,0.36000001 0 0 0 0.13281,0.49219 l 8.21875,4.72851 a 0.36000001,0.36000001 0 0 0 0.49219,-0.13281 0.36000001,0.36000001 0 0 0 -0.13282,-0.49023 z"
         id="path10"
         transform="matrix(1.3333333,0,0,-1.3333333,0,1122.56)" />
      <path
         style="baseline-shift:baseline;display:inline;overflow:visible;opacity:1;vector-effect:none;stroke-linecap:round;stroke-linejoin:round;stroke-miterlimit:10;enable-background:accumulate;stop-color:#000000;stop-opacity:1"
         d="m 106.37891,771.68945 -12.529301,7.25977 a 0.36000001,0.36000001 0 0 0 -0.130859,0.49219 0.36000001,0.36000001 0 0 0 0.492187,0.13086 l 12.529293,-7.26172 a 0.36000001,0.36000001 0 0 0 0.13086,-0.49024 0.36000001,0.36000001 0 0 0 -0.49218,-0.13086 z"
         id="path11"
         transform="matrix(1.3333333,0,0,-1.3333333,0,1122.56)" />
      <path
         style="baseline-shift:baseline;display:inline;overflow:visible;opacity:1;vector-effect:none;stroke-linecap:round;stroke-linejoin:round;stroke-miterlimit:10;enable-background:accumulate;stop-color:#000000;stop-opacity:1"
         d="m 76.939453,769.00781 a 0.36000001,0.36000001 0 0 0 -0.492187,0.13281 0.36000001,0.36000001 0 0 0 0.132812,0.49219 l 17.269531,9.93946 a 0.36000001,0.36000001 0 0 0 0.492188,-0.13282 0.36000001,0.36000001 0 0 0 -0.132813,-0.49218 z"
         id="path12"
         transform="matrix(1.3333333,0,0,-1.3333333,0,1122.56)" />
      <path
         style="baseline-shift:baseline;display:inline;overflow:visible;opacity:1;vector-effect:none;stroke-linecap:round;stroke-linejoin:round;stroke-miterlimit:10;enable-background:accumulate;stop-color:#000000;stop-opacity:1"
         d="m 76.580078,769.00781 -12.201172,7.07031 a 0.36000001,0.36000001 0 0 0 -0.130859,0.49219 0.36000001,0.36000001 0 0 0 0.492187,0.13086 l 12.201172,-7.07031 a 0.36000001,0.36000001 0 0 0 0.13086,-0.49219 0.36000001,0.36000001 0 0 0 -0.492188,-0.13086 z"
         id="path13"
         transform="matrix(1.3333333,0,0,-1.3333333,0,1122.56)" />
      <path
         style="baseline-shift:baseline;display:inline;overflow:visible;opacity:1;vector-effect:none;stroke-linecap:round;stroke-linejoin:round;stroke-miterlimit:10;enable-background:accumulate;stop-color:#000000;stop-opacity:1"
         d="m 130.20898,778.84961 a 0.36000001,0.36000001 0 0 0 -0.35937,0.36133 l 0.0195,14.70898 a 0.36000001,0.36000001 0 0 0 0.36133,0.35938 0.36000001,0.36000001 0 0 0 0.35937,-0.35938 l -0.0195,-14.71094 a 0.36000001,0.36000001 0 0 0 -0.36133,-0.35937 z"
         id="path14"
         transform="matrix(1.3333333,0,0,-1.3333333,0,1122.56)" />
      <path
         style="baseline-shift:baseline;display:inline;overflow:visible;opacity:1;vector-effect:none;stroke-linecap:round;stroke-linejoin:round;stroke-miterlimit:10;enable-background:accumulate;stop-color:#000000;stop-opacity:1"
         d="m 126.84961,778.84961 a 0.36000001,0.36000001 0 0 0 -0.35938,0.36133 l 0.0195,14.70898 a 0.36000001,0.36000001 0 0 0 0.36132,0.35938 0.36000001,0.36000001 0 0 0 0.35938,-0.35938 l -0.0195,-14.71094 a 0.36000001,0.36000001 0 0 0 -0.36133,-0.35937 z"
         id="path15"
         transform="matrix(1.3333333,0,0,-1.3333333,0,1122.56)" />
      <path
         style="baseline-shift:baseline;display:inline;overflow:visible;opacity:1;vector-effect:none;stroke-linecap:round;stroke-linejoin:round;stroke-miterlimit:10;enable-background:accumulate;stop-color:#000000;stop-opacity:1"
         d="m 145.94922,768.91797 a 0.36000001,0.36000001 0 0 0 -0.49219,0.13281 0.36000001,0.36000001 0 0 0 0.13477,0.49219 l 12.86914,7.3789 a 0.36000001,0.36000001 0 0 0 0.49218,-0.13281 0.36000001,0.36000001 0 0 0 -0.13476,-0.49219 z"
         id="path16"
         transform="matrix(1.3333333,0,0,-1.3333333,0,1122.56)" />
      <path
         id="path17"
         d="M 0.76125,-7.03125e-4 V -7.1608594 h 0.9726562 l 3.7617188,5.625 v -5.625 H 6.3979687 V -7.03125e-4 H 5.4253125 L 1.6635937,-5.6257031 v 5.624999975 z m 0,0"
         style="fill:#000000;fill-opacity:1;fill-rule:nonzero;stroke:none"
         aria-label="N"
         transform="matrix(1.3333333,0,0,1.3333333,231.36,199.04)" />
      <path
         id="path18"
         d="m 0.47929687,-3.4809375 c 0,-1.1865234 0.31933594,-2.1152344 0.96093753,-2.7890625 0.6386718,-0.6708984 1.4648437,-1.0078125 2.4726562,-1.0078125 0.65625,0 1.2480469,0.1582031 1.78125,0.46875 0.5302735,0.3134766 0.9316406,0.7558594 1.2070313,1.3242187 0.28125,0.5625 0.421875,1.2041016 0.421875,1.921875 0,0.7207032 -0.1494141,1.3681641 -0.4453125,1.9453125 -0.2900391,0.5712891 -0.703125,1.00488286 -1.2421875,1.3007813 -0.5332032,0.29003906 -1.1103516,0.43359375 -1.734375,0.43359375 -0.6738282,0 -1.2744141,-0.15820313 -1.8046875,-0.48046875 -0.5332032,-0.328125 -0.9345703,-0.7734375 -1.20703128,-1.3359375 -0.27539062,-0.5625 -0.41015625,-1.1542969 -0.41015625,-1.78125 z m 0.98437503,0.011719 c 0,0.8613282 0.2285156,1.5410157 0.6914062,2.0390625 0.459961,0.49218755 1.0429688,0.7382813 1.7460938,0.7382813 0.7089843,0 1.2949218,-0.24902344 1.7578125,-0.75 0.4599609,-0.4980469 0.6914062,-1.2099609 0.6914062,-2.1328125 0,-0.5771484 -0.102539,-1.0839844 -0.3046875,-1.5234375 -0.196289,-0.4365234 -0.4863281,-0.7734375 -0.8671875,-1.0078125 -0.375,-0.2402344 -0.796875,-0.3632813 -1.265625,-0.3632813 -0.6738281,0 -1.2509765,0.2314454 -1.734375,0.6914063 -0.477539,0.4628906 -0.7148437,1.2304687 -0.7148437,2.3085937 z m 0,0"
         style="fill:#000000;fill-opacity:1;fill-rule:nonzero;stroke:none"
         aria-label="O"
         transform="matrix(1.3333333,0,0,1.3333333,254.4,159.36)" />
      <path
         id="path19"
         d="m 0.48035156,-3.4814063 c 0,-1.1865234 0.31933594,-2.1152343 0.96093754,-2.7890625 0.6386718,-0.6708984 1.4648437,-1.0078125 2.4726562,-1.0078125 0.65625,0 1.2480469,0.1582032 1.78125,0.46875 0.5302734,0.3134766 0.9316406,0.7558594 1.2070313,1.3242188 0.28125,0.5625 0.421875,1.2041016 0.421875,1.921875 0,0.7207031 -0.1494141,1.3681641 -0.4453125,1.9453125 C 6.58875,-1.0468359 6.1756641,-0.61324219 5.6366016,-0.31734375 5.1033984,-0.02730469 4.52625,0.11625 3.9022266,0.11625 c -0.6738282,0 -1.2744141,-0.15820313 -1.8046875,-0.48046875 -0.5332032,-0.328125 -0.9345704,-0.77343755 -1.20703129,-1.33593755 -0.27539062,-0.5625 -0.41015625,-1.1542968 -0.41015625,-1.78125 z m 0.98437504,0.011719 c 0,0.8613281 0.2285156,1.5410156 0.6914062,2.0390625 0.4599609,0.4921875 1.0429688,0.73828125 1.7460938,0.73828125 0.7089843,0 1.2949218,-0.24902344 1.7578125,-0.75000005 0.4599609,-0.498047 0.6914062,-1.2099611 0.6914062,-2.1328127 0,-0.5771484 -0.1025391,-1.0839843 -0.3046875,-1.5234375 -0.1962891,-0.4365234 -0.4863281,-0.7734375 -0.8671875,-1.0078125 -0.375,-0.2402343 -0.796875,-0.3632812 -1.265625,-0.3632812 -0.6738281,0 -1.2509766,0.2314453 -1.734375,0.6914062 -0.4775391,0.4628907 -0.7148437,1.2304688 -0.7148437,2.308594 z m 0,0"
         style="fill:#000000;fill-opacity:1;fill-rule:nonzero;stroke:none"
         aria-label="O"
         transform="matrix(1.3333333,0,0,1.3333333,179.84,142.72)" />
      <path
         id="path20"
         d="M 0.79558594,-9.375e-4 V -7.1610938 H 1.7448047 v 2.9414063 H 5.4596484 V -7.1610938 H 6.4088672 V -9.375e-4 H 5.4596484 v -3.375 H 1.7448047 v 3.375 z m 0,0"
         style="fill:#000000;fill-opacity:1;fill-rule:nonzero;stroke:none"
         aria-label="H"
         transform="matrix(1.3333333,0,0,1.3333333,170.24,142.72)" />
      <path
         id="path21"
         d="m 0.4790625,-3.4795313 c 0,-1.1865234 0.31933594,-2.1152343 0.9609375,-2.7890625 0.6386719,-0.6708984 1.4648437,-1.0078125 2.4726562,-1.0078125 0.65625,0 1.2480469,0.1582032 1.78125,0.46875 0.5302735,0.3134766 0.9316407,0.7558594 1.2070313,1.3242188 0.28125,0.5625 0.421875,1.2041016 0.421875,1.921875 0,0.7207031 -0.1494141,1.3681641 -0.4453125,1.9453125 C 6.5874609,-1.0449609 6.174375,-0.61136719 5.6353125,-0.31546875 5.1021094,-0.02542969 4.5249609,0.118125 3.9009375,0.118125 3.2271094,0.118125 2.6265234,-0.04007813 2.09625,-0.36234375 1.5630469,-0.69046875 1.1616797,-1.1357813 0.88921875,-1.6982813 0.61382812,-2.2607813 0.4790625,-2.8525781 0.4790625,-3.4795313 Z m 0.984375,0.011719 c 0,0.8613281 0.2285156,1.5410156 0.6914062,2.0390625 0.459961,0.4921875 1.0429688,0.73828125 1.7460938,0.73828125 0.7089844,0 1.2949219,-0.24902344 1.7578125,-0.75000005 0.4599609,-0.4980468 0.6914062,-1.2099609 0.6914062,-2.1328125 0,-0.5771484 -0.102539,-1.0839843 -0.3046875,-1.5234375 -0.196289,-0.4365234 -0.4863281,-0.7734375 -0.8671875,-1.0078125 -0.375,-0.2402343 -0.796875,-0.3632812 -1.265625,-0.3632812 -0.6738281,0 -1.2509765,0.2314453 -1.734375,0.6914062 -0.477539,0.4628907 -0.7148437,1.2304688 -0.7148437,2.3085938 z m 0,0"
         style="fill:#000000;fill-opacity:1;fill-rule:nonzero;stroke:none"
         aria-label="O"
         transform="matrix(1.3333333,0,0,1.3333333,206.08,265.28)" />
      <path
         id="path22"
         d="M 0.79722656,9.375e-4 V -7.1592188 H 1.7464453 v 2.9414063 H 5.4612891 V -7.1592188 H 6.4105078 V 9.375e-4 H 5.4612891 v -3.375 H 1.7464453 v 3.375 z m 0,0"
         style="fill:#000000;fill-opacity:1;fill-rule:nonzero;stroke:none"
         aria-label="H"
         transform="matrix(1.3333333,0,0,1.3333333,196.48,265.28)" />
      <path
         id="path23"
         d="m 5.8713281,-2.5079297 0.9492188,0.234375 c -0.1962891,0.7822266 -0.5507813,1.37695314 -1.0664063,1.78125001 -0.515625,0.40722656 -1.1484375,0.609375 -1.8984375,0.609375 -0.7675781,0 -1.3916015,-0.15527344 -1.875,-0.46875 C 1.494375,-0.66222656 1.1252344,-1.1163281 0.86742188,-1.7110547 c -0.25195313,-0.5917969 -0.375,-1.2333984 -0.375,-1.921875 0,-0.7412109 0.140625,-1.3886719 0.421875,-1.9453125 0.28710942,-0.5537109 0.69433592,-0.9755859 1.21875002,-1.265625 0.5302734,-0.2871094 1.1132812,-0.4335937 1.7460937,-0.4335937 0.7089844,0 1.3066407,0.1845703 1.7929688,0.5507812 0.4921875,0.3603516 0.8349609,0.8730469 1.03125,1.5351563 l -0.9375,0.2226562 C 5.6017969,-5.4903516 5.3586328,-5.8712109 5.0392969,-6.1055859 4.7258203,-6.3458203 4.3303125,-6.4688672 3.8557031,-6.4688672 c -0.5478515,0 -1.0078125,0.1347656 -1.3828125,0.3984375 -0.3691406,0.2666016 -0.6269531,0.6210938 -0.7734375,1.0664063 -0.149414,0.4394531 -0.2226562,0.8964843 -0.2226562,1.3710937 0,0.609375 0.084961,1.1425781 0.2578125,1.59375 0.1787109,0.4541016 0.4570312,0.7939453 0.8320312,1.0195313 0.375,0.21972652 0.7792969,0.32812496 1.21875,0.32812496 0.5302735,0 0.9785157,-0.15234375 1.3476563,-0.45703126 0.3662109,-0.3046875 0.6123047,-0.7558594 0.7382812,-1.359375 z m 0,0"
         style="fill:#000000;fill-opacity:1;fill-rule:nonzero;stroke:none"
         aria-label="C"
         transform="matrix(1.3333333,0,0,1.3333333,304.32,187.84)" />
      <path
         id="path24"
         d="M 0.79828125,-1.171875e-4 V -7.1602734 H 1.7475 v 2.9414062 H 5.4623438 V -7.1602734 H 6.4115625 V -1.171875e-4 H 5.4623438 V -3.3751172 H 1.7475 v 3.3750000125 z m 0,0"
         style="fill:#000000;fill-opacity:1;fill-rule:nonzero;stroke:none"
         aria-label="H"
         transform="matrix(1.3333333,0,0,1.3333333,313.92,187.84)" />
      <path
         id="path25"
         d="m 0.33949219,-1.5121875 0.70312501,-0.09375 c 0.076172,0.3984375 0.2138672,0.68847656 0.4101562,0.8671875 0.1933594,0.17285156 0.4277344,0.2578125 0.703125,0.2578125 0.3339844,0 0.6152344,-0.11132813 0.84375,-0.33984375 0.225586,-0.23437505 0.3398438,-0.51855465 0.3398438,-0.85546875 0,-0.3193359 -0.1054688,-0.5859375 -0.3164063,-0.796875 -0.2109375,-0.2109375 -0.4804687,-0.3164063 -0.8085937,-0.3164063 -0.1347656,0 -0.2988281,0.029297 -0.4921875,0.082031 l 0.082031,-0.6210938 c 0.046875,0.00879 0.082031,0.011719 0.1054688,0.011719 0.3046875,0 0.5742187,-0.076172 0.8085937,-0.234375 0.2402344,-0.1552734 0.3632813,-0.3984375 0.3632813,-0.7265625 0,-0.2578125 -0.09082,-0.4716797 -0.2695313,-0.6445313 -0.1728515,-0.1699218 -0.3955078,-0.2578125 -0.6679687,-0.2578125 -0.2753906,0 -0.5039063,0.087891 -0.6914063,0.2578125 -0.1816406,0.1728516 -0.2929687,0.4306641 -0.3398437,0.7734375 L 0.40980469,-4.2660938 c 0.0849609,-0.4746093 0.28125,-0.84375 0.5859375,-1.1015625 C 1.3004297,-5.6254688 1.6783594,-5.754375 2.1324609,-5.754375 c 0.3105469,0 0.5976563,0.067383 0.8554688,0.1992187 0.2636719,0.1347657 0.46875,0.3164063 0.609375,0.5507813 0.140625,0.234375 0.2109375,0.4804687 0.2109375,0.7382812 0,0.2519532 -0.067383,0.4775391 -0.1992188,0.6796875 -0.1347656,0.2050782 -0.3339843,0.3632813 -0.5976562,0.4804688 0.3427734,0.079102 0.609375,0.2431641 0.796875,0.4921875 0.1875,0.2431641 0.28125,0.5507812 0.28125,0.9257812 0,0.5009766 -0.1845703,0.9257813 -0.5507813,1.2773438 C 3.1695703,-0.06492188 2.7096094,0.105 2.1558984,0.105 c -0.5009765,0 -0.9199218,-0.14648438 -1.25390621,-0.4453125 -0.328125,-0.3046875 -0.515625,-0.6943359 -0.5625,-1.171875 z m 0,0"
         style="fill:#000000;fill-opacity:1;fill-rule:nonzero;stroke:none"
         aria-label="3"
         transform="matrix(1.3333333,0,0,1.3333333,323.52,191.36)" />
      <path
         style="baseline-shift:baseline;display:inline;overflow:visible;opacity:1;vector-effect:none;stroke-linecap:round;stroke-linejoin:round;stroke-miterlimit:10;enable-background:accumulate;stop-color:#000000;stop-opacity:1"
         d="m 211.52734,695.94922 -17.15039,10.15039 a 0.36000001,0.36000001 0 0 0 -0.12695,0.49414 0.36000001,0.36000001 0 0 0 0.49414,0.12695 l 17.14844,-10.15039 a 0.36000001,0.36000001 0 0 0 0.12695,-0.49414 0.36000001,0.36000001 0 0 0 -0.49219,-0.12695 z"
         id="path26"
         transform="matrix(1.3333333,0,0,-1.3333333,0,1122.56)" />
      <path
         style="baseline-shift:baseline;display:inline;overflow:visible;opacity:1;vector-effect:none;stroke-linecap:round;stroke-linejoin:round;stroke-miterlimit:10;enable-background:accumulate;stop-color:#000000;stop-opacity:1"
         d="m 181.85742,698.8457 a 0.36000001,0.36000001 0 0 0 -0.49023,0.13867 0.36000001,0.36000001 0 0 0 0.13672,0.49024 l 12.8789,7.25 a 0.36000001,0.36000001 0 0 0 0.49024,-0.13867 0.36000001,0.36000001 0 0 0 -0.13672,-0.49024 z"
         id="path27"
         transform="matrix(1.3333333,0,0,-1.3333333,0,1122.56)" />
      <path
         style="baseline-shift:baseline;display:inline;overflow:visible;opacity:1;vector-effect:none;stroke-linecap:round;stroke-linejoin:round;stroke-miterlimit:10;enable-background:accumulate;stop-color:#000000;stop-opacity:1"
         d="m 196.23633,706.0293 a 0.36000001,0.36000001 0 0 0 -0.35547,0.36523 l 0.1582,14.80859 a 0.36000001,0.36000001 0 0 0 0.36524,0.35743 0.36000001,0.36000001 0 0 0 0.35547,-0.36524 l -0.16016,-14.80859 a 0.36000001,0.36000001 0 0 0 -0.36328,-0.35742 z"
         id="path28"
         transform="matrix(1.3333333,0,0,-1.3333333,0,1122.56)" />
      <path
         style="baseline-shift:baseline;display:inline;overflow:visible;opacity:1;vector-effect:none;stroke-linecap:round;stroke-linejoin:round;stroke-miterlimit:10;enable-background:accumulate;stop-color:#000000;stop-opacity:1"
         d="m 192.87695,706.07031 a 0.36000001,0.36000001 0 0 0 -0.35742,0.36328 l 0.16016,14.76953 a 0.36000001,0.36000001 0 0 0 0.36328,0.35743 0.36000001,0.36000001 0 0 0 0.35742,-0.36524 l -0.16016,-14.76953 a 0.36000001,0.36000001 0 0 0 -0.36328,-0.35547 z"
         id="path29"
         transform="matrix(1.3333333,0,0,-1.3333333,0,1122.56)" />
      <path
         style="baseline-shift:baseline;display:inline;overflow:visible;opacity:1;vector-effect:none;stroke-linecap:round;stroke-linejoin:round;stroke-miterlimit:10;enable-background:accumulate;stop-color:#000000;stop-opacity:1"
         d="m 172.37695,699.08008 -12.5,7.39062 a 0.36000001,0.36000001 0 0 0 -0.12695,0.49219 0.36000001,0.36000001 0 0 0 0.49414,0.12695 l 12.5,-7.39062 a 0.36000001,0.36000001 0 0 0 0.125,-0.49219 0.36000001,0.36000001 0 0 0 -0.49219,-0.12695 z"
         id="path30"
         transform="matrix(1.3333333,0,0,-1.3333333,0,1122.56)" />
      <path
         style="baseline-shift:baseline;display:inline;overflow:visible;opacity:1;vector-effect:none;stroke-linecap:round;stroke-linejoin:round;stroke-miterlimit:10;enable-background:accumulate;stop-color:#000000;stop-opacity:1"
         d="m 176.98633,676.35937 a 0.36000001,0.36000001 0 0 0 -0.35547,0.36524 l 0.1582,14.71875 a 0.36000001,0.36000001 0 0 0 0.36524,0.35742 0.36000001,0.36000001 0 0 0 0.35547,-0.36523 l -0.16016,-14.71875 a 0.36000001,0.36000001 0 0 0 -0.36328,-0.35743 z"
         id="path31"
         transform="matrix(1.3333333,0,0,-1.3333333,0,1122.56)" />
      <path
         style="baseline-shift:baseline;display:inline;overflow:visible;opacity:1;vector-effect:none;stroke-linecap:round;stroke-linejoin:round;stroke-miterlimit:10;enable-background:accumulate;stop-color:#000000;stop-opacity:1"
         d="m 159.80664,666.63672 a 0.36000001,0.36000001 0 0 0 -0.49023,0.13672 0.36000001,0.36000001 0 0 0 0.13671,0.49023 l 17.35938,9.76953 a 0.36000001,0.36000001 0 0 0 0.49219,-0.13672 0.36000001,0.36000001 0 0 0 -0.13867,-0.49023 z"
         id="path32"
         transform="matrix(1.3333333,0,0,-1.3333333,0,1122.56)" />
      <path
         style="baseline-shift:baseline;display:inline;overflow:visible;opacity:1;vector-effect:none;stroke-linecap:round;stroke-linejoin:round;stroke-miterlimit:10;enable-background:accumulate;stop-color:#000000;stop-opacity:1"
         d="m 160.05664,706.41992 a 0.36000001,0.36000001 0 0 0 -0.35742,0.36328 l 0.2207,19.91992 a 0.36000001,0.36000001 0 0 0 0.36328,0.35743 0.36000001,0.36000001 0 0 0 0.35742,-0.36524 l -0.2207,-19.91992 a 0.36000001,0.36000001 0 0 0 -0.36328,-0.35547 z"
         id="path33"
         transform="matrix(1.3333333,0,0,-1.3333333,0,1122.56)" />
      <path
         style="baseline-shift:baseline;display:inline;overflow:visible;opacity:1;vector-effect:none;stroke-linecap:round;stroke-linejoin:round;stroke-miterlimit:10;enable-background:accumulate;stop-color:#000000;stop-opacity:1"
         d="m 160.10156,726.38672 -16.51953,9.37109 a 0.36000001,0.36000001 0 0 0 -0.13476,0.49024 0.36000001,0.36000001 0 0 0 0.49023,0.13476 l 16.51953,-9.36914 a 0.36000001,0.36000001 0 0 0 0.13672,-0.49219 0.36000001,0.36000001 0 0 0 -0.49219,-0.13476 z"
         id="path34"
         transform="matrix(1.3333333,0,0,-1.3333333,0,1122.56)" />
      <path
         style="baseline-shift:baseline;display:inline;overflow:visible;opacity:1;vector-effect:none;stroke-linecap:round;stroke-linejoin:round;stroke-miterlimit:10;enable-background:accumulate;stop-color:#000000;stop-opacity:1"
         d="m 158.87305,651.7207 a 0.36000001,0.36000001 0 0 0 -0.3418,0.37696 l 0.73828,14.87109 a 0.36000001,0.36000001 0 0 0 0.37891,0.33984 0.36000001,0.36000001 0 0 0 0.34179,-0.37695 L 159.25,652.0625 a 0.36000001,0.36000001 0 0 0 -0.37695,-0.3418 z"
         id="path35"
         transform="matrix(1.3333333,0,0,-1.3333333,0,1122.56)" />
      <path
         style="baseline-shift:baseline;display:inline;overflow:visible;opacity:1;vector-effect:none;stroke-linecap:round;stroke-linejoin:round;stroke-miterlimit:10;enable-background:accumulate;stop-color:#000000;stop-opacity:1"
         d="m 211.85352,695.92969 a 0.36000001,0.36000001 0 0 0 -0.47266,0.18554 0.36000001,0.36000001 0 0 0 0.18555,0.47461 l 15.56836,6.82032 a 0.36000001,0.36000001 0 0 0 0.4746,-0.18555 0.36000001,0.36000001 0 0 0 -0.18554,-0.47461 z"
         id="path36"
         transform="matrix(1.3333333,0,0,-1.3333333,0,1122.56)" />
      <path
         id="path37"
         d="M 0.763125,1.171875e-4 V -7.1600391 h 0.9726563 l 3.7617187,5.625 v -5.625 H 6.3998438 V 1.171875e-4 H 5.4271875 L 1.6654688,-5.6248828 V 1.171875e-4 Z m 0,0"
         style="fill:#000000;fill-opacity:1;fill-rule:nonzero;stroke:none"
         aria-label="N"
         transform="matrix(1.3333333,0,0,1.3333333,409.92,116.16)" />
      <path
         id="path38"
         d="M 2.0035547,-0.92660156 V -2.4969141 H 0.44496094 v -0.65625 H 2.0035547 v -1.5585937 h 0.6679687 v 1.5585937 h 1.5585938 v 0.65625 H 2.6715234 v 1.57031254 z m 0,0"
         style="fill:#000000;fill-opacity:1;fill-rule:nonzero;stroke:none"
         aria-label="+"
         transform="matrix(1.3333333,0,0,1.3333333,419.52,106.88)" />
      <path
         id="path39"
         d="m 0.48070312,-3.4803516 c 0,-1.1865234 0.31933594,-2.1152343 0.96093748,-2.7890625 0.6386719,-0.6708984 1.4648438,-1.0078125 2.4726563,-1.0078125 0.65625,0 1.2480468,0.1582032 1.78125,0.46875 0.5302734,0.3134766 0.9316406,0.7558594 1.2070312,1.3242188 0.28125,0.5625 0.421875,1.2041015 0.421875,1.921875 0,0.7207031 -0.149414,1.368164 -0.4453125,1.9453125 -0.290039,0.571289 -0.703125,1.0048828 -1.2421875,1.30078124 C 5.10375,-0.02625 4.5266016,0.11730469 3.9025781,0.11730469 c -0.6738281,0 -1.274414,-0.15820313 -1.8046875,-0.48046875 -0.5332031,-0.328125 -0.9345703,-0.77343754 -1.20703123,-1.33593754 -0.27539062,-0.5625 -0.41015625,-1.1542968 -0.41015625,-1.78125 z m 0.98437498,0.011719 c 0,0.8613281 0.2285156,1.5410156 0.6914063,2.0390625 0.4599609,0.49218749 1.0429687,0.73828124 1.7460937,0.73828124 0.7089844,0 1.2949219,-0.24902344 1.7578125,-0.75000004 0.459961,-0.4980468 0.6914063,-1.2099609 0.6914063,-2.1328125 0,-0.5771484 -0.1025391,-1.0839843 -0.3046875,-1.5234375 -0.1962891,-0.4365234 -0.4863282,-0.7734375 -0.8671875,-1.0078125 -0.375,-0.2402343 -0.796875,-0.3632812 -1.265625,-0.3632812 -0.6738282,0 -1.2509766,0.2314453 -1.734375,0.6914062 -0.4775391,0.4628907 -0.7148438,1.2304688 -0.7148438,2.3085938 z m 0,0"
         style="fill:#000000;fill-opacity:1;fill-rule:nonzero;stroke:none"
         aria-label="O"
         transform="matrix(1.3333333,0,0,1.3333333,432.32,76.16)" />
      <path
         id="path40"
         d="m 0.47976563,-3.4814063 c 0,-1.1865234 0.31933593,-2.1152343 0.96093747,-2.7890625 0.6386719,-0.6708984 1.4648438,-1.0078125 2.4726563,-1.0078125 0.65625,0 1.2480469,0.1582032 1.78125,0.46875 0.5302734,0.3134766 0.9316406,0.7558594 1.2070312,1.3242188 0.28125,0.5625 0.421875,1.2041016 0.421875,1.921875 0,0.7207031 -0.149414,1.3681641 -0.4453125,1.9453125 -0.290039,0.5712891 -0.703125,1.00488281 -1.2421875,1.30078125 C 5.1028125,-0.02730469 4.5256641,0.11625 3.9016406,0.11625 3.2278125,0.11625 2.6272266,-0.04195313 2.0969531,-0.36421875 1.56375,-0.69234375 1.1623828,-1.1376563 0.88992188,-1.7001563 c -0.27539063,-0.5625 -0.41015625,-1.1542968 -0.41015625,-1.78125 z m 0.98437497,0.011719 c 0,0.8613281 0.2285157,1.5410156 0.6914063,2.0390625 0.4599609,0.4921875 1.0429687,0.73828125 1.7460937,0.73828125 0.7089844,0 1.2949219,-0.24902344 1.7578125,-0.75000005 0.459961,-0.4980468 0.6914063,-1.2099609 0.6914063,-2.1328125 0,-0.5771484 -0.1025391,-1.0839843 -0.3046875,-1.5234375 -0.1962891,-0.4365234 -0.4863281,-0.7734375 -0.8671875,-1.0078125 -0.375,-0.2402343 -0.796875,-0.3632812 -1.265625,-0.3632812 -0.6738281,0 -1.2509766,0.2314453 -1.734375,0.6914062 -0.4775391,0.4628907 -0.7148438,1.2304688 -0.7148438,2.3085938 z m 0,0"
         style="fill:#000000;fill-opacity:1;fill-rule:nonzero;stroke:none"
         aria-label="O"
         transform="matrix(1.3333333,0,0,1.3333333,367.04,174.72)" />
      <path
         id="path41"
         d="M 0.79792969,-9.375e-4 V -7.1610938 H 1.7471484 v 2.9414063 H 5.4619922 V -7.1610938 H 6.4112109 V -9.375e-4 H 5.4619922 v -3.375 H 1.7471484 v 3.375 z m 0,0"
         style="fill:#000000;fill-opacity:1;fill-rule:nonzero;stroke:none"
         aria-label="H"
         transform="matrix(1.3333333,0,0,1.3333333,357.44,174.72)" />
      <path
         id="path42"
         d="m 0.48058594,-3.4795313 c 0,-1.1865234 0.31933593,-2.1152343 0.96093746,-2.7890625 0.6386719,-0.6708984 1.4648438,-1.0078125 2.4726563,-1.0078125 0.65625,0 1.2480469,0.1582032 1.78125,0.46875 0.5302734,0.3134766 0.9316406,0.7558594 1.2070312,1.3242188 0.28125,0.5625 0.421875,1.2041016 0.421875,1.921875 0,0.7207031 -0.149414,1.3681641 -0.4453125,1.9453125 -0.290039,0.5712891 -0.703125,1.00488281 -1.2421875,1.30078125 C 5.1036328,-0.02542969 4.5264844,0.118125 3.9024609,0.118125 c -0.6738281,0 -1.274414,-0.15820313 -1.8046875,-0.48046875 -0.5332031,-0.328125 -0.9345703,-0.77343755 -1.20703121,-1.33593755 -0.27539063,-0.5625 -0.41015625,-1.1542968 -0.41015625,-1.78125 z m 0.98437496,0.011719 c 0,0.8613281 0.2285157,1.5410156 0.6914063,2.0390625 0.4599609,0.4921875 1.0429687,0.73828125 1.7460937,0.73828125 0.7089844,0 1.2949219,-0.24902344 1.7578125,-0.75000005 0.459961,-0.4980468 0.6914063,-1.2099609 0.6914063,-2.1328125 0,-0.5771484 -0.1025391,-1.0839843 -0.3046875,-1.5234375 -0.1962891,-0.4365234 -0.4863281,-0.7734375 -0.8671875,-1.0078125 -0.375,-0.2402343 -0.796875,-0.3632812 -1.265625,-0.3632812 -0.6738281,0 -1.2509766,0.2314453 -1.734375,0.6914062 -0.4775391,0.4628907 -0.7148438,1.2304688 -0.7148438,2.3085938 z m 0,0"
         style="fill:#000000;fill-opacity:1;fill-rule:nonzero;stroke:none"
         aria-label="O"
         transform="matrix(1.3333333,0,0,1.3333333,460.16,169.28)" />
      <path
         id="path43"
         d="m 0.7959375,9.375e-4 v -7.1601563 h 0.9492187 v 2.9414063 H 5.46 V -7.1592188 H 6.4092187 V 9.375e-4 H 5.46 v -3.375 H 1.7451562 v 3.375 z m 0,0"
         style="fill:#000000;fill-opacity:1;fill-rule:nonzero;stroke:none"
         aria-label="H"
         transform="matrix(1.3333333,0,0,1.3333333,470.72,169.28)" />
      <path
         id="path44"
         d="m 0.47953125,-3.4801172 c 0,-1.1865234 0.31933594,-2.1152344 0.96093745,-2.7890625 0.6386719,-0.6708984 1.4648438,-1.0078125 2.4726563,-1.0078125 0.65625,0 1.2480469,0.1582031 1.78125,0.46875 0.5302734,0.3134766 0.9316406,0.7558594 1.2070312,1.3242188 0.28125,0.5625 0.421875,1.2041015 0.421875,1.921875 0,0.7207031 -0.149414,1.368164 -0.4453125,1.9453125 -0.290039,0.571289 -0.703125,1.00488277 -1.2421875,1.30078121 -0.5332031,0.29003906 -1.1103515,0.43359375 -1.734375,0.43359375 -0.6738281,0 -1.274414,-0.15820312 -1.8046875,-0.48046875 -0.5332031,-0.328125 -0.9345703,-0.77343751 -1.2070312,-1.33593751 -0.27539063,-0.5625 -0.41015625,-1.1542969 -0.41015625,-1.78125 z m 0.98437495,0.011719 c 0,0.8613281 0.2285157,1.5410156 0.6914063,2.0390625 0.4599609,0.49218746 1.0429687,0.73828121 1.7460937,0.73828121 0.7089844,0 1.2949219,-0.24902344 1.7578125,-0.75000001 0.459961,-0.4980469 0.6914063,-1.2099609 0.6914063,-2.1328125 0,-0.5771484 -0.1025391,-1.0839844 -0.3046875,-1.5234375 C 5.8496484,-5.5338281 5.5596094,-5.8707422 5.17875,-6.1051172 4.80375,-6.3453516 4.381875,-6.4683984 3.913125,-6.4683984 c -0.6738281,0 -1.2509766,0.2314453 -1.734375,0.6914062 -0.4775391,0.4628906 -0.7148438,1.2304688 -0.7148438,2.308594 z m 0,0"
         style="fill:#000000;fill-opacity:1;fill-rule:nonzero;stroke:none"
         aria-label="O"
         transform="matrix(1.3333333,0,0,1.3333333,358.72,68.48)" />
      <path
         id="path45"
         d="M 0.79769531,3.515625e-4 V -7.1598047 H 1.7469141 v 2.9414063 H 5.4617578 V -7.1598047 H 6.4109766 V 3.515625e-4 H 5.4617578 V -3.3746484 H 1.7469141 V 3.515625e-4 Z m 0,0"
         style="fill:#000000;fill-opacity:1;fill-rule:nonzero;stroke:none"
         aria-label="H"
         transform="matrix(1.3333333,0,0,1.3333333,349.12,68.48)" />
      <path
         id="path46"
         d="m 5.8699219,-2.5064063 0.9492187,0.234375 c -0.196289,0.7822266 -0.5507812,1.37695317 -1.0664062,1.78125005 -0.515625,0.40722656 -1.1484375,0.609375 -1.8984375,0.609375 -0.7675781,0 -1.3916016,-0.15527344 -1.875,-0.46875 C 1.4929688,-0.66070313 1.1238281,-1.1148047 0.86601563,-1.7095313 c -0.25195313,-0.5917968 -0.375,-1.2333984 -0.375,-1.921875 0,-0.7412109 0.140625,-1.3886718 0.421875,-1.9453125 C 1.2,-6.1304297 1.6072266,-6.5523047 2.1316406,-6.8423438 c 0.5302735,-0.2871093 1.1132813,-0.4335937 1.7460938,-0.4335937 0.7089844,0 1.3066406,0.1845703 1.7929687,0.5507812 0.4921875,0.3603516 0.834961,0.8730469 1.03125,1.5351563 l -0.9375,0.2226562 C 5.6003906,-5.4888281 5.3572266,-5.8696875 5.0378906,-6.1040625 4.7244141,-6.3442969 4.3289063,-6.4673438 3.8542969,-6.4673438 c -0.5478516,0 -1.0078125,0.1347657 -1.3828125,0.3984375 -0.3691406,0.2666016 -0.6269531,0.6210938 -0.7734375,1.0664063 -0.1494141,0.4394531 -0.2226563,0.8964844 -0.2226563,1.3710937 0,0.609375 0.084961,1.1425782 0.2578125,1.59375 0.178711,0.4541016 0.4570313,0.7939454 0.8320313,1.0195313 0.375,0.21972656 0.7792969,0.328125 1.21875,0.328125 0.5302734,0 0.9785156,-0.15234375 1.3476562,-0.4570313 0.366211,-0.3046875 0.6123047,-0.7558593 0.7382813,-1.359375 z m 0,0"
         style="fill:#000000;fill-opacity:1;fill-rule:nonzero;stroke:none"
         aria-label="C"
         transform="matrix(1.3333333,0,0,1.3333333,486.4,97.92)" />
      <path
         id="path47"
         d="M 0.796875,0.00140625 V -7.15875 h 0.9492187 v 2.9414062 H 5.4609375 V -7.15875 H 6.4101562 V 0.00140625 H 5.4609375 V -3.3735938 H 1.7460937 v 3.37500005 z m 0,0"
         style="fill:#000000;fill-opacity:1;fill-rule:nonzero;stroke:none"
         aria-label="H"
         transform="matrix(1.3333333,0,0,1.3333333,496,97.92)" />
      <path
         id="path48"
         d="m 0.34101563,-1.5106641 0.70312497,-0.09375 c 0.076172,0.3984375 0.2138672,0.6884766 0.4101563,0.86718754 0.1933594,0.17285156 0.4277344,0.2578125 0.703125,0.2578125 0.3339844,0 0.6152344,-0.11132813 0.84375,-0.33984375 0.2255859,-0.23437499 0.3398437,-0.51855469 0.3398437,-0.85546879 0,-0.3193359 -0.1054687,-0.5859375 -0.3164062,-0.796875 -0.2109375,-0.2109375 -0.4804688,-0.3164062 -0.8085938,-0.3164062 -0.1347656,0 -0.2988281,0.029297 -0.4921875,0.082031 l 0.082031,-0.6210937 c 0.046875,0.00879 0.082031,0.011719 0.1054687,0.011719 0.3046875,0 0.5742188,-0.076172 0.8085938,-0.234375 0.2402344,-0.1552734 0.3632812,-0.3984375 0.3632812,-0.7265625 0,-0.2578125 -0.09082,-0.4716797 -0.2695312,-0.6445312 C 2.64082,-5.0907421 2.4181638,-5.1786327 2.1457028,-5.1786327 c -0.2753906,0 -0.5039062,0.087891 -0.6914062,0.2578125 -0.1816406,0.1728515 -0.2929688,0.430664 -0.3398438,0.7734375 L 0.41132813,-4.2645703 c 0.0849609,-0.4746094 0.28125,-0.84375 0.5859375,-1.1015625 0.30468747,-0.2578125 0.68261717,-0.3867188 1.13671877,-0.3867188 0.3105469,0 0.5976562,0.067383 0.8554687,0.1992188 0.2636719,0.1347656 0.46875,0.3164062 0.609375,0.5507812 0.140625,0.234375 0.2109375,0.4804688 0.2109375,0.7382813 0,0.2519531 -0.067383,0.477539 -0.1992187,0.6796875 -0.1347656,0.2050781 -0.3339844,0.3632812 -0.5976563,0.4804687 0.3427735,0.079102 0.609375,0.2431641 0.796875,0.4921875 0.1875,0.2431641 0.28125,0.5507813 0.28125,0.9257813 0,0.5009765 -0.1845703,0.92578124 -0.5507812,1.27734374 -0.3691406,0.34570312 -0.8291016,0.515625 -1.3828125,0.515625 -0.5009766,0 -0.9199219,-0.14648438 -1.25390627,-0.4453125 -0.328125,-0.3046875 -0.515625,-0.69433594 -0.5625,-1.17187504 z m 0,0"
         style="fill:#000000;fill-opacity:1;fill-rule:nonzero;stroke:none"
         aria-label="3"
         transform="matrix(1.3333333,0,0,1.3333333,505.6,101.44)" />
      <path
         style="baseline-shift:baseline;display:inline;overflow:visible;opacity:1;vector-effect:none;stroke-linecap:round;stroke-linejoin:round;stroke-miterlimit:10;enable-background:accumulate;stop-color:#000000;stop-opacity:1"
         d="m 345.48437,758.85547 -17.36132,9.77148 a 0.36000001,0.36000001 0 0 0 -0.13672,0.49024 0.36000001,0.36000001 0 0 0 0.49023,0.13672 l 17.35938,-9.76954 a 0.36000001,0.36000001 0 0 0 0.13867,-0.49023 0.36000001,0.36000001 0 0 0 -0.49024,-0.13867 z"
         id="path49"
         transform="matrix(1.3333333,0,0,-1.3333333,0,1122.56)" />
      <path
         style="baseline-shift:baseline;display:inline;overflow:visible;opacity:1;vector-effect:none;stroke-linecap:round;stroke-linejoin:round;stroke-miterlimit:10;enable-background:accumulate;stop-color:#000000;stop-opacity:1"
         d="m 320.34375,763.81055 a 0.36000001,0.36000001 0 0 0 -0.49414,0.12695 0.36000001,0.36000001 0 0 0 0.12695,0.49219 l 8.14063,4.82031 a 0.36000001,0.36000001 0 0 0 0.49218,-0.12695 0.36000001,0.36000001 0 0 0 -0.125,-0.49219 z"
         id="path50"
         transform="matrix(1.3333333,0,0,-1.3333333,0,1122.56)" />
      <path
         style="baseline-shift:baseline;display:inline;overflow:visible;opacity:1;vector-effect:none;stroke-linecap:round;stroke-linejoin:round;stroke-miterlimit:10;enable-background:accumulate;stop-color:#000000;stop-opacity:1"
         d="m 329.98437,768.59961 a 0.36000001,0.36000001 0 0 0 -0.36523,0.35742 l -0.1582,14.63867 a 0.36000001,0.36000001 0 0 0 0.35547,0.36524 0.36000001,0.36000001 0 0 0 0.36328,-0.35742 l 0.16015,-14.63868 a 0.36000001,0.36000001 0 0 0 -0.35547,-0.36523 z"
         id="path51"
         transform="matrix(1.3333333,0,0,-1.3333333,0,1122.56)" />
      <path
         style="baseline-shift:baseline;display:inline;overflow:visible;opacity:1;vector-effect:none;stroke-linecap:round;stroke-linejoin:round;stroke-miterlimit:10;enable-background:accumulate;stop-color:#000000;stop-opacity:1"
         d="m 326.62305,768.56055 a 0.36000001,0.36000001 0 0 0 -0.36328,0.35547 l -0.16016,14.67968 a 0.36000001,0.36000001 0 0 0 0.35742,0.36524 0.36000001,0.36000001 0 0 0 0.36328,-0.35742 l 0.16016,-14.67969 a 0.36000001,0.36000001 0 0 0 -0.35742,-0.36328 z"
         id="path52"
         transform="matrix(1.3333333,0,0,-1.3333333,0,1122.56)" />
      <path
         style="baseline-shift:baseline;display:inline;overflow:visible;opacity:1;vector-effect:none;stroke-linecap:round;stroke-linejoin:round;stroke-miterlimit:10;enable-background:accumulate;stop-color:#000000;stop-opacity:1"
         d="m 306.30273,761.11719 -12.67968,7.13867 a 0.36000001,0.36000001 0 0 0 -0.13672,0.49023 0.36000001,0.36000001 0 0 0 0.49023,0.13672 l 12.67969,-7.13867 a 0.36000001,0.36000001 0 0 0 0.13672,-0.49023 0.36000001,0.36000001 0 0 0 -0.49024,-0.13672 z"
         id="path53"
         transform="matrix(1.3333333,0,0,-1.3333333,0,1122.56)" />
      <path
         style="baseline-shift:baseline;display:inline;overflow:visible;opacity:1;vector-effect:none;stroke-linecap:round;stroke-linejoin:round;stroke-miterlimit:10;enable-background:accumulate;stop-color:#000000;stop-opacity:1"
         d="m 291.24414,739.82617 a 0.36000001,0.36000001 0 0 0 -0.50781,0.0195 0.36000001,0.36000001 0 0 0 0.0195,0.50782 l 15.47851,14.36132 a 0.36000001,0.36000001 0 0 0 0.50977,-0.0195 0.36000001,0.36000001 0 0 0 -0.0195,-0.50976 z"
         id="path54"
         transform="matrix(1.3333333,0,0,-1.3333333,0,1122.56)" />
      <path
         style="baseline-shift:baseline;display:inline;overflow:visible;opacity:1;vector-effect:none;stroke-linecap:round;stroke-linejoin:round;stroke-miterlimit:10;enable-background:accumulate;stop-color:#000000;stop-opacity:1"
         d="m 328.34375,748.70703 -12.91992,7.2793 a 0.36000001,0.36000001 0 0 0 -0.13672,0.49023 0.36000001,0.36000001 0 0 0 0.49023,0.13672 l 12.91993,-7.2793 a 0.36000001,0.36000001 0 0 0 0.13671,-0.49023 0.36000001,0.36000001 0 0 0 -0.49023,-0.13672 z"
         id="path55"
         transform="matrix(1.3333333,0,0,-1.3333333,0,1122.56)" />
      <path
         style="baseline-shift:baseline;display:inline;overflow:visible;opacity:1;vector-effect:none;stroke-linecap:round;stroke-linejoin:round;stroke-miterlimit:10;enable-background:accumulate;stop-color:#000000;stop-opacity:1"
         d="m 295.39648,725.85547 a 0.36000001,0.36000001 0 0 0 -0.45117,0.23828 l -4.28906,13.89062 a 0.36000001,0.36000001 0 0 0 0.23828,0.44922 0.36000001,0.36000001 0 0 0 0.44922,-0.23828 l 4.29102,-13.88867 a 0.36000001,0.36000001 0 0 0 -0.23829,-0.45117 z"
         id="path56"
         transform="matrix(1.3333333,0,0,-1.3333333,0,1122.56)" />
      <path
         style="baseline-shift:baseline;display:inline;overflow:visible;opacity:1;vector-effect:none;stroke-linecap:round;stroke-linejoin:round;stroke-miterlimit:10;enable-background:accumulate;stop-color:#000000;stop-opacity:1"
         d="m 328.74414,728.74023 a 0.36000001,0.36000001 0 0 0 -0.36328,0.35547 l -0.2207,19.91992 a 0.36000001,0.36000001 0 0 0 0.35546,0.36524 0.36000001,0.36000001 0 0 0 0.36524,-0.35742 l 0.21875,-19.91992 a 0.36000001,0.36000001 0 0 0 -0.35547,-0.36329 z"
         id="path57"
         transform="matrix(1.3333333,0,0,-1.3333333,0,1122.56)" />
      <path
         style="baseline-shift:baseline;display:inline;overflow:visible;opacity:1;vector-effect:none;stroke-linecap:round;stroke-linejoin:round;stroke-miterlimit:10;enable-background:accumulate;stop-color:#000000;stop-opacity:1"
         d="m 293.80469,768.21094 a 0.36000001,0.36000001 0 0 0 -0.36524,0.35547 l -0.21875,19.91015 a 0.36000001,0.36000001 0 0 0 0.35547,0.36328 0.36000001,0.36000001 0 0 0 0.36328,-0.35547 l 0.22071,-19.91015 a 0.36000001,0.36000001 0 0 0 -0.35547,-0.36328 z"
         id="path58"
         transform="matrix(1.3333333,0,0,-1.3333333,0,1122.56)" />
      <path
         style="baseline-shift:baseline;display:inline;overflow:visible;opacity:1;vector-effect:none;stroke-linecap:round;stroke-linejoin:round;stroke-miterlimit:10;enable-background:accumulate;stop-color:#000000;stop-opacity:1"
         d="m 284.36719,718.10547 a 0.36000001,0.36000001 0 0 0 -0.50196,0.0879 0.36000001,0.36000001 0 0 0 0.0879,0.50195 l 11.13086,7.79883 a 0.36000001,0.36000001 0 0 0 0.5,-0.0879 0.36000001,0.36000001 0 0 0 -0.0879,-0.50195 z"
         id="path59"
         transform="matrix(1.3333333,0,0,-1.3333333,0,1122.56)" />
      <path
         style="baseline-shift:baseline;display:inline;overflow:visible;opacity:1;vector-effect:none;stroke-linecap:round;stroke-linejoin:round;stroke-miterlimit:10;enable-background:accumulate;stop-color:#000000;stop-opacity:1"
         d="m 344,721.09766 -15.41992,7.67968 a 0.36000001,0.36000001 0 0 0 -0.16211,0.48243 0.36000001,0.36000001 0 0 0 0.48242,0.1621 l 15.41992,-7.67968 a 0.36000001,0.36000001 0 0 0 0.16211,-0.48242 A 0.36000001,0.36000001 0 0 0 344,721.09766 Z"
         id="path60"
         transform="matrix(1.3333333,0,0,-1.3333333,0,1122.56)" />
      <path
         style="baseline-shift:baseline;display:inline;overflow:visible;opacity:1;vector-effect:none;stroke-linecap:round;stroke-linejoin:round;stroke-miterlimit:10;enable-background:accumulate;stop-color:#000000;stop-opacity:1"
         d="m 293.48047,788.13477 -15.66016,4.53906 a 0.36000001,0.36000001 0 0 0 -0.24609,0.44726 0.36000001,0.36000001 0 0 0 0.44531,0.24414 l 15.66016,-4.53906 a 0.36000001,0.36000001 0 0 0 0.24609,-0.44726 0.36000001,0.36000001 0 0 0 -0.44531,-0.24414 z"
         id="path61"
         transform="matrix(1.3333333,0,0,-1.3333333,0,1122.56)" />
      <path
         style="baseline-shift:baseline;display:inline;overflow:visible;opacity:1;vector-effect:none;stroke-linecap:round;stroke-linejoin:round;stroke-miterlimit:10;enable-background:accumulate;stop-color:#000000;stop-opacity:1"
         d="m 345.83984,758.85742 a 0.36000001,0.36000001 0 0 0 -0.49218,0.13281 0.36000001,0.36000001 0 0 0 0.13281,0.49219 l 18.17969,10.46875 a 0.36000001,0.36000001 0 0 0 0.49218,-0.13086 0.36000001,0.36000001 0 0 0 -0.13281,-0.49219 z"
         id="path62"
         transform="matrix(1.3333333,0,0,-1.3333333,0,1122.56)" />
      <g
         id="path63"
         style="opacity:1"
         transform="matrix(1.3333333,0,0,-1.3333333,0,1122.56)">
        <path
           style="baseline-shift:baseline;display:inline;overflow:visible;vector-effect:none;fill-rule:evenodd;stroke-linecap:round;stroke-linejoin:round;stroke-miterlimit:10;enable-background:accumulate;stop-color:#000000;stop-opacity:1"
           d="m 137.04,786.24 h 2.88 V 786 h -2.16 v -23.52 h 2.16 v -0.24 h -2.88 z"
           id="path143" />
        <path
           style="baseline-shift:baseline;display:inline;overflow:visible;vector-effect:none;fill-rule:evenodd;stroke-linecap:round;stroke-linejoin:round;stroke-miterlimit:10;enable-background:accumulate;stop-color:#000000;stop-opacity:1"
           d="m 137.03906,762.22852 a 0.0120012,0.0120012 0 0 0 -0.0117,0.0117 v 24 a 0.0120012,0.0120012 0 0 0 0.0117,0.0117 h 2.88086 a 0.0120012,0.0120012 0 0 0 0.0117,-0.0117 V 786 a 0.0120012,0.0120012 0 0 0 -0.0117,-0.0117 h -2.14844 v -23.49609 h 2.14844 a 0.0120012,0.0120012 0 0 0 0.0117,-0.0117 v -0.24024 a 0.0120012,0.0120012 0 0 0 -0.0117,-0.0117 z m 0.0137,0.0234 h 2.85547 v 0.2168 h -2.14843 a 0.0120012,0.0120012 0 0 0 -0.0117,0.0117 V 786 a 0.0120012,0.0120012 0 0 0 0.0117,0.0117 h 2.14843 v 0.2168 h -2.85547 z"
           id="path144" />
      </g>
      <g
         id="path64"
         style="opacity:1"
         transform="matrix(1.3333333,0,0,-1.3333333,0,1122.56)">
        <path
           style="baseline-shift:baseline;display:inline;overflow:visible;vector-effect:none;fill-rule:evenodd;stroke-linecap:round;stroke-linejoin:round;stroke-miterlimit:10;enable-background:accumulate;stop-color:#000000;stop-opacity:1"
           d="m 154.56,762.24 h -2.88 v 0.24 h 2.16 V 786 h -2.16 v 0.24 h 2.88 z"
           id="path145" />
        <path
           style="baseline-shift:baseline;display:inline;overflow:visible;vector-effect:none;fill-rule:evenodd;stroke-linecap:round;stroke-linejoin:round;stroke-miterlimit:10;enable-background:accumulate;stop-color:#000000;stop-opacity:1"
           d="m 151.67969,762.22852 a 0.0120012,0.0120012 0 0 0 -0.0117,0.0117 v 0.24024 a 0.0120012,0.0120012 0 0 0 0.0117,0.0117 h 2.14843 v 23.49609 h -2.14843 A 0.0120012,0.0120012 0 0 0 151.66797,786 v 0.24023 a 0.0120012,0.0120012 0 0 0 0.0117,0.0117 h 2.88086 a 0.0120012,0.0120012 0 0 0 0.0117,-0.0117 v -24 a 0.0120012,0.0120012 0 0 0 -0.0117,-0.0117 z m 0.0117,0.0234 h 2.85742 v 23.97657 h -2.85742 v -0.2168 h 2.14843 A 0.0120012,0.0120012 0 0 0 153.85156,786 v -23.51953 a 0.0120012,0.0120012 0 0 0 -0.0117,-0.0117 h -2.14843 z"
           id="path146" />
      </g>
      <path
         id="path65"
         d="M 0.328125,-8.203125e-4 1.4179687,-5.1805078 h 0.7968751 l -0.1875,0.9023437 C 2.3701172,-4.6355859 2.6953125,-4.8933984 3,-5.0516016 c 0.3046875,-0.1640625 0.6123047,-0.2460937 0.9257813,-0.2460937 0.4218749,0 0.7499999,0.1142578 0.9843749,0.3398437 0.2402344,0.2285157 0.3632813,0.5332032 0.3632813,0.9140625 0,0.1875 -0.043945,0.4892579 -0.1289063,0.9023438 l -0.65625,3.1406249875 H 3.609375 L 4.3007812,-3.2820703 c 0.061523,-0.3193359 0.09375,-0.5566406 0.09375,-0.7148438 0,-0.1699218 -0.058594,-0.3076171 -0.1757812,-0.4101562 -0.1171875,-0.1083984 -0.2900391,-0.1640625 -0.515625,-0.1640625 -0.4541016,0 -0.8554687,0.1640625 -1.2070312,0.4921875 -0.3515625,0.3222656 -0.6093751,0.8759766 -0.7734376,1.6640625 L 1.21875,-8.203125e-4 Z m 0,0"
         style="fill:#000000;fill-opacity:1;fill-rule:nonzero;stroke:none"
         aria-label="n"
         transform="matrix(1.3333333,0,0,1.3333333,208,114.88)" />
      <g
         id="path66"
         style="opacity:1"
         transform="matrix(1.3333333,0,0,-1.3333333,0,1122.56)">
        <path
           style="baseline-shift:baseline;display:inline;overflow:visible;vector-effect:none;fill-rule:evenodd;stroke-linecap:round;stroke-linejoin:round;stroke-miterlimit:10;enable-background:accumulate;stop-color:#000000;stop-opacity:1"
           d="m 203.04,713.28 h 2.88 v -0.24 h -2.16 v -23.52 h 2.16 v -0.24 h -2.88 z"
           id="path147" />
        <path
           style="baseline-shift:baseline;display:inline;overflow:visible;vector-effect:none;fill-rule:evenodd;stroke-linecap:round;stroke-linejoin:round;stroke-miterlimit:10;enable-background:accumulate;stop-color:#000000;stop-opacity:1"
           d="m 203.03906,689.26758 a 0.0120012,0.0120012 0 0 0 -0.0117,0.0117 v 24 a 0.0120012,0.0120012 0 0 0 0.0117,0.0137 h 2.88086 a 0.0120012,0.0120012 0 0 0 0.0117,-0.0137 v -0.24024 a 0.0120012,0.0120012 0 0 0 -0.0117,-0.0117 h -2.14844 v -23.49609 h 2.14844 a 0.0120012,0.0120012 0 0 0 0.0117,-0.0117 v -0.24023 a 0.0120012,0.0120012 0 0 0 -0.0117,-0.0117 z m 0.0137,0.0254 h 2.85547 v 0.21484 h -2.14843 a 0.0120012,0.0120012 0 0 0 -0.0117,0.0117 v 23.51953 a 0.0120012,0.0120012 0 0 0 0.0117,0.0137 h 2.14843 v 0.21485 h -2.85547 z"
           id="path148" />
      </g>
      <g
         id="path67"
         style="opacity:1"
         transform="matrix(1.3333333,0,0,-1.3333333,0,1122.56)">
        <path
           style="baseline-shift:baseline;display:inline;overflow:visible;vector-effect:none;fill-rule:evenodd;stroke-linecap:round;stroke-linejoin:round;stroke-miterlimit:10;enable-background:accumulate;stop-color:#000000;stop-opacity:1"
           d="m 221.76,688.56 h -2.88 v 0.24 h 2.16 v 23.52 h -2.16 v 0.24 h 2.88 z"
           id="path149" />
        <path
           style="baseline-shift:baseline;display:inline;overflow:visible;vector-effect:none;fill-rule:evenodd;stroke-linecap:round;stroke-linejoin:round;stroke-miterlimit:10;enable-background:accumulate;stop-color:#000000;stop-opacity:1"
           d="m 218.88086,688.54883 a 0.0120012,0.0120012 0 0 0 -0.0137,0.0117 v 0.24023 a 0.0120012,0.0120012 0 0 0 0.0137,0.0117 h 2.14648 v 23.49609 h -2.14648 a 0.0120012,0.0120012 0 0 0 -0.0137,0.0117 v 0.24024 a 0.0120012,0.0120012 0 0 0 0.0137,0.0117 h 2.87891 a 0.0120012,0.0120012 0 0 0 0.0117,-0.0117 v -24 a 0.0120012,0.0120012 0 0 0 -0.0117,-0.0117 z m 0.0117,0.0234 h 2.85547 v 23.97656 h -2.85547 v -0.2168 h 2.14648 a 0.0120012,0.0120012 0 0 0 0.0137,-0.0117 v -23.51953 a 0.0120012,0.0120012 0 0 0 -0.0137,-0.0137 h -2.14648 z"
           id="path150" />
      </g>
      <path
         id="path68"
         d="M 0.32929688,8.203125e-4 1.4191406,-5.1788672 h 0.796875 l -0.1875,0.9023438 c 0.3427735,-0.3574219 0.6679688,-0.6152344 0.9726563,-0.7734375 0.3046875,-0.1640625 0.6123047,-0.2460938 0.9257812,-0.2460938 0.421875,0 0.75,0.1142578 0.984375,0.3398438 0.2402344,0.2285156 0.3632813,0.5332031 0.3632813,0.9140625 0,0.1875 -0.043945,0.4892578 -0.1289063,0.9023437 L 4.4894531,8.203125e-4 H 3.6105469 L 4.3019531,-3.2804297 c 0.061523,-0.3193359 0.09375,-0.5566406 0.09375,-0.7148437 0,-0.1699219 -0.058594,-0.3076172 -0.1757812,-0.4101563 -0.1171875,-0.1083984 -0.2900391,-0.1640625 -0.515625,-0.1640625 -0.4541016,0 -0.8554688,0.1640625 -1.2070313,0.4921875 -0.3515625,0.3222656 -0.609375,0.8759766 -0.7734375,1.6640625 L 1.2199219,8.203125e-4 Z m 0,0"
         style="fill:#000000;fill-opacity:1;fill-rule:nonzero;stroke:none"
         aria-label="n"
         transform="matrix(1.3333333,0,0,1.3333333,297.6,213.12)" />
      <g
         id="path69"
         style="opacity:1"
         transform="matrix(1.3333333,0,0,-1.3333333,0,1122.56)">
        <path
           style="baseline-shift:baseline;display:inline;overflow:visible;vector-effect:none;fill-rule:evenodd;stroke-linecap:round;stroke-linejoin:round;stroke-miterlimit:10;enable-background:accumulate;stop-color:#000000;stop-opacity:1"
           d="m 336.96,776.16 h 2.88 v -0.24 h -2.16 V 752.4 h 2.16 v -0.24 h -2.88 z"
           id="path151" />
        <path
           style="baseline-shift:baseline;display:inline;overflow:visible;vector-effect:none;fill-rule:evenodd;stroke-linecap:round;stroke-linejoin:round;stroke-miterlimit:10;enable-background:accumulate;stop-color:#000000;stop-opacity:1"
           d="m 336.96094,752.14844 a 0.0120012,0.0120012 0 0 0 -0.0137,0.0117 v 24 a 0.0120012,0.0120012 0 0 0 0.0137,0.0117 h 2.8789 a 0.0120012,0.0120012 0 0 0 0.0117,-0.0117 v -0.24024 a 0.0120012,0.0120012 0 0 0 -0.0117,-0.0117 h -2.14843 v -23.49609 h 2.14843 a 0.0120012,0.0120012 0 0 0 0.0117,-0.0117 v -0.24023 a 0.0120012,0.0120012 0 0 0 -0.0117,-0.0117 z m 0.0117,0.0234 h 2.85546 v 0.2168 h -2.14843 a 0.0120012,0.0120012 0 0 0 -0.0117,0.0117 v 23.51953 a 0.0120012,0.0120012 0 0 0 0.0117,0.0117 h 2.14843 v 0.2168 h -2.85546 z"
           id="path152" />
      </g>
      <g
         id="path70"
         style="opacity:1"
         transform="matrix(1.3333333,0,0,-1.3333333,0,1122.56)">
        <path
           style="baseline-shift:baseline;display:inline;overflow:visible;vector-effect:none;fill-rule:evenodd;stroke-linecap:round;stroke-linejoin:round;stroke-miterlimit:10;enable-background:accumulate;stop-color:#000000;stop-opacity:1"
           d="m 357.12,753.84 h -2.88 v 0.24 h 2.16 v 23.52 h -2.16 v 0.24 h 2.88 z"
           id="path153" />
        <path
           style="baseline-shift:baseline;display:inline;overflow:visible;vector-effect:none;fill-rule:evenodd;stroke-linecap:round;stroke-linejoin:round;stroke-miterlimit:10;enable-background:accumulate;stop-color:#000000;stop-opacity:1"
           d="m 354.24023,753.82812 a 0.0120012,0.0120012 0 0 0 -0.0117,0.0117 v 0.24024 a 0.0120012,0.0120012 0 0 0 0.0117,0.0117 h 2.14844 v 23.49609 h -2.14844 a 0.0120012,0.0120012 0 0 0 -0.0117,0.0117 v 0.24023 a 0.0120012,0.0120012 0 0 0 0.0117,0.0117 h 2.87891 a 0.0120012,0.0120012 0 0 0 0.0137,-0.0117 v -24 a 0.0120012,0.0120012 0 0 0 -0.0137,-0.0117 z m 0.0117,0.0234 h 2.85547 v 23.97656 h -2.85547 v -0.21679 h 2.14844 a 0.0120012,0.0120012 0 0 0 0.0117,-0.0117 v -23.51953 a 0.0120012,0.0120012 0 0 0 -0.0117,-0.0117 h -2.14844 z"
           id="path154" />
      </g>
      <path
         id="path71"
         d="M 0.32671875,-0.00140625 1.4165625,-5.1810938 h 0.796875 l -0.1875,0.9023438 C 2.3687109,-4.6361719 2.6939062,-4.8939844 2.9985937,-5.0521875 3.3032812,-5.21625 3.6108984,-5.2982813 3.924375,-5.2982813 c 0.421875,0 0.75,0.1142579 0.984375,0.3398438 0.2402344,0.2285156 0.3632812,0.5332031 0.3632812,0.9140625 0,0.1875 -0.043945,0.4892578 -0.1289062,0.9023437 l -0.65625,3.14062505 H 3.6079687 L 4.299375,-3.2826563 c 0.061523,-0.3193359 0.09375,-0.5566406 0.09375,-0.7148437 0,-0.1699219 -0.058594,-0.3076172 -0.1757813,-0.4101563 -0.1171875,-0.1083984 -0.290039,-0.1640625 -0.515625,-0.1640625 -0.4541015,0 -0.8554687,0.1640625 -1.2070312,0.4921875 -0.3515625,0.3222657 -0.609375,0.8759766 -0.7734375,1.6640625 l -0.5039063,2.41406255 z m 0,0"
         style="fill:#000000;fill-opacity:1;fill-rule:nonzero;stroke:none"
         aria-label="n"
         transform="matrix(1.3333333,0,0,1.3333333,478.08,126.08)" />
    </g>
  </g>
</svg>
