<?xml version="1.0" encoding="UTF-8" standalone="no"?>
<!-- Created with Inkscape (http://www.inkscape.org/) -->

<svg
   version="1.1"
   id="svg1"
   width="635.95038"
   height="222.65556"
   viewBox="0 0 635.95038 222.65556"
   sodipodi:docname="cremophor.svg"
   inkscape:version="1.4.2 (f4327f4, 2025-05-13)"
   xmlns:inkscape="http://www.inkscape.org/namespaces/inkscape"
   xmlns:sodipodi="http://sodipodi.sourceforge.net/DTD/sodipodi-0.dtd"
   xmlns="http://www.w3.org/2000/svg"
   xmlns:svg="http://www.w3.org/2000/svg">
  <defs
     id="defs1" />
  <sodipodi:namedview
     id="namedview1"
     pagecolor="#ffffff"
     bordercolor="#000000"
     borderopacity="0.25"
     inkscape:showpageshadow="2"
     inkscape:pageopacity="0.0"
     inkscape:pagecheckerboard="0"
     inkscape:deskcolor="#d1d1d1"
     inkscape:zoom="1.4464106"
     inkscape:cx="230.57076"
     inkscape:cy="335.3128"
     inkscape:window-width="1920"
     inkscape:window-height="1111"
     inkscape:window-x="-9"
     inkscape:window-y="-9"
     inkscape:window-maximized="1"
     inkscape:current-layer="g1" />
  <g
     inkscape:groupmode="layer"
     inkscape:label="Image"
     id="g1"
     transform="translate(9.3496109,226.7033)">
    <path
       style="fill:#000000"
       d="m 451.60832,-4.4487067 c -1.65827,-0.59141 -2.41394,-1.3277 -3.30105,-3.21638 -2.30881,-4.9155103 0.70824,-10.3881403 5.73251,-10.3982103 2.12667,-0.004 4.40293,1.55056 5.38491,3.67821 1.2311,2.66744 0.56531,6.9372203 -1.35734,8.7047303 -1.734,1.59409 -4.15068,2.05492 -6.45903,1.23165 z m 4.25184,-1.61155 c 3.23678,-1.6738 3.40822,-7.8424603 0.27111,-9.7550903 -2.13881,-1.30399 -5.08003,-0.52149 -6.22493,1.65611 -0.36068,0.68602 -0.55423,1.78054 -0.55423,3.13415 0,2.4569703 0.64094,3.9032403 2.13293,4.8129603 1.22012,0.74395 3.10373,0.80934 4.37512,0.15187 z m 6.72934,-4.9648303 v -6.72 h 0.8 c 0.79059,0 0.8,0.032 0.8,2.72 v 2.72 h 3.52 3.52 v -2.72 c 0,-2.688 0.009,-2.72 0.8,-2.72 h 0.8 v 6.72 6.7200003 h -0.8 -0.8 v -3.2 -3.2000003 h -3.52 -3.52 v 3.2000003 3.2 h -0.8 -0.8 z m -9.06666,-8.85333 c -0.11734,-0.11733 -0.22763,-4.11333 -0.2451,-8.88 -0.0175,-4.76666 -0.12547,-9.87153 -0.24,-11.34415 l -0.20824,-2.67749 -13.59493,-7.61509 c -7.47721,-4.1883 -13.66921,-7.57498 -13.76,-7.52596 -0.0908,0.049 -6.26241,3.71362 -13.71472,8.14356 l -13.54965,8.05443 -19.33742,0.27238 -19.33743,0.27239 -13.88217,-7.97155 -13.88218,-7.97154 -13.78835,8.00818 c -7.58359,4.4045 -13.92179,8.00818 -14.0849,8.00818 -0.1631,0 -6.45728,-3.53719 -13.98705,-7.86042 -7.52978,-4.32323 -13.91341,-7.80208 -14.18585,-7.73078 -0.27244,0.0713 -6.60015,3.67915 -14.06157,8.01745 l -13.56622,7.88782 -13.47378,-7.7318 c -7.41058,-4.2525 -13.69343,-7.8656 -13.96188,-8.02912 -0.36492,-0.22227 -3.98743,1.73508 -14.35405,7.75594 -7.62627,4.42929 -14.06516,7.9768 -14.30864,7.88337 -0.24348,-0.0934 -6.51471,-3.65496 -13.93606,-7.9145 -7.42136,-4.25955 -13.65082,-7.74402 -13.84326,-7.74327 -0.19244,7.4e-4 -6.21789,2.34061 -13.38989,5.1997 l -13.04,5.19835 v 6.53363 6.53363 h -2.08 c -1.17333,0 -2.08,-0.13949 -2.08,-0.32 0,-0.176 0.648,-0.32 1.44,-0.32 h 1.44 v -5.92 c 0,-3.256 -0.0592,-5.92 -0.13152,-5.92 -0.0723,0 -0.93925,0.30909 -1.92646,0.68688 -0.98721,0.37778 -1.88181,0.59999 -1.98801,0.4938 -0.47298,-0.47299 0.29521,-1.13602 2.09678,-1.80976 l 1.94921,-0.72896 v -8.92098 -8.92098 h -1.44 c -0.792,0 -1.44,-0.144 -1.44,-0.32 0,-0.18044 0.90501,-0.32 2.07502,-0.32 h 2.07501 l 0.085,8.92607 0.085,8.92607 11.2,-4.47456 11.2,-4.47457 -0.0911,-12.1571 c -0.0863,-11.523 -0.0613,-12.15137 0.48,-12.0472 0.5339,0.10275 0.57653,0.87502 0.65501,11.86559 0.0462,6.46563 0.15126,11.7557 0.23353,11.7557 0.0823,0 0.74704,-0.23906 1.47727,-0.53124 0.94746,-0.3791 1.47655,-0.43827 1.84747,-0.20663 2.69719,1.68442 27.12579,15.56236 27.38148,15.55548 0.18497,-0.005 6.43432,-3.55698 13.88744,-7.89334 7.45311,-4.33635 13.72799,-7.88427 13.94417,-7.88427 0.21617,0 6.5509,3.53851 14.07718,7.86337 7.98567,4.58884 13.88145,7.78766 14.15797,7.68155 0.26061,-0.10001 6.47587,-3.6592 13.81169,-7.90933 7.33582,-4.25012 13.43451,-7.7803 13.55263,-7.84484 0.11813,-0.0645 6.49891,3.48415 14.17951,7.88597 l 13.96474,8.00331 13.77181,-8.00002 c 7.57449,-4.40001 13.90527,-8.00001 14.06839,-8.00001 0.16312,0 6.56522,3.59852 14.22688,7.99673 l 13.93029,7.99673 18.94181,-0.24583 18.9418,-0.24583 13.52297,-8.08208 c 7.43763,-4.44515 13.72532,-8.15974 13.97265,-8.25465 0.24732,-0.0949 6.61799,3.28241 14.15703,7.50514 7.53904,4.22274 13.85969,7.72542 14.04588,7.78374 0.18618,0.0583 6.46143,-3.52995 13.94498,-7.97395 7.48355,-4.444 13.77564,-8.08 13.98242,-8.08 0.20679,0 6.5786,3.47407 14.15958,7.72017 11.80462,6.61174 13.88346,7.67415 14.47905,7.39965 0.38249,-0.17629 6.64222,-3.86322 13.9105,-8.19318 l 13.21506,-7.87267 13.34494,7.46798 c 7.33972,4.10738 13.67818,7.64224 14.08546,7.85525 0.67818,0.35467 1.90264,-0.30489 14.54314,-7.83373 l 13.80261,-8.22101 0.97687,0.53145 c 12.23399,6.65581 27.55505,15.52602 27.64763,16.00676 0.0874,0.45381 -0.0341,0.55218 -0.52378,0.42412 -0.35067,-0.0917 -6.73719,-3.58856 -14.19228,-7.7708 -7.45509,-4.18224 -13.69871,-7.60207 -13.87471,-7.59962 -0.176,0.002 -6.296,3.57045 -13.6,7.92888 -7.304,4.35843 -13.52224,7.99094 -13.81832,8.07224 -0.31183,0.0856 -6.35474,-3.11036 -14.36228,-7.59594 -11.96509,-6.70248 -13.91983,-7.70007 -14.53699,-7.41888 -0.39216,0.17868 -6.65863,3.86776 -13.92548,8.19794 l -13.21245,7.87306 -14.04711,-7.86867 -14.04711,-7.86867 -1.18513,0.69794 c -0.65182,0.38387 -6.76243,4.00973 -13.57913,8.05746 l -12.394,7.35952 0.20585,11.48537 c 0.18051,10.07178 0.14695,11.48537 -0.27267,11.48537 -0.26318,0 -0.57451,-0.096 -0.69184,-0.21333 z m -311.64529,-4.76548 c -1.16747,-0.63356 -1.52815,-1.39861 -1.52755,-3.24015 0.001,-4.09845 3.84143,-6.64092 6.47445,-4.28661 0.95801,0.8566 1.04422,1.09055 1.03504,2.80898 -0.0204,3.8254 -3.12072,6.27051 -5.98194,4.71778 z m 3.17408,-1.26065 c 0.88631,-0.6208 1.83295,-3.09877 1.57556,-4.12428 -0.84388,-3.3623 -4.99769,-1.6919 -4.99769,2.00975 0,0.87561 0.20386,1.64886 0.5296,2.0088 0.64174,0.70912 1.96216,0.75739 2.89253,0.10573 z m -97.822129,-14.65018 v -7.12964 l -7.52,-2.85053 c -6.864155,-2.60192 -8.13331,-3.27337 -7.235781,-3.82807 0.15632,-0.0966 3.479826,1.04689 7.385568,2.54111 3.905743,1.49423 7.161844,2.71678 7.235782,2.71678 0.07394,0 0.134431,-3.744 0.134431,-8.32 v -8.32 h 2.08 c 1.173334,0 2.08,0.13948 2.08,0.32 0,0.176 -0.648,0.32 -1.44,0.32 h -1.44 v 8.28576 c 0,7.59398 0.04675,8.30415 0.56,8.50596 5.21349,2.05001 15.5624,5.92828 15.819223,5.92828 0.187227,0 5.93565,-3.31543 12.774274,-7.36762 6.838623,-4.05219 12.659123,-7.45406 12.934453,-7.55971 0.29495,-0.11319 5.42426,2.15514 12.486319,5.5218 9.09419,4.33543 11.98573,5.8504 11.98573,6.27971 0,0.3112 -0.12539,0.56582 -0.27865,0.56582 -0.15326,0 -5.55836,-2.52234 -12.01134,-5.60519 -10.385279,-4.96147 -11.814079,-5.56175 -12.441349,-5.22693 -1.218339,0.65031 -22.726141,13.39858 -23.967104,14.20596 l -1.178444,0.76671 -6.341556,-2.42306 c -3.487856,-1.33269 -7.241556,-2.76186 -8.341556,-3.17594 l -2,-0.75287 v 6.54566 6.54566 h 1.44 c 0.792,0 1.44,0.144 1.44,0.32 0,0.18051 -0.906666,0.32 -2.08,0.32 h -2.08 z m 74.138819,5.38603 c -1.65827,-0.59142 -2.41394,-1.3277 -3.30105,-3.21638 -1.34605,-2.86577 -0.86995,-6.38501 1.15028,-8.50266 2.27447,-2.38416 6.13756,-2.47483 8.6098,-0.20207 2.62226,2.41068 2.62226,8.27877 0,10.68945 -1.734,1.59409 -4.15068,2.05492 -6.45903,1.23166 z m 4.25184,-1.61156 c 3.23678,-1.6738 3.40822,-7.84246 0.27111,-9.75509 -2.13881,-1.30399 -5.08003,-0.52149 -6.22493,1.65611 -0.74692,1.42066 -0.74692,4.84765 0,6.26831 1.08182,2.05763 3.8619,2.91245 5.95382,1.83067 z m -133.1283339,-5.84482 c -0.3240464,-45.46717 -0.7154734,-75.355063 -1.2553327,-95.852473 -0.3698598,-14.04286 -0.6307393,-26.70188 -0.5797323,-28.13114 l 0.09274,-2.59867 13.76,-6.66136 c 7.5679999,-3.66375 13.9505589,-6.66473 14.1834639,-6.66886 0.232905,-0.004 0.376081,0.23854 0.31817,0.53925 -0.07092,0.36824 -4.518641,2.68664 -13.6234639,7.10128 l -13.51817,6.55453 -0.00564,2.89872 c -0.0082,4.21325 1.3378498,57.59882 1.4555059,57.72665 0.054638,0.0594 4.9967304,-2.28063 10.9824284,-5.2 5.9856966,-2.91936 11.0371256,-5.30793 11.2253956,-5.30793 0.473539,0 0.430856,0.86698 -0.05769,1.17181 -0.22,0.13727 -5.224,2.60922 -11.1199999,5.49322 -5.896,2.884 -10.8099479,5.33619 -10.9198842,5.4493 -0.2562725,0.26369 0.1797765,63.652223 0.4396506,63.912103 0.1071651,0.10716 4.750886,-2.26694 10.3193796,-5.27579 5.568494,-3.00886 10.2587059,-5.47064 10.4226939,-5.47064 0.163988,0 0.298056,0.252 0.297929,0.56 -1.68e-4,0.40733 -2.956215,2.15205 -10.8433919,6.4 -5.9637387,3.212 -11.0036348,5.84 -11.1997691,5.84 -0.2299475,0 -0.3628857,-0.88085 -0.3742829,-2.48 z m 366.7272939,-5.84642 c -0.21539,-0.13312 -0.3056,-0.3812 -0.20047,-0.55131 0.19953,-0.32284 13.34429,-0.66829 29.80974,-0.7834 8.24039,-0.0576 9.28981,-0.008 9.37639,0.44139 0.0862,0.44748 -0.87988,0.5285 -8.31889,0.69769 -15.21389,0.346 -30.26807,0.44204 -30.66677,0.19563 z m -338.010802,-2.6972 c -1.658264,-0.59142 -2.413934,-1.3277 -3.301046,-3.21638 -1.346046,-2.86577 -0.869948,-6.38501 1.150276,-8.50266 2.274468,-2.38416 6.137565,-2.47483 8.6098,-0.20207 2.622265,2.41068 2.622265,8.27877 0,10.68945 -1.734001,1.59409 -4.150674,2.05492 -6.45903,1.23166 z m 4.251846,-1.61156 c 3.236777,-1.6738 3.408212,-7.84246 0.271106,-9.75509 -2.138811,-1.30399 -5.080028,-0.52149 -6.224929,1.65611 -0.360679,0.68602 -0.554231,1.78055 -0.554231,3.13416 0,2.45696 0.640935,3.90323 2.132927,4.81295 1.220122,0.74395 3.103731,0.80934 4.375127,0.15187 z m 141.989336,-4.21149 c -0.121,-0.121 -0.22,-5.53456 -0.22,-12.03013 0,-11.07549 0.0348,-11.80342 0.56,-11.70228 0.52127,0.10038 0.56,0.92459 0.56,11.91679 0,11.30311 -0.1,12.61564 -0.9,11.81562 z m 284.15882,-10.81695 c -1.65827,-0.59141 -2.41394,-1.3277 -3.30105,-3.21638 -2.30881,-4.91552 0.70824,-10.38815 5.73251,-10.39822 2.12667,-0.004 4.40293,1.55056 5.38491,3.67822 1.2311,2.66743 0.56531,6.93721 -1.35734,8.70472 -1.734,1.59409 -4.15068,2.05492 -6.45903,1.23166 z m 4.25184,-1.61156 c 3.23678,-1.6738 3.40822,-7.84246 0.27111,-9.75509 -2.13881,-1.30399 -5.08003,-0.52149 -6.22493,1.65612 -0.36068,0.68601 -0.55423,1.78054 -0.55423,3.13415 0,2.45696 0.64094,3.90323 2.13293,4.81295 1.22012,0.74395 3.10373,0.80934 4.37512,0.15187 z m 6.72934,-4.96482 v -6.72 h 0.8 c 0.79059,0 0.8,0.032 0.8,2.72 v 2.72 h 3.52 3.52 v -2.72 c 0,-2.688 0.009,-2.72 0.8,-2.72 h 0.8 v 6.72 6.72 h -0.8 -0.8 v -3.2 -3.2 h -3.52 -3.52 v 3.2 3.2 h -0.8 -0.8 z m -300.58118,-9.10362 c -1.65827,-0.59141 -2.41394,-1.3277 -3.30105,-3.21638 -2.30881,-4.91552 0.70823,-10.38815 5.73251,-10.39822 2.12667,-0.004 4.40293,1.55056 5.38491,3.67822 1.2311,2.66743 0.5653,6.93721 -1.35734,8.70472 -1.734,1.59409 -4.15068,2.05492 -6.45903,1.23166 z m 4.25184,-1.61156 c 3.23678,-1.6738 3.40822,-7.84246 0.27111,-9.75509 -2.13881,-1.30399 -5.08003,-0.52149 -6.22493,1.65612 -0.36068,0.68601 -0.55423,1.78054 -0.55423,3.13415 0,2.45696 0.64093,3.90323 2.13293,4.81295 1.22012,0.74395 3.10373,0.80934 4.37512,0.15187 z m 287.36934,-9.36746 v -11.489563 l -13.46659,-7.91793 c -8.11113,-4.76909 -13.6589,-7.84414 -13.95015,-7.73238 -0.26596,0.10206 -6.55399,3.62864 -13.97341,7.83684 l -13.48985,7.65127 -19.68,0.3775 -19.68,0.37749 -13.76,-7.76069 c -7.568,-4.26838 -13.904,-7.75653 -14.08,-7.75143 -0.176,0.005 -6.41269,3.62777 -13.8593,8.05039 -7.44662,4.42263 -13.67112,8.04114 -13.83222,8.04114 -0.1611,0 -6.45241,-3.47245 -13.98069,-7.71656 -7.52829,-4.24411 -13.84137,-7.72411 -14.02907,-7.73333 -0.1877,-0.009 -6.36184,3.55345 -13.72031,7.91705 -7.35846,4.36361 -13.61289,7.98866 -13.89872,8.05567 -0.28583,0.067 -6.76246,-3.3968 -14.39251,-7.69735 l -13.87282,-7.81918 -1.48718,0.89921 c -10.54259,6.37447 -26.09111,15.39255 -26.40471,15.31463 -0.22167,-0.0551 -6.60183,-3.58902 -14.17815,-7.85319 l -13.77511,-7.75306 -13.1646,5.34108 -13.16461,5.34107 v 6.49198 6.491983 h -2.08 c -1.17333,0 -2.08,-0.13949 -2.08,-0.32 0,-0.176 0.648,-0.32 1.44,-0.32 h 1.44 v -5.924303 -5.92429 l -1.2,0.52817 c -1.80232,0.79327 -2.96,0.93123 -2.96,0.35274 0,-0.28715 0.83648,-0.83582 2.08,-1.36432 l 2.08,-0.88401 v -8.912 -8.91199 h -1.44 c -0.792,0 -1.44,-0.144 -1.44,-0.32 0,-0.18052 0.90667,-0.32 2.08,-0.32 h 2.08 v 8.98666 c 0,5.43697 0.11818,8.94454 0.29918,8.88 0.16455,-0.0587 5.26361,-2.12032 11.33124,-4.58145 9.63302,-3.90733 10.99511,-4.5438 10.74081,-5.01897 -0.16017,-0.29929 -0.29123,-5.73763 -0.29123,-12.0852 0,-9.65141 0.073,-11.54104 0.44576,-11.54104 0.24517,0 0.53317,0.22778 0.64,0.50617 0.10683,0.2784 0.19424,5.6064 0.19424,11.84 0,6.2336 0.10319,11.33383 0.2293,11.33383 0.12612,0 0.82459,-0.22734 1.55216,-0.50521 l 1.32286,-0.5052 13.99534,7.85892 13.99533,7.85893 13.8037,-8.17265 c 11.68935,-6.92082 13.90748,-8.12536 14.48122,-7.86394 0.37264,0.16978 6.42461,3.54028 13.44881,7.49 7.0242,3.94972 13.07634,7.34225 13.44919,7.53896 0.59608,0.31448 2.27638,-0.59164 13.92,-7.50654 7.28315,-4.32531 13.53516,-8.00125 13.89335,-8.16878 0.53968,-0.2524 3.04689,1.0436 14.63348,7.56418 l 13.98222,7.86877 13.80416,-8.18852 c 7.59229,-4.50368 13.96722,-8.12532 14.16652,-8.0481 0.1993,0.0772 6.55436,3.63379 14.12236,7.90348 l 13.76,7.76308 19.30954,-0.34352 19.30954,-0.34351 14.09872,-8.01959 14.09872,-8.0196 13.89347,8.16892 13.89348,8.16891 13.83721,-7.8495 c 7.61046,-4.31722 13.98759,-7.84949 14.17139,-7.84949 0.1838,0 6.36728,3.54548 13.74106,7.87886 7.37378,4.33337 13.58012,7.94618 13.79187,8.02847 0.21175,0.0823 6.67521,-3.41367 14.36325,-7.76882 12.81186,-7.25771 14.03471,-7.88277 14.655,-7.49086 2.67665,1.69114 25.80734,15.19433 26.47003,15.45261 0.75337,0.29363 2.14967,-0.42155 14.56,-7.45757 7.5497,-4.28029 13.87072,-7.78053 14.04672,-7.77831 0.176,0.002 6.62,3.71044 14.32,8.2405 12.56655,7.39315 15.14804,9.13512 13.5377,9.13512 -0.25427,0 -6.58679,-3.6 -14.07227,-8 -7.48549,-4.4 -13.69999,-8 -13.81001,-8 -0.11002,0 -6.29436,3.45624 -13.74298,7.68054 -7.44861,4.2243 -13.74298,7.75731 -13.98749,7.85114 -0.24451,0.0938 -6.48283,-3.3851 -13.86294,-7.73095 -7.38011,-4.34585 -13.66018,-7.96477 -13.95571,-8.04206 -0.43621,-0.11407 -22.05452,11.82912 -26.9644,14.89668 -1.09214,0.68234 -1.34541,0.73066 -1.92,0.36628 -0.36404,-0.23086 -6.62024,-3.92808 -13.90266,-8.21606 l -13.24077,-7.79631 -11.71923,6.63923 c -6.44558,3.65157 -12.61745,7.14028 -13.71526,7.75269 l -1.99602,1.11346 -0.084,11.378383 c -0.0778,10.54359 -0.12506,11.38628 -0.64398,11.48614 -0.52493,0.10102 -0.56,-0.61164 -0.56,-11.3818 z m -313.48433,6.88264 c 0.10467,-0.396 0.51045,-2.268 0.90174,-4.16 0.64487,-3.11823 0.77742,-3.44 1.41705,-3.44 0.57326,0 0.67047,0.13444 0.51819,0.71673 -0.18026,0.68933 -0.14759,0.68321 0.85451,-0.16 1.22567,-1.03133 2.3495,-1.12007 3.21566,-0.25391 0.6171,0.6171 0.63414,0.61663 1.85362,-0.0513 0.86103,-0.47163 1.49436,-0.60803 2.10806,-0.454 1.48175,0.3719 1.61892,1.24571 0.78597,5.00674 -0.6716,3.03252 -0.81628,3.36621 -1.50187,3.46395 -0.54877,0.0782 -0.71053,-0.0173 -0.58466,-0.34533 0.46917,-1.22266 1.28043,-5.96141 1.10073,-6.42969 -0.29611,-0.77167 -1.72683,-0.66007 -2.58883,0.20193 -0.46406,0.46405 -0.94147,1.61439 -1.29488,3.12 -0.3079,1.31171 -0.62827,2.63693 -0.71195,2.94493 -0.0837,0.308 -0.44723,0.56 -0.8079,0.56 -0.51942,0 -0.61722,-0.14736 -0.4704,-0.7088 0.68975,-2.63759 1.22316,-5.72925 1.06128,-6.15111 -0.29222,-0.76152 -1.62755,-0.59726 -2.53686,0.31205 -0.54279,0.54279 -0.99154,1.57754 -1.35306,3.12 -0.2975,1.26932 -0.60938,2.55986 -0.69306,2.86786 -0.0837,0.308 -0.44723,0.56 -0.8079,0.56 -0.5231,0 -0.61725,-0.14566 -0.46544,-0.72 z M 48.509501,-103.62325 v -7.15818 l -1.84,-0.80058 c -8.065148,-3.50913 -13.52,-6.13998 -13.52,-6.52063 0,-0.24334 0.252,-0.43895 0.56,-0.43469 0.308,0.004 3.728,1.43015 7.6,3.16862 l 7.04,3.16087 0.08531,-8.28862 0.08531,-8.28862 h 2.074687 c 1.169792,0 2.074687,0.13957 2.074687,0.32 0,0.176 -0.650391,0.32 -1.445313,0.32 h -1.445313 l 0.08531,8.33211 0.08531,8.33212 8.158705,3.66788 c 4.487288,2.01734 8.265036,3.66789 8.394995,3.66789 0.129959,0 5.818542,-4.03233 12.641295,-8.96072 6.822753,-4.9284 12.625865,-8.9244 12.895815,-8.88 0.26994,0.0444 5.55799,2.96072 11.751221,6.48072 8.00697,4.55086 11.26294,6.5618 11.26919,6.96 0.005,0.308 -0.13269,0.56 -0.3056,0.56 -0.17291,0 -5.37364,-2.8779 -11.55716,-6.39533 l -11.242781,-6.39533 -1.00284,0.70781 c -0.55156,0.38929 -6.183858,4.44319 -12.516214,9.00866 -6.332355,4.56547 -11.665688,8.30085 -11.85185,8.30085 -0.306239,0 -13.803519,-5.9685 -15.914776,-7.03752 l -0.88,-0.44558 v 6.56822 6.568223 h 1.44 c 0.792,0 1.44,0.144 1.44,0.32 0,0.18051 -0.906666,0.32 -2.08,0.32 h -2.08 z m 72.858819,6.374553 c -1.65827,-0.59141 -2.41394,-1.3277 -3.30105,-3.216383 -1.34605,-2.86577 -0.86995,-6.38501 1.15028,-8.50266 2.27447,-2.38416 6.13756,-2.47482 8.6098,-0.20207 2.62226,2.41068 2.62226,8.27877 0,10.689453 -1.734,1.59409 -4.15068,2.05492 -6.45903,1.23166 z m 4.25184,-1.61155 c 3.23678,-1.673813 3.40822,-7.842473 0.27111,-9.755103 -2.13881,-1.30399 -5.08003,-0.52149 -6.22493,1.65612 -0.74692,1.42065 -0.74692,4.84764 0,6.2683 1.08182,2.057633 3.8619,2.912453 5.95382,1.830683 z m 233.44585,-13.930483 c -0.13118,-0.21225 -0.0663,-0.49236 0.14426,-0.62247 0.21051,-0.1301 6.52896,-0.33144 14.04099,-0.44742 7.51203,-0.11598 16.37295,-0.30295 19.69092,-0.4155 5.81109,-0.19711 6.0284,-0.1823 5.91624,0.40321 -0.10851,0.5665 -0.57305,0.62117 -6.83267,0.80402 -18.4948,0.54025 -32.72354,0.66033 -32.95974,0.27816 z M 22.168318,-115.8087 c -1.658264,-0.59141 -2.413934,-1.3277 -3.301046,-3.21638 -1.346046,-2.86576 -0.869948,-6.38501 1.150276,-8.50266 2.274468,-2.38416 6.137565,-2.47482 8.6098,-0.20207 2.622265,2.41068 2.622265,8.27878 0,10.68945 -1.734001,1.59409 -4.150674,2.05492 -6.45903,1.23166 z m 4.251846,-1.61155 c 3.236777,-1.67381 3.408212,-7.84247 0.271106,-9.7551 -2.138811,-1.30399 -5.080028,-0.52149 -6.224929,1.65612 -0.360679,0.68601 -0.554231,1.78054 -0.554231,3.13415 0,2.45696 0.640935,3.90323 2.132927,4.81295 1.220122,0.74395 3.103731,0.80934 4.375127,0.15188 z m 140.860566,-2.16161 c -0.268,-0.268 -0.37123,-3.60128 -0.37123,-11.98722 0,-9.71549 0.0729,-11.616 0.44576,-11.616 0.24517,0 0.53317,0.22778 0.64,0.50617 0.30068,0.78356 0.22925,23.11442 -0.0745,23.30217 -0.14783,0.0914 -0.43583,-9.4e-4 -0.64,-0.20512 z m 289.76759,-14.14684 c -1.65827,-0.59141 -2.41394,-1.3277 -3.30105,-3.21638 -2.30881,-4.91551 0.70824,-10.38814 5.73251,-10.39821 2.12667,-0.004 4.40293,1.55056 5.38491,3.67821 1.2311,2.66744 0.56531,6.93722 -1.35734,8.70473 -1.734,1.59409 -4.15068,2.05491 -6.45903,1.23165 z m 4.25184,-1.61155 c 3.23678,-1.6738 3.40822,-7.84247 0.27111,-9.7551 -2.13881,-1.30399 -5.08003,-0.52149 -6.22493,1.65612 -0.36068,0.68601 -0.55423,1.78054 -0.55423,3.13415 0,2.45696 0.64094,3.90324 2.13293,4.81296 1.22012,0.74395 3.10373,0.80933 4.37512,0.15187 z m 6.72934,-4.96483 v -6.72 h 0.8 c 0.79059,0 0.8,0.032 0.8,2.72 v 2.72 h 3.52 3.52 v -2.72 c 0,-2.688 0.009,-2.72 0.8,-2.72 h 0.8 v 6.72 6.72 h -0.8 -0.8 v -3.2 -3.2 h -3.52 -3.52 v 3.2 3.2 h -0.8 -0.8 z m -306.66118,-5.58362 c -1.65827,-0.59141 -2.41394,-1.3277 -3.30105,-3.21638 -2.30881,-4.91551 0.70823,-10.38814 5.73251,-10.39821 2.12667,-0.004 4.40293,1.55056 5.38491,3.67821 1.2311,2.66744 0.5653,6.93722 -1.35734,8.70473 -1.734,1.59409 -4.15068,2.05491 -6.45903,1.23165 z m 4.25184,-1.61155 c 3.23678,-1.6738 3.40822,-7.84247 0.27111,-9.7551 -2.13881,-1.30399 -5.08003,-0.52149 -6.22493,1.65612 -0.36068,0.68601 -0.55423,1.78054 -0.55423,3.13415 0,2.45696 0.64093,3.90324 2.13293,4.81296 1.22012,0.74395 3.10373,0.80933 4.37512,0.15187 z m 292.98488,-1.84483 c -0.0684,-0.22 -0.21566,-5.296 -0.32722,-11.28 -0.14542,-7.79961 -0.31121,-10.98127 -0.58558,-11.23768 -1.0008,-0.9353 -27.14172,-14.89583 -27.57845,-14.72824 -0.26816,0.1029 -6.49882,3.84846 -13.84592,8.32347 l -13.35837,8.13638 -20.16223,0.0513 -20.16223,0.0513 -13.59777,-7.90195 c -7.47877,-4.34608 -13.75689,-7.90628 -13.95138,-7.91157 -0.19449,-0.005 -6.58397,3.5661 -14.19885,7.93642 -11.3121,6.49223 -13.94547,7.88345 -14.39303,7.60395 -0.30128,-0.18816 -6.55495,-3.82794 -13.89704,-8.0884 l -13.34925,-7.7463 -13.02411,7.452 c -7.16326,4.0986 -13.42149,7.72545 -13.90718,8.05966 l -0.88308,0.60767 -13.67692,-7.93983 c -7.52231,-4.3669 -13.96493,-7.9409 -14.31693,-7.94222 -0.352,-10e-4 -6.70655,3.48881 -14.12123,7.75585 -7.41468,4.26703 -13.63163,7.75824 -13.81546,7.75824 -0.18382,0 -6.5429,-3.60683 -14.13129,-8.01517 l -13.79707,-8.01518 -13.26002,5.21518 -13.26001,5.21517 -0.007,6.48 -0.007,6.48 h -2.08 c -1.17333,0 -2.08,-0.13949 -2.08,-0.32 0,-0.176 0.648,-0.32 1.44,-0.32 h 1.44 v -5.90863 -5.90862 l -1.46653,0.62862 c -1.72364,0.73884 -2.69347,0.80456 -2.69347,0.1825 0,-0.24858 0.88562,-0.80039 2,-1.24618 l 2,-0.80005 0.085,-8.99382 0.085,-8.99382 h -1.44499 c -0.79474,0 -1.44498,-0.144 -1.44498,-0.32 0,-0.18051 0.90667,-0.32 2.08,-0.32 h 2.08 v 8.96 c 0,4.928 0.0775,8.96 0.17221,8.96 0.0947,0 4.95471,-1.88557 10.8,-4.19015 5.84528,-2.30459 10.98291,-4.32885 11.41695,-4.49837 0.5427,-0.21197 0.66636,-0.38412 0.39594,-0.55124 -0.30183,-0.18654 -0.37367,-2.95139 -0.30915,-11.89732 0.0779,-10.80637 0.1248,-11.66215 0.64405,-11.76208 0.52523,-0.10107 0.56,0.63107 0.56,11.78994 0,9.3843 0.0845,11.86622 0.4,11.74868 0.22,-0.082 0.90777,-0.33063 1.52838,-0.55262 l 1.12838,-0.40361 13.86206,8.04549 13.86206,8.04549 13.48956,-7.73849 c 7.41926,-4.25617 13.70556,-7.86909 13.96956,-8.02873 0.35302,-0.21345 4.07788,1.79967 14.08,7.60962 7.48,4.34492 13.7772,7.96898 13.99378,8.05347 0.21657,0.0845 6.6195,-3.42471 14.22873,-7.79823 7.60922,-4.37352 13.98402,-7.90425 14.16622,-7.84607 0.1822,0.0582 6.39117,3.62218 13.79771,7.92 7.40654,4.29782 13.65079,7.81422 13.87609,7.81422 0.22531,0 6.41619,-3.45084 13.75752,-7.66853 7.34132,-4.2177 13.57162,-7.7544 13.8451,-7.85935 0.30838,-0.11834 5.74954,2.85762 14.32625,7.83551 l 13.82901,8.02631 20.0498,-0.087 20.04979,-0.087 13.75197,-8.41848 13.75196,-8.41848 1.12804,0.63032 c 10.81331,6.04223 27.07785,14.76154 27.34196,14.65784 0.2768,-0.10869 24.1503,-14.63794 26.59214,-16.1838 0.5787,-0.36636 2.12232,0.39761 14.80273,7.3262 l 14.15665,7.73522 13.78688,-8.39592 c 13.66618,-8.32241 13.79433,-8.39152 14.63728,-7.8946 3.3737,1.98881 27.37179,14.92806 27.53062,14.84391 0.10987,-0.0582 6.30062,-3.814 13.75722,-8.34621 10.47886,-6.36919 13.68757,-8.17858 14.13049,-7.96819 2.98833,1.41941 28.16234,15.41107 28.29143,15.7243 0.0934,0.22666 -0.0319,0.48951 -0.27837,0.58411 -0.24652,0.0946 -6.68809,-3.24325 -14.31461,-7.41745 -7.62746,-4.17419 -14.01134,-7.58884 -14.18734,-7.58812 -0.176,7.2e-4 -6.296,3.65134 -13.6,8.11248 -7.304,4.46114 -13.568,8.11695 -13.92,8.12402 -0.352,0.007 -6.77304,-3.33515 -14.26899,-7.42715 -7.49594,-4.092 -13.79532,-7.44 -13.99862,-7.44 -0.20329,0 -6.40208,3.672 -13.77508,8.16 -7.373,4.488 -13.57778,8.16 -13.7884,8.16 -0.21062,0 -6.56886,-3.384 -14.12943,-7.52 -7.56057,-4.136 -13.90485,-7.52 -14.0984,-7.52 -0.19356,0 -6.32188,3.63505 -13.6185,8.07788 l -13.26659,8.07788 0.23443,11.44212 c 0.21621,10.55248 0.19303,11.44212 -0.29803,11.44212 -0.29286,0 -0.58844,-0.18 -0.65685,-0.4 z m -315.25987,-5.76 c 0.10467,-0.396 0.51045,-2.268 0.90174,-4.16 0.58623,-2.83466 0.8127,-3.44 1.287,-3.44 0.37764,0 0.57559,0.23929 0.57559,0.69578 v 0.69578 l 0.72,-0.67206 c 1.48084,-1.38223 3.47411,-1.19311 4.07472,0.38661 0.18535,0.48752 0.12022,1.45385 -0.18742,2.78054 -0.96221,4.14953 -1.07496,4.43335 -1.7612,4.43335 -0.46294,0 -0.60557,-0.16069 -0.49709,-0.56 0.68552,-2.52326 1.20575,-5.26408 1.1175,-5.88752 -0.0724,-0.51129 -0.3526,-0.78726 -0.87427,-0.86099 -1.72231,-0.24343 -2.86851,1.14391 -3.53867,4.28315 -0.18615,0.87195 -0.41209,1.90936 -0.5021,2.30536 -0.10589,0.46582 -0.40063,0.72 -0.83489,0.72 -0.53914,0 -0.63377,-0.14168 -0.48091,-0.72 z m -92.595669,-13.78891 v -7.14892 l -6.716138,-2.81298 c -7.350427,-3.07865 -8.039264,-3.44768 -7.485373,-4.01013 0.267068,-0.2712 2.021591,0.34253 6.88,2.4066 3.586831,1.52386 6.701511,2.84538 6.921511,2.93673 0.314027,0.13039 0.4,-1.62952 0.4,-8.18815 v -8.35424 h 2.08 c 1.173334,0 2.08,0.13949 2.08,0.32 0,0.176 -0.648,0.32 -1.44,0.32 h -1.44 v 8.26864 8.26863 l 0.860735,0.39218 c 2.719806,1.23923 14.531284,6.11055 14.816224,6.11055 0.186624,0 6.203654,-3.83679 13.371179,-8.52621 7.167524,-4.68942 13.276982,-8.59241 13.576562,-8.67332 0.4124,-0.11138 22.953659,10.99122 23.573429,11.61099 0.0665,0.0665 0.0348,0.34537 -0.0704,0.61968 -0.15398,0.40125 -2.44792,-0.62986 -11.73565,-5.27512 -6.539689,-3.27083 -11.710679,-5.67457 -11.928149,-5.5448 -1.48354,0.88521 -25.456069,16.6186 -25.887646,16.99026 -0.545732,0.46998 -2.035589,-0.0899 -15.216284,-5.71802 l -1.36,-0.58071 v 6.54862 6.54863 h 1.44 c 0.792,0 1.44,0.144 1.44,0.32 0,0.18051 -0.906666,0.32 -2.08,0.32 h -2.08 z m 73.818819,4.12529 c -1.65827,-0.59141 -2.41394,-1.3277 -3.30105,-3.21638 -1.34605,-2.86576 -0.86995,-6.385 1.15028,-8.50266 2.27447,-2.38415 6.13756,-2.47482 8.6098,-0.20206 2.62226,2.41067 2.62226,8.27877 0,10.68945 -1.734,1.59409 -4.15068,2.05492 -6.45903,1.23165 z m 4.25184,-1.61155 c 3.23678,-1.6738 3.40822,-7.84247 0.27111,-9.7551 -2.13881,-1.30399 -5.08003,-0.52149 -6.22493,1.65612 -0.74692,1.42066 -0.74692,4.84765 0,6.2683 1.08182,2.05764 3.8619,2.91246 5.95382,1.83068 z m 233.50545,-10.93538 c -0.11581,-0.11581 -0.0502,-0.40381 0.14585,-0.64 0.53167,-0.64063 40.91804,-0.63754 40.91804,0.003 0,0.31186 -0.73667,0.48991 -2.64,0.63808 -3.48411,0.27122 -38.15255,0.27013 -38.42389,-0.001 z M 25.368318,-180.1287 c -1.658264,-0.59141 -2.413934,-1.3277 -3.301046,-3.21638 -1.346046,-2.86576 -0.869948,-6.385 1.150276,-8.50266 2.274468,-2.38415 6.137565,-2.47482 8.6098,-0.20206 2.622265,2.41067 2.622265,8.27877 0,10.68945 -1.734001,1.59409 -4.150674,2.05492 -6.45903,1.23165 z m 4.251846,-1.61155 c 3.236777,-1.6738 3.408212,-7.84247 0.271106,-9.7551 -2.138811,-1.30399 -5.080028,-0.52149 -6.224929,1.65612 -0.360679,0.68602 -0.554231,1.78054 -0.554231,3.13415 0,2.45697 0.640935,3.90324 2.132927,4.81296 1.220122,0.74395 3.103731,0.80934 4.375127,0.15187 z M 170.58554,-186.76 c -0.0904,-0.23548 -0.12644,-5.60952 -0.0802,-11.94231 0.0782,-10.7036 0.12383,-11.5218 0.64805,-11.62268 0.53161,-0.10231 0.55911,0.57427 0.48,11.80911 -0.0647,9.18652 -0.17555,11.94815 -0.48375,12.05083 -0.21991,0.0733 -0.47377,-0.0595 -0.56413,-0.29495 z m -5.37722,-26.3287 c -1.65827,-0.59141 -2.41394,-1.3277 -3.30105,-3.21638 -2.30881,-4.91551 0.70823,-10.38814 5.73251,-10.39821 2.12667,-0.004 4.40293,1.55056 5.38491,3.67821 1.2311,2.66744 0.5653,6.93722 -1.35734,8.70473 -1.734,1.59409 -4.15068,2.05492 -6.45903,1.23165 z m 4.25184,-1.61155 c 3.23678,-1.6738 3.40822,-7.84247 0.27111,-9.7551 -2.13881,-1.30398 -5.08003,-0.52149 -6.22493,1.65612 -0.36068,0.68602 -0.55423,1.78054 -0.55423,3.13415 0,2.45697 0.64093,3.90324 2.13293,4.81296 1.22012,0.74395 3.10373,0.80934 4.37512,0.15187 z"
       id="path1" />
  </g>
</svg>
