<?xml version="1.0" encoding="UTF-8" standalone="no"?>
<!-- Created with Inkscape (http://www.inkscape.org/) -->

<svg
   version="1.0"
   width="921.29999"
   height="177.3"
   id="svg2403"
   xml:space="preserve"
   sodipodi:docname="DBS.svg"
   inkscape:version="1.4.2 (f4327f4, 2025-05-13)"
   xmlns:inkscape="http://www.inkscape.org/namespaces/inkscape"
   xmlns:sodipodi="http://sodipodi.sourceforge.net/DTD/sodipodi-0.dtd"
   xmlns="http://www.w3.org/2000/svg"
   xmlns:svg="http://www.w3.org/2000/svg"><sodipodi:namedview
     id="namedview1"
     pagecolor="#ffffff"
     bordercolor="#000000"
     borderopacity="0.25"
     inkscape:showpageshadow="2"
     inkscape:pageopacity="0.0"
     inkscape:pagecheckerboard="0"
     inkscape:deskcolor="#d1d1d1"
     showgrid="false"
     inkscape:zoom="1.504396"
     inkscape:cx="460.64999"
     inkscape:cy="88.739934"
     inkscape:window-width="1920"
     inkscape:window-height="1111"
     inkscape:window-x="-9"
     inkscape:window-y="-9"
     inkscape:window-maximized="1"
     inkscape:current-layer="svg2403" /><defs
     id="defs2406" /><g
     transform="matrix(1.25,0,0,-1.25,0,177.3)"
     id="g2412"><path
   style="font-size:24px;font-family:Arial;-inkscape-font-specification:Arial"
   d="m 14.109375,-6.0234375 2.273437,0.5742188 q -0.714843,2.8007812 -2.578124,4.2773437 -1.851563,1.46484375 -4.5351567,1.46484375 -2.7773438,0 -4.5234376,-1.125 Q 3.0117188,-1.96875 2.0976563,-4.1132812 1.1953125,-6.2578125 1.1953125,-8.71875 q 0,-2.683594 1.0195313,-4.675781 1.03125,-2.003907 2.9179687,-3.035156 1.8984375,-1.042969 4.171875,-1.042969 2.5781255,0 4.3359375,1.3125 1.757813,1.3125 2.449219,3.691406 l -2.238281,0.527344 q -0.597657,-1.875 -1.734375,-2.730469 -1.136719,-0.855469 -2.8593755,-0.855469 -1.9804688,0 -3.3164063,0.949219 -1.3242187,0.949219 -1.8632812,2.554687 -0.5390625,1.59375 -0.5390625,3.2929692 0,2.1914063 0.6328125,3.8320313 0.6445312,1.6289062 1.9921875,2.4375 1.3476562,0.8085938 2.9179688,0.8085938 1.9101567,0 3.2343747,-1.1015626 1.324219,-1.1015625 1.792969,-3.2695312 z"
   id="text2414"
   transform="matrix(1,0,0,-1,33.36,71.52)"
   aria-label="C" />
<path
   style="font-size:24px;font-family:Arial;-inkscape-font-specification:Arial"
   d="M 1.921875,0 V -17.179687 H 4.1953125 V -10.125 H 13.125 v -7.054687 h 2.273438 V 0 H 13.125 V -8.0976563 H 4.1953125 V 0 Z"
   id="text2418"
   transform="matrix(1,0,0,-1,6,71.52)"
   aria-label="H" />
<path
   style="font-size:18px;font-family:Arial;-inkscape-font-specification:Arial"
   d="M 0.75585937,-3.4013672 2.3378906,-3.6123047 q 0.272461,1.3447266 0.9228516,1.9423828 0.6591797,0.5888672 1.5996094,0.5888672 1.1162109,0 1.8808593,-0.7734375 0.7734375,-0.7734375 0.7734375,-1.9160156 0,-1.0898438 -0.711914,-1.7929688 -0.7119141,-0.711914 -1.8105469,-0.711914 -0.4482422,0 -1.1162109,0.1757812 l 0.1757812,-1.3886718 q 0.1582031,0.017578 0.2548828,0.017578 1.0107422,0 1.819336,-0.5273438 0.8085937,-0.5273437 0.8085937,-1.6259765 0,-0.8701176 -0.5888672,-1.4414066 -0.5888672,-0.571289 -1.5205078,-0.571289 -0.9228515,0 -1.5380859,0.580078 -0.6152344,0.580078 -0.7910156,1.7402347 l -1.5820313,-0.28125 q 0.2900391,-1.5908207 1.3183594,-2.4609377 1.0283203,-0.878906 2.5576172,-0.878906 1.0546875,0 1.9423828,0.457031 0.8876953,0.448242 1.3535156,1.230469 0.4746094,0.782227 0.4746094,1.6611328 0,0.8349609 -0.4482422,1.5205078 -0.4482422,0.6855469 -1.3271485,1.0898438 1.1425782,0.2636719 1.7753907,1.0986328 0.6328125,0.8261719 0.6328125,2.0742187 0,1.6875 -1.2304688,2.86523441 -1.2304687,1.16894532 -3.1113281,1.16894532 -1.6962891,0 -2.8212891,-1.01074219 Q 0.9140625,-1.7929687 0.75585937,-3.4013672 Z"
   id="text2422"
   transform="matrix(1,0,0,-1,23.28,68.16)"
   aria-label="3" />
<path
   style="font-size:24px;font-family:Arial;-inkscape-font-specification:Arial"
   d="m 1.1601562,-8.3671875 q 0,-4.2773435 2.2968751,-6.6914065 2.2968749,-2.425781 5.9296875,-2.425781 2.3789062,0 4.2890622,1.136719 1.910157,1.136718 2.90625,3.175781 1.007813,2.027344 1.007813,4.6054687 0,2.6132813 -1.054688,4.6757813 -1.054687,2.0625 -2.988281,3.12890625 -1.933594,1.0546875 -4.171875,1.0546875 -2.4257813,0 -4.3359375,-1.171875 Q 3.1289063,-2.0507813 2.1445313,-4.078125 1.1601562,-6.1054687 1.1601562,-8.3671875 Z m 2.3437501,0.035156 q 0,3.1054688 1.6640624,4.8984375 1.6757813,1.7812501 4.1953126,1.7812501 2.5664067,0 4.2187497,-1.8046876 1.664063,-1.8046874 1.664063,-5.1210937 0,-2.097656 -0.714844,-3.65625 -0.703125,-1.570313 -2.074219,-2.425781 -1.359375,-0.867188 -3.0585935,-0.867188 -2.4140625,0 -4.1601563,1.664063 -1.7343749,1.652343 -1.7343749,5.5312497 z"
   id="text2426"
   transform="matrix(1,0,0,-1,170.4,71.52)"
   aria-label="O" />
<path
   style="font-size:24px;font-family:Arial;-inkscape-font-specification:Arial"
   d="m 1.1601562,-8.3671875 q 0,-4.2773435 2.2968751,-6.6914065 2.2968749,-2.425781 5.9296875,-2.425781 2.3789062,0 4.2890622,1.136719 1.910157,1.136718 2.90625,3.175781 1.007813,2.027344 1.007813,4.6054687 0,2.6132813 -1.054688,4.6757813 -1.054687,2.0625 -2.988281,3.12890625 -1.933594,1.0546875 -4.171875,1.0546875 -2.4257813,0 -4.3359375,-1.171875 Q 3.1289063,-2.0507813 2.1445313,-4.078125 1.1601562,-6.1054687 1.1601562,-8.3671875 Z m 2.3437501,0.035156 q 0,3.1054688 1.6640624,4.8984375 1.6757813,1.7812501 4.1953126,1.7812501 2.5664067,0 4.2187497,-1.8046876 1.664063,-1.8046874 1.664063,-5.1210937 0,-2.097656 -0.714844,-3.65625 -0.703125,-1.570313 -2.074219,-2.425781 -1.359375,-0.867188 -3.0585935,-0.867188 -2.4140625,0 -4.1601563,1.664063 -1.7343749,1.652343 -1.7343749,5.5312497 z"
   id="text2430"
   transform="matrix(1,0,0,-1,204.72,12.24)"
   aria-label="O" />
<path
   style="font-size:24px;font-family:Arial;-inkscape-font-specification:Arial"
   d="m 1.1601562,-8.3671875 q 0,-4.2773435 2.2968751,-6.6914065 2.2968749,-2.425781 5.9296875,-2.425781 2.3789062,0 4.2890622,1.136719 1.910157,1.136718 2.90625,3.175781 1.007813,2.027344 1.007813,4.6054687 0,2.6132813 -1.054688,4.6757813 -1.054687,2.0625 -2.988281,3.12890625 -1.933594,1.0546875 -4.171875,1.0546875 -2.4257813,0 -4.3359375,-1.171875 Q 3.1289063,-2.0507813 2.1445313,-4.078125 1.1601562,-6.1054687 1.1601562,-8.3671875 Z m 2.3437501,0.035156 q 0,3.1054688 1.6640624,4.8984375 1.6757813,1.7812501 4.1953126,1.7812501 2.5664067,0 4.2187497,-1.8046876 1.664063,-1.8046874 1.664063,-5.1210937 0,-2.097656 -0.714844,-3.65625 -0.703125,-1.570313 -2.074219,-2.425781 -1.359375,-0.867188 -3.0585935,-0.867188 -2.4140625,0 -4.1601563,1.664063 -1.7343749,1.652343 -1.7343749,5.5312497 z"
   id="text2434"
   transform="matrix(1,0,0,-1,548.4,52.08)"
   aria-label="O" />
<path
   style="font-size:24px;font-family:Arial;-inkscape-font-specification:Arial"
   d="m 14.109375,-6.0234375 2.273437,0.5742188 q -0.714843,2.8007812 -2.578124,4.2773437 -1.851563,1.46484375 -4.5351567,1.46484375 -2.7773438,0 -4.5234376,-1.125 Q 3.0117188,-1.96875 2.0976563,-4.1132812 1.1953125,-6.2578125 1.1953125,-8.71875 q 0,-2.683594 1.0195313,-4.675781 1.03125,-2.003907 2.9179687,-3.035156 1.8984375,-1.042969 4.171875,-1.042969 2.5781255,0 4.3359375,1.3125 1.757813,1.3125 2.449219,3.691406 l -2.238281,0.527344 q -0.597657,-1.875 -1.734375,-2.730469 -1.136719,-0.855469 -2.8593755,-0.855469 -1.9804688,0 -3.3164063,0.949219 -1.3242187,0.949219 -1.8632812,2.554687 -0.5390625,1.59375 -0.5390625,3.2929692 0,2.1914063 0.6328125,3.8320313 0.6445312,1.6289062 1.9921875,2.4375 1.3476562,0.8085938 2.9179688,0.8085938 1.9101567,0 3.2343747,-1.1015626 1.324219,-1.1015625 1.792969,-3.2695312 z"
   id="text2438"
   transform="matrix(1,0,0,-1,686.88,52.08)"
   aria-label="C" />
<path
   style="font-size:24px;font-family:Arial;-inkscape-font-specification:Arial"
   d="M 1.921875,0 V -17.179687 H 4.1953125 V -10.125 H 13.125 v -7.054687 h 2.273438 V 0 H 13.125 V -8.0976563 H 4.1953125 V 0 Z"
   id="text2442"
   transform="matrix(1,0,0,-1,704.16,52.08)"
   aria-label="H" />
<path
   style="font-size:18px;font-family:Arial;-inkscape-font-specification:Arial"
   d="M 0.75585937,-3.4013672 2.3378906,-3.6123047 q 0.272461,1.3447266 0.9228516,1.9423828 0.6591797,0.5888672 1.5996094,0.5888672 1.1162109,0 1.8808593,-0.7734375 0.7734375,-0.7734375 0.7734375,-1.9160156 0,-1.0898438 -0.711914,-1.7929688 -0.7119141,-0.711914 -1.8105469,-0.711914 -0.4482422,0 -1.1162109,0.1757812 l 0.1757812,-1.3886718 q 0.1582031,0.017578 0.2548828,0.017578 1.0107422,0 1.819336,-0.5273438 0.8085937,-0.5273437 0.8085937,-1.6259765 0,-0.8701176 -0.5888672,-1.4414066 -0.5888672,-0.571289 -1.5205078,-0.571289 -0.9228515,0 -1.5380859,0.580078 -0.6152344,0.580078 -0.7910156,1.7402347 l -1.5820313,-0.28125 q 0.2900391,-1.5908207 1.3183594,-2.4609377 1.0283203,-0.878906 2.5576172,-0.878906 1.0546875,0 1.9423828,0.457031 0.8876953,0.448242 1.3535156,1.230469 0.4746094,0.782227 0.4746094,1.6611328 0,0.8349609 -0.4482422,1.5205078 -0.4482422,0.6855469 -1.3271485,1.0898438 1.1425782,0.2636719 1.7753907,1.0986328 0.6328125,0.8261719 0.6328125,2.0742187 0,1.6875 -1.2304688,2.86523441 -1.2304687,1.16894532 -3.1113281,1.16894532 -1.6962891,0 -2.8212891,-1.01074219 Q 0.9140625,-1.7929687 0.75585937,-3.4013672 Z"
   id="text2446"
   transform="matrix(1,0,0,-1,721.44,48.72)"
   aria-label="3" />
<path
   style="font-size:24px;font-family:Arial;-inkscape-font-specification:Arial"
   d="m 1.1601562,-8.3671875 q 0,-4.2773435 2.2968751,-6.6914065 2.2968749,-2.425781 5.9296875,-2.425781 2.3789062,0 4.2890622,1.136719 1.910157,1.136718 2.90625,3.175781 1.007813,2.027344 1.007813,4.6054687 0,2.6132813 -1.054688,4.6757813 -1.054687,2.0625 -2.988281,3.12890625 -1.933594,1.0546875 -4.171875,1.0546875 -2.4257813,0 -4.3359375,-1.171875 Q 3.1289063,-2.0507813 2.1445313,-4.078125 1.1601562,-6.1054687 1.1601562,-8.3671875 Z m 2.3437501,0.035156 q 0,3.1054688 1.6640624,4.8984375 1.6757813,1.7812501 4.1953126,1.7812501 2.5664067,0 4.2187497,-1.8046876 1.664063,-1.8046874 1.664063,-5.1210937 0,-2.097656 -0.714844,-3.65625 -0.703125,-1.570313 -2.074219,-2.425781 -1.359375,-0.867188 -3.0585935,-0.867188 -2.4140625,0 -4.1601563,1.664063 -1.7343749,1.652343 -1.7343749,5.5312497 z"
   id="text2450"
   transform="matrix(1,0,0,-1,514.08,111.36)"
   aria-label="O" />
<path
   d="M 53.28,74.88 L 76.56,61.44"
   id="path2454"
   style="fill:none;stroke:#000000;stroke-width:1.67999995;stroke-linecap:round;stroke-linejoin:miter;stroke-miterlimit:10;stroke-dasharray:none;stroke-opacity:1" /><path
   d="M 76.56,61.44 L 111.12,81.12"
   id="path2456"
   style="fill:none;stroke:#000000;stroke-width:1.67999995;stroke-linecap:round;stroke-linejoin:miter;stroke-miterlimit:10;stroke-dasharray:none;stroke-opacity:1" /><path
   d="M 111.12,81.12 L 145.44,61.44"
   id="path2458"
   style="fill:none;stroke:#000000;stroke-width:1.67999995;stroke-linecap:round;stroke-linejoin:miter;stroke-miterlimit:10;stroke-dasharray:none;stroke-opacity:1" /><path
   d="M 145.44,61.44 L 167.76,74.16"
   id="path2460"
   style="fill:none;stroke:#000000;stroke-width:1.67999995;stroke-linecap:round;stroke-linejoin:miter;stroke-miterlimit:10;stroke-dasharray:none;stroke-opacity:1" /><path
   d="M 191.76,74.4 L 214.32,61.44"
   id="path2462"
   style="fill:none;stroke:#000000;stroke-width:1.67999995;stroke-linecap:round;stroke-linejoin:miter;stroke-miterlimit:10;stroke-dasharray:none;stroke-opacity:1" /><path
   d="M 214.32,61.44 L 248.64,81.12"
   id="path2464"
   style="fill:none;stroke:#000000;stroke-width:1.67999995;stroke-linecap:round;stroke-linejoin:miter;stroke-miterlimit:10;stroke-dasharray:none;stroke-opacity:1" /><path
   d="M 211.2,61.44 L 211.2,34.08"
   id="path2466"
   style="fill:none;stroke:#000000;stroke-width:1.67999995;stroke-linecap:round;stroke-linejoin:miter;stroke-miterlimit:10;stroke-dasharray:none;stroke-opacity:1" /><path
   d="M 217.68,61.44 L 217.68,34.08"
   id="path2468"
   style="fill:none;stroke:#000000;stroke-width:1.67999995;stroke-linecap:round;stroke-linejoin:miter;stroke-miterlimit:10;stroke-dasharray:none;stroke-opacity:1" /><path
   d="M 283.2,61.44 L 248.64,81.12"
   id="path2470"
   style="fill:none;stroke:#000000;stroke-width:1.67999995;stroke-linecap:round;stroke-linejoin:miter;stroke-miterlimit:10;stroke-dasharray:none;stroke-opacity:1" /><path
   d="M 317.52,81.12 L 283.2,61.44"
   id="path2472"
   style="fill:none;stroke:#000000;stroke-width:1.67999995;stroke-linecap:round;stroke-linejoin:miter;stroke-miterlimit:10;stroke-dasharray:none;stroke-opacity:1" /><path
   d="M 352.08,61.44 L 317.52,81.12"
   id="path2474"
   style="fill:none;stroke:#000000;stroke-width:1.67999995;stroke-linecap:round;stroke-linejoin:miter;stroke-miterlimit:10;stroke-dasharray:none;stroke-opacity:1" /><path
   d="M 385.92,81.12 L 352.08,61.44"
   id="path2476"
   style="fill:none;stroke:#000000;stroke-width:1.67999995;stroke-linecap:round;stroke-linejoin:miter;stroke-miterlimit:10;stroke-dasharray:none;stroke-opacity:1" /><path
   d="M 420.24,61.44 L 385.92,81.12"
   id="path2478"
   style="fill:none;stroke:#000000;stroke-width:1.67999995;stroke-linecap:round;stroke-linejoin:miter;stroke-miterlimit:10;stroke-dasharray:none;stroke-opacity:1" /><path
   d="M 454.56,81.12 L 420.24,61.44"
   id="path2480"
   style="fill:none;stroke:#000000;stroke-width:1.67999995;stroke-linecap:round;stroke-linejoin:miter;stroke-miterlimit:10;stroke-dasharray:none;stroke-opacity:1" /><path
   d="M 489.12,61.44 L 454.56,81.12"
   id="path2482"
   style="fill:none;stroke:#000000;stroke-width:1.67999995;stroke-linecap:round;stroke-linejoin:miter;stroke-miterlimit:10;stroke-dasharray:none;stroke-opacity:1" /><path
   d="M 523.44,81.12 L 489.12,61.44"
   id="path2484"
   style="fill:none;stroke:#000000;stroke-width:1.67999995;stroke-linecap:round;stroke-linejoin:miter;stroke-miterlimit:10;stroke-dasharray:none;stroke-opacity:1" /><path
   d="M 545.76,68.4 L 523.44,81.12"
   id="path2486"
   style="fill:none;stroke:#000000;stroke-width:1.67999995;stroke-linecap:round;stroke-linejoin:miter;stroke-miterlimit:10;stroke-dasharray:none;stroke-opacity:1" /><path
   d="M 592.32,81.12 L 569.76,68.16"
   id="path2488"
   style="fill:none;stroke:#000000;stroke-width:1.67999995;stroke-linecap:round;stroke-linejoin:miter;stroke-miterlimit:10;stroke-dasharray:none;stroke-opacity:1" /><path
   d="M 626.88,61.44 L 592.32,81.12"
   id="path2490"
   style="fill:none;stroke:#000000;stroke-width:1.67999995;stroke-linecap:round;stroke-linejoin:miter;stroke-miterlimit:10;stroke-dasharray:none;stroke-opacity:1" /><path
   d="M 661.2,81.12 L 626.88,61.44"
   id="path2492"
   style="fill:none;stroke:#000000;stroke-width:1.67999995;stroke-linecap:round;stroke-linejoin:miter;stroke-miterlimit:10;stroke-dasharray:none;stroke-opacity:1" /><path
   d="M 684.24,67.92 L 661.2,81.12"
   id="path2494"
   style="fill:none;stroke:#000000;stroke-width:1.67999995;stroke-linecap:round;stroke-linejoin:miter;stroke-miterlimit:10;stroke-dasharray:none;stroke-opacity:1" /><path
   d="M 526.56,81.12 L 526.56,108.72"
   id="path2496"
   style="fill:none;stroke:#000000;stroke-width:1.67999995;stroke-linecap:round;stroke-linejoin:miter;stroke-miterlimit:10;stroke-dasharray:none;stroke-opacity:1" /><path
   d="M 520.08,81.12 L 520.08,108.72"
   id="path2498"
   style="fill:none;stroke:#000000;stroke-width:1.67999995;stroke-linecap:round;stroke-linejoin:miter;stroke-miterlimit:10;stroke-dasharray:none;stroke-opacity:1" /></g></svg>
