<?xml version="1.0" encoding="UTF-8" standalone="no"?>
<!-- Created with Inkscape (http://www.inkscape.org/) -->
<svg xmlns:dc="http://purl.org/dc/elements/1.1/" xmlns:cc="http://creativecommons.org/ns#" xmlns:rdf="http://www.w3.org/1999/02/22-rdf-syntax-ns#" xmlns:svg="http://www.w3.org/2000/svg" xmlns="http://www.w3.org/2000/svg" xmlns:sodipodi="http://sodipodi.sourceforge.net/DTD/sodipodi-0.dtd" xmlns:inkscape="http://www.inkscape.org/namespaces/inkscape" id="svg2" version="1.1" inkscape:version="0.48.2 r9819" width="192.5" height="113.75" xml:space="preserve" sodipodi:docname="Disodium EDTA.pdf"><metadata id="metadata8"><rdf:RDF><cc:Work rdf:about=""><dc:format>image/svg+xml</dc:format><dc:type rdf:resource="http://purl.org/dc/dcmitype/StillImage"/><dc:title/></cc:Work></rdf:RDF></metadata><defs id="defs6"><clipPath clipPathUnits="userSpaceOnUse" id="clipPath18"><path d="M 2.875924e-6,90.99999 154,90.99999 154,-5.275011e-6 l -153.999997124076,0 0,90.999995275011 z" id="path20"/></clipPath><clipPath clipPathUnits="userSpaceOnUse" id="clipPath24"><path d="M 0,0 154,0 154,91 0,91 0,0 z" id="path26"/></clipPath></defs><sodipodi:namedview pagecolor="#ffffff" bordercolor="#666666" borderopacity="1" objecttolerance="10" gridtolerance="10" guidetolerance="10" inkscape:pageopacity="0" inkscape:pageshadow="2" inkscape:window-width="640" inkscape:window-height="480" id="namedview4" showgrid="false" inkscape:zoom="2.0519481" inkscape:cx="96.25" inkscape:cy="56.875" inkscape:window-x="0" inkscape:window-y="0" inkscape:window-maximized="0" inkscape:current-layer="g10"/><g id="g10" inkscape:groupmode="layer" inkscape:label="Disodium EDTA" transform="matrix(1.25,0,0,-1.25,0,113.75)"><g id="g12"/><g id="g14"><g id="g16" clip-path="url(#clipPath18)"><g id="g22" clip-path="url(#clipPath24)"><g id="g28" transform="matrix(0.05,0,0,0.05,134.75,38.45)"><g transform="scale(1,-1)" style="" id="text30"><path d="m 15.234375,0 0,-143.16406 19.433594,0 75.195311,112.402341 0,-112.402341 18.16406,0 0,143.16406 -19.43359,0 -75.195313,-112.5 0,112.5 -18.164062,0" style="font-size:200px;font-variant:normal;font-weight:normal;writing-mode:lr-tb;fill:#000000;fill-opacity:1;fill-rule:nonzero;stroke:none;font-family:Arial;-inkscape-font-specification:ArialMT" id="path3146"/><path d="m 225.29938,-12.792969 c -6.51049,5.5338617 -12.79304,9.4401078 -18.84766,11.7187503 -5.98964,2.2786446 -12.43494,3.4179664 -19.33594,3.4179687 -11.39326,-2.3e-6 -20.14976,-2.76692666 -26.26953,-8.3007812 -6.1198,-5.5989468 -9.17969,-12.7278458 -9.17969,-21.3867188 0,-5.078093 1.13932,-9.700484 3.41797,-13.867187 2.34374,-4.231726 5.37108,-7.617139 9.08203,-10.15625 3.77602,-2.539009 8.00779,-4.45958 12.69532,-5.761719 3.45048,-0.911401 8.65881,-1.790306 15.625,-2.636719 14.19264,-1.692647 24.64185,-3.710874 31.34765,-6.054687 0.065,-2.408786 0.0976,-3.938733 0.0977,-4.589844 -8e-5,-7.161381 -1.66023,-12.206949 -4.98047,-15.136719 -4.49226,-3.971265 -11.16543,-5.95694 -20.01953,-5.957031 -8.26828,9.1e-5 -14.38806,1.464934 -18.35938,4.394531 -3.90628,2.864668 -6.80341,7.97534 -8.6914,15.332031 l -17.1875,-2.34375 c 1.56249,-7.356689 4.1341,-13.281162 7.71484,-17.773437 3.58071,-4.557195 8.75649,-8.040265 15.52735,-10.449219 6.77079,-2.47385 14.61583,-3.71083 23.53515,-3.71094 8.8541,1.1e-4 16.04811,1.04177 21.58203,3.125 5.53377,2.08344 9.60278,4.720153 12.20703,7.910159 2.60408,3.125092 4.42699,7.096442 5.46875,11.914062 0.58585,2.994872 0.87881,8.398512 0.87891,16.210938 l 0,23.4375 c -1e-4,16.341173 0.35798,26.692725 1.07422,31.054687 0.78115,4.2968834 2.27855,8.4309938 4.49219,12.402344 L 228.815,0 c -1.823,-3.6458297 -2.99487,-7.9101483 -3.51562,-12.792969 m -1.46485,-39.257812 c -6.38028,2.604216 -15.95058,4.817755 -28.71093,6.640625 -7.22661,1.041711 -12.33728,2.213585 -15.33204,3.515625 -2.99482,1.302124 -5.30601,3.222695 -6.93359,5.761719 -1.62763,2.473991 -2.44143,5.240916 -2.44141,8.300781 -2e-5,4.687523 1.75779,8.593769 5.27344,11.71875 3.5807,3.125013 8.78902,4.687511 15.625,4.6875 6.77078,1.1e-5 12.79291,-1.464831 18.06641,-4.394532 5.27337,-2.994772 9.14706,-7.063779 11.62109,-12.207031 1.88794,-3.971322 2.83195,-9.830691 2.83203,-17.578125 l 0,-6.445312" style="font-size:200px;font-variant:normal;font-weight:normal;writing-mode:lr-tb;fill:#000000;fill-opacity:1;fill-rule:nonzero;stroke:none;font-family:Arial;-inkscape-font-specification:ArialMT" id="path3148"/></g></g><g id="g34" transform="matrix(0.05,0,0,0.05,147.5832,41.84477)"><g transform="scale(1,-1)" style="" id="text36"><path d="m 37.573242,-17.358398 0,-29.44336 -29.2236326,0 0,-12.304687 29.2236326,0 0,-29.223633 12.451172,0 0,29.223633 29.223633,0 0,12.304687 -29.223633,0 0,29.44336 -12.451172,0" style="font-size:150px;font-variant:normal;font-weight:normal;writing-mode:lr-tb;fill:#000000;fill-opacity:1;fill-rule:nonzero;stroke:none;font-family:Arial;-inkscape-font-specification:ArialMT" id="path3151"/></g></g><g id="g40" transform="matrix(0.05,0,0,0.05,36.95,14.84999)"><g transform="scale(1,-1)" style="" id="text42"><path d="m 15.234375,0 0,-143.16406 19.433594,0 75.195311,112.402341 0,-112.402341 18.16406,0 0,143.16406 -19.43359,0 -75.195313,-112.5 0,112.5 -18.164062,0" style="font-size:200px;font-variant:normal;font-weight:normal;writing-mode:lr-tb;fill:#000000;fill-opacity:1;fill-rule:nonzero;stroke:none;font-family:Arial;-inkscape-font-specification:ArialMT" id="path3154"/><path d="m 225.29938,-12.792969 c -6.51049,5.5338617 -12.79304,9.4401078 -18.84766,11.7187503 -5.98964,2.2786446 -12.43494,3.4179664 -19.33594,3.4179687 -11.39326,-2.3e-6 -20.14976,-2.76692666 -26.26953,-8.3007812 -6.1198,-5.5989468 -9.17969,-12.7278458 -9.17969,-21.3867188 0,-5.078093 1.13932,-9.700484 3.41797,-13.867187 2.34374,-4.231726 5.37108,-7.617139 9.08203,-10.15625 3.77602,-2.539009 8.00779,-4.45958 12.69532,-5.761719 3.45048,-0.911401 8.65881,-1.790306 15.625,-2.636719 14.19264,-1.692647 24.64185,-3.710874 31.34765,-6.054687 0.065,-2.408786 0.0976,-3.938733 0.0977,-4.589844 -8e-5,-7.161381 -1.66023,-12.206949 -4.98047,-15.136719 -4.49226,-3.971265 -11.16543,-5.95694 -20.01953,-5.957031 -8.26828,9.1e-5 -14.38806,1.464934 -18.35938,4.394531 -3.90628,2.864668 -6.80341,7.97534 -8.6914,15.332031 l -17.1875,-2.34375 c 1.56249,-7.356689 4.1341,-13.281162 7.71484,-17.773437 3.58071,-4.557195 8.75649,-8.040265 15.52735,-10.449219 6.77079,-2.47385 14.61583,-3.71083 23.53515,-3.71094 8.8541,1.1e-4 16.04811,1.04177 21.58203,3.125 5.53377,2.08344 9.60278,4.720153 12.20703,7.910159 2.60408,3.125092 4.42699,7.096442 5.46875,11.914062 0.58585,2.994872 0.87881,8.398512 0.87891,16.210938 l 0,23.4375 c -1e-4,16.341173 0.35798,26.692725 1.07422,31.054687 0.78115,4.2968834 2.27855,8.4309938 4.49219,12.402344 L 228.815,0 c -1.823,-3.6458297 -2.99487,-7.9101483 -3.51562,-12.792969 m -1.46485,-39.257812 c -6.38028,2.604216 -15.95058,4.817755 -28.71093,6.640625 -7.22661,1.041711 -12.33728,2.213585 -15.33204,3.515625 -2.99482,1.302124 -5.30601,3.222695 -6.93359,5.761719 -1.62763,2.473991 -2.44143,5.240916 -2.44141,8.300781 -2e-5,4.687523 1.75779,8.593769 5.27344,11.71875 3.5807,3.125013 8.78902,4.687511 15.625,4.6875 6.77078,1.1e-5 12.79291,-1.464831 18.06641,-4.394532 5.27337,-2.994772 9.14706,-7.063779 11.62109,-12.207031 1.88794,-3.971322 2.83195,-9.830691 2.83203,-17.578125 l 0,-6.445312" style="font-size:200px;font-variant:normal;font-weight:normal;writing-mode:lr-tb;fill:#000000;fill-opacity:1;fill-rule:nonzero;stroke:none;font-family:Arial;-inkscape-font-specification:ArialMT" id="path3156"/></g></g><g id="g46" transform="matrix(0.05,0,0,0.05,49.78321,18.24477)"><g transform="scale(1,-1)" style="" id="text48"><path d="m 37.573242,-17.358398 0,-29.44336 -29.2236326,0 0,-12.304687 29.2236326,0 0,-29.223633 12.451172,0 0,29.223633 29.223633,0 0,12.304687 -29.223633,0 0,29.44336 -12.451172,0" style="font-size:150px;font-variant:normal;font-weight:normal;writing-mode:lr-tb;fill:#000000;fill-opacity:1;fill-rule:nonzero;stroke:none;font-family:Arial;-inkscape-font-specification:ArialMT" id="path3159"/></g></g><g id="g52" transform="matrix(0.05,0,0,0.05,121.65,45.55)"><g transform="scale(1,-1)" style="" id="text54"><path d="m 9.6679688,-69.726562 c -9.7e-6,-23.762928 6.3801922,-42.350148 19.1406252,-55.761718 12.760375,-13.47642 29.231713,-20.2147 49.414062,-20.21484 13.216055,1.4e-4 25.130104,3.15769 35.742184,9.47265 10.61186,6.31524 18.68477,15.13684 24.21875,26.46484 5.59882,11.263124 8.39829,24.05608 8.39844,38.378911 -1.5e-4,14.518286 -2.92983,27.506555 -8.78906,38.964844 -5.85951,11.458354 -14.16028,20.149752 -24.90234,26.0742188 C 102.14834,-0.48828076 90.559805,2.4414038 78.125,2.4414063 64.648373,2.4414038 52.604114,-0.81380127 41.992187,-7.3242187 31.380177,-13.834622 23.33982,-22.721331 17.871094,-33.984375 12.402331,-45.247351 9.6679591,-57.161401 9.6679688,-69.726562 m 19.5312502,0.292968 c -2.9e-5,17.252657 4.622362,30.859414 13.867187,40.820313 9.309844,9.895852 20.963478,14.843764 34.960938,14.84375 14.25772,1.4e-5 25.976456,-5.013002 35.156246,-15.039063 9.24467,-10.026003 13.86706,-24.251249 13.86719,-42.675781 -1.3e-4,-11.653563 -1.9858,-21.809803 -5.95703,-30.468755 -3.90637,-8.72384 -9.66808,-15.46212 -17.28516,-20.21484 -7.552176,-4.81758 -16.048261,-7.22643 -25.488278,-7.22656 -13.411523,1.3e-4 -24.967501,4.62252 -34.667968,13.86719 -9.635451,9.17979 -14.453154,24.544358 -14.453125,46.093746" style="font-size:200px;font-variant:normal;font-weight:normal;writing-mode:lr-tb;fill:#000000;fill-opacity:1;fill-rule:nonzero;stroke:none;font-family:Arial;-inkscape-font-specification:ArialMT" id="path3162"/></g></g><g id="g58" transform="matrix(0.05,0,0,0.05,129.4783,48.94477)"><g transform="scale(1,-1)" style="" id="text60"><path d="m 4.7607422,-32.226562 0,-13.256836 70.5029298,0 0,13.256836 -70.5029298,0" style="font-size:150px;font-variant:normal;font-weight:normal;writing-mode:lr-tb;fill:#000000;fill-opacity:1;fill-rule:nonzero;stroke:none;font-family:Arial;-inkscape-font-specification:ArialMT" id="path3165"/></g></g><g id="g64" transform="matrix(0.05,0,0,0.05,84.85001,38.45)"><g transform="scale(1,-1)" style="" id="text66"><path d="m 15.234375,0 0,-143.16406 19.433594,0 75.195311,112.402341 0,-112.402341 18.16406,0 0,143.16406 -19.43359,0 -75.195313,-112.5 0,112.5 -18.164062,0" style="font-size:200px;font-variant:normal;font-weight:normal;writing-mode:lr-tb;fill:#000000;fill-opacity:1;fill-rule:nonzero;stroke:none;font-family:Arial;-inkscape-font-specification:ArialMT" id="path3168"/></g></g><g id="g70" transform="matrix(0.05,0,0,0.05,55.28751,27.39477)"><g transform="scale(1,-1)" style="" id="text72"><path d="m 4.7607422,-32.226562 0,-13.256836 70.5029298,0 0,13.256836 -70.5029298,0" style="font-size:150px;font-variant:normal;font-weight:normal;writing-mode:lr-tb;fill:#000000;fill-opacity:1;fill-rule:nonzero;stroke:none;font-family:Arial;-inkscape-font-specification:ArialMT" id="path3171"/></g></g><g id="g76" transform="matrix(0.05,0,0,0.05,59.33506,23.99999)"><g transform="scale(1,-1)" style="" id="text78"><path d="m 9.6679688,-69.726562 c -9.7e-6,-23.762928 6.3801922,-42.350148 19.1406252,-55.761718 12.760375,-13.47642 29.231713,-20.2147 49.414062,-20.21484 13.216055,1.4e-4 25.130104,3.15769 35.742184,9.47265 10.61186,6.31524 18.68477,15.13684 24.21875,26.46484 5.59882,11.263124 8.39829,24.05608 8.39844,38.378911 -1.5e-4,14.518286 -2.92983,27.506555 -8.78906,38.964844 -5.85951,11.458354 -14.16028,20.149752 -24.90234,26.0742188 C 102.14834,-0.48828076 90.559805,2.4414038 78.125,2.4414063 64.648373,2.4414038 52.604114,-0.81380127 41.992187,-7.3242187 31.380177,-13.834622 23.33982,-22.721331 17.871094,-33.984375 12.402331,-45.247351 9.6679591,-57.161401 9.6679688,-69.726562 m 19.5312502,0.292968 c -2.9e-5,17.252657 4.622362,30.859414 13.867187,40.820313 9.309844,9.895852 20.963478,14.843764 34.960938,14.84375 14.25772,1.4e-5 25.976456,-5.013002 35.156246,-15.039063 9.24467,-10.026003 13.86706,-24.251249 13.86719,-42.675781 -1.3e-4,-11.653563 -1.9858,-21.809803 -5.95703,-30.468755 -3.90637,-8.72384 -9.66808,-15.46212 -17.28516,-20.21484 -7.552176,-4.81758 -16.048261,-7.22643 -25.488278,-7.22656 -13.411523,1.3e-4 -24.967501,4.62252 -34.667968,13.86719 -9.635451,9.17979 -14.453154,24.544358 -14.453125,46.093746" style="font-size:200px;font-variant:normal;font-weight:normal;writing-mode:lr-tb;fill:#000000;fill-opacity:1;fill-rule:nonzero;stroke:none;font-family:Arial;-inkscape-font-specification:ArialMT" id="path3174"/></g></g><g id="g82" transform="matrix(0.05,0,0,0.05,71.8,2.399995)"><g transform="scale(1,-1)" style="" id="text84"><path d="m 9.6679688,-69.726562 c -9.7e-6,-23.762928 6.3801922,-42.350148 19.1406252,-55.761718 12.760375,-13.47642 29.231713,-20.2147 49.414062,-20.21484 13.216055,1.4e-4 25.130104,3.15769 35.742184,9.47265 10.61186,6.31524 18.68477,15.13684 24.21875,26.46484 5.59882,11.263124 8.39829,24.05608 8.39844,38.378911 -1.5e-4,14.518286 -2.92983,27.506555 -8.78906,38.964844 -5.85951,11.458354 -14.16028,20.149752 -24.90234,26.0742188 C 102.14834,-0.48828076 90.559805,2.4414038 78.125,2.4414063 64.648373,2.4414038 52.604114,-0.81380127 41.992187,-7.3242187 31.380177,-13.834622 23.33982,-22.721331 17.871094,-33.984375 12.402331,-45.247351 9.6679591,-57.161401 9.6679688,-69.726562 m 19.5312502,0.292968 c -2.9e-5,17.252657 4.622362,30.859414 13.867187,40.820313 9.309844,9.895852 20.963478,14.843764 34.960938,14.84375 14.25772,1.4e-5 25.976456,-5.013002 35.156246,-15.039063 9.24467,-10.026003 13.86706,-24.251249 13.86719,-42.675781 -1.3e-4,-11.653563 -1.9858,-21.809803 -5.95703,-30.468755 -3.90637,-8.72384 -9.66808,-15.46212 -17.28516,-20.21484 -7.552176,-4.81758 -16.048261,-7.22643 -25.488278,-7.22656 -13.411523,1.3e-4 -24.967501,4.62252 -34.667968,13.86719 -9.635451,9.17979 -14.453154,24.544358 -14.453125,46.093746" style="font-size:200px;font-variant:normal;font-weight:normal;writing-mode:lr-tb;fill:#000000;fill-opacity:1;fill-rule:nonzero;stroke:none;font-family:Arial;-inkscape-font-specification:ArialMT" id="path3177"/></g></g><g id="g88" transform="matrix(0.05,0,0,0.05,47.45,45.59999)"><g transform="scale(1,-1)" style="" id="text90"><path d="m 15.234375,0 0,-143.16406 19.433594,0 75.195311,112.402341 0,-112.402341 18.16406,0 0,143.16406 -19.43359,0 -75.195313,-112.5 0,112.5 -18.164062,0" style="font-size:200px;font-variant:normal;font-weight:normal;writing-mode:lr-tb;fill:#000000;fill-opacity:1;fill-rule:nonzero;stroke:none;font-family:Arial;-inkscape-font-specification:ArialMT" id="path3180"/></g></g><g id="g94" transform="matrix(0.05,0,0,0.05,2.200002,38.39999)"><g transform="scale(1,-1)" style="" id="text96"><path d="m 16.015625,0 0,-143.16406 18.945312,0 0,58.78906 74.414063,0 0,-58.78906 18.94531,0 0,143.16406 -18.94531,0 0,-67.480469 -74.414063,0 0,67.480469 -18.945312,0" style="font-size:200px;font-variant:normal;font-weight:normal;writing-mode:lr-tb;fill:#000000;fill-opacity:1;fill-rule:nonzero;stroke:none;font-family:Arial;-inkscape-font-specification:ArialMT" id="path3183"/><path d="m 154.10797,-69.726562 c -1e-5,-23.762928 6.38019,-42.350148 19.14063,-55.761718 12.76037,-13.47642 29.23171,-20.2147 49.41406,-20.21484 13.21605,1.4e-4 25.1301,3.15769 35.74219,9.47265 10.61185,6.31524 18.68476,15.13684 24.21875,26.46484 5.59881,11.263124 8.39829,24.05608 8.39843,38.378911 -1.4e-4,14.518286 -2.92983,27.506555 -8.78906,38.964844 -5.85951,11.458354 -14.16028,20.149752 -24.90234,26.0742188 -10.74229,5.85937544 -22.33082,8.78906 -34.76563,8.7890625 -13.47662,-2.5e-6 -25.52088,-3.25520757 -36.13281,-9.765625 -10.61201,-6.5104033 -18.65237,-15.3971123 -24.12109,-26.6601563 -5.46877,-11.262976 -8.20314,-23.177026 -8.20313,-35.742187 m 19.53125,0.292968 c -3e-5,17.252657 4.62236,30.859414 13.86719,40.820313 9.30984,9.895852 20.96348,14.843764 34.96094,14.84375 14.25772,1.4e-5 25.97645,-5.013002 35.15625,-15.039063 9.24467,-10.026003 13.86706,-24.251249 13.86718,-42.675781 -1.2e-4,-11.653563 -1.9858,-21.809803 -5.95703,-30.468755 -3.90636,-8.72384 -9.66808,-15.46212 -17.28515,-20.21484 -7.55218,-4.81758 -16.04827,-7.22643 -25.48829,-7.22656 -13.41152,1.3e-4 -24.9675,4.62252 -34.66796,13.86719 -9.63545,9.17979 -14.45316,24.544358 -14.45313,46.093746" style="font-size:200px;font-variant:normal;font-weight:normal;writing-mode:lr-tb;fill:#000000;fill-opacity:1;fill-rule:nonzero;stroke:none;font-family:Arial;-inkscape-font-specification:ArialMT" id="path3185"/></g></g><g id="g100" transform="matrix(0.05,0,0,0.05,21.9,59.95)"><g transform="scale(1,-1)" style="" id="text102"><path d="m 9.6679688,-69.726562 c -9.7e-6,-23.762928 6.3801922,-42.350148 19.1406252,-55.761718 12.760375,-13.47642 29.231713,-20.2147 49.414062,-20.21484 13.216055,1.4e-4 25.130104,3.15769 35.742184,9.47265 10.61186,6.31524 18.68477,15.13684 24.21875,26.46484 5.59882,11.263124 8.39829,24.05608 8.39844,38.378911 -1.5e-4,14.518286 -2.92983,27.506555 -8.78906,38.964844 -5.85951,11.458354 -14.16028,20.149752 -24.90234,26.0742188 C 102.14834,-0.48828076 90.559805,2.4414038 78.125,2.4414063 64.648373,2.4414038 52.604114,-0.81380127 41.992187,-7.3242187 31.380177,-13.834622 23.33982,-22.721331 17.871094,-33.984375 12.402331,-45.247351 9.6679591,-57.161401 9.6679688,-69.726562 m 19.5312502,0.292968 c -2.9e-5,17.252657 4.622362,30.859414 13.867187,40.820313 9.309844,9.895852 20.963478,14.843764 34.960938,14.84375 14.25772,1.4e-5 25.976456,-5.013002 35.156246,-15.039063 9.24467,-10.026003 13.86706,-24.251249 13.86719,-42.675781 -1.3e-4,-11.653563 -1.9858,-21.809803 -5.95703,-30.468755 -3.90637,-8.72384 -9.66808,-15.46212 -17.28516,-20.21484 -7.552176,-4.81758 -16.048261,-7.22643 -25.488278,-7.22656 -13.411523,1.3e-4 -24.967501,4.62252 -34.667968,13.86719 -9.635451,9.17979 -14.453154,24.544358 -14.453125,46.093746" style="font-size:200px;font-variant:normal;font-weight:normal;writing-mode:lr-tb;fill:#000000;fill-opacity:1;fill-rule:nonzero;stroke:none;font-family:Arial;-inkscape-font-specification:ArialMT" id="path3188"/></g></g><g id="g106" transform="matrix(0.05,0,0,0.05,71.8,59.95)"><g transform="scale(1,-1)" style="" id="text108"><path d="m 9.6679688,-69.726562 c -9.7e-6,-23.762928 6.3801922,-42.350148 19.1406252,-55.761718 12.760375,-13.47642 29.231713,-20.2147 49.414062,-20.21484 13.216055,1.4e-4 25.130104,3.15769 35.742184,9.47265 10.61186,6.31524 18.68477,15.13684 24.21875,26.46484 5.59882,11.263124 8.39829,24.05608 8.39844,38.378911 -1.5e-4,14.518286 -2.92983,27.506555 -8.78906,38.964844 -5.85951,11.458354 -14.16028,20.149752 -24.90234,26.0742188 C 102.14834,-0.48828076 90.559805,2.4414038 78.125,2.4414063 64.648373,2.4414038 52.604114,-0.81380127 41.992187,-7.3242187 31.380177,-13.834622 23.33982,-22.721331 17.871094,-33.984375 12.402331,-45.247351 9.6679591,-57.161401 9.6679688,-69.726562 m 19.5312502,0.292968 c -2.9e-5,17.252657 4.622362,30.859414 13.867187,40.820313 9.309844,9.895852 20.963478,14.843764 34.960938,14.84375 14.25772,1.4e-5 25.976456,-5.013002 35.156246,-15.039063 9.24467,-10.026003 13.86706,-24.251249 13.86719,-42.675781 -1.3e-4,-11.653563 -1.9858,-21.809803 -5.95703,-30.468755 -3.90637,-8.72384 -9.66808,-15.46212 -17.28516,-20.21484 -7.552176,-4.81758 -16.048261,-7.22643 -25.488278,-7.22656 -13.411523,1.3e-4 -24.967501,4.62252 -34.667968,13.86719 -9.635451,9.17979 -14.453154,24.544358 -14.453125,46.093746" style="font-size:200px;font-variant:normal;font-weight:normal;writing-mode:lr-tb;fill:#000000;fill-opacity:1;fill-rule:nonzero;stroke:none;font-family:Arial;-inkscape-font-specification:ArialMT" id="path3191"/><path d="m 171.57562,0 0,-143.16406 18.94532,0 0,58.78906 74.41406,0 0,-58.78906 18.94531,0 0,143.16406 -18.94531,0 0,-67.480469 -74.41406,0 0,67.480469 -18.94532,0" style="font-size:200px;font-variant:normal;font-weight:normal;writing-mode:lr-tb;fill:#000000;fill-opacity:1;fill-rule:nonzero;stroke:none;font-family:Arial;-inkscape-font-specification:ArialMT" id="path3193"/></g></g><g id="g112" transform="matrix(0.05,0,0,0.05,59.3,81.55)"><g transform="scale(1,-1)" style="" id="text114"><path d="m 9.6679688,-69.726562 c -9.7e-6,-23.762928 6.3801922,-42.350148 19.1406252,-55.761718 12.760375,-13.47642 29.231713,-20.2147 49.414062,-20.21484 13.216055,1.4e-4 25.130104,3.15769 35.742184,9.47265 10.61186,6.31524 18.68477,15.13684 24.21875,26.46484 5.59882,11.263124 8.39829,24.05608 8.39844,38.378911 -1.5e-4,14.518286 -2.92983,27.506555 -8.78906,38.964844 -5.85951,11.458354 -14.16028,20.149752 -24.90234,26.0742188 C 102.14834,-0.48828076 90.559805,2.4414038 78.125,2.4414063 64.648373,2.4414038 52.604114,-0.81380127 41.992187,-7.3242187 31.380177,-13.834622 23.33982,-22.721331 17.871094,-33.984375 12.402331,-45.247351 9.6679591,-57.161401 9.6679688,-69.726562 m 19.5312502,0.292968 c -2.9e-5,17.252657 4.622362,30.859414 13.867187,40.820313 9.309844,9.895852 20.963478,14.843764 34.960938,14.84375 14.25772,1.4e-5 25.976456,-5.013002 35.156246,-15.039063 9.24467,-10.026003 13.86706,-24.251249 13.86719,-42.675781 -1.3e-4,-11.653563 -1.9858,-21.809803 -5.95703,-30.468755 -3.90637,-8.72384 -9.66808,-15.46212 -17.28516,-20.21484 -7.552176,-4.81758 -16.048261,-7.22643 -25.488278,-7.22656 -13.411523,1.3e-4 -24.967501,4.62252 -34.667968,13.86719 -9.635451,9.17979 -14.453154,24.544358 -14.453125,46.093746" style="font-size:200px;font-variant:normal;font-weight:normal;writing-mode:lr-tb;fill:#000000;fill-opacity:1;fill-rule:nonzero;stroke:none;font-family:Arial;-inkscape-font-specification:ArialMT" id="path3196"/></g></g><g id="g118" transform="matrix(0.05,0,0,0.05,109.2,23.99999)"><g transform="scale(1,-1)" style="" id="text120"><path d="m 9.6679688,-69.726562 c -9.7e-6,-23.762928 6.3801922,-42.350148 19.1406252,-55.761718 12.760375,-13.47642 29.231713,-20.2147 49.414062,-20.21484 13.216055,1.4e-4 25.130104,3.15769 35.742184,9.47265 10.61186,6.31524 18.68477,15.13684 24.21875,26.46484 5.59882,11.263124 8.39829,24.05608 8.39844,38.378911 -1.5e-4,14.518286 -2.92983,27.506555 -8.78906,38.964844 -5.85951,11.458354 -14.16028,20.149752 -24.90234,26.0742188 C 102.14834,-0.48828076 90.559805,2.4414038 78.125,2.4414063 64.648373,2.4414038 52.604114,-0.81380127 41.992187,-7.3242187 31.380177,-13.834622 23.33982,-22.721331 17.871094,-33.984375 12.402331,-45.247351 9.6679591,-57.161401 9.6679688,-69.726562 m 19.5312502,0.292968 c -2.9e-5,17.252657 4.622362,30.859414 13.867187,40.820313 9.309844,9.895852 20.963478,14.843764 34.960938,14.84375 14.25772,1.4e-5 25.976456,-5.013002 35.156246,-15.039063 9.24467,-10.026003 13.86706,-24.251249 13.86719,-42.675781 -1.3e-4,-11.653563 -1.9858,-21.809803 -5.95703,-30.468755 -3.90637,-8.72384 -9.66808,-15.46212 -17.28516,-20.21484 -7.552176,-4.81758 -16.048261,-7.22643 -25.488278,-7.22656 -13.411523,1.3e-4 -24.967501,4.62252 -34.667968,13.86719 -9.635451,9.17979 -14.453154,24.544358 -14.453125,46.093746" style="font-size:200px;font-variant:normal;font-weight:normal;writing-mode:lr-tb;fill:#000000;fill-opacity:1;fill-rule:nonzero;stroke:none;font-family:Arial;-inkscape-font-specification:ArialMT" id="path3199"/></g></g><path d="m 112.6,41.64999 0,0.7 8.2,4.70001 0.3,-0.5 -8.5,-4.90001 z" style="fill:#000000;fill-opacity:1;fill-rule:nonzero;stroke:none" id="path124"/><path d="m 100.15,48.84999 0,0.70001 12.45,-7.20001 0,-0.7 -12.45,7.2 z" style="fill:#000000;fill-opacity:1;fill-rule:nonzero;stroke:none" id="path126"/><path d="m 93.4,44.95 -0.29999,0.55 7.04999,4.05 0,-0.70001 L 93.4,44.95 z" style="fill:#000000;fill-opacity:1;fill-rule:nonzero;stroke:none" id="path128"/><path d="m 87.95,27.45 -0.59999,0.35 0,9 0.59999,0 0,-9.35 z" style="fill:#000000;fill-opacity:1;fill-rule:nonzero;stroke:none" id="path130"/><path d="m 75.2,20.05 0,0.69999 L 87.35001,27.8 87.95,27.45 75.2,20.05 z" style="fill:#000000;fill-opacity:1;fill-rule:nonzero;stroke:none" id="path132"/><path d="m 67.4,24.55 0.3,0.5 7.5,-4.30001 0,-0.69999 -7.8,4.5 z" style="fill:#000000;fill-opacity:1;fill-rule:nonzero;stroke:none" id="path134"/><path d="m 76.8,11.25 -0.6,0 0,9.9 0.6,0 0,-9.9 z" style="fill:#000000;fill-opacity:1;fill-rule:nonzero;stroke:none" id="path136"/><path d="m 74.2,11.25 -0.59999,0 0,9.9 0.59999,0 0,-9.9 z" style="fill:#000000;fill-opacity:1;fill-rule:nonzero;stroke:none" id="path138"/><path d="m 75.2,48.84999 0,0.70001 8.25,-4.75 -0.3,-0.55 -7.95,4.59999 z" style="fill:#000000;fill-opacity:1;fill-rule:nonzero;stroke:none" id="path140"/><path d="m 62.75,41.64999 0,0.7 12.45,7.20001 0,-0.70001 -12.45,-7.2 z" style="fill:#000000;fill-opacity:1;fill-rule:nonzero;stroke:none" id="path142"/><path d="m 55.7,45.7 0.3,0.55 6.75,-3.90001 0,-0.7 L 55.7,45.7 z" style="fill:#000000;fill-opacity:1;fill-rule:nonzero;stroke:none" id="path144"/><path d="m 37.8,41.64999 0,0.7 7.95,4.60001 0.3,-0.55001 -8.25,-4.75 z" style="fill:#000000;fill-opacity:1;fill-rule:nonzero;stroke:none" id="path146"/><path d="m 25.35,48.84999 0,0.70001 12.45,-7.20001 0,-0.7 -12.45,7.2 z" style="fill:#000000;fill-opacity:1;fill-rule:nonzero;stroke:none" id="path148"/><path d="m 17.85,44.5 -0.3,0.55 7.8,4.5 0,-0.70001 L 17.85,44.5 z" style="fill:#000000;fill-opacity:1;fill-rule:nonzero;stroke:none" id="path150"/><path d="m 23.75,58.34999 0.6,0 0,-9.89999 -0.6,0 0,9.89999 z" style="fill:#000000;fill-opacity:1;fill-rule:nonzero;stroke:none" id="path152"/><path d="m 26.3,58.34999 0.6,0 0,-9.89999 -0.6,0 0,9.89999 z" style="fill:#000000;fill-opacity:1;fill-rule:nonzero;stroke:none" id="path154"/><path d="m 49.95,63.75 0.6,-0.35001 0,-9.05 -0.6,0 0,9.40001 z" style="fill:#000000;fill-opacity:1;fill-rule:nonzero;stroke:none" id="path156"/><path d="m 62.75,71.14999 0,-0.69999 -12.2,-7.05001 -0.6,0.35001 12.8,7.39999 z" style="fill:#000000;fill-opacity:1;fill-rule:nonzero;stroke:none" id="path158"/><path d="M 71.25001,66.24999 70.95,65.7 l -8.2,4.75 0,0.69999 8.50001,-4.9 z" style="fill:#000000;fill-opacity:1;fill-rule:nonzero;stroke:none" id="path160"/><path d="m 61.15001,79.95 0.59999,0 0,-9.9 -0.59999,0 0,9.9 z" style="fill:#000000;fill-opacity:1;fill-rule:nonzero;stroke:none" id="path162"/><path d="m 63.75,79.95 0.60001,0 0,-9.9 -0.60001,0 0,9.9 z" style="fill:#000000;fill-opacity:1;fill-rule:nonzero;stroke:none" id="path164"/><path d="m 114.2,32.84999 -0.6,0 0,9.90001 0.6,0 0,-9.90001 z" style="fill:#000000;fill-opacity:1;fill-rule:nonzero;stroke:none" id="path166"/><path d="m 111.6,32.84999 -0.6,0 0,9.90001 0.6,0 0,-9.90001 z" style="fill:#000000;fill-opacity:1;fill-rule:nonzero;stroke:none" id="path168"/></g></g></g></g></svg>