<?xml version="1.0" encoding="UTF-8" standalone="no"?>
<!-- Created with Inkscape (http://www.inkscape.org/) -->

<svg
   version="1.1"
   id="svg1"
   width="216.64713"
   height="328.60886"
   viewBox="0 0 216.64712 328.60886"
   sodipodi:docname="disodiumhydrogenphosphate.svg"
   inkscape:version="1.4.2 (f4327f4, 2025-05-13)"
   xmlns:inkscape="http://www.inkscape.org/namespaces/inkscape"
   xmlns:sodipodi="http://sodipodi.sourceforge.net/DTD/sodipodi-0.dtd"
   xmlns="http://www.w3.org/2000/svg"
   xmlns:svg="http://www.w3.org/2000/svg">
  <defs
     id="defs1" />
  <sodipodi:namedview
     id="namedview1"
     pagecolor="#ffffff"
     bordercolor="#000000"
     borderopacity="0.25"
     inkscape:showpageshadow="2"
     inkscape:pageopacity="0.0"
     inkscape:pagecheckerboard="0"
     inkscape:deskcolor="#d1d1d1"
     inkscape:zoom="2.4375573"
     inkscape:cx="247.17367"
     inkscape:cy="170.45753"
     inkscape:window-width="1920"
     inkscape:window-height="1111"
     inkscape:window-x="-9"
     inkscape:window-y="-9"
     inkscape:window-maximized="1"
     inkscape:current-layer="g1" />
  <g
     inkscape:groupmode="layer"
     inkscape:label="Image"
     id="g1"
     transform="translate(131.95168,-3.905805)">
    <path
       style="fill:#000000"
       d="m 4.0115415,332.10433 c -2.88468,-1.03087 -4.42304998,-3.14535 -4.43618998,-6.09749 -0.01,-2.13551 0.99645,-4.12172 2.66460998,-5.26117 1.63951,-1.11988 2.84869,-1.50494 6.12836,-1.95157 1.408,-0.19174 3.6040005,-0.56987 4.8800005,-0.84028 l 2.32,-0.49167 v -1.53502 c 0,-2.81921 -1.84771,-4.1817 -5.6697205,-4.18083 -2.8904,6.7e-4 -4.1682,0.65317 -5.21028,2.66062 l -0.8,1.54112 -1.76,-0.212 c -0.968,-0.1166 -1.79209998,-0.2422 -1.83132998,-0.27911 -0.0392,-0.0369 0.0703,-0.57995 0.24335,-1.20676 0.70707998,-2.56085 2.61120998,-4.35823 5.53777998,-5.22733 2.07227,-0.6154 6.9775205,-0.61855 9.0408505,-0.006 1.72932,0.51355 3.36904,1.96297 3.99209,3.52877 0.24012,0.60344 0.45654,4.05015 0.5827,9.28 0.13739,5.69554 0.32591,8.54048 0.59763,9.01896 0.21831,0.38443 0.39693,0.78043 0.39693,0.88 0,0.0996 -0.93326,0.18104 -2.0739,0.18104 -2.00236,0 -2.08056,-0.0304 -2.26673,-0.88 -0.10605,-0.484 -0.24623,-1.05468 -0.31151,-1.26818 -0.0767,-0.25066 -0.69938,0.003 -1.75786,0.71491 -0.90154,0.60669 -2.37424,1.32137 -3.27266,1.58817 -1.9769705,0.58709 -5.4133405,0.60852 -6.9941205,0.0436 z m 6.6835305,-2.92642 c 3.22493,-0.9577 4.85365,-3.22626 4.86622,-6.77791 l 0.007,-1.9858 -1.20008,0.42341 c -0.66004,0.23287 -2.28004,0.5964 -3.6,0.80784 -5.5610405,0.89078 -7.0399205,1.77286 -7.0399205,4.19896 0,2.10608 1.89316,3.70093 4.50192,3.79254 0.45206,0.0159 1.56123,-0.1907 2.4648305,-0.45904 z m -41.52675,-13.1121 v -15.84 l 2.32,0.008 2.32,0.008 8.16,12.30324 c 4.488,6.76677 8.2679995,12.307 8.3999995,12.31161 0.132,0.005 0.24,-5.53561 0.24,-12.31161 v -12.31924 h 1.92 1.92 v 15.84 15.84 h -2.17599 -2.17599 l -8.3040095,-12.39665 -8.30401,-12.39665 -0.0838,12.39665 -0.0838,12.39665 h -2.07616 -2.07624 z m 61.76,-21.76 v -3.36 h -3.36 -3.36 v -1.44 -1.44 h 3.36 3.36 v -3.36 -3.36 h 1.44 1.44 v 3.36 3.36 h 3.36 3.36 v 1.44 1.44 h -3.36 -3.36 v 3.36 3.36 h -1.44 -1.44 z m -43.48652,-18.58641 c -5.25981,-1.41444 -9.26619,-5.67904 -10.58413,-11.26632 -0.49945,-2.11733 -0.50148,-6.80437 -0.004,-9.25159 1.4718,-7.24037 7.24797,-11.92011 14.7274395,-11.93189 4.40664,-0.007 7.39352,1.12778 10.47271,3.97857 6.41493,5.93909 6.52736,18.69007 0.21963,24.9087 -3.57538,3.52488 -9.59492,4.97076 -14.8316295,3.56253 z m 7.4066895,-3.4818 c 4.94374002,-1.50014 7.61668,-5.82378 7.64104,-12.35986 0.0132,-3.53237 -0.34684,-5.15048 -1.72387998,-7.74838 -1.14096,-2.15251 -2.29310002,-3.2205 -4.63638002,-4.29772 -5.08743,-2.33874 -11.4461395,-0.30005 -13.8674495,4.4461 -1.40291,2.74995 -1.94538,7.74846 -1.21683,11.21232 1.15731,5.50235 5.28015,9.16064 10.3633295,9.19561 1.056,0.007 2.60408,-0.19437 3.44017,-0.44807 z m -4.24809,-33.63263 c -0.18758,-0.49337 -0.31208,-7.16708 -0.31208,-16.72879 0,-13.88004 0.0635,-15.99863 0.49815,-16.61917 0.54194,-0.77373 1.70687,-0.93818 2.31785,-0.3272 0.55374,0.55374 0.55374,33.55826 0,34.112 -0.2112,0.2112 -0.79076,0.384 -1.28792,0.384 -0.67586,0 -0.98266,-0.2071 -1.216,-0.82084 z m 18.56792,-2.21916 v -1.12 h 9.6000005 9.6 v 1.12 1.12 h -9.6 -9.6000005 z M -90.318196,197.9594 c -5.259814,-1.41444 -9.266189,-5.67904 -10.584134,-11.26632 -0.49945,-2.11733 -0.50148,-6.80437 -0.004,-9.25158 1.471801,-7.24038 7.247972,-11.92012 14.727437,-11.93189 4.406636,-0.007 7.393518,1.12777 10.472712,3.97856 6.41493,5.93909 6.52736,18.69007 0.219631,24.9087 -3.575381,3.52488 -9.594926,4.97076 -14.83163,3.56253 z m 7.406692,-3.4818 c 4.943739,-1.50013 7.616675,-5.82378 7.64103,-12.35986 0.01316,-3.53237 -0.346837,-5.15048 -1.723876,-7.74838 -1.140959,-2.15251 -2.2931,-3.2205 -4.636376,-4.29772 -5.08743,-2.33874 -11.446142,-0.30005 -13.867449,4.44611 -1.402916,2.74994 -1.945389,7.74845 -1.216835,11.21231 1.157313,5.50235 5.28015,9.16064 10.363332,9.19561 1.056,0.007 2.604078,-0.19437 3.440174,-0.44807 z m 148.113306,3.4818 c -5.25981,-1.41444 -9.26619,-5.67904 -10.58413,-11.26632 -0.49945,-2.11733 -0.50148,-6.80437 -0.004,-9.25158 1.4718,-7.24038 7.24797,-11.92012 14.72744,-11.93189 4.40664,-0.007 7.39352,1.12777 10.47271,3.97856 6.41493,5.93909 6.52736,18.69007 0.21963,24.9087 -3.57538,3.52488 -9.59492,4.97076 -14.83163,3.56253 z m 7.40669,-3.4818 c 4.94374,-1.50013 7.61668,-5.82378 7.64104,-12.35986 0.0132,-3.53237 -0.34684,-5.15048 -1.72388,-7.74838 -1.14096,-2.15251 -2.2931,-3.2205 -4.63638,-4.29772 -5.08743,-2.33874 -11.44614,-0.30005 -13.86745,4.44611 -1.40291,2.74994 -1.94538,7.74845 -1.21683,11.21231 1.15731,5.50235 5.28015,9.16064 10.36333,9.19561 1.056,0.007 2.60408,-0.19437 3.44017,-0.44807 z M -131.95168,181.98581 v -15.84 h 2.08 2.08 v 6.56 6.56 h 8.32 8.32 v -6.56 -6.56 h 2.08 2.08 v 15.84 15.84 h -2.08 -2.08 v -7.52 -7.52 h -8.32 -8.32 v 7.52 7.52 h -2.08 -2.08 z m 112.640002,0 v -15.84 h 8.42192 c 10.22049952,0 11.06670952,0.16779 13.5169095,2.68017 1.91544,1.96406 2.56307,3.78125 2.49639,7.00461 -0.0818,3.95298 -2.48128,7.31743 -6.02123998,8.44267 -1.15133002,0.36596 -3.37977002,0.55823 -7.77398002,0.67072 l -6.1599995,0.15768 v 6.36208 6.36207 h -2.24 -2.24 z m 17.5440495,-1.70665 c 3.45918,-1.82675 3.49306,-7.77631 0.0558,-9.79552 -1.00031,-0.58763 -1.76014,-0.66957 -7.11982,-0.76781 l -5.9999995,-0.10997 v 5.82049 5.8205 l 5.8399995,-0.1184 c 5.33616,-0.10818 5.95941,-0.18145 7.22405,-0.84929 z m 12.4561705,12.52611 c -0.68638,-0.17939 -1.0915005,-1.61295 -0.65251,-2.30899 0.28773,-0.4562 2.30463,-0.51925 18.97121,-0.59307 13.50754,-0.0598 18.76943,0.0172 19.08516,0.27918 0.65937,0.54723 0.54457,2.12275 -0.18304,2.51216 -0.6105,0.32673 -35.99162,0.43197 -37.22082,0.11072 z m -74.880001,-8.32 c -0.68638,-0.17939 -1.091497,-1.61296 -0.652507,-2.30899 0.287785,-0.4563 2.31814,-0.51924 19.131229,-0.59305 13.625879,-0.0598 18.929399,0.0171 19.245169,0.27918 0.65934,0.54721 0.54453,2.12274 -0.18307,2.51214 -0.61053,0.32674 -36.311393,0.43203 -37.540821,0.11072 z m 74.880001,-8.32 c -0.68638,-0.17939 -1.0915005,-1.61295 -0.65251,-2.30899 0.28773,-0.4562 2.30463,-0.51925 18.97121,-0.59307 13.50754,-0.0598 18.76943,0.0171 19.08516,0.27918 0.65937,0.54723 0.54457,2.12275 -0.18304,2.51216 -0.6105,0.32673 -35.99162,0.43197 -37.22082,0.11072 z M -9.3995985,160.84498 c -0.18773,-0.49378 -0.31208,-7.22313 -0.31208,-16.8888 0,-14.02486 0.0633,-16.1584 0.49815,-16.77917 0.54194,-0.77373 1.70687,-0.93818 2.31785,-0.3272 0.5538,0.5538 0.5538,33.87819 0,34.432 -0.2112,0.2112 -0.79076,0.384 -1.28792,0.384 -0.67586,0 -0.98266,-0.2071 -1.216,-0.82083 z M -12.558198,119.8794 c -5.25981,-1.41444 -9.26619,-5.67904 -10.58413,-11.26632 -0.49945,-2.11733 -0.50148,-6.80437 -0.004,-9.251585 1.4718,-7.240376 7.24797,-11.92012 14.7274395,-11.931893 4.40664,-0.0069 7.39352,1.127775 10.47271,3.978565 6.41493,5.939098 6.52736,18.690073 0.21963,24.908703 -3.57538,3.52488 -9.59492,4.97076 -14.8316295,3.56253 z m 7.4066895,-3.4818 c 4.94374002,-1.50013 7.61668,-5.82378 7.64104,-12.35986 0.0132,-3.53237 -0.34684,-5.150485 -1.72387998,-7.748385 -1.14096,-2.15251 -2.29310002,-3.2205 -4.63638002,-4.297722 -5.08743,-2.33874 -11.4461395,-0.300043 -13.8674495,4.446112 -1.40291,2.74994 -1.94538,7.748455 -1.21683,11.212315 1.15731,5.50235 5.28015,9.16064 10.3633295,9.19561 1.056,0.007 2.60408,-0.19437 3.44017,-0.44807 z m 14.31983,-35.851796 v -1.12 h 9.6000005 9.6 v 1.12 1.12 h -9.6 -9.6000005 z m -0.35678,-25.881478 c -2.88468,-1.030872 -4.42305,-3.145348 -4.43619,-6.09749 -0.01,-2.135508 0.99645,-4.121717 2.66461,-5.261171 1.63951,-1.119874 2.84869,-1.504936 6.1283605,-1.951561 1.408,-0.191742 3.604,-0.569871 4.88,-0.840288 l 2.32,-0.491666 v -1.535018 c 0,-2.819213 -1.84771,-4.181706 -5.66972,-4.18083 -2.8904,6.62e-4 -4.1682,0.653167 -5.2102805,2.660619 l -0.8,1.541117 -1.76,-0.211998 c -0.968,-0.116599 -1.7921,-0.242198 -1.83133,-0.27911 -0.0392,-0.03691 0.0703,-0.579954 0.24335,-1.206761 0.70708,-2.560849 2.61121,-4.358229 5.5377805,-5.227326 2.07227,-0.615399 6.97752,-0.61855 9.04085,-0.0058 1.72932,0.513553 3.36904,1.962968 3.99209,3.528768 0.24012,0.603444 0.45654,4.050154 0.5827,9.28 0.13739,5.695545 0.32591,8.54048 0.59763,9.018963 0.21831,0.384429 0.39693,0.780429 0.39693,0.88 0,0.09957 -0.93326,0.181037 -2.0739,0.181037 -2.00236,0 -2.08056,-0.03036 -2.26673,-0.88 -0.10605,-0.484 -0.24623,-1.054678 -0.31151,-1.268173 -0.0767,-0.25066 -0.69938,0.0026 -1.75786,0.714904 -0.90154,0.606692 -2.37424,1.321369 -3.27266,1.588173 -1.97697,0.587095 -5.41334,0.608525 -6.9941205,0.04362 z m 6.6835305,-2.926412 c 3.22493,-0.957704 4.85365,-3.226263 4.86622,-6.777915 l 0.007,-1.985805 -1.20008,0.423412 c -0.66004,0.232877 -2.28004,0.596404 -3.6,0.807838 -5.56104,0.890784 -7.0399205,1.772863 -7.0399205,4.198963 0,2.106086 1.8931605,3.700935 4.5019205,3.792537 0.45206,0.01587 1.56123,-0.190691 2.46483,-0.45903 z m -41.52675,-13.11211 V 22.785805 l 2.32,0.0084 2.32,0.0084 8.16,12.303234 c 4.4879995,6.766779 8.2679995,12.307007 8.3999995,12.311617 0.132,0.0046 0.24,-5.535617 0.24,-12.311617 V 22.785805 h 1.92 1.92000002 v 15.839999 15.84 h -2.17599002 -2.17599 l -8.3040095,-12.396648 -8.30401,-12.396649 -0.0838,12.396649 -0.0837,12.396648 h -2.07626 -2.07624 z m 61.76,-21.759999 v -3.36 h -3.36 -3.36 v -1.44 -1.44 h 3.36 3.36 v -3.36 -3.36 h 1.44 1.44 v 3.36 3.36 h 3.36 3.36 v 1.44 1.44 h -3.36 -3.36 v 3.36 3.36 h -1.44 -1.44 z"
       id="path1" />
  </g>
</svg>
