<?xml version="1.0" encoding="UTF-8" standalone="no"?>
<!-- Created with Inkscape (http://www.inkscape.org/) -->

<svg
   version="1.1"
   id="svg1"
   width="329.59982"
   height="105.40334"
   viewBox="0 0 329.59983 105.40334"
   sodipodi:docname="ethanol.svg"
   inkscape:version="1.4.2 (f4327f4, 2025-05-13)"
   xmlns:inkscape="http://www.inkscape.org/namespaces/inkscape"
   xmlns:sodipodi="http://sodipodi.sourceforge.net/DTD/sodipodi-0.dtd"
   xmlns="http://www.w3.org/2000/svg"
   xmlns:svg="http://www.w3.org/2000/svg">
  <defs
     id="defs1" />
  <sodipodi:namedview
     id="namedview1"
     pagecolor="#ffffff"
     bordercolor="#000000"
     borderopacity="0.25"
     inkscape:showpageshadow="2"
     inkscape:pageopacity="0.0"
     inkscape:pagecheckerboard="0"
     inkscape:deskcolor="#d1d1d1"
     inkscape:zoom="0.95247868"
     inkscape:cx="-90.815681"
     inkscape:cy="42.520637"
     inkscape:window-width="1920"
     inkscape:window-height="1111"
     inkscape:window-x="-9"
     inkscape:window-y="-9"
     inkscape:window-maximized="1"
     inkscape:current-layer="g1" />
  <g
     inkscape:groupmode="layer"
     inkscape:label="Image"
     id="g1"
     transform="translate(5.4292455,-11.530806)">
    <path
       style="fill:#000000"
       d="M 116.81075,116.02785 C 116.01875,115.53274 88.586752,99.673765 55.850755,80.785694 23.114755,61.897622 -4.0652455,46.078512 -4.5492455,45.632112 c -0.603891,-0.55697 -0.88,-1.1296 -0.88,-1.82504 0,-1.33131 1.257292,-2.70686 2.474155,-2.70686 0.617961,0 20.0633955,11.06257 61.3509835,34.902758 34.365329,19.843155 60.673487,34.84334 60.972887,34.76504 0.28964,-0.0757 18.39541,-10.45398 40.23504,-23.062755 28.31031,-16.344523 39.9822,-22.925043 40.66222,-22.925043 1.30098,0 2.28751,0.89084 2.50723,2.26404 0.14613,0.91323 0.0312,1.310516 -0.56973,1.969234 -1.05113,1.152237 -82.26008,47.928174 -83.19632,47.920654 -0.41606,-0.003 -1.40447,-0.41117 -2.19647,-0.90629 z m 120.48,-45.168871 c -9.2392,-0.990209 -16.70345,-6.213837 -20.79101,-14.549967 -2.68093,-5.46745 -3.21657,-8.03477 -3.17316,-15.2088 0.0321,-5.30189 0.12355,-6.25172 0.87606,-9.09715 2.67357,-10.10936 9.52384,-17.2572 18.92811,-19.75032 3.64233,-0.96561 11.03677,-0.96187 14.72,0.007 3.19233,0.84011 7.74398,3.0746 10.15099,4.98331 3.71165,2.94326 7.30773,8.44069 8.70609,13.30924 1.93937,6.75217 1.94431,14.96715 0.0129,21.42749 -1.40485,4.699 -4.88553,10.16111 -8.17438,12.82777 -5.68505,4.609553 -13.62223,6.869091 -21.25558,6.050989 z m 8.8054,-7.061767 c 3.42315,-0.94861 5.26066,-2.04571 8.03346,-4.79646 2.85145,-2.82877 4.33646,-5.5727 5.45175,-10.07348 1.05037,-4.23876 0.97898,-11.21702 -0.15941,-15.58344 -1.1429,-4.38366 -2.73239,-7.28254 -5.48512,-10.00362 -4.02887,-3.98255 -8.08039,-5.46061 -14.23782,-5.19417 -4.4609,0.19303 -6.71709,0.90048 -10.11084,3.17036 -3.89234,2.60335 -5.90839,5.44351 -7.31878,10.31048 -1.50404,5.19013 -1.73931,11.98217 -0.59971,17.31333 1.55167,7.25888 7.05275,13.21734 13.86107,15.01355 2.69809,0.71182 7.69917,0.63772 10.5654,-0.15655 z m 32.95461,-22.70715 v -28.81016 l 3.76,0.0902 3.76,0.0902 0.0839,11.76 0.0839,11.76 h 14.87212 14.87211 l 0.0839,-11.76 0.0839,-11.76 3.76,-0.0902 3.76,-0.0902 v 28.81016 28.810153 h -3.84 -3.84 v -13.600003 -13.6 h -14.88 -14.88 v 13.6 13.600003 h -3.84 -3.84 z"
       id="path1" />
  </g>
</svg>
