<?xml version="1.0" encoding="UTF-8" standalone="no"?>
<!-- Created with Inkscape (http://www.inkscape.org/) -->

<svg
   version="1.1"
   id="svg1"
   width="470.38745"
   height="314.21545"
   viewBox="0 0 470.38745 314.21545"
   sodipodi:docname="EudragitL100.svg"
   inkscape:version="1.4.2 (f4327f4, 2025-05-13)"
   xmlns:inkscape="http://www.inkscape.org/namespaces/inkscape"
   xmlns:sodipodi="http://sodipodi.sourceforge.net/DTD/sodipodi-0.dtd"
   xmlns="http://www.w3.org/2000/svg"
   xmlns:svg="http://www.w3.org/2000/svg">
  <defs
     id="defs1" />
  <sodipodi:namedview
     id="namedview1"
     pagecolor="#ffffff"
     bordercolor="#000000"
     borderopacity="0.25"
     inkscape:showpageshadow="2"
     inkscape:pageopacity="0.0"
     inkscape:pagecheckerboard="0"
     inkscape:deskcolor="#d1d1d1"
     inkscape:zoom="0.67291877"
     inkscape:cx="24.520047"
     inkscape:cy="232.56893"
     inkscape:window-width="1920"
     inkscape:window-height="1111"
     inkscape:window-x="-9"
     inkscape:window-y="-9"
     inkscape:window-maximized="1"
     inkscape:current-layer="g1" />
  <g
     inkscape:groupmode="layer"
     inkscape:label="Image"
     id="g1"
     transform="translate(1.6796842,-13.170595)">
    <g
       id="g2"
       transform="translate(-2.9721268,11.888509)">
      <path
         style="fill:#d6d6d6"
         d="m 301.56881,304.32 c 0,-2.728 0.0491,-3.844 0.10906,-2.48 0.06,1.364 0.06,3.596 0,4.96 -0.06,1.364 -0.10906,0.248 -0.10906,-2.48 z m -3.84,-19.2 c 0,-2.728 0.0491,-3.844 0.10906,-2.48 0.06,1.364 0.06,3.596 0,4.96 -0.06,1.364 -0.10906,0.248 -0.10906,-2.48 z M 35.669367,227.04 c -4.8e-5,-9.68 0.04062,-13.68619 0.09038,-8.90265 0.04975,4.78354 0.04979,12.70354 8.8e-5,17.6 -0.04971,4.89646 -0.09041,0.98265 -0.09046,-8.69735 z m 67.715903,1.89334 c 0.0153,-0.37279 0.0912,-0.44861 0.19333,-0.19334 0.0924,0.231 0.0811,0.507 -0.0253,0.61334 -0.10634,0.10633 -0.18197,-0.0827 -0.16807,-0.42 z M 74.634243,227.2 c 0,-0.616 0.06585,-0.868 0.146343,-0.56 0.08049,0.308 0.08049,0.812 0,1.12 -0.08049,0.308 -0.146343,0.056 -0.146343,-0.56 z m 241.231027,-0.18666 c 0.0154,-0.37279 0.0912,-0.44861 0.19334,-0.19334 0.0924,0.231 0.0811,0.507 -0.0253,0.61334 -0.10633,0.10633 -0.18196,-0.0827 -0.16807,-0.42 z M 287.11425,225.28 c 0,-0.616 0.0658,-0.868 0.14634,-0.56 0.0805,0.308 0.0805,0.812 0,1.12 -0.0805,0.308 -0.14634,0.056 -0.14634,-0.56 z m -183.72898,-0.18666 c 0.0153,-0.37279 0.0912,-0.44861 0.19333,-0.19334 0.0924,0.231 0.0811,0.507 -0.0253,0.61334 -0.10634,0.10633 -0.18197,-0.0827 -0.16807,-0.42 z m 212.48,-1.92 c 0.0154,-0.37279 0.0912,-0.44861 0.19334,-0.19334 0.0924,0.231 0.0811,0.507 -0.0253,0.61334 -0.10633,0.10633 -0.18196,-0.0827 -0.16807,-0.42 z M 98.369599,213.36 l -0.609596,-0.72 0.72,0.6096 c 0.676622,0.57287 0.865677,0.8304 0.609596,0.8304 -0.06072,0 -0.384722,-0.324 -0.72,-0.72 z m 212.480011,-1.92 -0.6096,-0.72 0.72,0.6096 c 0.67662,0.57287 0.86568,0.8304 0.6096,0.8304 -0.0607,0 -0.38473,-0.324 -0.72,-0.72 z m 18.2704,-11.12 c 0.68744,-0.704 1.32189,-1.28 1.40989,-1.28 0.088,0 -0.40245,0.576 -1.08989,1.28 -0.68744,0.704 -1.32189,1.28 -1.40989,1.28 -0.088,0 0.40245,-0.576 1.08989,-1.28 z m 1.44,-6.56 c 0.59705,-0.616 1.15755,-1.12 1.24555,-1.12 0.088,0 -0.3285,0.504 -0.92555,1.12 -0.59705,0.616 -1.15755,1.12 -1.24555,1.12 -0.088,0 0.3285,-0.504 0.92555,-1.12 z m 113.62527,0.61334 c 0.0154,-0.37279 0.0912,-0.44861 0.19333,-0.19334 0.0924,0.231 0.0811,0.507 -0.0253,0.61334 -0.10634,0.10633 -0.18197,-0.0827 -0.16807,-0.42 z m -210.88001,-0.64 c 0.0154,-0.37279 0.0912,-0.44861 0.19333,-0.19334 0.0924,0.231 0.0811,0.507 -0.0253,0.61334 -0.10633,0.10633 -0.18196,-0.0827 -0.16807,-0.42 z M 415.43425,192.64 c 0,-0.616 0.0659,-0.868 0.14635,-0.56 0.0805,0.308 0.0805,0.812 0,1.12 -0.0805,0.308 -0.14635,0.056 -0.14635,-0.56 z m -210.88,-0.64 c 0,-0.616 0.0659,-0.868 0.14634,-0.56 0.0805,0.308 0.0805,0.812 0,1.12 -0.0805,0.308 -0.14634,0.056 -0.14634,-0.56 z m 134.00576,-0.8 c 0.59705,-0.616 1.15755,-1.12 1.24555,-1.12 0.088,0 -0.3285,0.504 -0.92555,1.12 -0.59705,0.616 -1.15755,1.12 -1.24555,1.12 -0.088,0 0.3285,-0.504 0.92555,-1.12 z m 105.62527,-0.66666 c 0.0154,-0.37279 0.0912,-0.44861 0.19333,-0.19334 0.0924,0.231 0.0811,0.507 -0.0253,0.61334 -0.10634,0.10633 -0.18197,-0.0827 -0.16807,-0.42 z m -210.88001,-0.64 c 0.0154,-0.37279 0.0912,-0.44861 0.19333,-0.19334 0.0924,0.231 0.0811,0.507 -0.0253,0.61334 -0.10633,0.10633 -0.18196,-0.0827 -0.16807,-0.42 z M 339.84001,184.8 c 0.59705,-0.616 1.15755,-1.12 1.24555,-1.12 0.088,0 -0.3285,0.504 -0.92555,1.12 -0.59705,0.616 -1.15755,1.12 -1.24555,1.12 -0.088,0 0.3285,-0.504 0.92555,-1.12 z m 8.32,-2.88 c 0.59705,-0.616 1.15755,-1.12 1.24555,-1.12 0.088,0 -0.3285,0.504 -0.92555,1.12 -0.59705,0.616 -1.15755,1.12 -1.24555,1.12 -0.088,0 0.3285,-0.504 0.92555,-1.12 z m 91.0096,-3.12 -0.6096,-0.72 0.72,0.6096 c 0.67663,0.57287 0.86568,0.8304 0.6096,0.8304 -0.0607,0 -0.38472,-0.324 -0.72,-0.72 z m -210.88001,-0.64 -0.60959,-0.72 0.72,0.6096 c 0.67662,0.57287 0.86567,0.8304 0.60959,0.8304 -0.0607,0 -0.38472,-0.324 -0.72,-0.72 z m 120.99041,-2.48 c 0.68744,-0.704 1.32189,-1.28 1.40989,-1.28 0.088,0 -0.40245,0.576 -1.08989,1.28 -0.68744,0.704 -1.32189,1.28 -1.40989,1.28 -0.088,0 0.40245,-0.576 1.08989,-1.28 z m 7.92716,-6.4 c 0,-0.792 0.0624,-1.116 0.13868,-0.72 0.0763,0.396 0.0763,1.044 0,1.44 -0.0763,0.396 -0.13868,0.072 -0.13868,-0.72 z m -198.41292,-1.92 c 0,-0.616 0.0658,-0.868 0.14634,-0.56 0.0805,0.308 0.0805,0.812 0,1.12 -0.0805,0.308 -0.14634,0.056 -0.14634,-0.56 z m -3.84,-3.84 c 0,-0.616 0.0659,-0.868 0.14634,-0.56 0.0805,0.308 0.0805,0.812 0,1.12 -0.0805,0.308 -0.14634,0.056 -0.14634,-0.56 z m 198.43077,-3.36 c 10e-4,-1.232 0.0593,-1.69679 0.12853,-1.03286 0.0693,0.66392 0.0681,1.67192 -0.003,2.24 -0.0707,0.56807 -0.12737,0.0249 -0.12595,-1.20714 z m -194.91077,-7.52 c 0,-0.616 0.0658,-0.868 0.14634,-0.56 0.0805,0.308 0.0805,0.812 0,1.12 -0.0805,0.308 -0.14634,0.056 -0.14634,-0.56 z m -3.84,-3.84 c 0,-0.616 0.0658,-0.868 0.14634,-0.56 0.0805,0.308 0.0805,0.812 0,1.12 -0.0805,0.308 -0.14634,0.056 -0.14634,-0.56 z m 3.52,-10.88 c 0,-0.616 0.0659,-0.868 0.14634,-0.56 0.0805,0.308 0.0805,0.812 0,1.12 -0.0805,0.308 -0.14634,0.056 -0.14634,-0.56 z m 198.75077,-2.4 c 0.001,-1.232 0.0593,-1.69679 0.12853,-1.03286 0.0693,0.66392 0.0681,1.67192 -0.003,2.24 -0.0707,0.56807 -0.12737,0.0249 -0.12595,-1.20714 z M 154.31425,134.4 c 0,-0.616 0.0659,-0.868 0.14634,-0.56 0.0805,0.308 0.0805,0.812 0,1.12 -0.0805,0.308 -0.14634,0.056 -0.14634,-0.56 z m 198.75077,-7.2 c 10e-4,-1.232 0.0593,-1.69679 0.12853,-1.03286 0.0693,0.66392 0.0681,1.67192 -0.003,2.24 -0.0707,0.56807 -0.12737,0.0249 -0.12595,-1.20714 z m -195.23077,-4 c 0,-0.616 0.0659,-0.868 0.14634,-0.56 0.0805,0.308 0.0805,0.812 0,1.12 -0.0805,0.308 -0.14634,0.056 -0.14634,-0.56 z m -3.84,-3.52 c 0,-0.616 0.0659,-0.868 0.14634,-0.56 0.0805,0.308 0.0805,0.812 0,1.12 -0.0805,0.308 -0.14634,0.056 -0.14634,-0.56 z m 74.54814,-4.96 c 0.007,-0.528 0.0782,-0.70526 0.15937,-0.39391 0.0811,0.31135 0.0758,0.74335 -0.0119,0.96 -0.0877,0.21665 -0.15404,-0.0381 -0.14752,-0.56609 z m -6.46238,-1.08576 c 0,-0.15717 0.23636,-0.37647 0.52526,-0.48733 0.43919,-0.16853 0.45899,-0.12171 0.12082,0.28577 -0.46084,0.55527 -0.64608,0.61306 -0.64608,0.20156 z m 229.44,-2.07506 c 0,-0.0665 0.252,-0.31845 0.56,-0.56 0.50754,-0.39804 0.51886,-0.38672 0.12082,0.12082 -0.41804,0.53304 -0.68082,0.70255 -0.68082,0.43918 z M 157.51425,108.8 c 0,-0.616 0.0658,-0.868 0.14634,-0.56 0.0805,0.308 0.0805,0.812 0,1.12 -0.0805,0.308 -0.14634,0.056 -0.14634,-0.56 z m -3.84,-3.84 c 0,-0.616 0.0659,-0.868 0.14634,-0.56 0.0805,0.308 0.0805,0.812 0,1.12 -0.0805,0.308 -0.14634,0.056 -0.14634,-0.56 z m 202.91077,-2.08 c 0.001,-1.232 0.0593,-1.69679 0.12853,-1.03286 0.0693,0.66392 0.0681,1.67192 -0.003,2.24 -0.0707,0.56807 -0.12737,0.0249 -0.12595,-1.20714 z M 157.19425,94.080001 c 0,-0.616 0.0658,-0.868 0.14634,-0.56 0.0805,0.308 0.0805,0.812 0,1.12 -0.0805,0.308 -0.14634,0.056 -0.14634,-0.56 z m 195.3688,-6.47944 c 0.15147,-7.734542 0.27085,-8.477541 0.33429,-2.08056 0.0345,3.476 -0.0453,6.320252 -0.17733,6.32056 -0.132,3.09e-4 -0.20263,-1.907691 -0.15696,-4.24 z m -199.2088,2.63944 c 0,-0.616 0.0658,-0.868 0.14634,-0.56 0.0805,0.308 0.0805,0.812 0,1.12 -0.0805,0.308 -0.14634,0.056 -0.14634,-0.56 z M 156.93395,38.72 c 0,-3.432 0.0471,-4.836 0.10462,-3.12 0.0575,1.716 0.0575,4.524 0,6.24 -0.0575,1.716001 -0.10462,0.312 -0.10462,-3.12 z m -3.84,-24 c 0,-3.432 0.0471,-4.8359999 0.10462,-3.12 0.0575,1.716 0.0575,4.524 0,6.24 -0.0575,1.716 -0.10462,0.312 -0.10462,-3.12 z"
         id="path8" />
      <path
         style="fill:#b5b5b5"
         d="m 301.54971,311.52 c 10e-4,-1.408 0.0574,-1.94419 0.12502,-1.19154 0.0676,0.75265 0.0666,1.90465 -0.002,2.56 -0.0688,0.65535 -0.12406,0.0395 -0.1229,-1.36846 z m -3.8209,-36 c 0,-2.728 0.0491,-3.844 0.10906,-2.48 0.06,1.364 0.06,3.596 0,4.96 -0.06,1.364 -0.10906,0.248 -0.10906,-2.48 z M 85.060003,245.22141 c 0.231,-0.0924 0.507,-0.0811 0.613333,0.0253 0.106333,0.10633 -0.08267,0.18196 -0.42,0.16807 -0.372782,-0.0154 -0.448608,-0.0912 -0.193333,-0.19333 z m 2.88,0 c 0.231,-0.0924 0.507,-0.0811 0.613333,0.0253 0.106333,0.10633 -0.08267,0.18196 -0.42,0.16807 -0.372782,-0.0154 -0.448608,-0.0912 -0.193333,-0.19333 z M 58.699427,236.32 c 1.83e-4,-4.576 0.04513,-6.4035 0.09987,-4.06111 0.05475,2.34239 0.0546,6.08639 -3.32e-4,8.32 -0.05493,2.23361 -0.09972,0.31711 -0.09954,-4.25889 z m 238.840583,6.98141 c 0.231,-0.0924 0.507,-0.0811 0.61333,0.0253 0.10634,0.10633 -0.0827,0.18196 -0.42,0.16807 -0.37278,-0.0154 -0.44861,-0.0912 -0.19333,-0.19333 z m 2.88,0 c 0.231,-0.0924 0.507,-0.0811 0.61333,0.0253 0.10634,0.10633 -0.0827,0.18196 -0.42,0.16807 -0.37278,-0.0154 -0.44861,-0.0912 -0.19333,-0.19333 z M 74.585265,225.73334 c 0.01535,-0.37279 0.09118,-0.44861 0.193334,-0.19334 0.09244,0.231 0.08107,0.507 -0.02526,0.61334 -0.106334,0.10633 -0.181965,-0.0827 -0.168071,-0.42 z m 212.480005,-1.92 c 0.0154,-0.37279 0.0912,-0.44861 0.19334,-0.19334 0.0924,0.231 0.0811,0.507 -0.0253,0.61334 -0.10633,0.10633 -0.18196,-0.0827 -0.16807,-0.42 z m -237.551377,-0.0506 9.033891,-0.0927 0.09551,-7.03522 0.09551,-7.03521 -0.0094,7.12018 -0.0094,7.12019 -9.12,0.008 -9.120001,0.008 z m 38.10611,-10.86137 c 0.231,-0.0924 0.507,-0.0811 0.613333,0.0253 0.106333,0.10633 -0.08267,0.18196 -0.42,0.16807 -0.372782,-0.0154 -0.448608,-0.0912 -0.193333,-0.19333 z m 212.480007,-1.92 c 0.231,-0.0924 0.507,-0.0811 0.61333,0.0253 0.10634,0.10633 -0.0827,0.18196 -0.42,0.16807 -0.37278,-0.0154 -0.44861,-0.0912 -0.19333,-0.19333 z m 125.76,-0.32 c 0.231,-0.0924 0.507,-0.0811 0.61334,0.0253 0.10633,0.10633 -0.0827,0.18196 -0.42,0.16807 -0.37279,-0.0154 -0.44861,-0.0912 -0.19334,-0.19333 z m 2.88,0 c 0.231,-0.0924 0.507,-0.0811 0.61334,0.0253 0.10633,0.10633 -0.0827,0.18196 -0.42,0.16807 -0.37279,-0.0154 -0.44861,-0.0912 -0.19334,-0.19333 z m -213.76,-0.64 c 0.231,-0.0924 0.507,-0.0811 0.61333,0.0253 0.10633,0.10633 -0.0827,0.18196 -0.42,0.16807 -0.37278,-0.0154 -0.44861,-0.0912 -0.19333,-0.19333 z m 2.88,0 c 0.231,-0.0924 0.507,-0.0811 0.61333,0.0253 0.10633,0.10633 -0.0827,0.18196 -0.42,0.16807 -0.37278,-0.0154 -0.44861,-0.0912 -0.19333,-0.19333 z m -129.940007,-1.2733 c 0.22,-0.0888 0.58,-0.0888 0.8,0 0.22,0.0888 0.04,0.16141 -0.4,0.16141 -0.44,0 -0.62,-0.0726 -0.4,-0.16141 z m 212.480007,-1.92 c 0.22,-0.0888 0.58,-0.0888 0.8,0 0.22,0.0888 0.04,0.16141 -0.4,0.16141 -0.44,0 -0.62,-0.0726 -0.4,-0.16141 z m 30.16,-7.90889 c 0,-0.0665 0.252,-0.31845 0.56,-0.56 0.50754,-0.39803 0.51886,-0.38672 0.12082,0.12082 -0.41804,0.53304 -0.68082,0.70256 -0.68082,0.43918 z m -1.76,-3.39918 c 0.31856,-0.352 0.65119,-0.64 0.73919,-0.64 0.088,0 -0.10063,0.288 -0.41919,0.64 -0.31856,0.352 -0.65119,0.64 -0.73919,0.64 -0.088,0 0.10063,-0.288 0.41919,-0.64 z m 86.58527,-4.34666 c 0.0153,-0.37279 0.0912,-0.44861 0.19333,-0.19334 0.0924,0.231 0.0811,0.507 -0.0253,0.61334 -0.10634,0.10633 -0.18197,-0.0827 -0.16807,-0.42 z m -210.88001,-0.64 c 0.0154,-0.37279 0.0912,-0.44861 0.19333,-0.19334 0.0924,0.231 0.0811,0.507 -0.0253,0.61334 -0.10633,0.10633 -0.18197,-0.0827 -0.16807,-0.42 z M 340.32001,189.44 c 0.31856,-0.352 0.65119,-0.64 0.73919,-0.64 0.088,0 -0.10063,0.288 -0.41919,0.64 -0.31856,0.352 -0.65119,0.64 -0.73919,0.64 -0.088,0 0.10063,-0.288 0.41919,-0.64 z m -2.24,-2.88 c 0.31856,-0.352 0.65119,-0.64 0.73919,-0.64 0.088,0 -0.10063,0.288 -0.41919,0.64 -0.31856,0.352 -0.65119,0.64 -0.73919,0.64 -0.088,0 0.10063,-0.288 0.41919,-0.64 z m 11.84,-6.4 c 0.31856,-0.352 0.65119,-0.64 0.73919,-0.64 0.088,0 -0.10063,0.288 -0.41919,0.64 -0.31855,0.352 -0.65119,0.64 -0.73919,0.64 -0.088,0 0.10064,-0.288 0.41919,-0.64 z m 78.5,-1.81859 c 0.231,-0.0924 0.507,-0.0811 0.61334,0.0253 0.10633,0.10633 -0.0827,0.18196 -0.42,0.16807 -0.37279,-0.0154 -0.44861,-0.0912 -0.19334,-0.19333 z m -210.88,-0.64 c 0.231,-0.0924 0.507,-0.0811 0.61333,0.0253 0.10633,0.10633 -0.0827,0.18196 -0.42,0.16807 -0.37278,-0.0154 -0.44861,-0.0912 -0.19333,-0.19333 z m 129.66,0.0978 c 0,-0.0665 0.252,-0.31845 0.56,-0.56 0.50754,-0.39803 0.51886,-0.38672 0.12082,0.12082 -0.41804,0.53304 -0.68082,0.70256 -0.68082,0.43918 z m 81.52,-3.61111 c 0.22,-0.0888 0.58,-0.0888 0.8,0 0.22,0.0888 0.04,0.16141 -0.4,0.16141 -0.44,0 -0.62,-0.0726 -0.4,-0.16141 z m -210.88,-0.64 c 0.22,-0.0888 0.58,-0.0888 0.8,0 0.22,0.0888 0.04,0.16141 -0.4,0.16141 -0.44,0 -0.62,-0.0726 -0.4,-0.16141 z M 357.18239,171.36 c 0.007,-0.528 0.0782,-0.70526 0.15938,-0.39391 0.0811,0.31135 0.0758,0.74335 -0.0119,0.96 -0.0876,0.21665 -0.15404,-0.0381 -0.14752,-0.56609 z m -198.38814,-2.08 c 0,-0.616 0.0658,-0.868 0.14634,-0.56 0.0805,0.308 0.0805,0.812 0,1.12 -0.0805,0.308 -0.14634,0.056 -0.14634,-0.56 z m -3.85186,-7.52 c 0.007,-0.528 0.0782,-0.70526 0.15937,-0.39391 0.0811,0.31135 0.0758,0.74335 -0.0119,0.96 -0.0876,0.21665 -0.15403,-0.0381 -0.14751,-0.56609 z M 353.38502,156 c 10e-4,-1.232 0.0593,-1.69679 0.12853,-1.03286 0.0693,0.66392 0.0681,1.67192 -0.003,2.24 -0.0707,0.56807 -0.12737,0.0249 -0.12595,-1.20714 z m -194.91077,-1.44 c 0,-0.616 0.0658,-0.868 0.14634,-0.56 0.0805,0.308 0.0805,0.812 0,1.12 -0.0805,0.308 -0.14634,0.056 -0.14634,-0.56 z m -3.85186,-7.52 c 0.007,-0.528 0.0782,-0.70526 0.15937,-0.39391 0.0811,0.31135 0.0758,0.74335 -0.0119,0.96 -0.0876,0.21665 -0.15403,-0.0381 -0.14751,-0.56609 z m 202.28263,-7.36 c 0.001,-1.232 0.0593,-1.69679 0.12853,-1.03286 0.0693,0.66392 0.0681,1.67192 -0.003,2.24 -0.0707,0.56807 -0.12737,0.0249 -0.12595,-1.20714 z m -198.75077,0.16 c 0,-0.616 0.0659,-0.868 0.14634,-0.56 0.0805,0.308 0.0805,0.812 0,1.12 -0.0805,0.308 -0.14634,0.056 -0.14634,-0.56 z m -3.84,-7.36 c 0,-0.616 0.0659,-0.868 0.14634,-0.56 0.0805,0.308 0.0805,0.812 0,1.12 -0.0805,0.308 -0.14634,0.056 -0.14634,-0.56 z m 3.52,-7.36 c 0,-0.616 0.0659,-0.868 0.14634,-0.56 0.0805,0.308 0.0805,0.812 0,1.12 -0.0805,0.308 -0.14634,0.056 -0.14634,-0.56 z m 195.22818,-1.92 c 0,-1.144 0.0581,-1.612 0.12907,-1.04 0.071,0.572 0.071,1.508 0,2.08 -0.071,0.572 -0.12907,0.104 -0.12907,-1.04 z m -199.06818,-5.44 c 0,-0.616 0.0659,-0.868 0.14634,-0.56 0.0805,0.308 0.0805,0.812 0,1.12 -0.0805,0.308 -0.14634,0.056 -0.14634,-0.56 z m 3.50814,-7.2 c 0.007,-0.528 0.0782,-0.70526 0.15937,-0.39391 0.0811,0.31135 0.0758,0.74335 -0.0119,0.96 -0.0876,0.21665 -0.15403,-0.0381 -0.14751,-0.56609 z m 199.08263,-3.52 c 0.001,-1.232 0.0593,-1.69679 0.12853,-1.03286 0.0693,0.66392 0.0681,1.67192 -0.003,2.24 -0.0707,0.56807 -0.12737,0.0249 -0.12595,-1.20714 z m -202.91077,-4 c 0,-0.616 0.0659,-0.868 0.14634,-0.56 0.0805,0.308 0.0805,0.812 0,1.12 -0.0805,0.308 -0.14634,0.056 -0.14634,-0.56 z m 3.52,-7.039999 c 0,-0.616 0.0658,-0.868 0.14634,-0.56 0.0805,0.308 0.0805,0.812 0,1.12 -0.0805,0.308 -0.14634,0.056 -0.14634,-0.56 z m -3.95227,-7.610054 c -0.10543,-0.63591 -0.0585,-0.934436 0.11906,-0.756907 0.16123,0.161231 0.23957,0.633755 0.17408,1.050054 -0.10076,0.640538 -0.14583,0.595468 -0.29314,-0.293147 z M 352.78809,64.000001 c 0,-8.536 0.0412,-12.028 0.0917,-7.76 0.0504,4.268 0.0504,11.252 0,15.52 -0.0504,4.268 -0.0917,0.776 -0.0917,-7.76 z m -195.85414,-13.12 c 0,-3.432 0.0471,-4.836 0.10462,-3.12 0.0575,1.716 0.0575,4.524 0,6.24 -0.0575,1.716 -0.10462,0.312 -0.10462,-3.12 z M 153.07536,5.7600001 C 153.07536,4.088 153.1293,3.404 153.19522,4.24 c 0.0659,0.8360001 0.0659,2.2040001 0,3.0400001 -0.0659,0.836 -0.11986,0.152 -0.11986,-1.52 z"
         id="path7" />
      <path
         style="fill:#969696"
         d="m 297.72881,265.92 c 0,-2.728 0.0491,-3.844 0.10906,-2.48 0.06,1.364 0.06,3.596 0,4.96 -0.06,1.364 -0.10906,0.248 -0.10906,-2.48 z M 63.509368,227.04 c -4.9e-5,-9.68 0.04062,-13.68619 0.09037,-8.90265 0.04975,4.78354 0.04979,12.70354 8.8e-5,17.6 -0.04971,4.89646 -0.09041,0.98265 -0.09046,-8.69735 z m 11.009817,13.36 c -0.398039,-0.50754 -0.386721,-0.51885 0.120817,-0.12081 0.308,0.24155 0.56,0.49355 0.56,0.56 0,0.26337 -0.262779,0.0939 -0.680817,-0.43919 z m 212.480005,-1.92 c -0.39804,-0.50754 -0.38672,-0.51885 0.12082,-0.12081 0.53304,0.41803 0.70255,0.68081 0.43918,0.68081 -0.0664,0 -0.31845,-0.252 -0.56,-0.56 z m -183.5768,-11.44 c 0.007,-0.528 0.0782,-0.70526 0.15937,-0.39391 0.0811,0.31135 0.0758,0.74335 -0.0119,0.96 -0.0877,0.21665 -0.15403,-0.0381 -0.14751,-0.56609 z m 212.48,-1.92 c 0.007,-0.528 0.0782,-0.70526 0.15938,-0.39391 0.0811,0.31135 0.0758,0.74335 -0.0119,0.96 -0.0877,0.21665 -0.15404,-0.0381 -0.14752,-0.56609 z m 99.41681,-19.28 c -0.39804,-0.50754 -0.38672,-0.51885 0.12081,-0.12082 0.308,0.24155 0.56,0.49355 0.56,0.56 0,0.26338 -0.26278,0.0939 -0.68081,-0.43918 z M 204.43919,205.2 c -0.39804,-0.50754 -0.38672,-0.51885 0.12082,-0.12082 0.308,0.24155 0.56,0.49355 0.56,0.56 0,0.26338 -0.26278,0.0939 -0.68082,-0.43918 z m 127.56082,-7.76 c 0.31856,-0.352 0.65119,-0.64 0.73919,-0.64 0.088,0 -0.10063,0.288 -0.41919,0.64 -0.31856,0.352 -0.65119,0.64 -0.73919,0.64 -0.088,0 0.10063,-0.288 0.41919,-0.64 z m -4.48,-0.64 c 0.31856,-0.352 0.65119,-0.64 0.73919,-0.64 0.088,0 -0.10063,0.288 -0.41919,0.64 -0.31856,0.352 -0.65119,0.64 -0.73919,0.64 -0.088,0 0.10063,-0.288 0.41919,-0.64 z m 116.70239,-4.32 c 0.007,-0.528 0.0782,-0.70526 0.15937,-0.39391 0.0811,0.31135 0.0758,0.74335 -0.0119,0.96 -0.0876,0.21665 -0.15403,-0.0381 -0.14751,-0.56609 z m -210.88001,-0.64 c 0.007,-0.528 0.0782,-0.70526 0.15937,-0.39391 0.0811,0.31135 0.0758,0.74335 -0.0118,0.96 -0.0877,0.21665 -0.15404,-0.0381 -0.14752,-0.56609 z m 108.25762,-3.68 c 0.31856,-0.352 0.65119,-0.64 0.73919,-0.64 0.088,0 -0.10063,0.288 -0.41919,0.64 -0.31856,0.352 -0.65119,0.64 -0.73919,0.64 -0.088,0 0.10063,-0.288 0.41919,-0.64 z m -4.96,-0.12082 c 0,-0.0664 0.252,-0.31845 0.56,-0.56 0.50754,-0.39803 0.51886,-0.38672 0.12082,0.12082 -0.41804,0.53304 -0.68082,0.70256 -0.68082,0.43918 z m 14.47238,-9.02437 c 0.30381,-0.31719 0.62126,-0.50783 0.70545,-0.42365 0.0842,0.0842 -0.16439,0.34371 -0.55238,0.57672 -0.67402,0.40477 -0.68084,0.39795 -0.15307,-0.15307 z M 346.40001,178.56 c 0.31856,-0.352 0.65119,-0.64 0.73919,-0.64 0.088,0 -0.10063,0.288 -0.41919,0.64 -0.31855,0.352 -0.65119,0.64 -0.73919,0.64 -0.088,0 0.10064,-0.288 0.41919,-0.64 z M 154.95425,160 c 0,-0.616 0.0659,-0.868 0.14634,-0.56 0.0805,0.308 0.0805,0.812 0,1.12 -0.0805,0.308 -0.14634,0.056 -0.14634,-0.56 z m 3.50814,-3.68 c 0.007,-0.528 0.0782,-0.70526 0.15937,-0.39391 0.0811,0.31135 0.0758,0.74335 -0.0119,0.96 -0.0876,0.21665 -0.15403,-0.0381 -0.14751,-0.56609 z m 194.92263,-4.48 c 10e-4,-1.232 0.0593,-1.69679 0.12853,-1.03286 0.0693,0.66392 0.0681,1.67192 -0.003,2.24 -0.0707,0.56807 -0.12737,0.0249 -0.12595,-1.20714 z m -198.75077,-6.56 c 0,-0.616 0.0658,-0.868 0.14634,-0.56 0.0805,0.308 0.0805,0.812 0,1.12 -0.0805,0.308 -0.14634,0.056 -0.14634,-0.56 z m 202.27077,-1.44 c 0.001,-1.232 0.0593,-1.69679 0.12853,-1.03286 0.0693,0.66392 0.0681,1.67192 -0.003,2.24 -0.0707,0.56807 -0.12737,0.0249 -0.12595,-1.20714 z m -198.75077,-2.08 c 0,-0.616 0.0659,-0.868 0.14634,-0.56 0.0805,0.308 0.0805,0.812 0,1.12 -0.0805,0.308 -0.14634,0.056 -0.14634,-0.56 z m -3.84,-11.2 c 0,-0.616 0.0659,-0.868 0.14634,-0.56 0.0805,0.308 0.0805,0.812 0,1.12 -0.0805,0.308 -0.14634,0.056 -0.14634,-0.56 z m 3.52,-3.52 c 0,-0.616 0.0659,-0.868 0.14634,-0.56 0.0805,0.308 0.0805,0.812 0,1.12 -0.0805,0.308 -0.14634,0.056 -0.14634,-0.56 z m 195.23077,-7.84 c 10e-4,-1.232 0.0593,-1.69679 0.12853,-1.03286 0.0693,0.66392 0.0681,1.67192 -0.003,2.24 -0.0707,0.56807 -0.12737,0.0249 -0.12595,-1.20714 z M 153.98239,116 c 0.007,-0.528 0.0782,-0.70526 0.15937,-0.39391 0.0811,0.31135 0.0758,0.74335 -0.0119,0.96 -0.0876,0.21665 -0.15403,-0.0381 -0.14751,-0.56609 z m 3.53186,-3.68 c 0,-0.616 0.0658,-0.868 0.14634,-0.56 0.0805,0.308 0.0805,0.812 0,1.12 -0.0805,0.308 -0.14634,0.056 -0.14634,-0.56 z m 199.06818,-1.28 c 0,-1.144 0.0581,-1.612 0.12907,-1.04 0.071,0.572 0.071,1.508 0,2.08 -0.071,0.572 -0.12907,0.104 -0.12907,-1.04 z m -202.92004,-9.76 c 0.007,-0.528 0.0782,-0.70526 0.15937,-0.39391 0.0811,0.31135 0.0758,0.74335 -0.0119,0.96 -0.0876,0.21665 -0.15403,-0.0381 -0.14751,-0.56609 z m 3.52,-3.519999 c 0.007,-0.528 0.0782,-0.705259 0.15937,-0.39391 0.0811,0.31135 0.0758,0.74335 -0.0119,0.96 -0.0876,0.216651 -0.15403,-0.03809 -0.14751,-0.56609 z m -3.97494,-15.44 c 0.18413,-1.857745 0.33948,-1.993097 0.36729,-0.32 0.0139,0.836 -0.0898,1.52 -0.23048,1.52 -0.14066,0 -0.20222,-0.54 -0.13681,-1.2 z m 3.72594,-19.44 c 3.1e-4,-3.344 0.0477,-4.668521 0.10538,-2.943379 0.0576,1.725142 0.0574,4.461142 -5.6e-4,6.08 -0.058,1.618858 -0.10513,0.207379 -0.10482,-3.136621 z M 352.78798,33.44 c 6e-5,-8.448 0.0414,-11.858045 0.0918,-7.577877 0.0504,4.280168 0.0504,11.192168 -1.1e-4,15.36 -0.0505,4.167833 -0.0918,0.665877 -0.0917,-7.782123 z"
         id="path6" />
      <path
         style="fill:#767676"
         d="m 301.24881,256.64 c 0,-2.728 0.0491,-3.844 0.10906,-2.48 0.06,1.364 0.06,3.596 0,4.96 -0.06,1.364 -0.10906,0.248 -0.10906,-2.48 z m -3.52,-0.32 c 0,-2.728 0.0491,-3.844 0.10906,-2.48 0.06,1.364 0.06,3.596 0,4.96 -0.06,1.364 -0.10906,0.248 -0.10906,-2.48 z M 86.166093,245.21825 c 0.311349,-0.0811 0.74335,-0.0758 0.96,0.0118 0.21665,0.0877 -0.03809,0.15404 -0.56609,0.14752 -0.528,-0.007 -0.70526,-0.0782 -0.39391,-0.15937 z m -48.171466,-0.64794 2.314626,-0.11813 0.09348,-8.06609 0.09348,-8.06609 -0.0081,8.16 -0.0081,8.16 -2.4,0.0242 -2.4,0.0242 z m 21.925375,-0.003 c 0.66,-0.069 1.74,-0.069 2.4,0 0.66,0.069 0.12,0.12553 -1.2,0.12553 -1.32,0 -1.86,-0.0565 -1.2,-0.12553 z M 298.6461,243.29825 c 0.31135,-0.0811 0.74335,-0.0758 0.96,0.0119 0.21665,0.0877 -0.0381,0.15404 -0.56609,0.14752 -0.528,-0.007 -0.70526,-0.0782 -0.39391,-0.15937 z m -258.252812,-26.56423 -0.07329,-7.10598 -2.32,-0.11044 -2.32,-0.11043 2.330043,-0.0636 c 1.641539,-0.0448 2.376297,0.057 2.486574,0.34432 0.08609,0.22436 0.114552,3.50036 0.06324,7.28 l -0.09329,6.87209 z m 37.046714,0.10516 c 0,-0.0664 0.252,-0.31844 0.56,-0.56 0.507538,-0.39803 0.518857,-0.38672 0.120818,0.12082 -0.418038,0.53304 -0.680818,0.70256 -0.680818,0.43918 z m 17.255781,-0.75918 -0.77578,-0.88 0.88,0.77578 c 0.822492,0.72509 1.026748,0.98422 0.77578,0.98422 -0.05732,0 -0.45332,-0.396 -0.88,-0.88 z m 195.224227,-1.16082 c 0,-0.0664 0.252,-0.31844 0.56,-0.56 0.50754,-0.39803 0.51886,-0.38672 0.12082,0.12082 -0.41804,0.53304 -0.68082,0.70256 -0.68082,0.43918 z m 17.25578,-0.75918 -0.77578,-0.88 0.88,0.77578 c 0.484,0.42668 0.88,0.82268 0.88,0.88 0,0.25097 -0.25914,0.0467 -0.98422,-0.77578 z M 84.740003,212.90141 c 0.231,-0.0924 0.507,-0.0811 0.613333,0.0253 0.106333,0.10633 -0.08267,0.18196 -0.42,0.16807 -0.372782,-0.0154 -0.448608,-0.0912 -0.193333,-0.19333 z m 212.480007,-1.92 c 0.231,-0.0924 0.507,-0.0811 0.61333,0.0253 0.10634,0.10633 -0.0827,0.18196 -0.42,0.16807 -0.37278,-0.0154 -0.44861,-0.0912 -0.19333,-0.19333 z m 129.74609,-0.32316 c 0.31135,-0.0811 0.74335,-0.0758 0.96,0.0118 0.21665,0.0877 -0.0381,0.15404 -0.56609,0.14752 -0.528,-0.007 -0.70526,-0.0782 -0.39391,-0.15937 z m -210.88,-0.64 c 0.31135,-0.0811 0.74335,-0.0758 0.96,0.0119 0.21665,0.0877 -0.0381,0.15404 -0.56609,0.14752 -0.528,-0.007 -0.70526,-0.0782 -0.39391,-0.15937 z M 59.920002,209.36689 c 0.66,-0.069 1.74,-0.069 2.4,0 0.66,0.069 0.12,0.12553 -1.2,0.12553 -1.32,0 -1.86,-0.0565 -1.2,-0.12553 z m 26.083732,-0.63321 c 0.398052,-0.0765 0.974052,-0.0736 1.28,0.006 0.305948,0.0801 -0.01973,0.14272 -0.723731,0.13916 -0.704,-0.004 -0.954321,-0.0691 -0.556269,-0.14562 z m 212.480006,-1.92 c 0.39805,-0.0765 0.97405,-0.0736 1.28,0.006 0.30595,0.0801 -0.0197,0.14272 -0.72373,0.13916 -0.704,-0.004 -0.95432,-0.0691 -0.55627,-0.14562 z m 27.59627,-8.5345 c 0,-0.0665 0.252,-0.31845 0.56,-0.56 0.50754,-0.39803 0.51886,-0.38672 0.12082,0.12082 -0.41804,0.53304 -0.68082,0.70256 -0.68082,0.43918 z m 7.2,-2.11918 c 0.31856,-0.352 0.65119,-0.64 0.73919,-0.64 0.088,0 -0.10063,0.288 -0.41919,0.64 -0.31856,0.352 -0.65119,0.64 -0.73919,0.64 -0.088,0 0.10063,-0.288 0.41919,-0.64 z m 2.56,-7.36 c 0.31856,-0.352 0.65119,-0.64 0.73919,-0.64 0.088,0 -0.10063,0.288 -0.41919,0.64 -0.31856,0.352 -0.65119,0.64 -0.73919,0.64 -0.088,0 0.10063,-0.288 0.41919,-0.64 z m 7.04,-1.92 c 0.31856,-0.352 0.65119,-0.64 0.73919,-0.64 0.088,0 -0.10063,0.288 -0.41919,0.64 -0.31855,0.352 -0.65119,0.64 -0.73919,0.64 -0.088,0 0.10063,-0.288 0.41919,-0.64 z m 75.36,-4.60082 c 0,-0.0665 0.252,-0.31845 0.56,-0.56 0.50754,-0.39803 0.51886,-0.38672 0.12082,0.12082 -0.41804,0.53304 -0.68082,0.70256 -0.68082,0.43918 z m 17.25578,-0.75918 -0.77578,-0.88 0.88,0.77578 c 0.484,0.42668 0.88,0.82268 0.88,0.88 0,0.25097 -0.25913,0.0467 -0.98422,-0.77578 z m -228.13578,0.11918 c 0,-0.0665 0.252,-0.31845 0.56,-0.56 0.50753,-0.39803 0.51885,-0.38672 0.12081,0.12082 -0.41803,0.53304 -0.68081,0.70256 -0.68081,0.43918 z m 17.25578,-0.75918 -0.77578,-0.88 0.88,0.77578 c 0.82249,0.72509 1.02675,0.98422 0.77578,0.98422 -0.0573,0 -0.45332,-0.396 -0.88,-0.88 z m 120.50422,-1.04 c 0.31856,-0.352 0.65119,-0.64 0.73919,-0.64 0.088,0 -0.10063,0.288 -0.41919,0.64 -0.31855,0.352 -0.65119,0.64 -0.73919,0.64 -0.088,0 0.10064,-0.288 0.41919,-0.64 z m 80.42,-1.49859 c 0.231,-0.0924 0.507,-0.0811 0.61334,0.0253 0.10633,0.10633 -0.0827,0.18196 -0.42,0.16807 -0.37279,-0.0154 -0.44861,-0.0912 -0.19334,-0.19333 z m -210.88,-0.64 c 0.231,-0.0924 0.507,-0.0811 0.61333,0.0253 0.10633,0.10633 -0.0827,0.18196 -0.42,0.16807 -0.37278,-0.0154 -0.44861,-0.0912 -0.19333,-0.19333 z m 212.14373,-3.52773 c 0.39806,-0.0765 0.97406,-0.0736 1.28,0.006 0.30595,0.0801 -0.0197,0.14272 -0.72373,0.13916 -0.704,-0.004 -0.95432,-0.0691 -0.55627,-0.14562 z m -210.88,-0.64 c 0.39805,-0.0765 0.97405,-0.0736 1.28,0.006 0.30595,0.0801 -0.0197,0.14272 -0.72373,0.13916 -0.704,-0.004 -0.95432,-0.0691 -0.55627,-0.14562 z M 154.95425,158.08 c 0,-0.616 0.0659,-0.868 0.14634,-0.56 0.0805,0.308 0.0805,0.812 0,1.12 -0.0805,0.308 -0.14634,0.056 -0.14634,-0.56 z m 3.52,0 c 0,-0.616 0.0658,-0.868 0.14634,-0.56 0.0805,0.308 0.0805,0.812 0,1.12 -0.0805,0.308 -0.14634,0.056 -0.14634,-0.56 z M 356.90502,148 c 0.001,-1.232 0.0593,-1.69679 0.12853,-1.03286 0.0693,0.66392 0.0681,1.67192 -0.003,2.24 -0.0707,0.56807 -0.12737,0.0249 -0.12595,-1.20714 z m -3.52,-0.32 c 10e-4,-1.232 0.0593,-1.69679 0.12853,-1.03286 0.0693,0.66392 0.0681,1.67192 -0.003,2.24 -0.0707,0.56807 -0.12737,0.0249 -0.12595,-1.20714 z m -198.75077,-4.32 c 0,-0.616 0.0658,-0.868 0.14634,-0.56 0.0805,0.308 0.0805,0.812 0,1.12 -0.0805,0.308 -0.14634,0.056 -0.14634,-0.56 z m 3.50814,0.16 c 0.007,-0.528 0.0782,-0.70526 0.15937,-0.39391 0.0811,0.31135 0.0758,0.74335 -0.0119,0.96 -0.0876,0.21665 -0.15403,-0.0381 -0.14751,-0.56609 z m -0.30814,-14.56 c 0,-0.616 0.0659,-0.868 0.14634,-0.56 0.0805,0.308 0.0805,0.812 0,1.12 -0.0805,0.308 -0.14634,0.056 -0.14634,-0.56 z m -3.52,-0.32 c 0,-0.616 0.0659,-0.868 0.14634,-0.56 0.0805,0.308 0.0805,0.812 0,1.12 -0.0805,0.308 -0.14634,0.056 -0.14634,-0.56 z m 198.75077,-13.6 c 10e-4,-1.232 0.0593,-1.69679 0.12853,-1.03286 0.0693,0.66392 0.0681,1.67192 -0.003,2.24 -0.0707,0.56807 -0.12737,0.0249 -0.12595,-1.20714 z m 3.52,0 c 0.001,-1.232 0.0593,-1.69679 0.12853,-1.03286 0.0693,0.66392 0.0681,1.67192 -0.003,2.24 -0.0707,0.56807 -0.12737,0.0249 -0.12595,-1.20714 z m -202.59077,-0.8 c 0,-0.616 0.0659,-0.868 0.14634,-0.56 0.0805,0.308 0.0805,0.812 0,1.12 -0.0805,0.308 -0.14634,0.056 -0.14634,-0.56 z m 3.52,0 c 0,-0.616 0.0658,-0.868 0.14634,-0.56 0.0805,0.308 0.0805,0.812 0,1.12 -0.0805,0.308 -0.14634,0.056 -0.14634,-0.56 z m 293.68576,-3.96082 c 0,-0.0665 0.252,-0.31845 0.56,-0.56 0.50754,-0.39804 0.51886,-0.38672 0.12082,0.12082 -0.41804,0.53304 -0.68082,0.70255 -0.68082,0.43918 z M 153.67425,99.520001 c 0,-0.616 0.0659,-0.868 0.14634,-0.56 0.0805,0.308 0.0805,0.812 0,1.119999 -0.0805,0.308 -0.14634,0.056 -0.14634,-0.559999 z m 3.52,0 c 0,-0.616 0.0658,-0.868 0.14634,-0.56 0.0805,0.308 0.0805,0.812 0,1.119999 -0.0805,0.308 -0.14634,0.056 -0.14634,-0.559999 z m -3.7803,-24.96 c 0,-3.432 0.0471,-4.836 0.10462,-3.12 0.0575,1.716 0.0575,4.524 0,6.24 -0.0575,1.716 -0.10462,0.312 -0.10462,-3.12 z m 3.51944,0.16 c 3.1e-4,-3.344 0.0477,-4.668521 0.10538,-2.943379 0.0576,1.725142 0.0574,4.461142 -5.6e-4,6.08 -0.058,1.618858 -0.10513,0.207379 -0.10482,-3.136621 z M 352.77839,10.56 c 0,-4.3119999 0.0453,-6.0759999 0.10066,-3.9199999 0.0554,2.156 0.0554,5.6839999 0,7.8399999 -0.0554,2.156 -0.10066,0.392 -0.10066,-3.92 z m 3.52,0 c 0,-4.3119999 0.0453,-6.0759999 0.10066,-3.9199999 0.0554,2.156 0.0554,5.6839999 0,7.8399999 -0.0554,2.156 -0.10066,0.392 -0.10066,-3.92 z"
         id="path5" />
      <path
         style="fill:#565656"
         d="m 301.24881,266.24 c 0,-2.728 0.0491,-3.844 0.10906,-2.48 0.06,1.364 0.06,3.596 0,4.96 -0.06,1.364 -0.10906,0.248 -0.10906,-2.48 z M 69.785265,229.25334 c 0.01535,-0.37279 0.09118,-0.44861 0.193334,-0.19334 0.09244,0.231 0.08107,0.507 -0.02526,0.61334 -0.106334,0.10633 -0.181965,-0.0827 -0.168071,-0.42 z M 98.622387,227.04 c 0.0065,-0.528 0.07824,-0.70526 0.159373,-0.39391 0.08113,0.31135 0.0758,0.74335 -0.01186,0.96 -0.08766,0.21665 -0.154038,-0.0381 -0.147516,-0.56609 z m 183.642883,0.29334 c 0.0154,-0.37279 0.0912,-0.44861 0.19334,-0.19334 0.0924,0.231 0.0811,0.507 -0.0253,0.61334 -0.10633,0.10633 -0.18196,-0.0827 -0.16807,-0.42 z M 311.10239,225.12 c 0.007,-0.528 0.0782,-0.70526 0.15938,-0.39391 0.0811,0.31135 0.0758,0.74335 -0.0119,0.96 -0.0877,0.21665 -0.15404,-0.0381 -0.14752,-0.56609 z M 74.720002,213.44 c 0.318556,-0.352 0.651192,-0.64 0.739192,-0.64 0.088,0 -0.100636,0.288 -0.419192,0.64 -0.318555,0.352 -0.651192,0.64 -0.739192,0.64 -0.088,0 0.100637,-0.288 0.419192,-0.64 z m 212.480008,-1.92 c 0.31855,-0.352 0.65119,-0.64 0.73919,-0.64 0.088,0 -0.10064,0.288 -0.41919,0.64 -0.31856,0.352 -0.65119,0.64 -0.73919,0.64 -0.088,0 0.10063,-0.288 0.41919,-0.64 z m 38.72,-8.32 c 0.31856,-0.352 0.65119,-0.64 0.73919,-0.64 0.088,0 -0.10063,0.288 -0.41919,0.64 -0.31856,0.352 -0.65119,0.64 -0.73919,0.64 -0.088,0 0.10063,-0.288 0.41919,-0.64 z m -1.12,-3.68 c 0.59705,-0.616 1.15755,-1.12 1.24555,-1.12 0.088,0 -0.3285,0.504 -0.92555,1.12 -0.59705,0.616 -1.15755,1.12 -1.24555,1.12 -0.088,0 0.3285,-0.504 0.92555,-1.12 z m 10.24,-5.12 c 0.59705,-0.616 1.15755,-1.12 1.24555,-1.12 0.088,0 -0.3285,0.504 -0.92555,1.12 -0.59705,0.616 -1.15755,1.12 -1.24555,1.12 -0.088,0 0.3285,-0.504 0.92555,-1.12 z m 75.54527,0.29334 c 0.0154,-0.37279 0.0912,-0.44861 0.19333,-0.19334 0.0924,0.231 0.0811,0.507 -0.0253,0.61334 -0.10634,0.10633 -0.18197,-0.0827 -0.16807,-0.42 z m -210.88001,-0.64 c 0.0153,-0.37279 0.0912,-0.44861 0.19333,-0.19334 0.0924,0.231 0.0811,0.507 -0.0253,0.61334 -0.10633,0.10633 -0.18197,-0.0827 -0.16807,-0.42 z M 439.4224,192.48 c 0.007,-0.528 0.0782,-0.70526 0.15937,-0.39391 0.0811,0.31135 0.0758,0.74335 -0.0119,0.96 -0.0876,0.21665 -0.15403,-0.0381 -0.14751,-0.56609 z m -210.88001,-0.64 c 0.007,-0.528 0.0782,-0.70526 0.15937,-0.39391 0.0811,0.31135 0.0758,0.74335 -0.0119,0.96 -0.0877,0.21665 -0.15404,-0.0381 -0.14752,-0.56609 z m 105.53762,-1.28 c 0.59705,-0.616 1.15755,-1.12 1.24555,-1.12 0.088,0 -0.3285,0.504 -0.92555,1.12 -0.59705,0.616 -1.15755,1.12 -1.24555,1.12 -0.088,0 0.3285,-0.504 0.92555,-1.12 z m 10.56,-5.44 c 0.59705,-0.616 1.15755,-1.12 1.24555,-1.12 0.088,0 -0.3285,0.504 -0.92555,1.12 -0.59705,0.616 -1.15755,1.12 -1.24555,1.12 -0.088,0 0.3285,-0.504 0.92555,-1.12 z m -1.92,-2.82013 c 0,-0.0551 0.468,-0.52307 1.04,-1.04 l 1.04,-0.93987 -0.93987,1.04 c -0.87609,0.96943 -1.14013,1.18709 -1.14013,0.93987 z m 72.8,-3.41987 c 0.31856,-0.352 0.65119,-0.64 0.73919,-0.64 0.088,0 -0.10063,0.288 -0.41919,0.64 -0.31855,0.352 -0.65119,0.64 -0.73919,0.64 -0.088,0 0.10064,-0.288 0.41919,-0.64 z m -210.88,-0.64 c 0.31855,-0.352 0.65119,-0.64 0.73919,-0.64 0.088,0 -0.10064,0.288 -0.41919,0.64 -0.31856,0.352 -0.6512,0.64 -0.7392,0.64 -0.088,0 0.10064,-0.288 0.4192,-0.64 z m 148.64,-1.38013 c 0,-0.0551 0.468,-0.52307 1.04,-1.04 l 1.04,-0.93987 -0.93987,1.04 c -0.87609,0.96943 -1.14013,1.18709 -1.14013,0.93987 z m -0.64,-4.21987 c 0.41336,-0.44 0.82356,-0.8 0.91156,-0.8 0.088,0 -0.1782,0.36 -0.59156,0.8 -0.41336,0.44 -0.82356,0.8 -0.91156,0.8 -0.088,0 0.1782,-0.36 0.59156,-0.8 z M 158.47425,160 c 0,-0.616 0.0658,-0.868 0.14634,-0.56 0.0805,0.308 0.0805,0.812 0,1.12 -0.0805,0.308 -0.14634,0.056 -0.14634,-0.56 z m -3.52,-3.84 c 0,-0.616 0.0659,-0.868 0.14634,-0.56 0.0805,0.308 0.0805,0.812 0,1.12 -0.0805,0.308 -0.14634,0.056 -0.14634,-0.56 z m 201.95077,-4 c 0.001,-1.232 0.0593,-1.69679 0.12853,-1.03286 0.0693,0.66392 0.0681,1.67192 -0.003,2.24 -0.0707,0.56807 -0.12737,0.0249 -0.12595,-1.20714 z m -198.75077,-6.88 c 0,-0.616 0.0659,-0.868 0.14634,-0.56 0.0805,0.308 0.0805,0.812 0,1.12 -0.0805,0.308 -0.14634,0.056 -0.14634,-0.56 z m 195.22818,-1.6 c 0,-1.144 0.0581,-1.612 0.12907,-1.04 0.071,0.572 0.071,1.508 0,2.08 -0.071,0.572 -0.12907,0.104 -0.12907,-1.04 z M 154.62239,141.6 c 0.007,-0.528 0.0782,-0.70526 0.15937,-0.39391 0.0811,0.31135 0.0758,0.74335 -0.0119,0.96 -0.0876,0.21665 -0.15403,-0.0381 -0.14751,-0.56609 z m 3.2,-10.88 c 0.007,-0.528 0.0782,-0.70526 0.15937,-0.39391 0.0811,0.31135 0.0758,0.74335 -0.0119,0.96 -0.0876,0.21665 -0.15403,-0.0381 -0.14751,-0.56609 z m -3.52,-3.84 c 0.007,-0.528 0.0782,-0.70526 0.15937,-0.39391 0.0811,0.31135 0.0758,0.74335 -0.0119,0.96 -0.0877,0.21665 -0.15403,-0.0381 -0.14751,-0.56609 z m 202.28263,-7.68 c 0.001,-1.232 0.0593,-1.69679 0.12853,-1.03286 0.0693,0.66392 0.0681,1.67192 -0.003,2.24 -0.0707,0.56807 -0.12737,0.0249 -0.12595,-1.20714 z m -199.07077,-3.04 c 0,-0.616 0.0658,-0.868 0.14634,-0.56 0.0805,0.308 0.0805,0.812 0,1.12 -0.0805,0.308 -0.14634,0.056 -0.14634,-0.56 z m -3.52,-3.84 c 0,-0.616 0.0659,-0.868 0.14634,-0.56 0.0805,0.308 0.0805,0.812 0,1.12 -0.0805,0.308 -0.14634,0.056 -0.14634,-0.56 z m 199.07077,-1.44 c 10e-4,-1.232 0.0593,-1.69679 0.12853,-1.03286 0.0693,0.66392 0.0681,1.67192 -0.003,2.24 -0.0707,0.56807 -0.12737,0.0249 -0.12595,-1.20714 z m -195.87077,-9.44 c 0,-0.616 0.0658,-0.868 0.14634,-0.56 0.0805,0.308 0.0805,0.812 0,1.12 -0.0805,0.308 -0.14634,0.056 -0.14634,-0.56 z m -3.52,-3.839999 c 0,-0.616 0.0659,-0.868 0.14634,-0.56 0.0805,0.308 0.0805,0.812 0,1.12 -0.0805,0.308 -0.14634,0.056 -0.14634,-0.56 z m 3.22491,-15.2 c 0.002,-1.056 0.0615,-1.449421 0.13276,-0.874269 0.0712,0.575152 0.0697,1.439152 -0.003,1.92 -0.073,0.480848 -0.13128,0.01027 -0.12949,-1.045731 z m -3.48577,-19.84 c 3.1e-4,-3.344 0.0477,-4.668521 0.10538,-2.943379 0.0576,1.725142 0.0574,4.461142 -5.6e-4,6.08 -0.058,1.618858 -0.10513,0.207379 -0.10482,-3.136621 z M 356.30809,33.6 c 0,-8.536 0.0412,-12.028 0.0917,-7.76 0.0504,4.268 0.0504,11.252 0,15.52 -0.0504,4.268001 -0.0917,0.776 -0.0917,-7.76 z"
         id="path4" />
      <path
         style="fill:#353535"
         d="m 298.05722,306.72 c 2.3e-4,-4.048 0.0461,-5.65987 0.10191,-3.58194 0.0558,2.07793 0.0556,5.38993 -4.1e-4,7.36 -0.0561,1.97007 -0.10172,0.26994 -0.1015,-3.77806 z m 3.20457,-26.24 c -1.4e-4,-5.28 0.0437,-7.4849 0.0974,-4.89978 0.0537,2.58513 0.0538,6.90513 2.6e-4,9.6 -0.0536,2.69488 -0.0975,0.57978 -0.0977,-4.70022 z M 96.960003,241.79919 c 0,-0.0665 0.252,-0.31845 0.56,-0.56 0.507538,-0.39804 0.518856,-0.38673 0.120818,0.12081 -0.418039,0.53304 -0.680818,0.70256 -0.680818,0.43919 z m 212.480007,-1.92 c 0,-0.0665 0.252,-0.31845 0.56,-0.56 0.50754,-0.39804 0.51886,-0.38673 0.12082,0.12081 -0.41804,0.53304 -0.68082,0.70256 -0.68082,0.43919 z M 78.039185,237.84 c -0.398039,-0.50754 -0.38672,-0.51885 0.120817,-0.12081 0.308,0.24155 0.56,0.49355 0.56,0.56 0,0.26337 -0.262779,0.0939 -0.680817,-0.43919 z m 212.480005,-1.92 c -0.39804,-0.50754 -0.38672,-0.51885 0.12082,-0.12081 0.53304,0.41803 0.70255,0.68081 0.43918,0.68081 -0.0664,0 -0.31845,-0.252 -0.56,-0.56 z M 69.855895,227.2 c 0,-0.968 0.05999,-1.364 0.133309,-0.88 0.07332,0.484 0.07332,1.276 0,1.76 -0.07332,0.484 -0.133309,0.088 -0.133309,-0.88 z m 28.729371,1.09334 c 0.01535,-0.37279 0.09118,-0.44861 0.193334,-0.19334 0.09244,0.231 0.08107,0.507 -0.02526,0.61334 -0.106333,0.10633 -0.181965,-0.0827 -0.16807,-0.42 z m -53.705265,-0.37265 c 2.596,-0.0538 6.844001,-0.0538 9.440001,0 2.596,0.0538 0.472,0.0978 -4.72,0.0978 -5.192001,0 -7.316001,-0.044 -4.720001,-0.0978 z M 282.3359,225.28 c 0,-0.968 0.06,-1.364 0.13331,-0.88 0.0733,0.484 0.0733,1.276 0,1.76 -0.0733,0.484 -0.13331,0.088 -0.13331,-0.88 z m 28.72937,1.09334 c 0.0154,-0.37279 0.0912,-0.44861 0.19334,-0.19334 0.0924,0.231 0.0811,0.507 -0.0253,0.61334 -0.10633,0.10633 -0.18196,-0.0827 -0.16807,-0.42 z M 98.610529,225.6 c 0,-0.44 0.07263,-0.62 0.161404,-0.4 0.08877,0.22 0.08877,0.58 0,0.8 -0.08877,0.22 -0.161404,0.04 -0.161404,-0.4 z m 212.480011,-1.92 c 0,-0.44 0.0726,-0.62 0.1614,-0.4 0.0888,0.22 0.0888,0.58 0,0.8 -0.0888,0.22 -0.1614,0.04 -0.1614,-0.4 z M 97.559185,212.88 c -0.398038,-0.50754 -0.38672,-0.51885 0.120818,-0.12082 0.308,0.24156 0.56,0.49356 0.56,0.56 0,0.26338 -0.262779,0.0939 -0.680818,-0.43918 z m 212.480005,-1.92 c -0.39804,-0.50754 -0.38672,-0.51885 0.12082,-0.12082 0.308,0.24156 0.56,0.49356 0.56,0.56 0,0.26338 -0.26278,0.0939 -0.68082,-0.43918 z m -199.93392,-2.82666 c 0.0153,-0.37279 0.0912,-0.44861 0.19333,-0.19334 0.0924,0.231 0.0811,0.507 -0.0253,0.61334 -0.10634,0.10633 -0.18197,-0.0827 -0.16807,-0.42 z m 327.65474,-0.89416 c 0,-0.0665 0.252,-0.31845 0.56,-0.56 0.50754,-0.39803 0.51886,-0.38672 0.12082,0.12082 -0.41804,0.53304 -0.68082,0.70256 -0.68082,0.43918 z m -210.88,-0.64 c 0,-0.0665 0.252,-0.31845 0.56,-0.56 0.50753,-0.39803 0.51885,-0.38672 0.12081,0.12082 -0.41803,0.53304 -0.68081,0.70256 -0.68081,0.43918 z M 418.8392,203.28 c -0.39804,-0.50754 -0.38672,-0.51885 0.12081,-0.12082 0.53304,0.41804 0.70256,0.68082 0.43919,0.68082 -0.0665,0 -0.31845,-0.252 -0.56,-0.56 z m -210.88001,-0.64 c -0.39804,-0.50754 -0.38672,-0.51885 0.12082,-0.12082 0.308,0.24155 0.56,0.49355 0.56,0.56 0,0.26338 -0.26278,0.0939 -0.68082,-0.43918 z m 119.72082,-1.2 c 0.59705,-0.616 1.15755,-1.12 1.24555,-1.12 0.088,0 -0.3285,0.504 -0.92555,1.12 -0.59705,0.616 -1.15755,1.12 -1.24555,1.12 -0.088,0 0.3285,-0.504 0.92555,-1.12 z m 82.9759,-8.8 c 0,-0.968 0.06,-1.364 0.1333,-0.88 0.0733,0.484 0.0733,1.276 0,1.76 -0.0733,0.484 -0.1333,0.088 -0.1333,-0.88 z m 28.72937,1.09334 c 0.0153,-0.37279 0.0912,-0.44861 0.19333,-0.19334 0.0924,0.231 0.0811,0.507 -0.0253,0.61334 -0.10634,0.10633 -0.18197,-0.0827 -0.16807,-0.42 z M 331.84001,192.8 c 0.59705,-0.616 1.15755,-1.12 1.24555,-1.12 0.088,0 -0.3285,0.504 -0.92555,1.12 -0.59705,0.616 -1.15755,1.12 -1.24555,1.12 -0.088,0 0.3285,-0.504 0.92555,-1.12 z M 199.7759,192 c 0,-0.968 0.06,-1.364 0.13331,-0.88 0.0733,0.484 0.0733,1.276 0,1.76 -0.0733,0.484 -0.13331,0.088 -0.13331,-0.88 z m 28.72937,1.09334 c 0.0154,-0.37279 0.0912,-0.44861 0.19333,-0.19334 0.0924,0.231 0.0811,0.507 -0.0253,0.61334 -0.10633,0.10633 -0.18196,-0.0827 -0.16807,-0.42 z M 337.28001,192.16 c 0.59705,-0.616 1.15755,-1.12 1.24555,-1.12 0.088,0 -0.3285,0.504 -0.92555,1.12 -0.59705,0.616 -1.15755,1.12 -1.24555,1.12 -0.088,0 0.3285,-0.504 0.92555,-1.12 z m -145.66,0.26141 c 0.231,-0.0924 0.507,-0.0811 0.61333,0.0253 0.10633,0.10633 -0.0827,0.18196 -0.42,0.16807 -0.37278,-0.0154 -0.44861,-0.0912 -0.19333,-0.19333 z M 439.41054,191.04 c 0,-0.44 0.0726,-0.62 0.1614,-0.4 0.0888,0.22 0.0888,0.58 0,0.8 -0.0888,0.22 -0.1614,0.04 -0.1614,-0.4 z M 228.53053,190.4 c 0,-0.44 0.0726,-0.62 0.16141,-0.4 0.0888,0.22 0.0888,0.58 0,0.8 -0.0888,0.22 -0.16141,0.04 -0.16141,-0.4 z m 112.74948,-6.72 c 0.68744,-0.704 1.32189,-1.28 1.40989,-1.28 0.088,0 -0.40245,0.576 -1.08989,1.28 -0.68744,0.704 -1.32189,1.28 -1.40989,1.28 -0.088,0 0.40245,-0.576 1.08989,-1.28 z m 5.6,-0.8 c 0.59705,-0.616 1.15755,-1.12 1.24555,-1.12 0.088,0 -0.3285,0.504 -0.92555,1.12 -0.59705,0.616 -1.15755,1.12 -1.24555,1.12 -0.088,0 0.3285,-0.504 0.92555,-1.12 z m 91.47919,-4.56 c -0.39804,-0.50754 -0.38672,-0.51885 0.12081,-0.12082 0.308,0.24155 0.56,0.49355 0.56,0.56 0,0.26338 -0.26278,0.0939 -0.68081,-0.43918 z m -210.88001,-0.64 c -0.39804,-0.50754 -0.38672,-0.51885 0.12082,-0.12082 0.308,0.24155 0.56,0.49355 0.56,0.56 0,0.26338 -0.26278,0.0939 -0.68082,-0.43918 z m 123.24082,-3.12 c 0.59705,-0.616 1.15755,-1.12 1.24555,-1.12 0.088,0 -0.3285,0.504 -0.92555,1.12 -0.59705,0.616 -1.15755,1.12 -1.24555,1.12 -0.088,0 0.3285,-0.504 0.92555,-1.12 z m 4.48,0.35918 c 0,-0.0665 0.252,-0.31845 0.56,-0.56 0.50754,-0.39803 0.51886,-0.38672 0.12082,0.12082 -0.41804,0.53304 -0.68082,0.70256 -0.68082,0.43918 z M 353.71182,168.96 c 0,-1.496 0.0551,-2.108 0.1225,-1.36 0.0674,0.748 0.0674,1.972 0,2.72 -0.0674,0.748 -0.1225,0.136 -0.1225,-1.36 z m -198.40939,-0.64 c 0,-1.144 0.0581,-1.612 0.12906,-1.04 0.071,0.572 0.071,1.508 0,2.08 -0.071,0.572 -0.12906,0.104 -0.12906,-1.04 z m 3.17827,-6.24 c 0.004,-0.704 0.0691,-0.95432 0.14563,-0.55627 0.0765,0.39805 0.0736,0.97405 -0.006,1.28 -0.0801,0.30595 -0.14272,-0.0197 -0.13917,-0.72373 z m 198.44263,-4 c 0,-2.2 0.0511,-3.1 0.11361,-2 0.0625,1.1 0.0625,2.9 0,4 -0.0625,1.1 -0.11361,0.2 -0.11361,-2 z M 154.9759,153.6 c 0,-0.968 0.06,-1.364 0.13331,-0.88 0.0733,0.484 0.0733,1.276 0,1.76 -0.0733,0.484 -0.13331,0.088 -0.13331,-0.88 z m 3.20326,-5.6 c 0.002,-1.056 0.0615,-1.44942 0.13276,-0.87427 0.0712,0.57515 0.0698,1.43915 -0.003,1.92 -0.073,0.48085 -0.13128,0.0103 -0.12949,-1.04573 z m 195.22518,-10.24 c 5.6e-4,-2.288 0.0515,-3.18201 0.11327,-1.98669 0.0617,1.19532 0.0613,3.06732 -10e-4,4.16 -0.0623,1.09268 -0.11281,0.11469 -0.11225,-2.17331 z m -198.74518,1.28 c 0.002,-1.056 0.0615,-1.44942 0.13276,-0.87427 0.0712,0.57515 0.0697,1.43915 -0.003,1.92 -0.073,0.48085 -0.13128,0.0103 -0.12949,-1.04573 z m 3.2,-5.76 c 0.002,-1.056 0.0615,-1.44942 0.13276,-0.87427 0.0712,0.57515 0.0697,1.43915 -0.003,1.92 -0.073,0.48085 -0.13128,0.0103 -0.12949,-1.04573 z m 198.74518,-8 c 5.6e-4,-2.288 0.0515,-3.18201 0.11327,-1.98669 0.0617,1.19532 0.0613,3.06732 -10e-4,4.16 -0.0623,1.09268 -0.11281,0.11469 -0.11225,-2.17331 z m -202.26518,-0.96 c 0.002,-1.056 0.0615,-1.44942 0.13276,-0.87427 0.0712,0.57515 0.0697,1.43915 -0.003,1.92 -0.073,0.48085 -0.13128,0.0103 -0.12949,-1.04573 z m 3.19674,-5.6 c 0,-0.968 0.06,-1.364 0.13331,-0.88 0.0733,0.484 0.0733,1.276 0,1.76 -0.0733,0.484 -0.13331,0.088 -0.13331,-0.88 z m -3.51674,-9.12 c 0.002,-1.056 0.0615,-1.44942 0.13276,-0.87427 0.0712,0.57515 0.0697,1.43915 -0.003,1.92 -0.073,0.48085 -0.13128,0.0103 -0.12949,-1.04573 z m 291.58085,0.48 c 0.31856,-0.352 0.6512,-0.64 0.7392,-0.64 0.088,0 -0.10064,0.288 -0.4192,0.64 -0.31855,0.352 -0.65119,0.64 -0.73919,0.64 -0.088,0 0.10064,-0.288 0.41919,-0.64 z m -92.51567,-5.28 c 5.6e-4,-2.288 0.0515,-3.18201 0.11327,-1.98669 0.0617,1.19532 0.0613,3.06732 -10e-4,4.16 -0.0623,1.09268 -0.11281,0.11469 -0.11225,-2.17331 z M 157.2159,104 c 0,-0.968 0.06,-1.364 0.13331,-0.88 0.0733,0.484 0.0733,1.276 0,1.76 -0.0733,0.484 -0.13331,0.088 -0.13331,-0.88 z m -3.51674,-9.119999 c 0.002,-1.056 0.0615,-1.449421 0.13276,-0.874269 0.0712,0.575152 0.0697,1.439152 -0.003,1.92 -0.073,0.480848 -0.13128,0.01027 -0.12949,-1.045731 z m 202.61211,-24.32 c 3e-5,-11.968 0.0399,-16.817484 0.0886,-10.77663 0.0487,6.040854 0.0487,15.832854 -6e-5,21.76 -0.0487,5.927147 -0.0886,0.98463 -0.0886,-10.98337 z m -199.41537,19.04 c 0,-0.968 0.06,-1.364 0.13331,-0.88 0.0733,0.484 0.0733,1.276 0,1.76 -0.0733,0.484 -0.13331,0.088 -0.13331,-0.88 z m -3.4709,-44.8 C 153.425,38.2 153.46755,35.5 153.51956,38.8 c 0.052,3.3 0.052,8.700001 0,12.000001 -0.052,3.3 -0.0946,0.6 -0.0946,-6 z M 156.62068,11.68 c 1.6e-4,-4.9279999 0.0446,-6.8992877 0.0987,-4.3806394 0.0541,2.5186484 0.054,6.5506484 -2.9e-4,8.9600004 -0.0543,2.409351 -0.0986,0.348639 -0.0984,-4.579361 z"
         id="path3" />
      <path
         style="fill:#000000"
         d="m 298.74642,315.09889 c -0.54578,-0.39909 -0.58499,-2.08079 -0.74968,-32.14874 -0.13931,-25.43387 -0.0929,-31.82508 0.23393,-32.21889 0.49093,-0.59154 2.04651,-0.64861 2.48738,-0.0913 0.2003,0.25323 0.3964,12.00883 0.53444,32.03795 0.2035,29.52895 0.18171,31.67808 -0.32682,32.24 -0.63928,0.70639 -1.37689,0.76764 -2.17925,0.18094 z M 82.249083,244.60735 c -5.860896,-1.57502 -10.065306,-5.94487 -11.678394,-12.13794 -0.644093,-2.47284 -0.647271,-8.35895 -0.0059,-10.88218 1.606745,-6.32089 5.90877,-10.76782 11.749059,-12.14478 5.803258,-1.36824 11.956525,0.18962 15.853824,4.01381 2.012368,1.97462 3.054708,3.67436 4.163438,6.7893 0.72528,2.03767 0.82576,2.83105 0.84024,6.63444 0.0182,4.79084 -0.38712,6.68639 -2.14299,10.02099 -2.001486,3.80106 -6.508921,7.11262 -10.752058,7.8994 -2.414701,0.44775 -5.960046,0.36249 -8.027243,-0.19304 z m 9.723685,-4.44774 c 2.344312,-1.18611 4.68636,-3.76646 5.613103,-6.18423 2.429759,-6.33896 1.043815,-14.64625 -3.043785,-18.2443 -2.57518,-2.26676 -3.9848,-2.76568 -7.822083,-2.76856 -2.820347,-0.002 -3.612884,0.11411 -4.93451,0.7236 -5.190576,2.39374 -7.458809,6.96015 -7.156091,14.40665 0.263135,6.4728 2.636307,10.36915 7.587002,12.45656 1.533754,0.6467 2.211461,0.73812 4.838039,0.65268 2.631504,-0.0856 3.312525,-0.22994 4.918325,-1.0424 z M 35.840001,227.04 V 209.6 h 2.24 2.24 v 7.2 7.2 h 9.280001 9.28 v -7.2 -7.2 h 2.24 2.24 v 17.44 17.44 h -2.24 -2.24 v -8.32 -8.32 h -9.28 -9.280001 v 8.32 8.32 h -2.24 -2.24 z m 258.889089,15.64735 c -5.8609,-1.57502 -10.06531,-5.94487 -11.67839,-12.13794 -0.6441,-2.47284 -0.64728,-8.35895 -0.006,-10.88218 1.60674,-6.32089 5.90877,-10.76782 11.74906,-12.14478 5.80326,-1.36824 11.95652,0.18962 15.85382,4.01381 2.01237,1.97462 3.05471,3.67436 4.16343,6.7893 0.72528,2.03767 0.82576,2.83105 0.84025,6.63444 0.0182,4.79084 -0.38712,6.68639 -2.14299,10.02099 -2.00149,3.80106 -6.50892,7.11262 -10.75206,7.8994 -2.4147,0.44775 -5.96004,0.36249 -8.02724,-0.19304 z m 9.72368,-4.44774 c 2.34432,-1.18611 4.68636,-3.76646 5.61311,-6.18423 2.42976,-6.33896 1.04381,-14.64625 -3.04379,-18.2443 -2.57518,-2.26676 -3.9848,-2.76568 -7.82208,-2.76856 -2.82035,-0.002 -3.61288,0.11411 -4.93451,0.7236 -5.19058,2.39374 -7.45881,6.96015 -7.15609,14.40665 0.26313,6.4728 2.63631,10.36915 7.587,12.45656 1.53375,0.6467 2.21146,0.73812 4.83804,0.65268 2.6315,-0.0856 3.31253,-0.22994 4.91832,-1.0424 z m 118.59632,-28.19226 c -5.86089,-1.57502 -10.0653,-5.94487 -11.67839,-12.13794 -0.64409,-2.47284 -0.64727,-8.35895 -0.006,-10.88218 1.60675,-6.32089 5.90877,-10.76782 11.74906,-12.14478 5.80326,-1.36824 11.95653,0.18962 15.85383,4.01381 2.01236,1.97462 3.05471,3.67436 4.16343,6.7893 0.72528,2.03767 0.82576,2.83105 0.84024,6.63444 0.0182,4.79084 -0.38712,6.68639 -2.14299,10.02099 -2.00148,3.80106 -6.50892,7.11262 -10.75205,7.8994 -2.4147,0.44775 -5.96005,0.36249 -8.02725,-0.19304 z m 9.72369,-4.44774 c 2.34431,-1.18612 4.68636,-3.76646 5.6131,-6.18423 2.42976,-6.33896 1.04382,-14.64625 -3.04378,-18.2443 -2.57518,-2.26676 -3.9848,-2.76568 -7.82209,-2.76856 -2.82034,-0.002 -3.61288,0.1141 -4.93451,0.7236 -5.19057,2.39374 -7.45881,6.96015 -7.15609,14.40665 0.26314,6.4728 2.63631,10.36915 7.587,12.45656 1.53376,0.6467 2.21147,0.73812 4.83804,0.65268 2.63151,-0.0856 3.31253,-0.22994 4.91833,-1.0424 z m -321.65737,3.90181 c -0.82631,-0.36871 -0.98467,-1.82644 -0.27546,-2.53565 0.24198,-0.24198 10.39236,-8.62579 22.55641,-18.6307 l 22.11646,-18.19075 -0.17897,-5.63216 c -0.0984,-3.09769 -0.52154,-21.60374 -0.94024,-41.12456 -0.59902,-27.92845 -0.84995,-35.576614 -1.17743,-35.887586 -0.31497,-0.299095 -48.0804,-27.958272 -58.109567,-33.649084 l -1.69339,-0.960874 -32.141057,12.034973 -32.141056,12.034972 -0.0056,18.785379 -0.0056,18.78538 2.156692,0.0946 c 1.75456,0.077 2.1766,0.19904 2.263463,0.65462 0.09692,0.50831 -0.24986,0.56 -3.756691,0.56 H 25.920001 V 97.120001 c 0,-10.296 -0.121449,-18.72 -0.269886,-18.72 -0.148437,0 -5.260991,1.872 -11.361232,4.16 -6.1002406,2.288 -11.3499922,4.16 -11.6661147,4.16 -0.3161225,0 -0.7475682,-0.1728 -0.9587682,-0.384 -0.5029848,-0.502985 -0.4930018,-2.01074 0.016,-2.416512 0.22,-0.175382 5.7609486,-2.317015 12.3132189,-4.759183 l 11.913219,-4.440305 0.08678,-22.88 L 26.080001,28.96 h 3.675618 c 3.24617,0 3.688218,0.06543 3.783463,0.56 0.0945,0.490718 -0.172187,0.56 -2.155617,0.56 h -2.263464 v 21.637323 c 0,20.449483 0.03074,21.629275 0.56,21.490735 0.308,-0.08062 14.8523,-5.506791 32.320666,-12.05815 L 93.761334,49.238346 122.16067,65.636114 c 15.61963,9.018773 29.10683,16.814262 29.97155,17.32331 l 1.57221,0.925541 -0.22407,-40.661357 c -0.15829,-28.72397 -0.12334,-40.8495788 0.11904,-41.3024824 0.41305,-0.7717909 1.97359,-0.8684377 2.56261,-0.1587071 0.31396,0.378297 0.43621,9.3223895 0.56642,41.4400005 0.11977,29.541059 0.26438,40.953225 0.51881,40.941951 0.19402,-0.0086 12.80877,-4.309526 28.03277,-9.557619 l 27.68,-9.541988 0.0827,-17.802381 0.0827,-17.802382 h -2.26615 c -1.98599,0 -2.25282,-0.06923 -2.1583,-0.56 0.0952,-0.494571 0.53729,-0.56 3.78346,-0.56 h 3.67562 l 0.0827,17.714007 0.0827,17.714007 0.75591,-0.189722 c 0.41575,-0.104347 4.15708,-1.359847 8.31407,-2.79 l 7.55816,-2.600278 0.0832,-14.604007 0.0832,-14.604007 h 3.67561 c 3.24618,0 3.68822,0.06543 3.78347,0.56 0.0945,0.490718 -0.17219,0.56 -2.15562,0.56 h -2.26346 v 13.461565 13.461564 l 0.72,-0.22127 c 0.396,-0.121698 4.24102,-1.436807 8.54448,-2.922465 l 7.82449,-2.701196 49.77552,20.460107 49.77551,20.460106 0.0811,-44.912553 0.0811,-44.9125542 0.7989,-0.5234551 c 0.73968,-0.4846576 0.85819,-0.4846039 1.59889,7.251e-4 l 0.8,0.5241801 V 47.207378 c 0,42.601659 0.0293,44.952215 0.56,44.944827 0.308,-0.0043 18.272,-5.386701 39.92,-11.960917 l 39.36,-11.953122 0.0825,-19.079083 0.0825,-19.079083 h -2.26598 c -1.98583,0 -2.25265,-0.06923 -2.15814,-0.56 0.0953,-0.494571 0.5373,-0.56 3.78347,-0.56 h 3.67561 l 0.0825,19.153266 c 0.0651,15.097038 0.16671,19.121624 0.48,19.003856 0.21861,-0.08217 7.15466,-2.196782 15.41345,-4.699127 16.28437,-4.934036 16.50402,-4.973218 16.50402,-2.944037 0,0.510223 -0.18,1.077049 -0.4,1.259614 -0.22,0.182565 -7.456,2.475385 -16.08,5.095156 l -15.68,4.76322 -0.0824,19.744026 -0.0824,19.744026 h -3.86102 c -3.50451,0 -3.85117,-0.0517 -3.75425,-0.56 0.0869,-0.45558 0.5089,-0.57764 2.26346,-0.65462 l 2.15669,-0.0946 V 90.219284 71.667808 l -0.72,0.18359 c -4.55166,1.160611 -79.11719,24.072997 -79.10934,24.308603 0.006,0.176 0.11779,14.575999 0.24873,31.999999 0.24592,32.72547 0.34425,36.32 0.9935,36.32 0.26972,0 38.34411,11.16794 45.39564,13.3154 0.31269,0.0952 0.79092,0.51256 1.06274,0.92741 0.57288,0.87432 0.20704,1.90764 -0.78708,2.22317 -0.42975,0.1364 -36.45076,-10.24495 -45.56419,-13.13172 -0.50352,-0.1595 -0.56,0.0988 -0.56,2.56064 v 2.73803 l -1.92969,1.84354 -1.92969,1.84353 25.03185,7.36 c 15.03952,4.422 25.26252,7.58355 25.60969,7.92 0.31782,0.308 0.57784,0.776 0.57784,1.04 0,0.72099 -1.23683,1.814 -1.85637,1.6405 -3.90246,-1.09282 -48.77592,-14.39094 -49.4077,-14.64182 -0.47525,-0.18872 -0.98004,-0.69101 -1.12177,-1.11619 -0.23992,-0.71976 -1.18396,0.12071 -13.69461,12.19223 -7.39031,7.13091 -13.62698,12.96528 -13.85928,12.96528 -0.94795,0 -1.66027,-0.6801 -1.66027,-1.58519 0,-0.79801 2.02126,-2.8719 14.96,-15.34954 8.228,-7.93478 15.19568,-14.75051 15.48373,-15.14607 0.4831,-0.6634 0.49407,-3.64261 0.14139,-38.40181 -0.2297,-22.63873 -0.50266,-37.791781 -0.68373,-37.956063 -0.16576,-0.150398 -22.64545,-9.450206 -49.95486,-20.66624 l -49.65348,-20.392789 -7.46653,2.575928 c -4.10659,1.416761 -7.93452,2.739831 -8.50652,2.940156 l -1.04,0.364227 v 25.394075 25.394076 l 2.15669,0.0946 c 1.75456,0.077 2.1766,0.19904 2.26346,0.65462 0.0969,0.50831 -0.24986,0.56 -3.75669,0.56 h -3.86346 V 87.200001 c 0,-13.992 -0.0865,-25.44 -0.1922,-25.44 -0.10572,0 -3.84972,1.258438 -8.32001,2.79653 l -8.12779,2.79653 V 90.316531 113.28 h -3.86347 c -3.50683,0 -3.8536,-0.0517 -3.75669,-0.56 0.0869,-0.45558 0.5089,-0.57764 2.26346,-0.65462 l 2.1567,-0.0946 v -21.7454 c 0,-11.959958 -0.036,-21.742866 -0.08,-21.739795 -0.45805,0.03197 -55.76362,19.235336 -55.93522,19.421991 -0.12763,0.138834 0.10512,15.084424 0.51722,33.212424 0.4121,18.128 0.75574,35.012 0.76364,37.52 l 0.0144,4.56 h 0.8541 c 0.69924,0 30.22555,10.84892 33.11878,12.16891 1.42008,0.64788 1.42306,2.56265 0.005,3.01282 -0.34648,0.10997 -7.29392,-2.33305 -17.12034,-6.02025 L 158.72,166.15616 v 2.8102 2.8102 l -2.07,1.67948 -2.07001,1.67949 19.21923,7.20132 c 15.68428,5.87679 19.27877,7.33198 19.54293,7.91175 0.46904,1.02943 -0.17054,2.07085 -1.2734,2.07345 -0.85633,0.002 -37.62959,-13.55432 -38.36975,-14.14489 -0.20955,-0.16719 -0.42555,-0.64942 -0.48,-1.07162 -0.0875,-0.67821 -2.4474,1.16668 -20.259,15.8375 -11.088,9.13282 -20.37806,16.66644 -20.64459,16.74137 -0.26653,0.0749 -0.80653,-0.007 -1.2,-0.18299 z m 101.05368,-0.0941 c -5.8609,-1.57502 -10.06531,-5.94487 -11.6784,-12.13794 -0.64409,-2.47284 -0.64727,-8.35895 -0.006,-10.88218 1.60674,-6.32089 5.90877,-10.76782 11.74906,-12.14478 5.80325,-1.36824 11.95652,0.18962 15.85382,4.01381 2.01237,1.97462 3.05471,3.67436 4.16343,6.7893 0.72528,2.03767 0.82576,2.83105 0.84024,6.63444 0.0182,4.79084 -0.38712,6.68639 -2.14298,10.02099 -2.00149,3.80106 -6.50892,7.11262 -10.75206,7.8994 -2.4147,0.44775 -5.96005,0.36249 -8.02724,-0.19304 z m 9.72368,-4.44774 c 2.34431,-1.18612 4.68636,-3.76646 5.61311,-6.18423 2.42976,-6.33896 1.04381,-14.64625 -3.04379,-18.2443 -2.57518,-2.26676 -3.9848,-2.76568 -7.82208,-2.76856 -2.82035,-0.002 -3.61289,0.1141 -4.93451,0.7236 -5.19058,2.39374 -7.45881,6.96015 -7.15609,14.40665 0.26313,6.4728 2.6363,10.36915 7.587,12.45656 1.53375,0.6467 2.21146,0.73812 4.83804,0.65268 2.6315,-0.0856 3.31252,-0.22994 4.91832,-1.0424 z m -3.01276,-82.48743 c 0,-0.24878 0.432,-2.58526 0.96,-5.19218 0.528,-2.60692 0.96,-4.78938 0.96,-4.84992 0,-0.0606 0.30434,-0.11008 0.67632,-0.11008 0.56472,0 0.65378,0.15358 0.53971,0.93074 l -0.1366,0.93074 1.00877,-0.76943 c 1.64813,-1.25709 2.78109,-1.52539 4.10517,-0.97215 1.79662,0.75067 1.8264,1.5265 0.31782,8.2801 -0.43994,1.96949 -0.55381,2.16 -1.29108,2.16 -0.58228,0 -0.75774,-0.1325 -0.62692,-0.47342 0.46656,-1.21582 1.57418,-7.79733 1.39209,-8.27184 -0.30217,-0.78745 -2.47928,-0.70755 -3.54415,0.13008 -1.22142,0.96076 -1.53512,1.68125 -2.28814,5.25518 -0.58891,2.79505 -0.76274,3.21294 -1.37361,3.30226 -0.43755,0.064 -0.69938,-0.0671 -0.69938,-0.35008 z m 223.04,-3.52 c 0,-0.24878 0.432,-2.58526 0.96,-5.19218 0.528,-2.60692 0.96,-4.78938 0.96,-4.84992 0,-0.0605 0.3564,-0.11008 0.792,-0.11008 0.72025,0 0.77432,0.0942 0.59681,1.04 l -0.19519,1.04 1.08319,-1.0047 c 0.59576,-0.55258 1.41781,-1.10566 1.82678,-1.22905 0.95367,-0.28773 2.53884,0.36524 2.78734,1.14817 0.24533,0.77298 0.54636,0.76418 1.27157,-0.0372 0.84057,-0.92882 2.66533,-1.4077 3.76324,-0.98762 1.38454,0.52976 1.61553,1.61463 1.02169,4.79845 -1.07766,5.77769 -1.08247,5.79193 -1.95551,5.79193 -0.605,0 -0.75668,-0.13386 -0.63454,-0.56 0.56018,-1.95447 1.47475,-7.60068 1.31347,-8.10885 -0.29379,-0.92564 -2.10603,-0.80948 -3.32103,0.21287 -1.06237,0.89393 -1.60503,2.35507 -2.27885,6.13598 -0.37447,2.10119 -0.48408,2.32 -1.16221,2.32 -0.90511,0 -0.90584,0.0904 0.0362,-4.47413 0.51836,-2.51175 0.66244,-3.85315 0.4554,-4.24 -0.65052,-1.21551 -3.20125,-0.32709 -4.18874,1.45895 -0.2114,0.38235 -0.68776,2.13518 -1.05859,3.89518 -0.58891,2.79505 -0.76274,3.21294 -1.37361,3.30226 -0.43756,0.064 -0.69939,-0.0671 -0.69939,-0.35008 z"
         id="path2" />
    </g>
  </g>
</svg>
