<svg version="1.1" id="Layer_1" xmlns="http://www.w3.org/2000/svg" xmlns:xlink="http://www.w3.org/1999/xlink" x="0px" y="0px"
	 width="100%" viewBox="0 0 253 167" enable-background="new 0 0 253 167" xml:space="preserve">
<path fill="none" opacity="1.000000" stroke="#000000" stroke-linecap="round" stroke-linejoin="round" stroke-width="2.000000"
	d="
M237.500000,4.500000 
	C237.500000,56.500000 237.502075,108.500000 237.492249,160.500000 
	C237.491867,162.537506 238.275131,165.248016 234.500000,164.500000 
"/>
<path fill="none" opacity="1.000000" stroke="#000000" stroke-linecap="round" stroke-linejoin="round" stroke-width="2.000000"
	d="
M13.500000,4.500000 
	C13.500000,56.500000 13.497922,108.500000 13.507745,160.500000 
	C13.508129,162.537506 12.724863,165.248016 16.500000,164.500000 
"/>
<path fill="none" opacity="1.000000" stroke="#000000" stroke-linecap="round" stroke-linejoin="round" stroke-width="2.000000"
	d="
M237.000000,60.500000 
	C222.166672,60.500000 207.333328,60.500000 192.500000,60.500000 
"/>
<path fill="none" opacity="1.000000" stroke="#000000" stroke-linecap="round" stroke-linejoin="round" stroke-width="2.000000"
	d="
M184.500000,113.500000 
	C184.500000,122.166664 184.500000,130.833328 184.500000,139.500000 
"/>
<path fill="none" opacity="1.000000" stroke="#000000" stroke-linecap="round" stroke-linejoin="round" stroke-width="2.000000"
	d="
M76.500000,60.500000 
	C68.002693,60.803875 59.481350,59.882122 51.000000,61.000000 
"/>
<path fill="none" opacity="1.000000" stroke="#000000" stroke-linecap="round" stroke-linejoin="round" stroke-width="2.000000"
	d="
M118.500000,60.500000 
	C110.166664,60.500000 101.833336,60.500000 93.500000,60.500000 
"/>
<path fill="none" opacity="1.000000" stroke="#000000" stroke-linecap="round" stroke-linejoin="round" stroke-width="2.000000"
	d="
M215.500000,105.500000 
	C207.166672,105.500000 198.833328,105.500000 190.500000,105.500000 
"/>
<path fill="none" opacity="1.000000" stroke="#000000" stroke-linecap="round" stroke-linejoin="round" stroke-width="2.000000"
	d="
M118.500000,105.500000 
	C110.166664,105.500000 101.833336,105.500000 93.500000,105.500000 
"/>
<path fill="none" opacity="1.000000" stroke="#000000" stroke-linecap="round" stroke-linejoin="round" stroke-width="2.000000"
	d="
M173.500000,60.500000 
	C165.500000,60.500000 157.500000,60.500000 149.500000,60.500000 
"/>
<path fill="none" opacity="1.000000" stroke="#000000" stroke-linecap="round" stroke-linejoin="round" stroke-width="2.000000"
	d="
M124.500000,57.500000 
	C121.819817,59.653797 121.402298,62.118057 124.040901,64.453796 
	C125.999542,66.187614 128.137772,66.424370 129.500000,63.500000 
"/>
<path fill="none" opacity="1.000000" stroke="#000000" stroke-linecap="round" stroke-linejoin="round" stroke-width="2.000000"
	d="
M28.500000,58.500000 
	C27.520355,61.150402 27.551773,63.891422 30.067287,65.386810 
	C32.023731,66.549850 33.805779,64.549217 35.500000,63.500000 
"/>
<path fill="none" opacity="1.000000" stroke="#000000" stroke-linecap="round" stroke-linejoin="round" stroke-width="2.000000"
	d="
M20.500000,60.500000 
	C14.166667,60.500000 7.833333,60.500000 1.500000,60.500000 
"/>
<path fill="none" opacity="1.000000" stroke="#000000" stroke-linecap="round" stroke-linejoin="round" stroke-width="2.000000"
	d="
M95.500000,143.500000 
	C95.414520,146.616989 97.178711,147.577408 100.000412,147.520172 
	C103.010834,147.459106 102.445892,145.320343 102.500000,143.500000 
"/>
<path fill="none" opacity="1.000000" stroke="#000000" stroke-linecap="round" stroke-linejoin="round" stroke-width="2.000000"
	d="
M243.500000,60.500000 
	C241.661362,60.608318 239.771820,60.156643 238.000000,61.000000 
"/>
<path fill="none" opacity="1.000000" stroke="#000000" stroke-linecap="round" stroke-linejoin="round" stroke-width="2.000000"
	d="
M45.500000,64.500000 
	C46.074821,61.258511 44.223644,60.556442 41.500996,60.469013 
	C38.407623,60.369678 38.418297,62.355389 38.500000,64.500000 
"/>
<path fill="none" opacity="1.000000" stroke="#000000" stroke-linecap="round" stroke-linejoin="round" stroke-width="2.000000"
	d="
M100.500000,14.500000 
	C100.500000,17.500000 100.500000,20.500000 100.500000,23.500000 
"/>
<path fill="none" opacity="1.000000" stroke="#000000" stroke-linecap="round" stroke-linejoin="round" stroke-width="2.000000"
	d="
M94.500000,14.500000 
	C94.500000,17.500000 94.500000,20.500000 94.500000,23.500000 
"/>
<path fill="none" opacity="1.000000" stroke="#000000" stroke-linecap="round" stroke-linejoin="round" stroke-width="2.000000"
	d="
M140.000000,64.500000 
	C140.364227,61.827133 139.350845,60.508438 136.500702,60.459190 
	C133.408524,60.405758 133.418289,62.355389 133.500000,64.500000 
"/>
<path fill="none" opacity="1.000000" stroke="#000000" stroke-linecap="round" stroke-linejoin="round" stroke-width="2.000000"
	d="
M191.500000,17.500000 
	C194.370895,17.671953 197.112289,17.682032 196.500000,13.500000 
"/>
<path fill="none" opacity="1.000000" stroke="#000000" stroke-linecap="round" stroke-linejoin="round" stroke-width="2.000000"
	d="
M209.500000,143.500000 
	C209.585327,145.647324 209.647736,147.560898 206.500000,147.560898 
	C203.352264,147.560898 203.414673,145.647324 203.500000,143.500000 
"/>
<path fill="none" opacity="1.000000" stroke="#000000" stroke-linecap="round" stroke-linejoin="round" stroke-width="2.000000"
	d="
M190.500000,13.500000 
	C190.500000,16.166666 190.500000,18.833334 190.500000,21.500000 
"/>
<path fill="none" opacity="1.000000" stroke="#000000" stroke-linecap="round" stroke-linejoin="round" stroke-width="2.000000"
	d="
M196.000000,17.500000 
	C197.058014,18.721914 196.231796,20.179359 196.500000,21.500000 
"/>
<path fill="none" opacity="1.000000" stroke="#000000" stroke-linecap="round" stroke-linejoin="round" stroke-width="2.000000"
	d="
M95.500000,18.500000 
	C96.833336,18.500000 98.166664,18.500000 99.500000,18.500000 
"/>
<path fill="none" opacity="1.000000" stroke="#000000" stroke-linecap="round" stroke-linejoin="round" stroke-width="2.000000"
	d="
M38.500000,57.500000 
	C38.666668,58.666668 38.833336,59.833332 39.000000,61.000000 
"/>
<path fill="none" opacity="1.000000" stroke="#000000" stroke-linecap="round" stroke-linejoin="round" stroke-width="2.000000"
	d="
M45.500000,57.500000 
	C45.333336,58.666668 45.166668,59.833332 45.000000,61.000000 
"/>
<path fill="none" opacity="1.000000" stroke="#000000" stroke-linecap="round" stroke-linejoin="round" stroke-width="2.000000"
	d="
M133.500000,57.500000 
	C133.666656,58.666668 133.833328,59.833336 134.000000,61.000000 
"/>
</svg>