<svg version="1.1" id="Layer_1" xmlns="http://www.w3.org/2000/svg" xmlns:xlink="http://www.w3.org/1999/xlink" x="0px" y="0px"
	 width="100%" viewBox="0 0 889 627" enable-background="new 0 0 889 627" xml:space="preserve">
<path fill="none" opacity="1.000000" stroke="#000000" stroke-linecap="round" stroke-linejoin="round" stroke-width="12.000000"
	d="
M889.250000,6.000001 
	C889.333313,7.666668 889.489563,9.333331 889.489685,11.000002 
	C889.500610,216.500000 889.500000,422.000000 889.500000,627.500000 
"/>
<path fill="none" opacity="1.000000" stroke="#000000" stroke-linecap="round" stroke-linejoin="round" stroke-width="4.000000"
	d="
M239.500000,346.500000 
	C213.166672,365.166687 186.873688,383.891022 160.423386,402.390472 
	C158.307983,403.870026 157.454483,405.052612 157.460709,407.500092 
	C157.524765,432.666595 157.493317,457.833344 157.521210,482.999969 
	C157.522507,484.166809 157.833328,485.333344 158.000000,486.500000 
"/>
<path fill="none" opacity="1.000000" stroke="#000000" stroke-linecap="round" stroke-linejoin="round" stroke-width="5.000000"
	d="
M433.000000,330.000000 
	C433.644745,326.166656 433.813324,322.340973 433.007446,318.498444 
	C431.195129,309.856995 424.724152,306.654846 417.503693,307.064850 
	C410.627502,307.455322 404.627472,314.332977 404.521912,321.500336 
	C404.459106,325.762787 404.255554,330.023376 406.462341,334.020782 
	C409.698975,339.883606 414.733917,341.360229 421.003448,341.075897 
	C426.438965,340.829407 429.437012,337.587036 431.970062,333.481537 
	C432.508850,332.608276 432.666687,331.500000 433.000031,330.500000 
"/>
<path fill="none" opacity="1.000000" stroke="#000000" stroke-linecap="round" stroke-linejoin="round" stroke-width="4.000000"
	d="
M781.500000,108.500000 
	C776.527405,109.253120 773.700378,113.370758 770.067505,116.090164 
	C756.565002,126.197479 743.354370,136.693985 729.976807,146.969864 
	C728.022827,148.470856 726.100464,148.286163 723.953247,146.558121 
	C715.903381,140.079620 707.649231,133.855667 699.503784,127.495178 
	C684.157471,115.511841 668.830994,103.502922 653.502625,91.496666 
	C651.317139,89.784874 649.408936,89.448288 646.960205,91.451378 
	C632.373962,103.383034 617.681274,115.184822 602.994263,126.992836 
	C594.859680,133.532806 586.677368,140.013550 578.483582,146.479156 
	C577.660828,147.128342 576.734192,148.238510 575.500000,147.000000 
"/>
<path fill="none" opacity="1.000000" stroke="#000000" stroke-linecap="round" stroke-linejoin="round" stroke-width="6.000000"
	d="
M233.500000,431.000000 
	C232.379105,430.741791 231.349213,431.395569 230.369003,429.570343 
	C226.380432,422.143463 219.071579,421.343262 212.038849,422.701172 
	C204.768661,424.104919 201.042450,430.035187 199.552368,437.011169 
	C197.792587,445.249817 199.700470,452.827850 206.075485,458.413849 
	C213.689438,465.085541 227.764526,462.995056 231.500000,451.500000 
"/>
<path fill="none" opacity="1.000000" stroke="#000000" stroke-linecap="round" stroke-linejoin="round" stroke-width="5.000000"
	d="
M652.500000,399.500000 
	C651.516052,398.134521 649.345947,400.050293 648.389587,397.542084 
	C645.989502,391.247070 640.300171,391.643127 635.004822,392.060883 
	C630.883789,392.385986 625.934265,397.446777 625.034058,402.006714 
	C624.046143,407.010773 623.917603,412.088287 625.536194,416.988037 
	C627.411499,422.664856 631.674561,425.600006 637.503174,425.947174 
	C642.892151,426.268188 647.299500,423.960510 649.330383,418.931488 
	C650.158203,416.881409 651.085510,417.044952 652.500000,417.000000 
"/>
<path fill="none" opacity="1.000000" stroke="#000000" stroke-linecap="round" stroke-linejoin="round" stroke-width="4.000000"
	d="
M265.500000,82.500000 
	C265.500000,154.166672 265.500000,225.833328 265.500000,297.500000 
"/>
<path fill="none" opacity="1.000000" stroke="#000000" stroke-linecap="round" stroke-linejoin="round" stroke-width="4.000000"
	d="
M419.500000,80.500000 
	C419.500000,153.500000 419.500000,226.500000 419.500000,299.500000 
"/>
<path fill="none" opacity="1.000000" stroke="#000000" stroke-linecap="round" stroke-linejoin="round" stroke-width="4.000000"
	d="
M574.500000,146.500000 
	C571.111511,147.961975 569.330994,144.672974 567.651184,143.313248 
	C558.382812,135.810974 548.331238,129.311279 539.229309,121.724892 
	C533.524475,116.969978 527.500671,112.328575 521.679321,107.923767 
	C513.433289,101.684212 505.535095,94.741966 496.225647,89.269417 
	C483.024750,99.481262 469.747162,109.721069 456.504791,120.006165 
	C445.814514,128.309097 435.142334,136.635941 424.529388,145.037140 
	C423.131195,146.143967 421.944763,147.334045 420.000000,147.000000 
"/>
<path fill="none" opacity="1.000000" stroke="#000000" stroke-linecap="round" stroke-linejoin="round" stroke-width="4.000000"
	d="
M374.000000,112.500000 
	C369.719330,111.337677 366.869080,108.006615 363.526001,105.465775 
	C356.519714,100.140686 349.659027,94.624008 342.585541,89.065796 
	C333.382629,96.178658 324.413269,103.053421 315.506317,110.008102 
	C300.816345,121.478233 286.191193,133.031540 271.484558,144.480179 
	C267.239227,147.785034 262.948242,147.228653 258.478668,143.525757 
	C250.722137,137.099716 242.805222,130.867523 235.023819,124.471024 
	C233.475983,123.198662 231.950760,122.026512 230.000000,121.500000 
"/>
<path fill="none" opacity="1.000000" stroke="#000000" stroke-linecap="round" stroke-linejoin="round" stroke-width="5.000000"
	d="
M201.500000,77.500000 
	C199.485931,76.927223 199.535126,74.794693 198.474289,73.521423 
	C193.989105,68.138039 185.402893,68.167191 180.000000,73.500008 
	C171.897125,81.497833 173.572006,97.688545 183.000000,102.500015 
	C189.261856,105.695671 195.575333,103.885658 199.571716,98.049103 
	C200.452332,96.762985 200.522766,93.808144 203.500000,95.000000 
"/>
<path fill="none" opacity="1.000000" stroke="#000000" stroke-linecap="round" stroke-linejoin="round" stroke-width="5.000000"
	d="
M433.500000,34.500000 
	C431.037994,27.584856 425.301819,27.614431 419.502167,28.030270 
	C415.092102,28.346474 410.807037,32.533981 409.523743,37.755833 
	C407.683624,45.243462 407.549042,52.678024 413.567169,58.429729 
	C419.628632,64.222809 429.574249,63.154549 433.490021,55.494892 
	C434.351501,53.809769 435.206635,52.219963 437.500000,52.500000 
"/>
<path fill="none" opacity="1.000000" stroke="#000000" stroke-linecap="round" stroke-linejoin="round" stroke-width="5.000000"
	d="
M489.500000,403.500000 
	C485.041138,393.325195 472.266785,393.788086 466.027832,403.517853 
	C460.896332,411.520416 464.460175,425.411713 472.500000,429.500000 
	C478.737213,432.671631 485.483093,430.628815 488.998657,424.499237 
	C489.657166,423.351013 489.928223,421.884613 491.500000,421.500000 
"/>
<path fill="none" opacity="1.000000" stroke="#000000" stroke-linecap="round" stroke-linejoin="round" stroke-width="5.000000"
	d="
M586.500000,34.000000 
	C583.017334,27.882175 578.600098,25.163876 573.500000,26.000002 
	C566.986938,27.067780 563.058899,31.287146 561.467529,38.492832 
	C560.224670,44.120872 560.557983,49.829086 563.652527,54.396667 
	C568.937561,62.197624 580.675415,63.749489 586.405518,53.447453 
	C586.993713,52.390053 587.824219,52.157536 588.500000,51.500000 
"/>
<path fill="none" opacity="1.000000" stroke="#000000" stroke-linecap="round" stroke-linejoin="round" stroke-width="5.000000"
	d="
M98.500000,500.500000 
	C95.495064,499.762970 95.289360,496.363831 92.620102,494.795593 
	C84.603889,490.085999 74.823997,495.782837 73.019279,502.505188 
	C71.078751,509.733429 71.002579,516.893799 76.051613,522.957031 
	C82.577065,530.793213 95.584236,528.292969 98.000000,518.500000 
"/>
<path fill="none" opacity="1.000000" stroke="#000000" stroke-linecap="round" stroke-linejoin="round" stroke-width="5.000000"
	d="
M169.500000,585.000000 
	C166.927841,579.842468 162.876404,576.895630 157.006378,577.556641 
	C150.309143,578.310852 146.094772,582.602112 144.568542,589.016296 
	C142.286667,598.606018 145.921524,607.816833 151.971863,610.562012 
	C158.090225,613.338074 164.563766,612.007629 168.463928,606.474548 
	C169.320877,605.258850 170.048111,604.048096 171.500000,603.500000 
"/>
<path fill="none" opacity="1.000000" stroke="#000000" stroke-linecap="round" stroke-linejoin="round" stroke-width="5.000000"
	d="
M815.500000,77.500000 
	C812.119080,71.724052 806.646606,68.486656 802.019958,70.058701 
	C795.568604,72.250740 790.396118,77.618408 790.482361,84.000237 
	C790.546814,88.764496 789.958252,93.647018 792.521667,97.987190 
	C797.575928,106.544731 809.533325,106.746468 815.061768,98.541603 
	C815.761780,97.502586 815.850525,95.819908 817.500000,95.500000 
"/>
<path fill="none" opacity="1.000000" stroke="#000000" stroke-linecap="round" stroke-linejoin="round" stroke-width="4.000000"
	d="
M575.500000,74.500000 
	C575.500000,98.666664 575.500000,122.833336 575.500000,147.000000 
"/>
<path fill="none" opacity="1.000000" stroke="#000000" stroke-linecap="round" stroke-linejoin="round" stroke-width="5.000000"
	d="
M278.500000,37.500000 
	C275.385742,32.179638 269.689728,28.778484 265.509125,30.030426 
	C257.997314,32.279938 253.378311,38.174126 253.475800,44.000404 
	C253.581345,50.308502 253.130951,56.762310 258.511536,61.486874 
	C264.848694,67.051384 274.306091,65.601891 277.543243,59.021275 
	C278.068695,57.953144 279.166656,57.166664 280.000000,56.250000 
"/>
<path fill="none" opacity="1.000000" stroke="#000000" stroke-linecap="round" stroke-linejoin="round" stroke-width="5.000000"
	d="
M273.500000,501.500000 
	C271.541626,493.976532 263.378815,490.768951 256.475677,494.454437 
	C245.764450,500.173065 247.053268,517.937988 252.969193,523.532593 
	C260.198822,530.369568 268.726929,528.668335 274.500000,519.000000 
"/>
<path fill="none" opacity="1.000000" stroke="#000000" stroke-linecap="round" stroke-linejoin="round" stroke-width="5.000000"
	d="
M576.000000,148.000000 
	C576.000000,197.000000 576.000000,246.000000 576.000000,295.000000 
"/>
<path fill="none" opacity="1.000000" stroke="#000000" stroke-linecap="round" stroke-linejoin="round" stroke-width="5.000000"
	d="
M639.500000,218.500000 
	C637.166687,218.666672 634.833618,218.972900 632.499939,218.977905 
	C614.000061,219.017609 595.500000,219.000000 577.000000,219.000000 
"/>
<path fill="none" opacity="1.000000" stroke="#000000" stroke-linecap="round" stroke-linejoin="round" stroke-width="5.000000"
	d="
M637.000000,236.000000 
	C617.000000,236.000000 597.000000,236.000000 577.000000,236.000000 
"/>
<path fill="none" opacity="1.000000" stroke="#000000" stroke-linecap="round" stroke-linejoin="round" stroke-width="5.000000"
	d="
M325.500000,242.500000 
	C314.680359,241.442673 303.833069,242.177048 292.999664,242.024628 
	C284.334717,241.902725 275.666656,242.000000 267.000000,242.000000 
"/>
<path fill="none" opacity="1.000000" stroke="#000000" stroke-linecap="round" stroke-linejoin="round" stroke-width="4.000000"
	d="
M479.500000,223.500000 
	C461.666656,223.500000 443.833282,223.478668 426.000122,223.535278 
	C424.342957,223.540543 422.577454,222.941299 421.000000,224.000000 
"/>
<path fill="none" opacity="1.000000" stroke="#000000" stroke-linecap="round" stroke-linejoin="round" stroke-width="5.000000"
	d="
M325.500000,225.000000 
	C307.666656,225.000000 289.833282,224.978668 272.000122,225.035278 
	C270.342957,225.040543 268.577454,224.441299 267.000000,225.500000 
"/>
<path fill="none" opacity="1.000000" stroke="#000000" stroke-linecap="round" stroke-linejoin="round" stroke-width="5.000000"
	d="
M477.500000,240.500000 
	C469.854126,241.623810 462.162109,240.974075 454.500366,240.933121 
	C443.334595,240.873474 432.152100,241.642960 421.000000,240.500000 
"/>
<path fill="none" opacity="1.000000" stroke="#000000" stroke-linecap="round" stroke-linejoin="round" stroke-width="5.000000"
	d="
M235.500000,512.000000 
	C217.166672,512.000000 198.833328,512.000000 180.500000,512.000000 
"/>
<path fill="none" opacity="1.000000" stroke="#000000" stroke-linecap="round" stroke-linejoin="round" stroke-width="3.000000"
	d="
M524.000000,111.500000 
	C522.018005,114.842987 523.197083,118.498840 523.052368,122.002167 
	C522.846252,126.993652 522.777771,132.013229 523.074402,136.995575 
	C523.289795,140.614029 521.887939,141.695618 518.497986,141.546204 
	C514.173035,141.355591 509.833344,141.500000 505.500000,141.500000 
"/>
<path fill="none" opacity="1.000000" stroke="#000000" stroke-linecap="round" stroke-linejoin="round" stroke-width="4.000000"
	d="
M376.500000,117.000000 
	C374.401642,121.369255 375.891022,126.003891 375.543640,130.503372 
	C375.313416,133.485596 375.362000,136.508163 375.538696,139.497711 
	C375.716614,142.507706 374.255280,143.995880 371.500885,143.948898 
	C366.834564,143.869370 362.134338,144.571472 357.500000,143.500000 
"/>
<path fill="none" opacity="1.000000" stroke="#000000" stroke-linecap="round" stroke-linejoin="round" stroke-width="4.000000"
	d="
M554.500000,94.500000 
	C549.000000,93.467552 543.500000,94.262268 537.500000,93.908409 
	C537.500000,100.657661 537.482239,106.828911 537.510559,112.999954 
	C537.519287,114.908127 537.576965,116.801872 536.500000,118.500000 
"/>
<path fill="none" opacity="1.000000" stroke="#000000" stroke-linecap="round" stroke-linejoin="round" stroke-width="3.000000"
	d="
M399.500000,94.500000 
	C393.833344,93.446388 388.166656,94.259789 382.000000,93.925690 
	C382.000000,100.325287 381.990112,106.162666 382.005310,111.999985 
	C382.010681,114.062065 382.168915,116.139267 381.000000,118.000000 
"/>
<path fill="none" opacity="1.000000" stroke="#000000" stroke-linecap="round" stroke-linejoin="round" stroke-width="4.000000"
	d="
M675.000000,440.000000 
	C670.827087,440.000000 666.654114,440.000000 662.388855,440.000000 
	C661.369141,436.434570 663.356934,435.046936 665.466125,433.455109 
	C668.571228,431.111694 671.730408,428.817749 674.048157,425.533997 
	C675.779663,423.080811 676.208008,420.515045 674.923645,418.039612 
	C673.426270,415.153534 668.216858,413.207397 665.545166,414.587433 
	C662.932495,415.937012 659.754456,417.401672 661.000000,421.500000 
"/>
<path fill="none" opacity="1.000000" stroke="#000000" stroke-linecap="round" stroke-linejoin="round" stroke-width="4.000000"
	d="
M245.500000,94.500000 
	C240.865646,93.428535 236.161942,94.284386 231.500458,93.992569 
	C228.898529,93.829681 228.442947,95.319725 228.475327,97.500366 
	C228.552063,102.665894 228.524475,107.833519 228.486145,112.999901 
	C228.473434,114.713806 228.960388,116.558746 227.500000,118.000000 
"/>
<path fill="none" opacity="1.000000" stroke="#000000" stroke-linecap="round" stroke-linejoin="round" stroke-width="7.000000"
	d="
M244.000000,423.000000 
	C244.000000,435.666656 244.000000,448.333344 244.000000,461.000000 
"/>
<path fill="none" opacity="1.000000" stroke="#000000" stroke-linecap="round" stroke-linejoin="round" stroke-width="4.000000"
	d="
M437.500000,353.000000 
	C444.500000,364.000000 451.461914,375.024658 458.545349,385.970642 
	C459.494110,387.436737 460.546173,388.789154 461.000000,390.500000 
"/>
<path fill="none" opacity="1.000000" stroke="#000000" stroke-linecap="round" stroke-linejoin="round" stroke-width="4.000000"
	d="
M686.500000,116.500000 
	C688.405762,112.287621 687.206665,107.834915 687.468018,103.498070 
	C687.638062,100.674980 687.500000,97.833336 687.500000,94.610580 
	C682.252869,93.287415 676.834229,94.319000 671.500000,94.000000 
"/>
<path fill="none" opacity="1.000000" stroke="#000000" stroke-linecap="round" stroke-linejoin="round" stroke-width="4.000000"
	d="
M213.500000,107.500000 
	C217.500000,110.666664 221.334442,114.079689 225.556061,116.916580 
	C228.554779,118.931694 229.201553,120.845764 228.704498,124.527611 
	C227.931061,130.256516 228.500000,136.166672 228.500000,142.551956 
	C234.172729,142.431213 239.649323,145.085510 245.500000,143.500000 
"/>
<path fill="none" opacity="1.000000" stroke="#000000" stroke-linecap="round" stroke-linejoin="round" stroke-width="4.000000"
	d="
M722.000000,435.000000 
	C723.677368,438.683441 726.277832,440.152832 730.514160,439.610474 
	C734.460022,439.105286 735.552551,436.781616 736.590759,433.528961 
	C737.718262,429.996552 736.288147,427.499512 733.933533,425.581573 
	C731.655396,423.725952 728.613647,423.892670 726.053284,425.111847 
	C724.905151,425.658508 724.333313,425.071350 723.426819,424.945251 
	C722.170410,424.000000 723.391296,422.986542 723.516785,422.002136 
	C724.473267,414.498230 724.487061,414.500000 732.000000,414.500000 
	C733.166687,414.500000 734.333313,414.500000 735.500000,414.500000 
"/>
<path fill="none" opacity="1.000000" stroke="#000000" stroke-linecap="round" stroke-linejoin="round" stroke-width="4.000000"
	d="
M358.500000,94.000000 
	C362.666656,94.000000 366.834717,94.065826 370.999542,93.978607 
	C374.176025,93.912079 376.035248,94.849426 375.525848,98.503609 
	C374.902557,102.975029 376.516144,107.593956 374.537140,112.016624 
	C373.643005,114.014893 375.540710,115.819328 376.583160,116.330406 
	C379.412903,117.717766 381.298584,120.322906 383.649841,121.753769 
	C394.432587,128.315674 403.505402,136.993195 413.535126,144.452759 
	C415.115448,145.628113 416.518829,147.591904 419.000000,147.000000 
"/>
<path fill="none" opacity="1.000000" stroke="#000000" stroke-linecap="round" stroke-linejoin="round" stroke-width="4.000000"
	d="
M597.500000,351.500000 
	C605.000000,362.500000 612.500000,373.500000 620.000000,384.500000 
"/>
<path fill="none" opacity="1.000000" stroke="#000000" stroke-linecap="round" stroke-linejoin="round" stroke-width="4.000000"
	d="
M157.500000,536.500000 
	C157.500000,547.500000 157.500000,558.500000 157.500000,569.500000 
"/>
<path fill="none" opacity="1.000000" stroke="#000000" stroke-linecap="round" stroke-linejoin="round" stroke-width="2.000000"
	d="
M522.000000,107.250000 
	C523.848938,102.947723 522.817627,98.420563 522.939575,93.998337 
	C523.009521,91.462570 520.871887,91.491158 519.000000,91.496124 
	C514.500000,91.508072 510.000000,91.500000 505.500000,91.500000 
"/>
<path fill="none" opacity="1.000000" stroke="#000000" stroke-linecap="round" stroke-linejoin="round" stroke-width="4.000000"
	d="
M331.500000,65.000000 
	C335.775391,64.233749 339.988586,66.451218 341.000000,70.000008 
	C341.817505,72.868393 339.752289,77.256920 337.000000,78.499985 
	C333.717560,79.982475 329.191071,78.467552 327.042938,74.973610 
	C326.381134,73.897179 325.855469,73.129784 324.500000,73.500000 
"/>
<path fill="none" opacity="1.000000" stroke="#000000" stroke-linecap="round" stroke-linejoin="round" stroke-width="6.000000"
	d="
M169.500000,493.500000 
	C169.500000,501.166656 169.473877,508.833496 169.516754,516.499878 
	C169.528824,518.656006 169.445557,520.736389 168.000000,522.500000 
"/>
<path fill="none" opacity="1.000000" stroke="#000000" stroke-linecap="round" stroke-linejoin="round" stroke-width="4.000000"
	d="
M639.500000,62.500000 
	C639.592834,59.954166 641.617371,60.150135 642.971130,60.589020 
	C645.415222,61.381382 647.608643,62.878029 648.473083,65.508842 
	C649.520996,68.697792 647.305298,73.254387 643.984497,74.457153 
	C640.488037,75.723549 637.531189,75.000229 635.437866,71.537552 
	C634.809326,70.497749 634.358459,68.803169 632.500000,69.000000 
"/>
<path fill="none" opacity="1.000000" stroke="#000000" stroke-linecap="round" stroke-linejoin="round" stroke-width="6.000000"
	d="
M146.500000,497.000000 
	C144.944290,499.864166 145.551361,502.978699 145.520432,506.000214 
	C145.453888,512.499512 145.500000,519.000000 145.500000,525.500000 
"/>
<path fill="none" opacity="1.000000" stroke="#000000" stroke-linecap="round" stroke-linejoin="round" stroke-width="4.000000"
	d="
M874.500000,105.000000 
	C880.018860,110.847672 879.890442,115.555099 873.982178,117.956223 
	C870.368591,119.424812 866.963074,118.812325 864.535461,115.474213 
	C863.721497,114.355087 863.322205,112.933319 861.500000,113.500000 
"/>
<path fill="none" opacity="1.000000" stroke="#000000" stroke-linecap="round" stroke-linejoin="round" stroke-width="4.000000"
	d="
M326.500000,528.000000 
	C330.874512,526.464722 333.913055,528.330444 335.960327,532.021973 
	C337.598206,534.975342 336.130188,537.535828 333.956879,539.451050 
	C331.335693,541.761108 328.308838,542.482422 324.985413,540.524780 
	C322.607086,539.123840 321.392395,537.303833 322.000000,534.500000 
"/>
<path fill="none" opacity="1.000000" stroke="#000000" stroke-linecap="round" stroke-linejoin="round" stroke-width="5.000000"
	d="
M145.750000,493.500000 
	C146.062637,497.229767 150.104553,497.885590 151.693085,500.898193 
	C154.691208,506.584045 159.350998,511.398712 162.302933,517.101990 
	C164.032120,520.442871 167.712677,521.618896 169.000000,525.000000 
"/>
<path fill="none" opacity="1.000000" stroke="#000000" stroke-linecap="round" stroke-linejoin="round" stroke-width="4.000000"
	d="
M542.500000,432.500000 
	C543.769775,429.067169 546.025024,430.307220 547.977295,431.536072 
	C551.632141,433.836639 553.076172,437.629761 551.478455,440.487946 
	C549.870300,443.364746 547.529419,444.770142 543.995605,444.583099 
	C540.422302,444.393951 538.314636,442.924316 537.500000,439.500000 
"/>
<path fill="none" opacity="1.000000" stroke="#000000" stroke-linecap="round" stroke-linejoin="round" stroke-width="4.000000"
	d="
M487.500000,62.500000 
	C491.077606,61.701138 495.417786,63.871223 496.500000,67.000000 
	C497.306610,69.331917 495.090271,74.041626 492.500000,75.500015 
	C490.422607,76.669632 483.950165,75.922279 483.187653,73.928238 
	C482.718597,72.701492 480.955231,72.114426 481.500000,70.500000 
"/>
<path fill="none" opacity="1.000000" stroke="#000000" stroke-linecap="round" stroke-linejoin="round" stroke-width="4.000000"
	d="
M53.500000,528.000000 
	C58.369736,527.127197 61.416431,528.650574 62.499985,532.500000 
	C63.541992,536.201843 61.646427,539.992981 58.000000,541.500000 
	C54.877373,542.790527 50.837521,540.664307 48.500000,536.500000 
"/>
<path fill="none" opacity="1.000000" stroke="#000000" stroke-linecap="round" stroke-linejoin="round" stroke-width="4.000000"
	d="
M157.000000,105.500000 
	C158.268265,103.174644 160.339279,103.372772 161.944534,104.574120 
	C164.315353,106.348396 166.930710,108.385956 165.960800,111.989449 
	C165.264587,114.576111 164.174469,116.856155 161.011749,117.553276 
	C156.300476,118.591705 154.298798,117.828011 151.000000,113.000000 
"/>
<path fill="none" opacity="1.000000" stroke="#000000" stroke-linecap="round" stroke-linejoin="round" stroke-width="4.000000"
	d="
M222.500000,613.500000 
	C223.390518,610.412842 226.248123,611.385864 227.395004,612.156311 
	C229.988541,613.898560 232.647507,616.299927 231.925217,619.985352 
	C231.373947,622.798157 229.575012,625.051575 226.494583,625.459106 
	C222.466324,625.991943 218.859604,625.259338 217.000000,621.000000 
"/>
<path fill="none" opacity="1.000000" stroke="#000000" stroke-linecap="round" stroke-linejoin="round" stroke-width="4.000000"
	d="
M547.000000,430.500000 
	C548.881836,428.352722 551.850464,426.858978 550.088867,422.959839 
	C548.882202,420.289001 547.084656,419.572693 544.500793,419.478210 
	C540.738281,419.340698 538.022766,420.617493 537.000000,424.500000 
"/>
<path fill="none" opacity="1.000000" stroke="#000000" stroke-linecap="round" stroke-linejoin="round" stroke-width="5.000000"
	d="
M134.500000,512.000000 
	C126.666664,512.000000 118.833336,512.000000 111.000000,512.000000 
"/>
<path fill="none" opacity="1.000000" stroke="#000000" stroke-linecap="round" stroke-linejoin="round" stroke-width="4.000000"
	d="
M58.000000,527.500000 
	C62.168594,523.274902 62.646069,520.091614 59.499981,517.500000 
	C56.070827,514.675171 51.816578,515.835449 48.500000,520.500000 
"/>
<path fill="none" opacity="1.000000" stroke="#000000" stroke-linecap="round" stroke-linejoin="round" stroke-width="3.000000"
	d="
M383.000000,122.500000 
	C381.966461,130.266678 379.910095,138.100067 384.500000,145.500000 
"/>
<path fill="none" opacity="1.000000" stroke="#000000" stroke-linecap="round" stroke-linejoin="round" stroke-width="4.000000"
	d="
M644.000000,60.500000 
	C644.698303,58.037369 648.653809,57.229683 647.102173,53.457973 
	C645.957703,50.676090 644.353577,49.469101 641.499939,49.489990 
	C638.190613,49.514229 635.023804,49.685211 634.500000,54.000000 
"/>
<path fill="none" opacity="1.000000" stroke="#000000" stroke-linecap="round" stroke-linejoin="round" stroke-width="4.000000"
	d="
M688.500000,120.000000 
	C686.368774,123.850174 687.846252,128.002853 687.553101,132.003891 
	C687.297974,135.485199 687.500000,139.000000 687.500000,142.500000 
"/>
<path fill="none" opacity="1.000000" stroke="#000000" stroke-linecap="round" stroke-linejoin="round" stroke-width="4.000000"
	d="
M161.000000,103.500000 
	C163.079849,101.623260 165.601517,99.678154 164.386795,96.543877 
	C163.560196,94.411026 161.850693,92.648964 159.004135,92.442955 
	C154.956070,92.149979 152.560837,94.064018 151.000000,97.500000 
"/>
<path fill="none" opacity="1.000000" stroke="#000000" stroke-linecap="round" stroke-linejoin="round" stroke-width="3.000000"
	d="
M227.000000,611.500000 
	C228.756927,609.651184 231.587036,608.069580 230.394257,605.041626 
	C229.445389,602.632874 227.729355,600.492371 224.500290,600.465088 
	C220.766998,600.433655 218.434174,602.234558 217.000000,605.500000 
"/>
<path fill="none" opacity="1.000000" stroke="#000000" stroke-linecap="round" stroke-linejoin="round" stroke-width="5.000000"
	d="
M139.500000,86.000000 
	C132.166672,86.000000 124.833336,86.000000 117.500000,86.000000 
"/>
<path fill="none" opacity="1.000000" stroke="#000000" stroke-linecap="round" stroke-linejoin="round" stroke-width="5.000000"
	d="
M205.500000,594.000000 
	C198.166672,594.000000 190.833328,594.000000 183.500000,594.000000 
"/>
<path fill="none" opacity="1.000000" stroke="#000000" stroke-linecap="round" stroke-linejoin="round" stroke-width="5.000000"
	d="
M709.500000,408.000000 
	C702.166687,408.000000 694.833313,408.000000 687.500000,408.000000 
"/>
<path fill="none" opacity="1.000000" stroke="#000000" stroke-linecap="round" stroke-linejoin="round" stroke-width="5.000000"
	d="
M622.500000,43.000000 
	C615.166687,43.000000 607.833313,43.000000 600.500000,43.000000 
"/>
<path fill="none" opacity="1.000000" stroke="#000000" stroke-linecap="round" stroke-linejoin="round" stroke-width="5.000000"
	d="
M314.500000,47.000000 
	C307.166656,47.000000 299.833344,47.000000 292.500000,47.000000 
"/>
<path fill="none" opacity="1.000000" stroke="#000000" stroke-linecap="round" stroke-linejoin="round" stroke-width="5.000000"
	d="
M830.000000,86.500000 
	C837.145813,87.564545 844.335510,86.740845 851.500000,87.000000 
"/>
<path fill="none" opacity="1.000000" stroke="#000000" stroke-linecap="round" stroke-linejoin="round" stroke-width="5.000000"
	d="
M504.000000,412.500000 
	C511.145782,413.564545 518.335510,412.740845 525.500000,413.000000 
"/>
<path fill="none" opacity="1.000000" stroke="#000000" stroke-linecap="round" stroke-linejoin="round" stroke-width="6.000000"
	d="
M288.500000,509.500000 
	C295.496948,509.794952 302.522583,508.884796 309.500000,510.000000 
"/>
<path fill="none" opacity="1.000000" stroke="#000000" stroke-linecap="round" stroke-linejoin="round" stroke-width="5.000000"
	d="
M469.500000,44.000000 
	C462.500000,44.000000 455.500000,44.000000 448.500000,44.000000 
"/>
<path fill="none" opacity="1.000000" stroke="#000000" stroke-linecap="round" stroke-linejoin="round" stroke-width="6.000000"
	d="
M15.000000,509.500000 
	C22.000000,509.500000 29.000000,509.500000 36.000000,509.500000 
"/>
<path fill="none" opacity="1.000000" stroke="#000000" stroke-linecap="round" stroke-linejoin="round" stroke-width="4.000000"
	d="
M538.000000,122.500000 
	C536.869019,128.975281 537.786316,135.502823 537.509827,142.000412 
	C537.438843,143.670044 538.332336,144.585236 539.999084,144.484970 
	C544.834961,144.194061 549.666687,143.833328 554.500000,143.500000 
"/>
<path fill="none" opacity="1.000000" stroke="#000000" stroke-linecap="round" stroke-linejoin="round" stroke-width="4.000000"
	d="
M401.000000,159.500000 
	C402.067963,156.211731 401.620148,152.801071 401.377441,149.509033 
	C401.192688,147.002945 399.703735,144.434555 396.517517,145.085739 
	C393.601562,145.681702 390.830200,145.270340 388.000824,144.991745 
	C384.630463,144.659866 383.400024,146.339828 383.483063,149.500443 
	C383.561829,152.498383 383.500000,155.500000 383.500000,158.500000 
"/>
<path fill="none" opacity="1.000000" stroke="#000000" stroke-linecap="round" stroke-linejoin="round" stroke-width="4.000000"
	d="
M868.500000,104.999985 
	C870.250000,104.666649 872.283264,104.786697 873.691711,103.906708 
	C876.735535,102.005035 877.615662,98.200096 876.000061,95.999947 
	C873.540527,92.650627 869.995911,92.178574 866.474792,94.461143 
	C864.552429,95.707344 863.308716,97.118553 863.500000,99.500000 
"/>
<path fill="none" opacity="1.000000" stroke="#000000" stroke-linecap="round" stroke-linejoin="round" stroke-width="4.000000"
	d="
M332.000000,527.750000 
	C332.166656,527.166687 332.196442,526.489746 332.521240,526.014526 
	C335.639648,521.451599 335.552002,519.626221 332.000031,517.000000 
	C329.199646,514.929443 325.203339,516.105469 322.436768,519.447632 
	C321.497223,520.582642 321.454651,521.381348 322.000000,522.500000 
"/>
<path fill="none" opacity="1.000000" stroke="#000000" stroke-linecap="round" stroke-linejoin="round" stroke-width="4.000000"
	d="
M491.750000,62.000000 
	C496.009186,56.681442 495.611755,51.856205 490.471832,50.616764 
	C486.475830,49.653164 483.181549,51.460106 481.500000,55.500000 
"/>
<path fill="none" opacity="1.000000" stroke="#000000" stroke-linecap="round" stroke-linejoin="round" stroke-width="6.000000"
	d="
M828.500000,71.500000 
	C828.583374,82.333336 828.666687,93.166664 828.750000,104.000000 
"/>
<path fill="none" opacity="1.000000" stroke="#000000" stroke-linecap="round" stroke-linejoin="round" stroke-width="5.000000"
	d="
M287.000000,494.000000 
	C287.000000,505.000000 287.000000,516.000000 287.000000,527.000000 
"/>
<path fill="none" opacity="1.000000" stroke="#000000" stroke-linecap="round" stroke-linejoin="round" stroke-width="6.000000"
	d="
M13.500000,494.500000 
	C13.500000,505.166656 13.500000,515.833313 13.500000,526.500000 
"/>
<path fill="none" opacity="1.000000" stroke="#000000" stroke-linecap="round" stroke-linejoin="round" stroke-width="6.000000"
	d="
M37.500000,494.500000 
	C37.500000,505.166656 37.500000,515.833313 37.500000,526.500000 
"/>
<path fill="none" opacity="1.000000" stroke="#000000" stroke-linecap="round" stroke-linejoin="round" stroke-width="4.000000"
	d="
M336.000000,64.500000 
	C338.157501,62.267399 341.124115,60.444237 339.036499,56.480778 
	C337.308136,53.199398 334.389191,53.310123 331.504456,53.553017 
	C328.890442,53.773106 327.509735,55.770084 326.500000,58.000000 
"/>
<path fill="none" opacity="1.000000" stroke="#000000" stroke-linecap="round" stroke-linejoin="round" stroke-width="5.000000"
	d="
M311.000000,494.000000 
	C311.000000,505.000000 311.000000,516.000000 311.000000,527.000000 
"/>
<path fill="none" opacity="1.000000" stroke="#000000" stroke-linecap="round" stroke-linejoin="round" stroke-width="6.000000"
	d="
M502.500000,397.500000 
	C502.500000,408.166656 502.500000,418.833344 502.500000,429.500000 
"/>
<path fill="none" opacity="1.000000" stroke="#000000" stroke-linecap="round" stroke-linejoin="round" stroke-width="6.000000"
	d="
M315.750000,31.000000 
	C315.243408,42.000000 315.285736,53.000000 315.750000,64.000000 
"/>
<path fill="none" opacity="1.000000" stroke="#000000" stroke-linecap="round" stroke-linejoin="round" stroke-width="6.000000"
	d="
M852.500000,71.500000 
	C852.583313,82.333336 852.666687,93.166664 852.750000,104.000000 
"/>
<path fill="none" opacity="1.000000" stroke="#000000" stroke-linecap="round" stroke-linejoin="round" stroke-width="6.000000"
	d="
M291.500000,31.500000 
	C291.500000,42.166668 291.500000,52.833332 291.500000,63.500000 
"/>
<path fill="none" opacity="1.000000" stroke="#000000" stroke-linecap="round" stroke-linejoin="round" stroke-width="6.000000"
	d="
M470.750031,28.000000 
	C470.666687,38.833332 470.583344,49.666668 470.500031,60.500000 
"/>
<path fill="none" opacity="1.000000" stroke="#000000" stroke-linecap="round" stroke-linejoin="round" stroke-width="6.000000"
	d="
M623.500000,27.500000 
	C623.500000,38.166668 623.500000,48.833332 623.500000,59.500000 
"/>
<path fill="none" opacity="1.000000" stroke="#000000" stroke-linecap="round" stroke-linejoin="round" stroke-width="6.000000"
	d="
M599.500000,27.500000 
	C599.500000,38.166668 599.500000,48.833332 599.500000,59.500000 
"/>
<path fill="none" opacity="1.000000" stroke="#000000" stroke-linecap="round" stroke-linejoin="round" stroke-width="6.000000"
	d="
M686.500000,392.500000 
	C686.500000,403.166656 686.500000,413.833344 686.500000,424.500000 
"/>
<path fill="none" opacity="1.000000" stroke="#000000" stroke-linecap="round" stroke-linejoin="round" stroke-width="6.000000"
	d="
M710.500000,392.500000 
	C710.500000,403.166656 710.500000,413.833344 710.500000,424.500000 
"/>
<path fill="none" opacity="1.000000" stroke="#000000" stroke-linecap="round" stroke-linejoin="round" stroke-width="6.000000"
	d="
M526.500000,397.500000 
	C526.500000,408.166656 526.500000,418.833344 526.500000,429.500000 
"/>
<path fill="none" opacity="1.000000" stroke="#000000" stroke-linecap="round" stroke-linejoin="round" stroke-width="6.000000"
	d="
M206.500000,578.500000 
	C206.500000,589.166687 206.500000,599.833313 206.500000,610.500000 
"/>
<path fill="none" opacity="1.000000" stroke="#000000" stroke-linecap="round" stroke-linejoin="round" stroke-width="6.000000"
	d="
M182.500000,578.500000 
	C182.500000,589.166687 182.500000,599.833313 182.500000,610.500000 
"/>
<path fill="none" opacity="1.000000" stroke="#000000" stroke-linecap="round" stroke-linejoin="round" stroke-width="3.000000"
	d="
M686.500000,143.000000 
	C681.280945,145.161392 675.818542,143.429749 670.500000,144.000000 
"/>
<path fill="none" opacity="1.000000" stroke="#000000" stroke-linecap="round" stroke-linejoin="round" stroke-width="5.000000"
	d="
M446.749969,28.000002 
	C446.999969,32.833336 447.412506,37.665264 447.454285,42.500393 
	C447.496002,47.331928 447.448975,52.203167 446.831635,56.978237 
	C446.641144,58.451614 447.256042,59.666668 447.000000,61.000000 
"/>
<path fill="none" opacity="1.000000" stroke="#000000" stroke-linecap="round" stroke-linejoin="round" stroke-width="6.000000"
	d="
M140.750000,70.000000 
	C140.666672,80.833336 140.583328,91.666664 140.500000,102.500000 
"/>
<path fill="none" opacity="1.000000" stroke="#000000" stroke-linecap="round" stroke-linejoin="round" stroke-width="6.000000"
	d="
M116.500000,70.500000 
	C116.500000,81.166664 116.500000,91.833336 116.500000,102.500000 
"/>
<path fill="none" opacity="1.000000" stroke="#000000" stroke-linecap="round" stroke-linejoin="round" stroke-width="3.000000"
	d="
M539.500000,145.000000 
	C540.601868,149.129257 539.714905,153.338074 540.000000,157.500000 
"/>
<path fill="none" opacity="1.000000" stroke="#000000" stroke-linecap="round" stroke-linejoin="round" stroke-width="4.000000"
	d="
M392.500000,146.500000 
	C392.500000,150.500000 392.500000,154.500000 392.500000,158.500000 
"/>
<path fill="none" opacity="1.000000" stroke="#000000" stroke-linecap="round" stroke-linejoin="round" stroke-width="3.000000"
	d="
M531.000000,143.500000 
	C531.000000,148.166672 531.000000,152.833328 531.000000,157.500000 
"/>
<path fill="none" opacity="1.000000" stroke="#000000" stroke-linecap="round" stroke-linejoin="round" stroke-width="5.000000"
	d="
M264.500000,409.500000 
	C261.379456,408.457062 258.161804,409.259033 255.000000,409.000000 
"/>
<path fill="none" opacity="1.000000" stroke="#000000" stroke-linecap="round" stroke-linejoin="round" stroke-width="5.000000"
	d="
M197.500000,479.000000 
	C191.666672,479.000000 185.833328,479.000000 180.000000,479.000000 
"/>
<path fill="none" opacity="1.000000" stroke="#000000" stroke-linecap="round" stroke-linejoin="round" stroke-width="5.000000"
	d="
M187.500000,470.500000 
	C188.342300,476.166656 188.342300,481.833344 187.500000,487.500000 
"/>
<path fill="none" opacity="1.000000" stroke="#000000" stroke-linecap="round" stroke-linejoin="round" stroke-width="2.000000"
	d="
M278.500000,38.500000 
	C279.500000,35.999809 280.500000,38.999580 281.500000,38.500000 
"/>
<path fill="none" opacity="1.000000" stroke="#000000" stroke-linecap="round" stroke-linejoin="round" stroke-width="2.000000"
	d="
M815.500000,78.500000 
	C816.500000,75.999809 817.500000,78.999580 818.500000,78.500000 
"/>
<path fill="none" opacity="1.000000" stroke="#000000" stroke-linecap="round" stroke-linejoin="round" stroke-width="2.000000"
	d="
M489.500000,404.500000 
	C490.500000,401.999817 491.500000,404.999573 492.500000,404.500000 
"/>
<path fill="none" opacity="1.000000" stroke="#000000" stroke-linecap="round" stroke-linejoin="round" stroke-width="3.000000"
	d="
M699.500000,146.000000 
	C695.816345,148.918137 694.094604,153.995270 696.034912,156.977280 
	C698.314392,160.480392 701.355103,161.320099 704.032593,158.026520 
	C707.451782,153.820724 705.484802,147.696899 700.000000,146.000000 
"/>
<path fill="none" opacity="1.000000" stroke="#000000" stroke-linecap="round" stroke-linejoin="round" stroke-width="5.000000"
	d="
M661.500000,208.000000 
	C650.311218,212.461380 647.603271,216.473038 648.000000,228.000000 
	C648.255432,235.423904 654.537415,242.004150 662.001221,242.481018 
	C669.859863,242.983078 676.306763,237.279541 677.101746,230.011124 
	C677.551331,225.900269 677.841980,221.863876 676.440063,218.021866 
	C674.028381,211.412247 669.053406,208.114197 662.000000,208.000000 
"/>
<path fill="none" opacity="1.000000" stroke="#000000" stroke-linecap="round" stroke-linejoin="round" stroke-width="5.000000"
	d="
M500.500000,213.000000 
	C495.919891,214.883560 490.992676,216.304260 489.489502,221.997223 
	C487.723145,228.686829 487.382690,235.501938 491.110352,241.430618 
	C496.829437,250.526581 510.836945,249.322906 515.447571,239.475449 
	C520.691284,228.275726 516.980835,212.568039 501.000000,213.000000 
"/>
<path fill="none" opacity="1.000000" stroke="#000000" stroke-linecap="round" stroke-linejoin="round" stroke-width="5.000000"
	d="
M347.500000,214.500000 
	C340.294525,215.388504 335.848419,219.914139 334.686859,226.532791 
	C333.339813,234.208145 333.961945,242.423126 341.589539,246.845581 
	C350.695831,252.125427 359.935333,247.815170 362.943573,237.483566 
	C364.176392,233.249527 364.325775,228.471161 362.788879,224.583466 
	C360.382690,218.496918 357.623444,214.722809 348.000000,214.500000 
"/>
<path fill="none" opacity="1.000000" stroke="#000000" stroke-linecap="round" stroke-linejoin="round" stroke-width="5.000000"
	d="
M573.500000,305.000000 
	C562.066833,308.294586 559.450500,319.960480 563.036621,330.487518 
	C566.250793,339.922760 578.205139,340.942200 584.010681,337.015839 
	C589.922852,333.017334 592.092285,327.122498 591.362549,320.515198 
	C590.595215,313.567474 587.905762,307.469269 580.020142,305.422455 
	C577.960144,304.887756 575.994446,305.233612 574.000000,305.000000 
"/>
<path fill="none" opacity="1.000000" stroke="#000000" stroke-linecap="round" stroke-linejoin="round" stroke-width="5.000000"
	d="
M263.500000,308.500000 
	C254.389618,310.318604 249.867020,315.138092 249.588715,324.502625 
	C249.339706,332.881531 252.689438,340.054657 261.491913,342.528809 
	C265.855652,343.755371 269.494781,342.341705 272.999939,339.999908 
	C282.710602,333.512177 280.710663,315.009399 272.018402,310.464813 
	C269.457428,309.125854 266.801544,308.627136 264.000000,308.500000 
"/>
</svg>