<?xml version="1.0" encoding="UTF-8" standalone="no"?>
<!-- Created with Inkscape (http://www.inkscape.org/) -->

<svg
   version="1.1"
   id="svg1"
   width="562.27386"
   height="255.03386"
   viewBox="0 0 562.27387 255.03386"
   sodipodi:docname="gelatin.svg"
   inkscape:version="1.4.2 (f4327f4, 2025-05-13)"
   xmlns:inkscape="http://www.inkscape.org/namespaces/inkscape"
   xmlns:sodipodi="http://sodipodi.sourceforge.net/DTD/sodipodi-0.dtd"
   xmlns="http://www.w3.org/2000/svg"
   xmlns:svg="http://www.w3.org/2000/svg">
  <defs
     id="defs1" />
  <sodipodi:namedview
     id="namedview1"
     pagecolor="#ffffff"
     bordercolor="#000000"
     borderopacity="0.25"
     inkscape:showpageshadow="2"
     inkscape:pageopacity="0.0"
     inkscape:pagecheckerboard="0"
     inkscape:deskcolor="#d1d1d1"
     inkscape:zoom="1.5878143"
     inkscape:cx="226.41187"
     inkscape:cy="153.98526"
     inkscape:window-width="1920"
     inkscape:window-height="1111"
     inkscape:window-x="-9"
     inkscape:window-y="-9"
     inkscape:window-maximized="1"
     inkscape:current-layer="g1" />
  <g
     inkscape:groupmode="layer"
     inkscape:label="Image"
     id="g1"
     transform="translate(-2.8868782,-2.8800037)">
    <path
       style="fill:#000000"
       d="m 496.47378,249.35386 c -5.30585,-4.70463 -9.70999,-8.69787 -9.78697,-8.87387 -0.17686,-0.40438 6.96109,-16.26903 7.3832,-16.40974 0.86369,-0.28789 0.38619,1.09613 -2.85694,8.28076 l -3.52495,7.80898 0.7763,0.64 c 0.42696,0.352 4.60513,4.06784 9.28482,8.25742 7.96479,7.13064 8.55527,7.59283 9.24004,7.23261 0.40234,-0.21165 5.31911,-3.03691 10.92617,-6.27836 6.30324,-3.64392 10.38507,-5.82048 10.69351,-5.70212 0.30203,0.1159 0.38305,0.30668 0.20535,0.48353 -0.2816,0.28024 -22.42658,13.13338 -22.60611,13.12079 -0.0481,-0.003 -4.42856,-3.85537 -9.73442,-8.56 z m 29.77985,-5.87783 c -0.31218,-0.50512 0.17654,-0.85771 1.54885,-1.1174 1.86849,-0.35359 1.99832,-0.34208 1.99832,0.17717 0,0.5206 -3.27071,1.38755 -3.54717,0.94023 z m -66.22869,-1.66843 c -2.2187,-1.00669 -3.29582,-3.31938 -2.90247,-6.23189 0.21903,-1.62171 0.86019,-2.6846 2.24157,-3.71595 1.23711,-0.92363 4.26715,-0.9242 5.53329,-0.001 1.21841,0.88837 2.34347,3.18378 2.34347,4.78127 0,1.57414 -1.12034,3.88977 -2.29616,4.74595 -1.08345,0.78891 -3.62936,1.00712 -4.9197,0.42166 z m 3.51488,-1.15963 c 2.80799,-1.0676 2.76465,-6.95739 -0.0592,-8.04182 -1.36341,-0.52359 -3.00221,-0.11888 -3.99985,0.98778 -0.77206,0.85642 -0.88,1.2346 -0.88,3.08311 0,1.96947 0.071,2.17794 1.088,3.19495 1.15134,1.15134 2.27056,1.37687 3.85102,0.77598 z m 62.06298,-0.70945 c -0.31345,-0.50719 0.2554,-0.83085 1.878,-1.06854 0.99316,-0.14548 1.52,-0.1057 1.52,0.11479 0,0.4577 -0.30866,0.61755 -1.86977,0.96831 -0.85912,0.19303 -1.40313,0.18784 -1.52823,-0.0146 z m 27.49655,-3.53853 c 0.0924,-0.396 0.33418,-1.548 0.53738,-2.56 0.20319,-1.012 0.50323,-1.84 0.66676,-1.84 0.16352,0 0.29731,0.13149 0.29731,0.2922 0,0.16247 0.41485,0.13562 0.93434,-0.0605 1.07424,-0.40548 1.94566,0.0745 1.94566,1.0717 0,1.35425 -0.71796,3.81657 -1.11282,3.81657 -0.32129,0 -0.3544,-0.28155 -0.14112,-1.2 0.38516,-1.65858 0.36188,-3.28 -0.0471,-3.28 -1.00651,0 -1.5764,0.74909 -1.9515,2.56511 -0.25739,1.24617 -0.55289,1.91489 -0.84618,1.91489 -0.30378,0 -0.39593,-0.23467 -0.28273,-0.72 z m -28.0417,0.19019 c -0.44665,-0.44665 -0.18252,-0.72964 0.98315,-1.05336 1.59989,-0.44432 2,-0.42261 2,0.10848 0,0.24492 -0.396,0.53976 -0.88,0.6552 -0.484,0.11543 -1.10642,0.27663 -1.38315,0.35821 -0.27673,0.0816 -0.60073,0.0507 -0.72,-0.0685 z m -0.67535,-3.5954 c -0.25892,-0.41894 0.82786,-0.99479 1.87746,-0.99479 0.77293,0 1.11046,0.43189 0.58104,0.74348 -0.63367,0.37296 -2.27935,0.54118 -2.4585,0.25131 z M 469.28,230.55092 c 0.57082,-1.48753 8.67761,-13.91093 9.07747,-13.91093 0.69605,0 0.49027,0.38713 -4.11298,7.73798 -2.47598,3.95386 -4.37114,6.66202 -4.66203,6.66202 -0.30824,0 -0.42049,-0.18149 -0.30246,-0.48907 z m 77.3208,-0.15093 c 0,-0.176 0.72,-0.32 1.6,-0.32 h 1.6 v -11.95783 -11.95783 l -1.84,-0.52266 c -1.012,-0.28746 -3.45082,-1.00974 -5.4196,-1.60505 l -3.57961,-1.08239 -7.93871,8.60288 c -4.36629,4.73159 -8.08347,8.60248 -8.2604,8.60199 -1.10936,-0.003 -18.86137,-1.95214 -18.99476,-2.08552 -0.0903,-0.0903 -0.0106,-0.31789 0.17715,-0.50566 0.24187,-0.24186 2.75457,-0.0987 8.61866,0.49089 4.5525,0.45776 8.66607,0.89675 9.14128,0.97554 0.78019,0.12935 1.6321,-0.68604 8.78208,-8.40556 4.35494,-4.70184 8.0354,-8.59722 8.17879,-8.6564 0.21427,-0.0884 9.18033,2.46595 10.69261,3.04627 0.37184,0.14269 0.44251,-1.75195 0.44251,-11.86443 v -12.03424 h -1.6 c -0.88,0 -1.6,-0.144 -1.6,-0.32 0,-0.1828 0.95876,-0.32 2.23628,-0.32 h 2.23629 l 0.0837,12.54306 0.0837,12.54305 6.96,2.0649 c 4.61036,1.36781 6.96,2.21076 6.96,2.49695 0,0.23762 -0.18,0.43036 -0.4,0.4283 -0.22,-0.002 -3.26772,-0.86605 -6.77272,-1.92 -3.50499,-1.05394 -6.49299,-1.91626 -6.64,-1.91626 -0.147,0 -0.26728,5.4 -0.26728,12 v 12 h -2.24 c -1.28,0 -2.24,-0.13714 -2.24,-0.32 z m -82.87851,-1.01333 c 0.002,-0.60819 9.35648,-15.3927 9.83851,-15.54971 0.92502,-0.30131 0.15534,1.16869 -4.32,8.25066 -4.34811,6.88065 -5.52247,8.4339 -5.51851,7.29905 z m 60.15851,-0.10057 c 0,-0.54311 1.37234,-0.98457 1.95029,-0.62738 0.28143,0.17393 0.22619,0.35632 -0.20298,0.67013 -0.78288,0.57246 -1.74731,0.54886 -1.74731,-0.0428 z m -0.47008,-3.35004 c -0.30482,-0.49321 1.10576,-1.10838 1.54176,-0.67238 0.27063,0.27063 0.24153,0.43975 -0.11436,0.66475 -0.61504,0.38884 -1.1899,0.39191 -1.4274,0.008 z M 71.544945,223.5676 c -2.21869,-1.00669 -3.29582,-3.31938 -2.90246,-6.23189 0.21902,-1.62171 0.86019,-2.6846 2.24157,-3.71595 1.23711,-0.92363 4.26715,-0.9242 5.53329,-0.001 1.21841,0.88836 2.34347,3.18377 2.34347,4.78126 0,1.57414 -1.12034,3.88977 -2.29617,4.74595 -1.08344,0.78892 -3.62936,1.00712 -4.9197,0.42166 z m 3.51489,-1.15963 c 2.80798,-1.0676 2.76465,-6.95739 -0.0592,-8.04182 -1.36341,-0.52359 -3.00221,-0.11888 -3.99986,0.98778 -0.77205,0.85642 -0.88,1.2346 -0.88,3.08311 0,1.96947 0.071,2.17794 1.088,3.19495 1.15135,1.15134 2.27057,1.37687 3.85103,0.77598 z m 447.699565,-0.0102 c -0.24297,-0.39313 0.63771,-0.77668 1.11129,-0.48398 0.1873,0.11575 0.2577,0.34451 0.15644,0.50835 -0.24423,0.39519 -1.01762,0.38032 -1.26773,-0.0244 z m -29.5986,-5.91774 c 0,-5.05645 0.0269,-5.28 0.6363,-5.28 0.45931,0 1.39395,1.1344 3.36,4.0781 l 2.7237,4.0781 v -4.0781 -4.0781 h 0.8 0.8 v 5.28 5.28 h -0.79272 c -0.66353,0 -1.22417,-0.66408 -3.44,-4.0747 l -2.64728,-4.07469 -0.0896,4.07469 c -0.0838,3.81046 -0.13044,4.0747 -0.72,4.0747 -0.60178,0 -0.63044,-0.24002 -0.63044,-5.28 z m -9.92,0.22488 c -3.96,-0.2452 -7.31495,-0.55426 -7.45545,-0.6868 -0.1405,-0.13254 -2.47234,-5.30337 -5.18187,-11.49074 -2.70952,-6.18737 -4.99573,-11.36193 -5.08045,-11.49901 -0.0847,-0.13709 -3.84161,0.0987 -8.34863,0.52405 -4.50702,0.42532 -8.28827,0.67962 -8.40276,0.56513 -0.1145,-0.1145 -0.0702,-0.34615 0.0984,-0.51479 0.40006,-0.40006 17.20375,-2.05713 17.32901,-1.70888 0.0527,0.14639 2.36755,5.45016 5.14422,11.78616 l 5.0485,11.52 7.1591,0.48 c 4.75937,0.31911 7.20008,0.60425 7.28138,0.85068 0.0673,0.20387 0.007,0.42677 -0.1346,0.49535 -0.14129,0.0686 -3.49689,-0.0759 -7.45689,-0.32115 z m -307.62962,-7.39573 c -2.2277,-4.06488 -4.05037,-7.61834 -4.05037,-7.89659 0,-1.2929 1.06661,0.28305 4.70894,6.9576 l 3.93142,7.20433 12.07982,-2.3685 c 6.6439,-1.30267 12.16369,-2.46693 12.2662,-2.58724 0.10251,-0.12031 0.87389,-5.76275 1.71416,-12.53875 0.84028,-6.776 1.654,-12.4544 1.80828,-12.61866 0.15428,-0.16427 0.38565,-0.19352 0.51417,-0.065 0.23349,0.23349 -2.77851,25.61897 -3.09543,26.08863 -0.0922,0.13658 -5.56756,1.29149 -12.16756,2.56646 -6.6,1.27498 -12.37333,2.39246 -12.82963,2.48329 -0.7911,0.15747 -1.01767,-0.17799 -4.88,-7.22556 z m -154.846564,-7.74246 -0.0838,-12.19327 -8.778432,-3.42202 c -7.7949502,-3.03865 -10.1434272,-4.19144 -8.5388302,-4.19144 0.27284,0 4.06484,1.38498 8.4266672,3.07774 4.361827,1.69275 8.182595,3.14955 8.490595,3.23732 0.52642,0.15002 0.56,-0.5814 0.56,-12.19773 v -12.35733 h 2.399999 c 1.386667,0 2.4,0.13511 2.4,0.32 0,0.176 -0.793691,0.32 -1.763757,0.32 H 22.1133 l 0.08376,12.34226 0.08376,12.34227 2.053689,0.85773 c 1.129529,0.47176 2.113529,1.03774 2.186667,1.25774 0.173923,0.52317 -0.53991,0.50736 -1.881276,-0.0417 -0.593494,-0.24292 -1.40308,-0.54063 -1.79908,-0.66157 l -0.72,-0.2199 v 11.54157 11.54156 h 1.76 c 0.968,0 1.76,0.144 1.76,0.32 0,0.18485 -1.012065,0.32 -2.396197,0.32 h -2.396198 z m 50.071239,0.80813 c 0.0653,-7.07636 0.17849,-9.23293 0.48991,-9.33664 0.32164,-0.10711 0.38748,1.75825 0.32,9.06693 -0.0653,7.07636 -0.17849,9.23292 -0.48991,9.33663 -0.32164,0.10711 -0.38747,-1.75825 -0.32,-9.06692 z m 5.44,0 c 0.0653,-7.07636 0.17849,-9.23293 0.48991,-9.33664 0.32164,-0.10711 0.38748,1.75825 0.32,9.06693 -0.0653,7.07636 -0.17849,9.23292 -0.48991,9.33663 -0.32164,0.10711 -0.38747,-1.75825 -0.32,-9.06692 z m 459.604885,0.74514 c -0.077,-0.22 -1.01512,-3.91414 -2.08475,-8.2092 -1.29442,-5.19765 -1.83795,-7.91604 -1.62531,-8.12868 0.21264,-0.21264 0.42991,-0.0624 0.64968,0.4492 0.4613,1.07385 3.86044,14.8432 3.86044,15.63799 0,0.71157 -0.57567,0.89195 -0.80006,0.25069 z m 5.30063,-1.55132 c -0.46995,-1.09446 -3.54057,-13.56892 -3.54057,-14.38365 0,-0.38689 0.16565,-0.62314 0.38553,-0.54985 0.55162,0.18387 4.20944,14.97785 3.80363,15.38366 -0.21136,0.21136 -0.42957,0.0599 -0.64859,-0.45016 z M 427.5608,195.03999 c 0,-5.05645 0.0269,-5.28 0.63631,-5.28 0.4593,0 1.39395,1.1344 3.36,4.0781 l 2.72369,4.0781 v -4.0781 -4.0781 h 0.8 0.8 v 5.28 5.28 h -0.79272 c -0.66353,0 -1.22417,-0.66408 -3.44,-4.0747 l -2.64728,-4.07469 -0.0896,4.07469 c -0.0838,3.81047 -0.13044,4.0747 -0.72,4.0747 -0.60178,0 -0.63044,-0.24002 -0.63044,-5.28 z m 10.56,0 c 0,-5.06666 0.0259,-5.28 0.64,-5.28 0.57436,0 0.64,0.21334 0.64,2.08 v 2.08 h 2.72 2.72 v -2.08 c 0,-2.00533 0.0287,-2.08 0.8,-2.08 h 0.8 v 5.28 5.28 h -0.8 c -0.78667,0 -0.8,-0.0427 -0.8,-2.56 v -2.56 h -2.72 -2.72 v 2.56 c 0,2.34667 -0.0533,2.56 -0.64,2.56 -0.61414,0 -0.64,-0.21333 -0.64,-5.28 z m -274.55999,-1.6 c 0,-5.05644 0.0269,-5.28 0.6363,-5.28 0.45931,0 1.39395,1.1344 3.36,4.0781 l 2.7237,4.0781 v -4.0781 -4.0781 h 0.8 0.8 v 5.28 5.28 h -0.79273 c -0.66352,0 -1.22417,-0.66408 -3.44,-4.07469 l -2.64727,-4.0747 -0.0896,4.0747 c -0.0838,3.81046 -0.13045,4.07469 -0.72,4.07469 -0.60178,0 -0.63044,-0.24002 -0.63044,-5.28 z m -134.719997,-0.32 c 0,-5.05644 0.02694,-5.28 0.636306,-5.28 0.459306,0 1.393949,1.1344 3.36,4.0781 l 2.723694,4.0781 v -4.0781 -4.0781 h 0.8 0.8 v 5.28 5.28 H 36.36809 c -0.663527,0 -1.224168,-0.66408 -3.44,-4.07469 l -2.647277,-4.0747 -0.08956,4.0747 c -0.08375,3.81046 -0.130444,4.07469 -0.72,4.07469 -0.60178,0 -0.63044,-0.24002 -0.63044,-5.28 z m 10.56,0 c 0,-5.06666 0.02586,-5.28 0.64,-5.28 0.574359,0 0.64,0.21334 0.64,2.08 v 2.08 h 2.72 2.72 v -2.08 c 0,-2.00533 0.02872,-2.08 0.8,-2.08 h 0.8 v 5.28 5.28 h -0.8 c -0.786667,0 -0.8,-0.0427 -0.8,-2.56 v -2.56 h -2.72 -2.72 v 2.56 c 0,2.34667 -0.05333,2.56 -0.64,2.56 -0.614141,0 -0.64,-0.21333 -0.64,-5.28 z m 71.679997,-0.49862 c -4.39069,-3.35671 -5.84041,-4.78138 -4.86544,-4.78138 0.16582,0 2.49843,1.66006 5.18359,3.68901 l 4.8821,3.68901 5.47987,-3.58811 c 3.01393,-1.97346 7.84133,-5.16195 10.72754,-7.08554 l 5.24767,-3.49744 1.08319,0.51654 c 0.59575,0.28409 1.14813,0.51653 1.2275,0.51653 0.0794,0 0.18249,-4.20005 0.22914,-9.33345 0.0647,-7.12103 0.17965,-9.36504 0.48484,-9.46667 0.50916,-0.16956 0.58897,18.16315 0.0813,18.67084 -0.21163,0.21163 3.09474,1.69735 9.84,4.42163 5.58729,2.2566 10.29552,4.22997 10.46272,4.38528 0.192,0.17834 0.192,0.38791 0,0.56883 -0.18264,0.1721 -4.83934,-1.55797 -11.664,-4.33344 -6.248,-2.54095 -11.58155,-4.5633 -11.85234,-4.49411 -0.27078,0.0692 -5.07074,3.18034 -10.66658,6.91368 -5.59584,3.73335 -10.34229,6.83579 -10.54767,6.89432 -0.20538,0.0585 -2.60541,-1.59996 -5.33341,-3.68553 z m 274.38413,2.14623 c -2.2187,-1.00669 -3.29582,-3.31938 -2.90247,-6.23189 0.21903,-1.6217 0.8602,-2.6846 2.24157,-3.71594 1.23711,-0.92364 4.26715,-0.92421 5.5333,-0.001 1.2184,0.88836 2.34346,3.18377 2.34346,4.78126 0,1.57414 -1.12034,3.88977 -2.29616,4.74595 -1.08345,0.78892 -3.62936,1.00712 -4.9197,0.42166 z m 3.51488,-1.15963 c 2.80799,-1.0676 2.76465,-6.95739 -0.0592,-8.04182 -1.36341,-0.52359 -3.00221,-0.11888 -3.99985,0.98778 -0.77206,0.85642 -0.88,1.2346 -0.88,3.08311 0,1.96948 0.071,2.17794 1.088,3.19495 1.15134,1.15135 2.27057,1.37687 3.85102,0.77598 z M 73.309385,193.48271 c -1.2917,-1.20545 -19.984287,-13.65144 -20.313379,-13.52515 -0.210052,0.0806 -2.278614,1.52712 -4.596807,3.21449 -2.318192,1.68737 -4.35518,3.06794 -4.52664,3.06794 -1.04619,0 0.240855,-1.24028 4.328254,-4.17099 l 4.64,-3.32692 -0.0049,-1.61105 c -0.0027,-0.88607 -0.288493,-6.21904 -0.635071,-11.85104 -0.346578,-5.632 -0.632361,-10.636 -0.635071,-11.12 -0.0048,-0.85278 0.04893,-0.88 1.736185,-0.88 0.957613,0 1.821813,0.13058 1.920443,0.29016 0.09863,0.15959 -0.265838,5.85862 -0.80993,12.66452 -0.544093,6.8059 -0.940292,12.41869 -0.880443,12.47287 0.762768,0.69053 20.491769,13.93245 20.757819,13.93245 0.20117,0 3.68241,-1.87001 7.7361,-4.15557 6.63465,-3.74078 8.18245,-4.42711 7.86998,-3.48968 -0.11814,0.35441 -15.25687,8.92525 -15.76473,8.92525 -0.19426,0 -0.56407,-0.19677 -0.82178,-0.43728 z m 321.366265,-3.16272 c 0.17869,-0.55758 17.51838,-7.99107 18.11041,-7.76389 0.31623,0.12136 0.37348,0.29316 0.16661,0.50003 -0.44163,0.44162 -17.33051,7.66386 -17.92161,7.66386 -0.26597,0 -0.42591,-0.18 -0.35541,-0.4 z m 23.28515,-4.60108 c -3.608,-2.72652 -6.66462,-5.0605 -6.7925,-5.18661 -0.12787,-0.12612 0.48724,-5.91348 1.36693,-12.86081 l 1.59942,-12.6315 -5.77806,-5.6 c -3.17793,-3.08 -5.77304,-5.71855 -5.76692,-5.86346 0.0297,-0.70262 1.35765,0.35665 6.54839,5.22346 3.09729,2.904 5.75029,5.28 5.89555,5.28 0.14526,0 4.89103,-2.952 10.54615,-6.56 7.85736,-5.01303 10.28299,-6.71092 10.28605,-7.2 0.005,-0.74177 -4.01938,-22.22881 -4.19062,-22.37661 -0.0629,-0.0543 -5.37039,-0.77523 -11.79439,-1.60204 -6.424,-0.82681 -11.87952,-1.52986 -12.12339,-1.56232 -0.28502,-0.0379 -1.71378,2.61794 -4,7.43545 -3.2083,6.76053 -4.35661,8.67969 -4.35661,7.28119 0,-0.49667 6.885,-15.22641 7.32218,-15.66502 0.27513,-0.27604 25.32977,2.9106 25.72648,3.27209 0.13677,0.12463 1.31677,5.91854 2.62222,12.87537 1.30546,6.95682 2.46284,13.0045 2.57196,13.43928 0.19192,0.76467 -0.17181,0.96113 -11.13036,6.01168 l -11.32876,5.22118 -1.49674,12.03488 c -0.82321,6.61918 -1.49455,12.34306 -1.49186,12.71974 0.004,0.51562 1.62598,1.898 6.56488,5.59399 5.9158,4.42704 7.36196,5.76503 6.16,5.69925 -0.22,-0.012 -3.352,-2.25267 -6.96,-4.97919 z m -243.83999,0.85967 c 0,-0.16578 2.35112,-2.82658 5.22472,-5.91289 l 5.22473,-5.61147 -2.01493,-11.28711 c -1.10822,-6.20791 -2.01934,-11.43981 -2.02473,-11.62644 -0.0126,-0.43496 8.13468,-7.82068 8.62704,-7.82068 0.84282,0 -0.0396,1.04771 -3.72808,4.42637 -2.735,2.50526 -3.85191,3.73216 -3.75885,4.12901 0.0728,0.31054 1.00018,5.49879 2.06079,11.52943 l 1.9284,10.9648 -5.35652,5.7552 c -4.82405,5.18309 -6.18257,6.38147 -6.18257,5.45378 z m 31.36,0.18123 c 0,-0.0661 0.36152,-0.93766 0.80339,-1.93679 0.73428,-1.66035 1.43661,-2.12546 1.43661,-0.95139 0,0.83473 -1.27635,3.00836 -1.76651,3.00836 -0.26042,0 -0.47349,-0.0541 -0.47349,-0.12018 z M 92.200815,180.31999 c 0,-5.05644 0.0269,-5.28 0.6363,-5.28 0.45931,0 1.39395,1.1344 3.36,4.0781 l 2.7237,4.0781 v -4.0781 -4.0781 h 0.8 0.799995 v 5.28 5.28 h -0.792725 c -0.66352,0 -1.22416,-0.66408 -3.44,-4.07469 l -2.64727,-4.0747 -0.0896,4.0747 c -0.0838,3.81046 -0.13045,4.07469 -0.72,4.07469 -0.60178,0 -0.63044,-0.24002 -0.63044,-5.28 z m 10.559995,0 c 0,-5.06666 0.0259,-5.28 0.64,-5.28 0.57436,0 0.64,0.21334 0.64,2.08 v 2.08 h 2.72 2.72 v -2.08 c 0,-2.00533 0.0287,-2.08 0.8,-2.08 h 0.8 v 5.28 5.28 h -0.8 c -0.78667,0 -0.8,-0.0427 -0.8,-2.56 v -2.56 h -2.72 -2.72 v 2.56 c 0,2.34667 -0.0533,2.56 -0.64,2.56 -0.61414,0 -0.64,-0.21333 -0.64,-5.28 z m 99.84,4.46725 c 0,-0.27101 0.29966,-1.08014 0.66592,-1.79807 0.49098,-0.9624 0.75996,-1.21129 1.02384,-0.94741 0.26389,0.26389 0.1741,0.73626 -0.34176,1.79807 -0.69535,1.43123 -1.348,1.88994 -1.348,0.94741 z m 192.14683,-0.16854 c -0.11601,-0.18771 -0.14438,-0.40783 -0.0631,-0.48916 0.0813,-0.0813 3.65275,-1.65555 7.93649,-3.49827 5.09694,-2.19253 7.8972,-3.2418 8.10283,-3.03617 0.17282,0.17283 0.2357,0.39275 0.13973,0.48873 -0.15223,0.15222 -15.63122,6.87616 -15.82943,6.87616 -0.0416,0 -0.17056,-0.15358 -0.28657,-0.34129 z m 135.99729,-0.4111 c -2.21869,-1.00668 -3.29581,-3.31938 -2.90246,-6.23189 0.21902,-1.6217 0.86019,-2.6846 2.24157,-3.71594 1.23711,-0.92364 4.26715,-0.92421 5.53329,-0.001 1.21841,0.88836 2.34347,3.18377 2.34347,4.78126 0,1.57414 -1.12034,3.88977 -2.29616,4.74595 -1.08345,0.78892 -3.62937,1.00712 -4.91971,0.42166 z m 3.51489,-1.15963 c 2.80799,-1.0676 2.76465,-6.95739 -0.0592,-8.04182 -1.36341,-0.52359 -3.00221,-0.11888 -3.99985,0.98778 -0.77206,0.85642 -0.88,1.2346 -0.88,3.08311 0,1.96948 0.071,2.17794 1.088,3.19495 1.15134,1.15135 2.27056,1.37687 3.85102,0.77598 z m -334.7225,-0.20626 c 0.33595,-1.36511 1.14188,-2.49132 1.51548,-2.11773 0.38434,0.38435 -0.6456,2.6827 -1.29716,2.89464 -0.34315,0.11163 -0.39318,-0.0664 -0.21832,-0.77691 z m -64.70139,-10.06688 c 0.0653,-7.20452 0.17817,-9.39282 0.48976,-9.49659 0.32162,-0.10711 0.38742,1.79016 0.32,9.22692 -0.0653,7.20452 -0.17818,9.39282 -0.48976,9.49658 -0.32163,0.10711 -0.38743,-1.79015 -0.32,-9.22691 z m 61.56279,9.04651 c -0.26066,-0.42176 0.62983,-2.30135 1.0903,-2.30135 0.51714,0 0.35097,1.16071 -0.27722,1.9365 -0.39225,0.48441 -0.66386,0.60629 -0.81308,0.36485 z m -3.07791,-2.11517 c 0,-0.80424 0.37663,-1.46618 0.83423,-1.46618 0.52954,0 0.56926,0.45132 0.11451,1.30104 -0.38678,0.7227 -0.94874,0.82051 -0.94874,0.16514 z m -3.2,-1.44 c 0,-0.65648 0.41495,-1.30618 0.83423,-1.30618 0.48394,0 0.55414,0.30525 0.25153,1.09383 -0.20615,0.53721 -1.08576,0.70924 -1.08576,0.21235 z m -3.05724,-1.65406 c -0.2746,-0.44431 0.33407,-1.07073 0.77538,-0.79799 0.3675,0.22713 0.13219,1.14587 -0.2935,1.14587 -0.14678,0 -0.36362,-0.15654 -0.48188,-0.34788 z m 45.44137,-5.84451 c -2.2187,-1.00668 -3.29582,-3.31938 -2.90246,-6.23189 0.21902,-1.6217 0.86019,-2.6846 2.24156,-3.71594 1.23711,-0.92364 4.26716,-0.92421 5.5333,-0.001 1.2184,0.88836 2.34346,3.18377 2.34346,4.78126 0,1.57414 -1.12034,3.88978 -2.29616,4.74595 -1.08345,0.78892 -3.62936,1.00712 -4.9197,0.42166 z m 3.51489,-1.15963 c 2.80798,-1.06759 2.76465,-6.95739 -0.0592,-8.04182 -1.36341,-0.52359 -3.00221,-0.11888 -3.99985,0.98778 -0.77206,0.85643 -0.88,1.2346 -0.88,3.08311 0,1.96948 0.071,2.17794 1.08799,3.19495 1.15135,1.15135 2.27057,1.37687 3.85103,0.77598 z m 128.32511,-1.08037 c -2.2187,-1.00668 -3.29582,-3.31938 -2.90247,-6.23189 0.21903,-1.6217 0.8602,-2.6846 2.24157,-3.71594 1.23711,-0.92364 4.26715,-0.92421 5.5333,-0.001 1.2184,0.88836 2.34346,3.18377 2.34346,4.78126 0,1.57414 -1.12034,3.88978 -2.29616,4.74595 -1.08345,0.78892 -3.62936,1.00712 -4.9197,0.42166 z m 3.51488,-1.15963 c 2.80799,-1.06759 2.76465,-6.95739 -0.0592,-8.04182 -1.36341,-0.52359 -3.0022,-0.11888 -3.99985,0.98778 -0.77206,0.85643 -0.88,1.2346 -0.88,3.08311 0,1.96948 0.071,2.17795 1.088,3.19495 1.15135,1.15135 2.27057,1.37687 3.85102,0.77598 z M 135.54494,160.8476 c -2.21869,-1.00668 -3.29582,-3.31938 -2.90246,-6.23188 0.21902,-1.62171 0.86019,-2.68461 2.24157,-3.71595 1.23711,-0.92364 4.26715,-0.92421 5.53329,-10e-4 1.21841,0.88836 2.34347,3.18377 2.34347,4.78126 0,1.57414 -1.12034,3.88978 -2.29617,4.74595 -1.08344,0.78892 -3.62936,1.00712 -4.9197,0.42166 z m 3.51489,-1.15963 c 2.80798,-1.06759 2.76465,-6.95739 -0.0592,-8.04182 -1.36341,-0.52359 -3.00221,-0.11888 -3.99985,0.98778 -0.77206,0.85643 -0.88,1.2346 -0.88,3.08311 0,1.96948 0.071,2.17795 1.088,3.19495 1.15134,1.15135 2.27056,1.37687 3.85102,0.77598 z m 93.298,-2.14131 c -0.004,-1.54535 1.27365,-18.2556 1.46976,-19.22667 0.08,-0.396 0.35967,-0.72 0.62155,-0.72 0.39407,0 0.44196,0.37229 0.27786,2.16 -0.10905,1.188 -0.50606,5.89254 -0.88223,10.45453 -0.48198,5.84499 -0.80209,8.33355 -1.08397,8.42667 -0.2731,0.0902 -0.40094,-0.257 -0.40297,-1.09453 z m 5.45875,-0.32 c 0.0292,-2.86338 1.43333,-18.94243 1.6753,-19.18441 0.73035,-0.73035 0.73912,1.12734 0.0455,9.63774 -0.93195,11.43434 -0.85508,10.80389 -1.33657,10.96199 -0.28428,0.0934 -0.39543,-0.31608 -0.38422,-1.41532 z m 125.5689,-1.15121 c -0.31018,-0.80832 0.01,-17.836 0.33532,-17.83597 0.20386,1e-5 0.35082,3.31006 0.40491,9.12027 0.0576,6.19229 -0.0226,9.12024 -0.25004,9.12024 -0.18423,0 -0.40481,-0.18204 -0.49019,-0.40454 z m 5.50866,0.19121 c -0.11734,-0.11733 -0.21334,-4.09368 -0.21334,-8.83632 v -8.62298 l -1.02056,0.14978 c -0.87377,0.12824 -2.51162,-0.7208 -11.38659,-5.90265 -5.70131,-3.32884 -10.68507,-6.19781 -11.07501,-6.37548 -0.60092,-0.2738 -1.34435,0.0462 -4.87703,2.09897 -4.0694,2.36469 -4.92081,2.73216 -4.92081,2.12381 0,-0.40017 1.08733,-1.12371 5.35747,-3.56504 2.69681,-1.54183 3.59767,-2.21699 3.59826,-2.69675 4.4e-4,-0.352 -0.35764,-5.752 -0.79573,-12 -0.94534,-13.482516 -0.92173,-12.48 -0.29388,-12.48 0.27837,0 5.53032,-2.844006 11.67101,-6.320006 l 11.16488,-6.32 0.009,-12.48636 0.009,-12.48636 -7.36,-4.27955 c -4.048,-2.35375 -7.36,-4.39439 -7.36,-4.53475 0,-0.82475 1.34773,-0.19822 8.15868,3.79279 l 7.55008,4.42413 -0.0101,13.07415 c -0.006,7.19079 -0.0481,13.10315 -0.0944,13.13859 -0.0463,0.0354 -4.7265,2.6939 -10.40038,5.90769 -5.67388,3.21378 -10.24358,5.960666 -10.15488,6.104186 0.0887,0.14351 -0.20103,5.34563 -0.64385,11.56026 -0.44281,6.21463 -0.80509,11.80465 -0.80505,12.42227 l 6e-5,1.12296 10.89358,6.3659 10.89358,6.36591 11.25493,-0.52133 c 10.53915,-0.48817 12.41224,-0.43828 11.66328,0.31068 -0.17906,0.17907 -15.17535,1.02641 -18.8655,1.06597 l -1.2,0.0129 v 8.8 c 0,4.84 -0.12,8.8 -0.26666,8.8 -0.14667,0 -0.36267,-0.096 -0.48,-0.21333 z m -196.02753,-4.35937 c -6.1314,-2.64114 -8.09065,-3.7473 -6.63729,-3.7473 0.52594,0 13.24377,5.35638 13.88796,5.84921 0.38631,0.29553 0.26704,0.88091 -0.17536,0.86068 -0.12161,-0.006 -3.3055,-1.33873 -7.07531,-2.96259 z m 0.94196,-5.53287 c -4.30773,-1.85473 -7.89813,-3.43813 -7.97867,-3.51866 -0.0805,-0.0805 -4e-5,-0.29282 0.17887,-0.47173 0.22041,-0.22041 2.93173,0.79112 8.40802,3.13681 7.39186,3.16619 8.82387,3.94442 7.64092,4.15248 -0.2293,0.0403 -3.94141,-1.44417 -8.24914,-3.2989 z m -17.14363,1.03318 c -2.21869,-1.00668 -3.29582,-3.31937 -2.90246,-6.23188 0.21902,-1.62171 0.86019,-2.68461 2.24156,-3.71595 1.23712,-0.92364 4.26716,-0.92421 5.5333,-0.001 1.21841,0.88836 2.34347,3.18377 2.34347,4.78126 0,1.57414 -1.12034,3.88978 -2.29617,4.74595 -1.08344,0.78892 -3.62936,1.00712 -4.9197,0.42166 z m 3.51489,-1.15963 c 2.80798,-1.06759 2.76465,-6.95739 -0.0592,-8.04182 -1.36341,-0.52359 -3.00221,-0.11888 -3.99985,0.98778 -0.77206,0.85643 -0.88,1.2346 -0.88,3.08311 0,1.96948 0.071,2.17795 1.088,3.19495 1.15134,1.15135 2.27056,1.37687 3.85102,0.77598 z m 31.54098,-8.16798 c 0,-5.05644 0.0269,-5.28 0.6363,-5.28 0.45931,0 1.39395,1.1344 3.36,4.0781 l 2.7237,4.0781 v -4.0781 -4.0781 h 0.8 0.8 v 5.28 5.28 h -0.79273 c -0.66352,0 -1.22417,-0.66408 -3.44,-4.07469 l -2.64727,-4.0747 -0.0896,4.0747 c -0.0838,3.81046 -0.13045,4.07469 -0.72,4.07469 -0.60178,0 -0.63044,-0.24002 -0.63044,-5.28 z m 10.56,0 c 0,-5.06666 0.0258,-5.28 0.64,-5.28 0.57435,0 0.64,0.21334 0.64,2.08 v 2.08 h 2.72 2.72 v -2.08 c 0,-2.00533 0.0287,-2.08 0.8,-2.08 h 0.8 v 5.28 5.28 h -0.8 c -0.78667,0 -0.8,-0.0427 -0.8,-2.56 v -2.56 h -2.72 -2.72 v 2.56 c 0,2.34667 -0.0533,2.56 -0.64,2.56 -0.61415,0 -0.64,-0.21333 -0.64,-5.28 z m 116.15999,0 c 0,-5.05644 0.0269,-5.28 0.63631,-5.28 0.4593,0 1.39395,1.1344 3.36,4.0781 l 2.72369,4.0781 v -4.0781 -4.0781 h 0.8 0.8 v 5.28 5.28 h -0.79272 c -0.66353,0 -1.22417,-0.66408 -3.44,-4.07469 l -2.64728,-4.0747 -0.0896,4.0747 c -0.0838,3.81046 -0.13044,4.07469 -0.72,4.07469 -0.60178,0 -0.63044,-0.24002 -0.63044,-5.28 z m 10.56,0 c 0,-5.06666 0.0259,-5.28 0.64,-5.28 0.57436,0 0.64,0.21334 0.64,2.08 v 2.08 h 2.72 2.72 v -2.08 c 0,-2.00533 0.0287,-2.08 0.8,-2.08 h 0.8 v 5.28 5.28 h -0.8 c -0.78666,0 -0.8,-0.0427 -0.8,-2.56 v -2.56 h -2.72 -2.72 v 2.56 c 0,2.34667 -0.0533,2.56 -0.64,2.56 -0.61414,0 -0.64,-0.21333 -0.64,-5.28 z m 63.04,-1.28 c 0,-5.05644 0.0269,-5.27999 0.63631,-5.27999 0.4593,0 1.39395,1.13439 3.36,4.07809 l 2.72369,4.0781 v -4.0781 -4.07809 h 0.8 0.8 v 5.27999 5.28 h -0.79272 c -0.66353,0 -1.22417,-0.66408 -3.44,-4.07469 l -2.64728,-4.0747 -0.0896,4.0747 c -0.0838,3.81046 -0.13044,4.07469 -0.72,4.07469 -0.60178,0 -0.63044,-0.24002 -0.63044,-5.28 z m -117.76,0.32573 c -4.37695,-3.22671 -5.86218,-4.64573 -4.86252,-4.64573 0.16742,0 2.30197,1.48174 4.74346,3.29275 2.44148,1.81101 4.60857,3.39702 4.81575,3.52448 0.22333,0.13738 4.68025,-2.6991 10.94709,-6.96697 l 10.5704,-7.19869 7.85291,4.54517 c 6.81726,3.94574 8.80872,5.36326 7.53478,5.36326 -0.17497,0 -3.69905,-1.95487 -7.83127,-4.34417 l -7.51314,-4.34418 -6.96873,4.72564 c -3.8328,2.5991 -8.59655,5.84998 -10.58612,7.22418 -1.98956,1.37419 -3.64556,2.49454 -3.68,2.48967 -0.0344,-0.005 -2.29461,-1.65431 -5.02261,-3.66541 z m -47.8255,-5.63811 c -5.62403,-3.85419 -10.3264,-7.00761 -10.44971,-7.00761 -0.12331,0 -2.26746,1.512 -4.76478,3.36 -2.49733,1.848 -4.66246,3.36 -4.81141,3.36 -1.06921,0 -0.004,-1.04742 4.24952,-4.18038 2.68504,-1.97746 4.93322,-3.63717 4.99595,-3.68824 0.0627,-0.0511 -0.26321,-5.60952 -0.72434,-12.35212 -0.46112,-6.74259 -0.83645,-12.439266 -0.83407,-12.659266 0.002,-0.22 0.32835,-0.40575 0.72435,-0.41278 0.396,-0.007 5.688,-2.92303 11.76,-6.48 l 11.03999,-6.46722 0.0624,-12.78546 0.0624,-12.78546 7.75528,-4.3978 c 7.11197,-4.033 8.28,-4.57072 8.28,-3.81174 0,0.14397 -3.38164,2.18747 -7.51476,4.54111 l -7.51476,4.27935 -0.0852,12.8 -0.0852,12.8 -10.47099,6.11567 c -5.75905,3.36362 -10.39839,6.18828 -10.30965,6.27702 0.0887,0.0887 -0.20331,5.316956 -0.649,11.618266 -0.4457,6.3013 -0.80931,11.97265 -0.80804,12.60298 0.002,1.14528 0.009,1.15088 10.30824,8.1594 5.66826,3.85733 10.45522,7.00629 10.63769,6.99769 0.18246,-0.009 3.59232,-1.90461 7.57745,-4.21333 3.98513,-2.30873 7.40513,-4.19769 7.6,-4.19769 0.19487,0 0.35215,0.18 0.34952,0.4 -0.005,0.44986 -15.03983,9.21808 -15.71927,9.16761 -0.23977,-0.0178 -5.03742,-3.18581 -10.66145,-7.04 z M 255.0808,124.96 c 0,-5.05645 0.0269,-5.28 0.63631,-5.28 0.45931,0 1.39395,1.13439 3.36,4.07809 l 2.72369,4.0781 v -4.0781 -4.07809 h 0.8 0.8 v 5.28 5.28 h -0.79272 c -0.66353,0 -1.22417,-0.66409 -3.44,-4.0747 l -2.64728,-4.0747 -0.0896,4.0747 c -0.0838,3.81046 -0.13044,4.0747 -0.72,4.0747 -0.60178,0 -0.63044,-0.24003 -0.63044,-5.28 z m 10.56,0 c 0,-5.06667 0.0259,-5.28 0.64,-5.28 0.57436,0 0.64,0.21333 0.64,2.08 v 2.08 h 2.72 2.72 v -2.08 c 0,-2.00534 0.0287,-2.08 0.8,-2.08 h 0.8 v 5.28 5.28 h -0.8 c -0.78666,0 -0.8,-0.0427 -0.8,-2.56 v -2.56 h -2.72 -2.72 v 2.56 c 0,2.34666 -0.0533,2.56 -0.64,2.56 -0.61414,0 -0.64,-0.21334 -0.64,-5.28 z m 31.83498,0.74229 c -0.091,-0.23701 -0.12703,-4.46099 -0.0802,-9.38661 0.0733,-7.70941 0.15199,-8.95568 0.56519,-8.95568 0.4156,0 0.48,1.24148 0.48,9.25333 0,7.11614 -0.0923,9.28411 -0.39983,9.38661 -0.21991,0.0733 -0.47424,-0.0606 -0.56519,-0.29765 z m 5.44,0 c -0.091,-0.23701 -0.12703,-4.46099 -0.0802,-9.38661 0.0733,-7.70941 0.15199,-8.95568 0.56519,-8.95568 0.4156,0 0.48,1.24148 0.48,9.25333 0,7.11614 -0.0923,9.28411 -0.39983,9.38661 -0.21991,0.0733 -0.47424,-0.0606 -0.56519,-0.29765 z m 131.04745,-10.65937 c -0.2275,-0.27411 -0.3142,-0.59782 -0.19268,-0.71934 0.27103,-0.27103 1.19994,0.27782 1.19896,0.70842 -0.001,0.5292 -0.57102,0.53538 -1.00628,0.0109 z m 2.30157,-2.46692 c -0.39225,-0.39225 -0.52974,-1.216 -0.20296,-1.216 0.51372,0 1.41896,0.7217 1.41896,1.13125 0,0.56654 -0.68637,0.61437 -1.216,0.0847 z m 2.416,-2.65077 c -0.94439,-0.83121 -1.13977,-1.44523 -0.45987,-1.44523 0.55084,0 2.21279,1.74041 1.93102,2.02218 -0.33342,0.33342 -0.51993,0.26028 -1.47115,-0.57695 z m 2.15471,-2.77281 c -0.76901,-0.67519 -1.04145,-1.11368 -0.8259,-1.32924 0.39776,-0.39775 2.59119,1.18782 2.59119,1.8731 0,0.71481 -0.51109,0.55735 -1.76529,-0.54386 z m 2.32528,-2.60444 c -1.19916,-1.02724 -1.55463,-1.83566 -0.79999,-1.81933 0.49068,0.0106 2.8,2.11842 2.8,2.55565 0,0.58846 -0.79536,0.29564 -2.00001,-0.73632 z m -145.05585,0.29962 c -2.2187,-1.00668 -3.29582,-3.31937 -2.90246,-6.231886 0.21902,-1.6217 0.86019,-2.6846 2.24156,-3.71594 1.23711,-0.92364 4.26716,-0.92421 5.5333,-10e-4 1.2184,0.88836 2.34346,3.18377 2.34346,4.78126 0,1.574136 -1.12034,3.889776 -2.29616,4.745956 -1.08345,0.78891 -3.62936,1.00711 -4.9197,0.42165 z m 3.51488,-1.15963 c 2.80799,-1.06759 2.76466,-6.957386 -0.0592,-8.041816 -1.36342,-0.52359 -3.00221,-0.11888 -3.99986,0.98778 -0.77206,0.85642 -0.88,1.2346 -0.88,3.08311 0,1.969476 0.071,2.177946 1.088,3.194956 1.15135,1.15134 2.27057,1.37686 3.85102,0.77597 z m 147.20512,-3.64037 c -2.2187,-1.006686 -3.29582,-3.319376 -2.90247,-6.231886 0.21903,-1.6217 0.86019,-2.6846 2.24157,-3.71594 1.23711,-0.92364 4.26715,-0.92421 5.53329,-10e-4 1.21841,0.88836 2.34347,3.18377 2.34347,4.78126 0,1.57414 -1.12034,3.88977 -2.29616,4.74595 -1.08345,0.788916 -3.62936,1.007116 -4.9197,0.421656 z m 3.51488,-1.159626 c 2.80799,-1.0676 2.76465,-6.95739 -0.0592,-8.04182 -1.36341,-0.52359 -3.00221,-0.11888 -3.99985,0.98778 -0.77206,0.85642 -0.88,1.2346 -0.88,3.08311 0,1.96948 0.071,2.17794 1.088,3.19495 1.15134,1.15135 2.27056,1.37687 3.85102,0.77598 z m 5.62098,-4.00798 c 0,-5.06666 0.0259,-5.28 0.64,-5.28 0.57436,0 0.64,0.21334 0.64,2.08 v 2.08 h 2.72 2.72 v -2.08 c 0,-2.00533 0.0287,-2.08 0.8,-2.08 h 0.8 v 5.28 5.280006 h -0.8 c -0.78667,0 -0.8,-0.0427 -0.8,-2.560006 v -2.56 h -2.72 -2.72 v 2.56 c 0,2.34667 -0.0533,2.560006 -0.64,2.560006 -0.61414,0 -0.64,-0.213336 -0.64,-5.280006 z m -90.36664,-30.18602 c -0.10247,-0.1658 -0.008,-0.44068 0.21017,-0.61083 0.89821,-0.70089 13.30255,-7.76315 13.6354,-7.76315 1.25847,0 -0.44512,1.26052 -6.27096,4.64 -3.64085,2.112 -6.79265,3.88398 -7.00401,3.93772 -0.21136,0.0537 -0.46813,-0.0379 -0.5706,-0.20374 z m -2.67719,-4.93398 c 0.13224,-0.40845 16.0659,-9.84 16.62371,-9.84 1.24541,0 -0.98125,1.5851 -7.86285,5.59731 -7.61499,4.43981 -9.04961,5.13456 -8.76086,4.24269 z m -22.65203,-5.79239 c -2.2187,-1.00668 -3.29582,-3.31937 -2.90247,-6.23188 0.21903,-1.62171 0.8602,-2.68461 2.24157,-3.71595 1.23711,-0.92364 4.26716,-0.92421 5.5333,-10e-4 1.2184,0.88836 2.34346,3.18377 2.34346,4.78126 0,1.57414 -1.12034,3.88978 -2.29616,4.74595 -1.08345,0.78892 -3.62936,1.00712 -4.9197,0.42166 z m 3.51488,-1.15963 c 2.80799,-1.06759 2.76466,-6.95739 -0.0592,-8.04182 -1.36342,-0.52359 -3.00221,-0.11888 -3.99986,0.98778 -0.77206,0.85643 -0.88,1.2346 -0.88,3.08311 0,1.96948 0.071,2.17795 1.088,3.19495 1.15135,1.15135 2.27057,1.37687 3.85102,0.77598 z m 40.64512,1.15963 c -2.2187,-1.00668 -3.29582,-3.31937 -2.90247,-6.23188 0.21903,-1.62171 0.8602,-2.68461 2.24157,-3.71595 1.23711,-0.92364 4.26715,-0.92421 5.5333,-10e-4 1.2184,0.88836 2.34346,3.18377 2.34346,4.78126 0,1.57414 -1.12034,3.88978 -2.29616,4.74595 -1.08345,0.78892 -3.62936,1.00712 -4.9197,0.42166 z m 3.51488,-1.15963 c 2.80799,-1.06759 2.76465,-6.95739 -0.0592,-8.04182 -1.36341,-0.52359 -3.00221,-0.11888 -3.99985,0.98778 -0.77206,0.85643 -0.88,1.2346 -0.88,3.08311 0,1.96948 0.071,2.17795 1.088,3.19495 1.15134,1.15135 2.27057,1.37687 3.85102,0.77598 z m -60.61902,-4.00798 c 0,-5.06666 0.0259,-5.28 0.64,-5.28 0.57436,0 0.64,0.21334 0.64,2.08 v 2.08 h 2.72 2.72 v -2.08 c 0,-2.00533 0.0287,-2.08 0.8,-2.08 h 0.8 v 5.28 5.28 h -0.8 c -0.78666,0 -0.8,-0.0427 -0.8,-2.56 v -2.56 h -2.72 -2.72 v 2.56 c 0,2.34667 -0.0533,2.56 -0.64,2.56 -0.61414,0 -0.64,-0.21333 -0.64,-5.28 z m -73.28,-2.24 c 0,-5.05644 0.0269,-5.28 0.63631,-5.28 0.45931,0 1.39395,1.1344 3.36,4.0781 l 2.72369,4.0781 v -4.0781 -4.0781 h 0.8 0.8 v 5.28 5.28 h -0.79272 c -0.66353,0 -1.22417,-0.66408 -3.44,-4.07469 l -2.64728,-4.0747 -0.0896,4.0747 c -0.0838,3.81046 -0.13044,4.07469 -0.72,4.07469 -0.60178,0 -0.63044,-0.24002 -0.63044,-5.28 z m 10.56,0 c 0,-5.06666 0.0259,-5.28 0.64,-5.28 0.57436,0 0.64,0.21334 0.64,2.08 v 2.08 h 2.72 2.72 v -2.08 c 0,-2.00533 0.0287,-2.08 0.8,-2.08 h 0.8 v 5.28 5.28 h -0.8 c -0.78666,0 -0.8,-0.0427 -0.8,-2.56 v -2.56 h -2.72 -2.72 v 2.56 c 0,2.34667 -0.0533,2.56 -0.64,2.56 -0.61414,0 -0.64,-0.21333 -0.64,-5.28 z m -6.79493,-15.75974 -0.0851,-8.87975 -7.52,-4.39503 c -6.54094,-3.82283 -8.45336,-5.20547 -7.2,-5.20547 0.176,0 3.80688,2.016 8.06862,4.48 l 7.74861,4.48 0.0114,9.2 c 0.01,7.92597 -0.0544,9.19999 -0.46355,9.19999 -0.40647,0 -0.48721,-1.28024 -0.56,-8.87974 z m 1.35935,-6.88025 c 0.004,-0.39581 13.7129,-8.56 14.37313,-8.56 0.18835,0 0.34047,0.18 0.33804,0.4 -0.004,0.3958 -13.7129,8.56 -14.37313,8.56 -0.18835,0 -0.34047,-0.18 -0.33804,-0.4 z m -2.81587,-4.76564 c 0.16855,-0.50566 16.91593,-10.2170103 17.25646,-10.0065503 0.15125,0.0935 0.27499,0.29295 0.27499,0.44328 0,0.37653 -16.48068,9.9289103 -17.13031,9.9289103 -0.28766,0 -0.46817,-0.16454 -0.40114,-0.36564 z m -31.74854,-2.22548 c 0,-0.19311 0.936,-1.32064 2.08,-2.50562 2.04533,-2.1186 2.45622,-3.03904 1.696,-3.79926 -0.59283,-0.59282 -1.80639,-0.45476 -2.25027,0.256 -0.54271,0.86902 -1.52377,0.86161 -1.29589,-0.01 0.40552,-1.5507303 3.05688,-2.1434903 4.25016,-0.9502103 1.17244,1.1724403 0.84891,2.4484703 -1.12,4.4173903 -0.968,0.968 -1.76,1.81008 -1.76,1.8713 0,0.0612 0.864,0.11131 1.92,0.11131 1.49333,0 1.92,0.10666 1.92,0.48 0,0.38902 -0.51556,0.48 -2.72,0.48 -1.76069,0 -2.72,-0.12384 -2.72,-0.35112 z m -9.6,-8.7688803 c 0,-5.06667 0.0258,-5.28 0.64,-5.28 0.57435,0 0.64,0.21333 0.64,2.08 v 2.08 h 2.72 2.72 v -2.08 c 0,-2.00534 0.0287,-2.08 0.8,-2.08 h 0.8 v 5.28 5.2800003 h -0.8 c -0.78667,0 -0.8,-0.0427 -0.8,-2.56 V 8.3200037 h -2.72 -2.72 v 2.5600003 c 0,2.34666 -0.0533,2.56 -0.64,2.56 -0.61415,0 -0.64,-0.21334 -0.64,-5.2800003 z m 16.95999,0 c 0,-5.05645 0.0269,-5.28 0.63631,-5.28 0.45931,0 1.39395,1.13439 3.36,4.07809 l 2.72369,4.0781003 v -4.0781003 -4.07809 h 0.8 0.8 v 5.28 5.2800003 h -0.79272 c -0.66353,0 -1.22417,-0.66409 -3.44,-4.0747003 l -2.64728,-4.0747 -0.0896,4.0747 c -0.0838,3.8104603 -0.13044,4.0747003 -0.72,4.0747003 -0.60178,0 -0.63044,-0.24003 -0.63044,-5.2800003 z m 44.16,0 c 0,-5.05645 0.0269,-5.28 0.63631,-5.28 0.45931,0 1.39395,1.13439 3.36,4.07809 l 2.72369,4.0781003 v -4.0781003 -4.07809 h 0.8 0.8 v 5.28 5.2800003 h -0.79272 c -0.66353,0 -1.22417,-0.66409 -3.44,-4.0747003 l -2.64728,-4.0747 -0.0896,4.0747 c -0.0838,3.8104603 -0.13044,4.0747003 -0.72,4.0747003 -0.60178,0 -0.63044,-0.24003 -0.63044,-5.2800003 z m 10.56,0 c 0,-5.06667 0.0259,-5.28 0.64,-5.28 0.57436,0 0.64,0.21333 0.64,2.08 v 2.08 h 2.72 2.72 v -2.08 c 0,-2.00534 0.0287,-2.08 0.8,-2.08 h 0.8 v 5.28 5.2800003 h -0.8 c -0.78666,0 -0.8,-0.0427 -0.8,-2.56 V 8.3200037 h -2.72 -2.72 v 2.5600003 c 0,2.34666 -0.0533,2.56 -0.64,2.56 -0.61414,0 -0.64,-0.21334 -0.64,-5.2800003 z"
       id="path8" />
  </g>
</svg>
