<svg xmlns:rdf="http://www.w3.org/1999/02/22-rdf-syntax-ns#" xmlns="http://www.w3.org/2000/svg" xml:space="preserve" height="68.533997" width="186.771" version="1.1" xmlns:cc="http://creativecommons.org/ns#" xmlns:dc="http://purl.org/dc/elements/1.1/"><metadata><rdf:RDF><cc:Work rdf:about=""><dc:format>image/svg+xml</dc:format><dc:type rdf:resource="http://purl.org/dc/dcmitype/StillImage"/><dc:title/></cc:Work></rdf:RDF></metadata><path fill="#000" d="M93.40625,1.71875c-2.3009,0-4.20085,0.7479501-5.65625,2.28125-1.4554,1.5323499-2.15625,3.6646501-2.15625,6.375,0,1.43355,0.2821,2.77905,0.90625,4.0625s1.57095,2.32055,2.78125,3.0625,2.55665,1.09375,4.09375,1.09375c1.41835,0,2.74325-0.32835,3.96875-1,1.22455-0.67165,2.17495-1.6625,2.84375-2.96875,0.66785-1.30625,1-2.78165,1-4.4375,0-1.6320999-0.3029-3.0877501-0.9375-4.375-0.63555-1.2881999-1.57095-2.3102-2.78125-3.03125-1.2103-0.7201-2.55485-1.0625-4.0625-1.0625zm10.65625,0.28125,0,16.3125,2.15625,0,0-7.6875,8.4375,0,0,7.6875,2.1875,0,0-16.3125-2.1875,0,0,6.71875-8.4375,0,0-6.71875-2.15625,0zm-10.65625,1.5625c1.07635,0,2.0408,0.2672,2.90625,0.8125s1.5194,1.32165,1.96875,2.3125,0.6875,2.1406501,0.6875,3.46875c0,2.10045-0.5118,3.73215-1.5625,4.875-1.05165,1.14285-2.40485,1.71875-4.03125,1.71875-1.596,0-2.91045-0.5551-3.96875-1.6875s-1.59375-2.68975-1.59375-4.65625c0-2.4557499,0.5533-4.2002501,1.65625-5.25s2.408-1.59375,3.9375-1.59375zm-0.84375,17.1875,0,25.78125-31.84375,18.375-22.875-13.15625-0.8125,1.40625,23.6875,13.65625,32.65625-18.84375,32.625,18.84375,23.78125-13.71875-0.78125-1.4375-23,13.25-31.84375-18.375,0-25.78125-1.59375,0zm-64.34375,18.6875c-2.30185,0-4.20085,0.74795-5.65625,2.28125-1.4554,1.53235-2.15625,3.66465-2.15625,6.375,0,1.43355,0.31335,2.77905,0.9375,4.0625s1.5397,2.32055,2.75,3.0625,2.55665,1.09375,4.09375,1.09375c1.41835,0,2.74325-0.32835,3.96875-1s2.1759-1.6625,2.84375-2.96875,1-2.78165,1-4.4375c0-1.6321-0.30195-3.0868-0.9375-4.375s-1.57095-2.3102-2.78125-3.03125c-1.2103-0.7201-2.55485-1.0625-4.0625-1.0625zm130.4375,0c-2.3009,0-4.17055,0.74795-5.625,2.28125-1.45635,1.53235-2.1875,3.66465-2.1875,6.375,0,1.43355,0.3124,2.77905,0.9375,4.0625s1.5397,2.32055,2.75,3.0625,2.58885,1.09375,4.125,1.09375c1.41835,0,2.7442-0.32835,3.96875-1,1.2255-0.67165,2.1759-1.6625,2.84375-2.96875s1-2.78165,1-4.4375c0-1.6321-0.33415-3.0868-0.96875-4.375s-1.5397-2.3102-2.75-3.03125c-1.20935-0.7201-2.58515-1.0625-4.09375-1.0625zm-154,0.28125,0,16.3125,2.1875,0,0-7.6875,8.4375,0,0,7.6875,2.15625,0,0-16.3125-2.15625,0,0,6.6875-8.4375,0,0-6.6875-2.1875,0zm164.65625,0,0,16.3125,2.1875,0,0-7.6875,8.4375,0,0,7.6875,2.15625,0,0-16.3125-2.15625,0,0,6.6875-8.4375,0,0-6.6875-2.1875,0zm-141.09375,1.5625c1.07635,0,2.0408,0.2672,2.90625,0.8125s1.5194,1.32165,1.96875,2.3125,0.6875,2.14065,0.6875,3.46875c0,2.10045-0.5118,3.73215-1.5625,4.875-1.05165,1.14285-2.40485,1.71875-4.03125,1.71875-1.596,0-2.91045-0.5551-3.96875-1.6875s-1.59375-2.68975-1.59375-4.65625c0-2.4567,0.5533-4.20025,1.65625-5.25s2.408-1.59375,3.9375-1.59375zm130.46875,0c1.0773,0,2.04175,0.2672,2.90625,0.8125,0.86545,0.5453,1.5194,1.32165,1.96875,2.3125s0.65625,2.14065,0.65625,3.46875c0,2.10045-0.51275,3.73215-1.5625,4.875-1.0526,1.14285-2.4039,1.71875-4.03125,1.71875-1.59505,0-2.9114-0.55605-3.96875-1.6875-1.05925-1.1324-1.59375-2.68975-1.59375-4.65625,0-2.4567,0.5514-4.20025,1.65625-5.25,1.102-1.04975,2.4402-1.59375,3.96875-1.59375z" transform="translate(-2.7042528e-6,0)"/></svg>