<?xml version="1.0" encoding="UTF-8" standalone="no"?>
<!-- Created with Inkscape (http://www.inkscape.org/) -->

<svg
   version="1.1"
   id="svg1"
   width="543.48438"
   height="187.78125"
   viewBox="0 0 543.48438 187.78126"
   sodipodi:docname="glycerolmonostearate.svg"
   inkscape:version="1.4.2 (f4327f4, 2025-05-13)"
   xmlns:inkscape="http://www.inkscape.org/namespaces/inkscape"
   xmlns:sodipodi="http://sodipodi.sourceforge.net/DTD/sodipodi-0.dtd"
   xmlns="http://www.w3.org/2000/svg"
   xmlns:svg="http://www.w3.org/2000/svg">
  <defs
     id="defs1" />
  <sodipodi:namedview
     id="namedview1"
     pagecolor="#ffffff"
     bordercolor="#000000"
     borderopacity="0.25"
     inkscape:showpageshadow="2"
     inkscape:pageopacity="0.0"
     inkscape:pagecheckerboard="0"
     inkscape:deskcolor="#d1d1d1"
     inkscape:zoom="0.75808864"
     inkscape:cx="343.62736"
     inkscape:cy="424.09289"
     inkscape:window-width="1920"
     inkscape:window-height="1111"
     inkscape:window-x="-9"
     inkscape:window-y="-9"
     inkscape:window-maximized="1"
     inkscape:current-layer="g1">
    <inkscape:page
       x="0"
       y="0"
       inkscape:label="1"
       id="page1"
       width="543.48438"
       height="187.78127"
       margin="0"
       bleed="0" />
  </sodipodi:namedview>
  <g
     id="g1"
     inkscape:groupmode="layer"
     inkscape:label="1"
     transform="translate(-52.902343,-137.49609)">
    <g
       id="g68">
      <path
         id="path1"
         d="m 5.8708594,-2.5082813 0.9492187,0.234375 c -0.196289,0.7822266 -0.5507812,1.37695317 -1.0664062,1.78125005 -0.515625,0.40722656 -1.1484375,0.609375 -1.8984375,0.609375 -0.7675782,0 -1.3916016,-0.15527344 -1.875,-0.46875 C 1.4939062,-0.66257813 1.1247656,-1.1166797 0.86695312,-1.7114063 c -0.25195312,-0.5917968 -0.375,-1.2333984 -0.375,-1.921875 0,-0.7412109 0.140625,-1.3886718 0.421875,-1.9453125 0.28710938,-0.5537109 0.69433598,-0.9755859 1.21874998,-1.265625 0.5302735,-0.2871093 1.1132813,-0.4335937 1.7460938,-0.4335937 0.7089843,0 1.3066406,0.1845703 1.7929687,0.5507812 0.4921875,0.3603516 0.834961,0.8730469 1.03125,1.5351563 l -0.9375,0.2226562 C 5.6013281,-5.4907031 5.3581641,-5.8715625 5.0388281,-6.1059375 4.7253516,-6.3461719 4.3298437,-6.4692188 3.8552344,-6.4692188 c -0.5478516,0 -1.0078125,0.1347657 -1.3828125,0.3984375 -0.3691407,0.2666016 -0.6269532,0.6210938 -0.7734375,1.0664063 -0.1494141,0.4394531 -0.2226563,0.8964844 -0.2226563,1.3710937 0,0.609375 0.084961,1.1425782 0.2578125,1.59375 0.178711,0.4541016 0.4570313,0.7939454 0.8320313,1.0195313 0.375,0.21972656 0.7792968,0.328125 1.21875,0.328125 0.5302734,0 0.9785156,-0.15234375 1.3476562,-0.4570313 0.366211,-0.3046875 0.6123047,-0.7558593 0.7382813,-1.359375 z m 0,0"
         style="fill:#000000;fill-opacity:1;fill-rule:nonzero;stroke:none"
         aria-label="C"
         transform="matrix(1.3333333,0,0,1.3333333,71.68,183.36)" />
      <path
         id="path2"
         d="M 0.79710937,-4.6875e-4 V -7.160625 H 1.7463281 v 2.9414062 H 5.4611719 V -7.160625 H 6.4103906 V -4.6875e-4 H 5.4611719 V -3.3754688 H 1.7463281 v 3.37500005 z m 0,0"
         style="fill:#000000;fill-opacity:1;fill-rule:nonzero;stroke:none"
         aria-label="H"
         transform="matrix(1.3333333,0,0,1.3333333,56.32,183.36)" />
      <path
         id="path3"
         d="m 0.34125,-1.5125391 0.703125,-0.09375 c 0.076172,0.3984375 0.2138672,0.6884766 0.4101563,0.86718754 0.1933593,0.17285156 0.4277343,0.2578125 0.703125,0.2578125 0.3339843,0 0.6152343,-0.11132813 0.84375,-0.33984375 C 3.2269922,-1.0555078 3.34125,-1.3396875 3.34125,-1.6766016 c 0,-0.3193359 -0.1054687,-0.5859375 -0.3164062,-0.796875 C 2.8139063,-2.6844141 2.544375,-2.7898828 2.21625,-2.7898828 c -0.1347656,0 -0.2988281,0.029297 -0.4921875,0.082031 l 0.082031,-0.6210937 c 0.046875,0.00879 0.082031,0.011719 0.1054687,0.011719 0.3046875,0 0.5742188,-0.076172 0.8085938,-0.234375 0.2402343,-0.1552734 0.3632812,-0.3984375 0.3632812,-0.7265625 0,-0.2578125 -0.09082,-0.4716796 -0.2695312,-0.6445312 -0.1728516,-0.1699219 -0.3955079,-0.2578125 -0.6679688,-0.2578125 -0.2753906,0 -0.5039062,0.087891 -0.6914062,0.2578125 -0.1816407,0.1728516 -0.2929688,0.4306641 -0.3398438,0.7734375 l -0.703125,-0.1171875 c 0.0849609,-0.4746094 0.28125,-0.84375 0.5859375,-1.1015625 0.3046875,-0.2578125 0.6826172,-0.3867188 1.1367188,-0.3867188 0.3105468,0 0.5976562,0.067383 0.8554687,0.1992188 0.2636719,0.1347656 0.46875,0.3164062 0.609375,0.5507812 C 3.7396875,-4.7703516 3.81,-4.5242578 3.81,-4.2664453 c 0,0.2519531 -0.067383,0.4775391 -0.1992187,0.6796875 -0.1347657,0.2050781 -0.3339844,0.3632812 -0.5976563,0.4804687 0.3427734,0.079102 0.609375,0.2431641 0.796875,0.4921875 0.1875,0.2431641 0.28125,0.5507813 0.28125,0.9257813 0,0.5009766 -0.1845703,0.92578124 -0.5507812,1.27734374 -0.3691407,0.34570312 -0.8291016,0.515625 -1.3828125,0.515625 -0.5009766,0 -0.9199219,-0.14648438 -1.2539063,-0.4453125 C 0.575625,-0.64535156 0.388125,-1.035 0.34125,-1.5125391 Z m 0,0"
         style="fill:#000000;fill-opacity:1;fill-rule:nonzero;stroke:none"
         aria-label="3"
         transform="matrix(1.3333333,0,0,1.3333333,65.92,186.88)" />
      <path
         id="path4"
         d="m 0.48128906,-3.4808203 c 0,-1.1865234 0.31933594,-2.1152344 0.96093754,-2.7890625 0.6386718,-0.6708984 1.4648437,-1.0078125 2.4726562,-1.0078125 0.65625,0 1.2480469,0.1582031 1.78125,0.46875 0.5302734,0.3134766 0.9316406,0.7558594 1.2070313,1.3242187 0.28125,0.5625 0.421875,1.2041016 0.421875,1.921875 0,0.7207032 -0.1494141,1.3681641 -0.4453125,1.9453125 -0.2900391,0.5712891 -0.703125,1.00488285 -1.2421875,1.30078129 -0.5332032,0.29003906 -1.1103516,0.43359375 -1.734375,0.43359375 -0.6738282,0 -1.2744141,-0.15820313 -1.8046875,-0.48046875 -0.5332032,-0.328125 -0.9345704,-0.77343749 -1.20703129,-1.33593749 -0.27539062,-0.5625 -0.41015625,-1.1542969 -0.41015625,-1.78125 z m 0.98437504,0.011719 c 0,0.8613282 0.2285156,1.5410157 0.6914062,2.0390625 0.4599609,0.49218754 1.0429688,0.73828129 1.7460938,0.73828129 0.7089843,0 1.2949218,-0.24902344 1.7578125,-0.74999999 0.4599609,-0.4980469 0.6914062,-1.2099609 0.6914062,-2.1328125 0,-0.5771484 -0.1025391,-1.0839844 -0.3046875,-1.5234375 C 5.8514062,-5.5345309 5.5613672,-5.871445 5.1805078,-6.10582 c -0.375,-0.2402344 -0.796875,-0.3632813 -1.265625,-0.3632813 -0.6738281,0 -1.2509766,0.2314454 -1.734375,0.6914063 -0.4775391,0.4628906 -0.7148437,1.2304687 -0.7148437,2.3085937 z m 0,0"
         style="fill:#000000;fill-opacity:1;fill-rule:nonzero;stroke:none"
         aria-label="O"
         transform="matrix(1.3333333,0,0,1.3333333,485.12,187.52)" />
      <path
         id="path5"
         d="m 0.47953125,-3.4810547 c 0,-1.1865234 0.31933594,-2.1152344 0.96093745,-2.7890625 0.6386719,-0.6708984 1.4648438,-1.0078125 2.4726563,-1.0078125 0.65625,0 1.2480469,0.1582031 1.78125,0.46875 0.5302734,0.3134766 0.9316406,0.7558594 1.2070312,1.3242188 0.28125,0.5625 0.421875,1.2041015 0.421875,1.921875 0,0.7207031 -0.149414,1.368164 -0.4453125,1.9453125 -0.290039,0.571289 -0.703125,1.00488277 -1.2421875,1.30078121 -0.5332031,0.29003906 -1.1103515,0.43359375 -1.734375,0.43359375 -0.6738281,0 -1.274414,-0.15820312 -1.8046875,-0.48046875 -0.5332031,-0.328125 -0.9345703,-0.77343751 -1.2070312,-1.33593751 -0.27539063,-0.5625 -0.41015625,-1.1542969 -0.41015625,-1.78125 z m 0.98437495,0.011719 c 0,0.8613281 0.2285157,1.5410156 0.6914063,2.0390625 0.4599609,0.49218746 1.0429687,0.73828121 1.7460937,0.73828121 0.7089844,0 1.2949219,-0.24902344 1.7578125,-0.75000001 0.459961,-0.4980469 0.6914063,-1.2099609 0.6914063,-2.1328125 0,-0.5771484 -0.1025391,-1.0839844 -0.3046875,-1.5234375 C 5.8496484,-5.5347656 5.5596094,-5.8716797 5.17875,-6.1060547 4.80375,-6.3462891 4.381875,-6.4693359 3.913125,-6.4693359 c -0.6738281,0 -1.2509766,0.2314453 -1.734375,0.6914062 -0.4775391,0.4628906 -0.7148438,1.2304688 -0.7148438,2.308594 z m 0,0"
         style="fill:#000000;fill-opacity:1;fill-rule:nonzero;stroke:none"
         aria-label="O"
         transform="matrix(1.3333333,0,0,1.3333333,462.72,147.2)" />
      <path
         id="path6"
         d="m 0.48140625,-3.4803516 c 0,-1.1865234 0.31933594,-2.1152343 0.96093755,-2.7890625 0.6386718,-0.6708984 1.4648437,-1.0078125 2.4726562,-1.0078125 0.65625,0 1.2480469,0.1582032 1.78125,0.46875 0.5302734,0.3134766 0.9316406,0.7558594 1.2070313,1.3242188 0.28125,0.5625 0.421875,1.2041015 0.421875,1.921875 0,0.7207031 -0.1494141,1.368164 -0.4453125,1.9453125 -0.2900391,0.571289 -0.703125,1.0048828 -1.2421875,1.30078124 -0.5332032,0.29003906 -1.1103516,0.43359375 -1.734375,0.43359375 -0.6738282,0 -1.2744141,-0.15820313 -1.8046875,-0.48046875 -0.5332032,-0.328125 -0.9345704,-0.77343754 -1.2070313,-1.33593754 -0.27539062,-0.5625 -0.41015625,-1.1542968 -0.41015625,-1.78125 z m 0.98437505,0.011719 c 0,0.8613281 0.2285156,1.5410156 0.6914062,2.0390625 0.4599609,0.49218749 1.0429688,0.73828124 1.7460938,0.73828124 0.7089843,0 1.2949218,-0.24902344 1.7578125,-0.75000004 C 6.1210547,-1.9393359 6.3525,-2.65125 6.3525,-3.5741016 6.3525,-4.15125 6.2499609,-4.6580859 6.0478125,-5.0975391 5.8515234,-5.5340625 5.5614844,-5.8709766 5.180625,-6.1053516 4.805625,-6.3455859 4.38375,-6.4686328 3.915,-6.4686328 c -0.6738281,0 -1.2509766,0.2314453 -1.734375,0.6914062 -0.4775391,0.4628907 -0.7148437,1.2304688 -0.7148437,2.308594 z m 0,0"
         style="fill:#000000;fill-opacity:1;fill-rule:nonzero;stroke:none"
         aria-label="O"
         transform="matrix(1.3333333,0,0,1.3333333,577.28,188.16)" />
      <path
         id="path7"
         d="M 0.79675781,1.171875e-4 V -7.1600391 H 1.7459766 v 2.9414063 H 5.4608203 V -7.1600391 H 6.4100391 V 1.171875e-4 H 5.4608203 V -3.3748828 H 1.7459766 V 1.171875e-4 Z m 0,0"
         style="fill:#000000;fill-opacity:1;fill-rule:nonzero;stroke:none"
         aria-label="H"
         transform="matrix(1.3333333,0,0,1.3333333,587.84,188.16)" />
      <path
         id="path8"
         d="m 0.47964844,-3.4816406 c 0,-1.1865235 0.31933594,-2.1152344 0.96093746,-2.7890625 0.6386719,-0.6708985 1.4648438,-1.0078125 2.4726563,-1.0078125 0.65625,0 1.2480469,0.1582031 1.78125,0.46875 0.5302734,0.3134765 0.9316406,0.7558594 1.2070312,1.3242187 0.28125,0.5625 0.421875,1.2041016 0.421875,1.921875 0,0.7207032 -0.149414,1.3681641 -0.4453125,1.9453125 -0.290039,0.5712891 -0.703125,1.00488284 -1.2421875,1.30078128 -0.5332031,0.29003906 -1.1103515,0.43359375 -1.734375,0.43359375 -0.6738281,0 -1.274414,-0.15820313 -1.8046875,-0.48046875 -0.5332031,-0.328125 -0.9345703,-0.77343748 -1.20703121,-1.33593748 -0.27539063,-0.5625 -0.41015625,-1.1542969 -0.41015625,-1.78125 z m 0.98437496,0.011719 c 0,0.8613282 0.2285157,1.5410157 0.6914063,2.0390625 0.4599609,0.49218753 1.0429687,0.73828128 1.7460937,0.73828128 0.7089844,0 1.2949219,-0.24902344 1.7578125,-0.74999998 0.459961,-0.4980469 0.6914063,-1.209961 0.6914063,-2.1328125 0,-0.5771485 -0.1025391,-1.0839844 -0.3046875,-1.5234375 -0.1962891,-0.4365235 -0.4863281,-0.7734375 -0.8671875,-1.0078125 -0.375,-0.2402344 -0.796875,-0.3632813 -1.265625,-0.3632813 -0.6738281,0 -1.2509766,0.2314453 -1.734375,0.6914063 -0.4775391,0.4628906 -0.7148438,1.2304687 -0.7148438,2.3085937 z m 0,0"
         style="fill:#000000;fill-opacity:1;fill-rule:nonzero;stroke:none"
         aria-label="O"
         transform="matrix(1.3333333,0,0,1.3333333,530.88,214.4)" />
      <path
         id="path9"
         d="M 0.79792969,-0.00117187 V -7.1613281 H 1.7471484 v 2.9414062 h 3.7148438 v -2.9414062 h 0.9492187 v 7.16015623 H 5.4619922 V -3.3761719 H 1.7471484 v 3.37500003 z m 0,0"
         style="fill:#000000;fill-opacity:1;fill-rule:nonzero;stroke:none"
         aria-label="H"
         transform="matrix(1.3333333,0,0,1.3333333,541.44,214.4)" />
      <path
         style="baseline-shift:baseline;display:inline;overflow:visible;opacity:1;vector-effect:none;stroke-linecap:round;stroke-linejoin:round;stroke-miterlimit:10;enable-background:accumulate;stop-color:#000000;stop-opacity:1"
         d="m 62.097656,710.73633 a 0.36000001,0.36000001 0 0 0 -0.490234,0.13672 0.36000001,0.36000001 0 0 0 0.134765,0.49023 l 12.791016,7.2207 a 0.36000001,0.36000001 0 0 0 0.490234,-0.13671 0.36000001,0.36000001 0 0 0 -0.136718,-0.49024 z"
         id="path10"
         transform="matrix(1.3333333,0,0,-1.3333333,0,1122.56)" />
      <path
         style="baseline-shift:baseline;display:inline;overflow:visible;opacity:1;vector-effect:none;stroke-linecap:round;stroke-linejoin:round;stroke-miterlimit:10;enable-background:accumulate;stop-color:#000000;stop-opacity:1"
         d="m 91.677734,707.82031 -17.15039,10.14063 a 0.36000001,0.36000001 0 0 0 -0.126953,0.49218 0.36000001,0.36000001 0 0 0 0.492187,0.12696 l 17.150391,-10.14063 a 0.36000001,0.36000001 0 0 0 0.126953,-0.49218 0.36000001,0.36000001 0 0 0 -0.492188,-0.12696 z"
         id="path11"
         transform="matrix(1.3333333,0,0,-1.3333333,0,1122.56)" />
      <path
         style="baseline-shift:baseline;display:inline;overflow:visible;opacity:1;vector-effect:none;stroke-linecap:round;stroke-linejoin:round;stroke-miterlimit:10;enable-background:accumulate;stop-color:#000000;stop-opacity:1"
         d="m 92.037109,707.81641 a 0.36000001,0.36000001 0 0 0 -0.490234,0.13671 0.36000001,0.36000001 0 0 0 0.136719,0.49024 l 17.349606,9.79101 a 0.36000001,0.36000001 0 0 0 0.49024,-0.13671 0.36000001,0.36000001 0 0 0 -0.13672,-0.49024 z"
         id="path12"
         transform="matrix(1.3333333,0,0,-1.3333333,0,1122.56)" />
      <path
         style="baseline-shift:baseline;display:inline;overflow:visible;opacity:1;vector-effect:none;stroke-linecap:round;stroke-linejoin:round;stroke-miterlimit:10;enable-background:accumulate;stop-color:#000000;stop-opacity:1"
         d="m 126.17773,707.48047 -17.15039,10.1289 a 0.36000001,0.36000001 0 0 0 -0.12695,0.49415 0.36000001,0.36000001 0 0 0 0.49219,0.12695 l 17.15039,-10.13086 a 0.36000001,0.36000001 0 0 0 0.12695,-0.49219 0.36000001,0.36000001 0 0 0 -0.49219,-0.12695 z"
         id="path13"
         transform="matrix(1.3333333,0,0,-1.3333333,0,1122.56)" />
      <path
         style="baseline-shift:baseline;display:inline;overflow:visible;opacity:1;vector-effect:none;stroke-linecap:round;stroke-linejoin:round;stroke-miterlimit:10;enable-background:accumulate;stop-color:#000000;stop-opacity:1"
         d="m 126.53711,707.47656 a 0.36000001,0.36000001 0 0 0 -0.49023,0.13672 0.36000001,0.36000001 0 0 0 0.13671,0.49024 l 17.34961,9.77929 a 0.36000001,0.36000001 0 0 0 0.49024,-0.13672 0.36000001,0.36000001 0 0 0 -0.13672,-0.49023 z"
         id="path14"
         transform="matrix(1.3333333,0,0,-1.3333333,0,1122.56)" />
      <path
         style="baseline-shift:baseline;display:inline;overflow:visible;opacity:1;vector-effect:none;stroke-linecap:round;stroke-linejoin:round;stroke-miterlimit:10;enable-background:accumulate;stop-color:#000000;stop-opacity:1"
         d="m 160.67773,707.13086 -17.15039,10.12891 a 0.36000001,0.36000001 0 0 0 -0.12695,0.49414 0.36000001,0.36000001 0 0 0 0.49219,0.12695 L 161.04297,707.75 a 0.36000001,0.36000001 0 0 0 0.12695,-0.49219 0.36000001,0.36000001 0 0 0 -0.49219,-0.12695 z"
         id="path15"
         transform="matrix(1.3333333,0,0,-1.3333333,0,1122.56)" />
      <path
         style="baseline-shift:baseline;display:inline;overflow:visible;opacity:1;vector-effect:none;stroke-linecap:round;stroke-linejoin:round;stroke-miterlimit:10;enable-background:accumulate;stop-color:#000000;stop-opacity:1"
         d="m 161.03711,707.12695 a 0.36000001,0.36000001 0 0 0 -0.49024,0.13672 0.36000001,0.36000001 0 0 0 0.13672,0.49024 l 17.34961,9.77929 a 0.36000001,0.36000001 0 0 0 0.49024,-0.13672 0.36000001,0.36000001 0 0 0 -0.13672,-0.49023 z"
         id="path16"
         transform="matrix(1.3333333,0,0,-1.3333333,0,1122.56)" />
      <path
         style="baseline-shift:baseline;display:inline;overflow:visible;opacity:1;vector-effect:none;stroke-linecap:round;stroke-linejoin:round;stroke-miterlimit:10;enable-background:accumulate;stop-color:#000000;stop-opacity:1"
         d="m 195.17773,706.7793 -17.15039,10.13086 a 0.36000001,0.36000001 0 0 0 -0.12695,0.49218 0.36000001,0.36000001 0 0 0 0.49219,0.12696 l 17.15039,-10.12891 a 0.36000001,0.36000001 0 0 0 0.12695,-0.49414 0.36000001,0.36000001 0 0 0 -0.49219,-0.12695 z"
         id="path17"
         transform="matrix(1.3333333,0,0,-1.3333333,0,1122.56)" />
      <path
         style="baseline-shift:baseline;display:inline;overflow:visible;opacity:1;vector-effect:none;stroke-linecap:round;stroke-linejoin:round;stroke-miterlimit:10;enable-background:accumulate;stop-color:#000000;stop-opacity:1"
         d="m 195.53711,706.77734 a 0.36000001,0.36000001 0 0 0 -0.49024,0.13477 0.36000001,0.36000001 0 0 0 0.13672,0.49219 l 17.34961,9.78906 a 0.36000001,0.36000001 0 0 0 0.49024,-0.13672 0.36000001,0.36000001 0 0 0 -0.13672,-0.49023 z"
         id="path18"
         transform="matrix(1.3333333,0,0,-1.3333333,0,1122.56)" />
      <path
         style="baseline-shift:baseline;display:inline;overflow:visible;opacity:1;vector-effect:none;stroke-linecap:round;stroke-linejoin:round;stroke-miterlimit:10;enable-background:accumulate;stop-color:#000000;stop-opacity:1"
         d="m 229.67773,706.42969 -17.15039,10.14062 a 0.36000001,0.36000001 0 0 0 -0.12695,0.49219 0.36000001,0.36000001 0 0 0 0.49219,0.12695 l 17.15039,-10.13867 a 0.36000001,0.36000001 0 0 0 0.12695,-0.49414 0.36000001,0.36000001 0 0 0 -0.49219,-0.12695 z"
         id="path19"
         transform="matrix(1.3333333,0,0,-1.3333333,0,1122.56)" />
      <path
         style="baseline-shift:baseline;display:inline;overflow:visible;opacity:1;vector-effect:none;stroke-linecap:round;stroke-linejoin:round;stroke-miterlimit:10;enable-background:accumulate;stop-color:#000000;stop-opacity:1"
         d="m 230.03711,706.42578 a 0.36000001,0.36000001 0 0 0 -0.49024,0.13672 0.36000001,0.36000001 0 0 0 0.13672,0.49023 l 17.34961,9.79102 a 0.36000001,0.36000001 0 0 0 0.49024,-0.13672 0.36000001,0.36000001 0 0 0 -0.13672,-0.49023 z"
         id="path20"
         transform="matrix(1.3333333,0,0,-1.3333333,0,1122.56)" />
      <path
         style="baseline-shift:baseline;display:inline;overflow:visible;opacity:1;vector-effect:none;stroke-linecap:round;stroke-linejoin:round;stroke-miterlimit:10;enable-background:accumulate;stop-color:#000000;stop-opacity:1"
         d="m 264.17773,706.08984 -17.15039,10.13086 a 0.36000001,0.36000001 0 0 0 -0.12695,0.49219 0.36000001,0.36000001 0 0 0 0.49219,0.12695 l 17.15039,-10.1289 a 0.36000001,0.36000001 0 0 0 0.12695,-0.49414 0.36000001,0.36000001 0 0 0 -0.49219,-0.12696 z"
         id="path21"
         transform="matrix(1.3333333,0,0,-1.3333333,0,1122.56)" />
      <path
         style="baseline-shift:baseline;display:inline;overflow:visible;opacity:1;vector-effect:none;stroke-linecap:round;stroke-linejoin:round;stroke-miterlimit:10;enable-background:accumulate;stop-color:#000000;stop-opacity:1"
         d="m 264.53711,706.08594 a 0.36000001,0.36000001 0 0 0 -0.49024,0.13672 0.36000001,0.36000001 0 0 0 0.13672,0.49023 l 17.34961,9.78125 a 0.36000001,0.36000001 0 0 0 0.49024,-0.13672 0.36000001,0.36000001 0 0 0 -0.13672,-0.49023 z"
         id="path22"
         transform="matrix(1.3333333,0,0,-1.3333333,0,1122.56)" />
      <path
         style="baseline-shift:baseline;display:inline;overflow:visible;opacity:1;vector-effect:none;stroke-linecap:round;stroke-linejoin:round;stroke-miterlimit:10;enable-background:accumulate;stop-color:#000000;stop-opacity:1"
         d="m 298.67773,705.74023 -17.15039,10.12891 a 0.36000001,0.36000001 0 0 0 -0.12695,0.49414 0.36000001,0.36000001 0 0 0 0.49219,0.12695 l 17.15039,-10.13086 a 0.36000001,0.36000001 0 0 0 0.12695,-0.49218 0.36000001,0.36000001 0 0 0 -0.49219,-0.12696 z"
         id="path23"
         transform="matrix(1.3333333,0,0,-1.3333333,0,1122.56)" />
      <path
         style="baseline-shift:baseline;display:inline;overflow:visible;opacity:1;vector-effect:none;stroke-linecap:round;stroke-linejoin:round;stroke-miterlimit:10;enable-background:accumulate;stop-color:#000000;stop-opacity:1"
         d="m 299.03711,705.73633 a 0.36000001,0.36000001 0 0 0 -0.49024,0.13672 0.36000001,0.36000001 0 0 0 0.13672,0.49023 l 17.35938,9.79102 a 0.36000001,0.36000001 0 0 0 0.49023,-0.13672 0.36000001,0.36000001 0 0 0 -0.13672,-0.49024 z"
         id="path24"
         transform="matrix(1.3333333,0,0,-1.3333333,0,1122.56)" />
      <path
         style="baseline-shift:baseline;display:inline;overflow:visible;opacity:1;vector-effect:none;stroke-linecap:round;stroke-linejoin:round;stroke-miterlimit:10;enable-background:accumulate;stop-color:#000000;stop-opacity:1"
         d="m 333.1875,705.39062 -17.15039,10.13868 a 0.36000001,0.36000001 0 0 0 -0.12695,0.49414 0.36000001,0.36000001 0 0 0 0.49218,0.12695 l 17.15039,-10.14062 a 0.36000001,0.36000001 0 0 0 0.12696,-0.49219 0.36000001,0.36000001 0 0 0 -0.49219,-0.12696 z"
         id="path25"
         transform="matrix(1.3333333,0,0,-1.3333333,0,1122.56)" />
      <path
         style="baseline-shift:baseline;display:inline;overflow:visible;opacity:1;vector-effect:none;stroke-linecap:round;stroke-linejoin:round;stroke-miterlimit:10;enable-background:accumulate;stop-color:#000000;stop-opacity:1"
         d="m 333.54687,705.38672 a 0.36000001,0.36000001 0 0 0 -0.49023,0.13672 0.36000001,0.36000001 0 0 0 0.13672,0.49023 l 17.34961,9.78906 a 0.36000001,0.36000001 0 0 0 0.49023,-0.13671 0.36000001,0.36000001 0 0 0 -0.13672,-0.49024 z"
         id="path26"
         transform="matrix(1.3333333,0,0,-1.3333333,0,1122.56)" />
      <path
         style="baseline-shift:baseline;display:inline;overflow:visible;opacity:1;vector-effect:none;stroke-linecap:round;stroke-linejoin:round;stroke-miterlimit:10;enable-background:accumulate;stop-color:#000000;stop-opacity:1"
         d="m 362.69727,707.99023 -12.16016,7.18946 a 0.36000001,0.36000001 0 0 0 -0.12695,0.49414 0.36000001,0.36000001 0 0 0 0.49218,0.12695 l 12.16016,-7.19141 a 0.36000001,0.36000001 0 0 0 0.12695,-0.49218 0.36000001,0.36000001 0 0 0 -0.49218,-0.12696 z"
         id="path27"
         transform="matrix(1.3333333,0,0,-1.3333333,0,1122.56)" />
      <path
         style="baseline-shift:baseline;display:inline;overflow:visible;opacity:1;vector-effect:none;stroke-linecap:round;stroke-linejoin:round;stroke-miterlimit:10;enable-background:accumulate;stop-color:#000000;stop-opacity:1"
         d="m 352.39648,715.10937 a 0.36000001,0.36000001 0 0 0 -0.35742,0.36524 l 0.15039,14.84961 a 0.36000001,0.36000001 0 0 0 0.36328,0.35547 0.36000001,0.36000001 0 0 0 0.35743,-0.36328 l -0.15039,-14.84961 a 0.36000001,0.36000001 0 0 0 -0.36329,-0.35743 z"
         id="path28"
         transform="matrix(1.3333333,0,0,-1.3333333,0,1122.56)" />
      <path
         style="baseline-shift:baseline;display:inline;overflow:visible;opacity:1;vector-effect:none;stroke-linecap:round;stroke-linejoin:round;stroke-miterlimit:10;enable-background:accumulate;stop-color:#000000;stop-opacity:1"
         d="m 349.03711,715.15039 a 0.36000001,0.36000001 0 0 0 -0.35742,0.36328 l 0.15039,14.81055 a 0.36000001,0.36000001 0 0 0 0.36328,0.35547 0.36000001,0.36000001 0 0 0 0.35742,-0.36328 l -0.15039,-14.81055 a 0.36000001,0.36000001 0 0 0 -0.36328,-0.35547 z"
         id="path29"
         transform="matrix(1.3333333,0,0,-1.3333333,0,1122.56)" />
      <path
         style="baseline-shift:baseline;display:inline;overflow:visible;opacity:1;vector-effect:none;stroke-linecap:round;stroke-linejoin:round;stroke-miterlimit:10;enable-background:accumulate;stop-color:#000000;stop-opacity:1"
         d="m 372.89648,707.79687 a 0.36000001,0.36000001 0 0 0 -0.49023,0.13672 0.36000001,0.36000001 0 0 0 0.13672,0.49024 l 12.48047,7.05859 a 0.36000001,0.36000001 0 0 0 0.49023,-0.13476 0.36000001,0.36000001 0 0 0 -0.13672,-0.49024 z"
         id="path30"
         transform="matrix(1.3333333,0,0,-1.3333333,0,1122.56)" />
      <path
         style="baseline-shift:baseline;display:inline;overflow:visible;opacity:1;vector-effect:none;stroke-linecap:round;stroke-linejoin:round;stroke-miterlimit:10;enable-background:accumulate;stop-color:#000000;stop-opacity:1"
         d="m 402.1875,704.75977 -17.16992,10.0996 a 0.36000001,0.36000001 0 0 0 -0.12696,0.49219 0.36000001,0.36000001 0 0 0 0.49219,0.12891 l 17.16992,-10.09961 a 0.36000001,0.36000001 0 0 0 0.12696,-0.49414 0.36000001,0.36000001 0 0 0 -0.49219,-0.12695 z"
         id="path31"
         transform="matrix(1.3333333,0,0,-1.3333333,0,1122.56)" />
      <path
         style="baseline-shift:baseline;display:inline;overflow:visible;opacity:1;vector-effect:none;stroke-linecap:round;stroke-linejoin:round;stroke-miterlimit:10;enable-background:accumulate;stop-color:#000000;stop-opacity:1"
         d="m 402.54687,704.75586 a 0.36000001,0.36000001 0 0 0 -0.49023,0.13672 0.36000001,0.36000001 0 0 0 0.13672,0.49023 l 17.33008,9.82031 a 0.36000001,0.36000001 0 0 0 0.49023,-0.13476 0.36000001,0.36000001 0 0 0 -0.13672,-0.49219 z"
         id="path32"
         transform="matrix(1.3333333,0,0,-1.3333333,0,1122.56)" />
      <path
         style="baseline-shift:baseline;display:inline;overflow:visible;opacity:1;vector-effect:none;stroke-linecap:round;stroke-linejoin:round;stroke-miterlimit:10;enable-background:accumulate;stop-color:#000000;stop-opacity:1"
         d="m 431.81836,707.33984 -12.30078,7.24024 a 0.36000001,0.36000001 0 0 0 -0.12696,0.49219 0.36000001,0.36000001 0 0 0 0.49219,0.1289 l 12.29883,-7.24023 a 0.36000001,0.36000001 0 0 0 0.12891,-0.49414 0.36000001,0.36000001 0 0 0 -0.49219,-0.12696 z"
         id="path33"
         transform="matrix(1.3333333,0,0,-1.3333333,0,1122.56)" />
      <path
         style="baseline-shift:baseline;display:inline;overflow:visible;opacity:1;vector-effect:none;stroke-linecap:round;stroke-linejoin:round;stroke-miterlimit:10;enable-background:accumulate;stop-color:#000000;stop-opacity:1"
         d="m 402.24805,689.88086 a 0.36000001,0.36000001 0 0 0 -0.35743,0.36133 l 0.11915,14.83008 a 0.36000001,0.36000001 0 0 0 0.36328,0.35742 0.36000001,0.36000001 0 0 0 0.35742,-0.36328 l -0.1211,-14.83008 a 0.36000001,0.36000001 0 0 0 -0.36132,-0.35547 z"
         id="path34"
         transform="matrix(1.3333333,0,0,-1.3333333,0,1122.56)" />
      <path
         id="path35"
         d="m 5.8705078,-2.5092188 0.9492188,0.234375 c -0.1962891,0.7822266 -0.5507813,1.37695317 -1.0664063,1.78125005 -0.515625,0.40722656 -1.1484375,0.609375 -1.8984375,0.609375 -0.7675781,0 -1.3916015,-0.15527344 -1.875,-0.46875 C 1.4935547,-0.66351563 1.1244141,-1.1176172 0.86660156,-1.7123438 c -0.25195312,-0.5917968 -0.375,-1.2333984 -0.375,-1.921875 0,-0.7412109 0.140625,-1.3886718 0.421875,-1.9453125 C 1.2005859,-6.1332422 1.6078125,-6.5551172 2.1322266,-6.8451563 2.6625,-7.1322656 3.2455078,-7.27875 3.8783203,-7.27875 c 0.7089844,0 1.3066406,0.1845703 1.7929688,0.5507812 0.4921875,0.3603516 0.8349609,0.8730469 1.03125,1.5351563 l -0.9375,0.2226562 C 5.6009766,-5.4916406 5.3578125,-5.8725 5.0384766,-6.106875 4.725,-6.3471094 4.3294922,-6.4701563 3.8548828,-6.4701563 c -0.5478515,0 -1.0078125,0.1347657 -1.3828125,0.3984375 -0.3691406,0.2666016 -0.6269531,0.6210938 -0.7734375,1.0664063 -0.149414,0.4394531 -0.2226562,0.8964844 -0.2226562,1.3710937 0,0.609375 0.084961,1.1425782 0.2578125,1.59375 0.1787109,0.4541016 0.4570312,0.7939454 0.8320312,1.0195313 0.375,0.21972656 0.7792969,0.328125 1.21875,0.328125 0.5302735,0 0.9785156,-0.15234375 1.3476563,-0.4570313 0.3662109,-0.3046875 0.6123047,-0.7558593 0.7382812,-1.359375 z m 0,0"
         style="fill:#000000;fill-opacity:1;fill-rule:nonzero;stroke:none"
         aria-label="C"
         transform="matrix(1.3333333,0,0,1.3333333,67.2,294.08)" />
      <path
         id="path36"
         d="M 0.79675781,-0.00140625 V -7.1615625 H 1.7459766 v 2.9414062 h 3.7148437 v -2.9414062 h 0.9492188 v 7.16015625 H 5.4608203 V -3.3764063 H 1.7459766 v 3.37500005 z m 0,0"
         style="fill:#000000;fill-opacity:1;fill-rule:nonzero;stroke:none"
         aria-label="H"
         transform="matrix(1.3333333,0,0,1.3333333,51.84,294.08)" />
      <path
         id="path37"
         d="m 0.34089844,-1.5105469 0.70312496,-0.09375 c 0.076172,0.3984375 0.2138672,0.68847659 0.4101563,0.86718753 0.1933594,0.17285156 0.4277344,0.2578125 0.703125,0.2578125 0.3339844,0 0.6152344,-0.11132813 0.84375,-0.33984375 0.2255859,-0.23437498 0.3398437,-0.51855468 0.3398437,-0.85546878 0,-0.3193359 -0.1054687,-0.5859375 -0.3164062,-0.796875 -0.2109375,-0.2109375 -0.4804688,-0.3164062 -0.8085938,-0.3164062 -0.1347656,0 -0.2988281,0.029297 -0.4921875,0.082031 l 0.082031,-0.6210937 c 0.046875,0.00879 0.082031,0.011719 0.1054687,0.011719 0.3046875,0 0.5742188,-0.076172 0.8085938,-0.234375 0.2402344,-0.1552734 0.3632812,-0.3984375 0.3632812,-0.7265625 0,-0.2578125 -0.09082,-0.4716797 -0.2695312,-0.6445312 -0.1728516,-0.1699219 -0.3955078,-0.2578125 -0.6679688,-0.2578125 -0.2753906,0 -0.5039062,0.087891 -0.6914062,0.2578125 -0.1816406,0.1728515 -0.2929688,0.430664 -0.3398438,0.7734375 L 0.41121094,-4.2644531 c 0.0849609,-0.4746094 0.28125,-0.84375 0.5859375,-1.1015625 0.30468746,-0.2578125 0.68261716,-0.3867188 1.13671876,-0.3867188 0.3105469,0 0.5976562,0.067383 0.8554687,0.1992188 0.2636719,0.1347656 0.46875,0.3164062 0.609375,0.5507812 0.140625,0.234375 0.2109375,0.4804688 0.2109375,0.7382813 0,0.2519531 -0.067383,0.477539 -0.1992187,0.6796875 -0.1347656,0.2050781 -0.3339844,0.3632812 -0.5976563,0.4804687 0.3427735,0.079102 0.609375,0.2431641 0.796875,0.4921875 0.1875,0.2431641 0.28125,0.5507813 0.28125,0.9257813 0,0.5009765 -0.1845703,0.92578123 -0.5507812,1.27734373 -0.3691406,0.34570312 -0.8291016,0.515625 -1.3828125,0.515625 -0.5009766,0 -0.9199219,-0.14648438 -1.25390626,-0.4453125 -0.328125,-0.3046875 -0.515625,-0.69433593 -0.5625,-1.17187503 z m 0,0"
         style="fill:#000000;fill-opacity:1;fill-rule:nonzero;stroke:none"
         aria-label="3"
         transform="matrix(1.3333333,0,0,1.3333333,61.44,297.6)" />
      <path
         id="path38"
         d="m 0.4809375,-3.4817578 c 0,-1.1865235 0.31933594,-2.1152344 0.9609375,-2.7890625 0.6386719,-0.6708985 1.4648438,-1.0078125 2.4726563,-1.0078125 0.65625,0 1.2480468,0.1582031 1.78125,0.46875 0.5302734,0.3134765 0.9316406,0.7558594 1.2070312,1.3242187 0.28125,0.5625 0.421875,1.2041016 0.421875,1.921875 0,0.7207032 -0.1494141,1.3681641 -0.4453125,1.9453125 -0.2900391,0.5712891 -0.703125,1.00488285 -1.2421875,1.30078129 -0.5332031,0.29003906 -1.1103516,0.43359375 -1.734375,0.43359375 -0.6738281,0 -1.2744141,-0.15820313 -1.8046875,-0.48046875 C 1.5649219,-0.69269531 1.1635547,-1.1380078 0.89109375,-1.7005078 0.61570313,-2.2630078 0.4809375,-2.8548047 0.4809375,-3.4817578 Z m 0.984375,0.011719 c 0,0.8613282 0.2285156,1.5410157 0.6914063,2.0390625 0.4599609,0.49218754 1.0429687,0.73828129 1.7460937,0.73828129 0.7089844,0 1.2949219,-0.24902344 1.7578125,-0.74999999 0.4599609,-0.4980469 0.6914063,-1.209961 0.6914063,-2.1328125 0,-0.5771485 -0.1025391,-1.0839844 -0.3046875,-1.5234375 -0.1962891,-0.4365235 -0.4863282,-0.7734375 -0.8671875,-1.0078125 -0.375,-0.2402344 -0.796875,-0.3632813 -1.265625,-0.3632813 -0.6738282,0 -1.2509766,0.2314453 -1.734375,0.6914063 -0.4775391,0.4628906 -0.7148438,1.2304687 -0.7148438,2.3085937 z m 0,0"
         style="fill:#000000;fill-opacity:1;fill-rule:nonzero;stroke:none"
         aria-label="O"
         transform="matrix(1.3333333,0,0,1.3333333,480.64,298.24)" />
      <path
         id="path39"
         d="m 0.47917969,-3.4790625 c 0,-1.1865234 0.31933593,-2.1152344 0.96093751,-2.7890625 0.6386719,-0.6708984 1.4648437,-1.0078125 2.4726562,-1.0078125 0.65625,0 1.2480469,0.1582031 1.78125,0.46875 0.5302735,0.3134766 0.9316407,0.7558594 1.2070313,1.3242188 0.28125,0.5625 0.421875,1.2041015 0.421875,1.921875 0,0.7207031 -0.1494141,1.368164 -0.4453125,1.9453125 -0.2900391,0.571289 -0.703125,1.00488276 -1.2421875,1.3007812 -0.5332031,0.29003906 -1.1103516,0.43359375 -1.734375,0.43359375 -0.6738281,0 -1.2744141,-0.15820312 -1.8046875,-0.48046875 C 1.5631641,-0.69 1.1617969,-1.1353125 0.88933594,-1.6978125 c -0.27539063,-0.5625 -0.41015625,-1.1542969 -0.41015625,-1.78125 z m 0.98437501,0.011719 c 0,0.8613281 0.2285156,1.5410156 0.6914062,2.0390625 0.459961,0.49218725 1.0429688,0.738281 1.7460938,0.738281 0.7089844,0 1.2949219,-0.24902344 1.7578125,-0.75 0.4599609,-0.4980469 0.6914062,-1.2099609 0.6914062,-2.1328125 0,-0.5771484 -0.102539,-1.0839844 -0.3046875,-1.5234375 -0.196289,-0.4365234 -0.4863281,-0.7734375 -0.8671875,-1.0078125 -0.375,-0.2402344 -0.796875,-0.3632812 -1.265625,-0.3632812 -0.6738281,0 -1.2509765,0.2314453 -1.734375,0.6914062 -0.477539,0.4628906 -0.7148437,1.2304688 -0.7148437,2.308594 z m 0,0"
         style="fill:#000000;fill-opacity:1;fill-rule:nonzero;stroke:none"
         aria-label="O"
         transform="matrix(1.3333333,0,0,1.3333333,458.24,257.92)" />
      <path
         id="path40"
         d="m 0.47929688,-3.4796484 c 0,-1.1865235 0.31933593,-2.1152344 0.96093752,-2.7890625 0.6386719,-0.6708985 1.4648437,-1.0078125 2.4726562,-1.0078125 0.65625,0 1.2480469,0.1582031 1.78125,0.46875 0.5302735,0.3134765 0.9316407,0.7558593 1.2070313,1.3242187 0.28125,0.5625 0.421875,1.2041016 0.421875,1.921875 0,0.7207031 -0.1494141,1.3681641 -0.4453125,1.9453125 -0.2900391,0.5712891 -0.703125,1.00488283 -1.2421875,1.30078126 -0.5332031,0.29003907 -1.1103516,0.43359375 -1.734375,0.43359375 -0.6738281,0 -1.2744141,-0.15820312 -1.8046875,-0.48046875 -0.5332031,-0.328125 -0.9345703,-0.77343746 -1.20703127,-1.33593746 -0.27539063,-0.5625 -0.41015625,-1.1542969 -0.41015625,-1.78125 z m 0.98437502,0.011719 c 0,0.8613281 0.2285156,1.5410156 0.6914062,2.0390625 0.459961,0.49218751 1.0429688,0.73828126 1.7460938,0.73828126 0.7089844,0 1.2949219,-0.24902343 1.7578125,-0.74999996 0.4599609,-0.4980469 0.6914062,-1.209961 0.6914062,-2.1328125 0,-0.5771485 -0.102539,-1.0839844 -0.3046875,-1.5234375 -0.196289,-0.4365235 -0.4863281,-0.7734375 -0.8671875,-1.0078125 -0.375,-0.2402344 -0.796875,-0.3632813 -1.265625,-0.3632813 -0.6738281,0 -1.2509765,0.2314453 -1.734375,0.6914063 -0.477539,0.4628906 -0.7148437,1.2304687 -0.7148437,2.3085937 z m 0,0"
         style="fill:#000000;fill-opacity:1;fill-rule:nonzero;stroke:none"
         aria-label="O"
         transform="matrix(1.3333333,0,0,1.3333333,526.4,325.12)" />
      <path
         id="path41"
         d="M 0.79757813,8.203125e-4 V -7.1593359 H 1.7467969 v 2.9414062 H 5.4616406 V -7.1593359 H 6.4108594 V 8.203125e-4 H 5.4616406 V -3.3741797 H 1.7467969 V 8.203125e-4 Z m 0,0"
         style="fill:#000000;fill-opacity:1;fill-rule:nonzero;stroke:none"
         aria-label="H"
         transform="matrix(1.3333333,0,0,1.3333333,536.96,325.12)" />
      <path
         id="path42"
         d="m 0.47976563,-3.4794141 c 0,-1.1865234 0.31933593,-2.1152343 0.96093747,-2.7890625 0.6386719,-0.6708984 1.4648438,-1.0078125 2.4726563,-1.0078125 0.65625,0 1.2480469,0.1582032 1.78125,0.46875 0.5302734,0.3134766 0.9316406,0.7558594 1.2070312,1.3242188 0.28125,0.5625 0.421875,1.2041015 0.421875,1.921875 0,0.7207031 -0.149414,1.368164 -0.4453125,1.9453125 -0.290039,0.571289 -0.703125,1.0048828 -1.2421875,1.30078124 -0.5332031,0.29003906 -1.1103515,0.43359375 -1.734375,0.43359375 -0.6738281,0 -1.274414,-0.15820313 -1.8046875,-0.48046875 C 1.56375,-0.69035156 1.1623828,-1.1356641 0.88992188,-1.6981641 c -0.27539063,-0.5625 -0.41015625,-1.1542968 -0.41015625,-1.78125 z m 0.98437497,0.011719 c 0,0.8613281 0.2285157,1.5410156 0.6914063,2.0390625 0.4599609,0.49218749 1.0429687,0.73828124 1.7460937,0.73828124 0.7089844,0 1.2949219,-0.24902344 1.7578125,-0.75000004 0.459961,-0.4980468 0.6914063,-1.2099609 0.6914063,-2.1328125 0,-0.5771484 -0.1025391,-1.0839843 -0.3046875,-1.5234375 -0.1962891,-0.4365234 -0.4863281,-0.7734375 -0.8671875,-1.0078125 -0.375,-0.2402343 -0.796875,-0.3632812 -1.265625,-0.3632812 -0.6738281,0 -1.2509766,0.2314453 -1.734375,0.6914062 -0.4775391,0.4628907 -0.7148438,1.2304688 -0.7148438,2.3085938 z m 0,0"
         style="fill:#000000;fill-opacity:1;fill-rule:nonzero;stroke:none"
         aria-label="O"
         transform="matrix(1.3333333,0,0,1.3333333,527.04,245.44)" />
      <path
         id="path43"
         d="M 0.79804688,0.00105469 V -7.1591016 H 1.7472656 v 2.9414063 H 5.4621094 V -7.1591016 H 6.4113281 V 0.00105469 H 5.4621094 V -3.3739453 H 1.7472656 v 3.37499999 z m 0,0"
         style="fill:#000000;fill-opacity:1;fill-rule:nonzero;stroke:none"
         aria-label="H"
         transform="matrix(1.3333333,0,0,1.3333333,537.6,245.44)" />
      <path
         style="baseline-shift:baseline;display:inline;overflow:visible;opacity:1;vector-effect:none;stroke-linecap:round;stroke-linejoin:round;stroke-miterlimit:10;enable-background:accumulate;stop-color:#000000;stop-opacity:1"
         d="m 58.736328,627.69727 a 0.36000001,0.36000001 0 0 0 -0.490234,0.13671 0.36000001,0.36000001 0 0 0 0.136718,0.49024 l 12.791016,7.21875 a 0.36000001,0.36000001 0 0 0 0.490234,-0.13672 0.36000001,0.36000001 0 0 0 -0.136718,-0.49023 z"
         id="path44"
         transform="matrix(1.3333333,0,0,-1.3333333,0,1122.56)" />
      <path
         style="baseline-shift:baseline;display:inline;overflow:visible;opacity:1;vector-effect:none;stroke-linecap:round;stroke-linejoin:round;stroke-miterlimit:10;enable-background:accumulate;stop-color:#000000;stop-opacity:1"
         d="m 88.316406,624.7793 -17.15039,10.14062 a 0.36000001,0.36000001 0 0 0 -0.125,0.49414 0.36000001,0.36000001 0 0 0 0.492187,0.125 l 17.150391,-10.13867 a 0.36000001,0.36000001 0 0 0 0.126953,-0.49414 0.36000001,0.36000001 0 0 0 -0.494141,-0.12695 z"
         id="path45"
         transform="matrix(1.3333333,0,0,-1.3333333,0,1122.56)" />
      <path
         style="baseline-shift:baseline;display:inline;overflow:visible;opacity:1;vector-effect:none;stroke-linecap:round;stroke-linejoin:round;stroke-miterlimit:10;enable-background:accumulate;stop-color:#000000;stop-opacity:1"
         d="m 88.677734,624.77734 a 0.36000001,0.36000001 0 0 0 -0.492187,0.13477 0.36000001,0.36000001 0 0 0 0.136719,0.49219 l 17.351564,9.78906 a 0.36000001,0.36000001 0 0 0 0.49023,-0.13672 0.36000001,0.36000001 0 0 0 -0.13672,-0.49023 z"
         id="path46"
         transform="matrix(1.3333333,0,0,-1.3333333,0,1122.56)" />
      <path
         style="baseline-shift:baseline;display:inline;overflow:visible;opacity:1;vector-effect:none;stroke-linecap:round;stroke-linejoin:round;stroke-miterlimit:10;enable-background:accumulate;stop-color:#000000;stop-opacity:1"
         d="m 122.81641,624.43945 -17.15039,10.13086 a 0.36000001,0.36000001 0 0 0 -0.12696,0.49219 0.36000001,0.36000001 0 0 0 0.49414,0.12695 l 17.15039,-10.1289 a 0.36000001,0.36000001 0 0 0 0.12696,-0.49414 0.36000001,0.36000001 0 0 0 -0.49414,-0.12696 z"
         id="path47"
         transform="matrix(1.3333333,0,0,-1.3333333,0,1122.56)" />
      <path
         style="baseline-shift:baseline;display:inline;overflow:visible;opacity:1;vector-effect:none;stroke-linecap:round;stroke-linejoin:round;stroke-miterlimit:10;enable-background:accumulate;stop-color:#000000;stop-opacity:1"
         d="m 123.17773,624.43555 a 0.36000001,0.36000001 0 0 0 -0.49218,0.13672 0.36000001,0.36000001 0 0 0 0.13672,0.49218 l 17.35156,9.7793 a 0.36000001,0.36000001 0 0 0 0.49023,-0.13672 0.36000001,0.36000001 0 0 0 -0.13672,-0.49023 z"
         id="path48"
         transform="matrix(1.3333333,0,0,-1.3333333,0,1122.56)" />
      <path
         style="baseline-shift:baseline;display:inline;overflow:visible;opacity:1;vector-effect:none;stroke-linecap:round;stroke-linejoin:round;stroke-miterlimit:10;enable-background:accumulate;stop-color:#000000;stop-opacity:1"
         d="m 157.31641,624.08984 -17.15039,10.13086 a 0.36000001,0.36000001 0 0 0 -0.12696,0.49219 0.36000001,0.36000001 0 0 0 0.49414,0.12695 l 17.15039,-10.1289 a 0.36000001,0.36000001 0 0 0 0.12696,-0.49414 0.36000001,0.36000001 0 0 0 -0.49414,-0.12696 z"
         id="path49"
         transform="matrix(1.3333333,0,0,-1.3333333,0,1122.56)" />
      <path
         style="baseline-shift:baseline;display:inline;overflow:visible;opacity:1;vector-effect:none;stroke-linecap:round;stroke-linejoin:round;stroke-miterlimit:10;enable-background:accumulate;stop-color:#000000;stop-opacity:1"
         d="m 157.67773,624.08594 a 0.36000001,0.36000001 0 0 0 -0.49218,0.13672 0.36000001,0.36000001 0 0 0 0.13672,0.49023 l 17.35156,9.78125 a 0.36000001,0.36000001 0 0 0 0.49023,-0.13672 0.36000001,0.36000001 0 0 0 -0.13672,-0.49023 z"
         id="path50"
         transform="matrix(1.3333333,0,0,-1.3333333,0,1122.56)" />
      <path
         style="baseline-shift:baseline;display:inline;overflow:visible;opacity:1;vector-effect:none;stroke-linecap:round;stroke-linejoin:round;stroke-miterlimit:10;enable-background:accumulate;stop-color:#000000;stop-opacity:1"
         d="m 191.81641,623.74023 -17.15039,10.12891 a 0.36000001,0.36000001 0 0 0 -0.12696,0.49414 0.36000001,0.36000001 0 0 0 0.49414,0.12695 l 17.15039,-10.13086 a 0.36000001,0.36000001 0 0 0 0.12696,-0.49218 0.36000001,0.36000001 0 0 0 -0.49414,-0.12696 z"
         id="path51"
         transform="matrix(1.3333333,0,0,-1.3333333,0,1122.56)" />
      <path
         style="baseline-shift:baseline;display:inline;overflow:visible;opacity:1;vector-effect:none;stroke-linecap:round;stroke-linejoin:round;stroke-miterlimit:10;enable-background:accumulate;stop-color:#000000;stop-opacity:1"
         d="m 192.17773,623.73633 a 0.36000001,0.36000001 0 0 0 -0.49218,0.13672 0.36000001,0.36000001 0 0 0 0.13672,0.49023 l 17.35156,9.79102 a 0.36000001,0.36000001 0 0 0 0.49023,-0.13672 0.36000001,0.36000001 0 0 0 -0.13672,-0.49024 z"
         id="path52"
         transform="matrix(1.3333333,0,0,-1.3333333,0,1122.56)" />
      <path
         style="baseline-shift:baseline;display:inline;overflow:visible;opacity:1;vector-effect:none;stroke-linecap:round;stroke-linejoin:round;stroke-miterlimit:10;enable-background:accumulate;stop-color:#000000;stop-opacity:1"
         d="m 226.31641,623.39062 -17.15039,10.13868 a 0.36000001,0.36000001 0 0 0 -0.125,0.49414 0.36000001,0.36000001 0 0 0 0.49218,0.12695 l 17.15039,-10.14062 a 0.36000001,0.36000001 0 0 0 0.12696,-0.49219 0.36000001,0.36000001 0 0 0 -0.49414,-0.12696 z"
         id="path53"
         transform="matrix(1.3333333,0,0,-1.3333333,0,1122.56)" />
      <path
         style="baseline-shift:baseline;display:inline;overflow:visible;opacity:1;vector-effect:none;stroke-linecap:round;stroke-linejoin:round;stroke-miterlimit:10;enable-background:accumulate;stop-color:#000000;stop-opacity:1"
         d="m 226.67773,623.38672 a 0.36000001,0.36000001 0 0 0 -0.49218,0.13672 0.36000001,0.36000001 0 0 0 0.13672,0.49023 l 17.35156,9.78906 a 0.36000001,0.36000001 0 0 0 0.49023,-0.13671 0.36000001,0.36000001 0 0 0 -0.13672,-0.49024 z"
         id="path54"
         transform="matrix(1.3333333,0,0,-1.3333333,0,1122.56)" />
      <path
         style="baseline-shift:baseline;display:inline;overflow:visible;opacity:1;vector-effect:none;stroke-linecap:round;stroke-linejoin:round;stroke-miterlimit:10;enable-background:accumulate;stop-color:#000000;stop-opacity:1"
         d="m 260.81641,623.05078 -17.15039,10.12891 a 0.36000001,0.36000001 0 0 0 -0.12696,0.49414 0.36000001,0.36000001 0 0 0 0.49414,0.12695 l 17.15039,-10.13086 a 0.36000001,0.36000001 0 0 0 0.12696,-0.49219 0.36000001,0.36000001 0 0 0 -0.49414,-0.12695 z"
         id="path55"
         transform="matrix(1.3333333,0,0,-1.3333333,0,1122.56)" />
      <path
         style="baseline-shift:baseline;display:inline;overflow:visible;opacity:1;vector-effect:none;stroke-linecap:round;stroke-linejoin:round;stroke-miterlimit:10;enable-background:accumulate;stop-color:#000000;stop-opacity:1"
         d="m 261.17773,623.04687 a 0.36000001,0.36000001 0 0 0 -0.49218,0.13672 0.36000001,0.36000001 0 0 0 0.13672,0.49024 l 17.35156,9.77929 a 0.36000001,0.36000001 0 0 0 0.49023,-0.13671 0.36000001,0.36000001 0 0 0 -0.13672,-0.49024 z"
         id="path56"
         transform="matrix(1.3333333,0,0,-1.3333333,0,1122.56)" />
      <path
         style="baseline-shift:baseline;display:inline;overflow:visible;opacity:1;vector-effect:none;stroke-linecap:round;stroke-linejoin:round;stroke-miterlimit:10;enable-background:accumulate;stop-color:#000000;stop-opacity:1"
         d="m 295.31641,622.69922 -17.15039,10.13086 a 0.36000001,0.36000001 0 0 0 -0.12696,0.49219 0.36000001,0.36000001 0 0 0 0.49414,0.12695 l 17.15039,-10.12891 a 0.36000001,0.36000001 0 0 0 0.12696,-0.49414 0.36000001,0.36000001 0 0 0 -0.49414,-0.12695 z"
         id="path57"
         transform="matrix(1.3333333,0,0,-1.3333333,0,1122.56)" />
      <path
         style="baseline-shift:baseline;display:inline;overflow:visible;opacity:1;vector-effect:none;stroke-linecap:round;stroke-linejoin:round;stroke-miterlimit:10;enable-background:accumulate;stop-color:#000000;stop-opacity:1"
         d="m 295.67773,622.69727 a 0.36000001,0.36000001 0 0 0 -0.49218,0.13671 0.36000001,0.36000001 0 0 0 0.13672,0.49024 l 17.36132,9.78906 a 0.36000001,0.36000001 0 0 0 0.49024,-0.13672 0.36000001,0.36000001 0 0 0 -0.13672,-0.49023 z"
         id="path58"
         transform="matrix(1.3333333,0,0,-1.3333333,0,1122.56)" />
      <path
         style="baseline-shift:baseline;display:inline;overflow:visible;opacity:1;vector-effect:none;stroke-linecap:round;stroke-linejoin:round;stroke-miterlimit:10;enable-background:accumulate;stop-color:#000000;stop-opacity:1"
         d="m 329.82617,622.34961 -17.14844,10.14062 a 0.36000001,0.36000001 0 0 0 -0.12695,0.49219 0.36000001,0.36000001 0 0 0 0.49219,0.12695 l 17.15039,-10.13867 a 0.36000001,0.36000001 0 0 0 0.12695,-0.49414 0.36000001,0.36000001 0 0 0 -0.49414,-0.12695 z"
         id="path59"
         transform="matrix(1.3333333,0,0,-1.3333333,0,1122.56)" />
      <path
         style="baseline-shift:baseline;display:inline;overflow:visible;opacity:1;vector-effect:none;stroke-linecap:round;stroke-linejoin:round;stroke-miterlimit:10;enable-background:accumulate;stop-color:#000000;stop-opacity:1"
         d="m 330.1875,622.3457 a 0.36000001,0.36000001 0 0 0 -0.49023,0.13672 0.36000001,0.36000001 0 0 0 0.13671,0.49024 l 17.34961,9.79101 a 0.36000001,0.36000001 0 0 0 0.49024,-0.13672 0.36000001,0.36000001 0 0 0 -0.13672,-0.49023 z"
         id="path60"
         transform="matrix(1.3333333,0,0,-1.3333333,0,1122.56)" />
      <path
         style="baseline-shift:baseline;display:inline;overflow:visible;opacity:1;vector-effect:none;stroke-linecap:round;stroke-linejoin:round;stroke-miterlimit:10;enable-background:accumulate;stop-color:#000000;stop-opacity:1"
         d="m 359.33594,624.94922 -12.15821,7.1914 a 0.36000001,0.36000001 0 0 0 -0.12695,0.49219 0.36000001,0.36000001 0 0 0 0.49219,0.12696 l 12.16015,-7.18946 a 0.36000001,0.36000001 0 0 0 0.12696,-0.49414 0.36000001,0.36000001 0 0 0 -0.49414,-0.12695 z"
         id="path61"
         transform="matrix(1.3333333,0,0,-1.3333333,0,1122.56)" />
      <path
         style="baseline-shift:baseline;display:inline;overflow:visible;opacity:1;vector-effect:none;stroke-linecap:round;stroke-linejoin:round;stroke-miterlimit:10;enable-background:accumulate;stop-color:#000000;stop-opacity:1"
         d="m 349.03711,632.07031 a 0.36000001,0.36000001 0 0 0 -0.35742,0.36328 l 0.15039,14.84961 a 0.36000001,0.36000001 0 0 0 0.36328,0.35742 0.36000001,0.36000001 0 0 0 0.35742,-0.36523 l -0.15039,-14.84961 a 0.36000001,0.36000001 0 0 0 -0.36328,-0.35547 z"
         id="path62"
         transform="matrix(1.3333333,0,0,-1.3333333,0,1122.56)" />
      <path
         style="baseline-shift:baseline;display:inline;overflow:visible;opacity:1;vector-effect:none;stroke-linecap:round;stroke-linejoin:round;stroke-miterlimit:10;enable-background:accumulate;stop-color:#000000;stop-opacity:1"
         d="m 345.67578,632.10937 a 0.36000001,0.36000001 0 0 0 -0.35547,0.36524 l 0.15039,14.80859 a 0.36000001,0.36000001 0 0 0 0.36328,0.35742 0.36000001,0.36000001 0 0 0 0.35547,-0.36523 l -0.15039,-14.80859 a 0.36000001,0.36000001 0 0 0 -0.36328,-0.35743 z"
         id="path63"
         transform="matrix(1.3333333,0,0,-1.3333333,0,1122.56)" />
      <path
         style="baseline-shift:baseline;display:inline;overflow:visible;opacity:1;vector-effect:none;stroke-linecap:round;stroke-linejoin:round;stroke-miterlimit:10;enable-background:accumulate;stop-color:#000000;stop-opacity:1"
         d="m 369.53711,624.75586 a 0.36000001,0.36000001 0 0 0 -0.49024,0.13672 0.36000001,0.36000001 0 0 0 0.13672,0.49023 l 12.47852,7.06055 a 0.36000001,0.36000001 0 0 0 0.49219,-0.13672 0.36000001,0.36000001 0 0 0 -0.13672,-0.49023 z"
         id="path64"
         transform="matrix(1.3333333,0,0,-1.3333333,0,1122.56)" />
      <path
         style="baseline-shift:baseline;display:inline;overflow:visible;opacity:1;vector-effect:none;stroke-linecap:round;stroke-linejoin:round;stroke-miterlimit:10;enable-background:accumulate;stop-color:#000000;stop-opacity:1"
         d="m 398.82812,621.71875 -17.16992,10.10156 a 0.36000001,0.36000001 0 0 0 -0.1289,0.49219 0.36000001,0.36000001 0 0 0 0.49414,0.12695 l 17.16992,-10.09961 a 0.36000001,0.36000001 0 0 0 0.12695,-0.49218 0.36000001,0.36000001 0 0 0 -0.49219,-0.12891 z"
         id="path65"
         transform="matrix(1.3333333,0,0,-1.3333333,0,1122.56)" />
      <path
         style="baseline-shift:baseline;display:inline;overflow:visible;opacity:1;vector-effect:none;stroke-linecap:round;stroke-linejoin:round;stroke-miterlimit:10;enable-background:accumulate;stop-color:#000000;stop-opacity:1"
         d="m 398.88672,606.83984 a 0.36000001,0.36000001 0 0 0 -0.35742,0.36328 l 0.12109,14.83008 a 0.36000001,0.36000001 0 0 0 0.36328,0.35742 0.36000001,0.36000001 0 0 0 0.35547,-0.36328 L 399.25,607.19727 a 0.36000001,0.36000001 0 0 0 -0.36328,-0.35743 z"
         id="path66"
         transform="matrix(1.3333333,0,0,-1.3333333,0,1122.56)" />
      <path
         style="baseline-shift:baseline;display:inline;overflow:visible;opacity:1;vector-effect:none;stroke-linecap:round;stroke-linejoin:round;stroke-miterlimit:10;enable-background:accumulate;stop-color:#000000;stop-opacity:1"
         d="m 381.83789,631.76953 a 0.36000001,0.36000001 0 0 0 -0.35742,0.36328 l 0.16015,19.91992 a 0.36000001,0.36000001 0 0 0 0.36133,0.35743 0.36000001,0.36000001 0 0 0 0.35742,-0.36329 l -0.16015,-19.91992 a 0.36000001,0.36000001 0 0 0 -0.36133,-0.35742 z"
         id="path67"
         transform="matrix(1.3333333,0,0,-1.3333333,0,1122.56)" />
      <path
         style="baseline-shift:baseline;display:inline;overflow:visible;opacity:1;vector-effect:none;stroke-linecap:round;stroke-linejoin:round;stroke-miterlimit:10;enable-background:accumulate;stop-color:#000000;stop-opacity:1"
         d="m 382.17773,651.73633 a 0.36000001,0.36000001 0 0 0 -0.49023,0.13672 0.36000001,0.36000001 0 0 0 0.13477,0.49023 l 12.32031,6.98047 a 0.36000001,0.36000001 0 0 0 0.49023,-0.13672 0.36000001,0.36000001 0 0 0 -0.13476,-0.49023 z"
         id="path68"
         transform="matrix(1.3333333,0,0,-1.3333333,0,1122.56)" />
    </g>
  </g>
</svg>
