<svg version="1.1" id="Layer_1" xmlns="http://www.w3.org/2000/svg" xmlns:xlink="http://www.w3.org/1999/xlink" x="0px" y="0px"
	 width="100%" viewBox="0 0 565 272" enable-background="new 0 0 565 272" xml:space="preserve">
<path fill="none" opacity="1.000000" stroke="#000000" stroke-linecap="round" stroke-linejoin="round" stroke-width="2.000000"
	d="
M34.500000,99.500000 
	C28.503958,106.784996 25.839279,115.677017 24.179279,124.533600 
	C20.287115,145.299454 22.980888,165.341522 33.522621,183.987213 
	C33.674759,184.256317 34.166668,184.333328 34.500004,184.500000 
"/>
<path fill="none" opacity="1.000000" stroke="#000000" stroke-linecap="round" stroke-linejoin="round" stroke-width="2.000000"
	d="
M553.000000,143.000000 
	C551.960632,152.865417 550.854919,162.673538 547.097717,172.039200 
	C545.306763,176.503326 543.046326,180.688049 541.000000,185.000000 
"/>
<path fill="none" opacity="1.000000" stroke="#000000" stroke-linecap="round" stroke-linejoin="round" stroke-width="2.000000"
	d="
M541.500000,100.500000 
	C546.860535,107.631607 548.899170,116.112854 550.920776,124.519058 
	C552.250549,130.048676 552.804626,135.762329 552.500000,141.500000 
"/>
<path fill="none" opacity="1.000000" stroke="#000000" stroke-linecap="round" stroke-linejoin="round" stroke-width="2.000000"
	d="
M211.500000,158.500000 
	C211.500000,166.833328 211.500000,175.166672 211.500000,183.500000 
"/>
<path fill="none" opacity="1.000000" stroke="#000000" stroke-linecap="round" stroke-linejoin="round" stroke-width="2.000000"
	d="
M242.500000,82.500000 
	C242.500000,90.500000 242.500000,98.500000 242.500000,106.500000 
"/>
<path fill="none" opacity="1.000000" stroke="#000000" stroke-linecap="round" stroke-linejoin="round" stroke-width="2.000000"
	d="
M372.500000,159.500000 
	C372.500000,167.500000 372.500000,175.500000 372.500000,183.500000 
"/>
<path fill="none" opacity="1.000000" stroke="#000000" stroke-linecap="round" stroke-linejoin="round" stroke-width="2.000000"
	d="
M81.500000,82.500000 
	C81.500000,90.166664 81.500000,97.833336 81.500000,105.500000 
"/>
<path fill="none" opacity="1.000000" stroke="#000000" stroke-linecap="round" stroke-linejoin="round" stroke-width="2.000000"
	d="
M89.500000,203.500000 
	C89.500000,211.833328 89.500000,220.166672 89.500000,228.500000 
"/>
<path fill="none" opacity="1.000000" stroke="#000000" stroke-linecap="round" stroke-linejoin="round" stroke-width="2.000000"
	d="
M66.500000,243.500000 
	C66.500000,249.833328 66.500000,256.166656 66.500000,262.500000 
"/>
<path fill="none" opacity="1.000000" stroke="#000000" stroke-linecap="round" stroke-linejoin="round" stroke-width="2.000000"
	d="
M81.500000,140.500000 
	C81.218826,146.330063 82.078644,152.192719 81.000000,158.000000 
"/>
<path fill="none" opacity="1.000000" stroke="#000000" stroke-linecap="round" stroke-linejoin="round" stroke-width="2.000000"
	d="
M211.500000,108.000000 
	C211.500000,113.833336 211.500000,119.666664 211.500000,125.500000 
"/>
<path fill="none" opacity="1.000000" stroke="#000000" stroke-linecap="round" stroke-linejoin="round" stroke-width="2.000000"
	d="
M449.500000,233.500000 
	C449.500000,240.166672 449.500000,246.833328 449.500000,253.500000 
"/>
<path fill="none" opacity="1.000000" stroke="#000000" stroke-linecap="round" stroke-linejoin="round" stroke-width="2.000000"
	d="
M280.500000,48.500000 
	C279.204803,47.245010 277.572937,47.505104 275.537567,47.507687 
	C275.667572,49.610962 274.657288,51.834896 276.969147,53.478062 
	C278.824982,53.985378 278.941895,51.481628 280.500000,51.500000 
"/>
<path fill="none" opacity="1.000000" stroke="#000000" stroke-linecap="round" stroke-linejoin="round" stroke-width="2.000000"
	d="
M451.500000,258.500000 
	C449.807190,256.931458 448.347717,256.892151 446.977539,258.985291 
	C445.948944,260.556610 446.613129,262.083405 447.569916,262.920044 
	C449.308868,264.440552 450.712494,263.455566 451.500000,261.500000 
"/>
<path fill="none" opacity="1.000000" stroke="#000000" stroke-linecap="round" stroke-linejoin="round" stroke-width="2.000000"
	d="
M91.500000,45.500000 
	C89.697250,44.305805 87.710655,43.671162 86.615417,46.053070 
	C86.131966,47.104496 85.860168,48.987583 87.498924,50.001732 
	C89.488800,51.233170 90.712502,50.455566 91.500000,48.500000 
"/>
<path fill="none" opacity="1.000000" stroke="#000000" stroke-linecap="round" stroke-linejoin="round" stroke-width="2.000000"
	d="
M221.500000,218.500000 
	C220.413818,216.356125 218.814636,218.316208 217.601547,217.249268 
	C216.647659,224.301270 216.647659,224.301270 221.500000,222.500000 
"/>
<path fill="none" opacity="1.000000" stroke="#000000" stroke-linecap="round" stroke-linejoin="round" stroke-width="2.000000"
	d="
M474.500000,187.500000 
	C472.422241,185.233368 471.359161,187.337570 469.982971,188.479492 
	C468.663361,189.574478 469.767639,190.960815 470.110504,191.416946 
	C471.327240,193.035706 473.000000,193.188248 474.500000,191.500000 
"/>
<path fill="none" opacity="1.000000" stroke="#000000" stroke-linecap="round" stroke-linejoin="round" stroke-width="2.000000"
	d="
M382.500000,187.500000 
	C378.514526,186.442978 378.005737,187.015366 378.513489,192.136185 
	C379.890991,192.294479 381.391632,193.466278 382.500000,191.500000 
"/>
<path fill="none" opacity="1.000000" stroke="#000000" stroke-linecap="round" stroke-linejoin="round" stroke-width="2.000000"
	d="
M286.500000,73.500000 
	C285.000000,71.377274 283.439362,72.186546 282.019196,73.520424 
	C280.884857,74.585846 281.256287,76.270149 282.076904,76.899757 
	C283.375671,77.896210 285.320923,79.554970 286.500000,76.500000 
"/>
<path fill="none" opacity="1.000000" stroke="#000000" stroke-linecap="round" stroke-linejoin="round" stroke-width="2.000000"
	d="
M252.500000,73.500000 
	C250.561798,70.951324 248.750595,72.269028 247.606155,74.067551 
	C246.941986,75.111320 247.653488,76.480484 248.933975,77.577095 
	C251.035202,79.376625 251.731827,78.228081 252.500000,76.500000 
"/>
<path fill="none" opacity="1.000000" stroke="#000000" stroke-linecap="round" stroke-linejoin="round" stroke-width="2.000000"
	d="
M271.500000,73.500000 
	C270.000000,71.377274 268.041199,71.993080 267.147156,73.582764 
	C266.449097,74.823952 266.666809,76.867073 268.483307,78.026176 
	C270.509857,79.319321 270.845154,77.690323 271.500000,76.500000 
"/>
<path fill="none" opacity="1.000000" stroke="#000000" stroke-linecap="round" stroke-linejoin="round" stroke-width="2.000000"
	d="
M482.500000,129.500000 
	C480.801880,129.676010 478.485748,127.745399 477.602814,130.532578 
	C477.247070,131.655563 476.803436,133.446304 478.033386,134.459457 
	C479.754333,135.876999 481.116821,134.359085 482.500000,133.500000 
"/>
<path fill="none" opacity="1.000000" stroke="#000000" stroke-linecap="round" stroke-linejoin="round" stroke-width="2.000000"
	d="
M91.500000,130.500000 
	C89.801865,130.676010 87.544182,128.757507 86.552727,131.518936 
	C85.880089,133.392334 86.884003,134.985352 88.518677,135.968964 
	C89.573875,136.603897 89.998482,134.912872 91.000000,135.000000 
"/>
<path fill="none" opacity="1.000000" stroke="#000000" stroke-linecap="round" stroke-linejoin="round" stroke-width="2.000000"
	d="
M213.500000,187.500000 
	C211.985519,186.217545 210.558548,186.070572 209.520676,188.011063 
	C208.838882,189.285843 208.616959,190.978271 209.570587,191.929199 
	C211.120438,193.474640 212.896454,192.297913 214.500000,191.500000 
"/>
<path fill="none" opacity="1.000000" stroke="#000000" stroke-linecap="round" stroke-linejoin="round" stroke-width="3.000000"
	d="
M373.000000,3.000000 
	C369.364563,2.743036 370.101440,5.400966 370.000000,7.500000 
"/>
<path fill="none" opacity="1.000000" stroke="#000000" stroke-linecap="round" stroke-linejoin="round" stroke-width="2.000000"
	d="
M512.500000,73.500000 
	C511.499847,70.667862 509.273804,72.059441 508.635254,73.084282 
	C507.320557,75.194366 508.159088,77.275482 510.385010,78.627312 
	C511.505981,78.172646 512.277710,77.611069 512.500000,76.500000 
"/>
<path fill="none" opacity="1.000000" stroke="#000000" stroke-linecap="round" stroke-linejoin="round" stroke-width="2.000000"
	d="
M351.500000,131.500000 
	C350.499847,128.667862 348.624542,130.139862 347.586182,131.093811 
	C346.611511,131.989197 346.683319,133.859695 347.551788,134.959091 
	C349.261780,137.123688 350.921356,135.547043 352.500000,134.500000 
"/>
<path fill="none" opacity="1.000000" stroke="#000000" stroke-linecap="round" stroke-linejoin="round" stroke-width="2.000000"
	d="
M489.500000,128.500000 
	C489.333313,129.666672 489.166656,130.833328 489.000000,132.000000 
"/>
<path fill="none" opacity="1.000000" stroke="#000000" stroke-linecap="round" stroke-linejoin="round" stroke-width="2.000000"
	d="
M98.500000,129.500000 
	C98.333336,130.666672 98.166664,131.833328 98.000000,133.000000 
"/>
<path fill="none" opacity="1.000000" stroke="#000000" stroke-linecap="round" stroke-linejoin="round" stroke-width="2.000000"
	d="
M221.499985,128.500000 
	C221.333328,129.666672 221.166656,130.833328 220.999985,132.000000 
"/>
<path fill="none" opacity="1.000000" stroke="#000000" stroke-linecap="round" stroke-linejoin="round" stroke-width="3.000000"
	d="
M354.500000,129.500000 
	C355.421509,131.833328 355.274536,134.166672 354.500000,136.500000 
"/>
<path fill="none" opacity="1.000000" stroke="#000000" stroke-linecap="round" stroke-linejoin="round" stroke-width="3.000000"
	d="
M359.500000,129.500000 
	C358.578491,131.833328 358.725464,134.166672 359.500000,136.500000 
"/>
<path fill="none" opacity="1.000000" stroke="#000000" stroke-linecap="round" stroke-linejoin="round" stroke-width="2.000000"
	d="
M385.500000,186.500000 
	C385.500000,188.500000 385.500000,190.500000 385.500000,192.500000 
"/>
<path fill="none" opacity="1.000000" stroke="#000000" stroke-linecap="round" stroke-linejoin="round" stroke-width="3.000000"
	d="
M221.000000,186.500000 
	C221.000000,188.500000 221.000000,190.500000 221.000000,192.500000 
"/>
<path fill="none" opacity="1.000000" stroke="#000000" stroke-linecap="round" stroke-linejoin="round" stroke-width="2.000000"
	d="
M454.500000,257.500000 
	C454.500000,259.500000 454.500000,261.500000 454.500000,263.500000 
"/>
<path fill="none" opacity="1.000000" stroke="#000000" stroke-linecap="round" stroke-linejoin="round" stroke-width="3.000000"
	d="
M459.000000,257.500000 
	C458.887543,259.504517 459.324677,261.554840 458.500000,263.500000 
"/>
<path fill="none" opacity="1.000000" stroke="#000000" stroke-linecap="round" stroke-linejoin="round" stroke-width="3.000000"
	d="
M390.000000,186.500000 
	C390.000000,188.500000 390.000000,190.500000 390.000000,192.500000 
"/>
<path fill="none" opacity="1.000000" stroke="#000000" stroke-linecap="round" stroke-linejoin="round" stroke-width="3.000000"
	d="
M216.500015,186.500000 
	C216.666672,188.500000 216.833344,190.500000 217.000015,192.500000 
"/>
<path fill="none" opacity="1.000000" stroke="#000000" stroke-linecap="round" stroke-linejoin="round" stroke-width="3.000000"
	d="
M94.500000,129.500000 
	C93.675331,131.445160 94.112442,133.495483 94.000000,135.500000 
"/>
<path fill="none" opacity="1.000000" stroke="#000000" stroke-linecap="round" stroke-linejoin="round" stroke-width="2.000000"
	d="
M486.000000,131.500000 
	C489.140533,131.106201 489.742004,132.934067 489.500000,135.500000 
"/>
<path fill="none" opacity="1.000000" stroke="#000000" stroke-linecap="round" stroke-linejoin="round" stroke-width="2.000000"
	d="
M95.000000,132.500000 
	C98.140533,132.106201 98.742012,133.934067 98.500000,136.500000 
"/>
<path fill="none" opacity="1.000000" stroke="#000000" stroke-linecap="round" stroke-linejoin="round" stroke-width="3.000000"
	d="
M229.000000,217.500000 
	C229.000000,219.500000 229.000000,221.500000 229.000000,223.500000 
"/>
<path fill="none" opacity="1.000000" stroke="#000000" stroke-linecap="round" stroke-linejoin="round" stroke-width="2.000000"
	d="
M224.500000,217.500000 
	C224.500000,219.500000 224.500000,221.500000 224.500000,223.500000 
"/>
<path fill="none" opacity="1.000000" stroke="#000000" stroke-linecap="round" stroke-linejoin="round" stroke-width="3.000000"
	d="
M516.000000,72.500000 
	C516.134705,74.525116 516.440308,76.564468 515.500000,78.500000 
"/>
<path fill="none" opacity="1.000000" stroke="#000000" stroke-linecap="round" stroke-linejoin="round" stroke-width="2.000000"
	d="
M274.500000,72.500000 
	C274.500000,74.500000 274.500000,76.500000 274.500000,78.500000 
"/>
<path fill="none" opacity="1.000000" stroke="#000000" stroke-linecap="round" stroke-linejoin="round" stroke-width="3.000000"
	d="
M279.000000,72.500000 
	C278.356171,74.460236 279.673798,76.583931 278.500000,78.500000 
"/>
<path fill="none" opacity="1.000000" stroke="#000000" stroke-linecap="round" stroke-linejoin="round" stroke-width="3.000000"
	d="
M347.000000,72.500000 
	C347.000000,74.500000 347.000000,76.500000 347.000000,78.500000 
"/>
<path fill="none" opacity="1.000000" stroke="#000000" stroke-linecap="round" stroke-linejoin="round" stroke-width="3.000000"
	d="
M289.000000,72.500000 
	C289.643829,74.460236 288.326202,76.583931 289.500000,78.500000 
"/>
<path fill="none" opacity="1.000000" stroke="#000000" stroke-linecap="round" stroke-linejoin="round" stroke-width="2.000000"
	d="
M293.500000,72.500000 
	C293.500000,74.500000 293.500000,76.500000 293.500000,78.500000 
"/>
<path fill="none" opacity="1.000000" stroke="#000000" stroke-linecap="round" stroke-linejoin="round" stroke-width="2.000000"
	d="
M259.500000,72.500000 
	C259.500000,74.500000 259.500000,76.500000 259.500000,78.500000 
"/>
<path fill="none" opacity="1.000000" stroke="#000000" stroke-linecap="round" stroke-linejoin="round" stroke-width="2.000000"
	d="
M255.500000,72.500000 
	C255.500000,74.500000 255.500000,76.500000 255.500000,78.500000 
"/>
<path fill="none" opacity="1.000000" stroke="#000000" stroke-linecap="round" stroke-linejoin="round" stroke-width="3.000000"
	d="
M520.000000,72.500000 
	C518.800903,74.613815 520.631226,76.475174 520.500000,78.500000 
"/>
<path fill="none" opacity="1.000000" stroke="#000000" stroke-linecap="round" stroke-linejoin="round" stroke-width="3.000000"
	d="
M91.000000,72.500000 
	C91.000000,74.500000 91.000000,76.500000 91.000000,78.500000 
"/>
<path fill="none" opacity="1.000000" stroke="#000000" stroke-linecap="round" stroke-linejoin="round" stroke-width="2.000000"
	d="
M86.500000,72.500000 
	C86.500000,74.500000 86.500000,76.500000 86.500000,78.500000 
"/>
<path fill="none" opacity="1.000000" stroke="#000000" stroke-linecap="round" stroke-linejoin="round" stroke-width="3.000000"
	d="
M94.000000,44.500000 
	C94.000000,46.500000 94.000000,48.500000 94.000000,50.500000 
"/>
<path fill="none" opacity="1.000000" stroke="#000000" stroke-linecap="round" stroke-linejoin="round" stroke-width="2.000000"
	d="
M98.500000,44.500000 
	C98.500000,46.500000 98.500000,48.500000 98.500000,50.500000 
"/>
<path fill="none" opacity="1.000000" stroke="#000000" stroke-linecap="round" stroke-linejoin="round" stroke-width="2.000000"
	d="
M287.500000,47.500000 
	C287.500000,49.500000 287.500000,51.500000 287.500000,53.500000 
"/>
<path fill="none" opacity="1.000000" stroke="#000000" stroke-linecap="round" stroke-linejoin="round" stroke-width="3.000000"
	d="
M283.000000,47.500000 
	C283.134705,49.525116 283.440308,51.564472 282.500000,53.500000 
"/>
<path fill="none" opacity="1.000000" stroke="#000000" stroke-linecap="round" stroke-linejoin="round" stroke-width="2.000000"
	d="
M351.500000,72.500000 
	C351.744293,75.146103 350.205841,75.712372 348.000000,75.500000 
"/>
<path fill="none" opacity="1.000000" stroke="#000000" stroke-linecap="round" stroke-linejoin="round" stroke-width="2.000000"
	d="
M550.500000,141.500000 
	C552.580139,141.352661 554.341125,143.120071 556.500000,142.500000 
"/>
<path fill="none" opacity="1.000000" stroke="#000000" stroke-linecap="round" stroke-linejoin="round" stroke-width="2.000000"
	d="
M218.000000,131.500000 
	C220.178436,131.319595 221.704208,131.900650 221.500000,134.500000 
"/>
</svg>