<svg version="1.1" id="Layer_1" xmlns="http://www.w3.org/2000/svg" xmlns:xlink="http://www.w3.org/1999/xlink" x="0px" y="0px"
	 width="100%" viewBox="0 0 407 372" enable-background="new 0 0 407 372" xml:space="preserve">
<path fill="none" opacity="1.000000" stroke="#000000" stroke-linecap="round" stroke-linejoin="round" stroke-width="2.000000"
	d="
M74.500000,13.500000 
	C71.333336,13.500000 68.166664,13.500000 64.500000,13.500000 
	C64.500000,15.321856 64.500000,17.160927 64.500000,19.000000 
	C64.500000,59.833332 64.495781,100.666664 64.513779,141.500000 
	C64.514587,143.338684 64.156639,145.228180 65.000000,147.000000 
"/>
<path fill="none" opacity="1.000000" stroke="#000000" stroke-linecap="round" stroke-linejoin="round" stroke-width="2.000000"
	d="
M248.500000,97.500000 
	C247.486115,97.381943 246.660995,97.735832 246.250000,98.212448 
	C246.250000,129.500000 246.250000,160.500000 246.250000,192.000000 
	C242.515869,192.000000 239.007935,192.000000 235.500000,192.000000 
"/>
<path fill="none" opacity="1.000000" stroke="#000000" stroke-linecap="round" stroke-linejoin="round" stroke-width="2.000000"
	d="
M247.000000,97.500000 
	C245.941299,95.922539 246.537857,94.156761 246.534729,92.499931 
	C246.485306,66.333366 246.500000,40.166668 246.500000,13.500000 
	C242.848480,13.500000 239.174240,13.500000 235.500000,13.500000 
"/>
<path fill="none" opacity="1.000000" stroke="#000000" stroke-linecap="round" stroke-linejoin="round" stroke-width="5.000000"
	d="
M139.500000,74.500000 
	C138.810410,75.485489 138.120819,76.470970 137.325302,77.607826 
	C141.700272,83.596107 146.746017,89.076431 150.526733,95.484222 
	C151.500366,97.134377 153.303268,97.018379 155.000046,97.012199 
	C162.666611,96.984276 170.333694,96.957314 177.999786,97.023773 
	C180.587418,97.046211 182.406555,96.299431 184.078888,94.058884 
	C187.826904,89.037460 192.000000,84.333328 196.000000,79.499992 
"/>
<path fill="none" opacity="1.000000" stroke="#000000" stroke-linecap="round" stroke-linejoin="round" stroke-width="2.000000"
	d="
M66.500000,145.500000 
	C63.827972,148.054367 64.293671,151.152817 64.387230,154.503143 
	C64.689522,165.328033 64.475082,176.166794 64.528893,186.999863 
	C64.536331,188.495331 64.009476,190.091537 65.204796,192.000000 
	C68.149124,192.000000 71.324562,192.000000 74.500000,192.000000 
"/>
<path fill="none" opacity="1.000000" stroke="#000000" stroke-linecap="round" stroke-linejoin="round" stroke-width="5.000000"
	d="
M73.499992,136.000000 
	C77.833328,141.500000 82.438843,146.816437 86.343323,152.605667 
	C87.605522,154.477127 88.628159,155.005981 90.500008,155.003860 
	C98.499992,154.994797 106.500061,154.983963 114.499947,155.014755 
	C115.944298,155.020309 117.630684,155.043243 118.442154,153.956802 
	C123.289169,147.467361 129.659607,142.043732 132.898376,134.456619 
	C134.222504,131.354691 135.380020,128.011673 135.500000,124.500000 
"/>
<path fill="none" opacity="1.000000" stroke="#000000" stroke-linecap="round" stroke-linejoin="round" stroke-width="2.000000"
	d="
M173.500000,29.000000 
	C176.468872,28.040911 178.881638,26.755424 179.054657,23.002520 
	C179.259384,18.562067 177.278687,15.812028 174.499481,15.504678 
	C171.100540,15.128794 168.270416,15.885853 167.005081,19.501778 
	C165.988495,22.406837 167.697174,26.554131 170.505722,27.988804 
	C171.301636,28.395378 172.166672,28.666668 173.000000,29.000002 
"/>
<path fill="none" opacity="1.000000" stroke="#000000" stroke-linecap="round" stroke-linejoin="round" stroke-width="2.000000"
	d="
M118.500000,125.000000 
	C123.664490,122.889549 125.687454,117.891586 123.010696,113.992661 
	C121.251976,111.430931 118.645866,110.990364 116.018181,111.580902 
	C113.398003,112.169754 112.024574,114.232307 112.006653,117.000046 
	C111.987801,119.911087 111.739502,122.948532 115.496246,124.013252 
	C116.355072,124.256645 117.166664,124.666672 118.000000,125.000000 
"/>
<path fill="none" opacity="1.000000" stroke="#000000" stroke-linecap="round" stroke-linejoin="round" stroke-width="2.000000"
	d="
M105.500000,82.000000 
	C110.025497,80.150673 112.142509,76.906631 110.936989,73.019547 
	C110.227638,70.732285 109.149117,68.475952 106.000175,68.461525 
	C103.399208,68.449615 101.244072,68.759560 99.956871,71.479591 
	C98.728996,74.074272 98.405159,76.538872 100.019882,78.986885 
	C101.174484,80.737305 103.017159,81.526962 105.000000,82.000000 
"/>
<path fill="none" opacity="1.000000" stroke="#000000" stroke-linecap="round" stroke-linejoin="round" stroke-width="2.000000"
	d="
M223.500000,229.000000 
	C217.760712,231.907120 216.121033,237.433258 220.017807,240.980438 
	C221.887985,242.682831 224.037796,242.920898 226.518890,242.054092 
	C229.317245,241.076462 230.002487,239.087997 230.004562,236.500000 
	C230.006805,233.693130 229.964462,230.946396 226.503937,229.985840 
	C225.644302,229.747253 224.833328,229.333344 224.000000,229.000000 
"/>
<path fill="none" opacity="1.000000" stroke="#000000" stroke-linecap="round" stroke-linejoin="round" stroke-width="2.000000"
	d="
M282.000000,279.500000 
	C283.102844,281.658295 283.337708,284.287079 286.479248,285.082031 
	C289.854858,285.936279 292.096588,285.368073 293.527893,282.011902 
	C295.104370,278.315308 294.132874,273.824219 290.977905,272.554932 
	C287.987000,271.351685 285.128784,271.643341 283.518250,275.008728 
	C282.905884,276.288300 282.500000,277.666656 282.000000,279.000000 
"/>
<path fill="none" opacity="1.000000" stroke="#000000" stroke-linecap="round" stroke-linejoin="round" stroke-width="2.000000"
	d="
M234.000000,299.500000 
	C233.666656,298.833344 233.213287,298.199432 233.020721,297.494354 
	C232.176422,294.402405 230.319992,292.744751 226.999893,292.998688 
	C224.172668,293.215027 222.290680,294.812347 222.087875,297.506622 
	C221.861801,300.509918 221.039352,303.924164 224.496857,306.005219 
	C227.940765,308.078125 231.969360,305.545288 234.000000,300.000000 
"/>
<path fill="none" opacity="1.000000" stroke="#000000" stroke-linecap="round" stroke-linejoin="round" stroke-width="2.000000"
	d="
M182.500000,67.000000 
	C187.961868,64.233398 189.365784,60.564236 187.075806,56.457726 
	C185.477982,53.592407 183.184998,53.157166 180.506439,53.544537 
	C177.505127,53.978573 176.081055,56.051582 176.016327,59.000359 
	C175.952469,61.909962 175.739517,64.948532 179.496246,66.013245 
	C180.355057,66.256645 181.166672,66.666664 182.000000,67.000000 
"/>
<path fill="none" opacity="1.000000" stroke="#000000" stroke-linecap="round" stroke-linejoin="round" stroke-width="3.000000"
	d="
M97.500000,82.499992 
	C96.333328,83.499992 95.256126,84.635254 93.984406,85.476418 
	C88.681732,88.983826 87.292778,93.917969 87.915268,100.008659 
	C88.353584,104.297195 87.809982,108.677910 88.065567,112.996117 
	C88.241386,115.966667 87.539009,118.401894 85.500000,120.500000 
"/>
<path fill="none" opacity="1.000000" stroke="#000000" stroke-linecap="round" stroke-linejoin="round" stroke-width="3.000000"
	d="
M157.500000,30.500000 
	C152.700180,31.687143 151.457626,34.771191 151.893341,39.509808 
	C152.364410,44.633163 151.822662,49.841782 152.068253,54.996750 
	C152.209656,57.964989 151.539001,60.401890 149.500000,62.500000 
"/>
<path fill="none" opacity="1.000000" stroke="#000000" stroke-linecap="round" stroke-linejoin="round" stroke-width="3.000000"
	d="
M175.500000,239.500000 
	C171.707397,235.969635 169.079132,235.677582 166.499985,238.499985 
	C164.146561,241.075378 164.385025,245.844360 167.000000,248.500000 
	C170.044815,251.592163 172.815125,250.614410 175.500000,245.500000 
"/>
<path fill="none" opacity="1.000000" stroke="#000000" stroke-linecap="round" stroke-linejoin="round" stroke-width="2.000000"
	d="
M86.500000,229.500000 
	C86.093330,226.091431 83.766319,225.648392 81.001427,226.010864 
	C77.500748,226.469772 76.656250,229.086746 76.537712,232.001541 
	C76.420509,234.883514 76.664612,238.073944 80.027214,238.887543 
	C82.885590,239.579132 86.007248,239.347824 87.000000,235.500000 
"/>
<path fill="none" opacity="1.000000" stroke="#000000" stroke-linecap="round" stroke-linejoin="round" stroke-width="2.000000"
	d="
M208.000000,196.000000 
	C206.892975,192.704117 203.903442,192.170471 201.573013,193.170212 
	C198.560837,194.462402 197.755875,197.615036 197.942368,201.003174 
	C198.129639,204.405197 200.557434,205.963669 203.025696,206.323883 
	C205.978561,206.754822 207.851562,204.470062 208.500000,201.500000 
"/>
<path fill="none" opacity="1.000000" stroke="#000000" stroke-linecap="round" stroke-linejoin="round" stroke-width="2.000000"
	d="
M372.500000,296.500000 
	C370.616577,294.433502 368.611267,291.793945 365.550354,293.116577 
	C362.117737,294.599823 361.487762,297.773499 361.874542,301.512970 
	C362.177307,304.440155 363.795319,305.897919 366.025269,306.384033 
	C368.641571,306.954376 370.895569,305.701904 372.000000,303.000000 
"/>
<path fill="none" opacity="1.000000" stroke="#000000" stroke-linecap="round" stroke-linejoin="round" stroke-width="2.000000"
	d="
M148.500000,219.500000 
	C143.229782,229.166672 144.178101,238.833328 148.500000,248.500000 
"/>
<path fill="none" opacity="1.000000" stroke="#000000" stroke-linecap="round" stroke-linejoin="round" stroke-width="2.000000"
	d="
M350.500000,332.500000 
	C349.413818,329.158966 346.378326,328.698883 344.073456,329.673676 
	C341.051666,330.951721 340.078613,334.278442 340.572754,337.488800 
	C340.988800,340.192047 342.401917,342.563171 345.504059,342.968933 
	C348.464905,343.356140 349.929352,341.382019 351.000000,339.000000 
"/>
<path fill="none" opacity="1.000000" stroke="#000000" stroke-linecap="round" stroke-linejoin="round" stroke-width="2.000000"
	d="
M89.500000,359.500000 
	C88.784004,363.190674 86.302307,363.693024 82.997475,363.565521 
	C77.006386,363.334412 70.999504,363.537231 65.000565,363.457520 
	C64.157242,363.446320 62.742207,364.311157 62.500000,362.500000 
"/>
<path fill="none" opacity="1.000000" stroke="#000000" stroke-linecap="round" stroke-linejoin="round" stroke-width="2.000000"
	d="
M288.500000,361.500000 
	C288.061829,363.518829 286.479279,362.430908 285.499207,362.445251 
	C278.500702,362.547791 271.500000,362.500000 264.500000,362.500000 
"/>
<path fill="none" opacity="1.000000" stroke="#000000" stroke-linecap="round" stroke-linejoin="round" stroke-width="2.000000"
	d="
M61.500000,324.500000 
	C62.185535,322.278290 63.453526,321.294434 66.003784,321.427399 
	C70.824020,321.678680 75.695534,321.170258 80.492104,321.590210 
	C85.568352,322.034607 89.130867,320.773682 90.500000,315.500000 
"/>
<path fill="none" opacity="1.000000" stroke="#000000" stroke-linecap="round" stroke-linejoin="round" stroke-width="2.000000"
	d="
M289.500000,322.500000 
	C288.637787,319.822205 286.378571,320.541504 284.499786,320.519196 
	C279.667114,320.461792 274.813324,320.227783 270.006012,320.581512 
	C265.750641,320.894592 262.739990,319.875336 261.500000,315.500000 
"/>
<path fill="none" opacity="1.000000" stroke="#000000" stroke-linecap="round" stroke-linejoin="round" stroke-width="2.000000"
	d="
M138.000000,80.500000 
	C136.494537,87.871338 139.496567,95.140228 138.500000,102.500000 
"/>
<path fill="none" opacity="1.000000" stroke="#000000" stroke-linecap="round" stroke-linejoin="round" stroke-width="2.000000"
	d="
M200.000000,119.000000 
	C202.981857,112.772858 202.209000,112.000000 192.500000,112.000000 
	C192.500000,116.488480 192.500000,120.994240 192.500000,125.500000 
"/>
<path fill="none" opacity="1.000000" stroke="#000000" stroke-linecap="round" stroke-linejoin="round" stroke-width="3.000000"
	d="
M281.000000,85.000000 
	C281.724030,83.356277 284.228241,81.966255 282.903839,80.067062 
	C280.825897,77.087296 277.530304,77.883850 274.328491,78.248604 
	C273.423157,82.776138 274.802094,87.241188 273.500000,91.500000 
"/>
<path fill="none" opacity="1.000000" stroke="#000000" stroke-linecap="round" stroke-linejoin="round" stroke-width="3.000000"
	d="
M117.000000,75.000000 
	C118.666664,75.000000 120.385109,75.254845 121.985710,74.929665 
	C123.648582,74.591843 124.831917,73.309776 124.973602,71.497932 
	C125.103622,69.835243 124.034332,69.405479 122.533096,68.901421 
	C120.402702,68.186111 118.500000,68.831017 116.175789,68.324966 
	C115.648521,73.125214 116.736801,77.405609 115.500000,81.500000 
"/>
<path fill="none" opacity="1.000000" stroke="#000000" stroke-linecap="round" stroke-linejoin="round" stroke-width="3.000000"
	d="
M16.000000,233.000000 
	C17.994616,232.768723 20.145876,233.651291 21.975626,232.462479 
	C23.312666,231.593781 24.576788,230.358322 23.966934,228.510910 
	C23.367683,226.695663 21.899832,225.860962 20.001539,226.018555 
	C18.499468,226.143265 16.908461,225.509476 15.000000,226.704788 
	C15.000000,230.820511 15.000000,235.160263 15.000000,239.500000 
"/>
<path fill="none" opacity="1.000000" stroke="#000000" stroke-linecap="round" stroke-linejoin="round" stroke-width="3.000000"
	d="
M34.000000,178.000000 
	C34.394245,176.301605 37.300468,175.483795 35.531582,172.977707 
	C33.261459,169.761475 30.261658,171.493378 27.404188,170.870132 
	C26.423147,175.776138 27.802078,180.241180 26.500000,184.500000 
"/>
<path fill="none" opacity="1.000000" stroke="#000000" stroke-linecap="round" stroke-linejoin="round" stroke-width="3.000000"
	d="
M185.000000,22.000000 
	C187.967957,21.803457 191.533813,23.201290 193.059052,18.648096 
	C191.464432,14.322977 187.771927,15.757328 184.000000,15.409837 
	C184.000000,20.153334 184.000000,24.326666 184.000000,28.500000 
"/>
<path fill="none" opacity="1.000000" stroke="#000000" stroke-linecap="round" stroke-linejoin="round" stroke-width="2.000000"
	d="
M171.500000,59.500000 
	C165.170090,59.203091 158.808594,60.107014 152.500000,59.000000 
"/>
<path fill="none" opacity="1.000000" stroke="#000000" stroke-linecap="round" stroke-linejoin="round" stroke-width="3.000000"
	d="
M106.000000,135.000000 
	C106.712013,133.216248 108.697273,131.513550 106.491196,129.509689 
	C104.576042,127.770081 102.111786,128.287308 100.017395,128.612152 
	C97.312073,129.031754 98.044655,131.603134 98.011711,133.500198 
	C97.965416,136.166077 98.000000,138.833328 98.000000,141.500000 
"/>
<path fill="none" opacity="1.000000" stroke="#000000" stroke-linecap="round" stroke-linejoin="round" stroke-width="2.000000"
	d="
M107.500000,117.500000 
	C101.170097,117.203094 94.808586,118.107018 88.500000,117.000000 
"/>
<path fill="none" opacity="1.000000" stroke="#000000" stroke-linecap="round" stroke-linejoin="round" stroke-width="2.000000"
	d="
M87.500000,128.000000 
	C84.207733,128.932190 81.928757,130.665970 81.977722,134.500290 
	C82.011742,137.164749 82.150574,139.628754 84.987633,141.025131 
	C87.050934,142.040680 89.088921,142.272964 90.978325,140.968613 
	C93.554451,139.190155 94.661552,136.547043 93.947556,133.512344 
	C93.243950,130.521774 91.550148,128.306488 88.000000,128.500000 
"/>
<path fill="none" opacity="1.000000" stroke="#000000" stroke-linecap="round" stroke-linejoin="round" stroke-width="3.000000"
	d="
M136.000000,177.000000 
	C136.763504,175.244873 138.571945,173.390213 136.935608,171.557495 
	C134.597534,168.938797 131.393021,170.325943 127.899490,169.847961 
	C128.252151,174.833328 127.556458,179.166672 128.500000,183.500000 
"/>
<path fill="none" opacity="1.000000" stroke="#000000" stroke-linecap="round" stroke-linejoin="round" stroke-width="2.000000"
	d="
M299.500000,292.500000 
	C301.223145,300.720367 307.559906,299.713501 313.500000,299.500000 
"/>
<path fill="none" opacity="1.000000" stroke="#000000" stroke-linecap="round" stroke-linejoin="round" stroke-width="3.000000"
	d="
M83.500000,326.000000 
	C77.833336,326.000000 72.166664,326.000000 66.500000,326.000000 
"/>
<path fill="none" opacity="1.000000" stroke="#000000" stroke-linecap="round" stroke-linejoin="round" stroke-width="2.000000"
	d="
M172.500000,83.500000 
	C170.899277,80.815773 169.827652,78.276878 171.353912,74.933311 
	C172.168869,73.147964 171.774109,70.486977 168.500000,70.498810 
	C166.666687,70.505432 164.833328,70.500000 162.500000,70.500000 
	C162.500000,74.820518 162.500000,79.160255 162.500000,83.500000 
"/>
<path fill="none" opacity="1.000000" stroke="#000000" stroke-linecap="round" stroke-linejoin="round" stroke-width="2.000000"
	d="
M240.500000,221.500000 
	C242.000229,228.587311 242.060410,235.606049 239.500000,242.500000 
"/>
<path fill="none" opacity="1.000000" stroke="#000000" stroke-linecap="round" stroke-linejoin="round" stroke-width="2.000000"
	d="
M342.500000,309.500000 
	C343.642822,310.049591 344.785675,310.599152 345.500000,310.942688 
	C345.500000,315.821960 345.500000,320.660980 345.500000,325.500000 
"/>
<path fill="none" opacity="1.000000" stroke="#000000" stroke-linecap="round" stroke-linejoin="round" stroke-width="2.000000"
	d="
M203.500000,210.500000 
	C203.500000,213.500000 203.335693,216.511810 203.550262,219.496384 
	C203.732834,222.036102 202.732468,223.572815 200.500000,224.500000 
"/>
<path fill="none" opacity="1.000000" stroke="#000000" stroke-linecap="round" stroke-linejoin="round" stroke-width="2.000000"
	d="
M95.500000,307.500000 
	C96.166664,306.166656 96.851540,304.842072 97.495979,303.498077 
	C98.613838,301.166718 99.997910,299.928284 103.017792,300.381439 
	C106.440712,300.895081 110.000000,300.500000 113.500000,300.500000 
"/>
<path fill="none" opacity="1.000000" stroke="#000000" stroke-linecap="round" stroke-linejoin="round" stroke-width="2.000000"
	d="
M118.000000,155.000000 
	C117.833336,158.500000 117.666672,162.000000 117.500000,165.500000 
"/>
<path fill="none" opacity="1.000000" stroke="#000000" stroke-linecap="round" stroke-linejoin="round" stroke-width="3.000000"
	d="
M182.000000,97.000000 
	C182.000000,100.500000 182.000000,104.000000 182.000000,107.500000 
"/>
<path fill="none" opacity="1.000000" stroke="#000000" stroke-linecap="round" stroke-linejoin="round" stroke-width="2.000000"
	d="
M105.500000,242.500000 
	C108.435638,244.250809 110.285774,242.860352 109.799973,240.034378 
	C109.443352,237.959839 109.785988,235.990051 109.442116,233.718567 
	C107.520500,233.457230 105.491562,232.749649 104.500000,235.500000 
"/>
<path fill="none" opacity="1.000000" stroke="#000000" stroke-linecap="round" stroke-linejoin="round" stroke-width="2.000000"
	d="
M301.500000,299.000000 
	C297.726257,300.095276 298.613312,304.297760 296.500000,306.500000 
"/>
<path fill="none" opacity="1.000000" stroke="#000000" stroke-linecap="round" stroke-linejoin="round" stroke-width="2.000000"
	d="
M253.500000,291.500000 
	C251.850586,298.977051 246.728851,300.588196 239.998367,299.510193 
	C239.510880,299.432098 239.000000,299.500000 238.500000,299.500000 
"/>
<path fill="none" opacity="1.000000" stroke="#000000" stroke-linecap="round" stroke-linejoin="round" stroke-width="2.000000"
	d="
M100.000000,232.000000 
	C97.500000,232.665237 95.000000,232.916885 92.500000,232.000000 
"/>
<path fill="none" opacity="1.000000" stroke="#000000" stroke-linecap="round" stroke-linejoin="round" stroke-width="3.000000"
	d="
M208.500000,292.500000 
	C207.469543,297.135803 208.302078,301.838165 208.000000,306.500000 
"/>
<path fill="none" opacity="1.000000" stroke="#000000" stroke-linecap="round" stroke-linejoin="round" stroke-width="3.000000"
	d="
M217.500000,292.500000 
	C216.636200,297.166656 216.636200,301.833344 217.500000,306.500000 
"/>
<path fill="none" opacity="1.000000" stroke="#000000" stroke-linecap="round" stroke-linejoin="round" stroke-width="3.000000"
	d="
M188.000000,243.000000 
	C185.666672,243.000000 183.333328,243.000000 181.000000,243.000000 
"/>
<path fill="none" opacity="1.000000" stroke="#000000" stroke-linecap="round" stroke-linejoin="round" stroke-width="3.000000"
	d="
M221.000000,199.000000 
	C218.666672,199.000000 216.333328,199.000000 214.000000,199.000000 
"/>
<path fill="none" opacity="1.000000" stroke="#000000" stroke-linecap="round" stroke-linejoin="round" stroke-width="2.000000"
	d="
M91.500000,225.500000 
	C91.500000,230.166672 91.500000,234.833328 91.500000,239.500000 
"/>
<path fill="none" opacity="1.000000" stroke="#000000" stroke-linecap="round" stroke-linejoin="round" stroke-width="3.000000"
	d="
M100.500000,225.500000 
	C101.201401,230.166672 101.197144,234.833328 100.500000,239.500000 
"/>
<path fill="none" opacity="1.000000" stroke="#000000" stroke-linecap="round" stroke-linejoin="round" stroke-width="3.000000"
	d="
M255.500000,189.500000 
	C256.498352,192.453796 255.788391,195.502502 256.000000,198.500000 
"/>
<path fill="none" opacity="1.000000" stroke="#000000" stroke-linecap="round" stroke-linejoin="round" stroke-width="3.000000"
	d="
M222.500000,192.500000 
	C221.469589,197.166672 221.658997,201.833328 222.500000,206.500000 
"/>
<path fill="none" opacity="1.000000" stroke="#000000" stroke-linecap="round" stroke-linejoin="round" stroke-width="2.000000"
	d="
M53.000000,232.500000 
	C55.333332,232.500000 57.666668,232.500000 60.000000,232.500000 
"/>
<path fill="none" opacity="1.000000" stroke="#000000" stroke-linecap="round" stroke-linejoin="round" stroke-width="3.000000"
	d="
M213.000000,192.500000 
	C213.000000,197.166672 213.000000,201.833328 213.000000,206.500000 
"/>
<path fill="none" opacity="1.000000" stroke="#000000" stroke-linecap="round" stroke-linejoin="round" stroke-width="3.000000"
	d="
M376.500000,292.500000 
	C377.363800,297.166656 377.363800,301.833344 376.500000,306.500000 
"/>
<path fill="none" opacity="1.000000" stroke="#000000" stroke-linecap="round" stroke-linejoin="round" stroke-width="3.000000"
	d="
M385.500000,292.500000 
	C386.530457,297.135803 385.697906,301.838165 386.000000,306.500000 
"/>
<path fill="none" opacity="1.000000" stroke="#000000" stroke-linecap="round" stroke-linejoin="round" stroke-width="2.000000"
	d="
M209.000000,299.500000 
	C211.333328,299.500000 213.666672,299.500000 216.000000,299.500000 
"/>
<path fill="none" opacity="1.000000" stroke="#000000" stroke-linecap="round" stroke-linejoin="round" stroke-width="2.000000"
	d="
M378.000000,299.500000 
	C380.333344,299.500000 382.666656,299.500000 385.000000,299.500000 
"/>
<path fill="none" opacity="1.000000" stroke="#000000" stroke-linecap="round" stroke-linejoin="round" stroke-width="3.000000"
	d="
M310.500000,216.500000 
	C305.684570,218.081039 307.195068,222.122162 307.000000,225.500000 
"/>
<path fill="none" opacity="1.000000" stroke="#000000" stroke-linecap="round" stroke-linejoin="round" stroke-width="3.000000"
	d="
M262.000000,219.000000 
	C259.666656,219.000000 257.333344,219.000000 255.000000,219.000000 
"/>
<path fill="none" opacity="1.000000" stroke="#000000" stroke-linecap="round" stroke-linejoin="round" stroke-width="3.000000"
	d="
M142.000000,301.000000 
	C139.666672,301.000000 137.333328,301.000000 135.000000,301.000000 
"/>
<path fill="none" opacity="1.000000" stroke="#000000" stroke-linecap="round" stroke-linejoin="round" stroke-width="3.000000"
	d="
M61.000000,225.500000 
	C61.000000,230.166672 61.000000,234.833328 61.000000,239.500000 
"/>
<path fill="none" opacity="1.000000" stroke="#000000" stroke-linecap="round" stroke-linejoin="round" stroke-width="2.000000"
	d="
M245.500000,99.000000 
	C242.846100,98.935745 241.191895,101.670616 238.500000,101.500000 
"/>
<path fill="none" opacity="1.000000" stroke="#000000" stroke-linecap="round" stroke-linejoin="round" stroke-width="3.000000"
	d="
M364.000000,336.000000 
	C361.666656,336.000000 359.333344,336.000000 357.000000,336.000000 
"/>
<path fill="none" opacity="1.000000" stroke="#000000" stroke-linecap="round" stroke-linejoin="round" stroke-width="3.000000"
	d="
M52.000000,225.500000 
	C52.000000,230.166672 52.000000,234.833328 52.000000,239.500000 
"/>
<path fill="none" opacity="1.000000" stroke="#000000" stroke-linecap="round" stroke-linejoin="round" stroke-width="2.000000"
	d="
M371.500000,341.500000 
	C375.431702,341.548859 374.280670,344.864746 373.334686,345.839600 
	C371.879608,347.339081 369.549225,347.058136 368.500000,344.500000 
"/>
<path fill="none" opacity="1.000000" stroke="#000000" stroke-linecap="round" stroke-linejoin="round" stroke-width="3.000000"
	d="
M22.500000,233.000000 
	C24.979315,234.709900 23.681042,237.291550 24.000000,239.500000 
"/>
<path fill="none" opacity="1.000000" stroke="#000000" stroke-linecap="round" stroke-linejoin="round" stroke-width="2.000000"
	d="
M248.500000,223.500015 
	C246.333344,224.500015 244.166672,225.500015 242.000000,226.500015 
"/>
<path fill="none" opacity="1.000000" stroke="#000000" stroke-linecap="round" stroke-linejoin="round" stroke-width="3.000000"
	d="
M180.000000,236.500000 
	C180.000000,240.833328 180.000000,245.166672 180.000000,249.500000 
"/>
<path fill="none" opacity="1.000000" stroke="#000000" stroke-linecap="round" stroke-linejoin="round" stroke-width="3.000000"
	d="
M189.000000,236.500000 
	C189.000000,240.833328 189.000000,245.166672 189.000000,249.500000 
"/>
<path fill="none" opacity="1.000000" stroke="#000000" stroke-linecap="round" stroke-linejoin="round" stroke-width="2.000000"
	d="
M191.000000,22.500000 
	C193.463394,23.820808 191.318787,27.061615 193.500000,28.500000 
"/>
<path fill="none" opacity="1.000000" stroke="#000000" stroke-linecap="round" stroke-linejoin="round" stroke-width="3.000000"
	d="
M134.000000,294.500000 
	C134.000000,298.833344 134.000000,303.166656 134.000000,307.500000 
"/>
<path fill="none" opacity="1.000000" stroke="#000000" stroke-linecap="round" stroke-linejoin="round" stroke-width="3.000000"
	d="
M143.000000,294.500000 
	C143.000000,298.833344 143.000000,303.166656 143.000000,307.500000 
"/>
<path fill="none" opacity="1.000000" stroke="#000000" stroke-linecap="round" stroke-linejoin="round" stroke-width="3.000000"
	d="
M356.000000,329.500000 
	C355.865967,333.834595 356.717102,338.207062 355.500000,342.500000 
"/>
<path fill="none" opacity="1.000000" stroke="#000000" stroke-linecap="round" stroke-linejoin="round" stroke-width="3.000000"
	d="
M365.000000,329.500000 
	C365.000000,333.833344 365.000000,338.166656 365.000000,342.500000 
"/>
<path fill="none" opacity="1.000000" stroke="#000000" stroke-linecap="round" stroke-linejoin="round" stroke-width="2.000000"
	d="
M373.000000,341.500000 
	C373.888855,338.972260 374.306213,336.680237 370.500000,336.500000 
"/>
<path fill="none" opacity="1.000000" stroke="#000000" stroke-linecap="round" stroke-linejoin="round" stroke-width="3.000000"
	d="
M129.000000,177.000000 
	C130.000000,177.000000 131.010040,177.091614 131.998184,176.983383 
	C135.393234,176.611496 137.653412,177.377899 137.129669,181.516403 
	C137.108551,181.683365 136.866638,183.683365 138.500000,183.500000 
"/>
<path fill="none" opacity="1.000000" stroke="#000000" stroke-linecap="round" stroke-linejoin="round" stroke-width="3.000000"
	d="
M99.000000,135.000000 
	C100.166664,135.000000 101.340012,135.080429 102.498695,134.984253 
	C105.447449,134.739502 107.534897,135.348007 107.013443,139.001923 
	C106.846512,140.171631 106.960831,141.290161 108.500000,141.500000 
"/>
<path fill="none" opacity="1.000000" stroke="#000000" stroke-linecap="round" stroke-linejoin="round" stroke-width="3.000000"
	d="
M254.000000,212.500000 
	C254.000000,216.833328 254.000000,221.166672 254.000000,225.500000 
"/>
<path fill="none" opacity="1.000000" stroke="#000000" stroke-linecap="round" stroke-linejoin="round" stroke-width="3.000000"
	d="
M263.000000,212.500000 
	C263.000000,216.833328 263.000000,221.166672 263.000000,225.500000 
"/>
<path fill="none" opacity="1.000000" stroke="#000000" stroke-linecap="round" stroke-linejoin="round" stroke-width="2.000000"
	d="
M28.000000,177.500000 
	C33.793346,177.376312 34.948689,175.992386 36.000000,184.500000 
"/>
<path fill="none" opacity="1.000000" stroke="#000000" stroke-linecap="round" stroke-linejoin="round" stroke-width="2.000000"
	d="
M203.500000,223.000000 
	C205.120956,224.816452 207.516052,225.305817 209.500000,226.500000 
"/>
<path fill="none" opacity="1.000000" stroke="#000000" stroke-linecap="round" stroke-linejoin="round" stroke-width="3.000000"
	d="
M169.500000,77.000000 
	C167.500000,77.000000 165.500000,77.000000 163.500000,77.000000 
"/>
<path fill="none" opacity="1.000000" stroke="#000000" stroke-linecap="round" stroke-linejoin="round" stroke-width="2.000000"
	d="
M202.000000,125.000000 
	C200.636063,123.539452 201.717865,121.205612 200.862869,120.106689 
	C199.033203,117.755066 196.161514,118.121956 193.500000,119.000000 
"/>
<path fill="none" opacity="1.000000" stroke="#000000" stroke-linecap="round" stroke-linejoin="round" stroke-width="2.000000"
	d="
M275.000000,84.500000 
	C279.296173,83.963142 282.722198,84.691963 283.000000,90.000000 
"/>
<path fill="none" opacity="1.000000" stroke="#000000" stroke-linecap="round" stroke-linejoin="round" stroke-width="2.000000"
	d="
M123.000000,75.500000 
	C125.592438,76.633057 123.743858,79.381020 125.000000,81.000000 
"/>
<path fill="none" opacity="1.000000" stroke="#000000" stroke-linecap="round" stroke-linejoin="round" stroke-width="2.000000"
	d="
M98.499992,294.500000 
	C99.333328,296.166656 100.166656,297.833344 100.999992,299.500000 
"/>
<path fill="none" opacity="1.000000" stroke="#000000" stroke-linecap="round" stroke-linejoin="round" stroke-width="2.000000"
	d="
M75.499992,132.500000 
	C73.499992,135.500000 71.499992,138.500000 69.499992,141.500000 
"/>
<path fill="none" opacity="1.000000" stroke="#000000" stroke-linecap="round" stroke-linejoin="round" stroke-width="2.000000"
	d="
M244.500000,243.500000 
	C246.767517,243.565826 245.903183,246.763474 248.000000,247.000000 
"/>
<path fill="none" opacity="1.000000" stroke="#000000" stroke-linecap="round" stroke-linejoin="round" stroke-width="2.000000"
	d="
M248.000000,249.000000 
	C245.931763,249.265106 246.027267,251.693924 244.500000,252.500000 
"/>
<path fill="none" opacity="1.000000" stroke="#000000" stroke-linecap="round" stroke-linejoin="round" stroke-width="2.000000"
	d="
M251.500000,243.500000 
	C249.059952,244.009598 249.868576,247.045929 247.472198,247.665787 
	C249.063354,249.575500 250.281677,251.037750 251.500000,252.500000 
"/>
<path fill="none" opacity="1.000000" stroke="#000000" stroke-linecap="round" stroke-linejoin="round" stroke-width="2.000000"
	d="
M241.000000,227.000000 
	C239.689209,227.163696 239.157288,229.144760 237.500000,228.500000 
"/>
<path fill="none" opacity="1.000000" stroke="#000000" stroke-linecap="round" stroke-linejoin="round" stroke-width="2.000000"
	d="
M250.500000,299.000000 
	C251.866745,299.852325 254.052948,300.002228 253.500000,302.500000 
"/>
<path fill="none" opacity="1.000000" stroke="#000000" stroke-linecap="round" stroke-linejoin="round" stroke-width="3.000000"
	d="
M137.000000,107.000000 
	C133.806549,109.409729 131.591644,114.221291 133.072357,116.451973 
	C134.612259,118.771820 136.698776,120.691559 140.002930,120.014297 
	C143.892914,119.216965 144.989212,116.236916 144.888367,113.003479 
	C144.798309,110.115540 143.641769,107.340698 139.999008,107.011009 
	C139.172440,106.936203 138.333328,107.000000 137.500000,107.000000 
"/>
<path fill="none" opacity="1.000000" stroke="#000000" stroke-linecap="round" stroke-linejoin="round" stroke-width="2.000000"
	d="
M180.000000,112.000000 
	C175.679062,113.908730 175.171402,117.927498 176.225983,121.431999 
	C177.037308,124.128174 180.096222,125.949242 183.490631,124.967621 
	C186.632370,124.059074 188.210480,121.755005 187.964340,118.502701 
	C187.725861,115.351479 186.721573,112.566063 182.997406,112.017586 
	C182.181778,111.897461 181.333328,112.000000 180.500000,112.000000 
"/>
<path fill="none" opacity="1.000000" stroke="#000000" stroke-linecap="round" stroke-linejoin="round" stroke-width="2.000000"
	d="
M219.000000,104.000000 
	C215.604767,104.837006 213.974091,106.959305 213.973022,110.499992 
	C213.972000,113.878777 214.660645,116.825272 218.508636,117.446503 
	C221.707581,117.962959 224.112701,116.445686 225.490570,113.495590 
	C226.882309,110.515808 225.792465,106.729843 222.981430,105.030724 
	C221.957245,104.411659 220.902618,103.507523 219.500000,104.000000 
"/>
<path fill="none" opacity="1.000000" stroke="#000000" stroke-linecap="round" stroke-linejoin="round" stroke-width="2.000000"
	d="
M168.500000,301.500000 
	C167.666672,302.166656 166.460236,302.665344 166.070129,303.531586 
	C164.910095,306.107605 166.728104,310.687286 169.007477,310.929657 
	C170.954712,311.136627 172.398865,310.219116 173.052704,308.015625 
	C174.144119,304.337494 173.333145,302.833221 169.000000,301.500000 
"/>
<path fill="none" opacity="1.000000" stroke="#000000" stroke-linecap="round" stroke-linejoin="round" stroke-width="2.000000"
	d="
M123.500000,294.500000 
	C117.702065,296.623169 115.636993,301.966003 118.984619,306.012726 
	C120.760544,308.159546 123.291054,308.607819 125.452721,307.862793 
	C128.091049,306.953552 129.832916,304.609192 129.466980,301.503876 
	C129.127457,298.622772 129.195511,295.309937 125.001450,294.981506 
	C124.657181,294.954529 124.333336,294.666656 124.000000,294.500000 
"/>
<path fill="none" opacity="1.000000" stroke="#000000" stroke-linecap="round" stroke-linejoin="round" stroke-width="2.000000"
	d="
M117.000000,170.000000 
	C112.186340,172.528519 110.134521,177.892853 113.061516,180.940933 
	C114.674454,182.620605 116.551819,184.138977 119.533066,183.094376 
	C122.655815,182.000214 123.980141,180.128418 124.007080,177.000061 
	C124.033119,173.976486 123.201973,171.624313 120.034164,170.410812 
	C119.130112,170.064499 118.333023,170.168228 117.500000,170.000000 
"/>
<path fill="none" opacity="1.000000" stroke="#000000" stroke-linecap="round" stroke-linejoin="round" stroke-width="3.000000"
	d="
M44.000000,171.000000 
	C40.514462,173.098221 39.065300,175.971878 40.493153,180.002426 
	C41.687874,183.374878 44.099197,184.724121 47.491711,183.963043 
	C51.132824,183.146225 52.162067,180.557480 52.065441,176.998230 
	C51.969090,173.449036 50.228428,171.670380 46.995216,171.023926 
	C46.193920,170.863708 45.333332,171.000000 44.500000,171.000000 
"/>
<path fill="none" opacity="1.000000" stroke="#000000" stroke-linecap="round" stroke-linejoin="round" stroke-width="2.000000"
	d="
M324.000000,293.000000 
	C320.074677,293.994232 318.426208,296.483521 318.989807,300.501434 
	C319.350677,303.073975 319.586426,305.291718 322.966370,306.134857 
	C326.267456,306.958282 328.330231,305.714905 329.936340,303.454742 
	C331.567352,301.159546 331.550781,298.360229 329.934631,296.045654 
	C328.713928,294.297485 327.066772,292.655365 324.500000,293.000000 
"/>
<path fill="none" opacity="1.000000" stroke="#000000" stroke-linecap="round" stroke-linejoin="round" stroke-width="3.000000"
	d="
M63.000000,275.000000 
	C58.568443,278.343994 57.573723,282.975433 60.475677,286.023163 
	C62.638744,288.294891 64.660713,288.504608 67.549591,287.102142 
	C70.848442,285.500702 71.337715,282.673706 70.825623,280.033813 
	C70.355690,277.611267 69.139778,274.688934 65.499344,274.992126 
	C64.837273,275.047272 64.166664,275.000000 63.500000,275.000000 
"/>
<path fill="none" opacity="1.000000" stroke="#000000" stroke-linecap="round" stroke-linejoin="round" stroke-width="2.000000"
	d="
M86.500000,273.500000 
	C81.137871,276.041931 79.632942,279.780579 81.952583,284.025909 
	C83.355751,286.593964 85.469795,287.217896 87.996376,286.963959 
	C90.644608,286.697754 92.508911,284.831879 92.868225,282.479858 
	C93.270447,279.846985 93.877113,276.762604 90.540527,274.926361 
	C89.377602,274.286346 88.325356,273.629730 87.000000,273.500000 
"/>
<path fill="none" opacity="1.000000" stroke="#000000" stroke-linecap="round" stroke-linejoin="round" stroke-width="2.000000"
	d="
M263.000000,272.000000 
	C257.534729,274.870789 255.993439,280.789490 260.044434,283.942932 
	C261.676300,285.213196 263.708405,286.230988 266.006165,285.011627 
	C268.642181,283.612762 270.181488,281.592255 269.997070,278.500183 
	C269.831818,275.729889 268.990967,273.509735 266.034241,272.408081 
	C265.132477,272.072083 264.333008,272.168213 263.500000,272.000000 
"/>
<path fill="none" opacity="1.000000" stroke="#000000" stroke-linecap="round" stroke-linejoin="round" stroke-width="2.000000"
	d="
M298.500000,216.500000 
	C296.254791,217.419540 295.278381,219.044312 295.473724,221.502090 
	C295.627869,223.441696 295.785980,225.388794 298.012482,225.950546 
	C299.512329,226.328949 300.822968,225.846710 302.063690,224.561493 
	C303.629700,222.939331 303.249603,221.023468 302.845947,219.541962 
	C302.439148,218.048798 301.201202,216.342834 299.000000,216.500000 
"/>
<path fill="none" opacity="1.000000" stroke="#000000" stroke-linecap="round" stroke-linejoin="round" stroke-width="3.000000"
	d="
M121.500000,230.000000 
	C118.320763,231.022537 119.083389,233.674286 118.988670,235.999542 
	C118.915131,237.804810 119.720741,238.453842 121.448677,239.130966 
	C123.421860,239.904205 124.526894,238.958557 125.449142,237.953339 
	C127.964668,235.211472 125.920944,230.672821 122.000000,230.000000 
"/>
<path fill="none" opacity="1.000000" stroke="#000000" stroke-linecap="round" stroke-linejoin="round" stroke-width="2.000000"
	d="
M151.000000,70.000000 
	C145.990509,72.944244 144.739227,76.640572 146.929932,80.539368 
	C148.393127,83.143410 150.421646,83.845917 152.994354,83.462128 
	C156.026566,83.009811 157.556763,80.757271 157.931290,77.990700 
	C158.302765,75.246689 158.145309,72.398949 154.995621,71.009949 
	C153.883499,70.519516 152.902618,69.507523 151.500000,70.000000 
"/>
</svg>