<?xml version="1.0" encoding="UTF-8"?>
<svg version="1.1" xmlns="http://www.w3.org/2000/svg" width="594" height="490">
<path d="M0 0 C0.66 0 1.32 0 2 0 C0.62690807 4.60218338 -1.25654364 8.48831087 -3.66015625 12.640625 C-4.0100914 13.24888123 -4.36002655 13.85713745 -4.7205658 14.48382568 C-5.8294634 16.40887032 -6.94574731 18.32950369 -8.0625 20.25 C-9.18110093 22.18573494 -10.29819823 24.12233174 -11.41514587 26.059021 C-12.42419049 27.80668249 -13.4367391 29.55231948 -14.44946289 31.29785156 C-15.33691738 32.84443419 -16.20256746 34.40513492 -17 36 C-7.87859204 33.83879557 1.13688748 31.42610935 10.125 28.765625 C11.57350342 28.33824036 11.57350342 28.33824036 13.05126953 27.90222168 C17.05266344 26.71972167 21.05308065 25.53430325 25.04931641 24.33447266 C28.00924603 23.44758986 30.97293609 22.57437124 33.9375 21.703125 C34.83033691 21.43131409 35.72317383 21.15950317 36.64306641 20.87945557 C43.89554666 18.76564054 50.17059859 18.0568662 57.5 20.5 C58.3559375 20.7784375 59.211875 21.056875 60.09375 21.34375 C60.7228125 21.5603125 61.351875 21.776875 62 22 C62 22.99 62 23.98 62 25 C59.66666667 24.66666667 57.33333333 24.33333333 55 24 C53.76378906 23.82339844 52.52757812 23.64679688 51.25390625 23.46484375 C50.18011719 23.31144531 49.10632813 23.15804687 48 23 C47.31224487 24.20946289 47.31224487 24.20946289 46.6105957 25.44335938 C44.88797802 28.4708192 43.16384507 31.49740586 41.4387207 34.5234375 C40.69626166 35.8264829 39.95438593 37.12986086 39.21313477 38.43359375 C35.26818912 45.37116505 31.30416304 52.27633703 27 59 C25.68 58.67 24.36 58.34 23 58 C23.35715088 57.39639648 23.71430176 56.79279297 24.08227539 56.17089844 C33.58389235 40.11054874 33.58389235 40.11054874 43 24 C33.86867929 26.1653209 24.84047751 28.57880162 15.83984375 31.234375 C14.87180817 31.5192981 13.90377258 31.80422119 12.90640259 32.09777832 C8.89416655 33.28088467 4.88299984 34.46732246 0.87524414 35.66552734 C-2.09246083 36.55110402 -5.06345156 37.42482962 -8.03515625 38.296875 C-8.93315445 38.56868591 -9.83115265 38.84049683 -10.75636292 39.12054443 C-11.60512497 39.36790344 -12.45388702 39.61526245 -13.32836914 39.87011719 C-14.06398575 40.08899597 -14.79960236 40.30787476 -15.55751038 40.53338623 C-21.1623345 41.6041331 -26.0065109 40.96050012 -31.42260742 39.34765625 C-32.65045456 38.98728271 -33.8783017 38.62690918 -35.14335632 38.25561523 C-36.46407227 37.85794937 -37.78477613 37.46024334 -39.10546875 37.0625 C-40.47564823 36.65795659 -41.84612181 36.25440806 -43.21687317 35.85180664 C-46.80974976 34.79443392 -50.39946915 33.72675642 -53.98834229 32.65588379 C-59.74175887 30.93996654 -65.49851751 29.2354732 -71.25777626 27.53927612 C-73.26451751 26.94591261 -75.26904509 26.34547511 -77.27348328 25.74438477 C-78.49187393 25.38401123 -79.71026459 25.0236377 -80.96557617 24.65234375 C-82.03700363 24.33257568 -83.10843109 24.01280762 -84.21232605 23.68334961 C-87.16912847 22.84127755 -87.16912847 22.84127755 -91 23 C-91.37060547 23.64622314 -91.74121094 24.29244629 -92.12304688 24.95825195 C-100.30614736 39.21482558 -108.57297089 53.41600396 -116.98242188 67.5402832 C-117.62501953 68.62011475 -118.26761719 69.69994629 -118.9296875 70.8125 C-119.49929199 71.76769531 -120.06889648 72.72289062 -120.65576172 73.70703125 C-121.48034584 75.11358666 -122.27084472 76.54168945 -123 78 C-113.80702837 75.80571672 -104.70156114 73.38578769 -95.62109375 70.765625 C-94.6309024 70.4807019 -93.64071106 70.19577881 -92.62051392 69.90222168 C-88.51281398 68.71872059 -84.40589177 67.53280267 -80.30249023 66.33447266 C-77.26520181 65.44900328 -74.22475168 64.57519688 -71.18359375 63.703125 C-70.26372177 63.43131409 -69.34384979 63.15950317 -68.39610291 62.87945557 C-59.27197495 60.28164259 -52.65067416 61.09345087 -43.69140625 63.84375 C-42.72468491 64.13229858 -41.75796356 64.42084717 -40.76194763 64.71813965 C-37.69269686 65.63648617 -34.6276357 66.56802169 -31.5625 67.5 C-29.47487252 68.12717866 -27.38698435 68.75349029 -25.29882812 69.37890625 C-20.1961575 70.90924453 -15.09685629 72.45041387 -10 74 C-10 74.99 -10 75.98 -10 77 C-15.71359302 76.4118774 -20.97462939 75.32463065 -26.48046875 73.71484375 C-27.25634842 73.49429825 -28.03222809 73.27375275 -28.83161926 73.04652405 C-32.11747721 72.11250277 -35.39940089 71.16501877 -38.68139648 70.2175293 C-41.09208772 69.5237624 -43.50490978 68.83782132 -45.91796875 68.15234375 C-46.65452194 67.93674301 -47.39107513 67.72114227 -48.14994812 67.49900818 C-53.50904382 65.97296066 -53.50904382 65.97296066 -59 66 C-61.55217717 67.82623237 -61.55217717 67.82623237 -63.97387695 70.40625 C-64.44277847 70.87442139 -64.91167999 71.34259277 -65.39479065 71.82495117 C-66.93810557 73.37174302 -68.4629671 74.93547148 -69.98828125 76.5 C-71.05621197 77.57725845 -72.12525374 78.65341652 -73.19535828 79.72851562 C-76.00620564 82.55843576 -78.80171453 85.40304864 -81.59429932 88.25097656 C-84.44763935 91.15550258 -87.31522124 94.04589129 -90.18164062 96.9375 C-95.80180222 102.61125422 -101.40583964 108.30060821 -107 114 C-106.66677734 115.19077148 -106.33355469 116.38154297 -105.99023438 117.60839844 C-104.75505889 122.02753413 -103.52665795 126.44852914 -102.30029297 130.87011719 C-101.76861151 132.78339188 -101.23509524 134.69615769 -100.69970703 136.60839844 C-99.9303849 139.35740478 -99.16768401 142.10817483 -98.40625 144.859375 C-98.16563843 145.71368103 -97.92502686 146.56798706 -97.67712402 147.44818115 C-97.34678162 148.64897308 -97.34678162 148.64897308 -97.00976562 149.87402344 C-96.81435181 150.57573669 -96.61893799 151.27744995 -96.41760254 152.00042725 C-96 154 -96 154 -96 158 C-96.99 158 -97.98 158 -99 158 C-105.96879376 144.53374544 -114.52822317 127.48806066 -111 112 C-105.98179969 101.92549399 -97.4810141 94.10582935 -89.25 86.625 C-88.70162601 86.12627506 -88.15325203 85.62755013 -87.58826065 85.11371231 C-80.60529468 78.80656939 -73.41330363 72.79612456 -66 67 C-82.35865544 71.32264474 -98.69931579 75.64473928 -114.89648438 80.546875 C-116.55454102 81.03414062 -116.55454102 81.03414062 -118.24609375 81.53125 C-119.66426392 81.95760742 -119.66426392 81.95760742 -121.11108398 82.39257812 C-128.03926773 83.84929419 -133.79395255 82.49829492 -140.43359375 80.59375 C-141.7504995 80.22751526 -141.7504995 80.22751526 -143.0940094 79.85388184 C-145.87761239 79.07767814 -148.65751563 78.28905436 -151.4375 77.5 C-153.33245107 76.96922587 -155.22763131 76.43926924 -157.12304688 75.91015625 C-161.75140377 74.61621646 -166.37648529 73.31113177 -171 72 C-171 71.01 -171 70.02 -171 69 C-165.60594228 69.56789393 -160.56561739 70.52172862 -155.359375 72.06640625 C-154.66990784 72.26475571 -153.98044067 72.46310516 -153.27008057 72.66746521 C-151.09503426 73.2934855 -148.92232133 73.92709359 -146.75 74.5625 C-144.56332585 75.20120352 -142.37620519 75.8380167 -140.18707275 76.46824646 C-138.83222509 76.85830098 -137.4787452 77.25314789 -136.12689209 77.65345764 C-132.89247322 78.58481996 -130.41141415 79 -127 79 C-126.6282666 78.33170166 -126.2565332 77.66340332 -125.87353516 76.97485352 C-119.52206518 65.56667393 -113.16941532 54.16651876 -106.50097656 42.93994141 C-102.20657738 35.69830002 -98.09776581 28.35420289 -94 21 C-95.10637817 20.93631226 -95.10637817 20.93631226 -96.23510742 20.87133789 C-105.69020212 20.24399595 -114.95821702 18.90738569 -124.3125 17.4375 C-125.8430296 17.20072313 -127.37362829 16.96439236 -128.90429688 16.72851562 C-132.60367257 16.15746728 -136.30208594 15.58044746 -140 15 C-139.67 14.01 -139.34 13.02 -139 12 C-107.29104943 14.06986897 -78.15440983 21.13687704 -47.74291992 29.85131836 C-47.0352457 30.05369236 -46.32757147 30.25606636 -45.59845257 30.46457291 C-42.22797432 31.4289768 -38.85952003 32.39941967 -35.49473572 33.3835144 C-34.30231766 33.7278653 -33.1098996 34.07221619 -31.88134766 34.42700195 C-30.83806305 34.731689 -29.79477844 35.03637604 -28.71987915 35.35029602 C-25.81764305 36.15489052 -25.81764305 36.15489052 -22 36 C-20.30094621 33.72945156 -18.93678917 31.59789414 -17.55859375 29.140625 C-17.14964371 28.43983826 -16.74069366 27.73905151 -16.3193512 27.01702881 C-15.01127042 24.76919777 -13.72396502 22.51025925 -12.4375 20.25 C-11.14331726 18.00665368 -9.84501249 15.7657537 -8.54493713 13.52581787 C-7.73696525 12.13043222 -6.9331783 10.73261272 -6.13414001 9.33209229 C-2.23867767 2.5398288 -2.23867767 2.5398288 0 0 Z " fill="#000000" transform="translate(330,93)"/>
<path d="M0 0 C4.39439651 1.46479884 5.52437258 4.87401146 7.625 8.75 C8.06303955 9.55058838 8.5010791 10.35117676 8.95239258 11.17602539 C13.95285133 20.50811466 18.0700708 30.1779908 22 40 C22.31565918 40.77923828 22.63131836 41.55847656 22.95654297 42.36132812 C32.4460602 66.01165725 39.94067773 92.41736724 41 118 C42.87945312 118.41572266 42.87945312 118.41572266 44.796875 118.83984375 C46.44792292 119.20570096 48.09896424 119.57158793 49.75 119.9375 C50.575 120.11990234 51.4 120.30230469 52.25 120.49023438 C53.04921875 120.66748047 53.8484375 120.84472656 54.671875 121.02734375 C55.77160645 121.27085571 55.77160645 121.27085571 56.89355469 121.51928711 C58.93661753 121.98553546 60.96893762 122.48420649 63 123 C63 123.99 63 124.98 63 126 C57.87475334 125.36684209 53.03469229 124.31839344 48.0625 122.9375 C47.37865234 122.75123047 46.69480469 122.56496094 45.99023438 122.37304688 C44.32579707 121.91910943 42.66274688 121.46009084 41 121 C41.33 121.66 41.66 122.32 42 123 C47.95006296 172.00774075 38.78113139 223.6968655 20 269 C19.67386719 269.78987305 19.34773438 270.57974609 19.01171875 271.39355469 C15.48535956 279.84066012 11.60544932 288.04340301 7.1875 296.0625 C6.62784546 297.09080933 6.62784546 297.09080933 6.05688477 298.13989258 C3.36584473 302.87805176 3.36584473 302.87805176 0 304 C0.59703445 299.55541019 2.29739193 296.38078565 4.5 292.5 C9.73708517 282.9841099 13.92563151 273.05865613 18 263 C18.31855957 262.21641113 18.63711914 261.43282227 18.96533203 260.62548828 C36.83597207 216.06828048 41.96173685 167.61158747 38 120 C37.34 120 36.68 120 36 120 C36 119.01 36 118.02 36 117 C36.66 117 37.32 117 38 117 C33.00105454 88.36568963 26.29902946 60.81068666 15 34 C14.6994873 33.27264648 14.39897461 32.54529297 14.08935547 31.79589844 C10.48557858 23.07520103 6.43728799 14.94130488 1.50390625 6.890625 C0 4 0 4 0 0 Z " fill="#000000" transform="translate(397,10)"/>
<path d="M0 0 C0.66 0 1.32 0 2 0 C1.40296555 4.44458981 -0.29739193 7.61921435 -2.5 11.5 C-7.73708517 21.0158901 -11.92563151 30.94134387 -16 41 C-16.31855957 41.78358887 -16.63711914 42.56717773 -16.96533203 43.37451172 C-31.79349219 80.34584638 -36.80704763 119.4268903 -38 159 C-36.01432292 158.48323568 -34.02864583 157.96647135 -32.04296875 157.44970703 C-29.65494297 156.92404457 -27.43699199 156.847688 -25 157 C-25 157.99 -25 158.98 -25 160 C-29.26616316 161.13764351 -32.56486311 162 -37 162 C-35.6446124 199.4367402 -27.5353023 235.51018502 -13 270 C-12.6994873 270.72735352 -12.39897461 271.45470703 -12.08935547 272.20410156 C-8.48557858 280.92479897 -4.43728799 289.05869512 0.49609375 297.109375 C2 300 2 300 2 304 C-2.39439651 302.53520116 -3.52437258 299.12598854 -5.625 295.25 C-6.28205933 294.04911743 -6.28205933 294.04911743 -6.95239258 292.82397461 C-11.95285133 283.49188534 -16.0700708 273.8220092 -20 264 C-20.31565918 263.22076172 -20.63131836 262.44152344 -20.95654297 261.63867188 C-49.84213287 189.64831754 -47.56038795 106.30444931 -18 35 C-17.67386719 34.21012695 -17.34773438 33.42025391 -17.01171875 32.60644531 C-5.8360546 5.8360546 -5.8360546 5.8360546 0 0 Z " fill="#000000" transform="translate(113,10)"/>
<path d="M0 0 C3.691875 -0.103125 7.38375 -0.20625 11.1875 -0.3125 C12.92036255 -0.38078003 12.92036255 -0.38078003 14.68823242 -0.45043945 C22.20952036 -0.55237175 22.20952036 -0.55237175 26.203125 2.23828125 C28.84225986 6.29451679 28.93439997 9.3195056 28 14 C25.94161475 17.33600367 24.2606736 18.8262176 21 21 C21.38671875 21.4125 21.7734375 21.825 22.171875 22.25 C26.05737783 26.5586764 28.59273608 30.7225368 31 36 C27.9375 36.6875 27.9375 36.6875 24 36 C21.17234323 32.60681187 19.11867033 28.8628 17 25 C15.34412478 21.83051301 15.34412478 21.83051301 12.6171875 21.26953125 C11.71226563 21.11871094 10.80734375 20.96789062 9.875 20.8125 C7.461875 20.4103125 7.461875 20.4103125 5 20 C5 25.28 5 30.56 5 36 C3.35 36 1.7 36 0 36 C0 24.12 0 12.24 0 0 Z M5 4 C5 7.96 5 11.92 5 16 C7.8153125 16.0928125 7.8153125 16.0928125 10.6875 16.1875 C12.27111328 16.23970703 12.27111328 16.23970703 13.88671875 16.29296875 C17.3890286 15.96339129 19.19777327 15.08396645 22 13 C23.22221889 10.47408096 23.15915849 9.46421227 22.25 6.8125 C21.04890402 4.68217062 21.04890402 4.68217062 18 4 C15.77181559 3.93062938 13.54165476 3.91542916 11.3125 3.9375 C10.13300781 3.94652344 8.95351562 3.95554687 7.73828125 3.96484375 C6.38283203 3.98224609 6.38283203 3.98224609 5 4 Z " fill="#191919" transform="translate(2,441)"/>
<path d="M0 0 C3.691875 -0.103125 7.38375 -0.20625 11.1875 -0.3125 C12.92036255 -0.38078003 12.92036255 -0.38078003 14.68823242 -0.45043945 C22.20952036 -0.55237175 22.20952036 -0.55237175 26.203125 2.23828125 C28.84225986 6.29451679 28.93439997 9.3195056 28 14 C25.94161475 17.33600367 24.2606736 18.8262176 21 21 C21.38671875 21.4125 21.7734375 21.825 22.171875 22.25 C26.05737783 26.5586764 28.59273608 30.7225368 31 36 C27.9375 36.6875 27.9375 36.6875 24 36 C21.17234323 32.60681187 19.11867033 28.8628 17 25 C15.34412478 21.83051301 15.34412478 21.83051301 12.6171875 21.26953125 C11.71226562 21.11871094 10.80734375 20.96789062 9.875 20.8125 C7.461875 20.4103125 7.461875 20.4103125 5 20 C5 25.28 5 30.56 5 36 C3.35 36 1.7 36 0 36 C0 24.12 0 12.24 0 0 Z M5 4 C5 7.96 5 11.92 5 16 C7.8153125 16.0928125 7.8153125 16.0928125 10.6875 16.1875 C12.27111328 16.23970703 12.27111328 16.23970703 13.88671875 16.29296875 C17.3890286 15.96339129 19.19777327 15.08396645 22 13 C23.22221889 10.47408096 23.15915849 9.46421227 22.25 6.8125 C21.04890402 4.68217062 21.04890402 4.68217062 18 4 C15.77181559 3.93062938 13.54165476 3.91542916 11.3125 3.9375 C10.13300781 3.94652344 8.95351563 3.95554687 7.73828125 3.96484375 C6.38283203 3.98224609 6.38283203 3.98224609 5 4 Z " fill="#191919" transform="translate(265,259)"/>
<path d="M0 0 C3.691875 -0.103125 7.38375 -0.20625 11.1875 -0.3125 C12.92036255 -0.38078003 12.92036255 -0.38078003 14.68823242 -0.45043945 C22.20952036 -0.55237175 22.20952036 -0.55237175 26.203125 2.23828125 C28.84225986 6.29451679 28.93439997 9.3195056 28 14 C25.94161475 17.33600367 24.2606736 18.8262176 21 21 C21.38671875 21.4125 21.7734375 21.825 22.171875 22.25 C26.05737783 26.5586764 28.59273608 30.7225368 31 36 C27.9375 36.6875 27.9375 36.6875 24 36 C21.17234323 32.60681187 19.11867033 28.8628 17 25 C15.34412478 21.83051301 15.34412478 21.83051301 12.6171875 21.26953125 C11.71226563 21.11871094 10.80734375 20.96789062 9.875 20.8125 C7.461875 20.4103125 7.461875 20.4103125 5 20 C5 25.28 5 30.56 5 36 C3.35 36 1.7 36 0 36 C0 24.12 0 12.24 0 0 Z M5 4 C5 7.96 5 11.92 5 16 C7.8153125 16.0928125 7.8153125 16.0928125 10.6875 16.1875 C12.27111328 16.23970703 12.27111328 16.23970703 13.88671875 16.29296875 C17.3890286 15.96339129 19.19777327 15.08396645 22 13 C23.22221889 10.47408096 23.15915849 9.46421227 22.25 6.8125 C21.04890402 4.68217062 21.04890402 4.68217062 18 4 C15.77181559 3.93062938 13.54165476 3.91542916 11.3125 3.9375 C10.13300781 3.94652344 8.95351562 3.95554687 7.73828125 3.96484375 C6.38283203 3.98224609 6.38283203 3.98224609 5 4 Z " fill="#191919" transform="translate(115,86)"/>
<path d="M0 0 C3.691875 -0.103125 7.38375 -0.20625 11.1875 -0.3125 C12.92036255 -0.38078003 12.92036255 -0.38078003 14.68823242 -0.45043945 C22.20952036 -0.55237175 22.20952036 -0.55237175 26.203125 2.23828125 C28.84225986 6.29451679 28.93439997 9.3195056 28 14 C25.94161475 17.33600367 24.2606736 18.8262176 21 21 C21.38671875 21.4125 21.7734375 21.825 22.171875 22.25 C26.05737783 26.5586764 28.59273608 30.7225368 31 36 C27.9375 36.6875 27.9375 36.6875 24 36 C21.17234323 32.60681187 19.11867033 28.8628 17 25 C15.34412478 21.83051301 15.34412478 21.83051301 12.6171875 21.26953125 C11.71226562 21.11871094 10.80734375 20.96789062 9.875 20.8125 C7.461875 20.4103125 7.461875 20.4103125 5 20 C5 25.28 5 30.56 5 36 C3.35 36 1.7 36 0 36 C0 24.12 0 12.24 0 0 Z M5 4 C5 7.96 5 11.92 5 16 C7.8153125 16.0928125 7.8153125 16.0928125 10.6875 16.1875 C12.27111328 16.23970703 12.27111328 16.23970703 13.88671875 16.29296875 C17.3890286 15.96339129 19.19777327 15.08396645 22 13 C23.22221889 10.47408096 23.15915849 9.46421227 22.25 6.8125 C21.04890402 4.68217062 21.04890402 4.68217062 18 4 C15.77181559 3.93062938 13.54165476 3.91542916 11.3125 3.9375 C10.13300781 3.94652344 8.95351563 3.95554688 7.73828125 3.96484375 C6.38283203 3.98224609 6.38283203 3.98224609 5 4 Z " fill="#191919" transform="translate(370,53)"/>
<path d="M0 0 C4.45146251 2.18526342 7.18885145 4.9394521 10 9 C11.14330513 12.42991538 11.20381651 15.1986416 11.25 18.8125 C11.27578125 20.01519531 11.3015625 21.21789062 11.328125 22.45703125 C10.90679725 27.00636777 9.60050615 30.28546288 6.46484375 33.64453125 C0.49668828 38.20841484 -3.52772177 38.76096751 -11 38 C-15.45146251 35.81473658 -18.18885145 33.0605479 -21 29 C-22.14330513 25.57008462 -22.20381651 22.8013584 -22.25 19.1875 C-22.28867187 17.38345703 -22.28867187 17.38345703 -22.328125 15.54296875 C-21.90679725 10.99363223 -20.60050615 7.71453712 -17.46484375 4.35546875 C-11.49668828 -0.20841484 -7.47227823 -0.76096751 0 0 Z M-13 7 C-16.7208121 11.23402757 -17.14107949 16.53939401 -17 22 C-16.21114165 25.87257736 -14.93043304 29.00539917 -12.1875 31.9375 C-9.32965764 33.32559486 -7.18949479 33.87242021 -4 34 C-0.55701021 32.78482713 1.44159661 31.65467984 3.8125 28.875 C6.53431999 22.28533056 6.51539829 16.52798926 3.9453125 9.8828125 C2.66861879 7.33997627 1.59808699 6.18769691 -1 5 C-5.97960728 3.48446735 -8.68562055 4.12374703 -13 7 Z " fill="#323232" transform="translate(434,440)"/>
<path d="M0 0 C4.45146251 2.18526342 7.18885145 4.9394521 10 9 C11.14330513 12.42991538 11.20381651 15.1986416 11.25 18.8125 C11.27578125 20.01519531 11.3015625 21.21789062 11.328125 22.45703125 C10.90679725 27.00636777 9.60050615 30.28546288 6.46484375 33.64453125 C0.49668828 38.20841484 -3.52772177 38.76096751 -11 38 C-15.45146251 35.81473658 -18.18885145 33.0605479 -21 29 C-22.14330513 25.57008462 -22.20381651 22.8013584 -22.25 19.1875 C-22.28867188 17.38345703 -22.28867188 17.38345703 -22.328125 15.54296875 C-21.90679725 10.99363223 -20.60050615 7.71453712 -17.46484375 4.35546875 C-11.49668828 -0.20841484 -7.47227823 -0.76096751 0 0 Z M-13 7 C-16.7208121 11.23402757 -17.14107949 16.53939401 -17 22 C-16.21114165 25.87257736 -14.93043304 29.00539917 -12.1875 31.9375 C-9.32965764 33.32559486 -7.18949479 33.87242021 -4 34 C-0.55701021 32.78482713 1.44159661 31.65467984 3.8125 28.875 C6.53431999 22.28533056 6.51539829 16.52798926 3.9453125 9.8828125 C2.66861879 7.33997627 1.59808699 6.18769691 -1 5 C-5.97960728 3.48446735 -8.68562055 4.12374703 -13 7 Z " fill="#323232" transform="translate(247,258)"/>
<path d="M0 0 C4.45146251 2.18526342 7.18885145 4.9394521 10 9 C11.14330513 12.42991538 11.20381651 15.1986416 11.25 18.8125 C11.27578125 20.01519531 11.3015625 21.21789062 11.328125 22.45703125 C10.90679725 27.00636777 9.60050615 30.28546288 6.46484375 33.64453125 C0.49668828 38.20841484 -3.52772177 38.76096751 -11 38 C-15.45146251 35.81473658 -18.18885145 33.0605479 -21 29 C-22.14330513 25.57008462 -22.20381651 22.8013584 -22.25 19.1875 C-22.28867187 17.38345703 -22.28867187 17.38345703 -22.328125 15.54296875 C-21.90679725 10.99363223 -20.60050615 7.71453712 -17.46484375 4.35546875 C-11.49668828 -0.20841484 -7.47227823 -0.76096751 0 0 Z M-13 7 C-16.7208121 11.23402757 -17.14107949 16.53939401 -17 22 C-16.21114165 25.87257736 -14.93043304 29.00539917 -12.1875 31.9375 C-9.32965764 33.32559486 -7.18949479 33.87242021 -4 34 C-0.55701021 32.78482713 1.44159661 31.65467984 3.8125 28.875 C6.53431999 22.28533056 6.51539829 16.52798926 3.9453125 9.8828125 C2.66861879 7.33997627 1.59808699 6.18769691 -1 5 C-5.97960728 3.48446735 -8.68562055 4.12374703 -13 7 Z " fill="#323232" transform="translate(349,157)"/>
<path d="M0 0 C4.45146251 2.18526342 7.18885145 4.9394521 10 9 C11.14330513 12.42991538 11.20381651 15.1986416 11.25 18.8125 C11.27578125 20.01519531 11.3015625 21.21789062 11.328125 22.45703125 C10.90679725 27.00636777 9.60050615 30.28546288 6.46484375 33.64453125 C0.49668828 38.20841484 -3.52772177 38.76096751 -11 38 C-15.45146251 35.81473658 -18.18885145 33.0605479 -21 29 C-22.14330513 25.57008462 -22.20381651 22.8013584 -22.25 19.1875 C-22.28867188 17.38345703 -22.28867188 17.38345703 -22.328125 15.54296875 C-21.90679725 10.99363223 -20.60050615 7.71453712 -17.46484375 4.35546875 C-11.49668828 -0.20841484 -7.47227823 -0.76096751 0 0 Z M-13 7 C-16.7208121 11.23402757 -17.14107949 16.53939401 -17 22 C-16.21114165 25.87257736 -14.93043304 29.00539917 -12.1875 31.9375 C-9.32965764 33.32559486 -7.18949479 33.87242021 -4 34 C-0.55701021 32.78482713 1.44159661 31.65467984 3.8125 28.875 C6.53431999 22.28533056 6.51539829 16.52798926 3.9453125 9.8828125 C2.66861879 7.33997627 1.59808699 6.18769691 -1 5 C-5.97960728 3.48446735 -8.68562055 4.12374703 -13 7 Z " fill="#323232" transform="translate(141,138)"/>
<path d="M0 0 C4.45146251 2.18526342 7.18885145 4.9394521 10 9 C11.14330513 12.42991538 11.20381651 15.1986416 11.25 18.8125 C11.27578125 20.01519531 11.3015625 21.21789062 11.328125 22.45703125 C10.90679725 27.00636777 9.60050615 30.28546288 6.46484375 33.64453125 C0.49668828 38.20841484 -3.52772177 38.76096751 -11 38 C-15.45146251 35.81473658 -18.18885145 33.0605479 -21 29 C-22.14330513 25.57008462 -22.20381651 22.8013584 -22.25 19.1875 C-22.28867188 17.38345703 -22.28867188 17.38345703 -22.328125 15.54296875 C-21.90679725 10.99363223 -20.60050615 7.71453712 -17.46484375 4.35546875 C-11.49668828 -0.20841484 -7.47227823 -0.76096751 0 0 Z M-13 7 C-16.7208121 11.23402757 -17.14107949 16.53939401 -17 22 C-16.21114165 25.87257736 -14.93043304 29.00539917 -12.1875 31.9375 C-9.32965764 33.32559486 -7.18949479 33.87242021 -4 34 C-0.55701021 32.78482713 1.44159661 31.65467984 3.8125 28.875 C6.53431999 22.28533056 6.51539829 16.52798926 3.9453125 9.8828125 C2.66861879 7.33997627 1.59808699 6.18769691 -1 5 C-5.97960728 3.48446735 -8.68562055 4.12374703 -13 7 Z " fill="#323232" transform="translate(172,85)"/>
<path d="M0 0 C4.45146251 2.18526342 7.18885145 4.9394521 10 9 C11.14330513 12.42991538 11.20381651 15.1986416 11.25 18.8125 C11.27578125 20.01519531 11.3015625 21.21789062 11.328125 22.45703125 C10.90679725 27.00636777 9.60050615 30.28546288 6.46484375 33.64453125 C0.49668828 38.20841484 -3.52772177 38.76096751 -11 38 C-15.45146251 35.81473658 -18.18885145 33.0605479 -21 29 C-22.14330513 25.57008462 -22.20381651 22.8013584 -22.25 19.1875 C-22.28867187 17.38345703 -22.28867187 17.38345703 -22.328125 15.54296875 C-21.90679725 10.99363223 -20.60050615 7.71453712 -17.46484375 4.35546875 C-11.49668828 -0.20841484 -7.47227823 -0.76096751 0 0 Z M-13 7 C-16.7208121 11.23402757 -17.14107949 16.53939401 -17 22 C-16.21114165 25.87257736 -14.93043304 29.00539917 -12.1875 31.9375 C-9.32965764 33.32559486 -7.18949479 33.87242021 -4 34 C-0.55701021 32.78482713 1.44159661 31.65467984 3.8125 28.875 C6.53431999 22.28533056 6.51539829 16.52798926 3.9453125 9.8828125 C2.66861879 7.33997627 1.59808699 6.18769691 -1 5 C-5.97960728 3.48446735 -8.68562055 4.12374703 -13 7 Z " fill="#323232" transform="translate(352,52)"/>
<path d="M0 0 C4.24806407 1.68152536 6.05149196 3.8978778 8 8 C8 8.99 8 9.98 8 11 C6.35 11.33 4.7 11.66 3 12 C2.195625 10.5459375 2.195625 10.5459375 1.375 9.0625 C-0.69959848 5.7902811 -0.69959848 5.7902811 -3.9375 5.0625 C-6.83183365 5.00343197 -9.1885273 5.38632829 -12 6 C-14.75690749 13.18042007 -15.78149581 19.42254178 -14 27 C-12.02392789 30.6593928 -10.97750202 31.66723335 -7.0625 33 C-3.30860534 33 -1.87058042 32.40508089 1 30 C2.82629794 26.93319201 2.82629794 26.93319201 4 24 C5.65 24.33 7.3 24.66 9 25 C8.54713369 29.86831281 7.41678531 32.48559226 4 36 C-0.68955627 38.90935595 -5.66000098 38.60452819 -11 38 C-15.69324352 35.95203919 -18.2533848 33.1415652 -20.3046875 28.5390625 C-22.15951607 21.7658121 -22.26527734 13.85990799 -19.375 7.375 C-14.67576561 -0.20231219 -8.33546345 -1.04352367 0 0 Z " fill="#333433" transform="translate(525,440)"/>
<path d="M0 0 C4.24806407 1.68152536 6.05149196 3.8978778 8 8 C8 8.99 8 9.98 8 11 C6.35 11.33 4.7 11.66 3 12 C2.195625 10.5459375 2.195625 10.5459375 1.375 9.0625 C-0.69959848 5.7902811 -0.69959848 5.7902811 -3.9375 5.0625 C-6.83183365 5.00343197 -9.1885273 5.38632829 -12 6 C-14.75690749 13.18042007 -15.78149581 19.42254178 -14 27 C-12.02392789 30.6593928 -10.97750202 31.66723335 -7.0625 33 C-3.30860534 33 -1.87058042 32.40508089 1 30 C2.82629794 26.93319201 2.82629794 26.93319201 4 24 C5.65 24.33 7.3 24.66 9 25 C8.54713369 29.86831281 7.41678531 32.48559226 4 36 C-0.68955627 38.90935595 -5.66000098 38.60452819 -11 38 C-15.69324352 35.95203919 -18.2533848 33.1415652 -20.3046875 28.5390625 C-22.15951607 21.7658121 -22.26527734 13.85990799 -19.375 7.375 C-14.67576561 -0.20231219 -8.33546345 -1.04352367 0 0 Z " fill="#333433" transform="translate(344,440)"/>
<path d="M0 0 C4.24806407 1.68152536 6.05149196 3.8978778 8 8 C8 8.99 8 9.98 8 11 C6.35 11.33 4.7 11.66 3 12 C2.195625 10.5459375 2.195625 10.5459375 1.375 9.0625 C-0.69959848 5.7902811 -0.69959848 5.7902811 -3.9375 5.0625 C-6.83183365 5.00343197 -9.1885273 5.38632829 -12 6 C-14.75690749 13.18042007 -15.78149581 19.42254178 -14 27 C-12.02392789 30.6593928 -10.97750202 31.66723335 -7.0625 33 C-3.30860534 33 -1.87058042 32.40508089 1 30 C2.82629794 26.93319201 2.82629794 26.93319201 4 24 C5.65 24.33 7.3 24.66 9 25 C8.54713369 29.86831281 7.41678531 32.48559226 4 36 C-0.68955627 38.90935595 -5.66000098 38.60452819 -11 38 C-15.69324352 35.95203919 -18.2533848 33.1415652 -20.3046875 28.5390625 C-22.15951607 21.7658121 -22.26527734 13.85990799 -19.375 7.375 C-14.67576561 -0.20231219 -8.33546345 -1.04352367 0 0 Z " fill="#333433" transform="translate(252,440)"/>
<path d="M0 0 C1.65 0 3.3 0 5 0 C5 4.95 5 9.9 5 15 C10.94 15 16.88 15 23 15 C23 10.05 23 5.1 23 0 C24.65 0 26.3 0 28 0 C28 11.88 28 23.76 28 36 C26.35 36 24.7 36 23 36 C23 30.39 23 24.78 23 19 C17.06 19 11.12 19 5 19 C5 24.61 5 30.22 5 36 C3.35 36 1.7 36 0 36 C0 24.12 0 12.24 0 0 Z " fill="#000000" transform="translate(541,441)"/>
<path d="M0 0 C1.65 0 3.3 0 5 0 C5 4.95 5 9.9 5 15 C10.94 15 16.88 15 23 15 C23 10.05 23 5.1 23 0 C24.65 0 26.3 0 28 0 C28 11.88 28 23.76 28 36 C26.35 36 24.7 36 23 36 C23 30.39 23 24.78 23 19 C17.06 19 11.12 19 5 19 C5 24.61 5 30.22 5 36 C3.35 36 1.7 36 0 36 C0 24.12 0 12.24 0 0 Z " fill="#000000" transform="translate(452,441)"/>
<path d="M0 0 C1.65 0 3.3 0 5 0 C5 4.95 5 9.9 5 15 C10.94 15 16.88 15 23 15 C23 10.05 23 5.1 23 0 C24.65 0 26.3 0 28 0 C28 11.88 28 23.76 28 36 C26.35 36 24.7 36 23 36 C23 30.39 23 24.78 23 19 C17.06 19 11.12 19 5 19 C5 24.61 5 30.22 5 36 C3.35 36 1.7 36 0 36 C0 24.12 0 12.24 0 0 Z " fill="#000000" transform="translate(361,441)"/>
<path d="M0 0 C1.65 0 3.3 0 5 0 C5 4.95 5 9.9 5 15 C10.94 15 16.88 15 23 15 C23 10.05 23 5.1 23 0 C24.65 0 26.3 0 28 0 C28 11.88 28 23.76 28 36 C26.35 36 24.7 36 23 36 C23 30.39 23 24.78 23 19 C17.06 19 11.12 19 5 19 C5 24.61 5 30.22 5 36 C3.35 36 1.7 36 0 36 C0 24.12 0 12.24 0 0 Z " fill="#000000" transform="translate(268,441)"/>
<path d="M0 0 C1.65 0 3.3 0 5 0 C5 4.95 5 9.9 5 15 C10.94 15 16.88 15 23 15 C23 10.05 23 5.1 23 0 C24.65 0 26.3 0 28 0 C28 11.88 28 23.76 28 36 C26.35 36 24.7 36 23 36 C23 30.39 23 24.78 23 19 C17.06 19 11.12 19 5 19 C5 24.61 5 30.22 5 36 C3.35 36 1.7 36 0 36 C0 24.12 0 12.24 0 0 Z " fill="#000000" transform="translate(95,441)"/>
<path d="M0 0 C3.12578143 1.6720747 5.39281175 3.7856235 7 7 C8.04817082 17.84108101 8.04817082 17.84108101 5.953125 22.15625 C3.60209072 24.97749113 1.49495435 26.81178632 -2.171875 27.2734375 C-9.98876369 27.58137554 -9.98876369 27.58137554 -13.5625 24.625 C-17.79505166 20.06686745 -17.38618319 16.27740137 -17.359375 10.21875 C-16.84085837 5.57464453 -15.49497581 3.99569355 -12 1 C-8.27533151 -0.86233425 -4.05504687 -0.57130829 0 0 Z M-11 7 C-13.51260426 11.11153425 -13.10589055 14.40630078 -12 19 C-10.41154109 21.38268836 -9.30933354 21.88603501 -6.625 22.875 C-3.12514088 23.04165996 -1.70276564 22.1914316 1 20 C3.51260426 15.88846575 3.10589055 12.59369922 2 8 C0.41154109 5.61731164 -0.69066646 5.11396499 -3.375 4.125 C-6.87485912 3.95834004 -8.29723436 4.8085684 -11 7 Z " fill="#393938" transform="translate(174,450)"/>
<path d="M0 0 C1.12535156 -0.04253906 1.12535156 -0.04253906 2.2734375 -0.0859375 C5.91179414 0.62722875 7.2399156 1.47614085 9.625 4.375 C10.24912853 8.30592833 10.09378566 12.15774868 9.9375 16.125 C9.91494141 17.20394531 9.89238281 18.28289062 9.86914062 19.39453125 C9.8102565 22.0560935 9.72807001 24.71484228 9.625 27.375 C8.305 27.375 6.985 27.375 5.625 27.375 C5.56441406 26.11042969 5.50382812 24.84585937 5.44140625 23.54296875 C5.35699096 21.88280129 5.27234345 20.22264563 5.1875 18.5625 C5.14818359 17.72912109 5.10886719 16.89574219 5.06835938 16.03710938 C5.02646484 15.23466797 4.98457031 14.43222656 4.94140625 13.60546875 C4.90474854 12.86707764 4.86809082 12.12868652 4.83032227 11.36791992 C4.67657859 9.167505 4.67657859 9.167505 3.625 6.375 C-0.53958199 5.42094428 -0.53958199 5.42094428 -4.6875 6.0625 C-6.83743612 7.73467254 -6.87001168 8.74084763 -7.375 11.375 C-7.59890317 14.12817974 -7.78893662 16.86805329 -7.9375 19.625 C-7.98068359 20.37007813 -8.02386719 21.11515625 -8.06835938 21.8828125 C-8.17396725 23.713349 -8.27494201 25.54415176 -8.375 27.375 C-9.695 27.375 -11.015 27.375 -12.375 27.375 C-12.375 18.795 -12.375 10.215 -12.375 1.375 C-9.9 1.87 -9.9 1.87 -7.375 2.375 C-4.32767415 0.34344943 -3.48080195 0.05939935 0 0 Z " fill="#1A1A1A" transform="translate(438.375,294.625)"/>
<path d="M0 0 C2.5 1.0625 2.5 1.0625 4 3 C4.46913089 7.37855495 4.46943529 9.29584707 2 13 C2.66 13 3.32 13 4 13 C5.61028119 16.22056238 5.59198765 19.5169099 5 23 C2.88134472 25.6483191 1.37782575 26.73807669 -1.97265625 27.375 C-5.5252291 27.58749034 -7.60893741 27.28352038 -10.5 25.1875 C-12 23 -12 23 -12 20 C-10.68 20 -9.36 20 -8 20 C-7.525625 20.515625 -7.05125 21.03125 -6.5625 21.5625 C-6.046875 22.036875 -5.53125 22.51125 -5 23 C-2.34533951 22.76956136 -2.34533951 22.76956136 0 22 C0.69159401 20.15274948 0.69159401 20.15274948 1 18 C-0.66954819 14.77595022 -0.66954819 14.77595022 -3.625 14.3125 C-4.800625 14.1578125 -4.800625 14.1578125 -6 14 C-6 13.01 -6 12.02 -6 11 C-4.02 10.01 -2.04 9.02 0 8 C0 6.68 0 5.36 0 4 C-2.3431213 4.25561323 -4.67843403 4.59270772 -7 5 C-7.33 5.66 -7.66 6.32 -8 7 C-9.32 7 -10.64 7 -12 7 C-11.62120265 4.80297535 -11.09789619 3.16124078 -9.9375 1.25 C-6.80999538 -0.76774492 -3.55476782 -0.50782397 0 0 Z " fill="#464745" transform="translate(587,461)"/>
<path d="M0 0 C2.625 1.5625 2.625 1.5625 4 4 C4.6875 7.25 4.6875 7.25 4 11 C0.80558137 15.77378204 -3.3678771 19.63118334 -8 23 C-4.04 23.33 -0.08 23.66 4 24 C4 24.99 4 25.98 4 27 C-1.94 27 -7.88 27 -14 27 C-12.88520909 21.42604545 -11.11693443 19.85721166 -7 16.4375 C-2.86918382 13.14888145 -2.86918382 13.14888145 -0.0625 8.78515625 C0.14617903 6.89382863 0.14617903 6.89382863 -1 5 C-3.83668535 4.06845374 -3.83668535 4.06845374 -7 4 C-9.19038423 5.37168238 -9.19038423 5.37168238 -11 7 C-11.99 7 -12.98 7 -14 7 C-13.6875 4.625 -13.6875 4.625 -13 2 C-8.75636148 -0.82909235 -4.98073875 -0.64399077 0 0 Z " fill="#404240" transform="translate(315,461)"/>
<path d="M0 0 C1.32 0 2.64 0 4 0 C3.731875 0.639375 3.46375 1.27875 3.1875 1.9375 C2.795625 2.948125 2.40375 3.95875 2 5 C1.74734375 5.63164062 1.4946875 6.26328125 1.234375 6.9140625 C-2.71736711 17.56826916 -2.66801055 27.26590852 1 38 C1.94368683 40.02717912 2.91844497 42.04290043 4 44 C4 44.66 4 45.32 4 46 C1.671875 45.8359375 1.671875 45.8359375 -1 45 C-2.546875 42.6015625 -2.546875 42.6015625 -3.75 39.625 C-4.15734375 38.64789063 -4.5646875 37.67078125 -4.984375 36.6640625 C-8.46779922 27.52677282 -8.38557501 17.23500104 -4.625 8.1875 C-3.2429529 5.25772179 -1.80007444 2.70011165 0 0 Z " fill="#3B3D3B" transform="translate(403,441)"/>
<path d="M0 0 C1.32 0 2.64 0 4 0 C4.98163422 1.93625098 5.96022454 3.87404539 6.9375 5.8125 C7.75541016 7.43091797 7.75541016 7.43091797 8.58984375 9.08203125 C12.31135069 16.78276721 12.31885187 26.44307154 9.953125 34.6171875 C8.26236414 38.68495921 6.44413644 42.33379535 4 46 C2.68 46 1.36 46 0 46 C0.268125 45.360625 0.53625 44.72125 0.8125 44.0625 C1.4003125 42.5465625 1.4003125 42.5465625 2 41 C2.25265625 40.36835938 2.5053125 39.73671875 2.765625 39.0859375 C6.71736711 28.43173084 6.66801055 18.73409148 3 8 C2.05631317 5.97282088 1.08155503 3.95709957 0 2 C0 1.34 0 0.68 0 0 Z " fill="#404240" transform="translate(487,441)"/>
<path d="M0 0 C1.670625 0.061875 1.670625 0.061875 3.375 0.125 C4 2 4 2 4.375 4.125 C3.715 4.785 3.055 5.445 2.375 6.125 C-0.75 5.75 -0.75 5.75 -3.625 5.125 C-4.5251836 9.92093617 -4.91939762 14.63899614 -5.1875 19.5 C-5.23068359 20.23605469 -5.27386719 20.97210938 -5.31835938 21.73046875 C-5.42343799 23.52848068 -5.52462093 25.32671958 -5.625 27.125 C-6.945 27.125 -8.265 27.125 -9.625 27.125 C-9.625 18.545 -9.625 9.965 -9.625 1.125 C-8.305 1.455 -6.985 1.785 -5.625 2.125 C-3.625 0.125 -3.625 0.125 0 0 Z " fill="#1A1A1A" transform="translate(195.625,449.875)"/>
<path d="M0 0 C2.475 0.495 2.475 0.495 5 1 C7.23167185 0.63143136 7.23167185 0.63143136 9 0 C8.72285156 0.53625 8.44570313 1.0725 8.16015625 1.625 C4.4596186 9.63185726 4.2151361 17.33001531 4 26 C2.68 26 1.36 26 0 26 C0 17.42 0 8.84 0 0 Z " fill="#111111" transform="translate(426,296)"/>
<path d="M0 0 C7.59 0 15.18 0 23 0 C23 1.32 23 2.64 23 4 C15.41 4 7.82 4 0 4 C0 2.68 0 1.36 0 0 Z " fill="#000000" transform="translate(51,463)"/>
<path d="M0 0 C7.59 0 15.18 0 23 0 C23 1.32 23 2.64 23 4 C15.41 4 7.82 4 0 4 C0 2.68 0 1.36 0 0 Z " fill="#000000" transform="translate(51,452)"/>
<path d="M0 0 C2.5 1.0625 2.5 1.0625 4 3 C4.46913089 7.37855495 4.46943529 9.29584707 2 13 C1.34 13 0.68 13 0 13 C-1.10844919 9.67465243 -0.84454356 7.37817425 0 4 C-2.3431213 4.25561323 -4.67843403 4.59270772 -7 5 C-7.33 5.66 -7.66 6.32 -8 7 C-9.32 7 -10.64 7 -12 7 C-11.62120265 4.80297535 -11.09789619 3.16124078 -9.9375 1.25 C-6.80999538 -0.76774492 -3.55476782 -0.50782397 0 0 Z " fill="#4A4B4B" transform="translate(587,461)"/>
<path d="M0 0 C2.73885424 -0.13170447 5.00133489 -0.06601942 7.6875 0.25 C8.38939453 0.31574219 9.09128906 0.38148438 9.81445312 0.44921875 C11.54486164 0.61401956 13.27278524 0.80454642 15 1 C15 1.99 15 2.98 15 4 C9.06 4 3.12 4 -3 4 C-2.01 2.68 -1.02 1.36 0 0 Z " fill="#000000" transform="translate(304,484)"/>
<path d="M0 0 C4.571279 0.54855348 8.67435795 1.41744803 13 3 C13 3.99 13 4.98 13 6 C11.41532272 5.71572583 9.8322943 5.42225182 8.25 5.125 C7.36828125 4.96257812 6.4865625 4.80015625 5.578125 4.6328125 C3.13052256 4.03203736 1.19400143 3.22002883 -1 2 C-0.67 1.34 -0.34 0.68 0 0 Z " fill="#000000" transform="translate(406,119)"/>
<path d="M0 0 C8.57142857 1 8.57142857 1 12 2 C12 2.99 12 3.98 12 5 C10.58249437 4.88490339 9.16598831 4.75746342 7.75 4.625 C6.96109375 4.55539063 6.1721875 4.48578125 5.359375 4.4140625 C2.914123 3.98492887 1.15163097 3.21399362 -1 2 C-0.67 1.34 -0.34 0.68 0 0 Z " fill="#000000" transform="translate(497,144)"/>
<path d="M0 0 C8.57142857 1 8.57142857 1 12 2 C12 2.99 12 3.98 12 5 C10.58249437 4.88490339 9.16598831 4.75746342 7.75 4.625 C6.96109375 4.55539063 6.1721875 4.48578125 5.359375 4.4140625 C2.914123 3.98492887 1.15163097 3.21399362 -1 2 C-0.67 1.34 -0.34 0.68 0 0 Z " fill="#000000" transform="translate(472,137)"/>
<path d="M0 0 C0 3 0 3 -2.3125 5.375 C-3.199375 6.24125 -4.08625 7.1075 -5 8 C-5.495 8.886875 -5.99 9.77375 -6.5 10.6875 C-8.32765553 13.5051356 -9.83634827 14.05945489 -13 15 C-11.60405935 10.50108272 -9.4837717 8.29111933 -5.9375 5.25 C-5.03902344 4.47140625 -4.14054687 3.6928125 -3.21484375 2.890625 C-2.48394531 2.26671875 -1.75304687 1.6428125 -1 1 C-0.67 0.67 -0.34 0.34 0 0 Z " fill="#747672" transform="translate(314,472)"/>
<path d="M0 0 C0 0.99 0 1.98 0 3 C-3.87684087 4.19287411 -6.91621923 5 -11 5 C-11.33 4.01 -11.66 3.02 -12 2 C-10.7625 1.67 -9.525 1.34 -8.25 1 C-7.55390625 0.814375 -6.8578125 0.62875 -6.140625 0.4375 C-4 0 -4 0 0 0 Z " fill="#000000" transform="translate(41,180)"/>
<path d="M0 0 C0 0.99 0 1.98 0 3 C-4.26616316 4.13764351 -7.56486311 5 -12 5 C-12 4.01 -12 3.02 -12 2 C-10.7625 1.67 -9.525 1.34 -8.25 1 C-7.55390625 0.814375 -6.8578125 0.62875 -6.140625 0.4375 C-4 0 -4 0 0 0 Z " fill="#000000" transform="translate(111,161)"/>
<path d="M0 0 C0 0.99 0 1.98 0 3 C-8.42857143 5.42857143 -8.42857143 5.42857143 -13 4 C-8.68630028 1.12420019 -5.19265239 0 0 0 Z " fill="#000000" transform="translate(65,173)"/>
<path d="M0 0 C1.32 0 2.64 0 4 0 C2.87548273 2.9719385 1.77706209 5.33440687 0 8 C-0.33 7.34 -0.66 6.68 -1 6 C-1.99 6.495 -1.99 6.495 -3 7 C-1.125 2.25 -1.125 2.25 0 0 Z " fill="#616261" transform="translate(403,441)"/>
<path d="M0 0 C0.33 0.99 0.66 1.98 1 3 C-0.11878383 4.17262904 -1.24523051 5.33795138 -2.375 6.5 C-3.00148438 7.1496875 -3.62796875 7.799375 -4.2734375 8.46875 C-6 10 -6 10 -8 10 C-6.34908222 5.70761377 -3.26245434 3.1206085 0 0 Z " fill="#383938" transform="translate(316,472)"/>
<path d="M0 0 C0.33 1.32 0.66 2.64 1 4 C-1.31 4 -3.62 4 -6 4 C-6 3.01 -6 2.02 -6 1 C-3 0 -3 0 0 0 Z " fill="#3E3F40" transform="translate(587,471)"/>
<path d="M0 0 C0.66 0.33 1.32 0.66 2 1 C-0.31 3.31 -2.62 5.62 -5 8 C-5.33 7.34 -5.66 6.68 -6 6 C-4 4 -2 2 0 0 Z " fill="#6A6B69" transform="translate(512,441)"/>
<path d="M0 0 C0.66 0.33 1.32 0.66 2 1 C-0.31 3.31 -2.62 5.62 -5 8 C-5.33 7.34 -5.66 6.68 -6 6 C-4 4 -2 2 0 0 Z " fill="#6A6B69" transform="translate(331,441)"/>
<path d="M0 0 C0.66 0.33 1.32 0.66 2 1 C-0.31 3.31 -2.62 5.62 -5 8 C-5.33 7.34 -5.66 6.68 -6 6 C-4 4 -2 2 0 0 Z " fill="#6A6B69" transform="translate(239,441)"/>
</svg>
