<?xml version="1.0" encoding="UTF-8" standalone="no"?>
<!-- Created with Inkscape (http://www.inkscape.org/) -->

<svg
   version="1.1"
   id="svg1"
   width="484.3606"
   height="465.9841"
   viewBox="0 0 484.3606 465.9841"
   sodipodi:docname="hydroxyethylcellulose.svg"
   inkscape:version="1.4.2 (f4327f4, 2025-05-13)"
   xmlns:inkscape="http://www.inkscape.org/namespaces/inkscape"
   xmlns:sodipodi="http://sodipodi.sourceforge.net/DTD/sodipodi-0.dtd"
   xmlns="http://www.w3.org/2000/svg"
   xmlns:svg="http://www.w3.org/2000/svg">
  <defs
     id="defs1" />
  <sodipodi:namedview
     id="namedview1"
     pagecolor="#ffffff"
     bordercolor="#000000"
     borderopacity="0.25"
     inkscape:showpageshadow="2"
     inkscape:pageopacity="0.0"
     inkscape:pagecheckerboard="0"
     inkscape:deskcolor="#d1d1d1"
     showgrid="false"
     inkscape:zoom="0.89016736"
     inkscape:cx="192.6604"
     inkscape:cy="191.53702"
     inkscape:window-width="1920"
     inkscape:window-height="1111"
     inkscape:window-x="-9"
     inkscape:window-y="-9"
     inkscape:window-maximized="1"
     inkscape:current-layer="g1" />
  <g
     inkscape:groupmode="layer"
     inkscape:label="Image"
     id="g1"
     transform="translate(-6.6394014,-8.8925145)">
    <path
       style="fill:#000000"
       d="m 309.11871,472.62661 c 0.654,-1.2375 4.04483,-4.87737 7.53519,-8.08859 6.50116,-5.98125 7.99906,-9.60845 5.1461,-12.46141 -2.01665,-2.01665 -8.60095,-1.4916 -10.03207,0.8 -1.91268,3.06267 -4.01988,2.64707 -2.58178,-0.50921 2.43326,-5.34042 11.84367,-5.4273 15.30718,-0.14131 2.47052,3.77049 0.97189,7.04705 -6.24986,13.66447 l -6.53272,5.98605 h 7.14463 c 5.68411,0 7.14462,0.30663 7.14462,1.5 0,1.22265 -1.67058,1.5 -9.03518,1.5 h -9.03519 z m 93,0 c 0.654,-1.2375 4.04483,-4.87737 7.53519,-8.08859 6.50116,-5.98125 7.99906,-9.60845 5.1461,-12.46141 -2.01665,-2.01665 -8.60095,-1.4916 -10.03207,0.8 -1.91268,3.06267 -4.01988,2.64707 -2.58178,-0.50921 2.43326,-5.34042 11.84367,-5.4273 15.30718,-0.14131 2.47052,3.77049 0.97189,7.04705 -6.24986,13.66447 l -6.53272,5.98605 h 7.14463 c 5.68411,0 7.14462,0.30663 7.14462,1.5 0,1.22265 -1.67058,1.5 -9.03518,1.5 h -9.03519 z M 248.68607,463.9038 c -3.81664,-1.20499 -5.50914,-2.75016 -7.62396,-6.96029 -4.12377,-8.20952 -3.30272,-19.45681 1.82072,-24.94147 3.18792,-3.41268 9.43772,-5.41132 14.04186,-4.49049 6.10833,1.22166 12.34972,10.36506 7.07531,10.36506 -1.1,0 -2,-0.47045 -2,-1.04545 0,-2.58055 -4.96704,-5.95455 -8.76598,-5.95455 -6.90257,0 -10.23402,4.92026 -10.23402,15.11476 0,9.46003 3.93606,14.88524 10.79943,14.88524 3.63518,0 9.20057,-4.49019 9.20057,-7.42308 0,-1.78741 0.84046,-1.96345 2.96339,-0.62071 1.27324,0.80532 1.24589,1.38171 -0.21048,4.43574 -0.92063,1.93059 -2.70415,4.18444 -3.96339,5.00856 -2.96678,1.94165 -9.52654,2.75598 -13.10345,1.62668 z m 92,0 c -3.81664,-1.20499 -5.50914,-2.75016 -7.62396,-6.96029 -4.12377,-8.20952 -3.30272,-19.45681 1.82072,-24.94147 3.18792,-3.41268 9.43772,-5.41132 14.04186,-4.49049 6.10833,1.22166 12.34972,10.36506 7.07531,10.36506 -1.1,0 -2,-0.47045 -2,-1.04545 0,-2.58055 -4.96704,-5.95455 -8.76598,-5.95455 -6.90257,0 -10.23402,4.92026 -10.23402,15.11476 0,9.46003 3.93606,14.88524 10.79943,14.88524 3.63518,0 9.20057,-4.49019 9.20057,-7.42308 0,-1.78741 0.84046,-1.96345 2.96339,-0.62071 1.27324,0.80532 1.24589,1.38171 -0.21048,4.43574 -0.92063,1.93059 -2.70415,4.18444 -3.96339,5.00856 -2.96678,1.94165 -9.52654,2.75598 -13.10345,1.62668 z m 93.93323,-0.0179 c -6.95167,-2.18697 -10.98615,-8.80059 -10.98615,-18.00929 0,-9.91605 4.86975,-16.93376 12.78056,-18.41783 11.83867,-2.22095 21.15383,8.76279 18.97695,22.37621 -1.65506,10.35022 -11.45745,16.98112 -20.77136,14.05095 z m 11.26383,-4.64002 c 6.84001,-4.79093 6.84001,-21.94769 0,-26.73862 -1.28048,-0.89684 -4.15289,-1.63065 -6.38313,-1.63065 -7.61426,0 -11.5,5.06835 -11.5,15 0,9.93165 3.88574,15 11.5,15 2.23024,0 5.10265,-0.73381 6.38313,-1.63069 z M 9.0000045,445.87661 v -18 l 8.7500005,0.006 c 12.03816,0.008 15.61512,1.13675 17.73168,5.59706 1.06374,2.24166 1.44691,4.55709 1.03132,6.23211 -0.84944,3.42369 -4.34143,7.16525 -6.68732,7.16525 -2.41107,0 -2.30828,1.25633 0.29411,3.59501 1.96095,1.76182 8.88021,11.83222 8.88021,12.92399 0,0.26432 -1.0125,0.47664 -2.25,0.47183 -1.66011,-0.006 -3.29871,-1.64175 -6.25,-6.2374 -5.70851,-8.88909 -6.77241,-9.75385 -12,-9.75385 h -4.5 v 8 c 0,7.86667 -0.0417,8 -2.5,8 H 9.0000045 Z m 21.4285705,-3.57143 c 0.86428,-0.86428 1.57143,-2.85714 1.57143,-4.42857 0,-4.74589 -2.20962,-6 -10.57143,-6 h -7.42857 v 6 6 h 7.42857 c 5.41991,0 7.85348,-0.42491 9,-1.57143 z M 102,445.87661 v -18 h 2.5 c 2.44444,0 2.5,0.16667 2.5,7.5 v 7.5 h 9 9 v -7.5 c 0,-7.33333 0.0556,-7.5 2.5,-7.5 h 2.5 v 18 18 h -2.5 c -2.47059,0 -2.5,-0.1 -2.5,-8.5 v -8.5 h -9 -9 v 8.5 c 0,8.4 -0.0294,8.5 -2.5,8.5 H 102 Z m 70.28413,17.33313 c -5.72483,-1.19693 -9.47695,-10.60386 -7.08334,-17.75862 1.79249,-5.35795 5.76242,-8.10026 11.54445,-7.97457 3.79485,0.0825 5.07287,0.63207 7.32098,3.14815 7.05509,7.89602 3.16457,21.30949 -6.56622,22.63857 -1.65,0.22537 -3.99714,0.20128 -5.21587,-0.0535 z m 9.64329,-5.96799 C 183.28233,455.51926 184,453.14208 184,450.37661 c 0,-6.01046 -2.93856,-9.5 -8,-9.5 -5.06144,0 -8,3.48954 -8,9.5 0,6.01046 2.93856,9.5 8,9.5 2.97338,0 4.32876,-0.6025 5.92742,-2.63486 z M 193,450.87661 c 0,-10.88889 0.24359,-13 1.5,-13 0.825,0 1.5,0.68847 1.5,1.52994 0,1.2338 0.55858,1.11696 2.88581,-0.60363 3.27392,-2.42052 7.11419,-1.89805 7.11419,0.96788 0,1.36388 -0.63819,1.66576 -2.83874,1.34279 C 198.11604,440.3731 197,442.69792 197,453.94804 c 0,9.2619 -0.13429,9.92857 -2,9.92857 -1.89744,0 -2,-0.66667 -2,-13 z m 82,-5 v -18 h 2.5 c 2.44444,0 2.5,0.16667 2.5,7.5 v 7.5 h 9 9 v -7.5 c 0,-7.33333 0.0556,-7.5 2.5,-7.5 h 2.5 v 18 18 h -2.5 c -2.47059,0 -2.5,-0.1 -2.5,-8.5 v -8.5 h -9 -9 v 8.5 c 0,8.4 -0.0294,8.5 -2.5,8.5 H 275 Z m 93,0 v -18 h 2.5 c 2.44444,0 2.5,0.16667 2.5,7.5 v 7.5 h 9 9 v -7.5 c 0,-7.33333 0.0556,-7.5 2.5,-7.5 h 2.5 v 18 18 h -2.5 c -2.47059,0 -2.5,-0.1 -2.5,-8.5 v -8.5 h -9 -9 v 8.5 c 0,8.4 -0.0294,8.5 -2.5,8.5 H 368 Z m 95,0 v -18 h 2.5 c 2.44444,0 2.5,0.16667 2.5,7.5 v 7.5 h 9 9 v -7.5 c 0,-7.33333 0.0556,-7.5 2.5,-7.5 h 2.5 v 18 18 h -2.5 c -2.47059,0 -2.5,-0.1 -2.5,-8.5 v -8.5 h -9 -9 v 8.5 c 0,8.4 -0.0294,8.5 -2.5,8.5 H 463 Z m -404.999995,6 c 0,-1.88406 0.66666,-2 11.5,-2 10.83333,0 11.5,0.11594 11.5,2 0,1.88406 -0.66667,2 -11.5,2 -10.83334,0 -11.5,-0.11594 -11.5,-2 z m 0,-11 c 0,-1.88406 0.66666,-2 11.5,-2 10.83333,0 11.5,0.11594 11.5,2 0,1.88406 -0.66667,2 -11.5,2 -10.83334,0 -11.5,-0.11594 -11.5,-2 z M 403,307.87662 c 0,-12.33333 0.10256,-13 2,-13 1.33333,0 2,0.66667 2,2 0,1.96424 0.0339,1.96606 1.89818,0.10182 4.3138,-4.3138 12.17548,-3.30603 14.80781,1.89818 0.75818,1.49894 1.27043,6.40412 1.27927,12.25 0.0137,9.08825 -0.121,9.75 -1.98526,9.75 -1.87259,0 -2,-0.66667 -2,-10.46482 0,-11.58437 -0.52597,-12.53518 -6.93426,-12.53518 -5.64812,0 -7.06574,2.70854 -7.06574,13.5 0,8.83333 -0.14035,9.5 -2,9.5 -1.89744,0 -2,-0.66667 -2,-13 z m -315.318475,0.75 c -17.53897,-31.02263 -29.82231,-66.62927 -35.10103,-101.75001 -8.79073,-58.48716 -0.87923,-116.415728 23.28577,-170.499998 5.39705,-12.07926 13.43999,-26.7687498 14.92834,-27.2648598 2.19917,-0.73306 1.25517,2.3259698 -3.34564,10.8414698 -22.15663,41.0091 -35.38483,93.005078 -35.43865,139.298388 l -0.0103,8.875 3.25,-0.68948 c 8.50225,-1.80373 9.75,-1.84859 9.75,-0.35049 0,2.15478 -10.91377,4.53377 -12.11353,2.64052 -1.13947,-1.79812 -1.12341,-0.11363 0.13493,14.14945 3.7838,42.88885 15.41807,82.73925 34.42756,117.9234 2.50307,4.63286 4.55104,9.02036 4.55104,9.75 0,2.58763 -1.94849,1.26861 -4.31848,-2.92339 z M 374,311.63334 c 0,-0.77547 2.04797,-5.20047 4.55104,-9.83333 22.5109,-41.66481 35.54281,-93.52892 35.40987,-140.9234 -0.042,-14.98611 -1.52785,-31.35565 -2.88719,-31.80876 -1.35383,-0.45128 -1.40814,-2.91306 -0.0741,-3.35791 1.92365,-0.64144 -4.40789,-33.118548 -10.19612,-52.300158 -4.9257,-16.32334 -14.1088,-38.38368 -22.25246,-53.45656 C 376.04797,15.320362 374,10.895362 374,10.119892 c 0,-7.3405898 14.23428,19.57808 23.93123,45.25672 6.88333,18.22786 12.58054,40.17815 15.62958,60.217938 l 1.70681,11.21794 5.11619,1.44519 c 2.8139,0.79485 7.70369,2.00589 10.86619,2.69119 3.79988,0.82342 5.75,1.74029 5.75,2.70345 0,1.64836 -0.40998,1.58985 -12.75436,-1.82014 -4.5399,-1.2541 -8.40019,-2.09464 -8.57841,-1.86787 -0.17822,0.22676 0.013,4.2373 0.42485,8.9123 3.52049,39.95805 -3.36971,88.33138 -18.16085,127.50001 C 388.23428,292.05526 374,318.97393 374,311.63334 Z M 213.6193,293.88595 c -6.95167,-2.18701 -10.98615,-8.80063 -10.98615,-18.00933 0,-9.91605 4.86975,-16.93376 12.78056,-18.41783 11.83867,-2.22095 21.15383,8.76279 18.97695,22.37621 -1.65506,10.35022 -11.45745,16.98112 -20.77136,14.05095 z m 11.26383,-4.64002 C 228.05772,287.02235 230,281.9476 230,275.87662 c 0,-9.70366 -4.06053,-15 -11.5,-15 -7.61426,0 -11.5,5.06835 -11.5,15 0,9.93165 3.88574,15 11.5,15 2.23024,0 5.10265,-0.73381 6.38313,-1.63069 z M 242,275.87662 v -18 l 8.75,0.006 c 12.03816,0.008 15.61513,1.13675 17.73168,5.59706 1.06374,2.24166 1.44691,4.55709 1.03133,6.23211 -0.84944,3.42369 -4.34144,7.16525 -6.68732,7.16525 -2.41107,0 -2.30829,1.25633 0.29411,3.59501 1.96094,1.76224 8.8802,11.83264 8.8802,12.92441 0,0.26432 -1.0125,0.47664 -2.25,0.47183 -1.6601,-0.006 -3.29871,-1.64175 -6.25,-6.2374 -5.70851,-8.88951 -6.77241,-9.75427 -12,-9.75427 H 247 v 8 c 0,7.86667 -0.0417,8 -2.5,8 H 242 Z m 21.42857,-3.57143 C 264.29286,271.44091 265,269.44805 265,267.87662 c 0,-4.74589 -2.20962,-6 -10.57143,-6 H 247 v 6 6 h 7.42857 c 5.41991,0 7.85348,-0.42491 9,-1.57143 z m -61.07399,-45.37915 -5.96946,-22.95058 22.76984,-22.7537 c 12.52341,-12.51453 22.64957,-22.87395 22.50259,-23.02094 -0.14699,-0.14698 -13.74257,3.54032 -30.2124,8.19402 -16.46983,4.65369 -30.62015,8.48443 -31.44515,8.51275 -3.59781,0.12353 -43.98502,-11.61009 -43.99227,-12.78098 -0.0115,-1.86115 0.84567,-1.6955 21.99227,4.25 10.725,3.0154 20.02143,5.48647 20.65874,5.49127 1.11869,0.008 34.95742,-57.76163 34.21006,-58.40399 -0.20284,-0.17435 -10.58728,-1.84453 -23.07653,-3.71152 -18.80568,-2.81122 -22.55718,-3.6381 -21.83168,-4.812 0.74434,-1.20437 4.38367,-0.92092 24.20773,1.88542 21.07754,2.98379 26.56821,4.20727 56.83168,12.66377 18.425,5.14849 34.03607,9.36677 34.69128,9.37397 0.6552,0.007 6.19412,-8.31192 12.30872,-18.48692 9.68739,-16.120298 13.02397,-20.678918 12.99175,-17.749998 -0.005,0.4125 -4.48544,8.606598 -9.95755,18.209118 -5.47212,9.60251 -9.79807,17.61035 -9.61322,17.79519 0.18484,0.18484 14.54938,-3.73426 31.92121,-8.70912 17.37182,-4.97485 32.50828,-9.04519 33.63657,-9.04519 4.01883,0 14.02124,3.32715 14.02124,4.66395 0,1.72811 -1.75374,1.68704 -7,-0.16395 -2.3383,-0.825 -4.83221,-1.5 -5.54202,-1.5 -0.70981,0 -6.09691,8.325 -11.97135,18.5 -7.74456,13.41421 -11.18599,18.5 -12.51852,18.5 -1.4625,0 0.28093,-3.61919 8.53855,-17.72519 5.70696,-9.74886 10.23229,-17.86919 10.05629,-18.0452 -0.176,-0.176 -14.53331,3.75034 -31.90514,8.7252 -17.37182,4.97485 -32.31913,9.04519 -33.21624,9.04519 -0.89711,0 -16.47884,-4.29904 -34.62607,-9.55342 -18.14724,-5.25438 -33.43048,-9.40825 -33.96276,-9.23083 -1.10819,0.3694 -33.93632,56.034 -33.37627,56.59405 0.20226,0.20227 14.69788,-3.72219 32.21248,-8.72102 17.5146,-4.99883 32.6545,-9.08878 33.64424,-9.08878 0.98973,0 12.11966,3.00145 24.73316,6.6699 15.07383,4.38398 22.93365,7.12574 22.93365,8 0,0.73155 -0.5625,1.32628 -1.25,1.32161 -0.6875,-0.005 -10.925,-2.70085 -22.75,-5.99151 -11.825,-3.29066 -22.16334,-5.98683 -22.97408,-5.99151 -0.81074,-0.005 -12.51074,10.98992 -26,24.43242 L 199.5,205.75843 l 5.73297,20.8091 c 3.15313,11.445 5.74063,21.37159 5.75,22.05909 0.009,0.6875 -0.58506,1.25 -1.32095,1.25 -0.90505,0 -3.26956,-7.42625 -7.30744,-22.95058 z m 113.26472,-34.0401 c -6.95167,-2.18701 -10.98615,-8.80063 -10.98615,-18.00933 0,-9.91605 4.86975,-16.93376 12.78056,-18.41783 11.83867,-2.22095 21.15383,8.76279 18.97695,22.37621 -1.65506,10.35022 -11.45745,16.98112 -20.77136,14.05095 z m 11.26383,-4.64002 c 6.84001,-4.79093 6.84001,-21.94769 0,-26.73862 -1.28048,-0.89688 -4.15289,-1.63069 -6.38313,-1.63069 -7.61426,0 -11.5,5.06835 -11.5,15 0,9.93165 3.88574,15 11.5,15 2.23024,0 5.10265,-0.73381 6.38313,-1.63069 z M 6.6963645,182.52773 c -0.36173,-0.94264 0.98429,-1.69556 4.4693005,-2.5 6.33622,-1.46258 6.83434,-1.4458 6.83434,0.23017 0,0.7999 -1.86996,1.85214 -4.44282,2.5 -5.6607605,1.42539 -6.2328905,1.4062 -6.8608205,-0.23017 z m 22.9077205,-6.4827 c -0.28267,-0.45738 1.86782,-1.58238 4.77888,-2.5 6.39445,-2.01568 7.61704,-2.07028 7.61704,-0.34017 0,0.77601 -2.11055,1.81542 -5.07629,2.5 -6.04294,1.39488 -6.65033,1.42311 -7.31963,0.34017 z m 78.015215,-2.15909 c -6.95167,-2.18701 -10.986145,-8.80063 -10.986145,-18.00933 0,-9.91605 4.869745,-16.93376 12.780555,-18.41783 11.83867,-2.22095 21.15383,8.76279 18.97695,22.37621 -1.65506,10.35022 -11.45745,16.98112 -20.77136,14.05095 z m 11.26383,-4.64002 c 6.84001,-4.79093 6.84001,-21.94769 0,-26.73862 -1.28048,-0.89688 -4.15289,-1.63069 -6.38313,-1.63069 -7.61426,0 -11.5,5.06835 -11.5,15 0,9.93165 3.88574,15 11.5,15 2.23024,0 5.10265,-0.73381 6.38313,-1.63069 z m -42.883125,-5.69756 c 0,-0.77601 2.11054,-1.81542 5.07629,-2.5 6.40405,-1.47823 6.92371,-1.46649 6.92371,0.1565 0,0.77601 -2.11055,1.81542 -5.07629,2.5 -6.40406,1.47823 -6.92371,1.46649 -6.92371,-0.1565 z M 477.28001,146.52843 c -3.14534,-0.8585 -4.00578,-1.49575 -3.37884,-2.50237 0.69677,-1.11874 1.8073,-1.13433 6.46999,-0.0909 3.41355,0.76392 5.62884,1.78739 5.62884,2.60055 0,1.58845 -2.88239,1.58604 -8.71999,-0.007 z m -25,-7 c -3.14534,-0.8585 -4.00578,-1.49575 -3.37884,-2.50237 0.69677,-1.11874 1.8073,-1.13433 6.46999,-0.0909 3.41355,0.76392 5.62884,1.78739 5.62884,2.60055 0,1.58845 -2.88239,1.58604 -8.71999,-0.007 z m -64.49269,-17.48459 c -4.48755,-1.31183 -5.52305,-1.97679 -4.82845,-3.10068 0.75801,-1.22649 1.75187,-1.16801 6.96268,0.4097 3.50312,1.06066 6.07845,2.40885 6.07845,3.18208 0,1.6668 -1.04453,1.60434 -8.21268,-0.4911 z m -249.16802,-1.1579 c -6.95167,-2.18701 -10.98615,-8.80063 -10.98615,-18.00933 0,-9.916048 4.86975,-16.933748 12.78056,-18.417828 11.83867,-2.22095 21.15383,8.76279 18.97695,22.376208 -1.65506,10.35022 -11.45745,16.98112 -20.77136,14.05095 z m 11.26383,-4.64002 C 153.05772,114.02234 155,108.94759 155,102.87661 c 0,-9.703658 -4.06053,-14.999998 -11.5,-14.999998 -7.61426,0 -11.5,5.06836 -11.5,14.999998 0,9.93165 3.88574,15 11.5,15 2.23024,0 5.10265,-0.73381 6.38313,-1.63069 z M 92.000005,102.87661 V 84.876612 l 8.749995,0.006 c 12.03816,0.008 15.61513,1.13676 17.73168,5.59707 1.06374,2.24166 1.44691,4.55709 1.03133,6.23211 -0.84944,3.423658 -4.34144,7.165218 -6.68732,7.165218 -2.41107,0 -2.30829,1.25633 0.29411,3.59501 1.96094,1.76224 8.8802,11.83264 8.8802,12.92441 0,0.26432 -1.0125,0.47664 -2.25,0.47183 -1.6601,-0.006 -3.29871,-1.64175 -6.25,-6.2374 -5.70851,-8.88909 -6.77241,-9.75385 -12,-9.75385 h -4.499995 v 8 c 0,7.86667 -0.0417,8 -2.5,8 h -2.5 z M 113.42857,99.305182 C 114.29286,98.440902 115,96.448042 115,94.876612 c 0,-4.74589 -2.20962,-6 -10.57143,-6 h -7.428565 v 6 5.999998 h 7.428565 c 5.41991,0 7.85348,-0.42491 9,-1.571428 z M 318.6193,87.885952 c -6.95167,-2.18701 -10.98615,-8.80063 -10.98615,-18.00934 0,-9.91605 4.86975,-16.93375 12.78056,-18.41783 11.83867,-2.22095 21.15383,8.76279 18.97695,22.37621 -1.65506,10.35023 -11.45745,16.98113 -20.77136,14.05096 z m 11.26383,-4.64003 c 6.84001,-4.79093 6.84001,-21.94768 0,-26.73861 -1.28048,-0.89688 -4.15289,-1.6307 -6.38313,-1.6307 -7.61426,0 -11.5,5.06836 -11.5,15 0,9.93165 3.88574,15 11.5,15 2.23024,0 5.10265,-0.73381 6.38313,-1.63069 z M 347,69.876612 v -18 l 8.75,0.006 c 12.03816,0.008 15.61513,1.13676 17.73168,5.59707 1.06374,2.24166 1.44691,4.55709 1.03133,6.23211 -0.84944,3.42366 -4.34144,7.16522 -6.68732,7.16522 -2.41107,0 -2.30829,1.25633 0.29411,3.59502 1.96094,1.76223 8.8802,11.83264 8.8802,12.9244 0,0.26432 -1.0125,0.47665 -2.25,0.47184 -1.6601,-0.007 -3.29871,-1.64176 -6.25,-6.23741 -5.70851,-8.88909 -6.77241,-9.75385 -12,-9.75385 H 352 v 8 c 0,7.86667 -0.0417,8 -2.5,8 H 347 Z m 21.42857,-3.57143 C 369.29286,65.440902 370,63.448042 370,61.876612 c 0,-4.74589 -2.20962,-6 -10.57143,-6 H 352 v 6 6 h 7.42857 c 5.41991,0 7.85348,-0.4249 9,-1.57143 z"
       id="path1" />
  </g>
</svg>
