<?xml version="1.0" standalone="no"?>
<!DOCTYPE svg PUBLIC "-//W3C//DTD SVG 20010904//EN"
 "http://www.w3.org/TR/2001/REC-SVG-20010904/DTD/svg10.dtd">
<svg version="1.0" xmlns="http://www.w3.org/2000/svg"
 width="786.000000pt" height="479.000000pt" viewBox="0 0 786.000000 479.000000"
 preserveAspectRatio="xMidYMid meet">

<g transform="translate(0.000000,479.000000) scale(0.100000,-0.100000)"
fill="#000000" stroke="none">
<path d="M2187 4648 c-214 -379 -339 -792 -377 -1243 -35 -425 30 -891 181
-1290 97 -257 239 -526 239 -453 0 8 -20 52 -46 99 -190 352 -306 750 -344
1179 -12 143 -13 159 -1 141 12 -18 121 5 121 27 0 15 -12 14 -97 -4 l-33 -6
0 88 c1 463 133 983 354 1393 26 47 46 90 46 98 0 26 -19 12 -43 -29z"/>
<path d="M5050 4678 c0 -8 20 -52 46 -99 81 -150 173 -371 222 -534 58 -192
121 -517 102 -523 -13 -5 -13 -29 1 -34 13 -4 28 -168 29 -318 1 -474 -129
-993 -354 -1409 -26 -47 -46 -91 -46 -99 0 -73 142 196 239 453 148 392 217
875 182 1275 -4 47 -6 87 -4 89 1 2 40 -6 85 -19 124 -34 128 -34 128 -18 0
10 -20 19 -57 27 -32 7 -81 19 -109 27 l-51 15 -17 112 c-31 200 -88 420 -157
602 -97 257 -239 526 -239 453z"/>
<path d="M4496 4260 c-69 -22 -110 -88 -110 -180 0 -99 49 -169 128 -184 119
-22 212 87 190 224 -17 103 -115 169 -208 140z m113 -46 c68 -48 68 -220 0
-268 -13 -9 -42 -16 -64 -16 -76 0 -115 51 -115 150 0 99 39 150 115 150 22 0
51 -7 64 -16z"/>
<path d="M4780 4080 l0 -180 25 0 c25 0 25 1 25 80 l0 80 45 0 c52 0 63 -9
120 -98 30 -45 46 -62 63 -62 12 0 22 2 22 5 0 11 -69 111 -89 129 -26 23 -27
36 -3 36 24 0 59 37 67 72 4 16 0 40 -10 62 -21 45 -57 56 -177 56 l-88 0 0
-180z m214 124 c9 -8 16 -28 16 -44 0 -47 -22 -60 -106 -60 l-74 0 0 60 0 60
74 0 c54 0 79 -4 90 -16z"/>
<path d="M2696 3930 c-69 -22 -110 -88 -110 -180 0 -99 49 -169 128 -184 119
-22 212 87 190 224 -17 103 -115 169 -208 140z m113 -46 c68 -48 68 -220 0
-268 -13 -9 -42 -16 -64 -16 -76 0 -115 51 -115 150 0 99 39 150 115 150 22 0
51 -7 64 -16z"/>
<path d="M2230 3750 l0 -180 25 0 c25 0 25 1 25 80 l0 80 45 0 c52 0 63 -9
120 -98 30 -45 46 -62 63 -62 12 0 22 2 22 5 0 11 -69 111 -89 129 -26 23 -27
36 -3 36 24 0 59 37 67 72 4 16 0 40 -10 62 -21 45 -57 56 -177 56 l-88 0 0
-180z m214 124 c20 -20 20 -68 0 -88 -11 -12 -36 -16 -90 -16 l-74 0 0 60 0
60 74 0 c54 0 79 -4 90 -16z"/>
<path d="M4270 3675 c-61 -102 -117 -185 -123 -185 -7 0 -163 42 -347 94 -303
84 -358 97 -568 127 -199 28 -235 30 -242 18 -8 -11 30 -20 218 -48 125 -18
229 -35 231 -37 7 -6 -331 -584 -342 -584 -7 0 -100 25 -207 55 -211 59 -220
61 -220 43 0 -12 404 -130 440 -128 8 0 150 38 314 85 165 46 301 83 303 82 1
-2 -100 -105 -225 -230 l-228 -228 60 -229 c40 -156 64 -230 73 -230 7 0 13 6
13 13 0 6 -26 106 -58 220 l-57 208 245 245 c135 134 252 244 260 244 8 0 112
-27 230 -60 118 -33 221 -60 228 -60 6 0 12 6 12 13 0 9 -79 36 -229 80 -126
37 -238 67 -248 67 -10 0 -161 -41 -336 -91 -175 -50 -320 -89 -322 -87 -6 6
322 562 334 566 5 2 158 -40 339 -92 182 -53 337 -96 346 -96 9 0 159 41 333
90 173 50 317 89 319 88 1 -2 -44 -83 -101 -181 -83 -141 -100 -177 -85 -177
13 0 47 51 125 185 59 102 112 185 120 185 7 0 32 -7 55 -15 52 -19 70 -19 70
-2 0 14 -100 47 -140 47 -11 0 -163 -41 -337 -90 -173 -50 -317 -89 -319 -88
-2 2 42 82 96 178 55 96 100 178 100 183 0 29 -33 -17 -130 -178z"/>
<path d="M5137 3587 c-3 -9 14 -19 58 -30 76 -20 75 -20 75 -4 0 7 -24 21 -53
30 -65 20 -73 21 -80 4z"/>
<path d="M5797 3407 c-4 -10 10 -17 45 -25 64 -15 78 -15 78 1 0 8 -21 18 -51
25 -63 15 -66 15 -72 -1z"/>
<path d="M2386 3400 c-69 -22 -110 -88 -110 -180 0 -99 49 -169 128 -184 119
-22 212 87 190 224 -17 103 -115 169 -208 140z m113 -46 c32 -23 51 -73 51
-134 0 -97 -41 -150 -115 -150 -76 0 -115 51 -115 150 0 99 39 150 115 150 22
0 51 -7 64 -16z"/>
<path d="M6047 3337 c-4 -10 10 -17 45 -25 64 -15 78 -15 78 1 0 8 -21 18 -51
25 -63 15 -66 15 -72 -1z"/>
<path d="M4466 3210 c-69 -22 -110 -88 -110 -180 0 -99 49 -169 128 -184 119
-22 212 87 190 224 -17 103 -115 169 -208 140z m113 -46 c68 -48 68 -220 0
-268 -13 -9 -42 -16 -64 -16 -76 0 -115 51 -115 150 0 99 39 150 115 150 22 0
51 -7 64 -16z"/>
<path d="M2113 3167 c-25 -5 -43 -16 -43 -23 0 -17 5 -17 69 -2 30 7 51 17 51
25 0 15 -17 15 -77 0z"/>
<path d="M1646 3041 c-65 -23 -44 -37 29 -20 33 7 55 18 55 26 0 17 -24 15
-84 -6z"/>
<path d="M1413 2977 c-32 -9 -40 -15 -34 -26 7 -11 17 -11 60 -1 31 7 51 17
51 26 0 16 -19 16 -77 1z"/>
<path d="M3446 2200 c-69 -22 -110 -88 -110 -180 0 -99 49 -169 128 -184 119
-22 212 87 190 224 -17 103 -115 169 -208 140z m113 -46 c68 -48 68 -220 0
-268 -13 -9 -42 -16 -64 -16 -76 0 -115 51 -115 150 0 99 39 150 115 150 22 0
51 -7 64 -16z"/>
<path d="M3730 2020 l0 -180 25 0 c25 0 25 1 25 80 l0 80 45 0 c52 0 63 -9
120 -98 30 -45 46 -62 63 -62 12 0 22 2 22 5 0 11 -69 111 -89 129 -26 23 -27
36 -3 36 24 0 59 37 67 72 4 16 0 40 -10 62 -21 45 -57 56 -177 56 l-88 0 0
-180z m214 124 c9 -8 16 -28 16 -44 0 -47 -22 -60 -106 -60 l-74 0 0 60 0 60
74 0 c54 0 79 -4 90 -16z"/>
<path d="M5430 1829 c-14 -5 -31 -17 -37 -26 -12 -15 -13 -15 -13 5 0 15 -6
22 -20 22 -19 0 -20 -7 -20 -130 0 -123 1 -130 20 -130 19 0 20 7 20 95 0 108
14 135 71 135 64 0 69 -10 69 -125 0 -100 1 -105 21 -105 20 0 21 4 17 110 -3
93 -6 112 -23 130 -25 24 -72 33 -105 19z"/>
<path d="M2405 475 c-52 -18 -82 -57 -95 -122 -13 -59 -6 -111 21 -165 26 -52
61 -72 124 -72 62 0 99 21 123 70 14 31 14 36 2 44 -22 14 -30 12 -30 -6 0
-29 -56 -74 -92 -74 -69 0 -108 54 -108 149 0 102 33 151 102 151 38 0 88 -34
88 -60 0 -5 9 -10 20 -10 53 0 -10 91 -71 104 -39 8 -36 8 -84 -9z"/>
<path d="M4335 475 c-52 -18 -82 -57 -95 -122 -13 -59 -6 -111 21 -165 26 -52
61 -72 124 -72 62 0 99 21 123 70 14 31 14 36 2 44 -22 14 -30 12 -30 -6 0
-29 -56 -74 -92 -74 -69 0 -108 54 -108 149 0 102 33 151 102 151 38 0 88 -34
88 -60 0 -5 9 -10 20 -10 53 0 -10 91 -71 104 -39 8 -36 8 -84 -9z"/>
<path d="M5265 475 c-52 -18 -82 -57 -95 -122 -13 -59 -6 -111 21 -165 26 -52
61 -72 124 -72 62 0 99 21 123 70 14 31 14 36 2 44 -22 14 -30 12 -30 -6 0
-29 -56 -74 -92 -74 -69 0 -108 54 -108 149 0 102 33 151 102 151 38 0 88 -34
88 -60 0 -5 9 -10 20 -10 53 0 -10 91 -71 104 -39 8 -36 8 -84 -9z"/>
<path d="M6166 480 c-69 -22 -110 -88 -110 -180 0 -99 49 -169 128 -184 119
-22 212 87 190 224 -17 103 -115 169 -208 140z m113 -46 c32 -23 51 -73 51
-134 0 -97 -41 -150 -115 -150 -76 0 -115 51 -115 150 0 99 39 150 115 150 22
0 51 -7 64 -16z"/>
<path d="M7065 475 c-52 -18 -82 -57 -95 -122 -13 -59 -6 -111 21 -165 26 -52
61 -72 124 -72 62 0 99 21 123 70 14 31 14 36 2 44 -22 14 -30 12 -30 -6 0
-29 -56 -74 -92 -74 -69 0 -108 54 -108 149 0 102 33 151 102 151 38 0 88 -34
88 -60 0 -5 9 -10 20 -10 53 0 -10 91 -71 104 -39 8 -36 8 -84 -9z"/>
<path d="M20 300 l0 -180 25 0 c25 0 25 1 25 80 l0 80 45 0 c52 0 63 -9 120
-98 30 -45 46 -62 63 -62 12 0 22 2 22 5 0 11 -69 111 -89 129 -26 23 -27 36
-3 36 24 0 59 37 67 72 4 16 0 40 -10 62 -21 45 -57 56 -177 56 l-88 0 0 -180z
m214 124 c9 -8 16 -28 16 -44 0 -47 -22 -60 -106 -60 l-74 0 0 60 0 60 74 0
c54 0 79 -4 90 -16z"/>
<path d="M950 300 l0 -180 25 0 c25 0 25 1 25 85 l0 85 90 0 90 0 0 -85 c0
-84 0 -85 25 -85 l25 0 0 180 0 180 -25 0 c-24 0 -25 -2 -25 -75 l0 -75 -90 0
-90 0 0 75 c0 73 -1 75 -25 75 l-25 0 0 -180z"/>
<path d="M2670 300 l0 -180 25 0 c25 0 25 1 25 85 l0 85 90 0 90 0 0 -85 c0
-84 0 -85 25 -85 l25 0 0 180 0 180 -25 0 c-24 0 -25 -2 -25 -75 l0 -75 -90 0
-90 0 0 75 c0 73 -1 75 -25 75 l-25 0 0 -180z"/>
<path d="M4600 300 l0 -180 25 0 c25 0 25 1 25 85 l0 85 90 0 90 0 0 -85 c0
-84 0 -85 25 -85 l25 0 0 180 0 180 -25 0 c-24 0 -25 -2 -25 -75 l0 -75 -90 0
-90 0 0 75 c0 73 -1 75 -25 75 l-25 0 0 -180z"/>
<path d="M5530 300 l0 -180 25 0 c25 0 25 1 25 85 l0 85 90 0 90 0 0 -85 c0
-84 0 -85 25 -85 l25 0 0 180 0 180 -25 0 c-24 0 -25 -2 -25 -75 l0 -75 -90 0
-90 0 0 75 c0 73 -1 75 -25 75 l-25 0 0 -180z"/>
<path d="M5937 438 c-38 -66 -51 -117 -50 -193 1 -74 26 -158 62 -205 32 -40
33 -17 4 46 -25 53 -28 70 -28 164 0 94 3 111 28 164 31 66 31 66 17 66 -5 0
-20 -19 -33 -42z"/>
<path d="M6450 300 l0 -180 25 0 c25 0 25 1 25 85 l0 85 90 0 90 0 0 -85 c0
-84 0 -85 25 -85 l25 0 0 180 0 180 -25 0 c-24 0 -25 -2 -25 -75 l0 -75 -90 0
-90 0 0 75 c0 73 -1 75 -25 75 l-25 0 0 -180z"/>
<path d="M6810 477 c0 -3 12 -31 28 -63 24 -53 27 -70 27 -164 0 -94 -3 -111
-28 -164 -29 -63 -28 -86 4 -46 48 63 75 184 59 270 -11 60 -58 161 -77 168
-7 2 -13 2 -13 -1z"/>
<path d="M7330 300 l0 -180 25 0 c25 0 25 1 25 85 l0 85 90 0 90 0 0 -85 c0
-84 0 -85 25 -85 l25 0 0 180 0 180 -25 0 c-24 0 -25 -2 -25 -75 l0 -75 -90 0
-90 0 0 75 c0 73 -1 75 -25 75 l-25 0 0 -180z"/>
<path d="M1643 376 c-56 -25 -83 -93 -64 -163 15 -57 51 -86 105 -87 56 -1 96
27 114 80 37 111 -56 214 -155 170z m106 -52 c14 -18 21 -41 21 -69 0 -60 -29
-95 -80 -95 -51 0 -80 35 -80 95 0 60 29 95 80 95 30 0 43 -6 59 -26z"/>
<path d="M1906 369 c-21 -17 -26 -18 -26 -5 0 9 -7 16 -15 16 -13 0 -15 -21
-15 -130 0 -123 1 -130 20 -130 19 0 20 7 20 99 0 113 11 136 62 129 21 -4 28
-1 28 13 0 15 -19 29 -39 29 -5 0 -20 -9 -35 -21z"/>
<path d="M3573 376 c-56 -25 -83 -93 -64 -163 15 -57 51 -86 105 -87 56 -1 96
27 114 80 37 111 -56 214 -155 170z m106 -52 c14 -18 21 -41 21 -69 0 -60 -29
-95 -80 -95 -51 0 -80 35 -80 95 0 60 29 95 80 95 30 0 43 -6 59 -26z"/>
<path d="M3836 369 c-21 -17 -26 -18 -26 -5 0 9 -7 16 -15 16 -13 0 -15 -21
-15 -130 0 -123 1 -130 20 -130 19 0 20 7 20 99 0 113 11 136 62 129 21 -4 28
-1 28 13 0 15 -19 29 -39 29 -5 0 -20 -9 -35 -21z"/>
<path d="M510 350 c0 -19 7 -20 115 -20 108 0 115 1 115 20 0 19 -7 20 -115
20 -108 0 -115 -1 -115 -20z"/>
<path d="M3037 258 c-22 -21 -28 -33 -19 -36 8 -2 20 5 28 17 25 35 94 25 94
-13 0 -27 -18 -46 -42 -46 -28 0 -21 -13 15 -30 35 -16 48 -59 26 -86 -18 -22
-76 -18 -91 6 -19 30 -41 27 -26 -4 22 -49 96 -57 134 -15 24 26 24 87 0 104
-17 13 -17 15 0 40 21 32 7 70 -32 85 -40 16 -53 12 -87 -22z"/>
<path d="M4979 279 c-29 -11 -58 -59 -36 -59 7 0 18 9 25 20 14 23 80 28 100
8 29 -29 14 -65 -51 -125 -35 -32 -69 -68 -76 -81 l-12 -22 91 0 c73 0 90 3
90 15 0 12 -15 15 -71 15 l-71 0 66 63 c77 72 88 102 54 141 -26 29 -71 40
-109 25z"/>
<path d="M7697 258 c-22 -21 -28 -33 -19 -36 8 -2 20 5 28 17 25 35 94 25 94
-13 0 -27 -18 -46 -42 -46 -28 0 -21 -13 15 -30 35 -16 48 -59 26 -86 -18 -22
-76 -18 -91 6 -19 30 -41 27 -26 -4 22 -49 96 -57 134 -15 24 26 24 87 0 104
-17 13 -17 15 0 40 21 32 7 70 -32 85 -40 16 -53 12 -87 -22z"/>
<path d="M510 240 c0 -19 7 -20 115 -20 108 0 115 1 115 20 0 19 -7 20 -115
20 -108 0 -115 -1 -115 -20z"/>
</g>
</svg>
