<?xml version="1.0" encoding="UTF-8" standalone="no"?>
<!-- Created with Inkscape (http://www.inkscape.org/) -->

<svg
   version="1.0"
   width="440"
   height="182.63"
   viewBox="0 0 1411.5 541.762"
   id="svg2"
   xml:space="preserve"
   sodipodi:docname="lactose.svg"
   inkscape:version="1.4.2 (f4327f4, 2025-05-13)"
   xmlns:inkscape="http://www.inkscape.org/namespaces/inkscape"
   xmlns:sodipodi="http://sodipodi.sourceforge.net/DTD/sodipodi-0.dtd"
   xmlns="http://www.w3.org/2000/svg"
   xmlns:svg="http://www.w3.org/2000/svg"><sodipodi:namedview
   id="namedview1"
   pagecolor="#ffffff"
   bordercolor="#000000"
   borderopacity="0.25"
   inkscape:showpageshadow="2"
   inkscape:pageopacity="0.0"
   inkscape:pagecheckerboard="0"
   inkscape:deskcolor="#d1d1d1"
   inkscape:zoom="1.4616219"
   inkscape:cx="233.98665"
   inkscape:cy="205.59353"
   inkscape:window-width="1920"
   inkscape:window-height="1111"
   inkscape:window-x="-9"
   inkscape:window-y="-9"
   inkscape:window-maximized="1"
   inkscape:current-layer="svg2" /><defs
   id="defs102" />
	
		<g
   transform="matrix(0.919588,0,0,0.919589,56.7943,30.1958)"
   id="レイヤー_1">
			<g
   id="g7">
				<path
   style="font-size:100px;font-family:ArialMT"
   d="m 63.964844,-64.355469 q 4.443359,4.882813 6.787109,11.962891 2.392578,7.080078 2.392578,16.064453 0,8.984375 -2.441406,16.113281 -2.392578,7.080078 -6.738281,11.8164065 -4.492188,4.9316406 -10.644532,7.421875 -6.103515,2.4902344 -13.964843,2.4902344 -7.666016,0 -13.964844,-2.5390625 -6.25,-2.5390625 -10.644531,-7.3730469 -4.394531,-4.8339845 -6.7871096,-11.8652345 -2.34375,-7.03125 -2.34375,-16.064453 0,-8.886719 2.34375,-15.917969 2.3437496,-7.080078 6.8359376,-12.109375 4.296875,-4.785156 10.644531,-7.324218 6.396484,-2.539063 13.916016,-2.539063 7.8125,0 14.013672,2.587891 6.25,2.539062 10.595703,7.27539 z m -0.878907,28.027344 q 0,-14.160156 -6.347656,-21.826172 -6.347656,-7.714844 -17.333984,-7.714844 -11.083985,0 -17.431641,7.714844 -6.298828,7.666016 -6.298828,21.826172 0,14.306641 6.445313,21.923828 6.445312,7.5683595 17.285156,7.5683595 10.839844,0 17.236328,-7.5683595 6.445312,-7.617187 6.445312,-21.923828 z"
   id="text9"
   transform="translate(422.501,246.293)"
   aria-label="O" />

				<path
   id="polygon13"
   d="m 265.498,318.793 -9.498,12.999 -18.5,-3.995 -57.5,-120 3.999,-0.503 9.501,6.504 z" />
				<path
   id="polygon15"
   d="m 403.999,282.797 -8.999,12.5 1.499,10 -116.499,30.498 -24,-4.003 9.498,-12.999 z" />
				<path
   id="polygon17"
   d="m 525,324.292 8.5,7.5 0.499,4.003 -123.999,-22.5 -15,-17.998 8.999,-12.5 z" />
				<path
   id="polygon19"
   d="m 483.5,253.295 6.998,-3.999 45,78.003 -1.998,4.493 -8.5,-7.5 z" />
				<path
   id="polygon21"
   d="m 322.5,247.797 v -3.999 l 2.001,-5 90,-23.501 1.998,7.998 z" />
				<path
   id="polygon23"
   d="m 193.5,213.798 -9.501,-6.504 3.999,-3.496 126.001,33.496 8.501,6.504 v 3.999 z" />
				<path
   style="font-size:100px;font-family:ArialMT"
   d="M 65.380859,0 H 55.712891 V -35.595703 H 19.433594 V 0 H 9.765625 v -72.705078 h 9.667969 v 28.515625 h 36.279297 v -28.515625 h 9.667968 z m 73.730471,-64.355469 q 4.44336,4.882813 6.78711,11.962891 2.39258,7.080078 2.39258,16.064453 0,8.984375 -2.44141,16.113281 -2.39258,7.080078 -6.73828,11.8164065 -4.49219,4.9316406 -10.64453,7.421875 -6.10352,2.4902344 -13.96485,2.4902344 -7.66601,0 -13.96484,-2.5390625 -6.250001,-2.5390625 -10.644532,-7.3730469 -4.394531,-4.8339845 -6.787109,-11.8652345 -2.34375,-7.03125 -2.34375,-16.064453 0,-8.886719 2.34375,-15.917969 2.34375,-7.080078 6.835937,-12.109375 4.296875,-4.785156 10.644534,-7.324218 6.39648,-2.539063 13.91601,-2.539063 7.8125,0 14.01367,2.587891 6.25,2.539062 10.59571,7.27539 z m -0.87891,28.027344 q 0,-14.160156 -6.34765,-21.826172 -6.34766,-7.714844 -17.33399,-7.714844 -11.08398,0 -17.431639,7.714844 -6.298829,7.666016 -6.298829,21.826172 0,14.306641 6.445313,21.923828 6.445315,7.5683595 17.285155,7.5683595 10.83985,0 17.23633,-7.5683595 6.44531,-7.617187 6.44531,-21.923828 z"
   id="text25"
   transform="translate(71.999,102.2979)"
   aria-label="HO" />

				<path
   id="polygon29"
   d="m 180,114.794 h 7.998 v 89.004 l -3.999,3.496 -3.999,0.503 z" />
				<path
   style="font-size:100px;font-family:ArialMT"
   d="M 65.380859,0 H 55.712891 V -35.595703 H 19.433594 V 0 H 9.765625 v -72.705078 h 9.667969 v 28.515625 h 36.279297 v -28.515625 h 9.667968 z m 73.730471,-64.355469 q 4.44336,4.882813 6.78711,11.962891 2.39258,7.080078 2.39258,16.064453 0,8.984375 -2.44141,16.113281 -2.39258,7.080078 -6.73828,11.8164065 -4.49219,4.9316406 -10.64453,7.421875 -6.10352,2.4902344 -13.96485,2.4902344 -7.66601,0 -13.96484,-2.5390625 -6.250001,-2.5390625 -10.644532,-7.3730469 -4.394531,-4.8339845 -6.787109,-11.8652345 -2.34375,-7.03125 -2.34375,-16.064453 0,-8.886719 2.34375,-15.917969 2.34375,-7.080078 6.835937,-12.109375 4.296875,-4.785156 10.644534,-7.324218 6.39648,-2.539063 13.91601,-2.539063 7.8125,0 14.01367,2.587891 6.25,2.539062 10.59571,7.27539 z m -0.87891,28.027344 q 0,-14.160156 -6.34765,-21.826172 -6.34766,-7.714844 -17.33399,-7.714844 -11.08398,0 -17.431639,7.714844 -6.298829,7.666016 -6.298829,21.826172 0,14.306641 6.445313,21.923828 6.445315,7.5683595 17.285155,7.5683595 10.83985,0 17.23633,-7.5683595 6.44531,-7.617187 6.44531,-21.923828 z"
   id="text31"
   transform="translate(9.765625e-4,370.7974)"
   aria-label="HO" />

				<path
   id="polygon35"
   d="m 156,335.795 v -7.998 h 81.5 l 18.5,3.995 24,4.003 z" />
				<path
   style="font-size:100px;font-family:ArialMT"
   d="m 63.964844,-64.355469 q 4.443359,4.882813 6.787109,11.962891 2.392578,7.080078 2.392578,16.064453 0,8.984375 -2.441406,16.113281 -2.392578,7.080078 -6.738281,11.8164065 -4.492188,4.9316406 -10.644532,7.421875 -6.103515,2.4902344 -13.964843,2.4902344 -7.666016,0 -13.964844,-2.5390625 -6.25,-2.5390625 -10.644531,-7.3730469 -4.394531,-4.8339845 -6.7871096,-11.8652345 -2.34375,-7.03125 -2.34375,-16.064453 0,-8.886719 2.34375,-15.917969 2.3437496,-7.080078 6.8359376,-12.109375 4.296875,-4.785156 10.644531,-7.324218 6.396484,-2.539063 13.916016,-2.539063 7.8125,0 14.013672,2.587891 6.25,2.539062 10.595703,7.27539 z m -0.878907,28.027344 q 0,-14.160156 -6.347656,-21.826172 -6.347656,-7.714844 -17.333984,-7.714844 -11.083985,0 -17.431641,7.714844 -6.298828,7.666016 -6.298828,21.826172 0,14.306641 6.445313,21.923828 6.445312,7.5683595 17.285156,7.5683595 10.839844,0 17.236328,-7.5683595 6.445312,-7.617187 6.445312,-21.923828 z M 144.0918,0 h -9.66797 V -35.595703 H 98.144531 V 0 h -9.667969 v -72.705078 h 9.667969 v 28.515625 h 36.279299 v -28.515625 h 9.66797 z"
   id="text37"
   transform="translate(427.998,458.7935)"
   aria-label="OH" />

				<path
   id="polygon41"
   d="m 447.5,377.797 -7.002,3.995 -43.999,-76.495 -1.499,-10 15,17.998 z" />
				<path
   id="polygon43"
   d="m 245,117.294 11,3.003 68.501,118.501 -2.001,5 -8.501,-6.504 z" />
				<path
   style="font-size:100px;font-family:ArialMT"
   d="m 63.964844,-64.355469 q 4.443359,4.882813 6.787109,11.962891 2.392578,7.080078 2.392578,16.064453 0,8.984375 -2.441406,16.113281 -2.392578,7.080078 -6.738281,11.8164065 -4.492188,4.9316406 -10.644532,7.421875 -6.103515,2.4902344 -13.964843,2.4902344 -7.666016,0 -13.964844,-2.5390625 -6.25,-2.5390625 -10.644531,-7.3730469 -4.394531,-4.8339845 -6.7871096,-11.8652345 -2.34375,-7.03125 -2.34375,-16.064453 0,-8.886719 2.34375,-15.917969 2.3437496,-7.080078 6.8359376,-12.109375 4.296875,-4.785156 10.644531,-7.324218 6.396484,-2.539063 13.916016,-2.539063 7.8125,0 14.013672,2.587891 6.25,2.539062 10.595703,7.27539 z m -0.878907,28.027344 q 0,-14.160156 -6.347656,-21.826172 -6.347656,-7.714844 -17.333984,-7.714844 -11.083985,0 -17.431641,7.714844 -6.298828,7.666016 -6.298828,21.826172 0,14.306641 6.445313,21.923828 6.445312,7.5683595 17.285156,7.5683595 10.839844,0 17.236328,-7.5683595 6.445312,-7.617187 6.445312,-21.923828 z M 144.0918,0 h -9.66797 V -35.595703 H 98.144531 V 0 h -9.667969 v -72.705078 h 9.667969 v 28.515625 h 36.279299 v -28.515625 h 9.66797 z"
   id="text45"
   transform="translate(336,85.7969)"
   aria-label="OH" />

				<path
   id="polygon49"
   d="m 330,68.295 3.999,7.002 -77.999,45 -11,-3.003 z" />
				<path
   style="font-size:100px;font-family:ArialMT"
   d="m 63.964844,-64.355469 q 4.443359,4.882813 6.787109,11.962891 2.392578,7.080078 2.392578,16.064453 0,8.984375 -2.441406,16.113281 -2.392578,7.080078 -6.738281,11.8164065 -4.492188,4.9316406 -10.644532,7.421875 -6.103515,2.4902344 -13.964843,2.4902344 -7.666016,0 -13.964844,-2.5390625 -6.25,-2.5390625 -10.644531,-7.3730469 -4.394531,-4.8339845 -6.7871096,-11.8652345 -2.34375,-7.03125 -2.34375,-16.064453 0,-8.886719 2.34375,-15.917969 2.3437496,-7.080078 6.8359376,-12.109375 4.296875,-4.785156 10.644531,-7.324218 6.396484,-2.539063 13.916016,-2.539063 7.8125,0 14.013672,2.587891 6.25,2.539062 10.595703,7.27539 z m -0.878907,28.027344 q 0,-14.160156 -6.347656,-21.826172 -6.347656,-7.714844 -17.333984,-7.714844 -11.083985,0 -17.431641,7.714844 -6.298828,7.666016 -6.298828,21.826172 0,14.306641 6.445313,21.923828 6.445312,7.5683595 17.285156,7.5683595 10.839844,0 17.236328,-7.5683595 6.445312,-7.617187 6.445312,-21.923828 z"
   id="text51"
   transform="translate(1050.498,296.2935)"
   aria-label="O" />

				<path
   id="polygon55"
   d="m 892.998,369.292 -8.995,12.5 -18.505,-3.995 -55.997,-116.005 2.5,-4.498 8.995,6.499 z" />
				<path
   id="polygon57"
   d="m 1032.001,332.797 -9.003,12.5 1.503,10 -116.503,30.498 -23.995,-4.003 8.995,-12.5 z" />
				<path
   id="polygon59"
   d="m 1152.998,374.799 8.505,6.993 0.498,4.501 -124.003,-22.998 -15,-17.998 9.003,-12.5 z" />
				<path
   id="polygon61"
   d="m 1111.503,303.295 6.993,-4.003 45,78.007 -1.993,4.493 -8.505,-6.993 z" />
				<path
   id="polygon63"
   d="m 950.498,297.797 v -4.004 l 2.002,-4.501 90,-23.995 2.001,7.998 z" />
				<path
   id="polygon65"
   d="m 820.996,263.793 -8.995,-6.499 v -3.999 l 130,34.004 8.497,6.494 v 4.004 z" />
				<path
   id="polygon67"
   d="m 872.998,167.797 11.005,2.5 68.497,118.995 -2.002,4.501 -8.497,-6.494 z" />
				<path
   style="font-size:100px;font-family:ArialMT"
   d="m 63.964844,-64.355469 q 4.443359,4.882813 6.787109,11.962891 2.392578,7.080078 2.392578,16.064453 0,8.984375 -2.441406,16.113281 -2.392578,7.080078 -6.738281,11.8164065 -4.492188,4.9316406 -10.644532,7.421875 -6.103515,2.4902344 -13.964843,2.4902344 -7.666016,0 -13.964844,-2.5390625 -6.25,-2.5390625 -10.644531,-7.3730469 -4.394531,-4.8339845 -6.7871096,-11.8652345 -2.34375,-7.03125 -2.34375,-16.064453 0,-8.886719 2.34375,-15.917969 2.3437496,-7.080078 6.8359376,-12.109375 4.296875,-4.785156 10.644531,-7.324218 6.396484,-2.539063 13.916016,-2.539063 7.8125,0 14.013672,2.587891 6.25,2.539062 10.595703,7.27539 z m -0.878907,28.027344 q 0,-14.160156 -6.347656,-21.826172 -6.347656,-7.714844 -17.333984,-7.714844 -11.083985,0 -17.431641,7.714844 -6.298828,7.666016 -6.298828,21.826172 0,14.306641 6.445313,21.923828 6.445312,7.5683595 17.285156,7.5683595 10.839844,0 17.236328,-7.5683595 6.445312,-7.617187 6.445312,-21.923828 z M 144.0918,0 h -9.66797 V -35.595703 H 98.144531 V 0 h -9.667969 v -72.705078 h 9.667969 v 28.515625 h 36.279299 v -28.515625 h 9.66797 z"
   id="text69"
   transform="translate(964.0015,136.293)"
   aria-label="OH" />

				<path
   id="polygon73"
   d="m 957.998,118.295 4.003,7.002 -77.998,45 -11.005,-2.5 z" />
				<path
   style="font-size:100px;font-family:ArialMT"
   d="m 63.964844,-64.355469 q 4.443359,4.882813 6.787109,11.962891 2.392578,7.080078 2.392578,16.064453 0,8.984375 -2.441406,16.113281 -2.392578,7.080078 -6.738281,11.8164065 -4.492188,4.9316406 -10.644532,7.421875 -6.103515,2.4902344 -13.964843,2.4902344 -7.666016,0 -13.964844,-2.5390625 -6.25,-2.5390625 -10.644531,-7.3730469 -4.394531,-4.8339845 -6.7871096,-11.8652345 -2.34375,-7.03125 -2.34375,-16.064453 0,-8.886719 2.34375,-15.917969 2.3437496,-7.080078 6.8359376,-12.109375 4.296875,-4.785156 10.644531,-7.324218 6.396484,-2.539063 13.916016,-2.539063 7.8125,0 14.013672,2.587891 6.25,2.539062 10.595703,7.27539 z m -0.878907,28.027344 q 0,-14.160156 -6.347656,-21.826172 -6.347656,-7.714844 -17.333984,-7.714844 -11.083985,0 -17.431641,7.714844 -6.298828,7.666016 -6.298828,21.826172 0,14.306641 6.445313,21.923828 6.445312,7.5683595 17.285156,7.5683595 10.839844,0 17.236328,-7.5683595 6.445312,-7.617187 6.445312,-21.923828 z M 144.0918,0 h -9.66797 V -35.595703 H 98.144531 V 0 h -9.667969 v -72.705078 h 9.667969 v 28.515625 h 36.279299 v -28.515625 h 9.66797 z"
   id="text75"
   transform="translate(1056,509.2905)"
   aria-label="OH" />

				<path
   id="polygon79"
   d="m 1075.498,427.797 -7.002,3.995 -43.995,-76.495 -1.503,-10 15,17.998 z" />
				<path
   style="font-size:100px;font-family:ArialMT"
   d="m 63.964844,-64.355469 q 4.443359,4.882813 6.787109,11.962891 2.392578,7.080078 2.392578,16.064453 0,8.984375 -2.441406,16.113281 -2.392578,7.080078 -6.738281,11.8164065 -4.492188,4.9316406 -10.644532,7.421875 -6.103515,2.4902344 -13.964843,2.4902344 -7.666016,0 -13.964844,-2.5390625 -6.25,-2.5390625 -10.644531,-7.3730469 -4.394531,-4.8339845 -6.7871096,-11.8652345 -2.34375,-7.03125 -2.34375,-16.064453 0,-8.886719 2.34375,-15.917969 2.3437496,-7.080078 6.8359376,-12.109375 4.296875,-4.785156 10.644531,-7.324218 6.396484,-2.539063 13.916016,-2.539063 7.8125,0 14.013672,2.587891 6.25,2.539062 10.595703,7.27539 z m -0.878907,28.027344 q 0,-14.160156 -6.347656,-21.826172 -6.347656,-7.714844 -17.333984,-7.714844 -11.083985,0 -17.431641,7.714844 -6.298828,7.666016 -6.298828,21.826172 0,14.306641 6.445313,21.923828 6.445312,7.5683595 17.285156,7.5683595 10.839844,0 17.236328,-7.5683595 6.445312,-7.617187 6.445312,-21.923828 z M 144.0918,0 h -9.66797 V -35.595703 H 98.144531 V 0 h -9.667969 v -72.705078 h 9.667969 v 28.515625 h 36.279299 v -28.515625 h 9.66797 z"
   id="text81"
   transform="translate(1261.502,383.7935)"
   aria-label="OH" />

				<path
   id="polygon85"
   d="m 1253.496,353.295 2.002,7.5 -93.497,25.498 -0.498,-4.501 1.993,-4.493 z" />
				<path
   style="font-size:100px;font-family:ArialMT"
   d="M 65.380859,0 H 55.712891 V -35.595703 H 19.433594 V 0 H 9.765625 v -72.705078 h 9.667969 v 28.515625 h 36.279297 v -28.515625 h 9.667968 z m 73.730471,-64.355469 q 4.44336,4.882813 6.78711,11.962891 2.39258,7.080078 2.39258,16.064453 0,8.984375 -2.44141,16.113281 -2.39258,7.080078 -6.73828,11.8164065 -4.49219,4.9316406 -10.64453,7.421875 -6.10352,2.4902344 -13.96485,2.4902344 -7.66601,0 -13.96484,-2.5390625 -6.250001,-2.5390625 -10.644532,-7.3730469 -4.394531,-4.8339845 -6.787109,-11.8652345 -2.34375,-7.03125 -2.34375,-16.064453 0,-8.886719 2.34375,-15.917969 2.34375,-7.080078 6.835937,-12.109375 4.296875,-4.785156 10.644534,-7.324218 6.39648,-2.539063 13.91601,-2.539063 7.8125,0 14.01367,2.587891 6.25,2.539062 10.59571,7.27539 z m -0.87891,28.027344 q 0,-14.160156 -6.34765,-21.826172 -6.34766,-7.714844 -17.33399,-7.714844 -11.08398,0 -17.431639,7.714844 -6.298829,7.666016 -6.298829,21.826172 0,14.306641 6.445313,21.923828 6.445315,7.5683595 17.285155,7.5683595 10.83985,0 17.23633,-7.5683595 6.44531,-7.617187 6.44531,-21.923828 z"
   id="text87"
   transform="translate(627.998,420.7974)"
   aria-label="HO" />

				<path
   id="polygon91"
   d="m 784.003,385.795 v -7.998 h 81.495 l 18.505,3.995 23.995,4.003 z" />
				<path
   id="polygon93"
   d="m 625.498,303.295 2.002,7.5 -93.501,25 -0.499,-4.003 1.998,-4.493 z" />
				<path
   style="font-size:100px;font-family:ArialMT"
   d="m 63.964844,-64.355469 q 4.443359,4.882813 6.787109,11.962891 2.392578,7.080078 2.392578,16.064453 0,8.984375 -2.441406,16.113281 -2.392578,7.080078 -6.738281,11.8164065 -4.492188,4.9316406 -10.644532,7.421875 -6.103515,2.4902344 -13.964843,2.4902344 -7.666016,0 -13.964844,-2.5390625 -6.25,-2.5390625 -10.644531,-7.3730469 -4.394531,-4.8339845 -6.7871096,-11.8652345 -2.34375,-7.03125 -2.34375,-16.064453 0,-8.886719 2.34375,-15.917969 2.3437496,-7.080078 6.8359376,-12.109375 4.296875,-4.785156 10.644531,-7.324218 6.396484,-2.539063 13.916016,-2.539063 7.8125,0 14.013672,2.587891 6.25,2.539062 10.595703,7.27539 z m -0.878907,28.027344 q 0,-14.160156 -6.347656,-21.826172 -6.347656,-7.714844 -17.333984,-7.714844 -11.083985,0 -17.431641,7.714844 -6.298828,7.666016 -6.298828,21.826172 0,14.306641 6.445313,21.923828 6.445312,7.5683595 17.285156,7.5683595 10.839844,0 17.236328,-7.5683595 6.445312,-7.617187 6.445312,-21.923828 z"
   id="text95"
   transform="translate(633.5,333.2974)"
   aria-label="O" />

				<path
   id="polygon99"
   d="m 717.001,286.792 -2.001,-7.5 97.001,-25.997 v 3.999 l -2.5,4.498 z" />
			</g>
		</g>
	</svg>
