<?xml version="1.0" encoding="UTF-8" standalone="no"?>
<!-- Created with Inkscape (http://www.inkscape.org/) -->

<svg
   version="1.1"
   id="svg1"
   width="948.85498"
   height="937.63092"
   viewBox="0 0 948.85497 937.63091"
   sodipodi:docname="lanolin.svg"
   xml:space="preserve"
   inkscape:version="1.4.2 (f4327f4, 2025-05-13)"
   xmlns:inkscape="http://www.inkscape.org/namespaces/inkscape"
   xmlns:sodipodi="http://sodipodi.sourceforge.net/DTD/sodipodi-0.dtd"
   xmlns="http://www.w3.org/2000/svg"
   xmlns:svg="http://www.w3.org/2000/svg"><defs
     id="defs1"><clipPath
       id="clip1"><path
         d="M 0,242.5 H 713.75 V 0 H 0 Z m 0,0"
         id="path1" /></clipPath></defs><sodipodi:namedview
     id="namedview1"
     pagecolor="#ffffff"
     bordercolor="#000000"
     borderopacity="0.25"
     inkscape:showpageshadow="2"
     inkscape:pageopacity="0.0"
     inkscape:pagecheckerboard="0"
     inkscape:deskcolor="#d1d1d1"
     inkscape:zoom="0.62902113"
     inkscape:cx="561.9843"
     inkscape:cy="570.72804"
     inkscape:window-width="1920"
     inkscape:window-height="1111"
     inkscape:window-x="-9"
     inkscape:window-y="-9"
     inkscape:window-maximized="1"
     inkscape:current-layer="g1" /><g
     inkscape:groupmode="layer"
     inkscape:label="Image"
     id="g1"
     transform="translate(74.058356,195.01168)"><path
       style="fill:#000000;stroke-width:1.01007"
       d="m 524.00806,317.80849 c -1.72794,-0.66573 -3.31303,-2.18827 -4.03743,-3.87809 -0.69647,-1.62477 -0.69444,-1.62844 1.15499,-2.05713 1.13082,-0.26213 1.37844,-0.15657 1.37844,0.58762 0,0.49891 0.55314,1.4838 1.22912,2.18863 1.65072,1.72092 4.15477,1.73201 6.25105,0.0277 1.28412,-1.04398 1.54218,-1.60421 1.54218,-3.34714 0,-1.75969 -0.25516,-2.3008 -1.60133,-3.39521 -1.27909,-1.03992 -1.94357,-1.24822 -3.3023,-1.03518 -1.38772,0.21759 -1.64675,0.12994 -1.40618,-0.47585 0.16218,-0.40843 0.29488,-0.9427 0.29488,-1.18728 0,-0.24459 0.53352,-0.44471 1.18553,-0.44471 0.65201,0 1.77984,-0.45169 2.50618,-1.00377 2.73215,-2.07647 0.98169,-6.26092 -2.61897,-6.26092 -1.74776,0 -4.08016,1.79224 -4.08016,3.13525 0,0.58118 -0.32117,0.68326 -1.37844,0.43819 -0.75814,-0.17573 -1.42803,-0.355 -1.48883,-0.39838 -0.0609,-0.0434 0.27768,-0.8145 0.75195,-1.71361 2.59472,-4.91957 9.8521,-5.08792 12.33016,-0.28603 0.80627,1.56231 0.85778,2.09604 0.35828,3.70711 -0.32098,1.03513 -1.0275,2.1116 -1.5701,2.39215 -0.92796,0.47987 -0.86745,0.61942 1.02016,2.35448 1.74978,1.60828 2.00639,2.11745 2.00475,3.97769 0,2.85627 -1.48757,5.10248 -4.14375,6.2675 -2.32061,1.01788 -4.44328,1.15329 -6.38018,0.40701 z m -88.7781,-6.14912 c -0.65742,-0.48479 -8.3569,-5.38065 -17.10992,-10.87968 l -15.91458,-9.99822 -18.16996,8.93852 c -9.99348,4.91618 -18.42621,8.94026 -18.7394,8.94242 -0.31319,0.002 -1.89212,-0.84416 -3.50871,-1.88071 -11.9546,-7.66514 -30.92136,-19.42515 -31.32925,-19.42515 -0.27334,0 -8.68052,4.03247 -18.68261,8.96104 l -18.18564,8.96104 -17.38285,-10.91837 -17.38287,-10.91837 -18.44194,9.08551 -18.44194,9.0855 -17.13508,-10.76051 c -9.4243,-5.91829 -17.39325,-10.76053 -17.70879,-10.76053 -0.31554,0 -8.52668,3.92293 -18.24696,8.71763 -9.72029,4.79471 -18.03153,8.71764 -18.46943,8.71764 -0.4379,0 -8.18433,-4.6427 -17.21429,-10.31711 -9.02997,-5.67442 -16.70519,-10.48504 -17.05606,-10.69028 -0.39404,-0.23049 -7.65844,3.08254 -19.00019,8.66531 -15.63525,7.69616 -18.51811,8.96217 -19.41178,8.52474 -0.57726,-0.28255 -8.26745,-5.0908 -17.089339,-10.68498 -8.821876,-5.5942 -16.349239,-10.1772 -16.727456,-10.18446 -0.378228,-0.007 -8.723931,3.9115 -18.546009,8.70834 -9.822069,4.79684 -18.116238,8.71977 -18.431468,8.71763 -0.498597,-0.003 -34.759153,-21.27102 -35.973853,-22.33119 -0.596177,-0.52033 3.660259,-36.31812 4.410528,-37.09373 0.306985,-0.31736 11.497786,-7.03715 24.868443,-14.93288 13.370666,-7.89572 24.563981,-14.61017 24.87404,-14.92101 0.329824,-0.33065 0.804732,-4.37082 1.14454,-9.73696 0.557381,-8.80173 0.919091,-10.44285 2.301665,-10.44285 1.611784,0 1.744593,1.17816 1.205643,10.6951 -0.292903,5.17214 -0.626342,9.87283 -0.740971,10.44598 -0.120892,0.60447 -1.156805,1.5791 -2.466823,2.3209 -1.242129,0.70334 -2.246428,1.43308 -2.231775,1.62163 0.01469,0.18855 6.003407,4.46063 13.308345,9.49351 10.911537,7.51772 13.2548,9.33269 13.130989,10.17057 -0.353455,2.39201 -2.130069,1.52243 -14.813261,-7.25057 -6.822511,-4.71916 -12.968469,-9.08158 -13.657683,-9.69428 l -1.253109,-1.11399 -21.292716,12.59689 c -11.710992,6.9283 -21.351152,12.65336 -21.422568,12.72238 -0.453064,0.43776 -4.083535,33.00553 -3.718578,33.35815 0.244587,0.23634 7.634432,4.96336 16.421883,10.50451 l 15.97717,10.07481 18.148307,-8.90031 c 9.981573,-4.89517 18.470746,-8.90031 18.864815,-8.90031 0.394078,0 2.039177,0.84807 3.655774,1.88462 1.616597,1.03653 9.254936,5.8656 16.974078,10.73125 l 14.034819,8.84663 18.546,-9.09122 18.546,-9.09122 17.29289,10.92062 17.2929,10.9206 18.27872,-8.95732 c 10.05331,-4.92654 18.62457,-8.86613 19.04725,-8.75465 0.42268,0.11147 8.26818,4.91923 17.43444,10.68392 9.16625,5.76467 16.83528,10.48042 17.04227,10.47941 0.20699,-9.9e-4 8.58085,-4.02906 18.60856,-8.95125 10.02773,-4.9222 18.4862,-8.80381 18.79663,-8.62582 0.31041,0.178 8.00787,5.00081 17.10542,10.71737 9.09757,5.71656 16.7666,10.41627 17.04228,10.4438 0.27569,0.0276 8.50861,-3.87287 18.29538,-8.66756 9.78677,-4.79471 18.0566,-8.78449 18.3774,-8.86618 0.32078,-0.0817 8.10259,4.58038 17.29289,10.36016 9.19029,5.77978 17.06629,10.60263 17.50222,10.71746 0.43592,0.11481 8.80061,-3.72997 18.58819,-8.54398 9.7876,-4.81402 18.15541,-8.75276 18.59515,-8.75276 0.43975,0 2.11245,0.84089 3.71713,1.86863 6.8491,4.38663 29.45085,18.55115 30.31115,18.99604 0.75349,0.38963 2.63752,-0.34946 9.51507,-3.73273 6.67863,-3.28542 8.75607,-4.1085 9.39184,-3.721 2.13195,1.29933 1.00354,2.23475 -8.45664,7.01068 -5.10012,2.5748 -9.52454,4.69972 -9.8319,4.72206 -0.30745,0.0224 -1.0969,-0.35605 -1.75442,-0.84086 z m 33.38612,-6.80216 c -4.41234,-1.93679 -7.26579,-7.15607 -7.26096,-13.28109 0,-4.23995 0.53545,-6.22843 2.44471,-9.13735 2.79256,-4.25462 9.43823,-6.29446 15.34501,-4.71002 2.34941,0.63021 6.03532,3.96536 6.54313,5.92061 0.41144,1.58363 0.33954,1.67523 -1.6108,2.05211 -1.34182,0.2593 -1.58557,0.12151 -2.16152,-1.22215 -1.9456,-4.53835 -8.99615,-5.68446 -13.0736,-2.12519 -2.80657,2.44995 -3.65015,5.00527 -3.38977,10.26796 0.18248,3.68821 0.41387,4.61906 1.56634,6.30176 1.88896,2.75799 4.77334,4.09777 8.22622,3.8211 1.61438,-0.12936 3.233,-0.60452 4.04778,-1.1882 1.14716,-0.82188 3.19125,-3.64817 3.75463,-5.19143 0.087,-0.23944 0.98082,-0.28636 1.98532,-0.10429 l 1.82643,0.33106 -0.7448,2.03972 c -0.92196,2.52497 -3.32308,5.02402 -5.96525,6.20849 -2.725,1.22168 -8.76795,1.23052 -11.53287,0.0169 z m 23.31211,-13.38399 V 277.6703 h 2.00494 2.00504 v 5.82469 5.82471 l 7.39328,-0.13402 7.39338,-0.13402 0.14121,-5.69068 0.1412,-5.69068 h 1.73848 1.73847 v 13.80292 13.80292 h -1.75442 -1.75432 v -6.53823 -6.53822 h -7.51864 -7.51864 v 6.53822 6.53823 h -2.00504 -2.00494 z M 63.866451,243.4826 c -2.28804,-0.95493 -5.329063,-3.81623 -6.645169,-6.25244 -1.43152,-2.64983 -1.779602,-8.81913 -0.70005,-12.40724 3.448506,-11.46178 20.377008,-12.43435 25.550888,-1.46793 1.54862,3.2824 1.50968,10.01882 -0.0774,13.39085 -2.40984,5.12015 -6.43269,7.50656 -12.61458,7.48317 -2.215039,-0.008 -4.479989,-0.315 -5.513679,-0.74641 z m 10.039929,-3.22548 c 4.76802,-2.32737 6.84625,-8.96133 4.70739,-15.02651 -1.25115,-3.5479 -5.55187,-6.6411 -9.23364,-6.6411 -3.423999,0 -7.151509,2.45971 -8.633659,5.69719 -1.260533,2.75339 -1.350767,8.31966 -0.17842,11.00621 2.37616,5.44521 8.036819,7.55198 13.338329,4.96421 z M 40.558647,204.84967 c -8.783324,-6.15032 -10.526109,-7.56804 -10.526109,-8.56271 0,-2.49724 1.793885,-1.66964 12.563701,5.79614 5.771423,4.00082 10.705968,7.58846 10.965662,7.97252 0.579408,0.85688 -0.471738,2.24793 -1.661347,2.19858 -0.448686,-0.0186 -5.552546,-3.35065 -11.341907,-7.40453 z M 23.766992,174.22584 c -2.288046,-0.95493 -5.329068,-3.81623 -6.645174,-6.25244 -1.431519,-2.64983 -1.7796,-8.81913 -0.700049,-12.40724 3.448515,-11.46178 20.377009,-12.43435 25.550892,-1.46793 1.548613,3.2824 1.509672,10.01882 -0.07742,13.39085 -2.409837,5.12015 -6.432685,7.50656 -12.614579,7.48317 -2.215025,-0.008 -4.479991,-0.315 -5.513672,-0.74641 z m 10.039922,-3.22548 c 4.768023,-2.32737 6.846258,-8.96133 4.707394,-15.02651 -1.251148,-3.5479 -5.55187,-6.6411 -9.233634,-6.6411 -3.424004,0 -7.151513,2.45971 -8.633658,5.69719 -1.260532,2.75339 -1.350776,8.31966 -0.178429,11.00621 2.376164,5.44521 8.036824,7.55198 13.338327,4.96421 z M 115.3011,150.5321 C 96.69963,140.28179 83.03046,133.03311 82.68635,133.2367 c -0.32582,0.19276 -7.29802,5.11686 -15.493799,10.94243 -8.195777,5.82557 -14.964956,10.5113 -15.042606,10.41272 -0.529111,-0.67162 -4.323271,-7.35055 -4.323271,-7.61032 0,-0.17791 7.893972,-3.59133 17.542177,-7.58539 l 17.542159,-7.2619 9.7e-4,-36.192557 9.7e-4,-36.19255 2.05547,-1.01321 c 3.66632,-1.80724 61.33685,-33.00664 61.82798,-33.44855 0.26191,-0.23566 0.74259,-0.42846 1.0682,-0.42846 0.3256,0 14.37796,7.61311 31.22745,16.91803 26.47062,14.61807 30.63542,16.77437 30.63526,15.86126 -10e-5,-0.58124 -0.90234,-10.72975 -2.00497,-22.55226 -1.10263,-11.8225 -2.00479,-21.902268 -2.00479,-22.399477 0,-0.815055 0.44095,-0.904008 4.48161,-0.904008 2.46488,0 4.5671,0.163456 4.6716,0.363235 0.1045,0.199779 -0.76543,10.71543 -1.93318,23.36811 -1.16774,12.65267 -2.0839,23.043 -2.03589,23.08963 0.048,0.0466 13.56258,-7.35536 30.03238,-16.44884 l 29.94511,-16.53359 -0.002,-6.798194 -0.002,-6.798191 -1.01398,1.60696 c -2.06435,3.271587 -7.8052,4.393034 -10.96872,2.142698 -1.30363,-0.927326 -3.48397,-4.243099 -3.03886,-4.621376 0.13125,-0.111543 0.85892,-0.346578 1.61705,-0.522311 1.13081,-0.262121 1.37842,-0.156574 1.37842,0.587609 0,0.49893 0.55313,1.483816 1.22918,2.188637 1.65065,1.720931 4.15472,1.732014 6.25101,0.02766 1.28406,-1.043967 1.54219,-1.604195 1.54219,-3.347134 0,-1.7596819 -0.25521,-2.3007919 -1.60131,-3.3952059 -1.27908,-1.039924 -1.94362,-1.248232 -3.30237,-1.035185 -1.38773,0.217587 -1.64675,0.129942 -1.40615,-0.475855 0.1622,-0.408414 0.29491,-0.942695 0.29491,-1.187283 0,-0.244577 0.53348,-0.444694 1.18551,-0.444694 0.65203,0 1.77983,-0.451703 2.50622,-1.003782 2.73207,-2.07646203 0.98166,-6.260924 -2.61902,-6.260924 -1.74777,0 -4.08017,1.792246 -4.08017,3.13524797 0,0.58118099836 -0.32115,0.683276 -1.37842,0.438203 -0.75813,-0.175733 -1.42808,-0.355013 -1.48879,-0.398386 -0.0607,-0.04339 0.27765,-0.81450597 0.75187,-1.71361597 1.16961,-2.217518 3.07212,-3.462055 5.6921,-3.723512 5.7139,-0.570213 9.59851,5.69926997 5.7235,9.23734 l -1.11262,1.015889 1.92109,1.738844 1.92111,1.738834 V -17.536527 c 0,-19.650942 0.1397,-25.397658 0.62656,-25.773567 1.28709,-0.993793 64.80723,-36.119334 65.31765,-36.119532 0.29257,-1.15e-4 14.10809,7.871943 30.70114,17.493462 l 30.1692,17.493671 -7.2e-4,-1.551701 c -4e-4,-0.853435 -0.90264,-11.775084 -2.00497,-24.270329 -1.10234,-12.495246 -2.00426,-22.901921 -2.00426,-23.125947 0,-0.224024 2.14479,-0.407317 4.76619,-0.407317 h 4.76619 l -0.28132,2.542643 c -0.44604,4.031376 -4.16383,47.093153 -4.07136,47.156849 0.14654,0.100923 66.01404,-20.109526 66.51663,-20.409596 0.30223,-0.180514 0.48268,-13.344118 0.48268,-35.213178 0,-31.244541 -0.0841,-35.014571 -0.79699,-35.775871 -1.28315,-1.36995 -0.47911,-2.90385 1.46156,-2.78839 1.27774,0.076 7.71136,-3.36689 32.6681,-17.48204 17.09247,-9.66718 31.36155,-17.79659 31.70931,-18.06535 0.459,-0.35481 9.10855,4.19257 31.57834,16.60197 17.02037,9.39985 31.17647,17.09282 31.45792,17.09549 0.3725,0.003 52.49243,-30.2334 61.14141,-35.47064 0.89325,-0.54089 4.36962,1.17644 31.82896,15.72356 16.95436,8.98193 31.31758,16.54728 31.91827,16.8119 0.94168,0.41484 4.03502,-1.23514 22.45065,-11.9753 12.67298,-7.39099 21.66072,-12.34437 22.10174,-12.18086 1.1142,0.41312 1.45268,1.7349 0.64428,2.51597 -0.39298,0.37971 -10.06647,6.14261 -21.4967,12.80646 l -20.78215,12.11608 -0.25062,25.96947 c -0.22723,23.546602 -0.32852,26.016947 -1.08578,26.478337 -0.60591,0.369211 -1.05302,0.334153 -1.62907,-0.127743 -0.70604,-0.566231 -0.7938,-3.481443 -0.7938,-26.370324 v -25.7337 l -30.84669,-16.35873 c -16.96567,-8.9973 -31.00675,-16.27426 -31.20237,-16.17101 -0.19572,0.10324 -14.03683,8.17448 -30.75826,17.93609 -16.72133,9.76161 -30.76463,17.74838 -31.20739,17.74838 -0.44277,0 -14.16712,-7.37657 -30.49856,-16.39239 -16.33153,-9.01581 -30.17119,-16.6359 -30.75487,-16.93353 -0.93404,-0.47636 -4.77508,1.55912 -32.07958,17.00012 l -31.01835,17.54127 -0.12854,35.839343 -0.12845,35.839341 20.80477,27.98477 c 11.44259,15.391623 20.80477,28.1904621 20.80477,28.4418581 0,0.701812 -42.21922,56.7283609 -42.9531,57.0004809 -0.35471,0.13149 -15.92879,-4.5792 -34.60915,-10.46822 -18.68042,-5.88901 -34.28502,-10.70617 -34.67693,-10.7048 -0.39192,10e-4 -14.09268,7.46696 -30.44613,16.59021 l -29.73356,16.58772 -0.005,35.46609 -0.005,35.466077 -1.87966,0.93166 c -1.03381,0.51243 -15.71733,8.47169 -32.63003,17.68727 -16.91271,9.21558 -31.06341,16.7556 -31.44601,16.7556 -0.3826,0 -14.43897,-7.73689 -31.23636,-17.1931 -16.79741,-9.45622 -30.74946,-17.19312 -31.00458,-17.19312 -0.50691,0 -59.72198,33.22521 -60.49639,33.94416 -0.2619,0.24314 -0.93857,0.43361 -1.50373,0.42327 -0.56515,-0.0105 -15.43762,-7.95943 -33.04991,-17.66466 z m 189.58758,-3.3593 30.15039,-16.44179 V 96.318643 61.906263 l -29.86948,-15.98103 c -16.42821,-8.78957 -30.50188,-16.28211 -31.2748,-16.65008 -1.37286,-0.65361 -2.10102,-0.28496 -31.53282,15.96415 l -30.1275,16.63319 v 34.46231 34.462307 l 30.19888,16.96668 c 26.7177,15.01082 30.32028,16.90235 31.25192,16.40873 0.57917,-0.30687 14.6207,-7.95674 31.20341,-16.99972 z m -57.27776,-8.27716 c -16.24401,-9.1648 -29.74359,-16.86524 -29.99908,-17.1121 -0.73633,-0.71147 0.0997,-2.4836 1.17167,-2.4836 0.89709,0 59.03466,32.33842 60.54377,33.67684 0.99609,0.88343 0.25936,2.6541 -1.08779,2.61438 -0.60171,-0.0177 -14.38456,-7.53072 -30.62857,-16.69552 z m 74.89733,-16.74961 c -1.72789,-0.66573 -3.31296,-2.18826 -4.03738,-3.87809 -0.69652,-1.62476 -0.69446,-1.62844 1.15497,-2.05713 1.13081,-0.26212 1.37842,-0.15656 1.37842,0.58762 0,0.49892 0.55313,1.48381 1.22917,2.18864 1.65065,1.72092 4.15472,1.732 6.25102,0.0276 1.28406,-1.04397 1.54218,-1.6042 1.54218,-3.34714 0,-1.75968 -0.25521,-2.30079 -1.60131,-3.39521 -1.27908,-1.03991 -1.94361,-1.24822 -3.30237,-1.03517 -1.38773,0.21759 -1.64674,0.12993 -1.40615,-0.47586 0.1622,-0.40842 0.29491,-0.94269 0.29491,-1.18728 0,-0.24459 0.53348,-0.4447 1.18551,-0.4447 0.65204,0 1.77984,-0.4517 2.50622,-1.00377 2.73208,-2.07648 0.98167,-6.26093 -2.61902,-6.26093 -1.74777,0 -4.08016,1.79224 -4.08016,3.13525 0,0.58118 -0.32116,0.68327 -1.37842,0.43819 -0.75814,-0.17573 -1.42809,-0.355 -1.48879,-0.39837 -0.0607,-0.0434 0.27764,-0.81451 0.75187,-1.71362 2.59477,-4.919557 9.85213,-5.087917 12.33018,-0.28603 0.80625,1.56231 0.85783,2.09604 0.35827,3.70712 -0.32097,1.03512 -1.0275,2.11159 -1.57005,2.39214 -0.92799,0.47988 -0.86753,0.61943 1.02016,2.35448 1.74975,1.60828 2.00637,2.11746 2.00474,3.9777 -0.003,2.85626 -1.48758,5.10247 -4.14374,6.26749 -2.32068,1.01789 -4.44327,1.1533 -6.38023,0.40701 z M 267.1163,109.19476 c -4.41239,-1.9368 -7.26583,-7.15607 -7.26093,-13.281087 0.004,-4.23995 0.5354,-6.22843 2.44468,-9.13735 2.79252,-4.25463 9.4382,-6.29446 15.34501,-4.71003 2.34943,0.63021 6.03527,3.96537 6.54316,5.92062 0.41137,1.58363 0.33947,1.67522 -1.61081,2.05211 -1.34184,0.2593 -1.58556,0.1215 -2.16158,-1.22215 -1.94556,-4.53836 -8.99612,-5.68446 -13.07352,-2.12519 -2.8066,2.44995 -3.6502,5.00527 -3.38979,10.26795 0.1825,3.688207 0.41387,4.619067 1.56635,6.301757 1.88896,2.758 4.77327,4.09777 8.22616,3.8211 1.61436,-0.12936 3.23307,-0.60452 4.04778,-1.1882 1.14718,-0.82187 3.19128,-3.64816 3.75467,-5.19143 0.0874,-0.23944 0.98081,-0.28636 1.98534,-0.10429 l 1.82642,0.33106 -0.74481,2.03973 c -0.922,2.52496 -3.32313,5.02401 -5.96523,6.20849 -2.72506,1.22167 -8.76802,1.23052 -11.5329,0.0169 z m 23.31211,-13.383997 v -13.80291 h 2.00498 2.00497 v 5.82469 5.8247 l 7.39334,-0.13402 7.39334,-0.13402 0.14122,-5.69068 0.14122,-5.69067 h 1.73844 1.73845 v 13.80291 13.802927 h -1.75436 -1.75435 v -6.53824 -6.538217 h -7.51865 -7.51865 v 6.538217 6.53824 h -2.00497 -2.00498 z m -24.22675,-22.84343 c -0.18379,-0.17758 -0.33416,-0.82726 -0.33416,-1.44371 0,-1.4823 1.05042,-1.69655 7.46536,-1.52267 5.45895,0.14798 6.64678,0.64957 5.91308,2.49695 -0.26784,0.67442 -1.23682,0.79231 -6.51239,0.79231 -3.40875,0 -6.3481,-0.1453 -6.53189,-0.32288 z m 0.82344,-10.15568 c -0.17306,-0.43576 -0.085,-1.14408 0.19568,-1.57401 0.76237,-1.16781 10.07878,-1.14614 10.84348,0.0252 0.3823,0.5856 0.34607,1.01737 -0.13206,1.57402 -0.98333,1.14483 -10.4511,1.12292 -10.9071,-0.0252 z m 1.31374,-9.66102 c -0.47812,-0.55665 -0.51435,-0.98844 -0.13205,-1.57403 0.41803,-0.64033 1.33225,-0.80695 4.42749,-0.80695 3.09524,0 4.00947,0.16662 4.4275,0.80695 1.02702,1.57318 -0.42526,2.34108 -4.4275,2.34108 -2.70656,0 -3.80507,-0.19617 -4.29544,-0.76705 z m 1.02126,-9.66441 c -1.03114,-1.2005 0.0125,-2.37394 2.27468,-2.55761 3.18993,-0.25899 4.3453,0.2254 4.16388,1.74569 -0.14742,1.23531 -0.32665,1.32362 -2.95892,1.4579 -2.10957,0.10762 -2.96946,-0.052 -3.47964,-0.64598 z m 1.3766,-9.24088 c -0.1969,-0.19026 -0.35801,-0.8503 -0.35801,-1.46676 0,-1.26266 1.70248,-1.93536 3.50166,-1.38361 0.79915,0.24507 1.02895,0.6521 0.91336,1.61775 -0.13082,1.09281 -0.42571,1.31235 -1.92672,1.43441 -0.97475,0.0793 -1.93338,-0.0115 -2.13029,-0.20179 z m -91.69468,113.110637 29.67737,-16.67468 -0.12213,-34.386227 -0.12212,-34.38622 -30.03953,-16.60644 c -16.52175,-9.13354 -30.30523,-16.54353 -30.62996,-16.46664 -0.32473,0.0768 -14.26881,7.53829 -30.98684,16.58089 l -30.39641,16.4411 v 34.44041 34.440407 l 30.45054,16.80779 c 18.91545,10.44077 30.83714,16.74653 31.47112,16.64604 0.56132,-0.089 14.37541,-7.66535 30.69796,-16.83643 z M 334.77392,37.935363 c -0.92165,-11.32082 -1.80921,-21.945432 -1.97236,-23.610259 l -0.29662,-3.026956 h 4.84033 4.84035 l -0.29753,2.300486 c -0.98681,7.629869 -4.43408,44.266809 -4.18759,44.504969 0.16363,0.15811 13.50366,-7.08783 29.6445,-16.10207 l 29.34699,-16.38953 -0.0167,-33.4309049 -0.0167,-33.4309111 -29.46407,-17.042217 c -16.20524,-9.373219 -29.72588,-17.110119 -30.04586,-17.193112 -0.31999,-0.08299 -14.56762,7.586005 -31.66142,17.042216 l -31.07963,17.193113 -0.01,33.4568151 -0.01,33.4568209 30.93014,16.52905 c 17.01156,9.09097 30.97529,16.48332 31.0305,16.42742 0.0552,-0.0558 -0.65369,-9.36412 -1.57534,-20.68493 z m -8.75723,-48.189147 V -24.0567 h 2.00497 2.00497 v 5.824705 5.824704 l 7.39335,-0.134027 7.39333,-0.134027 0.14122,-5.690677 0.14122,-5.690678 h 1.73844 1.73845 v 13.802916 13.8029281 h -1.75435 -1.75436 v -6.538235 -6.538223 h -7.51864 -7.51866 v 6.538223 6.538235 h -2.00497 -2.00497 z M 487.07531,19.515383 507.03399,-7.1030189 486.90626,-34.185994 c -19.7099,-26.520846 -20.15536,-27.074123 -21.46239,-26.656722 -0.99329,0.317239 -41.79739,12.770074 -63.61758,19.415215 l -1.63248,0.497159 0.12875,33.2006581 0.12875,33.2006569 32.58079,10.32297 c 17.91943,5.67763 32.9192,10.32675 33.33267,10.3314 0.42218,0.004 9.5056,-11.66621 20.71054,-26.60996 z M 449.32275,122.14603 c -1.72784,-0.66573 -3.31293,-2.18826 -4.03734,-3.87809 -0.69656,-1.62476 -0.69444,-1.62844 1.15499,-2.05713 1.13083,-0.26212 1.37835,-0.15656 1.37835,0.58762 0,0.49892 0.55314,1.48381 1.22922,2.18864 1.65062,1.72092 4.15467,1.732 6.25105,0.0276 1.28402,-1.04397 1.54217,-1.6042 1.54217,-3.34714 0,-1.75968 -0.25525,-2.30079 -1.60132,-3.39521 -1.27909,-1.03991 -1.94367,-1.24822 -3.3024,-1.03517 -1.38773,0.21759 -1.64675,0.12993 -1.40609,-0.47586 0.16218,-0.40842 0.29489,-0.94269 0.29489,-1.18728 0,-0.24459 0.53351,-0.4447 1.18553,-0.4447 0.65201,0 1.77984,-0.4517 2.50618,-1.00377 2.73205,-2.07648 0.98169,-6.26093 -2.61898,-6.26093 -1.74785,0 -4.08025,1.79224 -4.08025,3.13525 0,0.58118 -0.32107,0.68327 -1.37835,0.43819 -0.75813,-0.17573 -1.42812,-0.355 -1.48882,-0.39837 -0.0609,-0.0434 0.27768,-0.81451 0.75185,-1.71362 2.59481,-4.919557 9.8522,-5.087917 12.33025,-0.28603 0.80617,1.56231 0.85779,2.09604 0.35819,3.70712 -0.32098,1.03512 -1.0274,2.11159 -1.57001,2.39214 -0.92795,0.47988 -0.86754,0.61943 1.02016,2.35448 1.74978,1.60828 2.0064,2.11746 2.00475,3.9777 0,2.85626 -1.48756,5.10247 -4.14375,6.26749 -2.3207,1.01789 -4.44327,1.1533 -6.38027,0.40701 z m -55.39189,-12.95127 c -4.4124,-1.9368 -7.26585,-7.15607 -7.26094,-13.281087 0.004,-4.23995 0.53541,-6.22843 2.44467,-9.13735 2.79253,-4.25463 9.4382,-6.29446 15.34501,-4.71003 2.34943,0.63021 6.03528,3.96537 6.54317,5.92062 0.41136,1.58363 0.33946,1.67522 -1.61082,2.05211 -1.34184,0.2593 -1.58556,0.1215 -2.16157,-1.22215 -1.94556,-4.53836 -8.99611,-5.68446 -13.07353,-2.12519 -2.80659,2.44995 -3.65019,5.00527 -3.38978,10.26795 0.1825,3.688207 0.41387,4.619067 1.56636,6.301757 1.88895,2.758 4.77325,4.09777 8.22615,3.8211 1.61436,-0.12936 3.23306,-0.60452 4.04778,-1.1882 1.14717,-0.82187 3.19127,-3.64816 3.75467,-5.19143 0.0874,-0.23944 0.98082,-0.28636 1.98535,-0.10429 l 1.82641,0.33106 -0.74481,2.03973 c -0.922,2.52496 -3.32313,5.02401 -5.96523,6.20849 -2.72506,1.22167 -8.76802,1.23052 -11.53289,0.0169 z m 23.31211,-13.383997 v -13.80291 h 2.00497 2.00497 v 5.82469 5.8247 l 7.39334,-0.13402 7.39336,-0.13402 0.14121,-5.69068 0.14121,-5.69067 h 1.73847 1.73838 v 13.80291 13.802927 h -1.75432 -1.75433 v -6.53824 -6.538217 h -7.51867 -7.51865 v 6.538217 6.53824 h -2.00497 -2.00497 z m -25.04354,-23.45555 c -0.39221,-0.70808 -0.32323,-1.12307 0.28425,-1.71004 1.18405,-1.14405 12.12206,-0.88628 12.89747,0.30396 0.38101,0.58484 0.34436,1.01807 -0.13316,1.57401 -0.53327,0.62086 -1.79027,0.76707 -6.59477,0.76707 -5.35173,0 -5.98687,-0.092 -6.45379,-0.935 z m 1.31802,-9.07414 c -0.63811,-0.61655 -0.32973,-2.48101 0.4587,-2.77335 0.43607,-0.16168 2.79651,-0.29396 5.24541,-0.29396 3.98553,0 4.51064,0.10481 5.00622,0.99958 1.0436,1.88412 -0.1235,2.39061 -5.50865,2.39061 -2.67714,0 -5.01789,-0.14529 -5.20168,-0.32288 z m 1.00249,-9.68626 c -0.18379,-0.17758 -0.33416,-0.82725 -0.33416,-1.44371 0,-1.38075 1.20527,-1.73314 5.23205,-1.5297 3.08606,0.15589 4.24948,0.95729 3.6352,2.50399 -0.25441,0.64058 -1.06949,0.79229 -4.25679,0.79229 -2.16818,0 -4.09252,-0.14529 -4.2763,-0.32287 z m 1.00248,-9.68626 c -0.18378,-0.17758 -0.33416,-0.82725 -0.33416,-1.44371 0,-1.29986 1.31681,-1.77498 4.25758,-1.53623 2.24405,0.18219 3.30626,1.35662 2.29345,2.53575 -0.66865,0.77847 -5.5127,1.12457 -6.21687,0.44419 z m 1.02635,-9.66321 c -0.19691,-0.19026 -0.35802,-0.8503 -0.35802,-1.46676 0,-1.26266 1.70248,-1.93536 3.50166,-1.38361 0.79915,0.24507 1.02895,0.6521 0.91336,1.61775 -0.13082,1.09281 -0.42571,1.31235 -1.92672,1.43441 -0.97475,0.0793 -1.93338,-0.0115 -2.13028,-0.20179 z M 204.96214,3.6145271 c -4.41239,-1.936799 -7.26583,-7.156076 -7.26093,-13.281082 0.004,-4.2399641 0.5354,-6.2284421 2.44468,-9.1373631 2.79252,-4.254616 9.43819,-6.294448 15.345,-4.710014 2.34943,0.630202 6.03527,3.965356 6.54317,5.920614 0.41136,1.583632 0.33947,1.675225 -1.61081,2.052098 -1.34185,0.259314 -1.58557,0.121518 -2.16159,-1.222149 -1.94556,-4.538344 -8.99611,-5.68446 -13.07352,-2.125186 -2.8066,2.449946 -3.65019,5.00528 -3.38979,10.2679621 0.1825,3.688213 0.41388,4.619054 1.56636,6.301763 1.88895,2.75798397 4.77325,4.097756 8.22616,3.821089 1.61435,-0.12935 3.23306,-0.60450903 4.04778,-1.18820103 1.14717,-0.821874 3.19128,-3.64816497 3.75467,-5.19142097 0.0874,-0.239437 0.98081,-0.286368 1.98534,-0.104291 l 1.82642,0.331061 -0.74482,2.039727 c -0.922,2.52496497 -3.32313,5.024018 -5.96523,6.208493 -2.72505,1.221674 -8.76801,1.23052 -11.53289,0.01689 z m 23.31211,-13.384001 V -23.57239 h 2.00497 2.00498 v 5.824705 5.824704 l 7.39333,-0.134027 7.39335,-0.134027 0.14122,-5.690677 0.14121,-5.690678 h 1.73844 1.73845 v 13.8029161 13.802929 h -1.75435 -1.75435 v -6.538225 -6.538234 h -7.51866 -7.51864 v 6.538234 6.538225 h -2.00498 -2.00497 z M 769.61724,-43.004699 c -1.72785,-0.66573 -3.31293,-2.188262 -4.03734,-3.878082 -0.69657,-1.62477 -0.69454,-1.628442 1.15489,-2.057136 1.13083,-0.26212 1.37845,-0.156565 1.37845,0.587617 0,0.498923 0.55314,1.483808 1.22922,2.188635 1.65061,1.720927 4.15467,1.73201 6.25095,0.02767 1.28411,-1.043974 1.54217,-1.604202 1.54217,-3.347139 0,-1.759683 -0.25516,-2.300795 -1.60123,-3.395208 -1.27909,-1.039918 -1.94366,-1.24823 -3.30239,-1.035181 -1.38773,0.21759 -1.64676,0.129937 -1.40619,-0.475856 0.16218,-0.408416 0.29498,-0.942692 0.29498,-1.187278 0,-0.244586 0.53342,-0.444703 1.18544,-0.444703 0.6521,0 1.77984,-0.4517 2.50627,-1.003777 2.73206,-2.076465 0.9816,-6.260918 -2.61907,-6.260918 -1.74775,0 -4.08015,1.792241 -4.08015,3.135248 0,0.581177 -0.32117,0.683269 -1.37845,0.438195 -0.75813,-0.175733 -1.42803,-0.355005 -1.48872,-0.398382 -0.0609,-0.04337 0.27758,-0.814504 0.75185,-1.713615 2.59481,-4.919565 9.8521,-5.087917 12.33015,-0.286029 0.80627,1.562308 0.85788,2.096042 0.35829,3.707117 -0.32098,1.035124 -1.0275,2.11159 -1.57001,2.392148 -0.92805,0.479872 -0.86755,0.619419 1.02016,2.354479 1.74968,1.608282 2.00629,2.117452 2.00475,3.977693 0,2.856266 -1.48767,5.102474 -4.14375,6.267502 -2.32071,1.017884 -4.44328,1.153285 -6.38027,0.407 z M 714.22526,-55.95597 c -4.41235,-1.936802 -7.2658,-7.156076 -7.26087,-13.281088 0,-4.239959 0.53535,-6.228436 2.44461,-9.137358 2.79256,-4.25462 9.43824,-6.294452 15.34501,-4.710018 2.34951,0.630206 6.03532,3.965361 6.54323,5.920614 0.41135,1.583634 0.33944,1.675225 -1.6108,2.052106 -1.34191,0.259305 -1.58557,0.121508 -2.16161,-1.222153 -1.9456,-4.538348 -8.99616,-5.684461 -13.07351,-2.125185 -2.80667,2.449946 -3.65024,5.005276 -3.38977,10.267957 0.18248,3.688211 0.41387,4.619061 1.56634,6.301761 1.88896,2.75799 4.77325,4.097765 8.22613,3.821095 1.61437,-0.129353 3.2331,-0.604515 4.04777,-1.188201 1.14716,-0.821873 3.19125,-3.648162 3.75473,-5.191425 0.087,-0.239437 0.98073,-0.28636 1.98532,-0.10427 l 1.82643,0.331064 -0.74489,2.039724 c -0.92196,2.52497 -3.32308,5.024016 -5.96516,6.208495 -2.72509,1.221671 -8.76805,1.23052 -11.53296,0.01689 z m 23.31211,-13.383998 v -13.802921 h 2.00504 2.00494 v 5.824703 5.824703 l 7.39337,-0.134026 7.39328,-0.134024 0.14121,-5.690679 0.14131,-5.690677 h 1.73837 1.73848 v 13.802921 13.802921 h -1.75433 -1.75442 v -6.538226 -6.538226 h -7.51864 -7.51863 v 6.538226 6.538226 h -2.00494 -2.00504 z m -265.45855,5.198948 c -0.30329,-0.1957 -0.82647,-0.860117 -1.16262,-1.476481 -0.71967,-1.319886 0,-2.511685 1.50728,-2.511685 1.72359,0 2.72597,3.487315 1.16833,4.064845 -0.95308,0.353385 -0.83729,0.359253 -1.51299,-0.07668 z m 8.03717,-5.402414 c -1.62278,-2.369389 -1.5009,-4.155351 0.28358,-4.155351 0.98053,0 1.52101,0.489935 2.48414,2.251788 1.0423,1.906578 1.1289,2.370626 0.56522,3.026957 -1.04876,1.220942 -1.931,0.923582 -3.33294,-1.123394 z m 8.56982,-4.92154 c -2.07434,-3.419647 -2.17021,-5.045568 -0.29759,-5.045568 0.94439,0 1.60114,0.604895 2.89221,2.663721 1.90162,3.032331 2.01925,5.000007 0.31315,5.234824 -0.86706,0.119331 -1.45441,-0.456962 -2.90777,-2.852977 z m 10.67693,-1.758524 c -0.42595,-0.476014 -1.65265,-2.437764 -2.72606,-4.359446 -1.86654,-3.34171 -1.91303,-3.531297 -1.06501,-4.350608 1.29098,-1.247461 2.23875,-0.466728 4.82457,3.974359 1.6682,2.864995 2.08081,3.969652 1.70068,4.552971 -0.72151,1.107202 -1.84015,1.18196 -2.73418,0.182724 z m 7.70198,-6.285311 c -3.76313,-6.253137 -4.10112,-7.008318 -3.56751,-7.971678 1.11323,-2.009919 2.23353,-1.069245 5.69578,4.782659 2.52909,4.274475 2.79846,6.081957 0.94477,6.337054 -0.87875,0.120915 -1.47074,-0.48553 -3.07304,-3.148035 z m 12.43183,-16.858566 V -113.1703 h 2.00504 2.00495 v 5.82471 5.8247 l 7.39337,-0.13402 7.39328,-0.13403 0.14121,-5.69068 0.14121,-5.69068 h 1.73847 1.73848 v 13.802925 13.802921 h -1.75433 -1.75442 v -6.538225 -6.538227 h -7.51864 -7.51863 v 6.538227 6.538225 h -2.00495 -2.00504 z m -71.17627,10.352939 c -1.72784,-0.665729 -3.31293,-2.188261 -4.03734,-3.878082 -0.69657,-1.624769 -0.69444,-1.628442 1.15499,-2.057136 1.13073,-0.26212 1.37835,-0.156564 1.37835,0.587618 0,0.498922 0.55314,1.483809 1.22922,2.188636 1.65062,1.720926 4.15467,1.73201 6.25105,0.02767 1.28401,-1.043974 1.54217,-1.604203 1.54217,-3.347139 0,-1.759684 -0.25526,-2.300794 -1.60132,-3.395207 -1.27909,-1.039918 -1.94367,-1.248234 -3.3024,-1.035183 -1.38773,0.217591 -1.64675,0.129938 -1.40619,-0.475851 0.16228,-0.40842 0.29498,-0.9427 0.29498,-1.18728 0,-0.24459 0.53342,-0.4447 1.18553,-0.4447 0.65202,0 1.77975,-0.4517 2.50618,-1.00378 2.73206,-2.07647 0.98169,-6.26092 -2.61907,-6.26092 -1.74775,0 -4.08015,1.79224 -4.08015,3.13525 0,0.58117 -0.32108,0.68327 -1.37835,0.43819 -0.75814,-0.17573 -1.42813,-0.355 -1.48882,-0.39838 -0.0609,-0.0434 0.27768,-0.8145 0.75185,-1.71361 2.59481,-4.91957 9.8521,-5.08792 12.33015,-0.28603 0.80627,1.5623 0.85788,2.09604 0.35829,3.70711 -0.32098,1.03513 -1.0275,2.1116 -1.57001,2.39215 -0.92805,0.47987 -0.86755,0.61942 1.02016,2.354481 1.74978,1.608281 2.00639,2.117452 2.00475,3.977692 0,2.856266 -1.48757,5.102474 -4.14375,6.267502 -2.3207,1.017884 -4.44327,1.153287 -6.38027,0.407002 z m -55.39191,-12.951274 c -4.4124,-1.9368 -7.26584,-7.15607 -7.26094,-13.28108 0.004,-4.23996 0.5354,-6.22844 2.44468,-9.13736 2.79252,-4.25462 9.43819,-6.29445 15.34501,-4.71002 2.34943,0.63021 6.03528,3.96536 6.54316,5.92062 0.41137,1.58363 0.33947,1.67522 -1.61081,2.0521 -1.34184,0.25931 -1.58556,0.12151 -2.16158,-1.22215 -1.94555,-4.53835 -8.99612,-5.68446 -13.07352,-2.12519 -2.8066,2.44995 -3.6502,5.00528 -3.38979,10.26796 0.1825,3.68821 0.41387,4.61906 1.56635,6.30176 1.88896,2.75799 4.77326,4.09776 8.22616,3.8211 1.61436,-0.12936 3.23307,-0.60452 4.04778,-1.18821 1.14718,-0.82187 3.19128,-3.64816 3.75467,-5.19142 0.0874,-0.23944 0.98082,-0.28636 1.98535,-0.10427 l 1.82641,0.33106 -0.74481,2.03973 c -0.922,2.52497 -3.32313,5.02401 -5.96523,6.20849 -2.72506,1.22167 -8.76802,1.23052 -11.53289,0.0169 z m 23.3121,-13.38399 v -13.80292 h 2.00498 2.00497 v 5.8247 5.8247 l 7.39335,-0.13402 7.39337,-0.13403 0.14121,-5.69068 0.14121,-5.69067 h 1.73838 1.73847 v 13.80292 13.80292 h -1.75433 -1.75432 v -6.53823 -6.53822 h -7.51869 -7.51865 v 6.53822 6.53823 h -2.00497 -2.00498 z m 39.39528,-25.23888 c -0.48345,-1.21728 1.58045,-4.06206 2.94701,-4.06206 1.65217,0 1.94792,1.2981 0.72972,3.20264 -1.14049,1.78306 -3.12562,2.24707 -3.67673,0.85942 z m -8.19288,-3.8985 c -1.08066,-0.42132 -0.6869,-2.31507 0.92052,-4.42697 1.60731,-2.11175 3.25233,-2.64835 3.81049,-1.24296 0.33992,0.85614 -0.90543,3.4122 -2.43611,4.99963 -0.98304,1.01953 -1.2209,1.08902 -2.2949,0.6703 z m -9.29364,-4.82482 c -0.7216,-0.69726 -0.30561,-1.88316 1.70851,-4.87016 1.55262,-2.3025 2.35135,-3.06072 3.2243,-3.06072 2.12953,0 2.00195,1.66221 -0.38119,4.96745 -2.01519,2.79478 -3.63478,3.84927 -4.55162,2.96343 z m 394.12337,-2.66323 c -1.72785,-0.66573 -3.31293,-2.18826 -4.03734,-3.87808 -0.69647,-1.62477 -0.69444,-1.62844 1.15499,-2.05713 1.13082,-0.26212 1.37845,-0.15657 1.37845,0.58761 0,0.49893 0.55304,1.48381 1.22912,2.18864 1.65071,1.72093 4.15476,1.73201 6.25104,0.0277 1.28402,-1.04397 1.54218,-1.6042 1.54218,-3.34714 0,-1.75968 -0.25526,-2.30079 -1.60133,-3.39521 -1.27909,-1.03991 -1.94357,-1.24823 -3.30239,-1.03518 -1.38773,0.21759 -1.64676,0.12994 -1.40609,-0.47585 0.16218,-0.40842 0.29488,-0.9427 0.29488,-1.18728 0,-0.24459 0.53352,-0.4447 1.18553,-0.4447 0.65201,0 1.77984,-0.4517 2.50618,-1.00378 2.73206,-2.07647 0.98169,-6.26092 -2.61897,-6.26092 -1.74775,0 -4.08015,1.79224 -4.08015,3.13525 0,0.58117 -0.32118,0.68327 -1.37845,0.43819 -0.75814,-0.17573 -1.42813,-0.355 -1.48882,-0.39838 -0.0609,-0.0434 0.27768,-0.8145 0.75185,-1.71361 2.59481,-4.91957 9.85219,-5.08792 12.33025,-0.28603 0.80627,1.5623 0.85778,2.09604 0.35819,3.70711 -0.32088,1.03513 -1.02741,2.11159 -1.57001,2.39215 -0.92795,0.47987 -0.86755,0.61942 1.02016,2.35448 1.74978,1.60828 2.00639,2.11745 2.00475,3.97769 0,2.85627 -1.48757,5.10248 -4.14375,6.26751 -2.32071,1.01788 -4.44328,1.15328 -6.38027,0.407 z m -402.62386,-1.91714 c -0.48245,-0.27102 -0.87718,-0.7563 -0.87718,-1.0784 0,-0.3221 1.25385,-2.39518 2.78631,-4.60685 2.24773,-3.24389 2.99872,-3.99203 3.88463,-3.8702 1.98358,0.27276 1.57078,2.24659 -1.2905,6.1716 -1.44301,1.97946 -2.84919,3.66148 -3.12484,3.73782 -0.27565,0.0763 -0.89597,-0.083 -1.37842,-0.35397 z m -55.51244,-0.50442 c -1.72788,-0.66573 -3.31295,-2.18826 -4.03737,-3.87808 -0.69653,-1.62477 -0.69447,-1.62844 1.15496,-2.05714 1.13081,-0.26212 1.37842,-0.15656 1.37842,0.58762 0,0.49892 0.55313,1.48381 1.22918,2.18863 1.65065,1.72093 4.15471,1.73201 6.25101,0.0277 1.28407,-1.04397 1.54219,-1.6042 1.54219,-3.34713 0,-1.75969 -0.2552,-2.3008 -1.60131,-3.39521 -1.27907,-1.03992 -1.94362,-1.24823 -3.30237,-1.03518 -1.38773,0.21759 -1.64674,0.12993 -1.40615,-0.47586 0.1622,-0.40842 0.29492,-0.94269 0.29492,-1.18728 0,-0.24458 0.53347,-0.4447 1.18551,-0.4447 0.65203,0 1.77982,-0.4517 2.50622,-1.00378 2.73207,-2.07646 0.98166,-6.26091 -2.61903,-6.26091 -1.74777,0 -4.08017,1.79223 -4.08017,3.13524 0,0.58118 -0.32114,0.68327 -1.37842,0.4382 -0.75812,-0.17574 -1.42808,-0.35501 -1.48878,-0.39838 -0.0607,-0.0434 0.27763,-0.81451 0.75186,-1.71362 2.59478,-4.91956 9.85213,-5.08792 12.33019,-0.28603 0.80624,1.56231 0.85783,2.09604 0.35826,3.70712 -0.32097,1.03512 -1.02749,2.11159 -1.57004,2.39215 -0.92799,0.47987 -0.86753,0.61942 1.02015,2.35448 1.74977,1.60828 2.00639,2.11745 2.00475,3.97769 -0.003,2.85626 -1.48758,5.10247 -4.14374,6.2675 -2.32068,1.01788 -4.44327,1.15329 -6.38024,0.407 z m 46.44828,-4.13759 c -0.839,-0.81066 -0.0576,-2.66507 2.82291,-6.69966 2.50675,-3.51104 3.35408,-4.35882 4.3565,-4.35882 2.16585,0 1.76551,1.54446 -1.70639,6.5829 -3.10431,4.50503 -4.37072,5.54064 -5.47302,4.47558 z m 356.29613,-6.39212 c -4.41244,-1.9368 -7.26579,-7.15607 -7.26096,-13.28108 0,-4.23997 0.53545,-6.22844 2.44471,-9.13737 2.79256,-4.25462 9.43814,-6.29445 15.34501,-4.71001 2.34941,0.6302 6.03522,3.96535 6.54313,5.92061 0.41135,1.58363 0.33954,1.67523 -1.6108,2.05211 -1.34182,0.2593 -1.58557,0.12151 -2.16162,-1.22216 -1.9455,-4.53834 -8.99605,-5.68446 -13.0735,-2.12519 -2.80657,2.44995 -3.65015,5.00528 -3.38977,10.26797 0.18248,3.68821 0.41387,4.61906 1.56634,6.30176 1.88896,2.75799 4.77324,4.09776 8.22622,3.82109 1.61428,-0.12935 3.23301,-0.60451 4.04778,-1.1882 1.14716,-0.82187 3.19125,-3.64816 3.75463,-5.19142 0.087,-0.23944 0.98082,-0.28636 1.98532,-0.10427 l 1.82643,0.33106 -0.7448,2.03973 c -0.92196,2.52497 -3.32317,5.02401 -5.96525,6.20849 -2.72499,1.22167 -8.76795,1.23052 -11.53287,0.0169 z m 23.31211,-13.38399 v -13.80293 h 2.00495 2.00504 v 5.8247 5.82471 l 7.39327,-0.13402 7.39338,-0.13403 0.14121,-5.69068 0.1412,-5.69068 h 1.73848 1.73838 v 13.80293 13.80292 h -1.75433 -1.75432 v -6.53823 -6.53822 h -7.51864 -7.51863 v 6.53822 6.53823 h -2.00504 -2.00495 z m -404.25699,10.96243 c -4.41239,-1.9368 -7.26583,-7.15608 -7.26093,-13.28109 0.004,-4.23996 0.5354,-6.22844 2.44467,-9.13736 2.79253,-4.25462 9.43819,-6.29445 15.34501,-4.71001 2.34943,0.6302 6.03527,3.96535 6.54316,5.92061 0.41136,1.58363 0.33947,1.67522 -1.6108,2.0521 -1.34186,0.25931 -1.58557,0.12151 -2.16159,-1.22215 -1.94556,-4.53835 -8.99611,-5.68446 -13.07353,-2.12519 -2.80659,2.44995 -3.65019,5.00528 -3.38978,10.26796 0.1825,3.68822 0.41387,4.61906 1.56636,6.30177 1.88895,2.75799 4.77325,4.09776 8.22615,3.82109 1.61436,-0.12935 3.23306,-0.60451 4.04778,-1.1882 1.14718,-0.82187 3.19127,-3.64816 3.75468,-5.19143 0.0874,-0.23943 0.98081,-0.28636 1.98534,-0.10427 l 1.82642,0.33107 -0.74482,2.03972 c -0.922,2.52497 -3.32313,5.02402 -5.96523,6.2085 -2.72506,1.22167 -8.76801,1.23052 -11.53289,0.0169 z m -53.87935,-13.384 v -13.80292 h 2.00497 2.00497 v 5.8247 5.8247 l 7.39334,-0.13402 7.39333,-0.13403 0.14122,-5.69067 0.14122,-5.69068 h 1.73845 1.73844 v 13.80292 13.80292 h -1.75435 -1.75435 v -6.53822 -6.53823 h -7.51865 -7.51865 v 6.53823 6.53822 h -2.00497 -2.00497 z"
       id="path58" /><g
       clip-path="url(#clip1)"
       clip-rule="nonzero"
       id="g57"
       transform="matrix(1.3333333,0,0,1.3333333,-81.92294,422.6505)"><path
         style="fill:#000000;fill-opacity:1;fill-rule:nonzero;stroke:none"
         d="m 5.898438,168.875 v -20.58594 h 2.714843 v 8.45703 h 10.703125 v -8.45703 H 22.03125 V 168.875 h -2.714844 v -9.70703 H 8.613281 v 9.70703 z m 0,0"
         id="path2" /><path
         style="fill:#000000;fill-opacity:1;fill-rule:nonzero;stroke:none"
         d="m 25.136719,170.89062 1.855469,-0.23437 c 0.21875,1.05469 0.585937,1.81641 1.09375,2.28516 0.515624,0.46875 1.152343,0.70312 1.894531,0.70312 0.867187,0 1.605469,-0.30078 2.207031,-0.91797 0.609375,-0.60937 0.917969,-1.36719 0.917969,-2.26562 0,-0.85938 -0.285157,-1.5625 -0.839844,-2.10938 -0.5625,-0.55469 -1.269531,-0.83984 -2.128906,-0.83984 -0.351563,0 -0.796875,0.0703 -1.328125,0.19531 l 0.214844,-1.64062 c 0.117187,0.0156 0.214843,0.0195 0.292968,0.0195 0.789063,0 1.507813,-0.19922 2.148438,-0.60547 0.632812,-0.41406 0.957031,-1.0586 0.957031,-1.9336 0,-0.67187 -0.234375,-1.23437 -0.703125,-1.67968 -0.460938,-0.45313 -1.050781,-0.6836 -1.777344,-0.6836 -0.734375,0 -1.339844,0.23047 -1.816406,0.6836 -0.484375,0.46093 -0.796875,1.14453 -0.9375,2.05078 l -1.875,-0.33203 c 0.234375,-1.25 0.75,-2.21485 1.5625,-2.91016 0.804688,-0.6875 1.816406,-1.03516 3.027344,-1.03516 0.820312,0 1.582031,0.1875 2.285156,0.54688 0.703125,0.35156 1.234375,0.83594 1.601562,1.44531 0.359376,0.61719 0.546876,1.26563 0.546876,1.95313 0,0.66406 -0.175782,1.26953 -0.527344,1.8164 -0.351563,0.53907 -0.875,0.95703 -1.5625,1.26953 0.898437,0.21094 1.589844,0.64454 2.089844,1.3086 0.507812,0.65625 0.761718,1.46484 0.761718,2.4414 0,1.32813 -0.488281,2.45704 -1.464844,3.37891 -0.96875,0.92969 -2.1875,1.38672 -3.671874,1.38672 -1.328126,0 -2.4375,-0.39453 -3.320313,-1.19141 C 25.75,173.207 25.253906,172.17184 25.136719,170.89059 Z m 0,0"
         id="path3" /><path
         style="fill:#000000;fill-opacity:1;fill-rule:nonzero;stroke:none"
         d="m 53.082031,161.66797 2.734375,0.68359 c -0.574218,2.24219 -1.601562,3.94531 -3.085937,5.11719 -1.484375,1.17187 -3.296875,1.75781 -5.429688,1.75781 -2.226562,0 -4.039062,-0.44922 -5.429687,-1.34765 -1.382813,-0.91016 -2.4375,-2.21485 -3.164063,-3.92579 -0.730469,-1.71875 -1.09375,-3.55859 -1.09375,-5.52734 0,-2.13281 0.410157,-3.99609 1.230469,-5.58594 0.820312,-1.60156 1.984375,-2.8164 3.496094,-3.65234 1.507812,-0.82813 3.175781,-1.25 5,-1.25 2.054687,0 3.78125,0.52734 5.175781,1.58203 1.40625,1.04297 2.386719,2.51563 2.949219,4.41406 l -2.675782,0.64453 c -0.484374,-1.49218 -1.179687,-2.58203 -2.089843,-3.26171 -0.914063,-0.6875 -2.050781,-1.03516 -3.417969,-1.03516 -1.589844,0 -2.917969,0.38281 -3.984375,1.13281 -1.054687,0.75781 -1.796875,1.77344 -2.226563,3.04688 -0.429687,1.28125 -0.644531,2.59765 -0.644531,3.96484 0,1.74609 0.253907,3.26953 0.761719,4.57031 0.507812,1.30469 1.300781,2.28125 2.382812,2.92969 1.078126,0.65234 2.246094,0.97656 3.496094,0.97656 1.523438,0 2.8125,-0.43359 3.867188,-1.30859 1.066406,-0.88281 1.78125,-2.19141 2.148437,-3.92578 z m 0,0"
         id="path4" /><path
         style="fill:#000000;fill-opacity:1;fill-rule:nonzero;stroke:none"
         d="m 87.3125,180.875 v 2.3125 l -30.125,-17.375 1,-1.75 z m 0,0"
         id="path5" /><path
         style="fill:#000000;fill-opacity:1;fill-rule:nonzero;stroke:none"
         d="m 128.125,157.3125 v 2.3125 l -40.8125,23.5625 v -2.3125 z m 0,0"
         id="path6" /><path
         style="fill:#000000;fill-opacity:1;fill-rule:nonzero;stroke:none"
         d="m 168.9375,180.875 v 2.3125 L 128.125,159.625 v -2.3125 z m 0,0"
         id="path7" /><path
         style="fill:#000000;fill-opacity:1;fill-rule:nonzero;stroke:none"
         d="m 209.75,157.3125 v 2.3125 l -40.8125,23.5625 v -2.3125 z m 0,0"
         id="path8" /><path
         style="fill:#000000;fill-opacity:1;fill-rule:nonzero;stroke:none"
         d="m 250.5625,180.875 v 2.3125 L 209.75,159.625 v -2.3125 z m 0,0"
         id="path9" /><path
         style="fill:#000000;fill-opacity:1;fill-rule:nonzero;stroke:none"
         d="m 291.375,157.3125 v 2.3125 l -40.8125,23.5625 v -2.3125 z m 0,0"
         id="path10" /><path
         style="fill:#000000;fill-opacity:1;fill-rule:nonzero;stroke:none"
         d="m 332.25,180.875 v 2.3125 L 291.375,159.625 v -2.3125 z m 0,0"
         id="path11" /><path
         style="fill:#000000;fill-opacity:1;fill-rule:nonzero;stroke:none"
         d="m 373.0625,157.3125 v 2.3125 L 332.25,183.1875 v -2.3125 z m 0,0"
         id="path12" /><path
         style="fill:#000000;fill-opacity:1;fill-rule:nonzero;stroke:none"
         d="m 413.875,180.875 v 2.3125 L 373.0625,159.625 v -2.3125 z m 0,0"
         id="path13" /><path
         style="fill:#000000;fill-opacity:1;fill-rule:nonzero;stroke:none"
         d="m 454.6875,157.3125 v 2.3125 l -40.8125,23.5625 v -2.3125 z m 0,0"
         id="path14" /><path
         style="fill:#000000;fill-opacity:1;fill-rule:nonzero;stroke:none"
         d="m 495.5,180.875 v 2.3125 L 454.6875,159.625 v -2.3125 z m 0,0"
         id="path15" /><path
         style="fill:#000000;fill-opacity:1;fill-rule:nonzero;stroke:none"
         d="m 536.3125,157.3125 v 2.3125 L 495.5,183.1875 v -2.3125 z m 0,0"
         id="path16" /><path
         style="fill:#000000;fill-opacity:1;fill-rule:nonzero;stroke:none"
         d="m 577.1875,180.875 v 2.3125 l -40.875,-23.5625 v -2.3125 z m 0,0"
         id="path17" /><path
         style="fill:#000000;fill-opacity:1;fill-rule:nonzero;stroke:none"
         d="m 618,157.3125 v 2.3125 l -40.8125,23.5625 v -2.3125 z m 0,0"
         id="path18" /><path
         style="fill:#000000;fill-opacity:1;fill-rule:nonzero;stroke:none"
         d="m 658.8125,180.875 v 2.3125 L 618,159.625 v -2.3125 z m 0,0"
         id="path19" /><path
         style="fill:#000000;fill-opacity:1;fill-rule:nonzero;stroke:none"
         d="m 689.88672,158.85547 c 0,-3.42188 0.91797,-6.09766 2.7539,-8.02735 1.83594,-1.92187 4.20313,-2.89062 7.10938,-2.89062 1.89844,0 3.61328,0.46094 5.13672,1.36719 1.52344,0.89843 2.67969,2.16406 3.47656,3.78906 0.80469,1.61719 1.21094,3.45703 1.21094,5.52734 0,2.08594 -0.42578,3.95703 -1.26953,5.60547 -0.85157,1.64063 -2.04688,2.88672 -3.59375,3.73047 -1.53907,0.84766 -3.19922,1.26953 -4.98047,1.26953 -1.94141,0 -3.67188,-0.46875 -5.19531,-1.40625 -1.52344,-0.9375 -2.6836,-2.21094 -3.47657,-3.82812 -0.78125,-1.60938 -1.17187,-3.32422 -1.17187,-5.13672 z m 2.8125,0.0391 c 0,2.47656 0.66406,4.42969 1.99219,5.85938 1.33984,1.43359 3.01171,2.14843 5.01953,2.14843 2.05468,0 3.74218,-0.72265 5.05859,-2.16797 1.32813,-1.44531 1.99219,-3.48437 1.99219,-6.13281 0,-1.67969 -0.28906,-3.14453 -0.85938,-4.39453 -0.5625,-1.25 -1.38672,-2.21094 -2.48047,-2.89062 -1.08593,-0.6875 -2.30468,-1.03516 -3.67187,-1.03516 -1.92969,0 -3.58984,0.66406 -4.98047,1.99219 -1.38281,1.32031 -2.07031,3.52343 -2.07031,6.62109 z m 0,0"
         id="path20" /><path
         style="fill:#000000;fill-opacity:1;fill-rule:nonzero;stroke:none"
         d="m 687.875,164.125 1,1.6875 -30.0625,17.375 v -2.3125 z m 0,0"
         id="path21" /><path
         style="fill:#000000;fill-opacity:1;fill-rule:nonzero;stroke:none"
         d="m 649.07422,229.60547 c 0,-3.42188 0.91797,-6.09766 2.7539,-8.02735 1.83594,-1.92187 4.20313,-2.89062 7.10938,-2.89062 1.89844,0 3.61328,0.46094 5.13672,1.36719 1.52344,0.89843 2.67969,2.16406 3.47656,3.78906 0.80469,1.61719 1.21094,3.45703 1.21094,5.52734 0,2.08594 -0.42578,3.95703 -1.26953,5.60547 -0.85157,1.64063 -2.04688,2.88672 -3.59375,3.73047 -1.53907,0.84766 -3.19922,1.26953 -4.98047,1.26953 -1.94141,0 -3.67188,-0.46875 -5.19531,-1.40625 -1.52344,-0.9375 -2.6836,-2.21094 -3.47657,-3.82812 -0.78125,-1.60938 -1.17187,-3.32422 -1.17187,-5.13672 z m 2.8125,0.0391 c 0,2.47656 0.66406,4.42969 1.99219,5.85938 1.33984,1.43359 3.01171,2.14843 5.01953,2.14843 2.05468,0 3.74218,-0.72265 5.05859,-2.16797 1.32813,-1.44531 1.99219,-3.48437 1.99219,-6.13281 0,-1.67969 -0.28906,-3.14453 -0.85938,-4.39453 -0.5625,-1.25 -1.38672,-2.21094 -2.48047,-2.89062 -1.08593,-0.6875 -2.30468,-1.03516 -3.67187,-1.03516 -1.92969,0 -3.58984,0.66406 -4.98047,1.99219 -1.38281,1.32031 -2.07031,3.52343 -2.07031,6.62109 z m 0,0"
         id="path22" /><path
         style="fill:#000000;fill-opacity:1;fill-rule:nonzero;stroke:none"
         d="m 661.3125,216.125 h 2.0625 V 180 h -2.0625 z m 0,0"
         id="path23" /><path
         style="fill:#000000;fill-opacity:1;fill-rule:nonzero;stroke:none"
         d="m 654.25,216.125 h 2 V 180 h -2 z m 0,0"
         id="path24" /><path
         style="fill:#000000;fill-opacity:1;fill-rule:nonzero;stroke:none"
         d="m 698.625,111.9375 2,-1.1875 v 34.6875 h -2 z m 0,0"
         id="path25" /><path
         style="fill:#000000;fill-opacity:1;fill-rule:nonzero;stroke:none"
         d="M 658.8125,88.9375 V 86.625 l 41.8125,24.125 -2,1.1875 z m 0,0"
         id="path26" /><path
         style="fill:#000000;fill-opacity:1;fill-rule:nonzero;stroke:none"
         d="m 618,112.5 v -2.3125 L 658.8125,86.625 v 2.3125 z m 0,0"
         id="path27" /><path
         style="fill:#000000;fill-opacity:1;fill-rule:nonzero;stroke:none"
         d="M 577.1875,88.9375 V 86.625 L 618,110.1875 V 112.5 Z m 0,0"
         id="path28" /><path
         style="fill:#000000;fill-opacity:1;fill-rule:nonzero;stroke:none"
         d="m 536.3125,112.5 v -2.3125 l 40.875,-23.5625 v 2.3125 z m 0,0"
         id="path29" /><path
         style="fill:#000000;fill-opacity:1;fill-rule:nonzero;stroke:none"
         d="M 495.5,88.9375 V 86.625 l 40.8125,23.5625 V 112.5 Z m 0,0"
         id="path30" /><path
         style="fill:#000000;fill-opacity:1;fill-rule:nonzero;stroke:none"
         d="m 454.6875,112.5 v -2.3125 L 495.5,86.625 v 2.3125 z m 0,0"
         id="path31" /><path
         style="fill:#000000;fill-opacity:1;fill-rule:nonzero;stroke:none"
         d="M 413.875,88.9375 V 86.625 l 40.8125,23.5625 V 112.5 Z m 0,0"
         id="path32" /><path
         style="fill:#000000;fill-opacity:1;fill-rule:nonzero;stroke:none"
         d="m 373.0625,112.5 v -2.3125 L 413.875,86.625 v 2.3125 z m 0,0"
         id="path33" /><path
         style="fill:#000000;fill-opacity:1;fill-rule:nonzero;stroke:none"
         d="M 332.25,88.9375 V 86.625 l 40.8125,23.5625 V 112.5 Z m 0,0"
         id="path34" /><path
         style="fill:#000000;fill-opacity:1;fill-rule:nonzero;stroke:none"
         d="m 291.375,112.5 v -2.3125 L 332.25,86.625 v 2.3125 z m 0,0"
         id="path35" /><path
         style="fill:#000000;fill-opacity:1;fill-rule:nonzero;stroke:none"
         d="M 250.5625,88.9375 V 86.625 l 40.8125,23.5625 V 112.5 Z m 0,0"
         id="path36" /><path
         style="fill:#000000;fill-opacity:1;fill-rule:nonzero;stroke:none"
         d="m 209.75,112.5 v -2.3125 L 250.5625,86.625 v 2.3125 z m 0,0"
         id="path37" /><path
         style="fill:#000000;fill-opacity:1;fill-rule:nonzero;stroke:none"
         d="M 168.9375,88.9375 V 86.625 L 209.75,110.1875 V 112.5 Z m 0,0"
         id="path38" /><path
         style="fill:#000000;fill-opacity:1;fill-rule:nonzero;stroke:none"
         d="m 128.125,112.5 v -2.3125 L 168.9375,86.625 v 2.3125 z m 0,0"
         id="path39" /><path
         style="fill:#000000;fill-opacity:1;fill-rule:nonzero;stroke:none"
         d="m 86.3125,88.375 2,-1.1875 39.8125,23 V 112.5 Z m 0,0"
         id="path40" /><path
         style="fill:#000000;fill-opacity:1;fill-rule:nonzero;stroke:none"
         d="m 86.3125,40.0625 2,1.1875 v 45.9375 l -2,1.1875 z m 0,0"
         id="path41" /><path
         style="fill:#000000;fill-opacity:1;fill-rule:nonzero;stroke:none"
         d="M 128.125,15.9375 V 18.25 l -39.8125,23 -2,-1.1875 z m 0,0"
         id="path42" /><path
         style="fill:#000000;fill-opacity:1;fill-rule:nonzero;stroke:none"
         d="m 168.9375,39.5 v 2.3125 L 128.125,18.25 v -2.3125 z m 0,0"
         id="path43" /><path
         style="fill:#000000;fill-opacity:1;fill-rule:nonzero;stroke:none"
         d="M 209.75,15.9375 V 18.25 L 168.9375,41.8125 V 39.5 Z m 0,0"
         id="path44" /><path
         style="fill:#000000;fill-opacity:1;fill-rule:nonzero;stroke:none"
         d="m 250.5625,39.5 v 2.3125 L 209.75,18.25 v -2.3125 z m 0,0"
         id="path45" /><path
         style="fill:#000000;fill-opacity:1;fill-rule:nonzero;stroke:none"
         d="M 291.375,15.9375 V 18.25 L 250.5625,41.8125 V 39.5 Z m 0,0"
         id="path46" /><path
         style="fill:#000000;fill-opacity:1;fill-rule:nonzero;stroke:none"
         d="m 332.25,39.5 v 2.3125 L 291.375,18.25 v -2.3125 z m 0,0"
         id="path47" /><path
         style="fill:#000000;fill-opacity:1;fill-rule:nonzero;stroke:none"
         d="M 373.0625,15.9375 V 18.25 L 332.25,41.8125 V 39.5 Z m 0,0"
         id="path48" /><path
         style="fill:#000000;fill-opacity:1;fill-rule:nonzero;stroke:none"
         d="m 413.875,39.5 v 2.3125 L 373.0625,18.25 v -2.3125 z m 0,0"
         id="path49" /><path
         style="fill:#000000;fill-opacity:1;fill-rule:nonzero;stroke:none"
         d="M 454.6875,15.9375 V 18.25 L 413.875,41.8125 V 39.5 Z m 0,0"
         id="path50" /><path
         style="fill:#000000;fill-opacity:1;fill-rule:nonzero;stroke:none"
         d="m 495.5,39.5 v 2.3125 L 454.6875,18.25 v -2.3125 z m 0,0"
         id="path51" /><path
         style="fill:#000000;fill-opacity:1;fill-rule:nonzero;stroke:none"
         d="M 536.3125,15.9375 V 18.25 L 495.5,41.8125 V 39.5 Z m 0,0"
         id="path52" /><path
         style="fill:#000000;fill-opacity:1;fill-rule:nonzero;stroke:none"
         d="m 577.1875,39.5 v 2.3125 L 536.3125,18.25 v -2.3125 z m 0,0"
         id="path53" /><path
         style="fill:#000000;fill-opacity:1;fill-rule:nonzero;stroke:none"
         d="m 624.45703,20.292969 2.73438,0.683593 c -0.57422,2.242188 -1.60157,3.945313 -3.08594,5.117188 -1.48438,1.171875 -3.29688,1.757812 -5.42969,1.757812 -2.22656,0 -4.03906,-0.449218 -5.42969,-1.347656 -1.38281,-0.910156 -2.4375,-2.214844 -3.16406,-3.925781 -0.73047,-1.71875 -1.09375,-3.558594 -1.09375,-5.527344 0,-2.132812 0.41016,-3.996093 1.23047,-5.585937 0.82031,-1.601563 1.98437,-2.816406 3.49609,-3.652344 1.50782,-0.828125 3.17578,-1.25 5,-1.25 2.05469,0 3.77735,0.527344 5.17578,1.582031 1.40625,1.042969 2.38672,2.515625 2.94922,4.414063 l -2.67578,0.644531 c -0.48437,-1.492187 -1.17969,-2.582031 -2.08984,-3.261719 -0.91406,-0.6875 -2.05078,-1.035156 -3.41797,-1.035156 -1.59375,0 -2.92188,0.382812 -3.98438,1.132812 -1.05468,0.757813 -1.79687,1.773438 -2.22656,3.046876 -0.42969,1.28125 -0.64453,2.597656 -0.64453,3.964843 0,1.746094 0.25391,3.269531 0.76172,4.570313 0.50781,1.304687 1.29687,2.28125 2.38281,2.929687 1.07813,0.652344 2.2461,0.976563 3.4961,0.976563 1.52343,0 2.8125,-0.433594 3.86718,-1.308594 1.06641,-0.882812 1.78125,-2.191406 2.14844,-3.925781 z m 0,0"
         id="path54" /><path
         style="fill:#000000;fill-opacity:1;fill-rule:nonzero;stroke:none"
         d="M 630.44531,27.5 V 6.914062 h 2.71485 v 8.457032 h 10.70312 V 6.914062 h 2.71484 V 27.5 h -2.71484 V 17.792969 H 633.16016 V 27.5 Z m 0,0"
         id="path55" /><path
         style="fill:#000000;fill-opacity:1;fill-rule:nonzero;stroke:none"
         d="m 649.6875,29.515625 1.85547,-0.234375 c 0.21875,1.054688 0.58594,1.816406 1.09375,2.285156 0.51562,0.46875 1.15234,0.703125 1.89453,0.703125 0.86719,0 1.60547,-0.300781 2.20703,-0.917969 0.60938,-0.609374 0.91797,-1.367187 0.91797,-2.265624 0,-0.859376 -0.28516,-1.5625 -0.83984,-2.109376 -0.5625,-0.554687 -1.26954,-0.839843 -2.12891,-0.839843 -0.35156,0 -0.79688,0.07031 -1.32813,0.195312 l 0.21485,-1.640625 c 0.11719,0.01563 0.21484,0.01953 0.29297,0.01953 0.78906,0 1.50781,-0.199219 2.14843,-0.605469 0.63282,-0.414063 0.95704,-1.058594 0.95704,-1.933594 0,-0.671875 -0.23438,-1.234375 -0.70313,-1.679687 -0.46094,-0.453126 -1.05078,-0.683594 -1.77734,-0.683594 -0.73438,0 -1.33985,0.230468 -1.81641,0.683594 -0.48437,0.460937 -0.79687,1.144531 -0.9375,2.050781 l -1.875,-0.332031 c 0.23438,-1.25 0.75,-2.214844 1.5625,-2.910157 0.80469,-0.6875 1.81641,-1.035156 3.02734,-1.035156 0.82032,0 1.58204,0.1875 2.28516,0.546875 0.70313,0.351562 1.23438,0.835938 1.60156,1.445312 0.35938,0.617188 0.54688,1.265626 0.54688,1.953126 0,0.664062 -0.17578,1.269531 -0.52735,1.816406 -0.35156,0.539062 -0.875,0.957031 -1.5625,1.269531 0.89844,0.210937 1.58985,0.644531 2.08985,1.308594 0.50781,0.65625 0.76172,1.464843 0.76172,2.441406 0,1.328125 -0.48828,2.457031 -1.46485,3.378906 -0.96875,0.929688 -2.1875,1.386719 -3.67187,1.386719 -1.32813,0 -2.4375,-0.394531 -3.32031,-1.191406 -0.89063,-0.789063 -1.38672,-1.824219 -1.50391,-3.105469 z m 0,0"
         id="path56" /><path
         style="fill:#000000;fill-opacity:1;fill-rule:nonzero;stroke:none"
         d="m 606.6875,22.4375 1,1.75 -30.5,17.625 V 39.5 Z m 0,0"
         id="path57" /></g></g></svg>
