<?xml version="1.0" encoding="UTF-8"?>
<svg version="1.1" xmlns="http://www.w3.org/2000/svg" width="1300" height="428">
<path d="M0 0 C1.9164485 1.2613789 3.81812893 2.54538915 5.70703125 3.84765625 C7.83833366 5.07591499 9.98079294 6.28497479 12.1328125 7.4765625 C13.83864248 8.44982746 15.54445525 9.42312409 17.24923706 10.39822388 C19.0627971 11.4348878 20.87816469 12.46833942 22.69360352 13.50170898 C28.59145793 16.86641846 34.45186384 20.27479656 40.24609375 23.81640625 C41.24600342 24.42411865 42.24591309 25.03183105 43.27612305 25.65795898 C45.14737635 26.80103371 47.01126187 27.95628439 48.86645508 29.12524414 C50.11591919 29.88695923 50.11591919 29.88695923 51.390625 30.6640625 C52.46654907 31.33610718 52.46654907 31.33610718 53.56420898 32.02172852 C56.35688004 33.09813346 57.87477196 32.71637444 60.70703125 31.84765625 C63.20991665 30.51336543 65.60577278 29.13970505 68.01953125 27.66015625 C69.53598322 26.74920861 71.05294043 25.83910169 72.5703125 24.9296875 C73.80128662 24.188396 73.80128662 24.188396 75.05712891 23.43212891 C80.93841822 19.91549286 86.8672564 16.47730992 92.81054688 13.06665039 C97.52339308 10.35090656 102.14912055 7.60155041 106.6328125 4.51953125 C107.38111328 4.02324219 108.12941406 3.52695312 108.90039062 3.015625 C110.26481909 2.10265259 111.60638637 1.15403971 112.91601562 0.1640625 C114.95428083 -1.1717253 116.27965335 -1.86538573 118.70703125 -2.15234375 C122.737047 -0.74479711 126.12809159 1.55303354 129.70703125 3.84765625 C131.74449376 4.98727903 133.79034692 6.11201258 135.84375 7.22265625 C138.02774122 8.43027102 140.21132052 9.63863102 142.39453125 10.84765625 C143.25670258 11.32356201 143.25670258 11.32356201 144.1362915 11.80908203 C150.69467046 15.43129429 157.20278214 19.11326077 163.625 22.97265625 C164.71272705 23.62363281 165.8004541 24.27460938 166.92114258 24.9453125 C168.98990587 26.19037341 171.05131689 27.4477536 173.10424805 28.71875 C174.03277588 29.27691406 174.96130371 29.83507812 175.91796875 30.41015625 C176.72540527 30.90644531 177.5328418 31.40273438 178.36474609 31.9140625 C181.29149759 33.08061427 182.7342287 32.79022281 185.70703125 31.84765625 C188.20991665 30.51336543 190.60577278 29.13970505 193.01953125 27.66015625 C194.53598322 26.74920861 196.05294043 25.83910169 197.5703125 24.9296875 C198.39096191 24.43549316 199.21161133 23.94129883 200.05712891 23.43212891 C205.93841822 19.91549286 211.8672564 16.47730992 217.81054688 13.06665039 C222.52339308 10.35090656 227.14912055 7.60155041 231.6328125 4.51953125 C232.75526367 3.77509766 232.75526367 3.77509766 233.90039062 3.015625 C235.26481909 2.10265259 236.60638637 1.15403971 237.91601562 0.1640625 C239.95250909 -1.17056418 241.2823833 -1.86278643 243.70703125 -2.15234375 C247.74627268 -0.76148235 251.13137555 1.5432738 254.70703125 3.84765625 C256.8424284 5.06878216 258.98463447 6.27806318 261.1328125 7.4765625 C262.83864248 8.44982746 264.54445525 9.42312409 266.24923706 10.39822388 C268.0627971 11.4348878 269.87816469 12.46833942 271.69360352 13.50170898 C277.59145793 16.86641846 283.45186384 20.27479656 289.24609375 23.81640625 C290.24600342 24.42411865 291.24591309 25.03183105 292.27612305 25.65795898 C294.14737635 26.80103371 296.01126187 27.95628439 297.86645508 29.12524414 C298.69943115 29.6330542 299.53240723 30.14086426 300.390625 30.6640625 C301.46654907 31.33610718 301.46654907 31.33610718 302.56420898 32.02172852 C305.39468264 33.11270406 306.83443893 32.75822844 309.70703125 31.84765625 C312.13525642 30.68385767 312.13525642 30.68385767 314.56640625 29.1796875 C315.50524658 28.6228125 316.44408691 28.0659375 317.41137695 27.4921875 C318.41644287 26.88761719 319.42150879 26.28304688 320.45703125 25.66015625 C322.61085666 24.38352097 324.76584322 23.10884304 326.921875 21.8359375 C328.5922583 20.84907959 328.5922583 20.84907959 330.29638672 19.84228516 C335.83067599 16.60569651 341.42132203 13.47201191 347.01953125 10.34765625 C348.02532227 9.7853833 349.03111328 9.22311035 350.06738281 8.64379883 C352.00011489 7.56590433 353.94083364 6.5021851 355.88989258 5.45410156 C358.75516626 3.88317122 358.75516626 3.88317122 361.4519043 1.88964844 C364.23759908 0.00904853 366.45010497 -1.30530953 369.70703125 -2.15234375 C374.3691907 -1.01445017 377.94646321 1.43452137 381.89453125 4.09765625 C383.59824931 5.16518357 385.3020017 6.23266225 387.00808716 7.29640198 C388.76127735 8.39770913 390.50102549 9.51810608 392.23974609 10.64208984 C397.61355318 14.09241355 403.17034338 17.23088796 408.70703125 20.41015625 C410.60418222 21.51336221 412.5000764 22.61873308 414.39453125 23.7265625 C415.27753906 24.23848145 416.16054688 24.75040039 417.0703125 25.27783203 C418.88073043 26.35570123 420.66920297 27.47103753 422.4375 28.61669922 C423.31019531 29.17631348 424.18289063 29.73592773 425.08203125 30.3125 C426.23832031 31.07808228 426.23832031 31.07808228 427.41796875 31.85913086 C430.36073566 33.12995672 431.6861063 32.8389889 434.70703125 31.84765625 C437.13525642 30.68385767 437.13525642 30.68385767 439.56640625 29.1796875 C440.50524658 28.6228125 441.44408691 28.0659375 442.41137695 27.4921875 C443.41644287 26.88761719 444.42150879 26.28304688 445.45703125 25.66015625 C447.61085666 24.38352097 449.76584322 23.10884304 451.921875 21.8359375 C453.03546387 21.17803223 454.14905273 20.52012695 455.29638672 19.84228516 C460.83067599 16.60569651 466.42132203 13.47201191 472.01953125 10.34765625 C473.02532227 9.7853833 474.03111328 9.22311035 475.06738281 8.64379883 C477.00011489 7.56590433 478.94083364 6.5021851 480.88989258 5.45410156 C483.75516626 3.88317122 483.75516626 3.88317122 486.4519043 1.88964844 C489.23759908 0.00904853 491.45010497 -1.30530953 494.70703125 -2.15234375 C499.3691907 -1.01445017 502.94646321 1.43452137 506.89453125 4.09765625 C508.59824931 5.16518357 510.3020017 6.23266225 512.00808716 7.29640198 C513.76127735 8.39770913 515.50102549 9.51810608 517.23974609 10.64208984 C522.61355318 14.09241355 528.17034338 17.23088796 533.70703125 20.41015625 C535.60418222 21.51336221 537.5000764 22.61873308 539.39453125 23.7265625 C540.27753906 24.23848145 541.16054688 24.75040039 542.0703125 25.27783203 C543.88073043 26.35570123 545.66920297 27.47103753 547.4375 28.61669922 C548.31019531 29.17631348 549.18289063 29.73592773 550.08203125 30.3125 C551.23832031 31.07808228 551.23832031 31.07808228 552.41796875 31.85913086 C555.32338179 33.11382555 556.72567978 32.79644573 559.70703125 31.84765625 C562.20991665 30.51336543 564.60577278 29.13970505 567.01953125 27.66015625 C568.53598322 26.74920861 570.05294043 25.83910169 571.5703125 24.9296875 C572.39096191 24.43549316 573.21161133 23.94129883 574.05712891 23.43212891 C579.93841822 19.91549286 585.8672564 16.47730992 591.81054688 13.06665039 C596.52339308 10.35090656 601.14912055 7.60155041 605.6328125 4.51953125 C606.75526367 3.77509766 606.75526367 3.77509766 607.90039062 3.015625 C609.26481909 2.10265259 610.60638637 1.15403971 611.91601562 0.1640625 C613.95428083 -1.1717253 615.27965335 -1.86538573 617.70703125 -2.15234375 C621.737047 -0.74479711 625.12809159 1.55303354 628.70703125 3.84765625 C630.74449376 4.98727903 632.79034692 6.11201258 634.84375 7.22265625 C637.02774122 8.43027102 639.21132052 9.63863102 641.39453125 10.84765625 C641.96931213 11.16492676 642.54409302 11.48219727 643.1362915 11.80908203 C649.69467046 15.43129429 656.20278214 19.11326077 662.625 22.97265625 C663.71272705 23.62363281 664.8004541 24.27460938 665.92114258 24.9453125 C667.98990587 26.19037341 670.05131689 27.4477536 672.10424805 28.71875 C673.03277588 29.27691406 673.96130371 29.83507812 674.91796875 30.41015625 C675.72540527 30.90644531 676.5328418 31.40273438 677.36474609 31.9140625 C680.29149759 33.08061427 681.7342287 32.79022281 684.70703125 31.84765625 C687.20991665 30.51336543 689.60577278 29.13970505 692.01953125 27.66015625 C693.53598322 26.74920861 695.05294043 25.83910169 696.5703125 24.9296875 C697.39096191 24.43549316 698.21161133 23.94129883 699.05712891 23.43212891 C704.93841822 19.91549286 710.8672564 16.47730992 716.81054688 13.06665039 C721.52339308 10.35090656 726.14912055 7.60155041 730.6328125 4.51953125 C731.75526367 3.77509766 731.75526367 3.77509766 732.90039062 3.015625 C734.26481909 2.10265259 735.60638637 1.15403971 736.91601562 0.1640625 C738.95250909 -1.17056418 740.2823833 -1.86278643 742.70703125 -2.15234375 C746.74627268 -0.76148235 750.13137555 1.5432738 753.70703125 3.84765625 C755.8424284 5.06878216 757.98463447 6.27806318 760.1328125 7.4765625 C761.83864248 8.44982746 763.54445525 9.42312409 765.24923706 10.39822388 C767.0627971 11.4348878 768.87816469 12.46833942 770.69360352 13.50170898 C776.59145793 16.86641846 782.45186384 20.27479656 788.24609375 23.81640625 C789.74595825 24.72797485 789.74595825 24.72797485 791.27612305 25.65795898 C793.14737635 26.80103371 795.01126187 27.95628439 796.86645508 29.12524414 C797.69943115 29.6330542 798.53240723 30.14086426 799.390625 30.6640625 C800.10790771 31.11209229 800.82519043 31.56012207 801.56420898 32.02172852 C804.39468264 33.11270406 805.83443893 32.75822844 808.70703125 31.84765625 C811.13525642 30.68385767 811.13525642 30.68385767 813.56640625 29.1796875 C814.50524658 28.6228125 815.44408691 28.0659375 816.41137695 27.4921875 C817.41644287 26.88761719 818.42150879 26.28304688 819.45703125 25.66015625 C821.61085666 24.38352097 823.76584322 23.10884304 825.921875 21.8359375 C827.03546387 21.17803223 828.14905273 20.52012695 829.29638672 19.84228516 C834.83067599 16.60569651 840.42132203 13.47201191 846.01953125 10.34765625 C847.02532227 9.7853833 848.03111328 9.22311035 849.06738281 8.64379883 C851.00011489 7.56590433 852.94083364 6.5021851 854.88989258 5.45410156 C857.75516626 3.88317122 857.75516626 3.88317122 860.4519043 1.88964844 C863.23759908 0.00904853 865.45010497 -1.30530953 868.70703125 -2.15234375 C873.3691907 -1.01445017 876.94646321 1.43452137 880.89453125 4.09765625 C882.59824931 5.16518357 884.3020017 6.23266225 886.00808716 7.29640198 C887.76127735 8.39770913 889.50102549 9.51810608 891.23974609 10.64208984 C896.61355318 14.09241355 902.17034338 17.23088796 907.70703125 20.41015625 C909.60418222 21.51336221 911.5000764 22.61873308 913.39453125 23.7265625 C914.27753906 24.23848145 915.16054687 24.75040039 916.0703125 25.27783203 C917.88073043 26.35570123 919.66920297 27.47103753 921.4375 28.61669922 C922.31019531 29.17631348 923.18289063 29.73592773 924.08203125 30.3125 C924.85289063 30.82288818 925.62375 31.33327637 926.41796875 31.85913086 C929.37347223 33.13545697 930.67236494 32.85328821 933.70703125 31.84765625 C936.34946445 30.55259118 936.34946445 30.55259118 939.0234375 28.8984375 C940.03599609 28.29708984 941.04855469 27.69574219 942.09179688 27.07617188 C943.14044922 26.44388672 944.18910156 25.81160156 945.26953125 25.16015625 C953.26318389 20.36396466 961.30823015 15.8994381 969.70703125 11.84765625 C969.60742188 13.59301758 969.60742188 13.59301758 968.70703125 15.84765625 C966.58399706 17.38527841 964.57741708 18.65609053 962.30078125 19.921875 C961.66088257 20.2911763 961.02098389 20.6604776 960.36169434 21.04096985 C958.31682566 22.21784768 956.26243756 23.37679861 954.20703125 24.53515625 C952.15398671 25.70801612 950.10298768 26.88438418 948.05236816 28.06147766 C946.77553193 28.79264424 945.49684344 29.52058718 944.21618652 30.24504089 C941.28607891 31.80261314 941.28607891 31.80261314 938.70703125 33.84765625 C938.58459815 35.35082394 938.5292684 36.85953792 938.50170898 38.36743164 C938.48176376 39.3283522 938.46181854 40.28927277 938.44126892 41.27931213 C938.42455643 42.32409225 938.40784393 43.36887238 938.390625 44.4453125 C938.3698439 45.50930771 938.34906281 46.57330292 938.32765198 47.66954041 C938.26203871 51.08301065 938.20321702 54.49656054 938.14453125 57.91015625 C938.10135722 60.21810734 938.05774331 62.52605025 938.01367188 64.83398438 C937.90634541 70.50512307 937.80460133 76.17634177 937.70703125 81.84765625 C936.71703125 81.84765625 935.72703125 81.84765625 934.70703125 81.84765625 C934.37703125 66.99765625 934.04703125 52.14765625 933.70703125 36.84765625 C932.05703125 37.17765625 930.40703125 37.50765625 928.70703125 37.84765625 C927.71703125 37.18765625 926.72703125 36.52765625 925.70703125 35.84765625 C925.37703125 51.02765625 925.04703125 66.20765625 924.70703125 81.84765625 C923.71703125 81.84765625 922.72703125 81.84765625 921.70703125 81.84765625 C921.73447418 81.25598663 921.76191711 80.66431702 921.79019165 80.05471802 C922.05960007 73.85683884 922.20019411 67.66519818 922.26855469 61.46191406 C922.31056163 59.15282453 922.38464274 56.84407561 922.4921875 54.53710938 C923.52990807 42.03012103 923.52990807 42.03012103 919.06112671 30.89794922 C914.80628208 27.55854414 910.02577345 25.60382259 904.98571777 23.73797607 C901.77308039 22.48274649 899.025256 20.82492558 896.0859375 19.01953125 C895.11076172 18.4471875 894.13558594 17.87484375 893.13085938 17.28515625 C891.71450195 16.44984375 891.71450195 16.44984375 890.26953125 15.59765625 C887.36432294 13.88576177 884.45983918 12.17923496 881.52416992 10.52001953 C878.70703125 8.84765625 878.70703125 8.84765625 875.9934082 6.85888672 C873.18590811 4.9384866 871.01622974 3.65698191 867.70703125 2.84765625 C862.82929748 4.09013117 858.9200082 6.72124267 854.76953125 9.47265625 C853.56344985 10.22445417 852.35431579 10.97137473 851.14233398 11.71362305 C848.61014848 13.26935829 846.09255052 14.84560002 843.58203125 16.43603516 C837.8721815 20.02456228 831.9897495 23.31055234 826.11495972 26.61907959 C823.18203185 28.27365618 820.25909638 29.94540937 817.3359375 31.6171875 C816.3672876 32.16995361 815.3986377 32.72271973 814.40063477 33.29223633 C812.58019704 34.34344713 810.78070138 35.43165046 809.00244141 36.55273438 C806.70703125 37.84765625 806.70703125 37.84765625 804.3515625 37.796875 C800.76499089 36.50952359 797.62805396 34.64219162 794.39453125 32.66015625 C792.87807928 31.74920861 791.36112207 30.83910169 789.84375 29.9296875 C788.61277588 29.188396 788.61277588 29.188396 787.35693359 28.43212891 C781.47564428 24.91549286 775.5468061 21.47730992 769.60351562 18.06665039 C764.89066942 15.35090656 760.26494195 12.60155041 755.78125 9.51953125 C754.65879883 8.77509766 754.65879883 8.77509766 753.51367188 8.015625 C752.14924341 7.10265259 750.80767613 6.15403971 749.49804688 5.1640625 C747.46155341 3.82943582 746.1316792 3.13721357 743.70703125 2.84765625 C739.66778982 4.23851765 736.28268695 6.5432738 732.70703125 8.84765625 C730.5716341 10.06878216 728.42942803 11.27806318 726.28125 12.4765625 C724.57542002 13.44982746 722.86960725 14.42312409 721.16482544 15.39822388 C719.3512654 16.4348878 717.53589781 17.46833942 715.72045898 18.50170898 C709.82260457 21.86641846 703.96219866 25.27479656 698.16796875 28.81640625 C697.16805908 29.42411865 696.16814941 30.03183105 695.13793945 30.65795898 C693.26668615 31.80103371 691.40280063 32.95628439 689.54760742 34.12524414 C688.71463135 34.6330542 687.88165527 35.14086426 687.0234375 35.6640625 C686.30615479 36.11209229 685.58887207 36.56012207 684.84985352 37.02172852 C682.01937986 38.11270406 680.57962357 37.75822844 677.70703125 36.84765625 C675.33300781 35.67114258 675.33300781 35.67114258 672.84765625 34.1796875 C671.90881592 33.6228125 670.96997559 33.0659375 670.00268555 32.4921875 C668.49508667 31.58533203 668.49508667 31.58533203 666.95703125 30.66015625 C664.80320584 29.38352097 662.64821928 28.10884304 660.4921875 26.8359375 C659.37859863 26.17803223 658.26500977 25.52012695 657.11767578 24.84228516 C651.58338651 21.60569651 645.99274047 18.47201191 640.39453125 15.34765625 C639.38874023 14.7853833 638.38294922 14.22311035 637.34667969 13.64379883 C635.41394761 12.56590433 633.47322886 11.5021851 631.52416992 10.45410156 C628.70703125 8.84765625 628.70703125 8.84765625 625.9621582 6.88964844 C623.17646342 5.00904853 620.96395753 3.69469047 617.70703125 2.84765625 C613.0448718 3.98554983 609.46759929 6.43452137 605.51953125 9.09765625 C603.81581319 10.16518357 602.1120608 11.23266225 600.40597534 12.29640198 C598.65278515 13.39770913 596.91303701 14.51810608 595.17431641 15.64208984 C589.80050932 19.09241355 584.24371912 22.23088796 578.70703125 25.41015625 C576.80988028 26.51336221 574.9139861 27.61873308 573.01953125 28.7265625 C572.13652344 29.23848145 571.25351562 29.75040039 570.34375 30.27783203 C568.53333207 31.35570123 566.74485953 32.47103753 564.9765625 33.61669922 C563.66751953 34.45612061 563.66751953 34.45612061 562.33203125 35.3125 C561.17574219 36.07808228 561.17574219 36.07808228 559.99609375 36.85913086 C557.09068071 38.11382555 555.68838272 37.79644573 552.70703125 36.84765625 C550.20414585 35.51336543 547.80828972 34.13970505 545.39453125 32.66015625 C543.87807928 31.74920861 542.36112207 30.83910169 540.84375 29.9296875 C539.61277588 29.188396 539.61277588 29.188396 538.35693359 28.43212891 C532.47564428 24.91549286 526.5468061 21.47730992 520.60351562 18.06665039 C515.89066942 15.35090656 511.26494195 12.60155041 506.78125 9.51953125 C505.65879883 8.77509766 505.65879883 8.77509766 504.51367188 8.015625 C503.14924341 7.10265259 501.80767613 6.15403971 500.49804688 5.1640625 C498.45978167 3.8282747 497.13440915 3.13461427 494.70703125 2.84765625 C490.6770155 4.25520289 487.28597091 6.55303354 483.70703125 8.84765625 C481.66956874 9.98727903 479.62371558 11.11201258 477.5703125 12.22265625 C475.38632128 13.43027102 473.20274198 14.63863102 471.01953125 15.84765625 C470.44475037 16.16492676 469.86996948 16.48219727 469.277771 16.80908203 C462.71939204 20.43129429 456.21128036 24.11326077 449.7890625 27.97265625 C448.70133545 28.62363281 447.6136084 29.27460938 446.49291992 29.9453125 C444.42415663 31.19037341 442.36274561 32.4477536 440.30981445 33.71875 C439.38128662 34.27691406 438.45275879 34.83507812 437.49609375 35.41015625 C436.68865723 35.90644531 435.8812207 36.40273438 435.04931641 36.9140625 C432.12256491 38.08061427 430.6798338 37.79022281 427.70703125 36.84765625 C425.20414585 35.51336543 422.80828972 34.13970505 420.39453125 32.66015625 C418.87807928 31.74920861 417.36112207 30.83910169 415.84375 29.9296875 C414.61277588 29.188396 414.61277588 29.188396 413.35693359 28.43212891 C407.47564428 24.91549286 401.5468061 21.47730992 395.60351562 18.06665039 C390.89066942 15.35090656 386.26494195 12.60155041 381.78125 9.51953125 C380.65879883 8.77509766 380.65879883 8.77509766 379.51367188 8.015625 C378.14924341 7.10265259 376.80767613 6.15403971 375.49804688 5.1640625 C373.45978167 3.8282747 372.13440915 3.13461427 369.70703125 2.84765625 C365.6770155 4.25520289 362.28597091 6.55303354 358.70703125 8.84765625 C356.66956874 9.98727903 354.62371558 11.11201258 352.5703125 12.22265625 C350.38632128 13.43027102 348.20274198 14.63863102 346.01953125 15.84765625 C345.44475037 16.16492676 344.86996948 16.48219727 344.277771 16.80908203 C337.71939204 20.43129429 331.21128036 24.11326077 324.7890625 27.97265625 C323.70133545 28.62363281 322.6136084 29.27460938 321.49291992 29.9453125 C319.42415663 31.19037341 317.36274561 32.4477536 315.30981445 33.71875 C314.38128662 34.27691406 313.45275879 34.83507812 312.49609375 35.41015625 C311.68865723 35.90644531 310.8812207 36.40273438 310.04931641 36.9140625 C307.12256491 38.08061427 305.6798338 37.79022281 302.70703125 36.84765625 C300.20414585 35.51336543 297.80828972 34.13970505 295.39453125 32.66015625 C293.87807928 31.74920861 292.36112207 30.83910169 290.84375 29.9296875 C290.02310059 29.43549316 289.20245117 28.94129883 288.35693359 28.43212891 C282.47564428 24.91549286 276.5468061 21.47730992 270.60351562 18.06665039 C265.89066942 15.35090656 261.26494195 12.60155041 256.78125 9.51953125 C255.65879883 8.77509766 255.65879883 8.77509766 254.51367188 8.015625 C253.14924341 7.10265259 251.80767613 6.15403971 250.49804688 5.1640625 C248.46155341 3.82943582 247.1316792 3.13721357 244.70703125 2.84765625 C240.66778982 4.23851765 237.28268695 6.5432738 233.70703125 8.84765625 C231.5716341 10.06878216 229.42942803 11.27806318 227.28125 12.4765625 C225.57542002 13.44982746 223.86960725 14.42312409 222.16482544 15.39822388 C220.3512654 16.4348878 218.53589781 17.46833942 216.72045898 18.50170898 C210.82260457 21.86641846 204.96219866 25.27479656 199.16796875 28.81640625 C198.16805908 29.42411865 197.16814941 30.03183105 196.13793945 30.65795898 C194.26668615 31.80103371 192.40280063 32.95628439 190.54760742 34.12524414 C189.71463135 34.6330542 188.88165527 35.14086426 188.0234375 35.6640625 C187.30615479 36.11209229 186.58887207 36.56012207 185.84985352 37.02172852 C183.01937986 38.11270406 181.57962357 37.75822844 178.70703125 36.84765625 C176.33300781 35.67114258 176.33300781 35.67114258 173.84765625 34.1796875 C172.90881592 33.6228125 171.96997559 33.0659375 171.00268555 32.4921875 C169.49508667 31.58533203 169.49508667 31.58533203 167.95703125 30.66015625 C165.80320584 29.38352097 163.64821928 28.10884304 161.4921875 26.8359375 C160.37859863 26.17803223 159.26500977 25.52012695 158.11767578 24.84228516 C152.58338651 21.60569651 146.99274047 18.47201191 141.39453125 15.34765625 C140.38874023 14.7853833 139.38294922 14.22311035 138.34667969 13.64379883 C136.41394761 12.56590433 134.47322886 11.5021851 132.52416992 10.45410156 C129.70703125 8.84765625 129.70703125 8.84765625 126.9621582 6.88964844 C124.17646342 5.00904853 121.96395753 3.69469047 118.70703125 2.84765625 C114.0448718 3.98554983 110.46759929 6.43452137 106.51953125 9.09765625 C104.81581319 10.16518357 103.1120608 11.23266225 101.40597534 12.29640198 C99.65278515 13.39770913 97.91303701 14.51810608 96.17431641 15.64208984 C90.80050932 19.09241355 85.24371912 22.23088796 79.70703125 25.41015625 C77.80988028 26.51336221 75.9139861 27.61873308 74.01953125 28.7265625 C73.13652344 29.23848145 72.25351563 29.75040039 71.34375 30.27783203 C69.53333207 31.35570123 67.74485953 32.47103753 65.9765625 33.61669922 C65.10386719 34.17631348 64.23117188 34.73592773 63.33203125 35.3125 C62.56117188 35.82288818 61.7903125 36.33327637 60.99609375 36.85913086 C58.09068071 38.11382555 56.68838272 37.79644573 53.70703125 36.84765625 C51.20414585 35.51336543 48.80828972 34.13970505 46.39453125 32.66015625 C44.87807928 31.74920861 43.36112207 30.83910169 41.84375 29.9296875 C41.02310059 29.43549316 40.20245117 28.94129883 39.35693359 28.43212891 C33.47564428 24.91549286 27.5468061 21.47730992 21.60351562 18.06665039 C16.89066942 15.35090656 12.26494195 12.60155041 7.78125 9.51953125 C7.03294922 9.02324219 6.28464844 8.52695312 5.51367188 8.015625 C4.14924341 7.10265259 2.80767613 6.15403971 1.49804688 5.1640625 C-0.54021833 3.8282747 -1.86559085 3.13461427 -4.29296875 2.84765625 C-8.3229845 4.25520289 -11.71402909 6.55303354 -15.29296875 8.84765625 C-17.33043126 9.98727903 -19.37628442 11.11201258 -21.4296875 12.22265625 C-23.61367872 13.43027102 -25.79725802 14.63863102 -27.98046875 15.84765625 C-28.55524963 16.16492676 -29.13003052 16.48219727 -29.722229 16.80908203 C-36.28060796 20.43129429 -42.78871964 24.11326077 -49.2109375 27.97265625 C-50.29866455 28.62363281 -51.3863916 29.27460938 -52.50708008 29.9453125 C-54.57584337 31.19037341 -56.63725439 32.4477536 -58.69018555 33.71875 C-59.61871338 34.27691406 -60.54724121 34.83507812 -61.50390625 35.41015625 C-62.31134277 35.90644531 -63.1187793 36.40273438 -63.95068359 36.9140625 C-66.86381474 38.07518544 -68.33408624 37.77569431 -71.29296875 36.84765625 C-73.33533241 35.75684839 -75.32950726 34.57481968 -77.29296875 33.34765625 C-78.61464983 32.53314789 -79.93769841 31.7208565 -81.26171875 30.91015625 C-82.03128906 30.43835938 -82.80085938 29.9665625 -83.59375 29.48046875 C-88.65187376 26.42070648 -93.76435198 23.45256896 -98.86904907 20.47140503 C-109.38371758 14.32985659 -119.87981579 8.16029302 -130.29296875 1.84765625 C-129.96296875 0.85765625 -129.63296875 -0.13234375 -129.29296875 -1.15234375 C-125.62071499 0.83746776 -121.9557672 2.84050928 -118.29296875 4.84765625 C-117.66567871 5.19086914 -117.03838867 5.53408203 -116.39208984 5.88769531 C-104.67596215 12.30961395 -93.11921539 18.98862931 -81.59375 25.74609375 C-80.6754541 26.27944336 -79.7571582 26.81279297 -78.81103516 27.36230469 C-77.26097205 28.27665256 -75.7233453 29.2129945 -74.20849609 30.18457031 C-70.81526787 32.35893635 -70.81526787 32.35893635 -66.90258789 32.60961914 C-64.09053214 31.78854832 -61.94405304 30.68620968 -59.43359375 29.1796875 C-58.49467285 28.6228125 -57.55575195 28.0659375 -56.58837891 27.4921875 C-55.58339355 26.88761719 -54.5784082 26.28304688 -53.54296875 25.66015625 C-51.39049479 24.38343888 -49.2368084 23.10876382 -47.08203125 21.8359375 C-45.96860352 21.17803223 -44.85517578 20.52012695 -43.70800781 19.84228516 C-37.14389436 16.00836988 -30.49277999 12.32959203 -23.84472656 8.64379883 C-22.87116211 8.10263428 -21.89759766 7.56146973 -20.89453125 7.00390625 C-19.9499707 6.49214844 -19.00541016 5.98039062 -18.03222656 5.453125 C-15.25135592 3.89712933 -15.25135592 3.89712933 -12.73339844 1.8984375 C-7.8968996 -1.67512368 -5.5071852 -2.9760068 0 0 Z " fill="#000000" transform="translate(140.29296875,298.15234375)"/>
<path d="M0 0 C0.99 0 1.98 0 3 0 C3 15.51 3 31.02 3 47 C5.97 45.515 5.97 45.515 9 44 C9.99 44.66 10.98 45.32 12 46 C12.33 30.82 12.66 15.64 13 0 C13.99 0 14.98 0 16 0 C16 16.17 16 32.34 16 49 C17.65 49.66 19.3 50.32 21 51 C25.06682416 53.03836312 29.05912336 55.21512716 33.0625 57.375 C34.69541992 58.24125 34.69541992 58.24125 36.36132812 59.125 C37.40869141 59.68960938 38.45605469 60.25421875 39.53515625 60.8359375 C40.487854 61.34688965 41.44055176 61.8578418 42.42211914 62.38427734 C45.01302651 64.00816455 46.9357296 65.7567431 49 68 C47.515 68.99 47.515 68.99 46 70 C45.16863525 69.51120361 44.33727051 69.02240723 43.48071289 68.51879883 C40.35585885 66.68194324 37.23017153 64.84650956 34.10424805 63.01147461 C32.75897305 62.2214895 31.41391553 61.43113392 30.0690918 60.64038086 C29.4191626 60.25825439 28.7692334 59.87612793 28.09960938 59.48242188 C27.4567247 59.10380508 26.81384003 58.72518829 26.151474 58.33509827 C24.86811609 57.58452775 23.58079276 56.84069579 22.28956604 56.10374451 C19.57632558 54.55164035 16.97969359 52.98481681 14.47436523 51.11157227 C12.23342423 49.49774044 10.71700523 48.51162251 8 48 C3.49053906 49.32332811 -0.15539362 51.74882898 -4.0625 54.3125 C-5.19748004 55.0187476 -6.33489692 55.72109282 -7.47460938 56.41967773 C-9.82733676 57.86686786 -12.16751084 59.331746 -14.50048828 60.81054688 C-19.90711038 64.21893489 -25.46201063 67.37404007 -31 70.5625 C-32.89700117 71.66596351 -34.79288793 72.77134574 -36.6875 73.87890625 C-37.57050781 74.3908252 -38.45351563 74.90274414 -39.36328125 75.43017578 C-41.17369918 76.50804498 -42.96217172 77.62338128 -44.73046875 78.76904297 C-46.03951172 79.60846436 -46.03951172 79.60846436 -47.375 80.46484375 C-48.14585937 80.97523193 -48.91671875 81.48562012 -49.7109375 82.01147461 C-52.65370441 83.28230047 -53.97907505 82.99133265 -57 82 C-59.37402344 80.82348633 -59.37402344 80.82348633 -61.859375 79.33203125 C-62.79821533 78.77515625 -63.73705566 78.21828125 -64.7043457 77.64453125 C-66.21194458 76.73767578 -66.21194458 76.73767578 -67.75 75.8125 C-69.90382541 74.53586472 -72.05881197 73.26118679 -74.21484375 71.98828125 C-75.32843262 71.33037598 -76.44202148 70.6724707 -77.58935547 69.99462891 C-83.12364474 66.75804026 -88.71429078 63.62435566 -94.3125 60.5 C-95.31829102 59.93772705 -96.32408203 59.3754541 -97.36035156 58.79614258 C-99.29308364 57.71824808 -101.23380239 56.65452885 -103.18286133 55.60644531 C-106 54 -106 54 -108.74487305 52.04199219 C-111.53056783 50.16139228 -113.74307372 48.84703422 -117 48 C-121.66215945 49.13789358 -125.23943196 51.58686512 -129.1875 54.25 C-130.89121806 55.31752732 -132.59497045 56.385006 -134.30105591 57.44874573 C-136.0542461 58.55005288 -137.79399424 59.67044983 -139.53271484 60.79443359 C-144.90652193 64.2447573 -150.46331213 67.38323171 -156 70.5625 C-157.89715097 71.66570596 -159.79304515 72.77107683 -161.6875 73.87890625 C-162.57050781 74.3908252 -163.45351563 74.90274414 -164.36328125 75.43017578 C-166.17369918 76.50804498 -167.96217172 77.62338128 -169.73046875 78.76904297 C-171.03951172 79.60846436 -171.03951172 79.60846436 -172.375 80.46484375 C-173.14585937 80.97523193 -173.91671875 81.48562012 -174.7109375 82.01147461 C-177.61635054 83.2661693 -179.01864853 82.94878948 -182 82 C-184.5028854 80.66570918 -186.89874153 79.2920488 -189.3125 77.8125 C-190.82895197 76.90155236 -192.34590918 75.99144544 -193.86328125 75.08203125 C-195.09425537 74.34073975 -195.09425537 74.34073975 -196.35009766 73.58447266 C-202.23138697 70.06783661 -208.16022515 66.62965367 -214.10351562 63.21899414 C-218.81636183 60.50325031 -223.4420893 57.75389416 -227.92578125 54.671875 C-228.67408203 54.17558594 -229.42238281 53.67929688 -230.19335938 53.16796875 C-231.55778784 52.25499634 -232.89935512 51.30638346 -234.20898438 50.31640625 C-236.24724958 48.98061845 -237.5726221 48.28695802 -240 48 C-244.03001575 49.40754664 -247.42106034 51.70537729 -251 54 C-253.03746251 55.13962278 -255.08331567 56.26435633 -257.13671875 57.375 C-259.32070997 58.58261477 -261.50428927 59.79097477 -263.6875 61 C-264.26228088 61.31727051 -264.83706177 61.63454102 -265.42926025 61.96142578 C-271.98763921 65.58363804 -278.49575089 69.26560452 -284.91796875 73.125 C-286.54955933 74.10146484 -286.54955933 74.10146484 -288.21411133 75.09765625 C-290.28287462 76.34271716 -292.34428564 77.60009735 -294.3972168 78.87109375 C-295.79000854 79.70833984 -295.79000854 79.70833984 -297.2109375 80.5625 C-298.01837402 81.05878906 -298.82581055 81.55507812 -299.65771484 82.06640625 C-302.58446634 83.23295802 -304.02719745 82.94256656 -307 82 C-309.5028854 80.66570918 -311.89874153 79.2920488 -314.3125 77.8125 C-315.82895197 76.90155236 -317.34590918 75.99144544 -318.86328125 75.08203125 C-320.09425537 74.34073975 -320.09425537 74.34073975 -321.35009766 73.58447266 C-327.23138697 70.06783661 -333.16022515 66.62965367 -339.10351562 63.21899414 C-343.81636183 60.50325031 -348.4420893 57.75389416 -352.92578125 54.671875 C-353.67408203 54.17558594 -354.42238281 53.67929688 -355.19335938 53.16796875 C-356.55778784 52.25499634 -357.89935512 51.30638346 -359.20898438 50.31640625 C-361.24547784 48.98177957 -362.57535205 48.28955732 -365 48 C-369.03924143 49.3908614 -372.4243443 51.69561755 -376 54 C-378.13539715 55.22112591 -380.27760322 56.43040693 -382.42578125 57.62890625 C-384.13161123 58.60217121 -385.837424 59.57546784 -387.54220581 60.55056763 C-389.35576585 61.58723155 -391.17113344 62.62068317 -392.98657227 63.65405273 C-398.88442668 67.01876221 -404.74483259 70.42714031 -410.5390625 73.96875 C-411.53897217 74.5764624 -412.53888184 75.1841748 -413.5690918 75.81030273 C-415.4403451 76.95337746 -417.30423062 78.10862814 -419.15942383 79.27758789 C-420.40888794 80.03930298 -420.40888794 80.03930298 -421.68359375 80.81640625 C-422.40087646 81.26443604 -423.11815918 81.71246582 -423.85717773 82.17407227 C-426.68765139 83.26504781 -428.12740768 82.91057219 -431 82 C-433.37402344 80.82348633 -433.37402344 80.82348633 -435.859375 79.33203125 C-436.79821533 78.77515625 -437.73705566 78.21828125 -438.7043457 77.64453125 C-440.21194458 76.73767578 -440.21194458 76.73767578 -441.75 75.8125 C-443.90382541 74.53586472 -446.05881197 73.26118679 -448.21484375 71.98828125 C-449.32843262 71.33037598 -450.44202148 70.6724707 -451.58935547 69.99462891 C-457.12364474 66.75804026 -462.71429078 63.62435566 -468.3125 60.5 C-469.31829102 59.93772705 -470.32408203 59.3754541 -471.36035156 58.79614258 C-473.29308364 57.71824808 -475.23380239 56.65452885 -477.18286133 55.60644531 C-480 54 -480 54 -482.74487305 52.04199219 C-485.53056783 50.16139228 -487.74307372 48.84703422 -491 48 C-495.66215945 49.13789358 -499.23943196 51.58686512 -503.1875 54.25 C-504.89121806 55.31752732 -506.59497045 56.385006 -508.30105591 57.44874573 C-510.0542461 58.55005288 -511.79399424 59.67044983 -513.53271484 60.79443359 C-518.90652193 64.2447573 -524.46331213 67.38323171 -530 70.5625 C-531.89715097 71.66570596 -533.79304515 72.77107683 -535.6875 73.87890625 C-536.57050781 74.3908252 -537.45351563 74.90274414 -538.36328125 75.43017578 C-540.17369918 76.50804498 -541.96217172 77.62338128 -543.73046875 78.76904297 C-545.03951172 79.60846436 -545.03951172 79.60846436 -546.375 80.46484375 C-547.14585937 80.97523193 -547.91671875 81.48562012 -548.7109375 82.01147461 C-551.65370441 83.28230047 -552.97907505 82.99133265 -556 82 C-558.37402344 80.82348633 -558.37402344 80.82348633 -560.859375 79.33203125 C-561.79821533 78.77515625 -562.73705566 78.21828125 -563.7043457 77.64453125 C-565.21194458 76.73767578 -565.21194458 76.73767578 -566.75 75.8125 C-568.90382541 74.53586472 -571.05881197 73.26118679 -573.21484375 71.98828125 C-574.32843262 71.33037598 -575.44202148 70.6724707 -576.58935547 69.99462891 C-582.12364474 66.75804026 -587.71429078 63.62435566 -593.3125 60.5 C-594.82118652 59.65659058 -594.82118652 59.65659058 -596.36035156 58.79614258 C-598.29308364 57.71824808 -600.23380239 56.65452885 -602.18286133 55.60644531 C-605 54 -605 54 -607.74487305 52.04199219 C-610.53056783 50.16139228 -612.74307372 48.84703422 -616 48 C-620.66215945 49.13789358 -624.23943196 51.58686512 -628.1875 54.25 C-629.89121806 55.31752732 -631.59497045 56.385006 -633.30105591 57.44874573 C-635.0542461 58.55005288 -636.79399424 59.67044983 -638.53271484 60.79443359 C-643.90652193 64.2447573 -649.46331213 67.38323171 -655 70.5625 C-656.89715097 71.66570596 -658.79304515 72.77107683 -660.6875 73.87890625 C-662.01201172 74.64678467 -662.01201172 74.64678467 -663.36328125 75.43017578 C-665.17369918 76.50804498 -666.96217172 77.62338128 -668.73046875 78.76904297 C-670.03951172 79.60846436 -670.03951172 79.60846436 -671.375 80.46484375 C-672.14585937 80.97523193 -672.91671875 81.48562012 -673.7109375 82.01147461 C-676.61635054 83.2661693 -678.01864853 82.94878948 -681 82 C-683.5028854 80.66570918 -685.89874153 79.2920488 -688.3125 77.8125 C-689.82895197 76.90155236 -691.34590918 75.99144544 -692.86328125 75.08203125 C-693.68393066 74.58783691 -694.50458008 74.09364258 -695.35009766 73.58447266 C-701.23138697 70.06783661 -707.16022515 66.62965367 -713.10351562 63.21899414 C-717.81636183 60.50325031 -722.4420893 57.75389416 -726.92578125 54.671875 C-727.67408203 54.17558594 -728.42238281 53.67929688 -729.19335938 53.16796875 C-730.55778784 52.25499634 -731.89935512 51.30638346 -733.20898438 50.31640625 C-735.24724958 48.98061845 -736.5726221 48.28695802 -739 48 C-743.03001575 49.40754664 -746.42106034 51.70537729 -750 54 C-752.03746251 55.13962278 -754.08331567 56.26435633 -756.13671875 57.375 C-758.32070997 58.58261477 -760.50428927 59.79097477 -762.6875 61 C-763.26228088 61.31727051 -763.83706177 61.63454102 -764.42926025 61.96142578 C-770.98763921 65.58363804 -777.49575089 69.26560452 -783.91796875 73.125 C-785.0056958 73.77597656 -786.09342285 74.42695312 -787.21411133 75.09765625 C-789.28287462 76.34271716 -791.34428564 77.60009735 -793.3972168 78.87109375 C-794.79000854 79.70833984 -794.79000854 79.70833984 -796.2109375 80.5625 C-797.42209229 81.30693359 -797.42209229 81.30693359 -798.65771484 82.06640625 C-801.58446634 83.23295802 -803.02719745 82.94256656 -806 82 C-808.5028854 80.66570918 -810.89874153 79.2920488 -813.3125 77.8125 C-814.82895197 76.90155236 -816.34590918 75.99144544 -817.86328125 75.08203125 C-818.68393066 74.58783691 -819.50458008 74.09364258 -820.35009766 73.58447266 C-826.23138697 70.06783661 -832.16022515 66.62965367 -838.10351562 63.21899414 C-842.81636183 60.50325031 -847.4420893 57.75389416 -851.92578125 54.671875 C-852.67408203 54.17558594 -853.42238281 53.67929688 -854.19335938 53.16796875 C-855.55778784 52.25499634 -856.89935512 51.30638346 -858.20898438 50.31640625 C-860.24547784 48.98177957 -861.57535205 48.28955732 -864 48 C-868.03924143 49.3908614 -871.4243443 51.69561755 -875 54 C-877.13539715 55.22112591 -879.27760322 56.43040693 -881.42578125 57.62890625 C-883.13161123 58.60217121 -884.837424 59.57546784 -886.54220581 60.55056763 C-888.35576585 61.58723155 -890.17113344 62.62068317 -891.98657227 63.65405273 C-897.88442668 67.01876221 -903.74483259 70.42714031 -909.5390625 73.96875 C-911.038927 74.8803186 -911.038927 74.8803186 -912.5690918 75.81030273 C-914.4403451 76.95337746 -916.30423062 78.10862814 -918.15942383 79.27758789 C-919.40888794 80.03930298 -919.40888794 80.03930298 -920.68359375 80.81640625 C-921.40087646 81.26443604 -922.11815918 81.71246582 -922.85717773 82.17407227 C-925.68765139 83.26504781 -927.12740768 82.91057219 -930 82 C-932.37402344 80.82348633 -932.37402344 80.82348633 -934.859375 79.33203125 C-935.79821533 78.77515625 -936.73705566 78.21828125 -937.7043457 77.64453125 C-939.21194458 76.73767578 -939.21194458 76.73767578 -940.75 75.8125 C-942.90382541 74.53586472 -945.05881197 73.26118679 -947.21484375 71.98828125 C-948.32843262 71.33037598 -949.44202148 70.6724707 -950.58935547 69.99462891 C-956.12364474 66.75804026 -961.71429078 63.62435566 -967.3125 60.5 C-968.31829102 59.93772705 -969.32408203 59.3754541 -970.36035156 58.79614258 C-972.29380808 57.71784405 -974.23583621 56.65474857 -976.18676758 55.60839844 C-979 54 -979 54 -981.7097168 52.02441406 C-984.52155837 50.09265726 -986.679767 48.80827623 -990 48 C-994.95998563 49.28735433 -998.95632766 51.95372145 -1003.1875 54.75 C-1004.4056093 55.50751242 -1005.62660946 56.26039445 -1006.8503418 57.00878906 C-1009.35509288 58.54754232 -1011.84393361 60.10810033 -1014.32324219 61.6875 C-1019.88585282 65.21331002 -1025.6058229 68.46408079 -1031.3125 71.75 C-1033.22616795 72.86824002 -1035.13898797 73.98793296 -1037.05078125 75.109375 C-1037.90365723 75.60630859 -1038.7565332 76.10324219 -1039.63525391 76.61523438 C-1041.13286138 77.49221451 -1042.62543629 78.37789489 -1044.11083984 79.27539062 C-1048.67849715 82 -1048.67849715 82 -1052 82 C-1050.68290856 78.04872567 -1049.15616442 77.63928895 -1045.578125 75.5859375 C-1044.73195869 75.09500862 -1044.73195869 75.09500862 -1043.86869812 74.59416199 C-1042.00050707 73.51271116 -1040.12535444 72.44397244 -1038.25 71.375 C-1036.95071704 70.62584782 -1035.65197698 69.87575337 -1034.35375977 69.12475586 C-1031.63320833 67.55179565 -1028.91030441 65.98301509 -1026.18603516 64.41650391 C-1022.03113898 62.02307916 -1017.89409105 59.60003137 -1013.76171875 57.16796875 C-1013.10082245 56.77913513 -1012.43992615 56.39030151 -1011.75900269 55.98968506 C-1009.18667909 54.47582326 -1006.61472878 52.96132802 -1004.04284668 51.44671631 C-1002.26759467 50.40199873 -1000.49134212 49.35900264 -998.71484375 48.31640625 C-997.70542725 47.72287354 -996.69601074 47.12934082 -995.65600586 46.51782227 C-994.77952393 46.01694092 -993.90304199 45.51605957 -993 45 C-992.33621338 44.5450415 -991.67242676 44.09008301 -990.98852539 43.62133789 C-989 43 -989 43 -986.41992188 43.98779297 C-985.44603516 44.56674316 -984.47214844 45.14569336 -983.46875 45.7421875 C-982.36088135 46.38905518 -981.2530127 47.03592285 -980.11157227 47.70239258 C-978.90760175 48.42640703 -977.70374715 49.15061425 -976.5 49.875 C-975.26001796 50.60543406 -974.01903525 51.33417185 -972.77709961 52.0612793 C-970.17678534 53.58533037 -967.58102402 55.11676285 -964.98779297 56.65283203 C-959.16448724 60.0923597 -953.28092202 63.42616462 -947.40087891 66.76739502 C-944.47467844 68.43091861 -941.55154502 70.09975645 -938.62890625 71.76953125 C-937.66025635 72.32229736 -936.69160645 72.87506348 -935.69360352 73.44458008 C-933.87316579 74.49579088 -932.07367013 75.58399421 -930.29541016 76.70507812 C-928.0971421 78.20240271 -928.0971421 78.20240271 -925.64453125 77.94921875 C-922.05795964 76.66186734 -918.92102271 74.79453537 -915.6875 72.8125 C-914.17104803 71.90155236 -912.65409082 70.99144544 -911.13671875 70.08203125 C-910.31606934 69.58783691 -909.49541992 69.09364258 -908.64990234 68.58447266 C-902.76861303 65.06783661 -896.83977485 61.62965367 -890.89648438 58.21899414 C-886.18363817 55.50325031 -881.5579107 52.75389416 -877.07421875 49.671875 C-876.32591797 49.17558594 -875.57761719 48.67929688 -874.80664062 48.16796875 C-873.44221216 47.25499634 -872.10064488 46.30638346 -870.79101562 45.31640625 C-868.76025066 43.98553377 -867.41594486 43.29721894 -865 43 C-860.94268168 44.34604756 -857.57068458 46.68673912 -854 49 C-852.17836393 50.0871674 -850.34510472 51.15283773 -848.51080322 52.21847534 C-845.83590572 53.77637211 -843.17813999 55.36246506 -840.51919556 56.9473877 C-838.40220321 58.20852708 -836.28270789 59.46537784 -834.1628418 60.72167969 C-828.09486496 64.3237559 -822.0431988 67.93904724 -816.0859375 71.72265625 C-815.25908447 72.24512939 -814.43223145 72.76760254 -813.58032227 73.3059082 C-812.11664546 74.23794053 -810.66070098 75.1822824 -809.21459961 76.14135742 C-805.68206731 78.44996999 -805.68206731 78.44996999 -801.59741211 78.76928711 C-798.79705973 77.93989428 -796.64369427 76.83411869 -794.140625 75.33203125 C-793.20178467 74.77515625 -792.26294434 74.21828125 -791.2956543 73.64453125 C-790.29058838 73.03996094 -789.28552246 72.43539062 -788.25 71.8125 C-786.09617459 70.53586472 -783.94118803 69.26118679 -781.78515625 67.98828125 C-780.67156738 67.33037598 -779.55797852 66.6724707 -778.41064453 65.99462891 C-772.87635526 62.75804026 -767.28570922 59.62435566 -761.6875 56.5 C-760.68170898 55.93772705 -759.67591797 55.3754541 -758.63964844 54.79614258 C-756.70714169 53.71837375 -754.76707554 52.65402891 -752.8190918 51.60449219 C-749.95339707 50.03243634 -749.95339707 50.03243634 -747.23754883 48.05957031 C-744.46834398 46.2132691 -742.21292735 44.88138988 -739 44 C-734.52042897 44.98071842 -731.11055272 47.2467518 -727.3125 49.75 C-725.70640869 50.72936523 -725.70640869 50.72936523 -724.06787109 51.72851562 C-721.82267145 53.0989579 -719.5883568 54.48737746 -717.36474609 55.89257812 C-713.04022341 58.6011313 -708.63731602 61.15937303 -704.21948242 63.71191406 C-701.28550425 65.40725577 -698.36484809 67.12369767 -695.4453125 68.84375 C-694.55102539 69.36195312 -693.65673828 69.88015625 -692.73535156 70.4140625 C-690.82809132 71.51987851 -688.9296003 72.64089873 -687.03808594 73.7734375 C-686.07418945 74.33289063 -685.11029297 74.89234375 -684.1171875 75.46875 C-682.82337158 76.23348633 -682.82337158 76.23348633 -681.50341797 77.01367188 C-678.47582188 78.20652229 -677.06498581 77.9876448 -674 77 C-671.4971146 75.66570918 -669.10125847 74.2920488 -666.6875 72.8125 C-665.17104803 71.90155236 -663.65409082 70.99144544 -662.13671875 70.08203125 C-661.31606934 69.58783691 -660.49541992 69.09364258 -659.64990234 68.58447266 C-653.76861303 65.06783661 -647.83977485 61.62965367 -641.89648438 58.21899414 C-637.18363817 55.50325031 -632.5579107 52.75389416 -628.07421875 49.671875 C-627.32591797 49.17558594 -626.57761719 48.67929688 -625.80664062 48.16796875 C-624.44221216 47.25499634 -623.10064488 46.30638346 -621.79101562 45.31640625 C-619.74919431 43.97828793 -618.43248679 43.28378057 -616 43 C-611.96153506 44.41249101 -608.57090851 46.67489909 -605 49 C-603.21366845 50.03788309 -601.42200571 51.06664747 -599.625 52.0859375 C-597.74919706 53.18091732 -595.87422806 54.27732672 -594 55.375 C-592.98832764 55.9635376 -591.97665527 56.5520752 -590.93432617 57.15844727 C-585.75393206 60.18031093 -580.59564785 63.23288467 -575.47976685 66.36254883 C-573.02579498 67.86315457 -570.56577743 69.35370898 -568.10571289 70.84429932 C-566.9158836 71.5696578 -565.7293039 72.30037533 -564.54614258 73.03656006 C-562.88905156 74.06734295 -561.22012242 75.0790203 -559.55078125 76.08984375 C-558.59856689 76.67628662 -557.64635254 77.26272949 -556.6652832 77.86694336 C-553.52069787 79.20375938 -552.19966781 79.07492972 -549 78 C-546.4971146 76.66570918 -544.10125847 75.2920488 -541.6875 73.8125 C-540.17104803 72.90155236 -538.65409082 71.99144544 -537.13671875 71.08203125 C-535.90574463 70.34073975 -535.90574463 70.34073975 -534.64990234 69.58447266 C-528.76808183 66.06751899 -522.83915804 62.62814699 -516.89428711 59.21899414 C-512.18814042 56.50862238 -507.5745769 53.76601905 -503.109375 50.671875 C-493.05356831 43.80903475 -493.05356831 43.80903475 -488.1015625 44.26953125 C-485.47260705 45.51621356 -483.21509656 46.97911486 -480.87451172 48.70019531 C-476.93108488 51.4346059 -472.63239835 53.61694051 -468.4375 55.9375 C-466.44757392 57.06089348 -464.4593463 58.18729981 -462.47265625 59.31640625 C-461.43254395 59.90695801 -460.39243164 60.49750977 -459.32080078 61.10595703 C-456.39031573 62.77738057 -453.46619331 64.45919013 -450.54389954 66.14485168 C-448.0922903 67.55494375 -445.63390879 68.95292909 -443.17410278 70.34866333 C-441.98069882 71.02946615 -440.79027573 71.71552271 -439.60299683 72.4069519 C-437.93829062 73.37570844 -436.26230126 74.32499638 -434.5859375 75.2734375 C-433.6273584 75.82435059 -432.6687793 76.37526367 -431.68115234 76.94287109 C-428.54271438 78.18029928 -427.16616261 78.04927631 -424 77 C-421.4971146 75.66570918 -419.10125847 74.2920488 -416.6875 72.8125 C-415.17104803 71.90155236 -413.65409082 70.99144544 -412.13671875 70.08203125 C-410.90574463 69.34073975 -410.90574463 69.34073975 -409.64990234 68.58447266 C-403.76861303 65.06783661 -397.83977485 61.62965367 -391.89648438 58.21899414 C-387.18363817 55.50325031 -382.5579107 52.75389416 -378.07421875 49.671875 C-377.32591797 49.17558594 -376.57761719 48.67929688 -375.80664062 48.16796875 C-374.44221216 47.25499634 -373.10064488 46.30638346 -371.79101562 45.31640625 C-369.75452216 43.98177957 -368.42464795 43.28955732 -366 43 C-361.96075857 44.3908614 -358.5756557 46.69561755 -355 49 C-352.86460285 50.22112591 -350.72239678 51.43040693 -348.57421875 52.62890625 C-346.86838877 53.60217121 -345.162576 54.57546784 -343.45779419 55.55056763 C-341.64423415 56.58723155 -339.82886656 57.62068317 -338.01342773 58.65405273 C-332.11557332 62.01876221 -326.25516741 65.42714031 -320.4609375 68.96875 C-318.961073 69.8803186 -318.961073 69.8803186 -317.4309082 70.81030273 C-315.5596549 71.95337746 -313.69576938 73.10862814 -311.84057617 74.27758789 C-311.0076001 74.78539795 -310.17462402 75.29320801 -309.31640625 75.81640625 C-308.59912354 76.26443604 -307.88184082 76.71246582 -307.14282227 77.17407227 C-304.31234861 78.26504781 -302.87259232 77.91057219 -300 77 C-297.57177483 75.83620142 -297.57177483 75.83620142 -295.140625 74.33203125 C-294.20178467 73.77515625 -293.26294434 73.21828125 -292.2956543 72.64453125 C-291.29058838 72.03996094 -290.28552246 71.43539062 -289.25 70.8125 C-287.09617459 69.53586472 -284.94118803 68.26118679 -282.78515625 66.98828125 C-281.67156738 66.33037598 -280.55797852 65.6724707 -279.41064453 64.99462891 C-273.87635526 61.75804026 -268.28570922 58.62435566 -262.6875 55.5 C-261.68170898 54.93772705 -260.67591797 54.3754541 -259.63964844 53.79614258 C-257.70691636 52.71824808 -255.76619761 51.65452885 -253.81713867 50.60644531 C-250.95186499 49.03551497 -250.95186499 49.03551497 -248.25512695 47.04199219 C-245.46943217 45.16139228 -243.25692628 43.84703422 -240 43 C-235.33784055 44.13789358 -231.76056804 46.58686512 -227.8125 49.25 C-226.10878194 50.31752732 -224.40502955 51.385006 -222.69894409 52.44874573 C-220.9457539 53.55005288 -219.20600576 54.67044983 -217.46728516 55.79443359 C-212.09347807 59.2447573 -206.53668787 62.38323171 -201 65.5625 C-199.10284903 66.66570596 -197.20695485 67.77107683 -195.3125 68.87890625 C-194.42949219 69.3908252 -193.54648437 69.90274414 -192.63671875 70.43017578 C-190.82630082 71.50804498 -189.03782828 72.62338128 -187.26953125 73.76904297 C-186.39683594 74.32865723 -185.52414062 74.88827148 -184.625 75.46484375 C-183.46871094 76.23042603 -183.46871094 76.23042603 -182.2890625 77.01147461 C-179.38364946 78.2661693 -177.98135147 77.94878948 -175 77 C-172.4971146 75.66570918 -170.10125847 74.2920488 -167.6875 72.8125 C-166.17104803 71.90155236 -164.65409082 70.99144544 -163.13671875 70.08203125 C-161.90574463 69.34073975 -161.90574463 69.34073975 -160.64990234 68.58447266 C-154.76861303 65.06783661 -148.83977485 61.62965367 -142.89648438 58.21899414 C-138.18363817 55.50325031 -133.5579107 52.75389416 -129.07421875 49.671875 C-128.32591797 49.17558594 -127.57761719 48.67929688 -126.80664062 48.16796875 C-125.44221216 47.25499634 -124.10064488 46.30638346 -122.79101562 45.31640625 C-120.75275042 43.98061845 -119.4273779 43.28695802 -117 43 C-112.96998425 44.40754664 -109.57893966 46.70537729 -106 49 C-103.96253749 50.13962278 -101.91668433 51.26435633 -99.86328125 52.375 C-97.67929003 53.58261477 -95.49571073 54.79097477 -93.3125 56 C-92.73771912 56.31727051 -92.16293823 56.63454102 -91.57073975 56.96142578 C-85.01236079 60.58363804 -78.50424911 64.26560452 -72.08203125 68.125 C-70.45044067 69.10146484 -70.45044067 69.10146484 -68.78588867 70.09765625 C-66.71712538 71.34271716 -64.65571436 72.60009735 -62.6027832 73.87109375 C-61.67425537 74.42925781 -60.74572754 74.98742187 -59.7890625 75.5625 C-58.98162598 76.05878906 -58.17418945 76.55507812 -57.34228516 77.06640625 C-54.37414729 78.24945391 -53.01530977 77.98888088 -50 77 C-47.52224093 75.8034258 -47.52224093 75.8034258 -45.03515625 74.26171875 C-44.08020264 73.69420898 -43.12524902 73.12669922 -42.14135742 72.54199219 C-41.12533447 71.93000977 -40.10931152 71.31802734 -39.0625 70.6875 C-29.76682889 65.167861 -20.38874145 59.85693174 -10.86938477 54.7331543 C-10.00885498 54.26949463 -9.1483252 53.80583496 -8.26171875 53.328125 C-7.50850342 52.9249707 -6.75528809 52.52181641 -5.97924805 52.10644531 C-4.27168044 51.15187563 -2.62771462 50.08514308 -1 49 C-0.52427183 46.82584957 -0.52427183 46.82584957 -0.56762695 44.27490234 C-0.54783279 43.29403656 -0.52803864 42.31317078 -0.50764465 41.30258179 C-0.50125473 40.24108917 -0.49486481 39.17959656 -0.48828125 38.0859375 C-0.46135445 36.45877304 -0.46135445 36.45877304 -0.43388367 34.79873657 C-0.3795769 31.32419761 -0.34581932 27.84979758 -0.3125 24.375 C-0.27934496 22.02341808 -0.24485702 19.67185454 -0.20898438 17.3203125 C-0.12383894 11.54699959 -0.05557568 5.77366913 0 0 Z " fill="#000000" transform="translate(1059,47)"/>
<path d="M0 0 C1.98 0 3.96 0 6 0 C9.90216223 9.13565041 12.91697676 18.56594888 16 28 C17.9387717 25.09184246 18.84188468 22.79244637 19.91015625 19.4921875 C20.26013672 18.42355469 20.61011719 17.35492188 20.97070312 16.25390625 C21.33099609 15.13886719 21.69128906 14.02382812 22.0625 12.875 C22.77987709 10.66319311 23.49979027 8.4522066 24.22265625 6.2421875 C24.53984619 5.2610498 24.85703613 4.27991211 25.18383789 3.26904297 C26 1 26 1 27 0 C28.98 0 30.96 0 33 0 C33 11.88 33 23.76 33 36 C31.68 36 30.36 36 29 36 C28.67 27.09 28.34 18.18 28 9 C25.03 17.91 22.06 26.82 19 36 C17.35 36 15.7 36 14 36 C11.03 27.09 8.06 18.18 5 9 C4.67 17.91 4.34 26.82 4 36 C2.68 36 1.36 36 0 36 C0 24.12 0 12.24 0 0 Z " fill="#000000" transform="translate(1192,193)"/>
<path d="M0 0 C4.377621 4.49593508 6.28450678 9.05941884 6.375 15.3125 C6.24249594 21.46565733 4.79529772 26.07333058 0.50390625 30.56640625 C-4.01750492 34.52405044 -7.77931493 35.36245711 -13.5859375 35.27734375 C-19.17741185 34.63495754 -22.92725415 32.32030258 -26.4375 28 C-29.67556359 21.78291791 -30.22161075 14.99592302 -28.1640625 8.265625 C-25.86927943 3.06000971 -23.55229685 -0.31278788 -18.17578125 -2.44921875 C-11.54957465 -4.12658882 -5.99043403 -3.40632523 0 0 Z M-23.375 7.0625 C-25.66061668 11.57635385 -25.66149667 16.05919158 -25 21 C-23.69967111 24.90098666 -22.41692428 26.6227828 -19.375 29.375 C-15.05039633 31.45721658 -11.71492003 31.81961871 -7 31 C-2.95741424 29.12843252 -1.38159769 27.64871608 0.875 23.8125 C2.57196264 18.06168216 2.8124414 13.39218857 0.875 7.6875 C-1.45176122 4.35247558 -3.34089516 2.79503256 -7 1 C-13.82868636 -0.21308001 -19.06012522 1.49858252 -23.375 7.0625 Z " fill="#000000" transform="translate(1082,390)"/>
<path d="M0 0 C4.377621 4.49593508 6.28450678 9.05941884 6.375 15.3125 C6.24249594 21.46565733 4.79529772 26.07333058 0.50390625 30.56640625 C-4.01750492 34.52405044 -7.77931493 35.36245711 -13.5859375 35.27734375 C-19.17741185 34.63495754 -22.92725415 32.32030258 -26.4375 28 C-29.67556359 21.78291791 -30.22161075 14.99592302 -28.1640625 8.265625 C-25.86927943 3.06000971 -23.55229685 -0.31278788 -18.17578125 -2.44921875 C-11.54957465 -4.12658882 -5.99043403 -3.40632523 0 0 Z M-23.375 7.0625 C-25.66061668 11.57635385 -25.66149667 16.05919158 -25 21 C-23.69967111 24.90098666 -22.41692428 26.6227828 -19.375 29.375 C-15.05039633 31.45721658 -11.71492003 31.81961871 -7 31 C-2.95741424 29.12843252 -1.38159769 27.64871608 0.875 23.8125 C2.57196264 18.06168216 2.8124414 13.39218857 0.875 7.6875 C-1.45176122 4.35247558 -3.34089516 2.79503256 -7 1 C-13.82868636 -0.21308001 -19.06012522 1.49858252 -23.375 7.0625 Z " fill="#000000" transform="translate(1144,282)"/>
<path d="M0 0 C4.377621 4.49593508 6.28450678 9.05941884 6.375 15.3125 C6.24249594 21.46565733 4.79529772 26.07333058 0.50390625 30.56640625 C-4.01750492 34.52405044 -7.77931493 35.36245711 -13.5859375 35.27734375 C-19.17741185 34.63495754 -22.92725415 32.32030258 -26.4375 28 C-29.67556359 21.78291791 -30.22161075 14.99592302 -28.1640625 8.265625 C-25.86927943 3.06000971 -23.55229685 -0.31278788 -18.17578125 -2.44921875 C-11.54957465 -4.12658882 -5.99043403 -3.40632523 0 0 Z M-23.375 7.0625 C-25.66061668 11.57635385 -25.66149667 16.05919158 -25 21 C-23.69967111 24.90098666 -22.41692428 26.6227828 -19.375 29.375 C-15.05039633 31.45721658 -11.71492003 31.81961871 -7 31 C-2.95741424 29.12843252 -1.38159769 27.64871608 0.875 23.8125 C2.57196264 18.06168216 2.8124414 13.39218857 0.875 7.6875 C-1.45176122 4.35247558 -3.34089516 2.79503256 -7 1 C-13.82868636 -0.21308001 -19.06012522 1.49858252 -23.375 7.0625 Z " fill="#000000" transform="translate(1141,113)"/>
<path d="M0 0 C4.377621 4.49593508 6.28450678 9.05941884 6.375 15.3125 C6.24249594 21.46565733 4.79529772 26.07333058 0.50390625 30.56640625 C-4.01750492 34.52405044 -7.77931493 35.36245711 -13.5859375 35.27734375 C-19.17741185 34.63495754 -22.92725415 32.32030258 -26.4375 28 C-29.67556359 21.78291791 -30.22161075 14.99592302 -28.1640625 8.265625 C-25.86927943 3.06000971 -23.55229685 -0.31278788 -18.17578125 -2.44921875 C-11.54957465 -4.12658882 -5.99043403 -3.40632523 0 0 Z M-23.375 7.0625 C-25.66061668 11.57635385 -25.66149667 16.05919158 -25 21 C-23.69967111 24.90098666 -22.41692428 26.6227828 -19.375 29.375 C-15.05039633 31.45721658 -11.71492003 31.81961871 -7 31 C-2.95741424 29.12843252 -1.38159769 27.64871608 0.875 23.8125 C2.57196264 18.06168216 2.8124414 13.39218857 0.875 7.6875 C-1.45176122 4.35247558 -3.34089516 2.79503256 -7 1 C-13.82868636 -0.21308001 -19.06012522 1.49858252 -23.375 7.0625 Z " fill="#000000" transform="translate(1079,5)"/>
<path d="M0 0 C0.53625 0.33 1.0725 0.66 1.625 1 C1.955 0.34 2.285 -0.32 2.625 -1 C3.945 -1 5.265 -1 6.625 -1 C6.6994389 3.0384057 6.75373729 7.07654293 6.78979492 11.11547852 C6.80483432 12.48794517 6.82527133 13.86036414 6.85131836 15.23266602 C6.88791221 17.21088656 6.90316698 19.18946514 6.91796875 21.16796875 C6.9336792 22.35672607 6.94938965 23.5454834 6.96557617 24.77026367 C6.48611058 29.31710976 4.93136275 31.91758515 1.4375 34.8125 C-2.28756865 36.38530676 -5.38815184 36.59601366 -9.375 36 C-12.3125 34.75 -12.3125 34.75 -14.375 33 C-15.1875 30.8125 -15.1875 30.8125 -15.375 29 C-10.625 29.875 -10.625 29.875 -8.375 31 C-3.6696566 31.45267946 -3.6696566 31.45267946 0.5625 29.75 C1.97098542 27.77135706 1.97098542 27.77135706 1.625 24 C1.0578125 24.33257812 0.490625 24.66515625 -0.09375 25.0078125 C-3.88318007 26.65595503 -7.44500644 26.0113954 -11.375 25 C-14.36952434 22.75410675 -15.19123122 21.55130633 -16.375 18 C-17.10500762 11.15468263 -16.5380764 6.55076853 -12.375 1 C-8.66569082 -1.8438037 -4.22795494 -1.78019155 0 0 Z M-11.375 6 C-12.61540113 9.72120339 -12.9089994 13.13414516 -12.375 17 C-10.93848718 20.08874323 -10.93848718 20.08874323 -8.375 22 C-4.89712326 22.57964612 -3.13262811 22.43000514 -0.0625 20.6875 C2.57958991 18.04541009 2.64336694 15.81020824 3 12.125 C2.95502067 8.6423151 2.62989576 8.00671418 0.4375 5 C-2.16507903 2.85798135 -2.16507903 2.85798135 -4.9375 2.5 C-7.82683375 3.09268385 -9.25853148 3.95911965 -11.375 6 Z " fill="#000000" transform="translate(1247.375,203)"/>
<path d="M0 0 C2.9375 2.125 2.9375 2.125 5 5 C5.57108584 8.99760085 5.16050485 11.61805472 3 15 C0.6875 16.6328125 0.6875 16.6328125 -2 18.125 C-5.75281692 20.22489384 -5.75281692 20.22489384 -9 23 C-2.07 23.495 -2.07 23.495 5 24 C5 24.99 5 25.98 5 27 C-0.94 27 -6.88 27 -13 27 C-11.87331081 20.23986486 -11.87331081 20.23986486 -8.8125 17.875 C-8.18859375 17.37613281 -7.5646875 16.87726563 -6.921875 16.36328125 C-5 15 -5 15 -1.5625 13.0625 C-0.716875 12.381875 0.12875 11.70125 1 11 C1.50125283 7.33142278 1.50125283 7.33142278 1 4 C-1.31 4 -3.62 4 -6 4 C-6.99 5.98 -7.98 7.96 -9 10 C-9.99 10 -10.98 10 -12 10 C-11.69393785 6.6333163 -11.2999963 4.43845613 -9.375 1.625 C-6.00735985 -0.67917484 -3.99807408 -0.63127485 0 0 Z " fill="#000000" transform="translate(1271,180)"/>
<path d="M0 0 C0.99 0 1.98 0 3 0 C3 2.64 3 5.28 3 8 C5.64 8 8.28 8 11 8 C11 8.99 11 9.98 11 11 C8.36 11 5.72 11 3 11 C3 13.64 3 16.28 3 19 C2.01 19 1.02 19 0 19 C0 16.36 0 13.72 0 11 C-2.64 11 -5.28 11 -8 11 C-8 10.01 -8 9.02 -8 8 C-5.36 8 -2.72 8 0 8 C0 5.36 0 2.72 0 0 Z " fill="#000000" transform="translate(1287,188)"/>
<path d="M0 0 C6.27 0 12.54 0 19 0 C19 0.99 19 1.98 19 3 C12.73 3 6.46 3 0 3 C0 2.01 0 1.02 0 0 Z " fill="#000000" transform="translate(1153,282)"/>
<path d="M0 0 C6.27 0 12.54 0 19 0 C19 0.99 19 1.98 19 3 C12.73 3 6.46 3 0 3 C0 2.01 0 1.02 0 0 Z " fill="#000000" transform="translate(1150,113)"/>
</svg>
