<!-- Creator: CorelDRAW -->
<svg xmlns:inkscape="http://www.inkscape.org/namespaces/inkscape" xmlns:rdf="http://www.w3.org/1999/02/22-rdf-syntax-ns#" style="image-rendering:optimizeQuality;text-rendering:geometricPrecision;shape-rendering:geometricPrecision;" xmlns="http://www.w3.org/2000/svg" fill-rule="evenodd" sodipodi:docname="D-Mannitol_structure.svg" xml:space="preserve" height="320px" width="780px" version="1.1" clip-rule="evenodd" xmlns:cc="http://creativecommons.org/ns#" xmlns:dc="http://purl.org/dc/elements/1.1/" inkscape:version="0.48.3.1 r9886" viewBox="0 0 900 371.425" xmlns:sodipodi="http://sodipodi.sourceforge.net/DTD/sodipodi-0.dtd"><metadata><rdf:RDF><cc:Work rdf:about=""><dc:format>image/svg+xml</dc:format><dc:type rdf:resource="http://purl.org/dc/dcmitype/StillImage"/><dc:title/></cc:Work></rdf:RDF></metadata><sodipodi:namedview bordercolor="#666666" inkscape:pageshadow="2" guidetolerance="10" pagecolor="#ffffff" gridtolerance="10" inkscape:window-maximized="1" inkscape:zoom="0.4974359" objecttolerance="10" borderopacity="1" inkscape:current-layer="svg3650" inkscape:cx="390" inkscape:cy="141.90722" inkscape:window-y="29" inkscape:window-x="0" inkscape:window-width="1280" showgrid="false" inkscape:pageopacity="0" inkscape:window-height="975"/>
 <defs>
  <style type="text/css">
    .str0 {stroke:black;stroke-width:0.874076}
    .fil1 {fill:none}
    .fil2 {fill:black}
    .fil0 {fill:black;fill-rule:nonzero}
  </style>
   <clipPath id="id0">
    <rect y="-4.0469" x="-4.0469" height="379.52" width="908.09"/>
   </clipPath>
 </defs>
  <g style="clip-path:url(#id0);" clip-path="url(#id0)">
   <polygon points="15.177,245.84,15.177,188.22,22.81,188.22,22.81,211.88,52.752,211.88,52.752,188.22,60.386,188.22,60.386,245.84,52.752,245.84,52.752,218.69,22.81,218.69,22.81,245.84" class="fil0"/>
   <path d="M70.882,217.78c0-9.5644,2.5614-17.05,7.6992-22.456,5.1389-5.4062,11.766-8.1168,19.895-8.1168,5.3121,0,10.115,1.2744,14.381,3.8106,4.266,2.5488,7.526,6.0898,9.7662,10.638,2.2402,4.5344,3.3541,9.6986,3.3541,15.454,0,5.849-1.1677,11.081-3.5284,15.683-2.3607,4.6147-5.701,8.103-10.021,10.477-4.3337,2.3745-8.9885,3.5548-13.992,3.5548-5.4326,0-10.276-1.3019-14.542-3.931-4.2798-2.6154-7.5122-6.1977-9.7123-10.732-2.2001-4.5206-3.3002-9.3235-3.3002-14.381zm7.861,0.12044c0,6.949,1.864,12.409,5.5943,16.407,3.7429,3.9976,8.4242,5.9969,14.059,5.9969,5.7411,0,10.464-2.012,14.166-6.0497,3.7028-4.0389,5.5668-9.7662,5.5668-17.186,0-4.6812-0.8041-8.7729-2.3871-12.275-1.583-3.5009-3.9047-6.2103-6.949-8.1431-3.0593-1.9179-6.4799-2.8838-10.277-2.8838-5.4062,0-10.047,1.8514-13.938,5.5668-3.8898,3.7028-5.8352,9.9005-5.8352,18.567z" class="fil0"/>
   <line y2="156.62" class="fil1 str0" x2="198.06" y1="193.47" x1="133.98"/>
   <polygon points="134.95,196.86,131.55,191.05,199.03,152.26,199.03,160.01" class="fil2"/>
   <line y2="213.35" class="fil1 str0" x2="298.54" y1="156.62" x1="199.51"/>
   <polygon points="199.03,160.01,199.03,152.26,299.51,209.96,299.51,218.2" class="fil2"/>
   <line y2="156.62" class="fil1 str0" x2="399.03" y1="213.35" x1="300"/>
   <polygon points="299.51,218.2,299.51,209.96,396.12,154.19,400,156.13,400,160.01" class="fil2"/>
   <line y2="213.35" class="fil1 str0" x2="500" y1="156.62" x1="400.48"/>
   <polygon points="400,160.01,400,156.13,403.4,154.19,500.48,209.96,500.48,213.84,496.6,215.78" class="fil2"/>
   <line y2="156.62" class="fil1 str0" x2="600.49" y1="213.35" x1="501.46"/>
   <polygon points="504.37,215.78,500.48,213.84,500.48,209.96,600.97,152.26,600.97,160.01" class="fil2"/>
   <line y2="213.35" class="fil1 str0" x2="700.97" y1="156.62" x1="601.94"/>
   <polygon points="600.97,160.01,600.97,152.26,701.46,209.96,701.46,218.2" class="fil2"/>
   <path d="M774.28,160.07c0-9.5644,2.5614-17.05,7.6992-22.456,5.1389-5.4062,11.766-8.1168,19.895-8.1168,5.3121,0,10.115,1.2744,14.381,3.8106,4.266,2.5488,7.526,6.0898,9.7662,10.638,2.2402,4.5344,3.3541,9.6986,3.3541,15.454,0,5.849-1.1677,11.081-3.5284,15.683-2.3607,4.6147-5.701,8.103-10.021,10.477-4.3337,2.3745-8.9885,3.5548-13.992,3.5548-5.4326,0-10.276-1.3019-14.542-3.931-4.2798-2.6154-7.5122-6.1977-9.7123-10.732-2.2001-4.5206-3.3002-9.3235-3.3002-14.381zm7.861,0.12044c0,6.949,1.864,12.409,5.5943,16.407,3.7429,3.9976,8.4242,5.9969,14.059,5.9969,5.7411,0,10.464-2.012,14.166-6.0497,3.7028-4.0389,5.5668-9.7662,5.5668-17.186,0-4.6812-0.8041-8.7729-2.3871-12.275-1.583-3.5009-3.9047-6.2103-6.949-8.1431-3.0593-1.9179-6.4799-2.8838-10.277-2.8838-5.4062,0-10.047,1.8514-13.938,5.5668-3.8898,3.7028-5.8352,9.9005-5.8352,18.567z" class="fil0"/>
   <polygon points="839.94,188.14,839.94,130.52,847.57,130.52,847.57,154.18,877.51,154.18,877.51,130.52,885.14,130.52,885.14,188.14,877.51,188.14,877.51,160.98,847.57,160.98,847.57,188.14" class="fil0"/>
   <line y2="178.44" class="fil1 str0" x2="764.08" y1="213.35" x1="702.43"/>
   <polygon points="701.46,218.2,701.46,209.96,763.11,174.56,766.5,180.86" class="fil2"/>
   <path d="M271.85,333.66c0-9.5644,2.5614-17.05,7.6992-22.456,5.1389-5.4062,11.766-8.1168,19.895-8.1168,5.3121,0,10.115,1.2744,14.381,3.8106,4.266,2.5488,7.526,6.0898,9.7662,10.638,2.2402,4.5344,3.3541,9.6986,3.3541,15.454,0,5.849-1.1677,11.081-3.5284,15.683-2.3607,4.6147-5.701,8.103-10.021,10.477-4.3337,2.3745-8.9885,3.5548-13.992,3.5548-5.4326,0-10.276-1.3019-14.542-3.931-4.2798-2.6154-7.5122-6.1977-9.7123-10.732-2.2001-4.5206-3.3002-9.3235-3.3002-14.381zm7.861,0.12044c0,6.949,1.864,12.409,5.5943,16.407,3.7429,3.9976,8.4242,5.9969,14.059,5.9969,5.7411,0,10.464-2.012,14.166-6.0497,3.7028-4.0389,5.5668-9.7662,5.5668-17.186,0-4.6812-0.8041-8.7729-2.3871-12.275-1.583-3.5009-3.9047-6.2103-6.949-8.1431-3.0593-1.9179-6.4799-2.8838-10.277-2.8838-5.4062,0-10.047,1.8514-13.938,5.5668-3.8898,3.7028-5.8352,9.9005-5.8352,18.567z" class="fil0"/>
   <polygon points="337.02,361.73,337.02,304.11,344.65,304.11,344.65,327.77,374.6,327.77,374.6,304.11,382.23,304.11,382.23,361.73,374.6,361.73,374.6,334.58,344.65,334.58,344.65,361.73" class="fil0"/>
   <line y2="286.57" class="fil1 str0" x2="310.19" y1="286.57" x1="288.35"/>
   <polygon points="311.65,289.96,287.38,289.96,288.35,283.18,310.68,283.18" class="fil2"/>
   <line y2="274.93" class="fil1 str0" x2="308.74" y1="274.93" x1="289.81"/>
   <polygon points="310.19,278.81,288.84,278.81,289.81,271.54,309.22,271.54" class="fil2"/>
   <line y2="263.78" class="fil1 str0" x2="307.28" y1="263.78" x1="291.75"/>
   <polygon points="308.25,267.17,290.29,267.17,291.26,260.38,307.28,260.38" class="fil2"/>
   <line y2="252.14" class="fil1 str0" x2="305.83" y1="252.14" x1="293.2"/>
   <polygon points="306.8,255.54,291.75,255.54,292.72,248.75,305.83,248.75" class="fil2"/>
   <line y2="240.5" class="fil1 str0" x2="303.88" y1="240.5" x1="294.66"/>
   <polygon points="305.34,243.9,293.69,243.9,294.18,237.11,304.37,237.11" class="fil2"/>
   <line y2="228.87" class="fil1 str0" x2="302.43" y1="228.87" x1="296.12"/>
   <polygon points="303.88,232.26,295.14,232.26,296.12,225.47,302.91,225.47" class="fil2"/>
   <path d="M372.34,43.699c0-9.5644,2.5614-17.05,7.6992-22.456,5.1389-5.4062,11.766-8.1168,19.895-8.1168,5.3121,0,10.115,1.2744,14.381,3.8106,4.266,2.5488,7.526,6.0898,9.7662,10.638,2.2402,4.5344,3.3541,9.6986,3.3541,15.454,0,5.849-1.1677,11.081-3.5284,15.683-2.3607,4.6147-5.701,8.103-10.021,10.477-4.3337,2.3745-8.9885,3.5548-13.992,3.5548-5.4326,0-10.276-1.3019-14.542-3.931-4.2798-2.6154-7.5122-6.1977-9.7123-10.732-2.2001-4.5206-3.3002-9.3235-3.3002-14.381zm7.861,0.12044c0,6.949,1.864,12.409,5.5943,16.407,3.7429,3.9976,8.4242,5.9969,14.059,5.9969,5.7411,0,10.464-2.012,14.166-6.0497,3.7028-4.0389,5.5668-9.7662,5.5668-17.186,0-4.6812-0.8041-8.7729-2.3871-12.275-1.583-3.5009-3.9047-6.2103-6.949-8.1431-3.0593-1.9179-6.4799-2.8838-10.277-2.8838-5.4062,0-10.047,1.8514-13.938,5.5668-3.8898,3.7028-5.8352,9.9005-5.8352,18.567z" class="fil0"/>
   <polygon points="437.51,71.764,437.51,14.146,445.14,14.146,445.14,37.81,475.08,37.81,475.08,14.146,482.72,14.146,482.72,71.764,475.08,71.764,475.08,44.611,445.14,44.611,445.14,71.764" class="fil0"/>
   <path d="M472.82,333.66c0-9.5644,2.5614-17.05,7.6992-22.456,5.1389-5.4062,11.766-8.1168,19.895-8.1168,5.3121,0,10.115,1.2744,14.381,3.8106,4.266,2.5488,7.526,6.0898,9.7662,10.638,2.2402,4.5344,3.3541,9.6986,3.3541,15.454,0,5.849-1.1677,11.081-3.5284,15.683-2.3607,4.6147-5.701,8.103-10.021,10.477-4.3337,2.3745-8.9885,3.5548-13.992,3.5548-5.4326,0-10.276-1.3019-14.542-3.931-4.2798-2.6154-7.5122-6.1977-9.7123-10.732-2.2001-4.5206-3.3002-9.3235-3.3002-14.381zm7.861,0.12044c0,6.949,1.864,12.409,5.5943,16.407,3.7429,3.9976,8.4242,5.9969,14.059,5.9969,5.7411,0,10.464-2.012,14.166-6.0497,3.7028-4.0389,5.5668-9.7662,5.5668-17.186,0-4.6812-0.8041-8.7729-2.3871-12.275-1.583-3.5009-3.9047-6.2103-6.949-8.1431-3.0593-1.9179-6.4799-2.8838-10.277-2.8838-5.4062,0-10.047,1.8514-13.938,5.5668-3.8898,3.7028-5.8352,9.9005-5.8352,18.567z" class="fil0"/>
   <polygon points="537.99,361.73,537.99,304.11,545.62,304.11,545.62,327.77,575.57,327.77,575.57,304.11,583.2,304.11,583.2,361.73,575.57,361.73,575.57,334.58,545.62,334.58,545.62,361.73" class="fil0"/>
   <line y2="214.81" class="fil1 str0" x2="500.48" y1="289.48" x1="500.48"/>
   <polygon points="512.62,289.96,488.35,289.96,496.6,215.78,500.48,213.84,504.37,215.78" class="fil2"/>
   <path d="M573.31,43.699c0-9.5644,2.5614-17.05,7.6992-22.456,5.1389-5.4062,11.766-8.1168,19.895-8.1168,5.3121,0,10.115,1.2744,14.381,3.8106,4.266,2.5488,7.526,6.0898,9.7662,10.638,2.2402,4.5344,3.3541,9.6986,3.3541,15.454,0,5.849-1.1677,11.081-3.5284,15.683-2.3607,4.6147-5.701,8.103-10.021,10.477-4.3337,2.3745-8.9885,3.5548-13.992,3.5548-5.4326,0-10.276-1.3019-14.542-3.931-4.2798-2.6154-7.5122-6.1977-9.7123-10.732-2.2001-4.5206-3.3002-9.3235-3.3002-14.381zm7.861,0.12044c0,6.949,1.864,12.409,5.5943,16.407,3.7429,3.9976,8.4242,5.9969,14.059,5.9969,5.7411,0,10.464-2.012,14.166-6.0497,3.7028-4.0389,5.5668-9.7662,5.5668-17.186,0-4.6812-0.8041-8.7729-2.3871-12.275-1.583-3.5009-3.9047-6.2103-6.949-8.1431-3.0593-1.9179-6.4799-2.8838-10.277-2.8838-5.4062,0-10.047,1.8514-13.938,5.5668-3.8898,3.7028-5.8352,9.9005-5.8352,18.567z" class="fil0"/>
   <polygon points="638.96,71.764,638.96,14.146,646.6,14.146,646.6,37.81,676.54,37.81,676.54,14.146,684.17,14.146,684.17,71.764,676.54,71.764,676.54,44.611,646.6,44.611,646.6,71.764" class="fil0"/>
   <line y2="88.735" class="fil1 str0" x2="590.29" y1="88.735" x1="612.14"/>
   <polygon points="588.84,85.341,613.11,85.341,612.14,92.129,589.81,92.129" class="fil2"/>
   <line y2="101.83" class="fil1 str0" x2="592.23" y1="101.83" x1="610.19"/>
   <polygon points="590.78,98.432,611.16,98.432,610.19,105.22,591.75,105.22" class="fil2"/>
   <line y2="114.92" class="fil1 str0" x2="594.17" y1="114.92" x1="608.25"/>
   <polygon points="592.72,111.52,609.22,111.52,608.25,118.31,593.69,118.31" class="fil2"/>
   <line y2="128.01" class="fil1 str0" x2="596.12" y1="128.01" x1="606.31"/>
   <polygon points="594.66,124.62,607.28,124.62,606.31,131.4,595.63,131.4" class="fil2"/>
   <line y2="141.1" class="fil1 str0" x2="598.06" y1="141.1" x1="604.37"/>
   <polygon points="596.6,137.71,605.34,137.71,604.37,144.5,597.57,144.5" class="fil2"/>
   <line y2="155.16" class="fil1 str0" x2="400" y1="85.826" x1="400"/>
   <polygon points="387.86,85.341,412.14,85.341,403.4,154.19,400,156.13,396.12,154.19" class="fil2"/>
  </g>
   <polygon points="0,0,900,0,900,371.42,0,371.42" class="fil1"/>
</svg>
