<?xml version="1.0" encoding="utf-8"?>
<!-- Generator: Adobe Illustrator 13.0.2, SVG Export Plug-In . SVG Version: 6.00 Build 14948)  -->
<!DOCTYPE svg PUBLIC "-//W3C//DTD SVG 1.1//EN" "http://www.w3.org/Graphics/SVG/1.1/DTD/svg11.dtd">
<svg version="1.1" id="Ebene_1" xmlns="http://www.w3.org/2000/svg" xmlns:xlink="http://www.w3.org/1999/xlink" x="0px" y="0px"
	 width="171.78px" height="210.7px" viewBox="0 0 171.78 210.7" enable-background="new 0 0 171.78 210.7" xml:space="preserve">
<polygon fill="#1A171B" points="39.858,111.722 38.159,112.672 38.159,72.021 39.858,73.021 "/>
<polygon fill="#1A171B" points="73.358,131.072 73.358,133.021 38.159,112.672 39.858,111.722 "/>
<polygon fill="#1A171B" points="106.909,111.722 107.759,112.222 107.709,113.222 73.358,133.021 73.358,131.072 "/>
<polygon fill="#1A171B" points="106.909,73.021 108.608,72.021 108.608,111.672 107.759,112.222 106.909,111.722 "/>
<polygon fill="#1A171B" points="73.358,53.672 73.358,52.672 74.259,52.222 108.608,72.021 106.909,73.021 "/>
<polygon fill="#1A171B" points="39.858,73.021 38.159,72.021 72.459,52.222 73.358,52.672 73.358,53.672 "/>
<g>
	<path fill="#1A171B" d="M78.867,16.45l2.273,0.574c-0.477,1.867-1.334,3.291-2.572,4.271s-2.752,1.471-4.541,1.471
		c-1.852,0-3.357-0.377-4.518-1.131s-2.043-1.846-2.648-3.275s-0.908-2.965-0.908-4.605c0-1.789,0.342-3.35,1.025-4.682
		s1.656-2.344,2.918-3.035s2.65-1.037,4.166-1.037c1.719,0,3.164,0.438,4.336,1.313s1.988,2.105,2.449,3.691l-2.238,0.527
		c-0.398-1.25-0.977-2.16-1.734-2.73s-1.711-0.855-2.859-0.855c-1.32,0-2.424,0.316-3.311,0.949s-1.51,1.482-1.869,2.549
		s-0.539,2.166-0.539,3.299c0,1.461,0.213,2.736,0.639,3.826s1.088,1.904,1.986,2.443s1.871,0.809,2.918,0.809
		c1.273,0,2.352-0.367,3.234-1.102S78.555,17.896,78.867,16.45z"/>
	<path fill="#1A171B" d="M84.012,22.474V5.294h2.273v7.055h8.93V5.294h2.273v17.18h-2.273v-8.098h-8.93v8.098H84.012z"/>
</g>
<g>
	<path fill="#1A171B" d="M99.084,23.569l1.582-0.211c0.182,0.896,0.49,1.542,0.928,1.938c0.436,0.396,0.968,0.593,1.595,0.593
		c0.744,0,1.372-0.258,1.886-0.773c0.512-0.516,0.769-1.154,0.769-1.916c0-0.727-0.237-1.326-0.712-1.797s-1.078-0.708-1.811-0.708
		c-0.299,0-0.671,0.059-1.116,0.176l0.176-1.389c0.105,0.012,0.19,0.018,0.255,0.018c0.674,0,1.28-0.176,1.819-0.527
		s0.809-0.894,0.809-1.626c0-0.58-0.196-1.061-0.589-1.441s-0.899-0.571-1.521-0.571c-0.615,0-1.128,0.193-1.538,0.58
		s-0.674,0.967-0.791,1.74l-1.582-0.281c0.193-1.061,0.633-1.882,1.318-2.465s1.538-0.875,2.558-0.875
		c0.703,0,1.351,0.151,1.942,0.453s1.044,0.713,1.357,1.235s0.471,1.075,0.471,1.661c0,0.557-0.149,1.063-0.448,1.521
		s-0.741,0.82-1.327,1.09c0.762,0.176,1.354,0.541,1.775,1.094s0.633,1.247,0.633,2.079c0,1.125-0.41,2.079-1.23,2.861
		s-1.857,1.173-3.111,1.173c-1.131,0-2.07-0.337-2.816-1.011C99.615,25.515,99.189,24.642,99.084,23.569z"/>
</g>
<polygon fill="#1A171B" points="69.559,24.972 77.209,24.972 74.259,52.222 73.358,52.672 72.459,52.222 "/>
<polygon fill="#1A171B" points="77.209,167.422 69.559,167.422 69.709,165.722 77.059,165.722 "/>
<polygon fill="#1A171B" points="76.759,162.521 70.009,162.521 70.159,160.822 76.559,160.822 "/>
<polygon fill="#1A171B" points="76.259,157.621 70.509,157.621 70.659,155.922 76.108,155.922 "/>
<polygon fill="#1A171B" points="75.809,152.722 70.959,152.722 71.108,151.021 75.659,151.021 "/>
<polygon fill="#1A171B" points="75.309,147.822 71.409,147.822 71.608,146.121 75.159,146.121 "/>
<polygon fill="#1A171B" points="74.858,142.922 71.909,142.922 72.059,141.222 74.709,141.222 "/>
<polygon fill="#1A171B" points="74.409,138.021 72.358,138.021 72.509,136.271 74.209,136.271 "/>
<g>
	<path fill="#1A171B" d="M113.211,194.95l2.273,0.574c-0.477,1.867-1.334,3.291-2.572,4.271s-2.752,1.471-4.541,1.471
		c-1.852,0-3.357-0.377-4.518-1.131s-2.043-1.846-2.648-3.275s-0.908-2.965-0.908-4.605c0-1.789,0.342-3.35,1.025-4.682
		s1.656-2.344,2.918-3.035s2.65-1.037,4.166-1.037c1.719,0,3.164,0.438,4.336,1.313s1.988,2.105,2.449,3.691l-2.238,0.527
		c-0.398-1.25-0.977-2.16-1.734-2.73s-1.711-0.855-2.859-0.855c-1.32,0-2.424,0.316-3.311,0.949s-1.51,1.482-1.869,2.549
		s-0.539,2.166-0.539,3.299c0,1.461,0.213,2.736,0.639,3.826s1.088,1.904,1.986,2.443s1.871,0.809,2.918,0.809
		c1.273,0,2.352-0.367,3.234-1.102S112.898,196.396,113.211,194.95z"/>
	<path fill="#1A171B" d="M118.355,200.974v-17.18h2.273v7.055h8.93v-7.055h2.273v17.18h-2.273v-8.098h-8.93v8.098H118.355z"/>
</g>
<g>
	<path fill="#1A171B" d="M133.428,202.069l1.582-0.211c0.182,0.896,0.49,1.542,0.928,1.938c0.436,0.395,0.968,0.593,1.595,0.593
		c0.744,0,1.372-0.258,1.886-0.773c0.512-0.516,0.769-1.154,0.769-1.916c0-0.727-0.237-1.325-0.712-1.798
		c-0.475-0.471-1.078-0.707-1.811-0.707c-0.299,0-0.671,0.059-1.116,0.176l0.176-1.389c0.105,0.012,0.19,0.018,0.255,0.018
		c0.674,0,1.28-0.176,1.819-0.527s0.809-0.894,0.809-1.626c0-0.58-0.196-1.061-0.589-1.441s-0.899-0.571-1.521-0.571
		c-0.615,0-1.128,0.193-1.538,0.58s-0.674,0.967-0.791,1.74l-1.582-0.281c0.193-1.061,0.633-1.883,1.318-2.465
		c0.686-0.584,1.538-0.875,2.558-0.875c0.703,0,1.351,0.15,1.942,0.453c0.592,0.301,1.044,0.713,1.357,1.234
		s0.471,1.075,0.471,1.661c0,0.557-0.149,1.063-0.448,1.521s-0.741,0.82-1.327,1.09c0.762,0.176,1.354,0.541,1.775,1.094
		c0.422,0.555,0.633,1.247,0.633,2.079c0,1.125-0.41,2.079-1.23,2.86c-0.82,0.783-1.857,1.174-3.111,1.174
		c-1.131,0-2.07-0.337-2.816-1.011C133.959,204.015,133.533,203.142,133.428,202.069z"/>
</g>
<polygon fill="#1A171B" points="99.608,185.871 98.759,187.322 73.358,172.672 73.358,170.722 "/>
<g>
	<path fill="#1A171B" d="M5,200.974v-17.18h2.273v7.055h8.93v-7.055h2.273v17.18h-2.273v-8.098h-8.93v8.098H5z"/>
</g>
<g>
	<path fill="#1A171B" d="M20.49,202.069l1.582-0.211c0.182,0.896,0.49,1.542,0.928,1.938c0.436,0.395,0.968,0.593,1.595,0.593
		c0.744,0,1.372-0.258,1.886-0.773c0.512-0.516,0.769-1.154,0.769-1.916c0-0.727-0.237-1.325-0.712-1.798
		c-0.475-0.471-1.078-0.707-1.811-0.707c-0.299,0-0.671,0.059-1.116,0.176l0.176-1.389c0.105,0.012,0.19,0.018,0.255,0.018
		c0.674,0,1.28-0.176,1.819-0.527s0.809-0.894,0.809-1.626c0-0.58-0.196-1.061-0.589-1.441s-0.899-0.571-1.521-0.571
		c-0.615,0-1.128,0.193-1.538,0.58s-0.674,0.967-0.791,1.74l-1.582-0.281c0.193-1.061,0.633-1.883,1.318-2.465
		c0.686-0.584,1.538-0.875,2.558-0.875c0.703,0,1.351,0.15,1.942,0.453c0.592,0.301,1.044,0.713,1.357,1.234
		s0.471,1.075,0.471,1.661c0,0.557-0.149,1.063-0.448,1.521s-0.741,0.82-1.327,1.09c0.762,0.176,1.354,0.541,1.775,1.094
		c0.422,0.555,0.633,1.247,0.633,2.079c0,1.125-0.41,2.079-1.23,2.86c-0.82,0.783-1.857,1.174-3.111,1.174
		c-1.131,0-2.07-0.337-2.816-1.011C21.021,204.015,20.596,203.142,20.49,202.069z"/>
</g>
<g>
	<path fill="#1A171B" d="M44.07,194.95l2.273,0.574c-0.477,1.867-1.334,3.291-2.572,4.271s-2.752,1.471-4.541,1.471
		c-1.852,0-3.357-0.377-4.518-1.131s-2.043-1.846-2.648-3.275s-0.908-2.965-0.908-4.605c0-1.789,0.342-3.35,1.025-4.682
		s1.656-2.344,2.918-3.035s2.65-1.037,4.166-1.037c1.719,0,3.164,0.438,4.336,1.313s1.988,2.105,2.449,3.691l-2.238,0.527
		c-0.398-1.25-0.977-2.16-1.734-2.73s-1.711-0.855-2.859-0.855c-1.32,0-2.424,0.316-3.311,0.949s-1.51,1.482-1.869,2.549
		s-0.539,2.166-0.539,3.299c0,1.461,0.213,2.736,0.639,3.826s1.088,1.904,1.986,2.443s1.871,0.809,2.918,0.809
		c1.273,0,2.352-0.367,3.234-1.102S43.758,196.396,44.07,194.95z"/>
</g>
<polygon fill="#1A171B" points="48.509,187.021 47.659,185.572 73.358,170.722 73.358,172.672 "/>
<g>
	<path fill="#1A171B" d="M133.874,133.106c0-2.852,0.766-5.084,2.297-6.697s3.508-2.42,5.93-2.42c1.586,0,3.016,0.379,4.289,1.137
		s2.244,1.814,2.912,3.17s1.002,2.893,1.002,4.611c0,1.742-0.352,3.301-1.055,4.676s-1.699,2.416-2.988,3.123
		s-2.68,1.061-4.172,1.061c-1.617,0-3.063-0.391-4.336-1.172s-2.238-1.848-2.895-3.199S133.874,134.614,133.874,133.106z
		 M136.218,133.142c0,2.07,0.557,3.701,1.67,4.893s2.51,1.787,4.189,1.787c1.711,0,3.119-0.602,4.225-1.805s1.658-2.91,1.658-5.121
		c0-1.398-0.236-2.619-0.709-3.662s-1.164-1.852-2.074-2.426s-1.932-0.861-3.064-0.861c-1.609,0-2.994,0.553-4.154,1.658
		S136.218,130.556,136.218,133.142z"/>
	<path fill="#1A171B" d="M153.304,141.474v-17.18h2.273v7.055h8.93v-7.055h2.273v17.18h-2.273v-8.098h-8.93v8.098H153.304z"/>
</g>
<polygon fill="#1A171B" points="134.959,123.472 131.108,130.121 107.709,113.222 107.759,112.222 108.608,111.672 "/>
</svg>
