<?xml version="1.0" encoding="UTF-8" standalone="no"?>
<!-- Generator: Adobe Illustrator 12.0.1, SVG Export Plug-In . SVG Version: 6.00 Build 51448)  -->
<svg
   xmlns:dc="http://purl.org/dc/elements/1.1/"
   xmlns:cc="http://web.resource.org/cc/"
   xmlns:rdf="http://www.w3.org/1999/02/22-rdf-syntax-ns#"
   xmlns:svg="http://www.w3.org/2000/svg"
   xmlns="http://www.w3.org/2000/svg"
   xmlns:sodipodi="http://sodipodi.sourceforge.net/DTD/sodipodi-0.dtd"
   xmlns:inkscape="http://www.inkscape.org/namespaces/inkscape"
   version="1.1"
   id="Layer_1"
   width="423.45"
   height="173.454"
   viewBox="0 0 423.45 173.454"
   style="overflow:visible;enable-background:new 0 0 423.45 173.454;"
   xml:space="preserve"
   sodipodi:version="0.32"
   inkscape:version="0.45.1"
   sodipodi:docname="Methylcellulose.svg"
   inkscape:output_extension="org.inkscape.output.svg.inkscape"
   sodipodi:docbase="C:\"><metadata
   id="metadata172"><rdf:RDF><cc:Work
       rdf:about=""><dc:format>image/svg+xml</dc:format><dc:type
         rdf:resource="http://purl.org/dc/dcmitype/StillImage" /></cc:Work></rdf:RDF></metadata><defs
   id="defs170" /><sodipodi:namedview
   inkscape:window-height="579"
   inkscape:window-width="801"
   inkscape:pageshadow="2"
   inkscape:pageopacity="0.0"
   guidetolerance="10.0"
   gridtolerance="10.0"
   objecttolerance="10.0"
   borderopacity="1.0"
   bordercolor="#666666"
   pagecolor="#ffffff"
   id="base"
   inkscape:zoom="1.6932341"
   inkscape:cx="211.72501"
   inkscape:cy="86.726997"
   inkscape:window-x="22"
   inkscape:window-y="22"
   inkscape:current-layer="Layer_1" />
<g
   id="g3"
   transform="matrix(0.95,0,0,0.95,10.58625,4.336375)">
	<path
   style="fill:#231f20"
   d="M 145.307,67.569 C 145.307,64.716 146.073,62.484 147.605,60.871 C 149.137,59.257 151.115,58.45 153.538,58.45 C 155.125,58.45 156.555,58.829 157.829,59.587 C 159.103,60.346 160.074,61.402 160.743,62.758 C 161.412,64.114 161.745,65.652 161.745,67.37 C 161.745,69.113 161.393,70.672 160.69,72.047 C 159.987,73.422 158.99,74.464 157.7,75.171 C 156.41,75.878 155.019,76.232 153.526,76.232 C 151.908,76.232 150.462,75.841 149.188,75.06 C 147.914,74.279 146.949,73.211 146.292,71.86 C 145.635,70.509 145.307,69.078 145.307,67.569 z M 147.65,67.599 C 147.65,69.669 148.207,71.3 149.321,72.492 C 150.435,73.684 151.833,74.279 153.513,74.279 C 155.225,74.279 156.634,73.677 157.741,72.474 C 158.847,71.271 159.4,69.564 159.4,67.353 C 159.4,65.955 159.164,64.734 158.691,63.691 C 158.218,62.648 157.526,61.839 156.615,61.265 C 155.704,60.691 154.682,60.404 153.549,60.404 C 151.939,60.404 150.553,60.957 149.392,62.062 C 148.231,63.167 147.65,65.013 147.65,67.599 z "
   id="path5" />
</g>
<path
   style="fill:#231f20"
   d="M 161.39875,77.662125 L 162.77625,76.854625 L 175.69625,99.179625 L 175.31625,100.12962 L 173.51125,98.657125 L 161.39875,77.662125 z "
   id="polygon7" />
<path
   style="fill:#231f20"
   d="M 142.30375,94.714625 L 138.88375,90.392125 L 141.02125,87.304625 L 173.51125,98.657125 L 175.31625,100.12962 L 175.31625,100.98367 L 142.30375,94.714625 z "
   id="polygon9" />
<path
   style="fill:#231f20"
   d="M 120.02625,78.089625 L 120.02625,77.234625 L 120.40625,76.284625 L 146.29375,69.397125 L 146.72125,70.917125 L 120.02625,78.089625 z "
   id="polygon11" />
<path
   style="fill:#231f20"
   d="M 106.01375,101.69617 L 102.45125,100.12962 L 104.73125,97.042125 L 141.02125,87.304625 L 138.88375,90.392125 L 139.31125,92.767125 L 106.01375,101.69617 z "
   id="polygon13" />
<path
   style="fill:#231f20"
   d="M 83.16625,68.447125 L 83.59375,67.497125 L 85.49375,68.827125 L 104.73125,97.042125 L 102.45125,100.12962 L 97.55875,98.325575 L 83.16625,68.447125 z "
   id="polygon15" />
<path
   style="fill:#231f20"
   d="M 118.36375,75.952125 L 120.02625,77.234625 L 120.02625,78.089625 L 85.49375,68.827125 L 83.59375,67.497125 L 83.59375,66.642125 L 118.36375,75.952125 z "
   id="polygon17" />
<g
   id="g19"
   transform="matrix(0.95,0,0,0.95,10.58625,4.336375)">
	<path
   style="fill:#231f20"
   d="M 146.657,126.02 C 146.657,123.167 147.423,120.935 148.955,119.322 C 150.487,117.708 152.465,116.901 154.888,116.901 C 156.475,116.901 157.905,117.28 159.179,118.038 C 160.453,118.797 161.424,119.853 162.093,121.209 C 162.762,122.565 163.095,124.103 163.095,125.821 C 163.095,127.564 162.743,129.123 162.04,130.498 C 161.337,131.873 160.34,132.915 159.05,133.622 C 157.76,134.329 156.369,134.683 154.876,134.683 C 153.258,134.683 151.812,134.292 150.538,133.511 C 149.264,132.73 148.299,131.662 147.642,130.311 C 146.985,128.96 146.657,127.528 146.657,126.02 z M 149,126.049 C 149,128.119 149.557,129.75 150.671,130.942 C 151.785,132.134 153.183,132.729 154.863,132.729 C 156.575,132.729 157.984,132.127 159.091,130.924 C 160.197,129.721 160.75,128.014 160.75,125.803 C 160.75,124.405 160.514,123.184 160.041,122.141 C 159.568,121.098 158.876,120.289 157.965,119.715 C 157.054,119.141 156.032,118.854 154.899,118.854 C 153.289,118.854 151.903,119.407 150.742,120.512 C 149.581,121.617 149,123.463 149,126.049 z "
   id="path21" />
</g>
<path
   style="fill:#231f20"
   d="M 153.46625,114.00058 L 152.04125,114.80712 L 139.31125,92.767125 L 138.88375,90.392125 L 142.30375,94.714625 L 153.46625,114.00058 z "
   id="polygon23" />
<g
   id="g25"
   transform="matrix(0.95,0,0,0.95,10.58625,4.336375)">
	<path
   style="fill:#231f20"
   d="M 30.307,77.819 C 30.307,74.966 31.073,72.734 32.605,71.121 C 34.137,69.507 36.115,68.7 38.538,68.7 C 40.125,68.7 41.555,69.079 42.829,69.837 C 44.103,70.596 45.074,71.652 45.743,73.008 C 46.412,74.364 46.745,75.902 46.745,77.62 C 46.745,79.363 46.393,80.922 45.69,82.297 C 44.987,83.672 43.99,84.714 42.7,85.421 C 41.41,86.128 40.019,86.482 38.526,86.482 C 36.908,86.482 35.462,86.091 34.188,85.31 C 32.914,84.529 31.949,83.461 31.292,82.11 C 30.635,80.759 30.307,79.328 30.307,77.819 z M 32.65,77.849 C 32.65,79.919 33.207,81.55 34.321,82.742 C 35.435,83.934 36.833,84.529 38.513,84.529 C 40.225,84.529 41.634,83.927 42.741,82.724 C 43.847,81.521 44.4,79.814 44.4,77.603 C 44.4,76.205 44.164,74.984 43.691,73.941 C 43.218,72.898 42.526,72.089 41.615,71.515 C 40.704,70.941 39.682,70.654 38.549,70.654 C 36.939,70.654 35.553,71.207 34.392,72.312 C 33.231,73.417 32.65,75.263 32.65,77.849 z "
   id="path27" />
</g>
<path
   style="fill:#231f20"
   d="M 56.99375,75.477125 L 56.56625,73.909625 L 83.59375,66.642125 L 83.59375,67.497125 L 83.16625,68.447125 L 56.99375,75.477125 z "
   id="polygon29" />
<g
   id="g31"
   transform="matrix(0.95,0,0,0.95,10.58625,4.336375)">
	<path
   style="fill:#231f20"
   d="M 48.987,105.585 L 48.987,88.397 L 51.268,88.397 L 51.268,95.46 L 60.159,95.46 L 60.159,88.397 L 62.44,88.397 L 62.44,105.585 L 60.159,105.585 L 60.159,97.491 L 51.268,97.491 L 51.268,105.585 L 48.987,105.585 L 48.987,105.585 z "
   id="path33" />
	<path
   style="fill:#231f20"
   d="M 65.538,97.22 C 65.538,94.367 66.304,92.135 67.836,90.522 C 69.368,88.908 71.346,88.101 73.769,88.101 C 75.356,88.101 76.786,88.48 78.06,89.238 C 79.334,89.997 80.305,91.053 80.974,92.409 C 81.643,93.765 81.976,95.303 81.976,97.021 C 81.976,98.764 81.624,100.323 80.921,101.698 C 80.218,103.073 79.221,104.115 77.931,104.822 C 76.641,105.529 75.25,105.883 73.757,105.883 C 72.139,105.883 70.693,105.492 69.419,104.711 C 68.145,103.93 67.18,102.862 66.523,101.511 C 65.866,100.16 65.538,98.729 65.538,97.22 z M 67.882,97.249 C 67.882,99.319 68.439,100.95 69.553,102.142 C 70.667,103.334 72.065,103.929 73.745,103.929 C 75.457,103.929 76.866,103.327 77.973,102.124 C 79.079,100.921 79.632,99.214 79.632,97.003 C 79.632,95.605 79.396,94.384 78.923,93.341 C 78.45,92.298 77.758,91.489 76.847,90.915 C 75.936,90.341 74.914,90.054 73.781,90.054 C 72.171,90.054 70.785,90.607 69.624,91.712 C 68.463,92.817 67.882,94.663 67.882,97.249 z "
   id="path35" />
</g>
<path
   style="fill:#231f20"
   d="M 90.43375,98.514625 L 90.76625,96.900575 L 97.55875,98.325575 L 102.45125,100.12962 L 106.01375,101.69617 L 90.43375,98.514625 z "
   id="polygon37" />
<path
   style="fill:#231f20"
   d="M 100.26625,44.602125 L 102.11875,44.602125 L 120.40625,76.284625 L 120.02625,77.234625 L 118.36375,75.952125 L 100.26625,44.602125 z "
   id="polygon39" />
<g
   id="g41"
   transform="matrix(0.95,0,0,0.95,10.58625,4.336375)">
	<path
   style="fill:#231f20"
   d="M 106.957,9.119 C 106.957,6.266 107.723,4.034 109.255,2.421 C 110.787,0.807 112.764,0 115.187,0 C 116.774,0 118.204,0.379 119.478,1.137 C 120.752,1.896 121.723,2.952 122.392,4.308 C 123.061,5.664 123.394,7.202 123.394,8.92 C 123.394,10.663 123.042,12.222 122.339,13.597 C 121.636,14.972 120.639,16.014 119.349,16.721 C 118.059,17.428 116.668,17.782 115.175,17.782 C 113.557,17.782 112.111,17.391 110.837,16.61 C 109.563,15.829 108.598,14.761 107.941,13.41 C 107.284,12.059 106.957,10.628 106.957,9.119 z M 109.3,9.148 C 109.3,11.218 109.857,12.849 110.971,14.041 C 112.085,15.233 113.483,15.828 115.163,15.828 C 116.875,15.828 118.284,15.226 119.391,14.023 C 120.497,12.82 121.05,11.113 121.05,8.902 C 121.05,7.504 120.814,6.283 120.341,5.24 C 119.868,4.197 119.176,3.388 118.265,2.814 C 117.354,2.24 116.332,1.953 115.199,1.953 C 113.589,1.953 112.203,2.506 111.042,3.611 C 109.881,4.716 109.3,6.563 109.3,9.148 z "
   id="path43" />
</g>
<path
   style="fill:#231f20"
   d="M 113.66125,21.374625 L 115.03875,22.182125 L 102.11875,44.602125 L 100.26625,44.602125 L 113.66125,21.374625 z "
   id="polygon45" />
<path
   style="fill:#231f20"
   d="M 201.53625,92.292125 L 201.91625,93.858675 L 175.31625,100.98367 L 175.31625,100.12962 L 175.69625,99.179625 L 201.53625,92.292125 z "
   id="polygon47" />
<path
   style="fill:#231f20"
   d="M 249.93875,98.657125 L 248.1347,100.12962 L 247.75375,99.179625 L 265.37625,68.637125 L 266.99125,67.497125 L 267.3722,68.447125 L 249.93875,98.657125 z "
   id="polygon49" />
<path
   style="fill:#231f20"
   d="M 282.38125,87.304625 L 284.56625,90.392125 L 281.09875,94.714625 L 248.08625,100.98367 L 248.1347,100.12962 L 249.93875,98.657125 L 282.38125,87.304625 z "
   id="polygon51" />
<path
   style="fill:#231f20"
   d="M 302.9972,76.284625 L 303.37625,77.234625 L 303.37625,78.089625 L 267.3722,68.447125 L 266.99125,67.497125 L 266.99125,66.642125 L 302.9972,76.284625 z "
   id="polygon53" />
<g
   id="g55"
   transform="matrix(0.95,0,0,0.95,10.58625,4.336375)">
	<path
   style="fill:#231f20"
   d="M 318.506,101.92 C 318.506,99.067 319.272,96.835 320.805,95.222 C 322.336,93.608 324.315,92.801 326.737,92.801 C 328.325,92.801 329.755,93.18 331.028,93.938 C 332.302,94.697 333.274,95.753 333.942,97.109 C 334.61,98.465 334.944,100.003 334.944,101.721 C 334.944,103.464 334.592,105.023 333.889,106.398 C 333.186,107.773 332.189,108.815 330.899,109.522 C 329.61,110.229 328.218,110.583 326.725,110.583 C 325.108,110.583 323.661,110.192 322.387,109.411 C 321.113,108.63 320.149,107.562 319.491,106.211 C 318.833,104.86 318.506,103.429 318.506,101.92 z M 320.85,101.949 C 320.85,104.019 321.407,105.65 322.522,106.842 C 323.635,108.033 325.034,108.629 326.713,108.629 C 328.426,108.629 329.834,108.027 330.942,106.824 C 332.047,105.621 332.6,103.914 332.6,101.703 C 332.6,100.305 332.364,99.084 331.891,98.041 C 331.418,96.998 330.726,96.189 329.815,95.615 C 328.905,95.041 327.883,94.754 326.749,94.754 C 325.14,94.754 323.753,95.307 322.593,96.412 C 321.43,97.518 320.85,99.363 320.85,101.949 z "
   id="path57" />
</g>
<path
   style="fill:#231f20"
   d="M 312.0222,95.237125 L 310.73875,99.892125 L 284.09125,92.767125 L 284.56625,90.392125 L 282.38125,87.304625 L 312.0222,95.237125 z "
   id="polygon59" />
<path
   style="fill:#231f20"
   d="M 339.8097,66.642125 L 339.8097,67.497125 L 337.81375,68.874625 L 303.37625,78.089625 L 303.37625,77.234625 L 305.08625,75.952125 L 339.8097,66.642125 z "
   id="polygon61" />
<path
   style="fill:#231f20"
   d="M 329.07375,93.338075 L 322.80375,89.679625 L 337.81375,68.874625 L 339.8097,67.497125 L 340.2847,68.447125 L 329.07375,93.338075 z "
   id="polygon63" />
<g
   id="g65"
   transform="matrix(0.95,0,0,0.95,10.58625,4.336375)">
	<path
   style="fill:#231f20"
   d="M 238.606,72.27 C 238.606,69.417 239.372,67.185 240.904,65.572 C 242.436,63.958 244.414,63.151 246.837,63.151 C 248.424,63.151 249.854,63.53 251.128,64.288 C 252.402,65.047 253.373,66.103 254.041,67.459 C 254.71,68.814 255.044,70.353 255.044,72.071 C 255.044,73.814 254.692,75.373 253.988,76.748 C 253.285,78.123 252.289,79.165 250.999,79.872 C 249.709,80.579 248.318,80.933 246.825,80.933 C 245.207,80.933 243.761,80.542 242.487,79.761 C 241.213,78.98 240.248,77.912 239.591,76.561 C 238.935,75.208 238.606,73.778 238.606,72.27 z M 240.95,72.299 C 240.95,74.369 241.507,76 242.621,77.192 C 243.735,78.384 245.133,78.979 246.813,78.979 C 248.525,78.979 249.934,78.377 251.041,77.174 C 252.146,75.971 252.7,74.264 252.7,72.053 C 252.7,70.655 252.464,69.434 251.99,68.391 C 251.517,67.348 250.826,66.539 249.915,65.965 C 249.004,65.391 247.982,65.104 246.849,65.104 C 245.239,65.104 243.853,65.657 242.692,66.762 C 241.531,67.867 240.95,69.713 240.95,72.299 z "
   id="path67" />
</g>
<path
   style="fill:#231f20"
   d="M 254.97375,70.774625 L 254.64125,69.207125 L 266.80125,66.689625 L 266.99125,67.497125 L 265.37625,68.637125 L 254.97375,70.774625 z "
   id="polygon69" />
<g
   id="g71"
   transform="matrix(0.95,0,0,0.95,10.58625,4.336375)">
	<path
   style="fill:#231f20"
   d="M 376.656,77.819 C 376.656,74.966 377.422,72.734 378.955,71.121 C 380.486,69.507 382.465,68.7 384.887,68.7 C 386.475,68.7 387.905,69.079 389.178,69.837 C 390.452,70.596 391.424,71.652 392.092,73.008 C 392.76,74.364 393.094,75.902 393.094,77.62 C 393.094,79.363 392.742,80.922 392.039,82.297 C 391.336,83.672 390.339,84.714 389.049,85.421 C 387.76,86.128 386.368,86.482 384.875,86.482 C 383.258,86.482 381.811,86.091 380.537,85.31 C 379.263,84.529 378.299,83.461 377.641,82.11 C 376.983,80.759 376.656,79.328 376.656,77.819 z M 379,77.849 C 379,79.919 379.557,81.55 380.672,82.742 C 381.785,83.933 383.184,84.529 384.863,84.529 C 386.576,84.529 387.984,83.927 389.092,82.724 C 390.197,81.521 390.75,79.814 390.75,77.603 C 390.75,76.205 390.514,74.984 390.041,73.941 C 389.568,72.898 388.876,72.089 387.965,71.515 C 387.055,70.941 386.033,70.654 384.899,70.654 C 383.29,70.654 381.903,71.207 380.743,72.312 C 379.58,73.417 379,75.263 379,77.849 z "
   id="path73" />
</g>
<path
   style="fill:#231f20"
   d="M 366.83625,73.909625 L 366.45625,75.477125 L 340.2847,68.447125 L 339.8097,67.497125 L 339.8097,66.642125 L 366.83625,73.909625 z "
   id="polygon75" />
<g
   id="g77"
   transform="matrix(0.95,0,0,0.95,10.58625,4.336375)">
	<path
   style="fill:#231f20"
   d="M 319.856,43.47 C 319.856,40.617 320.622,38.385 322.154,36.772 C 323.686,35.158 325.664,34.351 328.087,34.351 C 329.674,34.351 331.104,34.73 332.378,35.488 C 333.652,36.247 334.623,37.303 335.291,38.659 C 335.96,40.014 336.294,41.553 336.294,43.271 C 336.294,45.014 335.942,46.573 335.238,47.948 C 334.535,49.323 333.539,50.365 332.249,51.072 C 330.959,51.779 329.568,52.133 328.075,52.133 C 326.457,52.133 325.011,51.742 323.737,50.961 C 322.463,50.18 321.498,49.112 320.841,47.761 C 320.185,46.408 319.856,44.979 319.856,43.47 z M 322.2,43.499 C 322.2,45.569 322.757,47.2 323.871,48.392 C 324.985,49.584 326.383,50.179 328.063,50.179 C 329.775,50.179 331.184,49.577 332.291,48.374 C 333.396,47.171 333.95,45.464 333.95,43.253 C 333.95,41.855 333.714,40.634 333.24,39.591 C 332.767,38.548 332.076,37.739 331.165,37.165 C 330.254,36.591 329.232,36.304 328.099,36.304 C 326.489,36.304 325.103,36.857 323.942,37.962 C 322.781,39.067 322.2,40.913 322.2,43.499 z "
   id="path79" />
</g>
<path
   style="fill:#231f20"
   d="M 315.86875,54.007125 L 317.29375,54.814625 L 305.08625,75.952125 L 303.37625,77.234625 L 302.9972,76.284625 L 315.86875,54.007125 z "
   id="polygon81" />
<g
   id="g83"
   transform="matrix(0.95,0,0,0.95,10.58625,4.336375)">
	<path
   style="fill:#231f20"
   d="M 203.506,91.67 C 203.506,88.817 204.272,86.585 205.804,84.972 C 207.336,83.358 209.314,82.551 211.737,82.551 C 213.324,82.551 214.754,82.93 216.028,83.688 C 217.302,84.447 218.274,85.503 218.942,86.859 C 219.61,88.215 219.944,89.753 219.944,91.471 C 219.944,93.214 219.592,94.773 218.889,96.148 C 218.186,97.523 217.189,98.565 215.899,99.272 C 214.61,99.979 213.218,100.333 211.726,100.333 C 210.108,100.333 208.662,99.942 207.388,99.161 C 206.114,98.38 205.149,97.312 204.492,95.961 C 203.835,94.61 203.506,93.179 203.506,91.67 z M 205.85,91.699 C 205.85,93.769 206.407,95.4 207.521,96.592 C 208.635,97.784 210.033,98.379 211.713,98.379 C 213.425,98.379 214.834,97.777 215.941,96.574 C 217.046,95.371 217.599,93.664 217.599,91.453 C 217.599,90.055 217.363,88.834 216.89,87.791 C 216.417,86.748 215.725,85.939 214.814,85.365 C 213.904,84.791 212.882,84.504 211.748,84.504 C 210.138,84.504 208.752,85.057 207.591,86.162 C 206.43,87.267 205.85,89.113 205.85,91.699 z "
   id="path85" />
</g>
<path
   style="fill:#231f20"
   d="M 221.48625,93.858675 L 221.91375,92.292125 L 247.75375,99.179625 L 248.1347,100.12962 L 248.08625,100.98367 L 221.48625,93.858675 z "
   id="polygon87" />
<path
   style="fill:#231f20"
   d="M 266.61125,123.02463 L 264.7597,123.02463 L 281.09875,94.714625 L 284.56625,90.392125 L 284.09125,92.767125 L 266.61125,123.02463 z "
   id="polygon89" />
<g
   id="g91"
   transform="matrix(0.95,0,0,0.95,10.58625,4.336375)">
	<path
   style="fill:#231f20"
   d="M 280.156,160.37 C 280.156,157.517 280.922,155.285 282.454,153.672 C 283.986,152.058 285.964,151.251 288.387,151.251 C 289.974,151.251 291.405,151.63 292.678,152.388 C 293.951,153.147 294.923,154.203 295.592,155.559 C 296.26,156.914 296.594,158.453 296.594,160.171 C 296.594,161.914 296.242,163.473 295.539,164.848 C 294.835,166.223 293.838,167.265 292.549,167.972 C 291.259,168.679 289.867,169.033 288.375,169.033 C 286.757,169.033 285.311,168.642 284.037,167.861 C 282.763,167.08 281.798,166.012 281.141,164.661 C 280.484,163.309 280.156,161.879 280.156,160.37 z M 282.5,160.399 C 282.5,162.469 283.057,164.1 284.171,165.292 C 285.285,166.484 286.683,167.079 288.363,167.079 C 290.075,167.079 291.484,166.477 292.591,165.274 C 293.698,164.071 294.25,162.364 294.25,160.153 C 294.25,158.755 294.014,157.534 293.541,156.491 C 293.067,155.448 292.375,154.639 291.465,154.065 C 290.555,153.491 289.532,153.204 288.399,153.204 C 286.789,153.204 285.403,153.757 284.242,154.862 C 283.081,155.967 282.5,157.813 282.5,160.399 z "
   id="path93" />
	<path
   style="fill:#231f20"
   d="M 299.605,168.735 L 299.605,151.547 L 301.886,151.547 L 301.886,158.61 L 310.777,158.61 L 310.777,151.547 L 313.058,151.547 L 313.058,168.735 L 310.777,168.735 L 310.777,160.641 L 301.886,160.641 L 301.886,168.735 L 299.605,168.735 z "
   id="path95" />
</g>
<path
   style="fill:#231f20"
   d="M 280.24375,146.63212 L 278.86625,147.43962 L 264.7597,123.02463 L 266.61125,123.02463 L 280.24375,146.63212 z "
   id="polygon97" />
<path
   style="fill:#231f20"
   d="M 412.43625,66.689625 L 412.86375,68.257125 L 408.96875,69.302125 L 408.54125,67.734625 L 412.43625,66.689625 z "
   id="polygon99" />
<path
   style="fill:#231f20"
   d="M 404.78875,68.732125 L 405.21625,70.299625 L 401.3222,71.344625 L 400.89375,69.777125 L 404.78875,68.732125 z "
   id="polygon101" />
<path
   style="fill:#231f20"
   d="M 397.14125,70.822125 L 397.56875,72.342125 L 393.67375,73.387125 L 393.2472,71.867125 L 397.14125,70.822125 z "
   id="polygon103" />
<path
   style="fill:#231f20"
   d="M 389.49375,72.864625 L 389.9222,74.432125 L 386.02625,75.477125 L 385.59875,73.909625 L 389.49375,72.864625 z "
   id="polygon105" />
<g
   id="g107"
   transform="matrix(0.95,0,0,0.95,10.58625,4.336375)">
	<path
   style="fill:#231f20"
   d="M 101.063,168.735 L 101.063,151.547 L 103.344,151.547 L 103.344,158.61 L 112.235,158.61 L 112.235,151.547 L 114.516,151.547 L 114.516,168.735 L 112.235,168.735 L 112.235,160.641 L 103.344,160.641 L 103.344,168.735 L 101.063,168.735 z "
   id="path109" />
</g>
<g
   id="g111"
   transform="matrix(0.95,0,0,0.95,10.58625,4.336375)">
	<path
   style="fill:#231f20"
   d="M 116.524,169.829 L 118.102,169.61 C 118.285,170.506 118.594,171.152 119.03,171.548 C 119.467,171.943 120.002,172.141 120.637,172.141 C 121.39,172.141 122.023,171.883 122.536,171.369 C 123.049,170.853 123.305,170.215 123.305,169.453 C 123.305,168.727 123.067,168.129 122.589,167.657 C 122.112,167.185 121.506,166.95 120.77,166.95 C 120.469,166.95 120.095,167.009 119.648,167.126 L 119.825,165.735 C 119.931,165.747 120.016,165.753 120.081,165.753 C 120.755,165.753 121.362,165.578 121.902,165.227 C 122.442,164.876 122.712,164.335 122.712,163.604 C 122.712,163.025 122.515,162.545 122.121,162.166 C 121.727,161.786 121.219,161.596 120.596,161.596 C 119.979,161.596 119.464,161.79 119.053,162.178 C 118.642,162.566 118.377,163.148 118.26,163.924 L 116.682,163.643 C 116.875,162.581 117.316,161.758 118.002,161.175 C 118.688,160.591 119.542,160.299 120.563,160.299 C 121.267,160.299 121.916,160.449 122.508,160.751 C 123.1,161.052 123.553,161.463 123.868,161.983 C 124.181,162.504 124.339,163.056 124.339,163.641 C 124.339,164.197 124.19,164.703 123.891,165.159 C 123.592,165.615 123.15,165.977 122.564,166.247 C 123.326,166.423 123.918,166.788 124.343,167.341 C 124.767,167.896 124.98,168.588 124.98,169.42 C 124.98,170.546 124.569,171.499 123.747,172.281 C 122.925,173.063 121.886,173.455 120.63,173.455 C 119.497,173.455 118.556,173.118 117.808,172.446 C 117.057,171.771 116.63,170.9 116.524,169.829 z "
   id="path113" />
</g>
<g
   id="g115"
   transform="matrix(0.95,0,0,0.95,10.58625,4.336375)">
	<path
   style="fill:#231f20"
   d="M 140.102,162.708 L 142.383,163.282 C 141.907,165.152 141.05,166.578 139.814,167.559 C 138.577,168.54 137.064,169.032 135.277,169.032 C 133.427,169.032 131.923,168.655 130.764,167.9 C 129.605,167.146 128.723,166.052 128.118,164.622 C 127.513,163.191 127.211,161.654 127.211,160.013 C 127.211,158.223 127.552,156.66 128.235,155.327 C 128.918,153.994 129.889,152.98 131.15,152.289 C 132.41,151.598 133.796,151.251 135.31,151.251 C 137.027,151.251 138.47,151.689 139.64,152.565 C 140.811,153.442 141.626,154.673 142.086,156.262 L 139.852,156.789 C 139.454,155.539 138.877,154.629 138.121,154.059 C 137.364,153.489 136.412,153.204 135.266,153.204 C 133.948,153.204 132.846,153.52 131.96,154.153 C 131.075,154.786 130.453,155.635 130.094,156.702 C 129.735,157.769 129.556,158.868 129.556,160.001 C 129.556,161.462 129.768,162.737 130.193,163.827 C 130.618,164.917 131.278,165.731 132.175,166.27 C 133.072,166.809 134.042,167.079 135.087,167.079 C 136.358,167.079 137.433,166.712 138.314,165.977 C 139.195,165.242 139.79,164.153 140.102,162.708 z "
   id="path117" />
</g>
<path
   style="fill:#231f20"
   d="M 144.63125,147.29618 L 143.25375,146.48962 L 151.37625,132.42962 L 152.75375,133.23808 L 144.63125,147.29618 z "
   id="polygon119" />
<g
   id="g121"
   transform="matrix(0.95,0,0,0.95,10.58625,4.336375)">
	<path
   style="fill:#231f20"
   d="M 186.513,50.984 L 186.513,33.797 L 188.794,33.797 L 188.794,40.86 L 197.685,40.86 L 197.685,33.797 L 199.966,33.797 L 199.966,50.985 L 197.685,50.985 L 197.685,42.891 L 188.794,42.891 L 188.794,50.985 L 186.513,50.985 L 186.513,50.984 z "
   id="path123" />
</g>
<g
   id="g125"
   transform="matrix(0.95,0,0,0.95,10.58625,4.336375)">
	<path
   style="fill:#231f20"
   d="M 201.974,52.078 L 203.552,51.859 C 203.735,52.755 204.044,53.401 204.48,53.797 C 204.917,54.192 205.452,54.39 206.087,54.39 C 206.84,54.39 207.473,54.132 207.986,53.618 C 208.499,53.102 208.755,52.464 208.755,51.702 C 208.755,50.976 208.517,50.378 208.039,49.906 C 207.562,49.434 206.956,49.199 206.22,49.199 C 205.919,49.199 205.545,49.258 205.098,49.375 L 205.275,47.984 C 205.381,47.996 205.466,48.002 205.531,48.002 C 206.205,48.002 206.812,47.827 207.352,47.476 C 207.892,47.125 208.162,46.584 208.162,45.853 C 208.162,45.274 207.965,44.794 207.571,44.415 C 207.177,44.035 206.669,43.845 206.046,43.845 C 205.429,43.845 204.914,44.039 204.503,44.427 C 204.092,44.815 203.827,45.397 203.71,46.173 L 202.132,45.892 C 202.325,44.83 202.766,44.007 203.452,43.424 C 204.138,42.84 204.992,42.548 206.013,42.548 C 206.717,42.548 207.366,42.698 207.958,43 C 208.55,43.301 209.003,43.712 209.318,44.232 C 209.631,44.753 209.789,45.305 209.789,45.89 C 209.789,46.446 209.64,46.952 209.341,47.408 C 209.042,47.864 208.6,48.226 208.014,48.496 C 208.776,48.672 209.368,49.037 209.793,49.59 C 210.217,50.145 210.43,50.837 210.43,51.669 C 210.43,52.795 210.019,53.748 209.197,54.53 C 208.375,55.312 207.336,55.704 206.08,55.704 C 204.947,55.704 204.006,55.367 203.258,54.695 C 202.506,54.021 202.08,53.149 201.974,52.078 z "
   id="path127" />
</g>
<g
   id="g129"
   transform="matrix(0.95,0,0,0.95,10.58625,4.336375)">
	<path
   style="fill:#231f20"
   d="M 225.552,44.957 L 227.833,45.531 C 227.357,47.401 226.5,48.827 225.264,49.808 C 224.027,50.789 222.514,51.281 220.727,51.281 C 218.877,51.281 217.373,50.904 216.214,50.149 C 215.055,49.395 214.173,48.301 213.568,46.871 C 212.963,45.44 212.661,43.903 212.661,42.262 C 212.661,40.472 213.002,38.909 213.685,37.576 C 214.367,36.243 215.338,35.229 216.599,34.538 C 217.859,33.847 219.245,33.5 220.759,33.5 C 222.476,33.5 223.919,33.938 225.089,34.814 C 226.26,35.691 227.075,36.922 227.535,38.511 L 225.301,39.038 C 224.904,37.788 224.325,36.878 223.57,36.308 C 222.813,35.738 221.861,35.453 220.715,35.453 C 219.397,35.453 218.295,35.769 217.409,36.402 C 216.523,37.035 215.902,37.884 215.543,38.951 C 215.184,40.018 215.005,41.117 215.005,42.25 C 215.005,43.711 215.217,44.986 215.643,46.076 C 216.067,47.166 216.728,47.98 217.624,48.519 C 218.52,49.058 219.491,49.328 220.535,49.328 C 221.806,49.328 222.882,48.961 223.763,48.226 C 224.644,47.491 225.24,46.402 225.552,44.957 z "
   id="path131" />
</g>
<path
   style="fill:#231f20"
   d="M 226.94875,52.772125 L 228.13625,51.679625 L 239.06125,63.982125 L 237.82625,65.074625 L 226.94875,52.772125 z "
   id="polygon133" />
<g
   id="g135"
   transform="matrix(0.95,0,0,0.95,10.58625,4.336375)">
	<path
   style="fill:#231f20"
   d="M 274.213,17.484 L 274.213,0.297 L 276.494,0.297 L 276.494,7.36 L 285.385,7.36 L 285.385,0.297 L 287.666,0.297 L 287.666,17.485 L 285.385,17.485 L 285.385,9.391 L 276.494,9.391 L 276.494,17.485 L 274.213,17.485 L 274.213,17.484 z "
   id="path137" />
</g>
<g
   id="g139"
   transform="matrix(0.95,0,0,0.95,10.58625,4.336375)">
	<path
   style="fill:#231f20"
   d="M 289.674,18.578 L 291.252,18.359 C 291.436,19.255 291.744,19.901 292.18,20.297 C 292.618,20.692 293.153,20.89 293.787,20.89 C 294.541,20.89 295.174,20.632 295.686,20.118 C 296.199,19.602 296.455,18.964 296.455,18.202 C 296.455,17.476 296.217,16.878 295.74,16.406 C 295.263,15.934 294.656,15.699 293.92,15.699 C 293.619,15.699 293.246,15.758 292.799,15.875 L 292.975,14.484 C 293.081,14.496 293.166,14.502 293.231,14.502 C 293.906,14.502 294.512,14.327 295.053,13.976 C 295.592,13.625 295.862,13.084 295.862,12.353 C 295.862,11.774 295.665,11.294 295.272,10.915 C 294.877,10.535 294.37,10.345 293.747,10.345 C 293.13,10.345 292.614,10.539 292.203,10.927 C 291.792,11.315 291.526,11.897 291.409,12.673 L 289.831,12.392 C 290.024,11.33 290.466,10.507 291.151,9.924 C 291.838,9.34 292.691,9.048 293.712,9.048 C 294.417,9.048 295.066,9.198 295.657,9.5 C 296.249,9.801 296.702,10.212 297.016,10.732 C 297.33,11.252 297.487,11.805 297.487,12.39 C 297.487,12.946 297.339,13.452 297.04,13.908 C 296.741,14.364 296.298,14.726 295.712,14.996 C 296.474,15.172 297.067,15.537 297.491,16.09 C 297.916,16.645 298.128,17.337 298.128,18.169 C 298.128,19.295 297.718,20.248 296.896,21.03 C 296.074,21.812 295.035,22.204 293.779,22.204 C 292.646,22.204 291.705,21.867 290.957,21.195 C 290.207,20.521 289.779,19.649 289.674,18.578 z "
   id="path141" />
</g>
<g
   id="g143"
   transform="matrix(0.95,0,0,0.95,10.58625,4.336375)">
	<path
   style="fill:#231f20"
   d="M 313.252,11.457 L 315.533,12.031 C 315.056,13.901 314.199,15.327 312.963,16.308 C 311.727,17.289 310.214,17.781 308.427,17.781 C 306.577,17.781 305.073,17.404 303.914,16.649 C 302.754,15.895 301.873,14.801 301.268,13.371 C 300.664,11.94 300.362,10.403 300.362,8.762 C 300.362,6.972 300.703,5.409 301.385,4.076 C 302.067,2.743 303.039,1.729 304.299,1.038 C 305.559,0.347 306.945,0 308.459,0 C 310.176,0 311.619,0.438 312.789,1.314 C 313.961,2.191 314.775,3.422 315.236,5.011 L 313.002,5.538 C 312.604,4.288 312.026,3.378 311.27,2.808 C 310.514,2.238 309.561,1.953 308.415,1.953 C 307.097,1.953 305.995,2.269 305.11,2.902 C 304.224,3.535 303.602,4.384 303.243,5.451 C 302.885,6.517 302.706,7.617 302.706,8.75 C 302.706,10.211 302.918,11.486 303.343,12.576 C 303.768,13.666 304.429,14.48 305.325,15.019 C 306.221,15.558 307.192,15.828 308.236,15.828 C 309.507,15.828 310.583,15.461 311.464,14.726 C 312.345,13.991 312.939,12.902 313.252,11.457 z "
   id="path145" />
</g>
<path
   style="fill:#231f20"
   d="M 308.41125,22.277125 L 309.83625,21.469625 L 317.9597,35.577125 L 316.58125,36.384625 L 308.41125,22.277125 z "
   id="polygon147" />
<g
   id="g149"
   transform="matrix(0.95,0,0,0.95,10.58625,4.336375)">
	<path
   style="fill:#231f20"
   d="M 160.294,11.457 L 162.575,12.031 C 162.099,13.901 161.242,15.327 160.006,16.308 C 158.769,17.289 157.256,17.781 155.469,17.781 C 153.619,17.781 152.115,17.404 150.956,16.649 C 149.797,15.895 148.915,14.801 148.31,13.371 C 147.705,11.94 147.403,10.403 147.403,8.762 C 147.403,6.972 147.744,5.409 148.427,4.076 C 149.11,2.743 150.081,1.729 151.342,1.038 C 152.602,0.347 153.988,-2.8865799e-015 155.502,-2.8865799e-015 C 157.219,-2.8865799e-015 158.662,0.438 159.832,1.314 C 161.003,2.191 161.818,3.422 162.278,5.011 L 160.044,5.538 C 159.646,4.288 159.069,3.378 158.313,2.808 C 157.556,2.238 156.604,1.953 155.458,1.953 C 154.14,1.953 153.038,2.269 152.152,2.902 C 151.267,3.535 150.645,4.384 150.286,5.451 C 149.927,6.518 149.748,7.617 149.748,8.75 C 149.748,10.211 149.96,11.486 150.385,12.576 C 150.81,13.666 151.47,14.48 152.367,15.019 C 153.264,15.558 154.234,15.828 155.279,15.828 C 156.55,15.828 157.625,15.461 158.506,14.726 C 159.387,13.991 159.982,12.902 160.294,11.457 z "
   id="path151" />
	<path
   style="fill:#231f20"
   d="M 165.47,17.484 L 165.47,0.297 L 167.751,0.297 L 167.751,7.36 L 176.642,7.36 L 176.642,0.297 L 178.923,0.297 L 178.923,17.485 L 176.642,17.485 L 176.642,9.391 L 167.751,9.391 L 167.751,17.485 L 165.47,17.485 L 165.47,17.484 z "
   id="path153" />
</g>
<g
   id="g155"
   transform="matrix(0.95,0,0,0.95,10.58625,4.336375)">
	<path
   style="fill:#231f20"
   d="M 180.52,18.578 L 182.098,18.359 C 182.281,19.255 182.59,19.901 183.026,20.297 C 183.463,20.692 183.998,20.89 184.633,20.89 C 185.386,20.89 186.019,20.632 186.532,20.118 C 187.045,19.602 187.301,18.964 187.301,18.202 C 187.301,17.476 187.063,16.878 186.585,16.406 C 186.108,15.934 185.502,15.699 184.766,15.699 C 184.465,15.699 184.091,15.758 183.644,15.875 L 183.821,14.484 C 183.927,14.496 184.012,14.502 184.077,14.502 C 184.751,14.502 185.358,14.327 185.898,13.976 C 186.438,13.625 186.708,13.084 186.708,12.353 C 186.708,11.774 186.511,11.294 186.117,10.915 C 185.723,10.535 185.215,10.345 184.592,10.345 C 183.975,10.345 183.46,10.539 183.049,10.927 C 182.638,11.315 182.373,11.897 182.256,12.673 L 180.678,12.392 C 180.871,11.33 181.312,10.507 181.998,9.924 C 182.684,9.34 183.538,9.048 184.559,9.048 C 185.263,9.048 185.912,9.198 186.504,9.5 C 187.096,9.801 187.549,10.212 187.864,10.732 C 188.177,11.253 188.335,11.805 188.335,12.39 C 188.335,12.946 188.186,13.452 187.887,13.908 C 187.588,14.364 187.146,14.726 186.56,14.996 C 187.322,15.172 187.914,15.537 188.339,16.09 C 188.763,16.645 188.976,17.337 188.976,18.169 C 188.976,19.295 188.565,20.248 187.743,21.03 C 186.921,21.812 185.882,22.204 184.626,22.204 C 183.493,22.204 182.552,21.867 181.804,21.195 C 181.052,20.521 180.625,19.649 180.52,18.578 z "
   id="path157" />
</g>
<path
   style="fill:#231f20"
   d="M 130.04875,11.162125 L 148.47875,11.162125 L 148.47875,12.777125 L 130.04875,12.777125 L 130.04875,11.162125 z "
   id="rect159" />
<path
   style="fill:#231f20"
   d="M 10.58625,68.257125 L 11.01375,66.689625 L 14.90875,67.734625 L 14.48125,69.302125 L 10.58625,68.257125 z "
   id="polygon161" />
<path
   style="fill:#231f20"
   d="M 18.23375,70.299625 L 18.61375,68.779625 L 22.55625,69.824625 L 22.12875,71.344625 L 18.23375,70.299625 z "
   id="polygon163" />
<path
   style="fill:#231f20"
   d="M 25.88125,72.342125 L 26.26125,70.822125 L 30.15625,71.867125 L 29.77625,73.387125 L 25.88125,72.342125 z "
   id="polygon165" />
<path
   style="fill:#231f20"
   d="M 33.48125,74.432125 L 33.90875,72.864625 L 37.80375,73.909625 L 37.42375,75.477125 L 33.48125,74.432125 z "
   id="polygon167" />
</svg>