<?xml version="1.0" encoding="UTF-8" standalone="no"?>
<!-- Created with Inkscape (http://www.inkscape.org/) -->

<svg
   version="1.1"
   id="svg1"
   width="668.41577"
   height="209.24791"
   viewBox="0 0 668.41577 209.24791"
   sodipodi:docname="methyleneblue.svg"
   inkscape:version="1.4.2 (f4327f4, 2025-05-13)"
   xmlns:inkscape="http://www.inkscape.org/namespaces/inkscape"
   xmlns:sodipodi="http://sodipodi.sourceforge.net/DTD/sodipodi-0.dtd"
   xmlns="http://www.w3.org/2000/svg"
   xmlns:svg="http://www.w3.org/2000/svg">
  <defs
     id="defs1">
    <filter
       inkscape:label="Sharpen"
       inkscape:menu="Image Effects"
       inkscape:menu-tooltip="Sharpen edges and boundaries within the object, force=0.15"
       style="color-interpolation-filters:sRGB"
       id="filter1"
       x="0"
       y="0"
       width="1"
       height="1">
      <feConvolveMatrix
         order="3 3"
         kernelMatrix="0 -0.15 0 -0.15 1.6 -0.15 0 -0.15 0"
         divisor="1"
         in="SourceGraphic"
         targetX="1"
         targetY="1"
         id="feConvolveMatrix1" />
    </filter>
  </defs>
  <sodipodi:namedview
     id="namedview1"
     pagecolor="#ffffff"
     bordercolor="#000000"
     borderopacity="0.25"
     inkscape:showpageshadow="2"
     inkscape:pageopacity="0.0"
     inkscape:pagecheckerboard="0"
     inkscape:deskcolor="#d1d1d1"
     inkscape:zoom="0.4876061"
     inkscape:cx="160.9906"
     inkscape:cy="-108.69429"
     inkscape:window-width="1920"
     inkscape:window-height="1111"
     inkscape:window-x="-9"
     inkscape:window-y="-9"
     inkscape:window-maximized="1"
     inkscape:current-layer="g1" />
  <g
     inkscape:groupmode="layer"
     inkscape:label="Image"
     id="g1"
     transform="translate(-20.302238,-303.80848)">
    <path
       style="fill:#000000"
       d="m 20.74792,512.61071 c -0.245125,-0.24513 -0.445682,-47.1433 -0.445682,-104.21817 0,-94.01022 0.09948,-103.81066 1.057462,-104.17827 0.581604,-0.22318 3.740379,-0.40579 7.019499,-0.40579 4.783297,0 5.962036,0.19312 5.962036,0.97676 0,0.76753 -1.253048,1.01814 -5.849582,1.16992 l -5.849582,0.19316 -0.16926,102.45125 -0.16926,102.45125 h 6.018842 c 4.9044,0 6.018842,0.18567 6.018842,1.00278 0,0.82338 -1.176106,1.00279 -6.573816,1.00279 -3.615599,0 -6.774374,-0.20056 -7.019499,-0.44568 z M 533.0599,512.0536 c 0,-0.81271 1.07707,-1.00278 5.68246,-1.00278 h 5.68245 V 408.43243 305.81406 h -5.68245 c -4.60539,0 -5.68246,-0.19008 -5.68246,-1.00279 0,-0.81948 1.13649,-1.00279 6.21727,-1.00279 3.94429,0 6.51056,0.29329 7.0195,0.80223 1.16632,1.16632 1.16632,206.47713 0,207.64345 -0.50894,0.50894 -3.07521,0.80223 -7.0195,0.80223 -5.08078,0 -6.21727,-0.18331 -6.21727,-1.00279 z m 34.89694,0.20056 c -1.16632,-1.16632 -1.16632,-206.47713 0,-207.64345 0.51481,-0.51481 3.14949,-0.80223 7.35376,-0.80223 5.3779,0 6.55153,0.17964 6.55153,1.00279 0,0.81708 -1.1142,1.00279 -6.01671,1.00279 h -6.01671 v 102.61837 102.61839 h 6.01671 c 4.90251,0 6.01671,0.1857 6.01671,1.00278 0,0.82315 -1.17363,1.00279 -6.55153,1.00279 -4.20427,0 -6.83895,-0.28742 -7.35376,-0.80223 z m 106.83008,-0.17717 c 0,-0.84656 1.05348,-1.02617 6.01885,-1.02617 h 6.01884 l -0.16926,-102.45125 -0.16926,-102.45125 -5.84958,-0.19316 c -4.59654,-0.15178 -5.84959,-0.40239 -5.84959,-1.16992 0,-0.79142 1.2661,-0.97676 6.6725,-0.97676 6.36643,0 6.68915,0.069 7.0354,1.50418 0.19959,0.8273 0.28053,47.83287 0.17987,104.45682 l -0.18303,102.95265 -6.85237,0.19052 c -5.79746,0.16118 -6.85237,0.0325 -6.85237,-0.83566 z M 92.840927,498.89775 c -0.208838,-0.85342 -0.295142,-9.37339 -0.191787,-18.93328 0.161316,-14.92113 0.329869,-17.38162 1.190703,-17.38162 0.867418,0 1.002786,2.51935 1.002786,18.66295 0,14.03351 -0.201173,18.73001 -0.810999,18.93329 -0.446049,0.14868 -0.981865,-0.42792 -1.190703,-1.28134 z m 379.829003,1.01101 c -0.24512,-0.24513 -0.44568,-8.841 -0.44568,-19.10195 0,-17.4079 0.0783,-18.6412 1.16992,-18.43125 1.07258,0.20628 1.18555,1.67031 1.35783,17.59776 0.10335,9.55502 0.0224,18.04964 -0.17987,18.87694 -0.36824,1.50604 -1.06624,1.89445 -1.9022,1.0585 z M 83.811988,445.24564 v -14.41766 h 2.003281 c 1.84571,0 2.568736,0.84878 9.1922,10.79102 l 7.188921,10.79103 0.18369,-10.79103 0.18369,-10.79102 h 2.00231 2.0023 l -0.18042,14.20613 -0.18043,14.20612 -1.80849,0.20865 c -1.66064,0.19159 -2.39845,-0.67706 -9.025067,-10.62549 l -7.216581,-10.83413 -0.334262,10.62549 -0.334262,10.62548 -1.83844,0.21154 -1.83844,0.21154 z m 194.206132,13.00341 c -1.47075,-0.72842 -3.08681,-1.98616 -3.59124,-2.79498 -1.15175,-1.84677 -2.1483,-5.23589 -1.54315,-5.24803 0.2501,-0.005 1.0648,-0.17306 1.81045,-0.37341 1.08032,-0.29029 1.52554,0.10534 2.19168,1.94753 1.42954,3.9533 6.87517,5.56171 11.82632,3.49299 1.4567,-0.60865 2.44607,-1.56237 2.70946,-2.61183 0.73094,-2.91229 -0.68514,-4.3116 -5.89842,-5.82857 -7.2913,-2.12163 -8.39166,-2.63743 -10.19273,-4.77787 -2.06543,-2.45462 -2.10738,-5.0123 -0.13045,-7.95255 3.64365,-5.41913 15.22562,-5.00367 18.14979,0.65106 1.56369,3.02385 1.35105,4.09687 -0.81189,4.09687 -1.44111,0 -2.02494,-0.43962 -2.59719,-1.95569 -1.5725,-4.16601 -10.9829,-4.36634 -12.01458,-0.25578 -0.80549,3.20931 0.49431,4.11918 9.38298,6.56816 5.36908,1.47927 7.75632,3.90132 7.75632,7.86942 0,3.51822 -1.80544,6.19783 -5.1047,7.57635 -3.22678,1.34824 -8.78467,1.16038 -11.94265,-0.40367 z m 186.18384,-13.04781 v -14.37326 h 1.90014 c 1.71072,0 2.62706,1.08296 9.1922,10.86351 l 7.29207,10.86351 0.18369,-10.86351 0.18369,-10.86351 h 1.65475 1.65475 v 14.41766 14.41767 l -1.83844,-0.21154 c -1.55302,-0.17869 -2.98014,-1.91006 -9.1922,-11.15191 l -7.35377,-10.94038 -0.18329,11.10751 -0.1833,11.10751 h -1.65514 -1.65515 z M 187.734,444.93713 c -0.34931,-0.32911 -10.11142,-6.07521 -21.6936,-12.76912 -11.58217,-6.69392 -21.81591,-12.61536 -22.74164,-13.15877 -1.62321,-0.95284 -2.21786,-0.6775 -16.70152,7.73333 -9.67379,5.61768 -15.24852,8.49122 -15.66505,8.07469 -0.4083,-0.4083 -0.41257,-0.87402 -0.0116,-1.26347 0.3493,-0.33925 6.95264,-4.28414 14.67409,-8.76643 7.72145,-4.48229 14.2635,-8.49163 14.53789,-8.90965 0.2744,-0.41802 0.48712,-12.9059 0.47272,-27.75085 -0.0144,-14.84495 0.0619,-27.04866 0.16962,-27.11934 0.1077,-0.0707 10.93923,-6.34473 24.07008,-13.94232 l 23.87426,-13.81379 23.73805,13.72059 23.73805,13.72059 14.10226,-8.14252 c 10.02602,-5.78895 14.30924,-7.93555 14.81834,-7.42644 0.84928,0.84927 -0.63249,1.82852 -16.38711,10.8297 l -11.116,6.35098 -0.0106,27.0752 -0.0105,27.07521 14.38533,8.28843 c 7.91193,4.55863 14.55992,8.57091 14.77331,8.91618 1.55899,2.52251 -2.70291,0.64467 -15.64008,-6.89118 l -14.87436,-8.66426 -23.70597,13.7158 c -13.03828,7.5437 -23.80832,13.71581 -23.93343,13.71581 -0.12511,0 -0.51327,-0.26927 -0.86257,-0.59837 z m 24.20119,-15.27907 22.9508,-13.20334 -0.16096,-27.07477 -0.16095,-27.07477 -22.91631,-13.26159 -22.91632,-13.2616 -22.87756,13.29387 -22.87755,13.29386 v 26.95798 26.95797 l 22.7298,13.23576 c 12.50139,7.27966 22.85321,13.2592 23.00403,13.28786 0.15082,0.0287 10.60208,-5.88939 23.22502,-13.15123 z m -42.70611,-6.77246 c -16.93961,-9.79902 -21.2476,-12.78186 -18.46028,-12.78186 1.38549,0 38.62989,21.704 38.6502,22.52322 0.0109,0.43791 -0.2059,0.92512 -0.48166,1.08269 -0.27577,0.15757 -9.14448,-4.71325 -19.70826,-10.82405 z m -19.21493,-54.988 c 0.0181,-0.90221 37.11685,-22.64065 38.63847,-22.64065 2.79628,0 -1.39187,2.9147 -17.62868,12.26853 -10.11734,5.82846 -18.98757,10.75213 -19.71163,10.94148 -0.83949,0.21953 -1.30984,0.0132 -1.29816,-0.56936 z m 215.91483,70.21855 c -6.80223,-4.00472 -17.40031,-10.17528 -23.55131,-13.71238 l -11.18362,-6.43108 -8.81248,5.12086 c -5.07413,2.94853 -9.23969,4.95693 -9.81953,4.73442 -1.4911,-0.57219 -0.55104,-1.28856 8.71892,-6.64423 l 8.21348,-4.74529 0.1745,-27.07677 0.1745,-27.07678 -14.51511,-8.41601 c -7.9833,-4.62881 -14.63007,-8.76094 -14.77059,-9.1825 -0.61776,-1.85328 2.85556,-0.24544 16.31505,7.55242 l 14.35883,8.3189 23.61275,-13.65893 23.61275,-13.65893 23.98663,13.81738 c 13.19264,7.59955 24.07138,13.87283 24.17497,13.94062 0.10358,0.0678 0.254,12.52588 0.33426,27.68465 l 0.14592,27.5614 13.98406,8.13 c 13.07358,7.60067 16.09118,9.7967 13.46185,9.7967 -0.59277,0 -7.25412,-3.61112 -14.803,-8.0247 l -13.72523,-8.0247 -23.73776,13.70715 c -13.05577,7.53893 -23.79275,13.67608 -23.85996,13.63812 -0.0672,-0.038 -5.68765,-3.34561 -12.48988,-7.35032 z m 35.81881,-8.45809 22.98107,-13.20334 -0.15203,-27.06217 -0.15202,-27.06217 -22.72981,-13.18532 c -12.50139,-7.25193 -23.16862,-13.03424 -23.70495,-12.84957 -0.53633,0.18466 -11.14079,6.21344 -23.56546,13.39729 l -22.59031,13.06154 8.6e-4,26.51594 8.7e-4,26.51594 23.23033,13.49142 c 12.77668,7.42029 23.33609,13.51221 23.46535,13.53761 0.12926,0.0254 10.57651,-5.89533 23.2161,-13.15717 z m -42.67117,-6.75681 c -16.86522,-9.75153 -21.26356,-12.79751 -18.47944,-12.79751 0.96478,0 37.91003,21.32024 38.44488,22.18565 1.58219,2.56004 -3.14763,0.33599 -19.96544,-9.38814 z m 55.97973,-11.57743 c -0.18925,-0.49317 -0.26461,-10.67139 -0.16748,-22.61826 0.15272,-18.7839 0.31222,-21.72159 1.17939,-21.72159 0.87136,0 1.00279,2.92789 1.00279,22.33983 0,17.27261 -0.18947,22.40299 -0.83531,22.61827 -0.45941,0.15314 -0.99014,-0.12507 -1.17939,-0.61825 z m -75.19004,-43.50419 c 0.0104,-0.88837 36.16097,-22.0731 38.31279,-22.4518 3.61231,-0.63574 -0.9784,2.53505 -17.97653,12.41635 -10.27108,5.97076 -19.05075,10.85933 -19.51036,10.86351 -0.45961,0.004 -0.83126,-0.36845 -0.8259,-0.82806 z m -37.00139,71.25347 c -0.24513,-0.24512 -0.44569,-1.44846 -0.44569,-2.67409 0,-2.10108 -0.1337,-2.22841 -2.33983,-2.22841 -1.89415,0 -2.33983,-0.25468 -2.33983,-1.33705 0,-1.0779 0.44568,-1.33705 2.29948,-1.33705 2.17361,0 2.31083,-0.13691 2.50696,-2.5014 0.14501,-1.74816 0.55978,-2.56817 1.3774,-2.72312 0.95902,-0.18174 1.16992,0.26919 1.16992,2.50141 v 2.72311 h 2.67409 c 2.22842,0 2.6741,0.22284 2.6741,1.33705 0,1.1142 -0.44568,1.33705 -2.6741,1.33705 h -2.67409 v 2.67409 c 0,2.52089 -0.96797,3.48886 -2.22841,2.22841 z m 187.70361,-4.29889 c -0.24478,-0.39606 -0.15389,-1.01128 0.20198,-1.36715 1.16694,-1.16694 29.21807,-17.2866 30.08182,-17.2866 2.67045,0 -0.52392,2.44568 -11.35128,8.6908 -6.69345,3.86073 -13.59137,7.8438 -15.32869,8.85128 -2.06325,1.19649 -3.31312,1.58204 -3.60383,1.11167 z M 59.944549,425.93047 c -7.795615,-4.50206 -14.381849,-8.39356 -14.636075,-8.64779 -0.254226,-0.25422 0.03932,-0.65469 0.65233,-0.88992 0.731538,-0.28072 6.050189,2.40804 15.47684,7.82408 12.973785,7.45403 15.287682,9.14371 13.307491,9.71755 -0.344707,0.0999 -7.004971,-3.50187 -14.800586,-8.00392 z m 197.850731,-6.70234 c -11.19434,-6.46079 -14.75157,-9.12439 -12.18563,-9.12439 0.94435,0 25.26865,13.97199 25.78841,14.81298 1.49474,2.41855 -2.32003,0.82323 -13.60278,-5.68859 z m 358.10378,2.27012 c -5.52786,-1.67522 -8.61587,-6.81525 -8.6265,-14.35892 -0.0124,-8.83538 4.26933,-13.81061 12.27196,-14.25948 4.91822,-0.27587 8.00569,1.06293 10.27086,4.45368 1.9573,2.9299 1.91367,3.84781 -0.20209,4.25226 -1.33409,0.25503 -1.84745,-0.008 -2.28991,-1.17132 -0.31367,-0.82502 -1.42007,-2.17079 -2.45868,-2.99059 -1.5544,-1.22694 -2.50724,-1.4398 -5.38775,-1.20357 -5.72041,0.46913 -8.19978,3.8585 -8.19978,11.20934 0,7.03659 2.39591,10.42762 7.88802,11.16427 3.47103,0.46556 6.46205,-1.15753 8.11928,-4.40598 1.10992,-2.17562 1.57603,-2.52318 3.01492,-2.24812 2.07801,0.39724 2.10583,1.07964 0.18409,4.5149 -2.54144,4.54302 -8.93742,6.75485 -14.58442,5.04353 z m 18.77644,-14.0686 v -14.03899 h 1.67131 1.67131 v 14.03899 14.039 h -1.67131 -1.67131 z m 7.35376,-12.03342 c 0,-1.24322 0.44569,-1.33705 6.35098,-1.33705 5.90529,0 6.35097,0.0938 6.35097,1.33705 0,1.24322 -0.44568,1.33705 -6.35097,1.33705 -5.90529,0 -6.35098,-0.0938 -6.35098,-1.33705 z m -397.10184,-27.5766 c 10e-4,-0.84473 23.20037,-14.54039 24.63002,-14.54039 0.42496,0 0.76884,0.37604 0.76418,0.83565 -0.009,0.84778 -23.19227,14.54039 -24.6191,14.54039 -0.42698,0 -0.77577,-0.37604 -0.7751,-0.83565 z m 28.7453,-33.63568 v -14.41561 l 2.11678,0.20949 c 1.91464,0.18948 2.80847,1.22539 9.35934,10.84702 l 7.24254,10.63753 v -10.80466 -10.80467 h 2.00557 2.00557 v 14.37326 14.37326 h -1.90378 c -1.72027,0 -2.6222,-1.07937 -9.357,-11.19777 l -7.45322,-11.19777 -0.002,11.19777 -0.002,11.19777 h -2.00557 -2.00557 z"
       id="path2" />
  </g>
</svg>
