<?xml version="1.0" encoding="UTF-8" standalone="no"?>
<!-- Created with Inkscape (http://www.inkscape.org/) -->
<svg
   xmlns:dc="http://purl.org/dc/elements/1.1/"
   xmlns:cc="http://web.resource.org/cc/"
   xmlns:rdf="http://www.w3.org/1999/02/22-rdf-syntax-ns#"
   xmlns:svg="http://www.w3.org/2000/svg"
   xmlns="http://www.w3.org/2000/svg"
   xmlns:sodipodi="http://sodipodi.sourceforge.net/DTD/sodipodi-0.dtd"
   xmlns:inkscape="http://www.inkscape.org/namespaces/inkscape"
   version="1.0"
   width="100%"
   height="100%"
   viewBox="0 1 782.12585 782.12585"
   id="svg2"
   xml:space="preserve"
   sodipodi:version="0.32"
   inkscape:version="0.44.1"
   sodipodi:docname="Hydroxypropyltrimonium.svg"
   sodipodi:docbase="C:\Dokumente und Einstellungen\Roland Hieber\Desktop"><metadata
   id="metadata20"><rdf:RDF><cc:Work
       rdf:about=""><dc:format>image/svg+xml</dc:format><dc:type
         rdf:resource="http://purl.org/dc/dcmitype/StillImage" /></cc:Work></rdf:RDF></metadata><sodipodi:namedview
   inkscape:window-height="973"
   inkscape:window-width="1280"
   inkscape:pageshadow="2"
   inkscape:pageopacity="0.0"
   guidetolerance="10.0"
   gridtolerance="10.0"
   objecttolerance="10.0"
   borderopacity="1.0"
   bordercolor="#666666"
   pagecolor="#ffffff"
   id="base"
   inkscape:zoom="0.48201961"
   inkscape:cx="537.99085"
   inkscape:cy="409.46573"
   inkscape:window-x="-4"
   inkscape:window-y="-4"
   inkscape:current-layer="svg2" /><defs
   id="defs84" /><path
   d="M 268.01038,752.16868 C 268.01038,742.54478 270.59438,735.01028 275.76238,729.56548 C 280.93028,724.12068 287.60118,721.39828 295.77508,721.39818 C 301.12758,721.39828 305.95278,722.67708 310.25068,725.23468 C 314.54848,727.79228 317.82458,731.35848 320.07898,735.93308 C 322.33338,740.50788 323.46058,745.69558 323.46058,751.49638 C 323.46058,757.37628 322.27398,762.63648 319.90108,767.27708 C 317.52798,771.91778 314.16608,775.43118 309.81558,777.81738 C 305.46498,780.20368 300.77158,781.39678 295.73548,781.39678 C 290.27748,781.39678 285.39958,780.07838 281.10168,777.44168 C 276.80388,774.80498 273.54748,771.20588 271.33268,766.64428 C 269.11778,762.08278 268.01038,757.25758 268.01038,752.16868 L 268.01038,752.16868 z M 275.92058,752.28738 C 275.92058,759.27468 277.79918,764.77888 281.55658,768.79978 C 285.31388,772.82078 290.02698,774.83128 295.69598,774.83128 C 301.47038,774.83128 306.22298,772.80108 309.95398,768.74048 C 313.68488,764.67998 315.55038,758.91878 315.55048,751.45678 C 315.55038,746.73708 314.75278,742.61728 313.15758,739.09718 C 311.56238,735.57718 309.22888,732.84818 306.15718,730.91018 C 303.08528,728.97228 299.63778,728.00328 295.81458,728.00318 C 290.38298,728.00328 285.70938,729.86868 281.79388,733.59968 C 277.87828,737.33068 275.92058,743.55988 275.92058,752.28738 L 275.92058,752.28738 z "
   style="font-size:81px;fill:black;fill-rule:nonzero;stroke-linecap:round;stroke-linejoin:round;font-family:&quot;Arial&quot;, sans-serif"
   id="path2056" /><path
   d="M 334.58118,780.40798 L 334.58118,722.42658 L 342.25408,722.42658 L 342.25408,746.23608 L 372.39178,746.23608 L 372.39178,722.42658 L 380.06458,722.42658 L 380.06458,780.40798 L 372.39178,780.40798 L 372.39178,753.07838 L 342.25408,753.07838 L 342.25408,780.40798 L 334.58118,780.40798 z "
   style="font-size:81px;fill:black;fill-rule:nonzero;stroke-linecap:round;stroke-linejoin:round;font-family:&quot;Arial&quot;, sans-serif"
   id="path2052" /><path
   d="M 406.01038,34.168721 C 406.01038,24.544739 408.59438,17.010319 413.76238,11.565449 C 418.93028,6.1206786 425.60118,3.3982686 433.77508,3.3982086 C 439.12758,3.3982686 443.95278,4.6770786 448.25068,7.2346386 C 452.54848,9.7923086 455.82458,13.358469 458.07898,17.933129 C 460.33338,22.507869 461.46058,27.695611 461.46058,33.496361 C 461.46058,39.376261 460.27398,44.636511 457.90108,49.277121 C 455.52798,53.917751 452.16608,57.431181 447.81558,59.817401 C 443.46498,62.203631 438.77158,63.396751 433.73548,63.396751 C 428.27748,63.396751 423.39958,62.078391 419.10168,59.441671 C 414.80388,56.804961 411.54748,53.205841 409.33268,48.644311 C 407.11778,44.082801 406.01038,39.257611 406.01038,34.168721 L 406.01038,34.168721 z M 413.92058,34.287371 C 413.92058,41.274701 415.79918,46.778851 419.55658,50.799831 C 423.31388,54.820831 428.02698,56.831331 433.69598,56.831321 C 439.47038,56.831331 444.22298,54.801051 447.95398,50.740501 C 451.68488,46.679971 453.55038,40.918741 453.55048,33.456811 C 453.55038,28.737121 452.75278,24.617249 451.15758,21.097189 C 449.56238,17.577209 447.22888,14.848209 444.15718,12.910179 C 441.08528,10.972239 437.63778,10.003249 433.81458,10.003189 C 428.38298,10.003249 423.70938,11.868719 419.79388,15.599629 C 415.87828,19.330629 413.92058,25.559871 413.92058,34.287371 L 413.92058,34.287371 z "
   style="font-size:81px;fill:black;fill-rule:nonzero;stroke-linecap:round;stroke-linejoin:round;font-family:&quot;Arial&quot;, sans-serif"
   id="path2050" /><path
   d="M 130.01036,36.168721 C 130.01036,26.544741 132.59436,19.010319 137.76236,13.565449 C 142.93026,8.1206786 149.60116,5.3982686 157.77506,5.3982086 C 163.12756,5.3982686 167.95276,6.6770786 172.25066,9.2346386 C 176.54846,11.792309 179.82456,15.358469 182.07896,19.933129 C 184.33336,24.507869 185.46056,29.695611 185.46056,35.496361 C 185.46056,41.376261 184.27396,46.636511 181.90106,51.277121 C 179.52796,55.917751 176.16606,59.431181 171.81556,61.817401 C 167.46496,64.203631 162.77156,65.396751 157.73546,65.396751 C 152.27746,65.396751 147.39956,64.078391 143.10166,61.441671 C 138.80386,58.804961 135.54746,55.205841 133.33266,50.644311 C 131.11776,46.082801 130.01036,41.257611 130.01036,36.168721 L 130.01036,36.168721 z M 137.92056,36.287371 C 137.92056,43.274701 139.79916,48.778851 143.55656,52.799831 C 147.31386,56.820831 152.02696,58.831331 157.69596,58.831321 C 163.47036,58.831331 168.22296,56.801051 171.95396,52.740501 C 175.68486,48.679971 177.55036,42.918741 177.55046,35.456811 C 177.55036,30.737121 176.75276,26.617251 175.15756,23.097189 C 173.56236,19.577209 171.22886,16.848209 168.15716,14.910179 C 165.08526,12.972239 161.63776,12.003249 157.81456,12.003189 C 152.38296,12.003249 147.70936,13.868719 143.79386,17.599629 C 139.87826,21.330629 137.92056,27.559871 137.92056,36.287371 L 137.92056,36.287371 z "
   style="font-size:81px;fill:black;fill-rule:nonzero;stroke-linecap:round;stroke-linejoin:round;font-family:&quot;Arial&quot;, sans-serif"
   id="path2046" /><path
   d="M 590.71398,122.07888 L 598.38688,124.01687 C 596.77838,130.31864 593.88458,135.12405 589.70548,138.43313 C 585.52628,141.74221 580.41758,143.39675 574.37958,143.39675 C 568.13048,143.39675 563.04818,142.12453 559.13268,139.5801 C 555.21718,137.03567 552.23768,133.35086 550.19428,128.52566 C 548.15078,123.70048 547.12908,118.51933 547.12908,112.9822 C 547.12908,106.94415 548.28258,101.67731 550.58978,97.181661 C 552.89688,92.686111 556.17958,89.271561 560.43788,86.938011 C 564.69618,84.604571 569.38298,83.437821 574.49818,83.437771 C 580.29898,83.437821 585.17688,84.914391 589.13198,87.867451 C 593.08698,90.820631 595.84238,94.973461 597.39808,100.32595 L 589.84388,102.10573 C 588.49918,97.887031 586.54798,94.815251 583.99038,92.890401 C 581.43278,90.965651 578.21598,90.003251 574.33998,90.003191 C 569.88388,90.003251 566.15958,91.071121 563.16688,93.206811 C 560.17418,95.342601 558.07138,98.210031 556.85858,101.8091 C 555.64568,105.40826 555.03918,109.11944 555.03918,112.94265 C 555.03918,117.87334 555.75768,122.17778 557.19478,125.85598 C 558.63168,129.53421 560.86638,132.28299 563.89858,134.10232 C 566.93078,135.92166 570.21348,136.83133 573.74678,136.83132 C 578.04458,136.83133 581.68318,135.59207 584.66278,133.11355 C 587.64218,130.63504 589.65928,126.95682 590.71398,122.07888 L 590.71398,122.07888 z "
   style="font-size:81px;fill:black;fill-rule:nonzero;stroke-linecap:round;stroke-linejoin:round;font-family:&quot;Arial&quot;, sans-serif"
   id="path2042" /><path
   d="M 606.58118,142.40798 L 606.58118,84.426531 L 614.25408,84.426531 L 614.25408,108.23611 L 644.39178,108.23611 L 644.39178,84.426531 L 652.06458,84.426531 L 652.06458,142.40798 L 644.39178,142.40798 L 644.39178,115.07839 L 614.25408,115.07839 L 614.25408,142.40798 L 606.58118,142.40798 z "
   style="font-size:81px;fill:black;fill-rule:nonzero;stroke-linecap:round;stroke-linejoin:round;font-family:&quot;Arial&quot;, sans-serif"
   id="text11" /><path
   d="M 293.09488,304.40798 L 408.09488,369.40798"
   style="fill:none;fill-rule:nonzero;stroke:black;stroke-width:6px;stroke-linecap:round;stroke-linejoin:round"
   id="path1981" /><path
   d="M 293.09488,561.40798 L 408.09488,496.40798"
   style="fill:none;fill-rule:nonzero;stroke:black;stroke-width:6px;stroke-linecap:round;stroke-linejoin:round"
   id="path1979" /><path
   d="M 157.09486,513.40798 L 295.09488,592.40798 L 433.09488,513.40798 L 433.09488,354.40798 L 295.09488,273.40798 L 157.09486,354.40798 L 157.09486,513.40798"
   style="fill:none;fill-rule:nonzero;stroke:black;stroke-width:6px;stroke-linecap:round;stroke-linejoin:round"
   id="path1977" /><path
   d="M 184.09486,499.40798 L 184.09486,367.40798"
   style="fill:none;fill-rule:nonzero;stroke:black;stroke-width:6px;stroke-linecap:round;stroke-linejoin:round"
   id="path1975" /><path
   d="M 295.09488,711.40798 L 295.09488,592.40798"
   style="fill:none;fill-rule:nonzero;stroke:black;stroke-width:6px;stroke-linecap:round;stroke-linejoin:round"
   id="path1973" /><path
   d="M 395.09488,56.407981 L 295.09488,114.40798 L 295.09488,273.40798"
   style="fill:none;fill-rule:nonzero;stroke:black;stroke-width:6px;stroke-linecap:round;stroke-linejoin:round"
   id="path1971" /><path
   d="M 197.09486,73.407981 L 287.09488,125.40798"
   style="fill:none;fill-rule:nonzero;stroke:black;stroke-width:6px;stroke-linecap:round;stroke-linejoin:round"
   id="path1969" /><path
   d="M 197.09486,41.407981 L 301.09488,102.40798"
   style="fill:none;fill-rule:nonzero;stroke:black;stroke-width:6px;stroke-linecap:round;stroke-linejoin:round"
   id="path1967" /><path
   d="M 535.09488,92.407981 L 474.09488,58.407981"
   style="fill:none;fill-rule:nonzero;stroke:black;stroke-width:6px;stroke-linecap:round;stroke-linejoin:round"
   id="path29" />





















<path
   transform="translate(-7.466967,-11.73573)"
   style=""
   d="M 666.5,165.8517 L 672.125,165.1017 C 672.77082,168.28921 673.86978,170.58608 675.42188,171.99233 C 676.97395,173.39858 678.86457,174.10171 681.09375,174.1017 C 683.73956,174.10171 685.97394,173.18504 687.79688,171.3517 C 689.61977,169.51838 690.53122,167.24755 690.53125,164.5392 C 690.53122,161.95589 689.68747,159.82568 688,158.14858 C 686.31248,156.47152 684.16665,155.63297 681.5625,155.63295 C 680.49998,155.63297 679.17707,155.84131 677.59375,156.25795 L 678.21875,151.32045 C 678.59374,151.36215 678.89582,151.38298 679.125,151.38295 C 681.52082,151.38298 683.67706,150.75798 685.59375,149.50795 C 687.51039,148.25798 688.46873,146.3309 688.46875,143.7267 C 688.46873,141.66424 687.77081,139.95591 686.375,138.6017 C 684.97915,137.24758 683.17706,136.57049 680.96875,136.57045 C 678.78124,136.57049 676.95832,137.25799 675.5,138.63295 C 674.04166,140.00799 673.10416,142.07049 672.6875,144.82045 L 667.0625,143.82045 C 667.75,140.04966 669.31249,137.12778 671.75,135.05483 C 674.18749,132.98196 677.21874,131.9455 680.84375,131.94545 C 683.34373,131.9455 685.64581,132.48196 687.75,133.55483 C 689.85414,134.62779 691.46351,136.09133 692.57813,137.94545 C 693.69268,139.79966 694.24997,141.76841 694.25,143.8517 C 694.24997,145.8309 693.71872,147.63298 692.65625,149.25795 C 691.59372,150.88298 690.02081,152.17464 687.9375,153.13295 C 690.64581,153.75798 692.74997,155.05485 694.25,157.02358 C 695.74997,158.99235 696.49997,161.45589 696.5,164.4142 C 696.49997,168.41421 695.04164,171.80483 692.125,174.58608 C 689.20831,177.36733 685.52081,178.75795 681.0625,178.75795 C 677.04165,178.75795 673.70312,177.56004 671.04688,175.1642 C 668.39062,172.76837 666.875,169.66421 666.5,165.8517 L 666.5,165.8517 z "
   id="flowRoot2770" /></svg>