<?xml version="1.0" encoding="UTF-8" standalone="no"?>
<!-- Created with Inkscape (http://www.inkscape.org/) -->

<svg
   version="1.1"
   id="svg1"
   width="177.59961"
   height="64.186325"
   viewBox="0 0 177.59962 64.186325"
   sodipodi:docname="NaCl.svg"
   inkscape:version="1.4.2 (f4327f4, 2025-05-13)"
   xmlns:inkscape="http://www.inkscape.org/namespaces/inkscape"
   xmlns:sodipodi="http://sodipodi.sourceforge.net/DTD/sodipodi-0.dtd"
   xmlns="http://www.w3.org/2000/svg"
   xmlns:svg="http://www.w3.org/2000/svg">
  <defs
     id="defs1" />
  <sodipodi:namedview
     id="namedview1"
     pagecolor="#ffffff"
     bordercolor="#000000"
     borderopacity="0.25"
     inkscape:showpageshadow="2"
     inkscape:pageopacity="0.0"
     inkscape:pagecheckerboard="0"
     inkscape:deskcolor="#d1d1d1"
     inkscape:zoom="2.2365197"
     inkscape:cx="151.35123"
     inkscape:cy="136.81972"
     inkscape:window-width="1920"
     inkscape:window-height="1111"
     inkscape:window-x="-9"
     inkscape:window-y="-9"
     inkscape:window-maximized="1"
     inkscape:current-layer="g1" />
  <g
     inkscape:groupmode="layer"
     inkscape:label="Image"
     id="g1"
     transform="translate(0.43397319,-11.401653)">
    <path
       id="path1"
       style="fill:#000000"
       d="M -0.43397319,11.401653 V 41.641887 71.882122 H 3.4058706 7.2457143 V 48.122356 24.36259 L 23.087511,48.122356 38.927355,71.882122 h 4.160156 4.158203 V 41.641887 11.401653 h -3.83789 -3.837891 L 39.487902,35.0872 39.405871,58.7747 23.575792,35.0872 7.7476674,11.401653 H 3.6558706 Z M 137.63634,13.046184 c -5.15872,-0.171452 -10.57366,0.830535 -14.71094,2.916016 -10.37794,5.23122 -15.69571,15.671058 -15.09961,29.642578 0.5601,13.12758 5.89519,22.971505 14.7793,27.265625 2.77607,1.3418 5.14585,2.029262 8.64062,2.507812 3.24872,0.44487 9.15556,0.152851 12.09766,-0.599609 6.66546,-1.70474 12.23658,-6.183034 15.34375,-12.333984 0.9497,-1.88004 2.47852,-6.015202 2.47852,-6.701172 0,-0.19003 -1.61961,-0.761565 -3.59961,-1.271485 -1.98,-0.50992 -3.75416,-0.982581 -3.94336,-1.050781 -0.1892,-0.06825 -0.58654,0.74683 -0.88282,1.8125 -1.84175,6.62443 -6.35871,11.410623 -12.24023,12.970703 -2.4656,0.65391 -7.40949,0.652044 -9.88281,-0.0039 -5.30022,-1.40569 -9.24228,-4.563327 -11.53711,-9.242187 -2.40737,-4.90834 -3.22133,-9.531112 -2.9375,-16.675782 0.31204,-7.85495 2.2584,-13.313876 6.13086,-17.185547 4.25135,-4.25047 11.16335,-6.195586 17.53711,-4.935546 5.90003,1.16639 9.29457,4.210188 12.04101,10.798828 l 0.61719,1.480468 3.73438,-0.890625 c 2.05371,-0.490359 3.79664,-0.95485 3.87304,-1.03125 0.19916,-0.240511 -1.31063,-4.030325 -2.40429,-6.027343 -2.13316,-3.89516 -7.21142,-8.300343 -11.35743,-9.851563 -2.57989,-0.965261 -5.5825,-1.490878 -8.67773,-1.59375 z m 32.16992,0.916016 v 30.240234 30.238281 h 3.67969 3.67969 V 44.202434 13.9622 h -3.67969 z M 78.700792,27.155559 c -0.914127,-0.01281 -1.847932,0.01308 -2.792968,0.08008 -7.89035,0.5594 -13.141575,3.198249 -15.69336,7.886719 -1.211998,2.22684 -2.162586,5.400244 -1.664062,5.552734 1.03585,0.316841 6.602329,0.851893 6.90625,0.664063 0.192341,-0.11887 0.349609,-0.437957 0.349609,-0.710938 0,-0.94212 2.038445,-4.317488 3.177735,-5.261718 1.61737,-1.34046 4.095201,-1.979375 7.701171,-1.984375 4.27774,-0.0055 6.712179,0.735402 8.667969,2.638672 1.65303,1.60864 2.212891,3.272432 2.212891,6.570312 v 1.716797 l -2.951172,0.693359 c -1.62303,0.38104 -5.895211,1.118785 -9.494141,1.640625 -7.13085,1.03397 -9.482323,1.677566 -12.248047,3.353516 -2.297463,1.39219 -3.622012,2.905851 -4.863281,5.550781 -0.879603,1.87429 -0.981634,2.39821 -0.958984,4.97461 0.01583,1.80076 0.216884,3.39158 0.537109,4.24414 1.704376,4.53767 5.875592,7.446579 11.578125,8.074219 6.22029,0.68461 11.965098,-0.889827 16.960938,-4.648438 l 1.919922,-1.443359 0.371093,1.628906 c 0.20388,0.89676 0.544333,2.05298 0.757813,2.56836 l 0.388672,0.9375 h 3.800781 c 2.09064,0 3.800781,-0.07898 3.800781,-0.175782 0,-0.09674 -0.215559,-0.595131 -0.480469,-1.107421 -1.31583,-2.54454 -1.516323,-4.793915 -1.746093,-19.677735 -0.24167,-15.65494 -0.251842,-15.736112 -2.169922,-18.507812 -2.197265,-3.17513 -7.66947,-5.168153 -14.06836,-5.257813 z m 8.603516,23.013672 c 0.300538,-0.01 0.318928,0.673501 0.173828,3.498047 -0.10323,2.00942 -0.424744,4.377999 -0.714844,5.261719 -1.15883,3.53004 -4.49224,6.55503 -8.36914,7.59375 -3.92521,1.05167 -7.327167,0.891603 -9.966797,-0.466797 -3.782905,-1.94675 -4.734047,-6.830213 -1.949219,-10.001953 1.39097,-1.58423 3.532445,-2.323043 9.796875,-3.382813 4.86174,-0.82246 9.141971,-1.793995 10.925781,-2.478515 0.03722,-0.01428 0.07243,-0.02241 0.103516,-0.02344 z" />
  </g>
</svg>
