<?xml version="1.0" encoding="UTF-8" standalone="no"?>
<!-- Created with Inkscape (http://www.inkscape.org/) -->

<svg
   version="1.1"
   id="svg1"
   width="181.21133"
   height="87.360001"
   viewBox="0 0 181.21133 87.36"
   sodipodi:docname="paraffin.svg"
   inkscape:version="1.4.2 (f4327f4, 2025-05-13)"
   xmlns:inkscape="http://www.inkscape.org/namespaces/inkscape"
   xmlns:sodipodi="http://sodipodi.sourceforge.net/DTD/sodipodi-0.dtd"
   xmlns="http://www.w3.org/2000/svg"
   xmlns:svg="http://www.w3.org/2000/svg">
  <defs
     id="defs1" />
  <sodipodi:namedview
     id="namedview1"
     pagecolor="#ffffff"
     bordercolor="#000000"
     borderopacity="0.25"
     inkscape:showpageshadow="2"
     inkscape:pageopacity="0.0"
     inkscape:pagecheckerboard="0"
     inkscape:deskcolor="#d1d1d1"
     showgrid="false"
     inkscape:zoom="4.1691892"
     inkscape:cx="75.434331"
     inkscape:cy="17.02969"
     inkscape:window-width="1920"
     inkscape:window-height="1111"
     inkscape:window-x="-9"
     inkscape:window-y="-9"
     inkscape:window-maximized="1"
     inkscape:current-layer="g1" />
  <g
     inkscape:groupmode="layer"
     inkscape:label="Image"
     id="g1"
     transform="translate(1.4140591,-3.9979666)">
    <path
       style="fill:#000000"
       d="m 143.7755,90.477969 c 0.0956,-0.484 0.64914,-3.292 1.23016,-6.24 l 1.0564,-5.36 h 0.92984 c 0.85536,0 0.91498,0.07433 0.74425,0.927981 l -0.1856,0.92798 1.80677,-1.08798 c 1.96739,-1.184697 3.14082,-1.344155 4.54562,-0.617704 1.6853,0.871499 1.77285,1.957933 0.60039,7.449723 l -1.04184,4.88 h -1.01636 -1.01636 l 0.92649,-4.370463 c 1.02303,-4.825915 1.11146,-5.876559 0.54248,-6.445537 -0.58111,-0.581109 -2.20981,-0.458546 -3.37892,0.254271 -1.81895,1.10903 -2.29686,2.269137 -3.59288,8.721729 -0.35304,1.757683 -0.41329,1.84 -1.34688,1.84 -0.89495,0 -0.96267,-0.07416 -0.80356,-0.88 z M 37.364496,63.532802 37.28174,46.267634 19.521741,56.534959 C 9.7537415,62.181987 1.5120529,66.871503 1.206877,66.956105 -0.50406707,67.430419 -1.9750829,65.789325 -1.2032502,64.267319 -0.91401167,63.696959 4.6437152,60.330201 18.241741,52.48794 L 37.28174,41.50718 37.36432,22.912573 37.4469,4.3179666 h 3.677422 c 3.464088,0 3.677421,0.03713 3.677421,0.64 0,0.574359 -0.213333,0.640001 -2.08,0.640001 h -2.08 V 22.576853 c 0,9.338387 0.108,16.916612 0.24,16.840499 0.132,-0.07611 10.997646,-6.348611 24.145879,-13.938886 13.14823,-7.590274 24.053185,-13.800498 24.23323,-13.800498 0.180045,0 10.916868,6.116251 23.859598,13.59167 12.94274,7.47542 23.81778,13.744486 24.16677,13.93126 0.62903,0.336645 0.63452,0.19116 0.63452,-16.791672 V 5.2779666 h -2.08 c -1.86666,0 -2.08,-0.06564 -2.08,-0.64 0,-0.602872 0.21334,-0.64 3.67745,-0.64 h 3.67744 l 0.0826,18.7627094 0.0825,18.762708 19.2,11.088383 c 18.88832,10.908382 19.20167,11.105572 19.30251,12.147225 0.12567,1.298101 -0.66965,2.283019 -1.8321,2.268868 -0.49485,-0.006 -8.07159,-4.19841 -18.75041,-10.375034 l -17.92,-10.364925 -0.0828,16.935034 -0.0828,16.935034 h -3.6772 c -3.46386,0 -3.6772,-0.03713 -3.6772,-0.64 0,-0.574446 0.21334,-0.64 2.08276,-0.64 h 2.08276 l -0.0828,-17.306818 -0.0828,-17.306819 -23.83999,-13.780409 C 100.80966,22.904698 89.793648,16.651932 89.441648,16.588887 89.03897,16.516767 79.902072,21.622624 64.801649,30.358145 L 40.80165,44.242028 40.71894,61.879999 40.63623,79.517969 h 2.082709 c 1.869376,0 2.082709,0.06555 2.082709,0.64 0,0.602871 -0.213333,0.64 -3.677244,0.64 h -3.677242 z"
       id="path1" />
  </g>
</svg>
