<?xml version="1.0" encoding="UTF-8" standalone="no"?>
<svg
   fill-opacity="1"
   color-rendering="auto"
   color-interpolation="auto"
   stroke="black"
   text-rendering="auto"
   stroke-linecap="square"
   width="325"
   stroke-miterlimit="10"
   stroke-opacity="1"
   shape-rendering="auto"
   fill="black"
   stroke-dasharray="none"
   font-weight="normal"
   stroke-width="1"
   height="195"
   font-family="'Dialog'"
   font-style="normal"
   stroke-linejoin="miter"
   font-size="12"
   stroke-dashoffset="0"
   image-rendering="auto"
   version="1.1"
   id="svg19"
   sodipodi:docname="PEG.svg"
   inkscape:version="1.4.2 (f4327f4, 2025-05-13)"
   xmlns:inkscape="http://www.inkscape.org/namespaces/inkscape"
   xmlns:sodipodi="http://sodipodi.sourceforge.net/DTD/sodipodi-0.dtd"
   xmlns="http://www.w3.org/2000/svg"
   xmlns:svg="http://www.w3.org/2000/svg">
  <sodipodi:namedview
     id="namedview19"
     pagecolor="#ffffff"
     bordercolor="#000000"
     borderopacity="0.25"
     inkscape:showpageshadow="2"
     inkscape:pageopacity="0.0"
     inkscape:pagecheckerboard="0"
     inkscape:deskcolor="#d1d1d1"
     inkscape:zoom="4.3641026"
     inkscape:cx="162.46181"
     inkscape:cy="97.5"
     inkscape:window-width="1920"
     inkscape:window-height="1111"
     inkscape:window-x="-9"
     inkscape:window-y="-9"
     inkscape:window-maximized="1"
     inkscape:current-layer="svg19" />
  <!--Generated by Marvin with Batik SVG Generator
MolSource:
<?xml version="1.0" encoding="windows-1252"?><cml xmlns="http://www.chemaxon.com" xmlns:xsi="http://www.w3.org/2001/XMLSchema-instance" xsi:schemaLocation="http://www.chemaxon.com/marvin/schema/mrvSchema_14_12_01.xsd" version="ChemAxon file format v14.12.01, generated by v16.2.8.0">
<MDocument><MChemicalStruct><molecule molID="m1"><atomArray atomID="a1 a2 a3 a4 a5" elementType="C C O H O" x2="-8.50694465637207 -7.173265534544035 -5.839586412715999 -4.505907290887963 -9.840623778200106" y2="4.456018447875977 5.226018447875976 4.456018447875976 5.226018447875975 5.226018447875977"></atomArray><bondArray><bond id="b1" atomRefs2="a1 a2" order="1"></bond><bond id="b2" atomRefs2="a2 a3" order="1"></bond><bond id="b3" atomRefs2="a3 a4" order="1"></bond><bond id="b4" atomRefs2="a1 a5" order="1"></bond></bondArray></molecule></MChemicalStruct><MTextBox id="o2" color="#000000" toption="NOROT" fontScale="10.0" halign="LEFT" valign="TOP" autoSize="false"><Field name="text"><![CDATA[{D font=SansSerif,size=10}n]]></Field><MPoint x="-4.699073791503906" y="4.131944417953491"></MPoint><MPoint x="-4.057407124837244" y="4.131944417953489"></MPoint><MPoint x="-4.057407124837244" y="2.6347221957312676"></MPoint><MPoint x="-4.699073791503906" y="2.6347221957312676"></MPoint></MTextBox><MBracket id="o3" type="SQUARE" orientation="DOUBLE"><MPoint x="-8.99305534362793" y="6.643518447875977"></MPoint><MPoint x="-5.266203880310059" y="6.643518447875977"></MPoint><MPoint x="-5.266203880310059" y="3.2407407760620117"></MPoint><MPoint x="-8.99305534362793" y="3.2407407760620117"></MPoint></MBracket></MDocument>
</cml>
-->
  <defs
     id="genericDefs" />
  <g
     id="g19">
    <defs
       id="21319528153-defs1">
      <clipPath
         clipPathUnits="userSpaceOnUse"
         id="21319528148-clipPath1">
        <path
           d="M-215.83786010742188 -76.9029769897461 L109.1621322631836 -76.9029769897461 L109.1621322631836 118.0970230102539 L-215.83786010742188 118.0970230102539 L-215.83786010742188 -76.9029769897461 Z"
           id="path1" />
      </clipPath>
      <clipPath
         clipPathUnits="userSpaceOnUse"
         id="21319528299-clipPath1">
        <path
           d="M-278.5435485839844 -41.56586456298828 L46.45646286010742 -41.56586456298828 L46.45646286010742 153.4341278076172 L-278.5435485839844 153.4341278076172 L-278.5435485839844 -41.56586456298828 Z"
           id="path2" />
      </clipPath>
      <clipPath
         clipPathUnits="userSpaceOnUse"
         id="21319528593-clipPath1">
        <path
           d="M-3.9317879676818848 -41.56586456298828 L321.0682067871094 -41.56586456298828 L321.0682067871094 153.4341278076172 L-3.9317879676818848 153.4341278076172 L-3.9317879676818848 -41.56586456298828 Z"
           id="path3" />
      </clipPath>
      <clipPath
         clipPathUnits="userSpaceOnUse"
         id="21319528588-clipPath1">
        <path
           d="M298.8394470214844 48.64203643798828 C304.8935241699219 48.64203643798828 309.8013610839844 53.54985427856445 309.8013610839844 59.60395050048828 L309.8013610839844 81.52777862548828 C309.8013610839844 87.58187866210938 304.8935241699219 92.48969268798828 298.8394470214844 92.48969268798828 L293.2476501464844 92.48969268798828 C287.19354248046875 92.48969268798828 282.2857360839844 87.58187866210938 282.2857360839844 81.52777862548828 L282.2857360839844 59.60395050048828 C282.2857360839844 53.54985427856445 287.19354248046875 48.64203643798828 293.2476501464844 48.64203643798828 ZM62.58120346069336 48.17719268798828 C68.84564208984375 48.17719268798828 73.9239730834961 53.255523681640625 73.9239730834961 59.51996612548828 L73.9239730834961 82.20551300048828 C73.9239730834961 88.46995544433594 68.84564208984375 93.54828643798828 62.58120346069336 93.54828643798828 L18.282373428344727 93.54828643798828 C12.017932891845703 93.54828643798828 6.939600467681885 88.46995544433594 6.939600467681885 82.20551300048828 L6.939600467681885 59.51996612548828 C6.939600467681885 53.255523681640625 12.017932891845703 48.17719268798828 18.282373428344727 48.17719268798828 ZM240.26071166992188 83.5143051147461 C246.52516174316406 83.5143051147461 251.60348510742188 88.59263610839844 251.60348510742188 94.8570785522461 L251.60348510742188 117.5426254272461 C251.60348510742188 123.80706787109375 246.52516174316406 128.88539123535156 240.26071166992188 128.88539123535156 L229.41500854492188 128.88539123535156 C223.15057373046875 128.88539123535156 218.07223510742188 123.80706787109375 218.07223510742188 117.5426254272461 L218.07223510742188 94.8570785522461 C218.07223510742188 88.59263610839844 223.15057373046875 83.5143051147461 229.41500854492188 83.5143051147461 ZM0 0 L0 195 L325 195 L325 0 Z"
           id="path4" />
      </clipPath>
      <clipPath
         clipPathUnits="userSpaceOnUse"
         id="21319528826-clipPath1">
        <path
           d="M0 0 L325 0 L325 195 L0 195 L0 0 Z"
           id="path5" />
      </clipPath>
      <clipPath
         clipPathUnits="userSpaceOnUse"
         id="21319528653-clipPath1">
        <path
           d="M287.14227294921875 120.61748504638672 L293.45855712890625 120.61748504638672 L293.45855712890625 135.0838623046875 L287.14227294921875 135.0838623046875 L287.14227294921875 120.61748504638672 Z"
           id="path6" />
      </clipPath>
    </defs>
    <g
       text-rendering="optimizeLegibility"
       font-size="49"
       shape-rendering="geometricPrecision"
       font-family="'Arial'"
       transform="translate(215.83786469610686,76.90297560467363)"
       id="g6">
      <path
         d="m 2.3686523,30.916992 q 0,-8.73291 4.6894532,-13.661621 4.6894535,-4.952637 12.1064455,-4.952637 4.856933,0 8.756836,2.320801 3.899902,2.320801 5.933593,6.483887 2.057618,4.13916 2.057618,9.402832 0,5.335449 -2.153321,9.546387 -2.15332,4.210937 -6.101074,6.388183 -3.947754,2.153321 -8.517578,2.153321 -4.952637,0 -8.852539,-2.392579 Q 6.3881836,43.812988 4.378418,39.673828 2.3686523,35.534668 2.3686523,30.916992 Z m 4.7851563,0.07178 q 0,6.340332 3.3974614,10.000976 3.421386,3.636719 8.565429,3.636719 5.239746,0 8.613281,-3.68457 3.397461,-3.684571 3.397461,-10.455567 0,-4.282715 -1.459472,-7.464844 -1.435547,-3.206054 -4.234864,-4.952636 -2.77539,-1.770508 -6.244628,-1.770508 -4.928711,0 -8.493653,3.397461 -3.5410154,3.373535 -3.5410154,11.292969 z"
         id="text6"
         clip-path="url(#21319528148-clipPath1)"
         style="stroke:none"
         aria-label="O      " />
    </g>
    <g
       text-rendering="optimizeLegibility"
       font-size="49"
       shape-rendering="geometricPrecision"
       font-family="'Arial'"
       transform="translate(278.5435360788696,41.565864755903846)"
       id="g7">
      <path
         d="M 3.9238281,48 V 12.924805 h 4.6416016 v 14.40332 H 26.796875 v -14.40332 h 4.641602 V 48 H 26.796875 V 31.467285 H 8.5654297 V 48 Z"
         id="text7"
         clip-path="url(#21319528299-clipPath1)"
         style="stroke:none"
         aria-label="H      " />
    </g>
    <g
       text-rendering="optimizeLegibility"
       font-size="49"
       shape-rendering="geometricPrecision"
       font-family="'Arial'"
       transform="translate(3.931788047818766,41.56586475590376)"
       id="g8">
      <path
         d="M 3.9238281,48 V 12.924805 h 4.6416016 v 14.40332 H 26.796875 v -14.40332 h 4.641602 V 48 H 26.796875 V 31.467285 H 8.5654297 V 48 Z M 37.754883,30.916992 q 0,-8.73291 4.689453,-13.661621 4.689453,-4.952637 12.106445,-4.952637 4.856934,0 8.756836,2.320801 3.899903,2.320801 5.933594,6.483887 2.057617,4.13916 2.057617,9.402832 0,5.335449 -2.15332,9.546387 -2.153321,4.210937 -6.101074,6.388183 -3.947754,2.153321 -8.517579,2.153321 -4.952636,0 -8.852539,-2.392579 -3.899902,-2.392578 -5.909668,-6.531738 -2.009765,-4.13916 -2.009765,-8.756836 z m 4.785156,0.07178 q 0,6.340332 3.397461,10.000976 3.421387,3.636719 8.56543,3.636719 5.239746,0 8.613281,-3.68457 3.397461,-3.684571 3.397461,-10.455567 0,-4.282715 -1.459473,-7.464844 -1.435547,-3.206054 -4.234863,-4.952636 -2.775391,-1.770508 -6.244629,-1.770508 -4.928711,0 -8.493652,3.397461 -3.541016,3.373535 -3.541016,11.292969 z"
         id="text8"
         clip-path="url(#21319528593-clipPath1)"
         style="stroke:none"
         aria-label="HO      " />
    </g>
    <g
       text-rendering="optimizeLegibility"
       font-size="49"
       shape-rendering="geometricPrecision"
       font-family="'Arial'"
       id="g9">
      <path
         d="M113.17015075683594 107.19097137451172 L174.37582397460938 71.8538589477539 C175.08731079101562 71.44308471679688 175.33096313476562 70.53372192382812 174.92019653320312 69.82223510742188 C174.50941467285156 69.11075592041016 173.6000518798828 68.8670883178711 172.88856506347656 69.27786254882812 L111.68289947509766 104.61497497558594 C110.9714126586914 105.02574920654297 110.72775268554688 105.93511962890625 111.1385269165039 106.64659881591797 C111.54930114746094 107.35808563232422 112.45866394042969 107.60174560546875 113.17015075683594 107.19097137451172 Z"
         clip-path="url(#21319528588-clipPath1)"
         stroke="none"
         id="path8" />
    </g>
    <g
       text-rendering="optimizeLegibility"
       font-size="49"
       shape-rendering="geometricPrecision"
       font-family="'Arial'"
       id="g10">
      <path
         d="M172.88856506347656 71.85386657714844 L211.55035400390625 94.17525482177734 C212.26182556152344 94.58602905273438 213.17120361328125 94.34236145019531 213.58197021484375 93.6308822631836 C213.9927520751953 92.91939544677734 213.74908447265625 92.0100326538086 213.03759765625 91.59925842285156 L174.37582397460938 69.27787017822266 C173.66433715820312 68.8670883178711 172.75497436523438 69.11075592041016 172.3441925048828 69.82223510742188 C171.9334259033203 70.53372192382812 172.1770782470703 71.44308471679688 172.88856506347656 71.85386657714844 Z"
         clip-path="url(#21319528588-clipPath1)"
         stroke="none"
         id="path9" />
    </g>
    <g
       text-rendering="optimizeLegibility"
       font-size="49"
       shape-rendering="geometricPrecision"
       font-family="'Arial'"
       id="g11">
      <path
         d="M258.1253662109375 94.17525482177734 L277.13372802734375 83.20077514648438 C277.84521484375 82.79000091552734 278.0888671875 81.8806381225586 277.6781005859375 81.16915130615234 C277.267333984375 80.45767211914062 276.35797119140625 80.21400451660156 275.646484375 80.6247787475586 L256.63812255859375 91.59925842285156 C255.92665100097656 92.0100326538086 255.6829833984375 92.91939544677734 256.09375 93.6308822631836 C256.5045166015625 94.34236145019531 257.4139099121094 94.58602905273438 258.1253662109375 94.17525482177734 Z"
         clip-path="url(#21319528588-clipPath1)"
         stroke="none"
         id="path10" />
    </g>
    <g
       text-rendering="optimizeLegibility"
       font-size="49"
       shape-rendering="geometricPrecision"
       font-family="'Arial'"
       id="g12">
      <path
         d="M113.17015075683594 104.61497497558594 L79.49844360351562 85.17461395263672 C78.7869644165039 84.76383972167969 77.87759399414062 85.00749969482422 77.4668197631836 85.71898651123047 C77.05604553222656 86.43046569824219 77.29971313476562 87.33983612060547 78.01119232177734 87.7506103515625 L111.68289947509766 107.19097137451172 C112.39437866210938 107.60174560546875 113.30374145507812 107.35808563232422 113.71452331542969 106.64659881591797 C114.12529754638672 105.93511962890625 113.88162994384766 105.02574920654297 113.17015075683594 104.61497497558594 Z"
         clip-path="url(#21319528588-clipPath1)"
         stroke="none"
         id="path11" />
    </g>
    <g
       text-rendering="optimizeLegibility"
       font-size="10"
       shape-rendering="geometricPrecision"
       font-family="sans-serif"
       transform="matrix(4.907932062329139,1.421085471520209E-14,0,4.907932062329139,-1122.2747363539265,-471.9824291738714)"
       id="g13">
      <path
         d="m 292.64255,131.7755 h -0.91797 v -3.10547 q 0,-0.37598 -0.0439,-0.70313 -0.0439,-0.33203 -0.16113,-0.51757 -0.12207,-0.20508 -0.35156,-0.30274 -0.22949,-0.10254 -0.5957,-0.10254 -0.37598,0 -0.78614,0.18555 -0.41015,0.18555 -0.78613,0.47363 v 4.07227 H 288.082 v -5.4541 h 0.91797 v 0.60546 q 0.42969,-0.35644 0.88867,-0.55664 0.45899,-0.20019 0.94238,-0.20019 0.88379,0 1.34766,0.53223 0.46387,0.53222 0.46387,1.5332 z"
         id="text12"
         clip-path="url(#21319528653-clipPath1)"
         style="stroke:none"
         aria-label="n      " />
    </g>
    <g
       text-rendering="optimizeLegibility"
       stroke-width="2.868272066116333"
       shape-rendering="geometricPrecision"
       id="g18">
      <path
         id="line13"
         clip-path="url(#21319528826-clipPath1)"
         style="fill:none"
         d="M 90.11776,5.5134563 V 161.67493" />
      <path
         id="line14"
         clip-path="url(#21319528826-clipPath1)"
         style="fill:none"
         d="M 90.11776,5.5134563 H 104.2526" />
      <path
         id="line15"
         clip-path="url(#21319528826-clipPath1)"
         style="fill:none"
         d="M 90.11776,161.67493 H 104.2526" />
      <path
         id="line16"
         clip-path="url(#21319528826-clipPath1)"
         style="fill:none"
         d="M 261.15173,161.67493 V 5.5134563" />
      <path
         id="line17"
         clip-path="url(#21319528826-clipPath1)"
         style="fill:none"
         d="M 261.15173,161.67493 H 247.01689" />
      <path
         id="line18"
         clip-path="url(#21319528826-clipPath1)"
         style="fill:none"
         d="M 261.15173,5.5134563 H 247.01689" />
    </g>
  </g>
</svg>
