<?xml version="1.0" encoding="UTF-8" standalone="no"?>
<svg
   color-interpolation="auto"
   color-rendering="auto"
   fill="#000000"
   fill-opacity="1"
   font-family="Dialog"
   font-size="12px"
   font-style="normal"
   font-weight="normal"
   height="170"
   image-rendering="auto"
   shape-rendering="auto"
   stroke="#000000"
   stroke-dasharray="none"
   stroke-dashoffset="0"
   stroke-linecap="square"
   stroke-linejoin="miter"
   stroke-miterlimit="10"
   stroke-opacity="1"
   stroke-width="1"
   text-rendering="auto"
   width="1180"
   version="1.1"
   id="svg25"
   sodipodi:docname="pegcetylether.svg"
   inkscape:version="1.4.2 (f4327f4, 2025-05-13)"
   xmlns:inkscape="http://www.inkscape.org/namespaces/inkscape"
   xmlns:sodipodi="http://sodipodi.sourceforge.net/DTD/sodipodi-0.dtd"
   xmlns="http://www.w3.org/2000/svg"
   xmlns:svg="http://www.w3.org/2000/svg">
  <sodipodi:namedview
     id="namedview1"
     pagecolor="#ffffff"
     bordercolor="#000000"
     borderopacity="0.25"
     inkscape:showpageshadow="2"
     inkscape:pageopacity="0.0"
     inkscape:pagecheckerboard="0"
     inkscape:deskcolor="#d1d1d1"
     inkscape:zoom="1.5415254"
     inkscape:cx="590"
     inkscape:cy="85.305113"
     inkscape:window-width="1920"
     inkscape:window-height="1111"
     inkscape:window-x="-9"
     inkscape:window-y="-9"
     inkscape:window-maximized="1"
     inkscape:current-layer="svg25" />
  <!--Generated by Marvin with Batik SVG Generator-->
  <defs
     id="genericDefs">
    <clipPath
       clipPathUnits="userSpaceOnUse"
       id="13085494739-clipPath1">
      <path
         d="M 0,0 H 1520 V 655 H 0 Z"
         id="path11-7" />
    </clipPath>
    <clipPath
       clipPathUnits="userSpaceOnUse"
       id="clipPath1">
      <path
         d="M 0,0 H 1520 V 655 H 0 Z"
         id="path1-9" />
    </clipPath>
    <clipPath
       clipPathUnits="userSpaceOnUse"
       id="clipPath2">
      <path
         d="M 0,0 H 1520 V 655 H 0 Z"
         id="path2-3" />
    </clipPath>
    <clipPath
       clipPathUnits="userSpaceOnUse"
       id="clipPath3">
      <path
         d="M 0,0 H 1520 V 655 H 0 Z"
         id="path3-8" />
    </clipPath>
    <clipPath
       clipPathUnits="userSpaceOnUse"
       id="clipPath4">
      <path
         d="M 0,0 H 1520 V 655 H 0 Z"
         id="path4-0" />
    </clipPath>
    <clipPath
       clipPathUnits="userSpaceOnUse"
       id="clipPath5">
      <path
         d="M 0,0 H 1520 V 655 H 0 Z"
         id="path5-2" />
    </clipPath>
  </defs>
  <g
     id="g26"
     transform="translate(-28.243902,38.644986)">
    <g
       id="g25">
      <defs
         id="386007785435-defs1">
        <clipPath
           clipPathUnits="userSpaceOnUse"
           id="386007785271-clipPath1">
          <path
             d="M 0,0 H 1240 V 95 H 0 Z"
             id="path1" />
        </clipPath>
        <clipPath
           clipPathUnits="userSpaceOnUse"
           id="386007785152-clipPath1">
          <path
             d="M -1129.528,-36.9745 H 110.4721 v 95 H -1129.528 Z"
             id="path2" />
        </clipPath>
        <clipPath
           clipPathUnits="userSpaceOnUse"
           id="386007785550-clipPath1">
          <path
             d="m -955.3388,-3.4518 h 1240 v 95 h -1240 z"
             id="path3" />
        </clipPath>
      </defs>
      <g
         text-rendering="geometricPrecision"
         id="g4">
        <path
           clip-path="url(#386007785271-clipPath1)"
           d="m 1030.7838,62.7526 v 0 l 58.063,-33.5227 c 0.6749,-0.3896 1.5377,-0.1584 1.9274,0.5164 0.3896,0.6749 0.1584,1.5377 -0.5165,1.9273 v 0 l -58.063,33.5228 c -0.6748,0.3896 -1.5377,0.1584 -1.9274,-0.5165 -0.3895,-0.6748 -0.1583,-1.5377 0.5165,-1.9273 z"
           stroke="none"
           id="path4" />
      </g>
      <g
         text-rendering="geometricPrecision"
         id="g5">
        <path
           clip-path="url(#386007785271-clipPath1)"
           d="m 1090.2577,29.2299 v 0 l 36.4415,21.0395 c 0.6748,0.3896 0.906,1.2525 0.5164,1.9273 -0.3896,0.6748 -1.2525,0.906 -1.9273,0.5164 v 0 l -36.4415,-21.0395 c -0.6748,-0.3896 -0.906,-1.2524 -0.5164,-1.9273 0.3897,-0.6748 1.2525,-0.906 1.9273,-0.5164 z"
           stroke="none"
           id="path5" />
      </g>
      <g
         text-rendering="geometricPrecision"
         id="g6">
        <path
           clip-path="url(#386007785271-clipPath1)"
           d="m 1030.7838,65.1964 v 0 L 994.4011,44.1908 c -0.6748,-0.3896 -0.906,-1.2525 -0.5165,-1.9273 0.3896,-0.6749 1.2525,-0.9061 1.9274,-0.5165 v 0 l 36.3827,21.0056 c 0.6748,0.3896 0.906,1.2525 0.5165,1.9273 -0.3897,0.6749 -1.2526,0.9061 -1.9274,0.5165 z"
           stroke="none"
           id="path6" />
      </g>
      <g
         text-rendering="geometricPrecision"
         id="g7">
        <path
           clip-path="url(#386007785271-clipPath1)"
           d="m 952.4514,44.1908 v 0 l -36.3828,21.0056 c -0.6748,0.3896 -1.5377,0.1584 -1.9273,-0.5165 -0.3896,-0.6748 -0.1584,-1.5377 0.5164,-1.9273 v 0 L 951.0405,41.747 c 0.6748,-0.3896 1.5377,-0.1584 1.9273,0.5165 0.3896,0.6748 0.1584,1.5377 -0.5164,1.9273 z"
           stroke="none"
           id="path7" />
      </g>
      <g
         text-rendering="geometricPrecision"
         id="g8">
        <path
           clip-path="url(#386007785271-clipPath1)"
           d="m 914.6577,65.1964 v 0 l -58.063,-33.5228 c -0.6748,-0.3896 -0.906,-1.2524 -0.5165,-1.9273 0.3897,-0.6748 1.2525,-0.906 1.9274,-0.5164 v 0 l 58.063,33.5227 c 0.6748,0.3896 0.9061,1.2525 0.5164,1.9273 -0.3896,0.6749 -1.2525,0.9061 -1.9273,0.5165 z"
           stroke="none"
           id="path8" />
      </g>
      <g
         text-rendering="geometricPrecision"
         id="g9">
        <path
           clip-path="url(#386007785271-clipPath1)"
           d="m 858.0056,31.6736 v 0 l -58.0631,33.5228 c -0.6748,0.3896 -1.5377,0.1584 -1.9273,-0.5165 -0.3896,-0.6748 -0.1584,-1.5377 0.5164,-1.9273 v 0 l 58.0631,-33.5227 c 0.6748,-0.3896 1.5377,-0.1584 1.9273,0.5164 0.3896,0.6749 0.1584,1.5377 -0.5164,1.9273 z"
           stroke="none"
           id="path9" />
      </g>
      <g
         text-rendering="geometricPrecision"
         id="g10">
        <path
           clip-path="url(#386007785271-clipPath1)"
           d="m 798.5316,65.1964 v 0 l -58.063,-33.5228 c -0.6748,-0.3896 -0.906,-1.2524 -0.5165,-1.9273 0.3897,-0.6748 1.2526,-0.906 1.9274,-0.5164 v 0 l 58.063,33.5227 c 0.6749,0.3896 0.9061,1.2525 0.5164,1.9273 -0.3896,0.6749 -1.2524,0.9061 -1.9273,0.5165 z"
           stroke="none"
           id="path10" />
      </g>
      <g
         text-rendering="geometricPrecision"
         id="g11">
        <path
           clip-path="url(#386007785271-clipPath1)"
           d="m 741.8795,31.6736 v 0 l -58.063,33.5228 c -0.6749,0.3896 -1.5378,0.1584 -1.9274,-0.5165 -0.3896,-0.6748 -0.1584,-1.5377 0.5165,-1.9273 v 0 l 58.063,-33.5227 c 0.6748,-0.3896 1.5377,-0.1584 1.9273,0.5164 0.3896,0.6749 0.1584,1.5377 -0.5164,1.9273 z"
           stroke="none"
           id="path11" />
      </g>
      <g
         text-rendering="geometricPrecision"
         id="g12">
        <path
           clip-path="url(#386007785271-clipPath1)"
           d="m 682.4056,65.1964 v 0 L 624.3425,31.6736 c -0.6748,-0.3896 -0.906,-1.2524 -0.5164,-1.9273 0.3896,-0.6748 1.2525,-0.906 1.9273,-0.5164 v 0 l 58.0631,33.5227 c 0.6748,0.3896 0.906,1.2525 0.5164,1.9273 -0.3897,0.6749 -1.2525,0.9061 -1.9273,0.5165 z"
           stroke="none"
           id="path12" />
      </g>
      <g
         text-rendering="geometricPrecision"
         id="g13">
        <path
           clip-path="url(#386007785271-clipPath1)"
           d="m 625.7534,31.6736 v 0 l -58.063,33.5228 c -0.6748,0.3896 -1.5378,0.1584 -1.9273,-0.5165 -0.3897,-0.6748 -0.1584,-1.5377 0.5164,-1.9273 v 0 l 58.063,-33.5227 c 0.6748,-0.3896 1.5377,-0.1584 1.9273,0.5164 0.3896,0.6749 0.1584,1.5377 -0.5164,1.9273 z"
           stroke="none"
           id="path13" />
      </g>
      <g
         text-rendering="geometricPrecision"
         id="g14">
        <path
           clip-path="url(#386007785271-clipPath1)"
           d="m 566.2795,65.1964 v 0 L 508.2164,31.6736 c -0.6748,-0.3896 -0.906,-1.2524 -0.5164,-1.9273 0.3896,-0.6748 1.2525,-0.906 1.9273,-0.5164 v 0 l 58.0631,33.5227 c 0.6748,0.3896 0.906,1.2525 0.5164,1.9273 -0.3897,0.6749 -1.2525,0.9061 -1.9273,0.5165 z"
           stroke="none"
           id="path14" />
      </g>
      <g
         text-rendering="geometricPrecision"
         id="g15">
        <path
           clip-path="url(#386007785271-clipPath1)"
           d="m 509.6273,31.6736 v 0 l -58.063,33.5228 c -0.6749,0.3896 -1.5377,0.1584 -1.9273,-0.5165 -0.3897,-0.6748 -0.1585,-1.5377 0.5164,-1.9273 v 0 l 58.063,-33.5227 c 0.6748,-0.3896 1.5377,-0.1584 1.9273,0.5164 0.3896,0.6749 0.1584,1.5377 -0.5164,1.9273 z"
           stroke="none"
           id="path15" />
      </g>
      <g
         text-rendering="geometricPrecision"
         id="g16">
        <path
           clip-path="url(#386007785271-clipPath1)"
           d="m 450.1534,65.1964 v 0 L 392.0903,31.6736 c -0.6748,-0.3896 -0.906,-1.2524 -0.5164,-1.9273 0.3896,-0.6748 1.2525,-0.906 1.9273,-0.5164 v 0 l 58.0631,33.5227 c 0.6748,0.3896 0.906,1.2525 0.5164,1.9273 -0.3896,0.6749 -1.2525,0.9061 -1.9273,0.5165 z"
           stroke="none"
           id="path16" />
      </g>
      <g
         text-rendering="geometricPrecision"
         id="g17">
        <path
           clip-path="url(#386007785271-clipPath1)"
           d="m 393.5012,31.6736 v 0 l -58.063,33.5228 c -0.6748,0.3896 -1.5377,0.1584 -1.9273,-0.5165 -0.3896,-0.6748 -0.1584,-1.5377 0.5164,-1.9273 v 0 l 58.063,-33.5227 c 0.6748,-0.3896 1.5377,-0.1584 1.9273,0.5164 0.3897,0.6749 0.1584,1.5377 -0.5164,1.9273 z"
           stroke="none"
           id="path17" />
      </g>
      <g
         text-rendering="geometricPrecision"
         id="g18">
        <path
           clip-path="url(#386007785271-clipPath1)"
           d="m 334.0273,65.1964 v 0 L 275.9642,31.6736 c -0.6748,-0.3896 -0.906,-1.2524 -0.5164,-1.9273 0.3896,-0.6748 1.2525,-0.906 1.9273,-0.5164 v 0 l 58.0631,33.5227 c 0.6748,0.3896 0.906,1.2525 0.5164,1.9273 -0.3896,0.6749 -1.2525,0.9061 -1.9273,0.5165 z"
           stroke="none"
           id="path18" />
      </g>
      <g
         text-rendering="geometricPrecision"
         id="g19">
        <path
           clip-path="url(#386007785271-clipPath1)"
           d="m 277.3751,31.6736 v 0 l -58.063,33.5228 c -0.6748,0.3896 -1.5377,0.1584 -1.9273,-0.5165 -0.3896,-0.6748 -0.1584,-1.5377 0.5164,-1.9273 v 0 l 58.063,-33.5227 c 0.6749,-0.3896 1.5378,-0.1584 1.9273,0.5164 0.3897,0.6749 0.1585,1.5377 -0.5164,1.9273 z"
           stroke="none"
           id="path19" />
      </g>
      <g
         text-rendering="geometricPrecision"
         id="g20">
        <path
           clip-path="url(#386007785271-clipPath1)"
           d="m 217.9012,65.1964 v 0 l -58.063,-33.5228 c -0.6749,-0.3896 -0.9061,-1.2524 -0.5165,-1.9273 0.3896,-0.6748 1.2525,-0.906 1.9274,-0.5164 v 0 l 58.063,33.5227 c 0.6748,0.3896 0.906,1.2525 0.5164,1.9273 -0.3896,0.6749 -1.2525,0.9061 -1.9273,0.5165 z"
           stroke="none"
           id="path20" />
      </g>
      <g
         text-rendering="geometricPrecision"
         id="g21">
        <path
           clip-path="url(#386007785271-clipPath1)"
           d="m 161.2491,31.6736 v 0 L 103.186,65.1964 c -0.6748,0.3896 -1.5377,0.1584 -1.9273,-0.5165 -0.3896,-0.6748 -0.1584,-1.5377 0.5164,-1.9273 v 0 l 58.0631,-33.5227 c 0.6748,-0.3896 1.5377,-0.1584 1.9273,0.5164 0.3896,0.6749 0.1584,1.5377 -0.5164,1.9273 z"
           stroke="none"
           id="path21" />
      </g>
      <g
         text-rendering="geometricPrecision"
         id="g22">
        <path
           clip-path="url(#386007785271-clipPath1)"
           d="m 101.7751,65.1964 v 0 L 43.7121,31.6736 c -0.6748,-0.3896 -0.9061,-1.2524 -0.5165,-1.9273 0.3897,-0.6748 1.2525,-0.906 1.9274,-0.5164 v 0 l 58.063,33.5227 c 0.6748,0.3896 0.906,1.2525 0.5164,1.9273 -0.3896,0.6749 -1.2525,0.9061 -1.9273,0.5165 z"
           stroke="none"
           id="path22" />
      </g>
      <g
         font-family="Arial"
         font-size="46px"
         text-rendering="geometricPrecision"
         transform="translate(1129.5279,36.9745)"
         id="g23">
        <path
           d="m 2.2236328,27.962891 q 0,-8.198243 4.4023438,-12.825196 4.4023434,-4.649414 11.3652344,-4.649414 4.55957,0 8.220703,2.178711 3.661133,2.178711 5.570313,6.086914 1.93164,3.885742 1.93164,8.827149 0,5.008789 -2.021484,8.961914 -2.021485,3.953125 -5.727539,5.99707 -3.706055,2.021484 -7.996094,2.021484 -4.649414,0 -8.3105469,-2.246093 Q 5.9970703,40.069336 4.1103516,36.183594 2.2236328,32.297852 2.2236328,27.962891 Z m 4.4921875,0.06738 q 0,5.952149 3.1894531,9.388672 3.2119146,3.414063 8.0410156,3.414063 4.918945,0 8.085938,-3.458985 3.189453,-3.458984 3.189453,-9.815429 0,-4.020508 -1.370118,-7.007813 -1.347656,-3.009765 -3.975585,-4.649414 -2.605469,-1.662109 -5.862305,-1.662109 -4.626953,0 -7.973633,3.189453 -3.3242187,3.166992 -3.3242187,10.601562 z M 39.463867,44 V 11.072266 h 4.357422 V 24.59375 H 60.936523 V 11.072266 h 4.357422 V 44 H 60.936523 V 28.479492 H 43.821289 V 44 Z"
           id="text22"
           clip-path="url(#386007785152-clipPath1)"
           style="stroke:none"
           aria-label="OH" />
      </g>
      <g
         font-family="Arial"
         font-size="46px"
         text-rendering="geometricPrecision"
         transform="translate(955.3388,3.4518)"
         id="g24">
        <path
           d="m 2.2236328,27.962891 q 0,-8.198243 4.4023438,-12.825196 4.4023434,-4.649414 11.3652344,-4.649414 4.55957,0 8.220703,2.178711 3.661133,2.178711 5.570313,6.086914 1.93164,3.885742 1.93164,8.827149 0,5.008789 -2.021484,8.961914 -2.021485,3.953125 -5.727539,5.99707 -3.706055,2.021484 -7.996094,2.021484 -4.649414,0 -8.3105469,-2.246093 Q 5.9970703,40.069336 4.1103516,36.183594 2.2236328,32.297852 2.2236328,27.962891 Z m 4.4921875,0.06738 q 0,5.952149 3.1894531,9.388672 3.2119146,3.414063 8.0410156,3.414063 4.918945,0 8.085938,-3.458985 3.189453,-3.458984 3.189453,-9.815429 0,-4.020508 -1.370118,-7.007813 -1.347656,-3.009765 -3.975585,-4.649414 -2.605469,-1.662109 -5.862305,-1.662109 -4.626953,0 -7.973633,3.189453 -3.3242187,3.166992 -3.3242187,10.601562 z"
           id="text23"
           clip-path="url(#386007785550-clipPath1)"
           style="stroke:none"
           aria-label="O" />
      </g>
    </g>
    <g
       text-rendering="geometricPrecision"
       stroke-width="5.6109"
       font-size="49px"
       font-weight="bold"
       font-family="Arial"
       id="g55"
       transform="matrix(0.5221471,0,0,0.5221471,661.65335,-222.72334)">
      <path
         style="font-weight:normal;font-size:medium;baseline-shift:baseline;display:inline;overflow:visible;color-interpolation:sRGB;vector-effect:none;stroke:none;stroke-linecap:butt;text-rendering:auto;enable-background:accumulate;stop-color:#000000;stop-opacity:1;opacity:1"
         d="m 529.01758,382.67383 v 2.80664 258.10156 2.80469 h 5.60937 v -2.80469 -258.10156 -2.80664 z"
         id="line43" />
      <path
         style="font-weight:normal;font-size:medium;baseline-shift:baseline;display:inline;overflow:visible;color-interpolation:sRGB;vector-effect:none;stroke:none;stroke-linecap:butt;text-rendering:auto;enable-background:accumulate;stop-color:#000000;stop-opacity:1;opacity:1"
         d="m 529.01758,382.67383 v 5.61133 h 2.80469 14.2207 2.80469 v -5.61133 h -2.80469 -14.2207 z"
         id="line45" />
      <path
         style="font-weight:normal;font-size:medium;baseline-shift:baseline;display:inline;overflow:visible;color-interpolation:sRGB;vector-effect:none;stroke:none;stroke-linecap:butt;text-rendering:auto;enable-background:accumulate;stop-color:#000000;stop-opacity:1;opacity:1"
         d="m 529.01758,640.77734 v 5.60938 h 2.80469 14.2207 2.80469 v -5.60938 h -2.80469 -14.2207 z"
         id="line47" />
      <path
         style="font-weight:normal;font-size:medium;baseline-shift:baseline;display:inline;overflow:visible;color-interpolation:sRGB;vector-effect:none;stroke:none;stroke-linecap:butt;text-rendering:auto;enable-background:accumulate;stop-color:#000000;stop-opacity:1;opacity:1"
         d="m 846.96875,382.67383 v 2.80664 258.10156 2.80469 h 5.61133 v -2.80469 -258.10156 -2.80664 z"
         id="line49" />
      <path
         style="font-weight:normal;font-size:medium;baseline-shift:baseline;display:inline;overflow:visible;color-interpolation:sRGB;vector-effect:none;stroke:none;stroke-linecap:butt;text-rendering:auto;enable-background:accumulate;stop-color:#000000;stop-opacity:1;opacity:1"
         d="m 832.75,640.77734 v 5.60938 h 2.80469 14.2207 2.80469 v -5.60938 h -2.80469 -14.2207 z"
         id="line51" />
      <path
         style="font-weight:normal;font-size:medium;baseline-shift:baseline;display:inline;overflow:visible;color-interpolation:sRGB;vector-effect:none;stroke:none;stroke-linecap:butt;text-rendering:auto;enable-background:accumulate;stop-color:#000000;stop-opacity:1;opacity:1"
         d="m 832.75,382.67383 v 5.61133 h 2.80469 14.2207 2.80469 v -5.61133 h -2.80469 -14.2207 z"
         id="line53" />
    </g>
    <g
       id="text25"
       style="opacity:1">
      <path
         style="font-style:italic;font-size:29.3333px;font-family:Arial;-inkscape-font-specification:'Arial, Italic';baseline-shift:baseline;display:inline;overflow:visible;color-interpolation:sRGB;vector-effect:none;fill:#1a1a1a;stroke:none;stroke-linecap:butt;enable-background:accumulate;stop-color:#000000;stop-opacity:1"
         d="m 1114.9577,119.29539 3.1797,-15.21092 h 2.349 l -0.5586,2.64973 q 1.5325,-1.56119 2.8645,-2.27734 1.3321,-0.71614 2.7214,-0.71614 1.8477,0 2.8932,1.0026 1.0599,1.0026 1.0599,2.67838 0,0.84505 -0.3724,2.66406 l -1.9336,9.20963 h -2.5924 l 2.0195,-9.63931 q 0.3008,-1.40365 0.3008,-2.07683 0,-0.75911 -0.5299,-1.23176 -0.5157,-0.47266 -1.504,-0.47266 -1.9908,0 -3.552,1.43229 -1.5469,1.43229 -2.2774,4.91275 l -1.4752,7.07552 z"
         id="path27" />
      <path
         style="font-style:italic;font-size:29.3333px;font-family:Arial;-inkscape-font-specification:'Arial, Italic';baseline-shift:baseline;display:inline;overflow:visible;color-interpolation:sRGB;vector-effect:none;stroke:none;stroke-linecap:butt;enable-background:accumulate;stop-color:#000000;stop-opacity:1"
         d="m 1125.5137,103.24023 c -1.0121,0 -2.0071,0.26364 -2.959,0.7754 -0.5902,0.3173 -1.228,0.93932 -1.8516,1.4707 l 0.4004,-1.90235 h -3.373 l -3.3887,16.21094 h 3.6152 l 1.5586,-7.47265 c 0.4753,-2.26437 1.2151,-3.8041 2.127,-4.64844 0.9622,-0.88193 2.0065,-1.29883 3.2129,-1.29883 0.5791,0 0.9395,0.13419 1.166,0.3418 l 0,0.002 0,0.002 c 0.254,0.22659 0.3633,0.46965 0.3633,0.85938 0,0.37431 -0.092,1.05095 -0.2891,1.9707 v 0.002 l -2.1465,10.24219 h 3.6133 l 2.0176,-9.60742 v -0.002 c 0.2513,-1.22758 0.3828,-2.12686 0.3828,-2.76367 0,-1.22261 -0.4092,-2.27705 -1.2168,-3.04102 -0.803,-0.7682 -1.9158,-1.14063 -3.2363,-1.14063 z m 0,1 c 1.1413,0 1.9561,0.29673 2.5468,0.86329 l 0,0.002 v 0.002 c 0.6056,0.57283 0.9043,1.30268 0.9043,2.31446 0,0.48991 -0.1161,1.36668 -0.3613,2.56445 l -1.8516,8.80859 h -1.5684 l 1.8907,-9.0332 c 0.2039,-0.95178 0.3125,-1.65838 0.3125,-2.18164 0,-0.6215 -0.2441,-1.19999 -0.6953,-1.60352 -0.4609,-0.42059 -1.101,-0.60156 -1.8379,-0.60156 -1.4471,0 -2.7718,0.53802 -3.8907,1.56445 h -0 c -1.1506,1.06538 -1.929,2.80149 -2.4277,5.17774 l -1.3907,6.67773 h -1.5703 l 2.9688,-14.21094 h 1.3281 l -0.7852,3.72266 1.1993,-1.22266 c 0.9977,-1.01638 1.9191,-1.74395 2.7441,-2.1875 0.8242,-0.44309 1.6441,-0.65625 2.4844,-0.65625 z"
         id="path28" />
    </g>
  </g>
</svg>
