<?xml version="1.0" encoding="UTF-8" standalone="no"?>
<svg
   xmlns:dc="http://purl.org/dc/elements/1.1/"
   xmlns:cc="http://creativecommons.org/ns#"
   xmlns:rdf="http://www.w3.org/1999/02/22-rdf-syntax-ns#"
   xmlns:svg="http://www.w3.org/2000/svg"
   xmlns="http://www.w3.org/2000/svg"
   xmlns:sodipodi="http://sodipodi.sourceforge.net/DTD/sodipodi-0.dtd"
   xmlns:inkscape="http://www.inkscape.org/namespaces/inkscape"
   viewBox="82.48 175.45 88.12 45.55"
   preserveAspectRatio="xMidYMid"
   width="100%"
   height="100%"
   id="svg2"
   version="1.1"
   inkscape:version="0.48.1 "
   sodipodi:docname="Phenylmercuric nitrate.svg">
  <metadata
     id="metadata105">
    <rdf:RDF>
      <cc:Work
         rdf:about="">
        <dc:format>image/svg+xml</dc:format>
        <dc:type
           rdf:resource="http://purl.org/dc/dcmitype/StillImage" />
      </cc:Work>
    </rdf:RDF>
  </metadata>
  <defs
     id="defs103" />
  <sodipodi:namedview
     pagecolor="#ffffff"
     bordercolor="#666666"
     borderopacity="1"
     objecttolerance="10"
     gridtolerance="10"
     guidetolerance="10"
     inkscape:pageopacity="0"
     inkscape:pageshadow="2"
     inkscape:window-width="640"
     inkscape:window-height="480"
     id="namedview101"
     showgrid="false"
     inkscape:zoom="5.6641054"
     inkscape:cx="44.06"
     inkscape:cy="22.775"
     inkscape:window-x="0"
     inkscape:window-y="0"
     inkscape:window-maximized="0"
     inkscape:current-layer="svg2" />
  <clipPath
     id="38">
    <rect
       x="0.3"
       y="0.3"
       width="539.4"
       height="719.15"
       id="rect5" />
  </clipPath>
  <g
     id="drawing"
     transform="matrix(0.98397182,0,0,0.98397182,2.0282056,3.1771854)">
    <path
       style="fill:#ffffff;fill-opacity:0"
       d="m 82.480003,175.45 88.120007,0 0,45.55 -88.120007,0 z"
       id="rect8"
       inkscape:connector-curvature="0" />
    <g
       id="page"
       clip-path="url(#38)">
      <g
         id="Solid">
        <path
           d="m 82.48,198.88 0,0 0.3,0.17 0.3,0.17 0,14.06 -0.3,0.17 -0.3,0.17 z"
           shape-rendering="geometricPrecision"
           id="path12"
           inkscape:connector-curvature="0"
           style="fill:#000000;fill-rule:evenodd;stroke:#000000;stroke-width:0;stroke-linejoin:miter" />
        <path
           style="stroke:#000000;stroke-width:0.60000002"
           d="m 85.370003,200.55 0,11.4"
           id="line14"
           inkscape:connector-curvature="0" />
      </g>
      <g
         id="g16">
        <path
           d="m 82.48,213.62 0,0 0.3,-0.17 0.3,-0.17 12.17,7.02 0,0.35 0,0.35 z"
           shape-rendering="geometricPrecision"
           id="path18"
           inkscape:connector-curvature="0"
           style="fill:#000000;fill-rule:evenodd;stroke:#000000;stroke-width:0;stroke-linejoin:miter" />
      </g>
      <g
         id="g20">
        <path
           d="m 95.25,221 0,0 0,-0.35 0,-0.35 12.17,-7.02 0.3,0.17 0.3,0.17 z"
           shape-rendering="geometricPrecision"
           id="path22"
           inkscape:connector-curvature="0"
           style="fill:#000000;fill-rule:evenodd;stroke:#000000;stroke-width:0;stroke-linejoin:miter" />
        <path
           style="stroke:#000000;stroke-width:0.60000002"
           d="m 95.25,217.66 9.88,-5.71"
           id="line24"
           inkscape:connector-curvature="0" />
      </g>
      <g
         id="g26">
        <path
           d="m 108.02,213.62 0,0 -0.3,-0.17 -0.3,-0.17 0,-14.06 0.3,-0.17 0.3,0.17 z"
           shape-rendering="geometricPrecision"
           id="path28"
           inkscape:connector-curvature="0"
           style="fill:#000000;fill-rule:evenodd;stroke:#000000;stroke-width:0;stroke-linejoin:miter" />
      </g>
      <g
         id="g30">
        <path
           d="m 107.72,198.7 0,0 0,0.35 -0.3,0.17 -12.17,-7.02 0,-0.35 0,-0.35 z"
           shape-rendering="geometricPrecision"
           id="path32"
           inkscape:connector-curvature="0"
           style="fill:#000000;fill-rule:evenodd;stroke:#000000;stroke-width:0;stroke-linejoin:miter" />
        <path
           style="stroke:#000000;stroke-width:0.60000002"
           d="m 105.13,200.55 -9.88,-5.71"
           id="line34"
           inkscape:connector-curvature="0" />
      </g>
      <g
         id="g36">
        <path
           d="m 95.25,191.5 0,0 0,0.35 0,0.35 -12.17,7.02 -0.3,-0.17 -0.3,-0.17 z"
           shape-rendering="geometricPrecision"
           id="path38"
           inkscape:connector-curvature="0"
           style="fill:#000000;fill-rule:evenodd;stroke:#000000;stroke-width:0;stroke-linejoin:miter" />
      </g>
      <g
         id="g40">
        <g
           style="text-anchor:middle"
           id="text42">
          <path
             d="m 117.5543,193.32001 0,-7.15821 0.94726,0 0,2.93946 3.72071,0 0,-2.93946 0.94726,0 0,7.15821 -0.94726,0 0,-3.37403 -3.72071,0 0,3.37403 z"
             style="font-size:10px;fill:#000000;font-family:Arial"
             id="path3087"
             inkscape:connector-curvature="0" />
          <path
             d="m 124.47813,193.74969 0.85449,0.12696 c 0.0358,0.26367 0.13509,0.45573 0.29785,0.57617 0.2181,0.16276 0.51595,0.24414 0.89355,0.24414 0.4069,0 0.72103,-0.0814 0.94239,-0.24414 0.22135,-0.16276 0.37109,-0.39063 0.44922,-0.68359 0.0456,-0.17904 0.0667,-0.55502 0.0635,-1.12793 -0.38412,0.45247 -0.86263,0.67871 -1.43554,0.67871 -0.7129,0 -1.26465,-0.25716 -1.65528,-0.77149 -0.39062,-0.51432 -0.58594,-1.13118 -0.58593,-1.85058 -1e-5,-0.49479 0.0895,-0.95133 0.26855,-1.36963 0.17904,-0.41829 0.43864,-0.74137 0.77881,-0.96924 0.34017,-0.22786 0.73974,-0.34179 1.19873,-0.3418 0.61198,1e-5 1.11653,0.2474 1.51367,0.74219 l 0,-0.625 0.81055,0 0,4.48242 c -1e-5,0.80729 -0.0822,1.3794 -0.24658,1.71631 -0.1644,0.33691 -0.42481,0.60303 -0.78125,0.79834 -0.35645,0.19531 -0.79509,0.29297 -1.31592,0.29297 -0.61849,0 -1.11817,-0.13916 -1.49903,-0.41748 -0.38086,-0.27832 -0.56477,-0.69743 -0.55175,-1.25733 z m 0.72754,-3.11523 c -1e-5,0.68034 0.13509,1.17676 0.40527,1.48926 0.27018,0.3125 0.60872,0.46875 1.01562,0.46875 0.40365,0 0.74219,-0.15544 1.01563,-0.46631 0.27343,-0.31087 0.41015,-0.79834 0.41016,-1.4624 -1e-5,-0.63477 -0.1408,-1.11328 -0.42237,-1.43555 -0.28158,-0.32226 -0.62093,-0.48339 -1.01806,-0.4834 -0.39063,1e-5 -0.72266,0.1587 -0.9961,0.47608 -0.27344,0.31738 -0.41016,0.78857 -0.41015,1.41357 z"
             style="font-size:10px;fill:#000000;font-family:Arial"
             id="path3089"
             inkscape:connector-curvature="0" />
        </g>
      </g>
      <g
         id="g46">
        <path
           d="m 108.02,199.22 0,0 -0.3,-0.17 0,-0.35 8.36,-5.1 0.15,0.25 0.16,0.26 z"
           shape-rendering="geometricPrecision"
           id="path48"
           inkscape:connector-curvature="0"
           style="fill:#000000;fill-rule:evenodd;stroke:#000000;stroke-width:0;stroke-linejoin:miter" />
      </g>
      <g
         id="g50">
        <g
           style="text-anchor:start"
           id="text52">
          <path
             d="m 135.94341,180.36368 c -1e-5,-1.18815 0.319,-2.11832 0.95703,-2.79053 0.63802,-0.67219 1.46158,-1.00829 2.4707,-1.0083 0.6608,1e-5 1.2565,0.15788 1.78711,0.47363 0.53059,0.31576 0.93505,0.75603 1.21338,1.3208 0.27831,0.56479 0.41747,1.20525 0.41748,1.92139 -1e-5,0.72591 -0.14649,1.37533 -0.43945,1.94824 -0.29298,0.57292 -0.70802,1.00668 -1.24512,1.30127 -0.53712,0.2946 -1.11654,0.4419 -1.73828,0.4419 -0.67383,0 -1.27605,-0.16276 -1.80664,-0.48828 -0.5306,-0.32552 -0.93262,-0.76986 -1.20606,-1.33301 -0.27344,-0.56315 -0.41016,-1.15885 -0.41015,-1.78711 z m 0.97656,0.0147 c 0,0.86263 0.23193,1.54215 0.6958,2.03857 0.46386,0.49642 1.04573,0.74463 1.7456,0.74463 0.71289,0 1.29964,-0.25065 1.76026,-0.75195 0.4606,-0.5013 0.69091,-1.21257 0.69092,-2.13379 -10e-6,-0.58268 -0.0985,-1.09131 -0.29541,-1.52588 -0.19695,-0.43457 -0.48504,-0.77148 -0.86426,-1.01074 -0.37924,-0.23926 -0.80486,-0.35888 -1.27686,-0.35889 -0.67057,1e-5 -1.24756,0.23031 -1.73095,0.69092 -0.4834,0.46061 -0.7251,1.22966 -0.7251,2.30713 z"
             style="font-size:10px;fill:#000000;font-family:Arial"
             id="path3092"
             inkscape:connector-curvature="0" />
        </g>
      </g>
      <g
         id="g56">
        <path
           d="m 127.31,187.55 0,0 -0.15,-0.26 -0.15,-0.25 7.66,-4.47 0.15,0.26 0.15,0.26 z"
           shape-rendering="geometricPrecision"
           id="path58"
           inkscape:connector-curvature="0"
           style="fill:#000000;fill-rule:evenodd;stroke:#000000;stroke-width:0;stroke-linejoin:miter" />
      </g>
      <g
         id="g60">
        <g
           style="text-anchor:start"
           id="text62">
          <path
             d="m 149.01172,190.95 0,-7.15821 0.97168,0 3.75976,5.62012 0,-5.62012 0.90821,0 0,7.15821 -0.97168,0 -3.75977,-5.625 0,5.625 z"
             style="font-size:10px;fill:#000000;font-family:Arial"
             id="path3095"
             inkscape:connector-curvature="0" />
        </g>
      </g>
      <g
         id="g66">
        <path
           d="m 143.84,183.1 0,0 0.15,-0.26 0.15,-0.25 3.72,2.15 -0.15,0.26 -0.15,0.26 z"
           shape-rendering="geometricPrecision"
           id="path68"
           inkscape:connector-curvature="0"
           style="fill:#000000;fill-rule:evenodd;stroke:#000000;stroke-width:0;stroke-linejoin:miter" />
      </g>
      <g
         id="g70">
        <g
           style="text-anchor:start"
           id="text72">
          <path
             d="m 160.88339,180.36368 c 0,-1.18815 0.31901,-2.11832 0.95703,-2.79053 0.63802,-0.67219 1.46159,-1.00829 2.47071,-1.0083 0.6608,1e-5 1.2565,0.15788 1.78711,0.47363 0.53059,0.31576 0.93505,0.75603 1.21337,1.3208 0.27832,0.56479 0.41748,1.20525 0.41749,1.92139 -10e-6,0.72591 -0.1465,1.37533 -0.43946,1.94824 -0.29297,0.57292 -0.70801,1.00668 -1.24511,1.30127 -0.53712,0.2946 -1.11655,0.4419 -1.73829,0.4419 -0.67383,0 -1.27604,-0.16276 -1.80664,-0.48828 -0.5306,-0.32552 -0.93262,-0.76986 -1.20605,-1.33301 -0.27344,-0.56315 -0.41016,-1.15885 -0.41016,-1.78711 z m 0.97656,0.0147 c 0,0.86263 0.23194,1.54215 0.69581,2.03857 0.46386,0.49642 1.04573,0.74463 1.7456,0.74463 0.71289,0 1.29964,-0.25065 1.76025,-0.75195 0.46061,-0.5013 0.69092,-1.21257 0.69092,-2.13379 0,-0.58268 -0.0985,-1.09131 -0.29541,-1.52588 -0.19694,-0.43457 -0.48503,-0.77148 -0.86426,-1.01074 -0.37923,-0.23926 -0.80485,-0.35888 -1.27685,-0.35889 -0.67058,1e-5 -1.24756,0.23031 -1.73096,0.69092 -0.4834,0.46061 -0.7251,1.22966 -0.7251,2.30713 z"
             style="font-size:10px;fill:#000000;font-family:Arial"
             id="path3098"
             inkscape:connector-curvature="0" />
          <path
             d="m 168.41147,178.16868 0,-0.66284 2.02514,0 0,0.66284 z"
             style="font-size:7.5px;fill:#000000;font-family:Arial"
             id="path3100"
             inkscape:connector-curvature="0" />
        </g>
      </g>
      <g
         id="g78">
        <path
           d="m 156.24,185.19 0,0 -0.15,-0.26 -0.15,-0.26 3.72,-2.15 0.15,0.26 0.15,0.26 z"
           shape-rendering="geometricPrecision"
           id="path80"
           inkscape:connector-curvature="0"
           style="fill:#000000;fill-rule:evenodd;stroke:#000000;stroke-width:0;stroke-linejoin:miter" />
      </g>
      <g
         id="g82">
        <g
           style="text-anchor:start"
           id="text84">
          <path
             d="m 148.41339,201.96367 c 0,-1.18815 0.31901,-2.11832 0.95703,-2.79053 0.63802,-0.67219 1.46159,-1.00829 2.47071,-1.0083 0.6608,1e-5 1.2565,0.15789 1.7871,0.47363 0.5306,0.31577 0.93506,0.75603 1.21338,1.3208 0.27832,0.56479 0.41748,1.20525 0.41748,1.92139 0,0.72592 -0.14649,1.37533 -0.43945,1.94824 -0.29297,0.57292 -0.70801,1.00668 -1.24512,1.30127 -0.53711,0.2946 -1.11654,0.4419 -1.73828,0.4419 -0.67383,0 -1.27604,-0.16276 -1.80664,-0.48828 -0.5306,-0.32552 -0.93262,-0.76986 -1.20605,-1.33301 -0.27344,-0.56315 -0.41016,-1.15885 -0.41016,-1.78711 z m 0.97656,0.0146 c 0,0.86263 0.23194,1.54215 0.6958,2.03857 0.46387,0.49642 1.04574,0.74463 1.74561,0.74463 0.71289,0 1.29964,-0.25065 1.76025,-0.75195 0.46061,-0.5013 0.69092,-1.21257 0.69092,-2.13379 0,-0.58268 -0.0985,-1.09131 -0.29541,-1.52588 -0.19694,-0.43457 -0.48503,-0.77148 -0.86426,-1.01074 -0.37923,-0.23925 -0.80485,-0.35888 -1.27685,-0.35889 -0.67058,1e-5 -1.24756,0.23031 -1.73096,0.69092 -0.4834,0.46062 -0.7251,1.22966 -0.7251,2.30713 z"
             style="font-size:10px;fill:#000000;font-family:Arial"
             id="path3103"
             inkscape:connector-curvature="0" />
        </g>
      </g>
      <g
         id="g88">
        <path
           style="stroke:#000000;stroke-width:0.60000002"
           d="m 153.14,192.60001 0,4"
           id="line90"
           inkscape:connector-curvature="0" />
        <path
           d="m 150.84,192.6 0,0 -0.6,0 0,4 0.6,0 z"
           shape-rendering="geometricPrecision"
           id="path92"
           inkscape:connector-curvature="0"
           style="fill:#000000;fill-rule:evenodd;stroke:#000000;stroke-width:0;stroke-linejoin:miter" />
        <path
           d="m 153.44,192.6 0,0 -0.6,0 0,4 0.6,0 z"
           shape-rendering="geometricPrecision"
           id="path94"
           inkscape:connector-curvature="0"
           style="fill:#000000;fill-rule:evenodd;stroke:#000000;stroke-width:0;stroke-linejoin:miter" />
      </g>
      <g
         id="Charge36">
        <path
           style="stroke:#000000;stroke-width:0.47999999"
           d="m 149.88,179.92999 3.94001,0"
           id="line97"
           inkscape:connector-curvature="0" />
        <path
           style="stroke:#000000;stroke-width:0.47999999"
           d="m 151.85001,177.96001 0,3.93998"
           id="line99"
           inkscape:connector-curvature="0" />
      </g>
    </g>
  </g>
</svg>
