<?xml version="1.0" encoding="UTF-8" standalone="no"?>
<!-- Created with Inkscape (http://www.inkscape.org/) -->

<svg
   version="1.1"
   id="svg1"
   width="1477"
   height="728"
   viewBox="0 0 1477 728"
   sodipodi:docname="phenylmercuricborate.svg"
   inkscape:version="1.4.2 (f4327f4, 2025-05-13)"
   xmlns:inkscape="http://www.inkscape.org/namespaces/inkscape"
   xmlns:sodipodi="http://sodipodi.sourceforge.net/DTD/sodipodi-0.dtd"
   xmlns="http://www.w3.org/2000/svg"
   xmlns:svg="http://www.w3.org/2000/svg">
  <defs
     id="defs1" />
  <sodipodi:namedview
     id="namedview1"
     pagecolor="#ffffff"
     bordercolor="#000000"
     borderopacity="0.25"
     inkscape:showpageshadow="2"
     inkscape:pageopacity="0.0"
     inkscape:pagecheckerboard="0"
     inkscape:deskcolor="#d1d1d1"
     showgrid="false"
     inkscape:zoom="0.46919431"
     inkscape:cx="698.00505"
     inkscape:cy="555.20707"
     inkscape:window-width="1920"
     inkscape:window-height="1111"
     inkscape:window-x="-9"
     inkscape:window-y="-9"
     inkscape:window-maximized="1"
     inkscape:current-layer="g1" />
  <g
     inkscape:groupmode="layer"
     inkscape:label="Image"
     id="g1">
    <g
       id="g2"
       transform="translate(-4.2626218)">
      <path
         style="fill:#d0d0d0;fill-opacity:1"
         d="m 187.8125,721.31689 c 0.72187,-0.28887 1.58437,-0.25335 1.91667,0.0789 0.33229,0.33229 -0.25834,0.56864 -1.3125,0.52522 -1.16495,-0.048 -1.4019,-0.28494 -0.60417,-0.60416 z m 9,0 c 0.72187,-0.28887 1.58437,-0.25335 1.91667,0.0789 0.33229,0.33229 -0.25834,0.56864 -1.3125,0.52522 -1.16495,-0.048 -1.4019,-0.28494 -0.60417,-0.60416 z M 98.23296,691.76445 98,664.0289 67.25,663.74946 36.5,663.47001 l 30.781385,-0.235 c 24.069714,-0.18377 30.887221,0.0408 31.266776,1.0299 0.266966,0.6957 0.357675,13.4082 0.201576,28.25 L 98.465921,719.5 Z m 501.57954,15.55244 c 0.72187,-0.28887 1.58438,-0.25335 1.91667,0.0789 0.33229,0.33229 -0.25834,0.56864 -1.3125,0.52522 -1.16495,-0.048 -1.4019,-0.28494 -0.60417,-0.60416 z M 152.19495,657.5 c 0.0204,-1.65 0.2445,-2.20394 0.49804,-1.23097 0.25354,0.97297 0.23687,2.32297 -0.0371,3 -0.27393,0.67703 -0.48137,-0.11903 -0.46099,-1.76903 z m -53.761396,-33 c -6.11e-4,-13.75 0.14023,-19.5137 0.312979,-12.80822 0.17275,6.70549 0.173249,17.95549 0.0011,25 C 98.575505,643.7363 98.434164,638.25 98.433554,624.5 Z M 185.8125,612.31689 c 0.72187,-0.28887 1.58437,-0.25335 1.91667,0.0789 0.33229,0.33229 -0.25834,0.56864 -1.3125,0.52522 -1.16495,-0.048 -1.4019,-0.28494 -0.60417,-0.60416 z M 566,600.62244 c 0,-0.20765 0.7875,-0.99515 1.75,-1.75 1.58606,-1.24387 1.62143,-1.2085 0.37756,0.37756 C 566.82119,600.91575 566,601.44548 566,600.62244 Z m 35.8125,-2.30555 c 0.72187,-0.28887 1.58438,-0.25335 1.91667,0.0789 0.33229,0.33229 -0.25834,0.56864 -1.3125,0.52522 -1.16495,-0.048 -1.4019,-0.28494 -0.60417,-0.60416 z M 365.44625,577.72053 c -0.27004,-0.70371 -0.35811,-10.04121 -0.19571,-20.75 l 0.29527,-19.47053 0.22709,20.22523 0.2271,20.22523 16.25,0.30133 16.25,0.30134 -16.28138,0.22344 c -12.46773,0.17109 -16.39639,-0.0763 -16.77237,-1.05604 z M 920.19495,552.5 c 0.0204,-1.65 0.2445,-2.20394 0.49804,-1.23097 0.25354,0.97297 0.23687,2.32297 -0.0371,3 -0.27393,0.67703 -0.48137,-0.11903 -0.46099,-1.76903 z m -38.32251,-11.25 c -1.24387,-1.58606 -1.2085,-1.62143 0.37756,-0.37756 1.66575,1.30637 2.19548,2.12756 1.37244,2.12756 -0.20765,0 -0.99515,-0.7875 -1.75,-1.75 z M 365.41318,505.5 c 10e-4,-9.9 0.1507,-13.81474 0.33256,-8.69942 0.18186,5.11532 0.181,13.21532 -0.002,18 -0.18291,4.78468 -0.3317,0.59942 -0.33065,-9.30058 z M 778.25,504.2519 c 8.6625,-0.16648 22.8375,-0.16648 31.5,0 8.6625,0.16648 1.575,0.30269 -15.75,0.30269 -17.325,0 -24.4125,-0.13621 -15.75,-0.30269 z M 399.8125,473.31689 c 0.72187,-0.28887 1.58438,-0.25335 1.91667,0.0789 0.33229,0.33229 -0.25834,0.56864 -1.3125,0.52522 -1.16495,-0.048 -1.4019,-0.28494 -0.60417,-0.60416 z M 390.44956,413 c 0,-18.975 0.13447,-26.7375 0.29883,-17.25 0.16436,9.4875 0.16436,25.0125 0,34.5 -0.16436,9.4875 -0.29883,1.725 -0.29883,-17.25 z M 567.46932,293.5 c 1.3e-4,-33 0.12623,-46.35521 0.28023,-29.67824 0.15399,16.67697 0.15389,43.67697 -2.4e-4,60 -0.15412,16.32303 -0.28012,2.67824 -0.27999,-30.32176 z m -212.39037,-4.08333 c 0.048,-1.16495 0.28494,-1.4019 0.60416,-0.60417 0.28887,0.72187 0.25335,1.58438 -0.0789,1.91667 -0.33229,0.33229 -0.56864,-0.25834 -0.52522,-1.3125 z m 36.73355,-44.09978 c 0.72187,-0.28887 1.58438,-0.25335 1.91667,0.0789 0.33229,0.33229 -0.25834,0.56864 -1.3125,0.52522 -1.16495,-0.048 -1.4019,-0.28494 -0.60417,-0.60416 z m 8,0 c 0.72187,-0.28887 1.58438,-0.25335 1.91667,0.0789 0.33229,0.33229 -0.25834,0.56864 -1.3125,0.52522 -1.16495,-0.048 -1.4019,-0.28494 -0.60417,-0.60416 z m 2,-14 c 0.72187,-0.28887 1.58438,-0.25335 1.91667,0.0789 0.33229,0.33229 -0.25834,0.56864 -1.3125,0.52522 -1.16495,-0.048 -1.4019,-0.28494 -0.60417,-0.60416 z"
         id="path9" />
      <path
         style="fill:#b9b9b9;fill-opacity:1"
         d="m 634.5,683 c 0.99549,-1.1 2.03498,-2 2.30998,-2 0.275,0 -0.31449,0.9 -1.30998,2 -0.99549,1.1 -2.03498,2 -2.30998,2 -0.275,0 0.31449,-0.9 1.30998,-2 z M 881,492.62244 c 0,-0.20765 0.7875,-0.99515 1.75,-1.75 1.58606,-1.24387 1.62143,-1.2085 0.37756,0.37756 C 881.82119,492.91575 881,493.44548 881,492.62244 Z M 424.40499,482.75 422.5,480.5 l 2.25,1.90499 c 2.11444,1.79022 2.70524,2.59501 1.90499,2.59501 -0.18976,0 -1.20226,-1.0125 -2.25,-2.25 z m 494.46745,-1.5 c -1.24387,-1.58606 -1.2085,-1.62143 0.37756,-0.37756 1.66575,1.30637 2.19548,2.12756 1.37244,2.12756 -0.20765,0 -0.99515,-0.7875 -1.75,-1.75 z m -562,-141 c -1.24387,-1.58606 -1.2085,-1.62143 0.37756,-0.37756 1.66575,1.30637 2.19548,2.12756 1.37244,2.12756 -0.20765,0 -0.99515,-0.7875 -1.75,-1.75 z"
         id="path8" />
      <path
         style="fill:#a3a3a3;fill-opacity:1"
         d="m 233.19495,659.5 c 0.0204,-1.65 0.2445,-2.20394 0.49804,-1.23097 0.25354,0.97297 0.23687,2.32297 -0.0371,3 -0.27393,0.67703 -0.48137,-0.11903 -0.46099,-1.76903 z M 664.15789,646 c 0,-1.375 0.22698,-1.9375 0.50439,-1.25 0.27741,0.6875 0.27741,1.8125 0,2.5 -0.27741,0.6875 -0.50439,0.125 -0.50439,-1.25 z M 634.92431,609.25 632.5,606.5 l 2.75,2.42431 c 1.5125,1.33338 2.75,2.57088 2.75,2.75 0,0.78428 -0.8098,0.14598 -3.07569,-2.42431 z M 920.15789,558 c 0,-1.375 0.22698,-1.9375 0.50439,-1.25 0.27741,0.6875 0.27741,1.8125 0,2.5 -0.27741,0.6875 -0.50439,0.125 -0.50439,-1.25 z m 14.92106,-0.58333 c 0.048,-1.16495 0.28494,-1.4019 0.60416,-0.60417 0.28887,0.72187 0.25335,1.58438 -0.0789,1.91667 -0.33229,0.33229 -0.56864,-0.25834 -0.52522,-1.3125 z M 424,524.62244 c 0,-0.20765 0.7875,-0.99515 1.75,-1.75 1.58606,-1.24387 1.62143,-1.2085 0.37756,0.37756 C 424.82119,524.91575 424,525.44548 424,524.62244 Z m 435.07895,-11.20577 c 0.048,-1.16495 0.28494,-1.4019 0.60416,-0.60417 0.28887,0.72187 0.25335,1.58438 -0.0789,1.91667 -0.33229,0.33229 -0.56864,-0.25834 -0.52522,-1.3125 z M 1052.4837,254 c 0,-64.625 0.1198,-91.0625 0.2661,-58.75 0.1464,32.3125 0.1464,85.1875 0,117.5 -0.1463,32.3125 -0.2661,5.875 -0.2661,-58.75 z m -579.01461,39 c 0,-32.725 0.12615,-46.1125 0.28033,-29.75 0.15419,16.3625 0.15419,43.1375 0,59.5 -0.15418,16.3625 -0.28033,2.975 -0.28033,-29.75 z m 15.97052,31.5 c 5e-4,-15.4 0.13932,-21.56027 0.30848,-13.6895 0.16916,7.87078 0.16875,20.47078 -9.2e-4,28 -0.16966,7.52923 -0.30807,1.0895 -0.30756,-14.3105 z m -122.03462,5.25 -1.90499,-2.25 2.25,1.90499 c 1.2375,1.04774 2.25,2.06024 2.25,2.25 0,0.80025 -0.80479,0.20945 -2.59501,-1.90499 z M 489.43244,258 c 0,-13.475 0.14155,-18.9875 0.31456,-12.25 0.17301,6.7375 0.17301,17.7625 0,24.5 -0.17301,6.7375 -0.31456,1.225 -0.31456,-12.25 z"
         id="path7" />
      <path
         style="fill:#8c8c8c;fill-opacity:1"
         d="m 191.75,721.33772 c 0.6875,-0.27741 1.8125,-0.27741 2.5,0 0.6875,0.27741 0.125,0.50439 -1.25,0.50439 -1.375,0 -1.9375,-0.22698 -1.25,-0.50439 z M 24.776433,719.2665 c 2.352038,-0.21124 5.952038,-0.20827 8,0.007 2.047962,0.21487 0.123567,0.38771 -4.276433,0.38408 -4.4,-0.004 -6.075605,-0.17944 -3.723567,-0.39069 z m 81.712367,0.009 7.49537,-0.35948 0.27002,-59.20808 0.27001,-59.20808 -0.0121,59.5 -0.0121,59.5 -7.75328,0.0676 -7.753288,0.0676 z m 497.3237,-11.95875 c 0.72187,-0.28887 1.58438,-0.25335 1.91667,0.0789 0.33229,0.33229 -0.25834,0.56864 -1.3125,0.52522 -1.16495,-0.048 -1.4019,-0.28494 -0.60417,-0.60416 z m 5.9375,0.0208 c 0.6875,-0.27741 1.8125,-0.27741 2.5,0 0.6875,0.27741 0.125,0.50439 -1.25,0.50439 -1.375,0 -1.9375,-0.22698 -1.25,-0.50439 z M 233.07895,655.41667 c 0.048,-1.16495 0.28494,-1.4019 0.60416,-0.60417 0.28887,0.72187 0.25335,1.58438 -0.0789,1.91667 -0.3323,0.33229 -0.56864,-0.25834 -0.52522,-1.3125 z M 550.15789,642 c 0,-1.375 0.22698,-1.9375 0.50439,-1.25 0.27741,0.6875 0.27741,1.8125 0,2.5 -0.27741,0.6875 -0.50439,0.125 -0.50439,-1.25 z M 198.8125,598.31689 c 0.72187,-0.28887 1.58437,-0.25335 1.91667,0.0789 0.33229,0.33229 -0.25834,0.56864 -1.3125,0.52522 -1.16495,-0.048 -1.4019,-0.28494 -0.60417,-0.60416 z m 694,-3 c 0.72187,-0.28887 1.58438,-0.25335 1.91667,0.0789 0.33229,0.33229 -0.25834,0.56864 -1.3125,0.52522 -1.16495,-0.048 -1.4019,-0.28494 -0.60417,-0.60416 z m 5.9375,0.0208 c 0.6875,-0.27741 1.8125,-0.27741 2.5,0 0.6875,0.27741 0.125,0.50439 -1.25,0.50439 -1.375,0 -1.9375,-0.22698 -1.25,-0.50439 z m -286.9375,-11.0208 c 0.72187,-0.28887 1.58438,-0.25335 1.91667,0.0789 0.33229,0.33229 -0.25834,0.56864 -1.3125,0.52522 -1.16495,-0.048 -1.4019,-0.28494 -0.60417,-0.60416 z m 282.94916,-1.02415 c 1.24391,-0.23919 3.04391,-0.23011 4,0.0202 0.95609,0.25029 -0.0617,0.446 -2.26166,0.4349 -2.2,-0.0111 -2.98225,-0.21589 -1.73834,-0.45508 z m -494.49263,-4.98573 c 0.97297,-0.25354 2.32297,-0.23687 3,0.0371 0.67703,0.27393 -0.11903,0.48137 -1.76903,0.46099 -1.65,-0.0204 -2.20394,-0.2445 -1.23097,-0.49804 z m 351.5074,-18.04051 c 2.35204,-0.21124 5.95204,-0.20827 8,0.007 2.04796,0.21487 0.12357,0.38771 -4.27643,0.38408 -4.4,-0.004 -6.07561,-0.17944 -3.72357,-0.39069 z m 77,0 c 2.35204,-0.21124 5.95204,-0.20827 8,0.007 2.04796,0.21487 0.12357,0.38771 -4.27643,0.38408 -4.4,-0.004 -6.07561,-0.17944 -3.72357,-0.39069 z m 64.98523,0.0262 c 1.24391,-0.23919 3.04391,-0.23011 4,0.0202 0.95609,0.25029 -0.0617,0.446 -2.26166,0.4349 -2.2,-0.0111 -2.98225,-0.21589 -1.73834,-0.45508 z m -454.68271,-1.87607 c 0.048,-1.16495 0.28494,-1.4019 0.60416,-0.60417 0.28887,0.72187 0.25335,1.58438 -0.0789,1.91667 -0.33229,0.33229 -0.56864,-0.25834 -0.52522,-1.3125 z M 935.19495,553.5 c 0.0204,-1.65 0.2445,-2.20394 0.49804,-1.23097 0.25354,0.97297 0.23687,2.32297 -0.0371,3 -0.27393,0.67703 -0.48137,-0.11903 -0.46099,-1.76903 z M 372.25,537.25845 c 3.7125,-0.19241 9.7875,-0.19241 13.5,0 3.7125,0.19241 0.675,0.34983 -6.75,0.34983 -7.425,0 -10.4625,-0.15742 -6.75,-0.34983 z m 1.5,-14.00244 c 4.5375,-0.18529 11.9625,-0.18529 16.5,0 4.5375,0.1853 0.825,0.3369 -8.25,0.3369 -9.075,0 -12.7875,-0.1516 -8.25,-0.3369 z M 859.15789,517 c 0,-1.375 0.22698,-1.9375 0.50439,-1.25 0.27741,0.6875 0.27741,1.8125 0,2.5 -0.27741,0.6875 -0.50439,0.125 -0.50439,-1.25 z M 373.29571,487.25587 c 4.28763,-0.1879 11.03763,-0.18676 15,0.003 3.96236,0.1893 0.45429,0.34304 -7.79571,0.34164 -8.25,-10e-4 -11.49193,-0.15629 -7.20429,-0.34419 z M 896.75,484.33772 c 0.6875,-0.27741 1.8125,-0.27741 2.5,0 0.6875,0.27741 0.125,0.50439 -1.25,0.50439 -1.375,0 -1.9375,-0.22698 -1.25,-0.50439 z M 362.30822,473.25236 c 7.04451,-0.17214 18.29451,-0.17164 25,10e-4 6.70548,0.17275 0.94178,0.31359 -12.80822,0.31298 -13.75,-6.1e-4 -19.2363,-0.14195 -12.19178,-0.31409 z m 530.50428,-0.93547 c 0.72187,-0.28887 1.58438,-0.25335 1.91667,0.0789 0.33229,0.33229 -0.25834,0.56864 -1.3125,0.52522 -1.16495,-0.048 -1.4019,-0.28494 -0.60417,-0.60416 z m -502,-118 c 0.72187,-0.28887 1.58438,-0.25335 1.91667,0.0789 0.33229,0.33229 -0.25834,0.56864 -1.3125,0.52522 -1.16495,-0.048 -1.4019,-0.28494 -0.60417,-0.60416 z m 7.9375,0.0208 c 0.6875,-0.27741 1.8125,-0.27741 2.5,0 0.6875,0.27741 0.125,0.50439 -1.25,0.50439 -1.375,0 -1.9375,-0.22698 -1.25,-0.50439 z m 686.7319,-6.53251 C 1085.2082,347.08734 1085.1002,304.2 1085.2421,252.5 l 0.2579,-94 h 5 5 v 95 95 l -4.7602,0.30521 c -3.2268,0.20689 -4.9205,-0.11523 -5.2579,-1 z M 1095,253.5 V 159 h -4.5 -4.5 v 94.5 94.5 h 4.5 4.5 z m -589.68759,42.75158 c 8.69682,-0.16665 22.64682,-0.1663 31,7.7e-4 8.35317,0.16708 1.23759,0.30343 -15.81241,0.30301 -17.05,-4.3e-4 -23.88442,-0.13713 -15.18759,-0.30378 z m -69.23346,-5.83491 c 0.048,-1.16495 0.28494,-1.4019 0.60416,-0.60417 0.28887,0.72187 0.25335,1.58438 -0.0789,1.91667 -0.33229,0.33229 -0.56864,-0.25834 -0.52522,-1.3125 z m 69.23346,-8.16509 c 8.69682,-0.16665 22.64682,-0.1663 31,7.7e-4 8.35317,0.16708 1.23759,0.30343 -15.81241,0.30301 -17.05,-4.3e-4 -23.88442,-0.13713 -15.18759,-0.30378 z M 356,246.62244 c 0,-0.20765 0.7875,-0.99515 1.75,-1.75 1.58606,-1.24387 1.62143,-1.2085 0.37756,0.37756 C 356.82119,246.91575 356,247.44548 356,246.62244 Z m 32.8125,-1.30555 c 0.72187,-0.28887 1.58438,-0.25335 1.91667,0.0789 0.33229,0.33229 -0.25834,0.56864 -1.3125,0.52522 -1.16495,-0.048 -1.4019,-0.28494 -0.60417,-0.60416 z m 88.96393,-12.05039 c 2.35204,-0.21124 5.95204,-0.20827 8,0.007 2.04796,0.21487 0.12357,0.38771 -4.27643,0.38408 -4.4,-0.004 -6.07561,-0.17944 -3.72357,-0.39069 z m 78,0 c 2.35204,-0.21124 5.95204,-0.20827 8,0.007 2.04796,0.21487 0.12357,0.38771 -4.27643,0.38408 -4.4,-0.004 -6.07561,-0.17944 -3.72357,-0.39069 z M 390.75,231.33772 c 0.6875,-0.27741 1.8125,-0.27741 2.5,0 0.6875,0.27741 0.125,0.50439 -1.25,0.50439 -1.375,0 -1.9375,-0.22698 -1.25,-0.50439 z m 7,0 c 0.6875,-0.27741 1.8125,-0.27741 2.5,0 0.6875,0.27741 0.125,0.50439 -1.25,0.50439 -1.375,0 -1.9375,-0.22698 -1.25,-0.50439 z"
         id="path6" />
      <path
         style="fill:#767676;fill-opacity:1"
         d="m 249.07895,666.41667 c 0.048,-1.16495 0.28494,-1.4019 0.60416,-0.60417 0.28887,0.72187 0.25335,1.58438 -0.0789,1.91667 -0.3323,0.33229 -0.56864,-0.25834 -0.52522,-1.3125 z m 0,-13 c 0.048,-1.16495 0.28494,-1.4019 0.60416,-0.60417 0.28887,0.72187 0.25335,1.58438 -0.0789,1.91667 -0.3323,0.33229 -0.56864,-0.25834 -0.52522,-1.3125 z M 550.232,647 c 0,-1.925 0.2058,-2.7125 0.45733,-1.75 0.25152,0.9625 0.25152,2.5375 0,3.5 -0.25153,0.9625 -0.45733,0.175 -0.45733,-1.75 z M 219.87244,622.25 c -1.24387,-1.58606 -1.2085,-1.62143 0.37756,-0.37756 1.66575,1.30637 2.19548,2.12756 1.37244,2.12756 -0.20765,0 -0.99515,-0.7875 -1.75,-1.75 z M 349.46909,533 c 0,-32.725 0.12615,-46.1125 0.28033,-29.75 0.15419,16.3625 0.15419,43.1375 0,59.5 -0.15418,16.3625 -0.28033,2.975 -0.28033,-29.75 z m 585.9851,-20 c 0,-21.175 0.13253,-29.8375 0.2945,-19.25 0.16197,10.5875 0.16197,27.9125 0,38.5 -0.16197,10.5875 -0.2945,1.925 -0.2945,-19.25 z M 1042.4841,251 c 0,-66.275 0.1196,-93.3875 0.2658,-60.25 0.1461,33.1375 0.1461,87.3625 0,120.5 -0.1462,33.1375 -0.2658,6.025 -0.2658,-60.25 z m -491.04449,73.5 c 5e-4,-15.4 0.13932,-21.56027 0.30848,-13.6895 0.16916,7.87078 0.16875,20.47078 -9.2e-4,28 -0.16966,7.52923 -0.30807,1.0895 -0.30756,-14.3105 z M 422,331.62244 c 0,-0.20765 0.7875,-0.99515 1.75,-1.75 1.58606,-1.24387 1.62143,-1.2085 0.37756,0.37756 C 422.82119,331.91575 422,332.44548 422,331.62244 Z m 30.07895,-33.20577 c 0.048,-1.16495 0.28494,-1.4019 0.60416,-0.60417 0.28887,0.72187 0.25335,1.58438 -0.0789,1.91667 -0.33229,0.33229 -0.56864,-0.25834 -0.52522,-1.3125 z M 551.43244,258 c 0,-13.475 0.14155,-18.9875 0.31456,-12.25 0.17301,6.7375 0.17301,17.7625 0,24.5 -0.17301,6.7375 -0.31456,1.225 -0.31456,-12.25 z"
         id="path5" />
      <path
         style="fill:#606060;fill-opacity:1"
         d="M 566.40499,690.75 564.5,688.5 l 2.25,1.90499 c 2.11444,1.79022 2.70524,2.59501 1.90499,2.59501 -0.18976,0 -1.20226,-1.0125 -2.25,-2.25 z M 152.5,614 c 0.99549,-1.1 2.03498,-2 2.30998,-2 0.275,0 -0.31449,0.9 -1.30998,2 -0.99549,1.1 -2.03498,2 -2.30998,2 -0.275,0 0.31449,-0.9 1.30998,-2 z m 717.37244,-26.75 c -1.24387,-1.58606 -1.2085,-1.62143 0.37756,-0.37756 0.9625,0.75485 1.75,1.54235 1.75,1.75 0,0.82304 -0.82119,0.29331 -2.12756,-1.37244 z M 913,542.62244 c 0,-0.20765 0.7875,-0.99515 1.75,-1.75 1.58606,-1.24387 1.62143,-1.2085 0.37756,0.37756 C 913.82119,542.91575 913,543.44548 913,542.62244 Z"
         id="path4" />
      <path
         style="fill:#494949;fill-opacity:1"
         d="m 36.439608,691.5 c 5.03e-4,-15.4 0.139319,-21.56027 0.308479,-13.6895 0.169161,7.87078 0.168748,20.47078 -9.16e-4,28 -0.169664,7.52923 -0.308067,1.0895 -0.307563,-14.3105 z m 0.227059,-42.16667 C 36.3,648.96667 36,637.9606 36,624.8754 v -23.79127 l -7.25,-0.35507 -7.25,-0.35507 7.5,0.063 7.5,0.063 0.267746,24.23557 0.267746,24.23558 30.732254,0.27942 30.732254,0.27942 -30.583333,0.235 c -16.820834,0.12926 -30.883334,-0.065 -31.25,-0.43166 z M 566.15789,643 c 0,-1.375 0.22698,-1.9375 0.50439,-1.25 0.27741,0.6875 0.27741,1.8125 0,2.5 -0.27741,0.6875 -0.50439,0.125 -0.50439,-1.25 z M 192.26903,611.30701 c 0.97297,-0.25354 2.32297,-0.23687 3,0.0371 0.67703,0.27393 -0.11903,0.48137 -1.76903,0.46099 -1.65,-0.0204 -2.20394,-0.2445 -1.23097,-0.49804 z m -89.4926,-11.04051 c 2.35204,-0.21124 5.95204,-0.20827 8,0.007 2.04796,0.21487 0.12357,0.38771 -4.27643,0.38408 -4.4,-0.004 -6.07561,-0.17944 -3.72357,-0.39069 z M 187.75,598.33772 c 0.6875,-0.27741 1.8125,-0.27741 2.5,0 0.6875,0.27741 0.125,0.50439 -1.25,0.50439 -1.375,0 -1.9375,-0.22698 -1.25,-0.50439 z m 7,0 c 0.6875,-0.27741 1.8125,-0.27741 2.5,0 0.6875,0.27741 0.125,0.50439 -1.25,0.50439 -1.375,0 -1.9375,-0.22698 -1.25,-0.50439 z m 167.5,-6.08493 c 7.0125,-0.1719 18.4875,-0.1719 25.5,0 7.0125,0.1719 1.275,0.31255 -12.75,0.31255 -14.025,0 -19.7625,-0.14065 -12.75,-0.31255 z m 243,-7.94212 c 0.9625,-0.25152 2.5375,-0.25152 3.5,0 0.9625,0.25153 0.175,0.45733 -1.75,0.45733 -1.925,0 -2.7125,-0.2058 -1.75,-0.45733 z M 747.4879,501 747.5,441.5 l 7.5,-0.063 7.5,-0.063 -7.24209,0.35493 -7.24208,0.35492 -0.27002,59.20808 L 747.4758,560.5 Z m 92.75388,0.29206 L 840,442.08413 l -7.75,-0.34082 -7.75,-0.34082 7.78138,-0.20125 c 5.4594,-0.14119 7.92406,0.17176 8.25951,1.04876 0.26297,0.6875 0.35765,27.575 0.2104,59.75 l -0.26772,58.5 z M 394.25,537.31067 c 0.9625,-0.25152 2.5375,-0.25152 3.5,0 0.9625,0.25153 0.175,0.45733 -1.75,0.45733 -1.925,0 -2.7125,-0.2058 -1.75,-0.45733 z m 4.5625,-13.99378 c 0.72187,-0.28887 1.58438,-0.25335 1.91667,0.0789 0.33229,0.33229 -0.25834,0.56864 -1.3125,0.52522 -1.16495,-0.048 -1.4019,-0.28494 -0.60417,-0.60416 z M 778.25,490.2519 c 8.6625,-0.16648 22.8375,-0.16648 31.5,0 8.6625,0.16648 1.575,0.30269 -15.75,0.30269 -17.325,0 -24.4125,-0.13621 -15.75,-0.30269 z m -382.5,-2.91418 c 0.6875,-0.27741 1.8125,-0.27741 2.5,0 0.6875,0.27741 0.125,0.50439 -1.25,0.50439 -1.375,0 -1.9375,-0.22698 -1.25,-0.50439 z m 530,-13.06112 c 1.7875,-0.22182 4.7125,-0.22182 6.5,0 1.7875,0.22183 0.325,0.40333 -3.25,0.40333 -3.575,0 -5.0375,-0.1815 -3.25,-0.40333 z m -30,-1.93888 c 0.6875,-0.27741 1.8125,-0.27741 2.5,0 0.6875,0.27741 0.125,0.50439 -1.25,0.50439 -1.375,0 -1.9375,-0.22698 -1.25,-0.50439 z m -500.51324,-26.03987 4.73677,-0.40635 0.28319,-33.19575 L 400.5399,379.5 400.52,413 l -0.0199,33.5 -5,0.1021 -5,0.1021 z M 1047.1949,376.5 c 0.02,-1.65 0.2445,-2.20394 0.4981,-1.23097 0.2535,0.97297 0.2369,2.32297 -0.037,3 -0.2739,0.67703 -0.4813,-0.11903 -0.461,-1.76903 z M 394.75,354.33772 c 0.6875,-0.27741 1.8125,-0.27741 2.5,0 0.6875,0.27741 0.125,0.50439 -1.25,0.50439 -1.375,0 -1.9375,-0.22698 -1.25,-0.50439 z m 83.02643,-2.07122 c 2.35204,-0.21124 5.95204,-0.20827 8,0.007 2.04796,0.21487 0.12357,0.38771 -4.27643,0.38408 -4.4,-0.004 -6.07561,-0.17944 -3.72357,-0.39069 z m 78,0 c 2.35204,-0.21124 5.95204,-0.20827 8,0.007 2.04796,0.21487 0.12357,0.38771 -4.27643,0.38408 -4.4,-0.004 -6.07561,-0.17944 -3.72357,-0.39069 z m -161.5074,-10.95949 c 0.97297,-0.25354 2.32297,-0.23687 3,0.0371 0.67703,0.27393 -0.11903,0.48137 -1.76903,0.46099 -1.65,-0.0204 -2.20394,-0.2445 -1.23097,-0.49804 z"
         id="path3" />
      <path
         style="fill:#333333;fill-opacity:1"
         d="m 177.09204,718.94999 c -8.82772,-2.31167 -20.43037,-9.2089 -25.65075,-15.24816 -5.29177,-6.12186 -9.10818,-13.13052 -12.08952,-22.20183 -2.2511,-6.84941 -2.63767,-9.7978 -2.6878,-20.5 -0.10029,-21.41079 4.61846,-34.52032 16.74376,-46.5171 11.73173,-11.60738 21.69772,-15.57902 39.09227,-15.57902 16.97802,0 29.11278,4.71993 40.12654,15.60761 11.0551,10.92855 16.4863,25.6818 16.56189,44.98851 0.10978,28.04288 -11.67977,48.0617 -33.68843,57.20339 -11.35059,4.71468 -25.76353,5.55774 -38.40796,2.2466 z m 32.68999,-14.40189 c 7.37859,-3.34745 15.96853,-11.96289 19.25331,-19.31046 2.65092,-5.92969 4.96702,-17.64575 4.95711,-25.07561 -0.0265,-19.83864 -8.78984,-37.42656 -22.00821,-44.17007 -16.05769,-8.19202 -36.87225,-4.55403 -48.83534,8.53549 -8.24505,9.02141 -11.77576,21.91573 -10.91238,39.85258 1.00729,20.92656 10.52661,35.63467 26.9519,41.6428 8.19905,2.99909 22.22225,2.32312 30.59361,-1.47473 z M 21,660 v -59 h 7.482221 7.482222 L 36.232221,625.25 36.5,649.5 h 31 31 L 98.767779,625.25 99.035557,601 H 106.51778 114 v 59 59 H 106.5 99 V 690.98575 662.97151 L 67.75,663.23575 36.5,663.5 36.234181,691.25 35.968363,719 H 28.484181 21 Z m 571.02838,45.39797 C 582.75644,702.90628 575.85324,698.84774 568.38925,691.5 556.52334,679.81891 551,665.6202 551,646.79788 551,626.87679 556.30101,611.88327 567.26045,600.8064 578.16862,589.78136 590.18963,585 607,585 c 11.3562,0 18.89067,1.76982 27.9078,6.55543 14.56133,7.72807 23.79569,20.7182 27.50956,38.69819 4.70828,22.79424 -1.36259,47.3617 -15.08946,61.06373 -6.65349,6.64144 -18.62828,13.1048 -27.21439,14.68888 -7.678,1.41654 -21.6789,1.11331 -28.08513,-0.60826 z m 27.86154,-12.96371 C 633.44703,688.08536 642.90428,677.3098 646.6008,662 c 1.85548,-7.68485 1.75751,-24.82161 -0.18499,-32.35566 -2.19191,-8.50139 -6.87357,-16.8898 -12.13111,-21.73603 -15.15921,-13.97327 -40.43886,-13.31103 -55.60228,1.4566 -8.24725,8.03199 -12.08991,19.89372 -12.0322,37.14162 0.0551,16.4803 3.42901,26.38753 12.16766,35.72986 10.12851,10.82819 26.46351,14.88405 41.07204,10.19787 z M 263.12017,608.47911 c -1.16609,-1.97639 -2.10987,-3.90521 -2.09729,-4.28627 0.0192,-0.58083 43.66633,-28.09537 45.98675,-28.9894 0.42334,-0.1631 1.77887,1.33631 3.01229,3.33203 1.89595,3.0677 2.02893,3.8258 0.86034,4.90445 -0.76024,0.70173 -10.38226,6.82031 -21.38226,13.59685 -11,6.77654 -20.95842,12.93181 -22.12983,13.67837 -1.96528,1.25253 -2.29361,1.07979 -4.25,-2.23603 z m 237.46357,-21.97486 c -16.94818,-9.02113 -31.01926,-16.60644 -31.26907,-16.85625 -0.24981,-0.2498 0.49969,-2.32395 1.66554,-4.60921 l 2.11974,-4.15503 6.20002,3.42258 c 3.41002,1.88242 17.45003,9.40843 31.20003,16.72446 13.75,7.31603 25.15649,13.42102 25.34777,13.56664 0.19127,0.14562 -0.73154,2.07468 -2.0507,4.28681 l -2.39846,4.02205 z m 176.74816,7.70203 -2.16809,-3.81789 21.13884,-13.2007 21.13884,-13.20069 2.27413,3.7565 c 1.25077,2.06607 2.25989,3.9815 2.24249,4.2565 -0.0379,0.59874 -39.86461,25.38541 -41.39399,25.76208 -0.58527,0.14415 -2.03976,-1.45596 -3.23222,-3.5558 z m 206.40257,-0.23509 c -7.99971,-2.01057 -15.24159,-7.1836 -18.27882,-13.05696 -0.85944,-1.66196 -1.83241,-5.29974 -2.16216,-8.08395 -0.54978,-4.64208 -0.44161,-5.0158 1.30349,-4.5032 1.04666,0.30745 4.0156,0.85699 6.59765,1.2212 4.34497,0.61288 4.86633,1.00424 7,5.25461 3.263,6.50006 7.88728,8.69711 18.30537,8.69711 10.57379,0 16.67863,-2.8525 20.89757,-9.76446 2.57434,-4.21757 2.96451,-5.93494 3.39918,-14.96164 l 0.49103,-10.19718 -4.72337,4.15767 c -6.42605,5.65644 -12.73361,7.62856 -22.57645,7.05877 -13.18968,-0.76354 -22.43724,-6.85264 -28.46125,-18.74045 -9.29091,-18.33472 -6.59426,-44.01025 6.09779,-58.05883 5.60351,-6.20242 13.03963,-9.31406 23.44772,-9.81168 7.68972,-0.36765 9.37863,-0.12241 14.12648,2.05123 2.96591,1.35784 7.05953,3.93241 9.09693,5.72128 L 922,484.20718 V 479.60359 475 h 6.55444 6.55443 l -0.34378,46.75 c -0.30114,40.95154 -0.55718,47.38911 -2.06432,51.90284 -2.43874,7.30377 -9.10751,14.35554 -16.90029,17.87091 -5.49596,2.47926 -7.70509,2.8774 -17.30048,3.11801 -6.05,0.1517 -12.69449,-0.15005 -14.76553,-0.67057 z m 21.32113,-46.49081 c 6.5384,-2.30688 10.50493,-5.87452 13.59002,-12.22334 2.55983,-5.26792 2.79993,-6.73409 2.82595,-17.25704 0.0378,-15.28822 -1.37363,-20.01909 -7.91621,-26.53388 -9.78741,-9.74584 -21.14841,-9.90718 -30.66134,-0.43543 -6.21055,6.18366 -8.30363,12.48752 -8.29059,24.96931 0.014,13.37678 2.17681,20.14556 8.34525,26.11732 6.70301,6.4893 13.93925,8.24479 22.10692,5.36306 z M 350,532.92178 v -59.07822 l 29.77445,0.32822 29.77446,0.32822 6.76856,3.33384 c 11.79277,5.8085 17.34625,15.40168 16.51087,28.52116 -0.50351,7.90744 -4.22295,14.52793 -10.97922,19.54265 l -4.5776,3.39766 5.84481,2.92069 c 11.16322,5.57832 16.41626,14.97916 15.70722,28.10961 -0.6406,11.86312 -6.71412,22.0271 -15.99014,26.75938 C 414.36133,591.40712 409.04854,592 378.7899,592 H 350 Z m 58.68097,44.58032 c 6.47552,-1.92302 10.10635,-4.8234 12.4227,-9.9235 2.19263,-4.82771 2.4515,-13.31413 0.54529,-17.87634 -1.76009,-4.21248 -7.60865,-9.29241 -12.37163,-10.74572 -2.07753,-0.63391 -12.88983,-1.39013 -24.02733,-1.68048 L 365,536.74814 V 557.87407 579 h 19.3185 c 14.24837,0 20.64228,-0.39312 24.36247,-1.4979 z m -4.65135,-54.60187 c 5.77228,-1.23794 11.05027,-5.26467 12.96751,-9.89331 1.79383,-4.33068 0.86098,-14.37437 -1.6505,-17.77036 -1.11309,-1.50511 -4.00893,-3.84871 -6.43521,-5.20801 -4.19306,-2.34911 -5.389,-2.49101 -24.16142,-2.86676 L 365,486.76648 V 505.38324 524 h 16.95078 c 9.32293,0 19.2584,-0.4949 22.07884,-1.09977 z M 748,501 v -59 h 7.5 7.5 v 24.5 24.5 h 31 31 V 466.5 442 h 7.5 7.5 v 59 59 h -7.5 -7.5 v -28 -28 h -31 -31 v 28 28 H 755.5 748 Z M 1151.3074,439.16508 1048.1149,379.5 l -0.3894,-3.5 -0.3893,-3.5 -0.2096,3.5 -0.2097,3.5 -46.1273,26.5 c -25.37002,14.575 -48.27004,27.72874 -50.88893,29.23052 l -4.76163,2.73053 -2.06952,-3.34856 C 941.93128,432.77078 941,430.86484 941,430.37706 c 0,-0.48778 22.95,-14.1266 51,-30.3085 l 51,-29.42163 0.024,-120.07346 L 1043.0479,130.5 1149.1147,69.274003 1255.1815,8.0480051 1361.3408,69.358765 1467.5,130.66952 v 122.88926 122.88926 l -106,61.24152 c -58.3,33.68283 -106.225,61.21881 -106.5,61.19105 -0.275,-0.0277 -46.9367,-26.89974 -103.6926,-59.71553 z m 205.1926,-9.53264 101,-58.3135 V 253.55972 135.80051 L 1356.3456,77.403766 1255.1912,19.007026 1153.5956,77.67331 1052,136.3396 v 117.22238 117.22239 l 101.25,58.5342 c 55.6875,32.19381 101.475,58.55516 101.75,58.58078 0.275,0.0256 45.95,-26.19449 101.5,-58.26691 z m -101.2728,13.55801 -2.1411,-3.80955 82.0468,-47.35409 c 65.542,-37.82817 82.2372,-47.06971 82.9935,-45.94045 0.5207,0.7775 1.5972,2.61313 2.3922,4.07917 1.4132,2.60609 1.351,2.72059 -2.7866,5.13507 C 1381.7554,376.29446 1258.6922,447 1258.129,447 c -0.4184,0 -1.7242,-1.7143 -2.9018,-3.80955 z M 1086,253.5 V 159 h 4.5 4.5 v 94.5 94.5 h -4.5 -4.5 z m 248.7809,-138.67108 -81.7191,-47.166541 2.1724,-3.865354 c 1.1949,-2.125944 2.6706,-3.737479 3.2795,-3.581189 0.6088,0.15629 37.6383,21.379996 82.2878,47.163794 l 81.1808,46.87962 -2.1753,3.87038 c -1.1964,2.1287 -2.4299,3.86935 -2.7411,3.8681 -0.3113,-10e-4 -37.3395,-21.22721 -82.285,-47.16881 z M 391,412.5 V 379 h 4.5 4.5 v 33.5 33.5 h -4.5 -4.5 z m -10.88767,-60.08055 c -13.83451,-3.72056 -27.07155,-14.43119 -33.42335,-27.04418 -5.48764,-10.89701 -7.07415,-18.05331 -7.06652,-31.87527 0.0116,-20.97016 4.80176,-34.11955 16.78527,-46.07662 C 367.37652,236.4788 378.72852,232 395.5,232 c 16.39525,0 29.65325,5.1115 39.92151,15.39138 11.28879,11.30156 16.76144,26.57199 16.70371,46.60862 -0.0864,29.98809 -15.69918,52.11946 -41.18911,58.38624 -8.10211,1.99194 -23.47888,2.0085 -30.82378,0.0332 z m 27.13653,-12.54958 c 6.6135,-1.48847 15.70704,-7.65564 19.86697,-13.47363 6.16765,-8.62594 8.55073,-16.14474 9.47558,-29.89624 1.48041,-22.01181 -7.8658,-40.83168 -23.86904,-48.06357 -8.20878,-3.70956 -20.84939,-4.54395 -28.86196,-1.90514 -9.98464,3.28828 -19.34656,10.70678 -23.39753,18.54048 -5.1604,9.97912 -7.08642,31.87408 -3.88922,44.21249 3.38418,13.05996 10.64076,22.72678 20.82328,27.73962 9.9212,4.88419 17.56005,5.61246 29.85192,2.84599 z M 474,293 v -59 h 7.5 7.5 v 24.51425 24.51424 L 520.25,282.76425 551.5,282.5 551.76778,258.25 552.03556,234 H 559.51778 567 v 59 59 h -7.48418 -7.48418 L 551.76582,324.25 551.5,296.5 520.25,296.23575 489,295.97151 V 323.98575 352 h -7.5 -7.5 z"
         id="path2" />
    </g>
  </g>
</svg>
