<?xml version="1.0" encoding="UTF-8" standalone="no"?>
<!-- Generator: Adobe Illustrator 12.0.1, SVG Export Plug-In . SVG Version: 6.00 Build 51448)  -->
<svg
   xmlns:dc="http://purl.org/dc/elements/1.1/"
   xmlns:cc="http://web.resource.org/cc/"
   xmlns:rdf="http://www.w3.org/1999/02/22-rdf-syntax-ns#"
   xmlns:svg="http://www.w3.org/2000/svg"
   xmlns="http://www.w3.org/2000/svg"
   xmlns:sodipodi="http://sodipodi.sourceforge.net/DTD/sodipodi-0.dtd"
   xmlns:inkscape="http://www.inkscape.org/namespaces/inkscape"
   version="1.1"
   id="Layer_1"
   width="112.793"
   height="139.899"
   viewBox="0 0 112.793 139.899"
   style="overflow:visible;enable-background:new 0 0 112.793 139.899;"
   xml:space="preserve"
   sodipodi:version="0.32"
   inkscape:version="0.45.1"
   sodipodi:docname="Polyvinylpyrrolidon.svg"
   inkscape:output_extension="org.inkscape.output.svg.inkscape"
   sodipodi:docbase="C:\"><metadata
   id="metadata42"><rdf:RDF><cc:Work
       rdf:about=""><dc:format>image/svg+xml</dc:format><dc:type
         rdf:resource="http://purl.org/dc/dcmitype/StillImage" /></cc:Work></rdf:RDF></metadata><defs
   id="defs40" /><sodipodi:namedview
   inkscape:window-height="579"
   inkscape:window-width="801"
   inkscape:pageshadow="2"
   inkscape:pageopacity="0.0"
   guidetolerance="10.0"
   gridtolerance="10.0"
   objecttolerance="10.0"
   borderopacity="1.0"
   bordercolor="#666666"
   pagecolor="#ffffff"
   id="base"
   inkscape:zoom="2.7019492"
   inkscape:cx="56.3965"
   inkscape:cy="69.949501"
   inkscape:window-x="154"
   inkscape:window-y="154"
   inkscape:current-layer="Layer_1" />
<g
   id="g3"
   transform="matrix(0.95,0,0,0.95,2.819825,3.4975)">
	<path
   style="fill:#231f20"
   d="M 27.978,71.399 L 27.978,54.212 L 30.318,54.212 L 39.322,67.701 L 39.322,54.212 L 41.51,54.212 L 41.51,71.4 L 39.17,71.4 L 30.166,57.91 L 30.166,71.399 L 27.978,71.399 z "
   id="path5" />
</g>
<path
   style="fill:#231f20"
   d="M 17.592325,5.1125 L 16.404825,3.4975 L 55.259825,3.4975 L 54.119825,5.1125 L 17.592325,5.1125 z "
   id="polygon7" />
<path
   style="fill:#231f20"
   d="M 6.287325,39.8825 L 4.387325,40.5 L 16.404825,3.4975 L 17.592325,5.1125 L 6.287325,39.8825 z "
   id="polygon9" />
<path
   style="fill:#231f20"
   d="M 26.807325,54.7975 L 25.857325,56.08 L 4.387325,40.5 L 6.287325,39.8825 L 26.807325,54.7975 z "
   id="polygon11" />
<path
   style="fill:#231f20"
   d="M 65.377325,39.8825 L 67.277325,40.5 L 45.759825,56.1275 L 44.809825,54.7975 L 65.377325,39.8825 z "
   id="polygon13" />
<path
   style="fill:#231f20"
   d="M 54.119825,5.1125 L 55.259825,3.4975 L 67.277325,40.5 L 65.377325,39.8825 L 54.119825,5.1125 z "
   id="polygon15" />
<g
   id="g17"
   transform="matrix(0.95,0,0,0.95,2.819825,3.4975)">
	<path
   style="fill:#231f20"
   d="M 96.355,51.935 C 96.355,49.082 97.121,46.85 98.654,45.237 C 100.185,43.623 102.164,42.816 104.586,42.816 C 106.174,42.816 107.604,43.195 108.877,43.953 C 110.151,44.712 111.123,45.768 111.791,47.124 C 112.459,48.48 112.793,50.018 112.793,51.736 C 112.793,53.479 112.441,55.038 111.738,56.413 C 111.035,57.788 110.038,58.83 108.748,59.537 C 107.459,60.244 106.067,60.598 104.574,60.598 C 102.957,60.598 101.51,60.207 100.236,59.426 C 98.962,58.645 97.998,57.577 97.34,56.226 C 96.682,54.875 96.355,53.443 96.355,51.935 z M 98.699,51.964 C 98.699,54.034 99.256,55.665 100.371,56.857 C 101.484,58.048 102.883,58.644 104.562,58.644 C 106.275,58.644 107.683,58.042 108.791,56.839 C 109.896,55.636 110.449,53.929 110.449,51.718 C 110.449,50.32 110.213,49.099 109.74,48.056 C 109.267,47.013 108.575,46.204 107.664,45.63 C 106.754,45.056 105.732,44.769 104.598,44.769 C 102.989,44.769 101.602,45.322 100.442,46.427 C 99.279,47.532 98.699,49.378 98.699,51.964 z "
   id="path19" />
</g>
<path
   style="fill:#231f20"
   d="M 93.829825,45.2975 L 93.354825,46.8175 L 64.996375,37.6025 L 65.519825,36.0825 L 93.829825,45.2975 z "
   id="polygon21" />
<path
   style="fill:#231f20"
   d="M 92.119825,50.665 L 91.596375,52.185 L 63.287325,42.97 L 63.762325,41.45 L 92.119825,50.665 z "
   id="polygon23" />
<path
   style="fill:#231f20"
   d="M 36.639825,99.5425 L 35.832325,100.0175 L 35.024825,99.5425 L 35.024825,73.465 L 36.639825,73.465 L 36.639825,99.5425 z "
   id="polygon25" />
<path
   style="fill:#231f20"
   d="M 68.464825,117.87655 L 68.464825,119.77655 L 35.832325,100.92 L 35.832325,100.0175 L 36.639825,99.5425 L 68.464825,117.87655 z "
   id="polygon27" />
<path
   style="fill:#231f20"
   d="M 3.627325,119.53905 L 2.819825,118.11405 L 35.024825,99.5425 L 35.832325,100.0175 L 35.832325,100.92 L 3.627325,119.53905 z "
   id="polygon29" />
<path
   style="fill:#231f20"
   d="M 100.66983,99.305 L 101.47733,100.6825 L 68.464825,119.77655 L 68.464825,117.87655 L 100.66983,99.305 z "
   id="polygon31" />
<path
   style="fill:none;stroke:#231f20;stroke-width:1.70000005"
   d="M 24.622325,131.13 L 21.819825,131.13 L 21.819825,86.67 L 24.622325,86.67 M 79.721375,86.67 L 82.524825,86.67 L 82.524825,131.13 L 79.721375,131.13"
   id="path33" />
<g
   id="g35"
   transform="matrix(0.95,0,0,0.95,2.819825,3.4975)">
	<path
   style="fill:#231f20"
   d="M 91.838,139.899 L 91.838,130.555 L 93.26,130.555 L 93.26,131.882 C 93.946,130.862 94.938,130.352 96.235,130.352 C 96.799,130.352 97.317,130.454 97.79,130.656 C 98.263,130.858 98.616,131.123 98.851,131.451 C 99.086,131.779 99.25,132.17 99.345,132.621 C 99.404,132.914 99.433,133.427 99.433,134.159 L 99.433,139.899 L 97.855,139.899 L 97.855,134.222 C 97.855,133.578 97.792,133.096 97.669,132.777 C 97.546,132.458 97.325,132.203 97.011,132.013 C 96.697,131.822 96.327,131.727 95.905,131.727 C 95.228,131.727 94.644,131.941 94.154,132.369 C 93.662,132.797 93.418,133.608 93.418,134.803 L 93.418,139.9 L 91.838,139.9 L 91.838,139.899 z "
   id="path37" />
</g>
</svg>