<?xml version="1.0" encoding="UTF-8"?>
<svg version="1.1" xmlns="http://www.w3.org/2000/svg" width="1589" height="567">
<path d="M0 0 C0.99 0 1.98 0 3 0 C3 15.18 3 30.36 3 46 C4.32 45.34 5.64 44.68 7 44 C8.65 44.33 10.3 44.66 12 45 C12.33 30.15 12.66 15.3 13 0 C13.99 0 14.98 0 16 0 C15.95701279 0.57025909 15.91402557 1.14051819 15.86973572 1.72805786 C12.6274844 27.57169938 12.6274844 27.57169938 19.11425781 51.421875 C24.69324268 56.40813091 31.38852178 58.56738695 38.44335938 60.74511719 C44.54247307 62.89705598 49.8356233 66.35929125 55.3125 69.75 C57.28422858 70.91744404 59.25923392 72.07938113 61.23828125 73.234375 C62.06368408 73.72131836 62.88908691 74.20826172 63.73950195 74.70996094 C64.48546631 75.13567383 65.23143066 75.56138672 66 76 C66.98262817 76.61149902 66.98262817 76.61149902 67.98510742 77.23535156 C70.74005036 78.2808479 72.20303188 77.87205348 75 77 C77.63918184 75.7380198 77.63918184 75.7380198 80.33203125 74.11328125 C81.36674561 73.51104736 82.40145996 72.90881348 83.4675293 72.28833008 C84.57136963 71.63630615 85.67520996 70.98428223 86.8125 70.3125 C87.96551465 69.6382537 89.11892208 68.96467869 90.27270508 68.29174805 C92.6583533 66.89884629 95.04158487 65.50194133 97.42285156 64.1015625 C101.96088021 61.43340254 106.51045163 58.78511254 111.05932617 56.13549805 C114.03461074 54.40159889 117.00770717 52.66400129 119.98046875 50.92578125 C120.84849121 50.42385254 121.71651367 49.92192383 122.61083984 49.40478516 C124.10659764 48.52530525 125.58893596 47.62210995 127.04931641 46.68505859 C131.40343987 43.94366027 131.40343987 43.94366027 134.36279297 44.22314453 C137.33170362 45.09771162 139.66210971 46.32030492 142.33203125 47.88671875 C143.36674561 48.48895264 144.40145996 49.09118652 145.4675293 49.71166992 C146.57136963 50.36369385 147.67520996 51.01571777 148.8125 51.6875 C149.96551465 52.3617463 151.11892208 53.03532131 152.27270508 53.70825195 C154.6583533 55.10115371 157.04158487 56.49805867 159.42285156 57.8984375 C163.96088021 60.56659746 168.51045163 63.21488746 173.05932617 65.86450195 C176.03461074 67.59840111 179.00770717 69.33599871 181.98046875 71.07421875 C182.84849121 71.57614746 183.71651367 72.07807617 184.61083984 72.59521484 C186.10659764 73.47469475 187.58893596 74.37789005 189.04931641 75.31494141 C192.43794677 77.49085549 192.43794677 77.49085549 196.34423828 77.78613281 C199.41736365 76.87645606 201.85713855 75.57654033 204.62890625 73.96484375 C205.73355225 73.32748291 206.83819824 72.69012207 207.97631836 72.03344727 C208.85270462 71.52118088 208.85270462 71.52118088 209.74679565 70.99856567 C211.58464467 69.92455904 213.42742845 68.85951672 215.27172852 67.79663086 C219.18570095 65.53889965 223.09328668 63.27026303 227 61 C231.52871026 58.3682831 236.05994814 55.74114665 240.59811401 53.12576294 C242.41001338 52.07838873 244.21687007 51.02267248 246.02368164 49.96655273 C247.12832764 49.32919189 248.23297363 48.69183105 249.37109375 48.03515625 C250.33974365 47.4719165 251.30839355 46.90867676 252.30639648 46.32836914 C255.04332463 44.97863416 256.95202638 44.15601733 260 44 C262.75708008 45.13305664 262.75708008 45.13305664 265.76953125 46.91015625 C267.45719604 47.89097168 267.45719604 47.89097168 269.17895508 48.89160156 C270.39029571 49.6149682 271.60147374 50.33860719 272.8125 51.0625 C274.06000113 51.79399199 275.30830224 52.52412126 276.55737305 53.25292969 C279.11841222 54.75024362 281.67446479 56.2555637 284.2265625 57.76806641 C288.86903768 60.51825419 293.53479955 63.2276747 298.19995117 65.93920898 C301.15330961 67.65738763 304.10265672 69.38223539 307.05078125 71.109375 C308.3339624 71.8528418 308.3339624 71.8528418 309.64306641 72.61132812 C311.12491732 73.48441368 312.59336526 74.38109413 314.04052734 75.31054688 C317.44197856 77.49426916 317.44197856 77.49426916 321.36328125 77.77709961 C324.33176189 76.9022224 326.66238518 75.67953347 329.33203125 74.11328125 C330.36674561 73.51104736 331.40145996 72.90881348 332.4675293 72.28833008 C333.57136963 71.63630615 334.67520996 70.98428223 335.8125 70.3125 C336.96551465 69.6382537 338.11892208 68.96467869 339.27270508 68.29174805 C341.6583533 66.89884629 344.04158487 65.50194133 346.42285156 64.1015625 C350.96088021 61.43340254 355.51045163 58.78511254 360.05932617 56.13549805 C363.03461074 54.40159889 366.00770717 52.66400129 368.98046875 50.92578125 C369.84849121 50.42385254 370.71651367 49.92192383 371.61083984 49.40478516 C373.10659764 48.52530525 374.58893596 47.62210995 376.04931641 46.68505859 C380.40078331 43.94533287 380.40078331 43.94533287 383.34423828 44.21386719 C386.41736365 45.12354394 388.85713855 46.42345967 391.62890625 48.03515625 C392.73355225 48.67251709 393.83819824 49.30987793 394.97631836 49.96655273 C395.56057587 50.30806366 396.14483337 50.64957458 396.74679565 51.00143433 C398.58464467 52.07544096 400.42742845 53.14048328 402.27172852 54.20336914 C406.8498134 56.84418618 411.4190547 59.50016517 415.98864746 62.15563965 C419.85480946 64.40155967 423.72421984 66.6416788 427.59811401 68.87423706 C429.41001338 69.92161127 431.21687007 70.97732752 433.02368164 72.03344727 C434.12832764 72.67080811 435.23297363 73.30816895 436.37109375 73.96484375 C437.33974365 74.5280835 438.30839355 75.09132324 439.30639648 75.67163086 C442.04332463 77.02136584 443.95202638 77.84398267 447 78 C449.86835492 76.89778818 449.86835492 76.89778818 452.76953125 75.08984375 C453.89464111 74.4359668 455.01975098 73.78208984 456.17895508 73.10839844 C457.39029571 72.3850318 458.60147374 71.66139281 459.8125 70.9375 C461.06000113 70.20600801 462.30830224 69.47587874 463.55737305 68.74707031 C466.11841222 67.24975638 468.67446479 65.7444363 471.2265625 64.23193359 C475.86903768 61.48174581 480.53479955 58.7723253 485.19995117 56.06079102 C488.15330961 54.34261237 491.10265672 52.61776461 494.05078125 50.890625 C494.90623535 50.39498047 495.76168945 49.89933594 496.64306641 49.38867188 C498.12491732 48.51558632 499.59336526 47.61890587 501.04052734 46.68945312 C505.40280648 43.94322413 505.40280648 43.94322413 508.36767578 44.22509766 C511.3118681 45.09180758 513.61572814 46.29593567 516.26171875 47.8515625 C517.28604004 48.44855957 518.31036133 49.04555664 519.36572266 49.66064453 C521.01000244 50.63300049 521.01000244 50.63300049 522.6875 51.625 C524.42508415 52.64086765 526.16267552 53.65672318 527.9006958 54.67184448 C529.71247421 55.73106699 531.52251004 56.79322695 533.33251953 57.85546875 C536.9492375 59.97449747 540.57979729 62.06885423 544.21484375 64.15625 C544.79793808 64.49127533 545.38103241 64.82630066 545.98179626 65.17147827 C548.7773619 66.77739311 551.57348763 68.38232952 554.36987305 69.98681641 C555.38476807 70.57124512 556.39966309 71.15567383 557.4453125 71.7578125 C558.32719238 72.2645752 559.20907227 72.77133789 560.11767578 73.29345703 C561.54442627 74.1381958 561.54442627 74.1381958 563 75 C564.03849091 75.36423317 564.03849091 75.36423317 565.09796143 75.73582458 C567.74704398 76.865401 569.17032268 77.75314739 571 80 C572.16224543 85.47776126 571.93068695 90.88336916 571.78125 96.45703125 C571.76632105 98.08653484 571.7549371 99.71607444 571.74694824 101.34562683 C571.7164639 105.62588388 571.63793821 109.90395416 571.54931641 114.18334961 C571.46734175 118.55357275 571.4309123 122.92415082 571.390625 127.29492188 C571.30493561 135.86428263 571.16847918 144.43186899 571 153 C571.93399628 153.30026093 572.86799255 153.60052185 573.83029175 153.90988159 C577.03631872 155.01249065 579.61224172 156.37947072 582.5078125 158.1328125 C584.09263428 159.08401978 584.09263428 159.08401978 585.70947266 160.05444336 C586.83659668 160.73772705 587.9637207 161.42101074 589.125 162.125 C591.52897507 163.57021757 593.93599944 165.01030163 596.34375 166.44921875 C596.96351715 166.82005081 597.5832843 167.19088287 598.22183228 167.57295227 C606.51550966 172.52145681 614.92217953 177.27327928 623.32470703 182.03369141 C624.44731934 182.67097168 625.56993164 183.30825195 626.7265625 183.96484375 C628.22050537 184.80970337 628.22050537 184.80970337 629.74462891 185.67163086 C632 187 632 187 633 188 C633.09439978 190.26991887 633.11742226 192.54281967 633.11352539 194.81469727 C633.11367142 195.52685394 633.11381744 196.23901062 633.1139679 196.9727478 C633.1132687 199.33733112 633.10547606 201.70183661 633.09765625 204.06640625 C633.09579209 205.70165463 633.09436818 207.33690357 633.09336853 208.97215271 C633.08954318 213.28434785 633.07971275 217.59650952 633.06866455 221.90869141 C633.0584508 226.30565946 633.05387099 230.70263289 633.04882812 235.09960938 C633.03809049 243.73308831 633.02101387 252.36654 633 261 C633.93869431 261.30339294 634.87738861 261.60678589 635.8445282 261.91937256 C638.83755013 262.94436718 641.24947067 264.1477806 643.95703125 265.765625 C644.89289062 266.31935791 645.82875 266.87309082 646.79296875 267.44360352 C647.78941406 268.03971436 648.78585937 268.6358252 649.8125 269.25 C659.66953771 275.0805049 669.60473683 280.74550818 679.62426758 286.29199219 C680.60419678 286.83629883 681.58412598 287.38060547 682.59375 287.94140625 C683.44646484 288.41263916 684.29917969 288.88387207 685.17773438 289.36938477 C686.10908203 289.90748779 687.04042969 290.44559082 688 291 C688.68936646 291.23912613 689.37873291 291.47825226 690.08898926 291.72462463 C692.74279789 292.85604192 694.1670955 293.74913299 696 296 C697.16291822 301.47755447 696.93068506 306.88343969 696.78125 312.45703125 C696.76632105 314.08653484 696.7549371 315.71607444 696.74694824 317.34562683 C696.7164639 321.62588388 696.63793821 325.90395416 696.54931641 330.18334961 C696.46734175 334.55357275 696.4309123 338.92415082 696.390625 343.29492188 C696.30493561 351.86428263 696.16847918 360.43186899 696 369 C696.93399628 369.30026093 697.86799255 369.60052185 698.83029175 369.90988159 C702.03631872 371.01249065 704.61224172 372.37947072 707.5078125 374.1328125 C708.56436035 374.76695068 709.6209082 375.40108887 710.70947266 376.05444336 C711.83659668 376.73772705 712.9637207 377.42101074 714.125 378.125 C716.52897507 379.57021757 718.93599944 381.01030163 721.34375 382.44921875 C722.27340073 383.00546684 722.27340073 383.00546684 723.22183228 383.57295227 C731.51550966 388.52145681 739.92217953 393.27327928 748.32470703 398.03369141 C749.44731934 398.67097168 750.56993164 399.30825195 751.7265625 399.96484375 C753.22050537 400.80970337 753.22050537 400.80970337 754.74462891 401.67163086 C757 403 757 403 758 404 C758.09439978 406.26991887 758.11742226 408.54281967 758.11352539 410.81469727 C758.11367142 411.52685394 758.11381744 412.23901062 758.1139679 412.9727478 C758.1132687 415.33733112 758.10547606 417.70183661 758.09765625 420.06640625 C758.09579209 421.70165463 758.09436818 423.33690357 758.09336853 424.97215271 C758.08954318 429.28434785 758.07971275 433.59650952 758.06866455 437.90869141 C758.0584508 442.30565946 758.05387099 446.70263289 758.04882812 451.09960938 C758.03809049 459.73308831 758.02101387 468.36654 758 477 C758.93549179 477.30273834 759.87098358 477.60547668 760.83482361 477.91738892 C763.90957138 478.96906996 766.49366736 480.23730481 769.31640625 481.8359375 C770.81868774 482.68188477 770.81868774 482.68188477 772.35131836 483.54492188 C773.4110083 484.14884766 774.47069824 484.75277344 775.5625 485.375 C776.66279541 485.99697266 777.76309082 486.61894531 778.89672852 487.25976562 C782.26769052 489.16759183 785.63420455 491.08307664 789 493 C790.98693347 494.12768469 792.97391021 495.25529314 794.9609375 496.3828125 C803.36538248 501.16300052 811.72520418 505.99780245 820 511 C819.67 511.99 819.34 512.98 819 514 C814.92734508 512.75986692 811.48356763 511.27727701 807.859375 509.05078125 C806.88339355 508.45692627 805.90741211 507.86307129 804.90185547 507.2512207 C803.86174316 506.61144287 802.82163086 505.97166504 801.75 505.3125 C799.51939313 503.95641688 797.28758152 502.60231384 795.0546875 501.25 C794.48078278 500.90209915 793.90687805 500.5541983 793.31558228 500.195755 C786.88832198 496.3095526 780.38643517 492.55541412 773.875 488.8125 C772.79186523 488.18964111 771.70873047 487.56678223 770.59277344 486.92504883 C765.53864716 483.75346366 765.53864716 483.75346366 760.09873962 481.47024536 C757.6915156 480.63021554 756.57846506 480.02809433 755 478 C754.33675655 473.4845612 754.61685751 469.07784082 754.93052101 464.54682159 C755.08401598 462.17242349 755.17487644 459.80344823 755.24601746 457.42523193 C755.44942888 450.6685584 755.68339574 443.92023874 756.1550293 437.17626953 C758.05305461 419.5738016 758.05305461 419.5738016 752.80064774 403.39623642 C746.49762844 396.98605212 737.89606708 393.69224257 729.66188049 390.52116394 C723.68693532 388.03914107 718.32191234 384.68853568 712.8125 381.3125 C710.92533758 380.20075152 709.03639171 379.09201612 707.14453125 377.98828125 C706.36440674 377.52977783 705.58428223 377.07127441 704.78051758 376.59887695 C700.87867647 374.35520697 696.93452539 372.18584744 693 370 C693 345.91 693 321.82 693 297 C691.35 296.34 689.7 295.68 688 295 C685.70571818 293.78018308 683.44362218 292.5365275 681.1875 291.25 C680.1672876 290.67270142 680.1672876 290.67270142 679.12646484 290.08374023 C671.81203452 285.92697156 664.55395259 281.67178162 657.30541992 277.40136719 C648.29080629 272.11033148 639.1505787 267.0511906 630 262 C630.04964905 261.12098022 630.0992981 260.24196045 630.15045166 259.33630371 C630.596602 250.98328061 630.90301556 242.6385957 631.05958939 234.27494049 C631.14484583 229.97472845 631.2805517 225.68952689 631.53955078 221.39599609 C633.24910501 203.65007761 633.24910501 203.65007761 627.78670883 187.38827133 C621.4733678 180.98466271 612.89483111 177.68697638 604.65483093 174.51713562 C598.68194456 172.03776548 593.31941828 168.68693247 587.8125 165.3125 C585.92533707 164.20075239 584.03639131 163.09201682 582.14453125 161.98828125 C581.36440674 161.52977783 580.58428223 161.07127441 579.78051758 160.59887695 C575.87822577 158.35494781 571.93918409 156.17834987 568 154 C568.06448082 152.6748085 568.06448082 152.6748085 568.13026428 151.32284546 C568.51542181 142.93941925 568.77673373 134.56277002 568.90415287 126.17131615 C568.97390219 121.85696343 569.08892358 117.55441932 569.31323242 113.24511719 C570.94719122 94.7202401 570.94719122 94.7202401 564.65350342 78.13418579 C558.72744155 73.38296111 552.10095981 70.62195211 544.98776245 68.10168457 C541.18903291 66.70097023 538.05243369 64.89172085 534.625 62.74609375 C533.18253906 61.90014648 533.18253906 61.90014648 531.7109375 61.03710938 C530.81632812 60.50923828 529.92171875 59.98136719 529 59.4375 C526.1936235 57.78657905 523.38638741 56.13774716 520.5703125 54.50341797 C518.86593689 53.5065007 517.17287302 52.48997057 515.4921875 51.45361328 C514.71101563 50.98552246 513.92984375 50.51743164 513.125 50.03515625 C512.44695313 49.61758057 511.76890625 49.20000488 511.0703125 48.76977539 C508.28091106 47.7326312 506.82497892 48.11413117 504 49 C501.36081816 50.2619802 501.36081816 50.2619802 498.66796875 51.88671875 C497.63325439 52.48895264 496.59854004 53.09118652 495.5324707 53.71166992 C493.87671021 54.68970581 493.87671021 54.68970581 492.1875 55.6875 C491.03448535 56.3617463 489.88107792 57.03532131 488.72729492 57.70825195 C486.3416467 59.10115371 483.95841513 60.49805867 481.57714844 61.8984375 C477.03911979 64.56659746 472.48954837 67.21488746 467.94067383 69.86450195 C464.96538926 71.59840111 461.99229283 73.33599871 459.01953125 75.07421875 C458.15150879 75.57614746 457.28348633 76.07807617 456.38916016 76.59521484 C454.89340236 77.47469475 453.41106404 78.37789005 451.95068359 79.31494141 C447.5922984 82.05902296 447.5922984 82.05902296 444.62353516 81.76318359 C441.76286902 80.93101885 439.47832458 79.80082428 436.88671875 78.33203125 C435.89736328 77.77507568 434.90800781 77.21812012 433.88867188 76.64428711 C432.3040918 75.73755249 432.3040918 75.73755249 430.6875 74.8125 C429.59115234 74.19189697 428.49480469 73.57129395 427.36523438 72.93188477 C418.55460371 67.92899307 409.7926299 62.84156518 401.05737305 57.70825195 C399.23117872 56.63515038 397.40228883 55.56661852 395.5703125 54.50341797 C393.86593689 53.5065007 392.17287302 52.48997057 390.4921875 51.45361328 C389.71101563 50.98552246 388.92984375 50.51743164 388.125 50.03515625 C387.10792969 49.40879272 387.10792969 49.40879272 386.0703125 48.76977539 C383.28091106 47.7326312 381.82497892 48.11413117 379 49 C376.36081816 50.2619802 376.36081816 50.2619802 373.66796875 51.88671875 C372.63325439 52.48895264 371.59854004 53.09118652 370.5324707 53.71166992 C369.42863037 54.36369385 368.32479004 55.01571777 367.1875 55.6875 C366.03448535 56.3617463 364.88107792 57.03532131 363.72729492 57.70825195 C361.3416467 59.10115371 358.95841513 60.49805867 356.57714844 61.8984375 C352.03911979 64.56659746 347.48954837 67.21488746 342.94067383 69.86450195 C339.96538926 71.59840111 336.99229283 73.33599871 334.01953125 75.07421875 C333.15150879 75.57614746 332.28348633 76.07807617 331.38916016 76.59521484 C329.89340236 77.47469475 328.41106404 78.37789005 326.95068359 79.31494141 C322.59656013 82.05633973 322.59656013 82.05633973 319.63720703 81.77685547 C316.66829638 80.90228838 314.33789029 79.67969508 311.66796875 78.11328125 C310.11589722 77.20993042 310.11589722 77.20993042 308.5324707 76.28833008 C307.42863037 75.63630615 306.32479004 74.98428223 305.1875 74.3125 C304.03448535 73.6382537 302.88107792 72.96467869 301.72729492 72.29174805 C299.3416467 70.89884629 296.95841513 69.50194133 294.57714844 68.1015625 C290.03911979 65.43340254 285.48954837 62.78511254 280.94067383 60.13549805 C277.96538926 58.40159889 274.99229283 56.66400129 272.01953125 54.92578125 C271.15150879 54.42385254 270.28348633 53.92192383 269.38916016 53.40478516 C267.89340236 52.52530525 266.41106404 51.62210995 264.95068359 50.68505859 C261.54759809 48.4987216 261.54759809 48.4987216 257.62353516 48.23681641 C254.76286902 49.06898115 252.47832458 50.19917572 249.88671875 51.66796875 C248.89736328 52.22492432 247.90800781 52.78187988 246.88867188 53.35571289 C245.3040918 54.26244751 245.3040918 54.26244751 243.6875 55.1875 C242.59115234 55.80810303 241.49480469 56.42870605 240.36523438 57.06811523 C231.55460371 62.07100693 222.7926299 67.15843482 214.05737305 72.29174805 C212.23117872 73.36484962 210.40228883 74.43338148 208.5703125 75.49658203 C206.86593689 76.4934993 205.17287302 77.51002943 203.4921875 78.54638672 C202.71101562 79.01447754 201.92984375 79.48256836 201.125 79.96484375 C200.10792969 80.59120728 200.10792969 80.59120728 199.0703125 81.23022461 C196.28091106 82.2673688 194.82497892 81.88586883 192 81 C189.42651367 79.73168945 189.42651367 79.73168945 186.66796875 78.11328125 C185.63325439 77.51104736 184.59854004 76.90881348 183.5324707 76.28833008 C182.42863037 75.63630615 181.32479004 74.98428223 180.1875 74.3125 C179.03448535 73.6382537 177.88107792 72.96467869 176.72729492 72.29174805 C174.3416467 70.89884629 171.95841513 69.50194133 169.57714844 68.1015625 C165.03911979 65.43340254 160.48954837 62.78511254 155.94067383 60.13549805 C152.96538926 58.40159889 149.99229283 56.66400129 147.01953125 54.92578125 C146.15150879 54.42385254 145.28348633 53.92192383 144.38916016 53.40478516 C142.89340236 52.52530525 141.41106404 51.62210995 139.95068359 50.68505859 C136.55364285 48.50418764 136.55364285 48.50418764 132.63720703 48.22314453 C129.66829638 49.09771162 127.33789029 50.32030492 124.66796875 51.88671875 C123.63325439 52.48895264 122.59854004 53.09118652 121.5324707 53.71166992 C120.42863037 54.36369385 119.32479004 55.01571777 118.1875 55.6875 C117.03448535 56.3617463 115.88107792 57.03532131 114.72729492 57.70825195 C112.3416467 59.10115371 109.95841513 60.49805867 107.57714844 61.8984375 C103.03911979 64.56659746 98.48954837 67.21488746 93.94067383 69.86450195 C90.96538926 71.59840111 87.99229283 73.33599871 85.01953125 75.07421875 C84.15150879 75.57614746 83.28348633 76.07807617 82.38916016 76.59521484 C80.89340236 77.47469475 79.41106404 78.37789005 77.95068359 79.31494141 C73.5922984 82.05902296 73.5922984 82.05902296 70.62353516 81.76318359 C67.76286902 80.93101885 65.47832458 79.80082428 62.88671875 78.33203125 C61.89736328 77.77507568 60.90800781 77.21812012 59.88867188 76.64428711 C58.83228516 76.03979736 57.77589844 75.43530762 56.6875 74.8125 C55.59115234 74.19189697 54.49480469 73.57129395 53.36523438 72.93188477 C44.55460371 67.92899307 35.7926299 62.84156518 27.05737305 57.70825195 C25.23117872 56.63515038 23.40228883 55.56661852 21.5703125 54.50341797 C19.86593689 53.5065007 18.17287302 52.48997057 16.4921875 51.45361328 C15.71101562 50.98552246 14.92984375 50.51743164 14.125 50.03515625 C13.44695313 49.61758057 12.76890625 49.20000488 12.0703125 48.76977539 C9.24277092 47.71845008 7.86566307 48.06902988 5 49 C2.81313719 50.1629055 0.67048407 51.41050629 -1.4375 52.7109375 C-2.04005615 53.0797403 -2.6426123 53.44854309 -3.26342773 53.82852173 C-5.17999789 55.00372725 -7.09003094 56.189103 -9 57.375 C-10.28342955 58.16475296 -11.56727991 58.95382249 -12.8515625 59.7421875 C-15.21752788 61.19548197 -17.5803646 62.65342508 -19.94140625 64.11474609 C-20.95074219 64.73687988 -21.96007812 65.35901367 -23 66 C-23.91007813 66.59377441 -24.82015625 67.18754883 -25.7578125 67.79931641 C-26.49773438 68.19554199 -27.23765625 68.59176758 -28 69 C-30.3125 68.1875 -30.3125 68.1875 -32 67 C-27.23463885 63.25517381 -21.93852047 60.38280198 -16.69970703 57.36499023 C-14.87104975 56.3102215 -13.04679071 55.24811378 -11.22265625 54.18554688 C-10.06275981 53.51517527 -8.90261223 52.84523796 -7.7421875 52.17578125 C-6.6888623 51.56645752 -5.63553711 50.95713379 -4.55029297 50.3293457 C-2 49 -2 49 0 49 C0 32.83 0 16.66 0 0 Z " fill="#000000" transform="translate(763,47)"/>
<path d="M0 0 C0.99 0 1.98 0 3 0 C2.40509077 3.67405479 1.35606316 6.55853701 -0.3125 9.875 C-6.39005684 22.89330292 -8.18375126 36.2856218 -8.0625 50.5 C-8.05573242 52.01980469 -8.05573242 52.01980469 -8.04882812 53.5703125 C-8.03714593 56.04693827 -8.02076582 58.52343657 -8 61 C-7.19780029 60.51007568 -6.39560059 60.02015137 -5.5690918 59.51538086 C-2.59396246 57.70504171 0.38641038 55.90404541 3.37084961 54.10913086 C4.66214303 53.32993847 5.95122698 52.54707236 7.23803711 51.76049805 C9.08661397 50.63140582 10.94269781 49.51570323 12.80078125 48.40234375 C14.47394409 47.38901978 14.47394409 47.38901978 16.1809082 46.35522461 C19 45 19 45 22 46 C20.74327194 49.77018417 19.70537745 49.99300253 16.265625 51.8125 C14.81542969 52.58980469 14.81542969 52.58980469 13.3359375 53.3828125 C12.31757813 53.91648438 11.29921875 54.45015625 10.25 55 C8.25479174 56.0617175 6.25998668 57.12419311 4.265625 58.1875 C3.37649414 58.65542969 2.48736328 59.12335938 1.57128906 59.60546875 C-0.99954814 60.99975494 -3.5035308 62.47718748 -6 64 C-4.35769725 71.99542126 -1.84801141 78.97661943 1.79296875 86.28515625 C3 89 3 89 3 92 C2.01 92 1.02 92 0 92 C-3.99557373 83.789917 -7.67999092 75.87062297 -10 67 C-12.97 67.99 -15.94 68.98 -19 70 C-19 93.76 -19 117.52 -19 142 C-16.03 142.99 -16.03 142.99 -13 144 C-12.01 144.66 -11.02 145.32 -10 146 C-9.41992188 144.40671875 -9.41992188 144.40671875 -8.828125 142.78125 C-6.21130213 135.65945298 -3.62167561 128.68617035 0 122 C0.99 122 1.98 122 3 122 C2.38381689 125.82864339 1.23217407 128.94456167 -0.4375 132.4375 C-3.11388904 138.20024518 -5 142.55474871 -5 149 C3.91 153.95 12.82 158.9 22 164 C22 164.99 22 165.98 22 167 C17.84979622 165.73735777 14.31829756 164.19097854 10.6015625 161.9609375 C9.62832031 161.38085938 8.65507812 160.80078125 7.65234375 160.203125 C6.65332031 159.59984375 5.65429688 158.9965625 4.625 158.375 C3.60277344 157.76398438 2.58054687 157.15296875 1.52734375 156.5234375 C-0.98492073 155.02077463 -3.49385721 153.51284285 -6 152 C-9.11526891 155.11526891 -8.1591198 163.90606334 -8.25 168 C-8.12324284 182.16863375 -4.92163029 195.55139846 1.65625 208.1796875 C3 211 3 211 3 214 C2.01 214 1.02 214 0 214 C-10.7118324 192.78696111 -13.75853327 172.6938304 -11 149 C-12.051875 148.319375 -13.10375 147.63875 -14.1875 146.9375 C-14.77917969 146.55464844 -15.37085938 146.17179688 -15.98046875 145.77734375 C-18.7219844 144.72209885 -20.17356235 145.23883993 -23 146 C-25.63918184 147.2619802 -25.63918184 147.2619802 -28.33203125 148.88671875 C-29.36674561 149.48895264 -30.40145996 150.09118652 -31.4675293 150.71166992 C-32.57136963 151.36369385 -33.67520996 152.01571777 -34.8125 152.6875 C-35.96551465 153.3617463 -37.11892208 154.03532131 -38.27270508 154.70825195 C-40.6583533 156.10115371 -43.04158487 157.49805867 -45.42285156 158.8984375 C-49.96088021 161.56659746 -54.51045163 164.21488746 -59.05932617 166.86450195 C-62.03461074 168.59840111 -65.00770717 170.33599871 -67.98046875 172.07421875 C-68.84462402 172.57743652 -69.7087793 173.0806543 -70.59912109 173.59912109 C-72.12095051 174.48708705 -73.63988659 175.38004594 -75.15478516 176.27978516 C-79.78141426 179 -79.78141426 179 -82 179 C-82.12668564 180.02690445 -82.25337128 181.0538089 -82.38389587 182.11183167 C-82.94525896 185.65453503 -83.75221014 188.80647494 -84.85766602 192.21069336 C-85.42814415 193.98173683 -85.42814415 193.98173683 -86.01014709 195.78855896 C-86.42058762 197.04298294 -86.83102814 198.29740692 -87.25390625 199.58984375 C-87.67895981 200.90247248 -88.10350735 202.21526516 -88.52757263 203.5282135 C-89.63879474 206.96406229 -90.75682733 210.39765653 -91.87634277 213.83081055 C-93.02002918 217.34223913 -94.15719168 220.85577865 -95.29492188 224.36914062 C-97.52360629 231.24816701 -99.76009752 238.12461633 -102 245 C-98.7 246.98 -95.4 248.96 -92 251 C-91.61328125 250.01 -91.2265625 249.02 -90.828125 248 C-88.14433181 241.18005866 -85.43992075 234.48292757 -82 228 C-81.01 228 -80.02 228 -79 228 C-79.61618311 231.82864339 -80.76782593 234.94456167 -82.4375 238.4375 C-85.94392804 245.9091753 -85.94392804 245.9091753 -87 254 C-84.64833561 255.91849528 -84.64833561 255.91849528 -81.53125 257.56640625 C-79.83935547 258.5419043 -79.83935547 258.5419043 -78.11328125 259.53710938 C-76.90962517 260.21361322 -75.70518717 260.88872758 -74.5 261.5625 C-72.14825264 262.88421358 -69.80714956 264.22082433 -67.46875 265.56640625 C-66.42138672 266.15365479 -65.37402344 266.74090332 -64.29492188 267.34594727 C-63.53759766 267.89178467 -62.78027344 268.43762207 -62 269 C-62 269.99 -62 270.98 -62 272 C-67.82693099 270.41949258 -72.61850476 267.45233504 -77.75 264.375 C-79.45079945 263.35807955 -81.15381808 262.34485849 -82.859375 261.3359375 C-83.98037598 260.66377197 -83.98037598 260.66377197 -85.12402344 259.97802734 C-86.94297383 258.84590336 -86.94297383 258.84590336 -89 259 C-92.11505494 278.07971153 -89.28947667 297.00558017 -80.34375 314.1796875 C-79 317 -79 317 -79 320 C-79.99 320 -80.98 320 -82 320 C-92.41253491 299.37967103 -97.35390618 277.99311493 -92 255 C-93.2684375 254.62875 -93.2684375 254.62875 -94.5625 254.25 C-98 253 -98 253 -100.72509766 250.96826172 C-106.72264188 247.512473 -114.10891361 248.29795842 -120.8359375 248.2578125 C-122.39946801 248.23983988 -123.96299543 248.2215956 -125.52651978 248.20309448 C-128.80308324 248.17018708 -132.07924025 248.15473059 -135.35595703 248.14892578 C-138.68538773 248.14034477 -142.01169816 248.09890405 -145.34033203 248.02587891 C-171.39410984 247.21144174 -171.39410984 247.21144174 -194 259 C-194.66 259 -195.32 259 -196 259 C-195.83886719 260.00933594 -195.67773438 261.01867187 -195.51171875 262.05859375 C-192.87068428 282.40060731 -197.13289711 302.15523946 -207 320 C-207.99 320 -208.98 320 -210 320 C-209.40509077 316.32594521 -208.35606316 313.44146299 -206.6875 310.125 C-201.44794222 298.91690248 -198.84984427 286.72646119 -198.875 274.375 C-198.87242187 273.10398437 -198.86984375 271.83296875 -198.8671875 270.5234375 C-198.97979903 267.53591973 -199.30091938 264.89619112 -200 262 C-201.48113281 262.86625 -201.48113281 262.86625 -202.9921875 263.75 C-204.28632735 264.500226 -205.58060537 265.25021368 -206.875 266 C-207.52597656 266.3815625 -208.17695313 266.763125 -208.84765625 267.15625 C-213.7734375 270 -213.7734375 270 -216 270 C-216.495 268.515 -216.495 268.515 -217 267 C-211.72 264.03 -206.44 261.06 -201 258 C-201.73185707 252.14514347 -202.2854703 248.57982852 -204.375 243.375 C-205.00535156 241.77785156 -205.00535156 241.77785156 -205.6484375 240.1484375 C-206.97501355 236.95312935 -206.97501355 236.95312935 -208.6640625 233.7890625 C-210 231 -210 231 -210 228 C-209.01 228 -208.02 228 -207 228 C-202.69000309 236.86212847 -198.9146279 245.55660561 -196 255 C-190.72 252.03 -185.44 249.06 -180 246 C-180.70811609 241.04318739 -181.41829155 237.23774695 -182.94946289 232.60571289 C-183.54997215 230.77460716 -183.54997215 230.77460716 -184.16261292 228.9065094 C-184.59916753 227.5951829 -185.03585162 226.28389949 -185.47265625 224.97265625 C-185.92014435 223.61519464 -186.36711198 222.25756136 -186.81358337 220.89976501 C-187.98384453 217.34547115 -189.16111351 213.79353786 -190.33990479 210.24206543 C-191.54403208 206.61005381 -192.74145134 202.97583256 -193.93945312 199.34179688 C-196.28644453 192.22569696 -198.64085079 185.1120798 -201 178 C-194.12774698 172.49356141 -187.08195422 167.23303829 -180 162 C-179.22253418 161.42427246 -178.44506836 160.84854492 -177.64404297 160.25537109 C-175.33406103 158.55350489 -173.01294396 156.86815722 -170.6875 155.1875 C-169.9646582 154.65382812 -169.24181641 154.12015625 -168.49707031 153.5703125 C-167.8212793 153.08691406 -167.14548828 152.60351562 -166.44921875 152.10546875 C-165.85455811 151.67387451 -165.25989746 151.24228027 -164.6472168 150.79760742 C-163 150 -163 150 -160 151 C-164.24652182 155.56393861 -169.0188078 159.10666466 -174.0625 162.75 C-175.65800086 163.91084178 -177.25304566 165.0723106 -178.84765625 166.234375 C-179.65992676 166.82541016 -180.47219727 167.41644531 -181.30908203 168.02539062 C-186.23731018 171.64174966 -191.11722384 175.32259536 -196 179 C-195.73477287 179.82993469 -195.73477287 179.82993469 -195.46418762 180.67663574 C-193.59750298 186.51811547 -191.73154005 192.3598254 -189.8659668 198.20166016 C-189.1727866 200.37196479 -188.479432 202.54221373 -187.78588867 204.71240234 C-185.81556008 210.8780371 -183.84915734 217.04489814 -181.88775635 223.21337891 C-181.0609023 225.80883085 -180.22893785 228.40259066 -179.39599609 230.99609375 C-178.9343316 232.44523647 -178.47288766 233.89444949 -178.01171875 235.34375 C-177.61815186 236.57287109 -177.22458496 237.80199219 -176.8190918 239.06835938 C-176 242 -176 242 -176 245 C-152.57 245 -129.14 245 -105 245 C-104.34 242.03 -103.68 239.06 -103 236 C-102.43079685 234.02404316 -101.83249346 232.05607876 -101.1965332 230.10058594 C-100.85310379 229.03628357 -100.50967438 227.9719812 -100.15583801 226.87542725 C-99.79116928 225.75638 -99.42650055 224.63733276 -99.05078125 223.484375 C-98.27753955 221.07566693 -97.50476684 218.66680826 -96.73242188 216.2578125 C-95.51935696 212.48821514 -94.30270822 208.71989467 -93.07788086 204.95410156 C-91.89167736 201.3008131 -90.72016218 197.64307705 -89.55078125 193.984375 C-88.99466911 192.29365875 -88.99466911 192.29365875 -88.42732239 190.56878662 C-88.09334946 189.5170929 -87.75937653 188.46539917 -87.4152832 187.38183594 C-86.96799614 186.00025299 -86.96799614 186.00025299 -86.51167297 184.59075928 C-85.93875931 181.68991933 -86.14773551 179.81681311 -87 177 C-88.51918372 175.31671619 -88.51918372 175.31671619 -90.54296875 174.01953125 C-91.28111816 173.49963623 -92.01926758 172.97974121 -92.77978516 172.4440918 C-93.57433105 171.9056665 -94.36887695 171.36724121 -95.1875 170.8125 C-95.9923584 170.25022705 -96.7972168 169.6879541 -97.62646484 169.10864258 C-99.27600128 167.9566397 -100.929349 166.81007529 -102.58642578 165.66894531 C-106.13044317 163.21831787 -109.6263365 160.70220758 -113.125 158.1875 C-115.08225151 156.79014232 -117.04115605 155.39512519 -119 154 C-118.34 153.01 -117.68 152.02 -117 151 C-113.59164271 152.54925331 -110.78925499 154.54949444 -107.8125 156.8125 C-106.76578125 157.60011719 -105.7190625 158.38773438 -104.640625 159.19921875 C-101.92999727 161.26557914 -99.26596849 163.38423375 -96.609375 165.51953125 C-95.8568042 166.11596436 -95.1042334 166.71239746 -94.32885742 167.3269043 C-92.83459768 168.5124287 -91.35005076 169.71031425 -89.8762207 170.92114258 C-88.8411438 171.73748169 -88.8411438 171.73748169 -87.78515625 172.5703125 C-86.87068726 173.30918701 -86.87068726 173.30918701 -85.93774414 174.06298828 C-83.20553604 175.38416942 -81.86298775 174.92127696 -79 174 C-77.08815781 173.05716185 -75.21389258 172.03637387 -73.37109375 170.96484375 C-72.25025391 170.31837891 -71.12941406 169.67191406 -69.97460938 169.00585938 C-68.79541075 168.31668365 -67.61637279 167.62723295 -66.4375 166.9375 C-64.78057322 165.97780959 -63.12351767 165.01831739 -61.46237183 164.06594849 C-60.24731026 163.35649028 -59.04340391 162.62766593 -57.84988403 161.88253784 C-53.93503274 159.48945627 -50.05702608 157.58267357 -45.76834011 155.9319334 C-31.83025739 150.73369094 -31.83025739 150.73369094 -22.13993454 140.16501999 C-18.76969849 129.66280605 -19.9601816 117.89713913 -20.61383057 107.06134033 C-20.84218672 102.76597229 -20.90777776 98.46819858 -20.98828125 94.16796875 C-21.16895918 85.76816563 -21.52620624 77.38835992 -22 69 C-18.37 67.02 -14.74 65.04 -11 63 C-11.165 61.659375 -11.33 60.31875 -11.5 58.9375 C-13.53974152 37.5802064 -10.06368054 19.00917436 0 0 Z " fill="#000000" transform="translate(480,58)"/>
<path d="M0 0 C0.99 0 1.98 0 3 0 C2.40509077 3.67405479 1.35606316 6.55853701 -0.3125 9.875 C-4.19476881 18.15717346 -6.29549641 27.03431111 -8 36 C-6.68334351 36.39989136 -6.68334351 36.39989136 -5.34008789 36.80786133 C-2.12090819 37.95684565 0.51760942 39.3188941 3.44140625 41.07421875 C4.43720703 41.65880859 5.43300781 42.24339844 6.45898438 42.84570312 C8.53603844 44.07834125 10.6089461 45.31799197 12.67773438 46.56445312 C13.67224609 47.14517578 14.66675781 47.72589844 15.69140625 48.32421875 C16.59060791 48.86135498 17.48980957 49.39849121 18.41625977 49.9519043 C21.55156391 51.22374222 22.82179994 51.07697742 26 50 C28.63918184 48.7380198 28.63918184 48.7380198 31.33203125 47.11328125 C32.36674561 46.51104736 33.40145996 45.90881348 34.4675293 45.28833008 C35.57136963 44.63630615 36.67520996 43.98428223 37.8125 43.3125 C38.96551465 42.6382537 40.11892208 41.96467869 41.27270508 41.29174805 C43.6583533 39.89884629 46.04158487 38.50194133 48.42285156 37.1015625 C52.96088021 34.43340254 57.51045163 31.78511254 62.05932617 29.13549805 C65.03461074 27.40159889 68.00770717 25.66400129 70.98046875 23.92578125 C71.84849121 23.42385254 72.71651367 22.92192383 73.61083984 22.40478516 C75.10659764 21.52530525 76.58893596 20.62210995 78.04931641 19.68505859 C82.40457811 16.94294362 82.40457811 16.94294362 85.35668945 17.22583008 C88.33311716 18.09756299 90.7302921 19.31573715 93.4296875 20.84375 C94.46617432 21.42688965 95.50266113 22.0100293 96.57055664 22.61083984 C97.66102295 23.2342627 98.75148926 23.85768555 99.875 24.5 C100.9880249 25.12986816 102.1010498 25.75973633 103.24780273 26.40869141 C111.57873193 31.14073171 119.8375747 35.98309469 128 41 C127.67 41.99 127.34 42.98 127 44 C122.46748368 42.64190755 118.62734549 40.81161184 114.53515625 38.4453125 C113.93875839 38.10249237 113.34236053 37.75967224 112.72789001 37.40646362 C110.83644911 36.31771036 108.9494334 35.22154293 107.0625 34.125 C105.80041967 33.39663362 104.53805213 32.66876466 103.27539062 31.94140625 C100.93837301 30.5943746 98.60344435 29.24395989 96.26977539 27.89111328 C95.19074951 27.2670459 94.11172363 26.64297852 93 26 C92.40871307 25.61632263 91.81742615 25.23264526 91.20822144 24.83734131 C88.51358293 23.14042901 86.62907867 21.98319233 83.39575195 22.06958008 C80.64987738 23.13597445 78.21048765 24.39505065 75.66796875 25.88671875 C74.11589722 26.79006958 74.11589722 26.79006958 72.5324707 27.71166992 C71.42863037 28.36369385 70.32479004 29.01571777 69.1875 29.6875 C68.03448535 30.3617463 66.88107792 31.03532131 65.72729492 31.70825195 C63.3416467 33.10115371 60.95841513 34.49805867 58.57714844 35.8984375 C54.03911979 38.56659746 49.48954837 41.21488746 44.94067383 43.86450195 C41.96538926 45.59840111 38.99229283 47.33599871 36.01953125 49.07421875 C35.15150879 49.57614746 34.28348633 50.07807617 33.38916016 50.59521484 C31.89340236 51.47469475 30.41106404 52.37789005 28.95068359 53.31494141 C24.60049356 56.05386321 24.60049356 56.05386321 21.65380859 55.78955078 C18.57568914 54.87376069 16.16126083 53.55469361 13.40234375 51.91015625 C12.35369141 51.29076172 11.30503906 50.67136719 10.22460938 50.03320312 C9.13986328 49.38287109 8.05511719 48.73253906 6.9375 48.0625 C4.78051765 46.78159219 2.62298788 45.50160566 0.46484375 44.22265625 C-0.487854 43.65297119 -1.44055176 43.08328613 -2.42211914 42.49633789 C-4.58380912 41.24157912 -6.74914547 40.08384295 -9 39 C-7.85568816 55.97163313 -5.89725929 71.01634538 1.828125 86.390625 C3 89 3 89 3 92 C2.01 92 1.02 92 0 92 C-9.1723973 73.83556153 -12.22294386 57.18880497 -12 37 C-15.465 35.02 -15.465 35.02 -19 33 C-18.67 32.34 -18.34 31.68 -18 31 C-13.25 31.875 -13.25 31.875 -11 33 C-10.91363281 32.28457031 -10.82726562 31.56914062 -10.73828125 30.83203125 C-9.17196514 19.72411972 -5.22672968 9.87271162 0 0 Z " fill="#000000" transform="translate(94,286)"/>
<path d="M0 0 C0.99 0 1.98 0 3 0 C9.0747586 12.0300697 13.2479333 23.53313436 15 37 C15.83144531 36.48308594 16.66289063 35.96617187 17.51953125 35.43359375 C18.60621094 34.77488281 19.69289063 34.11617188 20.8125 33.4375 C21.89144531 32.77621094 22.97039062 32.11492187 24.08203125 31.43359375 C27 30 27 30 30 31 C29.67 31.99 29.34 32.98 29 34 C26.86069831 34.80915084 24.71351571 35.59752444 22.5625 36.375 C19.92068494 37.56496233 17.89183688 38.782032 16 41 C13.97452138 46.82624532 14.32376151 53.30579591 14.14550781 59.40722656 C13.49129688 71.06447504 8.17585132 81.75006972 3 92 C2.01 92 1.02 92 0 92 C0.59490923 88.32594521 1.64393684 85.44146299 3.3125 82.125 C8.96305845 70.03771845 11.24032012 57.2710109 11 44 C10.39003174 44.36875244 9.78006348 44.73750488 9.15161133 45.11743164 C6.38072556 46.78101617 3.59702156 48.42185037 0.8125 50.0625 C-0.62706055 50.93358398 -0.62706055 50.93358398 -2.09570312 51.82226562 C-3.02705078 52.36689453 -3.95839844 52.91152344 -4.91796875 53.47265625 C-5.77156982 53.98062744 -6.6251709 54.48859863 -7.50463867 55.01196289 C-10.57920948 56.22933771 -11.88510238 56.03809767 -15 55 C-17.57348633 53.73168945 -17.57348633 53.73168945 -20.33203125 52.11328125 C-21.36674561 51.51104736 -22.40145996 50.90881348 -23.4675293 50.28833008 C-24.57136963 49.63630615 -25.67520996 48.98428223 -26.8125 48.3125 C-27.96551465 47.6382537 -29.11892208 46.96467869 -30.27270508 46.29174805 C-32.6583533 44.89884629 -35.04158487 43.50194133 -37.42285156 42.1015625 C-41.96088021 39.43340254 -46.51045163 36.78511254 -51.05932617 34.13549805 C-54.03461074 32.40159889 -57.00770717 30.66400129 -59.98046875 28.92578125 C-60.84849121 28.42385254 -61.71651367 27.92192383 -62.61083984 27.40478516 C-64.10659764 26.52530525 -65.58893596 25.62210995 -67.04931641 24.68505859 C-70.42313849 22.51690245 -70.42313849 22.51690245 -74.31176758 22.20117188 C-77.55127959 23.1638168 -80.20339627 24.57825535 -83.1484375 26.23828125 C-83.72405426 26.56032028 -84.29967102 26.88235931 -84.89273071 27.2141571 C-86.72381113 28.24058452 -88.54939763 29.27636687 -90.375 30.3125 C-91.59340166 30.99736487 -92.81214879 31.68161552 -94.03125 32.36523438 C-98.77996217 35.03285774 -103.51810382 37.71121156 -108.19921875 40.49609375 C-111 42 -111 42 -113.4375 41.75 C-113.953125 41.5025 -114.46875 41.255 -115 41 C-112.05160619 38.70011521 -109.01550774 36.76484178 -105.78125 34.890625 C-104.76546875 34.30023438 -103.7496875 33.70984375 -102.703125 33.1015625 C-101.64609375 32.49054688 -100.5890625 31.87953125 -99.5 31.25 C-97.96085937 30.35667969 -97.96085937 30.35667969 -96.390625 29.4453125 C-94.31522035 28.24074347 -92.23707822 27.04087883 -90.15625 25.84570312 C-87.99128867 24.57968304 -85.84606492 23.27947744 -83.71875 21.95117188 C-82.666875 21.30212891 -81.615 20.65308594 -80.53125 19.984375 C-79.58830078 19.38850586 -78.64535156 18.79263672 -77.67382812 18.17871094 C-74.46570735 16.76446631 -73.27666612 16.85803892 -70 18 C-67.42651367 19.26831055 -67.42651367 19.26831055 -64.66796875 20.88671875 C-63.63325439 21.48895264 -62.59854004 22.09118652 -61.5324707 22.71166992 C-60.42863037 23.36369385 -59.32479004 24.01571777 -58.1875 24.6875 C-57.03448535 25.3617463 -55.88107792 26.03532131 -54.72729492 26.70825195 C-52.3416467 28.10115371 -49.95841513 29.49805867 -47.57714844 30.8984375 C-43.03911979 33.56659746 -38.48954837 36.21488746 -33.94067383 38.86450195 C-30.96538926 40.59840111 -27.99229283 42.33599871 -25.01953125 44.07421875 C-24.15150879 44.57614746 -23.28348633 45.07807617 -22.38916016 45.59521484 C-20.89340236 46.47469475 -19.41106404 47.37789005 -17.95068359 48.31494141 C-15.46157533 49.88210809 -13.58370839 50.98381233 -10.60546875 51.06640625 C-6.59683995 49.42569311 -2.99327766 47.20715679 0.6875 44.9375 C2.20987937 44.00524931 3.73451448 43.07666913 5.26171875 42.15234375 C6.26658325 41.5334729 6.26658325 41.5334729 7.29174805 40.90209961 C9 40 9 40 11 40 C9.62019482 26.63442447 6.21042381 14.96081622 0 3 C0 2.01 0 1.02 0 0 Z " fill="#000000" transform="translate(574,286)"/>
<path d="M0 0 C0.99 0 1.98 0 3 0 C9.15064169 12.18034379 13.87693499 24.24245362 15 38 C19.816736 38 23.18913985 34.9472687 27.1875 32.43359375 C28.5796875 31.72396484 28.5796875 31.72396484 30 31 C30.99 31.33 31.98 31.66 33 32 C32.67 32.99 32.34 33.98 32 35 C30.13031753 35.77798868 28.25847267 36.55133163 26.37426758 37.29345703 C22.38596638 38.98955646 18.93139319 40.74631598 16 44 C13.46871643 50.35568121 13.62834122 57.46946774 13.25146484 64.22119141 C12.36275984 74.0418131 7.7107628 83.48053535 3 92 C2.01 92 1.02 92 0 92 C0.59490923 88.32594521 1.64393684 85.44146299 3.3125 82.125 C8.55719582 70.79949744 10.6184437 59.38150187 11 47 C10.22136597 47.46224976 10.22136597 47.46224976 9.42700195 47.93383789 C7.06406857 49.3252406 4.68872301 50.69392746 2.3125 52.0625 C1.49587891 52.54783203 0.67925781 53.03316406 -0.16210938 53.53320312 C-1.35610352 54.21479492 -1.35610352 54.21479492 -2.57421875 54.91015625 C-3.30213623 55.33433838 -4.03005371 55.75852051 -4.7800293 56.19555664 C-7.65372765 57.2368891 -9.09938231 56.90950628 -12 56 C-14.48168945 54.82348633 -14.48168945 54.82348633 -17.11328125 53.33203125 C-18.10263672 52.77507568 -19.09199219 52.21812012 -20.11132812 51.64428711 C-21.16771484 51.03979736 -22.22410156 50.43530762 -23.3125 49.8125 C-24.40884766 49.19189697 -25.50519531 48.57129395 -26.63476562 47.93188477 C-35.44539629 42.92899307 -44.2073701 37.84156518 -52.94262695 32.70825195 C-54.76882128 31.63515038 -56.59771117 30.56661852 -58.4296875 29.50341797 C-60.13406311 28.5065007 -61.82712698 27.48997057 -63.5078125 26.45361328 C-64.67957031 25.75147705 -64.67957031 25.75147705 -65.875 25.03515625 C-66.55304687 24.61758057 -67.23109375 24.20000488 -67.9296875 23.76977539 C-70.73626841 22.7262436 -72.15553083 23.09685047 -75 24 C-77.01281778 25.01021123 -78.98735195 26.09841513 -80.9296875 27.23828125 C-82.05503906 27.89376953 -83.18039062 28.54925781 -84.33984375 29.22460938 C-85.51834676 29.92037377 -86.69673135 30.61633879 -87.875 31.3125 C-89.04518702 31.99740453 -90.21575683 32.68165551 -91.38671875 33.36523438 C-97.35567384 36.84758254 -97.35567384 36.84758254 -103.29418945 40.38134766 C-107.74060757 43.02660435 -107.74060757 43.02660435 -110.4375 42.75 C-110.953125 42.5025 -111.46875 42.255 -112 42 C-108.75123212 39.43087416 -105.32960773 37.39215151 -101.73046875 35.34765625 C-101.131241 35.00625107 -100.53201324 34.66484589 -99.91462708 34.31309509 C-98.00702307 33.22701115 -96.09731589 32.14468879 -94.1875 31.0625 C-92.91587304 30.33944342 -91.64438729 29.61613842 -90.37304688 28.89257812 C-88.01673807 27.55192 -85.65947414 26.21300067 -83.30151367 24.87524414 C-81.58183505 23.89847482 -79.86497476 22.91276891 -78.20376587 21.83956909 C-75.52160566 20.15041254 -73.63319274 18.98523288 -70.41430664 19.06030273 C-67.56288021 20.17013592 -65.0182073 21.49594218 -62.37109375 23.03515625 C-61.26644775 23.67251709 -60.16180176 24.30987793 -59.02368164 24.96655273 C-58.14729538 25.47881912 -58.14729538 25.47881912 -57.25320435 26.00143433 C-55.41535533 27.07544096 -53.57257155 28.14048328 -51.72827148 29.20336914 C-47.1501866 31.84418618 -42.5809453 34.50016517 -38.01135254 37.15563965 C-34.14519054 39.40155967 -30.27578016 41.6416788 -26.40188599 43.87423706 C-24.58998662 44.92161127 -22.78312993 45.97732752 -20.97631836 47.03344727 C-19.31934937 47.98948853 -19.31934937 47.98948853 -17.62890625 48.96484375 C-16.66025635 49.5280835 -15.69160645 50.09132324 -14.69360352 50.67163086 C-11.9969764 52.00149111 -9.99789011 52.79474776 -7 53 C-4.71126585 52.15549375 -4.71126585 52.15549375 -2.57421875 50.69140625 C-1.77822266 50.19189453 -0.98222656 49.69238281 -0.16210938 49.17773438 C1.06282227 48.37819336 1.06282227 48.37819336 2.3125 47.5625 C3.14845703 47.03333984 3.98441406 46.50417969 4.84570312 45.95898438 C6.9058899 44.65223733 8.95639955 43.33247951 11 42 C9.75444927 27.85277451 6.59205659 15.6958127 0 3 C0 2.01 0 1.02 0 0 Z " fill="#000000" transform="translate(656,180)"/>
<path d="M0 0 C0.99 0 1.98 0 3 0 C14.1330946 22.04728003 14.1330946 22.04728003 14.05078125 34.11328125 C14.03708024 40.26357138 14.03708024 40.26357138 16 46 C21.09899332 50.89913871 27.64367241 54.03537357 34 57 C33.67 57.66 33.34 58.32 33 59 C28.46152802 57.65072455 24.68067754 55.80840652 20.625 53.375 C19.56539062 52.74335937 18.50578125 52.11171875 17.4140625 51.4609375 C16.61742187 50.97882813 15.82078125 50.49671875 15 50 C14.87044922 51.57974609 14.87044922 51.57974609 14.73828125 53.19140625 C13.4284447 67.27091656 9.89769049 79.52545337 3 92 C2.01 92 1.02 92 0 92 C0.59490923 88.32594521 1.64393684 85.44146299 3.3125 82.125 C8.48713546 70.98308261 10.58125119 59.1153681 12 47 C11.319375 46.75636719 10.63875 46.51273438 9.9375 46.26171875 C5.77743502 44.47488233 1.99324042 42.07105244 -1.828125 39.65820312 C-5.3670227 37.50624154 -5.3670227 37.50624154 -9.39135742 37.234375 C-12.24195402 38.07101243 -14.52884945 39.20324161 -17.11328125 40.66796875 C-18.59731445 41.5034021 -18.59731445 41.5034021 -20.11132812 42.35571289 C-21.16771484 42.96020264 -22.22410156 43.56469238 -23.3125 44.1875 C-24.40884766 44.80810303 -25.50519531 45.42870605 -26.63476562 46.06811523 C-35.44539629 51.07100693 -44.2073701 56.15843482 -52.94262695 61.29174805 C-54.76882128 62.36484962 -56.59771117 63.43338148 -58.4296875 64.49658203 C-60.13406311 65.4934993 -61.82712698 66.51002943 -63.5078125 67.54638672 C-64.67957031 68.24852295 -64.67957031 68.24852295 -65.875 68.96484375 C-66.55304687 69.38241943 -67.23109375 69.79999512 -67.9296875 70.23022461 C-70.73683207 71.27396598 -72.1527471 70.8984488 -75 70 C-77.05975561 68.99887425 -79.08373198 67.92259361 -81.078125 66.796875 C-81.64899841 66.47720764 -82.21987183 66.15754028 -82.80804443 65.82818604 C-84.62569713 64.80848789 -86.43788033 63.77949267 -88.25 62.75 C-89.45146751 62.07358708 -90.65328765 61.39780011 -91.85546875 60.72265625 C-94.17441711 59.41929177 -96.49106641 58.11211282 -98.80664062 56.80273438 C-102.85978225 54.51463057 -106.92680765 52.25217276 -111 50 C-110.34 49.01 -109.68 48.02 -109 47 C-104.32957476 48.36526891 -100.58220682 50.29909059 -96.46484375 52.87890625 C-95.23114402 53.64261726 -93.99741931 54.40628793 -92.76367188 55.16992188 C-90.84459028 56.3682101 -88.92711501 57.56901413 -87.01049805 58.77124023 C-85.14495024 59.93842915 -83.27393913 61.09644809 -81.40234375 62.25390625 C-80.29366943 62.94814697 -79.18499512 63.6423877 -78.04272461 64.35766602 C-75.15812911 65.9146486 -73.25860238 66.85005826 -70 67 C-67.42827649 66.0912995 -67.42827649 66.0912995 -64.88671875 64.52734375 C-63.89752441 63.96402344 -62.90833008 63.40070313 -61.88916016 62.8203125 C-60.8326123 62.19898438 -59.77606445 61.57765625 -58.6875 60.9375 C-57.58970215 60.30714844 -56.4919043 59.67679688 -55.36083984 59.02734375 C-52.47437177 57.36545038 -49.59591619 55.69137171 -46.72198486 54.00799561 C-43.95198778 52.38652671 -41.17667965 50.77418677 -38.40234375 49.16015625 C-35.3423508 47.37829648 -32.2841991 45.59377223 -29.2331543 43.79663086 C-27.40407555 42.72039125 -25.57156929 41.64995123 -23.73535156 40.5859375 C-21.82809132 39.48012149 -19.9296003 38.35910127 -18.03808594 37.2265625 C-17.07418945 36.66710937 -16.11029297 36.10765625 -15.1171875 35.53125 C-14.25464355 35.02142578 -13.39209961 34.51160156 -12.50341797 33.98632812 C-9.45468058 32.78514819 -8.08558309 32.98832836 -5 34 C-2.87182617 35.03149414 -2.87182617 35.03149414 -0.79296875 36.28515625 C-0.04208984 36.73310547 0.70878906 37.18105469 1.48242188 37.64257812 C2.25134766 38.11115234 3.02027344 38.57972656 3.8125 39.0625 C4.60076172 39.53494141 5.38902344 40.00738281 6.20117188 40.49414062 C8.13812608 41.65631315 10.07078295 42.82504417 12 44 C9.86655479 30.56056183 7.71933411 18.01470912 1.34765625 5.84375 C0 3 0 3 0 0 Z " fill="#000000" transform="translate(656,58)"/>
<path d="M0 0 C4.45146251 2.18526342 7.18885145 4.9394521 10 9 C11.14330513 12.42991538 11.20381651 15.1986416 11.25 18.8125 C11.27578125 20.01519531 11.3015625 21.21789062 11.328125 22.45703125 C10.90679725 27.00636777 9.60050615 30.28546288 6.46484375 33.64453125 C0.49668828 38.20841484 -3.52772177 38.76096751 -11 38 C-15.45146251 35.81473658 -18.18885145 33.0605479 -21 29 C-22.14330513 25.57008462 -22.20381651 22.8013584 -22.25 19.1875 C-22.28867187 17.38345703 -22.28867187 17.38345703 -22.328125 15.54296875 C-21.90679725 10.99363223 -20.60050615 7.71453712 -17.46484375 4.35546875 C-11.49668828 -0.20841484 -7.47227823 -0.76096751 0 0 Z M-13 7 C-16.7208121 11.23402757 -17.14107949 16.53939401 -17 22 C-16.21114165 25.87257736 -14.93043304 29.00539917 -12.1875 31.9375 C-9.32965764 33.32559486 -7.18949479 33.87242021 -4 34 C-0.55701021 32.78482713 1.44159661 31.65467984 3.8125 28.875 C6.53431999 22.28533056 6.51539829 16.52798926 3.9453125 9.8828125 C2.66861879 7.33997627 1.59808699 6.18769691 -1 5 C-5.97960728 3.48446735 -8.68562055 4.12374703 -13 7 Z " fill="#323232" transform="translate(445,323)"/>
<path d="M0 0 C4.45146251 2.18526342 7.18885145 4.9394521 10 9 C11.14330513 12.42991538 11.20381651 15.1986416 11.25 18.8125 C11.27578125 20.01519531 11.3015625 21.21789062 11.328125 22.45703125 C10.90679725 27.00636777 9.60050615 30.28546288 6.46484375 33.64453125 C0.49668828 38.20841484 -3.52772177 38.76096751 -11 38 C-15.45146251 35.81473658 -18.18885145 33.0605479 -21 29 C-22.14330513 25.57008462 -22.20381651 22.8013584 -22.25 19.1875 C-22.28867188 17.38345703 -22.28867188 17.38345703 -22.328125 15.54296875 C-21.90679725 10.99363223 -20.60050615 7.71453712 -17.46484375 4.35546875 C-11.49668828 -0.20841484 -7.47227823 -0.76096751 0 0 Z M-13 7 C-16.7208121 11.23402757 -17.14107949 16.53939401 -17 22 C-16.21114165 25.87257736 -14.93043304 29.00539917 -12.1875 31.9375 C-9.32965764 33.32559486 -7.18949479 33.87242021 -4 34 C-0.55701021 32.78482713 1.44159661 31.65467984 3.8125 28.875 C6.53431999 22.28533056 6.51539829 16.52798926 3.9453125 9.8828125 C2.66861879 7.33997627 1.59808699 6.18769691 -1 5 C-5.97960728 3.48446735 -8.68562055 4.12374703 -13 7 Z " fill="#323232" transform="translate(248,323)"/>
<path d="M0 0 C4.45146251 2.18526342 7.18885145 4.9394521 10 9 C11.14330513 12.42991538 11.20381651 15.1986416 11.25 18.8125 C11.27578125 20.01519531 11.3015625 21.21789062 11.328125 22.45703125 C10.90679725 27.00636777 9.60050615 30.28546288 6.46484375 33.64453125 C0.49668828 38.20841484 -3.52772177 38.76096751 -11 38 C-15.45146251 35.81473658 -18.18885145 33.0605479 -21 29 C-22.14330513 25.57008462 -22.20381651 22.8013584 -22.25 19.1875 C-22.28867187 17.38345703 -22.28867187 17.38345703 -22.328125 15.54296875 C-21.90679725 10.99363223 -20.60050615 7.71453712 -17.46484375 4.35546875 C-11.49668828 -0.20841484 -7.47227823 -0.76096751 0 0 Z M-13 7 C-16.7208121 11.23402757 -17.14107949 16.53939401 -17 22 C-16.21114165 25.87257736 -14.93043304 29.00539917 -12.1875 31.9375 C-9.32965764 33.32559486 -7.18949479 33.87242021 -4 34 C-0.55701021 32.78482713 1.44159661 31.65467984 3.8125 28.875 C6.53431999 22.28533056 6.51539829 16.52798926 3.9453125 9.8828125 C2.66861879 7.33997627 1.59808699 6.18769691 -1 5 C-5.97960728 3.48446735 -8.68562055 4.12374703 -13 7 Z " fill="#323232" transform="translate(632,287)"/>
<path d="M0 0 C4.45146251 2.18526342 7.18885145 4.9394521 10 9 C11.14330513 12.42991538 11.20381651 15.1986416 11.25 18.8125 C11.27578125 20.01519531 11.3015625 21.21789062 11.328125 22.45703125 C10.90679725 27.00636777 9.60050615 30.28546288 6.46484375 33.64453125 C0.49668828 38.20841484 -3.52772177 38.76096751 -11 38 C-15.45146251 35.81473658 -18.18885145 33.0605479 -21 29 C-22.14330513 25.57008462 -22.20381651 22.8013584 -22.25 19.1875 C-22.28867187 17.38345703 -22.28867187 17.38345703 -22.328125 15.54296875 C-21.90679725 10.99363223 -20.60050615 7.71453712 -17.46484375 4.35546875 C-11.49668828 -0.20841484 -7.47227823 -0.76096751 0 0 Z M-13 7 C-16.7208121 11.23402757 -17.14107949 16.53939401 -17 22 C-16.21114165 25.87257736 -14.93043304 29.00539917 -12.1875 31.9375 C-9.32965764 33.32559486 -7.18949479 33.87242021 -4 34 C-0.55701021 32.78482713 1.44159661 31.65467984 3.8125 28.875 C6.53431999 22.28533056 6.51539829 16.52798926 3.9453125 9.8828125 C2.66861879 7.33997627 1.59808699 6.18769691 -1 5 C-5.97960728 3.48446735 -8.68562055 4.12374703 -13 7 Z " fill="#323232" transform="translate(59,287)"/>
<path d="M0 0 C4.45146251 2.18526342 7.18885145 4.9394521 10 9 C11.14330513 12.42991538 11.20381651 15.1986416 11.25 18.8125 C11.27578125 20.01519531 11.3015625 21.21789062 11.328125 22.45703125 C10.90679725 27.00636777 9.60050615 30.28546288 6.46484375 33.64453125 C0.49668828 38.20841484 -3.52772177 38.76096751 -11 38 C-15.45146251 35.81473658 -18.18885145 33.0605479 -21 29 C-22.14330513 25.57008462 -22.20381651 22.8013584 -22.25 19.1875 C-22.28867187 17.38345703 -22.28867187 17.38345703 -22.328125 15.54296875 C-21.90679725 10.99363223 -20.60050615 7.71453712 -17.46484375 4.35546875 C-11.49668828 -0.20841484 -7.47227823 -0.76096751 0 0 Z M-13 7 C-16.7208121 11.23402757 -17.14107949 16.53939401 -17 22 C-16.21114165 25.87257736 -14.93043304 29.00539917 -12.1875 31.9375 C-9.32965764 33.32559486 -7.18949479 33.87242021 -4 34 C-0.55701021 32.78482713 1.44159661 31.65467984 3.8125 28.875 C6.53431999 22.28533056 6.51539829 16.52798926 3.9453125 9.8828125 C2.66861879 7.33997627 1.59808699 6.18769691 -1 5 C-5.97960728 3.48446735 -8.68562055 4.12374703 -13 7 Z " fill="#323232" transform="translate(530,218)"/>
<path d="M0 0 C4.45146251 2.18526342 7.18885145 4.9394521 10 9 C11.14330513 12.42991538 11.20381651 15.1986416 11.25 18.8125 C11.27578125 20.01519531 11.3015625 21.21789062 11.328125 22.45703125 C10.90679725 27.00636777 9.60050615 30.28546288 6.46484375 33.64453125 C0.49668828 38.20841484 -3.52772177 38.76096751 -11 38 C-15.45146251 35.81473658 -18.18885145 33.0605479 -21 29 C-22.14330513 25.57008462 -22.20381651 22.8013584 -22.25 19.1875 C-22.28867187 17.38345703 -22.28867187 17.38345703 -22.328125 15.54296875 C-21.90679725 10.99363223 -20.60050615 7.71453712 -17.46484375 4.35546875 C-11.49668828 -0.20841484 -7.47227823 -0.76096751 0 0 Z M-13 7 C-16.7208121 11.23402757 -17.14107949 16.53939401 -17 22 C-16.21114165 25.87257736 -14.93043304 29.00539917 -12.1875 31.9375 C-9.32965764 33.32559486 -7.18949479 33.87242021 -4 34 C-0.55701021 32.78482713 1.44159661 31.65467984 3.8125 28.875 C6.53431999 22.28533056 6.51539829 16.52798926 3.9453125 9.8828125 C2.66861879 7.33997627 1.59808699 6.18769691 -1 5 C-5.97960728 3.48446735 -8.68562055 4.12374703 -13 7 Z " fill="#323232" transform="translate(717,182)"/>
<path d="M0 0 C4.45146251 2.18526342 7.18885145 4.9394521 10 9 C11.14330513 12.42991538 11.20381651 15.1986416 11.25 18.8125 C11.27578125 20.01519531 11.3015625 21.21789062 11.328125 22.45703125 C10.90679725 27.00636777 9.60050615 30.28546288 6.46484375 33.64453125 C0.49668828 38.20841484 -3.52772177 38.76096751 -11 38 C-15.45146251 35.81473658 -18.18885145 33.0605479 -21 29 C-22.14330513 25.57008462 -22.20381651 22.8013584 -22.25 19.1875 C-22.28867187 17.38345703 -22.28867187 17.38345703 -22.328125 15.54296875 C-21.90679725 10.99363223 -20.60050615 7.71453712 -17.46484375 4.35546875 C-11.49668828 -0.20841484 -7.47227823 -0.76096751 0 0 Z M-13 7 C-16.7208121 11.23402757 -17.14107949 16.53939401 -17 22 C-16.21114165 25.87257736 -14.93043304 29.00539917 -12.1875 31.9375 C-9.32965764 33.32559486 -7.18949479 33.87242021 -4 34 C-0.55701021 32.78482713 1.44159661 31.65467984 3.8125 28.875 C6.53431999 22.28533056 6.51539829 16.52798926 3.9453125 9.8828125 C2.66861879 7.33997627 1.59808699 6.18769691 -1 5 C-5.97960728 3.48446735 -8.68562055 4.12374703 -13 7 Z " fill="#323232" transform="translate(347,176)"/>
<path d="M0 0 C4.45146251 2.18526342 7.18885145 4.9394521 10 9 C11.14330513 12.42991538 11.20381651 15.1986416 11.25 18.8125 C11.27578125 20.01519531 11.3015625 21.21789062 11.328125 22.45703125 C10.90679725 27.00636777 9.60050615 30.28546288 6.46484375 33.64453125 C0.49668828 38.20841484 -3.52772177 38.76096751 -11 38 C-15.45146251 35.81473658 -18.18885145 33.0605479 -21 29 C-22.14330513 25.57008462 -22.20381651 22.8013584 -22.25 19.1875 C-22.28867187 17.38345703 -22.28867187 17.38345703 -22.328125 15.54296875 C-21.90679725 10.99363223 -20.60050615 7.71453712 -17.46484375 4.35546875 C-11.49668828 -0.20841484 -7.47227823 -0.76096751 0 0 Z M-13 7 C-16.7208121 11.23402757 -17.14107949 16.53939401 -17 22 C-16.21114165 25.87257736 -14.93043304 29.00539917 -12.1875 31.9375 C-9.32965764 33.32559486 -7.18949479 33.87242021 -4 34 C-0.55701021 32.78482713 1.44159661 31.65467984 3.8125 28.875 C6.53431999 22.28533056 6.51539829 16.52798926 3.9453125 9.8828125 C2.66861879 7.33997627 1.59808699 6.18769691 -1 5 C-5.97960728 3.48446735 -8.68562055 4.12374703 -13 7 Z " fill="#323232" transform="translate(717,110)"/>
<path d="M0 0 C4.45146251 2.18526342 7.18885145 4.9394521 10 9 C11.14330513 12.42991538 11.20381651 15.1986416 11.25 18.8125 C11.27578125 20.01519531 11.3015625 21.21789062 11.328125 22.45703125 C10.90679725 27.00636777 9.60050615 30.28546288 6.46484375 33.64453125 C0.49668828 38.20841484 -3.52772177 38.76096751 -11 38 C-15.45146251 35.81473658 -18.18885145 33.0605479 -21 29 C-22.14330513 25.57008462 -22.20381651 22.8013584 -22.25 19.1875 C-22.28867187 17.38345703 -22.28867187 17.38345703 -22.328125 15.54296875 C-21.90679725 10.99363223 -20.60050615 7.71453712 -17.46484375 4.35546875 C-11.49668828 -0.20841484 -7.47227823 -0.76096751 0 0 Z M-13 7 C-16.7208121 11.23402757 -17.14107949 16.53939401 -17 22 C-16.21114165 25.87257736 -14.93043304 29.00539917 -12.1875 31.9375 C-9.32965764 33.32559486 -7.18949479 33.87242021 -4 34 C-0.55701021 32.78482713 1.44159661 31.65467984 3.8125 28.875 C6.53431999 22.28533056 6.51539829 16.52798926 3.9453125 9.8828125 C2.66861879 7.33997627 1.59808699 6.18769691 -1 5 C-5.97960728 3.48446735 -8.68562055 4.12374703 -13 7 Z " fill="#323232" transform="translate(530,74)"/>
<path d="M0 0 C4.45146251 2.18526342 7.18885145 4.9394521 10 9 C11.14330513 12.42991538 11.20381651 15.1986416 11.25 18.8125 C11.27578125 20.01519531 11.3015625 21.21789062 11.328125 22.45703125 C10.90679725 27.00636777 9.60050615 30.28546288 6.46484375 33.64453125 C0.49668828 38.20841484 -3.52772177 38.76096751 -11 38 C-15.45146251 35.81473658 -18.18885145 33.0605479 -21 29 C-22.14330513 25.57008462 -22.20381651 22.8013584 -22.25 19.1875 C-22.28867187 17.38345703 -22.28867187 17.38345703 -22.328125 15.54296875 C-21.90679725 10.99363223 -20.60050615 7.71453712 -17.46484375 4.35546875 C-11.49668828 -0.20841484 -7.47227823 -0.76096751 0 0 Z M-13 7 C-16.7208121 11.23402757 -17.14107949 16.53939401 -17 22 C-16.21114165 25.87257736 -14.93043304 29.00539917 -12.1875 31.9375 C-9.32965764 33.32559486 -7.18949479 33.87242021 -4 34 C-0.55701021 32.78482713 1.44159661 31.65467984 3.8125 28.875 C6.53431999 22.28533056 6.51539829 16.52798926 3.9453125 9.8828125 C2.66861879 7.33997627 1.59808699 6.18769691 -1 5 C-5.97960728 3.48446735 -8.68562055 4.12374703 -13 7 Z " fill="#323232" transform="translate(779,2)"/>
<path d="M0 0 C1.65 0 3.3 0 5 0 C5 4.95 5 9.9 5 15 C10.94 15 16.88 15 23 15 C23 10.05 23 5.1 23 0 C24.65 0 26.3 0 28 0 C28 11.88 28 23.76 28 36 C26.35 36 24.7 36 23 36 C23 30.39 23 24.78 23 19 C17.06 19 11.12 19 5 19 C5 24.61 5 30.22 5 36 C3.35 36 1.7 36 0 36 C0 24.12 0 12.24 0 0 Z " fill="#000000" transform="translate(650,288)"/>
<path d="M0 0 C1.65 0 3.3 0 5 0 C5 4.95 5 9.9 5 15 C10.94 15 16.88 15 23 15 C23 10.05 23 5.1 23 0 C24.65 0 26.3 0 28 0 C28 11.88 28 23.76 28 36 C26.35 36 24.7 36 23 36 C23 30.39 23 24.78 23 19 C17.06 19 11.12 19 5 19 C5 24.61 5 30.22 5 36 C3.35 36 1.7 36 0 36 C0 24.12 0 12.24 0 0 Z " fill="#000000" transform="translate(2,288)"/>
<path d="M0 0 C1.65 0 3.3 0 5 0 C5 4.95 5 9.9 5 15 C10.94 15 16.88 15 23 15 C23 10.05 23 5.1 23 0 C24.65 0 26.3 0 28 0 C28 11.88 28 23.76 28 36 C26.35 36 24.7 36 23 36 C23 30.39 23 24.78 23 19 C17.06 19 11.12 19 5 19 C5 24.61 5 30.22 5 36 C3.35 36 1.7 36 0 36 C0 24.12 0 12.24 0 0 Z " fill="#000000" transform="translate(735,183)"/>
<path d="M0 0 C1.65 0 3.3 0 5 0 C5.62726108 1.54074808 6.2516901 3.08264923 6.875 4.625 C7.22304688 5.48351562 7.57109375 6.34203125 7.9296875 7.2265625 C9.04521675 10.11716749 10.02020396 13.06061189 11 16 C12.65 10.72 14.3 5.44 16 0 C17.65 0 19.3 0 21 0 C22.65 5.28 24.3 10.56 26 16 C27.6037636 11.10959824 27.6037636 11.10959824 29.20092773 6.21704102 C30.88888889 1.11111111 30.88888889 1.11111111 32 0 C33.66617115 -0.04063832 35.33388095 -0.042721 37 0 C36.69763428 0.86165771 36.69763428 0.86165771 36.38916016 1.74072266 C35.46729492 4.36864752 34.54614184 6.99682149 33.625 9.625 C33.14933594 10.98044922 33.14933594 10.98044922 32.6640625 12.36328125 C31.07523999 16.8980455 29.50134828 21.43529463 28 26 C26.35 26 24.7 26 23 26 C21.68 21.38 20.36 16.76 19 12 C17.40964498 15.18071004 16.35151732 17.87657653 15.375 21.25 C15.11460937 22.14203125 14.85421875 23.0340625 14.5859375 23.953125 C14.39257812 24.62859375 14.19921875 25.3040625 14 26 C12.35 26 10.7 26 9 26 C7.49744208 21.85508918 5.99838155 17.70892222 4.5 13.5625 C4.07074219 12.37849609 3.64148438 11.19449219 3.19921875 9.97460938 C2.79316406 8.84990234 2.38710938 7.72519531 1.96875 6.56640625 C1.59169922 5.52427979 1.21464844 4.48215332 0.82617188 3.40844727 C0 1 0 1 0 0 Z " fill="#3A3B3A" transform="translate(810,382)"/>
<path d="M0 0 C4.15094466 2.33490637 5.62631026 4.52501073 7 9 C7.3075153 11.98348272 7.32473386 14.94020412 7.3125 17.9375 C7.32861328 18.72318359 7.34472656 19.50886719 7.36132812 20.31835938 C7.36547752 25.27689152 6.80887613 28.74547205 4 33 C1.13166277 35.820631 -0.95100643 36.43135748 -4.9375 36.4375 C-8.42482447 36.32450863 -9.88932218 36.06225628 -13 34.3125 C-17.31815643 29.31963162 -17.33824898 24.37099901 -17.3125 18.0625 C-17.32861328 17.27681641 -17.34472656 16.49113281 -17.36132812 15.68164062 C-17.36547752 10.72310848 -16.80887613 7.25452795 -14 3 C-9.9021958 -1.02964945 -5.44418323 -0.79412721 0 0 Z M-11 7 C-13.96272076 14.19517898 -13.96272076 21.80482102 -11 29 C-8.87454636 31.22556103 -8.87454636 31.22556103 -6 32 C-2.78683477 31.51237739 -2.78683477 31.51237739 0 30 C4.0152982 23.97705269 3.55705771 17.08913822 2.3125 10.1875 C0.78822059 6.48567857 -0.36606505 5.54442235 -4 4 C-7.10586948 4 -8.56321735 5.11149345 -11 7 Z " fill="#353636" transform="translate(1086,372)"/>
<path d="M0 0 C1.65 0 3.3 0 5 0 C5.64690922 1.6037331 6.29248764 3.20800306 6.9375 4.8125 C7.29714844 5.70582031 7.65679688 6.59914062 8.02734375 7.51953125 C8.73613486 9.3270909 9.3860247 11.15807409 10 13 C10.45375 11.783125 10.9075 10.56625 11.375 9.3125 C12.54452941 6.1919073 13.74562438 3.08769384 15 0 C16.65 0 18.3 0 20 0 C20.19335938 0.60328125 20.38671875 1.2065625 20.5859375 1.828125 C20.97652344 3.02695313 20.97652344 3.02695313 21.375 4.25 C21.63023437 5.03890625 21.88546875 5.8278125 22.1484375 6.640625 C22.95173667 8.86627958 23.89711662 10.90931672 25 13 C25.27714844 12.14535156 25.55429687 11.29070312 25.83984375 10.41015625 C26.20207031 9.30542969 26.56429687 8.20070312 26.9375 7.0625 C27.29714844 5.96035156 27.65679688 4.85820312 28.02734375 3.72265625 C29 1 29 1 30 0 C31.66617115 -0.04063832 33.33388095 -0.042721 35 0 C33.85660291 3.45914367 32.70987009 6.91717232 31.5625 10.375 C31.23701172 11.35984375 30.91152344 12.3446875 30.57617188 13.359375 C30.26357422 14.30039063 29.95097656 15.24140625 29.62890625 16.2109375 C29.34088135 17.08024902 29.05285645 17.94956055 28.75610352 18.84521484 C28 21 28 21 27 23 C25.35 23 23.7 23 22 23 C21.80664062 22.39671875 21.61328125 21.7934375 21.4140625 21.171875 C21.15367187 20.37265625 20.89328125 19.5734375 20.625 18.75 C20.36976563 17.96109375 20.11453125 17.1721875 19.8515625 16.359375 C18.93391927 13.67283375 18.93391927 13.67283375 17 10 C15.68 14.29 14.36 18.58 13 23 C11.35 23 9.7 23 8 23 C6.66408687 19.35510669 5.33170192 15.70893381 4 12.0625 C3.6184375 11.02158203 3.236875 9.98066406 2.84375 8.90820312 C2.4828125 7.91884766 2.121875 6.92949219 1.75 5.91015625 C1.41484375 4.99371338 1.0796875 4.07727051 0.734375 3.13305664 C0 1 0 1 0 0 Z " fill="#3D3E3E" transform="translate(663,148)"/>
<path d="M0 0 C3.00197464 1.80118478 4.45166366 2.90332732 6 6 C6.52586863 12.3104236 5.96132439 14.81830055 2 20 C0.00800863 22.06859355 -2.09563855 23.97772647 -4.25 25.875 C-6.1475 27.56625 -8.045 29.2575 -10 31 C-4.72 31.33 0.56 31.66 6 32 C6 33.32 6 34.64 6 36 C-1.92 36 -9.84 36 -18 36 C-16.73578421 29.67892107 -14.20191479 27.89287412 -9.55078125 23.89453125 C-8.22626953 22.74017578 -8.22626953 22.74017578 -6.875 21.5625 C-6.02679687 20.84191406 -5.17859375 20.12132812 -4.3046875 19.37890625 C-1.75561209 16.74774197 -0.36896335 14.38806982 1 11 C0.76936553 8.1308114 0.76936553 8.1308114 -1 6 C-4.12602698 4.98064338 -6.09359927 4.72304422 -9.25 5.6875 C-11.31103322 7.23327492 -12.0518738 8.62968451 -13 11 C-14.32 11 -15.64 11 -17 11 C-16.77641602 7.12454437 -16.52142114 4.67784748 -14.125 1.5625 C-9.46062918 -0.76968541 -5.11610902 -0.78354823 0 0 Z " fill="#282A29" transform="translate(1058,372)"/>
<path d="M0 0 C1.65 0 3.3 0 5 0 C6.98 5.61 8.96 11.22 11 17 C11.78375 15.123125 12.5675 13.24625 13.375 11.3125 C14.03628906 9.72888672 14.03628906 9.72888672 14.7109375 8.11328125 C15.82757462 5.41643343 16.92291801 2.71283736 18 0 C19.65 0 21.3 0 23 0 C22.14045744 6.3854302 19.82739609 11.89618291 17.38964844 17.82348633 C16.6244417 19.68886099 15.87422681 21.55979942 15.125 23.43164062 C14.64289062 24.61306641 14.16078125 25.79449219 13.6640625 27.01171875 C13.22529785 28.08897217 12.7865332 29.16622559 12.33447266 30.27612305 C11.10068566 32.79448411 10.23733024 34.33964295 8 36 C4.8125 36.1875 4.8125 36.1875 2 36 C1.67 34.35 1.34 32.7 1 31 C2.98 31 4.96 31 7 31 C7.44669769 24.14797653 5.93433921 19.05531783 3.5 12.6875 C2.83971849 10.92207549 2.18328768 9.15520461 1.53125 7.38671875 C1.23798828 6.61545654 0.94472656 5.84419434 0.64257812 5.04956055 C0 3 0 3 0 0 Z " fill="#3B3C3B" transform="translate(932,382)"/>
<path d="M0 0 C6.93 0 13.86 0 21 0 C19.87934255 6.72394471 19.87934255 6.72394471 16.3125 9.9375 C12.5734857 13.43398364 9.27640806 17.06831032 6 21 C11.28 21.33 16.56 21.66 22 22 C22 23.32 22 24.64 22 26 C14.41 26 6.82 26 -1 26 C-1 20.375 -1 20.375 2.28125 17.01171875 C2.95800781 16.30595703 3.63476562 15.60019531 4.33203125 14.87304688 C5.04746094 14.15181641 5.76289062 13.43058594 6.5 12.6875 C7.57314453 11.57665039 7.57314453 11.57665039 8.66796875 10.44335938 C10.43428318 8.6181678 12.21572646 6.80763903 14 5 C7.07 4.505 7.07 4.505 0 4 C0 2.68 0 1.36 0 0 Z " fill="#181918" transform="translate(987,382)"/>
<path d="M0 0 C1.65 0 3.3 0 5 0 C6.98 4.62 8.96 9.24 11 14 C12.65 9.38 14.3 4.76 16 0 C17.65 0 19.3 0 21 0 C19.68430264 6.51302921 17.88583262 12.59228252 15.5625 18.8125 C15.26279297 19.64458984 14.96308594 20.47667969 14.65429688 21.33398438 C11.67746393 29.38628521 11.67746393 29.38628521 9 32 C5.8125 32.25 5.8125 32.25 3 32 C2.67 30.35 2.34 28.7 2 27 C3.65 27 5.3 27 7 27 C8.07528031 23.07790308 7.93559302 20.9342665 6.34765625 17.20703125 C5.98349609 16.32982422 5.61933594 15.45261719 5.24414062 14.54882812 C4.85419922 13.64583984 4.46425781 12.74285156 4.0625 11.8125 C3.3006306 10.00767083 2.54138021 8.20173313 1.78515625 6.39453125 C1.44363525 5.59893799 1.10211426 4.80334473 0.75024414 3.98364258 C0 2 0 2 0 0 Z " fill="#3C3D3C" transform="translate(588,364)"/>
<path d="M0 0 C2.75 -0.375 2.75 -0.375 6 0 C10 4.84210526 10 4.84210526 10 8 C12.64752004 5.42215154 14.94432065 3.08351902 17 0 C20.125 -0.1875 20.125 -0.1875 23 0 C22.50628906 0.77085937 22.01257813 1.54171875 21.50390625 2.3359375 C20.54291016 3.84027344 20.54291016 3.84027344 19.5625 5.375 C18.92441406 6.37273437 18.28632812 7.37046875 17.62890625 8.3984375 C16.03100789 10.85830521 16.03100789 10.85830521 15 13 C15.5775 13.85464844 16.155 14.70929688 16.75 15.58984375 C17.50012058 16.70564811 18.25011404 17.82153795 19 18.9375 C19.3815625 19.50146484 19.763125 20.06542969 20.15625 20.64648438 C23 24.88671875 23 24.88671875 23 26 C20.3125 26.5 20.3125 26.5 17 26 C15.39542958 24.05625209 14.2557916 22.07344613 13.078125 19.84765625 C12.13106952 17.83756003 12.13106952 17.83756003 10 17 C9.731875 17.556875 9.46375 18.11375 9.1875 18.6875 C8.795625 19.450625 8.40375 20.21375 8 21 C7.38125 22.36125 7.38125 22.36125 6.75 23.75 C6.1725 24.4925 5.595 25.235 5 26 C1.8125 26.3125 1.8125 26.3125 -1 26 C0.94338749 22.46025851 2.67365009 19.37927152 5.3125 16.3125 C7.23502842 14.22350401 7.23502842 14.22350401 6.796875 12.1484375 C5.8390536 9.56607589 4.51468183 7.56828016 2.9375 5.3125 C0 1.08941176 0 1.08941176 0 0 Z " fill="#3C3D3C" transform="translate(877,382)"/>
<path d="M0 0 C5.94 0 11.88 0 18 0 C18 5 18 5 16.64453125 6.80859375 C16.03996094 7.34613281 15.43539063 7.88367188 14.8125 8.4375 C11.56538176 11.44702422 8.77472764 14.55261112 6 18 C10.29 18.33 14.58 18.66 19 19 C19 20.32 19 21.64 19 23 C12.4 23 5.8 23 -1 23 C-1 17.16759872 0.59110252 15.66843006 4.4375 11.8125 C8.14119444 8.22130834 8.14119444 8.22130834 11 4 C7.37 4 3.74 4 0 4 C0 2.68 0 1.36 0 0 Z " fill="#181918" transform="translate(286,364)"/>
<path d="M0 0 C2.75 -0.375 2.75 -0.375 6 0 C8.375 3 8.375 3 10 6 C10.70125 5.01 11.4025 4.02 12.125 3 C14.32959535 0.30900395 14.64418661 0.04028076 18.3125 -0.375 C19.199375 -0.25125 20.08625 -0.1275 21 0 C20.3503125 0.90492188 20.3503125 0.90492188 19.6875 1.828125 C19.130625 2.62734375 18.57375 3.4265625 18 4.25 C17.443125 5.03890625 16.88625 5.8278125 16.3125 6.640625 C14.67591051 9.13261083 14.67591051 9.13261083 15 13 C16.29196855 15.3836081 16.29196855 15.3836081 18 17.6875 C21 21.93055556 21 21.93055556 21 23 C18.3125 23.4375 18.3125 23.4375 15 23 C12.95224699 20.88875077 11.46519774 18.54140493 10 16 C9.70867188 16.5053125 9.41734375 17.010625 9.1171875 17.53125 C7.8529028 19.53502197 6.65140918 21.29738433 5 23 C1.6875 23.4375 1.6875 23.4375 -1 23 C2.73867596 16.29616725 2.73867596 16.29616725 4.875 13.875 C6.2902119 12.01398046 6.2902119 12.01398046 5.4375 9.6875 C3.68787512 6.41646218 1.88100856 3.19771455 0 0 Z " fill="#3D3D3D" transform="translate(665,262)"/>
<path d="M0 0 C1.32 0 2.64 0 4 0 C4 3.3 4 6.6 4 10 C7.3 10 10.6 10 14 10 C14 11.32 14 12.64 14 14 C10.7 14 7.4 14 4 14 C4 17.3 4 20.6 4 24 C2.68 24 1.36 24 0 24 C0 20.7 0 17.4 0 14 C-3.3 14 -6.6 14 -10 14 C-10 12.68 -10 11.36 -10 10 C-6.7 10 -3.4 10 0 10 C0 6.7 0 3.4 0 0 Z " fill="#000000" transform="translate(969,379)"/>
<path d="M0 0 C1.32 0 2.64 0 4 0 C4 3.3 4 6.6 4 10 C7.3 10 10.6 10 14 10 C14 11.32 14 12.64 14 14 C10.7 14 7.4 14 4 14 C4 17.3 4 20.6 4 24 C2.68 24 1.36 24 0 24 C0 20.7 0 17.4 0 14 C-3.3 14 -6.6 14 -10 14 C-10 12.68 -10 11.36 -10 10 C-6.7 10 -3.4 10 0 10 C0 6.7 0 3.4 0 0 Z " fill="#000000" transform="translate(914,379)"/>
<path d="M0 0 C1.32 0 2.64 0 4 0 C4 3.3 4 6.6 4 10 C7.3 10 10.6 10 14 10 C14 11.32 14 12.64 14 14 C10.7 14 7.4 14 4 14 C4 17.3 4 20.6 4 24 C2.68 24 1.36 24 0 24 C0 20.7 0 17.4 0 14 C-3.3 14 -6.6 14 -10 14 C-10 12.68 -10 11.36 -10 10 C-6.7 10 -3.4 10 0 10 C0 6.7 0 3.4 0 0 Z " fill="#000000" transform="translate(860,379)"/>
<path d="M0 0 C5.57612626 1.53454995 10.0592638 4.24629808 14.9375 7.25 C15.79053711 7.76997559 16.64357422 8.28995117 17.52246094 8.82568359 C19.36432838 9.94853859 21.20494089 11.07345416 23.04443359 12.20019531 C26.16049965 14.09773694 29.29141471 15.96879568 32.42578125 17.8359375 C34.53394571 19.09880553 36.64202047 20.36182331 38.75 21.625 C40.27741821 22.53040527 40.27741821 22.53040527 41.83569336 23.45410156 C42.7716333 24.01838867 43.70757324 24.58267578 44.671875 25.1640625 C45.92629395 25.91357178 45.92629395 25.91357178 47.20605469 26.67822266 C47.79805664 27.11440918 48.39005859 27.5505957 49 28 C49 28.66 49 29.32 49 30 C44.73563004 28.69712983 41.0237825 27.05983183 37.140625 24.875 C36.03243408 24.2550415 34.92424316 23.63508301 33.7824707 22.99633789 C32.60493191 22.33097785 31.42744257 21.6655303 30.25 21 C29.04350068 20.32297322 27.83671149 19.64646275 26.62963867 18.97045898 C24.22036359 17.62049113 21.81249012 16.2680768 19.40576172 14.91357422 C14.71748482 12.27940115 10.01584421 9.66964082 5.3125 7.0625 C3.87100647 6.26187587 2.42958995 5.46111307 0.98828125 4.66015625 C0.00214844 4.11230469 -0.98398438 3.56445312 -2 3 C-1.34 2.01 -0.68 1.02 0 0 Z " fill="#000000" transform="translate(1271,106)"/>
<path d="M0 0 C7.59 0 15.18 0 23 0 C23 1.32 23 2.64 23 4 C15.41 4 7.82 4 0 4 C0 2.68 0 1.36 0 0 Z " fill="#000000" transform="translate(1013,394)"/>
<path d="M0 0 C7.59 0 15.18 0 23 0 C23 1.32 23 2.64 23 4 C15.41 4 7.82 4 0 4 C0 2.68 0 1.36 0 0 Z " fill="#000000" transform="translate(1013,383)"/>
<path d="M0 0 C0.66 0.33 1.32 0.66 2 1 C-1.63 4.63 -5.26 8.26 -9 12 C-9 9 -9 9 -6.75 6.5625 C-5.8425 5.716875 -4.935 4.87125 -4 4 C-3.236875 3.236875 -2.47375 2.47375 -1.6875 1.6875 C-1.130625 1.130625 -0.57375 0.57375 0 0 Z " fill="#6F6E6D" transform="translate(1050,394)"/>
</svg>
