<?xml version="1.0" encoding="UTF-8" standalone="no"?>
<!-- Created with Inkscape (http://www.inkscape.org/) -->

<svg
   version="1.1"
   id="svg1"
   width="500.82516"
   height="276.14215"
   viewBox="0 0 500.82516 276.14215"
   sodipodi:docname="potassiumcitrate.svg"
   inkscape:version="1.4.2 (f4327f4, 2025-05-13)"
   xmlns:inkscape="http://www.inkscape.org/namespaces/inkscape"
   xmlns:sodipodi="http://sodipodi.sourceforge.net/DTD/sodipodi-0.dtd"
   xmlns="http://www.w3.org/2000/svg"
   xmlns:svg="http://www.w3.org/2000/svg">
  <defs
     id="defs1" />
  <sodipodi:namedview
     id="namedview1"
     pagecolor="#ffffff"
     bordercolor="#000000"
     borderopacity="0.25"
     inkscape:showpageshadow="2"
     inkscape:pageopacity="0.0"
     inkscape:pagecheckerboard="0"
     inkscape:deskcolor="#d1d1d1"
     inkscape:zoom="1.4375"
     inkscape:cx="212.52174"
     inkscape:cy="167.30435"
     inkscape:window-width="1920"
     inkscape:window-height="1111"
     inkscape:window-x="-9"
     inkscape:window-y="-9"
     inkscape:window-maximized="1"
     inkscape:current-layer="g1" />
  <g
     inkscape:groupmode="layer"
     inkscape:label="Image"
     id="g1"
     transform="translate(-36.440909,30.107848)">
    <path
       style="fill:#000000"
       d="m 240.62608,245.53916 c -2.13551,-0.57136 -4.86082,-2.16171 -6.09078,-3.55427 -4.15315,-4.70219 -5.06243,-12.45604 -2.17823,-18.57484 2.49028,-5.28312 8.2783,-8.15333 14.42901,-7.15517 7.29412,1.18371 11.47236,6.54909 11.49211,14.75729 0.0123,5.11968 -1.33395,8.68536 -4.31769,11.43567 -3.42085,3.15323 -8.60822,4.35582 -13.33442,3.09132 z m 6.56,-3.09947 c 2.05015,-0.64511 3.19886,-1.38624 4.57933,-2.95454 1.67255,-1.90012 2.31911,-3.78828 2.53158,-7.39299 0.34595,-5.86928 -1.56128,-9.91765 -5.56449,-11.81147 -1.9794,-0.93641 -4.75501,-1.14127 -7.00535,-0.51705 -3.14136,0.87138 -5.74972,3.58553 -6.59166,6.859 -0.52236,2.03091 -0.53064,7.26803 -0.0143,9.04846 0.50076,1.72676 2.12143,4.12855 3.49044,5.17275 2.32102,1.77033 5.90192,2.43679 8.57447,1.59584 z m -44.64,-11.42752 v -14.4 h 1.92 1.92 v 5.92 5.92 h 7.52 7.52 v -5.92 -5.92 h 1.92 1.92 v 14.4 14.4 h -1.92 -1.92 v -6.72 -6.72 h -7.52 -7.52 v 6.72 6.72 h -1.92 -1.92 z m 238.72,-12.67301 c -2.13551,-0.57136 -4.86082,-2.16171 -6.09078,-3.55427 -4.15315,-4.70219 -5.06243,-12.45604 -2.17823,-18.57484 2.49028,-5.28312 8.27831,-8.15333 14.42901,-7.15517 7.29412,1.18371 11.47236,6.54909 11.49211,14.75729 0.0123,5.11968 -1.33395,8.68536 -4.31769,11.43567 -3.42085,3.15323 -8.60822,4.35582 -13.33442,3.09132 z m 6.56,-3.09947 c 2.05015,-0.64511 3.19886,-1.38624 4.57933,-2.95454 1.67255,-1.90012 2.31911,-3.78828 2.53158,-7.39299 0.34595,-5.86928 -1.56128,-9.91765 -5.56449,-11.81147 -1.9794,-0.93641 -4.75501,-1.14127 -7.00535,-0.51705 -3.14136,0.87138 -5.74972,3.58553 -6.59166,6.859 -0.52236,2.03091 -0.53064,7.26803 -0.0143,9.04846 0.50076,1.72676 2.12143,4.12855 3.49044,5.17275 2.32103,1.77033 5.90192,2.43679 8.57447,1.59584 z m -203.04,-2.78128 c -0.37873,-0.23983 -0.46191,-0.89706 -0.39424,-3.1151 0.18155,-5.9517 1.66664,-41.0316 1.84963,-43.69114 0.10596,-1.54 0.0685,-2.8 -0.0833,-2.8 -0.15178,0 -14.07751,7.20815 -30.94606,16.01811 -16.86855,8.80995 -30.84739,15.95007 -31.06408,15.86691 -0.6157,-0.23626 -70.67245,-43.12215 -71.12205,-43.53802 -0.31975,-0.29576 -0.17989,-5.53978 0.69622,-26.10546 1.00004,-23.47454 1.14598,-25.771646 1.66128,-26.148446 0.75072,-0.54894 0.97215,-0.52356 1.68929,0.19358 0.52574,0.52575 0.58726,0.963246 0.4612,3.279996 -0.08,1.47033 -0.56248,12.60933 -1.07215,24.75333 -0.72219,17.20739 -0.84162,22.16118 -0.54121,22.44785 0.21202,0.20232 15.71779,9.75214 34.45728,21.22182 l 34.07181,20.85397 4.00819,-2.08851 c 2.20451,-1.14868 16.1042,-8.40622 30.8882,-16.12787 l 26.88,-14.03935 0.19933,-7.33396 c 0.10964,-4.03367 0.30792,-23.69903 0.44063,-43.7008 0.13271,-20.001756 0.33152,-36.512836 0.4418,-36.691276 0.11028,-0.17844 10.02367,-5.46044 22.02975,-11.737772 15.92511,-8.32639 22.00473,-11.35764 22.47812,-11.20739 0.82546,0.26199 1.21194,1.66974 0.61186,2.22866 -0.24282,0.22617 -9.89203,5.33647 -21.44269,11.356232 l -21.0012,10.94502 -0.22631,31.256686 c -0.12447,17.19118 -0.24993,36.58244 -0.2788,43.09168 l -0.0525,11.83499 29.28,18.62792 c 16.104,10.24535 29.496,18.63382 29.76,18.64104 0.264,0.007 17.60572,-7.03238 38.53716,-15.64357 31.47773,-12.94993 38.16639,-15.59825 38.68897,-15.31857 1.20591,0.64538 38.45952,24.33332 39.49387,25.11242 1.46315,1.10208 1.26586,2.67078 -0.3359,2.67078 -0.33435,0 -9.45879,-5.61932 -20.27653,-12.48739 l -19.66862,-12.48739 -37.81947,15.57112 c -20.80072,8.56411 -38.11944,15.63563 -38.48607,15.71448 -0.47402,0.10195 -9.11334,-5.2221 -29.90676,-18.4303 -16.08209,-10.21551 -29.30465,-18.50918 -29.38346,-18.43037 -0.0788,0.0788 -0.61082,11.0932 -1.18224,24.47642 -0.73967,17.32371 -1.15134,24.46857 -1.42913,24.80329 -0.44564,0.53696 -1.21185,0.59964 -1.91182,0.15638 z m 252.16,-29.12624 v -14.4 h 1.92 1.92 v 7.11733 7.11734 l 7.12261,-7.11734 7.12261,-7.11733 h 2.60062 2.60062 l -4.68323,4.58532 c -2.57578,2.52193 -5.29219,5.14993 -6.03648,5.84 l -1.35326,1.25468 5.93212,8 c 3.26266,4.4 6.07269,8.252 6.24451,8.56 0.28597,0.51262 0.10161,0.55876 -2.17886,0.54533 l -2.49126,-0.0147 -3.68,-5.30056 c -2.024,-2.9153 -4.30664,-6.16655 -5.07254,-7.225 l -1.39253,-1.92444 -2.36747,2.35166 -2.36746,2.35166 v 4.88801 4.88801 h -1.92 -1.92 z M 46.386087,196.25916 c -2.13551,-0.57136 -4.860817,-2.16171 -6.090782,-3.55427 -4.153148,-4.70219 -5.062426,-12.45604 -2.178233,-18.57484 2.490283,-5.28312 8.278309,-8.15333 14.429015,-7.15517 7.294119,1.18371 11.472361,6.54909 11.49211,14.75729 0.01232,5.11968 -1.333948,8.68536 -4.317691,11.43567 -3.420846,3.15323 -8.608222,4.35582 -13.334419,3.09132 z m 6.56,-3.09947 c 2.050146,-0.64511 3.198856,-1.38624 4.579327,-2.95454 1.672553,-1.90012 2.319117,-3.78828 2.531584,-7.39299 0.345945,-5.86928 -1.561279,-9.91765 -5.564489,-11.81147 -1.979406,-0.93641 -4.755015,-1.14127 -7.005356,-0.51705 -3.141357,0.87138 -5.74972,3.58553 -6.59166,6.859 -0.522354,2.03091 -0.530639,7.26803 -0.01431,9.04846 0.500758,1.72676 2.121426,4.12855 3.490439,5.17275 2.321023,1.77033 5.901917,2.43679 8.574469,1.59584 z m 408.539723,-9.90752 0.10027,-1.04 8.88,-0.0851 8.88,-0.0851 v 1.12506 1.12506 h -8.98027 -8.98028 z M 70.001681,181.8786 c -0.313055,-0.68708 -0.274675,-0.90719 0.24686,-1.41582 1.133276,-1.10522 46.642659,-24.66941 47.465269,-24.57692 1.01778,0.11442 1.58849,1.0148 1.1196,1.76631 -0.44934,0.72018 -46.768984,25.00253 -47.734183,25.02391 -0.477199,0.0106 -0.854183,-0.26335 -1.097546,-0.79748 z M 391.6743,168.14207 c -0.3079,-0.371 -0.17884,-5.64963 0.61223,-25.04 0.5513,-13.51344 1.078,-25.18153 1.17044,-25.92907 0.19485,-1.57566 1.00457,-2.23985 2.04911,-1.68083 0.52386,0.28036 0.6413,0.67437 0.64714,2.17126 0.0184,4.72008 -1.99985,49.5945 -2.25911,50.22874 -0.34163,0.83577 -1.61465,0.97908 -2.21981,0.2499 z m -15.35622,-0.63544 c -0.30293,-0.36501 -0.15627,-5.94454 0.67918,-25.83837 0.9618,-22.90238 1.12024,-25.42751 1.62719,-25.93446 0.6781,-0.6781 0.89928,-0.69327 1.68898,-0.11583 0.59857,0.43768 0.59029,0.90833 -0.45407,25.84 -0.58506,13.96681 -1.19696,25.6462 -1.35977,25.9542 -0.35916,0.67944 -1.64965,0.73531 -2.18151,0.0945 z m 152.23959,-3.29446 -0.0916,-3.12 -3.12,-0.0916 -3.12,-0.0916 v -1.26839 -1.26841 h 3.2 3.2 v -3.04 -3.04 h 1.28 1.28 v 3.04 3.04 h 3.04 3.04 v 1.28 1.28 h -3.04 -3.04 v 3.2 3.2 h -1.26841 -1.26841 z m -458.285581,0.72029 c -0.57119,-0.57119 -0.652518,-1.06587 -0.273298,-1.66236 0.356371,-0.56054 39.995069,-21.21793 40.714309,-21.21793 0.7255,0 1.38073,1.07642 1.13209,1.85981 -0.16532,0.52089 -38.779869,20.96294 -40.373101,21.37301 -0.397888,0.1024 -0.88948,-0.042 -1.2,-0.35253 z m 313.713991,-56.6733 c -2.13551,-0.57136 -4.86082,-2.16171 -6.09078,-3.55427 -4.15315,-4.70219 -5.06243,-12.456036 -2.17823,-18.574836 2.49028,-5.28312 8.27831,-8.15333 14.42901,-7.15517 7.29412,1.18371 11.47236,6.54909 11.49211,14.75729 0.0123,5.11968 -1.33395,8.685356 -4.31769,11.435666 -3.42085,3.15323 -8.60822,4.35582 -13.33442,3.09132 z m 6.56,-3.09947 c 2.05015,-0.64511 3.19886,-1.38624 4.57933,-2.95454 1.67255,-1.90012 2.31911,-3.788276 2.53158,-7.392986 0.34595,-5.86928 -1.56128,-9.91765 -5.56449,-11.81147 -1.9794,-0.93641 -4.75501,-1.14127 -7.00535,-0.51705 -3.14136,0.87138 -5.74972,3.58553 -6.59166,6.859 -0.52236,2.03091 -0.53064,7.26803 -0.0143,9.04846 0.50076,1.726756 2.12143,4.128546 3.49044,5.172746 2.32103,1.77033 5.90192,2.43679 8.57447,1.59584 z M 112.94609,91.619164 c -2.13551,-0.57136 -4.86082,-2.16171 -6.09078,-3.55427 -4.15315,-4.70219 -5.06243,-12.45604 -2.17824,-18.57484 2.49029,-5.28312 8.27831,-8.15333 14.42902,-7.15517 7.29411,1.18371 11.47235,6.54909 11.4921,14.75729 0.0123,5.11968 -1.33395,8.68536 -4.31769,11.43567 -3.42084,3.15323 -8.60822,4.35582 -13.33441,3.09132 z m 6.56,-3.09947 c 2.05014,-0.64511 3.19885,-1.38624 4.57932,-2.95454 1.67255,-1.90012 2.31912,-3.78828 2.53158,-7.39299 0.34595,-5.86928 -1.56127,-9.91765 -5.56448,-11.81147 -1.97941,-0.93641 -4.75502,-1.14127 -7.00536,-0.51705 -3.14135,0.87138 -5.74972,3.58553 -6.59166,6.859 -0.52235,2.03091 -0.53064,7.26803 -0.0143,9.04846 0.50076,1.72676 2.12143,4.12855 3.49044,5.17275 2.32103,1.77033 5.90192,2.43679 8.57447,1.59584 z m 105.6225,-20.21644 c -10.37162,-6.58686 -18.9844,-12.202872 -19.13952,-12.480052 -0.39458,-0.70509 -0.0111,-1.69993 0.74814,-1.94091 0.71062,-0.22554 -0.54317,-0.98761 23.32887,14.179582 16.02578,10.18204 16.41428,10.47997 15.34538,11.76791 -0.21106,0.25432 -0.61811,0.45951 -0.90456,0.45598 -0.28645,-0.004 -9.00669,-5.39566 -19.37831,-11.98251 z m 4.80271,-15.150272 c -12.13013,-7.70628 -22.20939,-14.25654 -22.39836,-14.55612 -0.5079,-0.80518 0.16511,-1.66684 1.29274,-1.65512 0.65384,0.007 7.17603,3.97947 22.5204,13.71721 11.88,7.5392 21.8709,13.965792 22.202,14.281322 0.90143,0.85902 0.47704,2.23319 -0.6881,2.22802 -0.59875,-0.003 -7.81792,-4.41542 -22.92868,-14.015312 z m -96.76549,3.37919 0.10027,-1.04 8.88,-0.0851 8.88,-0.0851 v 1.12506 1.12506 h -8.98027 -8.98028 z m -65.659723,-14.96 v -14.4 h 1.92 1.92 v 7.11733 7.11734 l 7.12261,-7.11734 7.122609,-7.11733 h 2.600621 2.600621 l -4.68323,4.58532 c -2.575777,2.52193 -5.292195,5.14993 -6.036484,5.84 l -1.353254,1.25468 5.932112,8 c 3.262662,4.4 6.072692,8.252 6.244512,8.56 0.285968,0.51262 0.101614,0.55876 -2.178858,0.54533 l -2.491259,-0.0147 -3.68,-5.30056 c -2.024,-2.9153 -4.306641,-6.16655 -5.072537,-7.225 l -1.392537,-1.92444 -2.367463,2.35166 -2.367463,2.35166 v 4.88801 4.88801 h -1.92 -1.92 z m 240.319993,10.68699 c -2.13551,-0.57135 -4.86082,-2.16171 -6.09078,-3.55427 -4.15315,-4.70219 -5.06243,-12.45604 -2.17823,-18.57484 2.49028,-5.28312 8.2783,-8.15333 14.42901,-7.15517 7.29412,1.18371 11.47236,6.54909 11.49211,14.75729 0.0123,5.11969 -1.33395,8.68536 -4.31769,11.43567 -3.42085,3.15323 -8.60822,4.35582 -13.33442,3.09132 z m 6.56,-3.09947 c 2.05015,-0.6451 3.19886,-1.38624 4.57933,-2.95454 1.67255,-1.90012 2.31911,-3.78828 2.53158,-7.39299 0.34595,-5.86928 -1.56128,-9.91765 -5.56449,-11.81147 -1.9794,-0.93641 -4.75501,-1.14127 -7.00535,-0.51705 -3.14136,0.87138 -5.74972,3.58553 -6.59166,6.859 -0.52236,2.03091 -0.53064,7.26803 -0.0143,9.04847 0.50076,1.72675 2.12143,4.12854 3.49044,5.17274 2.32103,1.77033 5.90192,2.43679 8.57447,1.59584 z m -130.4,-2.34053 c -2.13551,-0.57135 -4.86082,-2.16171 -6.09078,-3.55427 -4.15315,-4.70219 -5.06243,-12.45604 -2.17823,-18.57484 2.49028,-5.28312 8.2783,-8.15333 14.42901,-7.15517 7.29412,1.18371 11.47236,6.54909 11.49211,14.75729 0.0123,5.11969 -1.33395,8.68536 -4.31769,11.43567 -3.42085,3.15323 -8.60822,4.35582 -13.33442,3.09132 z m 6.56,-3.09947 c 2.05015,-0.6451 3.19886,-1.38624 4.57933,-2.95454 1.67255,-1.90012 2.31911,-3.78828 2.53158,-7.39299 0.34595,-5.86928 -1.56128,-9.91765 -5.56449,-11.81147 -1.9794,-0.93641 -4.75501,-1.14127 -7.00535,-0.51705 -3.14136,0.87138 -5.74972,3.58553 -6.59166,6.859 -0.52236,2.03091 -0.53064,7.26803 -0.0143,9.04847 0.50076,1.72675 2.12143,4.12854 3.49044,5.17274 2.32102,1.77033 5.90192,2.43679 8.57447,1.59584 z m -91.428405,-21.26752 -0.09159,-3.12 -3.12,-0.0916 -3.12,-0.0916 v -1.26842 -1.26841 h 3.2 3.2 v -3.04 -3.04 h 1.280005 1.28 v 3.04 3.04 h 3.04 3.04 v 1.28 1.28 h -3.04 -3.04 v 3.2 3.2 h -1.26841 -1.268417 z m 228.928135,-5.28 0.10027,-1.04 8.88,-0.0851 8.88,-0.0851 v 1.12506 1.12506 h -8.98027 -8.98028 z M 356.78608,0.93217209 V -13.467828 h 1.92 1.92 v 7.1173301 7.11733999 l 7.12261,-7.11733999 7.12261,-7.1173301 h 2.60062 2.60062 l -4.68323,4.5853201 c -2.57578,2.52193 -5.29219,5.14993 -6.03648,5.84 l -1.35326,1.25468 5.93212,8 c 3.26266,4.3999999 6.07269,8.2519999 6.24451,8.5599999 0.28597,0.51262 0.10161,0.55876 -2.17886,0.54533 l -2.49126,-0.0147 -3.68,-5.30056 c -2.024,-2.9152999 -4.30664,-6.1665499 -5.07254,-7.2249999 l -1.39253,-1.92444001 -2.36747,2.35166001 -2.36746,2.35166 v 4.8880099 4.88801 h -1.92 -1.92 z m 31.61159,-19.12000009 -0.0916,-3.12 -3.12,-0.0916 -3.12,-0.0916 v -1.26841 -1.26841 h 3.2 3.2 v -3.04 -3.04 h 1.28 1.28 v 3.04 3.04 h 3.04 3.04 v 1.28 1.28 h -3.04 -3.04 v 3.2 3.2 h -1.26841 -1.26841 z"
       id="path1" />
  </g>
</svg>
