<?xml version="1.0" encoding="UTF-8" standalone="no"?>
<!-- Created with Inkscape (http://www.inkscape.org/) -->

<svg
   version="1.1"
   id="svg1"
   width="272.08853"
   height="142.24672"
   viewBox="0 0 272.08853 142.24672"
   sodipodi:docname="potassiumnitrate.svg"
   inkscape:version="1.4.2 (f4327f4, 2025-05-13)"
   xmlns:inkscape="http://www.inkscape.org/namespaces/inkscape"
   xmlns:sodipodi="http://sodipodi.sourceforge.net/DTD/sodipodi-0.dtd"
   xmlns="http://www.w3.org/2000/svg"
   xmlns:svg="http://www.w3.org/2000/svg">
  <defs
     id="defs1" />
  <sodipodi:namedview
     id="namedview1"
     pagecolor="#ffffff"
     bordercolor="#000000"
     borderopacity="0.25"
     inkscape:showpageshadow="2"
     inkscape:pageopacity="0.0"
     inkscape:pagecheckerboard="0"
     inkscape:deskcolor="#d1d1d1"
     inkscape:zoom="1.8009547"
     inkscape:cx="40.811687"
     inkscape:cy="114.38377"
     inkscape:window-width="1920"
     inkscape:window-height="1111"
     inkscape:window-x="-9"
     inkscape:window-y="-9"
     inkscape:window-maximized="1"
     inkscape:current-layer="g1" />
  <g
     inkscape:groupmode="layer"
     inkscape:label="Image"
     id="g1"
     transform="translate(-18.394244,55.633069)">
    <path
       style="fill:#000000"
       d="m 52.084372,86.162536 c -2.588733,-0.69627 -5.508257,-2.40428 -7.264961,-4.25022 -1.985149,-2.08598 -2.927841,-3.68326 -3.986282,-6.75428 -0.732139,-2.12427 -0.821931,-2.80699 -0.823177,-6.25893 -0.0023,-6.36628 1.351935,-10.07924 5.008793,-13.73286 3.231481,-3.22862 6.663832,-4.60079 11.487513,-4.59244 10.134032,0.0175 16.793686,7.17046 16.784109,18.02726 -0.0097,10.98774 -6.634132,18.08367 -16.815237,18.01205 -1.533619,-0.0108 -3.50946,-0.21355 -4.390758,-0.45058 z m 9.351506,-4.40368 c 3.298221,-1.50956 5.791708,-4.67768 6.719971,-8.53811 0.554071,-2.30425 0.493384,-7.18181 -0.118275,-9.50606 -1.015679,-3.8595 -3.344989,-6.75865 -6.685725,-8.32132 -1.489903,-0.69692 -2.079069,-0.79738 -4.684676,-0.79877 -2.724466,-0.001 -3.149983,0.0787 -4.9545,0.93372 -4.581666,2.17083 -6.546398,5.5052 -7.002289,11.88368 -0.478076,6.68888 1.976931,11.91987 6.657663,14.18578 1.999017,0.96771 2.941946,1.14102 5.746192,1.05619 2.021754,-0.0612 2.894519,-0.24193 4.321639,-0.89511 z m 113.473512,4.44262 c -5.86396,-1.42006 -10.40787,-6.3493 -11.85689,-12.86241 -0.73089,-3.2852 -0.47723,-8.34149 0.58393,-11.63992 2.27238,-7.06327 7.98147,-11.112 15.68778,-11.12534 6.58335,-0.0114 11.82053,3.10975 14.56785,8.68183 1.68447,3.41644 2.2053,6.09051 2.02339,10.38859 -0.37177,8.78411 -4.6867,14.59908 -12.2696,16.535 -2.12753,0.54316 -6.53902,0.55439 -8.73646,0.0223 z m 9.59787,-4.603 c 4.41405,-2.17303 6.73208,-6.59933 6.72242,-12.83649 -0.007,-4.51555 -0.95418,-7.62242 -3.14939,-10.33041 -3.91218,-4.82602 -11.93682,-5.27764 -16.68402,-0.93896 -2.85039,2.60509 -3.99093,5.86043 -4.00054,11.41839 -0.008,4.6451 0.95719,7.57439 3.35185,10.17229 2.49113,2.70256 5.08589,3.72121 9.08491,3.56658 2.36719,-0.0915 3.02598,-0.2397 4.67477,-1.0514 z m 55.0821,-13.36996 0.0769,-17.51009 2.30984,-0.087 2.30984,-0.0871 v 8.72843 8.72843 l 8.71966,-8.71589 8.71965,-8.7159 3.1276,0.004 3.1276,0.004 -2.98044,2.89622 c -1.63925,1.59292 -4.94624,4.81294 -7.34888,7.1556 l -4.36844,4.25938 7.57241,10.27532 c 4.16483,5.65142 7.57241,10.34272 7.57241,10.4251 0,0.0824 -1.32695,0.14979 -2.94878,0.14979 h -2.94878 l -6.18746,-8.80184 c -3.40311,-4.84101 -6.29308,-8.76402 -6.42215,-8.71779 -0.12908,0.0462 -1.44962,1.2745 -2.93454,2.72949 l -2.69986,2.64544 v 6.07235 6.07235 h -2.38673 -2.38674 z m 40.99235,-11.02764 -0.0834,-3.80006 -3.80006,-0.0834 -3.80006,-0.0834 v -1.18327 -1.18327 h 3.87457 3.87457 v -3.72555 -3.72555 h 1.19218 1.19218 v 3.72555 3.72555 h 3.72555 3.72555 v 1.19217 1.19218 h -3.72555 -3.72555 v 3.87457 3.87458 h -1.18328 -1.18327 z M 77.849593,55.167796 c -0.499138,-0.49914 -0.598921,-1.25105 -0.240258,-1.81046 0.3298,-0.5144 19.862377,-11.72926 20.428481,-11.72926 0.269946,0 0.710508,0.3353 0.979026,0.74511 0.43732,0.66744 0.441521,0.81502 0.0403,1.41571 -0.475682,0.71217 -19.555984,11.84725 -20.300626,11.84725 -0.241212,0 -0.649328,-0.21076 -0.906923,-0.46835 z m 68.528857,-5.07929 c -5.24558,-3.04052 -9.77212,-5.73933 -10.05899,-5.99736 -0.28687,-0.25803 -0.52158,-0.69581 -0.52158,-0.97285 0,-0.5754 0.90314,-1.49022 1.4712,-1.49022 0.2096,0 4.86335,2.58181 10.34165,5.73735 10.51767,6.05825 10.95046,6.39825 9.78448,7.68664 -0.29072,0.32125 -0.74251,0.57971 -1.00397,0.57437 -0.26146,-0.005 -4.76722,-2.49742 -10.01279,-5.53793 z m 51.11456,1.67307 v -1.19218 h 8.7923 8.7923 v 1.19218 1.19218 h -8.7923 -8.7923 z M 18.485948,51.339686 c -0.08904,-0.23204 -0.118362,-0.80205 -0.06516,-1.26669 l 0.09674,-0.84479 8.71779,-0.079 8.71779,-0.079 v 1.3457 1.3457 h -8.652633 c -7.186796,0 -8.680059,-0.0715 -8.814527,-0.42189 z m 85.619912,-0.67094 c -0.10928,-0.10928 -0.1987,-8.02235 -0.1987,-17.5846 V 15.698242 l 2.45887,0.01042 2.45886,0.01042 9.09034,13.625095 9.09035,13.6251 0.0775,-13.63552 0.0775,-13.635514 h 2.23232 2.23232 v 17.584604 17.5846 h -2.33562 -2.33561 l -9.21359,-13.78454 -9.21359,-13.78454 -0.0775,13.78454 -0.0775,13.78454 h -2.03366 c -1.11851,0 -2.12307,-0.0894 -2.23235,-0.1987 z m 37.05681,-30.043872 v -3.716646 l -3.80006,-0.08342 -3.80006,-0.08342 -0.0917,-1.266687 -0.0917,-1.266687 h 3.89171 3.89171 V 10.482463 6.7569116 h 1.19218 1.19218 v 3.7255514 3.725551 h 3.72555 3.72555 v 1.341198 1.341198 h -3.72555 -3.72555 v 3.725552 3.725551 h -1.19218 -1.19218 z M 110.03397,4.6042936 c -0.38875,-0.555018 -0.46397,-1.826204 -0.46397,-7.841203 0,-7.3948996 0.0709,-7.8709066 1.23247,-8.2717506 0.26805,-0.0925 0.771,0.03048 1.11767,0.273297 0.61395,0.43003 0.6303,0.640514 0.6303,8.1141186 0,5.570215 -0.098,7.77064 -0.35765,8.03029 -0.56906,0.569056 -1.65407,0.41589 -2.15882,-0.304752 z m 13.00762,0.304752 c -0.25965,-0.25965 -0.35765,-2.460075 -0.35765,-8.03029 0,-7.4736046 0.0163,-7.6840886 0.6303,-8.1141186 0.63905,-0.447601 1.4252,-0.345487 1.824,0.23692 0.12043,0.175881 0.22102,3.7465456 0.22353,7.9348096 0.005,7.998922 -0.0484,8.330332 -1.33663,8.330332 -0.34424,0 -0.78684,-0.160944 -0.98355,-0.357653 z m -9.54021,-24.9634766 c -5.56791,-1.50991 -9.4184,-5.215318 -11.29338,-10.867856 -0.7053,-2.126274 -0.79959,-2.878057 -0.80663,-6.431318 -0.009,-4.461879 0.39804,-6.528764 1.9002,-9.652894 2.54405,-5.290993 7.92712,-8.536442 14.30441,-8.624118 5.04781,-0.0694 8.71859,1.331499 11.94093,4.557074 3.48169,3.485182 5.063,7.676571 5.05362,13.395059 -0.006,3.956286 -0.5639,6.62659 -1.98265,9.497917 -2.59311,5.248046 -7.59999,8.33079 -13.95753,8.59367 -2.33192,0.09642 -3.45448,-0.0053 -5.15897,-0.467534 z m 8.58647,-4.030581 c 1.78326,-0.610255 4.05086,-2.363546 5.28872,-4.089183 1.60488,-2.237285 2.2311,-4.386963 2.39346,-8.216181 0.23458,-5.532589 -0.7691,-8.916338 -3.50181,-11.805769 -2.09639,-2.216627 -4.43973,-3.260526 -7.65395,-3.409649 -3.03577,-0.140844 -5.04969,0.407377 -7.49491,2.04023 -3.24253,2.165276 -4.76203,5.489163 -5.03764,11.019783 -0.18461,3.704358 0.18412,5.985264 1.38106,8.543056 2.03153,4.341295 6.30293,6.824815 11.19757,6.510615 1.14746,-0.07366 2.68984,-0.340465 3.4275,-0.592902 z"
       id="path1" />
  </g>
</svg>
