<?xml version="1.0" encoding="UTF-8" standalone="no"?>
<!-- Created with Inkscape (http://www.inkscape.org/) -->

<svg
   version="1.1"
   id="svg1"
   width="308.03955"
   height="307.19998"
   viewBox="0 0 308.03955 307.19998"
   sodipodi:docname="potassiumtartrate.svg"
   inkscape:version="1.4.2 (f4327f4, 2025-05-13)"
   xmlns:inkscape="http://www.inkscape.org/namespaces/inkscape"
   xmlns:sodipodi="http://sodipodi.sourceforge.net/DTD/sodipodi-0.dtd"
   xmlns="http://www.w3.org/2000/svg"
   xmlns:svg="http://www.w3.org/2000/svg">
  <defs
     id="defs1" />
  <sodipodi:namedview
     id="namedview1"
     pagecolor="#ffffff"
     bordercolor="#000000"
     borderopacity="0.25"
     inkscape:showpageshadow="2"
     inkscape:pageopacity="0.0"
     inkscape:pagecheckerboard="0"
     inkscape:deskcolor="#d1d1d1"
     inkscape:zoom="2.6149213"
     inkscape:cx="52.200423"
     inkscape:cy="151.24738"
     inkscape:window-width="1920"
     inkscape:window-height="1111"
     inkscape:window-x="-9"
     inkscape:window-y="-9"
     inkscape:window-maximized="1"
     inkscape:current-layer="g1" />
  <g
     inkscape:groupmode="layer"
     inkscape:label="Image"
     id="g1"
     transform="translate(-109.84435,-11.512104)">
    <path
       style="fill:#000000"
       d="m 338.8439,305.4321 v -13.28 h 1.76 1.76 v 6.63714 6.63715 l 6.64279,-6.63715 6.6428,-6.63714 2.3972,0.0157 2.39721,0.0158 -5.5766,5.38306 -5.57661,5.38306 5.80411,7.88119 5.80411,7.88119 h -2.33908 -2.33907 l -4.60175,-6.56222 c -2.53096,-3.60923 -4.70314,-6.52523 -4.82707,-6.48 -0.12392,0.0452 -1.17093,0.91952 -2.32668,1.94289 l -2.10136,1.86066 v 4.61934 4.61933 h -1.76 -1.76 z m 29.12,-17.76 v -2.88 h -2.88 -2.88 v -1.28 -1.28 h 2.88 2.88 v -2.72 -2.72 h 1.12 1.12 v 2.72 2.72 h 2.88 2.88 v 1.28 1.28 h -2.88 -2.88 v 2.88 2.88 h -1.12 -1.12 z M 232.03755,269.91659 c -2.2442,-0.63163 -3.1447,-1.12556 -4.9465,-2.71323 -2.81895,-2.48394 -4.66547,-7.59877 -4.22068,-11.69126 0.64882,-5.96988 2.79217,-9.46421 7.10391,-11.58154 1.68301,-0.82646 2.12451,-0.89846 5.50962,-0.89846 3.31609,0 3.85959,0.0842 5.49605,0.85133 4.72615,2.21554 7.30395,6.71496 7.30395,12.74867 0,5.88913 -2.35365,10.11414 -6.88076,12.35156 -1.99318,0.98508 -2.73162,1.17402 -5.00855,1.28149 -1.7496,0.0826 -3.25229,-0.0376 -4.35704,-0.34856 z m 7.37841,-3.43787 c 1.91369,-0.81916 3.71419,-2.83062 4.54846,-5.08137 0.89974,-2.4274 0.87172,-7.44807 -0.0545,-9.76747 -0.93114,-2.33167 -2.09544,-3.71968 -3.981,-4.74594 -4.57604,-2.49059 -10.38619,-0.60141 -12.4745,4.05611 -0.66708,1.48779 -0.75888,2.17492 -0.76045,5.69205 -0.002,4.6085 0.4642,6.06988 2.59915,8.14661 2.80622,2.72969 6.33353,3.32206 10.12285,1.70001 z m 105.58159,3.43787 c -2.2442,-0.63163 -3.14469,-1.12556 -4.9465,-2.71323 -2.81895,-2.48394 -4.66547,-7.59877 -4.22068,-11.69126 0.64882,-5.96988 2.79218,-9.46421 7.10391,-11.58154 1.68301,-0.82646 2.12451,-0.89846 5.50962,-0.89846 3.31609,0 3.85959,0.0842 5.49605,0.85133 4.72615,2.21554 7.30395,6.71496 7.30395,12.74867 0,5.88913 -2.35365,10.11414 -6.88076,12.35156 -1.99318,0.98508 -2.73161,1.17402 -5.00855,1.28149 -1.7496,0.0826 -3.25229,-0.0376 -4.35704,-0.34856 z m 7.37841,-3.43787 c 1.91369,-0.81916 3.71419,-2.83062 4.54846,-5.08137 0.89974,-2.4274 0.87172,-7.44807 -0.0545,-9.76747 -0.93114,-2.33167 -2.09543,-3.71968 -3.98099,-4.74594 -4.57604,-2.49059 -10.3862,-0.60141 -12.4745,4.05611 -0.66709,1.48779 -0.75889,2.17492 -0.76046,5.69205 -0.002,4.6085 0.4642,6.06988 2.59915,8.14661 2.80622,2.72969 6.33353,3.32206 10.12285,1.70001 z M 253.4039,256.4721 v -13.28 h 1.76 1.76 v 5.44 5.44 h 7.04 7.04 v -5.44 -5.44 h 1.76 1.76 v 13.28 13.28 h -1.75309 -1.75309 l -0.0869,-6.16 -0.0869,-6.16 -6.96,-0.0862 -6.96,-0.0862 v 6.24624 6.24624 h -1.76 -1.76 z m -18.63473,-17.2 c -0.0411,-0.044 -0.14911,-10.50155 -0.24,-23.23899 l -0.16527,-23.159 -28,-16.16628 c -15.4,-8.89146 -28.10579,-16.32591 -28.2351,-16.52101 -0.1293,-0.19509 -0.2373,-10.8032 -0.24,-23.57356 -0.005,-24.97868 -0.0381,-24.48461 1.61303,-24.25155 l 0.78207,0.11039 0.0821,23.11731 0.0821,23.11732 1.1979,0.75014 c 0.65884,0.41258 13.1139,7.62838 27.6779,16.03512 l 26.48,15.28496 26.48,-15.28496 c 14.564,-8.40674 27.01906,-15.62254 27.6779,-16.03512 l 1.1979,-0.75014 0.0821,-23.11732 0.0821,-23.11731 0.78207,-0.11039 c 1.64917,-0.23278 1.61793,-0.69245 1.61793,23.80901 v 22.77629 l 27.44,15.84137 c 15.092,8.71275 27.76492,16.00945 28.16204,16.21489 l 0.72203,0.37353 -0.082,23.90765 -0.082,23.90765 -0.82739,0.0962 c -0.45506,0.0529 -0.9941,-0.10469 -1.19785,-0.3502 -0.27125,-0.32684 -0.39246,-6.55962 -0.45261,-23.27334 l -0.0822,-22.82697 -27.31647,-15.78285 c -15.02406,-8.68056 -27.48006,-15.78276 -27.68,-15.78267 -0.19994,9e-5 -12.67553,7.11021 -27.72353,15.80027 l -27.36,15.80009 -0.16526,23.15974 c -0.0909,12.73785 -0.1989,23.19573 -0.24,23.23973 -0.0411,0.044 -0.50674,0.08 -1.03474,0.08 -0.528,0 -0.99363,-0.036 -1.03473,-0.08 z m 128.39473,-1.84 v -0.96 h 8.16 8.16 v 0.96 0.96 h -8.16 -8.16 z M 119.07755,204.63659 c -2.2442,-0.63163 -3.14469,-1.12556 -4.9465,-2.71323 -2.81895,-2.48394 -4.66547,-7.59877 -4.22068,-11.69126 0.64882,-5.96989 2.79218,-9.46421 7.10391,-11.58154 1.68301,-0.82646 2.12451,-0.89846 5.50962,-0.89846 3.31609,0 3.85959,0.0842 5.49605,0.85133 4.72615,2.21554 7.30395,6.71495 7.30395,12.74867 0,5.88913 -2.35365,10.11414 -6.88076,12.35156 -1.99318,0.98508 -2.73161,1.17402 -5.00855,1.28149 -1.7496,0.0826 -3.25229,-0.0376 -4.35704,-0.34856 z m 7.37841,-3.43787 c 1.91369,-0.81916 3.71419,-2.83062 4.54846,-5.08137 0.89974,-2.4274 0.87172,-7.44807 -0.0545,-9.76748 -0.93114,-2.33166 -2.09543,-3.71968 -3.98099,-4.74593 -4.57604,-2.49059 -10.3862,-0.60141 -12.4745,4.05611 -0.66709,1.48779 -0.75889,2.17492 -0.76046,5.69205 -0.002,4.6085 0.4642,6.06988 2.59915,8.14661 2.80622,2.72969 6.33353,3.32206 10.12285,1.70001 z m 225.0508,-2.02948 c -0.60739,-0.60738 -0.62222,-0.82189 -0.10286,-1.48727 0.22,-0.28185 7.96,-4.87914 17.2,-10.2162 17.65773,-10.19917 18.72,-10.69802 18.72,-8.7909 0,0.87458 -0.53485,1.23173 -10.24,6.83784 -19.0093,10.98059 -24.58354,14.15939 -24.82939,14.15939 -0.13469,0 -0.47118,-0.22628 -0.74775,-0.50286 z m -210.84952,-8.67047 c -0.35763,-0.35762 -0.23799,-1.60839 0.18666,-1.95151 1.28185,-1.03577 41.69343,-24.0883 42.09016,-24.01006 0.75033,0.14796 1.24223,1.12665 0.86604,1.72305 -0.42711,0.6771 -41.60236,24.45185 -42.34792,24.45185 -0.31989,0 -0.67761,-0.096 -0.79494,-0.21333 z m 203.94002,-3.5677 c -0.5773,-0.46747 -0.65304,-0.70345 -0.38529,-1.20041 0.49126,-0.91183 41.5288,-24.52373 42.40557,-24.39903 0.54824,0.078 0.70636,0.31424 0.70636,1.05544 0,0.9263 -0.58599,1.29343 -19.52,12.22963 -25.04796,14.46759 -22.32917,13.0249 -23.20664,12.31437 z M 140.5668,173.93079 c -0.0974,-0.25372 -0.12833,-0.71417 -0.0688,-1.02324 0.15468,-0.80321 34.39159,-20.59713 35.46591,-20.50446 0.65896,0.0568 0.8,0.23716 0.8,1.0228 0,0.92319 -0.55456,1.27466 -17.28,10.95179 -9.504,5.4989 -17.60852,10.00169 -18.01005,10.00621 -0.40152,0.005 -0.8097,-0.19938 -0.90706,-0.4531 z m 261.07075,-1.9342 c -2.2442,-0.63163 -3.14469,-1.12556 -4.9465,-2.71323 -2.81895,-2.48394 -4.66546,-7.59877 -4.22068,-11.69126 0.64882,-5.96989 2.79218,-9.46421 7.10391,-11.58154 1.68301,-0.82646 2.12451,-0.89846 5.50962,-0.89846 3.31609,0 3.85959,0.0842 5.49605,0.85133 4.72615,2.21554 7.30395,6.71495 7.30395,12.74867 0,5.88913 -2.35365,10.11414 -6.88076,12.35156 -1.99318,0.98508 -2.73161,1.17402 -5.00855,1.28149 -1.7496,0.0826 -3.25229,-0.0376 -4.35704,-0.34856 z m 7.37841,-3.43787 c 1.91369,-0.81916 3.71419,-2.83062 4.54846,-5.08137 0.89975,-2.4274 0.87173,-7.44807 -0.0545,-9.76748 -0.93114,-2.33166 -2.09543,-3.71968 -3.98099,-4.74593 -4.57604,-2.49059 -10.3862,-0.60141 -12.4745,4.0561 -0.66709,1.4878 -0.75889,2.17493 -0.76046,5.69206 -0.002,4.6085 0.4642,6.06988 2.59915,8.14661 2.80622,2.72969 6.33353,3.32206 10.12285,1.70001 z M 175.39755,106.71659 c -2.2442,-0.63163 -3.14469,-1.12556 -4.9465,-2.71324 -2.81895,-2.48393 -4.66546,-7.598758 -4.22068,-11.691246 0.64882,-5.969887 2.79218,-9.464212 7.10391,-11.581541 1.68301,-0.826463 2.12451,-0.898459 5.50962,-0.898459 3.31609,0 3.85959,0.08419 5.49605,0.85133 4.72615,2.215536 7.30395,6.714953 7.30395,12.74867 0,5.889129 -2.35365,10.114136 -6.88076,12.351556 -1.99318,0.98508 -2.73161,1.17402 -5.00855,1.28149 -1.7496,0.0826 -3.25229,-0.0376 -4.35704,-0.34856 z m 7.37841,-3.43787 c 1.91369,-0.81917 3.71419,-2.83061 4.54846,-5.08137 0.89975,-2.427399 0.87173,-7.448069 -0.0545,-9.767473 -0.93114,-2.331666 -2.09543,-3.71968 -3.98099,-4.745931 -4.57604,-2.490593 -10.3862,-0.601412 -12.4745,4.056102 -0.66709,1.487794 -0.75889,2.174928 -0.76046,5.692056 -0.002,4.608494 0.4642,6.069879 2.59915,8.146606 2.80622,2.72969 6.33353,3.32206 10.12285,1.70001 z m 105.90159,3.43787 c -2.2442,-0.63163 -3.14469,-1.12556 -4.9465,-2.71324 -2.81895,-2.48393 -4.66547,-7.598758 -4.22068,-11.691246 0.64882,-5.969887 2.79218,-9.464212 7.10391,-11.581541 1.68301,-0.826463 2.12451,-0.898459 5.50962,-0.898459 3.31609,0 3.85959,0.08419 5.49605,0.85133 4.72615,2.215536 7.30395,6.714953 7.30395,12.74867 0,5.889129 -2.35365,10.114136 -6.88076,12.351556 -1.99318,0.98508 -2.73161,1.17402 -5.00855,1.28149 -1.7496,0.0826 -3.25229,-0.0376 -4.35704,-0.34856 z m 7.37841,-3.43787 c 1.91369,-0.81917 3.71419,-2.83061 4.54846,-5.08137 0.89974,-2.427399 0.87172,-7.448069 -0.0545,-9.767473 -0.93114,-2.331666 -2.09543,-3.71968 -3.981,-4.745931 -4.57604,-2.490593 -10.38619,-0.601412 -12.4745,4.056102 -0.66708,1.487794 -0.75888,2.174928 -0.76045,5.692056 -0.002,4.608494 0.4642,6.069879 2.59915,8.146606 2.80622,2.72969 6.33353,3.32206 10.12285,1.70001 z M 310.0439,93.272104 v -13.28 h 1.76 1.76 v 5.44 5.44 h 7.04 7.04 v -5.44 -5.44 h 1.76 1.76 v 13.28 13.279996 h -1.75309 -1.75309 l -0.0869,-6.16 -0.0869,-6.159996 -6.96,-0.08624 -6.96,-0.08624 v 6.246236 6.24624 h -1.76 -1.76 z m -116.48,-19.04 v -0.96 h 8.16 8.16 v 0.96 0.96 h -8.16 -8.16 z m -35.2,-34.080001 v -13.28 h 1.76 1.76 v 6.637143 6.637142 l 6.6428,-6.637142 6.64279,-6.637143 2.39721,0.01575 2.3972,0.01575 -5.5766,5.383061 -5.57661,5.383061 5.80411,7.881191 5.80411,7.881192 h -2.33908 -2.33907 l -4.60175,-6.562227 c -2.53096,-3.609224 -4.70314,-6.525224 -4.82707,-6.48 -0.12392,0.04523 -1.17093,0.919526 -2.32668,1.942891 l -2.10136,1.860664 v 4.619331 4.619336 h -1.76 -1.76 z m 29.12,-17.76 v -2.88 h -2.88 -2.88 v -1.28 -1.28 h 2.88 2.88 v -2.72 -2.719999 h 1.12 1.12 v 2.719999 2.72 h 2.88 2.88 v 1.28 1.28 h -2.88 -2.88 v 2.88 2.88 h -1.12 -1.12 z"
       id="path1" />
  </g>
</svg>
