<?xml version="1.0" encoding="utf-8"?>
<!-- Generator: Adobe Illustrator 19.2.1, SVG Export Plug-In . SVG Version: 6.00 Build 0)  -->
<svg version="1.1" id="Слой_1" xmlns="http://www.w3.org/2000/svg" xmlns:xlink="http://www.w3.org/1999/xlink" x="0px" y="0px"
	 viewBox="0 0 1022.2 397.4" style="enable-background:new 0 0 1022.2 397.4;" xml:space="preserve">
<polygon points="595.6,355.5 572.1,355.5 572.1,353.1 593.2,353.1 593.2,16.6 572.1,16.6 572.1,14.2 595.6,14.2 "/>
<rect x="199.6" y="203.1" transform="matrix(0.5873 -0.8094 0.8094 0.5873 -96.5496 253.9632)" width="2.4" height="37.1"/>
<rect x="245.4" y="220.5" transform="matrix(0.8091 -0.5877 0.5877 0.8091 -79.8809 197.4314)" width="37.1" height="2.4"/>
<path d="M259.6,239.2l-1.4-1.9l5.8-4.2l1.4,1.9L259.6,239.2z M271.2,230.7l-1.4-1.9l5.8-4.2l1.4,1.9L271.2,230.7z"/>
<rect x="231.1" y="264.2" width="2.4" height="21"/>
<rect x="165.8" y="182.3" transform="matrix(0.3094 -0.9509 0.9509 0.3094 -40.0582 311.7523)" width="57.6" height="2.4"/>
<rect x="268.8" y="154.6" transform="matrix(0.9511 -0.3089 0.3089 0.9511 -43.4409 92.36)" width="2.4" height="57.6"/>
<rect x="296" y="197.4" transform="matrix(0.3084 -0.9513 0.9513 0.3084 -0.5023 432.5502)" width="2.4" height="38.5"/>
<path d="M306.8,232l-6.8-2.2l0.7-2.3l6.8,2.2L306.8,232z M293.1,227.6l-6.8-2.2l0.7-2.3l6.8,2.2L293.1,227.6z"/>
<rect x="154.2" y="305.1" width="59.2" height="2.4"/>
<rect x="14.2" y="305.1" width="59.2" height="2.4"/>
<rect x="276.9" y="305.1" width="59.2" height="2.4"/>
<rect x="203.5" y="154.8" width="57.6" height="2.4"/>
<path d="M346.9,211.4l-2-1.4l2.9-4.2l2,1.4L346.9,211.4z M353.9,201.3l-2-1.4l4.1-5.9l2,1.4L353.9,201.3z M362,189.4l-2-1.4l2.9-4.2
	l2,1.4L362,189.4z"/>
<rect x="417" y="305.1" width="84.3" height="2.4"/>
<path d="M405.6,211.1l-2.7-4l2-1.3l2.7,4L405.6,211.1z M398.8,201.1l-4-6l2-1.3l4,6L398.8,201.1z M390.7,189.2l-2.7-4l2-1.3l2.7,4
	L390.7,189.2z"/>
<rect x="519" y="264.2" width="2.4" height="21"/>
<rect x="436" y="215.6" transform="matrix(0.9509 -0.3094 0.3094 0.9509 -44.7293 151.5008)" width="38.6" height="2.4"/>
<path d="M445.7,232l-0.7-2.3l6.8-2.2l0.7,2.3L445.7,232z M459.4,227.6l-0.7-2.3l6.8-2.2l0.7,2.3L459.4,227.6z"/>
<rect x="487.3" y="203.2" transform="matrix(0.5873 -0.8093 0.8093 0.5873 22.1131 486.902)" width="2.4" height="37.1"/>
<path d="M493,239.2l-5.8-4.2l1.4-1.9l5.8,4.2L493,239.2z M481.3,230.7l-5.8-4.2l1.4-1.9l5.8,4.2L481.3,230.7z"/>
<polygon points="537.5,233.6 536.1,231.6 566.1,209.8 567.5,211.8 "/>
<rect x="453.7" y="182.3" transform="matrix(0.3094 -0.9509 0.9509 0.3094 158.7656 585.5209)" width="57.6" height="2.4"/>
<rect x="556.7" y="154.6" transform="matrix(0.9511 -0.3089 0.3089 0.9511 -29.3615 181.292)" width="2.4" height="57.6"/>
<rect x="491.4" y="154.8" width="57.6" height="2.4"/>
<polygon points="224.7,235.6 239.6,257.8 243.7,257.8 243.7,229.8 240,229.8 240,252 225.1,229.8 220.9,229.8 220.9,257.8 
	224.7,257.8 "/>
<polygon points="186.6,212.9 184.3,211.3 185.2,208.5 187.5,209.3 187.1,210.4 188,211 "/>
<path d="M241.2,310.6c-0.2,4-3.4,7-7.9,7c-5.9,0-9.5-4.8-9.5-11.4c0-6.1,2.2-12,9.2-12c6.4,0,7.6,4.3,7.8,6.3h3.8
	c-0.4-4.3-2.7-9.5-11.6-9.5c-2.4,0-13.2,0.4-13.2,15.3c0,9,5,14.4,13.3,14.4c9,0,11.3-6.1,11.8-10.1L241.2,310.6L241.2,310.6z"/>
<polygon points="252.7,306.7 266.8,306.7 266.8,319.9 270.5,319.9 270.5,291.9 266.8,291.9 266.8,303.5 252.7,303.5 252.7,291.9 
	248.9,291.9 248.9,319.9 252.7,319.9 "/>
<polygon points="204.1,158.3 201.8,157.6 202.7,154.8 205.5,154.8 205.5,157.2 204.4,157.2 "/>
<polygon points="260.6,158.3 260.3,157.2 259.1,157.2 259.1,154.8 262,154.8 262.9,157.6 "/>
<path d="M324.4,228.2c0-3,0.8-11.7,9.4-11.7c6.4,0,9.4,5.1,9.4,11.7c0,11.3-7.4,11.7-9.4,11.7C325.7,239.9,324.4,232.7,324.4,228.2z
	 M320.4,228.2c0,14.6,11.5,14.8,13.4,14.8c1.7,0,13.4-0.2,13.4-14.8c0-11.4-7.2-14.8-13.4-14.8C325.9,213.3,320.4,218.4,320.4,228.2
	z"/>
<path d="M101.1,310.6c-0.2,4-3.4,7-7.9,7c-5.9,0-9.5-4.8-9.5-11.4c0-6.1,2.2-12,9.2-12c6.4,0,7.6,4.3,7.8,6.3h3.8
	c-0.4-4.3-2.7-9.5-11.6-9.5c-2.4,0-13.2,0.4-13.2,15.3c0,9,5,14.4,13.3,14.4c9,0,11.3-6.1,11.8-10.1L101.1,310.6L101.1,310.6z"/>
<polygon points="112.7,306.7 126.7,306.7 126.7,319.9 130.5,319.9 130.5,291.9 126.7,291.9 126.7,303.5 112.7,303.5 112.7,291.9 
	108.9,291.9 108.9,319.9 112.7,319.9 "/>
<path d="M147.7,324.1h-10.4c0.4-1.4,1.5-2.6,4.1-4.3c4.6-2.9,6.3-4,6.3-7.8s-2.6-5.9-6.6-5.9c-6,0-6.7,4.5-6.7,6.2v0.6h2.6v-0.7
	c0-2.4,1.6-3.9,4.1-3.9c2.4,0,4,1.3,4,3.8c0,3-2.4,4.3-4,5.3c-3.8,2.4-6.6,4.2-6.6,9h13.2L147.7,324.1L147.7,324.1z"/>
<g>
	<path d="M363.9,310.6c-0.2,4-3.4,7-7.9,7c-5.9,0-9.5-4.8-9.5-11.4c0-6.1,2.2-12,9.2-12c6.4,0,7.6,4.3,7.8,6.3h3.8
		c-0.4-4.3-2.7-9.5-11.6-9.5c-2.4,0-13.2,0.4-13.2,15.3c0,9,5,14.4,13.3,14.4c9,0,11.3-6.1,11.8-10.1L363.9,310.6L363.9,310.6z"/>
	<polygon points="375.4,306.7 389.5,306.7 389.5,319.9 393.3,319.9 393.3,291.9 389.5,291.9 389.5,303.5 375.4,303.5 375.4,291.9 
		371.7,291.9 371.7,319.9 375.4,319.9 	"/>
	<path d="M410.5,324.1h-10.4c0.4-1.4,1.4-2.6,4.1-4.3c4.6-2.9,6.3-4,6.3-7.8s-2.5-5.9-6.5-5.9c-6,0-6.7,4.5-6.7,6.2v0.6h2.6v-0.7
		c0-2.4,1.6-3.9,4-3.9s4,1.3,4,3.8c0,3-2.4,4.3-4,5.3c-3.8,2.4-6.6,4.2-6.6,9h13.3L410.5,324.1L410.5,324.1z"/>
</g>
<polygon points="369.5,166.1 383.6,166.1 383.6,179.2 387.3,179.2 387.3,151.2 383.6,151.2 383.6,162.9 369.5,162.9 369.5,151.2 
	365.7,151.2 365.7,179.2 369.5,179.2 "/>
<polygon points="368.1,133 368.1,135.1 375.5,135.1 375.5,142.5 377.6,142.5 377.6,135.1 384.9,135.1 384.9,133 377.6,133 
	377.6,125.7 375.5,125.7 375.5,133 "/>
<path d="M376.5,146.9c-7.1,0-12.8-5.7-12.8-12.8s5.7-12.8,12.8-12.8c7.1,0,12.8,5.7,12.8,12.8S383.6,146.9,376.5,146.9z
	 M376.5,123.7c-5.7,0-10.4,4.7-10.4,10.4s4.7,10.4,10.4,10.4s10.4-4.7,10.4-10.4C386.9,128.3,382.3,123.7,376.5,123.7z"/>
<path d="M529.1,310.6c-0.2,4-3.4,7-7.9,7c-5.9,0-9.5-4.8-9.5-11.4c0-6.1,2.2-12,9.2-12c6.4,0,7.6,4.3,7.8,6.3h3.8
	c-0.4-4.3-2.7-9.5-11.6-9.5c-2.4,0-13.2,0.4-13.2,15.3c0,9,5,14.4,13.3,14.4c9,0,11.3-6.1,11.8-10.1L529.1,310.6L529.1,310.6z"/>
<polygon points="540.6,306.7 554.7,306.7 554.7,319.9 558.4,319.9 558.4,291.9 554.7,291.9 554.7,303.5 540.6,303.5 540.6,291.9 
	536.8,291.9 536.8,319.9 540.6,319.9 "/>
<path d="M409.5,228.2c0-3,0.8-11.7,9.4-11.7c6.4,0,9.4,5.1,9.4,11.7c0,11.3-7.4,11.7-9.4,11.7C410.9,239.9,409.5,232.7,409.5,228.2z
	 M405.5,228.2c0,14.6,11.5,14.8,13.4,14.8c1.7,0,13.4-0.2,13.4-14.8c0-11.4-7.2-14.8-13.4-14.8C411.1,213.3,405.5,218.4,405.5,228.2
	z"/>
<polygon points="512.6,235.6 527.5,257.8 531.6,257.8 531.6,229.8 527.9,229.8 527.9,252 513,229.8 508.8,229.8 508.8,257.8 
	512.6,257.8 "/>
<polygon points="565.9,213 564.5,211 565.4,210.4 565.1,209.3 567.4,208.5 568.2,211.3 "/>
<polygon points="492,158.3 489.7,157.6 490.5,154.8 493.4,154.8 493.4,157.2 492.3,157.2 "/>
<polygon points="548.5,158.3 548.2,157.2 547,157.2 547,154.8 549.9,154.8 550.8,157.6 "/>
<rect x="359.1" y="69.1" width="3.8" height="28"/>
<path d="M366.9,97.6c0.1,2.6,1.2,6.5,6.8,6.5c3.9,0,6.8-2.2,6.8-6c0-3-1.8-4.7-3.8-5l0,0c1.9-0.5,3.2-2.2,3.2-4.4
	c0-1.5-0.8-5.4-6.2-5.4c-6,0-6.4,4.8-6.4,6.6h2.4c0-4.4,2.9-4.5,3.8-4.5c3.1,0,3.9,1.8,3.9,3.4c0,3.4-3.4,3.4-4.3,3.4h-0.8v2.1h2
	c2.2,0,3.6,1.4,3.6,3.5c0,1.2-0.4,4.2-4.4,4.2c-3.5,0-4-2.9-4.1-3.8c0-0.2-0.1-0.4-0.1-0.6C369.3,97.6,366.9,97.6,366.9,97.6z"/>
<rect x="368.6" y="55.1" width="16.8" height="2.1"/>
<path d="M377,69c-7.1,0-12.8-5.7-12.8-12.8s5.7-12.8,12.8-12.8s12.8,5.7,12.8,12.8S384,69,377,69z M377,45.8
	c-5.7,0-10.4,4.7-10.4,10.4s4.7,10.4,10.4,10.4s10.4-4.7,10.4-10.4S382.7,45.8,377,45.8z"/>
<rect x="845.3" y="220.5" transform="matrix(0.8099 -0.5866 0.5866 0.8099 34.1823 548.8437)" width="37.1" height="2.4"/>
<rect x="868.8" y="154.6" transform="matrix(0.9511 -0.3089 0.3089 0.9511 -14.0994 277.6944)" width="2.4" height="57.6"/>
<rect x="803.5" y="154.8" width="57.6" height="2.4"/>
<rect x="765.7" y="182.2" transform="matrix(0.3094 -0.9509 0.9509 0.3094 374.2662 882.1703)" width="57.6" height="2.4"/>
<polygon points="815,233.6 785,211.8 786.4,209.8 816.4,231.6 "/>
<rect x="892.5" y="200" transform="matrix(0.3091 -0.951 0.951 0.3091 407.1478 1002.7816)" width="2.4" height="42.3"/>
<rect x="895.7" y="190.1" transform="matrix(0.3091 -0.951 0.951 0.3091 418.7906 998.9312)" width="2.4" height="42.3"/>
<rect x="831.1" y="264.2" width="2.4" height="21"/>
<polygon points="824.6,235.6 839.6,257.8 843.7,257.8 843.7,229.8 839.9,229.8 839.9,252 825,229.8 820.9,229.8 820.9,257.8 
	824.6,257.8 "/>
<polygon points="786.6,213 784.3,211.3 785.1,208.5 787.4,209.3 787.1,210.4 788,211 "/>
<polygon points="877.9,213 876.6,211 877.5,210.4 877.1,209.3 879.4,208.5 880.3,211.3 "/>
<polygon points="804,158.3 801.7,157.6 802.6,154.8 805.5,154.8 805.5,157.2 804.4,157.2 "/>
<path d="M924.3,228.2c0-3,0.8-11.7,9.4-11.7c6.4,0,9.4,5.1,9.4,11.7c0,11.3-7.4,11.7-9.4,11.7C925.6,239.9,924.3,232.7,924.3,228.2z
	 M920.3,228.2c0,14.6,11.5,14.8,13.4,14.8c1.7,0,13.4-0.2,13.4-14.8c0-11.4-7.2-14.8-13.4-14.8C925.8,213.3,920.3,218.4,920.3,228.2
	z"/>
<polygon points="860.5,158.3 860.2,157.2 859.1,157.2 859.1,154.8 862,154.8 862.8,157.6 "/>
<polygon points="65.8,355.5 42.6,355.5 42.6,14.2 65.8,14.2 65.8,16.6 45,16.6 45,353.1 65.8,353.1 "/>
<g>
	<path d="M602.4,362.9v2.8c1.4-2,3.8-3.6,7-3.6c5.3,0,6.7,3.6,6.7,7.6v13.5h-3.5v-12.4c0-2.2,0.1-6.2-4.3-6.2
		c-1.9,0-5.8,0.8-5.8,7.6v11.1H599V363h3.4V362.9z"/>
</g>
<g>
	<path d="M982.5,362.9v2.8v0.2c1.1-2.4,3.8-3.8,6.3-3.8c3.5,0,5.3,2.2,5.8,4.4c0.7-1.6,2.8-4.4,7-4.4c6.2,0,6.5,5.8,6.5,8v13.1h-3.5
		v-12.9c0-2.1-0.3-5.8-3.9-5.8c-2.4,0-5.4,1.3-5.4,6.5v12.1h-3.5v-12.8c0-3-0.7-5.8-3.9-5.8c-2.9,0-5.4,2.5-5.4,6.5v12.1H979v-20.3
		L982.5,362.9L982.5,362.9z"/>
</g>
<rect x="754.1" y="305.1" width="59.2" height="2.4"/>
<polygon points="633,305.1 564.8,305.1 564.8,307.5 633,307.5 673.3,307.5 673.3,305.1 "/>
<rect x="876.8" y="305.1" width="127.3" height="2.4"/>
<path d="M841.1,310.6c-0.2,4-3.4,7-7.9,7c-5.9,0-9.5-4.8-9.5-11.4c0-6.1,2.2-12,9.2-12c6.4,0,7.6,4.3,7.8,6.3h3.8
	c-0.4-4.3-2.7-9.5-11.6-9.5c-2.4,0-13.2,0.4-13.2,15.3c0,9,5,14.4,13.3,14.4c9,0,11.3-6.1,11.8-10.1L841.1,310.6L841.1,310.6z"/>
<polygon points="852.6,306.7 866.7,306.7 866.7,319.9 870.4,319.9 870.4,291.9 866.7,291.9 866.7,303.5 852.6,303.5 852.6,291.9 
	848.8,291.9 848.8,319.9 852.6,319.9 "/>
<path d="M701,310.6c-0.2,4-3.4,7-7.9,7c-5.9,0-9.5-4.8-9.5-11.4c0-6.1,2.2-12,9.2-12c6.4,0,7.6,4.3,7.8,6.3h3.8
	c-0.4-4.3-2.7-9.5-11.6-9.5c-2.4,0-13.2,0.4-13.2,15.3c0,9,5,14.4,13.3,14.4c9,0,11.3-6.1,11.8-10.1L701,310.6L701,310.6z"/>
<polygon points="712.6,306.7 726.6,306.7 726.6,319.9 730.4,319.9 730.4,291.9 726.6,291.9 726.6,303.5 712.6,303.5 712.6,291.9 
	708.8,291.9 708.8,319.9 712.6,319.9 "/>
<path d="M747.6,324.1h-10.4c0.4-1.4,1.5-2.6,4.1-4.3c4.6-2.9,6.3-4,6.3-7.8s-2.6-5.9-6.6-5.9c-6,0-6.7,4.5-6.7,6.2v0.6h2.6v-0.7
	c0-2.4,1.6-3.9,4.1-3.9c2.4,0,4,1.3,4,3.8c0,3-2.4,4.3-4,5.3c-3.8,2.4-6.6,4.2-6.6,9h13.2L747.6,324.1L747.6,324.1z"/>
<polygon points="665.7,355.5 642.5,355.5 642.5,126.8 665.7,126.8 665.7,129.2 644.9,129.2 644.9,353.1 665.7,353.1 "/>
<polygon points="975.8,355.5 952.6,355.5 952.6,353.1 973.4,353.1 973.4,129.2 952.6,129.2 952.6,126.8 975.8,126.8 "/>
</svg>
