<?xml version="1.0" encoding="UTF-8" standalone="no"?>
<!-- Created with Inkscape (http://www.inkscape.org/) -->

<svg
   version="1.1"
   id="svg1"
   width="459.51999"
   height="261.44"
   viewBox="0 0 459.51999 261.44"
   sodipodi:docname="propyleneglycol.svg"
   inkscape:version="1.4.2 (f4327f4, 2025-05-13)"
   xmlns:inkscape="http://www.inkscape.org/namespaces/inkscape"
   xmlns:sodipodi="http://sodipodi.sourceforge.net/DTD/sodipodi-0.dtd"
   xmlns="http://www.w3.org/2000/svg"
   xmlns:svg="http://www.w3.org/2000/svg">
  <defs
     id="defs1" />
  <sodipodi:namedview
     id="namedview1"
     pagecolor="#ffffff"
     bordercolor="#000000"
     borderopacity="0.25"
     inkscape:showpageshadow="2"
     inkscape:pageopacity="0.0"
     inkscape:pagecheckerboard="0"
     inkscape:deskcolor="#d1d1d1"
     inkscape:zoom="0.81376223"
     inkscape:cx="119.81387"
     inkscape:cy="-22.733913"
     inkscape:window-width="1920"
     inkscape:window-height="1111"
     inkscape:window-x="-9"
     inkscape:window-y="-9"
     inkscape:window-maximized="1"
     inkscape:current-layer="g1" />
  <g
     inkscape:groupmode="layer"
     inkscape:label="Image"
     id="g1">
    <path
       style="fill:#000000"
       d="m 4.5888601,250.86466 c -1.3649797,-0.81092 -1.8502584,-2.42218 -1.1330993,-3.7622 0.1687953,-0.3154 27.5989282,-16.32593 60.9558512,-35.57896 l 60.648948,-35.00552 0.004,-49.46422 0.004,-49.464223 0.72,-0.659 c 0.396,-0.36245 1.0368,-0.75497 1.424,-0.87227 1.03495,-0.31352 2.52657,0.58803 2.9413,1.77774 0.2536,0.72748 0.3547,14.94535 0.3547,49.884923 v 48.86746 l 59.41577,34.30753 c 33.76997,19.49927 59.64305,34.2481 59.94233,34.16984 0.2896,-0.0757 18.39533,-10.45397 40.23496,-23.06274 28.31031,-16.34452 39.9822,-22.92504 40.66222,-22.92504 1.30098,0 2.28751,0.89084 2.50723,2.26404 0.14613,0.91323 0.0312,1.31052 -0.56973,1.96923 -1.00963,1.10675 -82.24384,47.92673 -83.15445,47.92673 -0.39304,0 -1.52545,-0.49074 -2.51648,-1.09053 -5.40869,-3.27346 -118.97735,-68.75043 -119.26677,-68.76216 -0.1897,-0.008 -27.46002,15.64129 -60.600707,34.7755 -33.140686,19.13421 -60.6334727,34.85576 -61.0950827,34.93678 -0.46161,0.081 -1.1272902,-0.0238 -1.4792902,-0.23291 z M 367.78885,205.15675 c -9.2392,-0.99021 -16.70345,-6.21384 -20.79102,-14.54998 -2.68092,-5.46744 -3.21657,-8.03476 -3.17316,-15.20879 0.0321,-5.3019 0.12355,-6.25172 0.87607,-9.09716 2.67357,-10.10935 9.52384,-17.25719 18.92811,-19.75032 3.64233,-0.9656 11.03677,-0.96186 14.72,0.007 3.19233,0.84011 7.74397,3.0746 10.15099,4.98332 3.71165,2.94326 7.30773,8.44069 8.70608,13.30924 1.93937,6.75217 1.94431,14.96715 0.0129,21.42748 -1.40485,4.69901 -4.88553,10.16112 -8.17438,12.82778 -5.68505,4.60955 -13.62223,6.86909 -21.25558,6.05099 z m 8.80539,-7.06177 c 3.42316,-0.94861 5.26067,-2.04571 8.03347,-4.79646 2.85144,-2.82877 4.33645,-5.5727 5.45175,-10.07348 1.05037,-4.23876 0.97898,-11.21702 -0.15942,-15.58344 -1.14289,-4.38366 -2.73238,-7.28254 -5.48511,-10.00362 -4.02888,-3.98255 -8.0804,-5.46061 -14.23783,-5.19417 -4.46089,0.19302 -6.71708,0.90048 -10.11084,3.17036 -3.89233,2.60335 -5.90838,5.44351 -7.31878,10.31048 -1.50404,5.19013 -1.7393,11.98217 -0.5997,17.31333 1.55167,7.25888 7.05275,13.21734 13.86107,15.01355 2.69809,0.71182 7.69916,0.63772 10.56539,-0.15655 z m 32.95461,-22.70715 v -28.81016 l 3.76,0.0902 3.76,0.0902 0.0839,11.76 0.084,11.76 h 14.87211 14.87211 l 0.084,-11.76 0.0839,-11.76 3.76,-0.0902 3.76,-0.0902 v 28.81016 28.81015 h -3.84 -3.84 v -13.6 -13.6 h -14.88 -14.88 v 13.6 13.6 h -3.84 -3.84 z M 123.94886,64.356747 c -9.2392,-0.99021 -16.70345,-6.21384 -20.79102,-14.54998 -2.68092,-5.46744 -3.216571,-8.03476 -3.173161,-15.20879 0.0321,-5.3019 0.123551,-6.25172 0.876071,-9.09716 2.67356,-10.10935 9.52383,-17.2571902 18.92811,-19.7503202 3.64232,-0.9656 11.03676,-0.96186 14.72,0.007 3.19232,0.84012 7.74397,3.07461 10.15098,4.9833202 3.71165,2.94326 7.30773,8.44069 8.70609,13.30924 1.93937,6.75217 1.94431,14.96715 0.0129,21.42748 -1.40485,4.69901 -4.88553,10.16112 -8.17437,12.82778 -5.68505,4.60955 -13.62224,6.86909 -21.25558,6.05099 z m 8.80539,-7.06177 c 3.42315,-0.94861 5.26066,-2.04571 8.03346,-4.79646 2.85145,-2.82877 4.33646,-5.5727 5.45175,-10.07348 1.05037,-4.23876 0.97899,-11.21702 -0.15941,-15.58344 -1.14289,-4.38366 -2.73239,-7.28254 -5.48511,-10.00362 -4.02888,-3.98255 -8.0804,-5.46061 -14.23783,-5.19417 -4.4609,0.19302 -6.71708,0.90048 -10.11084,3.17036 -3.89233,2.60335 -5.90839,5.44351 -7.31878,10.31048 -1.50404,5.19013 -1.73931,11.98217 -0.5997,17.31333 1.55167,7.25888 7.05274,13.21734 13.86107,15.01355 2.69808,0.71182 7.69916,0.63772 10.56539,-0.15655 z m 32.95461,-22.70715 V 5.7776668 l 3.76,0.0901 3.76,0.0902 0.0839,11.7600002 0.0839,11.76 h 14.8722 14.87211 l 0.0839,-11.76 0.084,-11.7600002 3.76,-0.0902 3.75999,-0.0901 v 28.8101602 28.81015 h -3.84 -3.84 v -13.6 -13.6 h -14.88 -14.88 v 13.6 13.6 h -3.84 -3.84 z"
       id="path1" />
  </g>
</svg>
