<?xml version="1.0" encoding="UTF-8" standalone="no"?>
<!-- Created with Inkscape (http://www.inkscape.org/) -->

<svg
   version="1.0"
   width="1330.51"
   height="645.83002"
   id="svg2"
   sodipodi:docname="propylparaben.svg"
   inkscape:version="1.4.2 (f4327f4, 2025-05-13)"
   xmlns:inkscape="http://www.inkscape.org/namespaces/inkscape"
   xmlns:sodipodi="http://sodipodi.sourceforge.net/DTD/sodipodi-0.dtd"
   xmlns="http://www.w3.org/2000/svg"
   xmlns:svg="http://www.w3.org/2000/svg">
  <sodipodi:namedview
     id="namedview1"
     pagecolor="#ffffff"
     bordercolor="#000000"
     borderopacity="0.25"
     inkscape:showpageshadow="2"
     inkscape:pageopacity="0.0"
     inkscape:pagecheckerboard="0"
     inkscape:deskcolor="#d1d1d1"
     inkscape:zoom="1.3176842"
     inkscape:cx="665.5616"
     inkscape:cy="322.91501"
     inkscape:window-width="1920"
     inkscape:window-height="1111"
     inkscape:window-x="-9"
     inkscape:window-y="-9"
     inkscape:window-maximized="1"
     inkscape:current-layer="svg2" />
  <defs
     id="defs4" />
  <path
     d="M 567.61743,324.1237 L 423.01866,240.72602 L 278.71988,324.1237 L 278.71988,490.91906"
     style="fill:none;stroke:#000000;stroke-width:5.99994898px;stroke-linejoin:miter;stroke-opacity:1"
     id="path3423" />
  <path
     d="M 543.61764,334.32341 L 543.61764,480.71934"
     style="fill:none;stroke:#000000;stroke-width:5.99994898px;stroke-linejoin:miter;stroke-opacity:1"
     id="path3421" />
  <path
     d="M 278.71988,490.91906 L 423.01866,574.31674 L 567.61743,490.91906 L 567.61743,324.1237"
     style="fill:none;stroke:#000000;stroke-width:5.99994898px;stroke-linejoin:miter;stroke-opacity:1"
     id="path3419" />
  <path
     d="M 299.4197,475.31949 L 426.31863,548.51746"
     style="fill:none;stroke:#000000;stroke-width:5.99994898px;stroke-linejoin:miter;stroke-opacity:1"
     id="path3417" />
  <path
     d="M 299.4197,339.72326 L 426.31863,266.5253"
     style="fill:none;stroke:#000000;stroke-width:5.99994898px;stroke-linejoin:miter;stroke-opacity:1"
     id="path3415" />
  <path
     d="M 278.71988,490.91906 L 176.12075,550.31741"
     style="fill:none;stroke:#000000;stroke-width:5.99994898px;stroke-linejoin:miter;stroke-opacity:1"
     id="path3413" />
  <path
     d="M 700.21631,116.52947 L 700.21631,246.5344"
     style="fill:none;stroke:#000000;stroke-width:5.99994898px;stroke-linejoin:miter;stroke-opacity:1"
     id="path3430" />
  <path
     d="M 724.21611,116.52947 L 724.21611,246.5344"
     style="fill:none;stroke:#000000;stroke-width:5.99994898px;stroke-linejoin:miter;stroke-opacity:1"
     id="path3411" />
  <path
     d="M 567.61743,324.1237 L 712.21621,240.72602 L 814.81534,300.12437"
     style="fill:none;stroke:#000000;stroke-width:5.99994898px;stroke-linejoin:miter;stroke-opacity:1"
     id="path3407" />
  <path
     d="M 1290.0113,240.72602 L 1145.4125,324.1237 L 1001.1138,240.72602 L 898.51463,299.82437"
     style="fill:none;stroke:#000000;stroke-width:5.99994898px;stroke-linejoin:miter;stroke-opacity:1"
     id="path3380" />
  <path
     d="m 37.498745,607.12225 v -70.86621 h 9.37793 v 29.10059 h 36.834961 v -29.10059 h 9.377929 v 70.86621 H 83.711636 V 573.71942 H 46.876675 v 33.40283 z M 105.85128,572.6076 q 0,-17.64404 9.47461,-27.60205 9.47461,-10.00634 24.45996,-10.00634 9.81299,0 17.69239,4.68896 7.87939,4.68897 11.98828,13.1001 4.15722,8.36279 4.15722,18.99756 0,10.77978 -4.35058,19.2876 -4.35059,8.50781 -12.32666,12.90673 -7.97608,4.35059 -17.20899,4.35059 -10.00634,0 -17.88574,-4.83398 -7.87939,-4.83399 -11.93994,-13.19678 -4.06055,-8.3628 -4.06055,-17.69239 z m 9.66797,0.14502 q 0,12.81006 6.86426,20.20606 6.9126,7.34766 17.30566,7.34766 10.58643,0 17.40235,-7.44434 6.86426,-7.44434 6.86426,-21.12451 0,-8.65283 -2.94873,-15.08203 -2.90039,-6.47754 -8.55616,-10.00635 -5.60742,-3.57715 -12.6167,-3.57715 -9.958,0 -17.16064,6.86426 -7.1543,6.81592 -7.1543,22.8164 z"
     id="text3393"
     style="font-size:99px;line-height:125%;font-family:Arial;stroke-width:1px"
     aria-label="HO" />
  <path
     d="m 678.32996,75.107658 q 0,-17.644043 9.47461,-27.60205 9.4746,-10.006348 24.45996,-10.006348 9.81298,0 17.69238,4.688965 7.87939,4.688965 11.98828,13.100097 4.15723,8.362793 4.15723,18.997559 0,10.779785 -4.35059,19.287598 -4.35058,8.507811 -12.32666,12.906741 -7.97607,4.35058 -17.20898,4.35058 -10.00635,0 -17.88575,-4.83398 -7.87939,-4.83399 -11.93994,-13.196779 -4.06054,-8.362793 -4.06054,-17.692383 z m 9.66796,0.14502 q 0,12.810059 6.86426,20.206055 6.9126,7.347657 17.30567,7.347657 10.58642,0 17.40234,-7.444337 6.86426,-7.444336 6.86426,-21.124512 0,-8.652832 -2.94873,-15.082031 -2.90039,-6.477539 -8.55615,-10.006348 -5.60743,-3.577148 -12.6167,-3.577148 -9.95801,0 -17.16065,6.864258 -7.1543,6.815918 -7.1543,22.816406 z"
     id="text3397"
     style="font-size:99px;line-height:125%;font-family:Arial;stroke-width:1px"
     aria-label="O" />
  <path
     d="m 821.39905,323.06491 q 0,-17.64404 9.47461,-27.60205 9.47461,-10.00635 24.45996,-10.00635 9.81299,0 17.69238,4.68897 7.8794,4.68896 11.98828,13.10009 4.15723,8.3628 4.15723,18.99756 0,10.77979 -4.35059,19.2876 -4.35058,8.50781 -12.32666,12.90674 -7.97607,4.35059 -17.20898,4.35059 -10.00635,0 -17.88574,-4.83399 -7.8794,-4.83398 -11.93995,-13.19678 -4.06054,-8.36279 -4.06054,-17.69238 z m 9.66797,0.14502 q 0,12.81006 6.86425,20.20606 6.9126,7.34765 17.30567,7.34765 10.58642,0 17.40234,-7.44433 6.86426,-7.44434 6.86426,-21.12452 0,-8.65283 -2.94873,-15.08203 -2.90039,-6.47754 -8.55615,-10.00635 -5.60742,-3.57714 -12.6167,-3.57714 -9.95801,0 -17.16065,6.86425 -7.15429,6.81592 -7.15429,22.81641 z"
     id="text3401"
     style="font-size:99px;line-height:125%;font-family:Arial;stroke-width:1px"
     aria-label="O" />
</svg>
