<?xml version="1.0" encoding="UTF-8" standalone="no"?>
<svg
   xmlns:dc="http://purl.org/dc/elements/1.1/"
   xmlns:cc="http://creativecommons.org/ns#"
   xmlns:rdf="http://www.w3.org/1999/02/22-rdf-syntax-ns#"
   xmlns:svg="http://www.w3.org/2000/svg"
   xmlns="http://www.w3.org/2000/svg"
   id="svg2"
   height="799.81"
   width="1316.8"
   version="1.0">
  <metadata
     id="metadata853">
    <rdf:RDF>
      <cc:Work
         rdf:about="">
        <dc:format>image/svg+xml</dc:format>
        <dc:type
           rdf:resource="http://purl.org/dc/dcmitype/StillImage" />
        <dc:title></dc:title>
      </cc:Work>
    </rdf:RDF>
  </metadata>
  <defs
     id="defs4" />
  <path
     id="path2478"
     style="fill:none;stroke:#000000;stroke-width:5.99993181px;stroke-linejoin:round;stroke-dasharray:none;stroke-opacity:1"
     d="M 533.50778,469.34059 L 406.60922,542.53741" />
  <path
     id="path2486"
     style="fill:none;stroke:#000000;stroke-width:5.99993181px;stroke-linejoin:round;stroke-dasharray:none;stroke-opacity:1"
     d="M 289.31055,475.04035 L 289.31055,328.64671" />
  <path
     id="path2496"
     style="fill:none;stroke:#000000;stroke-width:5.99993181px;stroke-linejoin:round;stroke-dasharray:none;stroke-opacity:1"
     d="M 406.60922,260.84966 L 533.50778,334.04648" />
  <path
     id="path2462"
     style="fill:none;stroke:#000000;stroke-width:5.99993181px;stroke-linejoin:miter;stroke-opacity:1"
     d="M 554.20754,485.2399 L 698.80591,568.63628 L 813.59455,502.18183 M 265.31082,485.2399 L 409.90917,568.63628 L 554.20754,485.2399 M 1276.2995,568.63628 L 1132.001,485.2399 L 987.40264,568.63628 L 872.36527,502.17988 M 686.80605,561.49342 L 686.80605,696.93802 M 710.80578,561.49342 L 710.80578,696.93802 M 265.31082,485.2399 L 265.31082,318.44716 M 265.31082,485.2399 L 154.72266,548.93922 M 265.31082,318.44716 L 409.90917,235.05078 M 265.31082,318.44716 L 154.68729,254.40402 M 409.90917,235.05078 L 554.20754,318.44716 L 554.20754,485.2399 M 409.90917,235.05078 L 409.90917,105.54871" />
  <path
     d="m 37.500668,263.09354 v -58.69727 h 7.767578 v 24.10352 h 30.509765 v -24.10352 h 7.767578 v 58.69727 h -7.767578 v -27.667 H 45.268246 v 27.667 z"
     style="font-style:normal;font-variant:normal;font-weight:normal;font-stretch:normal;font-size:medium;line-height:125%;font-family:Arial;text-align:start;writing-mode:lr-tb;text-anchor:start;fill:#000000;fill-opacity:1;stroke:none;stroke-width:1px;stroke-linecap:butt;stroke-linejoin:miter;stroke-opacity:1"
     id="path866" />
  <path
     d="m 94.155941,234.50565 q 0,-14.61426 7.847659,-22.86231 7.84765,-8.28808 20.25976,-8.28808 8.12793,0 14.6543,3.88378 6.52637,3.88379 9.92969,10.85059 3.44336,6.92676 3.44336,15.73535 0,8.92871 -3.60352,15.97559 -3.60351,7.04687 -10.20996,10.69043 -6.60645,3.60351 -14.25391,3.60351 -8.28808,0 -14.81445,-4.0039 -6.52637,-4.00391 -9.889648,-10.93067 -3.363281,-6.92676 -3.363281,-14.65429 z m 8.007809,0.12011 q 0,10.61035 5.68555,16.73633 5.72559,6.08594 14.33398,6.08594 8.76856,0 14.41407,-6.16602 5.68554,-6.16601 5.68554,-17.49707 0,-7.16699 -2.44238,-12.49218 -2.40234,-5.36524 -7.08691,-8.28809 -4.64453,-2.96289 -10.4502,-2.96289 -8.24804,0 -14.21387,5.68555 -5.92578,5.6455 -5.92578,18.89843 z"
     style="font-style:normal;font-variant:normal;font-weight:normal;font-stretch:normal;font-size:medium;line-height:125%;font-family:Arial;text-align:start;writing-mode:lr-tb;text-anchor:start;fill:#000000;fill-opacity:1;stroke:none;stroke-width:1px;stroke-linecap:butt;stroke-linejoin:miter;stroke-opacity:1"
     id="path868" />
  <path
     d="m 37.500668,595.23639 v -58.69727 h 7.767578 v 24.10352 h 30.509765 v -24.10352 h 7.767578 v 58.69727 H 75.778011 V 567.5694 H 45.268246 v 27.66699 z"
     style="font-style:normal;font-variant:normal;font-weight:normal;font-stretch:normal;font-size:medium;line-height:125%;font-family:Arial;text-align:start;writing-mode:lr-tb;text-anchor:start;fill:#000000;fill-opacity:1;stroke:none;stroke-width:1px;stroke-linecap:butt;stroke-linejoin:miter;stroke-opacity:1"
     id="path861" />
  <path
     d="m 94.155941,566.6485 q 0,-14.61426 7.847659,-22.86231 7.84765,-8.28808 20.25976,-8.28808 8.12793,0 14.6543,3.88379 6.52637,3.88379 9.92969,10.85058 3.44336,6.92676 3.44336,15.73535 0,8.92872 -3.60352,15.97559 -3.60351,7.04688 -10.20996,10.69043 -6.60645,3.60352 -14.25391,3.60352 -8.28808,0 -14.81445,-4.00391 -6.52637,-4.00391 -9.889648,-10.93066 -3.363281,-6.92676 -3.363281,-14.6543 z m 8.007809,0.12012 q 0,10.61035 5.68555,16.73632 5.72559,6.08594 14.33398,6.08594 8.76856,0 14.41407,-6.16601 5.68554,-6.16602 5.68554,-17.49707 0,-7.167 -2.44238,-12.49219 -2.40234,-5.36524 -7.08691,-8.28809 -4.64453,-2.96289 -10.4502,-2.96289 -8.24804,0 -14.21387,5.68555 -5.92578,5.64551 -5.92578,18.89844 z"
     style="font-style:normal;font-variant:normal;font-weight:normal;font-stretch:normal;font-size:medium;line-height:125%;font-family:Arial;text-align:start;writing-mode:lr-tb;text-anchor:start;fill:#000000;fill-opacity:1;stroke:none;stroke-width:1px;stroke-linecap:butt;stroke-linejoin:miter;stroke-opacity:1"
     id="path863" />
  <path
     d="m 382.20221,68.651604 q 0,-14.614258 7.84766,-22.862305 7.84765,-8.288086 20.25976,-8.288086 8.12793,0 14.6543,3.883789 6.52637,3.883789 9.92969,10.850586 3.44336,6.926758 3.44336,15.735352 0,8.928711 -3.60352,15.975586 -3.60352,7.046875 -10.20996,10.690429 -6.60645,3.603516 -14.25391,3.603516 -8.28808,0 -14.81445,-4.003906 -6.52637,-4.003907 -9.88965,-10.930664 -3.36328,-6.926758 -3.36328,-14.654297 z m 8.00781,0.120117 q 0,10.610351 5.68555,16.736328 5.72558,6.085938 14.33398,6.085938 8.76856,0 14.41407,-6.166016 5.68554,-6.166016 5.68554,-17.49707 0,-7.166993 -2.44238,-12.492188 -2.40234,-5.365234 -7.08691,-8.288086 -4.64454,-2.96289 -10.4502,-2.96289 -8.24805,0 -14.21387,5.685546 -5.92578,5.645508 -5.92578,18.898438 z"
     style="font-style:normal;font-variant:normal;font-weight:normal;font-stretch:normal;font-size:medium;line-height:125%;font-family:Arial;text-align:start;writing-mode:lr-tb;text-anchor:start;fill:#000000;fill-opacity:1;stroke:none;stroke-width:1px;stroke-linecap:butt;stroke-linejoin:miter;stroke-opacity:1"
     id="path871" />
  <path
     d="M 448.54694,97.239494 V 38.542229 h 7.76757 v 24.103515 h 30.50977 V 38.542229 h 7.76758 v 58.697265 h -7.76758 V 69.572502 h -30.50977 v 27.666992 z"
     style="font-style:normal;font-variant:normal;font-weight:normal;font-stretch:normal;font-size:medium;line-height:125%;font-family:Arial;text-align:start;writing-mode:lr-tb;text-anchor:start;fill:#000000;fill-opacity:1;stroke:none;stroke-width:1px;stroke-linecap:butt;stroke-linejoin:miter;stroke-opacity:1"
     id="path873" />
  <path
     d="m 670.73853,732.71991 q 0,-14.61426 7.84765,-22.86231 7.84766,-8.28808 20.25977,-8.28808 8.12793,0 14.65429,3.88379 6.52637,3.88379 9.92969,10.85058 3.44336,6.92676 3.44336,15.73536 0,8.92871 -3.60351,15.97558 -3.60352,7.04688 -10.20997,10.69043 -6.60644,3.60352 -14.2539,3.60352 -8.28809,0 -14.81445,-4.00391 -6.52637,-4.00391 -9.88965,-10.93066 -3.36328,-6.92676 -3.36328,-14.6543 z m 8.00781,0.12012 q 0,10.61035 5.68554,16.73632 5.72559,6.08594 14.33399,6.08594 8.76855,0 14.41406,-6.16601 5.68555,-6.16602 5.68555,-17.49707 0,-7.167 -2.44238,-12.49219 -2.40235,-5.36524 -7.08692,-8.28809 -4.64453,-2.96289 -10.45019,-2.96289 -8.24805,0 -14.21387,5.68555 -5.92578,5.64551 -5.92578,18.89844 z"
     style="font-style:normal;font-variant:normal;font-weight:normal;font-stretch:normal;font-size:medium;line-height:125%;font-family:Arial;text-align:start;writing-mode:lr-tb;text-anchor:start;fill:#000000;fill-opacity:1;stroke:none;stroke-width:1px;stroke-linecap:butt;stroke-linejoin:miter;stroke-opacity:1"
     id="path858" />
  <path
     d="m 814.91254,482.76215 q 0,-14.61426 7.84765,-22.86231 7.84766,-8.28808 20.25977,-8.28808 8.12793,0 14.6543,3.88378 6.52636,3.88379 9.92968,10.85059 3.44336,6.92676 3.44336,15.73535 0,8.92871 -3.60351,15.97559 -3.60352,7.04687 -10.20996,10.69043 -6.60645,3.60351 -14.25391,3.60351 -8.28809,0 -14.81445,-4.0039 -6.52637,-4.00391 -9.88965,-10.93067 -3.36328,-6.92675 -3.36328,-14.65429 z m 8.00781,0.12011 q 0,10.61035 5.68555,16.73633 5.72558,6.08594 14.33398,6.08594 8.76856,0 14.41406,-6.16602 5.68555,-6.16601 5.68555,-17.49707 0,-7.16699 -2.44238,-12.49218 -2.40235,-5.36524 -7.08692,-8.28809 -4.64453,-2.96289 -10.45019,-2.96289 -8.24805,0 -14.21387,5.68555 -5.92578,5.6455 -5.92578,18.89843 z"
     style="font-style:normal;font-variant:normal;font-weight:normal;font-stretch:normal;font-size:medium;line-height:125%;font-family:Arial;text-align:start;writing-mode:lr-tb;text-anchor:start;fill:#000000;fill-opacity:1;stroke:none;stroke-width:1px;stroke-linecap:butt;stroke-linejoin:miter;stroke-opacity:1"
     id="path855" />
</svg>
