<?xml version="1.0" encoding="UTF-8" standalone="no"?>
<!-- Created with Inkscape (http://www.inkscape.org/) -->

<svg
   version="1.1"
   id="svg1"
   width="162.88808"
   height="220.63702"
   viewBox="0 0 162.88808 220.63702"
   sodipodi:docname="µ.svg"
   inkscape:version="1.4.2 (f4327f4, 2025-05-13)"
   xmlns:inkscape="http://www.inkscape.org/namespaces/inkscape"
   xmlns:sodipodi="http://sodipodi.sourceforge.net/DTD/sodipodi-0.dtd"
   xmlns="http://www.w3.org/2000/svg"
   xmlns:svg="http://www.w3.org/2000/svg">
  <defs
     id="defs1" />
  <sodipodi:namedview
     id="namedview1"
     pagecolor="#ffffff"
     bordercolor="#000000"
     borderopacity="0.25"
     inkscape:showpageshadow="2"
     inkscape:pageopacity="0.0"
     inkscape:pagecheckerboard="0"
     inkscape:deskcolor="#d1d1d1"
     inkscape:zoom="1.8754407"
     inkscape:cx="-8.797932"
     inkscape:cy="78.114972"
     inkscape:window-width="1920"
     inkscape:window-height="1111"
     inkscape:window-x="-9"
     inkscape:window-y="-9"
     inkscape:window-maximized="1"
     inkscape:current-layer="g1" />
  <g
     inkscape:groupmode="layer"
     inkscape:label="Image"
     id="g1"
     transform="translate(-2.5600046,-2.937795)">
    <g
       id="g8"
       transform="translate(4.624112e-6,2.1328321)">
      <path
         style="fill:#d2d2d2"
         d="m 134.39978,221.2 c -1.2e-4,-0.132 0.45256,-2.508 1.00595,-5.28 l 1.00617,-5.04 h 0.91405 c 0.62011,0 0.91405,0.16276 0.91405,0.5061 0,0.4298 0.16249,0.40568 1.07777,-0.16 2.1256,-1.31369 4.6706,-0.65883 5.16983,1.33027 0.10114,0.40295 -0.18246,2.45861 -0.63021,4.56814 -0.44776,2.10952 -0.81484,3.94349 -0.81575,4.07549 -9e-4,0.132 -0.47992,0.24 -1.06449,0.24 h -1.06285 l 0.73366,-3.44 c 0.93571,-4.38739 0.95483,-5.4125 0.10602,-5.68191 -0.92381,-0.2932 -2.91371,0.78366 -3.57537,1.93486 -0.30756,0.53512 -0.77913,2.04712 -1.04793,3.36 -0.82762,4.04221 -0.72773,3.82705 -1.77678,3.82705 -0.52464,0 -0.954,-0.108 -0.95412,-0.24 z M 34.88,185.44 c 0,-14.52 -0.09072,-26.4 -0.201607,-26.4 -0.110885,0 -2.012933,1.02431 -4.226776,2.27625 -4.248986,2.40281 -4.907952,2.51501 -5.107266,0.86957 -0.08627,-0.71216 0.376082,-1.05436 4.712232,-3.48772 L 34.864464,156 l 0.0078,-26.64 0.0078,-26.64 h 4.32 c 4.106667,0 4.32,0.0316 4.32,0.64 0,0.58981 -0.213333,0.64 -2.72,0.64 h -2.72 v 24.96 c 0,13.728 0.06991,24.96 0.155356,24.96 0.26925,0 19.506345,-10.94846 19.895257,-11.32304 0.266875,-0.25704 0.446016,-5.81114 0.64,-19.84267 0.249378,-18.03838 0.310982,-19.51191 0.829387,-19.83837 0.408191,-0.25705 0.711809,-0.2566 1.12,0.002 0.523396,0.33115 0.56,1.6373 0.56,19.98285 v 19.62854 l 23.04,13.51626 c 12.672,7.43393 23.198336,13.52492 23.391856,13.53551 0.19352,0.0106 5.05352,-2.65325 10.8,-5.91966 L 128.96,157.72215 V 130.86108 104 h -2.56 c -2.34667,0 -2.56,-0.0533 -2.56,-0.64 0,-0.60716 0.21333,-0.64 4.15816,-0.64 h 4.15816 l 0.0818,26.53915 0.0818,26.53916 4.24699,-2.4005 c 4.63073,-2.61739 5.67301,-2.85113 5.67301,-1.27223 0,0.8608 -0.35275,1.12532 -5.04,3.77939 l -5.04,2.8538 V 185.29939 211.84 H 128 c -3.94667,0 -4.16,-0.0328 -4.16,-0.64 0,-0.58666 0.21333,-0.64 2.56,-0.64 h 2.56 v -24.98348 -24.98349 l -1.68,0.95739 C 113.0743,169.6459 108.01195,172.48 107.75729,172.48 c -0.16869,0 -11.016086,-6.27283 -24.105314,-13.93962 l -23.798597,-13.93963 -10.884558,6.17963 -10.884557,6.17962 -0.0021,26.8 -0.0021,26.8 h 2.72 c 2.506667,0 2.72,0.0502 2.72,0.64 0,0.6084 -0.213333,0.64 -4.32,0.64 H 34.88 Z M 2.56,169.92 V 158.4 h 1.6 1.6 v 4.64 4.64 h 5.92 5.92 v -4.64 -4.64 h 1.6 1.6 v 11.52 11.52 H 19.2 17.6 V 176 170.56 H 11.68 5.76 v 5.44 5.44 H 4.16 2.56 Z M 147.2,143.04 v -11.52 h 1.6 1.6 v 4.64 4.64 h 5.92 5.92 v -4.64 -4.64 h 1.6 1.6 v 11.52 11.52 h -1.6 -1.6 v -5.44 -5.44 h -5.92 -5.92 v 5.44 5.44 h -1.6 -1.6 z m -96,-55.999998 v -11.52 l 1.68,0.0127 1.68,0.0127 5.76,8.627221 5.76,8.627221 0.08514,-8.639921 0.08514,-8.639921 H 67.845143 69.44 v 11.52 11.52 l -1.68,-0.008 -1.68,-0.008 -5.76,-8.678649 -5.76,-8.678649 -0.08514,8.686607 -0.08514,8.686607 H 52.794857 51.2 Z m 94.43012,8.287243 c -2.98292,-0.906995 -5.62137,-3.462185 -6.87179,-6.654942 -1.16276,-2.968922 -0.97857,-7.568538 0.43214,-10.791471 1.34945,-3.082953 4.45635,-5.346402 8.00482,-5.831685 5.27681,-0.721648 9.5782,1.545061 11.74799,6.190855 0.81901,1.753605 0.89672,2.238923 0.89672,5.6 0,3.38118 -0.075,3.842337 -0.92334,5.679192 -1.06334,2.302334 -3.04768,4.296991 -5.26045,5.287796 -1.7216,0.770879 -6.23885,1.06369 -8.02609,0.520255 z M 152.16,92.193326 c 2.82258,-1.306814 4.39605,-4.166925 4.42096,-8.036055 0.0231,-3.58063 -0.5535,-5.260498 -2.48213,-7.231946 -1.31577,-1.344982 -1.92502,-1.71886 -3.25439,-1.997137 -3.98153,-0.833449 -7.71196,1.184852 -8.88115,4.805029 -0.59242,1.834334 -0.69176,5.887319 -0.1887,7.698703 0.47435,1.707967 2.15862,3.759632 3.79574,4.623707 1.78737,0.943377 4.71725,1.0046 6.58967,0.137699 z M 117.14571,71.67719 C 108.79985,66.051993 101.66703,61.163594 101.29499,60.81408 l -0.67644,-0.635479 -12.469275,8.959826 c -13.074895,9.394996 -13.941271,9.881762 -14.165037,7.958503 -0.08723,-0.749731 1.231545,-1.774703 14.8,-11.502798 8.19267,-5.873848 14.896502,-10.831466 14.897402,-11.016928 9e-4,-0.185461 -3.61635,-11.725646 -8.038337,-25.644854 L 87.603324,3.6246998 60.860233,3.4097791 C 46.151533,3.2915727 34.022849,3.3040152 33.907601,3.4374292 33.680728,3.7000653 17.216919,53.362254 17.156579,53.965982 c -0.02012,0.20129 6.559184,5.223967 14.620671,11.161505 13.403109,9.87181 14.648929,10.867269 14.56,11.634019 -0.222141,1.91531 -1.169063,1.343196 -16.884786,-10.201505 C 16.661626,57.163908 14.422015,55.400879 14.411893,54.720013 14.394615,53.557786 31.963194,1.0378358 32.417488,0.89363765 32.62787,0.82685994 45.356083,0.82880924 60.702407,0.89796943 81.588865,0.99209696 88.735684,1.1194107 89.125288,1.4042957 89.618807,1.7651656 106.53197,54.19031 106.55145,55.419563 c 0.005,0.302076 -0.83653,1.132353 -1.91145,1.886365 -1.056,0.740742 -1.91311,1.433939 -1.90469,1.540438 0.008,0.1065 7.02842,4.883756 15.6,10.616127 14.64823,9.796221 15.58469,10.478824 15.58469,11.36 0,2.052929 -0.83698,1.596608 -16.77429,-9.145303 z m 4.038,-11.551503 c -7.35696,-4.927041 -13.46388,-9.186501 -13.57093,-9.465466 -0.23412,-0.610105 0.27404,-1.504357 0.92819,-1.633413 0.5697,-0.112395 27.11259,17.585728 27.73813,18.495075 0.54397,0.790774 0.007,1.607773 -1.03828,1.580089 -0.37445,-0.0099 -6.70015,-4.049244 -14.05711,-8.976285 z"
         id="path14" />
      <path
         style="fill:#b7b7b7"
         d="m 134.47007,220.88 c 0.0796,-0.308 0.55809,-2.684 1.06332,-5.28 l 0.9186,-4.72 h 0.9287 c 0.8533,0 0.91077,0.0714 0.70796,0.88 l -0.22074,0.88 0.74605,-0.68001 c 2.61279,-2.38154 5.70265,-1.65589 5.7085,1.34064 0.001,0.69266 -0.31563,2.80737 -0.70441,4.69937 -0.69568,3.38553 -0.72106,3.44 -1.60246,3.44 -0.50402,0 -0.89487,-0.17488 -0.89394,-0.4 9.1e-4,-0.22 0.3494,-2.03823 0.77441,-4.04052 0.81559,-3.84229 0.79961,-4.38251 -0.13841,-4.68022 -1.72594,-0.54779 -3.88719,1.35881 -4.41579,3.89552 -0.1771,0.84987 -0.48968,2.37322 -0.69462,3.38522 -0.35554,1.7557 -0.41727,1.84 -1.34725,1.84 -0.77002,0 -0.94425,-0.11756 -0.82992,-0.56 z M 34.801838,185.32879 34.72,158.81758 l -4.125719,2.338 c -3.305163,1.873 -4.243914,2.27475 -4.72,2.01996 -0.860052,-0.46029 -0.729566,-1.43826 0.285719,-2.14141 0.484,-0.3352 2.642769,-1.60501 4.797264,-2.82179 L 34.874529,156 l 0.0027,-26.64 0.0027,-26.64 h 4.32 c 4.106667,0 4.32,0.0316 4.32,0.64 0,0.58981 -0.213333,0.64 -2.72,0.64 h -2.72 v 24.96 c 0,13.728 0.103224,24.96 0.229386,24.96 0.126162,0 4.711769,-2.55587 10.190238,-5.6797 l 9.960852,-5.67971 0.209172,-9.28029 c 0.115045,-5.10417 0.209438,-13.8955 0.209762,-19.5363 4.35e-4,-7.54954 0.101924,-10.35733 0.38459,-10.64 0.499977,-0.49997 1.428641,-0.49152 1.757115,0.016 0.142387,0.22 0.212874,9.184 0.156637,19.92 l -0.102248,19.52 15.782248,9.19907 c 8.680237,5.05949 19.191456,11.19869 23.358269,13.64268 l 7.57601,4.44361 10.50399,-5.98896 10.50398,-5.98897 0.0818,-26.93371 L 128.96364,104 h -2.56182 c -2.34849,0 -2.56182,-0.0533 -2.56182,-0.64 0,-0.60718 0.21333,-0.64 4.16,-0.64 h 4.16 v 26.56 c 0,14.608 0.0589,26.56 0.13079,26.56 0.0719,0 2.02553,-1.08875 4.34132,-2.41946 4.53944,-2.60846 5.60789,-2.86345 5.60789,-1.33839 0,0.80301 -0.445,1.13647 -4.96,3.71678 l -4.96,2.83463 -0.0818,26.60322 -0.0818,26.60322 h -4.15816 c -3.94483,0 -4.15816,-0.0328 -4.15816,-0.64 0,-0.58666 0.21333,-0.64 2.56,-0.64 h 2.56 V 185.6 c 0,-13.728 -0.0526,-24.96 -0.11689,-24.96 -0.0643,0 -4.56428,2.53861 -10,5.64135 -5.43571,3.10273 -10.17919,5.77713 -10.54107,5.94309 -0.55031,0.25239 -4.55403,-1.9806 -24.471152,-13.64827 C 69.278099,150.05098 59.827597,144.6984 59.52885,144.81195 59.259982,144.91415 54.324,147.67701 48.56,150.95164 l -10.48,5.95387 V 183.73276 210.56 h 2.72 c 2.506667,0 2.72,0.0502 2.72,0.64 0,0.60839 -0.213333,0.64 -4.318162,0.64 H 34.883677 Z M 2.7733333,181.22667 C 2.656,181.10934 2.56,175.92534 2.56,169.70667 V 158.4 h 1.6 1.6 v 4.64 4.64 h 5.92 5.92 v -4.64 -4.64 h 1.6 1.6 v 11.52 11.52 H 19.2 17.6 V 176 170.56 H 11.68 5.76 v 5.44 5.44 H 4.3733333 c -0.7626666,0 -1.4826666,-0.096 -1.6,-0.21333 z m 144.6399967,-26.88 C 147.296,154.22934 147.2,149.04534 147.2,142.82667 V 131.52 h 1.6 1.6 v 4.64 4.64 h 5.92 5.92 v -4.64 -4.64 h 1.6 1.6 v 11.52 11.52 h -1.6 -1.6 v -5.44 -5.44 h -5.92 -5.92 v 5.44 5.44 h -1.38667 c -0.76266,0 -1.48266,-0.096 -1.6,-0.21333 z M 51.2,87.057535 V 75.520002 l 1.68,0.008 1.68,0.008 5.76,8.678649 5.76,8.678649 0.08514,-8.686607 0.08514,-8.686607 H 67.845143 69.44 v 11.536723 11.536723 l -1.65148,-0.09672 -1.65148,-0.09672 -5.78852,-8.576709 -5.78852,-8.57671 -0.16,8.57671 -0.16,8.576709 -1.52,0.09753 -1.52,0.09753 z m 94.50374,8.180765 c -5.47461,-1.789386 -8.47559,-7.256937 -7.48552,-13.638036 0.93001,-5.994105 4.9862,-9.635818 10.73248,-9.635818 6.93315,0 11.45258,5.267215 10.97115,12.786445 -0.41628,6.501584 -4.32973,10.564559 -10.42255,10.820758 -1.4922,0.06275 -2.98477,-0.06834 -3.79556,-0.333349 z m 7.47427,-3.558298 c 1.85207,-1.32884 2.86502,-3.030682 3.32033,-5.578485 0.74532,-4.170558 -0.57813,-8.251284 -3.27987,-10.113146 -3.66234,-2.523841 -8.96925,-1.240456 -10.84583,2.622876 -0.58968,1.213977 -0.77996,2.226376 -0.88028,4.683577 -0.14682,3.596205 0.32244,5.2964 1.98421,7.189053 1.54101,1.755119 3.12449,2.351389 5.96343,2.245577 2.07783,-0.07744 2.57961,-0.218321 3.73801,-1.049452 z M 117.27215,71.665978 c -8.44368,-5.653794 -15.60013,-10.56654 -15.90321,-10.917212 -0.32623,-0.377453 -0.71791,-0.540793 -0.96,-0.400346 -0.22492,0.130482 -5.920609,4.183002 -12.657093,9.005599 C 75.066113,78.435639 74.08,78.992118 74.08,77.069266 c 0,-0.754595 1.500751,-1.925079 13.28,-10.357494 7.304,-5.228717 14.01632,-10.055691 14.91626,-10.726608 l 1.63626,-1.219849 -8.111855,-25.511587 C 91.339143,15.222355 87.650826,3.7115257 87.604404,3.6741075 87.557982,3.6366893 75.431315,3.5507077 60.656256,3.4830372 L 33.792511,3.3600001 25.388143,28.640001 c -4.622403,13.904 -8.409718,25.366713 -8.416256,25.472694 -0.0065,0.105982 6.617951,5.073982 14.721086,11.04 13.186548,9.708735 14.723214,10.931277 14.64,11.647307 C 46.120132,78.631421 45.304682,78.133039 29.705248,66.637553 21.375643,60.499327 14.515714,55.244532 14.460963,54.960231 14.311057,54.181831 31.947171,1.044943 32.404227,0.89791286 33.376452,0.58515823 88.943914,1.1352861 89.269207,1.4608864 89.599057,1.7910469 106.56,54.835983 106.56,55.53742 c 0,0.191626 -0.9383,1.001601 -2.08511,1.799944 l -2.08511,1.451534 15.86213,10.649435 c 14.69908,9.868591 15.85502,10.710742 15.76511,11.485552 -0.0643,0.554337 -0.31535,0.867392 -0.74487,0.928918 -0.41611,0.05961 -6.13925,-3.58418 -16,-10.186825 z M 121.12,60.01939 c -11.02698,-7.442965 -13.44,-9.20078 -13.44,-9.790667 0,-0.395434 0.24552,-0.873838 0.54559,-1.06312 0.45127,-0.284653 2.92933,1.2577 14.33389,8.921479 12.53535,8.423656 13.77976,9.338656 13.69441,10.069274 -0.21091,1.805308 -1.16057,1.294712 -15.13389,-8.136966 z"
         id="path13" />
      <path
         style="fill:#949494"
         d="m 134.62741,220.4 c 0.11628,-0.572 0.58631,-2.912 1.04451,-5.2 0.81353,-4.06234 0.85373,-4.1624 1.7123,-4.26238 0.81661,-0.0951 0.86377,-0.0381 0.66237,0.8 l -0.21684,0.90238 0.76512,-0.68001 c 1.76102,-1.56511 3.49602,-1.82695 4.88198,-0.73676 1.07604,0.84642 1.09997,2.10484 0.12886,6.77677 -0.70093,3.37212 -0.73252,3.44 -1.60038,3.44 -0.48693,0 -0.88533,-0.14273 -0.88533,-0.31718 0,-0.17445 0.37267,-2.05243 0.82816,-4.17328 0.89921,-4.18691 0.80822,-4.78954 -0.72323,-4.78954 -2.27267,0 -3.54438,1.85328 -4.44654,6.48 -0.53311,2.73405 -0.56736,2.8 -1.45418,2.8 -0.85468,0 -0.89575,-0.0613 -0.6968,-1.04 z M 34.801838,185.29787 34.72,158.75573 l -3.84,2.22211 c -4.163848,2.40952 -5.44,2.7056 -5.44,1.26216 0,-0.69461 0.621781,-1.15721 4.72,-3.51167 l 4.72,-2.71168 V 129.36833 102.72 h 4.32 c 4.106667,0 4.32,0.0316 4.32,0.64 0,0.58981 -0.213333,0.64 -2.72,0.64 h -2.72 v 25.12648 25.12647 l 1.68,-0.96571 c 0.924,-0.53114 5.510842,-3.15335 10.192982,-5.82712 l 8.512983,-4.86141 0.205847,-4.49936 c 0.113216,-2.47464 0.206374,-11.28572 0.207018,-19.58017 0.0013,-16.17897 -0.0019,-16.14797 1.585814,-15.64405 0.651128,0.20666 0.655363,0.33534 0.656419,19.94644 l 0.0011,19.73843 23.250193,13.6 c 12.787606,7.48 23.407134,13.55577 23.598944,13.50171 0.19181,-0.0541 4.98561,-2.71807 10.65289,-5.92 L 128.92831,157.92 128.94415,130.96 128.96,104 h -2.56 c -2.34667,0 -2.56,-0.0533 -2.56,-0.64 0,-0.60718 0.21333,-0.64 4.16,-0.64 h 4.16 v 26.56 c 0,14.608 0.0777,26.56 0.17255,26.56 0.0949,0 2.05204,-1.08 4.34921,-2.4 4.28177,-2.4604 5.26868,-2.78997 5.61921,-1.8765 0.35411,0.92279 -0.34956,1.50187 -5.21292,4.2899 l -4.76805,2.73341 -0.0818,26.6266 -0.0818,26.62659 h -4.15816 c -3.94483,0 -4.15816,-0.0328 -4.15816,-0.64 0,-0.58666 0.21333,-0.64 2.56,-0.64 h 2.56 V 185.6 c 0,-13.728 -0.0692,-24.96 -0.15374,-24.96 -0.0846,0 -4.86232,2.68256 -10.61724,5.96124 -8.03145,4.57566 -10.58034,5.88864 -10.96625,5.64891 C 104.18429,170.36264 60.046334,144.64 59.845994,144.64 c -0.148627,0 -5.106777,2.75231 -11.018112,6.11624 L 38.08,156.87248 V 183.71624 210.56 h 2.72 c 2.506667,0 2.72,0.0502 2.72,0.64 0,0.60839 -0.213333,0.64 -4.318162,0.64 H 34.883677 Z M 2.7733333,181.22667 C 2.656,181.10934 2.56,175.92534 2.56,169.70667 V 158.4 h 1.6 1.6 v 4.64 4.64 h 5.92 5.92 v -4.64 -4.64 h 1.6 1.6 v 11.52 11.52 H 19.2 17.6 V 176 170.56 H 11.68 5.76 v 5.44 5.44 H 4.3733333 c -0.7626666,0 -1.4826666,-0.096 -1.6,-0.21333 z m 144.6399967,-26.88 C 147.296,154.22934 147.2,149.04534 147.2,142.82667 V 131.52 h 1.6 1.6 v 4.64 4.64 h 5.92 5.92 v -4.64 -4.64 h 1.6 1.6 v 11.52 11.52 h -1.6 -1.6 v -5.44 -5.44 h -5.92 -5.92 v 5.44 5.44 h -1.38667 c -0.76266,0 -1.48266,-0.096 -1.6,-0.21333 z M 51.2,87.040002 v -11.52 h 1.598263 1.598263 l 5.921737,8.879096 5.921737,8.879096 v -8.879096 -8.879096 h 1.604042 1.604042 l -0.08404,11.44 -0.08404,11.44 -1.508017,0.09704 -1.508018,0.09704 -6.011982,-9.019913 -6.011983,-9.019913 -0.08498,9.002869 -0.08498,9.002869 H 52.635017 51.2 Z m 94.70418,8.223134 c -4.77763,-1.350783 -7.7611,-5.618288 -7.76235,-11.103134 -0.001,-4.833595 1.56184,-8.277661 4.7025,-10.362312 2.1736,-1.442754 4.11502,-1.917833 7.06391,-1.728585 4.30422,0.276228 7.63627,2.673142 9.18023,6.603827 0.97185,2.474166 1.03693,7.437771 0.12958,9.883549 -1.56603,4.221298 -5.06592,6.797389 -9.52088,7.007848 -1.29803,0.06132 -2.98445,-0.07259 -3.79299,-0.301193 z m 6.68458,-3.179546 c 3.88366,-1.813592 5.41379,-8.480399 3.05411,-13.306888 -2.99167,-6.119198 -12.12624,-5.23173 -13.92228,1.352618 -0.55244,2.025247 -0.46999,5.87536 0.16664,7.781369 0.69862,2.091637 3.14885,4.447191 4.93613,4.7454 0.64715,0.107979 1.32064,0.242904 1.49664,0.299834 0.66505,0.215122 2.93215,-0.248167 4.26876,-0.872333 z M 117.10053,71.523538 c -8.52529,-5.718056 -15.65558,-10.681596 -15.8451,-11.03009 -0.31799,-0.584766 -1.325802,0.07023 -13.069679,8.494212 -6.998813,5.02031 -12.948324,9.08385 -13.221134,9.030089 -0.272811,-0.05376 -0.653736,-0.348192 -0.846501,-0.654291 -0.281632,-0.447215 -0.194077,-0.705266 0.445701,-1.313616 0.54413,-0.5174 27.679123,-20.079773 29.343833,-21.154787 C 103.99532,54.83844 87.779885,3.8332179 87.624963,3.6782959 87.560381,3.6137142 75.414345,3.4639461 60.633771,3.345478 L 33.76,3.1300814 25.44,28.289696 c -4.576,13.837788 -8.362734,25.35366 -8.414964,25.590826 -0.05546,0.25184 5.876088,4.831566 14.259599,11.009778 7.89501,5.818212 14.537634,10.799155 14.761388,11.068762 0.57201,0.68923 0.312768,1.622957 -0.482273,1.737035 C 44.672184,77.824024 14.399752,55.564627 14.400558,54.781722 14.401131,54.224838 31.738823,1.9614788 32.136384,1.318211 32.377573,0.92795971 71.928053,0.86889879 83.36,1.2417185 L 89.44,1.44 97.992225,28.320001 c 4.703725,14.784 8.480345,27.096 8.392495,27.36 -0.0879,0.264 -1.03037,1.077374 -2.09448,1.807497 l -1.93475,1.327498 15.86226,10.639066 c 10.2578,6.880069 15.86225,10.826126 15.86225,11.168503 0,0.605852 -0.59885,1.297437 -1.12347,1.297437 -0.19551,0 -7.33071,-4.678409 -15.856,-10.396464 z m 4.35716,-11.344961 c -7.38227,-4.928445 -13.5385,-9.168431 -13.68051,-9.422191 -0.32862,-0.58722 -0.033,-1.371136 0.61011,-1.617925 0.32081,-0.123109 5.11883,2.903487 13.49525,8.512822 7.14861,4.787115 13.32136,8.929942 13.71724,9.206282 0.9125,0.636956 0.8607,2.060327 -0.0798,2.192129 -0.40208,0.05635 -5.62981,-3.241537 -14.06231,-8.871117 z"
         id="path12" />
      <path
         style="fill:#777777"
         d="m 134.62741,220.4 c 0.11628,-0.572 0.58631,-2.912 1.04451,-5.2 0.81353,-4.06234 0.85373,-4.1624 1.7123,-4.26238 0.81661,-0.0951 0.86377,-0.0381 0.66237,0.8 l -0.21684,0.90238 0.76512,-0.69868 c 1.60841,-1.46873 3.56232,-1.75613 4.88198,-0.71809 1.07231,0.84348 1.091,2.09807 0.0997,6.69677 -0.70071,3.25073 -0.75377,3.36343 -1.63144,3.46522 -0.80508,0.0934 -0.88781,0.0213 -0.73512,-0.64 1.73439,-7.512 1.73626,-8.58522 0.0149,-8.58522 -2.33584,0 -3.50245,1.70187 -4.44196,6.48 -0.53737,2.73298 -0.57229,2.8 -1.45876,2.8 -0.85468,0 -0.89575,-0.0613 -0.6968,-1.04 z M 34.801838,185.28289 34.72,158.72577 30.805168,160.96289 C 28.652011,162.1933 26.609715,163.2 26.266732,163.2 c -0.626337,0 -1.182908,-1.02369 -0.849698,-1.56284 0.09809,-0.15871 2.267384,-1.47084 4.820655,-2.91585 L 34.88,156.09403 V 129.40701 102.72 h 4.32 c 4.106667,0 4.32,0.0316 4.32,0.64 0,0.58981 -0.213333,0.64 -2.72,0.64 h -2.72 v 25.13126 c 0,23.84 0.02877,25.11524 0.56,24.81941 0.308,-0.17151 4.952,-2.81775 10.32,-5.88052 l 9.76,-5.56868 0.16,-19.55489 c 0.115476,-14.11327 0.262346,-19.65719 0.527788,-19.92252 0.202589,-0.2025 0.669724,-0.2718 1.04,-0.15428 L 61.12,103.08313 v 19.75005 19.75005 l 23.330843,13.66284 23.330847,13.66283 10.58109,-5.99445 10.5811,-5.99445 0.008,-26.96 0.008,-26.96 h -2.56 c -2.34667,0 -2.56,-0.0533 -2.56,-0.64 0,-0.60718 0.21333,-0.64 4.16,-0.64 h 4.16 v 26.56 c 0,14.608 0.0873,26.56 0.19395,26.56 0.10667,0 2.09353,-1.08 4.41525,-2.4 2.32172,-1.32 4.45674,-2.4 4.74449,-2.4 0.63992,0 1.06075,1.16424 0.61498,1.70136 -0.17832,0.21486 -2.49047,1.61195 -5.13813,3.10465 l -4.81392,2.71399 -0.008,26.64 -0.008,26.64 H 128 c -3.94667,0 -4.16,-0.0328 -4.16,-0.64 0,-0.58666 0.21333,-0.64 2.56,-0.64 h 2.56 V 185.6 c 0,-13.728 -0.0844,-24.96 -0.18755,-24.96 -0.10316,0 -4.86751,2.67044 -10.58746,5.93432 l -10.39991,5.93431 -1.33254,-0.77508 C 105.71964,171.30726 95.009609,165.03682 82.652465,157.79924 70.295321,150.56166 60.033302,144.64 59.84798,144.64 c -0.185323,0 -5.158932,2.74355 -11.052465,6.09676 L 38.08,156.83353 V 183.69677 210.56 h 2.72 c 2.506667,0 2.72,0.0502 2.72,0.64 0,0.60839 -0.213333,0.64 -4.318162,0.64 H 34.883677 Z M 2.88,169.92 V 158.4 h 1.44 1.44 v 4.64 4.64 h 5.92 5.92 v -4.64 -4.64 h 1.604042 1.604042 L 20.724042,169.84 20.64,181.28 H 19.2 17.76 l -0.08774,-5.36 -0.08774,-5.36 H 11.672263 5.76 v 5.44 5.44 H 4.32 2.88 Z m 144.64,-26.88 v -11.52 h 1.44 1.44 v 4.64 4.64 h 5.92 5.92 v -4.64 -4.64 h 1.60404 1.60404 l -0.084,11.44 -0.084,11.44 h -1.44 -1.44 l -0.0877,-5.36 -0.0877,-5.36 H 156.31226 150.4 v 5.44 5.44 h -1.44 -1.44 z M 51.413334,98.346669 C 51.296,98.229335 51.2,93.045335 51.2,86.826669 V 75.520002 h 1.598263 1.598263 l 5.921737,8.879096 5.921737,8.879096 v -8.879096 -8.879096 h 1.604042 1.604042 l -0.08404,11.44 -0.08404,11.44 -1.508017,0.09704 -1.508018,0.09704 -6.011982,-9.019913 -6.011983,-9.019913 -0.08498,9.002869 -0.08498,9.002869 H 52.84835 c -0.671926,0 -1.317683,-0.096 -1.435016,-0.213333 z M 146.4,95.395394 c -5.79977,-1.569274 -8.97382,-6.825337 -8.1386,-13.47709 0.54242,-4.319848 2.53201,-7.250186 6.0586,-8.923305 1.51317,-0.717891 2.18635,-0.834997 4.8,-0.834997 2.85554,0 3.16281,0.06658 5.06399,1.097373 3.22091,1.746318 4.84993,4.189217 5.56181,8.340547 0.95801,5.58671 -1.53646,10.966265 -6.04131,13.028657 -1.84934,0.846655 -5.56963,1.238224 -7.30449,0.768815 z m 6.09667,-3.221212 c 1.39262,-0.603764 2.94774,-2.364739 3.68623,-4.17418 0.28665,-0.702352 0.45576,-2.253616 0.45351,-4.16 -0.004,-3.64032 -0.80397,-5.808782 -2.75938,-7.482543 -3.581,-3.065203 -9.38819,-2.023424 -11.48274,2.059942 -1.31974,2.572858 -1.53384,7.238821 -0.45159,9.841304 1.71348,4.120358 6.22273,5.793271 10.55397,3.915477 z M 116.97286,71.384076 c -8.61693,-5.794049 -15.74972,-10.770055 -15.85066,-11.057791 -0.14361,-0.409421 -2.959182,1.466253 -12.950837,8.627577 -7.02203,5.032904 -12.977801,9.109201 -13.235046,9.058437 -0.257246,-0.05076 -0.625155,-0.342296 -0.817576,-0.64785 -0.27525,-0.437082 -0.214325,-0.685995 0.285701,-1.167239 C 74.753999,75.860782 81.52,70.946418 89.44,65.2764 97.36,59.606383 103.87743,54.934207 103.92318,54.893788 103.96894,54.85337 100.34856,43.313732 95.877895,29.25015 L 87.749422,3.6800001 75.474711,3.4855241 C 68.72362,3.3785624 56.56848,3.2705624 48.463289,3.2455241 L 33.726578,3.2000001 25.314285,28.682108 C 17.191329,53.28777 16.922251,54.183154 17.490996,54.714856 17.814948,55.017709 24.128,59.696299 31.52,65.111725 c 7.392,5.415425 13.798283,10.190244 14.236183,10.610708 0.644785,0.61911 0.728088,0.870311 0.43808,1.321025 -0.196957,0.306099 -0.627239,0.548065 -0.956183,0.537703 -0.328944,-0.01036 -7.414457,-5.04139 -15.745585,-11.18006 C 15.49891,56.09013 14.356157,55.177419 14.491581,54.419941 14.676094,53.387887 31.769984,1.9033564 32.108539,1.36 c 0.195948,-0.3144831 5.05124,-0.3910809 22.710347,-0.3582815 12.353613,0.022945 25.18956,0.1309452 28.524326,0.24 L 89.406424,1.44 97.969575,28.320001 c 4.709735,14.784 8.510095,27.038407 8.445245,27.232015 -0.0649,0.193609 -0.99051,0.985609 -2.05704,1.760001 -1.06652,0.774391 -1.9311,1.479984 -1.9213,1.567984 0.01,0.088 6.92739,4.768 15.37241,10.4 8.44503,5.632001 15.59075,10.50043 15.8794,10.818732 0.57431,0.633327 0.24311,1.590052 -0.60259,1.740623 -0.24513,0.04364 -7.49591,-4.661231 -16.11284,-10.45528 z m 4.4009,-11.29192 c -7.42523,-4.978685 -13.5754,-9.232155 -13.66704,-9.452155 -0.23018,-0.552551 0.0882,-1.274243 0.65882,-1.493195 0.29219,-0.112123 5.56625,3.230018 13.65526,8.65325 7.24856,4.859761 13.43754,9.062887 13.75329,9.340281 0.7368,0.647302 0.583,1.791414 -0.25701,1.91182 -0.40864,0.05857 -5.56242,-3.206422 -14.14332,-8.960001 z"
         id="path11" />
      <path
         style="fill:#555555"
         d="m 135.3992,216.88 c 1.27746,-6.38807 1.14793,-6 2.00252,-6 0.63923,0 0.72555,0.12544 0.58659,0.85238 l -0.16294,0.85238 1.15533,-0.88122 c 0.63544,-0.48467 1.72579,-0.95773 2.423,-1.05125 1.06353,-0.14265 1.40039,-0.0373 2.09197,0.6543 1.01767,1.01766 1.04427,1.94331 0.1721,5.9884 -0.90665,4.20504 -0.88052,4.14501 -1.80402,4.14501 -0.68152,0 -0.78494,-0.11654 -0.63897,-0.72 1.15077,-4.75742 1.57003,-7.60428 1.18772,-8.06493 -0.96831,-1.16674 -3.6766,-0.10852 -4.57385,1.78716 -0.28056,0.59277 -0.76496,2.40977 -1.07643,4.03777 -0.54579,2.85275 -0.59726,2.96 -1.42061,2.96 h -0.85429 z M 34.801838,185.27555 34.72,158.71109 30.750562,160.95555 C 28.567371,162.19 26.605003,163.2 26.389744,163.2 c -0.577121,0 -1.147413,-0.80949 -0.943908,-1.33982 0.09728,-0.25351 2.259768,-1.64984 4.805521,-3.10295 L 34.88,156.11521 V 129.41761 102.72 h 4.32 c 4.106667,0 4.32,0.0316 4.32,0.64 0,0.58981 -0.213333,0.64 -2.72,0.64 h -2.72 v 25.14048 25.14047 l 1.318832,-0.74047 c 0.725358,-0.40726 5.369358,-3.0476 10.32,-5.86742 L 58.72,142.54611 58.886156,122.87306 c 0.09139,-10.82018 0.199385,-19.69365 0.24,-19.71882 0.548767,-0.34009 1.200975,-0.3739 1.554404,-0.0806 0.363833,0.30196 0.43944,3.73633 0.43944,19.96104 v 19.59633 l 23.33409,13.66068 23.33409,13.66068 10.5847,-6.01619 10.58469,-6.0162 0.001,-26.96 0.001,-26.96 h -2.56 c -2.34667,0 -2.56,-0.0533 -2.56,-0.64 0,-0.60718 0.21333,-0.64 4.16,-0.64 h 4.16 v 26.70067 26.70066 l 4.524,-2.59127 c 3.52238,-2.01755 4.63825,-2.51921 5.04,-2.26579 1.28885,0.81299 0.59604,1.48995 -4.51911,4.41573 l -5.03511,2.88 -0.005,26.64 -0.005,26.64 H 128 c -3.94667,0 -4.16,-0.0328 -4.16,-0.64 0,-0.58666 0.21333,-0.64 2.56,-0.64 h 2.56 v -24.99423 c 0,-23.13283 -0.0395,-24.97909 -0.52996,-24.79087 -0.29148,0.11185 -5.05703,2.7919 -10.59011,5.95568 L 107.77977,172.4829 84.018921,158.56145 C 70.950453,150.90466 60.056005,144.64416 59.809036,144.64923 59.562066,144.65431 54.608,147.36761 48.8,150.6788 l -10.56,6.02035 -0.08182,26.93043 -0.08182,26.93042 h 2.721818 c 2.508484,0 2.721817,0.0502 2.721817,0.64 0,0.60839 -0.213333,0.64 -4.318162,0.64 H 34.883677 Z M 2.88,169.76 V 158.4 h 1.44 1.44 v 4.8 4.8 h 5.92 5.92 v -4.8 -4.8 h 1.6 1.6 v 11.36 11.36 h -1.6 -1.6 v -5.28 -5.28 H 11.68 5.76 v 5.28 5.28 H 4.32 2.88 Z m 144.64,-26.88 v -11.36 h 1.44 1.44 v 4.8 4.8 h 5.92 5.92 v -4.8 -4.8 h 1.6 1.6 v 11.36 11.36 h -1.6 -1.6 v -5.28 -5.28 h -5.92 -5.92 v 5.28 5.28 h -1.44 -1.44 z M 51.2,86.880002 v -11.36 h 1.544783 1.544783 l 6.055217,8.980227 6.055217,8.980226 0.08498,-8.980226 0.08498,-8.980227 H 68.004984 69.44 v 11.36 11.36 l -1.68,-0.0088 -1.68,-0.0088 -5.92,-8.871201 -5.92,-8.8712 -0.08506,8.88 -0.08506,8.88 H 52.634938 51.2 Z m 95.43121,8.460124 c -1.86532,-0.367604 -4.38972,-1.791709 -5.58089,-3.148371 -1.81621,-2.068553 -2.62995,-4.327479 -2.75856,-7.657732 -0.15718,-4.070329 0.6901,-6.773635 2.87092,-9.1598 2.20964,-2.417696 4.11912,-3.202934 7.80405,-3.209263 2.62173,-0.0045 3.08274,0.09154 5.02196,1.046211 4.32012,2.126792 6.65933,7.289116 5.76058,12.712875 -0.8275,4.993795 -3.49408,8.121456 -7.8965,9.261893 -2.07382,0.537216 -3.12107,0.56814 -5.22156,0.154187 z m 5.921,-3.135338 c 3.58935,-1.83115 5.20252,-7.062115 3.73484,-12.110787 -1.3003,-4.472845 -6.17717,-6.763264 -10.36705,-4.868867 -3.33524,1.507985 -4.63559,3.968001 -4.63835,8.774868 -0.001,2.502245 0.11481,3.117152 0.88625,4.688047 1.92856,3.927153 6.52716,5.48451 10.38431,3.516739 z M 116.96,71.355053 c -8.624,-5.799969 -15.72656,-10.76357 -15.78346,-11.030225 -0.0569,-0.266655 -0.15934,-0.484827 -0.22762,-0.484827 -0.0683,0 -5.776041,4.05341 -12.683907,9.007577 -6.907866,4.954167 -12.791498,9.068178 -13.074738,9.142247 -0.624685,0.163359 -1.405758,-0.695197 -1.176345,-1.293039 0.09104,-0.237251 6.839152,-5.215961 14.995801,-11.0638 8.156648,-5.847838 14.861929,-10.731558 14.900609,-10.852709 0.0387,-0.121152 -3.57108,-11.668276 -8.021708,-25.660276 L 87.796575,3.6800001 82.698288,3.4833364 c -2.804058,-0.108165 -14.962971,-0.216165 -27.019806,-0.24 L 33.756963,3.2000001 25.328701,28.491614 c -4.635543,13.910388 -8.357132,25.476972 -8.270197,25.703521 0.08693,0.226548 6.663198,5.205853 14.613919,11.065122 7.950721,5.859268 14.536685,10.86385 14.635475,11.121293 0.278673,0.72621 -0.716686,1.54906 -1.44362,1.193421 -1.298329,-0.635182 -30.46382,-22.342501 -30.456659,-22.66831 0.0042,-0.190663 4.000191,-12.37066 8.88,-27.06666 L 32.16,1.12 44,1.044491 c 6.512,-0.04153 19.385192,0.03047 28.607093,0.16 L 89.374186,1.44 97.833107,28.000001 c 4.652403,14.608 8.533363,26.801882 8.624353,27.097515 0.11789,0.38306 -0.41831,0.965973 -1.86602,2.028573 -2.19064,1.607911 -2.44266,1.908712 -1.80496,2.154341 0.7099,0.273439 30.13844,20.090383 30.80908,20.746585 0.49977,0.48902 0.56081,0.740571 0.2857,1.177434 -0.19242,0.305554 -0.55042,0.587154 -0.79556,0.625777 -0.24513,0.03862 -7.5017,-4.675204 -16.1257,-10.475173 z m 4.8,-11.044977 c -7.216,-4.843583 -13.36129,-9.008233 -13.65619,-9.254778 -0.73312,-0.612895 -0.40139,-1.775297 0.50663,-1.775297 0.98461,0 27.51581,17.919744 27.65926,18.681656 0.10962,0.582265 -0.4132,1.145185 -1.0697,1.151739 -0.176,0.0018 -6.224,-3.959737 -13.44,-8.80332 z"
         id="path10" />
      <path
         style="fill:#383838"
         d="m 134.72,221.00993 c 0,-0.23654 0.432,-2.56301 0.96,-5.16993 0.528,-2.60691 0.96,-4.78938 0.96,-4.84992 0,-0.0605 0.288,-0.11008 0.64,-0.11008 0.46725,0 0.64,0.21334 0.64,0.79036 v 0.79036 l 1.13063,-0.76727 c 1.51097,-1.02537 2.80382,-1.27647 3.89053,-0.75562 1.47954,0.70912 1.61043,1.74125 0.7557,5.95903 -0.95113,4.69346 -0.89007,4.54314 -1.84533,4.54314 -0.50314,0 -0.74679,-0.14842 -0.65661,-0.4 0.0789,-0.22 0.48344,-2.07809 0.89906,-4.1291 0.85495,-4.21905 0.72636,-4.7509 -1.14861,-4.7509 -2.25434,0 -3.52974,2.01682 -4.34549,6.87163 -0.36702,2.18422 -0.47333,2.40837 -1.14228,2.40837 -0.40568,0 -0.7376,-0.19353 -0.7376,-0.43007 z M 34.88,185.25334 c 0,-14.62267 -0.112446,-26.53867 -0.249881,-26.48 -0.137434,0.0587 -2.029851,1.10105 -4.205371,2.31641 -2.976502,1.66283 -4.078147,2.13237 -4.451073,1.89714 -1.333701,-0.84128 -0.940733,-1.22703 4.266325,-4.18797 l 4.48,-2.5475 0.08183,-26.76571 0.08183,-26.76571 h 4.318172 c 4.104839,0 4.318172,0.0316 4.318172,0.64 0,0.58981 -0.213333,0.64 -2.72,0.64 h -2.72 v 25.13997 25.13998 l 1.52,-0.83442 c 0.836,-0.45892 5.48,-3.09591 10.32,-5.85997 l 8.8,-5.02556 0.16,-19.6118 c 0.138416,-16.96613 0.224753,-19.65272 0.64,-19.9151 1.673333,-1.05733 1.681157,-0.95681 1.555804,19.98679 -0.07563,12.63681 -0.0048,19.45177 0.204196,19.64709 0.286216,0.26748 44.071496,25.95529 45.845866,26.8967 0.65706,0.34862 1.72625,-0.18318 11.28,-5.61043 L 128.96,157.9577 V 130.97885 104 h -2.56 c -2.34667,0 -2.56,-0.0533 -2.56,-0.64 0,-0.60718 0.21333,-0.64 4.16,-0.64 h 4.16 v 26.69803 26.69803 l 4.54519,-2.57527 c 3.43061,-1.94376 4.66652,-2.49874 5.04,-2.26316 1.26844,0.80012 0.55602,1.48759 -4.54519,4.38601 l -5.04,2.86364 V 185.18364 211.84 H 128 c -3.94667,0 -4.16,-0.0328 -4.16,-0.64 0,-0.58666 0.21333,-0.64 2.56,-0.64 h 2.56 v -25.09549 -25.09549 l -10.46406,5.94882 c -5.75524,3.27186 -10.61524,5.94271 -10.8,5.93522 -0.18477,-0.007 -11.024238,-6.28477 -24.087715,-13.94953 L 59.85645,144.36762 49.048225,150.51401 38.24,156.6604 38.15818,183.6102 38.07636,210.56 h 2.721818 c 2.508484,0 2.721817,0.0502 2.721817,0.64 0,0.6084 -0.213333,0.64 -4.32,0.64 H 34.88 Z M 2.88,169.76 V 158.4 h 1.44 1.44 v 4.8 4.8 h 5.92 5.92 v -4.8 -4.8 h 1.6 1.6 v 11.36 11.36 h -1.6 -1.6 v -5.28 -5.28 H 11.68 5.76 v 5.28 5.28 H 4.32 2.88 Z m 144.64,-26.88 v -11.36 h 1.44 1.44 v 4.8 4.8 h 5.92 5.92 v -4.8 -4.8 h 1.6 1.6 v 11.36 11.36 h -1.6 -1.6 v -5.28 -5.28 h -5.92 -5.92 v 5.28 5.28 h -1.44 -1.44 z M 51.2,86.880002 v -11.36 h 1.548318 1.548318 l 6.051682,9.04 6.051682,9.04 0.08498,-9.04 0.08498,-9.04 H 67.844984 69.12 v 11.36 11.36 l -1.52,-0.0088 -1.52,-0.0088 -5.92,-8.871201 -5.92,-8.8712 -0.08506,8.88 -0.08506,8.88 H 52.634938 51.2 Z m 95.43121,8.47871 c -1.88825,-0.397762 -4.40191,-1.824179 -5.58089,-3.166957 -0.54208,-0.617402 -1.36017,-1.92112 -1.81796,-2.897151 C 138.48701,87.705508 138.4,87.135318 138.4,83.840002 c 0,-3.38118 0.075,-3.842337 0.92334,-5.679193 0.93586,-2.026316 2.83603,-4.097605 4.56007,-4.970725 2.74197,-1.388646 6.75933,-1.471752 9.71341,-0.200938 2.1467,0.923483 4.51183,3.488847 5.43852,5.898939 1.02508,2.665983 1.04018,7.199598 0.0327,9.816439 -1.86231,4.837175 -7.28622,7.739174 -12.43683,6.654188 z m 5.921,-3.153924 c 2.78551,-1.421062 4.24779,-4.35604 4.24779,-8.525862 0,-2.830399 -0.64739,-4.798507 -2.15951,-6.565083 -1.974,-2.306179 -4.95092,-3.10827 -8.19399,-2.207765 -1.69007,0.469281 -3.885,2.573108 -4.58967,4.39917 -0.73088,1.893954 -0.7997,7.032548 -0.11645,8.694754 0.96037,2.336395 2.80307,4.090424 5.06411,4.820416 1.35514,0.437514 4.30211,0.121868 5.74772,-0.61563 z m -35.4977,-20.852742 c -8.67598,-5.816216 -15.82107,-10.785787 -15.87797,-11.043492 -0.0569,-0.257704 -0.17597,-0.468553 -0.26458,-0.468553 -0.0886,0 -5.802056,4.052578 -12.696538,9.005729 -6.894482,4.95315 -12.775092,9.070721 -13.068023,9.150157 -0.315035,0.08543 -0.677509,-0.126333 -0.887334,-0.518394 -0.284026,-0.530707 -0.241237,-0.775907 0.214668,-1.230158 0.31317,-0.312033 7.08447,-5.237527 15.047334,-10.945541 7.962863,-5.708015 14.467223,-10.532015 14.454143,-10.720001 -0.0131,-0.187985 -3.65084,-11.717792 -8.083889,-25.621792 L 87.832226,3.6800001 82.716113,3.4833364 c -2.813862,-0.108165 -14.997454,-0.216165 -27.07465,-0.24 L 33.682926,3.2000001 25.321463,28.446245 c -4.598805,13.885434 -8.355044,25.441435 -8.347198,25.68 0.0078,0.238566 6.573116,5.244562 14.58949,11.124435 8.016374,5.879874 14.653647,10.89504 14.749494,11.144814 0.221183,0.576394 -0.685742,1.507361 -1.248436,1.28153 C 44.160877,77.314239 14.555365,55.316559 14.476471,54.949075 14.43053,54.735084 18.400794,42.536001 23.299279,27.840001 L 32.205615,1.12 36.982807,1.0160272 c 10.434689,-0.22710489 52.344695,0.3343619 52.466088,0.7028862 0.06542,0.1985977 3.873238,12.2012816 8.461822,26.6726306 4.588583,14.471348 8.424133,26.523278 8.523433,26.782066 0.12161,0.316909 -0.50744,0.965454 -1.9268,1.986518 -1.15904,0.833797 -2.10079,1.597867 -2.09278,1.697934 0.008,0.100067 6.58179,4.573939 14.6084,9.941939 8.02662,5.368001 15.14806,10.156904 15.82544,10.642008 1.36361,0.976556 1.55178,1.644112 0.6061,2.150226 -0.53513,0.286395 -2.90411,-1.192801 -16.4,-10.240189 z M 121.44,60.049334 C 109.88735,52.277197 108,50.898022 108,50.228115 c 0,-0.479852 0.20958,-0.81971 0.54536,-0.884377 0.6115,-0.117762 27.40565,17.676262 27.67542,18.379271 0.195,0.508152 -0.44007,1.404139 -0.97996,1.382593 -0.19845,-0.0079 -6.40882,-4.08324 -13.80082,-9.056268 z"
         id="path9" />
      <path
         style="fill:#000000"
         d="m 134.72,221.03219 c 0,-0.24879 0.432,-2.58527 0.96,-5.19219 0.528,-2.60691 0.96,-4.78938 0.96,-4.84992 0,-0.0605 0.30434,-0.11008 0.67632,-0.11008 0.56472,0 0.65378,0.15359 0.53972,0.93074 l -0.13661,0.93074 1.00877,-0.76943 c 1.64813,-1.25708 2.7811,-1.52539 4.10517,-0.97215 1.79663,0.75068 1.82641,1.5265 0.31782,8.2801 -0.43993,1.96949 -0.55381,2.16 -1.29108,2.16 -0.58227,0 -0.75774,-0.1325 -0.62691,-0.47341 0.46655,-1.21583 1.57417,-7.79734 1.39209,-8.27185 -0.30218,-0.78745 -2.47929,-0.70754 -3.54416,0.13008 -1.22141,0.96077 -1.53511,1.68125 -2.28813,5.25518 -0.58891,2.79505 -0.76274,3.21295 -1.37362,3.30226 -0.43755,0.064 -0.69938,-0.0671 -0.69938,-0.35007 z M 34.88,185.28 c 0,-14.608 -0.09087,-26.56 -0.201935,-26.56 -0.111064,0 -1.98789,1.02156 -4.170724,2.27012 -4.025587,2.30261 -5.045487,2.54904 -4.849785,1.17181 0.0785,-0.55245 1.149446,-1.3237 4.582444,-3.30006 l 4.48,-2.57913 0.16,-26.70137 0.16,-26.70137 h 4.155618 c 3.703313,0 4.167355,0.061 4.263463,0.56 0.09594,0.49818 -0.195044,0.56 -2.635617,0.56 H 38.08 v 25.14667 c 0,14.30451 0.12115,25.10068 0.280988,25.04 0.154543,-0.0587 4.834279,-2.69867 10.399414,-5.86667 l 10.118427,-5.76 0.04395,-12 c 0.02417,-6.6 0.132437,-15.456 0.240586,-19.68 L 59.36,103.2 h 0.8 0.8 l -0.112874,19.57371 -0.112874,19.5737 1.232874,0.80503 c 0.678081,0.44276 11.226866,6.65356 23.441744,13.80178 14.288215,8.36154 22.39089,12.9269 22.71923,12.80091 0.28069,-0.10772 5.0827,-2.79425 10.67113,-5.97009 L 128.96,158.0108 V 131.0054 104 h -2.58346 c -2.2882,0 -2.57114,-0.064 -2.47562,-0.56 0.0958,-0.49767 0.55253,-0.56 4.10346,-0.56 H 132 l 0.16,26.61177 0.16,26.61177 4.46958,-2.53177 c 2.45827,-1.39247 4.5772,-2.53177 4.70874,-2.53177 0.13154,0 0.38794,0.278 0.56979,0.61778 0.46393,0.86686 0.15229,1.11458 -5.24477,4.16901 L 132.16,158.46598 V 185.15299 211.84 h -4.18346 c -3.81166,0 -4.17396,-0.0498 -4.07653,-0.56 0.0889,-0.4658 0.52349,-0.57572 2.58346,-0.65346 l 2.47653,-0.0935 v -25.12003 -25.12003 l -1.36,0.78563 c -9.72179,5.61591 -19.5382,11.08135 -19.90308,11.08135 -0.25298,0 -1.36827,-0.56064 -2.47844,-1.24587 -1.11016,-0.68522 -11.771801,-6.95101 -23.692527,-13.92396 l -21.674047,-12.67809 -10.877744,6.16396 -10.877745,6.16396 -0.0082,26.94706 -0.0082,26.94706 2.636461,0.0929 c 2.212638,0.078 2.653662,0.18297 2.743464,0.65294 0.09766,0.51109 -0.272399,0.56 -4.236461,0.56 H 34.88 Z m -32,-15.52 V 158.4 h 1.44 1.44 v 4.8 4.8 h 6.08 6.08 v -4.8 -4.8 h 1.28 1.28 v 11.36 11.36 H 19.2 17.92 v -5.28 -5.28 H 11.84 5.76 v 5.28 5.28 H 4.32 2.88 Z m 144.64,-26.88 v -11.36 h 1.44 1.44 v 4.8 4.8 h 6.08 6.08 v -4.8 -4.8 h 1.28 1.28 v 11.36 11.36 h -1.28 -1.28 v -5.28 -5.28 h -6.08 -6.08 v 5.28 5.28 h -1.44 -1.44 z m -96,-55.999998 v -11.36 l 1.36,0.01189 1.36,0.01189 6.08,9.028112 6.08,9.028113 0.08498,-9.04 0.08498,-9.04 H 67.844984 69.12 v 11.36 11.36 H 67.680622 66.241244 L 60.240622,89.237133 54.24,80.234264 54.15502,89.237133 54.07004,98.240002 H 52.795017 51.52 Z m 93.28,7.817725 c -3.97,-1.560524 -6.56505,-5.837817 -6.5562,-10.806235 0.0125,-7.016784 4.17752,-11.640053 10.54094,-11.700702 3.47406,-0.03311 5.47878,0.741205 7.71642,2.980451 2.31912,2.320787 3.17884,4.666636 3.17884,8.673891 0,5.524263 -2.27251,9.241641 -6.652,10.881367 -2.26867,0.849412 -6.02732,0.836269 -8.228,-0.02877 z m 6.66265,-1.920805 c 1.50993,-0.419284 3.55399,-2.223832 4.48005,-3.955092 0.59391,-1.110329 0.69641,-1.81962 0.69682,-4.821828 4.4e-4,-3.201722 -0.0792,-3.67914 -0.88035,-5.28 -1.25364,-2.504938 -3.22157,-3.920276 -5.70015,-4.09956 -2.54553,-0.184127 -3.78071,0.0949 -5.52003,1.24698 -2.09771,1.38947 -3.17353,3.686878 -3.3562,7.167179 -0.24603,4.687547 1.27197,7.795039 4.55453,9.323555 1.7633,0.821073 3.75256,0.966573 5.72533,0.418766 z M 116.96,71.246031 c -8.448,-5.679444 -15.49392,-10.622095 -15.65759,-10.983668 -0.27371,-0.604652 -1.2918,0.05587 -12.686924,8.231155 -6.814132,4.888709 -12.663975,9.035546 -12.999651,9.215194 -0.791268,0.423474 -1.461118,-0.0021 -1.323832,-0.84107 C 74.366047,76.415151 79.052942,72.872074 89.2,65.597883 97.34,59.762505 104,54.84726 104,54.675115 104,54.206126 87.945642,3.7143365 87.717111,3.4645865 87.6087,3.346109 75.424,3.2059946 60.64,3.1532212 L 33.76,3.0572696 27.912118,20.488635 c -3.216336,9.587251 -7.049991,21.132349 -8.519234,25.655772 l -2.671352,8.224406 14.665184,10.788197 c 8.06585,5.933509 14.751343,11.012727 14.85665,11.287153 0.257896,0.672065 -0.730403,1.377405 -1.415919,1.010528 C 44.539168,77.300409 37.835344,72.409149 29.930059,66.585225 22.024775,60.761301 15.279423,55.81209 14.940387,55.586979 14.34991,55.194917 14.700172,54.039792 23.260314,28.148843 L 32.19667,1.12 60.498335,1.2379426 c 20.495298,0.085411 28.400198,0.2178079 28.658892,0.48 0.385548,0.3907605 17.091953,52.8440504 17.086233,53.6458134 -0.002,0.266065 -0.97546,1.189481 -2.16346,2.052035 -1.34246,0.9747 -1.99039,1.625308 -1.71188,1.718951 0.53357,0.179405 30.72771,20.41499 31.32364,20.992559 0.57325,0.555595 0.14066,1.475547 -0.686,1.458846 -0.37717,-0.0076 -7.59776,-4.660672 -16.04576,-10.340116 z m 4.57238,-11.20856 C 110.10886,52.370342 108,50.83758 108,50.201853 c 0,-0.454038 0.21578,-0.794642 0.54339,-0.857734 0.65815,-0.126748 27.77661,18.042623 27.77661,18.610331 0,0.439481 -0.63018,1.165551 -1.01162,1.165551 -0.13399,0 -6.33319,-4.087138 -13.776,-9.08253 z"
         id="path8" />
    </g>
  </g>
</svg>
