<?xml version="1.0" encoding="UTF-8" standalone="no"?>
<!-- Created with Inkscape (http://www.inkscape.org/) -->

<svg
   version="1.1"
   id="svg1"
   width="538"
   height="244"
   viewBox="0 0 538 244"
   sodipodi:docname="PVPA.svg"
   inkscape:version="1.4.2 (f4327f4, 2025-05-13)"
   xmlns:inkscape="http://www.inkscape.org/namespaces/inkscape"
   xmlns:sodipodi="http://sodipodi.sourceforge.net/DTD/sodipodi-0.dtd"
   xmlns="http://www.w3.org/2000/svg"
   xmlns:svg="http://www.w3.org/2000/svg">
  <defs
     id="defs1">
    <filter
       inkscape:label="Sharpen"
       inkscape:menu="Image Effects"
       inkscape:menu-tooltip="Sharpen edges and boundaries within the object, force=0.15"
       style="color-interpolation-filters:sRGB;"
       id="filter14"
       x="0"
       y="0"
       width="1"
       height="1">
      <feConvolveMatrix
         targetY="1"
         targetX="1"
         in="SourceGraphic"
         divisor="1"
         kernelMatrix="0 -0.3 0 -0.3 2.2 -0.3 0 -0.3 0"
         order="3 3"
         result="result1"
         id="feConvolveMatrix14" />
      <feBlend
         in2="SourceGraphic"
         mode="normal"
         result="fbSourceGraphic"
         id="feBlend14" />
      <feColorMatrix
         result="fbSourceGraphicAlpha"
         in="fbSourceGraphic"
         values="0 0 0 -1 0 0 0 0 -1 0 0 0 0 -1 0 0 0 0 1 0"
         id="feColorMatrix14" />
      <feConvolveMatrix
         id="feConvolveMatrix15"
         order="3 3"
         kernelMatrix="0 -0.15 0 -0.15 1.6 -0.15 0 -0.15 0"
         divisor="1"
         in="fbSourceGraphic"
         targetX="1"
         targetY="1" />
    </filter>
  </defs>
  <sodipodi:namedview
     id="namedview1"
     pagecolor="#ffffff"
     bordercolor="#000000"
     borderopacity="0.25"
     inkscape:showpageshadow="2"
     inkscape:pageopacity="0.0"
     inkscape:pagecheckerboard="0"
     inkscape:deskcolor="#d1d1d1"
     inkscape:zoom="1.1953785"
     inkscape:cx="182.7873"
     inkscape:cy="181.95074"
     inkscape:window-width="1920"
     inkscape:window-height="1111"
     inkscape:window-x="-9"
     inkscape:window-y="-9"
     inkscape:window-maximized="1"
     inkscape:current-layer="g1" />
  <g
     inkscape:groupmode="layer"
     inkscape:label="Image"
     id="g1">
    <g
       id="g21">
      <path
         id="path27"
         style="fill-opacity:1.0;fill:#b9b9b9"
         d="m 358.10547,9.0742188 c -5.05963,-0.2535027 -10.23269,2.3356212 -12.66797,7.0449222 -3.71898,7.19172 0.12914,18.827015 6.87109,20.777343 4.5881,1.327258 6.3375,1.278101 10.07422,-0.283203 9.69986,-4.052858 11.07868,-19.351786 2.28516,-25.363281 -1.98567,-1.3574596 -4.26267,-2.0605529 -6.5625,-2.1757812 z m -1.02735,3.3378902 c 2.38027,-0.08017 4.77205,0.764037 6.4668,2.636719 3.79309,4.191316 3.45095,13.914926 -0.60547,17.201172 C 357.09281,36.986558 348,31.982104 348,24.027344 c 0,-2.269621 0.65408,-5.39033 1.45312,-6.935547 1.5225,-2.944169 4.56466,-4.576606 7.625,-4.679688 z M 481,14 c -4,0 -7,0.428571 -7,1 0,0.55 2.43685,1 5.41602,1 2.97916,0 5.56666,0.449168 5.75,0.998047 C 485.34935,17.546926 485.275,47.993464 485,84.65625 l -0.5,66.6582 -6.5,2.24024 c -3.575,1.23125 -21.35,7.49657 -39.5,13.92383 C 386.29406,185.96565 383.28286,187 381.66797,187 c -0.8403,0 -4.37179,-1.3117 -7.84766,-2.91602 -3.47587,-1.60433 -16.67031,-7.72447 -29.32031,-13.5996 -12.65,-5.87516 -25.1375,-11.59795 -27.75,-12.7168 L 312,155.73242 V 139.2832 c 0,-12.71457 -0.28385,-16.35576 -1.25,-16.03515 -0.90111,0.29902 -1.38956,4.84691 -1.75,16.29297 l -0.5,15.87695 -7,2.12305 c -3.85,1.16775 -8.2375,2.4329 -9.75,2.81054 l -2.75,0.6875 V 91.519531 22 h 5.5 c 4.22222,0 5.5,-0.348485 5.5,-1.5 0,-1.190476 -1.44444,-1.5 -7,-1.5 h -7 v 71.431641 c 0,67.167699 -0.10448,71.463709 -1.75,71.949219 C 268.40671,167.05537 240.00782,175 239.14062,175 238.2948,175 238,154.40508 238,95.5 V 16 h -7 c -5.55556,0 -7,0.309524 -7,1.5 0,1.151515 1.27778,1.5 5.5,1.5 h 5.5 l -0.0117,78.75 -0.0117,78.75 -29.36523,8.27539 -29.36524,8.27734 L 148.12305,174.38672 120,155.7207 v -16.44336 c 0,-12.71033 -0.28383,-16.35054 -1.25,-16.02929 -0.9148,0.30416 -1.32301,4.70155 -1.52344,16.39648 l -0.27344,15.98047 -6.72656,1.67383 C 106.52719,158.2195 91.8,162.12715 77.5,165.98242 63.2,169.83769 51.1625,172.99409 50.75,172.99609 50.3375,172.99832 50,140.375 50,100.5 V 28 h 5.5 C 59.722222,28 61,27.651515 61,26.5 61,25.309654 59.555756,25 54.005859,25 H 47.013672 L 46.755859,99.703125 46.5,174.40625 27.75,179.43555 C 15.913797,182.60959 9,184.93169 9,185.73242 9,186.43007 9.1939968,187 9.4316406,187 9.6692844,187 16.756784,185.14586 25.181641,182.87891 33.606497,180.61196 41.9625,178.4095 43.75,177.98438 L 47,177.21094 V 203.60547 230 h 7 c 5.555556,0 7,-0.30952 7,-1.5 0,-1.15152 -1.277778,-1.5 -5.5,-1.5 H 50 v -25.3418 -25.34179 l 25.25,-6.76953 c 13.8875,-3.72289 29.18138,-7.87327 33.98633,-9.22461 4.80496,-1.35135 9.30496,-2.12093 10,-1.71094 0.69505,0.40999 13.72553,9.04836 28.95703,19.19726 l 27.69336,18.45313 28.58203,-8.13086 C 220.18837,183.65909 233.48901,180 234.02539,180 234.62569,180 235,187.49684 235,199.5 V 219 h -5.5 c -3.025,0 -5.5,0.45 -5.5,1 0,0.57143 3,1 7,1 h 7 l 0.0215,-21.25 0.0215,-21.25 22.72851,-6.4082 c 12.50065,-3.5245 23.29102,-6.61059 23.97852,-6.85742 0.98196,-0.35257 1.25,5.89991 1.25,29.1582 V 224 h 7 c 5.55556,0 7,-0.30952 7,-1.5 0,-1.15152 -1.27778,-1.5 -5.5,-1.5 H 289 v -28.42969 -28.42773 l 5.5,-1.57227 c 3.025,-0.86403 7.92802,-2.26373 10.89648,-3.11133 l 5.39844,-1.54101 35.22461,16.24805 35.22461,16.24609 16.12891,-5.62109 c 8.87013,-3.09225 24.00195,-8.39909 33.62695,-11.79297 34.51029,-12.16869 54.32966,-18.99825 54.41406,-18.75 0.0472,0.13887 -0.0515,14.08945 -0.21875,31.00195 L 484.89258,216 h -5.5293 c -3.97704,0 -5.41427,0.35091 -5.11719,1.25 0.26151,0.79141 2.86081,1.35771 7.08399,1.54492 L 488,219.0918 v -32.83008 -32.83008 l 2.75,-1.55664 c 1.5125,-0.8564 9.6125,-3.96532 18,-6.9082 8.3875,-2.94288 15.25,-5.70046 15.25,-6.12696 0,-0.4265 -6.4125,1.50412 -14.25,4.29102 C 494.95214,148.39275 490.04158,150 488.75586,150 488.33973,150 488,119.4 488,82 V 14 Z M 118.2168,18.234375 90.703125,18.5 82.287109,44.359375 c -4.629269,14.222253 -8.205436,26.411971 -7.945312,27.089844 0.260124,0.677872 6.239469,5.345568 13.287109,10.371093 8.203212,5.849542 13.159674,8.791502 13.775394,8.175782 0.52898,-0.528984 0.76763,-1.117473 0.52929,-1.306641 C 101.69526,88.500285 95.9875,84.342054 89.25,79.449219 82.5125,74.556384 77.003713,70.317008 77.007812,70.027344 77.011865,69.73768 80.576814,58.7 84.929688,45.5 l 7.914062,-24 25.87109,-0.265625 25.8711,-0.267578 7.83203,23.970703 c 4.30725,13.183823 7.59478,24.585054 7.30664,25.335938 -0.28814,0.750883 -5.97461,5.305341 -12.63672,10.121093 -6.66211,4.815752 -11.83741,9.204053 -11.5,9.75 0.90232,1.459989 2.31749,0.679711 12.74219,-7.019531 l 9.46094,-6.988281 16.85546,5.435547 c 19.54307,6.301559 19.51744,6.294931 20.05664,4.757812 0.25889,-0.737972 -5.05194,-2.902786 -14.39648,-5.871094 -20.61955,-6.549831 -20.20687,-6.376108 -18.01367,-7.603515 1.18291,-0.662001 1.58665,-1.659773 1.18359,-2.929688 C 163.14043,68.866601 163.1615,68 163.52344,68 c 0.36194,0 7.8546,2.302852 16.65039,5.117188 11.15706,3.569857 16.30936,4.800013 17.04101,4.068359 0.73165,-0.731654 -4.46851,-2.808095 -17.19922,-6.867188 C 169.97926,67.11833 161.6194,64.05 161.4375,63.5 c -0.1819,-0.55 -3.34258,-10.45 -7.02344,-22 -3.68087,-11.55 -7.14167,-21.569555 -7.68945,-22.265625 -0.7695,-0.9778 -7.25092,-1.20519 -28.50781,-1 z M 362.11914,42.230469 C 361.25779,42.296529 361,46.257399 361,58.675781 v 16.84375 l -3.25,-0.0098 L 354.5,75.5 354,59.246094 c -0.68865,-22.386152 -2.42272,-21.796407 -2.77344,0.943359 l -0.27148,17.689453 -5.72852,3.220703 c -15.70557,8.829592 -19.22237,11.096742 -18.64844,12.025391 0.8381,1.356072 1.32845,1.128359 16.625,-7.710938 7.31302,-4.225905 13.74688,-7.673269 14.29688,-7.662109 0.55,0.01116 7.29408,3.672068 14.98633,8.134766 C 380.17858,90.349417 387.07728,94 387.81836,94 c 3.07518,0 0.0218,-2.394906 -11.32227,-8.876953 L 364.5,78.269531 364,60.466797 c -0.36475,-12.987212 -0.83812,-17.915928 -1.75,-18.21875 -0.0453,-0.01505 -0.0885,-0.02083 -0.13086,-0.01758 z M 213.5,74.533203 c -1.17013,0.0066 -2.3884,0.167619 -3.64453,0.505859 -6.77761,1.825023 -10.92535,9.449298 -9.44141,17.359376 0.7385,3.93656 3.93437,8.369012 6.97461,9.675782 1.16153,0.49923 4.55989,0.75493 7.55274,0.56836 4.75348,-0.29632 5.79505,-0.76405 8.24218,-3.695314 8.37346,-10.030058 1.62763,-24.478203 -9.68359,-24.414063 z m -0.0703,3.367188 c 1.55312,-0.02903 3.16812,0.348772 4.7207,1.179687 2.20998,1.182747 4.84961,6.618295 4.84961,9.986328 0,3.474075 -2.91283,8.572522 -5.5957,9.794922 -4.9388,2.250272 -9.50218,0.558389 -11.85157,-4.392578 -1.92288,-4.052178 -1.95403,-6.570448 -0.13671,-10.919922 1.48168,-3.546167 4.5968,-5.584566 8.01367,-5.648437 z m 97.14843,11.292968 c -2.36997,0.02491 -4.8284,0.741169 -7.16992,2.275391 -8.10349,5.309623 -8.12851,19.68099 -0.043,24.61133 9.13387,5.56955 20.62186,-1.03872 20.63086,-11.86914 0.008,-8.94533 -6.30801,-15.092324 -13.41797,-15.017581 z m 94.75586,0.111329 c -1.4986,-0.02721 -3.08222,0.226116 -4.67968,0.791015 -5.33128,1.885257 -7.88064,5.580363 -8.43164,12.224607 -0.53406,6.44014 1.69382,12.02138 5.6582,14.17578 3.49995,1.90203 10.14694,1.87327 12.90234,-0.0566 C 412.99668,114.88901 416,110.05817 416,108.04883 416,107.47152 415.07588,107 413.94727,107 c -1.39156,0 -2.39501,0.98942 -3.1211,3.07227 -2.5629,7.35195 -12.89471,5.41068 -14.41797,-2.70899 C 394.88738,99.256641 398.39963,93 404.4707,93 c 2.69607,0 3.96423,0.669145 5.6875,3 2.88496,3.902119 5.30532,4.03937 4.40821,0.25 -1.0089,-4.261519 -4.73661,-6.863675 -9.23243,-6.945312 z M 110.0293,90 C 108.0901,90 108,90.601046 108,103.5 c 0,12.83333 0.0988,13.5 2,13.5 1.86922,0 2,-0.66644 2,-10.19531 V 96.609375 l 5.5957,8.945315 c 3.07715,4.92005 6.4741,9.70961 7.54883,10.64453 C 129.25064,119.77119 130,117.79299 130,103.39258 130,90.745711 129.89071,90 128.03516,90 c -1.80701,0 -1.98793,0.824179 -2.25,10.25 L 125.5,110.5 118.7793,100.25 C 113.91065,92.824312 111.49965,90 110.0293,90 Z M 422,90 c -1.9012,0 -2,0.666667 -2,13.5 0,12.83333 0.0988,13.5 2,13.5 1.77778,0 2,-0.66667 2,-6 v -6 h 7 7 v 6 c 0,5.33333 0.22222,6 2,6 1.9012,0 2,-0.66667 2,-13.5 0,-12.833333 -0.0988,-13.5 -2,-13.5 -1.75758,0 -2,0.666667 -2,5.5 v 5.5 h -7 -7 v -5.5 c 0,-4.833333 -0.24242,-5.5 -2,-5.5 z m -111.26562,2.992188 c 4.03058,0.168292 7.99901,3.07276 8.85742,7.648432 1.07798,5.74613 -1.10467,11.25853 -5.12305,12.9375 -4.10717,1.71609 -4.31084,1.71874 -7.46875,0.14844 -6.09074,-3.02869 -7.48326,-13.33315 -2.47852,-18.337888 1.5377,-1.537694 3.45463,-2.29505 5.40625,-2.392578 0.26835,-0.01341 0.53794,-0.01513 0.80665,-0.0039 z M 451.41016,104.17969 C 448.18637,104.38678 446,106.29033 446,109.07227 c 0,2.4917 2.03529,2.50619 2.68555,0.0195 C 449.66344,105.3524 455,105.69745 455,109.5 c 0,1.6546 -0.7969,2.59832 -2.74023,3.24609 l -2.74024,0.91407 2.97852,1.42773 c 3.45955,1.65812 4.44307,4.75096 2.06445,6.49023 -2.1827,1.59603 -5.3395,0.69775 -6.11328,-1.74023 -0.33989,-1.07089 -1.11425,-1.78223 -1.7207,-1.58008 -1.97944,0.65982 -1.89437,2.57634 0.20898,4.67969 2.63303,2.63303 7.46198,2.66302 10.0625,0.0625 2.15721,-2.15721 2.63707,-5.96254 0.96289,-7.63672 -0.68454,-0.68455 -0.71229,-1.89121 -0.082,-3.54883 1.51297,-3.97941 -0.6456,-7.24855 -5.0293,-7.61718 -0.49956,-0.042 -0.98086,-0.0472 -1.4414,-0.0176 z m 54.28515,109.1289 c -0.59347,-0.0107 -1.20758,0.009 -1.81054,0.0625 l -4.38477,0.39063 -0.30078,6.26367 c -0.16581,3.44497 -0.0572,6.9033 0.24219,7.68359 1.02731,2.67713 2.55859,0.17207 2.55859,-4.18554 0,-2.39756 0.27357,-5.07143 0.60742,-5.94141 0.71626,-1.86656 5.35912,-2.14869 5.46485,-0.33203 0.04,0.6875 0.1525,3.4601 0.25,6.16211 0.10464,2.90037 0.68976,5.08567 1.42773,5.33398 1.83705,0.61811 1.72898,-13.1042 -0.11523,-14.63476 -0.563,-0.46724 -2.15904,-0.77051 -3.93946,-0.80274 z M 257.73828,216.26562 249,216.38086 v 7.31055 c 0,5.83033 0.30348,7.30859 1.5,7.30859 1.16364,0 1.5,-1.32102 1.5,-5.89258 0,-4.46437 0.38512,-6.0416 1.58984,-6.5039 2.70509,-1.03804 3.41016,0.29581 3.41016,6.45507 0,4.6142 0.33499,5.94141 1.5,5.94141 1.12538,0 1.5,-1.20071 1.5,-4.80859 0,-5.54854 1.72036,-8.61988 4.27734,-7.63868 1.36168,0.52253 1.72266,1.89915 1.72266,6.55469 0,4.57156 0.33636,5.89258 1.5,5.89258 1.95502,0 2.16572,-12.2031 0.23828,-13.80273 -0.69411,-0.57605 -5.19411,-0.99535 -10,-0.93165 z" />
      <path
         id="path26"
         style="fill-opacity:1.0;fill:#a3a3a3"
         d="m 357.39648,9.1875 c -4.92071,-0.1057408 -9.87032,2.308546 -11.95703,7.302734 -3.33212,7.974901 -0.72122,16.546679 5.98438,19.648438 6.7347,3.115223 13.95332,0.900034 17.13867,-5.259766 C 370.35871,27.40542 370.655,20.787762 369.18359,17 367.20964,11.918553 362.3172,9.2932408 357.39648,9.1875 Z m 0.22657,3.166016 c 6.48864,0.269523 11.23448,8.263675 8.02734,15.939453 -0.81499,1.95054 -2.3896,4.032682 -3.5,4.626953 C 361.03999,33.514192 358.56656,34 356.6543,34 c -9.76699,0 -12.03428,-17.114061 -2.77539,-20.949219 1.28169,-0.530895 2.54254,-0.747177 3.74414,-0.697265 z M 481,14 c -8.40172,0 -9.40992,1.773621 -1.25,2.199219 L 485.5,16.5 l 0.25781,67.164062 0.25586,67.166018 -4.25586,1.56836 C 459.75326,160.51285 383.21043,187 381.76562,187 380.7416,187 371.03724,182.91004 360.20117,177.91211 349.36509,172.91418 334.0875,165.86658 326.25,162.25 L 312,155.67383 v -16.41992 c 0,-12.69145 -0.28388,-16.32709 -1.25,-16.00586 -0.91502,0.30424 -1.32281,4.71066 -1.52344,16.43945 L 308.95117,155.70898 300.22656,158 c -4.79925,1.25915 -9.28906,2.49745 -9.97656,2.75195 -0.99246,0.3674 -1.25,-13.87881 -1.25,-69.144528 V 22 h 5.5 c 4.22222,0 5.5,-0.348485 5.5,-1.5 0,-1.190476 -1.44444,-1.5 -7,-1.5 h -7 v 71.457031 71.458989 l -6.75,1.98242 C 259.89186,169.58658 240.40271,175 239.28125,175 c -1.01233,0 -1.32113,-16.02256 -1.52539,-79.25 L 237.5,16.5 230.75,16.205078 c -5.54955,-0.243103 -6.75,-0.0208 -6.75,1.25 C 224,18.661975 225.20552,19 229.5,19 h 5.5 v 78.785156 78.787114 l -29.37305,8.30664 -29.37304,8.30859 L 148.12695,174.44336 120,155.69727 v -16.43165 c 0,-12.70068 -0.28385,-16.33881 -1.25,-16.01757 -0.91517,0.30429 -1.32267,4.71636 -1.52344,16.46875 l -0.27539,16.05273 -6.72461,1.67578 c -3.69918,0.92155 -18.27808,4.79827 -32.396482,8.61524 C 63.711676,169.87752 51.674176,173 51.080078,173 50.316372,173 50,151.61236 50,100 V 27 h 5.5 c 3.025,0 5.5,-0.45 5.5,-1 0,-0.571342 -2.998385,-1 -6.994141,-1 H 47.013672 L 46.755859,99.746094 46.5,174.49414 27.75,179.46094 C 15.102198,182.81188 9,184.86851 9,185.78125 c 0,0.82026 0.6891269,1.14948 1.75,0.83398 0.9625,-0.28624 8.725,-2.35701 17.25,-4.59961 8.525,-2.24259 16.2875,-4.31799 17.25,-4.61328 1.636226,-0.502 1.75,1.18916 1.75,26.0293 V 230 h 7 c 5.555556,0 7,-0.30952 7,-1.5 0,-1.15152 -1.277778,-1.5 -5.5,-1.5 H 50 v -25.46094 -25.46289 l 3.75,-0.98633 c 2.0625,-0.54292 13.2,-3.51627 24.75,-6.60742 11.55,-3.09116 25.32298,-6.75771 30.60547,-8.14844 l 9.60351,-2.52929 28.55274,19.20898 28.55469,19.20899 28.35351,-8.11133 C 219.76484,183.64984 233.08092,180 233.76172,180 234.70316,180 235,184.66898 235,199.5 V 219 h -5.5 c -3.025,0 -5.5,0.45 -5.5,1 0,0.57143 3,1 7,1 h 7 V 199.71875 178.4375 l 22.75,-6.38477 c 12.5125,-3.51083 23.3125,-6.58111 24,-6.82421 0.98181,-0.34716 1.25,5.90941 1.25,29.16406 V 224 h 7.08398 c 5.2197,0 6.97349,-0.32888 6.66993,-1.25 -0.24015,-0.72872 -2.56724,-1.37652 -5.58203,-1.55273 L 289,220.89453 v -28.36719 -28.36718 l 4.75,-1.51758 c 2.6125,-0.83447 7.51395,-2.26596 10.89258,-3.18164 l 6.14258,-1.66406 34.87109,16.10156 C 364.8352,182.7544 380.90998,190 381.37695,190 c 0.81282,0 10.62149,-3.3999 74.79883,-25.93164 C 471.94735,158.53118 485.10985,154 485.42578,154 485.74171,154 486,167.95 486,185 v 31 h -6 c -3.33333,0 -6,0.44444 -6,1 0,0.57143 3,1 7,1 h 7 v -32.53125 c 0,-27.9943 0.2092,-32.6121 1.5,-33.10742 0.825,-0.31659 1.5,-0.97759 1.5,-1.46875 C 491,150.40143 490.325,150 489.5,150 488.18137,150 488,141.77778 488,82 V 14 Z M 90.957031,19 90.023438,21.25 C 88.589449,24.707345 74,69.98393 74,70.976562 c 0,0.48133 5.920492,5.166618 13.15625,10.41211 7.235758,5.245492 13.5424,9.296368 14.01563,9.003906 1.39721,-0.863524 0.44982,-1.711009 -12.150396,-10.876953 C 82.409647,74.705891 77,70.477096 77,70.119141 77,69.761186 80.50824,58.675858 84.796875,45.484375 L 92.595703,21.5 l 26.115237,-0.265625 26.11523,-0.267578 7.60156,23.472656 c 4.18069,12.91003 7.82245,24.056069 8.0918,24.767578 0.29906,0.790006 -4.37405,4.796856 -12.00391,10.292969 -6.87171,4.95 -12.49985,9.5625 -12.50585,10.25 -0.006,0.6875 0.27014,1.25 0.61132,1.25 0.34117,0 5.27967,-3.396617 10.97461,-7.546875 l 10.35352,-7.544922 16.82422,5.544922 c 17.47067,5.759264 19.63307,6.268376 19.03515,4.474609 -0.19652,-0.58956 -7.54521,-3.383879 -16.33203,-6.210937 -8.78681,-2.827058 -16.19833,-5.304273 -16.46875,-5.503906 -0.27042,-0.199633 0.25144,-0.777705 1.15821,-1.285157 1.02194,-0.571908 1.44957,-1.684599 1.125,-2.925781 C 163.00302,68.900657 163.18371,68 163.69336,68 c 0.50965,0 7.93946,2.25 16.51172,5 17.22421,5.52557 17.13036,5.504356 16.55859,3.789062 -0.22212,-0.666371 -8.20639,-3.70581 -17.74219,-6.753906 L 161.68359,64.492188 154.30859,41.746094 146.93359,19 H 118.94531 Z M 352.50977,42.876953 c -0.59365,0.04729 -1.18573,5.919012 -1.50977,17.513672 l -0.5,17.890625 -12.23828,6.974609 c -6.73112,3.835256 -11.9727,7.401127 -11.64844,7.925782 0.80369,1.300405 1.3234,1.052258 16.92383,-8.060547 l 13.70312,-8.003906 5.62891,3.166015 c 3.09659,1.740959 9.65832,5.539857 14.58008,8.441406 4.92176,2.901548 9.53426,5.275391 10.25,5.275391 2.4974,0 1.26938,-1.648717 -2.94922,-3.960938 -2.3375,-1.281186 -7.9625,-4.544946 -12.5,-7.251953 L 364,77.865234 V 60.433594 C 364,45.604368 363.77597,43 362.5,43 361.22817,43 361,45.473396 361,59.259766 v 16.259765 l -3.25,-0.0098 L 354.5,75.5 354,59.246094 c -0.33805,-10.989062 -0.91486,-16.41498 -1.49023,-16.369141 z M 213.67578,75 c -4.47433,0 -6.10297,0.487914 -8.58008,2.572266 -7.13563,6.004242 -6.11276,19.632522 1.79688,23.931644 1.4337,0.77926 4.31644,1.43307 6.40625,1.45507 5.7257,0.0603 9.57081,-2.4115 11.88476,-7.642574 2.80183,-6.334004 1.83253,-12.499504 -2.67382,-17.005859 C 219.56184,75.362622 218.59446,75 213.67578,75 Z m -0.47656,2.900391 c 4.34325,-0.09123 8.72584,3.118462 9.49219,8.832031 0.71951,5.364334 -1.12709,9.923798 -4.78321,11.814453 -9.26209,4.789615 -17.54644,-5.611258 -12.39843,-15.566406 1.76318,-3.409626 4.71775,-5.017661 7.68945,-5.080078 z m 191.49023,11.441406 c -3.6963,0.01512 -7.55503,1.661837 -9.88867,4.933594 -1.80396,2.52914 -2.30078,4.556324 -2.30078,9.400389 0,6.72291 2.00898,10.70138 6.5957,13.0586 6.76783,3.47811 14.09528,0.128 16.36719,-7.48438 1.10632,-3.70688 -3.01014,-2.98569 -4.31445,0.75586 -0.98326,2.82057 -4.31698,4.99414 -7.65821,4.99414 -2.93251,0 -6.60701,-4.45089 -7.17578,-8.69141 C 395.2187,98.139179 398.36492,93 404.46094,93 c 3.40622,0 4.22858,0.528422 7.00586,4.5 1.04651,1.496546 1.68845,1.714597 2.55078,0.865234 0.86898,-0.855922 0.76611,-1.88198 -0.41602,-4.167968 -1.68339,-3.255327 -5.2158,-4.870587 -8.91211,-4.855469 z m -93.73437,0.08398 c -2.97504,-0.133565 -6.11413,0.836611 -9.00781,3.271485 -7.05901,5.939766 -5.60388,19.751504 2.50195,23.751954 6.82261,3.36715 14.7725,0.81795 17.88086,-5.73242 5.0074,-10.55231 -2.44988,-20.890322 -11.375,-21.291019 z M 128.0332,90 c -1.81369,0 -1.98818,0.82368 -2.25,10.62305 l -0.2832,10.62304 -6.55078,-10.37304 c -4.6369,-7.34304 -7.19291,-10.467158 -8.75,-10.693362 C 108.02539,89.863889 108,90.019435 108,103.42969 108,116.33257 108.09826,117 110,117 c 1.8689,0 2.00099,-0.67189 2.01562,-10.25 l 0.0156,-10.25 6.57617,10.25 c 5.35206,8.34224 7.02431,10.25 8.98438,10.25 H 130 V 103.5 C 130,90.744098 129.891,90 128.0332,90 Z m 293.91602,0 C 420.11206,90 420,90.781824 420,103.5 c 0,12.83333 0.0988,13.5 2,13.5 1.77778,0 2,-0.66667 2,-6 v -6 h 7 7 v 6.07422 c 0,5.24584 0.23844,6.02743 1.75,5.73633 1.55941,-0.30032 1.75,-1.75074 1.75,-13.31055 0,-11.409086 -0.20374,-13.011201 -1.69727,-13.298828 -1.41425,-0.272361 -1.74866,0.645012 -2,5.486328 L 437.5,101.5 h -6.5 -6.5 l -0.30078,-5.75 C 423.94199,90.818241 423.62181,90 421.94922,90 Z M 310.17188,92.925781 C 315.16516,92.879635 320,97.126823 320,102.97266 c 0,5.17616 -2.07619,9.2845 -5.47266,10.83203 -4.0011,1.82303 -6.52234,1.30949 -10.26172,-2.0918 -4.34663,-3.95366 -3.75225,-13.857117 1.03321,-17.208984 1.52646,-1.069173 3.20861,-1.562743 4.87305,-1.578125 z M 452.66211,104.12305 C 449.22112,103.99507 446,106.08162 446,109.1543 c 0,2.43998 2.04798,2.37449 2.69141,-0.0859 1.02871,-3.93379 6.30859,-3.53981 6.30859,0.4707 0,1.44737 -0.75529,2.56588 -2,2.96094 -2.61077,0.82863 -2.53076,1.79369 0.25,3.01367 2.96935,1.30272 3.48141,5.02529 0.88281,6.41602 -2.4819,1.32828 -4.86958,0.47554 -5.66211,-2.02149 -0.61658,-1.94266 -1.63427,-2.41259 -2.76953,-1.27734 -0.7355,0.7355 1.0933,4.5312 2.69922,5.60352 2.10006,1.40224 6.61028,0.75495 8.59961,-1.23438 2.38299,-2.38299 2.60287,-6.25427 0.45703,-8.03516 -1.07006,-0.88808 -1.22318,-1.59908 -0.5,-2.32226 1.76868,-1.76868 1.21771,-6.47907 -0.89062,-7.60742 -1.08444,-0.58038 -2.25731,-0.86945 -3.4043,-0.91211 z m 53.74805,108.91211 c -1.28777,-0.0308 -2.49991,0.30246 -2.93946,1.01367 -0.44899,0.7268 -1.03423,0.72809 -1.90234,0.008 C 499.55021,212.38154 499,213.906 499,221.16602 c 0,5.4074 0.31301,6.83398 1.5,6.83398 1.13043,0 1.5,-1.21345 1.5,-4.92773 0,-4.53819 1.69436,-8.07194 3.87109,-8.07227 1.95054,0 3.12891,2.89858 3.12891,7.69922 0,2.915 0.45,5.30078 1,5.30078 1.43359,0 1.25545,-12.34611 -0.19922,-13.80078 -0.73941,-0.73941 -2.10286,-1.13325 -3.39062,-1.16406 z M 257.99609,216.25586 249,216.39258 v 7.38672 c 0,5.46192 0.32571,7.28061 1.25,6.97656 0.73072,-0.24036 1.45771,-2.87206 1.75,-6.33398 0.42964,-5.08884 0.78143,-5.92188 2.5,-5.92188 1.71857,0 2.07036,0.83306 2.5,5.92188 0.66703,7.90052 3,8.89832 3,1.2832 0,-5.74842 1.64267,-8.43887 4.48633,-7.34766 1.11894,0.42938 1.51367,2.15002 1.51367,6.61133 0,4.69456 0.33247,6.03125 1.5,6.03125 1.15366,0 1.5,-1.28575 1.5,-5.56641 0,-8.93418 -0.48653,-9.33889 -11.00391,-9.17773 z" />
      <path
         id="path25"
         style="fill-opacity:1.0;fill:#8c8c8c"
         d="M 356.69141,9.0078125 C 348.07814,9.2445703 341.0593,19.117091 345.36133,29.28125 c 1.67203,3.950396 4.51107,6.573087 8.28125,7.650391 9.02694,2.579382 16.36184,-3.449426 16.33984,-13.431641 -0.0136,-6.16304 -1.51057,-9.266354 -5.89453,-12.220703 -2.44853,-1.650064 -4.98477,-2.3377767 -7.39648,-2.2714845 z m 0.61523,3.1874995 c 1.18927,0.02457 2.43245,0.282067 3.68945,0.802735 C 364.13294,14.297373 367,19.28959 367,23.451172 c 0,3.415952 -2.48789,8.204361 -4.94531,9.519531 -1.98106,1.060232 -7.57665,1.264465 -9.82617,0.359375 C 350.0496,32.453397 348,27.292225 348,22.683594 c 0,-6.316046 4.15315,-10.594763 9.30664,-10.488282 z M 481,14 c -4,0 -7,0.428571 -7,1 0,0.555685 2.66982,1 6.00781,1 h 6.00586 L 485.75781,83.599609 485.5,151.20117 469,157.01172 c -9.075,3.19666 -32.025,11.28712 -51,17.97851 -18.975,6.69139 -35.2296,12.22242 -36.12109,12.29102 -0.89148,0.0685 -16.97898,-7.00529 -35.75,-15.7207 L 312,155.71289 v -15.79687 c 0,-15.52819 -1.12215,-21.3375 -2.36719,-12.25391 C 309.28478,130.2012 309,137.55696 309,144.00781 v 11.72852 l -9.48633,2.63281 C 294.29632,159.81652 289.79632,161 289.51367,161 289.23103,161 289,129.725 289,91.5 V 22 h 5.5 c 4.29448,0 5.5,-0.338025 5.5,-1.544922 0,-1.2708 -1.20045,-1.493103 -6.75,-1.25 L 286.5,19.5 286,90.919922 285.5,162.3418 263.02148,168.66992 C 250.6585,172.15101 239.971,175 239.27148,175 238.25309,175 238,159.28867 238,96.166016 c 0,-43.358334 -0.18507,-79.020834 -0.41211,-79.25 C 236.77176,16.092253 224,17.191979 224,18.085938 224,18.589008 226.475,19 229.5,19 h 5.5 v 78.808594 78.806636 l -29.35742,8.34375 -29.35742,8.34571 L 148.14258,174.64648 120,155.99023 V 139.49609 C 120,129.44513 119.61962,123 119.02539,123 c -0.58235,0 -1.08592,6.54634 -1.25,16.25 L 117.5,155.5 l -32,8.68945 c -17.6,4.77879 -33.020303,8.71631 -34.267578,8.75 L 48.964844,173 49.232422,100.25 49.5,27.5 55.25,27.199219 C 63.409917,26.773621 62.401723,25 54,25 h -7 v 74.794922 74.792968 l -18.53125,4.85352 c -16.58878,4.34414 -20.5589678,5.80236 -19.2792969,7.08203 0.2145357,0.21453 8.6173379,-1.84029 18.6718749,-4.56641 C 37.915865,179.2309 46.334312,177 46.570312,177 46.806314,177 47,188.62565 47,202.83398 c 0,14.20834 0.319056,26.15109 0.708984,26.54102 1.217212,1.21721 12.595567,0.23602 13.044922,-1.125 C 61.053773,227.34176 59.504092,227 55.083984,227 H 49 v -24.96484 c 0,-22.76512 0.154195,-25.04518 1.75,-25.86914 0.9625,-0.49697 16.627765,-4.84727 34.8125,-9.66797 l 33.06445,-8.76563 28.69336,19.14844 28.69336,19.14648 28.24414,-8.04492 c 15.5336,-4.42403 28.80469,-8.2394 29.49219,-8.48047 0.9729,-0.34114 1.25,3.98732 1.25,19.5293 V 219 h -5.5 c -3.025,0 -5.5,0.45 -5.5,1 0,0.57143 3,1 7,1 h 7 v -21.30664 -21.30859 l 22.25,-6.33594 c 12.2375,-3.48485 23.0375,-6.54849 24,-6.8086 1.63792,-0.44263 1.75,1.42277 1.75,29.14258 V 224 h 7 c 4,0 7,-0.42857 7,-1 0,-0.55 -2.48234,-1 -5.51562,-1 h -5.51368 l 0.26368,-29.17188 0.26562,-29.17187 10.71094,-2.98828 10.71289,-2.98633 14.78711,6.83984 c 8.13348,3.7619 19.28906,8.93749 24.78906,11.50196 5.5,2.56448 14.74753,6.79137 20.55078,9.39453 l 10.55274,4.73437 18.94726,-6.63672 C 410.97253,179.86513 423.775,175.36343 429,173.51367 465.13397,160.72146 484.48827,154 485.1875,154 485.634,154 486,167.95 486,185 v 31 h -6 c -3.33333,0 -6,0.44444 -6,1 0,0.57143 3,1 7,1 h 7 v -32.53125 c 0,-27.9943 0.2092,-32.6121 1.5,-33.10742 1.94121,-0.74491 1.94121,-2.36133 0,-2.36133 -1.31863,0 -1.5,-8.22222 -1.5,-68 V 14 Z M 146.87109,18.96875 118.72656,19.234375 90.582031,19.5 82.308594,45 C 77.757406,59.025 74.137214,70.833872 74.265625,71.242188 74.394036,71.650501 80.35,76.254084 87.5,81.472656 c 7.15,5.218572 13.08637,9.497199 13.19141,9.507813 0.10504,0.01061 0.44578,-0.393562 0.75781,-0.898438 C 101.76125,89.577155 96.387383,85.04276 89.507812,80.005859 82.628242,74.968958 77,70.312782 77,69.658203 77,69.003624 80.526386,57.900519 84.835938,44.984375 L 92.671875,21.5 l 26.126955,-0.265625 26.12695,-0.267578 8.01953,24.734375 c 4.41078,13.603863 7.68984,25.014683 7.28711,25.357422 -0.40272,0.34274 -6.01992,4.518119 -12.48242,9.277344 C 137.73418,87.711956 134.26374,91 136.49805,91 c 0.27428,0 5.2119,-3.417431 10.9707,-7.59375 l 10.46875,-7.59375 16.7832,5.59375 C 192.11956,87.205296 194,87.657007 194,86.029297 c 0,-0.534041 -7.3125,-3.297961 -16.25,-6.140625 -8.9375,-2.842663 -16.475,-5.392423 -16.75,-5.666016 -0.275,-0.273593 0.0625,-0.697823 0.75,-0.943359 C 162.4375,73.033761 163,71.745182 163,70.416016 163,69.086849 163.58062,68 164.29102,68 c 0.7104,0 7.1229,1.952345 14.25,4.337891 16.32885,5.465512 18.7652,6.080758 18.27734,4.617187 -0.20765,-0.622948 -8.23196,-3.705178 -17.83203,-6.847656 l -17.45508,-5.712891 -7.33008,-22.71289 z M 352.52344,43 c -1.23642,0 -1.52139,2.871426 -1.75,17.638672 L 350.5,78.279297 338.79492,84.888672 c -6.43829,3.635711 -11.7258,7.173828 -11.75,7.861328 -0.0242,0.6875 0.1933,1.25 0.48438,1.25 0.29108,0 7.10532,-3.831916 15.14258,-8.515625 l 14.61328,-8.515625 14.74414,8.515625 C 380.13887,90.168084 387.27462,94 387.88672,94 c 2.25808,0 0.98347,-1.564143 -3.14453,-3.857422 -2.33327,-1.296225 -8.17969,-4.65705 -12.99219,-7.46875 L 363,77.5625 V 60.28125 C 363,49.427222 362.62809,43 362,43 c -0.62583,0 -1,6.107535 -1,16.324219 v 16.326172 l -3.49609,-0.07617 -3.49805,-0.07422 -0.002,-16.25 C 354.00149,45.586384 353.7653,43 352.52344,43 Z M 212.62109,75 c -9.34919,0 -14.96458,10.103224 -11.05078,19.884766 1.05092,2.626509 2.94949,5.071988 4.83008,6.218754 3.7405,2.28092 9.63908,2.44414 13.63281,0.3789 8.40032,-4.343968 8.40032,-20.620867 0,-24.964842 C 218.41983,75.683268 215.08424,75 212.62109,75 Z m 1.35157,2.960938 c 1.93938,0.08092 3.85994,0.851064 5.57031,2.322265 5.01,4.309419 4.10282,15.695235 -1.48828,18.6875 -3.23072,1.729027 -7.77512,1.174107 -10.65235,-1.300781 -2.1921,-1.885561 -2.79831,-3.40517 -3.17578,-7.957031 -0.43343,-5.226568 -0.25102,-5.842736 2.57617,-8.669922 2.15117,-2.15117 4.67643,-3.186066 7.16993,-3.082031 z m 96.6914,11.582031 c -1.25104,-0.0097 -2.53461,0.153645 -3.82812,0.501953 -9.56502,2.57559 -12.63736,17.106228 -5.10156,24.128908 1.52125,1.41769 3.44062,2.82284 4.26562,3.12305 2.792,1.01592 7.04885,0.70914 10.56445,-0.75977 5.75119,-2.403 8.92377,-11.48023 6.36914,-18.222657 -2.06495,-5.45 -6.84836,-8.729465 -12.26953,-8.771484 z m 94.24024,0.292969 c -5.96489,-0.107546 -9.35998,2.171166 -11.47266,7.703124 -2.88926,7.565438 -0.0217,16.968138 5.95703,19.535158 1.16153,0.49876 4.12128,0.7291 6.57813,0.51367 5.08517,-0.44589 9.0332,-4.0056 9.0332,-8.14453 0,-3.26496 -2.7717,-3.20304 -3.5957,0.0801 -1.44843,5.771 -7.93562,7.09759 -12.48047,2.55273 C 396.40923,109.56155 396,108.39252 396,103.71094 396,96.41517 398.55239,93 404.00195,93 407.63566,93 411,94.958432 411,97.072266 411,97.58298 411.9,98 413,98 c 2.7214,0 2.51265,-1.398927 -0.75,-5.025391 -2.27578,-2.529549 -3.54197,-3.070092 -7.3457,-3.138671 z M 109.91797,90 C 108.12126,90 108,90.857603 108,103.5 c 0,11.33333 0.24074,13.5 1.5,13.5 1.23333,0 1.5,-1.77778 1.5,-10 0,-5.5 0.3408,-10 0.75781,-10 0.417,0 3.63121,4.5 7.14258,10 4.33254,6.78623 6.98165,10 8.24219,10 C 128.86084,117 129,115.9881 129,103.5 129,92.305116 128.74902,90 127.5332,90 c -1.17877,0 -1.5218,2.090225 -1.75,10.66016 l -0.2832,10.6582 -6.83203,-10.6582 C 113.88175,93.191993 111.26218,90 109.91797,90 Z M 422,90 c -1.8961,0 -2,0.667325 -2,12.83398 0,7.05834 0.29935,13.13334 0.66602,13.5 0.36666,0.36667 1.26666,0.66602 2,0.66602 0.96296,0 1.33398,-1.66667 1.33398,-6 v -6 h 7 7 v 6 c 0,4.66667 0.33333,6 1.5,6 1.25926,0 1.5,-2.16667 1.5,-13.5 0,-11.126848 -0.25403,-13.5 -1.44922,-13.5 -1.06389,0 -1.52996,1.531381 -1.75,5.75 L 437.5,101.5 430.75,101.79492 424,102.0918 V 96.044922 C 424,90.665899 423.77946,90 422,90 Z m -110.95312,3 c 3.02156,0 4.31362,0.639587 6.4707,3.203125 2.36939,2.815868 2.6423,3.853415 2.25195,8.560545 -0.29436,3.54955 -1.10864,6.02077 -2.41601,7.32813 -1.08492,1.08492 -3.52195,2.18666 -5.41407,2.44922 -4.89099,0.67869 -8.61277,-1.71607 -10.0332,-6.45704 C 299.4061,99.739232 303.49063,93 311.04688,93 Z m 141.21679,11.14258 c -3.43403,0.12343 -6.98349,2.53995 -5.89258,5.38281 0.697,1.81636 2.62891,1.06868 2.62891,-1.01758 0,-2.28055 4.1575,-3.01245 5.63477,-0.99219 1.51352,2.06987 0.16266,5.48438 -2.16993,5.48438 -2.34636,0 -1.68766,1.82849 0.78516,2.17969 3.1246,0.44376 3.69781,5.24384 0.81055,6.78906 C 451.62068,123.27453 448,121.77843 448,119.46484 448,118.65919 447.55,118 447,118 c -1.56984,0 -1.17101,3.15492 0.6543,5.17188 3.5642,3.93838 11.3457,0.81865 11.3457,-4.54883 0,-1.30765 -0.69466,-2.95418 -1.54297,-3.65821 -1.07006,-0.88808 -1.22318,-1.59908 -0.5,-2.32226 1.54363,-1.54363 1.26401,-5.27701 -0.5293,-7.07031 -1.06744,-1.06745 -2.60313,-1.4858 -4.16406,-1.42969 z m 53.48047,109.12695 c -0.55067,0.006 -1.05117,0.0881 -1.42969,0.25195 -0.99757,0.43183 -2.60195,0.68942 -3.56445,0.57032 -1.52192,-0.18832 -1.75,0.70334 -1.75,6.8457 0,5.61143 0.30825,7.0625 1.5,7.0625 1.15034,0 1.5,-1.27389 1.5,-5.46484 0,-4.49777 0.36576,-5.66121 2.06445,-6.57032 3.31774,-1.7756 4.93555,0.4084 4.93555,6.65821 0,2.95766 0.45,5.37695 1,5.37695 0.56444,0 1,-2.84052 1,-6.52148 0,-5.94026 -0.21643,-6.61976 -2.43555,-7.63086 -0.84736,-0.38609 -1.90252,-0.5883 -2.82031,-0.57813 z m -241.64648,2.86719 c -1.40409,-0.0415 -2.91844,0.30045 -3.56836,0.83984 -0.90655,0.75234 -1.55915,0.78376 -1.98438,0.0957 -0.34842,-0.56375 -2.63929,-0.93869 -5.08984,-0.83204 L 249,216.43555 v 7.28125 c 0,4.18835 0.42488,7.2832 1,7.2832 0.55,0 1,-2.05525 1,-4.56641 0,-5.44299 1.38916,-8.43359 3.91797,-8.43359 2.13187,0 3.04866,2.61321 3.06836,8.75 0.008,2.3375 0.46367,4.25 1.01367,4.25 0.55,0 1,-2.41929 1,-5.37695 0,-5.66436 1.65827,-8.35089 4.48633,-7.26563 1.11894,0.42938 1.51367,2.15002 1.51367,6.61133 0,3.52301 0.43327,6.03125 1.04297,6.03125 0.6561,0 0.93468,-2.69282 0.75,-7.25 -0.28863,-7.12228 -0.34256,-7.25569 -3.10352,-7.57227 -0.19322,-0.0222 -0.39121,-0.0351 -0.59179,-0.041 z" />
      <path
         id="path24"
         style="fill-opacity:1.0;fill:#767676"
         d="m 356.9707,9.2890625 c -5.05533,0.04501 -10.09344,3.0478125 -12.02539,9.4960935 -2.39998,8.010404 1.88957,16.580782 9.06836,18.117188 C 363.22921,38.874656 370,32.878883 370,22.746094 370,14.062757 363.47041,9.2311931 356.9707,9.2890625 Z m -0.27929,2.7753905 c 1.60236,-0.0599 3.31742,0.406471 5.21679,1.388672 5.57723,2.884102 6.70754,13.133582 2,18.144531 -3.19423,3.400095 -10.02703,3.37336 -13.45312,-0.05273 C 348.4311,29.520946 348,28.104855 348,23.46875 c 0,-4.880873 0.38626,-6.007354 2.92383,-8.544922 1.83527,-1.835269 3.7074,-2.782365 5.76758,-2.859375 z M 481,14 c -4,0 -7,0.428571 -7,1 0,0.555685 2.66982,1 6.00781,1 h 6.00586 L 485.75781,83.609375 485.5,151.2168 l -26,9.20508 c -14.3,5.06265 -37.7297,13.33447 -52.06641,18.38085 l -26.0664,9.17579 -34.4336,-15.96485 L 312.5,156.05078 312.24023,140.77539 c -0.14272,-8.40122 -0.59272,-15.95039 -1,-16.77539 -0.40728,-0.825 -0.96523,5.92088 -1.24023,14.99023 l -0.5,16.48829 -9,2.69921 c -4.95,1.48379 -9.7875,2.72537 -10.75,2.75977 C 288.0995,160.99642 288,157.04761 288,91.5 V 22 h 6.08398 c 4.42223,0 5.96891,-0.341324 5.66602,-1.25 -0.27561,-0.82684 -2.58954,-1.25 -6.83398,-1.25 H 286.5 L 286,90.953125 285.5,162.4043 262,169.08398 238.5,175.76367 238.24414,96.382812 237.98828,17 h -6.99414 c -8.39729,0 -9.40088,1.773787 -1.24414,2.199219 L 235.5,19.5 v 78.498047 78.498043 l -14.5,4.19336 c -7.975,2.30605 -21.34566,6.09279 -29.71289,8.41407 l -15.21289,4.2207 -28.03711,-18.6582 L 120,156.00977 v -15.94532 c 0,-9.27936 -0.40721,-16.19816 -0.97461,-16.54883 -0.61397,-0.37945 -1.07685,5.41309 -1.25,15.64258 L 117.5,155.40234 113,156.74609 c -17.10793,5.10662 -62.638055,16.83968 -63.255859,16.30079 -0.41615,-0.363 -0.641145,-33.25966 -0.5,-73.103521 L 49.5,27.5 55.25,27.199219 C 63.409917,26.773621 62.401723,25 54,25 h -7 v 74.783203 74.783207 l -18.25,4.85547 c -19.7866815,5.26475 -20.014132,5.34261 -19.2988281,6.5 0.2662241,0.43074 8.4853781,-1.39284 18.2656251,-4.05274 C 37.497044,179.20925 45.8375,177.02462 46.25,177.01562 46.6625,177.00675 47,188.7 47,203 v 26 h 7 c 4,0 7,-0.42857 7,-1 0,-0.55556 -2.666667,-1 -6,-1 h -6 v -25.5 c 0,-14.025 0.188789,-25.5 0.419922,-25.5 0.231132,0 15.49387,-4.05 33.916016,-9 18.422152,-4.95 33.987952,-9 34.591792,-9 0.60384,0 13.90703,8.54767 29.5625,18.99414 l 28.46485,18.99219 29.27148,-8.4043 c 16.09991,-4.62236 29.62188,-8.0733 30.04688,-7.66992 0.425,0.40339 0.64999,9.25015 0.5,19.66016 L 235.5,218.5 l -5.75,0.30078 C 221.59008,219.22638 222.59828,221 231,221 h 7 v -21.32617 -21.32617 l 23.25,-6.67774 c 12.7875,-3.67239 23.5875,-6.67583 24,-6.67383 0.4125,0.002 0.75,13.27891 0.75,29.50391 V 224 h 7 c 8.40172,0 9.40992,-1.77362 1.25,-2.19922 L 288.5,221.5 l -0.26562,-28.70312 -0.26563,-28.70313 7.26563,-2.10156 c 3.99588,-1.15549 8.56949,-2.52658 10.16406,-3.04688 1.59458,-0.52029 3.67335,-0.94531 4.61914,-0.94531 0.94579,0 17.38069,7.2347 36.52148,16.07617 l 34.80078,16.07422 14.08008,-4.99414 c 7.74385,-2.74699 23.30508,-8.22231 34.58008,-12.16797 11.275,-3.94566 28.0914,-9.83321 37.36914,-13.08203 C 476.64688,156.65743 484.63438,154 485.11914,154 485.60869,154 486,167.78131 486,185 v 31 h -6 c -3.33333,0 -6,0.44444 -6,1 0,0.57143 3,1 7,1 h 7 v -32.53125 c 0,-27.9943 0.2092,-32.6121 1.5,-33.10742 1.94121,-0.74491 1.94121,-2.36133 0,-2.36133 -1.31863,0 -1.5,-8.22222 -1.5,-68 V 14 Z M 146.78906,18.96875 118.77734,19.234375 90.765625,19.5 82.402344,45 C 77.802224,59.025 74.142615,70.821725 74.269531,71.214844 74.396447,71.607964 80.35,76.169192 87.5,81.351562 c 7.15,5.182372 13.41033,9.177583 13.91211,8.876954 1.04727,-0.62744 0.57809,-1.020325 -13.769532,-11.50586 -5.853223,-4.277653 -10.635453,-8.327653 -10.626953,-9 C 77.024152,69.050308 80.511652,57.925 84.765625,45 L 92.5,21.5 h 26.35156 26.34961 l 1.3086,4 c 11.60535,35.476858 14.46411,44.911699 13.79101,45.513672 -0.44082,0.394246 -6.08828,4.599914 -12.55078,9.345703 -6.4625,4.745788 -11.75,9.133453 -11.75,9.75 0,1.285958 2.4072,-0.174331 12.5,-7.580078 3.85,-2.824995 7.56129,-5.475469 8.24805,-5.890625 0.69255,-0.418652 8.98223,1.719983 18.61328,4.802734 C 194.24229,87.484915 194,87.424493 194,86.070312 c 0,-0.511073 -7.3125,-3.259679 -16.25,-6.107421 -8.9375,-2.847742 -16.44526,-5.360588 -16.68359,-5.585938 -0.23834,-0.22535 0.0992,-0.942916 0.75,-1.59375 C 162.46724,72.13237 163,70.620346 163,69.423828 c 0,-2.106955 0.52606,-2.006667 16.6875,3.179688 14.90533,4.783262 18.93438,5.684376 17.06641,3.816406 -0.31882,-0.318815 -8.36604,-3.131315 -17.88282,-6.25 L 161.56836,64.5 l -1.71484,-5 c -0.94304,-2.75 -4.2679,-12.994658 -7.38868,-22.765625 z M 352.52344,43 c -1.23659,0 -1.52136,2.878465 -1.75,17.685547 L 350.5,78.369141 339.04102,85.0625 c -6.30268,3.681397 -11.62834,7.199435 -11.83399,7.816406 C 327.00137,93.495878 327.05689,94 327.33008,94 c 0.27318,0 7.13051,-3.850642 15.23828,-8.556641 l 14.74023,-8.55664 14.87891,8.55664 C 380.37027,90.149358 387.27609,94 387.5332,94 387.79031,94 388,93.582993 388,93.074219 388,92.565446 382.375,88.932453 375.5,85 L 363,77.849609 V 60.425781 C 363,49.475752 362.62841,43 362,43 c -0.62577,0 -1,6.100781 -1,16.300781 V 75.599609 H 357.5 354 V 59.300781 C 354,45.591741 353.76561,43 352.52344,43 Z m -139.3125,32.011719 c -2.13917,0.01866 -4.30025,0.500632 -6.24414,1.505859 -8.65825,4.477351 -8.34641,20.574375 0.48242,24.931642 6.04507,2.98341 13.33033,1.2603 16.52344,-3.906251 2.46374,-3.986425 2.71941,-12.303188 0.50976,-16.576172 -1.96347,-3.796944 -6.56531,-5.996132 -11.27148,-5.955078 z M 213.16602,78 c 3.07449,0 4.65667,0.670342 6.91015,2.923828 C 222.55072,83.398378 223,84.636977 223,89 c 0,4.363023 -0.44928,5.601622 -2.92383,8.076172 -4.03431,4.034318 -9.11803,4.034318 -13.15234,0 C 204.47251,94.624859 204,93.347498 204,89.154297 204,82.215602 207.46395,78 213.16602,78 Z M 109.89062,90 C 108.12874,90 108,90.924854 108,103.5 c 0,11.33333 0.24074,13.5 1.5,13.5 1.23333,0 1.5,-1.77778 1.5,-10 0,-5.5 0.3858,-10 0.85742,-10 0.47163,0 3.73082,4.5 7.24219,10 C 128.11847,121.12661 129,120.81487 129,103.5 129,92.305116 128.74902,90 127.5332,90 c -1.1797,0 -1.52162,2.100416 -1.75,10.75 L 125.5,111.5 118.64062,100.75 C 113.88089,93.289604 111.20328,90 109.89062,90 Z m 201.42579,0 c -8.70723,0 -13.32823,4.760633 -13.30079,13.70117 0.0183,5.96772 1.5491,9.08983 5.89649,12.01953 10.86107,7.31928 23.65093,-4.77592 18.54492,-17.537106 C 320.16843,92.463814 316.81427,90 311.31641,90 Z m 94.05664,0 c -5.46174,0 -8.62165,1.458361 -10.66993,4.925781 -4.19733,7.105539 -2.70464,16.816819 3.19532,20.787109 5.35767,3.60536 11.38719,2.7875 15.33008,-2.08008 C 415.38459,110.9711 415.54682,107 413.5,107 c -0.825,0 -1.5,0.69492 -1.5,1.54492 0,2.46141 -4.65917,6.45508 -7.53125,6.45508 -1.56508,0 -3.80038,-1.17928 -5.54492,-2.92383 -2.5146,-2.5146 -2.92383,-3.68365 -2.92383,-8.36523 0,-7.865496 2.5735,-10.918734 8.86133,-10.511721 3.69079,0.238906 4.83946,0.760262 5.625,2.550781 1.19165,2.716181 4.78136,3.184312 3.83398,0.5 C 412.88993,92.197113 409.74436,90 405.37305,90 Z M 422.5,90 c -1.25926,0 -1.5,2.166667 -1.5,13.5 0,11.33333 0.24074,13.5 1.5,13.5 1.16667,0 1.5,-1.33333 1.5,-6 v -6 h 7 7 v 6 c 0,4.66667 0.33333,6 1.5,6 1.25926,0 1.5,-2.16667 1.5,-13.5 0,-11.333333 -0.24074,-13.5 -1.5,-13.5 -1.16667,0 -1.5,1.333333 -1.5,6 v 6 h -7 -7 v -6 c 0,-4.666667 -0.33333,-6 -1.5,-6 z m -111.72461,2.908203 c 1.6093,-0.06198 3.24702,0.163126 4.67969,0.712891 4.67678,1.794649 6.1682,13.399666 2.29492,17.857426 -2.4838,2.85861 -7.88779,4.06551 -11.44727,2.55664 -5.57237,-2.36214 -6.92971,-13.61009 -2.24414,-18.59766 1.43292,-1.525266 4.03464,-2.425997 6.7168,-2.529297 z m 141.94336,11.201177 c -2.24884,-0.10845 -4.64491,0.88514 -5.80078,3.04492 -1.53622,2.87045 -0.004,3.79694 1.8125,1.0957 1.73945,-2.58733 4.4695,-2.92081 6.25976,-0.76367 1.58177,1.90591 0.56943,4.55371 -1.99609,5.22461 -2.67337,0.6991 -2.53062,2.07301 0.25586,2.46875 1.46475,0.20803 2.36345,1.12442 2.57617,2.625 0.66845,4.71534 -4.61546,7.10739 -7.05859,3.19531 C 447.3041,118.6566 446,118.3943 446,120.44336 c 0,0.79381 1.00028,2.14381 2.22266,3 2.64546,1.85295 3.8718,1.92724 7.15429,0.43164 3.08256,-1.40451 4.19052,-5.35804 2.3086,-8.23047 -0.99205,-1.5142 -1.1072,-2.61366 -0.39649,-3.74023 0.5535,-0.87738 0.70812,-2.78263 0.34375,-4.23438 -0.56287,-2.24265 -2.66522,-3.45212 -4.91406,-3.56054 z m 53.95703,109.1875 c -0.721,-0.004 -1.47199,0.20095 -2.37695,0.61328 -1.34664,0.6135 -2.81065,0.89113 -3.25391,0.61718 -0.83392,-0.51539 -2.09526,11.39237 -1.34765,12.72266 1.25013,2.2245 2.30273,0.10904 2.30273,-4.62695 0,-5.93485 1.57671,-8.20969 4.95117,-7.13867 1.7608,0.55885 2.04883,1.48329 2.04883,6.58398 0,3.28841 0.44571,5.93164 1,5.93164 0.56354,0 1,-2.82163 1,-6.46484 0,-5.56954 -0.29494,-6.62306 -2.12695,-7.60352 -0.78597,-0.42064 -1.47626,-0.63123 -2.19727,-0.63476 z m -241.71875,2.66406 c -0.81377,0.0284 -1.83107,0.30828 -3.09961,0.78711 -1.6774,0.63315 -3.08034,0.70088 -3.41211,0.16406 -0.8092,-1.30931 -4.83418,-1.1248 -6.24609,0.28711 -0.93333,0.93335 -1.19922,0.92066 -1.19922,-0.0586 0,-0.69247 -0.45,-0.98054 -1,-0.64062 -0.55,0.33992 -1,3.74105 -1,7.55859 0,3.96065 0.42938,6.94141 1,6.94141 0.55,0 1,-2.05525 1,-4.56641 0,-5.4494 1.38972,-8.43359 3.92773,-8.43359 2.35027,0 3.07227,1.89857 3.07227,8.08203 0,2.70501 0.45,4.91797 1,4.91797 0.55429,0 1,-2.64323 1,-5.93164 0,-5.04547 0.29692,-6.02895 1.99023,-6.56641 3.22152,-1.02247 4.00977,0.26575 4.00977,6.55664 0,3.29399 0.44555,5.94141 1,5.94141 0.57185,0 1,-3.01033 1,-7.03125 0,-5.90962 -0.60166,-8.09309 -3.04297,-8.00781 z" />
      <path
         style="fill-opacity:1.0;fill:#606060"
         d="m 249.75,230.427 c -1.34836,-1.36694 -0.89108,-13.53801 0.5,-13.30794 0.6875,0.1137 2.52045,-0.14862 4.07322,-0.58295 1.67237,-0.46778 3.23448,-0.37841 3.83213,0.21924 0.67856,0.67856 1.9381,0.65819 3.84662,-0.0622 4.53667,-1.71241 5.99803,0.26821 5.99803,8.12928 0,7.94901 -1.7391,7.29671 -2.19272,-0.82244 -0.28594,-5.11806 -0.48089,-5.5 -2.80728,-5.5 -2.36824,0 -2.51569,0.32939 -2.79772,6.25 -0.38141,8.00703 -2.20228,8.18779 -2.20228,0.21862 0,-4.66147 -0.37157,-6.17397 -1.63592,-6.65915 -3.10164,-1.19021 -4.84044,1.12302 -5.36408,7.13619 -0.275,3.15792 -0.8375,5.39953 -1.25,4.98134 z M 47,202.88342 v -26.11657 l -2.25,0.50493 c -1.2375,0.27771 -9.165881,2.35517 -17.618625,4.61658 C 11.90975,185.96067 6.8319825,186.90414 10,185.07143 c 0.825,-0.47727 9.4875,-3.0155 19.25,-5.64051 L 47,174.65818 V 99.829091 25 h 7 c 8.401723,0 9.409917,1.774498 1.25,2.200096 L 49.5,27.5 49.243491,100.81945 c -0.243257,69.53176 -0.165767,73.29237 1.5,72.79514 C 54.52573,172.4856 113.63291,156.68999 115.75,156.24246 117.96893,155.77341 118,155.54753 118,139.88342 118,129.96114 118.37531,124 119,124 c 0.62383,0 1.0166,6.11275 1.04413,16.25 l 0.0441,16.25 26.56532,17.5 c 14.61092,9.625 27.40438,17.90105 28.42991,18.39123 1.33295,0.63712 10.28306,-1.48743 31.39055,-7.4514 L 236,176.59721 236,97.798607 V 19 h -6 c -3.33333,0 -6,-0.444444 -6,-1 0,-0.571429 3,-1 7,-1 h 7 v 79.5 c 0,43.725 0.1125,79.48429 0.25,79.46509 0.1375,-0.0192 10.825,-3.06064 23.75,-6.75875 L 285.5,162.48249 286,90.991245 286.5,19.5 h 6.25 c 7.73333,0 8.35797,1.886548 0.7615,2.299904 L 288,22.099808 v 69.450096 c 0,54.887176 0.26211,69.452546 1.25,69.461786 0.6875,0.006 5.6375,-1.20511 11,-2.6923 L 310,155.61541 V 139.8077 C 310,130.20358 310.38272,124 310.97523,124 c 0.58197,0 1.08603,6.50364 1.25,16.12811 l 0.27477,16.12811 34.4609,15.91503 34.4609,15.91503 50.0391,-17.56013 c 27.5215,-9.65807 51.0516,-17.99284 52.2891,-18.5217 L 486,151.04288 V 83.521439 16 h -5.5 c -3.025,0 -5.5,-0.45 -5.5,-1 0,-0.564103 2.83333,-1 6.5,-1 h 6.5 v 67.916667 c 0,53.355553 0.268,68.041733 1.25,68.500003 1,0.46666 1,0.7 0,1.16666 -0.96287,0.44934 -1.25,8.14445 -1.25,33.5 V 218 h -7.05902 c -4.45136,0 -6.83071,-0.36941 -6.44098,-1 0.33992,-0.55 3.06648,-1 6.05902,-1 H 486 v -31.10841 l 0,-31.10841 -2.75,0.6779 c -1.5125,0.37284 -25.04003,8.53284 -52.28339,18.13334 l -49.53339,17.45545 -34.72395,-16.02493 C 327.61111,165.21122 311.15578,158 310.14189,158 c -1.01389,0 -3.14809,0.4257 -4.74267,0.94599 -1.59457,0.5203 -6.16859,1.8914 -10.16448,3.04689 l -7.26526,2.1009 0.26526,28.70311 L 288.5,221.5 l 5.75,0.2999 c 3.1625,0.16495 5.75,0.74801 5.75,1.29569 0,0.59191 -2.73775,0.87586 -6.75,0.7001 L 286.5,223.5 286.2349,194.25 C 286.07196,176.27313 285.59725,165 285.00318,165 c -0.73386,0 -32.56793,8.87673 -45.25318,12.61857 -1.59618,0.47083 -1.75,2.40012 -1.75,21.94882 V 221 h -7 c -4,0 -7,-0.42857 -7,-1 0,-0.55556 2.66667,-1 6,-1 h 6 v -19.44098 c 0,-10.69254 -0.34712,-19.65552 -0.77138,-19.91772 -0.42426,-0.26221 -13.94428,3.27344 -30.04449,7.85699 l -29.27311,8.33374 -27.6627,-18.56382 C 133.03384,167.05812 119.83396,158.50784 118.91526,158.26759 117.67468,157.94317 64.821584,171.38986 50.75,175.60995 49.142964,176.0919 49,178.21245 49,201.56739 V 227 h 5.440983 c 2.992541,0 5.719098,0.45 6.059017,1 0.389728,0.63059 -1.989616,1 -6.440983,1 H 47 Z m 453,18.05756 c 0,-4.07015 0.39168,-6.81694 0.92506,-6.48729 0.50879,0.31444 2.02687,0.0697 3.37351,-0.54387 1.80992,-0.82465 3.00301,-0.81879 4.57494,0.0225 1.83201,0.98046 2.12649,2.03334 2.12649,7.60288 0,3.64321 -0.43646,6.46482 -1,6.46482 -0.55429,0 -1,-2.6442 -1,-5.93261 0,-5.15879 -0.27542,-6.02003 -2.11151,-6.60278 -3.21117,-1.01919 -4.89985,1.44191 -5.03261,7.33458 C 501.67797,230.69601 500,229.01594 500,220.94098 Z M 448.22251,123.4433 c -1.22238,-0.85619 -2.22251,-2.20619 -2.22251,-3 0,-2.01655 0.88971,-1.80107 2.92099,0.70745 1.34627,1.66257 2.36113,1.99526 4.47109,1.46569 2.36025,-0.59238 2.68747,-1.1201 2.41872,-3.90075 -0.2374,-2.45621 -0.8422,-3.29116 -2.5608,-3.53524 -2.78648,-0.39574 -2.92842,-1.76978 -0.25505,-2.46888 2.56552,-0.6709 3.57625,-3.31839 1.99448,-5.2243 -1.79026,-2.15714 -4.5187,-1.8246 -6.25815,0.76273 -1.83623,2.7313 -3.34142,1.75858 -1.78344,-1.15255 1.55332,-2.9024 5.51184,-3.6815 8.55945,-1.68463 2.54484,1.66744 3.42731,5.89153 1.48199,7.09381 -0.63977,0.3954 -0.45626,1.41627 0.5,2.78152 2.08828,2.98144 1.90234,4.41114 -0.94383,7.2573 -2.8378,2.83781 -5.19085,3.09165 -8.32294,0.89785 z m -142.95282,-6.92589 c -9.18002,-3.99081 -9.87915,-20.281731 -1.07993,-25.164549 3.26411,-1.811305 10.42201,-1.653342 13.39654,0.295639 3.52374,2.308846 5.63795,6.897472 5.72122,12.41718 0.0825,5.46959 -1.93671,9.12771 -6.61185,11.97832 -3.74443,2.28312 -6.95694,2.41622 -11.42598,0.47341 z m 11.80723,-4.44049 C 319.5798,109.57405 320,108.38414 320,103.79943 c 0,-6.340737 -1.69994,-9.215267 -6.35906,-10.752915 -8.95713,-2.95612 -15.94094,7.671305 -11.14096,16.953445 3.03774,5.87434 9.81405,6.83985 14.57694,2.07696 z m 81.68565,4.35769 c -7.50038,-4.06966 -8.42152,-18.178019 -1.56362,-23.948565 5.42008,-4.560696 15.51867,-2.497868 17.08449,3.48983 0.75277,2.878611 -1.31567,2.516546 -3.86122,-0.675875 -1.63351,-2.048626 -3.03512,-2.7 -5.80978,-2.7 -4.70544,0 -7.59747,2.849552 -8.63161,8.50484 -1.49498,8.17543 2.2596,13.84222 9.19659,13.88042 2.74902,0.0151 6.82258,-3.93754 6.82258,-6.62012 0,-0.75083 0.675,-1.36514 1.5,-1.36514 3.79446,0 -0.27917,8.37877 -4.84797,9.97146 -3.968,1.38325 -6.61561,1.23952 -9.88946,-0.53685 z M 108,103.96862 c 0,-11.300406 0.22398,-13.117337 1.68616,-13.67843 1.04904,-0.402555 2.08814,3.93e-4 2.75,1.066412 0.58511,0.942399 3.76384,5.86019 7.06384,10.928428 l 6,9.21497 0.5,-10.41995 c 0.33944,-7.073945 0.90139,-10.552697 1.75,-10.833335 0.95894,-0.317126 1.25,2.749482 1.25,13.169955 0,17.51072 -0.79144,17.72367 -10.5,2.82527 l -7,-10.74194 -0.28383,10.75 c -0.22838,8.64958 -0.5703,10.75 -1.75,10.75 C 108.25295,117 108,114.75176 108,103.96862 Z M 421,103.5 c 0,-11.333333 0.24074,-13.5 1.5,-13.5 1.16667,0 1.5,1.333333 1.5,6 v 6 h 7 7 v -6 c 0,-4.666667 0.33333,-6 1.5,-6 1.25926,0 1.5,2.166667 1.5,13.5 0,11.33333 -0.24074,13.5 -1.5,13.5 -1.16667,0 -1.5,-1.33333 -1.5,-6 v -6 h -7 -7 v 6 c 0,4.66667 -0.33333,6 -1.5,6 -1.25926,0 -1.5,-2.16667 -1.5,-13.5 z M 207.44866,101.44854 C 203.21254,99.3579 200.76923,94.787854 200.76923,88.955108 200.76923,80.414962 205.76451,75 213.64276,75 221.0817,75 226,80.475185 226,88.756409 c 0,10.864635 -9.32596,17.245111 -18.55134,12.692131 z m 12.62826,-4.371617 C 222.52824,94.62561 223,93.346849 223,89.153648 223,82.103526 219.54327,77.986846 213.66111,78.031803 206.95934,78.083025 204,81.599334 204,89.511182 c 0,9.445873 9.65376,13.988898 16.07692,7.565741 z m 107.112,-4.143686 c 0.23118,-0.693536 5.79575,-4.332528 12.3657,-8.086651 L 351.5,78.020909 352.03504,60.260455 352.57008,42.5 352.78504,59.121816 353,75.743631 l 4,-0.104884 4,-0.104884 V 59.266932 C 361,49.088977 361.37432,43 362,43 c 0.62844,0 1,6.480415 1,17.441244 v 17.441244 l 12.5,7.196297 c 6.875,3.957963 12.5,7.584403 12.5,8.058756 C 388,93.611893 387.84523,94 387.65608,94 387.46692,94 380.68592,90.175 372.5872,85.5 364.48848,80.825 357.63509,77 357.35744,77 c -0.27764,0 -6.20915,3.313524 -13.18112,7.363386 -16.98393,9.86558 -17.50732,10.129622 -16.9874,8.569851 z M 136,90.124538 c 0,-0.546422 5.62223,-5.118165 12.49385,-10.159427 11.55888,-8.480003 12.44489,-9.361014 11.83958,-11.772764 -0.35985,-1.433757 -3.8619,-12.526072 -7.78234,-24.649589 L 145.42302,21.5 118.90452,21.23403 92.386018,20.968061 84.316221,45.73403 76.246424,70.5 89.134375,79.996279 c 7.088374,5.222953 12.422565,9.651407 11.853765,9.841008 -0.78678,0.26226 -21.736864,-13.955197 -26.259242,-17.820436 -0.424106,-0.36248 3.089186,-12.439559 7.807314,-26.837953 L 91.114629,19 l 27.733751,0 27.73374,0 7.45894,22.75 L 161.5,64.5 178.00091,70 c 19.50535,6.501425 19.65198,6.557979 18.96454,7.314312 -0.294,0.323467 -7.944,-1.812064 -17,-4.745624 -16.00992,-5.186183 -16.47502,-5.274748 -16.81127,-3.201217 -0.1902,1.172891 -0.81682,2.705904 -1.3925,3.406695 -0.57567,0.700791 -0.87006,1.426784 -0.65418,1.613317 C 161.32337,74.574017 168.7,77.099649 177.5,80 c 16.94322,5.584237 17.16087,5.672459 16.24761,6.585719 -0.32214,0.322145 -8.23078,-1.927855 -17.57475,-5 C 166.82888,78.513573 158.75134,76 158.22275,76 c -0.52858,0 -5.18244,3.062048 -10.3419,6.804551 C 136.46499,91.085231 136,91.371718 136,90.124538 Z M 348.5554,33.75 c -10.43362,-10.450969 -0.2767,-28.7213474 13.13014,-23.618665 4.82788,1.837504 7.49476,5.689636 8.0678,11.653428 C 370.65235,31.140974 365.54715,37 356.49571,37 c -3.9655,0 -5.20027,-0.505396 -7.94031,-3.25 z M 364.25,30.887822 c 3.21309,-3.41099 3.70563,-9.139162 1.2021,-13.980443 -2.81806,-5.449544 -9.99567,-6.517654 -14.37427,-2.139056 -5.66595,5.665952 -4.50154,15.866444 2.13474,18.700817 4.26826,1.822987 7.62903,1.037006 11.03743,-2.581318 z"
         id="path23" />
      <path
         style="fill-opacity:1.0;fill:#494949"
         d="M 249.75,230.42608 C 248.65538,229.31772 248.8306,217 249.94098,217 c 0.51754,0 1.11339,0.3375 1.32412,0.75 0.69582,1.36213 -0.74916,13.45163 -1.5151,12.67608 z m 8.05157,-5.4863 c -0.27641,-5.82663 -0.51018,-6.41164 -2.80157,-7.01079 -2.062,-0.53917 -2.20709,-0.7789 -0.82814,-1.36835 0.91952,-0.39305 2.59666,-0.21971 3.72697,0.38521 1.53529,0.82167 2.56768,0.77976 4.08159,-0.1657 3.73649,-2.33347 5.47947,0.01 5.82051,7.82424 0.19946,4.57077 -0.0341,6.55846 -0.69272,5.89561 -0.5465,-0.55 -1.13192,-3.475 -1.30093,-6.5 -0.28594,-5.11806 -0.48089,-5.5 -2.80728,-5.5 -2.32639,0 -2.52134,0.38194 -2.80728,5.5 -0.44275,7.92458 -2.0302,8.54849 -2.39115,0.93978 z M 47,202.88342 v -26.11657 l -2.25,0.4751 c -1.2375,0.26131 -9.286612,2.33877 -17.886915,4.61658 -8.600303,2.27781 -16.250303,4.12779 -16.9999996,4.11106 -3.2154537,-0.0717 2.4231496,-1.99115 17.6369146,-6.00373 8.8,-2.32097 16.784649,-4.43952 17.743664,-4.70788 1.635332,-0.45761 1.759589,-5.1249 2,-75.12295 L 47.5,25.5 53.395747,25.195747 c 3.242661,-0.167339 6.370161,0.170161 6.95,0.75 C 61.084751,26.684751 59.546038,27 55.2,27 H 49 v 73.61663 73.61663 l 2.182585,-0.57076 c 1.200422,-0.31391 16.725422,-4.49709 34.5,-9.29595 L 118,155.64135 V 139.82068 C 118,129.94023 118.37547,124 119,124 c 0.62517,0 1.00428,6.09094 1.01141,16.25 l 0.0114,16.25 27.23663,18 c 14.98014,9.9 28.01754,18.14282 28.97199,18.31738 0.95445,0.17455 14.79283,-3.38736 30.75197,-7.91537 L 236,176.66928 236,97.834638 V 19 l -5.44098,0 c -2.99254,0 -5.7191,-0.45 -6.05902,-1 -0.38803,-0.627843 1.82295,-1 5.94098,-1 L 237,17 l 0,78.940983 c 0,43.417537 0.38158,79.176817 0.84796,79.465047 0.46638,0.28824 11.49138,-2.49685 24.5,-6.1891 L 286,162.50377 V 91.251883 20 l 7.25,0.168108 7.25,0.168107 -6,0.581893 -6,0.581892 -0.2568,69.75 c -0.24056,65.34088 -0.1483,69.75 1.45956,69.75 0.944,0 5.89706,-1.18642 11.0068,-2.6365 L 310,155.727 V 139.8635 C 310,130.48665 310.38931,124 310.95209,124 c 0.57151,0 0.87131,6.38879 0.75,15.98246 l -0.20209,15.98246 14,6.43596 c 7.7,3.53978 23.38919,10.77022 34.86487,16.06766 l 20.86488,9.6317 10.13512,-3.44891 c 5.57432,-1.89691 17.89763,-6.19446 27.38513,-9.55012 9.4875,-3.35567 24.7875,-8.76134 34,-12.0126 9.2125,-3.25127 20.35,-7.18877 24.75,-8.75 l 8,-2.83861 0.25699,-67.75 0.25699,-67.75 h -5.50699 C 477.47814,16 475,15.55 475,15 c 0,-0.564103 2.83333,-1 6.5,-1 h 6.5 v 67.916667 c 0,53.355553 0.268,68.041733 1.25,68.500003 1,0.46666 1,0.7 0,1.16666 -0.96287,0.44934 -1.25,8.14445 -1.25,33.5 V 218 h -6.5 c -3.66667,0 -6.5,-0.4359 -6.5,-1 0,-0.55 2.475,-1 5.5,-1 h 5.5 v -31.48596 l 0,-31.48597 -5.25,1.93452 c -2.8875,1.06398 -13.8,4.91906 -24.25,8.56683 -10.45,3.64777 -31.10466,10.90395 -45.89924,16.12484 -14.79459,5.22089 -27.67198,9.55073 -28.61643,9.62187 -0.94444,0.0712 -17.02524,-6.93688 -35.7351,-15.57339 -18.70986,-8.63651 -35.08247,-15.69291 -36.38358,-15.6809 -1.30111,0.012 -6.64065,1.2717 -11.86565,2.79932 l -9.5,2.77748 -0.2651,29.20068 L 287.96979,222 h 6.21511 c 4.35662,0 5.89985,0.31525 5.16085,1.05425 -0.57984,0.57984 -3.70734,0.91734 -6.95,0.75 L 286.5,223.5 286.29461,194.51487 c -0.12095,-17.07041 -0.59301,-29.11434 -1.14838,-29.29946 -1.06641,-0.35547 -43.67547,11.54772 -46.43216,12.97121 -1.6333,0.84339 -1.7759,2.69087 -1.66863,21.61779 l 0.1173,20.69559 -6.58137,0.29569 C 226.48023,220.97995 224,220.6973 224,220.04569 224,219.43429 226.49189,219 230,219 h 6 v -20 c 0,-11 -0.3375,-19.99915 -0.75,-19.99811 -0.4125,0.001 -13.35,3.62294 -28.75,8.04868 -15.4,4.42574 -28.675,8.10884 -29.5,8.18469 -0.825,0.0758 -13.875,-8.128 -29,-18.23075 -15.125,-10.10276 -28.4,-18.53787 -29.5,-18.74469 -1.1,-0.20682 -7.85,1.18957 -15,3.10309 -18.546649,4.96355 -27.667949,7.39369 -38.5,10.25733 -5.225,1.38132 -10.9625,2.96675 -12.75,3.52318 L 49,176.1551 V 201.57755 227 h 5.440983 c 2.992541,0 5.719098,0.45 6.059017,1 0.389728,0.63059 -1.989616,1 -6.440983,1 H 47 Z m 453.1169,18.58087 c -0.1056,-6.35574 0.0764,-7.05211 1.8831,-7.20536 8.60823,-0.73016 8.9623,-0.41525 8.98469,7.99107 0.0207,7.76697 -1.81315,7.34771 -2.18697,-0.5 -0.26013,-5.46078 -0.56132,-6.28766 -2.38523,-6.54826 -2.89977,-0.41431 -4.23358,1.57681 -5.27985,7.88176 l -0.89883,5.4165 z m -50.7278,-97.45332 c -2.07887,-0.83081 -3.91123,-3.82217 -2.93764,-4.79576 0.27419,-0.27419 1.33386,0.53305 2.35482,1.79388 1.42367,1.75817 2.4627,2.14022 4.45835,1.63934 4.71949,-1.18452 4.39236,-7.64843 -0.38707,-7.64843 -2.73231,0 -2.2992,-1.67736 0.62244,-2.41064 2.50063,-0.62762 3.03317,-2.03636 1.89301,-5.00757 -0.88438,-2.30467 -5.0325,-1.93457 -6.81331,0.60788 -1.87011,2.66997 -3.17714,1.79517 -1.63186,-1.09222 2.20558,-4.12116 9.138,-3.55306 10.53983,0.86372 0.34272,1.0798 0.0837,2.97127 -0.57567,4.20326 -0.88965,1.66232 -0.90393,2.33826 -0.0554,2.6211 1.54207,0.51403 1.4591,6.71701 -0.1066,7.96964 -2.04141,1.63322 -5.1076,2.15633 -7.3609,1.2558 z M 305,116.24845 c -4.89083,-2.44325 -7.21452,-7.34841 -6.70944,-14.16321 0.34878,-4.70592 0.87774,-5.851366 4.04069,-8.749998 C 305.20794,90.698953 306.82238,90 310.03497,90 c 8.34585,0 12.96816,4.885874 12.96129,13.70034 -0.005,6.03506 -2.84995,10.92275 -7.48604,12.85984 -4.46684,1.86636 -6.25641,1.81328 -10.51022,-0.31173 z m 11.34107,-3.3021 c 6.05543,-4.7632 5.4091,-15.450688 -1.16603,-19.281045 -2.88935,-1.683199 -3.83842,-1.783127 -7.24417,-0.762738 C 303.16621,94.330092 301,97.963338 301,104.52726 c 0,3.78026 0.53471,5.16129 2.92308,7.54966 3.56563,3.56564 8.54695,3.9144 12.41799,0.86943 z m 82.97364,3.63766 C 391.20168,112.934 390.50103,96.965035 398.21679,91.560704 401.76621,89.0746 408.6255,89.534595 411.54545,92.454545 413.96142,94.87051 414.84717,98 413.11501,98 c -0.48674,0 -1.5965,-1.085896 -2.46612,-2.413102 -2.88069,-4.396503 -9.94687,-4.223429 -13.32797,0.326445 -3.26528,4.394017 -2.13118,14.705297 1.93027,17.550047 C 404.05862,116.83065 412,113.93289 412,108.81144 412,107.81515 412.675,107 413.5,107 c 2.39857,0 1.73906,3.70326 -1.25,7.01895 -3.28084,3.63936 -8.32437,4.63949 -12.93529,2.56506 z M 108.8088,104.75 c -0.16984,-6.7375 -0.14816,-12.8125 0.0482,-13.5 0.8214,-2.87613 3.0197,-0.653193 9.64301,9.75108 l 7,10.99599 0.5,-10.6683 c 0.34087,-7.272958 0.89783,-10.799933 1.75,-11.081873 0.95895,-0.317269 1.25,2.749203 1.25,13.169773 0,17.48358 -0.87822,17.75585 -10,3.10023 -3.575,-5.74382 -6.8375,-10.45987 -7.25,-10.480106 C 111.3375,96.016557 111,100.725 111,106.5 c 0,5.89602 -0.41269,10.5 -0.9412,10.5 -0.52024,0 -1.07931,-5.47892 -1.25,-12.25 z M 421,103.5 c 0,-10.48658 0.29086,-13.57072 1.25,-13.254329 0.75339,0.248522 1.36915,2.665345 1.5499,6.083333 L 424.09981,102 H 431.0499 438 v -6 c 0,-4.666667 0.33333,-6 1.5,-6 1.25926,0 1.5,2.166667 1.5,13.5 0,11.13619 -0.25429,13.5 -1.45228,13.5 -1.08305,0 -1.52798,-1.58905 -1.75,-6.25 L 437.5,104.5 l -6.70113,-0.29458 -6.70112,-0.29457 -0.29888,6.21521 c -0.1854,3.85563 -0.77343,6.37188 -1.54887,6.6279 C 421.29084,117.07064 421,113.98677 421,103.5 Z m -212.5,-1.90251 c -5.578,-2.462194 -7,-5.058213 -7,-12.779317 0,-6.773868 0.10607,-7.069061 3.73531,-10.395012 4.26416,-3.907805 8.72618,-4.48433 14.28629,-1.845888 9.12564,4.330401 8.4496,21.029853 -1.01138,24.982907 -4.19262,1.75179 -6.10993,1.75893 -10.01022,0.0373 z m 11.91111,-4.674215 c 3.19059,-3.791808 3.61788,-12.02883 0.81299,-15.672433 -5.09167,-6.614166 -16.54214,-3.413633 -17.23957,4.818651 C 203.18837,95.467075 206.30011,100 213.54747,100 c 3.54577,0 4.71623,-0.524672 6.86364,-3.076725 z m 106.74278,-3.884942 c 0.22734,-0.682032 5.79822,-4.325738 12.37973,-8.097126 L 351.5,78.084139 352.03504,60.292069 352.57008,42.5 352.78504,59.121816 353,75.743631 l 4,-0.104884 4,-0.104884 V 59.266932 C 361,49.345121 361.38106,43 361.97693,43 c 0.58867,0 1.08545,7.012119 1.25,17.643834 l 0.27307,17.643835 11,6.409187 c 6.05,3.525053 11.67125,6.801576 12.49167,7.281163 0.82042,0.479586 1.24896,1.114683 0.95232,1.411326 -0.29664,0.296643 -6.8179,-3.09611 -14.49167,-7.539451 -7.67378,-4.44334 -14.5,-8.294754 -15.16938,-8.558698 -0.66939,-0.263943 -7.64439,3.226029 -15.5,7.755493 -7.85562,4.529464 -14.67882,8.45956 -15.16267,8.733546 -0.48385,0.273986 -0.69373,-0.05987 -0.46638,-0.741902 z M 88.271708,81.670784 C 82.096148,77.176853 76.420178,72.825 75.658443,72 74.467322,70.709954 75.450807,66.893593 82.684886,44.734266 L 91.096303,18.968532 118.79815,19.234266 146.5,19.5 l 7.3998,22.609123 7.39981,22.609124 18.10019,5.886996 c 9.95511,3.237848 17.2002,6.012589 16.1002,6.166091 -1.1,0.153502 -8.73313,-1.982252 -16.96252,-4.74612 C 170.3081,69.261346 163.19027,67 162.72009,67 c -0.47017,0 -0.55898,0.932249 -0.19734,2.071664 0.40573,1.278363 0.0568,2.735487 -0.91132,3.805206 -1.46981,1.624126 -0.49718,2.072298 15.40987,7.100616 9.33828,2.95189 16.9787,5.739547 16.9787,6.194793 0,1.26985 -0.391,1.168044 -17.99912,-4.686483 C 166.92637,78.468608 158.9339,76 158.23985,76 c -0.69405,0 -5.56352,3.176979 -10.82103,7.059953 -5.25751,3.882974 -10.05105,6.895972 -10.65231,6.695552 -0.60126,-0.200421 4.60531,-4.536581 11.57015,-9.635912 C 155.3015,75.020262 161,70.501605 161,70.078133 161,69.65466 157.79003,59.451342 153.86672,47.404092 149.94342,35.356841 146.51596,24.4875 146.25015,23.25 l -0.4833,-2.25 -26.68019,0 -26.680183,0 -7.841379,23.75 c -4.312759,13.0625 -8.018896,24.225292 -8.235861,24.806205 -0.216965,0.580912 5.222808,5.080912 12.088386,10 11.191671,8.018672 14.149157,10.609281 11.832377,10.364579 -0.4125,-0.04357 -5.802731,-3.75607 -11.978292,-8.25 z M 350.76257,35.434612 C 346.95399,33.368095 345,29.044765 345,22.684519 c 0,-6.326767 2.36184,-10.102107 7.72058,-12.341129 13.21634,-5.5221383 23.29135,12.844677 12.80055,23.335479 -2.76498,2.764981 -4.04957,3.314426 -7.67113,3.281093 -2.3925,-0.02202 -5.58184,-0.708428 -7.08743,-1.52535 z m 10.69774,-1.982804 C 365.41006,31.57753 367,28.398684 367,22.376024 367,11.332996 353.12697,7.890629 348.43874,17.770348 c -3.49661,7.36854 1.13605,16.824441 8.41013,17.166266 0.74188,0.03486 2.81703,-0.6333 4.61144,-1.484806 z"
         id="path22" />
      <path
         style="fill-opacity:1.0;fill:#333333"
         d="m 250.14702,223.55 c -0.0809,-3.8225 0.23026,-6.5225 0.69137,-6 0.46111,0.5225 0.52727,3.65 0.14702,6.95 l -0.69137,6 z m 7.77264,0.99101 c -0.37879,-5.3787 -0.66312,-6.01616 -2.91966,-6.54604 -2.17233,-0.51011 -2.26113,-0.67885 -0.67756,-1.28742 1.00235,-0.38521 2.68985,-0.23616 3.75,0.33122 1.33489,0.71441 2.54251,0.70249 3.92756,-0.0388 1.42099,-0.76049 2.57901,-0.76049 4,0 1.70263,0.91122 1.975,1.99442 1.83189,7.28518 l -0.16811,6.21482 -0.58189,-6 c -0.51861,-5.34751 -0.83911,-6.03639 -2.94723,-6.33466 -3.33629,-0.47205 -4.49462,1.11475 -5.18956,7.10921 L 258.33931,230.5 Z M 47.766603,202.75 c -0.204644,-20.14944 -0.552982,-26.19327 -1.498859,-26.00591 -1.134548,0.22473 -9.536307,2.42528 -27.999361,7.33347 C 14.290994,185.1349 10.503494,186 9.8517166,186 6.9622954,186 10.606698,184.7346 23.093245,181.40232 30.46696,179.43449 38.975,177.07645 42,176.16223 L 47.5,174.5 47.756366,99.75 48.012732,25 h 5.993634 C 57.335455,25 60,25.444562 60,26 c 0,0.55 -2.475,1 -5.5,1 H 49 v 73.5 c 0,40.425 0.3375,73.49705 0.75,73.49345 0.4125,-0.004 5.475,-1.30415 11.25,-2.89012 5.775,-1.58596 20.175,-5.46351 32,-8.61676 11.825,-3.15326 22.2875,-5.95519 23.25,-6.22651 1.57286,-0.44339 1.75,-2.10708 1.75,-16.43571 0,-10.37361 0.34931,-15.7265 1,-15.32435 0.59371,0.36693 1,6.62539 1,15.40403 0,12.82232 -0.23241,14.99269 -1.75,16.34238 -0.9625,0.85602 -16.825,5.57493 -35.25,10.48647 l -33.5,8.93007 v 25.87304 25.87303 l 5.25,-0.27865 C 57.997853,226.95799 60,227.26136 60,227.92586 60,228.5717 57.614191,229 54.016603,229 H 48.033207 Z M 500.17743,221 c -0.067,-4.30959 0.22674,-6.86192 0.69055,-6 0.44394,0.825 0.49641,4.2 0.11661,7.5 l -0.69055,6 z m 8.62029,0.75 -0.29772,-6.25 -3.24532,0.14694 c -1.78493,0.0808 -2.99587,-0.25668 -2.69099,-0.75 0.80824,-1.30776 5.83606,-1.09719 7.23631,0.30306 1.41552,1.41552 1.63584,12.8 0.24772,12.8 -0.52376,0 -1.08626,-2.8125 -1.25,-6.25 z M 292.75,223.26101 287,222.90019 V 193.9501 C 287,165.4569 286.96773,165 284.95556,165 c -1.12444,0 -10.46194,2.43197 -20.75,5.40437 -10.28806,2.9724 -20.61806,5.91475 -22.95556,6.53854 L 237,178.07709 V 199.53854 221 h -6 c -3.33333,0 -6,-0.44444 -6,-1 0,-0.55 2.475,-1 5.5,-1 h 5.5 v -20 c 0,-12.86133 -0.36222,-20 -1.01482,-20 -0.55815,0 -12.65532,3.3447 -26.88261,7.43266 -14.22728,4.08797 -27.41501,7.72293 -29.30607,8.07769 -3.2087,0.60196 -5.30309,-0.60502 -31.36739,-18.07678 C 115.86745,155.27674 118.32224,157 119.746,157 c 0.59363,0 13.38113,8.18496 28.41666,18.1888 15.03554,10.00383 28.03514,18.13856 28.888,18.07716 0.85286,-0.0614 12.55286,-3.25196 26,-7.09013 13.44714,-3.83818 26.36455,-7.49098 28.70535,-8.11733 l 4.25601,-1.13883 L 235.75601,97.709837 235.5,18.5 l -6,-0.581892 -6,-0.581893 6.75,-0.168107 L 237,17 v 79.031385 c 0,62.312795 0.26443,79.128825 1.25,79.491975 0.6875,0.25333 11.825,-2.598 24.75,-6.3363 l 23.5,-6.79689 0.25666,-71.195087 L 287.01333,20 l 6.24333,0.189084 6.24334,0.189085 -5.75,0.360819 -5.75,0.36082 v 69.891079 c 0,38.440093 0.3375,70.091033 0.75,70.335423 0.4125,0.24439 5.35162,-0.91037 10.97583,-2.56613 l 10.22583,-3.01049 0.30073,-16.12484 0.30074,-16.12485 0.22344,16.04168 0.22343,16.04168 5.25,2.56845 c 2.8875,1.41265 18.70826,8.78689 35.15724,16.3872 l 29.90723,13.81874 5.09277,-1.7678 c 4.9733,-1.72633 21.52446,-7.56027 55.34276,-19.50718 9.2125,-3.25448 22.93534,-8.09198 30.49521,-10.75 L 485.99042,151.5 485.99521,83.75 486,16 h -5.5 c -3.167,0 -5.5,-0.444424 -5.5,-1.047717 0,-0.65029 2.37079,-0.934786 6.25,-0.75 L 487.5,14.5 l 0.2571,67.445371 c 0.19964,52.372379 0.53487,67.642209 1.5,68.326129 0.98954,0.70123 0.9881,0.98415 -0.007,1.38796 -0.96441,0.39133 -1.25,8.02771 -1.25,33.42387 V 218 h -6.5 c -3.66667,0 -6.5,-0.4359 -6.5,-1 0,-0.55 2.475,-1 5.5,-1 h 5.5 v -31.46502 l 0,-31.46502 -18.75,6.54845 c -10.3125,3.60164 -28.2,9.8461 -39.75,13.87657 -11.55,4.03047 -26.0999,9.16792 -32.33311,11.41657 C 388.93368,187.1602 382.97689,189 381.9296,189 380.25603,189 352.24825,176.50485 322.5,162.48659 317,159.89483 311.375,157.8176 310,157.87052 c -1.375,0.0529 -6.775,1.36341 -12,2.91217 l -9.5,2.81595 -0.2651,29.20068 L 287.96979,222 h 5.51511 c 3.0333,0 5.5151,0.45 5.5151,1 0,0.55 -0.1125,0.91491 -0.25,0.81092 -0.1375,-0.104 -2.8375,-0.35146 -6,-0.54991 z M 450,124.29602 C 447.18643,123.30923 444.7454,119 447,119 c 0.55,0 1,0.62686 1,1.39301 0,3.09689 6.44076,3.52045 8.04182,0.52885 1.48321,-2.77141 0.59963,-4.71259 -2.76619,-6.07719 L 450.5,113.71935 453,113.06459 c 1.95491,-0.512 2.5,-1.29904 2.5,-3.60967 0,-2.46747 -0.44587,-3.00637 -2.70288,-3.2668 -1.87252,-0.21606 -3.09848,0.32157 -3.99055,1.75 -1.78243,2.85413 -3.0062,2.59412 -1.66323,-0.35337 1.28571,-2.82183 4.12519,-3.81335 7.37841,-2.57648 2.86825,1.0905 3.95461,4.23313 2.44101,7.06132 -0.83025,1.55134 -0.84559,2.44758 -0.0554,3.23777 1.48315,1.48315 1.38317,6.21531 -0.15736,7.44781 -1.77799,1.42247 -4.9942,2.15665 -6.75,1.54085 z m -142.74152,-7.00064 c -1.23283,-0.23774 -3.57822,-1.76897 -5.21198,-3.40273 -5.46728,-5.46728 -5.26967,-14.869482 0.43237,-20.571519 C 305.18497,90.615029 306.57699,90 309.99571,90 c 5.31324,0 9.32581,2.354 11.38958,6.681774 3.63454,7.621706 0.84149,17.072046 -5.87507,19.878406 -3.47997,1.45402 -4.19421,1.51766 -8.25174,0.7352 z m 10.2207,-4.68365 C 326.30387,103.78704 316.903,87.86184 306.15113,93.42185 302.09877,95.517406 301,97.776177 301,104.01118 c 0,4.35067 0.45017,5.59284 2.92308,8.06574 3.85611,3.85611 9.9927,4.09821 13.5561,0.53481 z m 81.8418,3.77498 c -8.0478,-3.96883 -8.62408,-19.681966 -0.90728,-24.73821 3.86778,-2.534267 10.17882,-2.146886 13.13175,0.806045 C 413.64557,94.554658 414.9077,98 413.57692,98 c -0.23269,0 -1.77307,-1.35 -3.42307,-3 -7.17607,-7.176071 -16.80942,0.361526 -14.71696,11.51527 1.7921,9.55275 13.47713,11.90732 16.47105,3.31896 0.76304,-2.18885 1.44363,-2.88266 2.14235,-2.18394 1.66006,1.66006 -0.62454,6.1196 -4.27536,8.34551 -3.9229,2.39179 -6.2223,2.47777 -10.45395,0.39091 z M 109,103.5 c 0,-8.286636 0.38418,-13.5 0.99484,-13.5 0.54716,0 4.24735,4.914639 8.22264,10.92142 3.97529,6.00678 7.57761,10.70522 8.00516,10.44098 C 126.65019,111.09816 127,106.18352 127,100.44098 127,94.146994 127.39718,90 128,90 c 0.61728,0 1,5.166667 1,13.5 0,11.45883 -0.23164,13.5 -1.53204,13.5 -0.85185,0 -4.51469,-4.65821 -8.25,-10.49194 C 115.52308,100.73749 112.1625,96.012489 111.75,96.008057 111.3375,96.003626 111,100.725 111,106.5 c 0,6.33333 -0.39683,10.5 -1,10.5 -0.61728,0 -1,-5.16667 -1,-13.5 z m 312,0 c 0,-7.860608 0.39689,-13.5 0.9501,-13.5 0.52255,0 1.08505,2.5875 1.25,5.75 l 0.2999,5.75 7.19882,0.29278 7.19882,0.29277 0.30118,-5.713769 c 0.18192,-3.451353 0.79613,-5.877041 1.55118,-6.12611 C 440.70914,89.92928 441,93.01342 441,103.5 c 0,10.48677 -0.29084,13.57064 -1.25,13.25396 -0.77539,-0.256 -1.36346,-2.77189 -1.54883,-6.62615 l -0.29883,-6.21346 -7.20117,0.29283 L 423.5,104.5 l -0.29772,6.25 c -0.16374,3.4375 -0.72624,6.25 -1.25,6.25 C 421.39627,117 421,111.38236 421,103.5 Z M 208,101.29785 C 200.30787,97.34662 198.58563,84.952831 204.8572,78.681257 207.64318,75.895282 208.70642,75.5 213.41424,75.5 c 6.07914,0 8.95027,1.846391 11.22378,7.217881 C 229.79594,94.904205 219.00735,106.95202 208,101.29785 Z m 11.52599,-2.906833 c 3.32931,-2.181448 4.8811,-8.165474 3.47329,-13.393691 -2.66162,-9.884485 -16.3107,-9.981954 -18.9621,-0.13541 C 201.81124,93.12845 205.87398,100 212.98743,100 c 2.24562,0 5.18797,-0.724042 6.53856,-1.608983 z M 381.45179,90.339 C 378.1783,88.364081 371.5625,84.526219 366.75,81.810419 c -8.76222,-4.944717 -10.2723,-6.153697 -7,-5.604256 1.59244,0.267382 1.79833,-1.236742 2.28677,-16.706163 l 0.53677,-17 0.21323,17.737455 0.21323,17.737456 3.75,2.35891 c 2.0625,1.297401 7.575,4.511733 12.25,7.142961 9.54582,5.372669 9.50885,5.347704 8.86845,5.988099 -0.25568,0.255685 -3.14318,-1.150961 -6.41666,-3.125881 z M 329.5,91.104308 c 1.65,-1.024099 7.3875,-4.417768 12.75,-7.541488 L 352,77.883331 352.21323,60.191665 352.42646,42.5 l 0.53677,17 c 0.5148,16.304095 0.61864,16.985874 2.53677,16.654931 1.1,-0.189788 1.77366,-0.113447 1.49702,0.169646 -1.34073,1.372016 -28.24906,16.673244 -29.29533,16.658576 -0.66093,-0.0093 0.14831,-0.854746 1.79831,-1.878845 z M 87.15786,80.766797 C 76.081549,72.637925 74.859974,71.441819 75.247202,69.104469 75.922656,65.027356 90.674521,20.925479 91.708804,19.891196 92.242563,19.357437 103.99493,19.079363 119.51291,19.233321 L 146.39246,19.5 l 7.37019,22.637293 7.37019,22.637293 18.02592,5.831926 c 9.91426,3.207559 17.53923,5.994157 16.94439,6.19244 -0.59485,0.198282 -8.17985,-1.925366 -16.85556,-4.719219 C 170.57189,69.28588 163.13345,67 162.71774,67 c -0.41571,0 -0.48442,1.081455 -0.15267,2.403233 0.43076,1.716292 0.0813,2.695295 -1.22262,3.424997 -1.00418,0.561971 -1.60454,1.218053 -1.33412,1.457962 0.27042,0.239909 7.91667,2.829005 16.99167,5.753546 17.29147,5.572409 17.60299,5.690608 16.88645,6.407148 -0.24579,0.245787 -8.04129,-2.004213 -17.32333,-5 C 167.28108,78.451099 159.07854,76 158.33527,76 c -0.74328,0 -5.43161,2.952104 -10.41852,6.560231 -4.9869,3.608127 -9.82077,6.824358 -10.74192,7.147179 -2.62919,0.921406 -0.71733,-0.672461 12.07517,-10.066737 6.4625,-4.745788 11.75,-9.120988 11.75,-9.722665 0,-0.601678 -3.47147,-11.85437 -7.71437,-25.005984 L 145.57125,21 118.87338,21 92.17552,21 84.444427,44.75 c -4.252102,13.0625 -7.913753,24.244784 -8.137004,24.84952 -0.223251,0.604736 5.025933,5.050877 11.664854,9.880313 6.638921,4.829436 12.312643,9.172153 12.608263,9.65048 1.28865,2.085087 -1.851894,0.128249 -13.42268,-8.363516 z M 350.76257,35.492004 c -3.71918,-2.095979 -5.76551,-6.436673 -5.74783,-12.192344 0.0269,-8.746912 4.58165,-13.6678832 12.53945,-13.547581 3.6737,0.055537 5.26449,0.658087 7.57072,2.86759 5.77189,5.529823 6.22441,14.719429 1.01209,20.553031 -2.22585,2.491154 -3.70586,3.159036 -7.69639,3.473132 -3.23859,0.25491 -5.88364,-0.142578 -7.67804,-1.153828 z m 10.77591,-1.943635 C 365.54094,31.876032 367,28.886497 367,22.357977 c 0,-7.959622 -6.68637,-12.328714 -14.387,-9.400938 -7.68787,2.92292 -7.06051,17.844751 0.887,21.097604 2.91044,1.191221 4.16489,1.112213 8.03848,-0.506274 z"
         id="path21" />
    </g>
  </g>
</svg>
