<?xml version="1.0" encoding="UTF-8" standalone="no"?>
<svg
   width="4850"
   height="3134"
   xml:space="preserve"
   overflow="hidden"
   version="1.1"
   id="svg2"
   sodipodi:docname="sio2.svg"
   inkscape:version="1.4.2 (f4327f4, 2025-05-13)"
   xmlns:inkscape="http://www.inkscape.org/namespaces/inkscape"
   xmlns:sodipodi="http://sodipodi.sourceforge.net/DTD/sodipodi-0.dtd"
   xmlns="http://www.w3.org/2000/svg"
   xmlns:svg="http://www.w3.org/2000/svg"><defs
     id="defs2" /><sodipodi:namedview
     id="namedview2"
     pagecolor="#ffffff"
     bordercolor="#000000"
     borderopacity="0.25"
     inkscape:showpageshadow="2"
     inkscape:pageopacity="0.0"
     inkscape:pagecheckerboard="0"
     inkscape:deskcolor="#d1d1d1"
     inkscape:zoom="0.27153797"
     inkscape:cx="2423.2338"
     inkscape:cy="1567"
     inkscape:window-width="1920"
     inkscape:window-height="1111"
     inkscape:window-x="-9"
     inkscape:window-y="-9"
     inkscape:window-maximized="1"
     inkscape:current-layer="svg2" /><path
     d="m 2016.415,1515.3809 q 0,63.3808 -29.8691,125.3046 -29.1406,61.9239 -82.3223,104.9063 -58.2812,46.625 -136.2324,72.8516 -77.2226,26.2265 -186.5,26.2265 -117.291,0 -211.2695,-21.8554 -93.25,-21.8555 -190.1426,-64.8379 v -180.6719 h 10.1992 q 82.3223,68.4805 190.1426,105.6348 107.8203,37.1543 202.5273,37.1543 134.0469,0 208.3555,-50.2676 75.0371,-50.2676 75.0371,-134.0469 0,-72.123 -35.6972,-106.3633 -34.9688,-34.2402 -107.0918,-53.1816 -54.6387,-14.5703 -118.7481,-24.041 -63.3808,-9.4707 -134.7754,-24.0411 -144.2461,-30.5976 -214.1836,-104.1777 -69.209,-74.3086 -69.209,-193.0566 0,-136.23245 115.1055,-222.92581 115.1055,-87.42188 292.1348,-87.42188 114.3769,0 209.8125,21.85547 95.4355,21.85547 169.0156,53.91016 v 170.47265 h -10.1992 q -61.9238,-52.45312 -163.1875,-86.69336 -100.5352,-34.96875 -206.1699,-34.96875 -115.834,0 -186.5,48.08204 -69.9375,48.08203 -69.9375,123.84768 0,67.7519 34.9687,106.3633 34.9688,38.6113 123.1192,59.0097 46.625,10.1992 132.5898,24.7696 85.9648,14.5703 145.7031,29.8691 120.9336,32.0547 182.1289,96.8926 61.1953,64.8379 61.1953,181.4004 z M 2384.3154,875.01562 H 2229.8701 V 732.95508 h 154.4453 z M 2375.5732,1825 h -136.9609 v -813.752 h 136.9609 z M 3466.1611,864.81641 q 66.295,72.85156 101.2637,178.48629 35.6973,105.6348 35.6973,239.6817 0,134.0469 -36.4258,240.4101 -35.6973,105.6348 -100.5352,176.3008 -67.0234,73.5801 -158.8164,110.7344 -91.0644,37.1543 -208.3554,37.1543 -114.377,0 -208.3555,-37.8828 -93.25,-37.8828 -158.8164,-110.0059 -65.5664,-72.123 -101.2637,-177.0293 -34.9687,-104.9062 -34.9687,-239.6816 0,-132.5899 34.9687,-237.4961 34.9688,-105.63478 101.9922,-180.67189 64.1094,-71.39454 158.8164,-109.27735 95.4356,-37.88281 207.627,-37.88281 116.5625,0 209.0839,38.61133 93.25,37.88281 158.0879,108.54883 z m -13.1132,418.16799 q 0,-211.2696 -94.7071,-325.64651 -94.707,-115.10547 -258.623,-115.10547 -165.3731,0 -260.0801,115.10547 -93.9785,114.37691 -93.9785,325.64651 0,213.4551 96.164,327.1035 96.1641,112.9199 257.8946,112.9199 161.7304,0 257.166,-112.9199 96.1641,-113.6484 96.1641,-327.1035 z"
     id="text1"
     style="font-size:1492px;font-family:'Aptos Display', 'Aptos Display_MSFontService', sans-serif"
     aria-label="SiO" /><path
     d="m 4128.886,2197 h -489.2344 v -101.4385 q 50.9619,-43.6816 101.9238,-87.3633 51.4473,-43.6816 95.6143,-86.8779 93.1875,-90.2754 127.6475,-143.1787 34.4599,-53.3887 34.4599,-115.0283 0,-56.3008 -37.3721,-87.8487 -36.8867,-32.0332 -103.3798,-32.0332 -44.167,0 -95.6143,15.5313 -51.4473,15.5312 -100.4678,47.5644 h -4.8535 v -101.9238 q 34.46,-16.9873 91.7315,-31.0625 57.7568,-14.0752 111.6308,-14.0752 111.1455,0 174.2412,53.874 63.0957,53.3887 63.0957,145.1202 0,41.2548 -10.6777,77.1709 -10.1924,35.4306 -30.5771,67.4638 -18.9288,30.0918 -44.6524,59.2129 -25.2383,29.1211 -61.6396,64.5518 -51.9327,50.9619 -107.2627,99.0117 -55.3301,47.5645 -103.3799,88.334 h 388.7666 z"
     id="text2"
     style="font-size:994px;font-family:'Aptos Display', 'Aptos Display_MSFontService', sans-serif"
     aria-label="2" /></svg>
