<?xml version="1.0" encoding="UTF-8" standalone="no"?>
<!-- Created with Inkscape (http://www.inkscape.org/) -->

<svg
   version="1.1"
   id="svg1"
   width="516.48004"
   height="316.76886"
   viewBox="0 0 516.48004 316.76886"
   sodipodi:docname="sodiumpyrophosphate.svg"
   inkscape:version="1.4.2 (f4327f4, 2025-05-13)"
   xmlns:inkscape="http://www.inkscape.org/namespaces/inkscape"
   xmlns:sodipodi="http://sodipodi.sourceforge.net/DTD/sodipodi-0.dtd"
   xmlns="http://www.w3.org/2000/svg"
   xmlns:svg="http://www.w3.org/2000/svg">
  <defs
     id="defs1" />
  <sodipodi:namedview
     id="namedview1"
     pagecolor="#ffffff"
     bordercolor="#000000"
     borderopacity="0.25"
     inkscape:showpageshadow="2"
     inkscape:pageopacity="0.0"
     inkscape:pagecheckerboard="0"
     inkscape:deskcolor="#d1d1d1"
     inkscape:zoom="1.7841196"
     inkscape:cx="199.25794"
     inkscape:cy="216.63345"
     inkscape:window-width="1920"
     inkscape:window-height="1111"
     inkscape:window-x="-9"
     inkscape:window-y="-9"
     inkscape:window-maximized="1"
     inkscape:current-layer="g1" />
  <g
     inkscape:groupmode="layer"
     inkscape:label="Image"
     id="g1"
     transform="translate(-52.844043,28.915537)">
    <path
       style="fill:#000000"
       d="m 384.64729,287.44298 c -2.88468,-1.03087 -4.42305,-3.14535 -4.43619,-6.09749 -0.01,-2.13551 0.99644,-4.12172 2.66461,-5.26117 1.63951,-1.11987 2.84869,-1.50494 6.12836,-1.95156 1.408,-0.19174 3.604,-0.56987 4.88,-0.84029 l 2.32,-0.49167 v -1.53501 c 0,-2.81922 -1.84771,-4.18171 -5.66972,-4.18083 -2.89041,6.6e-4 -4.1682,0.65316 -5.21028,2.66062 l -0.8,1.54111 -1.76,-0.212 c -0.968,-0.11659 -1.7921,-0.24219 -1.83133,-0.27911 -0.0392,-0.0369 0.0703,-0.57995 0.24335,-1.20676 0.70708,-2.56085 2.61121,-4.35823 5.53778,-5.22732 2.07227,-0.6154 6.97752,-0.61855 9.04085,-0.006 1.72932,0.51355 3.36904,1.96297 3.99209,3.52877 0.24012,0.60344 0.45654,4.05015 0.5827,9.28 0.13739,5.69554 0.3259,8.54048 0.59763,9.01896 0.21831,0.38443 0.39693,0.78043 0.39693,0.88 0,0.0996 -0.93326,0.18104 -2.0739,0.18104 -2.00237,0 -2.08056,-0.0304 -2.26673,-0.88 -0.10605,-0.484 -0.24624,-1.05468 -0.31152,-1.26817 -0.0766,-0.25066 -0.69937,0.003 -1.75785,0.7149 -0.90154,0.60669 -2.37424,1.32137 -3.27266,1.58817 -1.97697,0.5871 -5.41334,0.60853 -6.99412,0.0436 z m 6.68352,-2.92641 c 3.22494,-0.95771 4.85366,-3.22626 4.86623,-6.77792 l 0.007,-1.9858 -1.20008,0.42341 c -0.66004,0.23288 -2.28004,0.5964 -3.6,0.80784 -5.56104,0.89078 -7.03992,1.77286 -7.03992,4.19896 0,2.10609 1.89316,3.70094 4.50192,3.79254 0.45205,0.0159 1.56123,-0.19069 2.46482,-0.45903 z m -41.52674,-13.11211 v -15.84 l 2.32,0.008 2.32,0.008 8.16,12.30324 c 4.488,6.76678 8.268,12.30701 8.4,12.31162 0.132,0.005 0.24,-5.53562 0.24,-12.31162 v -12.32 h 1.92 1.92 v 15.84 15.84 h -2.17599 -2.17599 l -8.30401,-12.39665 -8.30401,-12.39665 -0.0838,12.39665 -0.0838,12.39665 h -2.07624 -2.07624 z m 61.76,-21.76 v -3.36 h -3.36 -3.36 v -1.44 -1.44 h 3.36 3.36 v -3.36 -3.36 h 1.44 1.44 v 3.36 3.36 h 3.36 3.36 v 1.44 1.44 h -3.36 -3.36 v 3.36 3.36 h -1.44 -1.44 z m -35.48652,-53.46641 c -5.25981,-1.41444 -9.26619,-5.67904 -10.58414,-11.26631 -0.49944,-2.11734 -0.50147,-6.80438 -0.004,-9.25159 1.4718,-7.24038 7.24797,-11.92012 14.72744,-11.93189 4.40663,-0.007 7.39352,1.12777 10.47271,3.97856 6.41493,5.9391 6.52736,18.69007 0.21963,24.9087 -3.57538,3.52488 -9.59493,4.97076 -14.83163,3.56253 z m 7.40669,-3.4818 c 4.94374,-1.50013 7.61668,-5.82378 7.64103,-12.35986 0.0132,-3.53237 -0.34683,-5.15048 -1.72387,-7.74837 -1.14096,-2.15252 -2.2931,-3.2205 -4.63638,-4.29773 -5.08743,-2.33874 -11.44614,-0.30004 -13.86745,4.44611 -1.40292,2.74994 -1.94539,7.74845 -1.21683,11.21231 1.15731,5.50235 5.28015,9.16064 10.36333,9.19561 1.056,0.007 2.60408,-0.19437 3.44017,-0.44807 z M 113.60727,176.40298 c -2.88468,-1.03087 -4.42305,-3.14535 -4.43619,-6.09749 -0.01,-2.13551 0.99644,-4.12172 2.66461,-5.26117 1.63951,-1.11987 2.84869,-1.50494 6.12836,-1.95156 1.408,-0.19174 3.604,-0.56987 4.88,-0.84029 l 2.32,-0.49167 v -1.53501 c 0,-2.81922 -1.84771,-4.18171 -5.66972,-4.18083 -2.89041,6.6e-4 -4.1682,0.65316 -5.21028,2.66062 l -0.8,1.54111 -1.76,-0.212 c -0.968,-0.11659 -1.7921,-0.24219 -1.83133,-0.27911 -0.0392,-0.0369 0.0703,-0.57995 0.24335,-1.20676 0.70708,-2.56085 2.61121,-4.35822 5.53778,-5.22732 2.07227,-0.6154 6.97752,-0.61855 9.04085,-0.006 1.72932,0.51355 3.36904,1.96297 3.99209,3.52877 0.24012,0.60344 0.45654,4.05015 0.5827,9.28 0.13739,5.69554 0.32591,8.54048 0.59763,9.01896 0.21831,0.38443 0.39693,0.78043 0.39693,0.88 0,0.0996 -0.93326,0.18104 -2.0739,0.18104 -2.00236,0 -2.08056,-0.0304 -2.26673,-0.88 -0.10605,-0.484 -0.24623,-1.05468 -0.31151,-1.26817 -0.0766,-0.25066 -0.69938,0.003 -1.75786,0.7149 -0.90154,0.60669 -2.37424,1.32137 -3.27266,1.58817 -1.97697,0.5871 -5.41334,0.60853 -6.99412,0.0436 z m 6.68353,-2.92641 c 3.22493,-0.95771 4.85365,-3.22626 4.86622,-6.77792 l 0.007,-1.9858 -1.20007,0.42341 c -0.66005,0.23288 -2.28005,0.5964 -3.60001,0.80784 -5.56104,0.89078 -7.03992,1.77286 -7.03992,4.19896 0,2.10609 1.89316,3.70094 4.50192,3.79254 0.45206,0.0159 1.56123,-0.19069 2.46483,-0.45903 z M 78.764048,160.36446 v -15.84 l 2.32,0.008 2.32,0.008 8.16,12.30324 c 4.488001,6.76678 8.268001,12.30701 8.400001,12.31162 0.132001,0.005 0.240001,-5.53562 0.240001,-12.31162 v -12.32 h 1.92 1.92 v 15.84076 15.84 h -2.17599 -2.175991 l -8.304011,-12.39665 -8.30401,-12.39665 -0.08376,12.39665 -0.08376,12.39665 H 80.84029 78.764048 Z M 379.5964,159.44341 c -0.27012,-0.32547 -0.31245,-4.70692 -0.16154,-16.72 0.21986,-17.50136 0.24267,-17.71895 1.8574,-17.71895 1.59864,0 1.58346,-0.19782 1.3325,17.36088 -0.13227,9.25417 -0.36663,16.62861 -0.53867,16.95008 -0.36542,0.6828 -1.96116,0.76483 -2.48969,0.12799 z m 18.20767,-2.59895 v -1.12 h 9.6 9.6 v 1.12 1.12 h -9.6 -9.6 z m -214.04653,-5.78641 c -5.25982,-1.41444 -9.26619,-5.67904 -10.58414,-11.26631 -0.49944,-2.11734 -0.50147,-6.80438 -0.004,-9.25159 1.4718,-7.24038 7.24797,-11.92012 14.72744,-11.93189 4.40663,-0.007 7.39351,1.12777 10.47271,3.97856 6.41493,5.9391 6.52736,18.69007 0.21963,24.9087 -3.57538,3.52488 -9.59493,4.97076 -14.83163,3.56253 z m 7.40669,-3.4818 c 4.94374,-1.50013 7.61668,-5.82378 7.64103,-12.35986 0.0132,-3.53237 -0.34684,-5.15048 -1.72387,-7.74837 -1.14096,-2.15252 -2.2931,-3.2205 -4.63638,-4.29773 -5.08743,-2.33874 -11.44614,-0.30004 -13.86745,4.44611 -1.40292,2.74994 -1.94539,7.74845 -1.21683,11.21231 1.15731,5.50235 5.28015,9.16064 10.36333,9.19561 1.056,0.007 2.60408,-0.19437 3.44017,-0.44807 z m -50.64018,-8.97179 v -3.36 h -3.36 -3.36 v -1.44 -1.44 h 3.36 3.36 v -3.36 -3.36 h 1.44 1.44 v 3.36 3.36 h 3.36 3.36001 v 1.44 1.44 h -3.36001 -3.36 v 3.36 3.36 h -1.44 -1.44 z m 64.64001,-14.72 v -1.12 h 9.6 9.6 v 1.12 1.12 h -9.6 -9.6 z m 249.63349,-4.50641 c -5.25981,-1.41444 -9.26618,-5.67904 -10.58413,-11.26631 -0.49945,-2.11734 -0.50148,-6.80438 -0.004,-9.251587 1.4718,-7.24037 7.24798,-11.92012 14.72744,-11.93189 4.40664,-0.007 7.39352,1.12777 10.47271,3.97856 6.41493,5.9391 6.52736,18.690067 0.21963,24.908697 -3.57538,3.52488 -9.59492,4.97076 -14.83163,3.56253 z m 7.4067,-3.4818 c 4.94374,-1.50013 7.61667,-5.82378 7.64103,-12.35986 0.0132,-3.53237 -0.34684,-5.150477 -1.72388,-7.748367 -1.14096,-2.15252 -2.2931,-3.2205 -4.63638,-4.29773 -5.08743,-2.33874 -11.44614,-0.30004 -13.86744,4.44611 -1.40292,2.74994 -1.94539,7.748447 -1.21684,11.212307 1.15731,5.50235 5.28015,9.16064 10.36333,9.19561 1.056,0.007 2.60408,-0.19437 3.44018,-0.44807 z M 370.28407,102.44446 V 86.604463 h 8.42192 c 10.22049,0 11.0667,0.16779 13.51691,2.68018 1.91544,1.96405 2.56307,3.78124 2.49638,7.0046 -0.0818,3.952977 -2.48128,7.317427 -6.02123,8.442667 -1.15133,0.36597 -3.37977,0.55823 -7.77398,0.67072 l -6.16,0.15769 v 6.36207 6.36207 h -2.24 -2.24 z m 17.54405,-1.70665 c 3.45918,-1.826747 3.49306,-7.776307 0.0558,-9.795517 -1.00031,-0.58763 -1.76014,-0.66957 -7.11982,-0.76781 l -6,-0.10997 v 5.82049 5.820497 l 5.84,-0.11839 c 5.33616,-0.10818 5.95941,-0.18146 7.22405,-0.8493 z m -88.55057,16.72024 c -5.25982,-1.41444 -9.26619,-5.67904 -10.58414,-11.26631 -0.49944,-2.11734 -0.50148,-6.804377 -0.004,-9.251587 1.47181,-7.24037 7.24798,-11.92012 14.72744,-11.93189 4.40664,-0.007 7.39352,1.12777 10.47272,3.97856 6.41493,5.9391 6.52736,18.690067 0.21963,24.908697 -3.57539,3.52488 -9.59493,4.97076 -14.83163,3.56253 z m 7.40669,-3.4818 c 4.94374,-1.50013 7.61667,-5.82378 7.64103,-12.35986 0.0132,-3.532367 -0.34684,-5.150477 -1.72388,-7.748367 -1.14096,-2.15252 -2.2931,-3.2205 -4.63637,-4.29773 -5.08743,-2.33874 -11.44615,-0.30004 -13.86745,4.44611 -1.40292,2.74994 -1.94539,7.748447 -1.21684,11.212307 1.15731,5.50235 5.28015,9.16064 10.36333,9.19561 1.056,0.007 2.60408,-0.19437 3.44018,-0.44807 z m 103.3478,-8.48078 c -10.72319,-0.18316 -10.61121,-0.16406 -10.62307,-1.81183 -0.0105,-1.45524 -0.12174,-1.44818 19.08981,-1.21213 10.00191,0.1229 18.50929,0.34352 18.90529,0.49028 0.80504,0.29834 1.00838,1.78629 0.336,2.45867 -0.40554,0.40554 -7.26836,0.42412 -27.70803,0.075 z m -202.04758,-0.81402 c -0.33999,-0.74619 0.13024,-1.54418 6.64687,-11.279997 5.42941,-8.11152 7.17927,-10.5006 7.75034,-10.58155 1.02689,-0.14558 1.74246,0.54044 1.59213,1.52636 -0.0686,0.45001 -3.17801,5.3902 -6.90976,10.9782 -6.40085,9.584767 -6.8396,10.159997 -7.74935,10.159997 -0.71907,0 -1.05741,-0.20424 -1.33023,-0.80301 z m 130.10839,-0.14966 c -13.35923,-0.17867 -13.56878,-0.20597 -13.56878,-1.76733 0,-1.55309 -0.27337,-1.53503 19.44056,-1.28373 10.16369,0.12956 18.73144,0.36847 19.03944,0.5309 0.6455,0.34044 0.75539,1.86943 0.176,2.44883 -0.40507,0.40506 -0.18231,0.40443 -25.08722,0.0713 z M 268.99878,82.597363 c -6.33309,-3.96391 -11.91072,-7.49622 -12.39472,-7.84958 -1.40994,-1.02938 -1.03514,-2.86332 0.58517,-2.86332 0.6208,0 23.46155,14.04316 24.85483,15.28148 1.07194,0.95271 0.51654,2.63852 -0.86928,2.63852 -0.3637,0 -5.8429,-3.2432 -12.176,-7.2071 z m 103.39952,-0.97907 c -0.24075,-0.6274 -0.18103,-19.59224 0.0875,-27.779972 0.16535,-5.042151 0.28304,-6.099442 0.70875,-6.367122 0.69259,-0.435493 2.12721,-0.03431 2.33873,0.654007 0.0945,0.307591 0.0562,7.859437 -0.0851,16.781877 -0.19746,12.46808 -0.35246,16.33774 -0.66971,16.72 -0.54126,0.65219 -2.1288,0.64632 -2.38019,-0.009 z m 16.64001,0 c -0.23734,-0.61849 -0.17899,-18.34321 0.0899,-27.299898 0.16462,-5.48397 0.27741,-6.577334 0.70637,-6.847121 0.77803,-0.489333 2.17391,-0.0071 2.36792,0.818062 0.0925,0.39332 0.048,7.941813 -0.0988,16.774427 -0.20575,12.37947 -0.36213,16.17404 -0.68245,16.56 -0.54349,0.65486 -2.13095,0.65122 -2.38294,-0.005 z m 87.48576,-1.57383 v -1.12 h 9.6 9.60001 v 1.12 1.12 h -9.60001 -9.6 z m -249.92001,-19.84 v -15.84 h 8.42192 c 10.2205,0 11.06671,0.167789 13.51691,2.680176 1.91544,1.964056 2.56307,3.781244 2.49639,7.004602 -0.0818,3.95298 -2.48128,7.317432 -6.02124,8.442672 -1.15133,0.36597 -3.37977,0.55823 -7.77398,0.67072 l -6.16,0.15769 v 6.36207 6.36207 h -2.24 -2.24 z m 17.54405,-1.706648 c 3.45918,-1.826749 3.49306,-7.776309 0.0558,-9.79552 -1.00031,-0.587628 -1.76014,-0.669569 -7.11982,-0.767807 l -6,-0.109975 v 5.820494 5.820495 l 5.84,-0.118394 c 5.33616,-0.108179 5.95941,-0.18145 7.22405,-0.849293 z m 288.65919,3.345168 c -2.88468,-1.03087 -4.42306,-3.145346 -4.4362,-6.097489 -0.01,-2.135508 0.99645,-4.121716 2.66462,-5.261171 1.6395,-1.119874 2.84869,-1.504936 6.12836,-1.951561 1.408,-0.191742 3.604,-0.569871 4.88,-0.840287 l 2.32,-0.491667 V 45.66579 c 0,-2.819213 -1.84771,-4.181706 -5.66972,-4.18083 -2.89041,6.62e-4 -4.16821,0.653167 -5.21028,2.660619 l -0.8,1.541117 -1.76,-0.211998 c -0.968,-0.116599 -1.7921,-0.242198 -1.83133,-0.27911 -0.0392,-0.03691 0.0703,-0.579954 0.24335,-1.20676 0.70708,-2.56085 2.61121,-4.35823 5.53777,-5.227327 2.07228,-0.615399 6.97753,-0.61855 9.04086,-0.0058 1.72932,0.513553 3.36904,1.962969 3.99209,3.528769 0.24012,0.603443 0.45654,4.050154 0.5827,9.28 0.13739,5.695545 0.3259,8.54048 0.59763,9.01896 0.21831,0.38443 0.39693,0.78043 0.39693,0.88 0,0.0996 -0.93326,0.18104 -2.07391,0.18104 -2.00236,0 -2.08055,-0.0304 -2.26672,-0.88 -0.10606,-0.484 -0.24624,-1.054678 -0.31152,-1.268173 -0.0766,-0.250661 -0.69937,0.0026 -1.75785,0.714903 -0.90154,0.60669 -2.37424,1.32137 -3.27267,1.58817 -1.97696,0.5871 -5.41333,0.60853 -6.99411,0.0436 z m 6.68352,-2.926411 c 3.22494,-0.957704 4.85366,-3.226263 4.86623,-6.777914 l 0.007,-1.985806 -1.20008,0.423412 c -0.66004,0.232877 -2.28004,0.596404 -3.6,0.807839 -5.56104,0.890783 -7.03992,1.772863 -7.03992,4.198962 0,2.106087 1.89316,3.700935 4.50192,3.792537 0.45205,0.01587 1.56122,-0.19069 2.46482,-0.45903 z M 497.96408,45.804463 v -15.84 l 2.32,0.0084 2.32,0.0084 8.16,12.303235 c 4.488,6.766779 8.268,12.307006 8.4,12.311617 0.132,0.0046 0.24,-5.535617 0.24,-12.311617 V 29.964463 h 1.92 1.92 v 15.84 15.84 h -2.17599 -2.17599 l -8.30401,-12.396649 -8.30401,-12.396648 -0.0838,12.396648 -0.0838,12.396649 H 500.04024 497.964 Z M 205.48406,42.841106 c -10.0613,-6.30156 -12.66133,-8.067125 -12.74457,-8.654257 -0.14037,-0.990202 0.47882,-1.666667 1.50375,-1.642837 0.52234,0.01214 5.50733,2.951439 13.16082,7.76 11.28937,7.09292 12.32899,7.81944 12.42745,8.68467 0.10483,0.921199 -0.55865,1.780447 -1.36861,1.772424 -0.18636,-0.0018 -6.02684,-3.565846 -12.97884,-7.92 z m 50.624,4.339357 c -0.2112,-0.2112 -0.384,-0.697494 -0.384,-1.080653 0,-0.639202 16.58269,-27.634435 17.80504,-28.985117 0.98327,-1.086496 2.67496,-0.570573 2.67496,0.815794 0,0.563229 -16.63701,27.647232 -17.8594,29.073976 -0.55354,0.646081 -1.67803,0.734568 -2.2366,0.176 z m 122.20949,-6.522406 c -5.25981,-1.414444 -9.26619,-5.679043 -10.58414,-11.266318 -0.49944,-2.117333 -0.50147,-6.804375 -0.004,-9.251589 1.4718,-7.240372 7.24797,-11.9201154 14.72744,-11.9318894 4.40663,-0.0069 7.39352,1.127775 10.47271,3.9785654 6.41493,5.939093 6.52736,18.690071 0.21963,24.9087 -3.57538,3.524876 -9.59493,4.97076 -14.83163,3.562531 z m 7.40669,-3.481804 c 4.94374,-1.500132 7.61668,-5.823776 7.64103,-12.359857 0.0132,-3.53237 -0.34683,-5.150479 -1.72387,-7.748377 -1.14096,-2.152514 -2.2931,-3.2205 -4.63638,-4.297727 -5.08743,-2.33874 -11.44614,-0.300043 -13.86745,4.446109 -1.40292,2.749944 -1.94539,7.748457 -1.21683,11.212311 1.15731,5.502355 5.28015,9.16064 10.36333,9.195613 1.056,0.0073 2.60408,-0.194367 3.44017,-0.448072 z m -144.64175,2.338635 c -0.21914,-0.219134 -0.39843,-0.638445 -0.39843,-0.931803 0,-0.700823 14.55954,-24.023384 15.23196,-24.399687 0.32203,-0.180218 0.80725,-0.157997 1.28297,0.05875 1.53678,0.700204 1.11438,1.594916 -6.52373,13.818107 -6.73529,10.778408 -7.36116,11.671374 -8.24158,11.758628 -0.52402,0.05193 -1.13206,-0.08487 -1.35119,-0.304 z m -73.64495,-4.616831 c -5.25982,-1.414444 -9.26619,-5.679043 -10.58414,-11.266318 -0.49944,-2.117333 -0.50148,-6.804375 -0.004,-9.251588 1.4718,-7.2403734 7.24797,-11.9201164 14.72744,-11.9318904 4.40663,-0.0069 7.39351,1.127775 10.47271,3.978565 6.41493,5.9390934 6.52736,18.6900714 0.21963,24.9087004 -3.57538,3.524876 -9.59493,4.97076 -14.83163,3.562531 z m 7.40669,-3.481804 c 4.94374,-1.500132 7.61668,-5.823776 7.64103,-12.359857 0.0132,-3.53237 -0.34684,-5.150479 -1.72388,-7.748377 -1.14095,-2.1525144 -2.2931,-3.2205004 -4.63637,-4.2977274 -5.08743,-2.33874 -11.44614,-0.300043 -13.86745,4.4461094 -1.40292,2.749944 -1.94539,7.748457 -1.21684,11.212311 1.15732,5.502355 5.28015,9.16064 10.36334,9.195613 1.056,0.0073 2.60407,-0.194367 3.44017,-0.448072 z m 384.87985,-7.37179 v -3.36 h -3.36 -3.36 v -1.44 -1.44 h 3.36 3.36 v -3.36 -3.36 h 1.44 1.44 v 3.36 3.36 h 3.36 3.36 v 1.44 1.44 h -3.36 -3.36 v 3.36 3.36 h -1.44 -1.44 z M 87.687271,21.842985 c -2.88468,-1.030872 -4.423056,-3.145348 -4.436195,-6.09749 -0.0095,-2.135509 0.996446,-4.121717 2.664615,-5.261172 1.639504,-1.1198744 2.848689,-1.5049364 6.128357,-1.9515614 1.408,-0.191741 3.604001,-0.569871 4.880001,-0.840287 l 2.32,-0.491667 v -1.535018 c 0,-2.819213 -1.847709,-4.181706 -5.669723,-4.18083 -2.890403,6.62e-4 -4.168201,0.653168 -5.210278,2.660619 l -0.8,1.541117 -1.76,-0.211998 c -0.968,-0.116599 -1.792097,-0.242198 -1.831327,-0.27911 -0.03923,-0.03691 0.07028,-0.579954 0.243346,-1.20676 0.707085,-2.56085 2.611211,-4.35822902 5.537779,-5.227326 2.072274,-0.6154 6.977521,-0.618551 9.04085,-0.0058 1.729324,0.51355298 3.369044,1.96296898 3.992094,3.528769 0.24012,0.603444 0.45654,4.050154 0.5827,9.2800004 0.13739,5.695545 0.3259,8.54048 0.59763,9.018963 0.21831,0.384429 0.39693,0.780429 0.39693,0.88 0,0.09957 -0.93326,0.181037 -2.0739,0.181037 -2.00237,0 -2.08056,-0.03036 -2.26673,-0.88 -0.106055,-0.484 -0.246237,-1.054678 -0.311517,-1.268173 -0.07664,-0.25066 -0.699375,0.0026 -1.757856,0.714903 -0.90154,0.606692 -2.374238,1.32137 -3.272662,1.588173 -1.976964,0.587095 -5.413338,0.608526 -6.994114,0.04362 z m 6.683522,-2.926413 c 3.224939,-0.957703 4.853659,-3.226262 4.866228,-6.777914 l 0.007,-1.985805 -1.200078,0.423412 c -0.660043,0.232876 -2.280043,0.596403 -3.6,0.807838 -5.56104,0.890783 -7.039923,1.772863 -7.039923,4.198962 0,2.106087 1.893161,3.700936 4.50192,3.792538 0.452056,0.01587 1.561227,-0.190691 2.464825,-0.459031 z M 52.844047,5.8044626 V -10.035537 l 2.32,0.0084 2.32,0.0084 8.16,12.3031996 c 4.488,6.766779 8.268,12.3070074 8.4,12.3116174 0.132,0.0046 0.24,-5.5356174 0.24,-12.3116174 V -10.035537 h 1.920001 1.92 V 5.8044626 21.644463 h -2.175991 -2.17599 l -8.30401,-12.3966494 -8.30401,-12.396648 -0.08376,12.396648 -0.08376,12.3966494 h -2.076242 -2.076242 z m 221.793493,4.133594 c -5.25981,-1.414444 -9.26618,-5.679043 -10.58413,-11.266318 -0.49945,-2.117333 -0.50148,-6.804375 -0.004,-9.2515876 1.4718,-7.240373 7.24798,-11.920116 14.72744,-11.93189 4.40664,-0.0069 7.39352,1.127775 10.47271,3.978566 6.41493,5.939093 6.52736,18.69006958 0.21963,24.9086986 -3.57538,3.524876 -9.59492,4.9707604 -14.83163,3.562531 z m 7.4067,-3.481804 c 4.94374,-1.500132 7.61667,-5.82377602 7.64103,-12.359857 0.0132,-3.53237 -0.34684,-5.1504786 -1.72388,-7.7483766 -1.14096,-2.152514 -2.2931,-3.2205 -4.63638,-4.297727 -5.08743,-2.33874 -11.44614,-0.300043 -13.86744,4.446109 -1.40292,2.749944 -1.94539,7.7484566 -1.21684,11.2123106 1.15731,5.502355 5.28015,9.16064 10.36333,9.195613 1.056,0.0073 2.60408,-0.194367 3.44018,-0.448072 z m -92.88018,-10.89179 v -1.12 h 9.6 9.6 v 1.12 1.12 h -9.6 -9.6 z M 114.60405,-15.955537 v -3.36 h -3.36 -3.36 v -1.44 -1.44 h 3.36 3.36 v -3.36 -3.36 h 1.44 1.44 v 3.36 3.36 h 3.36 3.36 v 1.44 1.44 h -3.36 -3.36 v 3.36 3.36 h -1.44 -1.44 z"
       id="path1" />
  </g>
</svg>
