<?xml version="1.0" encoding="UTF-8" standalone="no"?>
<svg
   fill-opacity="1"
   color-rendering="auto"
   color-interpolation="auto"
   text-rendering="auto"
   stroke="black"
   stroke-linecap="square"
   width="1956"
   stroke-miterlimit="10"
   shape-rendering="auto"
   stroke-opacity="1"
   fill="black"
   stroke-dasharray="none"
   font-weight="normal"
   stroke-width="1"
   height="338"
   font-family="'Dialog'"
   font-style="normal"
   stroke-linejoin="miter"
   font-size="12px"
   stroke-dashoffset="0"
   image-rendering="auto"
   version="1.1"
   id="svg39"
   sodipodi:docname="sodiumlaurylethersulfate.svg"
   inkscape:version="1.4.2 (f4327f4, 2025-05-13)"
   xmlns:inkscape="http://www.inkscape.org/namespaces/inkscape"
   xmlns:sodipodi="http://sodipodi.sourceforge.net/DTD/sodipodi-0.dtd"
   xmlns="http://www.w3.org/2000/svg"
   xmlns:svg="http://www.w3.org/2000/svg">
  <sodipodi:namedview
     id="namedview39"
     pagecolor="#ffffff"
     bordercolor="#000000"
     borderopacity="0.25"
     inkscape:showpageshadow="2"
     inkscape:pageopacity="0.0"
     inkscape:pagecheckerboard="0"
     inkscape:deskcolor="#d1d1d1"
     inkscape:zoom="0.9299591"
     inkscape:cx="978"
     inkscape:cy="169.36229"
     inkscape:window-width="1920"
     inkscape:window-height="1111"
     inkscape:window-x="-9"
     inkscape:window-y="-9"
     inkscape:window-maximized="1"
     inkscape:current-layer="svg39" />
  <!--Generated by Marvin with Batik SVG Generator
MolSource:
<?xml version="1.0" encoding="windows-1252"?><cml xmlns="http://www.chemaxon.com" xmlns:xsi="http://www.w3.org/2001/XMLSchema-instance" xsi:schemaLocation="http://www.chemaxon.com/marvin/schema/mrvSchema_20_20_0.xsd" version="ChemAxon file format v20.20.0, generated by v20.20.0">
<MDocument><MChemicalStruct><molecule molID="m1"><atomArray><atom id="a1" elementType="C" x2="4.6819" y2="2.4816"></atom><atom id="a2" elementType="C" x2="3.3482" y2="1.7116"></atom><atom id="a3" elementType="C" x2="2.0145" y2="2.4816"></atom><atom id="a4" elementType="C" x2="0.6808" y2="1.7116"></atom><atom id="a5" elementType="C" x2="-0.6528" y2="2.4816"></atom><atom id="a6" elementType="C" x2="-1.9865" y2="1.7116"></atom><atom id="a7" elementType="C" x2="-3.3202" y2="2.4816"></atom><atom id="a8" elementType="C" x2="-4.6539" y2="1.7116"></atom><atom id="a9" elementType="C" x2="-5.9876" y2="2.4816"></atom><atom id="a10" elementType="C" x2="-7.3212" y2="1.7116"></atom><atom id="a11" elementType="C" x2="-8.6549" y2="2.4816"></atom><atom id="a12" elementType="C" x2="-9.9886" y2="1.7116"></atom><atom id="a13" elementType="O" x2="-11.3223" y2="2.4816"></atom><atom id="a14" elementType="C" x2="-12.6560" y2="1.7116"></atom><atom id="a15" elementType="C" x2="-13.9896" y2="2.4816"></atom><atom id="a16" elementType="O" x2="-15.3233" y2="1.7116"></atom><atom id="a17" elementType="S" x2="-16.6570" y2="2.4816"></atom><atom id="a18" elementType="O" formalCharge="-1" chargeAngle="2.3562" x2="-17.9907" y2="3.2516"></atom><atom id="a19" elementType="O" x2="-17.4270" y2="1.1479"></atom><atom id="a20" elementType="O" x2="-15.8870" y2="3.8152"></atom><atom id="a21" elementType="Na" formalCharge="1" x2="-20.7349" y2="3.3549"></atom></atomArray><bondArray><bond id="b1" atomRefs2="a1 a2" order="1"></bond><bond id="b2" atomRefs2="a2 a3" order="1"></bond><bond id="b3" atomRefs2="a3 a4" order="1"></bond><bond id="b4" atomRefs2="a4 a5" order="1"></bond><bond id="b5" atomRefs2="a5 a6" order="1"></bond><bond id="b6" atomRefs2="a6 a7" order="1"></bond><bond id="b7" atomRefs2="a7 a8" order="1"></bond><bond id="b8" atomRefs2="a8 a9" order="1"></bond><bond id="b9" atomRefs2="a9 a10" order="1"></bond><bond id="b10" atomRefs2="a10 a11" order="1"></bond><bond id="b11" atomRefs2="a11 a12" order="1"></bond><bond id="b12" atomRefs2="a12 a13" order="1"></bond><bond id="b13" atomRefs2="a13 a14" order="1"></bond><bond id="b14" atomRefs2="a14 a15" order="1"></bond><bond id="b15" atomRefs2="a15 a16" order="1"></bond><bond id="b16" atomRefs2="a16 a17" order="1"></bond><bond id="b17" atomRefs2="a17 a18" order="1"></bond><bond id="b18" atomRefs2="a17 a19" order="2"></bond><bond id="b19" atomRefs2="a17 a20" order="2"></bond></bondArray></molecule></MChemicalStruct><MBracket id="o2" type="ROUND" orientation="DOUBLE"><MPoint x="-14.2083" y="3.5417"></MPoint><MPoint x="-10.8750" y="3.5417"></MPoint><MPoint x="-10.8750" y="1.2500"></MPoint><MPoint x="-14.2083" y="1.2500"></MPoint></MBracket><MTextBox id="o3" color="#000000" toption="NOROT" fontScale="14.0" halign="LEFT" valign="TOP" autoSize="true"><Field name="text"><![CDATA[{D font=Arial,size=14}{fg=#000000,size=12}n  ]]></Field><MPoint x="-10.7917" y="1.5833"></MPoint><MPoint x="-10.0521" y="1.5833"></MPoint><MPoint x="-10.0521" y="0.8133"></MPoint><MPoint x="-10.7917" y="0.8133"></MPoint></MTextBox></MDocument>
</cml>
-->
  <defs
     id="genericDefs" />
  <g
     id="g39">
    <defs
       id="1501453314160-defs1">
      <clipPath
         clipPathUnits="userSpaceOnUse"
         id="1501453314168-clipPath1">
        <path
           d="M0 0 L1956 0 L1956 338 L0 338 L0 0 Z"
           id="path1" />
      </clipPath>
      <clipPath
         clipPathUnits="userSpaceOnUse"
         id="1501453314826-clipPath1">
        <path
           d="M-731.8464 -127.0667 L1224.1536 -127.0667 L1224.1536 210.9333 L-731.8464 210.9333 L-731.8464 -127.0667 Z"
           id="path2" />
      </clipPath>
      <clipPath
         clipPathUnits="userSpaceOnUse"
         id="1501453314594-clipPath1">
        <path
           d="M-443.6143 -182.5375 L1512.3857 -182.5375 L1512.3857 155.4625 L-443.6143 155.4625 L-443.6143 -182.5375 Z"
           id="path3" />
      </clipPath>
      <clipPath
         clipPathUnits="userSpaceOnUse"
         id="1501453314897-clipPath1">
        <path
           d="M-351.1049 -127.0667 L1604.8951 -127.0667 L1604.8951 210.9333 L-351.1049 210.9333 L-351.1049 -127.0667 Z"
           id="path4" />
      </clipPath>
      <clipPath
         clipPathUnits="userSpaceOnUse"
         id="1501453314711-clipPath1">
        <path
           d="M-251.4547 -71.5959 L1704.5453 -71.5959 L1704.5453 266.4041 L-251.4547 266.4041 L-251.4547 -71.5959 Z"
           id="path5" />
      </clipPath>
      <clipPath
         clipPathUnits="userSpaceOnUse"
         id="1501453314606-clipPath1">
        <path
           d="M-292.0637 -223.1465 L1663.9363 -223.1465 L1663.9363 114.8535 L-292.0637 114.8535 L-292.0637 -223.1465 Z"
           id="path6" />
      </clipPath>
      <clipPath
         clipPathUnits="userSpaceOnUse"
         id="1501453314140-clipPath1">
        <path
           d="M-403.0053 -30.9941 L1552.9946 -30.9941 L1552.9946 307.0059 L-403.0053 307.0059 L-403.0053 -30.9941 Z"
           id="path7" />
      </clipPath>
      <clipPath
         clipPathUnits="userSpaceOnUse"
         id="1501453314631-clipPath1">
        <path
           d="M-36.0281 -64.1542 L1919.9719 -64.1542 L1919.9719 273.8459 L-36.0281 273.8459 L-36.0281 -64.1542 Z"
           id="path8" />
      </clipPath>
      <clipPath
         clipPathUnits="userSpaceOnUse"
         id="1501453314944-clipPath1">
        <path
           d="M797.275 233.2095 L811.1561 233.2095 L811.1561 247.5955 L797.275 247.5955 L797.275 233.2095 Z"
           id="path9" />
      </clipPath>
    </defs>
    <g
       text-rendering="geometricPrecision"
       id="g10">
      <path
         d="M1913.7872 171.5128 L1913.7872 171.5128 L1817.7075 226.9837 C1816.0803 227.9231 1813.9998 227.3656 1813.0604 225.7384 C1812.121 224.1113 1812.6785 222.0308 1814.3057 221.0914 L1814.3057 221.0914 L1910.3854 165.6206 C1912.0126 164.6812 1914.093 165.2387 1915.0325 166.8658 C1915.9719 168.4929 1915.4143 170.5735 1913.7872 171.5128 Z"
         stroke="none"
         clip-path="url(#1501453314168-clipPath1)"
         id="path10" />
    </g>
    <g
       text-rendering="geometricPrecision"
       id="g11">
      <path
         d="M1814.3057 226.9837 L1814.3057 226.9837 L1718.2258 171.5128 C1716.5988 170.5735 1716.0413 168.4929 1716.9806 166.8658 C1717.92 165.2387 1720.0006 164.6812 1721.6277 165.6206 L1721.6277 165.6206 L1817.7075 221.0914 C1819.3346 222.0308 1819.8921 224.1113 1818.9526 225.7384 C1818.0133 227.3656 1815.9327 227.9231 1814.3057 226.9837 Z"
         stroke="none"
         clip-path="url(#1501453314168-clipPath1)"
         id="path11" />
    </g>
    <g
       text-rendering="geometricPrecision"
       id="g12">
      <path
         d="M1721.6277 171.5128 L1721.6277 171.5128 L1625.5479 226.9837 C1623.9208 227.9231 1621.8402 227.3656 1620.9009 225.7384 C1619.9614 224.1113 1620.5189 222.0308 1622.1461 221.0914 L1622.1461 221.0914 L1718.2258 165.6206 C1719.8529 164.6812 1721.9335 165.2387 1722.8729 166.8658 C1723.8123 168.4929 1723.2548 170.5735 1721.6277 171.5128 Z"
         stroke="none"
         clip-path="url(#1501453314168-clipPath1)"
         id="path12" />
    </g>
    <g
       text-rendering="geometricPrecision"
       id="g13">
      <path
         d="M1622.146 226.9836 L1622.146 226.9836 L1526.0734 171.5128 C1524.4463 170.5733 1523.8889 168.4928 1524.8284 166.8657 C1525.7678 165.2386 1527.8484 164.6812 1529.4755 165.6206 L1529.4755 165.6206 L1625.548 221.0914 C1627.175 222.0309 1627.7325 224.1115 1626.7931 225.7386 C1625.8536 227.3656 1623.7731 227.9231 1622.146 226.9836 Z"
         stroke="none"
         clip-path="url(#1501453314168-clipPath1)"
         id="path13" />
    </g>
    <g
       text-rendering="geometricPrecision"
       id="g14">
      <path
         d="M1529.4753 171.5128 L1529.4753 171.5128 L1433.3955 226.9837 C1431.7684 227.9231 1429.6879 227.3656 1428.7485 225.7384 C1427.8091 224.1113 1428.3666 222.0308 1429.9937 221.0914 L1429.9937 221.0914 L1526.0735 165.6206 C1527.7006 164.6812 1529.7811 165.2387 1530.7206 166.8658 C1531.6599 168.4929 1531.1024 170.5735 1529.4753 171.5128 Z"
         stroke="none"
         clip-path="url(#1501453314168-clipPath1)"
         id="path14" />
    </g>
    <g
       text-rendering="geometricPrecision"
       id="g15">
      <path
         d="M1429.9937 226.9837 L1429.9937 226.9837 L1333.9139 171.5128 C1332.2869 170.5735 1331.7292 168.4929 1332.6687 166.8658 C1333.6082 165.2387 1335.6886 164.6812 1337.3158 165.6206 L1337.3158 165.6206 L1433.3955 221.0914 C1435.0227 222.0308 1435.5802 224.1113 1434.6407 225.7384 C1433.7014 227.3656 1431.6208 227.9231 1429.9937 226.9837 Z"
         stroke="none"
         clip-path="url(#1501453314168-clipPath1)"
         id="path15" />
    </g>
    <g
       text-rendering="geometricPrecision"
       id="g16">
      <path
         d="M1337.3158 171.5128 L1337.3158 171.5128 L1241.236 226.9837 C1239.6089 227.9231 1237.5283 227.3656 1236.5889 225.7384 C1235.6495 224.1113 1236.207 222.0308 1237.8341 221.0914 L1237.8341 221.0914 L1333.9139 165.6206 C1335.541 164.6812 1337.6216 165.2387 1338.5609 166.8658 C1339.5004 168.4929 1338.9429 170.5735 1337.3158 171.5128 Z"
         stroke="none"
         clip-path="url(#1501453314168-clipPath1)"
         id="path16" />
    </g>
    <g
       text-rendering="geometricPrecision"
       id="g17">
      <path
         d="M1237.8341 226.9837 L1237.8341 226.9837 L1141.7544 171.5128 C1140.1272 170.5735 1139.5697 168.4929 1140.5092 166.8658 C1141.4485 165.2387 1143.5291 164.6812 1145.1562 165.6206 L1145.1562 165.6206 L1241.236 221.0914 C1242.863 222.0308 1243.4205 224.1113 1242.4812 225.7384 C1241.5417 227.3656 1239.4612 227.9231 1237.8341 226.9837 Z"
         stroke="none"
         clip-path="url(#1501453314168-clipPath1)"
         id="path17" />
    </g>
    <g
       text-rendering="geometricPrecision"
       id="g18">
      <path
         d="M1145.1562 171.5128 L1145.1562 171.5128 L1049.0837 226.9836 C1047.4567 227.9231 1045.3761 227.3656 1044.4366 225.7386 C1043.4972 224.1115 1044.0546 222.0309 1045.6816 221.0914 L1045.6816 221.0914 L1141.7543 165.6206 C1143.3813 164.6812 1145.4619 165.2386 1146.4014 166.8657 C1147.3408 168.4928 1146.7833 170.5733 1145.1562 171.5128 Z"
         stroke="none"
         clip-path="url(#1501453314168-clipPath1)"
         id="path18" />
    </g>
    <g
       text-rendering="geometricPrecision"
       id="g19">
      <path
         d="M1045.6818 226.9837 L1045.6818 226.9837 L949.602 171.5128 C947.9749 170.5735 947.4174 168.4929 948.3568 166.8658 C949.2961 165.2387 951.3767 164.6812 953.0038 165.6206 L953.0038 165.6206 L1049.0836 221.0914 C1050.7107 222.0308 1051.2682 224.1113 1050.3289 225.7384 C1049.3894 227.3656 1047.3088 227.9231 1045.6818 226.9837 Z"
         stroke="none"
         clip-path="url(#1501453314168-clipPath1)"
         id="path19" />
    </g>
    <g
       text-rendering="geometricPrecision"
       id="g20">
      <path
         d="M953.0038 171.5128 L953.0038 171.5128 L856.9241 226.9837 C855.2969 227.9231 853.2164 227.3656 852.277 225.7384 C851.3376 224.1113 851.8951 222.0308 853.5222 221.0914 L853.5222 221.0914 L949.602 165.6206 C951.2291 164.6812 953.3096 165.2387 954.249 166.8658 C955.1884 168.4929 954.6309 170.5735 953.0038 171.5128 Z"
         stroke="none"
         clip-path="url(#1501453314168-clipPath1)"
         id="path20" />
    </g>
    <g
       text-rendering="geometricPrecision"
       id="g21">
      <path
         d="M853.5222 226.9837 L853.5222 226.9837 L795.0267 193.2118 C793.3996 192.2724 792.8421 190.1918 793.7815 188.5647 C794.7209 186.9376 796.8015 186.3801 798.4285 187.3195 L798.4285 187.3195 L856.9241 221.0914 C858.5511 222.0308 859.1086 224.1113 858.1693 225.7384 C857.2299 227.3656 855.1493 227.9231 853.5222 226.9837 Z"
         stroke="none"
         clip-path="url(#1501453314168-clipPath1)"
         id="path21" />
    </g>
    <g
       text-rendering="geometricPrecision"
       id="g22">
      <path
         d="M723.26 193.2118 L723.26 193.2118 L664.7645 226.9837 C663.1374 227.9231 661.0568 227.3656 660.1174 225.7384 C659.178 224.1113 659.7355 222.0308 661.3626 221.0914 L661.3626 221.0914 L719.8582 187.3195 C721.4852 186.3801 723.5658 186.9376 724.5052 188.5647 C725.4446 190.1918 724.8871 192.2724 723.26 193.2118 Z"
         stroke="none"
         clip-path="url(#1501453314168-clipPath1)"
         id="path22" />
    </g>
    <g
       text-rendering="geometricPrecision"
       id="g23">
      <path
         d="M661.3625 226.9836 L661.3625 226.9836 L565.29 171.5128 C563.6629 170.5733 563.1055 168.4928 564.0449 166.8657 C564.9843 165.2386 567.0649 164.6812 568.692 165.6206 L568.692 165.6206 L664.7646 221.0914 C666.3917 222.0309 666.9491 224.1115 666.0096 225.7386 C665.0702 227.3656 662.9896 227.9231 661.3625 226.9836 Z"
         stroke="none"
         clip-path="url(#1501453314168-clipPath1)"
         id="path23" />
    </g>
    <g
       text-rendering="geometricPrecision"
       id="g24">
      <path
         d="M568.6919 171.5128 L568.6919 171.5128 L510.041 205.3744 C508.4139 206.3138 506.3333 205.7563 505.394 204.1292 C504.4546 202.5021 505.0121 200.4216 506.6392 199.4822 L506.6392 199.4822 L565.29 165.6206 C566.9172 164.6812 568.9977 165.2387 569.9371 166.8658 C570.8765 168.4929 570.319 170.5735 568.6919 171.5128 Z"
         stroke="none"
         clip-path="url(#1501453314168-clipPath1)"
         id="path24" />
    </g>
    <g
       text-rendering="geometricPrecision"
       id="g25">
      <path
         d="M431.7814 205.3744 L431.7814 205.3744 L406.8425 190.9762 C405.2154 190.0368 404.6579 187.9562 405.5973 186.3291 C406.5367 184.702 408.6172 184.1445 410.2444 185.0839 L410.2444 185.0839 L435.1832 199.4822 C436.8103 200.4216 437.3678 202.5021 436.4284 204.1292 C435.489 205.7563 433.4085 206.3138 431.7814 205.3744 Z"
         stroke="none"
         clip-path="url(#1501453314168-clipPath1)"
         id="path25" />
    </g>
    <g
       text-rendering="geometricPrecision"
       id="g26">
      <path
         d="M339.4185 152.0495 L339.4185 152.0495 L314.635 137.741 C313.0079 136.8016 312.4504 134.721 313.3898 133.0939 C314.3292 131.4668 316.4097 130.9093 318.0368 131.8487 L318.0368 131.8487 L342.8203 146.1572 C344.4474 147.0966 345.0049 149.1772 344.0655 150.8043 C343.1261 152.4314 341.0456 152.9889 339.4185 152.0495 Z"
         stroke="none"
         clip-path="url(#1501453314168-clipPath1)"
         id="path26" />
    </g>
    <g
       text-rendering="geometricPrecision"
       id="g27">
      <path
         d="M363.2609 215.4229 C364.2003 213.7958 363.6428 211.7152 362.0157 210.7758 C360.3886 209.8364 358.308 210.394 357.3687 212.021 L348.8205 226.8271 C347.8811 228.4543 348.4386 230.5348 350.0657 231.4742 C351.6928 232.4136 353.7733 231.8561 354.7127 230.229 ZM345.9307 205.4175 C346.8701 203.7904 346.3126 201.7098 344.6855 200.7704 C343.0584 199.831 340.9778 200.3885 340.0385 202.0156 L331.4903 216.8217 C330.5509 218.4488 331.1084 220.5294 332.7355 221.4688 C334.3626 222.4082 336.4431 221.8507 337.3826 220.2236 Z"
         stroke="none"
         clip-path="url(#1501453314168-clipPath1)"
         id="path27" />
    </g>
    <g
       text-rendering="geometricPrecision"
       id="g28">
      <path
         d="M386.0461 122.3297 C385.1067 123.9568 385.6641 126.0374 387.2912 126.9768 C388.9182 127.9163 390.9988 127.3588 391.9383 125.7318 L400.484 110.931 C401.4235 109.3039 400.866 107.2234 399.239 106.2839 C397.6119 105.3445 395.5313 105.9019 394.5918 107.529 ZM403.376 132.3357 C402.4365 133.9628 402.994 136.0434 404.621 136.9828 C406.2481 137.9223 408.3287 137.3648 409.2682 135.7378 L417.8139 120.937 C418.7533 119.3099 418.1959 117.2294 416.5688 116.2899 C414.9417 115.3505 412.8611 115.9079 411.9217 117.535 Z"
         stroke="none"
         clip-path="url(#1501453314168-clipPath1)"
         id="path28" />
    </g>
    <g
       text-rendering="geometricPrecision"
       font-size="71px"
       font-family="'Arial'"
       transform="translate(731.8465,127.0667)"
       id="g29">
      <path
         d="m 3.4321289,43.24707 q 0,-12.653808 6.7949221,-19.79541 6.794922,-7.176269 17.541992,-7.176269 7.037598,0 12.688477,3.362793 5.650878,3.362793 8.597656,9.395019 2.981445,5.997559 2.981445,13.624512 0,7.730957 -3.120117,13.832519 -3.120117,6.101563 -8.840332,9.256348 -5.720215,3.120117 -12.341797,3.120117 -7.17627,0 -12.827148,-3.466797 Q 9.2563477,61.933105 6.3442383,55.935547 3.4321289,49.937988 3.4321289,43.24707 Z m 6.9335941,0.104004 q 0,9.187012 4.922851,14.491211 4.95752,5.269531 12.411133,5.269531 7.592285,0 12.480469,-5.338867 4.922851,-5.338867 4.922851,-15.149902 0,-6.205567 -2.114746,-10.816406 -2.080078,-4.645508 -6.13623,-7.17627 -4.021485,-2.56543 -9.04834,-2.56543 -7.141602,0 -12.307129,4.922852 -5.130859,4.888184 -5.130859,16.363281 z"
         id="text28"
         clip-path="url(#1501453314826-clipPath1)"
         style="stroke:none"
         aria-label="O" />
    </g>
    <g
       text-rendering="geometricPrecision"
       font-size="71px"
       font-family="'Arial'"
       transform="translate(443.6143,182.5375)"
       id="g30">
      <path
         d="m 3.4321289,43.24707 q 0,-12.653808 6.7949221,-19.79541 6.794922,-7.176269 17.541992,-7.176269 7.037598,0 12.688477,3.362793 5.650878,3.362793 8.597656,9.395019 2.981445,5.997559 2.981445,13.624512 0,7.730957 -3.120117,13.832519 -3.120117,6.101563 -8.840332,9.256348 -5.720215,3.120117 -12.341797,3.120117 -7.17627,0 -12.827148,-3.466797 Q 9.2563477,61.933105 6.3442383,55.935547 3.4321289,49.937988 3.4321289,43.24707 Z m 6.9335941,0.104004 q 0,9.187012 4.922851,14.491211 4.95752,5.269531 12.411133,5.269531 7.592285,0 12.480469,-5.338867 4.922851,-5.338867 4.922851,-15.149902 0,-6.205567 -2.114746,-10.816406 -2.080078,-4.645508 -6.13623,-7.17627 -4.021485,-2.56543 -9.04834,-2.56543 -7.141602,0 -12.307129,4.922852 -5.130859,4.888184 -5.130859,16.363281 z"
         id="text29"
         clip-path="url(#1501453314594-clipPath1)"
         style="stroke:none"
         aria-label="O" />
    </g>
    <g
       text-rendering="geometricPrecision"
       font-size="71px"
       font-family="'Arial'"
       transform="translate(351.1048,127.0667)"
       id="g31">
      <path
         d="m 3.1894531,51.671387 6.3442383,-0.554688 q 0.4506836,3.813477 2.0800786,6.274903 1.664062,2.426757 5.130859,3.952148 3.466797,1.490723 7.800293,1.490723 3.848144,0 6.794922,-1.144043 2.946777,-1.144043 4.368164,-3.120118 1.456054,-2.010742 1.456054,-4.368164 0,-2.392089 -1.386718,-4.160156 -1.386719,-1.802734 -4.576172,-3.016113 -2.04541,-0.797363 -9.04834,-2.461426 Q 15.149902,42.865723 12.341797,41.375 8.7016602,39.468262 6.8989258,36.660156 5.1308594,33.817383 5.1308594,30.315918 q 0,-3.848145 2.184082,-7.17627 2.184082,-3.362793 6.3789066,-5.096191 4.194824,-1.733398 9.325683,-1.733398 5.650879,0 9.949707,1.837402 4.333496,1.802734 6.65625,5.338867 2.322754,3.536133 2.496094,8.008301 L 35.67334,31.97998 q -0.52002,-4.818847 -3.536133,-7.280273 -2.981445,-2.461426 -8.840332,-2.461426 -6.101563,0 -8.909668,2.253418 -2.773437,2.21875 -2.773437,5.373535 0,2.73877 1.976074,4.506836 1.941406,1.768067 10.123047,3.640137 8.216308,1.837402 11.267089,3.224121 4.4375,2.04541 6.552247,5.200195 2.114746,3.120118 2.114746,7.210938 0,4.056152 -2.322754,7.661621 -2.322754,3.570801 -6.690918,5.581543 -4.333496,1.976074 -9.776367,1.976074 -6.898926,0 -11.579102,-2.010742 Q 8.6323242,64.845215 5.9628906,60.82373 3.328125,56.767578 3.1894531,51.671387 Z"
         id="text30"
         clip-path="url(#1501453314897-clipPath1)"
         style="stroke:none"
         aria-label="S" />
    </g>
    <g
       text-rendering="geometricPrecision"
       font-size="71px"
       font-family="'Arial'"
       transform="translate(251.4547,71.5959)"
       id="g32">
      <path
         d="m 3.4321289,43.24707 q 0,-12.653808 6.7949221,-19.79541 6.794922,-7.176269 17.541992,-7.176269 7.037598,0 12.688477,3.362793 5.650878,3.362793 8.597656,9.395019 2.981445,5.997559 2.981445,13.624512 0,7.730957 -3.120117,13.832519 -3.120117,6.101563 -8.840332,9.256348 -5.720215,3.120117 -12.341797,3.120117 -7.17627,0 -12.827148,-3.466797 Q 9.2563477,61.933105 6.3442383,55.935547 3.4321289,49.937988 3.4321289,43.24707 Z m 6.9335941,0.104004 q 0,9.187012 4.922851,14.491211 4.95752,5.269531 12.411133,5.269531 7.592285,0 12.480469,-5.338867 4.922851,-5.338867 4.922851,-15.149902 0,-6.205567 -2.114746,-10.816406 -2.080078,-4.645508 -6.13623,-7.17627 -4.021485,-2.56543 -9.04834,-2.56543 -7.141602,0 -12.307129,4.922852 -5.130859,4.888184 -5.130859,16.363281 z"
         id="text31"
         clip-path="url(#1501453314711-clipPath1)"
         style="stroke:none"
         aria-label="O" />
    </g>
    <g
       font-family="'Arial'"
       font-size="71px"
       text-rendering="geometricPrecision"
       id="g33">
      <path
         d="M232.2786 78.0138 L232.2786 81.6676 L257.8549 81.6676 L257.8549 78.0138 ZM245.0667 64.3122 C253.6429 64.3122 260.5952 71.2645 260.5952 79.8407 C260.5952 88.4168 253.6429 95.3692 245.0667 95.3692 C236.4906 95.3692 229.5383 88.4168 229.5383 79.8407 C229.5383 71.2645 236.4906 64.3122 245.0667 64.3122 ZM245.0667 62.4853 C235.4816 62.4853 227.7114 70.2556 227.7114 79.8407 C227.7114 89.4258 235.4816 97.196 245.0667 97.196 C254.6518 97.196 262.4221 89.4258 262.4221 79.8407 C262.4221 70.2556 254.6518 62.4853 245.0667 62.4853 ZM265.1624 59.745 L265.1624 99.9363 L224.9711 99.9363 L224.9711 59.745 ZM224.971 59.745 L224.971 59.745 L224.971 99.9364 L224.971 99.9364 L265.1624 99.9364 L265.1624 99.9364 L265.1624 59.745 L265.1624 59.745 L224.9711 59.745 L224.971 59.745 Z"
         stroke="none"
         clip-path="url(#1501453314168-clipPath1)"
         id="path32" />
      <path
         d="m 3.4321289,43.24707 q 0,-12.653808 6.7949221,-19.79541 6.794922,-7.176269 17.541992,-7.176269 7.037598,0 12.688477,3.362793 5.650878,3.362793 8.597656,9.395019 2.981445,5.997559 2.981445,13.624512 0,7.730957 -3.120117,13.832519 -3.120117,6.101563 -8.840332,9.256348 -5.720215,3.120117 -12.341797,3.120117 -7.17627,0 -12.827148,-3.466797 Q 9.2563477,61.933105 6.3442383,55.935547 3.4321289,49.937988 3.4321289,43.24707 Z m 6.9335941,0.104004 q 0,9.187012 4.922851,14.491211 4.95752,5.269531 12.411133,5.269531 7.592285,0 12.480469,-5.338867 4.922851,-5.338867 4.922851,-15.149902 0,-6.205567 -2.114746,-10.816406 -2.080078,-4.645508 -6.13623,-7.17627 -4.021485,-2.56543 -9.04834,-2.56543 -7.141602,0 -12.307129,4.922852 -5.130859,4.888184 -5.130859,16.363281 z"
         id="text32"
         clip-path="url(#1501453314606-clipPath1)"
         style="stroke:none"
         transform="translate(292.0637,223.1465)"
         aria-label="O" />
    </g>
    <g
       text-rendering="geometricPrecision"
       font-size="71px"
       font-family="'Arial'"
       transform="translate(403.0054,30.9941)"
       id="g34">
      <path
         d="m 3.4321289,43.24707 q 0,-12.653808 6.7949221,-19.79541 6.794922,-7.176269 17.541992,-7.176269 7.037598,0 12.688477,3.362793 5.650878,3.362793 8.597656,9.395019 2.981445,5.997559 2.981445,13.624512 0,7.730957 -3.120117,13.832519 -3.120117,6.101563 -8.840332,9.256348 -5.720215,3.120117 -12.341797,3.120117 -7.17627,0 -12.827148,-3.466797 Q 9.2563477,61.933105 6.3442383,55.935547 3.4321289,49.937988 3.4321289,43.24707 Z m 6.9335941,0.104004 q 0,9.187012 4.922851,14.491211 4.95752,5.269531 12.411133,5.269531 7.592285,0 12.480469,-5.338867 4.922851,-5.338867 4.922851,-15.149902 0,-6.205567 -2.114746,-10.816406 -2.080078,-4.645508 -6.13623,-7.17627 -4.021485,-2.56543 -9.04834,-2.56543 -7.141602,0 -12.307129,4.922852 -5.130859,4.888184 -5.130859,16.363281 z"
         id="text33"
         clip-path="url(#1501453314140-clipPath1)"
         style="stroke:none"
         aria-label="O" />
    </g>
    <g
       text-rendering="geometricPrecision"
       font-size="71px"
       font-family="'Arial'"
       transform="translate(36.0281,64.1542)"
       id="g35">
      <path
         d="M 5.4082031,68 V 17.176758 H 12.307129 L 39.001465,57.07959 V 17.176758 h 6.448242 V 68 H 38.550781 L 11.856445,28.0625 V 68 Z M 79.979004,63.458496 q -3.466797,2.946777 -6.690918,4.160156 -3.189453,1.213379 -6.864258,1.213379 -6.066894,0 -9.325683,-2.946777 -3.25879,-2.981445 -3.25879,-7.592285 0,-2.704102 1.213379,-4.922852 1.248047,-2.253418 3.224121,-3.605469 2.010743,-1.35205 4.506836,-2.04541 1.837403,-0.485351 5.546875,-0.936035 7.557618,-0.901367 11.128418,-2.149414 0.03467,-1.282715 0.03467,-1.629394 0,-3.813477 -1.768066,-5.373536 -2.39209,-2.114746 -7.106934,-2.114746 -4.402832,0 -6.517578,1.560059 -2.080078,1.52539 -3.085449,5.442871 l -6.101563,-0.832031 q 0.832032,-3.917481 2.73877,-6.309571 1.906738,-2.426757 5.512207,-3.709472 3.605469,-1.317383 8.354981,-1.317383 4.714843,0 7.661621,1.109375 2.946777,1.109375 4.333496,2.808105 1.386718,1.664063 1.941406,4.229493 0.312012,1.594726 0.312012,5.754882 v 8.320313 q 0,8.70166 0.381347,11.024414 Q 86.565918,65.885254 87.744629,68 h -6.517578 q -0.970703,-1.941406 -1.248047,-4.541504 z m -0.52002,-13.936523 q -3.397461,1.386718 -10.192382,2.357422 -3.848145,0.554687 -5.442872,1.248046 -1.594726,0.69336 -2.461425,2.045411 -0.8667,1.317382 -0.8667,2.946777 0,2.496094 1.872071,4.160156 1.906738,1.664063 5.546875,1.664063 3.605469,0 6.413574,-1.560059 2.808105,-1.594727 4.125488,-4.333496 1.005371,-2.114746 1.005371,-6.240234 z"
         id="text34"
         clip-path="url(#1501453314631-clipPath1)"
         style="stroke:none"
         aria-label="Na" />
    </g>
    <g
       font-family="'Arial'"
       font-size="71px"
       text-rendering="geometricPrecision"
       id="g36">
      <path
         d="M129.547 64.2309 L129.547 75.1922 L118.5858 75.1922 L118.5858 78.846 L129.547 78.846 L129.547 89.8073 L133.2008 89.8073 L133.2008 78.846 L144.1621 78.846 L144.1621 75.1922 L133.2008 75.1922 L133.2008 64.2309 ZM131.3739 61.4906 C139.9501 61.4906 146.9024 68.443 146.9024 77.0191 C146.9024 85.5952 139.9501 92.5476 131.3739 92.5476 C122.7978 92.5476 115.8455 85.5952 115.8455 77.0191 C115.8455 68.443 122.7978 61.4906 131.3739 61.4906 ZM131.3739 59.6637 C121.7888 59.6637 114.0186 67.434 114.0186 77.0191 C114.0186 86.6042 121.7888 94.3745 131.3739 94.3745 C140.959 94.3745 148.7293 86.6042 148.7293 77.0191 C148.7293 67.434 140.959 59.6637 131.3739 59.6637 ZM151.4696 56.9234 L151.4696 97.1148 L111.2783 97.1148 L111.2783 56.9234 ZM111.2782 56.9234 L111.2782 56.9234 L111.2782 97.1148 L111.2782 97.1148 L151.4696 97.1148 L151.4696 97.1148 L151.4696 97.1148 L151.4696 56.9234 L151.4696 56.9234 L111.2783 56.9234 L111.2782 56.9234 Z"
         stroke="none"
         clip-path="url(#1501453314168-clipPath1)"
         id="path35" />
    </g>
    <g
       stroke-width="4.5025"
       text-rendering="geometricPrecision"
       id="g37">
      <path
         style="baseline-shift:baseline;display:inline;overflow:visible;color-interpolation:sRGB;vector-effect:none;stroke:none;stroke-linecap:butt;text-rendering:auto;enable-background:accumulate;stop-color:#000000;stop-opacity:1;opacity:1"
         d="m 568.33203,89.013672 -1.5918,1.591797 c -46.44976,46.449801 -46.44976,121.827541 0,168.277341 l 1.5918,1.5918 3.18359,-3.18359 -1.59179,-1.5918 c -44.72914,-44.72918 -44.72914,-117.18098 0,-161.910158 l 1.59179,-1.591796 z"
         id="path36" />
      <path
         style="baseline-shift:baseline;display:inline;overflow:visible;color-interpolation:sRGB;vector-effect:none;stroke:none;stroke-linecap:butt;text-rendering:auto;enable-background:accumulate;stop-color:#000000;stop-opacity:1;opacity:1"
         d="m 774.27148,89.013672 -3.18359,3.183594 1.5918,1.591796 c 44.72914,44.729178 44.72914,117.180978 0,161.910158 l -1.5918,1.5918 3.18359,3.18359 1.5918,-1.5918 c 46.44977,-46.4498 46.44977,-121.82754 0,-168.277341 z"
         id="path37" />
    </g>
    <g
       font-family="'Arial'"
       text-rendering="geometricPrecision"
       transform="matrix(3.9622,-0,0,3.9622,-2361.964,-691.0231)"
       id="g38">
      <path
         d="m 798.15881,244.2803 v -6.22265 h 0.94922 v 0.88476 q 0.68555,-1.02539 1.98047,-1.02539 0.5625,0 1.03125,0.20508 0.47461,0.19922 0.70899,0.52734 0.23437,0.32813 0.32812,0.7793 0.0586,0.29297 0.0586,1.02539 v 3.82617 h -1.05468 v -3.78515 q 0,-0.64453 -0.12305,-0.96094 -0.12305,-0.32227 -0.43945,-0.50977 -0.31055,-0.19335 -0.73243,-0.19335 -0.67382,0 -1.16601,0.42773 -0.48633,0.42773 -0.48633,1.62305 v 3.39843 z"
         id="text37"
         clip-path="url(#1501453314944-clipPath1)"
         style="font-size:12px;stroke:none"
         aria-label="n  " />
    </g>
  </g>
</svg>
