<?xml version="1.0" encoding="UTF-8" standalone="no"?>
<svg
   version="1.0"
   width="2167"
   height="462"
   xml:space="preserve"
   id="svg22"
   sodipodi:docname="sodiumdodecylsulfate.svg"
   inkscape:version="1.4.2 (f4327f4, 2025-05-13)"
   xmlns:inkscape="http://www.inkscape.org/namespaces/inkscape"
   xmlns:sodipodi="http://sodipodi.sourceforge.net/DTD/sodipodi-0.dtd"
   xmlns="http://www.w3.org/2000/svg"
   xmlns:svg="http://www.w3.org/2000/svg"><defs
   id="defs22" /><sodipodi:namedview
   id="namedview22"
   pagecolor="#ffffff"
   bordercolor="#000000"
   borderopacity="0.25"
   inkscape:showpageshadow="2"
   inkscape:pageopacity="0.0"
   inkscape:pagecheckerboard="0"
   inkscape:deskcolor="#d1d1d1"
   inkscape:zoom="0.83940932"
   inkscape:cx="1084.0957"
   inkscape:cy="230.51924"
   inkscape:window-width="1920"
   inkscape:window-height="1111"
   inkscape:window-x="-9"
   inkscape:window-y="-9"
   inkscape:window-maximized="1"
   inkscape:current-layer="svg22" />
<style
   type="text/css"
   id="style1"><![CDATA[
   text {font-family: Helvetica, Arial, sans-serif; font-size: 100px}
   .sign {fill: none; stroke: black; stroke-width: 8}
]]></style>
<g
   transform="translate(50,37)"
   id="g22">
<path
   d="M 2064.2,164.3 L 2030.9,164.3 M 2047.5,181 L 2047.5,147.7 M 1864.7,163.8 L 1831.4,163.8"
   class="sign"
   id="path1" />
<path
   id="polygon1"
   d="m 4,194.3 -2,-3.5 -2,-3.5 126.5,-73 v 9 z" />
<path
   id="polygon2"
   d="m 126.5,123.3 v -9 l 125,72 v 9 z" />
<path
   id="polygon3"
   d="m 251.5,195.3 v -9 l 124.5,-72 v 9 z" />
<path
   id="polygon4"
   d="m 376,123.3 v -9 l 125,72 v 9 z" />
<path
   id="polygon5"
   d="m 501,195.3 v -9 l 124.5,-72 v 9 z" />
<path
   id="polygon6"
   d="m 625.5,123.3 v -9 l 125,72 v 9 z" />
<path
   id="polygon7"
   d="m 750.5,195.3 v -9 l 124.5,-72 v 9 z" />
<path
   id="polygon8"
   d="m 875,123.3 v -9 l 124.5,72 v 9 z" />
<path
   id="polygon9"
   d="m 999.5,195.3 v -9 l 125,-72 v 9 z" />
<path
   id="polygon10"
   d="m 1124.5,123.3 v -9 l 124.5,72 v 9 z" />
<path
   id="polygon11"
   d="m 1249,195.3 v -9 l 125,-72 v 9 z" />
<path
   id="polygon12"
   d="m 1374,123.3 v -9 l 86.5,50 -4,7 z" />
<path
   id="rect12"
   d="m 1543.5,186.8 h 59.5 v 8 h -59.5 z" />
<path
   id="rect13"
   d="m 1625.5,98.800003 h 8 V 145.3 h -8 z" />
<path
   id="rect14"
   d="m 1651.5,98.800003 h 8 V 145.3 h -8 z" />
<path
   id="rect15"
   d="m 1683,186.8 h 57 v 8 h -57 z" />
<path
   id="rect16"
   d="m 1651.5,242.3 h 8 v 47.5 h -8 z" />
<path
   id="rect17"
   d="m 1625.5,242.3 h 8 v 47.5 h -8 z" />
<path
   d="m 1464.334,194.93672 q 0,-17.82226 9.5703,-27.88086 9.5703,-10.10742 24.707,-10.10742 9.9121,0 17.8711,4.73633 7.959,4.73633 12.1094,13.23242 4.1992,8.44727 4.1992,19.18945 0,10.88868 -4.3945,19.48243 -4.3945,8.59375 -12.4512,13.0371 -8.0566,4.39454 -17.3828,4.39454 -10.1074,0 -18.0664,-4.88282 -7.959,-4.88281 -12.0606,-13.33007 -4.1015,-8.44727 -4.1015,-17.8711 z m 9.7656,0.14649 q 0,12.93945 6.9336,20.41015 6.9824,7.42188 17.4805,7.42188 10.6933,0 17.5781,-7.51953 6.9336,-7.51954 6.9336,-21.33789 0,-8.74024 -2.9785,-15.23438 -2.9297,-6.54297 -8.6426,-10.10742 -5.6641,-3.61328 -12.7441,-3.61328 -10.0586,0 -17.334,6.93359 -7.2266,6.88477 -7.2266,23.04688 z"
   id="text17"
   style="font-size:100px;font-family:Helvetica, Arial, sans-serif"
   aria-label="O" />
<path
   d="m 1614.9922,206.80196 8.9355,-0.78125 q 0.6348,5.37109 2.9297,8.83789 2.3438,3.41797 7.2266,5.5664 4.8828,2.09961 10.9863,2.09961 5.4199,0 9.5703,-1.61133 4.1504,-1.61132 6.1524,-4.39453 2.0508,-2.83203 2.0508,-6.15234 0,-3.36914 -1.9532,-5.85938 -1.9531,-2.53906 -6.4453,-4.24804 -2.8808,-1.12305 -12.7441,-3.4668 -9.8633,-2.39258 -13.8184,-4.49219 -5.1269,-2.68554 -7.666,-6.64062 -2.4902,-4.00391 -2.4902,-8.93555 0,-5.41992 3.0761,-10.10742 3.0762,-4.73633 8.9844,-7.17774 5.9082,-2.4414 13.1348,-2.4414 7.959,0 14.0136,2.58789 6.1036,2.53906 9.375,7.51953 3.2715,4.98047 3.5157,11.2793 l -9.0821,0.68359 q -0.7324,-6.78711 -4.9804,-10.25391 -4.1992,-3.46679 -12.4512,-3.46679 -8.5937,0 -12.5488,3.17383 -3.9063,3.125 -3.9063,7.56836 0,3.85742 2.7832,6.34765 2.7344,2.49024 14.2578,5.12695 11.5723,2.5879 15.8692,4.54102 6.25,2.88086 9.2285,7.32422 2.9785,4.39453 2.9785,10.15625 0,5.71289 -3.2715,10.79101 -3.2715,5.0293 -9.4238,7.86133 -6.1035,2.78321 -13.7695,2.78321 -9.7168,0 -16.3086,-2.83204 -6.543,-2.83203 -10.3028,-8.49609 -3.7109,-5.71289 -3.9062,-12.89062 z"
   id="text18"
   style="font-size:100px;font-family:Helvetica, Arial, sans-serif"
   aria-label="S" />
<path
   d="m 1608.334,50.936722 q 0,-17.822266 9.5703,-27.88086 9.5703,-10.107421 24.707,-10.107421 9.9121,0 17.8711,4.736328 7.959,4.736328 12.1094,13.232422 4.1992,8.447265 4.1992,19.189453 0,10.888672 -4.3945,19.482422 -4.3945,8.59375 -12.4512,13.037109 -8.0566,4.394531 -17.3828,4.394531 -10.1074,0 -18.0664,-4.882812 -7.959,-4.882813 -12.0606,-13.330078 -4.1015,-8.447266 -4.1015,-17.871094 z m 9.7656,0.146484 q 0,12.939453 6.9336,20.410156 6.9824,7.421875 17.4805,7.421875 10.6933,0 17.5781,-7.519531 6.9336,-7.519531 6.9336,-21.33789 0,-8.740235 -2.9785,-15.234375 -2.9297,-6.542969 -8.6426,-10.107422 -5.6641,-3.613282 -12.7441,-3.613282 -10.0586,0 -17.334,6.933594 -7.2266,6.884766 -7.2266,23.046875 z"
   id="text19"
   style="font-size:100px;font-family:Helvetica, Arial, sans-serif"
   aria-label="O" />
<path
   d="m 1752.334,194.93672 q 0,-17.82226 9.5703,-27.88086 9.5703,-10.10742 24.707,-10.10742 9.9121,0 17.8711,4.73633 7.959,4.73633 12.1094,13.23242 4.1992,8.44727 4.1992,19.18945 0,10.88868 -4.3945,19.48243 -4.3945,8.59375 -12.4512,13.0371 -8.0566,4.39454 -17.3828,4.39454 -10.1074,0 -18.0664,-4.88282 -7.959,-4.88281 -12.0606,-13.33007 -4.1015,-8.44727 -4.1015,-17.8711 z m 9.7656,0.14649 q 0,12.93945 6.9336,20.41015 6.9824,7.42188 17.4805,7.42188 10.6933,0 17.5781,-7.51953 6.9336,-7.51954 6.9336,-21.33789 0,-8.74024 -2.9785,-15.23438 -2.9297,-6.54297 -8.6426,-10.10742 -5.6641,-3.61328 -12.7441,-3.61328 -10.0586,0 -17.334,6.93359 -7.2266,6.88477 -7.2266,23.04688 z"
   id="text20"
   style="font-size:100px;font-family:Helvetica, Arial, sans-serif"
   aria-label="O" />
<path
   d="m 1608.334,338.93671 q 0,-17.82227 9.5703,-27.88086 9.5703,-10.10742 24.707,-10.10742 9.9121,0 17.8711,4.73632 7.959,4.73633 12.1094,13.23243 4.1992,8.44726 4.1992,19.18945 0,10.88867 -4.3945,19.48242 -4.3945,8.59375 -12.4512,13.03711 -8.0566,4.39453 -17.3828,4.39453 -10.1074,0 -18.0664,-4.88281 -7.959,-4.88281 -12.0606,-13.33008 -4.1015,-8.44727 -4.1015,-17.87109 z m 9.7656,0.14648 q 0,12.93945 6.9336,20.41016 6.9824,7.42187 17.4805,7.42187 10.6933,0 17.5781,-7.51953 6.9336,-7.51953 6.9336,-21.33789 0,-8.74023 -2.9785,-15.23437 -2.9297,-6.54297 -8.6426,-10.10743 -5.6641,-3.61328 -12.7441,-3.61328 -10.0586,0 -17.334,6.9336 -7.2266,6.88476 -7.2266,23.04687 z"
   id="text21"
   style="font-size:100px;font-family:Helvetica, Arial, sans-serif"
   aria-label="O" />
<path
   d="m 1902.6172,229.8 v -71.58203 h 9.7168 l 37.5976,56.20117 v -56.20117 h 9.0821 V 229.8 h -9.7168 l -37.5977,-56.25 v 56.25 z m 105.0293,-6.39648 q -4.8828,4.15039 -9.4238,5.85937 -4.4922,1.70899 -9.668,1.70899 -8.5449,0 -13.1348,-4.15039 -4.5898,-4.19922 -4.5898,-10.69336 0,-3.8086 1.709,-6.9336 1.7578,-3.17382 4.541,-5.07812 2.832,-1.9043 6.3476,-2.88086 2.5879,-0.68359 7.8125,-1.31836 10.6446,-1.26953 15.6739,-3.02734 0.049,-1.80664 0.049,-2.29493 0,-5.37109 -2.4902,-7.56835 -3.3692,-2.97852 -10.0098,-2.97852 -6.2012,0 -9.1797,2.19727 -2.9297,2.14843 -4.3457,7.66601 l -8.5937,-1.17187 q 1.1718,-5.51758 3.8574,-8.88672 2.6855,-3.41797 7.7636,-5.22461 5.0782,-1.85547 11.7676,-1.85547 6.6406,0 10.791,1.5625 4.1504,1.5625 6.1036,3.95508 1.9531,2.34375 2.7343,5.95703 0.4395,2.24609 0.4395,8.10547 v 11.71875 q 0,12.25586 0.5371,15.52734 0.5859,3.22266 2.2461,6.20117 h -9.1797 q -1.3672,-2.73437 -1.7578,-6.39648 z m -0.7324,-19.62891 q -4.7852,1.95313 -14.3555,3.32031 -5.4199,0.78125 -7.666,1.75782 -2.2461,0.97656 -3.4668,2.88086 -1.2207,1.85547 -1.2207,4.15039 0,3.51562 2.6367,5.85937 2.6855,2.34375 7.8125,2.34375 5.0781,0 9.0332,-2.19726 3.9551,-2.2461 5.8105,-6.10352 1.4161,-2.97851 1.4161,-8.78906 z"
   id="text22"
   style="font-size:100px;font-family:Helvetica, Arial, sans-serif"
   aria-label="Na" />
</g>
</svg>
