<?xml version="1.0" encoding="UTF-8"?>
<!-- Converted by misc2svg (http://www.network-science.de/tools/misc2svg/) -->
<svg xmlns="http://www.w3.org/2000/svg" xmlns:xlink="http://www.w3.org/1999/xlink" width="206pt" height="210pt" viewBox="0 0 206 210" version="1.1">
<defs>
<clipPath id="clip1">
  <path d="M 0 210 L 206.25 210 L 206.25 0 L 0 0 L 0 210 Z M 0 210 "/>
</clipPath>
</defs>
<g id="misc2svg">
<g clip-path="url(#clip1)" clip-rule="nonzero">
<path style=" stroke:none;fill-rule:nonzero;fill:rgb(0%,0%,0%);fill-opacity:1;" d="M 15.6875 179.9375 L 13.5625 181.125 L 13.5625 130.3125 L 15.6875 131.5 L 15.6875 179.9375 Z M 15.6875 179.9375 "/>
<path style=" stroke:none;fill-rule:nonzero;fill:rgb(0%,0%,0%);fill-opacity:1;" d="M 21 176.25 L 23.125 176.25 L 23.125 135.1875 L 21 135.1875 L 21 176.25 Z M 21 176.25 "/>
<path style=" stroke:none;fill-rule:nonzero;fill:rgb(0%,0%,0%);fill-opacity:1;" d="M 57.5625 204.125 L 57.5625 206.5625 L 13.5625 181.125 L 15.6875 179.9375 L 57.5625 204.125 Z M 57.5625 204.125 "/>
<path style=" stroke:none;fill-rule:nonzero;fill:rgb(0%,0%,0%);fill-opacity:1;" d="M 99.5 179.9375 L 101.625 181.125 L 57.5625 206.5625 L 57.5625 204.125 L 99.5 179.9375 Z M 99.5 179.9375 "/>
<path style=" stroke:none;fill-rule:nonzero;fill:rgb(0%,0%,0%);fill-opacity:1;" d="M 92.5625 175.3125 L 93.625 177.125 L 58.125 197.6875 L 57.0625 195.8125 L 92.5625 175.3125 Z M 92.5625 175.3125 "/>
<path style=" stroke:none;fill-rule:nonzero;fill:rgb(0%,0%,0%);fill-opacity:1;" d="M 99.5 131.5 L 101.625 130.3125 L 101.625 181.125 L 99.5 179.9375 L 99.5 131.5 Z M 99.5 131.5 "/>
<path style=" stroke:none;fill-rule:nonzero;fill:rgb(0%,0%,0%);fill-opacity:1;" d="M 57.5625 107.3125 L 57.5625 106.125 L 58.625 105.5 L 101.625 130.3125 L 99.5 131.5 L 57.5625 107.3125 Z M 57.5625 107.3125 "/>
<path style=" stroke:none;fill-rule:nonzero;fill:rgb(0%,0%,0%);fill-opacity:1;" d="M 57.0625 115.625 L 58.125 113.75 L 93.625 134.3125 L 92.5625 136.125 L 57.0625 115.625 Z M 57.0625 115.625 "/>
<path style=" stroke:none;fill-rule:nonzero;fill:rgb(0%,0%,0%);fill-opacity:1;" d="M 15.6875 131.5 L 13.5625 130.3125 L 56.5 105.5 L 57.5625 106.125 L 57.5625 107.3125 L 15.6875 131.5 Z M 15.6875 131.5 "/>
<path style=" stroke:none;fill-rule:nonzero;fill:rgb(0%,0%,0%);fill-opacity:1;" d="M 56.5 55.875 L 58.625 57.125 L 58.625 105.5 L 57.5625 106.125 L 56.5 105.5 L 56.5 55.875 Z M 56.5 55.875 "/>
<path style=" stroke:none;fill-rule:nonzero;fill:rgb(0%,0%,0%);fill-opacity:1;" d="M 90.320312 32.15625 C 90.320312 28.601562 91.277344 25.820312 93.191406 23.796875 C 95.105469 21.78125 97.578125 20.769531 100.613281 20.769531 C 102.589844 20.769531 104.375 21.25 105.964844 22.195312 C 107.566406 23.132812 108.78125 24.457031 109.617188 26.160156 C 110.445312 27.855469 110.867188 29.773438 110.867188 31.921875 C 110.867188 34.101562 110.421875 36.042969 109.539062 37.761719 C 108.664062 39.480469 107.421875 40.785156 105.808594 41.667969 C 104.191406 42.554688 102.453125 42.996094 100.59375 42.996094 C 98.570312 42.996094 96.765625 42.507812 95.164062 41.53125 C 93.570312 40.554688 92.371094 39.222656 91.550781 37.527344 C 90.730469 35.835938 90.320312 34.046875 90.320312 32.15625 Z M 93.25 32.214844 C 93.25 34.792969 93.945312 36.835938 95.339844 38.328125 C 96.730469 39.8125 98.476562 40.554688 100.574219 40.554688 C 102.722656 40.554688 104.484375 39.808594 105.867188 38.308594 C 107.242188 36.800781 107.9375 34.664062 107.9375 31.902344 C 107.9375 30.160156 107.632812 28.636719 107.039062 27.332031 C 106.453125 26.019531 105.585938 25.003906 104.441406 24.285156 C 103.308594 23.570312 102.039062 23.210938 100.632812 23.210938 C 98.609375 23.210938 96.875 23.90625 95.417969 25.28125 C 93.972656 26.664062 93.25 28.972656 93.25 32.214844 Z M 93.25 32.214844 "/>
<path style=" stroke:none;fill-rule:nonzero;fill:rgb(0%,0%,0%);fill-opacity:1;" d="M 88.25 37.5625 L 89.3125 39.4375 L 58.625 57.125 L 56.5 55.875 L 88.25 37.5625 Z M 88.25 37.5625 "/>
<path style=" stroke:none;fill-rule:nonzero;fill:rgb(0%,0%,0%);fill-opacity:1;" d="M 4.382812 32.15625 C 4.382812 28.601562 5.339844 25.820312 7.253906 23.796875 C 9.167969 21.78125 11.640625 20.769531 14.675781 20.769531 C 16.652344 20.769531 18.4375 21.25 20.027344 22.195312 C 21.628906 23.132812 22.84375 24.457031 23.679688 26.160156 C 24.507812 27.855469 24.929688 29.773438 24.929688 31.921875 C 24.929688 34.101562 24.484375 36.042969 23.601562 37.761719 C 22.726562 39.480469 21.484375 40.785156 19.871094 41.667969 C 18.253906 42.554688 16.515625 42.996094 14.65625 42.996094 C 12.632812 42.996094 10.828125 42.507812 9.226562 41.53125 C 7.632812 40.554688 6.433594 39.222656 5.613281 37.527344 C 4.792969 35.835938 4.382812 34.046875 4.382812 32.15625 Z M 7.3125 32.214844 C 7.3125 34.792969 8.007812 36.835938 9.402344 38.328125 C 10.792969 39.8125 12.539062 40.554688 14.636719 40.554688 C 16.785156 40.554688 18.546875 39.808594 19.929688 38.308594 C 21.304688 36.800781 22 34.664062 22 31.902344 C 22 30.160156 21.695312 28.636719 21.101562 27.332031 C 20.515625 26.019531 19.648438 25.003906 18.503906 24.285156 C 17.371094 23.570312 16.101562 23.210938 14.695312 23.210938 C 12.671875 23.210938 10.9375 23.90625 9.480469 25.28125 C 8.035156 26.664062 7.3125 28.972656 7.3125 32.214844 Z M 7.3125 32.214844 "/>
<path style=" stroke:none;fill-rule:nonzero;fill:rgb(0%,0%,0%);fill-opacity:1;" d="M 24.0625 42.6875 L 25.125 40.8125 L 58.125 59.875 L 57.0625 61.6875 L 24.0625 42.6875 Z M 24.0625 42.6875 "/>
<path style=" stroke:none;fill-rule:nonzero;fill:rgb(0%,0%,0%);fill-opacity:1;" d="M 27.8125 36.25 L 28.875 34.375 L 61.8125 53.4375 L 60.75 55.25 L 27.8125 36.25 Z M 27.8125 36.25 "/>
<path style=" stroke:none;fill-rule:nonzero;fill:rgb(0%,0%,0%);fill-opacity:1;" d="M 154.285156 44.25 L 154.285156 22.765625 L 157.195312 22.765625 L 168.484375 39.640625 L 168.484375 22.765625 L 171.199219 22.765625 L 171.199219 44.25 L 168.289062 44.25 L 157.019531 27.375 L 157.019531 44.25 L 154.285156 44.25 Z M 154.285156 44.25 "/>
<path style=" stroke:none;fill-rule:nonzero;fill:rgb(0%,0%,0%);fill-opacity:1;" d="M 185.789062 42.335938 C 184.8125 43.15625 183.863281 43.742188 182.957031 44.09375 C 182.058594 44.429688 181.089844 44.601562 180.066406 44.601562 C 178.355469 44.601562 177.042969 44.1875 176.121094 43.351562 C 175.207031 42.523438 174.753906 41.453125 174.753906 40.148438 C 174.753906 39.382812 174.917969 38.683594 175.261719 38.058594 C 175.613281 37.433594 176.066406 36.9375 176.628906 36.554688 C 177.183594 36.164062 177.820312 35.871094 178.523438 35.675781 C 179.039062 35.546875 179.820312 35.417969 180.867188 35.285156 C 183 35.027344 184.566406 34.71875 185.574219 34.367188 C 185.582031 34.015625 185.59375 33.789062 185.59375 33.683594 C 185.59375 32.617188 185.339844 31.863281 184.832031 31.417969 C 184.167969 30.820312 183.171875 30.519531 181.84375 30.519531 C 180.59375 30.519531 179.675781 30.742188 179.089844 31.183594 C 178.503906 31.613281 178.0625 32.382812 177.78125 33.488281 L 175.203125 33.136719 C 175.4375 32.03125 175.816406 31.140625 176.355469 30.460938 C 176.886719 29.789062 177.664062 29.265625 178.679688 28.898438 C 179.695312 28.523438 180.871094 28.332031 182.214844 28.332031 C 183.542969 28.332031 184.621094 28.488281 185.457031 28.800781 C 186.285156 29.113281 186.902344 29.515625 187.292969 29.992188 C 187.683594 30.460938 187.957031 31.0625 188.113281 31.789062 C 188.191406 32.234375 188.230469 33.039062 188.230469 34.210938 L 188.230469 37.726562 C 188.230469 40.179688 188.289062 41.726562 188.40625 42.375 C 188.523438 43.03125 188.742188 43.65625 189.070312 44.25 L 186.316406 44.25 C 186.042969 43.703125 185.867188 43.070312 185.789062 42.335938 Z M 185.574219 36.4375 C 184.605469 36.828125 183.171875 37.160156 181.257812 37.433594 C 180.171875 37.589844 179.40625 37.765625 178.953125 37.960938 C 178.507812 38.15625 178.160156 38.445312 177.917969 38.820312 C 177.683594 39.203125 177.566406 39.617188 177.566406 40.070312 C 177.566406 40.773438 177.824219 41.359375 178.347656 41.828125 C 178.878906 42.296875 179.660156 42.53125 180.691406 42.53125 C 181.707031 42.53125 182.609375 42.3125 183.40625 41.867188 C 184.195312 41.429688 184.777344 40.820312 185.144531 40.050781 C 185.425781 39.453125 185.574219 38.578125 185.574219 37.414062 L 185.574219 36.4375 Z M 185.574219 36.4375 "/>
<path style="fill:none;stroke-width:27;stroke-linecap:butt;stroke-linejoin:miter;stroke:rgb(0%,0%,0%);stroke-opacity:1;stroke-miterlimit:10;" d="M 5546.1875 2106.75 C 5546.1875 2016.3125 5472.875 1943.0625 5382.5625 1943.0625 C 5292.1875 1943.0625 5218.875 2016.3125 5218.875 2106.75 C 5218.875 2197.0625 5292.1875 2270.3125 5382.5625 2270.3125 C 5472.875 2270.3125 5546.1875 2197.0625 5546.1875 2106.75 Z M 5546.1875 2106.75 " transform="matrix(0.0625,0,0,0.0625,-217.5,-116.25)"/>
<path style="fill:none;stroke-width:27;stroke-linecap:butt;stroke-linejoin:miter;stroke:rgb(0%,0%,0%);stroke-opacity:1;stroke-miterlimit:10;" d="M 5300.6875 2106.75 L 5464.375 2106.75 " transform="matrix(0.0625,0,0,0.0625,-217.5,-116.25)"/>
<path style="fill:none;stroke-width:27;stroke-linecap:butt;stroke-linejoin:miter;stroke:rgb(0%,0%,0%);stroke-opacity:1;stroke-miterlimit:10;" d="M 6705 2106.75 C 6705 2016.3125 6631.8125 1943.0625 6541.375 1943.0625 C 6451 1943.0625 6377.75 2016.3125 6377.75 2106.75 C 6377.75 2197.0625 6451 2270.3125 6541.375 2270.3125 C 6631.8125 2270.3125 6705 2197.0625 6705 2106.75 Z M 6705 2106.75 " transform="matrix(0.0625,0,0,0.0625,-217.5,-116.25)"/>
<path style="fill:none;stroke-width:27;stroke-linecap:butt;stroke-linejoin:miter;stroke:rgb(0%,0%,0%);stroke-opacity:1;stroke-miterlimit:10;" d="M 6459.625 2106.75 L 6623.1875 2106.75 " transform="matrix(0.0625,0,0,0.0625,-217.5,-116.25)"/>
<path style="fill:none;stroke-width:27;stroke-linecap:butt;stroke-linejoin:miter;stroke:rgb(0%,0%,0%);stroke-opacity:1;stroke-miterlimit:10;" d="M 6541.375 2024.875 L 6541.375 2188.5 " transform="matrix(0.0625,0,0,0.0625,-217.5,-116.25)"/>
</g>
</g>
</svg>
