<?xml version="1.0" encoding="UTF-8" standalone="no"?>
<!-- Created with Inkscape (http://www.inkscape.org/) -->

<svg
   version="1.1"
   id="svg1"
   width="67.919998"
   height="55.52"
   viewBox="0 0 67.919998 55.52"
   sodipodi:docname="sodiumbisulfite.svg"
   inkscape:version="1.4.2 (f4327f4, 2025-05-13)"
   xmlns:inkscape="http://www.inkscape.org/namespaces/inkscape"
   xmlns:sodipodi="http://sodipodi.sourceforge.net/DTD/sodipodi-0.dtd"
   xmlns="http://www.w3.org/2000/svg"
   xmlns:svg="http://www.w3.org/2000/svg">
  <defs
     id="defs1" />
  <sodipodi:namedview
     id="namedview1"
     pagecolor="#ffffff"
     bordercolor="#000000"
     borderopacity="0.25"
     inkscape:showpageshadow="2"
     inkscape:pageopacity="0.0"
     inkscape:pagecheckerboard="0"
     inkscape:deskcolor="#d1d1d1"
     inkscape:zoom="15.32781"
     inkscape:cx="33.957885"
     inkscape:cy="27.76"
     inkscape:window-width="1920"
     inkscape:window-height="1111"
     inkscape:window-x="-9"
     inkscape:window-y="-9"
     inkscape:window-maximized="1"
     inkscape:current-layer="g1" />
  <g
     inkscape:groupmode="layer"
     inkscape:label="Image"
     id="g1">
    <g
       id="g2"
       transform="translate(0.32620447,-0.13048183)">
      <path
         style="fill:#d0d0d0;fill-opacity:1"
         d="m 35.952398,51.9 -0.152399,-0.18 0.18,0.152399 c 0.099,0.08382 0.18,0.16482 0.18,0.18 0,0.06402 -0.06438,0.01676 -0.207601,-0.152399 z m 5.477396,-6.28 c -0.09951,-0.126884 -0.09668,-0.129714 0.03021,-0.0302 0.077,0.06039 0.14,0.123388 0.14,0.14 0,0.06584 -0.06569,0.02346 -0.170205,-0.109796 z M 40.224999,26.025351 c 0.05775,-0.02311 0.12675,-0.02027 0.153333,0.0063 0.02658,0.02658 -0.02067,0.04549 -0.105,0.04202 -0.0932,-0.0038 -0.112152,-0.02279 -0.04833,-0.04833 z m 17.541315,-6.232018 c 0.0038,-0.0932 0.0228,-0.112151 0.04833,-0.04833 0.02311,0.05775 0.02027,0.12675 -0.0063,0.153333 -0.02658,0.02658 -0.04549,-0.02067 -0.04202,-0.105 z m 0,-0.32 c 0.0038,-0.0932 0.0228,-0.112151 0.04833,-0.04833 0.02311,0.05775 0.02027,0.12675 -0.0063,0.153333 -0.02658,0.02658 -0.04549,-0.02067 -0.04202,-0.105 z M 25.824999,16.665351 c 0.05775,-0.02311 0.12675,-0.02027 0.153334,0.0063 0.02658,0.02658 -0.02067,0.04549 -0.105,0.04202 -0.0932,-0.0038 -0.112152,-0.0228 -0.04833,-0.04833 z m 0.16,-0.96 c 0.05775,-0.02311 0.12675,-0.02027 0.153334,0.0063 0.02658,0.02658 -0.02067,0.04549 -0.105,0.04202 -0.0932,-0.0038 -0.112152,-0.0228 -0.04833,-0.04833 z M 29.940174,12.44 c 8.88e-4,-0.176 0.01727,-0.23858 0.03641,-0.139067 0.01914,0.09951 0.01841,0.243513 -0.0016,0.32 -0.02002,0.07649 -0.03568,-0.0049 -0.03479,-0.180933 z M 15.462921,5.3007938 c 0.254606,-0.015924 0.650606,-0.015776 0.88,3.282e-4 0.229393,0.016104 0.02108,0.029133 -0.462921,0.028953 -0.484,-1.805e-4 -0.671686,-0.013357 -0.417079,-0.029281 z m 2.48,0 c 0.254606,-0.015924 0.650606,-0.015776 0.88,3.282e-4 0.229393,0.016104 0.02108,0.029133 -0.462921,0.028953 -0.484,-1.805e-4 -0.671686,-0.013357 -0.417079,-0.029281 z"
         id="path9" />
      <path
         style="fill:#b9b9b9;fill-opacity:1"
         d="m 34.806315,48.913334 c 0.0038,-0.0932 0.0228,-0.112152 0.04833,-0.04833 0.02311,0.05775 0.02027,0.12675 -0.0063,0.153334 -0.02658,0.02658 -0.04549,-0.02067 -0.04202,-0.105 z M 64.389794,16.34 c -0.09951,-0.126884 -0.09668,-0.129714 0.0302,-0.0302 0.13326,0.104509 0.175639,0.170204 0.109796,0.170204 -0.01661,0 -0.07961,-0.063 -0.14,-0.14 z"
         id="path8" />
      <path
         style="fill:#a3a3a3;fill-opacity:1"
         d="m 28.1945,50.92 c 5.2e-5,-1.056 0.01143,-1.476935 0.0253,-0.935412 0.01386,0.541524 0.01382,1.405524 -9.5e-5,1.92 -0.01391,0.514477 -0.02525,0.07141 -0.0252,-0.984588 z m -7.57e-4,-4.52 c 0,-0.902 0.01167,-1.271 0.02593,-0.82 0.01426,0.451 0.01426,1.189 0,1.64 -0.01426,0.451 -0.02593,0.082 -0.02593,-0.82 z M 23.199999,9.4097957 c 0,-0.016613 0.063,-0.079612 0.14,-0.14 0.126885,-0.09951 0.129714,-0.09668 0.03021,0.030204 -0.10451,0.1332598 -0.170205,0.1756383 -0.170205,0.1097956 z M 16.749925,6.2000001 c 1.8e-4,-0.4840001 0.01336,-0.6716856 0.02928,-0.417079 0.01592,0.2546065 0.01578,0.6506065 -3.28e-4,0.88 -0.0161,0.2293934 -0.02913,0.021079 -0.02895,-0.462921 z m 0,-2.4800001 c 1.8e-4,-0.484 0.01336,-0.6716855 0.02928,-0.417079 0.01592,0.2546066 0.01578,0.6506066 -3.28e-4,0.88 C 16.762773,4.4123145 16.749744,4.204 16.749925,3.72 Z"
         id="path7" />
      <path
         style="fill:#8c8c8c;fill-opacity:1"
         d="m 38.661522,52.984561 c 0.07784,-0.02028 0.185837,-0.01895 0.24,0.003 0.05416,0.02191 -0.0095,0.03851 -0.141523,0.03688 -0.132,-0.0016 -0.176315,-0.01956 -0.09848,-0.03984 z M 11.3,9.944854 c 0.077,-0.020122 0.203,-0.020122 0.28,0 0.077,0.020122 0.014,0.036586 -0.14,0.036586 -0.154,0 -0.217,-0.016464 -0.14,-0.036586 z"
         id="path6" />
      <path
         style="fill:#767676;fill-opacity:1"
         d="m 35.926315,48.913334 c 0.0038,-0.0932 0.02279,-0.112152 0.04833,-0.04833 0.02311,0.05775 0.02027,0.12675 -0.0063,0.153334 -0.02658,0.02658 -0.04549,-0.02067 -0.04202,-0.105 z M 37.989795,32.58 c -0.09951,-0.126884 -0.09668,-0.129714 0.0302,-0.0302 0.077,0.06039 0.14,0.123387 0.14,0.14 0,0.06584 -0.06569,0.02346 -0.170204,-0.109796 z M 59.749794,22.02 c -0.09951,-0.126884 -0.09668,-0.129714 0.0302,-0.0302 0.13326,0.104509 0.175639,0.170204 0.109796,0.170204 -0.01661,0 -0.07961,-0.063 -0.14,-0.14 z m -0.86348,-2.386667 c 0.0038,-0.0932 0.0228,-0.112151 0.04833,-0.04833 0.02311,0.05775 0.02027,0.12675 -0.0063,0.153333 -0.02658,0.02658 -0.04549,-0.02067 -0.04202,-0.105 z m -0.0063,-3.183537 c 0,-0.01661 0.063,-0.07961 0.14,-0.14 0.126885,-0.09951 0.129714,-0.09668 0.03021,0.0302 -0.10451,0.13326 -0.170205,0.175638 -0.170205,0.109796 z M 13.692631,11.84 c 0,-0.11 0.01816,-0.155 0.04035,-0.1 0.02219,0.055 0.02219,0.145 0,0.2 -0.02219,0.055 -0.04035,0.01 -0.04035,-0.1 z M 30.420174,6.2800001 c 8.88e-4,-0.176 0.01727,-0.2385803 0.03641,-0.1390673 0.01914,0.099513 0.01841,0.243513 -0.0016,0.32 -0.02002,0.076487 -0.03568,-0.00493 -0.03479,-0.1809327 z m 4.96,0 c 8.88e-4,-0.176 0.01727,-0.2385803 0.03641,-0.1390673 0.01913,0.099513 0.01841,0.243513 -0.0016,0.32 -0.02002,0.076487 -0.03568,-0.00493 -0.03479,-0.1809327 z"
         id="path5" />
      <path
         style="fill:#606060;fill-opacity:1"
         d="m 33.477151,48.76 c -1.4e-5,-2.244 0.01023,-3.173516 0.02277,-2.065591 0.01254,1.107924 0.01255,2.943924 2.6e-5,4.08 -0.01253,1.136075 -0.02278,0.229591 -0.0228,-2.014409 z m 2.449164,-0.08667 c 0.0038,-0.0932 0.02279,-0.112152 0.04833,-0.04833 0.02311,0.05775 0.02027,0.12675 -0.0063,0.153334 -0.02658,0.02658 -0.04549,-0.02067 -0.04202,-0.105 z m 2.938684,-4.087983 c 0.05775,-0.02311 0.12675,-0.02027 0.153333,0.0063 0.02658,0.02658 -0.02067,0.04549 -0.105,0.04202 -0.09319,-0.0038 -0.112152,-0.0228 -0.04833,-0.04833 z m 1.435,-19.518333 c 0.055,-0.02219 0.145,-0.02219 0.2,0 0.055,0.02219 0.01,0.04035 -0.1,0.04035 -0.11,0 -0.155,-0.01816 -0.1,-0.04035 z m 18.586315,-5.673685 c 0.0038,-0.09319 0.0228,-0.112151 0.04833,-0.04833 0.02311,0.05775 0.02027,0.12675 -0.0063,0.153333 -0.02658,0.02658 -0.04549,-0.02067 -0.04202,-0.105 z M 23.269795,15.54 c -0.09951,-0.126884 -0.09668,-0.129714 0.0302,-0.0302 0.13326,0.104509 0.175639,0.170204 0.109796,0.170204 -0.01661,0 -0.07961,-0.063 -0.14,-0.14 z m -9.559542,-2.66 c 0,-0.506 0.01299,-0.713 0.02887,-0.46 0.01588,0.253 0.01588,0.667 0,0.92 -0.01588,0.253 -0.02887,0.046 -0.02887,-0.46 z M 28.709795,9.3000001 c -0.09951,-0.1268845 -0.09668,-0.1297141 0.0302,-0.030204 0.13326,0.1045095 0.175639,0.1702044 0.109796,0.1702044 -0.01661,0 -0.07961,-0.063 -0.14,-0.14 z M 19.221789,4.96 c 0,-0.198 0.0156,-0.279 0.03467,-0.18 0.01907,0.099 0.01907,0.261 0,0.36 -0.01907,0.099 -0.03467,0.018 -0.03467,-0.18 z M 16.94,2.8235414 c 0.099,-0.019068 0.261,-0.019068 0.36,0 0.099,0.019068 0.018,0.03467 -0.18,0.03467 -0.198,0 -0.279,-0.015601 -0.18,-0.03467 z"
         id="path4" />
      <path
         style="fill:#494949;fill-opacity:1"
         d="m 27.338215,52.822262 c 0.142019,-0.01767 0.394019,-0.01796 0.56,-6.45e-4 0.165981,0.01732 0.04978,0.03178 -0.258216,0.03213 -0.308,3.55e-4 -0.443803,-0.01381 -0.301784,-0.03149 z m 5.097725,-0.04399 c -0.02147,-0.05595 -0.02863,-0.928952 -0.01591,-1.94 L 32.443156,49 l 0.01842,1.896183 0.01842,1.896183 0.5,0.0284 0.5,0.0284 -0.502511,0.01541 c -0.344681,0.01057 -0.514772,-0.01654 -0.541548,-0.08632 z M 32.433861,46.44 c 6.6e-5,-0.924 0.01171,-1.291043 0.02588,-0.815652 0.01417,0.475392 0.01412,1.231392 -1.18e-4,1.68 -0.01423,0.448609 -0.02583,0.05965 -0.02576,-0.864348 z m 8.195933,-0.18 c -0.09951,-0.126884 -0.09668,-0.129714 0.03021,-0.0302 0.077,0.06039 0.14,0.123388 0.14,0.14 0,0.06584 -0.06569,0.02346 -0.170205,-0.109796 z m 2.48,-16.64 c -0.09951,-0.126884 -0.09668,-0.129714 0.03021,-0.0302 0.077,0.06039 0.14,0.123387 0.14,0.14 0,0.06584 -0.06569,0.02346 -0.170205,-0.109796 z M 1.8764569,12.76 c 2.16e-5,-1.76 0.010581,-2.468602 0.023465,-1.574672 0.012884,0.893931 0.012866,2.333931 -3.93e-5,3.2 C 1.8869766,15.251398 1.8764353,14.52 1.8764569,12.76 Z m 59.9485411,2.545351 c 0.05775,-0.02311 0.12675,-0.02027 0.153334,0.0063 0.02658,0.02658 -0.02067,0.04549 -0.105,0.04202 -0.0932,-0.0038 -0.112152,-0.02279 -0.04833,-0.04833 z M 13.69856,14 c 0,-0.154 0.01646,-0.217 0.03659,-0.14 0.02012,0.077 0.02012,0.203 0,0.28 -0.02012,0.077 -0.03659,0.014 -0.03659,-0.14 z"
         id="path3" />
      <path
         style="fill:#333333;fill-opacity:1"
         d="m 37.68837,52.833399 c -2.064411,-0.555151 -3.184654,-2.698442 -2.682095,-5.131485 0.230194,-1.114443 0.770665,-1.934591 1.651415,-2.505972 0.666375,-0.432306 1.302376,-0.58167 2.313209,-0.543251 0.732518,0.02784 0.893806,0.06191 1.38456,0.292442 1.050135,0.493307 1.616347,1.140921 2.014005,2.303556 0.185457,0.542219 0.215929,0.761144 0.215929,1.551311 0,0.790168 -0.03047,1.009093 -0.215929,1.551312 -0.464139,1.357005 -1.285583,2.150918 -2.572262,2.486056 -0.58265,0.151761 -1.536404,0.149966 -2.108832,-0.004 z m 2.231629,-0.987435 c 0.198,-0.100483 0.515971,-0.331931 0.706602,-0.51433 0.636351,-0.60887 0.890961,-1.334432 0.892448,-2.543207 0.0016,-1.276837 -0.394603,-2.230852 -1.152403,-2.775063 C 39.863019,45.651687 39.432295,45.52 38.752942,45.52 c -0.839028,0 -1.389701,0.223959 -1.964842,0.799099 -0.533199,0.533199 -0.74609,1.090342 -0.830713,2.174005 -0.129091,1.653086 0.583564,2.999583 1.82104,3.440692 0.591439,0.210823 1.637623,0.167916 2.141572,-0.08783 z m -12.8,-3.085964 v -4.04 h 0.52 0.52 v 1.68 1.68 h 2.16 2.16 V 46.4 44.72 h 0.48 0.48 v 4.04 4.04 h -0.48 -0.48 v -1.88 -1.88 h -2.16 -2.16 v 1.88 1.88 h -0.52 -0.52 z m 11.805714,-5.365714 c -0.06914,-0.06914 -0.125714,-0.19693 -0.125714,-0.283973 0,-0.531078 0.829322,-8.048513 0.896935,-8.130313 0.104992,-0.127023 0.401789,-0.129275 0.527065,-0.004 0.145002,0.145003 0.125611,0.438406 -0.300157,4.541496 -0.335978,3.237781 -0.41472,3.812604 -0.534241,3.9 -0.185453,0.135607 -0.311371,0.129306 -0.463888,-0.02321 z m 0.594286,-10.059018 c -1.219131,-0.27968 -2.058585,-1.13303 -2.211411,-2.248018 L 37.258251,30.72 h 0.364331 c 0.200382,0 0.417857,-0.02054 0.483278,-0.04564 0.08512,-0.03266 0.13526,0.02991 0.176306,0.22 0.198643,0.919967 0.883389,1.46614 2.041041,1.627994 0.486706,0.06805 1.32041,-0.08964 1.729108,-0.32705 0.425298,-0.247051 0.709245,-0.788196 0.639404,-1.218577 -0.107226,-0.660755 -0.513042,-0.921935 -2.060663,-1.326226 -1.998632,-0.52211 -2.505645,-0.797225 -2.848217,-1.545501 -0.169659,-0.370584 -0.196692,-0.525324 -0.163663,-0.936805 0.06939,-0.864405 0.452357,-1.38877 1.300823,-1.781092 0.407582,-0.188462 0.609277,-0.226673 1.33687,-0.253266 1.443873,-0.05277 2.379421,0.350148 2.87919,1.240009 0.140866,0.250818 0.238632,0.550203 0.248182,0.76 l 0.01576,0.346158 -0.455875,0.02387 -0.455874,0.02387 -0.08843,-0.328404 C 42.278,26.74693 41.836063,26.280958 41.382114,26.126282 c -0.468636,-0.15968 -1.312245,-0.162164 -1.840066,-0.0054 -0.648884,0.192698 -1.073772,0.776624 -0.945304,1.299137 0.146249,0.594831 0.4392,0.756287 2.153537,1.186888 1.434251,0.36025 1.951172,0.591165 2.401785,1.072908 1.031288,1.10253 0.493195,2.93273 -1.034547,3.518776 -0.583043,0.223658 -1.913298,0.293663 -2.59752,0.136696 z m 5.573333,-4.028601 c -0.09085,-0.09086 -0.05869,-0.482716 0.04667,-0.568502 C 45.320366,28.591298 56.078299,23.76 56.224963,23.76 c 0.306447,0 0.459462,0.437144 0.221998,0.634222 -0.231331,0.191987 -10.894954,4.964811 -11.093629,4.965285 -0.113667,2.71e-4 -0.230667,-0.02351 -0.26,-0.05284 z m 0.08667,-4.033728 c -0.162808,-0.09407 -0.189057,-0.495158 -0.04,-0.611195 0.055,-0.04281 2.5539,-1.184633 5.553111,-2.537373 3.929018,-1.772111 5.499703,-2.444738 5.619814,-2.406616 0.239071,0.07588 0.306844,0.420476 0.117574,0.59781 -0.08277,0.07756 -1.374499,0.691815 -2.870499,1.365023 -1.496,0.673208 -3.902685,1.757223 -5.348189,2.408921 -1.445503,0.651699 -2.687503,1.202775 -2.76,1.224613 -0.0725,0.02184 -0.194811,0.0033 -0.271811,-0.04118 z M 35.4996,23.913367 c -0.07722,-0.04497 -1.184222,-1.251885 -2.46,-2.682028 -2.310265,-2.589799 -2.469854,-2.809082 -2.223598,-3.055339 0.265641,-0.265641 0.418381,-0.126548 2.814798,2.563318 2.472984,2.775809 2.606827,2.96788 2.214461,3.177867 -0.184196,0.09858 -0.169558,0.09874 -0.345661,-0.0038 z m 25.148772,-0.359968 c -2.062186,-0.554553 -3.183618,-2.70319 -2.681021,-5.136772 0.258964,-1.253909 0.961648,-2.207026 1.983167,-2.68996 0.673342,-0.318329 0.966991,-0.378101 1.837961,-0.37412 1.501042,0.0069 2.721954,0.756648 3.324947,2.041915 0.333105,0.710006 0.441935,1.261628 0.435132,2.205538 -0.01473,2.043565 -1.046251,3.498158 -2.803652,3.953547 -0.598652,0.155126 -1.519365,0.155061 -2.096534,-1.48e-4 z m 2.280237,-1.014801 c 0.5302,-0.272163 1.096583,-0.907897 1.320749,-1.482467 0.266349,-0.682691 0.306962,-2.056175 0.08264,-2.79471 -0.427857,-1.408627 -1.358542,-2.076265 -2.797826,-2.007054 -0.577142,0.02775 -0.766303,0.07268 -1.122037,0.266503 -1.031391,0.561951 -1.482245,1.472951 -1.484273,2.99913 -0.0018,1.325389 0.353153,2.183177 1.145666,2.76895 0.534378,0.394977 0.96657,0.513452 1.766474,0.484234 0.544438,-0.01989 0.761459,-0.06665 1.088607,-0.234586 z M 25.079999,16.526312 C 23.754671,16.194713 22.774307,15.215505 22.350468,13.8 22.24995,13.464297 22.208029,13.06748 22.211019,12.48 c 0.0072,-1.410889 0.344683,-2.328503 1.154158,-3.1379778 1.403197,-1.4031966 3.859175,-1.4316376 5.307927,-0.061468 1.609465,1.5221648 1.655194,4.7213538 0.08986,6.2868648 -0.883527,0.883629 -2.402817,1.279188 -3.682969,0.958893 z m 2.066548,-0.991142 c 0.738815,-0.328681 1.242137,-0.890333 1.484475,-1.656512 0.429867,-1.359073 0.200022,-2.966439 -0.545258,-3.813122 -1.324528,-1.5047429 -3.836926,-1.0644451 -4.580291,0.802697 -0.156809,0.393864 -0.180222,0.600445 -0.182668,1.611767 -0.0027,1.106121 0.0076,1.182295 0.221375,1.64 0.349411,0.748133 0.943176,1.288169 1.681753,1.529575 0.479656,0.156776 1.439576,0.0996 1.920614,-0.114405 z M 9.7701517,15.960181 C 9.1300665,15.760541 8.6453868,15.105734 8.6417567,14.435708 8.6393201,13.985966 8.9747124,13.345671 9.3426485,13.097641 9.7318821,12.835255 10.02709,12.748853 11.04,12.600855 c 0.462,-0.0675 1.029,-0.16404 1.26,-0.214525 l 0.42,-0.09179 v -0.416481 c 0,-0.750412 -0.443121,-1.07815 -1.457431,-1.077934 -0.762028,1.63e-4 -1.072393,0.154108 -1.3303622,0.659876 -0.2057594,0.403408 -0.2569224,0.423752 -0.8281536,0.32931 l -0.2959466,-0.04893 0.153424,-0.403779 c 0.3313373,-0.872009 1.002684,-1.25969 2.2841194,-1.319006 0.924634,-0.0428 1.549429,0.09396 1.943282,0.425367 0.418725,0.352335 0.475987,0.669939 0.520624,2.887669 0.03162,1.57119 0.06779,2.076011 0.165456,2.30977 C 13.943755,15.804928 14,15.954861 14,15.973587 c 0,0.01873 -0.223984,0.02333 -0.497742,0.01023 L 13.004516,15.96 12.911846,15.64 c -0.05097,-0.176 -0.129418,-0.312189 -0.174333,-0.302641 -0.04491,0.0095 -0.23823,0.122712 -0.429589,0.251478 -0.682516,0.459268 -1.753441,0.615973 -2.5377723,0.371344 z M 11.802353,15.138414 C 12.432049,14.815598 12.72,14.308557 12.72,13.52257 12.72,13.257156 12.69854,13.04 12.672312,13.04 c -0.02623,0 -0.233228,0.05096 -0.46,0.113249 -0.226772,0.06229 -0.771761,0.175135 -1.211087,0.250775 -0.705263,0.121426 -0.829356,0.168107 -1.0600002,0.398751 -0.460741,0.460741 -0.3004071,1.160311 0.3319902,1.44854 0.334675,0.152535 1.125226,0.09417 1.529138,-0.112901 z M 0.87999998,11.92 V 7.8400001 L 1.42,7.8421788 1.9599999,7.8443576 4.0998798,11.062179 6.2397597,14.28 l 1.201e-4,-3.22 1.2e-4,-3.2199999 H 6.760733 7.2814661 L 7.260733,11.9 7.2399998,15.96 h -0.52 -0.52 L 4.1150584,12.859059 C 2.9683406,11.153541 1.9873406,9.7153408 1.9350585,9.6630586 1.8616471,9.5896472 1.84,10.300362 1.84,12.784 V 16 H 1.36 0.87999998 Z M 16.8,6.1600001 V 5.28 H 15.92 15.04 V 4.92 4.56 h 0.88 0.88 V 3.72 2.88 h 0.36 0.36 v 0.84 0.84 h 0.84 0.839999 V 4.92 5.28 H 18.36 17.52 v 0.8800001 0.88 H 17.16 16.8 Z m 13.679999,0.16 V 6 h 2.44 2.44 v 0.3200001 0.32 h -2.44 -2.44 z"
         id="path2" />
    </g>
  </g>
</svg>
