<?xml version="1.0" encoding="UTF-8" standalone="no"?>
<!-- Created with Inkscape (http://www.inkscape.org/) -->

<svg
   version="1.1"
   id="svg1"
   width="611.841"
   height="324.07074"
   viewBox="0 0 611.841 324.07074"
   sodipodi:docname="sodiumalginate.svg"
   inkscape:version="1.4.2 (f4327f4, 2025-05-13)"
   xmlns:inkscape="http://www.inkscape.org/namespaces/inkscape"
   xmlns:sodipodi="http://sodipodi.sourceforge.net/DTD/sodipodi-0.dtd"
   xmlns="http://www.w3.org/2000/svg"
   xmlns:svg="http://www.w3.org/2000/svg">
  <defs
     id="defs1" />
  <sodipodi:namedview
     id="namedview1"
     pagecolor="#ffffff"
     bordercolor="#000000"
     borderopacity="0.25"
     inkscape:showpageshadow="2"
     inkscape:pageopacity="0.0"
     inkscape:pagecheckerboard="0"
     inkscape:deskcolor="#d1d1d1"
     inkscape:zoom="0.88367577"
     inkscape:cx="352.50486"
     inkscape:cy="222.36663"
     inkscape:window-width="1920"
     inkscape:window-height="1111"
     inkscape:window-x="-9"
     inkscape:window-y="-9"
     inkscape:window-maximized="1"
     inkscape:current-layer="g1" />
  <g
     inkscape:groupmode="layer"
     inkscape:label="Image"
     id="g1"
     transform="translate(-3.3832606,-12.354909)">
    <path
       style="fill:#000000"
       d="m 260.19497,336.15903 c -2.53895,-0.77386 -3.8517,-2.50855 -3.8517,-5.08972 0,-1.58006 0.61151,-2.84426 1.90038,-3.92877 1.23773,-1.04148 2.32698,-1.38239 6.30656,-1.97379 1.78582,-0.26539 3.62854,-0.62761 4.09493,-0.80493 0.77271,-0.29379 0.82871,-0.42912 0.63094,-1.52465 -0.11938,-0.66124 -0.35368,-1.46644 -0.52068,-1.78934 -0.77448,-1.49747 -4.99472,-2.01327 -6.91138,-0.84471 -0.58259,0.3552 -1.27334,1.15818 -1.53499,1.7844 -0.46462,1.112 -0.50714,1.1334 -1.82074,0.91644 -1.63839,-0.27061 -1.62671,-0.2606 -1.39266,-1.19315 0.3692,-1.471 1.65697,-2.96009 3.24811,-3.75589 1.40155,-0.70098 2.01541,-0.8 4.95953,-0.8 3.80685,0 5.02059,0.45804 6.31892,2.38462 0.65685,0.97471 0.72311,1.45775 0.74383,5.4227 0.0241,4.62248 0.38174,9.42551 0.77076,10.35268 0.20608,0.49116 0.0328,0.56 -1.40931,0.56 -1.1816,0 -1.68648,-0.13506 -1.79424,-0.48 -0.50968,-1.63145 -0.41872,-1.55634 -1.19389,-0.98583 -2.27357,1.67332 -6.17454,2.47226 -8.54437,1.74994 z m 5.78922,-2.65617 c 1.13681,-0.47624 2.19794,-1.47967 2.7991,-2.6469 0.36213,-0.70313 0.51281,-3.94104 0.18339,-3.94104 -0.84295,0 -7.22081,1.46388 -7.91715,1.81719 -1.79808,0.9123 -1.77431,3.74824 0.0397,4.73336 1.09925,0.59698 3.5152,0.61543 4.89499,0.0374 z m -33.96092,-10.42794 v -12.8 l 1.84,0.008 1.84,0.008 6.56,9.90374 c 3.608,5.44706 6.668,9.9074 6.8,9.91187 0.132,0.004 0.24,-4.45587 0.24,-9.91187 v -9.92 h 1.6 1.6 v 12.8 12.8 l -1.84,-0.0145 -1.84,-0.0145 -6.5395,-9.76344 c -3.59672,-5.36988 -6.65672,-9.83587 -6.8,-9.92442 -0.14327,-0.0885 -0.2605,4.3115 -0.2605,9.77788 v 9.93889 h -1.6 -1.6 z M 105.6338,313.62323 c -4.89243,-1.37239 -8.092629,-5.50653 -8.557819,-11.05534 -0.49073,-5.85341 2.11733,-11.13387 6.582009,-13.32642 1.64043,-0.80559 2.12672,-0.88655 5.32528,-0.88655 3.20575,0 3.68256,0.0798 5.34083,0.89415 2.36977,1.16373 4.79651,3.81132 5.7075,6.22692 2.03604,5.39883 0.63269,12.45192 -3.13794,15.77096 -2.71069,2.38604 -7.56954,3.41145 -11.25986,2.37628 z m 7.23509,-3.28933 c 3.05981,-1.56245 4.65543,-4.80219 4.64254,-9.42618 -0.0171,-6.13509 -3.28214,-9.92295 -8.52727,-9.89269 -3.43628,0.0198 -5.99828,1.56617 -7.42446,4.48118 -1.16087,2.37273 -1.43414,7.04722 -0.57219,9.78759 0.86438,2.74811 2.86441,4.77588 5.59369,5.67129 1.3853,0.45448 4.85185,0.11201 6.28769,-0.62119 z m 168.75438,-4.69898 v -2.72 h -2.72 -2.72 v -1.12 -1.12 h 2.72 2.72 v -2.72 -2.72 h 1.12 1.12 v 2.72 2.72 h 2.72 2.72 v 1.12 1.12 h -2.72 -2.72 v 2.72 2.72 h -1.12 -1.12 z m -75.50947,-0.97169 c -4.89244,-1.37239 -8.09263,-5.50653 -8.55782,-11.05534 -0.49073,-5.85341 2.11733,-11.13387 6.58201,-13.32642 1.64043,-0.80559 2.12672,-0.88655 5.32528,-0.88655 3.20575,0 3.68256,0.0798 5.34083,0.89415 2.36977,1.16373 4.79651,3.81132 5.7075,6.22692 2.03604,5.39883 0.63269,12.45192 -3.13794,15.77096 -2.71069,2.38604 -7.56954,3.41145 -11.25986,2.37628 z m 7.23509,-3.28933 c 3.05981,-1.56245 4.65543,-4.80219 4.64254,-9.42618 -0.0171,-6.13509 -3.28214,-9.92295 -8.52726,-9.89269 -3.43629,0.0198 -5.99829,1.56617 -7.42447,4.48118 -1.16087,2.37273 -1.43414,7.04722 -0.57219,9.78759 0.86438,2.74811 2.86441,4.77588 5.59369,5.67129 1.3853,0.45448 4.85185,0.11201 6.28769,-0.62119 z m -87.44272,-3.40029 c -0.0974,-0.25372 -0.12885,-0.70966 -0.07,-1.0132 0.0589,-0.30355 9.42495,-7.33196 20.81349,-15.6187 11.38854,-8.28673 20.71068,-15.13879 20.71587,-15.22679 0.005,-0.088 -1.05001,-0.84922 -2.3449,-1.69161 l -2.35433,-1.5316 -0.20273,-25.5084 c -0.11151,-14.02962 -0.29319,-34.91371 -0.40374,-46.40911 l -0.201,-20.90071 -25.8778,-12.93968 c -14.23275,-7.11682 -25.87776,-12.90041 -25.87776,-12.85243 0,0.23641 27.93351,54.19684 28.19629,54.46804 0.26677,0.27534 18.04481,-1.45354 20.36371,-1.98032 0.64387,-0.14627 0.72,-0.0415 0.72,0.99113 0,0.63508 -0.036,1.16239 -0.08,1.17181 -0.044,0.009 -4.904,0.56641 -10.8,1.23775 l -10.72,1.22064 -18.56,-2.83938 c -10.208,-1.56166 -18.89425,-2.98424 -19.302779,-3.16128 -0.81348,-0.35253 -0.83712,-1.17743 -0.048,-1.67427 0.335419,-0.21118 6.019409,0.54795 18.079999,2.41469 9.67493,1.49749 17.61569,2.69976 17.64614,2.6717 0.15301,-0.14102 -28.72576,-55.7209 -28.93319,-55.6846 -0.13319,0.0233 -6.62362,2.09671 -14.423169,4.60757 -13.23815,4.26166 -14.21648,4.52972 -14.71458,4.03162 -0.40911,-0.40911 -0.45289,-0.6628 -0.18768,-1.08757 0.34008,-0.54469 1.95326,-1.10363 21.72163,-7.52618 l 8.318379,-2.70257 28.00163,13.91822 28.00162,13.91821 18.24,-1.33652 c 10.032,-0.73508 18.924,-1.42001 19.76,-1.52206 l 1.52,-0.18555 v 1.16123 c 0,0.63867 -0.15267,1.16123 -0.33928,1.16123 -0.84383,0 -38.17823,2.89478 -38.21533,2.96308 -0.023,0.0423 0.061,12.96492 0.18651,28.71692 0.12557,15.752 0.24176,36.14726 0.2582,45.3228 l 0.0299,16.68281 14.09363,9.55628 c 12.55525,8.51318 14.0834,9.64018 14,10.32492 -0.0515,0.42275 -0.3255,0.91373 -0.60891,1.09107 -0.53149,0.33257 -0.43829,0.39195 -17.39641,-11.08374 l -5.59453,-3.78585 -0.72689,0.82314 c -1.33325,1.50979 -41.01068,30.2474 -41.77693,30.25824 -0.40152,0.006 -0.8097,-0.19726 -0.90706,-0.45098 z m -4.13414,-13.63688 c -0.63231,-1.0231 0.80716,-2.19275 18.68399,-15.18181 19.42415,-14.11332 20.36725,-14.69525 20.36725,-12.56726 0,0.78468 -1.88169,2.24564 -18.64996,14.48 -18.06825,13.18284 -19.77037,14.2899 -20.40128,13.26907 z m 101.61124,-10.54181 v -0.96 h 7.84 7.84 v 0.96 0.96 h -7.84 -7.84 z m 380.14834,-20.4 c -0.006,-0.132 0.53196,-2.796 1.19641,-5.92 l 1.20809,-5.68 h 0.87558 c 0.81625,0 0.86157,0.0701 0.66866,1.03467 l -0.20694,1.03467 0.97242,-0.81824 c 2.19864,-1.85003 4.58195,-1.99572 5.87633,-0.3592 0.82142,1.03855 0.75646,1.96577 -0.5148,7.3481 -0.85014,3.59934 -0.85047,3.6 -1.81188,3.6 -0.83445,0 -0.93901,-0.0952 -0.79086,-0.72 1.47233,-6.20922 1.90425,-8.8713 1.51538,-9.33985 -1.02931,-1.24025 -4.04936,-0.0815 -5.13984,1.97214 -0.30149,0.56775 -0.88829,2.61975 -1.30401,4.56 -0.74173,3.46178 -0.77246,3.52771 -1.64436,3.52771 -0.48868,0 -0.89376,-0.108 -0.90018,-0.24 z m -10.54833,-10.96 c 0,-0.58311 0.21333,-0.64 2.4,-0.64 h 2.4 v -18.08 c 0,-9.944 -0.0856,-18.08 -0.19028,-18.08 -0.10465,0 -4.26113,1.728 -9.23662,3.84 -4.9755,2.112 -9.33846,3.84 -9.69549,3.84 -0.70065,0 -1.12052,-0.69161 -0.84916,-1.39876 0.0926,-0.24132 4.58809,-2.31539 9.98996,-4.60905 l 9.82159,-4.17028 0.0817,-29.15096 0.0817,-29.15096 h -2.40169 c -2.18835,0 -2.40168,-0.0568 -2.40168,-0.64 0,-0.60586 0.21333,-0.64 4,-0.64 h 4 v 29.09058 29.09058 l 6.26177,-2.69058 c 6.31421,-2.7131 7.60231,-3.07481 7.92795,-2.22621 0.35495,0.92499 -1.02638,1.74674 -7.54972,4.49129 l -6.64,2.79363 v 19.48536 19.48536 h -4 c -3.78667,0 -4,-0.0341 -4,-0.64 z m -102.56,-13.14952 -24.96,-7.64915 -32.16,3.87685 c -17.688,2.13227 -32.304,3.87852 -32.48,3.88056 -1.18881,0.0138 -32.40982,-6.61932 -32.76376,-6.96089 -0.48887,-0.47176 -0.28659,-1.36187 0.36644,-1.61246 0.22946,-0.0881 7.03673,1.19293 15.12726,2.84663 8.09053,1.65371 14.74652,2.97656 14.79108,2.93967 0.0646,-0.0535 -32.74233,-55.13311 -33.03472,-55.46202 -0.0442,-0.0497 -5.66549,1.93032 -12.49185,4.4 -6.82635,2.46968 -12.74121,4.49033 -13.14412,4.49033 -0.87217,0 -1.20053,-0.42869 -0.94502,-1.23374 0.14027,-0.44193 3.51896,-1.79322 13.60057,-5.43948 l 13.41393,-4.85147 26.98009,13.39357 c 14.83906,7.36646 27.01851,13.36509 27.06547,13.3303 0.0705,-0.0523 -7.89931,-39.87771 -8.38883,-41.91919 -0.13899,-0.57965 -0.44872,-0.64665 -3.285,-0.71059 -1.72235,-0.0388 -11.91554,-0.23734 -22.65154,-0.44116 -11.86394,-0.22522 -19.67689,-0.4953 -19.92,-0.68859 -0.69917,-0.55587 -0.48291,-1.80665 0.34844,-2.01531 0.41165,-0.10332 10.59349,0.0321 22.62631,0.30093 12.03282,0.26883 21.95102,0.41562 22.04045,0.32619 0.0894,-0.0894 -0.0922,-1.40033 -0.40359,-2.91313 l -0.56617,-2.75054 4.30699,-7.7139 c 12.91788,-23.13619 12.49482,-22.4339 13.51406,-22.4339 1.85944,0 1.36383,1.14269 -6.81744,15.71852 -4.25973,7.58918 -7.90648,14.153 -8.10389,14.58625 -0.29804,0.65414 0.49485,5.07056 4.67529,26.04149 2.76881,13.88956 5.1209,25.35419 5.22687,25.47697 0.10597,0.12277 8.54468,-0.41431 18.75268,-1.1935 10.208,-0.7792 18.812,-1.41965 19.12,-1.42322 0.4279,-0.005 0.56,0.25769 0.56,1.1135 0,1.00842 -0.0877,1.12002 -0.88,1.12026 -0.484,1.4e-4 -9.41116,0.64874 -19.83812,1.44132 l -18.95812,1.44107 -26.28,-13.14077 c -24.08951,-12.04547 -26.22586,-13.05247 -25.63052,-12.08133 0.35721,0.5827 7.65624,12.79545 16.22006,27.13945 8.56382,14.344 15.68053,26.19262 15.81491,26.33027 0.20366,0.20861 62.68686,-7.04375 63.02203,-7.3149 0.12879,-0.10419 -0.45096,-20.13808 -0.94274,-32.57766 -0.29477,-7.4563 -0.27738,-8.66498 0.13053,-9.07289 0.28406,-0.28406 0.73004,-0.38826 1.12511,-0.26287 0.83858,0.26615 0.93794,1.21003 1.19777,11.37805 0.59274,23.1959 0.92893,30.48556 1.41909,30.77036 0.67438,0.39185 45.55057,14.02574 45.69397,13.88234 0.0645,-0.0645 -3.38342,-5.31705 -7.66214,-11.67222 -6.47978,-9.62443 -7.72123,-11.64723 -7.43078,-12.10768 0.88495,-1.40294 1.41107,-0.77261 9.95383,11.92549 4.61719,6.86306 8.51354,12.51785 8.65856,12.56619 0.14503,0.0483 6.36044,-2.08214 13.81203,-4.7344 7.45159,-2.65227 13.85124,-4.77905 14.22144,-4.72619 0.87715,0.12524 1.08122,1.38156 0.29251,1.80079 -1.01787,0.54104 -28.55461,10.29655 -28.97525,10.26513 -0.22229,-0.0166 -11.63617,-3.4723 -25.36417,-7.67933 z m 68.12246,1.96586 c -5.00126,-1.19396 -8.41181,-5.56648 -8.70544,-11.16088 -0.42906,-8.17467 4.0904,-13.49546 11.46298,-13.49546 3.24092,0 5.49544,0.81667 7.68222,2.78277 2.84394,2.55694 4.03693,5.9286 3.7574,10.61922 -0.17731,2.9754 -0.77596,4.85024 -2.23861,7.01078 -2.23874,3.30697 -7.72576,5.25407 -11.95855,4.24357 z m 6.11754,-3.18429 c 2.74248,-1.27246 4.62337,-4.36533 4.88587,-8.03414 0.31228,-4.36454 -1.21885,-7.90096 -4.22078,-9.74859 -1.39419,-0.8581 -1.85318,-0.96847 -4,-0.96191 -2.75488,0.008 -4.29369,0.63708 -5.98376,2.44455 -1.59229,1.70288 -2.20133,3.76906 -2.20133,7.46804 0,2.57691 0.13055,3.48039 0.67045,4.64 0.82492,1.77176 2.43417,3.40536 4.12955,4.19202 1.71785,0.79708 5.0021,0.7971 6.72,3e-5 z m -216.03755,1.58429 c -5.00125,-1.19396 -8.4118,-5.56648 -8.70544,-11.16088 -0.42906,-8.17467 4.0904,-13.49546 11.46299,-13.49546 3.24091,0 5.49544,0.81667 7.68222,2.78277 2.84393,2.55694 4.03693,5.9286 3.7574,10.61922 -0.17731,2.9754 -0.77597,4.85024 -2.23861,7.01078 -2.23875,3.30697 -7.72576,5.25407 -11.95856,4.24357 z m 6.11755,-3.18429 c 2.74247,-1.27246 4.62337,-4.36533 4.88587,-8.03414 0.31228,-4.36454 -1.21886,-7.90096 -4.22078,-9.74859 -1.39419,-0.8581 -1.85318,-0.96847 -4,-0.96191 -2.75488,0.008 -4.29369,0.63708 -5.98377,2.44455 -1.59229,1.70288 -2.20132,3.76906 -2.20132,7.46804 0,2.57691 0.13054,3.48039 0.67045,4.64 0.82491,1.77176 2.43417,3.40536 4.12955,4.19202 1.71784,0.79708 5.0021,0.7971 6.72,3e-5 z m -38.56001,-9.15205 v -12 h 1.60001 1.6 v 4.96 4.96 h 6.4 6.4 v -4.96 -4.96 h 1.6 1.6 v 12 12 h -1.6 -1.6 v -5.6 -5.6 h -6.4 -6.4 v 5.6 5.6 h -1.6 -1.60001 z M 22.345261,199.4133 l -0.082,-24.46162 -8.64,3.82323 c -5.0646104,2.24111 -8.9710504,3.78946 -9.4400004,3.74162 -0.61689,-0.0629 -0.8,-0.26368 -0.8,-0.87708 0,-0.73604 0.71053,-1.10652 9.5125004,-4.96 l 9.51249,-4.16453 0.007,-24.72001 0.008,-24.72 h 4.16 c 3.94667,0 4.16,0.0328 4.16,0.64 0,0.58667 -0.21333,0.64 -2.56,0.64 h -2.56 v 23.3402 23.34019 l 4.4,-1.93425 c 14.17434,-6.23105 13.88506,-6.11823 14.39071,-5.61257 1.08568,1.08567 0.28572,1.58312 -9.34737,5.81263 l -9.44333,4.14619 v 24.57381 24.57381 h 2.56 c 2.34667,0 2.56,0.0533 2.56,0.64 0,0.60716 -0.21333,0.64 -4.15801,0.64 h -4.15801 z m 234.918069,9.595 c -0.47606,-0.47606 -49.56795,-15.21063 -50.68006,-15.21125 -0.704,-3.9e-4 -9.59909,0.93497 -19.76687,2.07858 -10.16777,1.14361 -18.69977,2.07929 -18.96,2.07929 -0.32177,0 -0.47313,-0.33728 -0.47313,-1.05428 v -1.05428 l 19.27428,-2.16666 c 10.60085,-1.19167 19.31986,-2.21225 19.37556,-2.26796 0.0557,-0.0557 -0.0515,-10.00134 -0.2383,-22.10141 -0.25287,-16.38168 -0.24684,-22.11189 0.0236,-22.43777 0.55831,-0.67273 1.54932,-0.52148 1.85003,0.28235 0.14814,0.396 0.37234,10.512 0.49823,22.48001 0.12589,11.968 0.32512,21.85111 0.44273,21.96248 0.29907,0.28317 45.81645,14.14159 45.96373,13.99431 0.066,-0.066 -3.32115,-5.23127 -7.52699,-11.47839 -4.20584,-6.24712 -7.65056,-11.667 -7.65494,-12.04417 -0.008,-0.71805 0.66976,-1.16673 1.35205,-0.89463 0.22,0.0877 4.21,5.82514 8.86667,12.74979 l 8.46666,12.59026 1.61334,-0.56011 c 36.66384,-12.72895 45.41607,-15.70092 45.80197,-15.55284 0.69513,0.26675 0.9193,1.14522 0.41512,1.62678 -0.24406,0.23312 -11.02776,4.09525 -23.96376,8.58251 -12.936,4.48725 -23.74352,8.24983 -24.01671,8.36128 -0.27319,0.11145 -0.57165,0.1277 -0.66323,0.0361 z m 226.4024,-4.95704 c -5.00125,-1.19396 -8.4118,-5.56648 -8.70543,-11.16089 -0.42906,-8.17466 4.09039,-13.49545 11.46298,-13.49545 3.24092,0 5.49544,0.81666 7.68222,2.78277 2.84393,2.55694 4.03693,5.9286 3.7574,10.61922 -0.17731,2.9754 -0.77596,4.85023 -2.23861,7.01078 -2.23874,3.30697 -7.72576,5.25407 -11.95856,4.24357 z m 6.11755,-3.1843 c 2.74248,-1.27246 4.62337,-4.36532 4.88587,-8.03413 0.31228,-4.36454 -1.21886,-7.90096 -4.22078,-9.74859 -1.39419,-0.8581 -1.85318,-0.96847 -4,-0.96191 -2.75488,0.008 -4.29369,0.63708 -5.98377,2.44454 -1.59228,1.70289 -2.20132,3.76907 -2.20132,7.46805 0,2.57691 0.13054,3.48038 0.67045,4.64 0.82492,1.77176 2.43417,3.40536 4.12955,4.19202 1.71785,0.79708 5.0021,0.7971 6.72,2e-5 z m -409.637549,2.5443 c -5.00126,-1.19396 -8.41181,-5.56648 -8.70544,-11.16089 -0.42906,-8.17466 4.0904,-13.49545 11.46298,-13.49545 3.24092,0 5.49545,0.81666 7.68223,2.78277 2.84393,2.55694 4.03693,5.9286 3.7574,10.61922 -0.17732,2.9754 -0.77597,4.85023 -2.23861,7.01078 -2.23875,3.30697 -7.72577,5.25407 -11.95856,4.24357 z m 6.11754,-3.1843 c 2.74248,-1.27246 4.62338,-4.36532 4.88588,-8.03413 0.31228,-4.36454 -1.21886,-7.90096 -4.22078,-9.74859 -1.39419,-0.8581 -1.85318,-0.96847 -4,-0.96191 -2.75489,0.008 -4.29369,0.63708 -5.98377,2.44454 -1.59229,1.70289 -2.20133,3.76907 -2.20133,7.46805 0,2.57691 0.13055,3.48038 0.67046,4.64 0.82491,1.77176 2.43416,3.40536 4.12954,4.19202 1.71785,0.79708 5.00211,0.7971 6.72,2e-5 z m -38.56,-9.15204 v -12 h 1.6 1.6 v 4.96 4.96 h 6.4 6.4 v -4.96 -4.96 h 1.6 1.6 v 12 12 h -1.6 -1.6 v -5.6 -5.6 h -6.4 -6.4 v 5.6 5.6 h -1.6 -1.6 z m 271.802459,5.61634 c -5.00125,-1.19396 -8.4118,-5.56648 -8.70544,-11.16089 -0.42906,-8.17466 4.0904,-13.49545 11.46299,-13.49545 3.24091,0 5.49544,0.81666 7.68222,2.78276 2.84393,2.55695 4.03693,5.92861 3.7574,10.61923 -0.17731,2.9754 -0.77597,4.85023 -2.23861,7.01078 -2.23875,3.30697 -7.72576,5.25407 -11.95856,4.24357 z m 6.11755,-3.1843 c 2.74247,-1.27246 4.62337,-4.36532 4.88587,-8.03413 0.31228,-4.36454 -1.21886,-7.90096 -4.22078,-9.74859 -1.39419,-0.8581 -1.85318,-0.96847 -4,-0.96191 -2.75488,0.008 -4.29369,0.63707 -5.98377,2.44454 -1.59229,1.70289 -2.20133,3.76907 -2.20133,7.46805 0,2.57691 0.13055,3.48038 0.67046,4.64 0.82491,1.77176 2.43417,3.40536 4.12955,4.19202 1.71784,0.79708 5.0021,0.7971 6.72,2e-5 z m 142.88,0.44796 c 0,-0.97306 0.10213,-1.12 0.77843,-1.12 1.03825,0 1.4652,1.21194 0.63962,1.81561 -0.9894,0.72347 -1.41805,0.51319 -1.41805,-0.69561 z M 225.42573,175.89126 c -5.00126,-1.19396 -8.41181,-5.56649 -8.70544,-11.16089 -0.42906,-8.17466 4.0904,-13.49546 11.46298,-13.49546 3.24092,0 5.49545,0.81667 7.68223,2.78277 2.84393,2.55695 4.03693,5.92861 3.7574,10.61923 -0.17732,2.9754 -0.77597,4.85023 -2.23861,7.01078 -2.23875,3.30697 -7.72577,5.25407 -11.95856,4.24357 z m 6.11754,-3.1843 c 2.74248,-1.27246 4.62338,-4.36532 4.88588,-8.03413 0.31228,-4.36455 -1.21886,-7.90096 -4.22078,-9.74859 -1.39419,-0.8581 -1.85318,-0.96847 -4,-0.96191 -2.75489,0.008 -4.29369,0.63707 -5.98377,2.44454 -1.59229,1.70289 -2.20133,3.76906 -2.20133,7.46805 0,2.57691 0.13055,3.48038 0.67045,4.64 0.82492,1.77176 2.43417,3.40535 4.12955,4.19202 1.71785,0.79708 5.00211,0.7971 6.72,2e-5 z m 229.08246,-0.3357 c -5.00125,-1.19396 -8.4118,-5.56649 -8.70543,-11.16089 -0.42906,-8.17466 4.09039,-13.49546 11.46298,-13.49546 3.24092,0 5.49544,0.81667 7.68222,2.78277 2.84393,2.55695 4.03693,5.92861 3.7574,10.61923 -0.17731,2.9754 -0.77596,4.85023 -2.23861,7.01078 -2.23874,3.30697 -7.72576,5.25407 -11.95856,4.24357 z m 6.11755,-3.1843 c 2.74248,-1.27246 4.62337,-4.36532 4.88587,-8.03413 0.31228,-4.36455 -1.21886,-7.90096 -4.22078,-9.74859 -1.39419,-0.8581 -1.85318,-0.96847 -4,-0.96191 -2.75488,0.008 -4.29369,0.63707 -5.98377,2.44454 -1.59228,1.70289 -2.20132,3.76906 -2.20132,7.46805 0,2.57691 0.13054,3.48038 0.67045,4.64 0.82492,1.77176 2.43417,3.40535 4.12955,4.19202 1.71785,0.79708 5.0021,0.7971 6.72,2e-5 z m -38.56,-9.15204 v -12.00001 h 1.6 1.6 v 4.96 4.96 h 6.4 6.4 v -4.96 -4.96 h 1.6 1.6 v 12.00001 12 h -1.6 -1.6 v -5.6 -5.6 h -6.4 -6.4 v 5.6 5.6 h -1.6 -1.6 z m -370.117549,7.85634 c -5.00126,-1.19396 -8.41181,-5.56649 -8.70544,-11.16089 -0.42906,-8.17466 4.0904,-13.49546 11.46298,-13.49546 3.24092,0 5.49545,0.81667 7.68223,2.78277 2.84393,2.55694 4.03693,5.92861 3.7574,10.61923 -0.17732,2.9754 -0.77597,4.85023 -2.23861,7.01078 -2.23875,3.30697 -7.72577,5.25407 -11.95856,4.24357 z m 6.11754,-3.1843 c 2.74248,-1.27246 4.62337,-4.36532 4.88588,-8.03413 0.31228,-4.36455 -1.21886,-7.90096 -4.22078,-9.74859 -1.39419,-0.8581 -1.85318,-0.96847 -4,-0.96191 -2.75489,0.008 -4.29369,0.63707 -5.98377,2.44454 -1.59229,1.70289 -2.20133,3.76906 -2.20133,7.46804 0,2.57692 0.13055,3.48039 0.67045,4.64001 0.82492,1.77176 2.43417,3.40535 4.12955,4.19202 1.71785,0.79708 5.00211,0.7971 6.72,2e-5 z m 146.719999,1.11462 c 0,-1.23724 0.31576,-1.44293 0.98226,-0.63984 0.29744,0.35838 0.32565,0.6574 0.0963,1.02095 -0.61595,0.97647 -1.07859,0.813 -1.07859,-0.38111 z m 134.09054,-10.91836 c -4.89244,-1.37238 -8.09264,-5.50652 -8.55783,-11.05534 -0.49073,-5.85341 2.11733,-11.13387 6.58201,-13.32642 1.64043,-0.80559 2.12673,-0.88655 5.32529,-0.88655 3.20575,0 3.68255,0.0798 5.34082,0.89416 2.36978,1.16373 4.79652,3.81131 5.7075,6.22691 2.03604,5.39883 0.63269,12.45192 -3.13794,15.77096 -2.71068,2.38604 -7.56954,3.41146 -11.25985,2.37628 z m 7.23508,-3.28932 c 3.05981,-1.56245 4.65543,-4.80219 4.64254,-9.42618 -0.0171,-6.1351 -3.28214,-9.92295 -8.52726,-9.8927 -3.43629,0.0198 -5.99828,1.56617 -7.42447,4.48118 -1.16087,2.37273 -1.43414,7.04723 -0.57219,9.7876 0.86439,2.7481 2.86442,4.77588 5.59369,5.67129 1.3853,0.45448 4.85186,0.112 6.28769,-0.62119 z M 203.34573,141.33126 c -5.00126,-1.19396 -8.41181,-5.56649 -8.70544,-11.16089 -0.42906,-8.17466 4.0904,-13.49546 11.46298,-13.49546 3.24092,0 5.49545,0.81667 7.68223,2.78277 2.84393,2.55694 4.03693,5.92861 3.7574,10.61923 -0.17732,2.9754 -0.77597,4.85023 -2.23861,7.01078 -2.23875,3.30697 -7.72577,5.25407 -11.95856,4.24357 z m 6.11754,-3.1843 c 2.74248,-1.27246 4.62337,-4.36532 4.88588,-8.03413 0.31228,-4.36455 -1.21886,-7.90096 -4.22078,-9.74859 -1.39419,-0.8581 -1.85318,-0.96848 -4,-0.96191 -2.75489,0.008 -4.29369,0.63707 -5.98377,2.44454 -1.59229,1.70289 -2.20133,3.76906 -2.20133,7.46804 0,2.57692 0.13055,3.48039 0.67045,4.64 0.82492,1.77177 2.43417,3.40536 4.12955,4.19202 1.71785,0.79709 5.00211,0.7971 6.72,3e-5 z m 12.96,-9.15205 v -12 h 1.6 1.6 v 4.96 4.96 h 6.4 6.4 v -4.96 -4.96 h 1.6 1.6 v 12 12 h -1.6 -1.6 v -5.6 -5.6 h -6.4 -6.4 v 5.6 5.6 h -1.6 -1.6 z m 165.12001,9.83612 c -13.35812,-0.28908 -21.75263,-0.59089 -22,-0.79096 -0.69651,-0.56333 -0.4835,-1.81201 0.34456,-2.01983 1.38832,-0.34845 45.37847,0.77203 45.85558,1.16799 1.12157,0.93082 0.0802,2.25369 -1.69911,2.15846 -0.49557,-0.0265 -10.62103,-0.25857 -22.50103,-0.51566 z m 46.73053,-30.32781 c -4.89244,-1.37239 -8.09264,-5.50652 -8.55783,-11.055341 -0.49073,-5.85341 2.11733,-11.13387 6.58201,-13.32642 1.64043,-0.80559 2.12673,-0.88655 5.32529,-0.88655 3.20575,0 3.68255,0.0798 5.34082,0.89416 2.36978,1.16373 4.79652,3.81131 5.7075,6.22691 2.03604,5.39883 0.63269,12.451921 -3.13793,15.770961 -2.71069,2.38604 -7.56955,3.41146 -11.25986,2.37628 z m 7.23508,-3.28932 c 3.05981,-1.56245 4.65543,-4.80219 4.64255,-9.426181 -0.0171,-6.1351 -3.28215,-9.92295 -8.52727,-9.8927 -3.43629,0.0198 -5.99828,1.56617 -7.42446,4.48118 -1.16087,2.37273 -1.43415,7.04723 -0.5722,9.787601 0.86439,2.7481 2.86442,4.77588 5.5937,5.67128 1.38529,0.45449 4.85185,0.11201 6.28768,-0.62118 z m 10.03439,-27.578991 v -0.96 h 7.84 7.84 v 0.96 0.96 h -7.84 -7.84 z m 6.41169,-24.35589 c -2.53895,-0.77386 -3.85169,-2.50855 -3.85169,-5.08972 0,-1.58005 0.6115,-2.84426 1.90037,-3.92877 1.23773,-1.04148 2.32699,-1.38239 6.30657,-1.97379 1.78581,-0.26539 3.62853,-0.62761 4.09492,-0.80493 0.77271,-0.29379 0.82872,-0.42912 0.63094,-1.52465 -0.11937,-0.66124 -0.35368,-1.46644 -0.52068,-1.78934 -0.77448,-1.49747 -4.99471,-2.01326 -6.91138,-0.8447 -0.58259,0.35519 -1.27333,1.15817 -1.53499,1.78439 -0.46462,1.112 -0.50714,1.1334 -1.82074,0.91644 -1.63839,-0.27061 -1.62671,-0.2606 -1.39265,-1.19314 0.36919,-1.47101 1.65696,-2.9601 3.2481,-3.7559 1.40156,-0.70098 2.01541,-0.8 4.95954,-0.8 3.80684,0 5.02059,0.45804 6.31891,2.38463 0.65685,0.9747 0.72311,1.45775 0.74383,5.4227 0.0242,4.62247 0.38174,9.4255 0.77076,10.35267 0.20609,0.49117 0.0328,0.56 -1.40931,0.56 -1.1816,0 -1.68647,-0.13506 -1.79424,-0.48 -0.50968,-1.63145 -0.41871,-1.55634 -1.19389,-0.98582 -2.27357,1.67331 -6.17453,2.47225 -8.54437,1.74993 z m 5.78923,-2.65617 c 1.1368,-0.47624 2.19793,-1.47967 2.79909,-2.6469 0.36213,-0.70313 0.51281,-3.94104 0.18339,-3.94104 -0.84295,0 -7.22081,1.46388 -7.91715,1.81719 -1.79808,0.9123 -1.77431,3.74824 0.0397,4.73337 1.09926,0.59697 3.5152,0.61542 4.895,0.0374 z m -33.96092,-10.42794 v -12.8 l 1.84,0.008 1.84,0.008 6.56,9.90374 c 3.608,5.44706 6.668,9.9074 6.8,9.91187 0.132,0.005 0.24,-4.45587 0.24,-9.91187 v -9.92 h 1.6 1.6 v 12.8 12.8 l -1.84,-0.0145 -1.84,-0.0145 -6.5395,-9.76343 c -3.59673,-5.36988 -6.65673,-9.83588 -6.8,-9.92442 -0.14328,-0.0885 -0.2605,4.3115 -0.2605,9.77788 v 9.93889 h -1.6 -1.6 z m 49.6,-17.44 v -2.72 h -2.72 -2.72 v -1.12 -1.12 h 2.72 2.72 v -2.72 -2.72 h 1.12 1.12 v 2.72 2.72 h 2.72 2.72 v 1.12 1.12 h -2.72 -2.72 v 2.72 2.72 h -1.12 -1.12 z"
       id="path1" />
  </g>
</svg>
