<?xml version="1.0" encoding="UTF-8" standalone="no"?>
<!-- Created with Inkscape (http://www.inkscape.org/) -->

<svg
   version="1.1"
   id="svg1"
   width="506.75076"
   height="478.36862"
   viewBox="0 0 506.75076 478.36862"
   sodipodi:docname="sodiumcarboxymethylcellulose.svg"
   inkscape:version="1.4.2 (f4327f4, 2025-05-13)"
   xmlns:inkscape="http://www.inkscape.org/namespaces/inkscape"
   xmlns:sodipodi="http://sodipodi.sourceforge.net/DTD/sodipodi-0.dtd"
   xmlns="http://www.w3.org/2000/svg"
   xmlns:svg="http://www.w3.org/2000/svg">
  <defs
     id="defs1" />
  <sodipodi:namedview
     id="namedview1"
     pagecolor="#ffffff"
     bordercolor="#000000"
     borderopacity="0.25"
     inkscape:showpageshadow="2"
     inkscape:pageopacity="0.0"
     inkscape:pagecheckerboard="0"
     inkscape:deskcolor="#d1d1d1"
     inkscape:zoom="1.227249"
     inkscape:cx="142.18794"
     inkscape:cy="261.1532"
     inkscape:window-width="1920"
     inkscape:window-height="1111"
     inkscape:window-x="-9"
     inkscape:window-y="-9"
     inkscape:window-maximized="1"
     inkscape:current-layer="g1" />
  <g
     inkscape:groupmode="layer"
     inkscape:label="Image"
     id="g1"
     transform="translate(-10.783833,-7.0541118)">
    <path
       style="fill:#000000"
       d="m 310.13866,484.67412 c 0,-1.0693 1.70597,-3.11742 8.01279,-9.61991 6.33849,-6.53514 7.5522,-8.67641 6.34498,-11.19412 -1.76206,-3.67488 -8.49868,-3.65632 -11.64468,0.0321 -1.46407,1.7165 -2.19696,1.72566 -2.19696,0.0275 0,-2.97208 5.22287,-5.87029 9.22564,-5.11936 4.22769,0.79312 7.29049,3.70578 7.29049,6.93309 0,2.7528 -1.69382,5.09339 -8.14347,11.25298 l -5.53395,5.28508 5.93549,0.0123 c 6.83611,0.0142 8.37525,0.29451 8.14893,1.48429 -0.19238,1.0114 -3.71635,1.47214 -11.89087,1.55467 -4.37156,0.0441 -5.54839,-0.0934 -5.54839,-0.64857 z m 94.96775,-0.03 c 0,-1.00609 1.86187,-3.23004 8.02698,-9.58799 7.10272,-7.32489 8.10958,-9.43595 5.77947,-12.11768 -2.29297,-2.63897 -7.6142,-2.36705 -10.51879,0.53754 -1.9264,1.9264 -2.77154,2.22337 -2.77154,0.97386 0,-1.45995 1.54589,-3.81753 2.99432,-4.56654 3.97013,-2.05304 8.44648,-1.3788 11.56762,1.74234 3.8551,3.8551 2.4557,7.35924 -6.16815,15.44526 l -5.55508,5.20863 6.45162,0.009 c 6.58205,0.009 8.11348,0.34513 7.60585,1.66797 -0.54855,1.42952 -17.4123,2.09537 -17.4123,0.68751 z m -23.36286,-10.13454 c -7.29801,-1.77582 -11.62499,-7.6572 -12.12835,-16.48525 -0.70438,-12.35375 5.40462,-20.30068 15.63864,-20.34364 6.5677,-0.0276 11.13461,3.14703 14.38024,9.99615 1.46156,3.08427 1.60071,3.82988 1.59393,8.54058 -0.007,4.55553 -0.17761,5.53143 -1.4575,8.31504 -3.34496,7.2749 -11.22009,11.63343 -18.02696,9.97712 z m 6.98679,-3.83627 c 5.69171,-0.91598 9.3721,-10.05441 7.62524,-18.93353 -1.23658,-6.28539 -3.69828,-9.227 -8.5676,-10.23787 -5.64453,-1.1718 -10.38801,1.12865 -12.50921,6.06659 -2.13874,4.97878 -1.92855,13.61675 0.44454,18.26837 1.73655,3.40394 6.39217,5.86846 10.02826,5.30863 0.56774,-0.0874 1.90819,-0.2999 2.97877,-0.47219 z m -140.39027,2.54791 c -4.86236,-2.42301 -7.91501,-9.12849 -7.92818,-17.41511 -0.0166,-10.46018 4.44102,-16.45076 13.27162,-17.83554 5.60202,-0.87848 10.5839,1.52602 13.13837,6.34125 1.15134,2.1703 1.17844,2.39418 0.38576,3.18686 -1.23272,1.23271 -3.10748,0.55338 -4.03672,-1.46273 -1.40855,-3.05606 -6.4506,-5.43019 -10.08451,-4.74847 -0.99613,0.18688 -2.56043,0.84445 -3.47622,1.46128 -6.19233,4.17084 -6.63419,20.52045 -0.70416,26.05492 1.72052,1.60575 5.97734,2.72397 8.07711,2.12176 3.68887,-1.05795 7.73617,-4.77943 7.73617,-7.11338 0,-1.46538 0.69576,-1.79035 2.2839,-1.06674 1.6238,0.73985 1.72689,2.28168 0.33499,5.01004 -2.43969,4.78218 -6.25705,6.78464 -12.93381,6.78464 -2.63083,0 -4.02729,-0.30368 -6.06432,-1.31878 z m 92.76634,0.49591 c -7.89879,-3.42135 -11.47713,-18.8839 -6.56654,-28.37505 2.31738,-4.47903 7.74768,-7.46685 13.65323,-7.51218 2.78915,-0.0214 3.71737,0.21405 5.71664,1.45011 2.8185,1.74254 5.77731,5.41013 5.77731,7.16125 0,0.89432 -0.36185,1.33118 -1.29702,1.5659 -1.37995,0.34634 -2.83201,-0.48386 -2.83201,-1.61917 0,-1.24135 -4.1528,-4.26686 -6.69316,-4.87629 -5.08705,-1.22036 -9.52095,1.50471 -11.10004,6.82209 -1.06575,3.58877 -1.04379,11.98551 0.0398,15.22043 0.45499,1.35831 1.37091,3.1918 2.03538,4.07444 2.49606,3.31558 7.49703,4.35923 11.37978,2.37484 2.40368,-1.22847 5.3666,-4.3548 5.37839,-5.67501 0.0172,-1.92059 0.76634,-2.33552 2.55083,-1.41272 1.42597,0.7374 1.61622,1.05751 1.33256,2.24222 -0.94661,3.95357 -4.61235,7.78446 -8.47574,8.85761 -2.76823,0.76893 -8.81758,0.60328 -10.89942,-0.29847 z M 10.783833,456.1996 v -17.88362 l 9.93548,0.18546 c 8.76649,0.16364 10.21422,0.31333 12.30448,1.27225 6.03813,2.77002 6.84184,11.35519 1.485,15.86268 -0.88584,0.74538 -2.18073,1.35524 -2.87754,1.35524 -2.09677,0 -2.01666,1.34585 0.23219,3.90068 2.1958,2.49456 8.12039,10.92713 8.65374,12.31703 0.24772,0.64556 -0.0591,0.81455 -1.47872,0.81455 -2.28392,0 -3.5551,-1.25469 -8.23681,-8.12999 -4.72996,-6.94613 -5.64237,-7.57815 -10.9676,-7.59715 l -4.147,-0.0148 -0.25806,7.74194 -0.25807,7.74194 -2.19354,0.1587 -2.19355,0.15871 z m 17.23649,-2.25476 c 4.0649,-0.50631 5.47318,-2.03066 5.47318,-5.9243 0,-2.17565 -0.239,-2.94449 -1.19431,-3.84196 -1.58494,-1.48897 -5.85844,-2.22954 -11.80367,-2.0455 l -4.80847,0.14886 -0.14812,5.38446 c -0.0815,2.96145 -0.0307,5.69048 0.11283,6.06451 0.29264,0.76262 7.02814,0.87912 12.36856,0.21393 z m 75.666727,2.27258 v -17.8658 l 2.17298,0.1587 c 2.72096,0.19873 2.86764,0.63903 2.93686,8.81606 l 0.0515,6.0767 8.90323,-0.14122 8.90322,-0.14122 0.25807,-7.2258 0.25806,-7.22581 2.19355,-0.15871 2.19355,-0.1587 v 17.8658 17.8658 l -2.19355,-0.15871 -2.19355,-0.1587 -0.25806,-8.25807 -0.25807,-8.25806 -8.90322,-0.14122 -8.90323,-0.14122 -0.0515,7.10896 c -0.0672,9.28243 -0.17579,9.64665 -2.93686,9.84831 l -2.17298,0.15871 z m 91.53834,17.16967 c -0.5015,-0.81144 -0.47918,-22.45788 0.0248,-24.00838 0.46782,-1.43937 1.85907,-1.52013 2.22285,-0.12903 0.34832,1.33197 0.98047,1.28299 3.50438,-0.27153 2.59219,-1.59657 5.08408,-1.67198 6.12535,-0.18535 1.22297,1.74604 0.52573,2.52139 -2.26739,2.52139 -5.17675,0 -5.75858,1.12126 -6.02602,11.61291 -0.26324,10.32641 -0.39888,11.09677 -1.95389,11.09677 -0.68007,0 -1.41358,-0.28655 -1.63003,-0.63678 z m 81.36489,-17.16967 v -17.80645 h 2.26736 c 1.59141,0 2.36075,0.24339 2.58064,0.8164 0.17231,0.44903 0.31329,3.81677 0.31329,7.48387 v 6.66747 h 9.03226 9.03225 v -6.66747 c 0,-3.6671 0.14098,-7.03484 0.31329,-7.48387 0.21989,-0.57301 0.98923,-0.8164 2.58064,-0.8164 h 2.26736 v 17.80645 17.80645 h -2.26736 c -1.59141,0 -2.36075,-0.24339 -2.58064,-0.81641 -0.17231,-0.44902 -0.31329,-4.28128 -0.31329,-8.51613 v -7.69972 h -9.03225 -9.03226 l -0.007,7.35484 c -0.009,9.5849 -0.0368,9.67742 -2.89186,9.67742 h -2.26238 z m -104,16.7951 c -1.64144,-0.68342 -3.72354,-3.16749 -4.91685,-5.8661 -3.59655,-8.13343 -0.0562,-17.31153 7.30551,-18.93903 1.76315,-0.3898 3.89306,-0.496 5.41935,-0.27023 4.70427,0.69585 8.96618,6.71705 8.96618,12.66736 0,4.97578 -2.84825,9.87675 -6.87201,11.82462 -2.33536,1.13053 -7.81297,1.45324 -9.90218,0.58338 z m 9.54838,-4.11355 c 2.41414,-1.71845 3.35582,-4.05379 3.3446,-8.29445 -0.0167,-6.32386 -2.48333,-9.28647 -7.73169,-9.28647 -4.88995,0 -7.9676,3.47947 -7.98579,9.0284 -0.0166,5.05988 1.92678,8.45604 5.45899,9.53993 2.00539,0.61538 5.32909,0.14071 6.91389,-0.98741 z m 287.32068,2.33984 c -4.43751,-1.64396 -6.45242,-5.48799 -5.41825,-10.33688 0.93972,-4.40606 5.04981,-6.59658 13.71048,-7.30715 4.07848,-0.33463 4.25806,-0.40264 4.25806,-1.61274 0,-0.7082 -0.66298,-1.92636 -1.50868,-2.77207 -1.39632,-1.39631 -1.79385,-1.50868 -5.33733,-1.50868 -2.10575,0 -4.96878,0.34587 -6.36228,0.76861 -1.39351,0.42273 -2.59171,0.77112 -2.66268,0.77419 -0.071,0.003 -0.12903,-1.02905 -0.12903,-2.29361 0,-2.23978 0.05,-2.3098 1.93548,-2.70967 1.06452,-0.22577 4.25807,-0.40192 7.09678,-0.39145 5.53583,0.0204 7.18384,0.53922 9.46246,2.97881 1.78056,1.90635 2.12452,4.26784 2.13813,14.67957 l 0.0123,9.41936 h -2.32258 c -2.11485,0 -2.32258,-0.11207 -2.32258,-1.25294 v -1.25293 l -2.96774,1.5154 c -3.60886,1.84277 -6.91181,2.29161 -9.58255,1.30218 z m 10.09868,-5.35924 2.45161,-1.31008 v -3.86305 -3.86306 l -3.74194,0.34742 c -6.58118,0.61102 -8.98454,1.77524 -9.89891,4.79518 -0.55153,1.82156 0.95099,4.72341 2.6391,5.09692 0.79935,0.17687 1.68562,0.39854 1.96949,0.49259 1.10021,0.36452 4.23819,-0.44418 6.58065,-1.69592 z m -50.70968,-12.75893 v -17.80645 h 3.82382 3.82382 l 7.66005,14.48588 7.66005,14.48587 0.13707,-14.48587 0.13707,-14.48588 h 2.05648 2.05648 v 17.83221 17.83221 l -2.94607,-0.15479 -2.94607,-0.15479 -8.27974,-15.63923 -8.27973,-15.63924 -0.1365,15.76827 -0.13649,15.76827 h -2.31512 -2.31512 z M 61.364473,463.7556 c -0.92667,-0.25776 -1.29032,-0.71458 -1.29032,-1.6209 0,-1.70561 1.2605,-1.92418 11.09677,-1.92418 9.83627,0 11.09678,0.21857 11.09678,1.92418 0,1.77298 -1.15937,1.97982 -11.09678,1.97982 -4.68387,0 -9.09677,-0.16151 -9.80645,-0.35892 z m 2.58551,-10.82946 c -3.27177,-0.27218 -3.89531,-0.47507 -4.05612,-1.31977 -0.38703,-2.03298 1.1288,-2.3571 10.98861,-2.34965 10.73986,0.008 11.64329,0.15005 11.64329,1.82915 0,0.65981 -0.17419,1.30458 -0.38709,1.43282 -0.71256,0.42918 -14.27535,0.73301 -18.18869,0.40745 z M 435.66124,318.56581 c -0.44622,-0.44623 -0.61935,-3.97589 -0.61935,-12.627 0,-10.97414 0.0789,-12.04987 0.91655,-12.49817 1.29377,-0.69241 2.69635,0.2284 2.69635,1.77017 0,1.62081 0.26566,1.59153 2.3767,-0.26199 4.58122,-4.02237 11.83237,-2.87941 14.35081,2.26203 0.81611,1.6661 1.02746,3.53477 1.22918,10.868 0.24707,8.98186 -0.0692,11.10631 -1.65359,11.10631 -1.54346,0 -1.86741,-1.58239 -2.2572,-11.02579 -0.36536,-8.85148 -0.48516,-9.70737 -1.50098,-10.7232 -2.25919,-2.25918 -8.9977,-1.73855 -10.67737,0.82496 -1.14027,1.74027 -1.85914,6.88788 -1.86365,13.34506 -0.002,3.07028 -0.24433,6.03157 -0.53819,6.58065 -0.60881,1.13757 -1.55487,1.28336 -2.45926,0.37897 z m -314.57671,-9.28882 c -1.9722,-2.63202 -8.28279,-14.52847 -12.04889,-22.71403 -13.823467,-30.04505 -22.705627,-61.63991 -26.232847,-93.31328 -1.88588,-16.93454 -2.40352,-38.82734 -1.2913,-54.61296 2.21903,-31.49461 9.26977,-62.459642 20.889287,-91.740457 7.19295,-18.126001 18.70121,-40.4532452 20.52947,-39.8293629 1.16718,0.3982896 0.28449,2.6669011 -5.60086,14.3948479 -7.47336,14.892447 -12.62331,27.201634 -17.478727,41.776933 -10.16577,30.51623 -15.18463,58.714769 -16.10361,90.478369 l -0.35233,12.17779 1.24294,-0.0181 c 0.68362,-0.01 2.75262,-0.3502 4.59778,-0.75606 4.59847,-1.01148 7.22581,-1.00093 7.22581,0.029 0,1.82698 -10.59225,4.46114 -11.57096,2.87756 -0.97246,-1.57347 -1.35594,-0.33798 -1.06029,3.416 2.54842,32.35847 6.90083,55.7563 15.03312,80.81556 5.257007,16.19923 9.315067,25.88753 18.785047,44.84782 3.41226,6.83186 6.12339,12.66374 6.02472,12.95974 -0.38163,1.1449 -1.36334,0.84551 -2.58836,-0.78936 z m 284.76084,1.07698 c -0.19482,-0.31523 2.56307,-6.412 6.12865,-13.54839 11.71664,-23.45049 18.04282,-40.12575 24.11154,-63.5559 7.37671,-28.48002 10.83378,-60.45732 9.33147,-86.31434 -0.82629,-14.22148 -1.47711,-18.39603 -3.25544,-20.88125 -0.50745,-0.70917 -0.44692,-1.06946 0.32255,-1.91971 0.87887,-0.97114 0.90179,-1.41103 0.31745,-6.09472 -1.37609,-11.02995 -6.24643,-33.250805 -10.148,-46.300092 -4.42966,-14.815587 -10.29566,-29.215515 -19.94385,-48.958413 -4.99449,-10.220124 -7.09346,-15.0219918 -6.72666,-15.3887868 1.91989,-1.919892 12.76046,18.5786968 21.72659,41.0831228 8.02299,20.137219 14.30539,43.738439 17.92914,67.354839 0.76227,4.96774 1.4437,9.09584 1.51429,9.17355 0.0706,0.0777 4.28413,1.18104 9.36341,2.45186 11.07533,2.771 12.07377,3.14269 12.07377,4.49465 0,1.26521 -0.68152,1.16206 -11.33549,-1.71568 -4.10764,-1.1095 -8.03312,-2.01728 -8.7233,-2.01728 h -1.25487 l 0.36639,5.03225 c 3.14431,43.18737 -1.73588,83.12132 -15.02289,122.93024 -5.69658,17.0674 -16.49908,41.0689 -22.89106,50.86043 -2.50965,3.8444 -3.19451,4.42873 -3.88369,3.31362 z M 246.0371,292.1687 c -4.96863,-1.39576 -8.44175,-4.70038 -10.20117,-9.70624 -2.1764,-6.19228 -1.80061,-13.12534 1.02225,-18.85938 2.65829,-5.39976 6.99478,-8.04269 13.22846,-8.06225 6.44435,-0.0202 11.53143,3.43976 14.56291,9.90497 1.21162,2.58404 1.36008,3.52155 1.36008,8.58893 0,5.3894 -0.0893,5.86961 -1.69909,9.13962 -3.55255,7.21625 -11.20128,10.98102 -18.27344,8.99435 z m 9.72892,-4.28141 c 3.59482,-1.70585 5.85652,-7.16661 5.85652,-14.14028 0,-5.05354 -1.13161,-8.80722 -3.41802,-11.338 -2.15824,-2.38891 -4.48059,-3.25339 -8.58373,-3.19521 -4.23129,0.06 -7.14427,1.81151 -9.00486,5.41442 -1.17324,2.2719 -1.42051,3.50301 -1.60396,7.98576 -0.40407,9.87359 2.01177,14.51686 8.41702,16.17759 2.04208,0.52947 6.28559,0.0692 8.33703,-0.90428 z m 18.24361,-13.91907 v -17.8621 l 9.67742,0.24952 c 5.99085,0.15447 10.4265,0.5072 11.64379,0.92592 3.35172,1.15294 6.02111,5.20123 6.03075,9.14599 0.008,3.24038 -3.20776,7.5673 -6.22835,8.38066 -2.56439,0.69052 -2.56569,1.49285 -0.007,4.26881 2.49514,2.7069 8.30265,11.1537 8.30265,12.07588 0,0.42283 -0.64263,0.67743 -1.70989,0.67743 -2.09193,0 -3.19935,-1.1155 -7.45656,-7.51092 -4.10287,-6.16356 -5.98855,-7.7931 -9.53014,-8.23559 -1.51434,-0.18921 -3.44324,-0.26558 -4.28644,-0.16972 l -1.5331,0.17429 -0.12605,6.70968 c -0.16879,8.98482 -0.18309,9.03226 -2.7225,9.03226 h -2.05468 z m 20.01906,-2.7242 c 1.5176,-0.81219 2.69062,-3.20412 2.69062,-5.48651 0,-4.48412 -2.02097,-5.50759 -11.05809,-5.60006 l -6.74836,-0.0691 -0.14604,6.13732 -0.14605,6.13732 7.13819,-0.25671 c 3.9551,-0.14224 7.64276,-0.52676 8.26973,-0.8623 z m -53.6567,-24.96208 c -1.14181,-2.40446 -3.09832,-9.24216 -7.93795,-27.74194 l -4.25318,-16.25806 22.52729,-22.70162 c 13.53472,-13.63946 22.21824,-22.76145 21.75309,-22.85151 -0.4258,-0.0824 -13.31612,3.32389 -28.64516,7.56962 -15.32903,4.24574 -28.91657,7.98069 -30.19453,8.2999 -2.09816,0.52408 -3.12459,0.37646 -10.58065,-1.52169 -9.61647,-2.44814 -27.65346,-7.78037 -31.95753,-9.44752 -3.26404,-1.26431 -3.64553,-2.24109 -0.81567,-2.08846 0.99355,0.0536 9.81935,2.28886 19.6129,4.96727 9.79355,2.67842 18.4472,5.02015 19.23033,5.20386 1.3308,0.31219 1.6035,0.055 4.17194,-3.93501 6.13673,-9.53323 26.1261,-43.78194 29.79186,-51.04376 0.82689,-1.63806 1.3195,-3.09196 1.0947,-3.2309 -0.2248,-0.13894 -8.06079,-1.43316 -17.4133,-2.87606 -24.13588,-3.72366 -27.57159,-4.46831 -26.74996,-5.79774 0.52699,-0.85269 7.79818,-0.20368 23.93895,2.13676 22.04458,3.1965 24.82321,3.83446 66.23619,15.20753 13.01055,3.57304 24.10135,6.49643 24.64623,6.49643 1.34406,0 4.26212,-4.07077 12.15217,-16.95258 7.437,-12.142132 12.47925,-19.692583 13.15084,-19.692583 1.04773,0 0.1072,1.962909 -7.18201,14.989043 -10.09532,18.04076 -11.70589,21.06118 -11.3958,21.37127 0.32174,0.32174 9.44274,-2.09936 34.52141,-9.16343 22.58527,-6.36174 29.31114,-8.10011 31.33993,-8.10011 1.9128,0 6.90113,1.27927 10.33749,2.65108 1.9271,0.76931 2.70967,1.36253 2.70967,2.05403 0,1.31801 -1.3848,1.2481 -6.45161,-0.32569 -2.27097,-0.70538 -4.61796,-1.28254 -5.21554,-1.28257 -1.34677,-9e-5 -3.43898,2.94719 -10.25879,14.45154 -11.03995,18.62327 -14.05771,23.02709 -15.07944,22.00537 -0.53498,-0.53498 2.37793,-6.14758 11.1322,-21.44949 4.29119,-7.50072 7.70785,-13.73197 7.59258,-13.84724 -0.27503,-0.27503 -6.99798,1.53501 -35.76124,9.62812 -13.11656,3.6906 -25.19398,6.98252 -26.83871,7.31538 -3.48656,0.70561 -0.23988,1.4939 -38.34525,-9.31025 -13.76774,-3.90361 -26.7525,-7.51302 -28.85502,-8.0209 -3.72425,-0.89962 -3.84145,-0.89819 -4.54849,0.0552 -1.35776,1.83087 -19.60642,32.4176 -26.1423,43.81734 -4.40626,7.68527 -6.28072,11.40503 -5.8002,11.51016 0.98035,0.21449 5.87361,-1.07019 32.05569,-8.41594 12.49032,-3.50433 25.06974,-6.96844 27.95426,-7.69802 l 5.24459,-1.3265 6.10616,1.58544 c 16.16608,4.19745 38.92154,11.23548 40.79118,12.6163 0.74762,0.55215 0.80683,0.82236 0.29409,1.34223 -0.51578,0.52297 -3.40721,-0.0931 -14.70968,-3.13419 -30.97946,-8.33545 -31.40399,-8.43576 -32.71945,-7.73175 -1.31888,0.70584 -29.91677,28.24981 -42.1047,40.55302 l -7.59515,7.66699 5.0692,18.58064 c 2.78806,10.21936 5.35873,19.8027 5.71259,21.29632 0.97521,4.11626 -0.0834,5.80256 -1.61622,2.57465 z m 106.49708,-55.53363 c -3.55191,-1.26747 -6.81228,-4.46971 -8.68972,-8.53479 -1.33889,-2.89899 -1.4564,-3.64313 -1.43583,-9.09287 0.0276,-7.31388 1.12347,-10.59594 4.79744,-14.36786 2.91322,-2.99089 6.07904,-4.21488 10.88319,-4.20774 11.84147,0.0176 19.29199,13.61921 14.49019,26.45317 -2.99408,8.00238 -12.28235,12.52023 -20.04527,9.75009 z m 8.94701,-3.22594 c 4.42393,-1.20056 7.29787,-5.87682 7.82327,-12.72942 0.52941,-6.90498 -1.9968,-13.71671 -5.78111,-15.58832 -0.83931,-0.4151 -3.15183,-0.83593 -5.13893,-0.93517 -4.68608,-0.23404 -7.59559,1.13113 -9.65156,4.52861 -2.68449,4.43611 -3.08925,13.38968 -0.84306,18.649 2.3036,5.39372 7.51654,7.72388 13.59139,6.0753 z M 39.038623,181.5905 c -0.2111,-0.2111 -0.38383,-0.80064 -0.38383,-1.31007 0,-1.05674 3.60473,-2.32245 8.12904,-2.85432 2.49717,-0.29357 2.70967,-0.23493 2.70967,0.74769 0,0.81443 -0.6447,1.30745 -2.72995,2.08764 -3.18876,1.19307 -7.17508,1.87891 -7.72493,1.32906 z m 22.32585,-7.45593 c 0,-1.32018 10.98807,-4.68391 11.99883,-3.67315 0.98423,0.98423 -0.65663,2.1421 -4.57568,3.22882 -3.86343,1.0713 -7.42315,1.28437 -7.42315,0.44433 z m 77.874727,-2.24261 c -6.98,-2.4943 -10.77795,-8.79069 -10.77795,-17.86808 0,-10.71589 5.56852,-17.82527 14.46021,-18.46146 5.07153,-0.36287 8.25541,0.83644 11.90236,4.48339 4.01472,4.01472 5.31505,7.43446 5.31505,13.97807 0,6.43867 -1.26501,9.823 -5.1082,13.6662 -4.36409,4.36408 -10.65404,6.03775 -15.79147,4.20188 z m 10.58382,-4.19794 c 6.59698,-3.13047 8.03193,-19.58233 2.2279,-25.54316 -2.19233,-2.25155 -4.35188,-3.09473 -7.92627,-3.09473 -6.19877,0 -9.86204,3.46786 -11.0399,10.45096 -1.51141,8.96069 1.30286,16.71413 6.83077,18.81907 2.24474,0.85476 7.4777,0.52088 9.9075,-0.63214 z m -42.00694,-5.60695 c 0,-1.1401 1.06645,-1.73247 5.16236,-2.86751 4.51589,-1.25141 6.70861,-1.36766 6.70861,-0.35565 0,1.1401 -1.06644,1.73247 -5.16235,2.8675 -4.51589,1.25142 -6.70862,1.36767 -6.70862,0.35566 z m 402.68253,-17.12579 c -3.4785,-0.93621 -4.74704,-1.61995 -4.74704,-2.55863 0,-0.41041 0.52258,-0.87474 1.16129,-1.03183 1.45099,-0.35689 9.15107,1.58294 10.11678,2.54865 1.83653,1.83652 -1.56327,2.37885 -6.53103,1.04181 z m -26.1664,-7.26104 c -6.33203,-1.93992 -4.39859,-4.23171 2.32258,-2.75307 3.22205,0.70885 6.25916,2.10438 6.03842,2.77461 -0.28663,0.87029 -5.49381,0.85687 -8.361,-0.0215 z m -64.51613,-17.56208 c -4.63563,-1.48326 -5.4829,-1.99329 -5.07539,-3.05524 0.42064,-1.09617 2.86292,-0.89816 7.30697,0.59243 3.77182,1.26511 5.76842,2.44065 5.76842,3.39626 0,0.8342 -3.8965,0.37955 -8,-0.93345 z m -250.55299,-1.58667 c -3.21248,-1.13421 -6.82246,-4.90463 -8.3175,-8.68715 -1.0168,-2.57256 -1.21554,-4.02196 -1.23433,-9.00175 -0.0207,-5.474586 0.0929,-6.185348 1.4629,-9.153197 2.0076,-4.349189 5.46149,-7.544577 9.38908,-8.68636 8.01647,-2.330449 16.1897,1.891187 19.40235,10.021698 0.91696,2.320604 1.15357,3.966543 1.16098,8.075919 0.008,4.48314 -0.16711,5.54241 -1.33326,8.06194 -2.97896,6.43617 -8.59779,10.29503 -14.88045,10.21949 -1.84516,-0.0222 -4.38756,-0.40496 -5.64977,-0.85059 z m 11.16402,-3.72424 c 2.6427,-1.19982 4.48258,-3.85005 5.55984,-8.00858 1.5398,-5.94409 0.57184,-13.257721 -2.22279,-16.794793 -5.20881,-6.592626 -16.08804,-4.918006 -18.84676,2.901049 -1.94556,5.514312 -1.42234,14.086634 1.11209,18.220174 2.69521,4.39574 9.17551,6.05307 14.39762,3.68215 z M 123.81608,100.81239 V 82.638323 l 9.16129,0.321855 c 9.58352,0.336688 12.31327,0.808917 14.76983,2.555083 1.91996,1.364745 3.3981,4.671294 3.41239,7.633374 0.019,3.932762 -3.80428,8.746215 -6.94698,8.746215 -1.74146,0 -1.37109,1.57544 0.98697,4.19816 3.09215,3.43922 8.6484,11.74441 8.26843,12.35921 -0.16142,0.26119 -0.931,0.47488 -1.71017,0.47488 -1.69141,0 -3.61525,-1.90203 -6.78662,-6.70967 -5.39774,-8.18272 -6.93176,-9.29033 -12.86705,-9.29033 h -3.61604 l -0.14247,7.87097 -0.14248,7.87097 -2.19355,0.15871 -2.19355,0.15871 z m 21.46475,-3.72052 c 2.11604,-2.461428 1.38071,-8.288133 -1.18759,-9.410464 -0.50728,-0.221675 -4.23199,-0.507906 -8.27716,-0.63607 l -7.35483,-0.233023 v 6.040216 6.040219 l 7.78732,-0.17637 7.78733,-0.17637 z M 349.82128,85.698912 c -6.22691,-2.225253 -9.71411,-7.777663 -10.15286,-16.165622 -0.66794,-12.769851 6.357,-21.104157 16.9769,-20.141178 11.16177,1.012114 17.85606,14.314473 13.3135,26.455542 -2.30031,6.148128 -8.55644,10.582717 -14.87034,10.540665 -1.87078,-0.01246 -4.24103,-0.322693 -5.2672,-0.689407 z m 10.73561,-3.904251 c 7.0696,-3.209691 8.42725,-20.155975 2.09915,-26.201953 -4.48008,-4.280354 -13.09745,-3.277097 -16.46533,1.916936 -3.58952,5.535867 -3.04033,17.824746 0.99993,22.374721 2.52497,2.843531 9.20721,3.798552 13.36625,1.910296 z m 18.22693,-14.01453 V 49.606066 l 9.16129,0.313843 c 12.57898,0.430924 15.0228,1.261855 17.36996,5.906012 2.44754,4.842763 -0.5318,11.978081 -5.41876,12.977571 -0.92426,0.189031 -1.76809,0.606563 -1.87519,0.927849 -0.10709,0.321285 0.89858,1.815152 2.23484,3.319704 2.4749,2.786612 8.46335,11.549315 8.46335,12.384156 0,0.882871 -2.96899,0.450658 -4.34627,-0.632711 -0.76379,-0.600795 -2.97389,-3.445956 -4.91134,-6.322581 -5.23752,-7.776402 -6.38625,-8.585064 -12.19535,-8.585064 h -3.32124 l -0.0611,6.322581 c -0.0336,3.477419 -0.20889,7.019354 -0.38957,7.870967 -0.29499,1.3904 -0.55207,1.564581 -2.51958,1.707096 l -2.19108,0.158708 z m 21.11093,-3.257572 c 2.72279,-2.467826 2.2993,-8.072278 -0.72383,-9.579172 -1.06554,-0.531123 -3.68096,-0.830742 -8.3871,-0.960811 l -6.83871,-0.18901 v 6.0242 6.0242 l 7.43134,-0.167109 c 6.44497,-0.144928 7.5756,-0.297873 8.5183,-1.152298 z"
       id="path1" />
  </g>
</svg>
