<?xml version="1.0" encoding="UTF-8" standalone="no"?>
<!-- Created with Inkscape (http://www.inkscape.org/) -->

<svg
   version="1.1"
   id="svg1"
   width="524.50519"
   height="278.38214"
   viewBox="0 0 524.50518 278.38214"
   sodipodi:docname="sodiumcitrate.svg"
   inkscape:version="1.4.2 (f4327f4, 2025-05-13)"
   xmlns:inkscape="http://www.inkscape.org/namespaces/inkscape"
   xmlns:sodipodi="http://sodipodi.sourceforge.net/DTD/sodipodi-0.dtd"
   xmlns="http://www.w3.org/2000/svg"
   xmlns:svg="http://www.w3.org/2000/svg">
  <defs
     id="defs1" />
  <sodipodi:namedview
     id="namedview1"
     pagecolor="#ffffff"
     bordercolor="#000000"
     borderopacity="0.25"
     inkscape:showpageshadow="2"
     inkscape:pageopacity="0.0"
     inkscape:pagecheckerboard="0"
     inkscape:deskcolor="#d1d1d1"
     inkscape:zoom="1.4267034"
     inkscape:cx="207.4713"
     inkscape:cy="147.89339"
     inkscape:window-width="1920"
     inkscape:window-height="1111"
     inkscape:window-x="-9"
     inkscape:window-y="-9"
     inkscape:window-maximized="1"
     inkscape:current-layer="g1" />
  <g
     inkscape:groupmode="layer"
     inkscape:label="Image"
     id="g1"
     transform="translate(4.7025922,35.319598)">
    <path
       style="fill:#000000"
       d="m 199.48259,242.5674 c -2.13551,-0.57135 -4.86082,-2.16171 -6.09078,-3.55427 -4.15315,-4.70219 -5.06243,-12.45604 -2.17824,-18.57484 2.49029,-5.28312 8.27831,-8.15333 14.42902,-7.15517 7.29412,1.18371 11.47236,6.54909 11.49211,14.75729 0.0123,5.11969 -1.33395,8.68536 -4.31769,11.43567 -3.42085,3.15323 -8.60822,4.35582 -13.33442,3.09132 z m 6.56,-3.09947 c 2.05015,-0.64511 3.19886,-1.38624 4.57933,-2.95454 1.67255,-1.90012 2.31911,-3.78828 2.53158,-7.39299 0.34595,-5.86928 -1.56128,-9.91765 -5.56449,-11.81147 -1.9794,-0.93641 -4.75501,-1.14127 -7.00535,-0.51705 -3.14136,0.87138 -5.74972,3.58553 -6.59166,6.859 -0.52236,2.03091 -0.53064,7.26803 -0.0143,9.04846 0.50076,1.72676 2.12143,4.12855 3.49044,5.17275 2.32102,1.77033 5.90192,2.43679 8.57447,1.59584 z m -44.64,-11.42752 v -14.4 h 1.92 1.92 v 5.92 5.92 h 7.52 7.52 v -5.92 -5.92 h 1.92 1.92 v 14.4 14.4 h -1.92 -1.92 v -6.72 -6.72 h -7.52 -7.52 v 6.72 6.72 h -1.92 -1.92 z M 400.1226,215.3674 c -2.13551,-0.57135 -4.86082,-2.16171 -6.09078,-3.55427 -4.15315,-4.70219 -5.06243,-12.45604 -2.17824,-18.57484 2.49029,-5.28312 8.27831,-8.15333 14.42902,-7.15517 7.29412,1.18371 11.47236,6.54909 11.49211,14.75729 0.0123,5.11969 -1.33395,8.68536 -4.31769,11.43567 -3.42085,3.15323 -8.60822,4.35582 -13.33442,3.09132 z m 6.56,-3.09947 c 2.05015,-0.6451 3.19886,-1.38624 4.57933,-2.95454 1.67255,-1.90012 2.31911,-3.78828 2.53158,-7.39299 0.34595,-5.86928 -1.56128,-9.91765 -5.56449,-11.81147 -1.9794,-0.93641 -4.75501,-1.14127 -7.00535,-0.51705 -3.14136,0.87138 -5.74973,3.58553 -6.59167,6.859 -0.52235,2.03091 -0.53063,7.26803 -0.0143,9.04847 0.50076,1.72675 2.12143,4.12854 3.49044,5.17274 2.32102,1.77033 5.90192,2.43679 8.57447,1.59584 z m -203.04001,-2.78128 c -0.37873,-0.23983 -0.46191,-0.89706 -0.39424,-3.1151 0.18155,-5.95169 1.66664,-41.0316 1.84963,-43.69114 0.10596,-1.54 0.0685,-2.8 -0.0833,-2.8 -0.15178,0 -14.07751,7.20815 -30.94606,16.01811 -16.86855,8.80996 -30.84739,15.95007 -31.06409,15.86691 -0.61569,-0.23626 -70.672445,-43.12215 -71.122053,-43.53802 -0.319747,-0.29575 -0.17989,-5.53977 0.696225,-26.10546 1.000036,-23.474526 1.145977,-25.771636 1.661284,-26.148436 0.750716,-0.54894 0.97214,-0.52357 1.689281,0.19357 0.525748,0.52575 0.587265,0.96325 0.461203,3.28 -0.08001,1.470336 -0.562474,12.609326 -1.072152,24.753326 -0.722187,17.2074 -0.841619,22.16118 -0.541203,22.44785 0.212016,0.20232 15.7178,9.75214 34.457285,21.22182 l 34.0718,20.85397 4.0082,-2.08851 c 2.20451,-1.14868 16.1042,-8.40622 30.8882,-16.12786 l 26.88,-14.03936 0.19933,-7.33395 c 0.10964,-4.03368 0.30792,-23.69904 0.44063,-43.7008 0.13271,-20.001766 0.33152,-36.512836 0.4418,-36.691276 0.11028,-0.17844 10.02367,-5.46044 22.02975,-11.73778 15.92511,-8.326386 22.00474,-11.357631 22.47812,-11.207385 0.82546,0.261991 1.21195,1.66974 0.61186,2.228665 -0.24282,0.226163 -9.89203,5.336465 -21.44269,11.35622 l -21.0012,10.94502 -0.22631,31.256686 c -0.12447,17.19118 -0.24993,36.58244 -0.2788,43.09168 l -0.0525,11.83499 29.28,18.62792 c 16.104,10.24535 29.496,18.63382 29.76,18.64105 0.264,0.007 17.60573,-7.03239 38.53717,-15.64358 31.47772,-12.94992 38.16639,-15.59824 38.68896,-15.31857 1.20591,0.64538 38.45953,24.33332 39.49388,25.11242 1.46315,1.10208 1.26586,2.67078 -0.33591,2.67078 -0.33434,0 -9.45878,-5.61932 -20.27652,-12.48739 l -19.66862,-12.48738 -37.81948,15.57111 c -20.80071,8.56411 -38.11944,15.63563 -38.48606,15.71448 -0.47403,0.10195 -9.11335,-5.2221 -29.90677,-18.43029 -16.08209,-10.21552 -29.30465,-18.50919 -29.38346,-18.43038 -0.0788,0.0788 -0.61082,11.0932 -1.18224,24.47643 -0.73967,17.3237 -1.15134,24.46857 -1.42913,24.80328 -0.44564,0.53696 -1.21185,0.59964 -1.91182,0.15638 z M 486.0426,194.93893 c -3.88701,-1.43273 -5.12946,-6.55547 -2.29701,-9.47083 1.44007,-1.48222 3.06671,-2.09891 7.09701,-2.6906 1.936,-0.28422 4.06,-0.66189 4.72,-0.83926 1.11456,-0.29953 1.19967,-0.40706 1.19529,-1.51016 -0.0104,-2.62611 -1.63402,-3.94839 -4.87104,-3.96707 -2.87173,-0.0166 -4.22572,0.63483 -5.11218,2.45942 -0.57877,1.19128 -0.84249,1.44301 -1.36473,1.30267 -0.35604,-0.0957 -1.04334,-0.17591 -1.52734,-0.17832 -1.08601,-0.005 -1.1614,-0.75827 -0.25403,-2.53686 1.38202,-2.70898 4.19897,-3.94352 8.96381,-3.92844 2.98362,0.009 4.6868,0.50408 6.0471,1.75621 1.44694,1.33188 1.64267,2.35405 1.64956,8.61444 0.006,5.49551 0.27592,8.93424 0.80582,10.26747 0.20763,0.52241 0.0527,0.56796 -1.63241,0.48 -1.81152,-0.0946 -1.86921,-0.12587 -2.13568,-1.15921 l -0.27388,-1.06202 -1.02514,0.68486 c -3.06743,2.04923 -7.23534,2.79126 -9.98515,1.7777 z m 7.44009,-3.09729 c 2.01841,-0.97709 3.05996,-2.69601 3.22745,-5.3264 0.13207,-2.07414 0.12714,-2.08881 -0.62721,-1.86744 -0.41818,0.12272 -2.20033,0.49373 -3.96033,0.82447 -3.98465,0.74881 -4.70379,1.02148 -5.55797,2.1074 -1.13475,1.4426 -0.75224,3.39124 0.86229,4.39286 1.26009,0.78174 4.30656,0.71589 6.05577,-0.13089 z M 454.2026,180.36041 v -14.4 h 2.01249 2.0125 l 7.5075,11.15763 7.50751,11.15762 0.0841,-11.15762 0.0841,-11.15763 h 1.91591 1.9159 v 14.4 14.4 h -2.03114 -2.03114 l -7.56886,-11.25549 -7.56886,-11.25549 v 11.25549 11.25549 h -1.92 -1.92 z M 5.2425867,193.2874 c -2.13551,-0.57135 -4.86081705,-2.16171 -6.09078307,-3.55427 -4.15314733,-4.70219 -5.06242543,-12.45604 -2.17823293,-18.57484 2.49028393,-5.28312 8.27831,-8.15333 14.4290153,-7.15517 7.294119,1.18371 11.472361,6.54909 11.492111,14.75729 0.01232,5.11969 -1.333948,8.68536 -4.317691,11.43568 -3.420847,3.15322 -8.6082225,4.35581 -13.3344193,3.09131 z m 6.5599993,-3.09947 c 2.050146,-0.6451 3.198856,-1.38624 4.579327,-2.95454 1.672553,-1.90012 2.319117,-3.78828 2.531585,-7.39299 0.345945,-5.86928 -1.561279,-9.91765 -5.56449,-11.81147 -1.979406,-0.93641 -4.7550143,-1.14127 -7.0053553,-0.51705 -3.141357,0.87138 -5.74972105,3.58553 -6.59166007,6.859 -0.522354,2.03091 -0.530639,7.26803 -0.01431,9.04847 0.500759,1.72675 2.12142707,4.12854 3.49044007,5.17274 2.321023,1.77033 5.901917,2.43679 8.5744683,1.59584 z m 408.539744,-9.90752 0.10027,-1.04 8.88,-0.0851 8.88,-0.0851 v 1.12506 1.12506 h -8.98027 -8.98028 z M 28.858181,178.90685 c -0.313055,-0.68708 -0.274676,-0.9072 0.24686,-1.41583 1.133276,-1.10521 46.64266,-24.6694 47.465272,-24.57692 1.017779,0.11443 1.588493,1.0148 1.119602,1.76631 -0.449342,0.72018 -46.768989,25.00254 -47.734188,25.02391 -0.477199,0.0106 -0.854184,-0.26335 -1.097546,-0.79747 z M 350.53081,165.17031 c -0.3079,-0.37099 -0.17883,-5.64962 0.61223,-25.03999 0.55131,-13.51345 1.07801,-25.18153 1.17045,-25.92907 0.19484,-1.57567 1.00456,-2.23986 2.04911,-1.68084 0.52386,0.28037 0.64129,0.67438 0.64714,2.17126 0.0184,4.72008 -1.99986,49.5945 -2.25911,50.22874 -0.34163,0.83577 -1.61465,0.97908 -2.21982,0.2499 z m -15.35621,-0.63544 c -0.30294,-0.36501 -0.15627,-5.94454 0.67918,-25.83836 0.9618,-22.90238 1.12023,-25.42751 1.62718,-25.93446 0.67811,-0.6781 0.89929,-0.69327 1.68898,-0.11583 0.59857,0.43768 0.5903,0.90833 -0.45407,25.84 -0.58506,13.9668 -1.19695,25.64619 -1.35977,25.95419 -0.35916,0.67944 -1.64964,0.73532 -2.1815,0.0945 z m 175.91959,-3.29446 -0.0916,-3.12 -3.12,-0.0916 -3.12,-0.0916 v -1.26841 -1.26842 h 3.2 3.2 v -3.04 -3.04 h 1.28 1.28 v 3.04 3.04 h 3.04 3.04 v 1.28 1.28 h -3.04 -3.04 v 3.2 3.2 h -1.26841 -1.26841 z M 29.128589,161.9607 c -0.57119,-0.57119 -0.652518,-1.06587 -0.273298,-1.66236 0.356371,-0.56054 39.995069,-21.21793 40.714308,-21.21793 0.725499,0 1.380731,1.07643 1.132092,1.85982 -0.165324,0.52089 -38.77987,20.96293 -40.373102,21.373 -0.397888,0.10241 -0.88948,-0.042 -1.2,-0.35253 z M 342.8426,105.28741 c -2.13551,-0.57136 -4.86082,-2.16171 -6.09079,-3.55428 -4.15314,-4.702186 -5.06242,-12.456036 -2.17823,-18.574826 2.49028,-5.28312 8.27831,-8.15334 14.42902,-7.15518 7.29412,1.18372 11.47236,6.5491 11.49211,14.7573 0.0123,5.11968 -1.33395,8.68535 -4.31769,11.435666 -3.42085,3.15322 -8.60823,4.35581 -13.33442,3.09132 z m 6.56,-3.09948 c 2.05014,-0.6451 3.19885,-1.38624 4.57932,-2.954536 1.67256,-1.90012 2.31912,-3.78828 2.53159,-7.39298 0.34594,-5.86928 -1.56128,-9.91765 -5.56449,-11.81148 -1.97941,-0.93641 -4.75502,-1.14127 -7.00536,-0.51704 -3.14135,0.87138 -5.74972,3.58553 -6.59166,6.85899 -0.52235,2.03092 -0.53064,7.26803 -0.0143,9.04847 0.50076,1.72676 2.12142,4.12855 3.49044,5.172736 2.32102,1.77033 5.90191,2.43679 8.57447,1.59584 z M 71.802589,88.647414 c -2.13551,-0.57136 -4.860817,-2.16171 -6.090783,-3.55428 -4.153147,-4.70219 -5.062425,-12.45604 -2.178233,-18.57483 2.490284,-5.28312 8.27831,-8.15334 14.429016,-7.15518 7.294119,1.18372 11.472366,6.5491 11.492116,14.7573 0.0123,5.11968 -1.33395,8.68535 -4.317696,11.43567 -3.420847,3.15322 -8.608223,4.35581 -13.33442,3.09132 z m 6.56,-3.09948 c 2.050146,-0.6451 3.198856,-1.38624 4.579327,-2.95453 1.672553,-1.90013 2.319117,-3.78829 2.531585,-7.39299 0.345945,-5.86928 -1.561279,-9.91765 -5.56449,-11.81148 -1.979406,-0.9364 -4.755015,-1.14127 -7.005356,-0.51704 -3.141357,0.87138 -5.749721,3.58553 -6.59166,6.85899 -0.522354,2.03092 -0.530639,7.26804 -0.01431,9.04847 0.500759,1.72676 2.121427,4.12855 3.49044,5.17274 2.321023,1.77033 5.901917,2.43679 8.574469,1.59584 z M 183.9851,65.331504 c -10.37162,-6.58686 -18.98441,-12.20288 -19.13952,-12.480051 -0.39459,-0.70509 -0.0111,-1.699934 0.74814,-1.940914 0.71061,-0.225539 -0.54318,-0.987609 23.32887,14.179585 16.02578,10.18204 16.41428,10.47997 15.34538,11.76791 -0.21106,0.25431 -0.61811,0.4595 -0.90456,0.45598 -0.28645,-0.004 -9.00669,-5.39566 -19.37831,-11.98251 z m 4.80271,-15.15027 c -12.13013,-7.706288 -22.2094,-14.256543 -22.39837,-14.556122 -0.50789,-0.805183 0.16511,-1.666845 1.29275,-1.655124 0.65384,0.0068 7.17602,3.979468 22.5204,13.717209 11.88,7.539207 21.8709,13.965797 22.202,14.281317 0.90143,0.85903 0.47704,2.2332 -0.6881,2.22803 -0.59875,-0.003 -7.81792,-4.41543 -22.92868,-14.01531 z m -96.765495,3.379187 0.10027,-1.04 8.880005,-0.08506 8.88,-0.08506 v 1.125058 1.125065 h -8.98028 -8.980265 z M 266.68259,49.287413 c -2.13551,-0.571357 -4.86081,-2.16171 -6.09078,-3.554276 -4.15315,-4.702189 -5.06243,-12.456038 -2.17823,-18.574835 2.49028,-5.283121 8.27831,-8.15333 14.42901,-7.15517 7.29412,1.18371 11.47236,6.549092 11.49211,14.757289 0.0123,5.119685 -1.33394,8.685355 -4.31769,11.435673 -3.42084,3.153226 -8.60822,4.355816 -13.33442,3.091319 z m 6.56,-3.099475 c 2.05015,-0.645103 3.19886,-1.38624 4.57933,-2.954537 1.67255,-1.900121 2.31912,-3.788283 2.53158,-7.392989 0.34595,-5.869279 -1.56127,-9.917651 -5.56449,-11.811473 -1.9794,-0.936408 -4.75501,-1.141269 -7.00535,-0.517047 -3.14136,0.871381 -5.74972,3.585531 -6.59166,6.858997 -0.52236,2.030914 -0.53064,7.268032 -0.0143,9.048466 0.50076,1.726758 2.12143,4.128547 3.49044,5.172745 2.32103,1.77033 5.90192,2.436789 8.57447,1.595838 z m -130.4,-2.340525 c -2.13551,-0.571357 -4.86082,-2.16171 -6.09079,-3.554276 -4.15314,-4.702189 -5.06242,-12.456038 -2.17823,-18.574835 2.49028,-5.28312 8.27831,-8.15333 14.42902,-7.15517 7.29412,1.18371 11.47236,6.54909 11.49211,14.75729 0.0123,5.119684 -1.33395,8.685354 -4.31769,11.435672 -3.42085,3.153226 -8.60823,4.355816 -13.33442,3.091319 z m 6.56,-3.099475 c 2.05014,-0.645103 3.19885,-1.386239 4.57932,-2.954537 1.67256,-1.900121 2.31912,-3.788283 2.53159,-7.392989 0.34594,-5.869279 -1.56128,-9.91765 -5.56449,-11.81147 -1.97941,-0.93641 -4.75502,-1.14127 -7.00536,-0.51705 -3.14135,0.87138 -5.74972,3.585531 -6.59166,6.858997 -0.52235,2.030914 -0.53064,7.268032 -0.0143,9.048466 0.50076,1.726758 2.12142,4.128547 3.49044,5.172745 2.32102,1.77033 5.90192,2.436789 8.57447,1.595838 z M 42.202588,40.378939 c -3.887011,-1.432729 -5.129459,-6.555467 -2.297017,-9.470826 1.440072,-1.482228 3.06671,-2.098916 7.097017,-2.690604 1.936,-0.284224 4.06,-0.661892 4.72,-0.839263 1.114556,-0.29953 1.199664,-0.407058 1.195283,-1.510158 -0.01043,-2.626111 -1.634017,-3.94839 -4.871036,-3.967065 -2.871731,-0.01657 -4.225724,0.634824 -5.112178,2.459411 -0.57877,1.191285 -0.842491,1.443013 -1.364735,1.302677 -0.356034,-0.09567 -1.043335,-0.175917 -1.527335,-0.17832 -1.086011,-0.0054 -1.161401,-0.758273 -0.254032,-2.536864 1.382017,-2.708975 4.19897,-3.943525 8.963807,-3.928445 2.983623,0.009 4.686804,0.50409 6.0471,1.75621 1.446941,1.331883 1.642675,2.354058 1.64956,8.614452 0.006,5.495507 0.275927,8.934234 0.805825,10.267465 0.207633,0.522408 0.0527,0.567963 -1.63241,0.48 -1.811526,-0.09456 -1.869212,-0.125874 -2.135687,-1.159207 l -0.273872,-1.062018 -1.025145,0.684859 c -3.067428,2.049227 -7.23534,2.791258 -9.985145,1.777696 z m 7.440083,-3.097285 c 2.01841,-0.977096 3.059962,-2.696014 3.227453,-5.326403 0.132071,-2.074139 0.127143,-2.088812 -0.627209,-1.867443 -0.41818,0.122717 -2.200327,0.49373 -3.960327,0.824474 -3.984655,0.748807 -4.703796,1.021481 -5.557977,2.107397 -1.134747,1.442596 -0.752239,3.391243 0.862294,4.392865 1.260091,0.781734 4.306557,0.715887 6.055766,-0.13089 z M 10.362586,25.800422 v -14.4 h 2.012493 2.012493 l 7.507507,11.157624 7.507508,11.157624 0.08409,-11.157624 0.08409,-11.157624 h 1.915907 1.915906 v 14.4 14.399999 H 31.37144 29.3403 l -7.568854,-11.255489 -7.56886,-11.25549 v 11.25549 11.255489 h -1.92 -1.92 z m 276.539734,-11.6 0.10027,-1.04 8.88,-0.0851 8.88,-0.0851 v 1.12506 1.12506 h -8.98027 -8.98028 z m 64.74028,-3.90148 c -3.88701,-1.4327296 -5.12946,-6.5554696 -2.29702,-9.47082964 1.44007,-1.48223 3.06671,-2.09890996 7.09702,-2.69059996 1.936,-0.28423 4.06,-0.66189 4.72,-0.83926 1.11455,-0.29953 1.19966,-0.40706 1.19528,-1.51016 -0.0104,-2.62611 -1.63402,-3.94839 -4.87104,-3.96707 -2.87173,-0.0166 -4.22572,0.63483 -5.11217,2.45941 -0.57877,1.19129 -0.84249,1.44302 -1.36474,1.30268 -0.35603,-0.0957 -1.04333,-0.17592 -1.52733,-0.17832 -1.08601,-0.005 -1.16141,-0.75827 -0.25404,-2.53686 1.38202,-2.70898 4.19897,-3.9435304 8.96381,-3.9284504 2.98362,0.009 4.68681,0.50409 6.0471,1.7562104 1.44694,1.33188 1.64268,2.35406 1.64956,8.61444996 0.006,5.49551004 0.27593,8.93424004 0.80583,10.26747004 0.20763,0.5224096 0.0527,0.5679596 -1.63241,0.4799996 -1.81153,-0.0946 -1.86922,-0.1258796 -2.13569,-1.1592096 l -0.27387,-1.06202 -1.02515,0.68486 c -3.06743,2.0492296 -7.23534,2.7912596 -9.98514,1.7776996 z m 7.44008,-3.0972896 c 2.01841,-0.97709 3.05996,-2.69601 3.22745,-5.3264 0.13207,-2.07414004 0.12715,-2.08881004 -0.62721,-1.86744004 -0.41818,0.12271 -2.20032,0.49373 -3.96032,0.82447 -3.98466,0.74881004 -4.7038,1.02148004 -5.55798,2.10740004 -1.13475,1.44259 -0.75224,3.39124 0.86229,4.39286 1.2601,0.78174 4.30656,0.71589 6.05577,-0.13089 z M 319.8026,-4.2795776 V -18.679578 h 2.01249 2.01249 l 7.50751,11.1576304 7.50751,11.15762 0.0841,-11.15762 0.0841,-11.1576304 h 1.91591 1.91591 V -4.2795776 10.120422 h -2.03114 -2.03114 L 331.21146,-1.1350676 323.6426,-12.390558 V -1.1350676 10.120422 h -1.92 -1.92 z m -252.548423,10.96 -0.09159,-3.12 -3.12,-0.0916 -3.120001,-0.0916 v -1.26841 -1.26841004 h 3.200001 3.2 v -3.03999996 -3.04 h 1.28 1.28 v 3.04 3.03999996 h 3.04 3.04 v 1.28000004 1.28 h -3.04 -3.04 v 3.2 3.2 h -1.268412 -1.268413 z m 309.440013,-30.0800004 -0.0916,-3.12 -3.12,-0.0916 -3.12,-0.0916 v -1.26841 -1.26841 h 3.2 3.2 v -3.04 -3.04 h 1.28 1.28 v 3.04 3.04 h 3.04 3.04 v 1.28 1.28 h -3.04 -3.04 v 3.2 3.2 h -1.26841 -1.26842 z"
       id="path1" />
  </g>
</svg>
