<?xml version="1.0" encoding="UTF-8" standalone="no"?>
<!-- Generator: Adobe Illustrator 12.0.1, SVG Export Plug-In . SVG Version: 6.00 Build 51448)  -->
<svg
   xmlns:dc="http://purl.org/dc/elements/1.1/"
   xmlns:cc="http://creativecommons.org/ns#"
   xmlns:rdf="http://www.w3.org/1999/02/22-rdf-syntax-ns#"
   xmlns:svg="http://www.w3.org/2000/svg"
   xmlns="http://www.w3.org/2000/svg"
   xmlns:sodipodi="http://sodipodi.sourceforge.net/DTD/sodipodi-0.dtd"
   xmlns:inkscape="http://www.inkscape.org/namespaces/inkscape"
   version="1.1"
   id="Layer_1"
   width="264.896"
   height="81.703"
   viewBox="0 0 264.896 81.703"
   style="overflow:visible;enable-background:new 0 0 264.896 81.703;"
   xml:space="preserve"
   sodipodi:version="0.32"
   inkscape:version="0.46"
   sodipodi:docname="Sorbinsäure.svg"
   inkscape:output_extension="org.inkscape.output.svg.inkscape"><metadata
   id="metadata48"><rdf:RDF><cc:Work
       rdf:about=""><dc:format>image/svg+xml</dc:format><dc:type
         rdf:resource="http://purl.org/dc/dcmitype/StillImage" /></cc:Work></rdf:RDF></metadata><defs
   id="defs46"><inkscape:perspective
   sodipodi:type="inkscape:persp3d"
   inkscape:vp_x="0 : 40.851501 : 1"
   inkscape:vp_y="0 : 1000 : 0"
   inkscape:vp_z="264.896 : 40.851501 : 1"
   inkscape:persp3d-origin="132.448 : 27.234334 : 1"
   id="perspective50" />
	

	

	

	

	
	
</defs><sodipodi:namedview
   inkscape:window-height="675"
   inkscape:window-width="661"
   inkscape:pageshadow="2"
   inkscape:pageopacity="0.0"
   guidetolerance="10.0"
   gridtolerance="10.0"
   objecttolerance="10.0"
   borderopacity="1.0"
   bordercolor="#666666"
   pagecolor="#ffffff"
   id="base"
   showgrid="false"
   inkscape:zoom="2.0536362"
   inkscape:cx="132.448"
   inkscape:cy="40.851501"
   inkscape:window-x="66"
   inkscape:window-y="66"
   inkscape:current-layer="Layer_1" />
<path
   id="path5"
   d="M 6.6224,75.1774 L 6.6224,58.84975 L 8.78935,58.84975 L 8.78935,65.5596 L 17.2358,65.5596 L 17.2358,58.84975 L 19.40275,58.84975 L 19.40275,75.17835 L 17.2358,75.17835 L 17.2358,67.48905 L 8.78935,67.48905 L 8.78935,75.17835 L 6.6224,75.17835 L 6.6224,75.1774 z"
   style="fill:#231f20" />
<path
   id="path9"
   d="M 21.31035,76.2167 L 22.80945,76.00865 C 22.9833,76.85985 23.27685,77.47355 23.69105,77.84975 C 24.1062,78.225 24.61445,78.4131 25.2177,78.4131 C 25.93305,78.4131 26.5344,78.168 27.02175,77.6797 C 27.5091,77.1895 27.7523,76.5834 27.7523,75.8595 C 27.7523,75.1698 27.5262,74.6017 27.0721,74.1533 C 26.61895,73.7049 26.04325,73.48165 25.34405,73.48165 C 25.0581,73.48165 24.7028,73.5377 24.27815,73.64885 L 24.4463,72.3274 C 24.547,72.3388 24.62775,72.3445 24.6895,72.3445 C 25.3298,72.3445 25.90645,72.17825 26.41945,71.8448 C 26.93245,71.51135 27.18895,70.9974 27.18895,70.30295 C 27.18895,69.7529 27.0018,69.2969 26.6275,68.93685 C 26.2532,68.57585 25.7706,68.39535 25.17875,68.39535 C 24.5926,68.39535 24.10335,68.57965 23.7129,68.94825 C 23.32245,69.31685 23.0707,69.86975 22.95955,70.60695 L 21.46045,70.34 C 21.6438,69.3311 22.06275,68.54925 22.71445,67.9954 C 23.36615,67.4406 24.17745,67.1632 25.1474,67.1632 C 25.8162,67.1632 26.43275,67.3057 26.99515,67.5926 C 27.55755,67.87855 27.9879,68.269 28.28715,68.763 C 28.5845,69.25795 28.7346,69.78235 28.7346,70.3381 C 28.7346,70.8663 28.59305,71.347 28.309,71.7802 C 28.02495,72.2134 27.60505,72.5573 27.04835,72.8138 C 27.77225,72.981 28.33465,73.32775 28.7384,73.8531 C 29.1412,74.38035 29.34355,75.03775 29.34355,75.82815 C 29.34355,76.89785 28.9531,77.8032 28.1722,78.5461 C 27.3913,79.289 26.40425,79.6614 25.21105,79.6614 C 24.1347,79.6614 23.24075,79.34125 22.53015,78.70285 C 21.81575,78.06255 21.4101,77.23415 21.31035,76.2167 z"
   style="fill:#231f20" />
<path
   id="path13"
   d="M 43.7085,69.45175 L 45.87545,69.99705 C 45.42325,71.77355 44.6091,73.12825 43.4349,74.0602 C 42.25975,74.99215 40.8224,75.45955 39.12475,75.45955 C 37.36725,75.45955 35.93845,75.1014 34.8374,74.38415 C 33.73635,73.66785 32.89845,72.62855 32.3237,71.27005 C 31.74895,69.9106 31.46205,68.45045 31.46205,66.8915 C 31.46205,65.191 31.786,63.70615 32.43485,62.4398 C 33.0837,61.17345 34.00615,60.21015 35.2041,59.5537 C 36.4011,58.89725 37.7178,58.5676 39.1561,58.5676 C 40.78725,58.5676 42.1581,58.9837 43.2696,59.8159 C 44.38205,60.64905 45.1563,61.8185 45.5933,63.32805 L 43.471,63.8287 C 43.0929,62.6412 42.54475,61.7767 41.82655,61.2352 C 41.1074,60.6937 40.203,60.42295 39.1143,60.42295 C 37.8622,60.42295 36.8153,60.72315 35.9736,61.3245 C 35.13285,61.92585 34.54195,62.7324 34.2009,63.74605 C 33.85985,64.7597 33.6898,65.80375 33.6898,66.8801 C 33.6898,68.26805 33.8912,69.4793 34.29495,70.5148 C 34.6987,71.5503 35.3257,72.3236 36.17785,72.83565 C 37.03,73.3477 37.9515,73.6042 38.94425,73.6042 C 40.1517,73.6042 41.17295,73.25555 42.0099,72.5573 C 42.84685,71.85905 43.4121,70.8245 43.7085,69.45175 z"
   style="fill:#231f20" />
<path
   id="path17"
   d="M 194.3842,10.70565 C 194.3842,7.9953 195.1119,5.8749 196.5673,4.34255 C 198.0227,2.80925 199.90085,2.0426 202.2027,2.0426 C 203.71035,2.0426 205.06885,2.40265 206.27915,3.12275 C 207.48945,3.8438 208.4119,4.847 209.0465,6.1352 C 209.68205,7.42245 209.99935,8.8845 209.99935,10.5166 C 209.99935,12.17245 209.66495,13.6535 208.99615,14.95975 C 208.3283,16.266 207.3821,17.2559 206.1566,17.92755 C 204.9311,18.5992 203.60965,18.9355 202.1913,18.9355 C 200.6542,18.9355 199.2805,18.56405 198.0702,17.8221 C 196.8599,17.08015 195.94315,16.06555 195.319,14.7821 C 194.6958,13.4977 194.3842,12.1392 194.3842,10.70565 z M 196.61005,10.7332 C 196.61005,12.6997 197.1392,14.24915 198.1975,15.38155 C 199.2558,16.51395 200.5839,17.0792 202.1799,17.0792 C 203.8063,17.0792 205.14485,16.5073 206.1965,15.36445 C 207.24625,14.2216 207.77255,12.59995 207.77255,10.4995 C 207.77255,9.1714 207.54835,8.01145 207.09805,7.0206 C 206.6487,6.02975 205.99225,5.2612 205.1268,4.7159 C 204.26135,4.1706 203.29045,3.89795 202.2141,3.89795 C 200.6846,3.89795 199.3679,4.4233 198.26495,5.47305 C 197.162,6.5228 196.61005,8.27745 196.61005,10.7332 z"
   style="fill:#231f20" />
<path
   id="path21"
   d="M 227.0167,67.23065 C 227.0167,64.5203 227.7444,62.3999 229.19885,60.86755 C 230.6552,59.33425 232.53335,58.5676 234.83615,58.5676 C 236.34285,58.5676 237.7023,58.92765 238.9126,59.64775 C 240.12195,60.3688 241.0444,61.372 241.67995,62.6602 C 242.3155,63.9484 242.6328,65.4095 242.6328,67.0416 C 242.6328,68.69745 242.2984,70.1785 241.6296,71.48475 C 240.9608,72.791 240.0146,73.7809 238.79005,74.45255 C 237.5636,75.1242 236.24215,75.4605 234.82475,75.4605 C 233.2867,75.4605 231.91395,75.08905 230.70365,74.3471 C 229.4924,73.60515 228.57565,72.59055 227.95245,71.3071 C 227.32925,70.02365 227.0167,68.6642 227.0167,67.23065 z M 229.2435,67.2582 C 229.2435,69.2247 229.77265,70.77415 230.83,71.90655 C 231.88925,73.038 233.2164,73.6042 234.81335,73.6042 C 236.4388,73.6042 237.7783,73.0323 238.829,71.88945 C 239.8797,70.7466 240.406,69.12495 240.406,67.0245 C 240.406,65.6964 240.1818,64.53645 239.7315,63.5456 C 239.2812,62.55475 238.62475,61.7862 237.76025,61.2409 C 236.8948,60.6956 235.92295,60.42295 234.84755,60.42295 C 233.3171,60.42295 232.00135,60.9483 230.89745,61.99805 C 229.7945,63.04875 229.2435,64.80245 229.2435,67.2582 z"
   style="fill:#231f20" /><path
   id="path23"
   d="M 245.49325,75.1774 L 245.49325,58.84975 L 247.6602,58.84975 L 247.6602,65.5596 L 256.10665,65.5596 L 256.10665,58.84975 L 258.2736,58.84975 L 258.2736,75.17835 L 256.10665,75.17835 L 256.10665,67.48905 L 247.6602,67.48905 L 247.6602,75.17835 L 245.49325,75.17835 L 245.49325,75.1774 z"
   style="fill:#231f20" />
<path
   style="fill:#231f20"
   d="M 71.59005,46.4399 L 71.59005,48.2924 L 47.93505,61.9249 L 47.12755,60.5474 L 71.59005,46.4399 z"
   id="polygon25" />
<path
   style="fill:#231f20"
   d="M 104.22255,65.2974 L 104.22255,67.1499 L 71.59005,48.2924 L 71.59005,46.4399 L 104.22255,65.2974 z"
   id="polygon27" />
<path
   style="fill:#231f20"
   d="M 104.65005,58.9799 L 103.84255,60.4049 L 74.01255,43.1624 L 74.82005,41.7849 L 104.65005,58.9799 z"
   id="polygon29" />
<path
   style="fill:#231f20"
   d="M 136.85505,46.4399 L 136.85505,48.2924 L 104.22255,67.1499 L 104.22255,65.2974 L 136.85505,46.4399 z"
   id="polygon31" />
<path
   style="fill:#231f20"
   d="M 169.53505,65.2974 L 169.53505,67.1499 L 136.85505,48.2924 L 136.85505,46.4399 L 169.53505,65.2974 z"
   id="polygon33" />
<path
   style="fill:#231f20"
   d="M 169.91505,58.9799 L 169.10755,60.4049 L 139.27755,43.1624 L 140.08505,41.7849 L 169.91505,58.9799 z"
   id="polygon35" />
<path
   style="fill:#231f20"
   d="M 202.1685,46.4399 L 202.1685,48.2924 L 169.53505,67.1499 L 169.53505,65.2974 L 202.1685,46.4399 z"
   id="polygon37" />
<path
   style="fill:#231f20"
   d="M 198.55755,21.0749 L 200.17255,21.0749 L 200.17255,49.003951 L 198.55755,49.003951 L 198.55755,21.0749 z"
   id="rect39" />
<path
   style="fill:#231f20"
   d="M 204.21005,21.0749 L 205.82505,21.0749 L 205.82505,49.003951 L 204.21005,49.003951 L 204.21005,21.0749 z"
   id="rect41" />
<path
   style="fill:#231f20"
   d="M 226.631,60.5474 L 225.82255,61.9249 L 202.1685,48.2924 L 202.1685,46.4399 L 226.631,60.5474 z"
   id="polygon43" />
</svg>