<?xml version="1.0" encoding="UTF-8" standalone="no"?>
<svg
   fill-opacity="1"
   color-rendering="auto"
   color-interpolation="auto"
   stroke="black"
   text-rendering="auto"
   stroke-linecap="square"
   width="1430"
   stroke-miterlimit="10"
   stroke-opacity="1"
   shape-rendering="auto"
   fill="black"
   stroke-dasharray="none"
   font-weight="normal"
   stroke-width="1"
   height="300"
   font-family="'Dialog'"
   font-style="normal"
   stroke-linejoin="miter"
   font-size="12"
   stroke-dashoffset="0"
   image-rendering="auto"
   version="1.1"
   id="svg47"
   sodipodi:docname="span80.svg"
   inkscape:version="1.4.2 (f4327f4, 2025-05-13)"
   xmlns:inkscape="http://www.inkscape.org/namespaces/inkscape"
   xmlns:sodipodi="http://sodipodi.sourceforge.net/DTD/sodipodi-0.dtd"
   xmlns="http://www.w3.org/2000/svg"
   xmlns:svg="http://www.w3.org/2000/svg">
  <sodipodi:namedview
     id="namedview47"
     pagecolor="#ffffff"
     bordercolor="#000000"
     borderopacity="0.25"
     inkscape:showpageshadow="2"
     inkscape:pageopacity="0.0"
     inkscape:pagecheckerboard="0"
     inkscape:deskcolor="#d1d1d1"
     inkscape:zoom="1.272028"
     inkscape:cx="715"
     inkscape:cy="149.76086"
     inkscape:window-width="1920"
     inkscape:window-height="1111"
     inkscape:window-x="-9"
     inkscape:window-y="-9"
     inkscape:window-maximized="1"
     inkscape:current-layer="svg47" />
  <!--Generated by Marvin with Batik SVG Generator
MolSource:
<?xml version="1.0" encoding="windows-1252"?><cml xmlns="http://www.chemaxon.com" xmlns:xsi="http://www.w3.org/2001/XMLSchema-instance" xsi:schemaLocation="http://www.chemaxon.com/marvin/schema/mrvSchema_14_12_01.xsd" version="ChemAxon file format v14.12.01, generated by v16.2.8.0">
<MDocument><MChemicalStruct><molecule molID="m1"><atomArray atomID="a1 a2 a3 a4 a5 a6 a7 a8 a9 a10 a11 a12 a13 a14 a15 a16 a17 a18 a19 a20 a21 a22 a23 a24 a25 a26 a27 a28 a29 a30 a31" elementType="O C C C C O O C C O H O C C O C C C C C C C C C C C C C C C C" x2="-1.8634259700775146 -3.109292299094541 -2.633429881707322 -1.0934220584477075 -0.6175596410604882 -3.53861835918966 -0.1882335809653699 -5.776650542750611 -4.442971420922577 -4.44297142092257 -4.308366673399409 -7.1103296645786465 -8.444008786406682 -9.777687908234718 -8.444008786406682 -11.111367030062754 -12.44504615189079 -13.778725273718825 -15.11240439554686 -16.446083517374895 -17.779762639202932 -19.113441761030966 -20.447120882859004 -20.447120882859007 -21.780800004687045 -23.11447912651508 -24.448158248343116 -25.78183737017115 -27.115516491999188 -28.44919561382722 -29.78287473565526" y2="4.226659000917085 3.321442402405083 1.8568949624851907 1.8568949624851907 3.321442402405083 0.6110082018872594 0.6110082018872591 3.321442402405083 4.091442402405082 5.728664624627304 2.46329415712344 4.091442402405082 3.321442402405082 4.0914424024050815 1.781442402405082 3.321442402405081 4.091442402405081 3.32144240240508 4.09144240240508 3.3214424024050793 4.091442402405079 3.321442402405078 4.091442402405076 5.631442402405076 6.401442402405073 5.631442402405071 6.401442402405069 5.631442402405066 6.401442402405064 5.631442402405062 6.40144240240506"></atomArray><bondArray><bond id="b1" atomRefs2="a1 a2" order="1"></bond><bond id="b2" atomRefs2="a1 a5" order="1"></bond><bond id="b3" atomRefs2="a2 a3" order="1"></bond><bond id="b4" atomRefs2="a3 a4" order="1"></bond><bond id="b5" atomRefs2="a4 a5" order="1"></bond><bond id="b6" atomRefs2="a3 a6" order="1"><bondStereo>W</bondStereo></bond><bond id="b7" atomRefs2="a4 a7" order="1"><bondStereo>H</bondStereo></bond><bond id="b8" atomRefs2="a8 a9" order="1"></bond><bond id="b9" atomRefs2="a9 a2" order="1"></bond><bond id="b10" atomRefs2="a9 a10" order="1"><bondStereo>W</bondStereo></bond><bond id="b11" atomRefs2="a2 a11" order="1"><bondStereo>H</bondStereo></bond><bond id="b12" atomRefs2="a8 a12" order="1"></bond><bond id="b13" atomRefs2="a12 a13" order="1"></bond><bond id="b14" atomRefs2="a13 a14" order="1"></bond><bond id="b15" atomRefs2="a13 a15" order="2"></bond><bond id="b16" atomRefs2="a14 a16" order="1"></bond><bond id="b17" atomRefs2="a16 a17" order="1"></bond><bond id="b18" atomRefs2="a17 a18" order="1"></bond><bond id="b19" atomRefs2="a18 a19" order="1"></bond><bond id="b20" atomRefs2="a19 a20" order="1"></bond><bond id="b21" atomRefs2="a20 a21" order="1"></bond><bond id="b22" atomRefs2="a21 a22" order="1"></bond><bond id="b23" atomRefs2="a22 a23" order="2"></bond><bond id="b24" atomRefs2="a23 a24" order="1"></bond><bond id="b25" atomRefs2="a24 a25" order="1"></bond><bond id="b26" atomRefs2="a25 a26" order="1"></bond><bond id="b27" atomRefs2="a26 a27" order="1"></bond><bond id="b28" atomRefs2="a27 a28" order="1"></bond><bond id="b29" atomRefs2="a28 a29" order="1"></bond><bond id="b30" atomRefs2="a29 a30" order="1"></bond><bond id="b31" atomRefs2="a30 a31" order="1"></bond></bondArray></molecule></MChemicalStruct></MDocument>
</cml>
-->
  <defs
     id="genericDefs" />
  <g
     id="g47">
    <defs
       id="19095531383-defs1">
      <clipPath
         clipPathUnits="userSpaceOnUse"
         id="19095531842-clipPath1">
        <path
           d="M-1277.7777099609375 -75.91949462890625 L152.22227478027344 -75.91949462890625 L152.22227478027344 224.08050537109375 L-1277.7777099609375 224.08050537109375 L-1277.7777099609375 -75.91949462890625 Z"
           id="path1" />
      </clipPath>
      <clipPath
         clipPathUnits="userSpaceOnUse"
         id="19095531255-clipPath1">
        <path
           d="M-1171.849609375 -243.3231964111328 L258.1504211425781 -243.3231964111328 L258.1504211425781 56.67679977416992 L-1171.849609375 56.67679977416992 L-1171.849609375 -243.3231964111328 Z"
           id="path2" />
      </clipPath>
      <clipPath
         clipPathUnits="userSpaceOnUse"
         id="19095531235-clipPath1">
        <path
           d="M-1355.0574951171875 -243.3231964111328 L74.94254302978516 -243.3231964111328 L74.94254302978516 56.67679977416992 L-1355.0574951171875 56.67679977416992 L-1355.0574951171875 -243.3231964111328 Z"
           id="path3" />
      </clipPath>
      <clipPath
         clipPathUnits="userSpaceOnUse"
         id="19095531849-clipPath1">
        <path
           d="M-1158.064208984375 -6.377019882202148 L271.9358215332031 -6.377019882202148 L271.9358215332031 293.62298583984375 L-1158.064208984375 293.62298583984375 L-1158.064208984375 -6.377019882202148 Z"
           id="path4" />
      </clipPath>
      <clipPath
         clipPathUnits="userSpaceOnUse"
         id="19095531301-clipPath1">
        <path
           d="M-1166.07763671875 -157.56283569335938 L263.9223937988281 -157.56283569335938 L263.9223937988281 142.43716430664062 L-1166.07763671875 142.43716430664062 L-1166.07763671875 -157.56283569335938 Z"
           id="path5" />
      </clipPath>
      <clipPath
         clipPathUnits="userSpaceOnUse"
         id="19095531985-clipPath1">
        <path
           d="M-1034.847412109375 -82.17999267578125 L395.1525573730469 -82.17999267578125 L395.1525573730469 217.82000732421875 L-1034.847412109375 217.82000732421875 L-1034.847412109375 -82.17999267578125 Z"
           id="path6" />
      </clipPath>
      <clipPath
         clipPathUnits="userSpaceOnUse"
         id="19095531875-clipPath1">
        <path
           d="M-973.0984497070312 -189.1324005126953 L456.90155029296875 -189.1324005126953 L456.90155029296875 110.86760711669922 L-973.0984497070312 110.86760711669922 L-973.0984497070312 -189.1324005126953 Z"
           id="path7" />
      </clipPath>
      <clipPath
         clipPathUnits="userSpaceOnUse"
         id="19095531479-clipPath1">
        <path
           d="M1217.320068359375 12.537176132202148 C1223.711181640625 12.537176132202148 1228.892333984375 17.7182559967041 1228.892333984375 24.10944175720215 L1228.892333984375 47.25397491455078 C1228.892333984375 53.64516067504883 1223.711181640625 58.82624053955078 1217.320068359375 58.82624053955078 L1171.808349609375 58.82624053955078 C1165.4171142578125 58.82624053955078 1160.236083984375 53.64516067504883 1160.236083984375 47.25397491455078 L1160.236083984375 24.10944175720215 C1160.236083984375 17.7182559967041 1165.4171142578125 12.537176132202148 1171.808349609375 12.537176132202148 ZM1302.3148193359375 82.07965087890625 C1308.7060546875 82.07965087890625 1313.8870849609375 87.26073455810547 1313.8870849609375 93.65191650390625 L1313.8870849609375 116.79644775390625 C1313.8870849609375 123.18763732910156 1308.7060546875 128.36871337890625 1302.3148193359375 128.36871337890625 L1291.2406005859375 128.36871337890625 C1284.8494873046875 128.36871337890625 1279.6683349609375 123.18763732910156 1279.6683349609375 116.79644775390625 L1279.6683349609375 93.65191650390625 C1279.6683349609375 87.26073455810547 1284.8494873046875 82.07965087890625 1291.2406005859375 82.07965087890625 ZM1059.384521484375 88.34014892578125 C1065.7757568359375 88.34014892578125 1070.956787109375 93.52122497558594 1070.956787109375 99.91241455078125 L1070.956787109375 123.05694580078125 C1070.956787109375 129.44813537597656 1065.7757568359375 134.62921142578125 1059.384521484375 134.62921142578125 L1048.310302734375 134.62921142578125 C1041.919189453125 134.62921142578125 1036.738037109375 129.44813537597656 1036.738037109375 123.05694580078125 L1036.738037109375 99.91241455078125 C1036.738037109375 93.52122497558594 1041.919189453125 88.34014892578125 1048.310302734375 88.34014892578125 ZM1186.43017578125 164.18978881835938 C1192.6082763671875 164.18978881835938 1197.61669921875 169.1981658935547 1197.61669921875 175.37631225585938 L1197.61669921875 197.74935913085938 C1197.61669921875 203.92750549316406 1192.6082763671875 208.93588256835938 1186.43017578125 208.93588256835938 L1180.72509765625 208.93588256835938 C1174.546875 208.93588256835938 1169.53857421875 203.92750549316406 1169.53857421875 197.74935913085938 L1169.53857421875 175.37631225585938 C1169.53857421875 169.1981658935547 1174.546875 164.18978881835938 1180.72509765625 164.18978881835938 ZM997.6355590820312 195.2925567626953 C1004.0267333984375 195.2925567626953 1009.2078247070312 200.4736328125 1009.2078247070312 206.8648223876953 L1009.2078247070312 230.0093536376953 C1009.2078247070312 236.40052795410156 1004.0267333984375 241.5816192626953 997.6355590820312 241.5816192626953 L986.5613403320312 241.5816192626953 C980.170166015625 241.5816192626953 974.9890747070312 236.40052795410156 974.9890747070312 230.0093536376953 L974.9890747070312 206.8648223876953 C974.9890747070312 200.4736328125 980.170166015625 195.2925567626953 986.5613403320312 195.2925567626953 ZM1231.09765625 249.4833526611328 C1237.48876953125 249.4833526611328 1242.669921875 254.6644287109375 1242.669921875 261.0556335449219 L1242.669921875 284.2001647949219 C1242.669921875 290.5913391113281 1237.48876953125 295.7724304199219 1231.09765625 295.7724304199219 L1185.6015625 295.7724304199219 C1179.2103271484375 295.7724304199219 1174.029296875 290.5913391113281 1174.029296875 284.2001647949219 L1174.029296875 261.0556335449219 C1174.029296875 254.6644287109375 1179.2103271484375 249.4833526611328 1185.6015625 249.4833526611328 ZM1414.3133544921875 249.4833526611328 C1420.7044677734375 249.4833526611328 1425.8856201171875 254.6644287109375 1425.8856201171875 261.0556335449219 L1425.8856201171875 284.2001647949219 C1425.8856201171875 290.5913391113281 1420.7044677734375 295.7724304199219 1414.3133544921875 295.7724304199219 L1368.8016357421875 295.7724304199219 C1362.410400390625 295.7724304199219 1357.2293701171875 290.5913391113281 1357.2293701171875 284.2001647949219 L1357.2293701171875 261.0556335449219 C1357.2293701171875 254.6644287109375 1362.410400390625 249.4833526611328 1368.8016357421875 249.4833526611328 ZM0 0 L0 300 L1430 300 L1430 0 Z"
           id="path8" />
      </clipPath>
      <clipPath
         clipPathUnits="userSpaceOnUse"
         id="19095531878-clipPath1">
        <path
           d="M0 0 L1430 0 L1430 300 L0 300 L0 0 Z"
           id="path9" />
      </clipPath>
    </defs>
    <g
       text-rendering="optimizeLegibility"
       font-size="49"
       shape-rendering="geometricPrecision"
       font-family="'Arial'"
       transform="translate(1277.777732585269,75.91949511944966)"
       id="g9">
      <path
         d="m 2.3686523,30.916992 q 0,-8.73291 4.6894532,-13.661621 4.6894535,-4.952637 12.1064455,-4.952637 4.856933,0 8.756836,2.320801 3.899902,2.320801 5.933593,6.483887 2.057618,4.13916 2.057618,9.402832 0,5.335449 -2.153321,9.546387 -2.15332,4.210937 -6.101074,6.388183 -3.947754,2.153321 -8.517578,2.153321 -4.952637,0 -8.852539,-2.392579 Q 6.3881836,43.812988 4.378418,39.673828 2.3686523,35.534668 2.3686523,30.916992 Z m 4.7851563,0.07178 q 0,6.340332 3.3974614,10.000976 3.421386,3.636719 8.565429,3.636719 5.239746,0 8.613281,-3.68457 3.397461,-3.684571 3.397461,-10.455567 0,-4.282715 -1.459472,-7.464844 -1.435547,-3.206054 -4.234864,-4.952636 -2.77539,-1.770508 -6.244628,-1.770508 -4.928711,0 -8.493653,3.397461 -3.5410154,3.373535 -3.5410154,11.292969 z"
         id="text9"
         clip-path="url(#19095531842-clipPath1)"
         style="stroke:none"
         aria-label="O      " />
    </g>
    <g
       text-rendering="optimizeLegibility"
       font-size="49"
       shape-rendering="geometricPrecision"
       font-family="'Arial'"
       transform="translate(1171.8495670546095,243.32319991942114)"
       id="g10">
      <path
         d="M 3.9238281,48 V 12.924805 h 4.6416016 v 14.40332 H 26.796875 v -14.40332 h 4.641602 V 48 H 26.796875 V 31.467285 H 8.5654297 V 48 Z M 37.754883,30.916992 q 0,-8.73291 4.689453,-13.661621 4.689453,-4.952637 12.106445,-4.952637 4.856934,0 8.756836,2.320801 3.899903,2.320801 5.933594,6.483887 2.057617,4.13916 2.057617,9.402832 0,5.335449 -2.15332,9.546387 -2.153321,4.210937 -6.101074,6.388183 -3.947754,2.153321 -8.517579,2.153321 -4.952636,0 -8.852539,-2.392579 -3.899902,-2.392578 -5.909668,-6.531738 -2.009765,-4.13916 -2.009765,-8.756836 z m 4.785156,0.07178 q 0,6.340332 3.397461,10.000976 3.421387,3.636719 8.56543,3.636719 5.239746,0 8.613281,-3.68457 3.397461,-3.684571 3.397461,-10.455567 0,-4.282715 -1.459473,-7.464844 -1.435547,-3.206054 -4.234863,-4.952636 -2.775391,-1.770508 -6.244629,-1.770508 -4.928711,0 -8.493652,3.397461 -3.541016,3.373535 -3.541016,11.292969 z"
         id="text10"
         clip-path="url(#19095531255-clipPath1)"
         style="stroke:none"
         aria-label="HO      " />
    </g>
    <g
       text-rendering="optimizeLegibility"
       font-size="49"
       shape-rendering="geometricPrecision"
       font-family="'Arial'"
       transform="translate(1355.0574606159284,243.32319991942114)"
       id="g11">
      <path
         d="m 2.3686523,30.916992 q 0,-8.73291 4.6894532,-13.661621 4.6894535,-4.952637 12.1064455,-4.952637 4.856933,0 8.756836,2.320801 3.899902,2.320801 5.933593,6.483887 2.057618,4.13916 2.057618,9.402832 0,5.335449 -2.153321,9.546387 -2.15332,4.210937 -6.101074,6.388183 -3.947754,2.153321 -8.517578,2.153321 -4.952637,0 -8.852539,-2.392579 Q 6.3881836,43.812988 4.378418,39.673828 2.3686523,35.534668 2.3686523,30.916992 Z m 4.7851563,0.07178 q 0,6.340332 3.3974614,10.000976 3.421386,3.636719 8.565429,3.636719 5.239746,0 8.613281,-3.68457 3.397461,-3.684571 3.397461,-10.455567 0,-4.282715 -1.459472,-7.464844 -1.435547,-3.206054 -4.234864,-4.952636 -2.77539,-1.770508 -6.244628,-1.770508 -4.928711,0 -8.493653,3.397461 Q 7.1538086,23.069336 7.1538086,30.98877 Z M 42.037598,48 V 12.924805 h 4.641601 v 14.40332 h 18.231446 v -14.40332 h 4.641601 V 48 H 64.910645 V 31.467285 H 46.679199 V 48 Z"
         id="text11"
         clip-path="url(#19095531235-clipPath1)"
         style="stroke:none"
         aria-label="OH      " />
    </g>
    <g
       text-rendering="optimizeLegibility"
       font-size="49"
       shape-rendering="geometricPrecision"
       font-family="'Arial'"
       transform="translate(1158.0641897080793,6.37701991499938)"
       id="g12">
      <path
         d="m 2.3686523,30.916992 q 0,-8.73291 4.6894532,-13.661621 4.6894535,-4.952637 12.1064455,-4.952637 4.856933,0 8.756836,2.320801 3.899902,2.320801 5.933593,6.483887 2.057618,4.13916 2.057618,9.402832 0,5.335449 -2.153321,9.546387 -2.15332,4.210937 -6.101074,6.388183 -3.947754,2.153321 -8.517578,2.153321 -4.952637,0 -8.852539,-2.392579 Q 6.3881836,43.812988 4.378418,39.673828 2.3686523,35.534668 2.3686523,30.916992 Z m 4.7851563,0.07178 q 0,6.340332 3.3974614,10.000976 3.421386,3.636719 8.565429,3.636719 5.239746,0 8.613281,-3.68457 3.397461,-3.684571 3.397461,-10.455567 0,-4.282715 -1.459472,-7.464844 -1.435547,-3.206054 -4.234864,-4.952636 -2.77539,-1.770508 -6.244628,-1.770508 -4.928711,0 -8.493653,3.397461 Q 7.1538086,23.069336 7.1538086,30.98877 Z M 42.037598,48 V 12.924805 h 4.641601 v 14.40332 h 18.231446 v -14.40332 h 4.641601 V 48 H 64.910645 V 31.467285 H 46.679199 V 48 Z"
         id="text12"
         clip-path="url(#19095531849-clipPath1)"
         style="stroke:none"
         aria-label="OH      " />
    </g>
    <g
       text-rendering="optimizeLegibility"
       font-size="49"
       shape-rendering="geometricPrecision"
       font-family="'Arial'"
       transform="translate(1166.0776050004488,157.56283519097633)"
       id="g13">
      <path
         d="M 3.9238281,48 V 12.924805 h 4.6416016 v 14.40332 H 26.796875 v -14.40332 h 4.641602 V 48 H 26.796875 V 31.467285 H 8.5654297 V 48 Z"
         id="text13"
         clip-path="url(#19095531301-clipPath1)"
         style="stroke:none"
         aria-label="H      " />
    </g>
    <g
       text-rendering="optimizeLegibility"
       font-size="49"
       shape-rendering="geometricPrecision"
       font-family="'Arial'"
       transform="translate(1034.8474370423942,82.17998895569991)"
       id="g14">
      <path
         d="m 2.3686523,30.916992 q 0,-8.73291 4.6894532,-13.661621 4.6894535,-4.952637 12.1064455,-4.952637 4.856933,0 8.756836,2.320801 3.899902,2.320801 5.933593,6.483887 2.057618,4.13916 2.057618,9.402832 0,5.335449 -2.153321,9.546387 -2.15332,4.210937 -6.101074,6.388183 -3.947754,2.153321 -8.517578,2.153321 -4.952637,0 -8.852539,-2.392579 Q 6.3881836,43.812988 4.378418,39.673828 2.3686523,35.534668 2.3686523,30.916992 Z m 4.7851563,0.07178 q 0,6.340332 3.3974614,10.000976 3.421386,3.636719 8.565429,3.636719 5.239746,0 8.613281,-3.68457 3.397461,-3.684571 3.397461,-10.455567 0,-4.282715 -1.459472,-7.464844 -1.435547,-3.206054 -4.234864,-4.952636 -2.77539,-1.770508 -6.244628,-1.770508 -4.928711,0 -8.493653,3.397461 -3.5410154,3.373535 -3.5410154,11.292969 z"
         id="text14"
         clip-path="url(#19095531985-clipPath1)"
         style="stroke:none"
         aria-label="O      " />
    </g>
    <g
       text-rendering="optimizeLegibility"
       font-size="49"
       shape-rendering="geometricPrecision"
       font-family="'Arial'"
       transform="translate(973.0984357095516,189.13239658082142)"
       id="g15">
      <path
         d="m 2.3686523,30.916992 q 0,-8.73291 4.6894532,-13.661621 4.6894535,-4.952637 12.1064455,-4.952637 4.856933,0 8.756836,2.320801 3.899902,2.320801 5.933593,6.483887 2.057618,4.13916 2.057618,9.402832 0,5.335449 -2.153321,9.546387 -2.15332,4.210937 -6.101074,6.388183 -3.947754,2.153321 -8.517578,2.153321 -4.952637,0 -8.852539,-2.392579 Q 6.3881836,43.812988 4.378418,39.673828 2.3686523,35.534668 2.3686523,30.916992 Z m 4.7851563,0.07178 q 0,6.340332 3.3974614,10.000976 3.421386,3.636719 8.565429,3.636719 5.239746,0 8.613281,-3.68457 3.397461,-3.684571 3.397461,-10.455567 0,-4.282715 -1.459472,-7.464844 -1.435547,-3.206054 -4.234864,-4.952636 -2.77539,-1.770508 -6.244628,-1.770508 -4.928711,0 -8.493653,3.397461 -3.5410154,3.373535 -3.5410154,11.292969 z"
         id="text15"
         clip-path="url(#19095531875-clipPath1)"
         style="stroke:none"
         aria-label="O      " />
    </g>
    <g
       text-rendering="optimizeLegibility"
       font-size="49"
       shape-rendering="geometricPrecision"
       font-family="'Arial'"
       id="g16">
      <path
         d="M1273.81591796875 119.74829864501953 L1238.2125244140625 145.61691284179688 C1237.5419921875 146.10411071777344 1237.393310546875 147.04222106933594 1237.880615234375 147.7127685546875 C1238.3677978515625 148.38330078125 1239.305908203125 148.5318603515625 1239.9764404296875 148.04466247558594 L1275.579833984375 122.1760482788086 C1276.2503662109375 121.68885040283203 1276.39892578125 120.75074005126953 1275.9117431640625 120.0802001953125 C1275.424560546875 119.40966796875 1274.4864501953125 119.2611083984375 1273.81591796875 119.74829864501953 Z"
         clip-path="url(#19095531479-clipPath1)"
         stroke="none"
         id="path15" />
    </g>
    <g
       text-rendering="optimizeLegibility"
       font-size="49"
       shape-rendering="geometricPrecision"
       font-family="'Arial'"
       id="g17">
      <path
         d="M1317.9755859375 122.1760482788086 L1353.5791015625 148.04466247558594 C1354.2496337890625 148.5318603515625 1355.187744140625 148.38330078125 1355.6749267578125 147.7127685546875 C1356.162109375 147.04222106933594 1356.0135498046875 146.10411071777344 1355.343017578125 145.61691284179688 L1319.739501953125 119.74829864501953 C1319.0689697265625 119.2611083984375 1318.130859375 119.40966796875 1317.6436767578125 120.0802001953125 C1317.156494140625 120.75074005126953 1317.3050537109375 121.68885040283203 1317.9755859375 122.1760482788086 Z"
         clip-path="url(#19095531479-clipPath1)"
         stroke="none"
         id="path16" />
    </g>
    <g
       text-rendering="optimizeLegibility"
       font-size="49"
       shape-rendering="geometricPrecision"
       font-family="'Arial'"
       id="g18">
      <path
         d="M1237.66748046875 147.29446411132812 L1259.69970703125 215.10263061523438 C1259.955810546875 215.89089965820312 1260.8021240234375 216.32211303710938 1261.5904541015625 216.06597900390625 C1262.378662109375 215.8098602294922 1262.8099365234375 214.96356201171875 1262.5537109375 214.17529296875 L1240.521484375 146.36712646484375 C1240.265380859375 145.57884216308594 1239.4190673828125 145.14764404296875 1238.6307373046875 145.40377807617188 C1237.842529296875 145.65989685058594 1237.4112548828125 146.5061798095703 1237.66748046875 147.29446411132812 Z"
         clip-path="url(#19095531479-clipPath1)"
         stroke="none"
         id="path17" />
    </g>
    <g
       text-rendering="optimizeLegibility"
       font-size="49"
       shape-rendering="geometricPrecision"
       font-family="'Arial'"
       id="g19">
      <path
         d="M1261.126708984375 216.13941955566406 L1332.4287109375 216.13941955566406 C1333.257568359375 216.13941955566406 1333.92919921875 215.46780395507812 1333.92919921875 214.6389617919922 C1333.92919921875 213.81011962890625 1333.257568359375 213.1385040283203 1332.4287109375 213.1385040283203 L1261.126708984375 213.1385040283203 C1260.2978515625 213.1385040283203 1259.6263427734375 213.81011962890625 1259.6263427734375 214.6389617919922 C1259.6263427734375 215.46780395507812 1260.2978515625 216.13941955566406 1261.126708984375 216.13941955566406 Z"
         clip-path="url(#19095531479-clipPath1)"
         stroke="none"
         id="path18" />
    </g>
    <g
       text-rendering="optimizeLegibility"
       font-size="49"
       shape-rendering="geometricPrecision"
       font-family="'Arial'"
       id="g20">
      <path
         d="M1333.855712890625 215.10263061523438 L1355.8880615234375 147.29446411132812 C1356.1441650390625 146.5061798095703 1355.7130126953125 145.65989685058594 1354.9246826171875 145.40377807617188 C1354.136474609375 145.14764404296875 1353.2901611328125 145.57884216308594 1353.0340576171875 146.36712646484375 L1331.001708984375 214.17529296875 C1330.74560546875 214.9635772705078 1331.1767578125 215.80984497070312 1331.965087890625 216.06597900390625 C1332.7532958984375 216.32211303710938 1333.599609375 215.89089965820312 1333.855712890625 215.10263061523438 Z"
         clip-path="url(#19095531479-clipPath1)"
         stroke="none"
         id="path19" />
    </g>
    <g
       text-rendering="optimizeLegibility"
       font-size="49"
       shape-rendering="geometricPrecision"
       font-family="'Arial'"
       id="g21">
      <path
         d="M1261.126708984375 214.6389617919922 L1259.912841796875 213.75701904296875 L1232.708251953125 240.9901580810547 L1238.7777099609375 245.39987182617188 L1244.84716796875 249.80960083007812 L1262.3406982421875 215.52090454101562 Z"
         clip-path="url(#19095531479-clipPath1)"
         stroke="none"
         id="path20" />
    </g>
    <g
       text-rendering="optimizeLegibility"
       font-size="49"
       shape-rendering="geometricPrecision"
       font-family="'Arial'"
       id="g22">
      <path
         d="M1341.1737060546875 221.50428771972656 L1339.0604248046875 219.33035278320312 L1334.8411865234375 222.39584350585938 L1334.8411865234375 222.39584350585938 L1336.255615234375 225.07748413085938 L1341.1737060546875 221.50428771972656 ZM1352.0924072265625 232.73629760742188 L1349.9791259765625 230.56236267089844 L1349.9791259765625 230.56236267089844 L1342.1494140625 236.2509765625 L1342.1494140625 236.2509765625 L1343.5638427734375 238.9326171875 L1343.5638427734375 238.9326171875 L1352.0924072265625 232.73629760742188 ZM1363.010986328125 243.9683074951172 L1360.897705078125 241.79437255859375 L1349.4576416015625 250.10610961914062 L1350.8720703125 252.78775024414062 L1356.9415283203125 248.37802124023438 L1363.010986328125 243.9683074951172 Z"
         clip-path="url(#19095531479-clipPath1)"
         stroke="none"
         id="path21" />
    </g>
    <g
       text-rendering="optimizeLegibility"
       font-size="49"
       shape-rendering="geometricPrecision"
       font-family="'Arial'"
       id="g23">
      <path
         d="M1116.3466796875 148.13021850585938 L1178.095703125 112.47942352294922 C1178.8134765625 112.06500244140625 1179.059326171875 111.1475601196289 1178.6448974609375 110.42976379394531 C1178.23046875 109.71195983886719 1177.31298828125 109.46613311767578 1176.59521484375 109.88055419921875 L1114.84619140625 145.53135681152344 C1114.12841796875 145.94578552246094 1113.882568359375 146.86322021484375 1114.2969970703125 147.58102416992188 C1114.71142578125 148.29881286621094 1115.62890625 148.54464721679688 1116.3466796875 148.13021850585938 Z"
         clip-path="url(#19095531479-clipPath1)"
         stroke="none"
         id="path22" />
    </g>
    <g
       text-rendering="optimizeLegibility"
       font-size="49"
       shape-rendering="geometricPrecision"
       font-family="'Arial'"
       id="g24">
      <path
         d="M1176.59521484375 112.47942352294922 L1238.34423828125 148.13021850585938 C1239.06201171875 148.54464721679688 1239.9794921875 148.29881286621094 1240.3939208984375 147.58102416992188 C1240.808349609375 146.86322021484375 1240.5625 145.94578552246094 1239.8447265625 145.53135681152344 L1178.095703125 109.88055419921875 C1177.3778076171875 109.46613311767578 1176.46044921875 109.71195983886719 1176.0460205078125 110.42976379394531 C1175.631591796875 111.1475601196289 1175.87744140625 112.06500244140625 1176.59521484375 112.47942352294922 Z"
         clip-path="url(#19095531479-clipPath1)"
         stroke="none"
         id="path23" />
    </g>
    <g
       text-rendering="optimizeLegibility"
       font-size="49"
       shape-rendering="geometricPrecision"
       font-family="'Arial'"
       id="g25">
      <path
         d="M1177.345458984375 111.17999267578125 L1178.845947265625 111.17999267578125 L1184.84765625 64.82805633544922 L1177.345458984375 64.82805633544922 L1169.8431396484375 64.82805633544922 L1175.844970703125 111.17999267578125 Z"
         clip-path="url(#19095531479-clipPath1)"
         stroke="none"
         id="path24" />
    </g>
    <g
       text-rendering="optimizeLegibility"
       font-size="49"
       shape-rendering="geometricPrecision"
       font-family="'Arial'"
       id="g26">
      <path
         d="M1231.3328857421875 156.2653350830078 L1233.5284423828125 154.17672729492188 L1233.5284423828125 154.17672729492188 L1230.345703125 149.72959899902344 L1230.345703125 149.72959899902344 L1227.6605224609375 151.13397216796875 L1227.6605224609375 151.13397216796875 L1231.3328857421875 156.2653350830078 ZM1219.989501953125 167.0564422607422 L1222.18505859375 164.96783447265625 L1222.18505859375 164.96783447265625 L1216.4722900390625 156.98553466796875 L1216.4722900390625 156.98553466796875 L1213.787109375 158.38992309570312 L1219.989501953125 167.0564422607422 ZM1208.6461181640625 177.8475341796875 L1210.8416748046875 175.75894165039062 L1210.8416748046875 175.75894165039062 L1202.598876953125 164.24148559570312 L1199.9136962890625 165.64585876464844 L1199.9136962890625 165.64585876464844 L1204.2799072265625 171.7467041015625 L1208.6461181640625 177.8475341796875 Z"
         clip-path="url(#19095531479-clipPath1)"
         stroke="none"
         id="path25" />
    </g>
    <g
       text-rendering="optimizeLegibility"
       font-size="49"
       shape-rendering="geometricPrecision"
       font-family="'Arial'"
       id="g27">
      <path
         d="M1116.3466796875 145.53135681152344 L1077.655029296875 123.19271087646484 C1076.9371337890625 122.77828979492188 1076.019775390625 123.02411651611328 1075.6053466796875 123.7419204711914 C1075.19091796875 124.459716796875 1075.436767578125 125.37715148925781 1076.154541015625 125.79157257080078 L1114.84619140625 148.13021850585938 C1115.56396484375 148.54464721679688 1116.4814453125 148.29881286621094 1116.8958740234375 147.58102416992188 C1117.310302734375 146.86322021484375 1117.064453125 145.94578552246094 1116.3466796875 145.53135681152344 Z"
         clip-path="url(#19095531479-clipPath1)"
         stroke="none"
         id="path26" />
    </g>
    <g
       text-rendering="optimizeLegibility"
       font-size="49"
       shape-rendering="geometricPrecision"
       font-family="'Arial'"
       id="g28">
      <path
         d="M1030.0399169921875 123.19271087646484 L991.3482055664062 145.53135681152344 C990.6304321289062 145.94578552246094 990.3845825195312 146.86322021484375 990.7990112304688 147.58102416992188 C991.2134399414062 148.29881286621094 992.130859375 148.54464721679688 992.8486328125 148.13021850585938 L1031.540283203125 125.79157257080078 C1032.2581787109375 125.37715148925781 1032.50390625 124.459716796875 1032.089599609375 123.7419204711914 C1031.6751708984375 123.02411651611328 1030.7576904296875 122.77828979492188 1030.0399169921875 123.19271087646484 Z"
         clip-path="url(#19095531479-clipPath1)"
         stroke="none"
         id="path27" />
    </g>
    <g
       text-rendering="optimizeLegibility"
       font-size="49"
       shape-rendering="geometricPrecision"
       font-family="'Arial'"
       id="g29">
      <path
         d="M992.8486328125 145.53135681152344 L931.0996704101562 109.88055419921875 C930.3818359375 109.46613311767578 929.4644165039062 109.71195983886719 929.0499877929688 110.42976379394531 C928.6355590820312 111.1475601196289 928.8814086914062 112.06500244140625 929.5991821289062 112.47942352294922 L991.3482055664062 148.13021850585938 C992.0659790039062 148.54464721679688 992.9834594726562 148.29881286621094 993.3978881835938 147.58102416992188 C993.8123168945312 146.86322021484375 993.5664672851562 145.94578552246094 992.8486328125 145.53135681152344 Z"
         clip-path="url(#19095531479-clipPath1)"
         stroke="none"
         id="path28" />
    </g>
    <g
       text-rendering="optimizeLegibility"
       font-size="49"
       shape-rendering="geometricPrecision"
       font-family="'Arial'"
       id="g30">
      <path
         d="M1000.0808715820312 143.0884246826172 C1000.0808715820312 142.25958251953125 999.4092407226562 141.5879669189453 998.5803833007812 141.5879669189453 C997.7515869140625 141.5879669189453 997.0799560546875 142.25958251953125 997.0799560546875 143.0884246826172 L997.0799560546875 189.29074096679688 C997.0799560546875 190.1195831298828 997.7515869140625 190.7911834716797 998.5803833007812 190.7911834716797 C999.4092407226562 190.7911834716797 1000.0808715820312 190.1195831298828 1000.0808715820312 189.29074096679688 ZM987.116943359375 143.0884246826172 C987.116943359375 142.25958251953125 986.4453125 141.5879669189453 985.616455078125 141.5879669189453 C984.7876586914062 141.5879669189453 984.1160278320312 142.25958251953125 984.1160278320312 143.0884246826172 L984.1160278320312 189.29074096679688 C984.1160278320312 190.1195831298828 984.7876586914062 190.7911834716797 985.616455078125 190.7911834716797 C986.4453125 190.7911834716797 987.116943359375 190.1195831298828 987.116943359375 189.29074096679688 Z"
         clip-path="url(#19095531479-clipPath1)"
         stroke="none"
         id="path29" />
    </g>
    <g
       text-rendering="optimizeLegibility"
       font-size="49"
       shape-rendering="geometricPrecision"
       font-family="'Arial'"
       id="g31">
      <path
         d="M929.5991821289062 109.88055419921875 L867.8502197265625 145.53135681152344 C867.1323852539062 145.94578552246094 866.8865966796875 146.86322021484375 867.301025390625 147.58102416992188 C867.7153930664062 148.29881286621094 868.6328735351562 148.54464721679688 869.3506469726562 148.13021850585938 L931.0996704101562 112.47942352294922 C931.8174438476562 112.06500244140625 932.0632934570312 111.1475601196289 931.6488647460938 110.42976379394531 C931.2344360351562 109.71195983886719 930.3170166015625 109.46613311767578 929.5991821289062 109.88055419921875 Z"
         clip-path="url(#19095531479-clipPath1)"
         stroke="none"
         id="path30" />
    </g>
    <g
       text-rendering="optimizeLegibility"
       font-size="49"
       shape-rendering="geometricPrecision"
       font-family="'Arial'"
       id="g32">
      <path
         d="M869.3506469726562 145.53135681152344 L807.6016845703125 109.88055419921875 C806.8838500976562 109.46613311767578 805.9664306640625 109.71195983886719 805.552001953125 110.42976379394531 C805.1375732421875 111.1475601196289 805.3834228515625 112.06500244140625 806.1011962890625 112.47942352294922 L867.8502197265625 148.13021850585938 C868.5679931640625 148.54464721679688 869.4854736328125 148.29881286621094 869.8998413085938 147.58102416992188 C870.3142700195312 146.86322021484375 870.0684814453125 145.94578552246094 869.3506469726562 145.53135681152344 Z"
         clip-path="url(#19095531479-clipPath1)"
         stroke="none"
         id="path31" />
    </g>
    <g
       text-rendering="optimizeLegibility"
       font-size="49"
       shape-rendering="geometricPrecision"
       font-family="'Arial'"
       id="g33">
      <path
         d="M806.1011962890625 109.88055419921875 L744.3521728515625 145.53135681152344 C743.6343994140625 145.94578552246094 743.3885498046875 146.86322021484375 743.802978515625 147.58102416992188 C744.2174072265625 148.29881286621094 745.1348876953125 148.54464721679688 745.8526611328125 148.13021850585938 L807.6016845703125 112.47942352294922 C808.3194580078125 112.06500244140625 808.5653076171875 111.1475601196289 808.15087890625 110.42976379394531 C807.7364501953125 109.71195983886719 806.8190307617188 109.46613311767578 806.1011962890625 109.88055419921875 Z"
         clip-path="url(#19095531479-clipPath1)"
         stroke="none"
         id="path32" />
    </g>
    <g
       text-rendering="optimizeLegibility"
       font-size="49"
       shape-rendering="geometricPrecision"
       font-family="'Arial'"
       id="g34">
      <path
         d="M745.8526611328125 145.53135681152344 L684.1036376953125 109.88055419921875 C683.3858642578125 109.46613311767578 682.4684448242188 109.71195983886719 682.0540161132812 110.42976379394531 C681.6395874023438 111.1475601196289 681.8853759765625 112.06500244140625 682.6032104492188 112.47942352294922 L744.3521728515625 148.13021850585938 C745.0700073242188 148.54464721679688 745.9874267578125 148.29881286621094 746.40185546875 147.58102416992188 C746.8162841796875 146.86322021484375 746.5704345703125 145.94578552246094 745.8526611328125 145.53135681152344 Z"
         clip-path="url(#19095531479-clipPath1)"
         stroke="none"
         id="path33" />
    </g>
    <g
       text-rendering="optimizeLegibility"
       font-size="49"
       shape-rendering="geometricPrecision"
       font-family="'Arial'"
       id="g35">
      <path
         d="M682.6032104492188 109.88055419921875 L620.8541870117188 145.53135681152344 C620.1364135742188 145.94578552246094 619.8905639648438 146.86322021484375 620.3049926757812 147.58102416992188 C620.7194213867188 148.29881286621094 621.6368408203125 148.54464721679688 622.3546752929688 148.13021850585938 L684.1036376953125 112.47942352294922 C684.8214721679688 112.06500244140625 685.0672607421875 111.1475601196289 684.65283203125 110.42976379394531 C684.2384643554688 109.71195983886719 683.3209838867188 109.46613311767578 682.6032104492188 109.88055419921875 Z"
         clip-path="url(#19095531479-clipPath1)"
         stroke="none"
         id="path34" />
    </g>
    <g
       text-rendering="optimizeLegibility"
       font-size="49"
       shape-rendering="geometricPrecision"
       font-family="'Arial'"
       id="g36">
      <path
         d="M622.3546752929688 145.53135681152344 L560.6056518554688 109.88055419921875 C559.8878784179688 109.46613311767578 558.9703979492188 109.71195983886719 558.5559692382812 110.42976379394531 C558.1415405273438 111.1475601196289 558.3873901367188 112.06500244140625 559.105224609375 112.47942352294922 L620.8541870117188 148.13021850585938 C621.572021484375 148.54464721679688 622.4894409179688 148.29881286621094 622.9038696289062 147.58102416992188 C623.3182983398438 146.86322021484375 623.0724487304688 145.94578552246094 622.3546752929688 145.53135681152344 Z"
         clip-path="url(#19095531479-clipPath1)"
         stroke="none"
         id="path35" />
    </g>
    <g
       text-rendering="optimizeLegibility"
       font-size="49"
       shape-rendering="geometricPrecision"
       font-family="'Arial'"
       id="g37">
      <path
         d="M559.105224609375 109.88055419921875 L497.356201171875 145.53135681152344 C496.6383972167969 145.94578552246094 496.392578125 146.86322021484375 496.8069763183594 147.58102416992188 C497.2214050292969 148.29881286621094 498.13885498046875 148.54464721679688 498.8566589355469 148.13021850585938 L560.6056518554688 112.47942352294922 C561.3234252929688 112.06500244140625 561.5692749023438 111.1475601196289 561.1548461914062 110.42976379394531 C560.7404174804688 109.71195983886719 559.822998046875 109.46613311767578 559.105224609375 109.88055419921875 Z"
         clip-path="url(#19095531479-clipPath1)"
         stroke="none"
         id="path36" />
    </g>
    <g
       text-rendering="optimizeLegibility"
       font-size="49"
       shape-rendering="geometricPrecision"
       font-family="'Arial'"
       id="g38">
      <path
         d="M497.356201171875 148.13021850585938 C498.0740051269531 148.54464721679688 498.9914245605469 148.29881286621094 499.4058532714844 147.58102416992188 C499.8202819824219 146.86322021484375 499.574462890625 145.94578552246094 498.8566589355469 145.53135681152344 L437.107666015625 109.88055419921875 C436.3898620605469 109.46613311767578 435.472412109375 109.71195983886719 435.0579833984375 110.42976379394531 C434.6435546875 111.1475601196289 434.889404296875 112.06500244140625 435.6072082519531 112.47942352294922 ZM496.0567626953125 132.41053771972656 C496.7745666503906 132.82496643066406 497.6920166015625 132.57913208007812 498.1064147949219 131.86134338378906 C498.5208435058594 131.14353942871094 498.2750244140625 130.22610473632812 497.5572204589844 129.81167602539062 L451.3710021972656 103.14605712890625 C450.6532287597656 102.73163604736328 449.73577880859375 102.97746276855469 449.32135009765625 103.69525909423828 C448.90692138671875 104.4130630493164 449.15277099609375 105.33049774169922 449.87054443359375 105.74491882324219 Z"
         clip-path="url(#19095531479-clipPath1)"
         stroke="none"
         id="path37" />
    </g>
    <g
       text-rendering="optimizeLegibility"
       font-size="49"
       shape-rendering="geometricPrecision"
       font-family="'Arial'"
       id="g39">
      <path
         d="M437.8578796386719 111.17999267578125 L437.8578796386719 39.87838363647461 C437.8578796386719 39.04954147338867 437.186279296875 38.377925872802734 436.357421875 38.377925872802734 C435.5285949707031 38.377925872802734 434.8569641113281 39.04954147338867 434.8569641113281 39.87838363647461 L434.8569641113281 111.17999267578125 C434.8569641113281 112.00883483886719 435.5285949707031 112.6804428100586 436.357421875 112.6804428100586 C437.186279296875 112.6804428100586 437.8578796386719 112.00883483886719 437.8578796386719 111.17999267578125 Z"
         clip-path="url(#19095531479-clipPath1)"
         stroke="none"
         id="path38" />
    </g>
    <g
       text-rendering="optimizeLegibility"
       font-size="49"
       shape-rendering="geometricPrecision"
       font-family="'Arial'"
       id="g40">
      <path
         d="M437.107666015625 38.57895278930664 L375.358642578125 2.928149461746216 C374.6408386230469 2.513728380203247 373.7234191894531 2.7595534324645996 373.3089904785156 3.4773523807525635 C372.8945617675781 4.195151329040527 373.1404113769531 5.1125922203063965 373.8581848144531 5.527013301849365 L435.6072082519531 41.17781448364258 C436.3249816894531 41.59223556518555 437.242431640625 41.34640884399414 437.6568603515625 40.62861251831055 C438.0712890625 39.91081237792969 437.825439453125 38.99337387084961 437.107666015625 38.57895278930664 Z"
         clip-path="url(#19095531479-clipPath1)"
         stroke="none"
         id="path39" />
    </g>
    <g
       text-rendering="optimizeLegibility"
       font-size="49"
       shape-rendering="geometricPrecision"
       font-family="'Arial'"
       id="g41">
      <path
         d="M373.8581848144531 2.928149461746216 L312.10919189453125 38.57895278930664 C311.3913879394531 38.99337387084961 311.14556884765625 39.91081237792969 311.55999755859375 40.62861251831055 C311.9743957519531 41.346412658691406 312.891845703125 41.59223556518555 313.6096496582031 41.17781448364258 L375.358642578125 5.527013301849365 C376.0764465332031 5.112591743469238 376.322265625 4.195152759552002 375.9078674316406 3.477354049682617 C375.4934387207031 2.7595551013946533 374.57598876953125 2.513728141784668 373.8581848144531 2.928149461746216 Z"
         clip-path="url(#19095531479-clipPath1)"
         stroke="none"
         id="path40" />
    </g>
    <g
       text-rendering="optimizeLegibility"
       font-size="49"
       shape-rendering="geometricPrecision"
       font-family="'Arial'"
       id="g42">
      <path
         d="M313.6096496582031 38.57895278930664 L251.8606414794922 2.928149461746216 C251.14285278320312 2.513728380203247 250.22540283203125 2.7595534324645996 249.8109893798828 3.4773523807525635 C249.3965606689453 4.195151329040527 249.64239501953125 5.1125922203063965 250.36019897460938 5.527013301849365 L312.10919189453125 41.17781448364258 C312.8269958496094 41.59223556518555 313.74444580078125 41.34640884399414 314.1588439941406 40.62861251831055 C314.5732727050781 39.91081237792969 314.32745361328125 38.99337387084961 313.6096496582031 38.57895278930664 Z"
         clip-path="url(#19095531479-clipPath1)"
         stroke="none"
         id="path41" />
    </g>
    <g
       text-rendering="optimizeLegibility"
       font-size="49"
       shape-rendering="geometricPrecision"
       font-family="'Arial'"
       id="g43">
      <path
         d="M250.36019897460938 2.928149461746216 L188.61119079589844 38.57895278930664 C187.8933868408203 38.99337387084961 187.64756774902344 39.91081237792969 188.06198120117188 40.62861251831055 C188.47640991210938 41.346412658691406 189.3938446044922 41.59223556518555 190.1116485595703 41.17781448364258 L251.8606414794922 5.527013301849365 C252.5784454345703 5.112591743469238 252.82427978515625 4.195152759552002 252.40985107421875 3.477354049682617 C251.9954376220703 2.7595551013946533 251.07798767089844 2.513728141784668 250.36019897460938 2.928149461746216 Z"
         clip-path="url(#19095531479-clipPath1)"
         stroke="none"
         id="path42" />
    </g>
    <g
       text-rendering="optimizeLegibility"
       font-size="49"
       shape-rendering="geometricPrecision"
       font-family="'Arial'"
       id="g44">
      <path
         d="M190.1116485595703 38.57895278930664 L128.36264038085938 2.928149461746216 C127.64484405517578 2.513728380203247 126.72740173339844 2.7595534324645996 126.31298065185547 3.4773523807525635 C125.8985595703125 4.195151329040527 126.14439392089844 5.1125922203063965 126.86219024658203 5.527013301849365 L188.61119079589844 41.17781448364258 C189.32899475097656 41.59223556518555 190.24642944335938 41.34640884399414 190.6608428955078 40.62861251831055 C191.0752716064453 39.91081237792969 190.82943725585938 38.99337387084961 190.1116485595703 38.57895278930664 Z"
         clip-path="url(#19095531479-clipPath1)"
         stroke="none"
         id="path43" />
    </g>
    <g
       text-rendering="optimizeLegibility"
       font-size="49"
       shape-rendering="geometricPrecision"
       font-family="'Arial'"
       id="g45">
      <path
         d="M126.86219024658203 2.928149461746216 L65.11318969726562 38.57895278930664 C64.39539337158203 38.99337387084961 64.1495590209961 39.91081237792969 64.56398010253906 40.62861251831055 C64.97840118408203 41.346412658691406 65.89584350585938 41.59223556518555 66.61363983154297 41.17781448364258 L128.36264038085938 5.527013301849365 C129.0804443359375 5.112591743469238 129.32626342773438 4.195152759552002 128.91184997558594 3.477354049682617 C128.49742126464844 2.7595551013946533 127.57998657226562 2.513728141784668 126.86219024658203 2.928149461746216 Z"
         clip-path="url(#19095531479-clipPath1)"
         stroke="none"
         id="path44" />
    </g>
    <g
       text-rendering="optimizeLegibility"
       font-size="49"
       shape-rendering="geometricPrecision"
       font-family="'Arial'"
       id="g46">
      <path
         d="M66.61363983154297 38.57895278930664 L4.8646416664123535 2.928149461746216 C4.146843433380127 2.513728380203247 3.229401111602783 2.7595534324645996 2.8149797916412354 3.4773523807525635 C2.4005582332611084 4.195151329040527 2.646388530731201 5.1125922203063965 3.364187002182007 5.527013301849365 L65.11318969726562 41.17781448364258 C65.83098602294922 41.59223556518555 66.74842834472656 41.34640884399414 67.16284942626953 40.62861251831055 C67.5772705078125 39.91081237792969 67.3314437866211 38.99337387084961 66.61363983154297 38.57895278930664 Z"
         clip-path="url(#19095531479-clipPath1)"
         stroke="none"
         id="path45" />
    </g>
  </g>
</svg>
