<?xml version="1.0" encoding="UTF-8" standalone="no"?>
<!-- Created with Inkscape (http://www.inkscape.org/) -->

<svg
   version="1.1"
   id="svg1"
   width="565.03827"
   height="575.20892"
   viewBox="0 0 565.03827 575.20892"
   sodipodi:docname="starch.svg"
   inkscape:version="1.4.2 (f4327f4, 2025-05-13)"
   xmlns:inkscape="http://www.inkscape.org/namespaces/inkscape"
   xmlns:sodipodi="http://sodipodi.sourceforge.net/DTD/sodipodi-0.dtd"
   xmlns="http://www.w3.org/2000/svg"
   xmlns:svg="http://www.w3.org/2000/svg">
  <defs
     id="defs1" />
  <sodipodi:namedview
     id="namedview1"
     pagecolor="#ffffff"
     bordercolor="#000000"
     borderopacity="0.25"
     inkscape:showpageshadow="2"
     inkscape:pageopacity="0.0"
     inkscape:pagecheckerboard="0"
     inkscape:deskcolor="#d1d1d1"
     inkscape:zoom="1.0461379"
     inkscape:cx="165.84811"
     inkscape:cy="186.87784"
     inkscape:window-width="1920"
     inkscape:window-height="1111"
     inkscape:window-x="-9"
     inkscape:window-y="-9"
     inkscape:window-maximized="1"
     inkscape:current-layer="g1" />
  <g
     inkscape:groupmode="layer"
     inkscape:label="Image"
     id="g1">
    <path
       style="fill:#000000"
       d="m 287.57668,570.69032 c -3.51719,-1.09243 -5.44841,-4.1405 -5.44841,-8.59929 0,-3.72571 1.40302,-6.49865 3.99011,-7.88612 3.96695,-2.1275 8.88202,-0.7972 11.30177,3.05888 1.53608,2.4479 1.32093,8.13299 -0.39557,10.45229 -1.94774,2.63175 -6.22021,3.97674 -9.4479,2.97424 z m 6.64969,-4.00032 c 2.56489,-3.0482 1.77158,-8.78923 -1.44431,-10.45223 -2.42306,-1.25301 -4.34019,-0.99029 -6.17695,0.84647 -1.45419,1.45419 -1.65165,2.05227 -1.65165,5.00283 0,4.47193 1.5597,6.34139 5.29066,6.34139 2.11966,0 2.75153,-0.27584 3.98225,-1.73846 z m 7.67824,-4.75948 v -8.75809 h 1.4126 c 1.36188,0 1.41259,0.13184 1.41259,3.67275 v 3.67275 h 4.23779 4.23779 v -3.71205 c 0,-3.52634 0.0636,-3.70301 1.27133,-3.53149 1.24698,0.1771 1.27433,0.34563 1.42732,8.79739 l 0.15597,8.61684 h -1.42731 c -1.39046,0 -1.42731,-0.10213 -1.42731,-3.95527 v -3.95527 h -4.23779 -4.23779 v 3.95527 c 0,3.84226 -0.0404,3.95527 -1.41259,3.95527 h -1.4126 z m -165.12582,7.07835 c -4.20251,-3.30569 -4.32615,-10.87817 -0.23913,-14.64627 2.02314,-1.86528 6.60522,-2.30785 9.23441,-0.89194 2.85817,1.53922 4.13525,4.01578 4.13525,8.01922 0,3.75939 -1.44156,6.63031 -3.97223,7.91084 -2.25392,1.1405 -7.49533,0.91624 -9.1583,-0.39185 z m 8.84251,-2.88391 c 1.18572,-1.40915 1.46283,-2.32719 1.46283,-4.84629 0,-2.68158 -0.22653,-3.33435 -1.65165,-4.75947 -2.10886,-2.10886 -4.94999,-2.23729 -7.17398,-0.3243 -1.29283,1.11205 -1.58365,1.88742 -1.79288,4.78003 -0.2348,3.24605 -0.14694,3.55547 1.46817,5.17058 2.43595,2.43596 5.62768,2.42742 7.68751,-0.0205 z m 7.67825,-4.75947 v -8.7581 h 1.41259 c 1.34982,0 1.4126,0.15068 1.4126,3.39023 v 3.39023 h 4.23779 4.23778 v -3.39023 c 0,-3.23955 0.0628,-3.39023 1.4126,-3.39023 h 1.41259 v 8.7581 8.75809 h -1.41259 c -1.37224,0 -1.4126,-0.11301 -1.4126,-3.95527 v -3.95527 h -4.23778 -4.23779 v 3.95527 c 0,3.84226 -0.0404,3.95527 -1.4126,3.95527 h -1.41259 z m 279.19988,3.73905 c -2.15452,-2.01263 -2.89643,-3.88509 -2.89529,-7.30733 0.002,-5.20761 3.32851,-8.76839 8.19218,-8.76839 4.87557,0 8.19305,3.62254 8.19305,8.94644 0,5.59259 -3.19266,8.75551 -8.8396,8.75721 -2.42409,7.3e-4 -3.19619,-0.26955 -4.65034,-1.62793 z m 8.79687,-1.99502 c 1.44251,-1.24079 1.58536,-1.70343 1.58536,-5.13426 0,-3.43084 -0.14285,-3.89348 -1.58536,-5.13427 -2.37244,-2.04068 -5.50598,-1.88208 -7.40502,0.37479 -1.18572,1.40915 -1.46283,2.32719 -1.46283,4.84629 0,2.68158 0.22653,3.33435 1.65165,4.75948 2.12553,2.12552 4.94893,2.23819 7.2162,0.28797 z m 8.0833,-5.13426 v -8.7581 h 1.4126 c 1.34981,0 1.41259,0.15068 1.41259,3.39023 v 3.39023 h 4.23779 4.23779 v -3.39023 c 0,-3.24887 0.0595,-3.39023 1.42731,-3.39023 h 1.42731 l -0.15598,8.61684 c -0.15298,8.45176 -0.18033,8.62029 -1.42731,8.79739 -1.21556,0.17264 -1.27133,0.005 -1.27133,-3.81401 v -3.99457 h -4.23779 -4.23779 v 3.95527 c 0,3.84226 -0.0404,3.95527 -1.41259,3.95527 h -1.4126 z m 31.64214,-2.72332 c 0,-1.97287 1.88439,-9.7426 2.4493,-10.09898 0.34128,-0.2153 0.9028,-0.15718 1.24781,0.12915 0.38809,0.32209 1.31151,0.26235 2.42159,-0.15666 1.59318,-0.60136 1.93001,-0.54155 3.00521,0.53365 1.14373,1.14373 1.17323,1.40929 0.53161,4.78591 -0.96408,5.07355 -1.14892,5.55261 -2.14238,5.55261 -0.91241,0 -0.89447,-0.68988 0.17995,-6.92172 0.34073,-1.97631 0.27118,-2.11889 -1.03364,-2.11889 -1.98906,0 -3.1317,1.5392 -4.00818,5.39926 -0.51965,2.28856 -1.06357,3.41705 -1.70697,3.54152 -0.53611,0.10373 -0.9443,-0.17545 -0.9443,-0.64585 z m -191.76087,-4.64451 c -0.19368,-0.50471 -0.35214,-3.14796 -0.35214,-5.8739 0,-2.72593 -0.16335,-6.51915 -0.36301,-8.42936 l -0.36301,-3.47311 -20.96719,-0.0103 -20.96718,-0.0102 -10.22866,-17.33691 c -5.62576,-9.5353 -10.47068,-17.41758 -10.76647,-17.51618 -0.2958,-0.0986 -4.41646,4.02075 -9.15702,9.15411 -7.63133,8.26364 -10.24808,10.51972 -10.24808,8.83556 0,-0.2738 4.20951,-5.16844 9.35447,-10.87699 l 9.35446,-10.37917 10.42294,-18.30048 10.42295,-18.30049 -0.5131,-17.29692 c -0.38439,-12.95829 -0.34923,-17.40295 0.14019,-17.71964 6.35574,-4.11253 23.96267,-14.5508 24.54384,-14.5508 2.00576,0 -0.5431,1.95387 -11.42511,8.7581 l -11.74767,7.34549 0.34534,7.91054 c 0.18994,4.35079 0.34628,11.64912 0.34741,16.21851 l 0.002,8.30797 14.92737,0.1676 c 13.7984,0.15493 16.3989,0.3893 15.40022,1.38798 -0.20505,0.20505 -7.16588,0.52289 -15.4685,0.7063 l -15.09567,0.33347 -1.7546,3.10771 c -0.96503,1.70925 -5.50152,9.7489 -10.08109,17.8659 l -8.32648,14.75819 9.49308,16.22286 9.49307,16.22286 0.34726,-8.94456 c 0.38457,-9.90554 0.31046,-9.22707 1.00792,-9.22707 0.27919,0 0.69303,4.83107 0.91965,10.73572 l 0.41202,10.73573 10.23986,-0.0705 c 5.63193,-0.0388 14.79968,-0.22949 20.3728,-0.42378 l 10.13294,-0.35326 1.65991,-2.82519 c 4.59267,-7.81677 17.41956,-31.23231 17.69359,-32.29972 0.22608,-0.88064 -1.41433,-4.19967 -5.8646,-11.8658 -7.99026,-13.7642 -7.7012,-13.19117 -7.00527,-13.8871 0.66513,-0.66513 2.87925,2.64381 10.4885,15.67475 4.68817,8.02855 5.49812,9.05381 15.35648,19.43862 5.72401,6.02968 10.40728,11.17859 10.40728,11.44203 0,1.48232 -2.38037,-0.49887 -11.29503,-9.40088 l -9.8939,-9.87985 -9.88817,17.36661 -9.88817,17.36661 v 9.8371 c 0,6.7914 -0.19713,9.90404 -0.63669,10.05331 -0.35017,0.11891 -0.79514,-0.19673 -0.98881,-0.70144 z m -147.82713,-8.39936 v -8.79839 l -21.22202,-0.14805 -21.222025,-0.14806 -9.50799,-16.48092 c -5.2294,-9.06451 -9.88857,-17.02428 -10.35372,-17.68838 -0.82545,-1.1785 -1.03138,-1.02718 -8.58755,6.31024 l -7.74181,7.51769 -0.32312,15.96233 -0.32312,15.96233 h 2.34816 c 1.71055,0 2.34815,0.23014 2.34815,0.84756 0,0.67541 -0.83201,0.84762 -4.09653,0.8479 l -4.09652,3.4e-4 0.19155,-14.79412 0.19155,-14.79412 -4.34532,4.05805 c -2.38993,2.23193 -4.57383,4.05805 -4.85312,4.05805 -1.25805,0 -0.17109,-1.64849 4.29503,-6.51389 l 4.80283,-5.23221 v -8.44339 c 0,-4.64386 0.16813,-16.11281 0.37363,-25.48657 l 0.37363,-17.04318 h 3.86416 c 3.05811,0 3.86415,0.17679 3.86415,0.84755 0,0.61213 -0.62782,0.84756 -2.26015,0.84756 h -2.26016 v 23.02274 23.02274 l 7.59774,-7.62545 7.59774,-7.62545 10.48348,-18.26384 10.48349,-18.26385 0.005,-14.22585 c 0.003,-7.82422 0.16303,-15.54193 0.35627,-17.15047 l 0.35136,-2.92461 12.299725,-6.8223 c 11.39778,-6.32201 14.10957,-7.54623 14.10957,-6.36967 0,0.52095 -5.38044,3.80647 -16.66863,10.17857 l -7.91053,4.46543 -0.1498,16.10243 -0.14979,16.10242 14.3441,0.28498 c 7.88926,0.15675 14.67787,0.49127 15.0858,0.74338 1.63815,1.01243 -1.9113,1.31539 -15.86095,1.35382 l -14.41751,0.0397 -9.427465,16.52737 c -5.18511,9.09005 -9.71904,17.19136 -10.07541,18.0029 -0.78777,1.79398 -1.28919,0.7611 9.57008,19.7134 l 8.25575,14.40848 0.28252,-9.55953 c 0.18421,-6.23294 0.49944,-9.63149 0.90587,-9.76634 0.952175,-0.31593 1.411605,6.6977 0.987565,15.07608 l -0.37238,7.3575 h 20.60288 20.60287 l 8.96227,-15.67981 c 4.92925,-8.6239 9.55108,-16.71308 10.27074,-17.97596 l 1.30848,-2.29615 -6.77247,-12.04369 c -3.72485,-6.62403 -6.77246,-12.41359 -6.77246,-12.86571 0,-2.15287 1.98245,0.60013 8.75809,12.16228 7.02378,11.98557 7.63127,12.82539 13.87002,19.17478 8.78921,8.94507 12.40426,12.94254 12.40426,13.71645 0,0.35527 -0.26437,0.55783 -0.58749,0.45012 -0.32312,-0.10771 -4.76268,-4.37679 -9.86571,-9.48685 -5.10302,-5.11006 -9.39212,-9.17497 -9.53135,-9.03313 -0.13922,0.14184 -4.647,7.75878 -10.01728,16.92652 l -9.76416,16.66863 -0.59964,9.56076 c -0.42037,6.7025 -0.81079,9.63048 -1.30594,9.79399 -0.54478,0.17991 -0.7063,-1.77873 -0.7063,-8.56514 z m 295.90113,4.9467 c -0.21236,-0.21236 -0.38611,-3.80765 -0.38611,-7.98953 v -7.60343 l -21.0362,0.21084 -21.0362,0.21085 -10.345,-17.51619 c -5.68976,-9.6339 -10.5548,-17.58935 -10.81121,-17.67877 -0.2564,-0.0894 -1.3036,0.80051 -2.32711,1.97763 -6.69158,7.69594 -16.16531,17.67878 -16.77719,17.67878 -1.71722,0 -0.77417,-1.22922 10.72778,-13.98313 7.22633,-8.0129 7.30829,-8.13513 17.67859,-26.36448 l 10.41859,-18.31426 v -18.86685 -18.86685 l 12.59183,-7.17596 c 6.92551,-3.94678 12.92198,-7.17597 13.32549,-7.17597 2.02867,0 -0.765,2.0287 -11.67153,8.47558 l -11.94882,7.06297 -0.0184,17.55807 -0.0184,17.55807 14.92449,-0.0419 c 13.9391,-0.0391 16.4213,0.15966 15.35257,1.22945 -0.23285,0.23308 -7.15085,0.51218 -15.37334,0.62023 -14.57914,0.19157 -14.96928,0.22661 -15.728,1.41259 -0.4279,0.66888 -5.02062,8.71703 -10.20605,17.88478 l -9.42804,16.66863 1.2614,2.26015 c 0.69378,1.24308 4.85194,8.43795 9.24037,15.9886 8.91791,15.34398 8.67211,15.18505 8.77021,5.67033 0.0584,-5.66683 0.38162,-7.46531 1.2456,-6.93134 0.27821,0.17194 0.50583,4.51026 0.50583,9.64072 v 9.3281 l 20.41422,-0.17958 20.41422,-0.17957 0.91597,-1.36233 c 1.699,-2.52689 18.86169,-33.09594 19.13457,-34.08123 0.1606,-0.57987 -2.50789,-5.78797 -6.5727,-12.8279 -3.76368,-6.51843 -6.84306,-12.11798 -6.84306,-12.44344 0,-2.26469 2.46459,0.97918 8.67298,11.41531 3.92861,6.60388 7.20766,12.14507 7.28677,12.31375 0.21568,0.45987 14.44758,11.84163 14.80693,11.84163 0.17073,0 0.31042,-9.15362 0.31042,-20.34137 v -20.34138 h -2.26015 c -2.28344,0 -3.01177,-0.72075 -1.36638,-1.35214 0.49157,-0.18864 2.39857,-0.34297 4.23778,-0.34297 h 3.34402 v 23.06517 23.06518 l 3.81401,3.05108 c 4.98311,3.98634 8.61683,7.34281 8.61683,7.95939 0,1.19544 -1.76975,0.20324 -6.78046,-3.80141 l -5.36786,-4.29011 -0.28252,17.71196 -0.28252,17.71195 -3.48814,-0.004 c -1.91849,-0.002 -3.69099,-0.20659 -3.93891,-0.4545 -0.59723,-0.59723 0.8863,-1.49987 2.48297,-1.51074 l 1.27133,-0.009 -0.0308,-18.505 -0.0308,-18.50501 -7.64264,-6.14174 c -4.20346,-3.37796 -7.83924,-5.92063 -8.07952,-5.65038 -0.24029,0.27025 -4.75535,8.11938 -10.03348,17.44251 l -9.59659,16.95114 -0.36863,8.15912 c -0.34387,7.61103 -0.7405,9.65578 -1.689,8.70727 z M 34.358995,543.02772 c -4.14905,-1.71616 -6.12586,-8.44614 -3.81313,-12.98169 2.86834,-5.62515 10.55755,-5.98631 14.11382,-0.6629 1.58023,2.36546 1.73906,7.11804 0.33664,10.07341 -1.51482,3.19226 -7.05596,5.05253 -10.63733,3.57118 z m 5.98524,-2.59571 c 1.95045,-1.00862 2.77285,-2.77946 2.77285,-5.97068 0,-4.71715 -3.18704,-7.42975 -7.18069,-6.11173 -2.30338,0.76018 -3.56213,2.99984 -3.53501,6.28977 0.0235,2.85564 0.99073,4.83861 2.86736,5.87874 1.78832,0.99119 3.03307,0.97007 5.07549,-0.0861 z m 460.189115,-3.54892 c -4.11273,-0.47974 -6.99222,-5.08655 -6.30648,-10.08956 0.65361,-4.76863 3.67954,-7.52046 8.26633,-7.51756 5.07007,0.003 7.90107,3.29163 7.90681,9.18434 0.003,3.53426 -0.13595,3.97471 -1.84976,5.84481 -1.93079,2.10685 -4.62592,2.97352 -8.0169,2.57797 z m 5.65828,-3.74383 c 1.17048,-1.17048 1.38691,-1.92676 1.38691,-4.84629 0,-3.07014 -0.18584,-3.64522 -1.65165,-5.11103 -1.84355,-1.84355 -3.75429,-2.09927 -6.20736,-0.83074 -3.33278,1.72345 -3.89312,8.33034 -0.92316,10.88499 2.10168,1.80779 5.53554,1.76278 7.39526,-0.0969 z m -314.79808,2.53459 c -3.20018,-1.29461 -5.19368,-5.77988 -4.5852,-10.31642 1.03781,-7.73749 11.01545,-9.80477 15.08754,-3.12601 1.40989,2.31241 1.49773,7.10497 0.18107,9.87962 -1.52181,3.20698 -7.02575,5.04249 -10.68341,3.56281 z m 6.03132,-2.58734 c 1.97291,-1.02023 2.77613,-2.78788 2.76452,-6.08388 -0.0115,-3.25947 -1.04488,-5.00607 -3.51908,-5.94775 -3.99065,-1.51886 -7.20831,1.1912 -7.20831,6.07115 0,3.09141 1.05819,5.15933 3.09401,6.04634 2.23182,0.9724 2.84325,0.96162 4.86886,-0.0859 z m 140.19244,1.46801 c -3.62884,-3.62883 -3.83292,-9.75532 -0.44802,-13.44889 1.58806,-1.73288 2.26968,-2.04509 4.95004,-2.26737 5.97869,-0.4958 8.93788,2.50162 8.9415,9.05701 0.002,3.55775 -0.13036,3.96686 -1.91188,5.91083 -1.79538,1.9591 -2.15677,2.10225 -5.83141,2.30989 -3.77096,0.21307 -3.98407,0.1547 -5.70023,-1.56147 z m 9.20182,-2.05288 c 1.52549,-1.64603 1.88318,-3.4453 1.33536,-6.7171 -0.64448,-3.84903 -4.59954,-5.98168 -7.85857,-4.2375 -3.19663,1.71078 -3.73117,8.63753 -0.85732,11.10951 2.16586,1.863 5.57675,1.79141 7.38053,-0.15491 z M 13.230965,512.25514 c -6.97287,-7.00043 -11.89036,-12.36303 -11.66752,-12.72359 0.26157,-0.42323 0.87113,-0.27131 1.89937,0.47336 2.48631,1.80064 23.26816,22.94788 23.26816,23.67727 0,1.76092 -2.31999,-0.20283 -13.50001,-11.42704 z m 500.562995,6.29459 c 0,-0.64916 16.87694,-16.13448 28.71824,-26.35022 6.54643,-5.64774 7.81839,-5.16079 1.79383,0.68674 -8.46145,8.21281 -28.94529,26.38389 -29.74195,26.38389 -0.42356,0 -0.77012,-0.32418 -0.77012,-0.72041 z M 390.13453,505.97567 c -4.58711,-3.8598 -4.23391,-12.00256 0.64978,-14.98032 4.00706,-2.44325 9.66894,-0.81027 11.87304,3.42437 1.13905,2.18841 1.03786,6.43265 -0.21898,9.18448 -1.76246,3.85891 -8.90096,5.2348 -12.30384,2.37147 z m 8.66238,-2.18095 c 1.70995,-1.70995 2.25945,-4.58988 1.4496,-7.59741 -1.1803,-4.38331 -6.7526,-5.46705 -9.44955,-1.83782 -1.84501,2.48279 -1.2042,8.30906 1.09067,9.91645 1.92687,1.34963 5.31436,1.1137 6.90928,-0.48122 z m 8.20482,-5.14848 c 0,-8.3814 0.0486,-8.75809 1.13008,-8.75809 1.00451,0 1.13007,0.37669 1.13007,3.39023 v 3.39023 h 4.20959 4.20959 l 0.16946,-3.24897 c 0.15011,-2.87813 0.31457,-3.26958 1.44079,-3.42953 l 1.27134,-0.18056 v 8.83669 8.83669 l -1.27134,-0.18056 c -1.15516,-0.16406 -1.2866,-0.52907 -1.43841,-3.99456 l -0.16708,-3.81401 h -4.21197 -4.21197 v 3.95527 c 0,3.57857 -0.10762,3.95527 -1.13007,3.95527 -1.08147,0 -1.13008,-0.3767 -1.13008,-8.7581 z m -162.93299,7.06468 c -3.51719,-1.09243 -5.44841,-4.14049 -5.44841,-8.59929 0,-3.7257 1.40301,-6.49865 3.99011,-7.88612 3.96694,-2.1275 8.88202,-0.7972 11.30176,3.05889 1.53608,2.44789 1.32093,8.13298 -0.39557,10.45228 -1.94774,2.63175 -6.22021,3.97675 -9.44789,2.97424 z m 6.38434,-3.63927 c 1.59166,-1.69424 2.16768,-5.80302 1.15597,-8.24552 -1.45132,-3.50378 -5.84158,-4.39159 -8.51188,-1.72129 -1.4542,1.4542 -1.65165,2.05228 -1.65165,5.00283 0,2.77405 0.23863,3.60867 1.38561,4.84629 1.91022,2.06117 5.74059,2.12031 7.62195,0.11769 z m 7.94359,-5.12052 v -8.75809 h 1.41259 c 1.36189,0 1.4126,0.13184 1.4126,3.67274 v 3.67275 h 4.23778 4.23779 v -3.71205 c 0,-3.52633 0.0636,-3.70301 1.27134,-3.53148 1.24698,0.1771 1.27432,0.34563 1.42731,8.79739 l 0.15598,8.61683 h -1.42732 c -1.39045,0 -1.42731,-0.10213 -1.42731,-3.95527 v -3.95526 h -4.23779 -4.23778 v 3.95526 c 0,3.84226 -0.0404,3.95527 -1.4126,3.95527 h -1.41259 z m -163.570855,6.96811 c -2.00398,-1.57634 -3.11544,-4.27729 -3.11544,-7.57087 0,-5.44208 3.14193,-8.72037 8.357655,-8.72037 4.69986,0 8.02846,3.62699 8.02846,8.74818 0,5.76002 -2.92499,8.76215 -8.540635,8.76589 -2.4013,0.002 -3.55142,-0.29574 -4.73004,-1.22283 z m 9.042305,-2.84457 c 1.36434,-1.62142 1.49722,-2.15847 1.27934,-5.17058 -0.20226,-2.79621 -0.50252,-3.58435 -1.78627,-4.68858 -2.22399,-1.913 -5.065105,-1.78457 -7.173965,0.32429 -1.42513,1.42512 -1.65165,2.0779 -1.65165,4.75947 0,2.5191 0.2771,3.43715 1.46282,4.84629 1.21798,1.44749 1.87159,1.73847 3.90504,1.73847 2.054175,0 2.684115,-0.28748 3.964685,-1.80936 z m 7.6186,-4.68858 V 487.628 h 1.41259 c 1.34981,0 1.4126,0.15067 1.4126,3.39023 v 3.39023 h 4.23778 4.23779 v -3.39023 c 0,-3.23956 0.0628,-3.39023 1.4126,-3.39023 h 1.41259 v 8.75809 8.75809 h -1.41259 c -1.37224,0 -1.4126,-0.11301 -1.4126,-3.95527 v -3.95526 h -4.23779 -4.23778 v 3.95526 c 0,3.84226 -0.0404,3.95527 -1.4126,3.95527 h -1.41259 z m 26.49649,-30.51032 c -4.82727,-2.62376 -5.58543,-11.18272 -1.32215,-14.92592 6.12336,-5.37639 14.4935,-0.58772 13.62814,7.79685 -0.17629,1.70807 -0.79692,3.7562 -1.37919,4.55141 -2.25956,3.08594 -7.65146,4.3579 -10.9268,2.57766 z m 7.53815,-3.06311 c 1.69556,-1.51498 1.84529,-1.92392 1.84529,-5.03982 0,-2.7921 -0.23709,-3.64342 -1.3423,-4.81986 -1.78388,-1.89886 -4.06795,-2.35176 -6.22773,-1.2349 -2.24876,1.16288 -3.01358,2.6976 -3.01358,6.04724 0,5.87794 4.74274,8.61739 8.73832,5.04734 z m 138.72891,1.89225 c -3.37054,-1.82868 -4.8736,-8.29952 -2.89589,-12.46722 2.61074,-5.50175 10.58545,-5.99544 14.06767,-0.87089 2.66492,3.92179 1.55191,10.85347 -2.10027,13.08014 -2.24718,1.37007 -6.78393,1.49908 -9.07151,0.25797 z m 8.09216,-3.02521 c 1.436,-1.436 1.65165,-2.06875 1.65165,-4.84629 0,-2.77753 -0.21565,-3.41028 -1.65165,-4.84629 -2.36795,-2.36794 -5.58656,-2.33128 -7.62126,0.0868 -1.18572,1.40915 -1.46282,2.32719 -1.46282,4.84629 0,2.68158 0.22653,3.33435 1.65165,4.75947 1.2228,1.2228 2.18771,1.65165 3.71621,1.65165 1.5285,0 2.49342,-0.42885 3.71622,-1.65165 z m 139.86841,1.60176 c -2.17471,-1.71063 -3.17262,-4.01412 -3.17262,-7.32341 0,-6.07743 3.05752,-9.22337 8.61741,-8.86661 2.64094,0.16946 3.56447,0.51023 4.93103,1.81948 2.16782,2.0769 3.0582,4.84689 2.65427,8.25747 -0.59914,5.05877 -3.19411,7.29304 -8.47043,7.29304 -2.24711,0 -3.45791,-0.31334 -4.55966,-1.17997 z m 8.4141,-2.3524 c 2.91001,-2.50309 2.37413,-9.20833 -0.86999,-10.88593 -2.48518,-1.28514 -4.38919,-1.03678 -6.23989,0.81392 -1.4548,1.4548 -1.65165,2.0517 -1.65165,5.00829 0,2.87333 0.21449,3.57113 1.48965,4.84629 1.94171,1.94171 5.15556,2.0378 7.27188,0.21743 z M 132.56182,410.80567 c -3.13644,-1.9124 -4.62152,-6.22462 -3.54291,-10.28754 0.76506,-2.88181 2.38963,-4.83786 4.90993,-5.91174 2.48297,-1.05799 3.90818,-0.97551 6.72751,0.3893 3.28768,1.59154 5.02116,5.0746 4.54144,9.12508 -0.18563,1.56733 -0.74089,3.46534 -1.23392,4.2178 -2.26269,3.45331 -7.81448,4.65457 -11.40205,2.4671 z m 6.84047,-1.79628 c 1.60043,-0.7292 3.16153,-3.60147 3.16153,-5.81689 0,-2.15169 -1.41781,-5.21741 -2.74021,-5.92514 -1.64096,-0.87822 -4.71781,-0.75135 -6.15272,0.2537 -0.67861,0.47532 -1.49238,1.80055 -1.80836,2.94496 -1.65304,5.98679 2.59253,10.79748 7.53976,8.54337 z m 9.77318,2.54632 c -0.21793,-0.21792 -0.39623,-4.16785 -0.39623,-8.77762 v -8.3814 h 1.4126 c 1.34981,0 1.41259,0.15067 1.41259,3.39023 v 3.39023 h 4.23779 4.23779 v -3.39023 c 0,-3.01354 0.12556,-3.39023 1.13007,-3.39023 1.08147,0 1.13008,0.37669 1.13008,8.75809 0,8.3814 -0.0486,8.75809 -1.13008,8.75809 -1.02962,0 -1.13007,-0.37669 -1.13007,-4.23778 v -4.23779 h -4.21304 -4.21303 l -0.16601,4.09053 c -0.12807,3.15555 -0.36604,4.12866 -1.04113,4.25732 -0.48131,0.0917 -1.05341,-0.0115 -1.27133,-0.22944 z m 129.9882,-2.49075 c -3.8368,-0.65937 -6.07601,-3.89565 -6.07601,-8.78155 0,-3.3272 1.82894,-6.68341 4.27447,-7.84389 5.9881,-2.84154 12.11164,1.1426 12.11164,7.88016 0,2.93796 -1.0328,5.77505 -2.61429,7.18144 -1.43091,1.27247 -5.07837,2.01366 -7.69581,1.56384 z m 6.08173,-4.04679 c 1.36434,-1.62142 1.49722,-2.15847 1.27935,-5.17058 -0.20226,-2.79621 -0.50253,-3.58435 -1.78627,-4.68858 -2.224,-1.913 -5.06512,-1.78457 -7.17398,0.32429 -1.42512,1.42512 -1.65165,2.0779 -1.65165,4.75947 0,2.5191 0.27711,3.43715 1.46283,4.84629 1.21798,1.44749 1.87159,1.73847 3.90504,1.73847 2.05418,0 2.68411,-0.28748 3.96468,-1.80936 z m 143.3459,1.79579 c -3.61601,-0.81324 -5.7685,-4.07992 -5.7685,-8.75443 0,-2.93891 0.9082,-5.00552 3.09955,-7.05307 1.28343,-1.19921 2.05286,-1.4126 5.09351,-1.4126 3.04064,0 3.81008,0.21339 5.09351,1.4126 2.50585,2.34141 3.24871,4.33581 2.98304,8.00872 -0.35005,4.83937 -2.42932,7.21728 -6.94648,7.9442 -0.93231,0.15003 -2.53189,0.0846 -3.55463,-0.14542 z m 6.38925,-4.05594 c 1.35774,-1.61358 1.49666,-2.16619 1.28392,-5.10729 -0.28749,-3.97443 -1.50905,-5.46119 -4.8559,-5.9101 -2.03677,-0.27319 -2.52333,-0.10308 -4.03819,1.41178 -1.50229,1.50229 -1.72239,2.11952 -1.72239,4.83021 0,2.5191 0.27711,3.43714 1.46283,4.84629 1.21798,1.44749 1.87159,1.73847 3.90504,1.73847 2.05418,0 2.68411,-0.28749 3.96469,-1.80936 z m 7.61859,-4.68858 v -8.7581 h 1.4126 c 1.36188,0 1.41259,0.13185 1.41259,3.67275 v 3.67275 h 4.23779 4.23779 v -3.67275 c 0,-3.5409 0.0507,-3.67275 1.41259,-3.67275 h 1.4126 v 8.7581 8.75809 h -1.4126 c -1.37223,0 -1.41259,-0.11301 -1.41259,-3.95527 v -3.95527 h -4.23779 -4.23779 v 3.95527 c 0,3.84226 -0.0404,3.95527 -1.41259,3.95527 h -1.4126 z m -155.58423,-8.62248 c -0.34211,-0.55354 2.46449,-6.95126 13.19688,-30.08264 4.10942,-8.85698 7.84232,-16.96524 8.29534,-18.01837 0.80028,-1.86041 0.68216,-1.8051 -4.16076,1.94845 -15.10169,11.70469 -25.04362,19.62098 -25.0461,19.94305 -0.002,0.20056 -0.59512,1.1049 -1.31907,2.00965 -1.73885,2.17313 -2.99348,1.53791 -1.74209,-0.88201 0.48793,-0.94356 0.76624,-1.83647 0.61846,-1.98425 -0.3106,-0.3106 -23.87537,-9.95846 -32.44531,-13.28371 -4.51613,-1.75233 -5.85256,-2.51788 -6.06933,-3.47673 -0.28364,-1.2546 -3.58004,-24.97685 -4.87042,-35.04945 l -0.71329,-5.56794 -2.57857,0.35753 c -1.41821,0.19664 -5.75691,0.83837 -9.64155,1.42606 -4.52941,0.68524 -7.26397,0.87368 -7.62329,0.52532 -0.97705,-0.94723 0.56623,-1.38776 10.50556,-2.99884 l 9.61407,-1.55835 16.69263,-13.01683 16.69262,-13.01682 6.35031,-13.09689 6.3503,-13.09688 15.48375,-0.93143 c 10.31727,-0.62064 15.67218,-0.74299 16.04849,-0.36668 1.10031,1.10031 -0.92908,1.46552 -11.92125,2.14538 -6.06792,0.3753 -12.62302,0.83088 -14.56689,1.0124 l -3.53431,0.33004 -6.04942,12.11442 -6.04943,12.11441 2.13645,0.84844 c 10.39157,4.12673 24.13212,10.22838 24.3187,10.79899 0.12701,0.38846 -0.13482,0.7063 -0.58185,0.7063 -0.44704,0 -6.62714,-2.29617 -13.73355,-5.1026 -7.10642,-2.80643 -13.23733,-5.03127 -13.62425,-4.94409 -0.56066,0.12633 -11.19873,8.34133 -31.34158,24.20281 -1.1035,0.86895 -1.08786,1.06541 1.56459,19.65197 l 2.67923,18.77424 2.76988,-5.10809 c 2.51193,-4.6324 3.811,-5.87289 3.811,-3.63914 0,0.45402 -1.1442,3.10374 -2.54267,5.88826 -1.39847,2.78452 -2.54267,5.41015 -2.54267,5.83474 0,0.60241 19.99996,9.06884 36.50768,15.45451 0.98494,0.381 32.1735,-23.92647 32.80234,-25.5652 0.16444,-0.42853 -0.48841,-6.45689 -1.45078,-13.39636 -0.96237,-6.93946 -1.74977,-13.43008 -1.74977,-14.4236 0,-1.69985 0.70321,-2.38917 1.35743,-1.33061 0.16173,0.26167 1.2363,7.0101 2.38795,14.9965 l 2.09391,14.52072 -1.31802,3.22599 c -2.8716,7.02852 -23.68653,51.23889 -24.20552,51.41189 -0.30446,0.10148 -0.68958,-0.0356 -0.85583,-0.30456 z m -20.99023,-3.33692 c -1.48265,-0.39588 -3.58109,-2.34908 -4.57399,-4.25739 -1.18392,-2.27546 -1.01024,-7.15301 0.33315,-9.35636 4.50961,-7.39635 15.25226,-4.11024 15.2561,4.66673 10e-4,3.22068 -1.31365,6.22016 -3.38724,7.72586 -1.47214,1.06897 -5.67693,1.74211 -7.62802,1.22116 z m 5.06292,-2.75883 c 2.17591,-1.03253 3.13014,-2.84954 3.13014,-5.96032 0,-4.45574 -2.95247,-7.28406 -6.73626,-6.453 -2.54808,0.55966 -3.99947,2.7342 -3.99947,5.99223 0,3.53559 0.97363,5.58327 3.09401,6.50712 2.19523,0.95646 2.31971,0.95409 4.51158,-0.086 z m -27.38193,-6.18819 v -8.75809 h 1.4126 c 1.36188,0 1.41259,0.13184 1.41259,3.67275 v 3.67275 h 4.23779 4.23779 v -3.71205 c 0,-3.52634 0.0636,-3.70302 1.27133,-3.53149 1.24698,0.1771 1.27433,0.34563 1.42731,8.79739 l 0.15598,8.61683 h -1.42731 c -1.39046,0 -1.42731,-0.10213 -1.42731,-3.95526 v -3.95527 h -4.23779 -4.23779 v 3.95527 c 0,3.84226 -0.0404,3.95526 -1.41259,3.95526 h -1.4126 z m 3.62753,-49.94129 c -4.79631,-2.92477 -4.8769,-12.41134 -0.13004,-15.30661 3.08025,-1.87875 5.18811,-2.00749 8.18399,-0.49985 3.25247,1.63676 4.70463,4.14123 4.70463,8.11385 0,3.55704 -1.44916,6.3629 -3.99011,7.72562 -2.5045,1.34318 -6.53658,1.328 -8.76847,-0.033 z m 8.06551,-2.55834 c 1.44251,-1.2408 1.58536,-1.70343 1.58536,-5.13427 0,-3.43083 -0.14285,-3.89347 -1.58536,-5.13427 -2.37244,-2.04068 -5.50599,-1.88208 -7.40502,0.3748 -1.18572,1.40915 -1.46283,2.32719 -1.46283,4.84629 0,2.68158 0.22653,3.33435 1.65165,4.75947 2.12553,2.12553 4.94893,2.2382 7.2162,0.28798 z m 8.0833,-5.13427 v -8.75809 h 1.4126 c 1.34981,0 1.41259,0.15068 1.41259,3.39023 v 3.39023 h 4.23779 4.23779 v -3.39023 c 0,-3.24888 0.0595,-3.39023 1.42731,-3.39023 h 1.42731 l -0.15598,8.61683 c -0.15298,8.45176 -0.18033,8.62029 -1.42731,8.79739 -1.21556,0.17264 -1.27133,0.005 -1.27133,-3.814 v -3.99457 h -4.23779 -4.23779 v 3.95527 c 0,3.84226 -0.0404,3.95526 -1.41259,3.95526 h -1.4126 z m -66.10948,-3.49825 c -5.76363,-2.97868 -5.76912,-12.99291 -0.009,-16.07292 5.94085,-3.17656 12.22161,1.01152 12.05999,8.04174 -0.12663,5.50853 -2.42876,8.23046 -7.41494,8.7671 -1.90608,0.20514 -3.21838,-0.003 -4.63624,-0.73592 z m 7.45456,-2.81587 c 2.57477,-2.33013 2.49009,-8.28482 -0.15181,-10.67571 -1.82823,-1.65453 -5.2522,-1.42114 -7.16149,0.48815 -1.3423,1.3423 -1.55385,2.00559 -1.55385,4.87192 0,3.48573 0.95986,5.27344 3.39023,6.31416 1.50781,0.64566 4.2031,0.15428 5.47692,-0.99852 z m 98.89075,-12.0423 c -6.67686,-1.57664 -7.90202,-12.21187 -1.87093,-16.24091 3.8525,-2.57363 9.43777,-1.20931 11.61727,2.83778 1.51677,2.81647 1.0451,8.86141 -0.84946,10.88677 -0.76284,0.8155 -1.76838,1.68018 -2.23453,1.92151 -1.46746,0.75971 -4.73044,1.05104 -6.66235,0.59485 z m 5.22444,-2.61846 c 2.57055,-0.98642 3.50929,-7.90559 1.43102,-10.54768 -2.25415,-2.86568 -7.11612,-2.43392 -8.77785,0.77951 -2.32454,4.49516 0.0478,10.11916 4.26845,10.11916 1.19004,0 2.57531,-0.15795 3.07838,-0.35099 z m -115.95893,-2.89798 c -1.77651,-2.56569 -1.84679,-2.81103 -1.00532,-3.50938 0.66234,-0.5497 1.01866,-0.25896 1.97141,1.60858 0.63962,1.25376 1.16294,2.54395 1.16294,2.8671 0,1.07775 -1.0408,0.60536 -2.12903,-0.9663 z m -4.38872,-7.52585 c -1.3523,-2.66864 -1.4284,-3.91618 -0.23888,-3.91618 0.43591,0 3.3664,5.09568 3.3664,5.85367 0,0.13246 -0.3812,0.38713 -0.84711,0.56591 -0.5961,0.22875 -1.27182,-0.51305 -2.28041,-2.5034 z m -4.46073,-7.89859 c -1.4129,-2.59595 -1.61654,-4.49627 -0.48128,-4.49119 0.75503,0.003 3.73223,6.02526 3.31368,6.70248 -0.6987,1.13052 -1.24621,0.70306 -2.8324,-2.21129 z m -4.18992,-7.66735 c -1.33855,-2.75515 -1.4974,-3.60627 -0.67304,-3.60627 0.65273,0 3.4106,3.94082 3.4106,4.87354 0,0.36076 -0.34197,0.78716 -0.75992,0.94755 -0.48215,0.18501 -1.20503,-0.62456 -1.97764,-2.21482 z M 317.026,255.41265 c -3.18923,-2.50865 -4.26597,-8.59656 -2.20286,-12.45502 2.95168,-5.52031 11.38194,-5.52153 14.19777,-0.002 2.22191,4.35531 1.02514,10.36162 -2.49191,12.50631 -2.43236,1.48325 -7.58872,1.45654 -9.503,-0.0492 z m 8.43745,-2.50912 c 1.44251,-1.24079 1.58537,-1.70343 1.58537,-5.13426 0,-3.43084 -0.14286,-3.89348 -1.58537,-5.13427 -2.26727,-1.95022 -5.09067,-1.83755 -7.21619,0.28798 -1.43601,1.436 -1.65165,2.06875 -1.65165,4.84629 0,2.77753 0.21564,3.41028 1.65165,4.84629 2.12552,2.12552 4.94892,2.23819 7.21619,0.28797 z m 8.08331,-5.13426 v -8.7581 h 1.41259 c 1.34981,0 1.4126,0.15068 1.4126,3.39023 v 3.39023 h 4.23778 4.23779 v -3.39023 c 0,-3.23955 0.0628,-3.39023 1.4126,-3.39023 h 1.41259 v 8.7581 8.75809 h -1.41259 c -1.37224,0 -1.4126,-0.11301 -1.4126,-3.95527 v -3.95527 h -4.23779 -4.23778 v 3.95527 c 0,3.84226 -0.0404,3.95527 -1.4126,3.95527 h -1.41259 z M 304.5122,185.84769 c -2.16823,-1.70553 -3.17263,-4.01205 -3.17263,-7.2857 0,-5.9416 2.84313,-9.04447 8.29097,-9.04841 2.33094,-0.002 3.27938,0.29769 4.68186,1.47779 2.7471,2.31154 3.59712,4.4391 3.25979,8.15916 -0.50263,5.54317 -3.02125,7.87713 -8.50034,7.87713 -2.24711,0 -3.45791,-0.31334 -4.55965,-1.17997 z m 8.52041,-2.44386 c 1.44251,-1.24079 1.58536,-1.70343 1.58536,-5.13427 0,-3.43083 -0.14285,-3.89347 -1.58536,-5.13426 -2.26727,-1.95022 -5.09067,-1.83755 -7.21619,0.28797 -1.43601,1.43601 -1.65165,2.06876 -1.65165,4.84629 0,2.77754 0.21564,3.41029 1.65165,4.84629 2.12552,2.12553 4.94892,2.2382 7.21619,0.28798 z m 8.0833,-5.13427 v -8.75809 h 1.4126 c 1.34981,0 1.41259,0.15068 1.41259,3.39023 v 3.39023 h 4.23779 4.23779 v -3.39023 c 0,-3.24887 0.0595,-3.39023 1.42731,-3.39023 h 1.42731 l -0.15597,8.61683 c -0.15299,8.45176 -0.18033,8.6203 -1.42732,8.7974 -1.21556,0.17263 -1.27133,0.005 -1.27133,-3.81401 v -3.99457 h -4.23779 -4.23779 v 3.95527 c 0,3.84226 -0.0404,3.95527 -1.41259,3.95527 h -1.4126 z m -164.56428,7.30646 c -2.09355,-1.13585 -3.81712,-4.69011 -3.81712,-7.8715 0,-6.74867 5.71743,-10.84601 11.54033,-8.27026 3.43214,1.5182 4.84092,3.89067 4.84367,8.15707 0.003,3.90088 -1.07365,6.25001 -3.55681,7.76409 -2.18581,1.33276 -6.75402,1.44461 -9.01007,0.2206 z m 8.09215,-3.02521 c 1.436,-1.436 1.65165,-2.06875 1.65165,-4.84629 0,-2.77753 -0.21565,-3.41028 -1.65165,-4.84628 -2.30684,-2.30684 -5.15072,-2.28171 -7.49869,0.0663 -1.61511,1.61511 -1.70297,1.92453 -1.46817,5.17058 0.20923,2.89262 0.50005,3.66798 1.79288,4.78003 2.224,1.913 5.06512,1.78457 7.17398,-0.3243 z m 7.86707,-4.84629 v -8.75809 h 1.41259 c 1.34982,0 1.4126,0.15068 1.4126,3.39023 v 3.39023 h 4.23779 4.23778 v -3.39023 c 0,-3.23955 0.0628,-3.39023 1.4126,-3.39023 h 1.4126 v 8.75809 8.7581 h -1.4126 c -1.37224,0 -1.4126,-0.11301 -1.4126,-3.95527 v -3.95527 h -4.23778 -4.23779 v 3.95527 c 0,3.84226 -0.0404,3.95527 -1.4126,3.95527 h -1.41259 z m 280.0055,4.26217 c -3.72714,-2.45688 -4.98216,-9.24143 -2.41919,-13.07796 2.60355,-3.89727 7.87219,-4.93755 11.59201,-2.2888 4.83603,3.44356 4.62253,11.8439 -0.38607,15.18986 -2.45862,1.64247 -6.4418,1.72266 -8.78675,0.1769 z m 6.98241,-1.97537 c 4.49552,-2.32472 3.39443,-11.40419 -1.4964,-12.33913 -3.81301,-0.7289 -6.36261,1.99229 -6.36261,6.79084 0,5.10697 3.68357,7.7075 7.85901,5.54829 z m 9.09214,-5.95954 v -8.47558 h 1.4126 c 1.34981,0 1.41259,0.15068 1.41259,3.39023 v 3.39023 h 4.23779 4.23779 v -3.39023 c 0,-3.23955 0.0628,-3.39023 1.41259,-3.39023 h 1.4126 v 8.47558 8.47557 h -1.4126 c -1.37223,0 -1.41259,-0.11301 -1.41259,-3.95527 v -3.95527 h -4.23779 -4.23779 v 3.95527 c 0,3.84226 -0.0404,3.95527 -1.41259,3.95527 h -1.4126 z m 31.64214,-2.48224 c 0,-1.59014 1.82226,-9.68198 2.29226,-10.17892 0.28888,-0.30543 0.78804,-0.26138 1.23424,0.10893 0.47806,0.39676 1.04906,0.43212 1.5778,0.0977 1.50618,-0.95261 3.85671,-0.61582 4.53396,0.64963 0.73648,1.37613 -0.22383,7.68744 -1.41825,9.3209 -1.40833,1.926 -1.82698,0.35379 -1.00081,-3.75846 0.97279,-4.84204 0.45283,-5.94463 -1.95543,-4.1466 -1.52156,1.13601 -1.84328,1.81195 -2.99495,6.29251 -0.37224,1.44818 -0.94505,2.40141 -1.44304,2.40141 -0.45418,0 -0.82578,-0.3542 -0.82578,-0.78712 z m -191.76087,-4.60307 c -0.19368,-0.50471 -0.35214,-3.14797 -0.35214,-5.8739 0,-2.72593 -0.16303,-6.51609 -0.3623,-8.42256 l -0.3623,-3.46632 -20.9558,-0.14806 -20.95579,-0.14806 -5.945,-9.97378 c -3.26975,-5.48558 -7.97914,-13.43447 -10.46531,-17.6642 l -4.5203,-7.6904 -3.40145,3.53823 c -1.8708,1.94604 -5.99022,6.33489 -9.15426,9.75302 -4.43011,4.78586 -5.90658,6.06102 -6.42159,5.54601 -0.51501,-0.51501 1.53466,-3.11318 8.91455,-11.30013 l 9.58332,-10.63135 10.25622,-18.088029 10.25623,-18.088029 -0.50347,-17.226858 c -0.27691,-9.474772 -0.33467,-17.398989 -0.12834,-17.60937 1.00697,-1.026784 24.0301,-14.591002 24.76593,-14.591002 1.9755,0 -0.21484,1.669074 -11.36002,8.656477 l -11.78494,7.388494 0.3659,8.453461 c 0.20124,4.649404 0.36589,11.972775 0.36589,16.274159 v 7.820698 h 14.94017 c 13.45116,0 16.80343,0.302254 15.0909,1.360658 -0.27469,0.169767 -7.20835,0.480495 -15.40812,0.690506 l -14.90868,0.381839 -8.47397,14.967207 c -4.66068,8.23197 -9.16451,16.304389 -10.00851,17.938709 l -1.53455,2.97149 8.37739,14.32331 c 4.60757,7.87782 8.92048,15.21325 9.58424,16.30095 l 1.20683,1.97763 0.002,-7.41613 c 0.002,-7.52826 0.3587,-10.94761 1.14156,-10.94761 0.23823,0 0.61893,4.70708 0.84599,10.46018 l 0.41285,10.46018 20.37762,-0.14823 20.37761,-0.14824 9.50891,-16.95115 c 5.2299,-9.32313 9.65709,-17.51265 9.83821,-18.19895 0.24383,-0.92392 -1.4648,-4.34332 -6.5828,-13.173839 -4.40941,-7.60793 -6.71598,-12.12217 -6.37043,-12.46772 0.81315,-0.81315 1.62722,0.34595 8.96405,12.76341 6.67108,11.290689 6.68626,11.310479 17.0257,22.195319 5.69176,5.992 10.34866,11.14091 10.34866,11.44202 0,1.66905 -2.52084,-0.43498 -11.26617,-9.40332 -5.33684,-5.47293 -9.81048,-9.84366 -9.94141,-9.71272 -0.13094,0.13094 -4.72033,8.10497 -10.19864,17.72007 l -9.96058,17.482 0.20077,9.55252 c 0.14167,6.74111 0.0134,9.61677 -0.43592,9.77079 -0.35018,0.12005 -0.79515,-0.19468 -0.98882,-0.69938 z m -147.46579,-0.0872 c -0.19874,-0.19873 -0.36134,-4.13296 -0.36134,-8.74273 v -8.3814 h -21.14406 -21.14406 l -6.04663,-10.59446 c -9.61982,-16.85512 -14.466015,-25.00295 -14.871365,-25.00295 -0.20701,0 -3.76504,3.39565 -7.90673,7.54588 l -7.53034,7.54588 -0.31712,15.90321 -0.31711,15.90321 h 2.39327 c 1.66349,0 2.32148,0.21537 2.15784,0.70629 -0.15793,0.47381 -1.51538,0.7063 -4.12387,0.7063 h -3.88845 l 0.17491,-14.64831 0.17491,-14.64831 -4.21379,3.77132 c -4.03266,3.60922 -5.49863,4.45881 -5.49863,3.18668 0,-0.32155 2.16127,-2.82662 4.80282,-5.56682 l 4.80283,-4.98217 0.0792,-13.78574 c 0.0435,-7.58215 0.23424,-19.125349 0.42378,-25.651539 l 0.34461,-11.86581 1.93967,-0.18476 c 2.75994,-0.262897 5.80432,0.39987 5.53969,1.20599 -0.12167,0.37064 -1.15507,0.7528 -2.29643,0.84926 l -2.07522,0.17537 v 22.983039 22.98305 l 7.36971,-7.33734 7.36972,-7.33735 L 107.5557,92.964111 118.2672,74.333157 V 59.846966 c 0,-7.9674 0.16198,-15.667946 0.35996,-17.112325 l 0.35995,-2.626144 7.40932,-4.167938 c 12.3635,-6.954788 17.05844,-9.383762 18.13781,-9.383762 2.10904,0 -0.76621,1.969077 -12.37605,8.475574 l -11.59457,6.497939 -0.0181,16.20959 -0.0181,16.209589 14.3624,0.176519 c 13.45892,0.165416 15.83305,0.397911 14.78486,1.447856 -0.23269,0.233078 -7.11468,0.508903 -15.29333,0.612944 l -14.87026,0.189166 -10.03151,17.567377 c -9.22904,16.162059 -9.984325,17.692399 -9.44165,19.130129 0.32443,0.85951 4.49518,8.3442 9.26834,16.63264 l 8.67848,15.06991 0.15465,-9.32819 c 0.12264,-7.3966 0.32739,-9.47153 0.98882,-10.02047 0.73082,-0.60653 0.83416,0.71709 0.83416,10.68462 v 11.37691 l 20.71923,-0.14822 20.71922,-0.14822 9.52414,-16.62531 c 5.23828,-9.14392 9.67464,-17.22496 9.85859,-17.95787 0.25116,-1.00072 -0.9076,-3.54418 -4.65338,-10.214 -7.36858,-13.120679 -8.45145,-15.255839 -7.97749,-15.729799 0.74941,-0.74941 1.88707,0.91707 8.91829,13.06377 l 6.86862,11.865799 8.63531,8.82943 c 8.74974,8.94644 10.90735,11.52357 10.22169,12.20923 -0.20873,0.20873 -4.68789,-3.92329 -9.9537,-9.18227 -5.83119,-5.82362 -9.76542,-9.3476 -10.06335,-9.01396 -0.26903,0.30129 -4.83053,8.04868 -10.13665,17.21643 l -9.64749,16.66863 -0.40691,9.19755 c -0.37903,8.56748 -0.66509,10.25612 -1.58203,9.33917 z m 295.15368,-11.19123 v -7.62801 h -21.11667 -21.11666 l -10.30616,-17.51619 c -5.66839,-9.6339 -10.5005,-17.51618 -10.73802,-17.51618 -0.23753,0 -3.61729,3.49617 -7.5106,7.76927 -8.50426,9.33387 -11.56321,12.33968 -12.05616,11.84673 -0.58111,-0.58111 0.76445,-2.28363 10.09709,-12.77564 l 8.74223,-9.82826 10.2485,-18.044069 10.2485,-18.044076 V 55.110202 36.288799 l 10.87699,-6.232821 c 12.49496,-7.159963 14.93609,-8.386519 15.52301,-7.799592 0.60654,0.606531 -0.83156,1.56787 -13.12961,8.776897 l -11.01023,6.454119 v 17.418746 17.418746 h 14.94016 c 13.75135,0 16.81401,0.295717 14.95592,1.44408 -0.34893,0.215649 -7.28778,0.523503 -15.41967,0.684119 l -14.78527,0.29203 -10.07539,17.824808 c -9.70654,17.172269 -10.04566,17.877809 -9.26356,19.272519 0.4465,0.79625 4.60495,7.98687 9.24099,15.97916 9.43319,16.26231 9.08414,16.0243 9.20989,6.27992 0.0698,-5.40728 0.40385,-7.17555 1.25613,-6.64882 0.27821,0.17195 0.50583,4.49303 0.50583,9.60241 v 9.28978 l 11.72455,-0.0765 c 6.4485,-0.0421 15.75323,-0.23278 20.67719,-0.42378 l 8.95265,-0.34725 9.83487,-17.42146 c 5.40918,-9.58181 9.83224,-17.71836 9.82903,-18.08123 -0.003,-0.36287 -3.05443,-5.95727 -6.78046,-12.432009 -3.72604,-6.47474 -6.77461,-12.00505 -6.77461,-12.28958 0,-0.28454 0.35608,-0.51734 0.79129,-0.51734 0.4352,0 4.05851,5.50746 8.05179,12.23879 l 7.26051,12.238779 6.78046,5.4526 c 3.72925,2.99893 7.09829,5.64304 7.48676,5.87579 0.55979,0.33541 0.70629,-3.79593 0.70629,-19.91743 V 80.303651 l -2.11889,-0.17537 c -3.6491,-0.30202 -2.31095,-1.29766 1.97763,-1.47146 l 4.09653,-0.16601 0.0124,23.050059 0.0123,23.05006 6.20307,5.04363 c 3.41169,2.774 6.20307,5.38023 6.20307,5.79164 0,1.52152 -1.25327,0.80056 -7.72485,-4.44384 -2.22866,-1.80605 -4.19924,-3.28372 -4.37905,-3.28372 -0.17982,0 -0.32694,7.88228 -0.32694,17.51619 v 17.51618 h -4.00235 c -2.94885,0 -3.94133,-0.18591 -3.7705,-0.7063 0.12753,-0.38846 1.03865,-0.78597 2.02472,-0.88335 l 1.79286,-0.17706 v -18.47595 -18.47594 l -7.55119,-6.06742 c -4.15315,-3.33708 -7.70008,-6.06742 -7.88206,-6.06742 -0.18199,0 -4.79337,7.85258 -10.24752,17.45018 -9.50596,16.7275 -9.91664,17.57801 -9.91664,20.53709 0,6.97957 -0.71918,13.43121 -1.4972,13.43121 -0.6029,0 -0.76295,-1.60022 -0.76295,-7.62802 z m -401.944175,3.68154 c -4.72724,-1.48901 -6.96393,-8.00709 -4.45872,-12.9934 1.57757,-3.13996 4.35102,-4.67976 7.914,-4.3938 4.77164,0.38298 7.48409,3.6523 7.4803,9.01604 -0.002,3.274 -1.28491,6.00429 -3.5024,7.45556 -1.68731,1.10428 -5.38727,1.56003 -7.43318,0.9156 z m 4.9256,-2.48196 c 2.39435,-1.00042 3.41718,-3.40712 3.05406,-7.18617 -0.36678,-3.81719 -1.84147,-5.31417 -5.23502,-5.31417 -3.57266,0 -4.93842,1.50838 -5.24861,5.79671 -0.21169,2.92664 -0.0706,3.4975 1.25298,5.07052 0.82034,0.97492 2.05496,1.88164 2.74358,2.01493 0.68863,0.13329 1.32378,0.27697 1.41146,0.31929 0.0877,0.0423 0.99737,-0.27318 2.02155,-0.70111 z M 517.09876,152.2664 c -0.82391,-0.44755 -2.06243,-1.97964 -2.75226,-3.40464 -2.98494,-6.16606 0.66464,-13.29621 6.85357,-13.38977 5.27618,-0.0798 8.40925,3.19082 8.41285,8.78209 0.003,3.90089 -1.07364,6.25002 -3.55681,7.76409 -2.1663,1.32087 -6.74888,1.44787 -8.95735,0.24823 z m 8.03943,-3.05283 c 1.43601,-1.436 1.65165,-2.06876 1.65165,-4.84629 0,-2.77753 -0.21564,-3.41029 -1.65165,-4.84629 -2.67648,-2.67649 -6.52674,-2.1328 -8.23067,1.16223 -1.61653,3.12603 -0.66142,8.12027 1.83052,9.57169 1.95932,1.14121 4.65645,0.70237 6.40015,-1.04134 z m -313.84167,2.77824 c -6.05283,-1.86056 -7.44147,-11.1363 -2.368,-15.81759 1.29749,-1.19719 2.0771,-1.41259 5.11264,-1.41259 3.04065,0 3.81008,0.21339 5.09351,1.41259 2.26068,2.11234 3.09978,4.1329 3.09743,7.4587 -0.002,3.28313 -1.29739,6.03043 -3.5024,7.42982 -1.71205,1.08653 -5.41517,1.54939 -7.43318,0.92907 z m 5.54452,-2.60766 c 2.272,-0.87185 3.37639,-6.77592 1.83682,-9.8197 -1.71689,-3.39434 -6.92898,-3.62458 -8.89932,-0.39312 -2.74162,4.49638 -0.45329,10.56381 3.98412,10.56381 1.19004,0 2.57531,-0.15794 3.07838,-0.35099 z m 140.40384,1.64871 c -3.38581,-2.84898 -4.26127,-7.44384 -2.25866,-11.85471 1.30372,-2.87154 3.80521,-4.32905 7.45209,-4.34202 4.89121,-0.0174 7.83024,3.30398 7.83382,8.85291 0.004,5.8591 -2.80564,8.86522 -8.28885,8.86918 -2.35407,0.002 -3.27647,-0.29523 -4.7384,-1.52536 z m 8.55252,-2.38433 c 1.39729,-1.39729 1.65165,-2.09916 1.65165,-4.55745 0,-4.64727 -1.60457,-6.7379 -5.19509,-6.76881 -3.96288,-0.0341 -6.47173,4.10586 -5.30508,8.75415 1.03595,4.12758 5.88385,5.53678 8.84852,2.57211 z M 32.561305,128.68387 c -6.62516,-6.60586 -12.04575,-12.32687 -12.04575,-12.71336 0,-0.38649 0.30432,-0.70271 0.67626,-0.70271 0.91532,0 24.75046,23.7895 24.75046,24.70306 0,0.39801 -0.30042,0.72366 -0.66761,0.72366 -0.36719,0 -6.08821,-5.40479 -12.71336,-12.01065 z m 500.443955,4.60843 c 0,-0.7122 28.58574,-29.71344 30.08829,-30.52564 0.76784,-0.41505 0.98882,-0.31456 0.98882,0.44966 0,1.119 -29.25004,30.69774 -30.35661,30.69774 -0.39627,0 -0.7205,-0.27979 -0.7205,-0.62176 z M 409.34583,122.31471 c -5.49526,-4.62396 -3.74138,-14.29168 2.92677,-16.13285 4.01844,-1.10954 8.41852,1.27396 9.99304,5.41319 0.87195,2.29227 0.20505,7.20492 -1.22486,9.02276 -2.69414,3.42504 -8.61942,4.28478 -11.69495,1.6969 z m 7.83295,-1.68234 c 3.17897,-1.64391 3.66429,-7.9607 0.82943,-10.79556 -1.59492,-1.59493 -4.98241,-1.83086 -6.90928,-0.48122 -2.2942,1.60691 -2.93694,7.44604 -1.09067,9.90849 1.67899,2.23936 4.45989,2.77002 7.17052,1.36829 z m 9.03425,-5.64709 c 0,-8.3814 0.0486,-8.75809 1.13008,-8.75809 1.00451,0 1.13007,0.37669 1.13007,3.39023 v 3.39023 h 4.23779 4.23779 v -3.39023 c 0,-3.23955 0.0628,-3.39023 1.41259,-3.39023 h 1.4126 v 8.79739 8.79739 l -1.27134,-0.18056 c -1.15516,-0.16406 -1.2866,-0.52907 -1.43841,-3.99456 l -0.16707,-3.81401 h -4.21198 -4.21197 v 3.95527 c 0,3.57857 -0.10762,3.95526 -1.13007,3.95526 -1.08147,0 -1.13008,-0.37669 -1.13008,-8.75809 z m -165.20878,5.88301 c -2.16823,-1.70553 -3.17262,-4.01205 -3.17262,-7.28569 0,-5.94161 2.84312,-9.04448 8.29096,-9.04841 2.33094,-0.002 3.27939,0.29768 4.68186,1.47778 2.7471,2.31154 3.59712,4.4391 3.2598,8.15916 -0.50264,5.54317 -3.02125,7.87713 -8.50035,7.87713 -2.24711,0 -3.45791,-0.31334 -4.55965,-1.17997 z m 8.45172,-2.38477 c 2.87384,-2.47198 2.33931,-9.39872 -0.85732,-11.10951 -2.05826,-1.10155 -4.54105,-0.67926 -6.29018,1.06987 -1.436,1.436 -1.65165,2.06875 -1.65165,4.84629 0,2.77753 0.21565,3.41028 1.65165,4.84629 2.09824,2.09823 4.95062,2.23674 7.1475,0.34706 z m 8.152,-5.19335 v -8.7581 h 1.41259 c 1.34982,0 1.4126,0.15068 1.4126,3.39023 v 3.39023 h 4.23779 4.23778 v -3.39023 c 0,-3.24887 0.0595,-3.39023 1.42731,-3.39023 h 1.42732 l -0.15598,8.61684 c -0.15299,8.45176 -0.18033,8.62029 -1.42731,8.79739 -1.21556,0.17264 -1.27134,0.005 -1.27134,-3.81401 v -3.99457 h -4.23778 -4.23779 v 3.95527 c 0,3.84226 -0.0404,3.95527 -1.4126,3.95527 h -1.41259 z m -163.79012,6.56424 c -2.15453,-2.01263 -2.89643,-3.88509 -2.89529,-7.30733 0.002,-5.2076 3.32851,-8.76839 8.19217,-8.76839 4.87557,0 8.19306,3.62254 8.19306,8.94644 0,5.5926 -3.19267,8.75551 -8.8396,8.75721 -2.4241,7.3e-4 -3.19619,-0.26955 -4.65034,-1.62793 z m 8.79686,-1.99501 c 1.44251,-1.2408 1.58537,-1.70344 1.58537,-5.13427 0,-3.43084 -0.14286,-3.89347 -1.58537,-5.13427 -2.37243,-2.04068 -5.50598,-1.88208 -7.40502,0.3748 -1.18572,1.40914 -1.46282,2.32718 -1.46282,4.84629 0,2.68157 0.22653,3.33434 1.65165,4.75947 2.12552,2.12552 4.94893,2.2382 7.21619,0.28798 z m 8.08331,-5.13427 v -8.75809 h 1.41259 c 1.34982,0 1.4126,0.15067 1.4126,3.39022 v 3.39023 h 4.23779 4.23778 v -3.39023 c 0,-3.24887 0.0595,-3.39022 1.42731,-3.39022 h 1.42732 l -0.15598,8.61683 c -0.15299,8.45176 -0.18033,8.62029 -1.42731,8.79739 -1.21556,0.17264 -1.27134,0.005 -1.27134,-3.81401 v -3.99456 h -4.23778 -4.23779 v 3.95526 c 0,3.84226 -0.0404,3.95527 -1.4126,3.95527 h -1.41259 z m 27.86096,-30.058969 c -1.93194,-0.37527 -4.52453,-3.419 -5.20119,-6.106273 -1.57685,-6.262233 2.22472,-11.580491 8.27791,-11.580491 2.74636,0 5.54957,1.799236 7.04263,4.520306 1.41004,2.569751 1.09412,7.668229 -0.62472,10.082108 -1.84823,2.59561 -5.65098,3.83094 -9.49463,3.08435 z m 6.52702,-3.84442 c 2.78305,-2.668745 1.92579,-9.429427 -1.38706,-10.938863 -4.66645,-2.126176 -8.91225,2.275576 -7.62673,7.90686 0.6327,2.771563 1.02356,3.301243 3.08681,4.183153 2.16692,0.92621 4.16541,0.53806 5.92698,-1.15115 z m 137.97175,1.6289 c -2.39202,-2.01275 -3.41329,-4.187448 -3.41329,-7.268278 0,-5.141235 2.53995,-8.401788 7.07467,-9.081812 3.13043,-0.469436 6.22778,0.936575 8.03265,3.646337 1.63761,2.458661 1.75648,7.377684 0.24631,10.193546 -2.15855,4.024847 -8.54475,5.367417 -11.94034,2.510207 z m 6.97607,-1.32101 c 2.72862,-1.03742 4.10393,-6.400337 2.52823,-9.85863 -0.99155,-2.176217 -4.01747,-3.38928 -6.45099,-2.586146 -2.42312,0.799702 -3.64141,2.973266 -3.64141,6.496683 0,3.140296 0.65343,4.498448 2.69814,5.608073 1.82688,0.99141 2.94689,1.06967 4.86603,0.34002 z m 141.38833,0.49087 c -2.24817,-1.768409 -3.29218,-4.246097 -3.25075,-7.714809 0.0644,-5.392309 3.30933,-8.809756 8.365,-8.809756 2.82249,0 4.84651,1.226608 6.8279,4.137868 2.58383,3.79643 1.00969,10.794427 -2.83891,12.620707 -2.85191,1.35333 -7.2283,1.24082 -9.10324,-0.23401 z m 7.5944,-1.661975 c 1.52094,-0.813981 2.79389,-3.509501 2.79389,-5.916151 0,-2.40665 -1.27295,-5.10217 -2.79389,-5.916151 -2.02806,-1.085384 -4.85699,-0.687338 -6.45219,0.907858 -1.29296,1.292964 -1.48964,1.957762 -1.48964,5.035115 0,3.265401 0.13732,3.661023 1.73846,5.008294 1.83029,1.54008 4.31306,1.8927 6.20337,0.881035 z M 152.39577,27.445272 c -4.16858,-1.814705 -5.85522,-9.065307 -3.13329,-13.469487 3.44815,-5.5792257 12.01252,-4.7475117 14.47453,1.40567 1.29006,3.224179 0.75606,7.719382 -1.19204,10.034567 -2.20584,2.621498 -6.71687,3.523442 -10.1492,2.02925 z m 7.68424,-3.458963 c 1.19531,-1.195692 1.40961,-1.928507 1.3932,-4.764257 -0.0157,-2.720093 -0.26853,-3.616414 -1.34229,-4.759385 -3.82988,-4.076717 -9.30885,-1.281783 -9.30885,4.748633 0,6.011058 5.29309,8.741099 9.25794,4.775009 z m 7.91053,-5.096827 V 10.09209 l 1.27134,0.180559 c 1.14187,0.162171 1.28847,0.540194 1.43956,3.712047 l 0.16822,3.531489 h 3.90134 3.90135 l 0.16822,-3.531489 c 0.15109,-3.171853 0.29769,-3.549876 1.43955,-3.712047 l 1.27134,-0.180559 v 8.797392 8.797392 h -1.41259 c -1.37224,0 -1.4126,-0.113008 -1.4126,-3.955268 v -3.955268 h -3.95527 -3.95527 v 3.955268 c 0,3.84226 -0.0404,3.955268 -1.41259,3.955268 h -1.4126 z m 127.20459,4.908429 c -2.15553,-2.013567 -2.89617,-3.88453 -2.89617,-7.316142 0,-5.128017 3.39669,-8.7595797 8.19306,-8.7595797 4.81995,0 8.19305,3.6289527 8.19305,8.8145117 0,5.892704 -2.88009,8.884148 -8.55708,8.887907 -2.73634,0.0018 -3.43681,-0.22918 -4.93286,-1.626697 z m 9.07936,-2.349257 c 1.61511,-1.615109 1.70297,-1.92453 1.46817,-5.170584 -0.20923,-2.892613 -0.50005,-3.66798 -1.79288,-4.780026 -2.224,-1.9129977 -5.06512,-1.7845667 -7.17398,0.324294 -1.436,1.436004 -1.65165,2.068757 -1.65165,4.84629 0,2.777533 0.21565,3.410286 1.65165,4.846289 2.30684,2.306835 5.15073,2.281705 7.49869,-0.06626 z m 7.80081,-4.780026 V 7.9105353 h 1.4126 c 1.34981,0 1.41259,0.150677 1.41259,3.3902297 v 3.390229 h 4.23779 4.23779 v -3.390229 c 0,-3.2395527 0.0628,-3.3902297 1.41259,-3.3902297 h 1.4126 v 8.7580927 8.758093 h -1.4126 c -1.37223,0 -1.41259,-0.113008 -1.41259,-3.955268 v -3.955268 h -4.23779 -4.23779 v 3.955268 c 0,3.84226 -0.0404,3.955268 -1.41259,3.955268 h -1.4126 z m 132.85497,4.86913 c -2.15553,-2.013567 -2.89617,-3.88453 -2.89617,-7.316142 0,-5.1354807 3.26788,-8.6373247 8.12882,-8.7108107 4.87523,-0.0737 8.25729,3.516619 8.25729,8.7657427 0,5.892704 -2.88009,8.884148 -8.55708,8.887907 -2.73634,0.0018 -3.43681,-0.22918 -4.93286,-1.626697 z m 9.07936,-2.349257 c 1.61511,-1.615109 1.70297,-1.92453 1.46817,-5.170584 -0.20923,-2.892613 -0.50005,-3.66798 -1.79288,-4.7800257 -2.22399,-1.912997 -5.06511,-1.784567 -7.17398,0.324294 -1.436,1.4360037 -1.65165,2.0687567 -1.65165,4.8462897 0,2.777533 0.21565,3.410286 1.65165,4.846289 2.30684,2.306835 5.15073,2.281705 7.49869,-0.06626 z m 7.80081,-4.780026 V 5.6503823 h 1.4126 c 1.34981,0 1.41259,0.150677 1.41259,3.390229 v 3.3902297 h 4.23779 4.23779 V 9.0406113 c 0,-3.239552 0.0628,-3.390229 1.41259,-3.390229 h 1.4126 v 8.7580927 8.758093 h -1.4126 c -1.37223,0 -1.41259,-0.113008 -1.41259,-3.955268 v -3.955268 h -4.23779 -4.23779 V 19.2113 c 0,3.84226 -0.0404,3.955268 -1.41259,3.955268 h -1.4126 z"
       id="path1" />
  </g>
</svg>
