<?xml version="1.0" encoding="UTF-8" standalone="no"?>
<svg
   version="1.0"
   width="429.25"
   height="59.5"
   viewBox="0 0 429.25 59.5"
   id="svg2"
   sodipodi:docname="stearicacid.svg"
   inkscape:version="1.4.2 (f4327f4, 2025-05-13)"
   xmlns:inkscape="http://www.inkscape.org/namespaces/inkscape"
   xmlns:sodipodi="http://sodipodi.sourceforge.net/DTD/sodipodi-0.dtd"
   xmlns="http://www.w3.org/2000/svg"
   xmlns:svg="http://www.w3.org/2000/svg">
  <defs
     id="defs2" />
  <sodipodi:namedview
     id="namedview2"
     pagecolor="#ffffff"
     bordercolor="#000000"
     borderopacity="0.25"
     inkscape:showpageshadow="2"
     inkscape:pageopacity="0.0"
     inkscape:pagecheckerboard="0"
     inkscape:deskcolor="#d1d1d1"
     showgrid="false"
     inkscape:zoom="3.2288876"
     inkscape:cx="214.625"
     inkscape:cy="29.886454"
     inkscape:window-width="1920"
     inkscape:window-height="1111"
     inkscape:window-x="-9"
     inkscape:window-y="-9"
     inkscape:window-maximized="1"
     inkscape:current-layer="svg2" />
  <g
     transform="translate(-135.85,-93.1)"
     font-family="Sans"
     font-size="12pt"
     stroke-linecap="round"
     id="g4">
    <path
       id="line8"
       style="stroke:black;stroke-width:1"
       d="M 474,133 L 496,146M 515,133 L 515,113M 519,133 L 519,113M 232,146 L 254,133M 298,133 L 320,146M 210,133 L 232,146M 276,146 L 298,133M 386,133 L 408,146M 320,146 L 342,133M 430,133 L 452,146M 496,146 L 517,133M 342,133 L 364,146M 517,133 L 533,142M 145,146 L 166,133M 188,146 L 210,133M 166,133 L 188,146M 408,146 L 430,133M 364,146 L 386,133M 452,146 L 474,133M 254,133 L 276,146" />
    <path
       d="m 544.53436,138.70312 q 0.71094,0.78125 1.08594,1.91407 0.38281,1.13281 0.38281,2.57031 0,1.4375 -0.39062,2.57812 -0.38281,1.13282 -1.07813,1.89063 -0.71875,0.78906 -1.70312,1.1875 -0.97656,0.39844 -2.23438,0.39844 -1.22656,0 -2.23437,-0.40625 -1,-0.40625 -1.70313,-1.17969 -0.70312,-0.77344 -1.08593,-1.89844 -0.375,-1.125 -0.375,-2.57031 0,-1.42188 0.375,-2.54688 0.375,-1.13281 1.09375,-1.9375 0.6875,-0.76562 1.70312,-1.17187 1.02344,-0.40625 2.22656,-0.40625 1.25,0 2.24219,0.41406 1,0.40625 1.69531,1.16406 z m -0.14062,4.48438 q 0,-2.26563 -1.01563,-3.49219 -1.01562,-1.23437 -2.77343,-1.23437 -1.77344,0 -2.78907,1.23437 -1.00781,1.22656 -1.00781,3.49219 0,2.28906 1.03125,3.50781 1.03125,1.21094 2.76563,1.21094 1.73437,0 2.75781,-1.21094 1.03125,-1.21875 1.03125,-3.50781 z M 557.35468,149 h -1.54688 v -5.69531 h -5.80469 V 149 h -1.54687 v -11.63281 h 1.54687 v 4.5625 h 5.80469 v -4.5625 h 1.54688 z"
       id="text1"
       aria-label="OH" />
    <path
       d="m 521.53436,100.70313 q 0.71094,0.78125 1.08594,1.91406 0.38281,1.13281 0.38281,2.57031 0,1.4375 -0.39062,2.57813 -0.38281,1.13281 -1.07813,1.89062 -0.71875,0.78906 -1.70312,1.1875 -0.97656,0.39844 -2.23438,0.39844 -1.22656,0 -2.23437,-0.40625 -1,-0.40625 -1.70313,-1.17969 -0.70312,-0.77344 -1.08593,-1.89844 -0.375,-1.125 -0.375,-2.57031 0,-1.42187 0.375,-2.54687 0.375,-1.13282 1.09375,-1.9375 0.6875,-0.76563 1.70312,-1.17188 1.02344,-0.40625 2.22656,-0.40625 1.25,0 2.24219,0.414062 1,0.40625 1.69531,1.164068 z m -0.14062,4.48437 q 0,-2.26562 -1.01563,-3.49219 -1.01562,-1.23437 -2.77343,-1.23437 -1.77344,0 -2.78907,1.23437 -1.00781,1.22657 -1.00781,3.49219 0,2.28906 1.03125,3.50781 1.03125,1.21094 2.76563,1.21094 1.73437,0 2.75781,-1.21094 1.03125,-1.21875 1.03125,-3.50781 z"
       id="text2"
       aria-label="O" />
  </g>
</svg>
