<?xml version="1.0" encoding="UTF-8" standalone="no"?>
<!-- Created with Inkscape (http://www.inkscape.org/) -->
<svg xmlns:rdf="http://www.w3.org/1999/02/22-rdf-syntax-ns#" xmlns="http://www.w3.org/2000/svg" xml:space="preserve" version="1.1" xmlns:cc="http://creativecommons.org/ns#" xmlns:dc="http://purl.org/dc/elements/1.1/" viewBox="0 0 537.7 344.9"><metadata><rdf:RDF><cc:Work rdf:about=""><dc:format>image/svg+xml</dc:format><dc:type rdf:resource="http://purl.org/dc/dcmitype/StillImage"/><dc:title/></cc:Work></rdf:RDF></metadata><g transform="matrix(1.25,0,0,-1.25,-3.188,347.4)"><path d="m184.1,90.86-1.7-1,0,39.74,0.9,0.5,0.8-0.5" fill-rule="nonzero" fill="#000"/><path d="m188.4,93.81,1.7,0,0,32.79-1.7,0,0-32.79z" fill-rule="nonzero" fill="#000"/><path d="m217.6,71.51,0-1.95-35.2,20.3,1.7,1" fill-rule="nonzero" fill="#000"/><path d="m251.1,90.86,0.9-0.5,0-0.95-34.4-19.85,0,1.95" fill-rule="nonzero" fill="#000"/><path d="m245.6,94.56,0.9-1.5-28.4-16.4-0.9,1.5" fill-rule="nonzero" fill="#000"/><path d="m251.1,129.6,1.7,1,0-39.74-0.8-0.5-0.9,0.5" fill-rule="nonzero" fill="#000"/><path d="m217.6,148.9,0,2,35.2-20.3-1.7-1" fill-rule="nonzero" fill="#000"/><path d="m217.2,142.3,0.9,1.5,28.4-16.4-0.9-1.5" fill-rule="nonzero" fill="#000"/><path d="m184.1,129.6-0.8,0.5,0,0.9,34.3,19.9,0-2" fill-rule="nonzero" fill="#000"/><g style="" transform="scale(1,-1)"><path fill-rule="nonzero" fill="#000" d="m142-140.5,0-17.2,2.4,0,9,13.5,0-13.5,2.2,0,0,17.2-2.4,0-9-13.5,0,13.5z"/></g><path d="m158.7,143.3,0.8,1.4,23.8-13.7,0-0.9-0.9-0.5" fill-rule="nonzero" fill="#000"/><g style="" transform="scale(1,-1)"><path fill-rule="nonzero" fill="#000" d="m279.5-61.06,0-17.18,2.4,0,9,13.49,0-13.49,2.2,0,0,17.18-2.4,0-9-13.5,0,13.5z"/></g><path d="m276.4,77.26-0.8-1.5-23.6,13.65,0,0.95,0.8,0.5" fill-rule="nonzero" fill="#000"/><g style="" transform="scale(1,-1)"><path fill-rule="nonzero" fill="#000" d="m313.9-80.91,0-17.18,2.4,0,9,13.49,0-13.49,2.2,0,0,17.18-2.4,0-9-13.5,0,13.5z"/></g><path d="m308.4,87.71,0.9-1.5-13.8-7.95-0.8,1.5" fill-rule="nonzero" fill="#000"/><path d="m311.4,82.51,0.9-1.45-13.8-7.95-0.9,1.45" fill-rule="nonzero" fill="#000"/><path d="m355.1,71.51,0-1-0.9-0.5-23.7,13.7,0.9,1.5" fill-rule="nonzero" fill="#000"/><g style="" transform="scale(1,-1)"><path fill-rule="nonzero" fill="#000" d="m107.6-120.6,0-17.2,2.4,0,9,13.5,0-13.5,2.2,0,0,17.2-2.4,0-9-13.5,0,13.5z"/></g><path d="m126.7,132.7-0.9,1.4,13.8,8,0.8-1.5" fill-rule="nonzero" fill="#000"/><path d="m123.7,137.8-0.9,1.5,13.8,7.9,0.8-1.4" fill-rule="nonzero" fill="#000"/><path d="m80.15,148.9,0,1,0.86,0.5,23.59-13.6-0.9-1.5" fill-rule="nonzero" fill="#000"/><path d="m355.9,31.31-1.7-0.95,0,39.65,0.9,0.5,0.8-0.5" fill-rule="nonzero" fill="#000"/><path d="m360.2,34.26,1.7,0,0,32.8-1.7,0,0-32.8z" fill-rule="nonzero" fill="#000"/><path d="m389.5,11.96,0-1.95-35.3,20.35,1.7,0.95" fill-rule="nonzero" fill="#000"/><path d="m423,31.31,1.7-0.95-35.2-20.35,0,1.95" fill-rule="nonzero" fill="#000"/><path d="m417.4,35.01,0.9-1.45-28.4-16.4-0.9,1.45" fill-rule="nonzero" fill="#000"/><path d="m423,70.01,1.7,1,0-40.65-1.7,0.95" fill-rule="nonzero" fill="#000"/><path d="m389.5,89.41,0,1.95,35.2-20.35-1.7-1" fill-rule="nonzero" fill="#000"/><path d="m389,82.76,0.9,1.45,28.4-16.4-0.9-1.45" fill-rule="nonzero" fill="#000"/><path d="m355.9,70.01-0.8,0.5,0,1,34.4,19.85,0-1.95" fill-rule="nonzero" fill="#000"/><path d="m79.31,189.1,0.84,0.5,0.86-0.5,0-38.7-0.86-0.5-0.84,0.5" fill-rule="nonzero" fill="#000"/><path d="m73.31,153.4,1.7,0,0,32.8-1.7,0,0-32.8z" fill-rule="nonzero" fill="#000"/><path d="m45.76,208.5,0,0.9,0.85,0.5,33.54-19.3,0-1-0.84-0.5" fill-rule="nonzero" fill="#000"/><path d="m12.26,189.1-1.7,1,34.35,19.8,0.85-0.5,0-0.9" fill-rule="nonzero" fill="#000"/><path d="m17.8,185.4-0.84,1.5,28.4,16.4,0.85-1.5" fill-rule="nonzero" fill="#000"/><path d="m12.26,150.4-1.7-1,0,40.7,1.7-1" fill-rule="nonzero" fill="#000"/><path d="m45.76,131,0-0.9-0.85-0.5-34.35,19.8,1.7,1" fill-rule="nonzero" fill="#000"/><path d="m46.21,137.7-0.85-1.5-28.4,16.4,0.84,1.5" fill-rule="nonzero" fill="#000"/><path d="m79.31,150.4,0.84-0.5,0-1-33.54-19.3-0.85,0.5,0,0.9" fill-rule="nonzero" fill="#000"/><path d="m113.7,209.9,1.7-1-34.39-19.8-0.86,0.5,0,1" fill-rule="nonzero" fill="#000"/><path d="m113.7,248.6,1.7,1,0-40.7-1.7,1" fill-rule="nonzero" fill="#000"/><path d="m107.7,212.9,1.7,0,0,32.8-1.7,0,0-32.8z" fill-rule="nonzero" fill="#000"/><path d="m80.15,268,0,1.9,35.25-20.3-1.7-1" fill-rule="nonzero" fill="#000"/><path d="m46.61,248.6-1.7,1,35.24,20.3,0-1.9" fill-rule="nonzero" fill="#000"/><path d="m52.16,244.9-0.85,1.5,28.39,16.4,0.86-1.5" fill-rule="nonzero" fill="#000"/><path d="m46.61,209.9-0.85-0.5-0.85,0.5,0,39.7,1.7-1" fill-rule="nonzero" fill="#000"/><g style="" fill-rule="nonzero" transform="scale(1,-1)" fill="#000"><path d="m37.62-89.28c0-2.85,0.77-5.08,2.3-6.69,1.53-1.62,3.5-2.42,5.93-2.42,1.58,0,3.01,0.37,4.29,1.13,1.27,0.76,2.24,1.82,2.91,3.17,0.67,1.36,1,2.89,1,4.61,0,1.75-0.35,3.3-1.05,4.68-0.71,1.37-1.7,2.42-2.99,3.12-1.29,0.71-2.68,1.06-4.18,1.06-1.61,0-3.06-0.39-4.33-1.17s-2.24-1.85-2.9-3.2c-0.65-1.35-0.98-2.78-0.98-4.29zm2.34,0c0,2.07,0.56,3.7,1.67,4.89,1.12,1.19,2.51,1.79,4.19,1.79,1.71,0,3.12-0.6,4.23-1.81,1.1-1.2,1.66-2.91,1.66-5.12,0-1.4-0.24-2.62-0.71-3.66-0.48-1.04-1.17-1.85-2.08-2.43-0.91-0.57-1.93-0.86-3.06-0.86-1.61,0-3,0.56-4.16,1.66-1.16,1.11-1.74,2.95-1.74,5.54z"/><path d="m57.05-80.91,0-17.18,2.28,0,0,7.05,8.93,0,0-7.05,2.27,0,0,17.18-2.27,0,0-8.1-8.93,0,0,8.1z"/></g><path d="m46.61,100.7-1.7,0,0,28.9,0.85,0.5,0.85-0.5" fill-rule="nonzero" fill="#000"/></g></svg>
