<?xml version="1.0" encoding="UTF-8"?>
<svg version="1.1" xmlns="http://www.w3.org/2000/svg" width="365" height="365">
<path d="M0 0 C120.45 0 240.9 0 365 0 C365 120.45 365 240.9 365 365 C244.55 365 124.1 365 0 365 C0 244.55 0 124.1 0 0 Z " fill="#FEFEFE" transform="translate(0,0)"/>
<path d="M0 0 C4.89472807 2.35672092 7.31615602 5.32812344 10 10 C11.64469981 14.93409943 11.26833769 20.02050966 11.3125 25.1875 C11.34150391 26.29931641 11.37050781 27.41113281 11.40039062 28.55664062 C11.46349517 36.75537741 10.35067837 42.04010739 4.9375 48.4375 C0.98369893 51.62604925 -3.40230874 51.39266359 -8.26953125 51.34765625 C-12.62256752 50.793407 -14.10353432 49.25852389 -17 46 C-21.61995724 39.78695405 -21.2058382 32.55522264 -21.25 25.125 C-21.270625 24.26519531 -21.29125 23.40539062 -21.3125 22.51953125 C-21.36083352 14.55658378 -19.73174156 7.9054307 -14 2 C-9.52632718 -0.72060617 -5.09203744 -0.6445617 0 0 Z " fill="#F8F8F8" transform="translate(132,248)"/>
<path d="M0 0 C3.0625 2 3.0625 2 5 4 C5.33 3.01 5.66 2.02 6 1 C7.98 1 9.96 1 12 1 C12.07446471 6.42599527 12.12875037 11.8516894 12.16479492 17.27807617 C12.17982988 19.12187892 12.20026333 20.96564622 12.22631836 22.80932617 C12.26293561 25.4680255 12.27977943 28.12624971 12.29296875 30.78515625 C12.30845261 31.60210464 12.32393646 32.41905304 12.33988953 33.26075745 C12.34143992 38.59959243 11.52265099 42.26791434 9 47 C3.5267643 52.19957392 -1.44035538 52.46303952 -8.74609375 52.4140625 C-12.91313643 51.88380257 -15.01868839 50.65411253 -17.8984375 47.66796875 C-19 46 -19 46 -19.4375 43.125 C-19.293125 42.42375 -19.14875 41.7225 -19 41 C-16.1875 40.6875 -16.1875 40.6875 -13 41 C-12.5875 41.825 -12.175 42.65 -11.75 43.5 C-10.27701296 46.21144189 -10.27701296 46.21144189 -7.73828125 46.47265625 C-3.69566188 46.60839383 -0.89070413 46.53018103 2.625 44.4375 C4.46392977 41.17757904 4.28299062 38.67887806 4 35 C3.45085937 35.32097656 2.90171875 35.64195312 2.3359375 35.97265625 C-1.95437531 37.85953295 -6.41741346 37.64421869 -11 37 C-15.77505402 34.76588838 -18.03166608 30.72175828 -20 26 C-20.43359375 22.34375 -20.43359375 22.34375 -20.4375 18.5 C-20.45683594 17.2315625 -20.47617187 15.963125 -20.49609375 14.65625 C-19.76432046 9.2630232 -17.39424666 6.22826492 -13.375 2.6875 C-8.99762993 -0.42273663 -5.28770679 -0.70198866 0 0 Z " fill="#0D0D0D" transform="translate(346,261)"/>
<path d="M0 0 C3.3 0 6.6 0 10 0 C10.25692627 0.78125244 10.51385254 1.56250488 10.77856445 2.36743164 C11.74336879 5.29615459 12.71097453 8.22393339 13.68041992 11.15112305 C14.30144867 13.02908137 14.91930805 14.90808684 15.53710938 16.78710938 C17.87223818 23.94709914 17.87223818 23.94709914 20.66796875 30.93359375 C22.10139448 34.23341543 23.04025843 37.53649586 24 41 C24.41886475 39.79351807 24.83772949 38.58703613 25.26928711 37.34399414 C26.81878223 32.88334174 28.37206343 28.42401569 29.92651367 23.96508789 C30.59975483 22.03218181 31.27195786 20.09891382 31.94311523 18.1652832 C32.90598558 15.39179023 33.87253779 12.61960483 34.83984375 9.84765625 C35.14091537 8.97786636 35.441987 8.10807648 35.75218201 7.21192932 C36.032397 6.41117477 36.312612 5.61042023 36.60131836 4.78540039 C36.97105019 3.72283775 36.97105019 3.72283775 37.34825134 2.6388092 C38 1 38 1 39 0 C41.97 0 44.94 0 48 0 C48 16.83 48 33.66 48 51 C45.69 51 43.38 51 41 51 C40.67 38.79 40.34 26.58 40 14 C36.09439346 25.09886179 36.09439346 25.09886179 32.19165039 36.19873047 C31.70208962 37.58825277 31.21243159 38.97774081 30.72265625 40.3671875 C30.46867065 41.09107666 30.21468506 41.81496582 29.95300293 42.56079102 C28.1140718 47.7718564 28.1140718 47.7718564 27 50 C25.02 50 23.04 50 21 50 C17.55840806 41.74650758 14.63750715 33.33537677 11.75 24.875 C10.1825 20.29625 8.615 15.7175 7 11 C6.67 23.87 6.34 36.74 6 50 C4.02 50 2.04 50 0 50 C0 33.5 0 17 0 0 Z " fill="#0C0C0C" transform="translate(270,248)"/>
<path d="M0 0 C4.00993716 1.01151568 6.11642334 2.78508209 8.53125 6.10546875 C12.07021638 12.28882945 13.09883665 17.96539156 12 25 C10.2248433 31.39651436 7.45980986 35.28268265 2 39 C-2.35049665 40.45016555 -6.45334185 40.51070107 -11 40 C-17.13709056 36.93145472 -20.82886354 32.45750029 -23 26 C-23.72530309 19.08607188 -23.5721776 13.03574836 -20 7 C-13.75594949 -0.02455682 -9.12562972 -0.89954327 0 0 Z " fill="#F9F9F9" transform="translate(187,60)"/>
<path d="M0 0 C5.35263811 2.02999711 8.45627707 4.9362673 11.20166016 10.01342773 C12.59611219 13.48335318 12.5793502 16.80360309 12.5 20.5 C12.51546875 21.22058594 12.5309375 21.94117188 12.546875 22.68359375 C12.50699407 28.19713269 11.14106372 31.46732577 8 36 C2.52344299 40.24712584 -2.09186012 41.70920067 -9 41 C-14.80558854 38.95096875 -18.39116134 35.24570587 -21.12109375 29.73828125 C-22.1891233 26.41077585 -22.30112452 23.55477089 -22.3125 20.0625 C-22.32925781 18.87785156 -22.34601562 17.69320312 -22.36328125 16.47265625 C-21.87553362 11.81020852 -20.46691899 8.55839724 -17.24609375 5.13671875 C-16.64925781 4.65847656 -16.05242187 4.18023437 -15.4375 3.6875 C-14.83808594 3.19636719 -14.23867187 2.70523438 -13.62109375 2.19921875 C-9.44870068 -0.88734673 -5.00452557 -0.63654053 0 0 Z " fill="#FAFAFA" transform="translate(85,161)"/>
<path d="M0 0 C4.63132471 2.72229438 7.55381966 5.54557359 9.2265625 10.77734375 C9.83211898 13.84725181 9.88542121 16.80178475 9.92578125 19.9296875 C9.9515625 21.12335938 9.97734375 22.31703125 10.00390625 23.546875 C9.56558788 28.23270714 8.15142491 31.45495562 4.95703125 34.91796875 C4.36921875 35.39621094 3.78140625 35.87445313 3.17578125 36.3671875 C2.2940625 37.10388672 2.2940625 37.10388672 1.39453125 37.85546875 C-2.48353008 40.5612979 -6.77620026 40.52159434 -11.32421875 40.0546875 C-17.34664569 37.92912505 -20.80342971 34.09626559 -23.63671875 28.4296875 C-25.22202639 20.64726816 -25.43487625 13.0002812 -21.32421875 6.0546875 C-15.55653121 -0.60033658 -8.5732816 -3.48694815 0 0 Z " fill="#FAFAFA" transform="translate(290.32421875,161.9453125)"/>
<path d="M0 0 C4.5587717 3.76594184 8.11872037 8.35616111 10 14 C10.75552393 23.5088083 11.02781558 32.0535564 5 40 C0.53539188 44.86123618 -3.81874826 47.66156896 -10.48828125 48.37109375 C-23.20186691 48.59186081 -23.20186691 48.59186081 -28.35546875 44.6171875 C-35.17917697 37.90693761 -38.0100228 31.70547326 -38.3125 22.0625 C-38.1176994 13.3722289 -35.74957016 8.05808181 -29.8359375 1.6953125 C-21.07847369 -6.39136685 -9.83765481 -5.21616585 0 0 Z M-28.9375 9.5625 C-31.97531988 16.5316162 -32.21917998 25.12401701 -29.9375 32.375 C-28.07368292 36.64661904 -24.84854523 39.47220552 -21 42 C-16.0014184 43.66619387 -11.6862891 43.62822535 -6.8125 41.8125 C-1.91732776 38.65783345 1.22716812 35.57851099 3 30 C3.6753002 22.58046793 3.98818913 15.46361686 0 9 C-3.30769046 5.18343408 -6.22964405 2.44759152 -11.296875 1.62890625 C-18.92695554 1.42235948 -24.24954376 3.36229981 -28.9375 9.5625 Z " fill="#0B0B0B" transform="translate(297,159)"/>
<path d="M0 0 C6.40198189 3.46448715 10.14700774 8.36877368 13 15.01171875 C15.04882269 23.20700952 14.49545496 31.28688768 11 39.01171875 C7.08002269 45.18382395 2.14086665 49.24308305 -5 51.01171875 C-12.38338074 51.9468171 -18.94003083 51.62109127 -25 47.01171875 C-30.42118373 42.02274784 -33.9245202 36.16448025 -34.50390625 28.7421875 C-34.77455188 19.58118231 -34.5756188 12.07548393 -28 5.01171875 C-20.32588315 -1.91765258 -9.74177647 -3.20920501 0 0 Z M-25.875 12.57421875 C-28.80460312 18.92169218 -29.24065081 26.68007506 -27.31640625 33.3984375 C-24.87990395 38.70617073 -21.26402143 42.37970803 -16 45.01171875 C-10.04298055 45.56885007 -5.04791601 45.53352061 0 42.01171875 C5.23042177 36.66242376 7.04400138 32.12428496 7.4375 24.76171875 C7.29155588 18.0756538 5.24441994 12.35105523 0.53125 7.5 C-8.47427575 1.2093754 -19.78396963 4.24981058 -25.875 12.57421875 Z " fill="#0C0C0C" transform="translate(192,54.98828125)"/>
<path d="M0 0 C6.05711292 6.57629402 7.96644936 13.49308547 7.84692383 22.32446289 C7.46038459 29.16952982 5.36671057 34.88483706 1.1875 40.375 C-5.47293401 46.19504027 -12.45075711 46.90374223 -21.06640625 46.71875 C-27.69321921 46.11065872 -31.39472264 43.16037788 -35.6875 38.3125 C-41.13355677 30.7841274 -41.80454164 22.52254674 -40.8125 13.375 C-38.57610154 6.00742565 -34.22025046 0.58545672 -27.8125 -3.625 C-17.55716447 -7.83701281 -9.19062831 -5.3101408 0 0 Z M-30.625 7.4375 C-35.06730282 13.40287807 -34.37629868 20.21237451 -33.8125 27.375 C-32.19066364 33.36189309 -28.79769113 36.87475942 -23.8125 40.375 C-18.8139184 42.04119387 -14.4987891 42.00322535 -9.625 40.1875 C-5.27678016 37.38531388 -1.66892004 34.27660028 0.1875 29.375 C0.99823222 21.80556748 1.77204782 13.66695401 -2.4375 7 C-5.81834015 2.9351294 -8.85194118 0.75232612 -14.203125 0.0703125 C-21.62687787 -0.30754319 -25.7366178 1.86863278 -30.625 7.4375 Z " fill="#0B0B0B" transform="translate(96.8125,160.625)"/>
<path d="M0 0 C2.31 0 4.62 0 7 0 C7 6.93 7 13.86 7 21 C15.58 21 24.16 21 33 21 C33 14.07 33 7.14 33 0 C35.31 0 37.62 0 40 0 C40 16.83 40 33.66 40 51 C37.69 51 35.38 51 33 51 C33 43.08 33 35.16 33 27 C24.42 27 15.84 27 7 27 C7 34.92 7 42.84 7 51 C4.69 51 2.38 51 0 51 C0 34.17 0 17.34 0 0 Z " fill="#0F0F0F" transform="translate(316,156)"/>
<path d="M0 0 C2.31 0 4.62 0 7 0 C7 6.93 7 13.86 7 21 C15.58 21 24.16 21 33 21 C33 14.07 33 7.14 33 0 C35.31 0 37.62 0 40 0 C40 16.83 40 33.66 40 51 C37.69 51 35.38 51 33 51 C33 43.08 33 35.16 33 27 C24.42 27 15.84 27 7 27 C7 34.92 7 42.84 7 51 C4.69 51 2.38 51 0 51 C0 34.17 0 17.34 0 0 Z " fill="#0F0F0F" transform="translate(7,156)"/>
<path d="M0 0 C3.04297017 2.08692029 4.64315418 4.14827389 6.17578125 7.4921875 C6.42578125 10.3671875 6.42578125 10.3671875 6.17578125 12.4921875 C3.86578125 12.4921875 1.55578125 12.4921875 -0.82421875 12.4921875 C-1.21609375 11.3784375 -1.60796875 10.2646875 -2.01171875 9.1171875 C-3.13016114 6.56590187 -3.58997669 5.65064536 -5.94921875 4.0546875 C-11.4766924 2.97322526 -16.88344635 2.42177314 -21.82421875 5.4921875 C-23.25482003 8.35339006 -23.21114456 10.33229335 -22.82421875 13.4921875 C-19.01422139 16.39298094 -15.05861211 17.34044951 -10.44921875 18.4296875 C-3.28288913 20.22560368 3.06676342 21.88460263 7.17578125 28.4921875 C8.06614605 33.35309805 7.6907122 37.42271553 5.55078125 41.8671875 C1.83661975 45.97231337 -1.51253697 48.6537326 -7.13671875 49.0234375 C-8.69921805 49.03395938 -10.26199029 49.02312272 -11.82421875 48.9921875 C-12.60539062 49.00765625 -13.3865625 49.023125 -14.19140625 49.0390625 C-19.53332897 49.00308996 -22.58147449 47.98923731 -26.82421875 44.4921875 C-30.66747649 40.22190112 -32.82421875 37.29121875 -32.82421875 31.4921875 C-30.51421875 31.4921875 -28.20421875 31.4921875 -25.82421875 31.4921875 C-25.20572917 33.21744792 -24.58723958 34.94270833 -23.96875 36.66796875 C-22.32936431 39.28091454 -20.60304137 40.19121114 -17.82421875 41.4921875 C-14.87497068 41.96301186 -14.87497068 41.96301186 -11.82421875 41.8671875 C-10.81359375 41.87492187 -9.80296875 41.88265625 -8.76171875 41.890625 C-5.13999429 41.39938046 -2.42935774 40.09732649 0.17578125 37.4921875 C0.67673148 34.61912522 0.67673148 34.61912522 0.17578125 31.4921875 C-3.61571836 27.61302316 -7.59761307 26.52788558 -12.76171875 25.4921875 C-19.61587045 24.10983758 -24.57343441 22.21682118 -29.19921875 16.6171875 C-31.0344157 13.08796261 -31.47601275 11.40295152 -30.82421875 7.4921875 C-28.33379082 2.70290301 -25.50699961 0.12625173 -20.82421875 -2.5078125 C-13.1812488 -4.81308076 -6.95766579 -3.83050341 0 0 Z " fill="#0E0E0E" transform="translate(185.82421875,158.5078125)"/>
<path d="M0 0 C8.58 0 17.16 0 26 0 C26 1.98 26 3.96 26 6 C19.07 6 12.14 6 5 6 C4.67 9.96 4.34 13.92 4 18 C5.32 17.34 6.64 16.68 8 16 C13.61780838 15.54695094 17.18132794 15.78755196 22 19 C25.99104377 22.94789735 28.12212269 26.52628 28.3125 32.1875 C28.2472315 37.19685729 26.86819813 40.9105046 24 45 C18.79192961 49.95401817 14.08230083 50.53202501 7.09375 50.47265625 C2.74875011 49.80883682 0.4670959 48.10882918 -2.57421875 45.0234375 C-4.74188222 41.94713702 -5 39.72987646 -5 36 C-3.02 36 -1.04 36 1 36 C1.9765625 37.79036458 2.953125 39.58072917 3.9296875 41.37109375 C4.91410024 43.16618315 4.91410024 43.16618315 7 44 C12.65741201 44.62559723 12.65741201 44.62559723 17.4375 42.125 C20.87444884 37.45074957 20.70863168 32.64404291 20 27 C18.24528484 24.07955512 18.24528484 24.07955512 15 23 C10.87624791 22.38363848 7.33070843 22.08751422 3.8125 24.5 C3.214375 24.995 2.61625 25.49 2 26 C-1.25 26.1875 -1.25 26.1875 -4 26 C-3.38524714 17.18147619 -1.68903214 8.66546925 0 0 Z " fill="#0E0E0E" transform="translate(214,249)"/>
<path d="M0 0 C4.89472807 2.35672092 7.31615602 5.32812344 10 10 C11.64469981 14.93409943 11.26833769 20.02050966 11.3125 25.1875 C11.34150391 26.29931641 11.37050781 27.41113281 11.40039062 28.55664062 C11.46349517 36.75537741 10.35067837 42.04010739 4.9375 48.4375 C0.98369893 51.62604925 -3.40230874 51.39266359 -8.26953125 51.34765625 C-12.62256752 50.793407 -14.10353432 49.25852389 -17 46 C-21.61995724 39.78695405 -21.2058382 32.55522264 -21.25 25.125 C-21.270625 24.26519531 -21.29125 23.40539062 -21.3125 22.51953125 C-21.36083352 14.55658378 -19.73174156 7.9054307 -14 2 C-9.52632718 -0.72060617 -5.09203744 -0.6445617 0 0 Z M-13 10 C-15.51022548 14.66309248 -15.29791141 19.21653866 -15.25 24.375 C-15.25773437 25.2 -15.26546875 26.025 -15.2734375 26.875 C-15.25331802 33.2126359 -14.52148875 38.35148255 -11.3125 43.9375 C-9.07640961 46.30301456 -9.07640961 46.30301456 -5.5625 46.5625 C-1.35567801 45.89826495 0.19859245 45.20160863 3 42 C4.93583932 35.8946606 5.33640167 30.2519654 5.3125 23.875 C5.32861328 23.00746094 5.34472656 22.13992188 5.36132812 21.24609375 C5.3659431 15.18201796 4.57395406 10.6627111 0.1875 6.125 C-5.72259299 3.08552361 -9.10169999 5.12712498 -13 10 Z " fill="#0B0B0B" transform="translate(132,248)"/>
<path d="M0 0 C10.56 0 21.12 0 32 0 C32 6.21636639 31.98457877 6.68909651 28.375 11.0625 C19.73966735 22.32664188 15.55187068 35.03316385 14 49 C13 50 13 50 9.9375 50.0625 C8.968125 50.041875 7.99875 50.02125 7 50 C5.78962329 34.87029109 13.73656825 18.57928968 23 7 C11.615 6.505 11.615 6.505 0 6 C0 4.02 0 2.04 0 0 Z " fill="#101010" transform="translate(170,249)"/>
<path d="M0 0 C3.4521272 2.92680349 5.81933266 5.02154451 6.23828125 9.609375 C6.39079605 16.06315932 6.4588731 20.14769693 2 25 C-1.21694364 26.60847182 -4.52137222 26.61309149 -8 26 C-10.69105198 23.82425584 -12.45532928 22.08934144 -14 19 C-14.14851844 17.06640414 -14.22130833 15.12657903 -14.25 13.1875 C-14.27578125 12.14980469 -14.3015625 11.11210937 -14.328125 10.04296875 C-13.86827352 5.7783937 -12.13376771 3.21475112 -9.25 0.125 C-5.79999675 -1.60000162 -3.65748243 -1.02666173 0 0 Z " fill="#F5F5F5" transform="translate(346,267)"/>
<path d="M0 0 C1.98 0 3.96 0 6 0 C6 12.21 6 24.42 6 37 C4.02 37 2.04 37 0 37 C0 24.79 0 12.58 0 0 Z " fill="#070707" transform="translate(202,170)"/>
<path d="M0 0 C9.57 0 19.14 0 29 0 C29 1.65 29 3.3 29 5 C19.43 5 9.86 5 0 5 C0 3.35 0 1.7 0 0 Z " fill="#2C2C2C" transform="translate(219,177)"/>
<path d="M0 0 C1.65 0 3.3 0 5 0 C5 9.24 5 18.48 5 28 C3.35 28 1.7 28 0 28 C0 18.76 0 9.52 0 0 Z " fill="#2B2B2B" transform="translate(188,108)"/>
<path d="M0 0 C1.65 0 3.3 0 5 0 C5 9.24 5 18.48 5 28 C3.35 28 1.7 28 0 28 C0 18.76 0 9.52 0 0 Z " fill="#2B2B2B" transform="translate(170,108)"/>
<path d="M0 0 C8.91 0 17.82 0 27 0 C27 1.65 27 3.3 27 5 C18.09 5 9.18 5 0 5 C0 3.35 0 1.7 0 0 Z " fill="#292929" transform="translate(115,177)"/>
<path d="M0 0 C1.94723595 2.92085393 2.55175352 4.59332678 3 8 C2.67 8.33 2.34 8.66 2 9 C1.84019563 11.44608998 1.74070553 13.86731058 1.68359375 16.31640625 C1.66281265 17.04746078 1.64203156 17.77851532 1.62062073 18.53172302 C1.55504976 20.87521656 1.49620568 23.21882539 1.4375 25.5625 C1.39432192 27.14779855 1.35070787 28.73308529 1.30664062 30.31835938 C1.1993608 34.21212037 1.0981151 38.10599772 1 42 C0.67 42 0.34 42 0 42 C0 28.14 0 14.28 0 0 Z " fill="#CFCFCF" transform="translate(276,256)"/>
<path d="M0 0 C1.98 0 3.96 0 6 0 C6 2.31 6 4.62 6 7 C4.02 7 2.04 7 0 7 C0 4.69 0 2.38 0 0 Z " fill="#0C0C0C" transform="translate(202,156)"/>
<path d="M0 0 C1.98 0 3.96 0 6 0 C6 1.98 6 3.96 6 6 C4.02 6 2.04 6 0 6 C0 4.02 0 2.04 0 0 Z " fill="#000000" transform="translate(154,292)"/>
</svg>
