<svg version="1.1" id="Layer_1" xmlns="http://www.w3.org/2000/svg" xmlns:xlink="http://www.w3.org/1999/xlink" x="0px" y="0px"
	 width="100%" viewBox="0 0 1577 784" enable-background="new 0 0 1577 784" xml:space="preserve">
<path fill="none" opacity="1.000000" stroke="#000000" stroke-linecap="round" stroke-linejoin="round" stroke-width="8.000000"
	d="
M1098.500000,9.500000 
	C1098.268921,14.006186 1094.729370,15.628966 1091.497803,17.496267 
	C1067.835083,31.169872 1044.159058,44.820293 1020.502136,58.503620 
	C996.325928,72.487244 972.248352,86.645485 947.898682,100.319519 
	C944.783264,102.069008 944.489075,103.774811 944.490173,106.500008 
	C944.504883,143.500000 944.500000,180.500000 944.500000,217.500000 
"/>
<path fill="none" opacity="1.000000" stroke="#000000" stroke-linecap="round" stroke-linejoin="round" stroke-width="11.000000"
	d="
M1219.500000,649.500000 
	C1220.115845,656.589600 1220.927612,663.625244 1224.495483,670.002502 
	C1230.229980,680.252747 1238.587891,686.336731 1250.486084,688.094543 
	C1273.980835,691.565552 1287.810303,676.877136 1291.354004,661.466431 
	C1294.789795,646.525879 1294.238647,631.641968 1283.922119,619.063843 
	C1275.618286,608.939514 1264.854492,605.219971 1251.477173,606.807312 
	C1233.103394,608.987549 1223.549072,621.554321 1220.085083,638.017883 
	C1219.339233,641.562073 1220.424194,645.367737 1219.500000,649.000000 
"/>
<path fill="none" opacity="1.000000" stroke="#000000" stroke-linecap="round" stroke-linejoin="round" stroke-width="11.000000"
	d="
M872.500000,730.000000 
	C871.838379,722.921509 870.613892,716.094177 867.617310,709.447144 
	C861.808960,696.563110 844.595154,688.174683 830.993835,690.463257 
	C814.202332,693.288696 804.019165,702.713928 800.452209,719.489807 
	C797.542358,733.174927 798.497314,746.135193 806.513977,757.990540 
	C820.840576,779.177307 854.812683,777.668579 867.498901,753.999390 
	C870.510986,748.379578 872.032715,742.390137 872.017273,735.999939 
	C872.012817,734.161621 871.656616,732.271790 872.500000,730.500000 
"/>
<path fill="none" opacity="1.000000" stroke="#000000" stroke-linecap="round" stroke-linejoin="round" stroke-width="8.000000"
	d="
M882.500000,315.500000 
	C881.938477,318.011322 880.200012,319.307953 878.028442,320.549713 
	C857.480652,332.299500 836.953491,344.087219 816.522827,356.039062 
	C808.332886,360.830200 799.498718,364.491638 791.925598,370.404663 
	C789.860168,372.017334 788.955261,373.439026 788.957703,376.000031 
	C789.012817,434.000000 789.004028,492.000000 788.989807,550.000000 
	C788.988953,553.420776 789.769775,555.145386 793.967896,555.730347 
	C800.148376,556.591431 805.068909,561.068359 810.456299,564.078247 
	C827.076172,573.363647 843.510071,582.982544 859.996826,592.505432 
	C873.512329,600.312012 887.011902,608.146301 900.496643,616.005737 
	C914.178406,623.979919 927.873779,631.932251 941.469971,640.050232 
	C944.661438,641.955811 947.034851,640.375854 949.484558,638.972961 
	C961.019348,632.367126 972.491028,625.651245 984.002014,619.003479 
	C1002.494446,608.323730 1021.008057,597.680542 1039.497314,586.995422 
	C1053.010986,579.185669 1066.701904,571.653870 1079.900024,563.341309 
	C1085.132324,560.045959 1090.964722,557.903076 1095.893555,554.352173 
	C1099.599121,551.682495 1102.345459,552.679993 1105.498169,554.503235 
	C1132.001465,569.830811 1158.500000,585.166687 1184.999878,600.500183 
	C1188.167114,602.332703 1191.615356,603.818909 1194.422729,606.095276 
	C1197.380371,608.493408 1200.210938,608.734436 1203.500000,607.500000 
"/>
<path fill="none" opacity="1.000000" stroke="#000000" stroke-linecap="round" stroke-linejoin="round" stroke-width="8.000000"
	d="
M788.500000,553.000000 
	C778.342590,556.957886 769.482422,563.304932 760.026245,568.547302 
	C745.925049,576.364807 731.979858,584.465088 718.005737,592.510010 
	C704.479187,600.297180 690.988098,608.146301 677.503357,616.005737 
	C663.821594,623.979919 650.126221,631.932251 636.530029,640.050232 
	C633.338501,641.955750 630.966736,640.373352 628.515930,638.972107 
	C619.309448,633.708374 610.176392,628.316589 600.997925,623.003540 
	C582.838257,612.491516 564.602783,602.108582 546.518005,591.469360 
	C528.484436,580.860352 509.847137,571.281982 492.448853,559.575989 
	C488.462372,556.893799 483.770386,555.281616 479.524170,552.955872 
	C477.071014,551.612183 475.313110,552.989990 473.516266,554.028137 
	C457.155212,563.480164 440.922211,573.157288 424.472931,582.452087 
	C410.308472,590.455811 396.602997,599.277527 381.984894,606.469299 
	C378.951813,607.961487 378.464691,610.822510 377.500000,613.500000 
"/>
<path fill="none" opacity="1.000000" stroke="#000000" stroke-linecap="round" stroke-linejoin="round" stroke-width="8.000000"
	d="
M166.000000,552.000000 
	C132.833328,571.166687 99.681076,590.358276 66.493843,609.489319 
	C50.196049,618.884277 33.848690,628.193787 17.485363,637.474182 
	C14.650878,639.081787 12.530691,640.998108 12.500000,644.500000 
"/>
<path fill="none" opacity="1.000000" stroke="#000000" stroke-linecap="round" stroke-linejoin="round" stroke-width="8.000000"
	d="
M1308.500000,608.000000 
	C1314.622803,610.654785 1318.674194,605.677551 1322.890137,603.304810 
	C1346.451904,590.044006 1369.666748,576.166931 1392.999878,562.499695 
	C1397.834229,559.668091 1402.703125,556.893127 1407.485107,553.975525 
	C1409.970825,552.458923 1412.298584,551.896606 1415.012573,553.478394 
	C1428.818726,561.525208 1442.674194,569.487061 1456.497925,577.503540 
	C1470.840576,585.820862 1485.141846,594.209656 1499.505981,602.489685 
	C1519.815796,614.197083 1540.103760,625.945862 1560.566040,637.381897 
	C1563.732788,639.151733 1564.479370,641.705200 1565.500000,644.500000 
"/>
<path fill="none" opacity="1.000000" stroke="#000000" stroke-linecap="round" stroke-linejoin="round" stroke-width="8.000000"
	d="
M1084.500000,445.500000 
	C1084.500000,480.666656 1084.515869,515.833313 1084.468018,550.999939 
	C1084.464355,553.649719 1084.782593,556.143494 1086.000000,558.500000 
"/>
<path fill="none" opacity="1.000000" stroke="#000000" stroke-linecap="round" stroke-linejoin="round" stroke-width="8.000000"
	d="
M1116.500000,445.500000 
	C1116.500000,480.666656 1116.484131,515.833313 1116.531982,550.999939 
	C1116.535645,553.649719 1116.217407,556.143494 1115.000000,558.500000 
"/>
<path fill="none" opacity="1.000000" stroke="#000000" stroke-linecap="round" stroke-linejoin="round" stroke-width="8.000000"
	d="
M493.500000,445.500000 
	C493.500000,480.666656 493.484039,515.833313 493.531982,550.999939 
	C493.535583,553.649719 493.217377,556.143494 492.000000,558.500000 
"/>
<path fill="none" opacity="1.000000" stroke="#000000" stroke-linecap="round" stroke-linejoin="round" stroke-width="8.000000"
	d="
M461.500000,445.500000 
	C461.500000,480.666656 461.515961,515.833313 461.468018,550.999939 
	C461.464417,553.649719 461.782623,556.143494 463.000000,558.500000 
"/>
<path fill="none" opacity="1.000000" stroke="#000000" stroke-linecap="round" stroke-linejoin="round" stroke-width="8.000000"
	d="
M792.000000,556.500000 
	C789.813904,561.298462 792.527405,565.777466 793.708801,569.940735 
	C802.198181,599.857422 809.718384,630.031311 818.021362,659.994080 
	C818.466736,661.601318 818.200195,663.939819 821.000000,663.750000 
"/>
<path fill="none" opacity="1.000000" stroke="#000000" stroke-linecap="round" stroke-linejoin="round" stroke-width="8.000000"
	d="
M683.500000,333.500000 
	C688.616882,330.540741 692.435181,334.556915 695.899719,336.664825 
	C719.009460,350.725525 742.821594,363.568604 766.004456,377.492584 
	C770.807068,380.377045 775.665771,383.168243 780.500427,385.999268 
	C782.738220,387.309662 785.041687,388.390625 787.750000,388.000000 
"/>
<path fill="none" opacity="1.000000" stroke="#000000" stroke-linecap="round" stroke-linejoin="round" stroke-width="8.000000"
	d="
M699.500000,305.500000 
	C703.090881,304.151794 705.728577,305.306335 709.108459,307.317719 
	C729.054932,319.187805 749.337769,330.492218 769.497986,342.003510 
	C778.509949,347.149231 787.520752,352.297729 796.484924,357.525848 
	C798.636047,358.780457 800.812317,360.123138 802.000000,362.500000 
"/>
<path fill="none" opacity="1.000000" stroke="#000000" stroke-linecap="round" stroke-linejoin="round" stroke-width="8.000000"
	d="
M165.750000,550.500000 
	C168.081039,554.422974 172.510178,555.303711 176.028229,557.453796 
	C199.103745,571.556702 222.982635,584.286682 246.092957,598.347229 
	C250.882111,601.260986 256.054199,603.777649 260.906067,606.658203 
	C263.638550,608.280640 265.860962,608.209351 268.500000,607.500000 
"/>
<path fill="none" opacity="1.000000" stroke="#000000" stroke-linecap="round" stroke-linejoin="round" stroke-width="11.000000"
	d="
M902.000000,729.000000 
	C920.000000,729.000000 938.000000,729.000000 956.000000,729.000000 
"/>
<path fill="none" opacity="1.000000" stroke="#000000" stroke-linecap="round" stroke-linejoin="round" stroke-width="13.000000"
	d="
M899.999939,693.000000 
	C900.166626,705.833313 900.834961,718.685303 900.359131,731.494751 
	C899.881958,744.339600 900.298645,757.168396 900.000000,770.000000 
"/>
<path fill="none" opacity="1.000000" stroke="#000000" stroke-linecap="round" stroke-linejoin="round" stroke-width="13.000000"
	d="
M958.000000,693.000000 
	C957.833374,705.833313 957.164978,718.685303 957.640808,731.494751 
	C958.118042,744.339600 957.701355,757.168396 958.000000,770.000000 
"/>
<path fill="none" opacity="1.000000" stroke="#000000" stroke-linecap="round" stroke-linejoin="round" stroke-width="11.000000"
	d="
M471.000000,337.000000 
	C460.153992,339.510193 451.072235,344.640076 446.041901,355.020294 
	C437.503967,372.638489 438.948212,399.329041 455.950806,412.065643 
	C474.753387,426.150635 507.615753,419.073639 513.032959,390.006134 
	C515.103394,378.896240 514.968689,368.062744 510.507202,357.496948 
	C505.882050,346.543610 494.331909,337.093201 480.999969,337.003174 
	C477.833466,336.981781 474.666656,337.000000 471.500000,337.000000 
"/>
<path fill="none" opacity="1.000000" stroke="#000000" stroke-linecap="round" stroke-linejoin="round" stroke-width="11.000000"
	d="
M1093.000000,337.000000 
	C1081.370728,339.940857 1071.906982,346.240723 1067.682983,357.568237 
	C1061.670654,373.691162 1061.196655,390.232361 1071.655029,404.889404 
	C1080.127686,416.763550 1092.617798,420.908264 1106.993530,418.462219 
	C1123.159790,415.711517 1132.687744,405.629669 1135.875000,389.974548 
	C1138.643921,376.374298 1137.967651,362.933929 1129.490723,351.006622 
	C1122.782837,341.568329 1113.576172,336.936798 1102.000000,336.997742 
	C1099.166748,337.012665 1096.333374,337.000000 1093.500000,337.000000 
"/>
<path fill="none" opacity="1.000000" stroke="#000000" stroke-linecap="round" stroke-linejoin="round" stroke-width="11.000000"
	d="
M938.000000,247.000000 
	C928.543396,249.255478 920.414734,253.566544 915.007874,262.005066 
	C911.589844,267.339630 909.881287,273.195251 908.882507,279.481323 
	C907.550537,287.864838 908.082397,295.910004 910.461426,304.011322 
	C914.686768,318.399750 928.917847,328.613373 943.490417,329.226990 
	C964.388977,330.106995 980.716797,313.413666 981.197937,292.504547 
	C981.429382,282.443695 980.933899,272.697571 975.863403,264.080383 
	C969.100098,252.586365 958.633057,246.657166 944.999817,246.992538 
	C942.834412,247.045807 940.666687,247.000000 938.500000,247.000000 
"/>
<path fill="none" opacity="1.000000" stroke="#000000" stroke-linecap="round" stroke-linejoin="round" stroke-width="11.000000"
	d="
M627.000000,247.000000 
	C618.299072,249.018936 610.641907,252.736359 604.975647,259.980957 
	C600.684387,265.467651 598.411377,271.808655 597.588684,278.510895 
	C595.922974,292.080933 596.437500,305.196869 605.935120,316.554260 
	C615.475769,327.963104 627.824158,331.103577 641.460938,328.309357 
	C656.802490,325.165802 665.896057,314.898590 668.991333,299.498260 
	C670.847595,290.263153 670.710876,281.021759 667.951538,272.014862 
	C663.297241,256.822693 649.312134,245.749451 632.998596,246.981369 
	C631.175659,247.119034 629.333313,247.000000 627.500000,247.000000 
"/>
<path fill="none" opacity="1.000000" stroke="#000000" stroke-linecap="round" stroke-linejoin="round" stroke-width="11.000000"
	d="
M319.000000,606.000000 
	C317.140900,607.832825 314.647552,606.822327 312.478149,607.420776 
	C299.064575,611.121338 290.502045,619.651245 287.055969,633.014404 
	C283.537354,646.658813 283.863831,660.078491 291.530731,672.481018 
	C297.028625,681.374695 304.942047,686.340027 315.471985,688.161926 
	C327.754456,690.286926 337.964844,687.133423 347.000885,679.000977 
	C352.831818,673.753235 356.092682,666.879883 357.349365,659.474426 
	C359.445496,647.122192 359.522980,634.751648 352.497192,623.501770 
	C346.578674,614.024780 338.467834,607.933594 327.001526,606.981628 
	C324.491150,606.773193 322.000000,606.333313 319.500000,606.000000 
"/>
</svg>