<?xml version="1.0" encoding="iso-8859-1"?>
<!-- Generator: Adobe Illustrator 19.1.0, SVG Export Plug-In . SVG Version: 6.00 Build 0)  -->
<svg version="1.1" id="&#x421;&#x43B;&#x43E;&#x439;_1"
	 xmlns="http://www.w3.org/2000/svg" xmlns:xlink="http://www.w3.org/1999/xlink" x="0px" y="0px" viewBox="0 0 355.096 260.476"
	 style="enable-background:new 0 0 355.096 260.476;" xml:space="preserve">
<g>
	<rect x="36.333" y="164.508" width="2.4" height="45.628"/>
	<rect x="95.606" y="198.729" transform="matrix(-0.4996 -0.8663 0.8663 -0.4996 -46.7474 416.0809)" width="2.4" height="45.628"/>
	<rect x="95.606" y="130.287" transform="matrix(-0.4996 0.8663 -0.8663 -0.4996 277.7943 145.7283)" width="2.4" height="45.628"/>
	<path d="M126.931,157.136l-48.683-28.107V74.122v-1.307l1.132-0.653l29.916-17.272l-1.199-2.079L82.232,67.743L45.728,46.668
		l-1.199,2.079l35.303,20.382l-3.383,1.953l-0.6,0.345v0.694v2v1.907L40.544,55.647l-1.199,2.079l36.503,21.075v50.228
		l-49.282,28.453l-0.601,0.345v0.694v2v53.6v2l-0.001,0.693l0.602,0.347l48.151,27.8l0,0l1.732,1l0.6,0.346l0.599-0.346l1.732-1l0,0
		l48.151-27.8l0.601-0.345v-0.694v-2v-54.907l33.246-19.195l-1.199-2.079L126.931,157.136z M125.731,214.122v1.307l-47.55,27.453
		l-1.133,0.654l-1.133-0.654l0,0l-47.55-27.453v-1.307v-53.6v-1.307l1.131-0.653v0l47.552-27.454l48.683,28.107V214.122z"/>
	<rect x="190.129" y="143.029" transform="matrix(-0.866 -0.5 0.5 -0.866 304.7145 370.107)" width="23.628" height="2.4"/>
	<polygon points="339.72,165.482 290.437,193.936 267.104,180.465 265.905,182.544 289.837,196.361 290.437,196.707 
		291.036,196.361 292.769,195.361 340.919,167.561 	"/>
	<path d="M40.153,43.097c0-8.945-5-14.57-12.988-14.57c-7.988,0-12.988,5.625-12.988,14.57s5,14.551,12.988,14.551
		C35.153,57.648,40.153,52.043,40.153,43.097z M17.79,43.097c0-6.953,3.613-11.328,9.375-11.328c5.762,0,9.375,4.375,9.375,11.328
		c0,6.934-3.613,11.309-9.375,11.309C21.403,54.406,17.79,50.031,17.79,43.097z"/>
	<path d="M126.931,57.648c7.988,0,12.988-5.605,12.988-14.551s-5-14.57-12.988-14.57c-7.988,0-12.988,5.625-12.988,14.57
		S118.943,57.648,126.931,57.648z M126.931,31.769c5.762,0,9.375,4.375,9.375,11.328c0,6.934-3.613,11.309-9.375,11.309
		c-5.762,0-9.375-4.375-9.375-11.309C117.556,36.144,121.17,31.769,126.931,31.769z"/>
	<rect x="146.244" y="25.993" width="16.8" height="2.658"/>
	<path d="M154.644,14.169c-7.264,0-13.153,5.889-13.153,13.153c0,7.264,5.889,13.153,13.153,13.153
		c7.264,0,13.153-5.889,13.153-13.153C167.797,20.058,161.908,14.169,154.644,14.169z M154.644,38.075
		c-5.938,0-10.753-4.814-10.753-10.753s4.814-10.753,10.753-10.753c5.938,0,10.753,4.814,10.753,10.753
		S160.583,38.075,154.644,38.075z"/>
	<path d="M179.109,127.915l-2.949-0.781c-3.828-0.996-5.391-2.266-5.391-4.395c0-2.754,2.539-4.648,6.192-4.648
		c3.672,0,6.113,1.855,6.426,4.883h3.516c-0.156-4.727-4.219-8.047-9.824-8.047c-5.859,0-9.961,3.281-9.961,7.969
		c0,3.828,2.305,6.113,7.5,7.441l3.613,0.938c3.789,0.977,5.449,2.441,5.449,4.824c0,2.773-2.774,4.785-6.582,4.785
		c-4.023,0-6.914-2.012-7.246-5.059h-3.535c0.332,4.98,4.473,8.223,10.449,8.223c6.484,0,10.547-3.223,10.547-8.379
		C187.312,131.626,184.949,129.38,179.109,127.915z"/>
	<polygon points="236.7,164.149 221.232,164.149 221.232,151.961 217.716,151.961 217.716,180.145 221.232,180.145 221.232,167.313 
		236.7,167.313 236.7,180.145 240.216,180.145 240.216,151.961 236.7,151.961 	"/>
	<path d="M260.15,162.508h-0.059c-1.406-2.305-3.887-3.613-6.855-3.613c-5.41,0-8.984,4.219-8.984,10.645
		c0,6.367,3.574,10.605,8.906,10.605c2.949,0,5.43-1.328,6.758-3.613h0.078v3.301c0,2.988-2.305,4.883-5.938,4.883
		c-2.773,0-4.863-1.094-5.371-2.852h-3.535c0.488,3.496,3.945,5.801,8.711,5.801c5.918,0,9.531-3.066,9.531-8.105V159.09h-3.242
		V162.508z M253.802,177.117c-3.672,0-6.074-2.988-6.074-7.578c0-4.609,2.402-7.617,6.074-7.617c3.691,0,6.191,3.086,6.191,7.617
		C259.993,174.051,257.493,177.117,253.802,177.117z"/>
	<polygon points="184.782,34.893 184.958,34.893 200.387,56.944 203.805,56.944 203.805,28.761 200.329,28.761 200.329,50.89 
		200.153,50.89 184.723,28.761 181.305,28.761 181.305,56.944 184.782,56.944 	"/>
	<path d="M221.805,53.292h0.078v3.652h3.223V42.491c0-4.141-3.203-6.797-8.184-6.797c-4.414,0-7.871,2.715-7.969,6.27h3.262
		c0.41-1.992,2.227-3.242,4.668-3.242c3.105,0,4.824,1.445,4.824,4.062v1.758l-5.898,0.352c-5.117,0.312-7.891,2.441-7.891,6.055
		c0,3.73,2.832,6.191,7.109,6.191C217.977,57.14,220.614,55.636,221.805,53.292z M215.751,54.19c-2.656,0-4.356-1.27-4.356-3.223
		c0-2.031,1.641-3.184,4.805-3.379l5.508-0.352v1.699C221.708,51.964,219.188,54.19,215.751,54.19z"/>
	<polygon points="237.59,36.074 240.247,36.074 240.247,28.56 247.253,28.56 247.253,25.902 240.247,25.902 240.247,18.569 
		237.59,18.569 237.59,25.902 230.584,25.902 230.584,28.56 237.59,28.56 	"/>
	<path d="M238.918,40.474c7.264,0,13.153-5.889,13.153-13.153c0-7.264-5.889-13.153-13.153-13.153s-13.153,5.889-13.153,13.153
		C225.766,34.586,231.654,40.474,238.918,40.474z M238.918,16.569c5.938,0,10.753,4.814,10.753,10.753
		c0,5.938-4.814,10.753-10.753,10.753s-10.753-4.814-10.753-10.753C228.166,21.383,232.98,16.569,238.918,16.569z"/>
</g>
</svg>
