<?xml version="1.0" encoding="UTF-8" standalone="no"?>
<!-- Created with Inkscape (http://www.inkscape.org/) -->

<svg
   version="1.1"
   id="svg1"
   width="271.28574"
   height="81.572052"
   viewBox="0 0 271.28574 81.572052"
   sodipodi:docname="tragacanth.svg"
   inkscape:version="1.4.2 (f4327f4, 2025-05-13)"
   xmlns:inkscape="http://www.inkscape.org/namespaces/inkscape"
   xmlns:sodipodi="http://sodipodi.sourceforge.net/DTD/sodipodi-0.dtd"
   xmlns="http://www.w3.org/2000/svg"
   xmlns:svg="http://www.w3.org/2000/svg">
  <defs
     id="defs1">
    <filter
       inkscape:label="Sharpen"
       inkscape:menu="Image Effects"
       inkscape:menu-tooltip="Sharpen edges and boundaries within the object, force=0.15"
       style="color-interpolation-filters:sRGB"
       id="filter1"
       x="0"
       y="0"
       width="1"
       height="1">
      <feConvolveMatrix
         order="3 3"
         kernelMatrix="0 -0.15 0 -0.15 1.6 -0.15 0 -0.15 0"
         divisor="1"
         in="SourceGraphic"
         targetX="1"
         targetY="1"
         id="feConvolveMatrix1" />
    </filter>
  </defs>
  <sodipodi:namedview
     id="namedview1"
     pagecolor="#ffffff"
     bordercolor="#000000"
     borderopacity="0.25"
     inkscape:showpageshadow="2"
     inkscape:pageopacity="0.0"
     inkscape:pagecheckerboard="0"
     inkscape:deskcolor="#d1d1d1"
     inkscape:zoom="3.34375"
     inkscape:cx="107.06542"
     inkscape:cy="45.607477"
     inkscape:window-width="1920"
     inkscape:window-height="1111"
     inkscape:window-x="-9"
     inkscape:window-y="-9"
     inkscape:window-maximized="1"
     inkscape:current-layer="g1" />
  <g
     inkscape:groupmode="layer"
     inkscape:label="Image"
     id="g1"
     transform="translate(0.87626167,-0.1390653)">
    <path
       style="fill:#000000"
       d="m 163.02774,81.195069 -0.384,-0.384 v -0.896 -0.896 l 0.32,-0.04 c 0.176,-0.022 0.5,-0.0675 0.72,-0.10119 0.22,-0.0336 0.652,0.0614 0.96,0.21126 l 0.56,0.27244 v 0.77749 0.77748 l -0.64,0.34252 -0.64,0.34251 v -0.46459 c 0,-0.25552 0.16991,-0.52123 0.37757,-0.59045 l 0.37757,-0.12586 -0.20753,-0.54081 -0.20752,-0.5408 h -0.52566 -0.52566 l 0.21012,1.12 c 0.22934,1.22249 0.18124,1.31213 -0.39489,0.736 z m 4.20599,-0.18998 -0.18463,-0.70602 h -0.44268 -0.44268 v 0.48 0.48 h -0.32 -0.32 v -1.12 c 0,-1.25508 0.13696,-1.34875 0.88227,-0.60345 l 0.51656,0.51656 0.26746,-0.72302 c 0.34652,-0.93673 0.52559,-0.72697 0.62375,0.73066 l 0.0792,1.17663 -0.23733,0.23733 -0.23733,0.23734 z m -80.685992,-0.13002 c -0.2112,-0.2112 -0.384,-0.69757 -0.384,-1.08082 v -0.69682 l 0.464627,-0.38561 0.464628,-0.3856 0.56876,0.10953 0.568759,0.10953 0.301663,0.85778 0.301662,0.85777 -0.414232,0.49912 c -0.493868,0.59507 -1.339881,0.6471 -1.871867,0.11512 z m 1.376,-1.056 v -0.63124 l -0.56,-0.10785 -0.56,-0.10784 v 0.84693 0.84692 l 0.56,-0.10784 0.56,-0.10785 z m 1.443733,1.44 c -0.153011,-0.34722 -0.211354,-2.56 -0.0675,-2.56 0.08427,0 0.327239,0.23799 0.539942,0.52888 l 0.386738,0.52889 0.36854,-0.22777 c 0.2027,-0.12528 0.36855,-0.44378 0.36855,-0.70778 v -0.48 l 0.28822,0.17814 0.28822,0.17813 -0.10716,1.15302 c -0.11009,1.18457 -0.46928,1.93605 -0.46928,0.98182 v -0.53333 h -0.61654 -0.616536 l -0.146343,0.56 c -0.08049,0.308 -0.178072,0.488 -0.216851,0.4 z m -12.563733,-2.90564 -0.56,-0.32617 v -0.59792 c 0,-0.32886 0.08741,-0.82571 0.194236,-1.1041 l 0.194237,-0.50617 h 0.810486 0.810486 l 0.4251,0.56 0.425101,0.56 0.01018,-0.56 0.01018,-0.56 h 0.32 0.32 v 0.64 0.64 h 0.349958 0.349959 l 0.167363,-0.64 c 0.09205,-0.352 0.294569,-0.64 0.450042,-0.64 h 0.282672 l -0.01018,1.36 -0.01018,1.36 -0.425101,-0.56 c -0.233805,-0.308 -0.589225,-0.56 -0.789823,-0.56 h -0.364716 v 0.48 0.48 h -0.32 -0.32 v -0.54034 -0.54034 l -0.652466,0.70034 c -0.732398,0.78613 -0.874807,0.81643 -1.667534,0.3547 z m 1.296919,-1.35003 -0.09692,-0.6542 -0.399832,-0.13168 -0.399831,-0.13168 -0.194405,0.50661 c -0.106923,0.27864 -0.112449,0.72019 -0.01228,0.98122 l 0.182123,0.47461 0.509033,-0.19534 0.509032,-0.19533 z m 84.883393,0.30909 c -0.16417,-0.43181 -0.39622,-1.30606 -0.51568,-1.9428 -0.11945,-0.63673 -0.3331,-1.22934 -0.47478,-1.3169 -0.29393,-0.18165 -1.61289,0.15613 -11.34985,2.9067 -0.88,0.24859 -1.90226,0.45369 -2.27169,0.45578 l -0.6717,0.004 -3.6483,-1.77871 c -5.54406,-2.70296 -5.79262,-2.83747 -5.87885,-3.18129 -0.0442,-0.176 -0.31704,-1.04 -0.60644,-1.92 -0.58157,-1.76842 -0.66789,-2.72 -0.24675,-2.72 h 0.27628 l 0.40745,1.92 c 0.2241,1.056 0.50236,1.92 0.61836,1.92 0.22229,0 4.59457,-5.53294 5.5268,-6.99394 l 0.54517,-0.85438 -0.80681,-3.17732 c -0.44374,-1.74752 -0.9484,-3.44189 -1.12147,-3.76526 l -0.31466,-0.58795 1.3363,-1.28392 c 1.56877,-1.50727 2.16038,-1.41031 0.68469,0.11222 l -1.00787,1.03986 0.19128,0.79534 c 0.37984,1.57936 1.72518,6.19899 1.83821,6.31202 0.11099,0.11098 2.26722,-0.42461 7.07,-1.75613 1.232,-0.34155 2.564,-0.72511 2.96,-0.85234 l 0.72,-0.23133 v 0.43064 0.43064 l -1.84,0.53723 c -1.012,0.29547 -3.40228,0.92474 -5.31174,1.39837 l -3.47174,0.86114 -0.64172,0.67256 c -0.35294,0.3699 -0.87577,1.03255 -1.16184,1.47255 -0.28607,0.44 -1.42302,1.91031 -2.52654,3.26736 -1.10353,1.35705 -2.00642,2.60052 -2.00642,2.76328 v 0.29592 l 2.48,0.70113 c 5.22863,1.47822 5.91374,1.64523 6.07745,1.48152 0.0928,-0.0928 -0.0155,-0.61332 -0.24057,-1.15676 l -0.40927,-0.98806 0.31012,-0.31012 0.31012,-0.31012 0.60741,1.90101 0.60741,1.901 0.5419,-0.29001 c 0.29804,-0.15951 1.66994,-0.56644 3.04866,-0.90428 1.37872,-0.33784 3.80277,-0.97263 5.38677,-1.41064 l 2.88,-0.79638 3.75873,-3.95242 c 2.0673,-2.17384 3.7593,-4.03075 3.76,-4.12647 7e-4,-0.0957 -1.25873,-0.58063 -2.79873,-1.07756 -1.54,-0.49693 -3.4169,-1.18044 -4.17088,-1.51891 l -1.37088,-0.6154 0.16999,-0.27505 0.16999,-0.27505 2.48089,0.94691 c 3.04354,1.16166 5.29527,1.88138 5.43839,1.73827 0.0892,-0.0892 -2.25275,-7.36604 -2.9703,-9.22917 l -0.21567,-0.56 0.43423,0.009 0.43424,0.009 1.73828,5.31287 1.73827,5.31288 -0.45827,0.76178 c -0.25206,0.41898 -1.73332,2.64289 -3.2917,4.94201 l -2.83342,4.18022 0.47839,1.8991 0.47838,1.8991 -0.28556,0.17648 -0.28557,0.17649 z m -76.70261,-1.5432 -0.597702,-1.96977 -4.581385,-2.19023 c -2.519761,-1.20462 -4.693237,-2.19022 -4.829947,-2.19022 h -0.248562 l 0.725352,2.71631 0.725353,2.71632 -0.280472,0.17334 -0.280471,0.17334 -0.329362,-1.20966 c -0.18115,-0.66531 -0.602817,-2.18989 -0.937039,-3.38796 l -0.607677,-2.1783 1.26632,-1.6617 c 0.696475,-0.91393 2.208604,-2.91289 3.360286,-4.44212 l 2.093966,-2.78043 2.121819,-0.63798 c 3.062872,-0.92093 8.412392,-2.28116 8.971362,-2.28116 h 0.47846 l -0.34736,0.34735 c -0.31606,0.31606 -2.957474,1.08321 -8.340643,2.42237 l -2,0.49754 v 0.33187 c 0,0.18252 0.298206,1.33318 0.66268,2.55702 0.364473,1.22383 0.590054,2.29778 0.50129,2.38654 -0.387013,0.38701 -0.78107,-0.33839 -1.16397,-2.14269 l -0.411427,-1.93874 -0.335401,-0.20729 -0.335401,-0.20729 -0.121203,0.36361 c -0.06666,0.19998 -1.263159,1.79287 -2.658885,3.53974 -1.395726,1.74688 -2.537683,3.3312 -2.537683,3.52072 v 0.34458 l 1.36,0.35921 c 1.683656,0.44471 3.937845,1.11459 6.58563,1.95706 l 2.025629,0.64452 3.094371,-0.85125 c 1.701903,-0.46818 3.454373,-0.9698 3.894373,-1.11469 0.44,-0.14489 1.772,-0.51045 2.96,-0.81235 l 2.16,-0.5489 v -0.45475 c 0,-0.25011 -0.216,-0.9717 -0.48,-1.60354 -0.264,-0.63184 -0.48,-1.27522 -0.48,-1.42972 0,-0.51077 0.65674,-0.29155 0.83607,0.27908 0.0968,0.308 0.31441,0.90422 0.48358,1.32494 l 0.30759,0.76495 3.013809,-3.16495 c 1.6576,-1.74072 3.01947,-3.31746 3.02638,-3.50386 l 0.0126,-0.33893 -1.52,-0.52382 c -0.836,-0.2881 -2.456,-0.84085 -3.599999,-1.22832 -1.144,-0.38748 -2.36404,-0.89925 -2.7112,-1.13726 l -0.63121,-0.43275 h 0.52148 c 0.43016,0 6.066419,1.90856 7.992489,2.70644 l 0.53156,0.2202 -0.30303,-1.22332 c -0.76375,-3.08321 -1.55159,-7.25849 -1.39851,-7.41157 0.38302,-0.38302 0.75702,0.57641 1.22725,3.14825 0.27352,1.496 0.66225,3.44686 0.86384,4.33524 l 0.36653,1.61525 -2.7945,4.14475 c -1.53697,2.27962 -3.02629,4.39104 -3.3096,4.69206 l -0.515099,0.5473 -4,1.13013 c -2.2,0.62157 -4.73266,1.34728 -5.62813,1.6127 -0.895467,0.26541 -1.786093,0.48257 -1.979167,0.48257 -0.193073,0 -0.702058,0.13345 -1.131076,0.29656 l -0.780035,0.29657 0.436655,1.68335 c 0.24016,0.92584 0.519504,1.94438 0.620766,2.26343 l 0.184112,0.58009 h -0.303862 -0.303862 z m 58.40441,-4.03022 c -0.0209,-0.132 -0.0209,-0.348 0,-0.48 0.0208,-0.132 -0.25011,-0.24 -0.60211,-0.24 h -0.64 v 0.32 c 0,0.176 -0.18,0.32008 -0.4,0.32019 l -0.4,1.9e-4 0.0334,-1.18465 0.0334,-1.18466 0.36661,-0.1222 0.36662,-0.12221 v 0.50667 0.50667 h 0.36472 c 0.2006,0 0.55602,-0.252 0.78983,-0.56 l 0.4251,-0.56 0.0102,1.52 c 0.006,0.836 -0.0618,1.52 -0.14982,1.52 -0.088,0 -0.17705,-0.108 -0.19789,-0.24 z m 1.07415,-0.13174 c -0.93068,-0.93068 -0.2378,-2.50826 1.10164,-2.50826 h 0.72991 l 0.21321,0.84952 0.21322,0.84953 -0.3198,0.51047 c -0.17589,0.28076 -0.59478,0.55199 -0.93086,0.60274 l -0.61105,0.0923 z m 1.52374,-1.06826 v -0.8 h -0.46111 c -0.25362,0 -0.55438,0.15089 -0.66836,0.33532 l -0.20724,0.33532 0.17831,0.46468 0.17831,0.46468 h 0.49005 0.49004 z m -11.63777,-3.20869 -0.57,-0.4168 0.10388,-0.87498 0.10389,-0.87498 0.56,-0.35064 0.56,-0.35064 0.56,0.35064 0.56,0.35064 0.0967,0.80001 0.0966,0.80001 -0.75053,0.49177 -0.75053,0.49176 z m 1.2903,-0.97282 0.19245,-0.50151 -0.34893,-0.34893 -0.34893,-0.34893 -0.47454,0.39383 -0.47454,0.39384 0.17522,0.4566 0.17521,0.45661 h 0.45581 0.45581 z m -4.45253,0.95688 c -0.132,-0.13312 -0.24,-0.73404 -0.24,-1.33537 v -1.09334 l 0.4,0.14667 0.4,0.14667 -0.08,0.36 -0.08,0.36 h 0.48 0.48 v -0.48 -0.48 h 0.416 0.416 v 1.12 1.12 h -0.43489 -0.43488 l 0.19777,-0.32 0.19777,-0.32 h -0.63542 -0.63542 l -0.10347,0.5087 -0.10346,0.50871 z m -39.599999,-4.61537 v -1.28 h 0.32 0.32 v 0.48 0.48 h 0.48 0.48 v -0.48 -0.48 h 0.32 0.32 v 1.28 1.28 h -0.32 -0.32 v -0.48 -0.48 h -0.48 -0.48 v 0.48 0.48 h -0.32 -0.32 z m 2.87353,0.62791 -0.34899,-0.65209 0.1941,-0.61154 0.1941,-0.61155 0.57855,-0.18362 c 0.3182,-0.101 0.80184,-0.0979 1.07475,0.007 l 0.4962,0.19041 0.20266,0.80745 0.20266,0.80746 -0.37297,0.44939 -0.37296,0.44939 h -0.74956 -0.74955 z m 1.56755,-1.12397 -0.49606,-0.49606 -0.41169,0.49606 -0.4117,0.49606 0.4117,0.49606 0.41169,0.49606 0.49606,-0.49606 0.49606,-0.49606 z m 60.118919,-0.80528 -0.56,-0.33047 v -0.7201 c 0,-0.92102 0.57081,-1.48809 1.4979,-1.48809 h 0.72991 l 0.21321,0.84952 0.21322,0.84953 -0.32142,0.51047 c -0.40182,0.63818 -1.04637,0.75784 -1.77282,0.32914 z m 1.34837,-0.76465 0.38673,-0.46598 -0.20644,-0.33402 c -0.26642,-0.43108 -1.03137,-0.43031 -1.29813,0.001 l -0.20724,0.33533 0.17831,0.46467 c 0.22731,0.59236 0.65447,0.59188 1.14677,-10e-4 z m -64.564369,-3.43801 c -0.2112,-0.2112 -0.384,-0.69289 -0.384,-1.07041 v -0.6864 l 0.64,-0.57919 0.64,-0.5792 0.64,0.5792 0.64,0.57919 v 0.6864 c 0,0.8124 -0.56502,1.45441 -1.28,1.45441 -0.2816,0 -0.6848,-0.1728 -0.896,-0.384 z m 1.48233,-1.01367 0.11369,-0.59031 -0.3523,-0.3523 -0.35229,-0.3523 -0.48948,0.48948 -0.48947,0.48947 0.21202,0.55252 0.21203,0.55252 0.51606,-0.0994 0.51606,-0.0994 z m 49.997129,-2.73888 c -0.79306,-0.79306 -0.84001,-1.40119 -0.1606,-2.0806 0.64297,-0.64297 1.23666,-0.63762 1.89131,0.017 l 0.51989,0.51989 -0.097,0.64344 -0.097,0.64344 -0.69654,0.46013 -0.69655,0.46013 z m 1.26659,-1.45134 -0.41496,-0.50001 -0.43082,0.35755 -0.43082,0.35755 0.34451,0.64373 0.34452,0.64373 0.50127,-0.50127 0.50127,-0.50127 z m 1.26995,0.46789 v -1.28 h 0.32 0.32 v 0.48 0.48 h 0.33004 c 0.18153,0 0.41293,-0.216 0.51424,-0.48 0.10131,-0.264 0.31279,-0.48 0.46996,-0.48 h 0.28576 v 1.28 1.28 h -0.28268 c -0.15547,0 -0.35799,-0.288 -0.45004,-0.64 l -0.16736,-0.64 h -0.34996 -0.34996 v 0.64 0.64 h -0.32 -0.32 z m 15.424,0.256 c -0.2112,-0.2112 -0.384,-0.6864 -0.384,-1.056 0,-0.3696 0.1728,-0.8448 0.384,-1.056 l 0.384,-0.384 h 0.74392 0.74392 l 0.32118,0.84475 0.32117,0.84475 -0.53869,0.59525 -0.53869,0.59525 h -0.52641 c -0.28952,0 -0.6992,-0.1728 -0.9104,-0.384 z m 1.47826,-1.16107 0.10225,-0.69493 h -0.66225 -0.66226 v 0.58666 c 0,1.21652 1.04555,1.30914 1.22226,0.10827 z m -86.006202,-0.83558 -0.382305,-0.46065 0.103123,-0.89935 0.103122,-0.89935 0.737613,-0.10457 0.737614,-0.10456 0.462386,0.38374 0.462387,0.38375 v 0.57796 c 0,0.67289 -0.818772,1.58368 -1.423675,1.58368 -0.229878,0 -0.589998,-0.2073 -0.800265,-0.46065 z m 1.390742,-0.68823 c 0.242877,-0.63293 -0.01987,-1.09112 -0.625687,-1.09112 h -0.461115 v 0.58666 c 0,1.03643 0.749216,1.38419 1.086802,0.50446 z m 1.153198,-0.27224 v -1.10111 l 0.32,-0.19777 0.32,-0.19778 v 0.49889 0.49889 h 0.364722 c 0.200598,0 0.556018,-0.252 0.789823,-0.56 l 0.425101,-0.56 0.01018,1.36 0.01018,1.36 h -0.320006 -0.32 v -0.48 -0.48 h -0.48 -0.48 v 0.48 0.48 h -0.32 -0.32 z m 20.864002,0.39712 -0.384,-0.384 v -0.88475 -0.88474 l 0.66662,-0.35676 0.66662,-0.35676 0.61338,0.5551 0.61338,0.5551 v 0.54081 0.5408 l -0.5852,0.5296 c -0.69515,0.6291 -1.07273,0.66366 -1.5908,0.1456 z m 1.536,-1.19712 c 0,-0.34161 -0.15782,-0.71865 -0.35071,-0.83786 l -0.35071,-0.21675 -0.48715,0.48715 -0.48716,0.48716 0.21675,0.35071 c 0.11921,0.19289 0.49625,0.35071 0.83787,0.35071 h 0.62111 z m 59.72452,0.0611 c -0.0872,-0.308 -0.5521,-1.97636 -1.03304,-3.70746 l -0.87443,-3.14747 -0.66852,0.15078 c -0.67879,0.1531 -10.43053,2.83214 -12.18853,3.34849 l -0.96,0.28197 -2.88,-1.38593 c -1.584,-0.76226 -3.57405,-1.75864 -4.42232,-2.21416 -0.84828,-0.45553 -1.59693,-0.77363 -1.66366,-0.7069 -0.1888,0.1888 0.54102,2.93128 0.90327,3.39425 l 0.32359,0.41356 -0.33432,0.33432 -0.33432,0.33432 -0.17874,-0.28919 c -0.0983,-0.15906 -0.47091,-1.34358 -0.82802,-2.63226 l -0.6493,-2.34306 2.02023,-2.59563 c 1.11113,-1.42759 2.68163,-3.46911 3.48999,-4.53669 l 1.46975,-1.94107 1.38192,-0.34858 c 0.76006,-0.19172 3.24755,-0.86062 5.52775,-1.48644 2.28021,-0.62582 4.20263,-1.08106 4.27205,-1.01164 0.0694,0.0694 0.0373,0.27011 -0.0714,0.44598 l -0.19762,0.31976 -1.83442,0.37621 c -1.00893,0.20691 -1.97842,0.48452 -2.15442,0.61689 -0.176,0.13238 -1.64372,0.56284 -3.26159,0.95659 -3.24904,0.79072 -3.32961,0.83793 -4.93785,2.89337 -2.89976,3.7061 -4.44056,5.75557 -4.44056,5.90653 0,0.2791 1.93513,0.9928 5.21402,1.92299 l 3.13403,0.8891 0.19157,-0.19158 0.19158,-0.19158 -0.31938,-0.40773 c -0.17566,-0.22425 -0.3987,-0.73173 -0.49564,-1.12773 l -0.17626,-0.72 h 0.39386 0.39386 l 0.47912,1.52 0.47913,1.52 0.93705,-0.0945 c 0.51538,-0.052 3.24106,-0.75112 6.05706,-1.55361 l 5.12,-1.45907 3.55073,-3.72639 c 1.9529,-2.04952 3.6089,-3.86169 3.68,-4.02706 l 0.12927,-0.30065 -2.56,-0.9219 c -1.408,-0.50704 -3.208,-1.14861 -4,-1.4257 -1.71259,-0.59916 -1.71731,-0.60238 -1.4704,-1.0019 l 0.19368,-0.31338 2.15836,0.80825 c 1.1871,0.44454 3.06221,1.1581 4.16692,1.58569 l 2.00856,0.77744 0.31144,-0.19248 c 0.17129,-0.10586 0.31144,-0.31206 0.31144,-0.45821 0,-0.14615 1.57942,-3.52165 3.50982,-7.50111 l 3.50982,-7.23538 h 0.33017 c 0.1816,0 0.33018,0.0687 0.33018,0.15256 0,0.0839 -1.7464,3.71992 -3.88089,8.08 l -3.88089,7.92744 -1.04611,1.44 c -0.57536,0.792 -1.99696,2.87307 -3.15911,4.62459 l -2.113,3.1846 v 0.54037 c 0,0.2972 0.36,1.92594 0.8,3.6194 0.9155,3.52356 0.8959,3.39104 0.50156,3.39104 -0.16414,0 -0.36981,-0.252 -0.45704,-0.56 z m -24.82764,-0.21966 -0.40835,-0.49203 0.20672,-0.82361 0.20671,-0.82361 1.02902,0.0994 1.02902,0.0995 v 1.12 1.12 l -0.82739,0.0962 -0.82739,0.0962 z m 1.84291,-0.90401 0.10714,-0.55633 h -0.82347 -0.82346 v 0.42667 c 0,0.59361 0.36018,0.89252 0.94072,0.78072 l 0.49193,-0.0947 z m 1.02021,0.0837 v -1.28 h 0.32 0.32 v 0.48 0.48 h 0.48 0.48 v -0.48 -0.48 h 0.32 0.32 v 1.28 1.28 h -0.32 -0.32 v -0.64 -0.64 h -0.48 -0.48 v 0.64 0.64 h -0.32 -0.32 z m -63.026452,-2.5145 c -0.359452,-1.20697 -0.65355,-2.41262 -0.65355,-2.67921 0,-0.26659 0.684,-1.35237 1.52,-2.41284 0.836,-1.06047 2.367643,-3.02256 3.403652,-4.36021 l 1.883652,-2.43207 1.316348,-0.34006 c 0.723991,-0.18703 1.892348,-0.53812 2.596348,-0.7802 0.704,-0.24208 2.010913,-0.60167 2.904253,-0.79907 0.89334,-0.19741 2.18897,-0.55306 2.87917,-0.79034 0.69019,-0.23728 1.36328,-0.36443 1.49574,-0.28257 0.52585,0.32499 0.18893,0.71097 -0.79916,0.91555 -0.572,0.11843 -3.02725,0.77787 -5.456119,1.46542 -2.428864,0.68756 -4.46907,1.25011 -4.533792,1.25011 -0.157241,0 -6.061935,7.62847 -6.191686,7.99925 l -0.101595,0.29031 1.861595,0.514 c 1.023877,0.2827 2.935529,0.85961 4.248116,1.28203 1.312588,0.42242 2.424685,0.72987 2.471327,0.68322 0.04664,-0.0466 -0.06579,-0.63021 -0.249849,-1.29681 -0.184059,-0.66661 -0.261737,-1.28493 -0.172617,-1.37405 0.376486,-0.37649 0.785102,0.30976 0.9873,1.65811 l 0.216532,1.44394 0.540392,-0.0114 c 0.297216,-0.006 1.332396,-0.2191 2.300396,-0.47295 3.36377,-0.88213 8.48322,-2.32845 9.023299,-2.54922 0.56092,-0.22929 6.09847,-5.75408 7.26757,-7.25081 l 0.65954,-0.84438 -4.15521,-1.54965 -4.155199,-1.54964 v -0.44022 -0.44021 l 0.559999,0.23911 c 0.308,0.13151 1.496,0.58223 2.64,1.0016 1.144,0.41938 2.368,0.89131 2.72,1.04875 0.91219,0.408 2.80954,0.99694 2.90095,0.90046 0.0425,-0.0448 0.32041,-1.59344 0.61771,-3.44144 0.29729,-1.848 0.80149,-4.728 1.12044,-6.4 0.31895,-1.672 0.67216,-3.58 0.78491,-4.24 l 0.20499,-1.2 h 0.3055 0.3055 v 1.10494 c 0,0.60772 -0.14319,1.43572 -0.31819,1.84 -0.17501,0.40428 -0.6071,2.53506 -0.96022,4.73506 -0.35311,2.2 -0.83322,5.008 -1.0669,6.24 l -0.42488,2.23999 -1.45578,2.08 c -0.80068,1.144 -2.32534,3.35126 -3.38813,4.90502 l -1.93234,2.82501 0.45322,1.08471 c 0.56116,1.34304 0.56123,1.42526 10e-4,1.42526 h -0.45188 l -0.21597,-1.27832 c -0.11878,-0.70308 -0.31239,-1.33791 -0.43023,-1.41074 -0.11785,-0.0728 -1.50932,0.22546 -3.092159,0.66287 -1.58284,0.43741 -3.66989,1.00686 -4.63789,1.26545 -0.968,0.25859 -2.71152,0.75718 -3.87447,1.10799 l -2.114478,0.63784 -4.403948,-2.10745 c -2.422171,-1.15911 -4.450563,-2.06085 -4.507537,-2.00387 -0.10052,0.10052 0.350702,2.39357 0.693885,3.52623 l 0.169673,0.56 h -0.328013 -0.328014 z m 130.561072,1.09211 -0.38375,-0.46239 0.10457,-0.70493 0.10456,-0.70493 0.56,-0.35104 0.56,-0.35105 0.56,0.35105 0.56,0.35104 0.11039,0.74939 0.11039,0.74939 -0.57155,0.41793 c -0.74058,0.54152 -1.23902,0.5286 -1.71461,-0.0445 z m 1.58538,-0.9776 v -0.8 h -0.44082 c -0.24245,0 -0.59902,0.19062 -0.79238,0.42361 l -0.35157,0.42361 0.37638,0.37639 c 0.20702,0.20701 0.56359,0.37639 0.79239,0.37639 h 0.416 z m 1.28,0 v -1.12 h 0.32 c 0.176,0 0.32,0.144 0.32,0.32 v 0.32 h 0.48 0.48 v -0.32 c 0,-0.176 0.144,-0.32 0.32,-0.32 h 0.32 v 1.12 1.12 h -0.28576 c -0.15717,0 -0.36865,-0.216 -0.46996,-0.48 -0.10131,-0.264 -0.33271,-0.48 -0.51424,-0.48 h -0.33004 v 0.48 0.48 h -0.32 -0.32 z m -200.411503,0.60183 c -0.125674,-0.12568 -0.228499,-0.54687 -0.228499,-0.93599 v -0.70748 l 0.462387,-0.38375 0.462386,-0.38374 0.737614,0.10456 0.737613,0.10457 v 1.12 1.12 l -0.971501,0.0952 c -0.534325,0.0523 -1.074325,-0.008 -1.2,-0.13334 z m 1.633757,-1.0269 0.102257,-0.69493 H 13.08488 c -0.265854,0 -0.57663,0.15089 -0.690613,0.33532 l -0.207241,0.33532 0.188524,0.49129 0.188525,0.49129 0.399831,-0.13168 0.399832,-0.13167 z m 1.274742,0.0856 -0.133021,-1.13943 0.238344,-0.1473 c 0.131089,-0.081 0.391195,0.10772 0.578012,0.41943 l 0.339667,0.56673 0.335901,-0.56 c 0.184745,-0.308 0.472745,-0.56 0.64,-0.56 h 0.304099 v 1.28 1.28 h -0.48 -0.48 v -0.64 -0.64 h -0.32 -0.32 v 0.64 0.64 h -0.28499 -0.28499 z m 218.063004,0.9275 -0.4,-0.16141 v -0.89415 -0.89415 l 0.46463,-0.38561 0.46462,-0.3856 0.56876,0.10953 0.56876,0.10953 0.30167,0.85778 0.30166,0.85777 -0.41423,0.49912 -0.41423,0.49912 -0.52082,-0.0253 c -0.28645,-0.0139 -0.70082,-0.0979 -0.92082,-0.18667 z m 1.4138,-1.52326 c -0.24514,-0.63884 -0.81731,-0.65226 -1.05808,-0.0248 l -0.18419,0.48 0.20599,0.53681 0.206,0.53682 0.512,-0.512 0.512,-0.512 z m 1.0662,0.47407 v -1.26111 l 0.32,-0.19777 0.32,-0.19778 v 0.65889 0.65889 h 0.64 0.64 v -0.48 c 0,-0.264 0.12436,-0.48 0.27636,-0.48 h 0.27637 v 1.28 1.28 h -0.23904 c -0.13148,0 -0.31452,-0.2886 -0.40675,-0.64132 l -0.16771,-0.64133 -0.50962,0.19556 -0.50961,0.19556 v 0.44576 c 0,0.24517 -0.144,0.44577 -0.32,0.44577 h -0.32 z m -199.936002,0.55712 c -0.911894,-0.9119 -0.218001,-2.496 1.093333,-2.496 h 0.709334 l 0.321403,0.88 0.321404,0.88 0.02526,-0.88 0.02526,-0.88 h 0.32 0.32 v 0.48 0.48 h 0.64 0.64 v -0.49889 -0.49889 l 0.240059,0.14837 c 0.290843,0.17975 0.268108,2.04791 -0.02853,2.34455 l -0.211523,0.21152 v -0.53333 -0.53333 h -0.64 -0.64 v 0.48 0.48 h -0.32 c -0.176,0 -0.32,-0.16632 -0.32,-0.3696 v -0.3696 l -0.585197,0.5296 c -0.691024,0.62537 -1.378637,0.67776 -1.910803,0.1456 z m 1.478256,-1.16107 0.102257,-0.69493 h -0.662257 -0.662256 v 0.58666 c 0,1.21652 1.045554,1.30914 1.222256,0.10827 z m 172.542726,-2.37493 c -0.18683,-0.748 -0.48038,-1.61005 -0.65234,-1.91566 -0.17195,-0.30561 -0.31202,-0.80961 -0.31126,-1.12 l 10e-4,-0.56434 1.33367,-1.76 c 3.93366,-5.19113 5.08131,-6.65635 5.45947,-6.9702 0.36411,-0.30218 4.2378,-1.46275 9.36411,-2.80551 l 1.6,-0.41909 0.26343,0.25683 0.26343,0.25682 -0.90343,0.25448 c -1.06855,0.301 -1.0861,0.30671 -1.70343,0.55497 -0.264,0.10617 -2.26124,0.66973 -4.43831,1.25236 l -3.95832,1.05934 -1.80904,2.24 c -0.99497,1.232 -2.42399,3.07011 -3.1756,4.0847 l -1.36656,1.8447 0.57391,0.18529 c 0.31566,0.10191 0.93392,0.30896 1.37392,0.4601 2.43837,0.83759 6.47375,1.93813 6.60936,1.80252 0.0865,-0.0865 0.007,-0.70271 -0.17736,-1.36931 -0.18406,-0.66661 -0.27614,-1.27053 -0.20462,-1.34205 0.3179,-0.3179 0.7188,0.33436 1.1271,1.83377 0.24267,0.89115 0.48954,1.62028 0.5486,1.62028 0.0591,0 2.73303,-0.71232 5.94215,-1.58293 l 5.83477,-1.58292 3.76,-3.91935 c 2.068,-2.15564 3.75963,-3.99933 3.75917,-4.09708 -4.6e-4,-0.0978 -1.18846,-0.59136 -2.64,-1.09692 -1.45154,-0.50555 -3.32123,-1.20645 -4.15485,-1.55755 l -1.51568,-0.63835 0.1493,-0.24157 0.1493,-0.24157 1.68638,0.57866 c 0.92751,0.31827 2.83838,1.01935 4.24638,1.55796 1.408,0.53861 2.57997,0.97982 2.60439,0.98046 0.0244,6.3e-4 0.13867,-0.53884 0.2539,-1.19884 0.2786,-1.59566 1.44536,-6.59783 1.9593,-8.4 0.22587,-0.792 0.51092,-2.12577 0.63346,-2.96394 l 0.2228,-1.52393 0.3207,-0.19821 0.32071,-0.19821 -0.1792,1.24214 c -0.27271,1.89039 -1.30015,6.94843 -2.13735,10.52215 l -0.74966,3.2 -3.33618,4.90862 -3.33619,4.90862 0.33532,1.32105 c 0.18443,0.72658 0.28025,1.37612 0.21295,1.44342 -0.32359,0.3236 -0.77055,-0.39108 -0.96523,-1.54339 -0.11879,-0.70308 -0.31132,-1.27319 -0.42785,-1.26693 -0.11653,0.006 -1.00387,0.20811 -1.97187,0.44853 -1.55481,0.38616 -3.42675,0.90183 -9.44,2.6005 -0.88,0.24859 -1.87014,0.45369 -2.2003,0.45578 -0.33017,0.002 -2.52413,-0.9322 -4.87547,-2.0762 -2.35134,-1.144 -4.34186,-2.08 -4.42337,-2.08 -0.0815,0 0.044,0.468 0.27901,1.04 0.23497,0.572 0.52706,1.508 0.6491,2.08 l 0.22188,1.04 h -0.33309 -0.33309 z m -197.453133,-0.32 c -0.194051,-0.748 -0.480419,-1.84403 -0.636374,-2.43562 l -0.283555,-1.07562 0.533086,-0.84438 c 0.455377,-0.7213 5.525332,-7.43887 6.126177,-8.11704 0.113369,-0.12796 1.786232,-0.66944 3.717472,-1.20329 1.93124,-0.53385 4.244001,-1.18516 5.13947,-1.44735 1.8033,-0.52799 2.691875,-0.60387 2.691875,-0.22984 0,0.23635 -1.326131,0.65968 -6.24,1.99195 -1.232,0.33402 -2.844016,0.79784 -3.582257,1.03071 l -1.342258,0.4234 -2.129348,2.71354 c -1.171141,1.49244 -2.539178,3.30393 -3.04008,4.02552 l -0.910732,1.31199 3.878168,1.19948 c 2.132992,0.65971 4.090598,1.281 4.350234,1.38063 l 0.472066,0.18115 -0.223093,-0.93262 c -0.122701,-0.51294 -0.303365,-1.20165 -0.401476,-1.53047 l -0.178385,-0.59786 0.42399,0.14133 0.423989,0.14133 0.352497,1.41653 0.352496,1.41653 1.257095,-0.0813 c 0.691402,-0.0447 3.481065,-0.71904 6.199253,-1.49846 l 4.942158,-1.41712 3.735005,-3.94155 3.735004,-3.94154 -3.237163,-1.22374 c -1.78044,-0.67306 -3.705163,-1.38122 -4.277163,-1.57369 -0.572,-0.19248 -1.04,-0.48658 -1.04,-0.65357 v -0.30361 l 0.72,0.1658 c 0.809923,0.18651 5.234975,1.79743 6.989549,2.54452 l 1.14955,0.48947 0.675955,-2.92259 c 0.371775,-1.60743 1.061745,-4.72259 1.533267,-6.92259 0.931581,-4.34652 1.004677,-4.57154 1.404714,-4.32431 l 0.268811,0.16614 -0.468652,1.83908 c -0.512637,2.01169 -1.505632,6.61867 -2.199473,10.20441 l -0.44221,2.28532 -1.85715,2.67468 c -1.021432,1.47107 -2.561607,3.72438 -3.422611,5.00735 l -1.565461,2.33267 0.366855,1.22445 c 0.446199,1.48928 0.451087,1.63021 0.05654,1.63021 h -0.310317 l -0.443211,-1.52 -0.443211,-1.52 -0.286472,0.0146 c -0.15756,0.008 -1.150472,0.26448 -2.206472,0.56988 -1.056,0.30539 -2.712,0.76402 -3.68,1.01917 -0.968,0.25514 -3.056,0.83762 -4.64,1.29439 l -2.880001,0.8305 -4.64,-2.22068 c -2.552,-1.22138 -4.69652,-2.17178 -4.7656,-2.11201 -0.06908,0.0598 0.01814,0.29215 0.193814,0.5164 0.268541,0.3428 1.051786,3.01578 1.051786,3.58944 0,0.0981 -0.13845,0.1783 -0.307666,0.1783 h -0.307666 z m 70.744936,-1.42112 0.01678,-1.53888 0.502247,0.72 c 0.276235,0.396 0.628682,0.72 0.783215,0.72 h 0.280973 v -0.65889 -0.65888 l 0.32,0.19777 0.32,0.19777 v 1.26111 1.26112 h -0.32 -0.32 v -0.64 -0.64 h -0.48 -0.48 v 0.46111 c 0,0.25361 -0.144,0.55011 -0.32,0.65889 l -0.32,0.19777 z m 2.856746,0.84903 -0.348986,-0.65209 0.199055,-0.62717 0.199056,-0.62717 0.828461,-0.20793 0.828461,-0.20793 0.430211,0.58835 c 0.236616,0.32359 0.430211,0.84376 0.430211,1.15593 v 0.56758 l -0.618963,0.33126 c -0.340429,0.18219 -0.839363,0.33126 -1.108741,0.33126 h -0.489778 z m 1.819003,-0.48942 0.192447,-0.50151 -0.348928,-0.34893 -0.348929,-0.34893 -0.474541,0.39383 -0.474541,0.39384 0.175216,0.4566 0.175215,0.45661 h 0.455807 0.455806 z m 58.411468,-0.84249 -0.384,-0.384 v -0.88991 -0.8899 l 0.80416,-0.20183 0.80415,-0.20183 0.47585,0.39491 0.47584,0.39492 v 0.69682 c 0,0.82176 -0.56192,1.46482 -1.28,1.46482 -0.2816,0 -0.6848,-0.1728 -0.896,-0.384 z m 1.42853,-0.75751 0.19245,-0.50151 -0.36249,-0.36249 -0.36249,-0.36249 -0.36249,0.36249 -0.36249,0.36249 0.19245,0.50151 c 0.10584,0.27583 0.34548,0.50151 0.53253,0.50151 0.18705,0 0.42669,-0.22568 0.53253,-0.50151 z m -4.63185,-0.35376 0.0993,-1.17526 0.4,-0.1314 0.4,-0.13141 v 0.50667 0.50667 h 0.3041 c 0.16725,0 0.45087,-0.252 0.63027,-0.56 0.37953,-0.65163 0.39375,-0.6246 0.50515,0.96 l 0.0844,1.2 h -0.44196 -0.44194 v -0.48 -0.48 h -0.32 -0.32 v 0.48 0.48 h -0.49932 -0.49931 z m 70.72318,-2.50473 0.0233,-1.6 0.13867,0.72 0.13868,0.72 h 0.45775 0.45774 v -0.48 -0.48 h 0.32 0.32 v 1.28 1.28 h -0.32 -0.32 v -0.46112 c 0,-0.25361 -0.14522,-0.55086 -0.32271,-0.66056 l -0.3227,-0.19944 -0.29701,0.74056 -0.29701,0.74056 z m 2.62079,0.98327 c -0.0964,-0.2512 -0.12787,-0.7765 -0.07,-1.16732 l 0.10531,-0.71059 0.54127,-0.33923 0.54127,-0.33923 0.65873,0.59614 0.65873,0.59615 v 0.71617 0.71616 l -0.50617,0.19424 c -0.2784,0.10683 -0.78692,0.19424 -1.13005,0.19424 h -0.62387 z m 1.63535,-0.82766 v -0.79561 h -0.48 -0.48 l -0.10396,0.90807 -0.10397,0.90808 0.58397,-0.11246 0.58396,-0.11246 z M 15.443738,36.139069 v -1.28 h 0.285764 c 0.15717,0 0.36865,0.216 0.469956,0.48 0.101307,0.264 0.332713,0.48 0.514237,0.48 h 0.330043 v -0.48 -0.48 h 0.32 0.32 v 0.96 c 0,0.528 0.0108,1.0644 0.024,1.192 0.0132,0.1276 -0.14062,0.28687 -0.341822,0.35394 l -0.365822,0.12194 0.101822,-0.56075 0.101822,-0.56074 -0.421142,-0.14691 -0.421142,-0.14691 -0.17618,0.67371 c -0.0969,0.37054 -0.303385,0.67372 -0.458858,0.67372 h -0.282678 z m 3.093333,1.06666 c -0.117333,-0.11733 -0.213333,-0.68363 -0.213333,-1.25843 v -1.04511 l 0.594919,-0.18882 0.594919,-0.18882 0.527843,0.20256 0.527843,0.20255 0.192972,0.76886 0.192971,0.76886 -0.394916,0.47584 -0.394916,0.47585 h -0.707484 c -0.389116,0 -0.803484,-0.096 -0.920818,-0.21334 z m 1.706667,-1.04778 c 0,-0.34161 -0.157818,-0.71865 -0.350708,-0.83786 l -0.350707,-0.21675 -0.487156,0.48715 -0.487157,0.48716 0.21675,0.35071 c 0.119212,0.19289 0.49625,0.35071 0.837863,0.35071 h 0.621115 z m 76.864003,-4.88288 c -0.2112,-0.2112 -0.384,-0.71014 -0.384,-1.10875 v -0.72474 l 0.58826,-0.31483 0.58827,-0.31483 0.66215,0.17316 0.66215,0.17316 0.14183,0.54235 c 0.078,0.29829 0.024,0.86097 -0.12011,1.25041 l -0.26193,0.70807 h -0.74631 -0.74631 z m 1.65637,-0.74812 0.18884,-0.49211 -0.47461,-0.18212 c -0.26103,-0.10017 -0.70682,-0.093 -0.99064,0.0159 l -0.51604,0.19802 0.39522,0.47621 c 0.51106,0.61579 1.15765,0.60843 1.39723,-0.0159 z m 58.503629,-0.85188 -0.384,-0.384 v -0.88991 -0.8899 l 0.79928,-0.20061 0.79929,-0.20061 0.48071,0.18447 0.48072,0.18447 v 0.90604 0.90605 l -0.384,0.384 c -0.2112,0.2112 -0.6144,0.384 -0.896,0.384 -0.2816,0 -0.6848,-0.1728 -0.896,-0.384 z m 1.376,-1.216 v -0.74667 l -0.39983,-0.13328 -0.39983,-0.13328 -0.19441,0.50662 -0.1944,0.50661 0.1944,0.50661 0.19441,0.50661 0.39983,-0.13328 0.39983,-0.13328 z m 68.65274,-1.42465 -0.38562,-0.46464 0.19883,-0.62646 c 0.10936,-0.34455 0.40005,-0.79346 0.64599,-0.99756 l 0.44715,-0.37111 0.63878,0.34187 0.63879,0.34187 0.20811,0.65569 0.20811,0.6557 -0.38562,0.46464 -0.38562,0.46465 h -0.72164 -0.72164 z m 1.40109,-0.0496 c 0.62221,-0.23876 0.65453,-0.88427 0.0686,-1.37052 l -0.43755,-0.36313 -0.39825,0.47987 -0.39826,0.47987 0.18576,0.48407 c 0.20888,0.54434 0.26963,0.56231 0.97967,0.28984 z m -198.875495,-0.48624 -0.364181,-0.68048 0.346062,-0.75952 0.346061,-0.75952 h 0.597265 0.597264 l 0.529596,0.58519 c 0.661181,0.7306 0.667457,1.15123 0.02674,1.79195 l -0.502858,0.50286 H 30.79214 30.186256 Z m 1.759185,-1.02271 -0.205995,-0.53681 h -0.455807 -0.455806 l -0.185757,0.48407 -0.185757,0.48408 0.408311,0.49198 0.408311,0.49199 0.439247,-0.43925 0.439247,-0.43925 z m 63.392411,1.07416 -0.59475,-0.65719 0.42648,-0.79689 0.42648,-0.79689 h 0.89983 0.89983 l 0.21322,0.84952 0.21322,0.84953 -0.3198,0.51047 c -0.17589,0.28076 -0.60104,0.55282 -0.94478,0.60456 l -0.62497,0.0941 z m 1.69372,-0.75846 0.10365,-0.53445 -0.53595,-0.20566 -0.53594,-0.20566 -0.2694,0.43589 -0.2694,0.4359 0.34972,0.42139 0.34972,0.42139 0.35197,-0.11717 c 0.19359,-0.0645 0.39862,-0.35768 0.45563,-0.65163 z m 1.31009,0.16356 -0.15522,-1.38392 0.25074,-0.15496 0.25074,-0.15496 v 0.65888 0.65889 h 0.48 0.48 v -0.64 -0.64 h 0.32 0.32 v 1.28 1.28 h -0.32 -0.32 v -0.48 -0.48 h -0.45774 -0.45775 l -0.11778,0.72 -0.11777,0.72 z m 29.800879,0.12154 -0.38375,-0.46239 0.10457,-0.73761 0.10456,-0.73761 0.89935,-0.10313 0.89935,-0.10312 0.42953,0.35648 0.42953,0.35648 0.1544,-0.41336 0.1544,-0.41335 0.47117,0.61298 0.47117,0.61298 0.34155,-0.61032 0.34155,-0.61031 0.20523,0.20523 c 0.11288,0.11288 0.14672,0.75968 0.0752,1.43733 l -0.13004,1.23211 -0.24851,-0.72 -0.24852,-0.72 h -0.44268 -0.44268 v 0.50156 0.50156 l -0.64,-0.20312 -0.64,-0.20313 v 0.34156 0.34157 h -0.76082 -0.76082 z m 1.68154,-0.60663 0.16463,-0.42902 -0.2581,-0.41761 -0.2581,-0.41761 -0.51229,0.19658 -0.5123,0.19659 v 0.65004 0.65005 h 0.60576 0.60577 z m 31.00147,-0.55762 -0.41633,-0.66664 0.50673,-0.77336 0.50672,-0.77336 h 0.61448 0.61448 l 0.49814,0.7112 0.49815,0.7112 v -0.5512 -0.5512 h 0.32 0.32 v 0.48 0.48 h 0.48 0.48 v -0.65889 -0.65888 l 0.32,0.19777 0.32,0.19777 v 1.26111 1.26112 h -0.28268 c -0.15547,0 -0.36178,-0.30249 -0.45846,-0.6722 l -0.17578,-0.6722 -0.34154,0.21108 c -0.18785,0.1161 -0.34154,0.41859 -0.34154,0.6722 v 0.46112 h -0.32 -0.32 v -0.5296 -0.5296 l -0.5852,0.5296 -0.58519,0.5296 h -0.61783 -0.61783 z m 1.86237,-0.59448 c 0,-0.34161 -0.15782,-0.71865 -0.35071,-0.83786 l -0.35071,-0.21675 -0.48715,0.48715 -0.48716,0.48716 0.21675,0.35071 c 0.11921,0.19289 0.49625,0.35071 0.83787,0.35071 h 0.62111 z m 30.87882,0.29982 -0.58036,-0.6413 0.37347,-0.8197 0.37348,-0.81969 0.8773,0.10099 0.87729,0.101 0.10312,0.89935 0.10312,0.89935 -0.3823,0.46065 c -0.52502,0.63261 -1.05916,0.57732 -1.74512,-0.18065 z m 1.70483,-0.74619 0.10365,-0.53445 -0.52516,-0.20152 -0.52516,-0.20152 -0.34893,0.34892 -0.34893,0.34893 0.41847,0.50422 0.41846,0.50422 0.35198,-0.11717 c 0.19358,-0.0644 0.39861,-0.35768 0.45562,-0.65163 z m 1.02653,-0.29251 0.0102,-1.36 0.4251,0.56 c 0.23381,0.308 0.58923,0.56 0.78983,0.56 h 0.36469 v -0.49889 -0.49888 l 0.32348,0.19992 0.32348,0.19992 -0.0734,0.96329 c -0.0404,0.52981 -0.18594,1.03284 -0.32348,1.11785 l -0.25008,0.15456 v -0.49889 -0.49888 h -0.48 -0.48 v 0.48 0.48 h -0.32 -0.32 z m -119.989024,-1.3299 -4.938842,-2.3539 -0.296862,-0.7581 c -0.483749,-1.23536 -1.455994,-5.22655 -1.309769,-5.37677 0.317165,-0.32582 0.76145,0.60922 1.325189,2.78901 l 0.602676,2.33035 2.965013,-3.77035 2.965012,-3.77034 -0.180635,-1.3597837 c -0.09935,-0.747879 -0.271015,-1.719879 -0.381479,-2.16 l -0.200842,-0.80022 h 0.310886 0.310885 l 0.542612,1.725105 0.542612,1.7251037 0.861193,-0.282807 c 1.336607,-0.4389277 9.331381,-2.5274017 9.675013,-2.5274017 0.168399,0 0.30618,0.124288 0.30618,0.276195 v 0.276195 l -1.68,0.490797 c -0.924,0.269938 -3.408657,0.955192 -5.521459,1.5227857 l -3.841459,1.031991 -2.827454,3.69019 c -1.555099,2.02961 -2.893952,3.86349 -2.975227,4.07529 l -0.147774,0.38509 0.896686,0.34275 c 0.493178,0.18851 2.048687,0.65456 3.456687,1.03567 1.408,0.38112 2.900752,0.82801 3.317226,0.99309 l 0.757225,0.30016 -0.168635,-0.7301 c -0.09275,-0.40156 -0.26869,-1.21517 -0.390979,-1.80802 l -0.222345,-1.07792 0.433754,0.14111 0.433754,0.14111 0.465186,1.89681 c 0.255853,1.04324 0.504642,1.9536 0.552866,2.02301 0.04822,0.0694 0.70289,-0.10621 1.454814,-0.39026 0.751924,-0.28405 2.231134,-0.72148 3.287134,-0.97207 1.056,-0.25058 3.072,-0.77289 4.480003,-1.16067 l 2.56,-0.70506 1.38667,-1.32907 c 0.76267,-0.73099 2.52622,-2.57151 3.91899,-4.09004 l 2.532329,-2.76097 -3.758999,-1.3303777 c -2.06745,-0.731708 -3.97082,-1.461443 -4.22973,-1.621633 l -0.47073,-0.291254 0.20483,-0.204831 0.20483,-0.204831 3.30591,1.193737 c 1.81824,0.656555 3.844449,1.4159727 4.502689,1.6875967 l 1.19678,0.493863 0.20163,1.07475 c 0.24144,1.287 -0.005,1.66073 -0.53529,0.81166 l -0.38444,-0.61559 -2.982829,4.44279 -2.98283,4.44279 0.30509,0.80247 c 0.38593,1.01507 0.39025,1.7208 0.0105,1.7208 h -0.29457 l -0.22238,-1.04 c -0.12231,-0.572 -0.35103,-1.20031 -0.50829,-1.39624 l -0.28591,-0.35624 -2.15713,0.62126 c -1.66699,0.48008 -11.437143,3.14575 -11.437143,3.12048 0,-0.003 -2.222479,-1.06452 -4.938842,-2.35916 z m 150.098844,1.76812 -0.44,-0.28544 v -0.87278 -0.87279 l 0.44,-0.28544 c 0.242,-0.15699 0.728,-0.24861 1.08,-0.20361 l 0.64,0.0818 v 1.28 1.28 l -0.64,0.0818 c -0.352,0.045 -0.838,-0.0466 -1.08,-0.2036 z m 1.4538,-1.45341 c -0.24514,-0.63884 -0.81731,-0.65226 -1.05808,-0.0248 l -0.18419,0.48 0.20599,0.53681 0.206,0.53682 0.512,-0.512 0.512,-0.512 z m 0.9862,1.55056 c -0.33866,-0.34154 -0.28942,-1.80374 0.08,-2.37537 l 0.3102,-0.48 0.005,0.54111 c 0.003,0.29761 0.17075,0.64361 0.37345,0.76889 l 0.36854,0.22777 0.38673,-0.52889 c 0.58302,-0.79745 0.79608,-0.64432 0.79608,0.57223 v 1.10112 l -0.28362,0.17528 -0.28362,0.17529 -0.16677,-0.63772 -0.16676,-0.63772 -0.4914,0.18856 c -0.27027,0.10371 -0.53559,0.40523 -0.58961,0.67003 l -0.0982,0.48146 z M 28.627738,23.595069 c -0.41927,-0.41927 -0.493551,-1.19817 -0.189764,-1.98983 l 0.194237,-0.50617 h 0.701763 c 0.885276,0 1.469764,0.57265 1.469764,1.44 0,0.79945 -0.56937,1.44 -1.28,1.44 -0.2816,0 -0.6848,-0.1728 -0.896,-0.384 z m 1.376,-1.06039 v -0.63561 h -0.48 -0.48 l -0.105987,0.74846 -0.105987,0.74847 0.585987,-0.11285 0.585987,-0.11285 z m 1.134231,0.004 v -1.6 l 0.588976,0.76603 0.588976,0.76602 0.363908,-0.22491 c 0.20015,-0.12372 0.363909,-0.44092 0.363909,-0.70492 v -0.48 l 0.32,0.19777 0.32,0.19777 v 1.08223 1.08223 l -0.32,0.19777 -0.32,0.19777 v -0.48 c 0,-0.264 -0.163759,-0.58121 -0.363909,-0.70491 l -0.363908,-0.22491 -0.588976,0.76602 -0.588976,0.76603 z m 81.186741,1.04 -0.52135,-0.4 0.17749,-0.88 0.1775,-0.88 h 0.46812 0.46812 l -0.20931,-1.04 c -0.11513,-0.572 -0.28568,-1.30903 -0.37901,-1.63786 l -0.16969,-0.59786 0.41392,0.13798 0.41392,0.13797 0.37602,1.66958 c 0.20681,0.91827 0.4466,1.74016 0.53286,1.82642 0.0863,0.0863 2.8059,-0.56056 6.04364,-1.43739 l 5.8868,-1.59424 3.94192,-3.99885 3.94191,-3.99884 -1.22191,-0.522964 c -0.67206,-0.287644 -1.94192,-0.7403897 -2.82192,-1.0061177 -0.88,-0.265728 -1.744,-0.593683 -1.92,-0.728789 -0.176,-0.135105 -0.86,-0.41958 -1.52,-0.632166 l -1.2,-0.38652 v -0.295184 c 0,-0.460211 0.53197,-0.358744 2.73053,0.52082 1.12183,0.448801 3.01839,1.145406 4.21458,1.54801 l 2.17489,0.7320077 0.47148,0.833843 0.47147,0.83385 -0.24887,0.24888 -0.24888,0.24887 -0.26422,-0.42752 -0.26423,-0.42753 -2.63871,3.95679 c -1.45129,2.17624 -2.8636,4.21401 -3.13847,4.52839 l -0.49975,0.5716 0.40947,1.13236 c 0.2252,0.6228 0.33382,1.208 0.24138,1.30045 -0.34603,0.34602 -0.78496,-0.24542 -0.98889,-1.33247 -0.11593,-0.61794 -0.31226,-1.12132 -0.43628,-1.11862 -0.40087,0.009 -4.9213,1.19833 -9.01222,2.37165 -4.36067,1.25069 -5.07319,1.3412 -5.85231,0.74344 z m 146.15785,-0.2413 -0.58036,-0.6413 0.36391,-0.7987 0.36391,-0.7987 h 0.81717 0.81717 l 0.26764,0.72 0.26764,0.72 -0.17461,0.48 c -0.39737,1.09236 -1.31833,1.22936 -2.14247,0.3187 z m 1.76118,-0.79377 c 0,-0.22362 -0.2143,-0.58443 -0.47621,-0.8018 l -0.47622,-0.39522 -0.19802,0.51604 c -0.10891,0.28382 -0.11607,0.72961 -0.0159,0.99064 l 0.18212,0.47461 0.49212,-0.18885 c 0.27066,-0.10386 0.49211,-0.3718 0.49211,-0.59542 z m 0.89991,0.92353 c -0.1291,-0.23603 -0.1017,-1.71677 0.0438,-2.36847 0.0197,-0.088 0.18251,0.092 0.3619,0.4 l 0.32617,0.56 h 0.4482 0.4482 l 0.32617,-0.56 0.32617,-0.56 -0.0274,1.44 -0.0274,1.44 -0.14634,-0.56 -0.14635,-0.56 h -0.50126 c -0.27569,0 -0.67515,0.23781 -0.88769,0.52847 l -0.38643,0.52848 z M 61.033695,22.859069 c -0.08248,-0.264 -0.215838,-0.69184 -0.29636,-0.95074 l -0.146404,-0.47074 0.489261,-0.48926 c 0.658629,-0.65863 1.18986,-0.61578 1.884722,0.15204 l 0.580369,0.6413 -0.363912,0.7987 -0.363912,0.7987 h -0.816904 -0.816903 z m 1.610043,-0.96 v -0.63124 l -0.519735,-0.10009 -0.519736,-0.10009 -0.201302,0.52458 -0.201303,0.52459 0.190874,0.30884 0.190873,0.30884 0.530165,-0.1021 0.530164,-0.1021 z m 1.12,0.17888 v -1.29888 h 0.338885 0.338886 l -0.197771,0.32 -0.197771,0.32 h 0.818886 0.818885 v -0.32 c 0,-0.176 0.1152,-0.32 0.256,-0.32 h 0.256 v 1.12 1.12 h -0.434885 -0.434886 l 0.184105,-0.29789 0.184106,-0.29789 -0.296343,-0.18315 c -0.162988,-0.10073 -0.52451,-0.0956 -0.803382,0.0114 l -0.507039,0.19457 0.163382,0.26436 0.163382,0.26435 -0.32522,0.201 -0.32522,0.201 z m 77.428932,-1.34606 -4.65107,-2.23434 -0.41973,-0.94821 -0.41972,-0.94822 0.21672,-0.55103 0.21671,-0.55102 0.38818,0.93656 0.38817,0.93656 1.56371,-2.05656 c 0.86003,-1.13111 2.2352,-2.92056 3.05593,-3.97656 l 1.49222,-1.9200037 -0.55755,-1.841185 -0.55755,-1.841184 0.27147,-0.167778 0.27147,-0.167778 0.29819,0.568962 c 0.16401,0.31293 0.39832,1.035312 0.52068,1.605293 0.12236,0.569982 0.33786,1.107638 0.47887,1.194791 0.14102,0.08715 1.46194,-0.202481 2.93538,-0.643631 1.47345,-0.441151 3.79852,-1.067338 5.16684,-1.391528 l 2.48785,-0.589436 0.1551,0.250948 0.15509,0.250948 -1.04294,0.329983 c -0.57362,0.18149 -1.97895,0.558052 -3.12295,0.836803 -1.144,0.278752 -2.368,0.635528 -2.72,0.792837 -0.352,0.157308 -1.38101,0.451119 -2.2867,0.652913 l -1.6467,0.366898 -0.64715,0.6960717 c -0.35594,0.382836 -1.80423,2.207556 -3.21843,4.054926 l -2.57128,3.35885 0.70513,0.36537 c 0.73083,0.3787 7.43708,2.35693 7.99003,2.35693 h 0.31346 l -0.33054,-0.4 c -0.1818,-0.22 -0.43146,-0.94 -0.5548,-1.6 l -0.22425,-1.2 h 0.34058 0.34057 l 0.33325,1.2 c 0.1833,0.66 0.33627,1.344 0.33995,1.52 0.004,0.176 0.12458,0.50584 0.26869,0.73298 l 0.26201,0.41298 3.65309,-1.01197 c 2.0092,-0.55658 4.66109,-1.27739 5.89309,-1.6018 l 2.24,-0.58983 3.75712,-3.93118 c 2.06641,-2.16215 3.75841,-4.0116977 3.76,-4.1101037 0.002,-0.09841 -0.68112,-0.413997 -1.51712,-0.701312 -3.55582,-1.222062 -6.4579,-2.352086 -6.69999,-2.608877 l -0.26001,-0.275793 1.21691,0.220124 c 1.15569,0.20905 7.30253,2.479831 8.13517,3.005312 0.21564,0.136094 0.43164,0.5852747 0.48,0.9981797 l 0.0879,0.75074 -0.4,0.14194 -0.4,0.14194 v -0.52163 -0.521628 l -3.0718,4.523778 -3.07179,4.52378 0.15064,0.69118 c 0.0829,0.38015 0.25657,0.94319 0.38604,1.25119 l 0.23538,0.56 h -0.48611 -0.48611 l -0.22187,-1.31325 -0.22187,-1.31326 -1.00626,0.19645 c -0.55344,0.10804 -1.94225,0.46646 -3.08625,0.79649 -6.78097,1.95624 -9.19348,2.59067 -9.7618,2.56715 -0.35101,-0.0145 -2.73118,-1.03187 -5.28927,-2.26076 z m 36.09107,1.13806 c -1.65132,-0.85081 -1.7348,-0.9948 -1.08893,-1.87808 l 0.43107,-0.58953 1.04108,0.36293 1.04108,0.36292 -0.19284,-0.50254 c -0.10606,-0.27639 -0.28294,-1.06594 -0.39305,-1.75456 l -0.20021,-1.25202 h 0.32898 0.32899 l 0.41711,1.68 c 0.22941,0.924 0.38208,1.80509 0.33925,1.95798 l -0.0779,0.27799 1.21267,-0.21789 c 0.66696,-0.11983 3.46222,-0.85752 6.21168,-1.6393 l 4.99902,-1.42141 3.00098,-3.10214 c 1.65054,-1.70617 3.3859,-3.50558 3.85636,-3.998684 l 0.85539,-0.8965497 h -0.32702 c -0.17987,0 -0.78079,-0.210119 -1.33539,-0.466931 -1.35055,-0.625403 -5.31007,-2.102748 -6.20832,-2.316413 l -0.72,-0.171265 v -0.461581 -0.461581 l 0.24,0.113975 c 1.2461,0.591769 2.15426,0.937995 4.03823,1.539539 1.20903,0.386036 2.57703,0.899531 3.04,1.141099 0.46298,0.241568 1.00414,0.440102 1.20259,0.441187 0.49818,0.0027 0.95172,0.637807 1.20115,1.6819707 l 0.21022,0.880004 h -0.35605 -0.35606 l -0.1644,-0.628672 -0.1644,-0.6286667 -3.03261,4.5323687 -3.03261,4.53236 0.1392,0.8163 c 0.0766,0.44897 0.1967,0.98191 0.26697,1.18431 l 0.12777,0.368 -0.32,0.056 -0.32,0.056 -0.32,-1.11779 c -0.176,-0.61479 -0.392,-1.18898 -0.48,-1.276 -0.088,-0.087 -1.456,0.20002 -3.04,0.63786 -1.584,0.43783 -3.96,1.07435 -5.28,1.41448 -1.32,0.34014 -2.76,0.74961 -3.2,0.90995 -0.44,0.16033 -1.16,0.36488 -1.6,0.45454 l -0.8,0.16302 z m -70.62844,-0.97397 c -2.95793,-1.5253 -3.35616,-1.84106 -3.67878,-2.91691 l -0.21591,-0.72 h 0.50157 0.50156 v 0.48 c 0,0.78417 0.4297,0.54948 1.28,-0.6991 0.44,-0.6461 0.944,-1.32912 1.12,-1.51782 0.176,-0.18869 1.08953,-1.35108 2.03006,-2.58308 l 1.71006,-2.24 -0.2016,-1.5239007 c -0.11088,-0.838144 -0.28381,-1.738144 -0.3843,-2 l -0.18269,-0.476103 h 0.29102 0.29102 l 0.57902,1.6102 0.57902,1.6102 0.5242,-0.155448 c 0.2883,-0.0855 1.62223,-0.438278 2.96428,-0.783961 1.34205,-0.345683 3.07005,-0.839598 3.84,-1.097589 0.76995,-0.257991 1.86791,-0.56924 2.43991,-0.691664 l 1.04,-0.222589 v 0.333091 0.333092 l -1.36,0.33969 c -0.748,0.18683 -1.61005,0.48038 -1.91566,0.652334 -0.30561,0.171954 -0.73761,0.311688 -0.96,0.31052 -0.22239,-0.0012 -1.77234,0.373296 -3.44434,0.832143 l -3.04,0.8342647 -0.90087,1.00786 c -0.49548,0.55432 -1.96397,2.40281 -3.26331,4.10776 l -2.36244,3.09991 1.34331,0.48515 c 0.73882,0.26684 2.06331,0.6767 2.94331,0.9108 l 1.6,0.42565 v 0.78491 0.78491 l -0.48,0.0412 c -0.264,0.0226 -1.6988,-0.58733 -3.18844,-1.35548 z m 99.75462,-1.48569 -4.71382,-2.29538 -0.32762,-0.93981 c -0.1802,-0.5169 -0.26456,-1.00288 -0.18747,-1.07997 0.26727,-0.26727 0.82273,0.28438 0.82273,0.8171 v 0.5354 l 0.86361,-1.27428 c 0.47499,-0.70086 1.84299,-2.48012 3.04,-3.95391 1.19702,-1.4737937 2.17639,-2.8537777 2.17639,-3.0666297 0,-0.212852 -0.16388,-1.20302 -0.36418,-2.200374 l -0.36417,-1.81337 h -0.49063 c -0.26984,0 -0.73332,-0.219633 -1.02994,-0.488073 l -0.53932,-0.488073 -0.40506,0.488073 c -0.8223,0.990811 -2.2467,0.361208 -2.2467,-0.99307 v -0.713143 l 0.48926,-0.48926 0.48926,-0.48926 0.55074,0.206572 c 0.30291,0.113615 0.72046,0.431496 0.92789,0.706403 l 0.37714,0.499831 0.2076,-0.535258 c 0.37719,-0.972532 2.07811,-1.066561 2.07811,-0.11488 v 0.401388 l -0.8,-0.15293 -0.8,-0.152929 v 0.837304 0.837305 h 0.46111 c 0.25362,0 0.55157,-0.146349 0.66212,-0.32522 l 0.20099,-0.32522 0.31343,0.193709 0.31343,0.193709 -0.35108,0.423022 -0.35108,0.423022 0.30616,0.189213 c 0.16838,0.104067 0.49292,0.917955 0.72119,1.80864 l 0.41505,1.619428 0.65434,-0.182908 c 0.35989,-0.1006 1.66234,-0.406244 2.89434,-0.67921 1.232,-0.272966 2.528,-0.626435 2.88,-0.785486 0.352,-0.159051 1.46796,-0.496794 2.4799,-0.750538 l 1.83991,-0.461355 0.18038,0.291857 0.18037,0.291857 -0.42028,0.1362 c -0.93167,0.301926 -8.80507,2.38916 -9.70028,2.571539 l -0.96,0.19558 -1.6,2.1311637 c -0.88,1.172141 -2.28632,2.992361 -3.12515,4.044931 l -1.52514,1.91378 0.24514,0.23692 c 0.26729,0.25832 8.14549,2.5717 8.2845,2.43268 0.0469,-0.0469 -0.0473,-0.65724 -0.2094,-1.3563 -0.16207,-0.69906 -0.29354,-1.48701 -0.29214,-1.75101 l 0.003,-0.48 0.4567,0.6032 0.45669,0.60321 0.21006,1.40073 c 0.11552,0.7704 0.32589,1.47232 0.46748,1.55983 0.14159,0.0875 2.89697,-0.55726 6.12308,-1.43282 l 5.86564,-1.59192 3.90353,-4.09112 3.90352,-4.0911137 -2.46352,-0.83338 c -5.68114,-1.921856 -6.49649,-2.280329 -6.09646,-2.680354 0.17872,-0.178724 3.11255,0.732045 3.63293,1.127798 0.176,0.133849 0.93472,0.407722 1.68604,0.608608 0.75132,0.200886 2.01132,0.641848 2.8,0.979916 l 1.4335,0.614668 v 0.491372 0.491372 l -0.4,0.01483 -0.4,0.01483 -1.76,2.7492557 c -0.968,1.51209 -1.90425,2.90941 -2.08056,3.10516 -0.17631,0.19576 -0.7298,0.9852 -1.22996,1.75433 l -0.9094,1.39841 0.14622,0.68159 c 0.0804,0.37487 0.2019,0.87959 0.26996,1.12159 l 0.12374,0.44 -0.36911,0.13637 -0.3691,0.13636 -0.21902,-1.29636 -0.21902,-1.29637 -0.37188,0.004 c -0.20453,0.002 -1.16387,0.22699 -2.13187,0.49978 -0.968,0.2728 -2.624,0.7045 -3.68,0.95935 -1.056,0.25484 -2.208,0.5937 -2.56,0.753 -0.77219,0.34948 -4.76414,1.31082 -5.34576,1.28737 -0.22783,-0.009 -2.53546,-1.04962 -5.12806,-2.31208 z M 204.56374,2.6990653 v -0.8 h -0.64 -0.64 v 0.8 0.8 h 0.64 0.64 z M 9.1627061,19.029329 l -4.841031,-2.36629 -0.342322,-0.98199 -0.342322,-0.98198 h 0.43989 0.43989 l 0.103463,0.49525 0.103464,0.49526 1.76,-2.29787 c 0.968,-1.26382 2.311763,-3.034687 2.986139,-3.9352517 l 1.2261389,-1.637392 -0.21624,-1.12 c -0.118931,-0.616 -0.291037,-1.516 -0.382458,-2 l -0.1662199,-0.88 h 0.3267479 0.326748 l 0.417756,1.629996 0.417755,1.629995 1.291817,-0.193903 c 1.216495,-0.182598 3.349067,-0.773556 7.611575,-2.10925 l 1.839759,-0.576504 0.179497,0.290432 0.179497,0.290433 -0.899256,0.347622 c -0.494591,0.191193 -1.975657,0.625319 -3.291258,0.964724 -1.315601,0.339406 -2.827601,0.758627 -3.36,0.931603 -0.532399,0.172976 -1.549807,0.456001 -2.260907,0.628945 l -1.292908,0.314444 -1.7470919,2.3154987 c -0.9609,1.273528 -2.370777,3.088418 -3.133061,4.033098 -0.762283,0.94468 -1.317067,1.7865 -1.232853,1.87071 0.08421,0.0842 2.055015,0.70547 4.379557,1.38057 l 4.2264399,1.22746 -0.227464,-1.00794 c -0.125105,-0.55436 -0.301006,-1.33193 -0.390892,-1.72793 l -0.163427,-0.72 h 0.342263 0.342263 l 0.333257,1.2 c 0.183291,0.66 0.33406,1.4232 0.335041,1.696 9.82e-4,0.2728 0.15709,0.6513 0.346907,0.84112 l 0.345121,0.34512 1.494879,-0.46603 c 0.822183,-0.25631 3.30701,-0.93831 5.521839,-1.51554 2.214828,-0.57723 4.250194,-1.17802 4.523035,-1.33509 0.27284,-0.15707 2.172656,-2.03863 4.221812,-4.18124 L 34.661284,8.0277623 33.932511,7.8113763 C 32.70417,7.4466593 27.158885,5.3707843 26.554775,5.0495233 l -0.568962,-0.302569 0.165678,-0.268073 0.165679,-0.268074 2.003284,0.776339 c 1.101806,0.426987 2.236225,0.904163 2.52093,1.060391 0.284705,0.156228 1.148705,0.450454 1.92,0.653837 0.771295,0.203382 1.726354,0.577384 2.122354,0.831116 l 0.72,0.461329 v 0.449159 0.44916 l -0.442175,0.103463 -0.442176,0.103464 -2.965816,4.4185637 -2.965817,4.41857 0.357598,1.16516 c 0.196679,0.64084 0.299856,1.2229 0.229282,1.29348 -0.329115,0.32911 -0.77504,-0.37651 -0.971023,-1.53653 l -0.215815,-1.2774 -0.852029,0.20556 c -0.468616,0.11305 -3.576215,0.97663 -6.905776,1.91907 -3.329561,0.94244 -6.137561,1.70825 -6.24,1.70181 -0.102439,-0.006 -2.364717,-1.07656 -5.0272849,-2.37802 z m 233.6550039,1.63953 -0.58834,-0.43022 0.22169,-0.88331 0.2217,-0.88332 0.65457,0.17118 0.65457,0.17117 -0.20455,-0.81498 c -0.1125,-0.44824 -0.28758,-1.23018 -0.38908,-1.73765 l -0.18453,-0.92266 h 0.34496 0.34496 l 0.33325,1.2 c 0.1833,0.66 0.33406,1.45652 0.33505,1.77004 l 0.002,0.57004 0.44176,0.16952 0.44176,0.16952 4.91824,-1.31843 c 2.70503,-0.72514 5.30938,-1.4694 5.78743,-1.65391 l 0.8692,-0.33548 3.70419,-3.81455 3.70419,-3.8145607 -0.17706,-0.286477 c -0.0976,-0.157562 -0.63889,-0.387866 -1.2031,-0.511786 -0.5642,-0.12392 -1.24655,-0.346184 -1.51633,-0.493919 -0.26977,-0.147736 -1.4985,-0.651438 -2.7305,-1.119339 -2.25406,-0.85607 -2.96783,-1.269511 -2.68315,-1.554188 0.14799,-0.147986 3.72945,1.144102 4.8008,1.731988 0.2847,0.156228 1.1487,0.450454 1.92,0.653837 0.77129,0.203382 1.71025,0.566838 2.08658,0.807678 l 0.68423,0.437892 0.39768,1.696061 c 0.21872,0.9328327 0.54551,1.8821637 0.7262,2.1096237 l 0.32854,0.41356 -0.35855,0.35855 -0.35855,0.35854 -0.35517,-0.93211 c -0.19535,-0.51265 -0.4353,-1.3311 -0.53323,-1.818763 -0.0979,-0.4876617 -0.28514,-0.9528447 -0.41602,-1.0337387 l -0.23799,-0.147081 -2.93217,4.3678927 -2.93217,4.3679 0.21465,1.43141 0.21465,1.4314 -0.35077,-0.21679 c -0.19292,-0.11923 -0.44467,-0.71732 -0.55944,-1.32909 -0.11477,-0.61177 -0.30431,-1.17142 -0.42119,-1.24366 -0.11689,-0.0722 -1.50456,0.22209 -3.08373,0.65406 -1.57916,0.43197 -3.4472,0.93177 -4.1512,1.11068 -0.704,0.1789 -2.19517,0.60617 -3.31371,0.94948 -1.11854,0.34331 -2.49501,0.6242 -3.05884,0.6242 h -1.02513 z m -197.213972,-0.2666 c -0.81256,-0.4074 -0.843928,-0.53557 -0.410244,-1.67625 l 0.309756,-0.81472 0.545799,0.20944 0.545799,0.20945 -0.196792,-0.51283 c -0.108235,-0.28206 -0.293261,-1.02706 -0.411168,-1.65556 l -0.214376,-1.14272 h 0.340572 0.340571 l 0.333257,1.2 c 0.183291,0.66 0.33406,1.4435 0.335041,1.74111 9.82e-4,0.29761 0.132163,0.62169 0.291514,0.72018 l 0.289729,0.17906 4.750271,-1.3089 c 2.612649,-0.7199 5.291977,-1.45793 5.954063,-1.64007 l 1.203791,-0.33116 3.596209,-3.82929 c 1.977914,-2.1061037 3.644208,-3.9601547 3.702875,-4.1201087 l 0.106666,-0.290825 h -0.511008 c -0.281055,0 -0.761055,-0.140918 -1.066667,-0.313152 -0.469084,-0.264361 -4.348263,-1.732834 -6.235658,-2.360523 -0.580652,-0.193107 -0.784553,-0.846325 -0.264179,-0.846325 0.320454,0 4.703615,1.684639 6.264179,2.407595 l 0.96,0.444736 0.101384,-1.186165 c 0.05576,-0.652391 0.235762,-1.322966 0.4,-1.490166 l 0.298616,-0.304 v 0.704 0.704 h 0.48 0.48 v -0.461114 c 0,-0.253613 0.144,-0.550112 0.32,-0.658886 l 0.32,-0.197771 v 1.458886 1.458885 h -0.32 -0.32 v -0.48 -0.48 h -0.48 -0.48 v 0.64 0.64 h 0.461115 c 0.585489,0 0.709558,0.21182 0.985447,1.682437 l 0.224664,1.197563 h -0.355613 -0.355613 v -0.64 -0.64 h -0.285151 c -0.156833,0 -0.994321,1.044 -1.861084,2.3200037 -0.866763,1.276 -2.19326,3.22317 -2.94777,4.32705 l -1.371838,2.00704 0.191557,0.76323 c 0.105356,0.41977 0.279577,0.9926 0.387158,1.27295 l 0.195601,0.50973 h -0.46877 -0.468771 l -0.301893,-1.36 -0.301894,-1.36 -0.463573,0.12616 c -3.502147,0.95312 -7.661221,2.09092 -9.583572,2.62178 -1.32,0.36451 -2.832,0.71979 -3.36,0.7895 l -0.96,0.12674 z m 125.846002,-1.36872 -2.21193,-1.11289 -0.4057,-0.73079 c -0.46146,-0.83125 -0.55519,-1.85079 -0.17014,-1.85079 0.14202,0 0.39402,0.35245 0.56,0.78323 l 0.30177,0.78324 2.99783,-3.98939 2.99783,-3.9893917 -0.48615,-1.929954 -0.48616,-1.929955 0.34728,0.115759 0.34727,0.115759 0.54192,1.58035 0.54192,1.580349 0.43913,-0.138113 c 0.24152,-0.07596 2.16713,-0.59514 4.27913,-1.153728 2.112,-0.558588 4.056,-1.101596 4.32,-1.206684 0.264,-0.105088 0.72256,-0.233911 1.01902,-0.286272 l 0.53901,-0.0952 0.0395,0.302823 0.0395,0.302824 -1.37855,0.419035 c -0.7582,0.230469 -2.53055,0.710608 -3.93855,1.066977 -1.408,0.356368 -2.848,0.777003 -3.2,0.934743 -0.352,0.15774 -1.07035,0.416779 -1.59633,0.575642 l -0.95633,0.288842 -2.99259,3.9189677 c -1.64592,2.15544 -2.94357,3.96556 -2.88367,4.02249 0.0599,0.0569 1.04492,0.37784 2.18892,0.71312 l 2.08,0.60961 v 0.5958 0.59579 l -0.33104,0.11035 c -0.18207,0.0607 -1.3264,-0.39046 -2.54296,-1.00254 z m 65.66917,-1.00946 -2.80483,-1.38876 -0.2744,-0.72813 c -0.15092,-0.40047 -0.37994,-1.21319 -0.50893,-1.80604 l -0.23452,-1.07792 0.42553,0.14184 0.42553,0.14185 0.21945,1.07299 0.21945,1.07299 0.74878,0.56699 c 0.41182,0.31185 1.10877,0.6523 1.54877,0.75657 0.44,0.10428 1.56514,0.4062 2.50031,0.67094 l 1.70031,0.48135 -0.10031,0.70189 -0.10031,0.70189 -0.48,0.0402 c -0.264,0.0221 -1.74217,-0.58479 -3.28483,-1.34861 z m -197.279521,-0.40656 -2.964349,-1.47845 -0.475651,-1.57808 c -0.261608,-0.86795 -0.475651,-1.71358 -0.475651,-1.87919 v -0.3011 l 0.441435,0.36636 c 0.24279,0.2015 0.533173,0.82505 0.645297,1.38567 l 0.203862,1.0193 0.906125,-1.10648 c 0.498368,-0.60857 1.883205,-2.39036 3.077414,-3.959544 l 2.17129,-2.8530597 -0.362711,-1.571353 c -0.199492,-0.864244 -0.362712,-1.784865 -0.362712,-2.045825 v -0.474473 l 0.287846,0.177899 c 0.158316,0.09784 0.460678,0.898343 0.671917,1.778885 l 0.384071,1.600987 h 0.446809 c 0.245745,0 1.275382,-0.270314 2.288083,-0.600697 3.071081,-1.00191 7.576541,-2.287648 8.001274,-2.28335 0.601804,0.0061 0.480566,0.578661 -0.16,0.75563 -0.308,0.08509 -1.712,0.468003 -3.12,0.850915 -1.408,0.382912 -3.712,1.049981 -5.12,1.482376 l -2.56,0.786172 -1.007993,1.344477 c -0.554397,0.739462 -1.893303,2.4964807 -2.975348,3.9044807 l -1.967355,2.56 1.055348,0.46581 c 0.580441,0.2562 1.847348,0.68896 2.815348,0.96169 l 1.76,0.49587 v 0.77165 0.77164 l -0.32,0.0651 c -0.176,0.0358 -1.653957,-0.60018 -3.284349,-1.41333 z m 35.774526,-0.73957 0.01018,-1.37888 0.488305,0.64 0.488304,0.64 0.31742,-0.56 c 0.17458,-0.308 0.463967,-0.56 0.643082,-0.56 h 0.325663 l -0.201622,0.72 -0.201623,0.72 0.603785,-0.74963 0.603786,-0.74963 0.743592,0.10963 0.743592,0.10963 0.351044,0.56 0.351044,0.56 -0.351044,0.56 -0.351044,0.56 -0.74939,0.11039 -0.74939,0.11039 -0.417929,-0.57155 -0.417929,-0.57156 v 0.54116 0.54117 H 77.49378 77.143821 l -0.167363,-0.64 c -0.192316,-0.73542 -0.73272,-0.86735 -0.73272,-0.17889 0,0.25361 -0.144,0.55011 -0.32,0.65889 l -0.32,0.19777 z m 4.149823,0.0611 v -0.64 h -0.461115 c -0.253613,0 -0.550111,0.144 -0.658885,0.32 l -0.197771,0.32 0.197771,0.32 c 0.108774,0.176 0.405272,0.32 0.658885,0.32 h 0.461115 z m 31.051262,0.34103 c -0.18219,-0.34043 -0.33126,-0.83626 -0.33126,-1.10185 v -0.48289 l 0.68947,-0.48293 0.68948,-0.48293 0.55137,0.29509 0.55136,0.29508 0.15325,0.80165 0.15324,0.80166 -0.53928,0.48804 c -0.29661,0.26843 -0.77488,0.48805 -1.06283,0.48805 h -0.52354 z m 1.53,-0.87636 -0.10126,-0.85532 -0.39983,-0.13129 -0.39983,-0.13128 -0.19441,0.50661 c -0.10692,0.27863 -0.11152,0.72261 -0.0102,0.98661 l 0.18419,0.48 h 0.5113 0.5113 z m -10.92774,-0.12538 -0.46278,-0.6607 0.16287,-0.6228 0.16286,-0.62279 0.76592,-0.19224 0.76592,-0.19223 0.47585,0.39492 0.47584,0.39491 v 0.69682 c 0,0.83992 -0.56561,1.46482 -1.32585,1.46482 h -0.55786 z m 1.59901,-0.4808 0.19245,-0.50151 -0.36249,-0.36249 -0.36249,-0.36249 -0.36249,0.36249 -0.36249,0.36249 0.19245,0.50151 c 0.10584,0.27583 0.34548,0.50151 0.53253,0.50151 0.18705,0 0.42669,-0.22568 0.53253,-0.50151 z m 40.80765,0.62041 -0.29162,-0.52109 -0.22316,0.36109 c -0.32014,0.51799 -0.8254,0.4452 -0.8254,-0.1189 v -0.48 h -0.4641 -0.4641 l -0.32617,0.56 -0.32617,0.56 0.0105,-1.44 0.0106,-1.44 0.2894,0.72 0.28941,0.72 h 0.45299 0.45299 l 0.19731,-0.72 0.19731,-0.72 0.29041,0.45098 0.2904,0.45098 -0.15077,0.50902 c -0.0829,0.27996 0.079,0.11302 0.35983,-0.37098 l 0.51059,-0.88 h 0.56578 c 0.7599,0 1.33378,0.61958 1.33378,1.44 0,0.81827 -0.57341,1.44 -1.3281,1.44 h -0.5601 z m 1.48208,-1.02397 0.10225,-0.69493 h -0.48337 c -0.26585,0 -0.57663,0.15089 -0.69061,0.33532 l -0.20724,0.33532 0.18852,0.49129 0.18853,0.49129 0.39983,-0.13168 0.39983,-0.13167 z m 31.16174,0.52107 c -0.2112,-0.2112 -0.384,-0.66787 -0.384,-1.01481 v -0.6308 l 0.51533,-0.56943 0.51532,-0.56943 0.76468,0.50104 0.76467,0.50103 v 0.6992 c 0,0.8239 -0.56122,1.4672 -1.28,1.4672 -0.2816,0 -0.6848,-0.1728 -0.896,-0.384 z m 1.536,-0.70983 c 0,-0.24961 -0.0888,-0.68528 -0.19737,-0.96817 l -0.19737,-0.51434 -0.44263,0.36735 -0.44263,0.36735 v 0.60082 0.60082 h 0.64 0.64 z m 87.8896,0.50863 c -0.70659,-0.78076 -0.66758,-1.43074 0.12913,-2.15176 l 0.65873,-0.59614 0.54127,0.33882 0.54127,0.33883 0.10312,0.86707 0.10312,0.86708 -0.3823,0.46065 c -0.51436,0.61976 -1.05684,0.57988 -1.69434,-0.12455 z m 1.35148,-1.51086 -0.49606,-0.49606 -0.41169,0.49606 -0.41169,0.49606 0.41169,0.49606 0.41169,0.49606 0.49606,-0.49606 0.49606,-0.49606 z m 1.3291,0.57606 -0.0102,-1.36 h 0.32 0.32 v 0.48 0.48 h 0.45654 0.45653 l 0.14635,-0.56 0.14634,-0.56 v 1.44 1.44 l -0.14634,-0.56 c -0.0805,-0.308 -0.29991,-0.56 -0.48761,-0.56 -0.18769,0 -0.53255,0.252 -0.76636,0.56 l -0.4251,0.56 z m -134.21967,0.49389 -0.51051,-0.2857 v -0.74491 -0.74492 l 0.46239,-0.38375 0.46238,-0.38374 0.73762,0.10456 0.73761,0.10457 0.0969,1.15946 0.0969,1.15947 -0.78639,0.15032 -0.7864,0.15033 z m 1.40949,-1.05389 v -0.8 h -0.46111 c -0.25362,0 -0.55438,0.15089 -0.66836,0.33532 l -0.20724,0.33532 0.17831,0.46468 0.17831,0.46468 h 0.49005 0.49004 z m 73.31696,0.91787 -0.67696,-0.47416 v 0.33814 c 0,0.18598 -0.144,0.33815 -0.32,0.33815 h -0.32 v -0.64 -0.64 h -0.34996 -0.34996 l -0.16736,0.64 c -0.0921,0.352 -0.29457,0.64 -0.45004,0.64 h -0.28268 l 0.01,-1.36 0.01,-1.36 0.32617,0.56 0.32617,0.56 h 0.4641 0.4641 v -0.48 -0.48 h 0.32 0.32 l 0.0102,0.56 0.0102,0.56 0.4251,-0.56 0.42511,-0.56 h 0.64554 0.64554 l 0.38374,0.46238 0.38375,0.46239 -0.10457,0.70278 -0.10456,0.70278 -0.68304,0.25085 -0.68304,0.25085 z m 1.5053,-1.02294 0.10225,-0.69493 h -0.64337 c -0.35385,0 -0.73626,0.1503 -0.8498,0.33401 l -0.20644,0.33402 0.39558,0.47664 0.39557,0.47664 0.35198,-0.11572 c 0.19358,-0.0636 0.39799,-0.42844 0.45423,-0.81066 z m 24.37774,1.3596 c 0,-0.15602 3.04755,-4.22559 5.26534,-7.0311347 l 0.62535,-0.79107 -0.37913,-1.417518 c -0.57395,-2.145916 -0.57579,-2.165778 -0.21359,-2.300801 l 0.33797,-0.125989 0.4116,1.605989 0.4116,1.60599 0.37043,-0.005 c 0.74124,-0.01 8.49642,-2.136717 9.89043,-2.712265 l 0.56,-0.231209 v 0.44346 0.443459 l -2.8,0.760252 c -1.54,0.418139 -3.62346,1.025988 -4.62991,1.350777 -1.00644,0.324789 -2.11453,0.590525 -2.46241,0.590525 h -0.63252 l -1.37758,1.738115 c -0.75767,0.9559627 -2.15867,2.7559597 -3.11333,3.9999997 -1.53423,1.99929 -2.26425,2.66875 -2.26425,2.07641 z M 8.7237381,13.739069 v -1.28 h 0.32 c 0.176,0 0.32,0.144 0.32,0.32 v 0.32 h 0.48 0.4799999 v -0.32 c 0,-0.176 0.144,-0.32 0.32,-0.32 h 0.32 v 1.28 1.28 h -0.32 -0.32 v -0.64 -0.64 h -0.4799999 -0.48 v 0.64 0.64 h -0.32 -0.32 z m 2.7608469,0.79105 c -0.110466,-0.28787 -0.200847,-0.79455 -0.200847,-1.12597 v -0.60257 l 0.64,-0.34251 0.64,-0.34252 0.658689,0.35252 0.658689,0.35252 -0.09869,1.01874 -0.09869,1.01874 -0.999153,0.0972 -0.999152,0.0972 z m 1.719153,-0.77217 c 0,-0.34161 -0.157818,-0.71865 -0.350708,-0.83786 l -0.350707,-0.21675 -0.487156,0.48715 -0.487157,0.48716 0.21675,0.35071 c 0.119212,0.19289 0.49625,0.35071 0.837863,0.35071 h 0.621115 z m 153.508502,1.06295 c -0.12568,-0.12568 -0.2285,-0.63143 -0.2285,-1.12391 v -0.89541 l 0.64,-0.34251 0.64,-0.34252 0.65869,0.35252 0.65869,0.35252 -0.0987,1.01874 -0.0987,1.01874 -0.9715,0.0952 c -0.53433,0.0523 -1.07433,-0.008 -1.2,-0.13334 z m 1.63376,-1.16183 -0.10226,-0.72 h -0.48 -0.48 l -0.10226,0.72 -0.10225,0.72 h 0.68451 0.68451 z m 73.23484,0.60223 -0.49651,-0.75777 0.47785,-0.68223 0.47785,-0.68223 h 0.57226 0.57226 l 0.52959,0.58519 c 0.29128,0.32186 0.5296,0.73154 0.5296,0.91041 0,0.47805 -1.09228,1.3844 -1.66839,1.3844 h -0.498 z m 1.80964,-0.33884 0.17522,-0.4566 -0.46098,-0.38258 -0.46098,-0.38258 -0.46098,0.38258 -0.46098,0.38258 0.17522,0.4566 0.17521,0.45661 h 0.57153 0.57153 z m -199.132124,0.31422 -0.383747,-0.46239 0.104565,-0.70493 0.104564,-0.70493 0.56,-0.35105 0.56,-0.35104 0.538614,0.33975 c 0.296238,0.18686 0.686184,0.5737 0.866548,0.85963 l 0.327934,0.51988 -0.596144,0.65873 -0.596144,0.65874 h -0.551222 c -0.303172,0 -0.723907,-0.20808 -0.934968,-0.46239 z m 1.527638,-1.08268 0.102257,-0.69493 h -0.463074 c -0.254691,0 -0.62128,0.19062 -0.814643,0.42361 l -0.351568,0.42361 0.380386,0.38039 c 0.526532,0.52653 1.024848,0.29504 1.146642,-0.53268 z m 153.871076,1.33173 c -0.11733,-0.11733 -0.21333,-0.61626 -0.21333,-1.10874 v -0.89541 l 0.64,-0.34251 0.64,-0.34252 0.64,0.34252 0.64,0.34251 v 0.72475 c 0,0.3986 -0.1728,0.89754 -0.384,1.10874 -0.41392,0.41392 -1.61497,0.51836 -1.96267,0.17066 z m 1.54667,-1.23105 v -0.63561 h -0.48 -0.48 l -0.10599,0.74846 -0.10598,0.74847 0.58598,-0.11285 0.58599,-0.11285 z m -200.38728187,0.48439 -0.167364,-0.64 h -0.442678 -0.4426778 v 0.48 0.48 h -0.32 -0.32 v -1.10112 -1.10111 l 0.32,-0.19777 0.32,-0.19777 v 0.49888 0.49889 h 0.3647224 c 0.2005974,0 0.5560174,-0.252 0.7898224,-0.56 l 0.42510097,-0.56 0.01018,1.52 c 0.01054,1.57438 -0.245721,1.99424 -0.53710297,0.88 z m 1.57127997,0.256 c -0.2112,-0.2112 -0.384,-0.69757 -0.384,-1.08082 v -0.69682 l 0.464628,-0.38561 0.464627,-0.3856 0.56876,0.10953 0.56876,0.10953 0.301662,0.85778 0.301662,0.85777 -0.414232,0.49912 c -0.493868,0.59507 -1.339881,0.6471 -1.871867,0.11512 z m 1.376,-1.056 v -0.63124 l -0.56,-0.10784 -0.56,-0.10785 v 0.84693 0.84692 l 0.56,-0.10784 0.56,-0.10785 z m 64.0994619,-0.08 -0.47973,-0.56 0.203252,-0.8 0.203252,-0.8 0.724496,-0.10457 0.724495,-0.104563 0.462386,0.383743 c 0.254313,0.21106 0.462387,0.6318 0.462387,0.93497 v 0.55122 l -0.585197,0.5296 c -0.744818,0.67405 -1.117521,0.66745 -1.715341,-0.0304 z m 1.500538,-0.88 v -0.63124 l -0.56,-0.10784 -0.56,-0.10785 v 0.84693 0.84692 l 0.56,-0.10784 0.56,-0.10785 z m 162.449072,0.24 -0.29344,-0.56 0.2745,-0.7271 c 0.15097,-0.399898 0.49932,-0.813363 0.7741,-0.918807 l 0.49961,-0.1917167 0.62808,0.5684057 0.62808,0.568408 v 0.57914 0.57915 l -0.61896,0.33126 c -0.34043,0.18219 -0.83937,0.33126 -1.10874,0.33126 h -0.48978 z m 1.72991,-0.43071 0.21675,-0.35071 -0.51558,-0.51558 -0.51558,-0.515576 -0.36477,0.364776 -0.36478,0.36478 0.19245,0.50151 0.19244,0.50151 h 0.47116 c 0.25914,0 0.5687,-0.15782 0.68791,-0.35071 z m -199.207769,0.0517 -0.331304,-0.61905 0.312125,-0.820952 0.312125,-0.8209517 h 0.743921 0.74392 l 0.384,0.384 c 0.531479,0.5314787 0.480029,1.3942537 -0.118857,1.9931437 l -0.502857,0.50286 H 35.27214 34.666256 Z m 1.402615,-0.21519 0.506172,-0.19424 v -0.4558 -0.45581 l -0.512296,-0.196587 -0.512296,-0.196586 -0.258097,0.417611 -0.258098,0.417612 0.16463,0.42902 c 0.18909,0.49276 0.194149,0.49412 0.869985,0.23478 z m 54.450055,-3.2993747 -0.555312,-0.613611 0.105715,-0.713708 0.105714,-0.713708 0.560003,-0.351044 0.56,-0.351044 0.56,0.351044 0.56,0.351044 0.10571,0.713708 0.10572,0.713708 -0.55531,0.613611 c -0.69192,0.764559 -0.86032,0.764559 -1.55224,0 z m 1.41612,-1.166686 c 0,-0.232063 -0.15031,-0.514827 -0.33402,-0.628366 l -0.33402,-0.206434 -0.45165,0.374837 -0.451652,0.374838 0.372482,0.596442 0.37249,0.596442 0.41318,-0.342913 c 0.22725,-0.188603 0.41319,-0.532783 0.41319,-0.764846 z m 30.719999,0.180297 -0.34252,-0.64 0.34252,-0.64 0.34252,-0.64 h 0.74956 0.74956 l 0.39491,0.475845 0.39492,0.475844 -0.20183,0.804156 -0.20183,0.804155 h -0.94265 -0.94264 z m 1.77898,-0.929292 c -0.27477,-0.444581 -1.03718,-0.454312 -1.30764,-0.01669 l -0.20644,0.334017 0.40006,0.482043 0.40006,0.482043 0.46535,-0.465353 0.46536,-0.465353 z m 31.35269,0.302186 -0.56752,-0.627105 0.19867,-0.791567 0.19867,-0.791566 0.65461,-0.207766 0.65461,-0.207766 0.45225,0.375336 c 0.24874,0.206434 0.54281,0.660651 0.65349,1.00937 l 0.20124,0.634035 -0.55844,0.617067 c -0.70728,0.781531 -1.17346,0.779052 -1.88758,-0.01004 z m 1.42833,-0.972894 v -0.96 h -0.44576 -0.44577 l -0.18419,0.48 c -0.10131,0.264 -0.10131,0.696 0,0.96 l 0.18419,0.48 h 0.44577 0.44576 z m -87.682442,0.47706 -0.427659,-0.515298 0.301489,-0.860881 0.301489,-0.860881 0.661562,-0.09544 0.661563,-0.09544 0.39512,0.476091 0.395121,0.476092 -0.103123,0.899351 -0.103122,0.899351 -0.827391,0.09618 -0.82739,0.09618 z m 1.615769,-0.33312 0.411693,-0.49606 -0.530225,-0.530226 -0.530226,-0.530225 -0.354073,0.354073 -0.354074,0.354074 0.213352,0.672212 c 0.253722,0.799407 0.584066,0.850292 1.143553,0.176152 z m 1.344423,0.445812 c -0.218763,-0.218763 -0.397752,-0.634634 -0.397752,-0.924156 v -0.526404 l 0.617068,-0.558438 0.617067,-0.558439 0.680629,0.216023 0.680629,0.216023 -0.0977,1.17282 -0.0977,1.172819 -0.802248,0.09375 -0.802247,0.09375 z m 1.692472,-0.621964 0.213352,-0.672212 -0.354074,-0.354074 -0.354073,-0.354073 -0.530226,0.530225 -0.530225,0.530226 0.411693,0.49606 c 0.559487,0.67414 0.889831,0.623255 1.143553,-0.176152 z m 1.04537,0.178647 -0.370685,-0.813566 0.659935,-0.659935 0.659936,-0.659936 0.67761,0.215065 c 0.372685,0.118286 0.67761,0.352105 0.67761,0.519598 v 0.304532 l -0.797018,-0.200038 -0.797019,-0.200039 -0.198781,0.518017 -0.198782,0.518017 0.398257,0.479871 0.398257,0.479871 0.445276,-0.369546 c 0.503152,-0.417579 0.924431,-0.179775 0.602968,0.340364 l -0.210929,0.34129 h -0.787975 -0.787975 z m 112.954858,-0.01129 -0.37583,-0.824851 0.33699,-0.535149 c 0.18534,-0.294332 0.58047,-0.58304 0.87806,-0.641573 l 0.54108,-0.106424 0.46462,0.385606 0.46463,0.385607 v 0.886581 0.886581 l -0.50617,0.194237 c -0.2784,0.10683 -0.71348,0.194236 -0.96686,0.194236 h -0.46069 z m 1.61956,-0.634641 c -0.0605,-0.312111 -0.28993,-0.627381 -0.50984,-0.700601 l -0.39983,-0.133128 -0.19597,0.510686 -0.19597,0.510685 0.40624,0.489487 0.40624,0.489487 0.29957,-0.299571 0.29957,-0.299572 z m -88.81729,0.499492 -0.16736,-0.64 h -0.44268 -0.442679 v 0.48 0.48 h -0.32 -0.32 v -1.28 -1.28 h 0.32 0.32 v 0.64 0.64 h 0.34996 0.349959 l 0.16736,-0.64 c 0.0921,-0.352 0.29457,-0.64 0.45004,-0.64 h 0.28268 v 1.44 c 0,1.507472 -0.26209,1.890583 -0.54728,0.8 z m 1.26354,0.268263 -0.39626,-0.396263 v -0.861763 -0.861764 l 0.50617,-0.194236 c 0.2784,-0.106831 0.77965,-0.194237 1.11391,-0.194237 h 0.60773 l 0.21321,0.849529 0.21322,0.849528 -0.3198,0.510472 c -0.17589,0.280759 -0.59478,0.551989 -0.93086,0.602734 l -0.61105,0.09226 z m 1.47694,-0.691877 0.35157,-0.423614 -0.37638,-0.376386 c -0.20702,-0.207048 -0.56359,-0.376422 -0.79239,-0.376422 h -0.416 v 0.586667 c 0,1.020671 0.62679,1.320403 1.2332,0.589719 z m 1.50966,0.560757 c -0.27657,-0.276572 -0.50286,-0.762939 -0.50286,-1.080818 v -0.57796 l 0.46239,-0.383747 0.46238,-0.383747 0.73762,0.104565 0.73761,0.104564 0.10374,1.086443 0.10374,1.086444 -0.42374,0.268656 c -0.63241,0.400957 -1.12072,0.335767 -1.68088,-0.2244 z m 1.67712,-0.861785 0.10732,-0.557293 -0.52516,-0.201523 -0.52516,-0.201523 -0.34098,0.340981 -0.34098,0.340981 0.20152,0.52516 0.20152,0.525159 0.5573,-0.107325 0.55729,-0.107324 z m 1.20288,0.861785 c -0.27657,-0.276572 -0.50286,-0.762939 -0.50286,-1.080818 v -0.57796 l 0.46239,-0.383747 0.46238,-0.383747 0.71255,0.104565 0.71255,0.104564 0.13638,0.413957 0.13639,0.413958 -0.82834,-0.2079 -0.82834,-0.207899 -0.20547,0.535451 -0.20547,0.535452 0.32813,0.328136 0.32814,0.328135 0.67436,-0.360904 0.67435,-0.360904 v 0.267259 c 0,0.399566 -0.71299,1.035259 -1.16114,1.035259 -0.21623,0 -0.61943,-0.226286 -0.896,-0.502857 z m 112.98674,-0.40234 c -0.62537,-0.691024 -0.67777,-1.378637 -0.1456,-1.910803 l 0.384,-0.384 h 0.74286 0.74286 l 0.36391,0.7987 0.36391,0.7987 -0.58036,0.6413 c -0.7196,0.795146 -1.19,0.809247 -1.87158,0.0561 z m 1.49714,-1.198199 c -0.20443,-0.532742 -0.93699,-0.605432 -1.2354,-0.122586 l -0.20644,0.334017 0.39001,0.469929 0.39,0.469928 0.41853,-0.347342 0.41852,-0.347342 z m -198.571706,0.899396 -0.544964,-0.117136 -0.192764,-0.607345 -0.192763,-0.607344 0.348986,-0.652088 0.348987,-0.652087 h 0.777482 0.777482 l 0.348987,0.652087 0.348986,0.652088 -0.188325,0.593362 -0.188326,0.593362 -0.549402,0.131118 c -0.302171,0.07211 -0.794636,0.07841 -1.094366,0.01398 z m 1.203942,-0.746708 0.21675,-0.350707 -0.515578,-0.515578 -0.515579,-0.515578 -0.364776,0.364776 -0.364776,0.364776 0.192447,0.50151 0.192448,0.501509 h 0.471157 c 0.259137,0 0.568695,-0.157818 0.687907,-0.350708 z m 228.346224,0.395904 -0.64429,-0.644287 0.37954,-0.817958 0.37955,-0.817958 0.80303,-0.0025 0.80302,-0.0025 0.41219,0.660016 0.41218,0.660015 -0.19677,0.619985 c -0.10823,0.340991 -0.3193,0.619984 -0.46904,0.619984 -0.14975,0 -0.48891,0.08313 -0.7537,0.184742 l -0.48143,0.184742 z m 1.51956,-0.482739 0.36313,-0.437543 -0.48394,-0.401639 -0.48395,-0.40164 -0.48395,0.40164 -0.48394,0.401639 0.36313,0.437543 c 0.19972,0.240649 0.47186,0.437543 0.60476,0.437543 0.1329,0 0.40504,-0.196894 0.60476,-0.437543 z M 131.92374,3.8190653 v -1.28 h 0.32 0.32 v 0.48 0.48 h 0.48 0.48 v -0.533333 -0.533334 l 0.23018,0.230179 c 0.1266,0.126599 0.24742,0.726599 0.26849,1.333334 l 0.0383,1.103154 h -0.26848 c -0.14767,0 -0.26849,-0.216 -0.26849,-0.48 v -0.48 h -0.48 -0.48 v 0.48 0.48 h -0.32 -0.32 z m 2.58241,0.681871 -0.34011,-0.635508 0.1965,-0.512071 c 0.10807,-0.281639 0.47953,-0.663548 0.82547,-0.848687 l 0.62897,-0.336616 0.62853,0.568809 0.62852,0.568809 -0.0951,0.816697 -0.0951,0.816696 -1.01874,0.09869 -1.01874,0.09869 z m 1.79139,-0.226684 0.19372,-0.504813 -0.512,-0.512 -0.512,-0.512 -0.206,0.536813 -0.20599,0.536813 0.18419,0.48 c 0.24077,0.627442 0.81294,0.614024 1.05808,-0.02481 z m 1.36242,0.584813 c -0.0131,-0.132 -0.0829,-0.55586 -0.15523,-0.941911 l -0.13145,-0.701911 0.49809,-0.498089 c 0.65577,-0.655774 0.98709,-0.628363 1.64138,0.135798 l 0.54276,0.633887 0.68437,-0.642933 0.68437,-0.642933 0.52974,0.203282 0.52975,0.203283 v 0.457022 0.457023 l -0.64475,-0.345059 -0.64475,-0.345058 -0.18948,0.493799 -0.18949,0.4938 0.18949,0.4938 0.18948,0.493799 0.64475,-0.345058 0.64475,-0.345059 v 0.491259 0.491259 h -0.93333 -0.93334 l -0.14666,-0.4 -0.14667,-0.4 -0.424,0.4 -0.424,0.4 h -0.896 c -0.4928,0 -0.9067,-0.108 -0.91978,-0.24 z m 1.59564,-0.526097 0.37023,-0.446097 -0.51684,-0.516844 -0.51685,-0.516844 -0.2942,0.181826 c -0.3408,0.210625 -0.39399,1.217595 -0.0809,1.530723 0.32597,0.325962 0.6317,0.257438 1.03853,-0.232764 z m -83.651862,-0.193903 -0.203128,-0.64 0.192162,-0.605449 0.192162,-0.60545 0.608701,-0.159178 0.6087,-0.159179 0.660701,0.462773 0.660702,0.462774 v 0.557854 c 0,0.30682 -0.1728,0.730655 -0.384,0.941855 l -0.384,0.384 h -0.874436 -0.874436 z m 1.928663,-0.334017 0.206435,-0.334018 -0.383807,-0.462459 -0.383807,-0.462459 -0.283742,0.175362 c -0.156058,0.09645 -0.283742,0.454864 -0.283742,0.796477 v 0.621114 h 0.461115 c 0.253613,0 0.55401,-0.150308 0.667548,-0.334017 z m 108.631339,0.512903 c 0,-0.253613 -0.16296,-0.561831 -0.36214,-0.684928 l -0.36213,-0.223813 -0.29753,0.531658 c -0.4326,0.773 -0.78289,0.392651 -0.75898,-0.824091 l 0.0208,-1.057712 0.32,0.08 c 0.176,0.044 0.32,0.248 0.32,0.453333 0,0.205334 0.18018,0.433393 0.4004,0.5068 l 0.4004,0.133466 0.29931,-0.7468 0.29932,-0.746799 0.0203,1.52 c 0.0112,0.836 -0.0517,1.52 -0.13972,1.52 -0.088,0 -0.16,-0.207501 -0.16,-0.461114 z m 1.13157,-0.166099 -0.59311,-0.655387 0.37347,-0.819694 0.37348,-0.819694 0.8773,0.100994 0.87729,0.100994 v 1.28 1.28 l -0.65766,0.09409 -0.65765,0.09409 z m 1.68841,-0.737429 0.10732,-0.557293 -0.52516,-0.201523 -0.52516,-0.201523 -0.34098,0.340981 -0.34098,0.340981 0.20152,0.52516 0.20152,0.525159 0.5573,-0.107325 0.55729,-0.107324 z m 1.40402,0.980642 c -0.2112,-0.2112 -0.384,-0.6864 -0.384,-1.056 0,-1.304674 1.43654,-1.928114 2.2326,-0.968921 l 0.39096,0.471079 0.4881,-0.488109 0.48811,-0.488108 0.65505,0.09703 0.65505,0.09703 0.13638,0.413957 0.13639,0.413958 -0.83132,-0.208647 -0.83132,-0.208648 v 0.655805 c 0,0.360693 0.15031,0.748701 0.33402,0.862239 l 0.33402,0.206435 0.50289,-0.417363 0.50289,-0.417362 -0.12059,0.626139 -0.12058,0.626139 -0.58013,0.111723 -0.58014,0.111724 -0.64243,-0.581389 -0.64242,-0.581388 -0.30967,0.553339 -0.30966,0.55334 h -0.5601 c -0.30806,0 -0.7329,-0.1728 -0.9441,-0.384 z m 1.376,-1.078284 v -0.608951 l -0.56,-0.107846 -0.56,-0.107846 v 0.61013 c 0,0.723101 0.30873,1.093888 0.78,0.936797 l 0.34,-0.113333 z m 27,0.662284 c -0.022,-0.088 -0.058,-0.34 -0.08,-0.56 l -0.04,-0.4 h -0.48 -0.48 l 0.08,0.4 0.08,0.4 h -0.48 -0.48 v -1.101114 -1.101115 l 0.32,-0.197771 0.32,-0.197771 v 0.498886 0.498885 h 0.65889 0.65888 l -0.1841,-0.297888 -0.18411,-0.297889 0.32522,-0.200997 0.32522,-0.200997 v 1.458886 c 0,0.802387 -0.072,1.458885 -0.16,1.458885 -0.088,0 -0.178,-0.072 -0.2,-0.16 z M 200.16,3.7673283 c -0.21794,-0.217945 -0.39626,-0.705145 -0.39626,-1.082667 v -0.686404 l 0.59372,-0.537311 0.59372,-0.537311 0.52904,0.203011 0.52904,0.203012 0.20436,0.814232 0.20436,0.814232 -0.3198,0.510472 c -0.17589,0.280759 -0.59478,0.551989 -0.93086,0.602734 l -0.61105,0.09226 z m 1.43473,-0.627257 0.359,-0.358993 -0.16923,-0.441006 -0.16923,-0.441007 h -0.60577 -0.60576 v 0.8 0.8 h 0.416 c 0.2288,0 0.57755,-0.161547 0.77499,-0.358994 z m -201.80933397,-0.841006 -0.021658,-1.36 h 0.32 0.3199998 v 0.48 0.48 h 0.456536 0.45653697 l 0.146343,-0.56 0.146343,-0.56 0.01684,1.44 0.01684,1.44 -0.289405,-0.72 c -0.36751897,-0.914339 -0.75850097,-0.914339 -1.19946997,0 l -0.3472424,0.72 z m 2.92234207,0.816 c -0.2112,-0.2112 -0.384,-0.697568 -0.384,-1.080818 v -0.696817 l 0.441076,-0.366061 0.441077,-0.366061 0.838923,0.318958 0.838924,0.318959 v 0.48792 c 0,0.268356 0.128,0.48792 0.284445,0.48792 h 0.284444 l -0.04444,-0.515715 -0.04445,-0.515715 0.56,-0.362648 0.56,-0.362648 0.56,0.351044 0.56,0.351044 0.104565,0.704932 0.104564,0.704933 -0.383747,0.462387 c -0.21106,0.254312 -0.636482,0.462386 -0.945382,0.462386 h -0.561635 l -0.405065,-0.488073 -0.405065,-0.488073 -0.539314,0.488073 c -0.648284,0.586688 -1.343508,0.625486 -1.86492,0.104073 z m 4.416,-0.914885 v -0.621115 h -0.64 -0.64 v 0.613333 0.613334 l 0.4,0.143484 c 0.583109,0.209167 0.88,-0.04354 0.88,-0.749036 z m -2.88,0.01889 v -0.64 h -0.64 -0.64 v 0.426667 c 0,0.543201 0.310132,0.853333 0.853333,0.853333 h 0.426667 z m 4.197446,0.571935 c -0.144062,-0.389436 -0.195874,-0.960667 -0.115137,-1.269402 l 0.146792,-0.561337 0.602586,-0.191253 0.602586,-0.191253 0.3228629,0.19954 c 0.177575,0.109748 0.322864,0.335043 0.322864,0.500656 v 0.301114 h -0.7999999 -0.8 v 0.490043 0.490043 l 0.54081,0.207528 0.540809,0.207529 0.126522,-0.379565 0.1265219,-0.379565 0.308207,0.190482 0.308207,0.190483 -0.374721,0.451511 -0.3747209,0.451511 H 9.3142441 8.7031151 Z M 231.33707,3.2857373 c -0.11733,-0.117334 -0.21333,-0.472814 -0.21333,-0.789957 v -0.576624 l -0.48,0.184194 -0.48,0.184193 v 0.445764 c 0,0.245169 -0.144,0.445763 -0.32,0.445763 h -0.32 v -1.066667 c 0,-0.586666 0.0938,-1.160428 0.20836,-1.275026 l 0.20836,-0.208359 0.41185,0.555026 0.41186,0.555026 0.48961,-0.64 0.48961,-0.64 0.0102,1.52 c 0.0103,1.542802 -0.0358,1.687397 -0.41649,1.306667 z m 1.45067,-0.170667 -0.384,-0.384 v -0.889903 -0.889904 l 0.80416,-0.20183 0.80415,-0.20183 0.47585,0.394916 0.47584,0.394916 v 0.696817 c 0,1.273892 -1.32487,1.931952 -2.176,1.080818 z m 1.50076,-0.693543 0.36313,-0.437543 -0.49751,-0.412895 -0.4975,-0.412895 -0.34893,0.348929 -0.34893,0.348928 0.19245,0.50151 c 0.23702,0.617676 0.6581,0.641359 1.13729,0.06397 z m 1.32986,0.615157 -0.38375,-0.462387 0.10457,-0.704933 0.10456,-0.704932 0.56,-0.351044 0.56,-0.351044 0.56,0.351044 0.56,0.351044 0.10456,0.704932 0.10457,0.704933 -0.38375,0.462387 c -0.49193,0.592739 -1.39883,0.592739 -1.89076,0 z m 1.47791,-0.679123 0.19245,-0.50151 -0.36249,-0.36249 -0.36249,-0.362491 -0.36249,0.362491 -0.36249,0.36249 0.19245,0.50151 c 0.10584,0.27583 0.34548,0.501509 0.53253,0.501509 0.18705,0 0.42669,-0.225679 0.53253,-0.501509 z m 1.45147,0.757509 c -0.2112,-0.2112 -0.384,-0.697568 -0.384,-1.080818 v -0.696817 l 0.46463,-0.385607 0.46462,-0.385606 0.54886,0.106424 c 0.30187,0.05853 0.61383,0.301535 0.69323,0.540005 l 0.14438,0.43358 -0.67944,-0.215645 -0.67943,-0.215645 -0.20092,0.523574 -0.20091,0.523574 0.34893,0.348929 0.34893,0.348928 0.443,-0.367662 0.44301,-0.367661 0.20778,0.20778 0.20778,0.207781 -0.35641,0.429443 c -0.44227,0.532909 -1.30496,0.55452 -1.81404,0.04544 z m -203.024002,-0.281632 -0.56,-0.32617 v -0.938002 -0.938003 l 0.804156,-0.20183 0.804155,-0.20183 0.42037,0.348876 0.42037,0.348877 0.989821,-0.373616 0.989821,-0.373616 0.452536,0.375572 0.452537,0.375572 -0.08022,0.724901 c -0.04412,0.398696 -0.09222,0.823197 -0.106883,0.943337 -0.01466,0.12014 -0.324983,0.313119 -0.689595,0.428843 l -0.662933,0.210406 -0.603031,-0.545736 -0.603032,-0.545736 -0.516893,0.516894 c -0.597425,0.597425 -0.749844,0.614699 -1.511179,0.171261 z m 1.36,-1.254368 v -0.64 h -0.64 -0.64 v 0.64 0.64 h 0.64 0.64 z m 2.819789,0.08367 -0.107138,-0.556325 -0.556326,-0.107139 -0.556325,-0.107138 v 0.663463 0.663464 h 0.663464 0.663463 z m 1.352677,0.815985 c -0.803691,-0.862661 -0.806256,-0.98129 -0.03627,-1.678113 l 0.616191,-0.557645 0.557292,0.108049 c 0.30651,0.05943 0.617257,0.288147 0.690548,0.508267 l 0.133256,0.400217 -0.510814,-0.196017 -0.510814,-0.196018 -0.504821,0.418964 -0.504821,0.418964 0.562642,0.411413 0.562641,0.411414 0.426255,-0.35376 0.426254,-0.353759 v 0.484945 0.484946 l -0.506172,0.194237 c -0.698002,0.267848 -0.671349,0.277474 -1.401362,-0.506104 z m -8.732466,0.195714 c -0.132,-0.133122 -0.24,-0.641542 -0.24,-1.129822 v -0.887781 l 0.32,-0.197771 0.32,-0.197771 v 0.498886 0.498885 h 0.464099 0.464099 l 0.32617,-0.56 0.32617,-0.56 -0.02739,1.44 -0.02739,1.44 -0.146343,-0.56 -0.146343,-0.56 h -0.593073 -0.593073 l -0.103463,0.508708 -0.103464,0.508707 z"
       id="path1" />
  </g>
</svg>
