<?xml version="1.0" encoding="UTF-8" standalone="no"?>
<!-- Created with Inkscape (http://www.inkscape.org/) -->

<svg
   width="129.01497mm"
   height="29.779127mm"
   viewBox="0 0 129.01497 29.779127"
   version="1.1"
   id="svg1"
   xml:space="preserve"
   inkscape:version="1.4.2 (f4327f4, 2025-05-13)"
   sodipodi:docname="triethanolaminestearate.svg"
   xmlns:inkscape="http://www.inkscape.org/namespaces/inkscape"
   xmlns:sodipodi="http://sodipodi.sourceforge.net/DTD/sodipodi-0.dtd"
   xmlns="http://www.w3.org/2000/svg"
   xmlns:svg="http://www.w3.org/2000/svg"><sodipodi:namedview
     id="namedview1"
     pagecolor="#ffffff"
     bordercolor="#000000"
     borderopacity="0.25"
     inkscape:showpageshadow="2"
     inkscape:pageopacity="0.0"
     inkscape:pagecheckerboard="0"
     inkscape:deskcolor="#d1d1d1"
     inkscape:document-units="mm"
     inkscape:zoom="1.5162318"
     inkscape:cx="330.75418"
     inkscape:cy="105.195"
     inkscape:window-width="1920"
     inkscape:window-height="1111"
     inkscape:window-x="-9"
     inkscape:window-y="-9"
     inkscape:window-maximized="1"
     inkscape:current-layer="layer1" /><defs
     id="defs1" /><g
     inkscape:label="Laag 1"
     inkscape:groupmode="layer"
     id="layer1"
     transform="translate(-26.6323,-88.900979)"><g
       id="g3"><g
         id="g1"
         transform="matrix(0.30789363,0,0,0.2926285,25.862676,103.23605)"><g
           id="line4"
           style="opacity:1"><path
             style="baseline-shift:baseline;display:inline;overflow:visible;vector-effect:none;stroke-linecap:round;enable-background:accumulate;stop-color:#000000;stop-opacity:1"
             d="M 3,48 26,35"
             id="path5" /><path
             style="baseline-shift:baseline;display:inline;overflow:visible;vector-effect:none;stroke-linecap:round;enable-background:accumulate;stop-color:#000000;stop-opacity:1"
             d="m 25.753906,34.564453 -22.9999997,13 a 0.5,0.5 0 0 0 -0.1894532,0.681641 0.5,0.5 0 0 0 0.6816407,0.189453 l 23.0000002,-13 a 0.5,0.5 0 0 0 0.189453,-0.681641 0.5,0.5 0 0 0 -0.681641,-0.189453 z"
             id="path6" /></g><g
           id="line6"
           style="opacity:1"><path
             style="baseline-shift:baseline;display:inline;overflow:visible;vector-effect:none;stroke-linecap:round;enable-background:accumulate;stop-color:#000000;stop-opacity:1"
             d="M 26,35 48,48"
             id="path7" /><path
             style="baseline-shift:baseline;display:inline;overflow:visible;vector-effect:none;stroke-linecap:round;enable-background:accumulate;stop-color:#000000;stop-opacity:1"
             d="m 26.253906,34.570312 a 0.5,0.5 0 0 0 -0.683594,0.175782 0.5,0.5 0 0 0 0.175782,0.683593 l 22,13 a 0.5,0.5 0 0 0 0.683593,-0.175781 0.5,0.5 0 0 0 -0.175781,-0.683594 z"
             id="path8" /></g><g
           id="line8"
           style="opacity:1"><path
             style="baseline-shift:baseline;display:inline;overflow:visible;vector-effect:none;stroke-linecap:round;enable-background:accumulate;stop-color:#000000;stop-opacity:1"
             d="M 48,48 71,35"
             id="path9" /><path
             style="baseline-shift:baseline;display:inline;overflow:visible;vector-effect:none;stroke-linecap:round;enable-background:accumulate;stop-color:#000000;stop-opacity:1"
             d="m 70.753906,34.564453 -23,13 a 0.5,0.5 0 0 0 -0.189453,0.681641 0.5,0.5 0 0 0 0.681641,0.189453 l 23,-13 a 0.5,0.5 0 0 0 0.189453,-0.681641 0.5,0.5 0 0 0 -0.681641,-0.189453 z"
             id="path10" /></g><g
           id="line10"
           style="opacity:1"><path
             style="baseline-shift:baseline;display:inline;overflow:visible;vector-effect:none;stroke-linecap:round;enable-background:accumulate;stop-color:#000000;stop-opacity:1"
             d="M 71,35 93,48"
             id="path11" /><path
             style="baseline-shift:baseline;display:inline;overflow:visible;vector-effect:none;stroke-linecap:round;enable-background:accumulate;stop-color:#000000;stop-opacity:1"
             d="m 71.253906,34.570312 a 0.5,0.5 0 0 0 -0.683594,0.175782 0.5,0.5 0 0 0 0.175782,0.683593 l 22,13 a 0.5,0.5 0 0 0 0.683593,-0.175781 0.5,0.5 0 0 0 -0.175781,-0.683594 z"
             id="path12" /></g><g
           id="line12"
           style="opacity:1"><path
             style="baseline-shift:baseline;display:inline;overflow:visible;vector-effect:none;stroke-linecap:round;enable-background:accumulate;stop-color:#000000;stop-opacity:1"
             d="M 93,48 116,35"
             id="path13" /><path
             style="baseline-shift:baseline;display:inline;overflow:visible;vector-effect:none;stroke-linecap:round;enable-background:accumulate;stop-color:#000000;stop-opacity:1"
             d="m 115.75391,34.564453 -23.000004,13 a 0.5,0.5 0 0 0 -0.189453,0.681641 0.5,0.5 0 0 0 0.681641,0.189453 l 22.999996,-13 a 0.5,0.5 0 0 0 0.18946,-0.681641 0.5,0.5 0 0 0 -0.68164,-0.189453 z"
             id="path14" /></g><g
           id="line14"
           style="opacity:1"><path
             style="baseline-shift:baseline;display:inline;overflow:visible;vector-effect:none;stroke-linecap:round;enable-background:accumulate;stop-color:#000000;stop-opacity:1"
             d="m 116,35 22,13"
             id="path15" /><path
             style="baseline-shift:baseline;display:inline;overflow:visible;vector-effect:none;stroke-linecap:round;enable-background:accumulate;stop-color:#000000;stop-opacity:1"
             d="m 116.25391,34.570312 a 0.5,0.5 0 0 0 -0.6836,0.175782 0.5,0.5 0 0 0 0.17578,0.683593 l 22,13 a 0.5,0.5 0 0 0 0.6836,-0.175781 0.5,0.5 0 0 0 -0.17578,-0.683594 z"
             id="path16" /></g><g
           id="line16"
           style="opacity:1"><path
             style="baseline-shift:baseline;display:inline;overflow:visible;vector-effect:none;stroke-linecap:round;enable-background:accumulate;stop-color:#000000;stop-opacity:1"
             d="M 138,48 161,35"
             id="path17" /><path
             style="baseline-shift:baseline;display:inline;overflow:visible;vector-effect:none;stroke-linecap:round;enable-background:accumulate;stop-color:#000000;stop-opacity:1"
             d="m 161.13477,34.517578 a 0.5,0.5 0 0 0 -0.38086,0.04687 l -23,13 a 0.5,0.5 0 0 0 -0.18946,0.681641 0.5,0.5 0 0 0 0.68164,0.189453 l 23,-13 a 0.5,0.5 0 0 0 0.18946,-0.681641 0.5,0.5 0 0 0 -0.30078,-0.236328 z"
             id="path18" /></g><g
           id="line18"
           style="opacity:1"><path
             style="baseline-shift:baseline;display:inline;overflow:visible;vector-effect:none;stroke-linecap:round;enable-background:accumulate;stop-color:#000000;stop-opacity:1"
             d="m 161,35 22,13"
             id="path19" /><path
             style="baseline-shift:baseline;display:inline;overflow:visible;vector-effect:none;stroke-linecap:round;enable-background:accumulate;stop-color:#000000;stop-opacity:1"
             d="m 161.25391,34.570312 a 0.5,0.5 0 0 0 -0.6836,0.175782 0.5,0.5 0 0 0 0.17578,0.683593 l 22,13 a 0.5,0.5 0 0 0 0.6836,-0.175781 0.5,0.5 0 0 0 -0.17578,-0.683594 z"
             id="path20" /></g><g
           id="line20"
           style="opacity:1"><path
             style="baseline-shift:baseline;display:inline;overflow:visible;vector-effect:none;stroke-linecap:round;enable-background:accumulate;stop-color:#000000;stop-opacity:1"
             d="M 183,48 206,35"
             id="path21" /><path
             style="baseline-shift:baseline;display:inline;overflow:visible;vector-effect:none;stroke-linecap:round;enable-background:accumulate;stop-color:#000000;stop-opacity:1"
             d="m 206.13477,34.517578 a 0.5,0.5 0 0 0 -0.38086,0.04687 l -23,13 a 0.5,0.5 0 0 0 -0.18946,0.681641 0.5,0.5 0 0 0 0.68164,0.189453 l 23,-13 a 0.5,0.5 0 0 0 0.18946,-0.681641 0.5,0.5 0 0 0 -0.30078,-0.236328 z"
             id="path22" /></g><g
           id="line22"
           style="opacity:1"><path
             style="baseline-shift:baseline;display:inline;overflow:visible;vector-effect:none;stroke-linecap:round;enable-background:accumulate;stop-color:#000000;stop-opacity:1"
             d="m 206,35 22,13"
             id="path23" /><path
             style="baseline-shift:baseline;display:inline;overflow:visible;vector-effect:none;stroke-linecap:round;enable-background:accumulate;stop-color:#000000;stop-opacity:1"
             d="m 206.25391,34.570312 a 0.5,0.5 0 0 0 -0.6836,0.175782 0.5,0.5 0 0 0 0.17578,0.683593 l 22,13 a 0.5,0.5 0 0 0 0.6836,-0.175781 0.5,0.5 0 0 0 -0.17578,-0.683594 z"
             id="path24" /></g><g
           id="line24"
           style="opacity:1"><path
             style="baseline-shift:baseline;display:inline;overflow:visible;vector-effect:none;stroke-linecap:round;enable-background:accumulate;stop-color:#000000;stop-opacity:1"
             d="M 228,48 251,35"
             id="path25" /><path
             style="baseline-shift:baseline;display:inline;overflow:visible;vector-effect:none;stroke-linecap:round;enable-background:accumulate;stop-color:#000000;stop-opacity:1"
             d="m 251.13477,34.517578 a 0.5,0.5 0 0 0 -0.38086,0.04687 l -23,13 a 0.5,0.5 0 0 0 -0.18946,0.681641 0.5,0.5 0 0 0 0.68164,0.189453 l 23,-13 a 0.5,0.5 0 0 0 0.18946,-0.681641 0.5,0.5 0 0 0 -0.30078,-0.236328 z"
             id="path26" /></g><g
           id="line26"
           style="opacity:1"><path
             style="baseline-shift:baseline;display:inline;overflow:visible;vector-effect:none;stroke-linecap:round;enable-background:accumulate;stop-color:#000000;stop-opacity:1"
             d="m 251,35 22,13"
             id="path27" /><path
             style="baseline-shift:baseline;display:inline;overflow:visible;vector-effect:none;stroke-linecap:round;enable-background:accumulate;stop-color:#000000;stop-opacity:1"
             d="m 251.25391,34.570312 a 0.5,0.5 0 0 0 -0.6836,0.175782 0.5,0.5 0 0 0 0.17578,0.683593 l 22,13 a 0.5,0.5 0 0 0 0.6836,-0.175781 0.5,0.5 0 0 0 -0.17578,-0.683594 z"
             id="path28" /></g><g
           id="line28"
           style="opacity:1"><path
             style="baseline-shift:baseline;display:inline;overflow:visible;vector-effect:none;stroke-linecap:round;enable-background:accumulate;stop-color:#000000;stop-opacity:1"
             d="M 273,48 296,35"
             id="path29" /><path
             style="baseline-shift:baseline;display:inline;overflow:visible;vector-effect:none;stroke-linecap:round;enable-background:accumulate;stop-color:#000000;stop-opacity:1"
             d="m 295.75391,34.564453 -23,13 a 0.5,0.5 0 0 0 -0.18946,0.681641 0.5,0.5 0 0 0 0.68164,0.189453 l 23,-13 a 0.5,0.5 0 0 0 0.18946,-0.681641 0.5,0.5 0 0 0 -0.68164,-0.189453 z"
             id="path30" /></g><g
           id="line30"
           style="opacity:1"><path
             style="baseline-shift:baseline;display:inline;overflow:visible;vector-effect:none;stroke-linecap:round;enable-background:accumulate;stop-color:#000000;stop-opacity:1"
             d="m 296,35 22,13"
             id="path31" /><path
             style="baseline-shift:baseline;display:inline;overflow:visible;vector-effect:none;stroke-linecap:round;enable-background:accumulate;stop-color:#000000;stop-opacity:1"
             d="m 295.875,34.515625 a 0.5,0.5 0 0 0 -0.30469,0.230469 0.5,0.5 0 0 0 0.17578,0.683593 l 22,13 a 0.5,0.5 0 0 0 0.6836,-0.175781 0.5,0.5 0 0 0 -0.17578,-0.683594 l -22,-13 a 0.5,0.5 0 0 0 -0.37891,-0.05469 z"
             id="path32" /></g><g
           id="line32"
           style="opacity:1"><path
             style="baseline-shift:baseline;display:inline;overflow:visible;vector-effect:none;stroke-linecap:round;enable-background:accumulate;stop-color:#000000;stop-opacity:1"
             d="M 318,48 341,35"
             id="path33" /><path
             style="baseline-shift:baseline;display:inline;overflow:visible;vector-effect:none;stroke-linecap:round;enable-background:accumulate;stop-color:#000000;stop-opacity:1"
             d="m 340.75391,34.564453 -23,13 a 0.5,0.5 0 0 0 -0.18946,0.681641 0.5,0.5 0 0 0 0.68164,0.189453 l 23,-13 a 0.5,0.5 0 0 0 0.18946,-0.681641 0.5,0.5 0 0 0 -0.68164,-0.189453 z"
             id="path34" /></g><g
           id="line34"
           style="opacity:1"><path
             style="baseline-shift:baseline;display:inline;overflow:visible;vector-effect:none;stroke-linecap:round;enable-background:accumulate;stop-color:#000000;stop-opacity:1"
             d="m 341,35 22,13"
             id="path35" /><path
             style="baseline-shift:baseline;display:inline;overflow:visible;vector-effect:none;stroke-linecap:round;enable-background:accumulate;stop-color:#000000;stop-opacity:1"
             d="m 340.875,34.515625 a 0.5,0.5 0 0 0 -0.30469,0.230469 0.5,0.5 0 0 0 0.17578,0.683593 l 22,13 a 0.5,0.5 0 0 0 0.6836,-0.175781 0.5,0.5 0 0 0 -0.17578,-0.683594 l -22,-13 a 0.5,0.5 0 0 0 -0.37891,-0.05469 z"
             id="path36" /></g><g
           id="line36"
           style="opacity:1"><path
             style="baseline-shift:baseline;display:inline;overflow:visible;vector-effect:none;stroke-linecap:round;enable-background:accumulate;stop-color:#000000;stop-opacity:1"
             d="M 363,48 386,35"
             id="path37" /><path
             style="baseline-shift:baseline;display:inline;overflow:visible;vector-effect:none;stroke-linecap:round;enable-background:accumulate;stop-color:#000000;stop-opacity:1"
             d="m 385.75391,34.564453 -23,13 a 0.5,0.5 0 0 0 -0.18946,0.681641 0.5,0.5 0 0 0 0.68164,0.189453 l 23,-13 a 0.5,0.5 0 0 0 0.18946,-0.681641 0.5,0.5 0 0 0 -0.68164,-0.189453 z"
             id="path38" /></g><g
           id="line38"
           style="opacity:1"><path
             style="baseline-shift:baseline;display:inline;overflow:visible;vector-effect:none;stroke-linecap:round;enable-background:accumulate;stop-color:#000000;stop-opacity:1"
             d="m 386,35 22,13"
             id="path39" /><path
             style="baseline-shift:baseline;display:inline;overflow:visible;vector-effect:none;stroke-linecap:round;enable-background:accumulate;stop-color:#000000;stop-opacity:1"
             d="m 385.875,34.515625 a 0.5,0.5 0 0 0 -0.30469,0.230469 0.5,0.5 0 0 0 0.17578,0.683593 l 22,13 a 0.5,0.5 0 0 0 0.6836,-0.175781 0.5,0.5 0 0 0 -0.17578,-0.683594 l -22,-13 a 0.5,0.5 0 0 0 -0.37891,-0.05469 z"
             id="path40" /></g><g
           id="line40"
           style="opacity:1"><path
             style="baseline-shift:baseline;display:inline;overflow:visible;vector-effect:none;stroke-linecap:round;enable-background:accumulate;stop-color:#000000;stop-opacity:1"
             d="M 387.87357,35.698853 V 9.6988535"
             id="path41" /><path
             style="baseline-shift:baseline;display:inline;overflow:visible;vector-effect:none;stroke-linecap:round;enable-background:accumulate;stop-color:#000000;stop-opacity:1"
             d="m 387.87305,9.1992188 a 0.5,0.5 0 0 0 -0.5,0.5 V 35.699219 a 0.5,0.5 0 0 0 0.5,0.5 0.5,0.5 0 0 0 0.5,-0.5 V 9.6992188 a 0.5,0.5 0 0 0 -0.5,-0.5 z"
             id="path42" /></g><g
           id="line42"
           style="opacity:1"><path
             style="baseline-shift:baseline;display:inline;overflow:visible;vector-effect:none;stroke-linecap:round;enable-background:accumulate;stop-color:#000000;stop-opacity:1"
             d="M 384.47583,35.436783 V 9.4367838"
             id="path43" /><path
             style="baseline-shift:baseline;display:inline;overflow:visible;vector-effect:none;stroke-linecap:round;enable-background:accumulate;stop-color:#000000;stop-opacity:1"
             d="m 384.47656,8.9375 a 0.5,0.5 0 0 0 -0.5,0.5 v 26 a 0.5,0.5 0 0 0 0.5,0.5 0.5,0.5 0 0 0 0.5,-0.5 v -26 a 0.5,0.5 0 0 0 -0.5,-0.5 z"
             id="path44" /></g><path
           d="m 382,3 h 8 v 12 h -8 z"
           id="rect44"
           style="fill:#ffffff;stroke-linecap:round" /><g
           transform="translate(-0.34942717)"
           id="text46"
           style="font-size:12px;font-family:Helvetica;fill:#000000;stroke-linecap:round"><path
             d="m 382.23065,8.4279041 c 0,-1.4257756 0.38281,-2.5419854 1.14844,-3.3486328 0.76562,-0.8066323 1.7539,-1.2099522 2.96484,-1.2099609 0.79297,8.7e-6 1.50781,0.1894617 2.14453,0.5683594 0.63672,0.378914 1.12207,0.9072338 1.45606,1.5849609 0.33397,0.6777403 0.50097,1.4462942 0.50098,2.3056641 -10e-6,0.8710971 -0.17579,1.6503932 -0.52735,2.3378902 -0.35157,0.687502 -0.84961,1.208009 -1.49414,1.561524 -0.64454,0.353515 -1.33985,0.530273 -2.08594,0.530273 -0.80859,0 -1.53125,-0.195312 -2.16797,-0.585937 -0.63672,-0.390624 -1.11914,-0.923827 -1.44726,-1.59961 -0.32813,-0.6757782 -0.49219,-1.3906212 -0.49219,-2.1445309 z m 1.17188,0.017578 c 0,1.0351593 0.27832,1.8505889 0.83496,2.4462889 0.55664,0.595705 1.25488,0.893556 2.09472,0.893555 0.85547,1e-6 1.55957,-0.30078 2.11231,-0.902344 0.55273,-0.60156 0.82909,-1.4550749 0.8291,-2.5605468 -10e-6,-0.6992138 -0.11817,-1.3095647 -0.35449,-1.8310547 -0.23634,-0.5214777 -0.58204,-0.9257742 -1.03711,-1.2128906 -0.45508,-0.2871018 -0.96583,-0.4306563 -1.53223,-0.4306641 -0.80469,7.8e-6 -1.49707,0.2763747 -2.07715,0.8291016 -0.58008,0.5527407 -0.87011,1.4755914 -0.87011,2.7685547 z"
             id="path2883"
             style="font-size:12px;font-family:Helvetica;fill:#000000;stroke-linecap:round" /></g><path
           d="m 403.47586,40.777004 h 18.04828 v 12 h -18.04828 z"
           id="rect48"
           style="fill:#ffffff;stroke-linecap:round" /><g
           id="text50"
           style="font-size:12px;font-family:Helvetica;fill:#000000;stroke-linecap:round"><path
             d="m 404.58008,46.816406 c 0,-1.425775 0.38281,-2.541985 1.14844,-3.348633 0.76562,-0.806632 1.7539,-1.209952 2.96484,-1.209961 0.79296,9e-6 1.50781,0.189462 2.14453,0.56836 0.63671,0.378914 1.12206,0.907234 1.45606,1.584961 0.33397,0.67774 0.50096,1.446294 0.50097,2.305664 -10e-6,0.871097 -0.17579,1.650393 -0.52734,2.33789 -0.35157,0.687502 -0.84962,1.208009 -1.49414,1.561524 -0.64454,0.353516 -1.33985,0.530273 -2.08594,0.530273 -0.8086,0 -1.53125,-0.195312 -2.16797,-0.585937 -0.63672,-0.390624 -1.11914,-0.923827 -1.44726,-1.59961 -0.32813,-0.675778 -0.49219,-1.390621 -0.49219,-2.144531 z m 1.17187,0.01758 c 0,1.03516 0.27832,1.850589 0.83496,2.446289 0.55664,0.595705 1.25488,0.893556 2.09473,0.893555 0.85546,10e-7 1.55956,-0.30078 2.11231,-0.902344 0.55272,-0.60156 0.82909,-1.455075 0.8291,-2.560547 -10e-6,-0.699213 -0.11817,-1.309564 -0.3545,-1.831054 -0.23633,-0.521478 -0.58203,-0.925774 -1.0371,-1.212891 -0.45509,-0.287102 -0.96583,-0.430656 -1.53223,-0.430664 -0.80469,8e-6 -1.49707,0.276375 -2.07715,0.829102 -0.58008,0.55274 -0.87012,1.475591 -0.87012,2.768554 z"
             id="path2887"
             style="font-size:12px;font-family:Helvetica;fill:#000000;stroke-linecap:round" /><path
             d="m 414.28906,51 v -8.589844 h 1.13672 V 45.9375 h 4.46484 v -3.527344 h 1.13672 V 51 h -1.13672 v -4.048828 h -4.46484 V 51 Z"
             id="path2889"
             style="font-size:12px;font-family:Helvetica;fill:#000000;stroke-linecap:round" /></g></g><g
         id="g2"
         transform="matrix(0.06638022,0,0,0.06402851,88.901766,88.759916)"><path
           style="baseline-shift:baseline;display:inline;overflow:visible;opacity:1;vector-effect:none;enable-background:accumulate;stop-color:#000000;stop-opacity:1"
           d="m 196.01172,18.148437 -68.00781,39.00586 -44.203129,-25.539063 -1.601562,2.769532 45.796871,26.460937 67.99219,-38.994141 43.19727,25.525391 1.6289,-2.753906 z m 140.97656,1 -44.80273,26.47461 1.6289,2.753906 43.19727,-25.525391 67.99219,38.994141 45.79687,-26.460937 -1.60156,-2.769532 -44.20313,25.539063 z M 264.40039,89 v 51.92773 l 68,39 V 231 h 3.19922 v -52.92773 l -68,-39 V 89 Z"
           id="path1" /><g
           font-family="Arial"
           font-size="56px"
           id="g4"><path
             d="M 250.26562,83 V 42.914062 h 5.44141 l 21.05469,31.472657 V 42.914062 h 5.08594 V 83 h -5.44141 L 255.35156,51.5 V 83 Z"
             id="text1"
             aria-label="N" /><path
             d="m 314.70703,259.47656 q 0,-9.98047 5.35938,-15.61328 5.35937,-5.66016 13.83593,-5.66016 5.55078,0 10.00782,2.65235 4.45703,2.65234 6.78125,7.41015 2.35156,4.73047 2.35156,10.7461 0,6.09765 -2.46094,10.91015 -2.46094,4.8125 -6.97266,7.30079 -4.51171,2.46093 -9.73437,2.46093 -5.66016,0 -10.11719,-2.73437 -4.45703,-2.73438 -6.7539,-7.46485 -2.29688,-4.73046 -2.29688,-10.00781 z m 5.46875,0.082 q 0,7.2461 3.88281,11.42969 3.91016,4.15625 9.78907,4.15625 5.98828,0 9.84375,-4.21094 3.88281,-4.21093 3.88281,-11.94922 0,-4.89453 -1.66797,-8.53125 -1.64063,-3.66406 -4.83984,-5.66015 -3.17188,-2.02344 -7.13672,-2.02344 -5.63282,0 -9.70703,3.88281 -4.04688,3.85547 -4.04688,12.90625 z M 360.04297,279 v -40.08594 h 5.30469 V 255.375 h 20.83593 v -16.46094 h 5.30469 V 279 h -5.30469 V 260.10547 H 365.34766 V 279 Z"
             id="text2"
             aria-label="OH" /><path
             d="m 452.70703,23.476562 q 0,-9.980468 5.35938,-15.6132808 5.35937,-5.6601562 13.83593,-5.6601562 5.55078,0 10.00782,2.6523437 4.45703,2.6523438 6.78125,7.4101563 2.35156,4.730469 2.35156,10.746094 0,6.097656 -2.46094,10.910156 -2.46094,4.8125 -6.97266,7.300781 -4.51171,2.460938 -9.73437,2.460938 -5.66016,0 -10.11719,-2.734375 -4.45703,-2.734375 -6.7539,-7.464844 -2.29688,-4.730469 -2.29688,-10.007813 z m 5.46875,0.08203 q 0,7.246093 3.88281,11.429687 3.91016,4.15625 9.78907,4.15625 5.98828,0 9.84375,-4.210937 3.88281,-4.210938 3.88281,-11.949219 0,-4.894531 -1.66797,-8.53125 -1.64063,-3.664062 -4.83984,-5.6601562 -3.17188,-2.0234376 -7.13672,-2.0234376 -5.63282,0 -9.70703,3.8828128 -4.04688,3.855469 -4.04688,12.90625 z M 498.04297,43 V 2.9140625 h 5.30469 V 19.375 h 20.83593 V 2.9140625 h 5.30469 V 43 h -5.30469 V 24.105469 H 503.34766 V 43 Z"
             id="text3"
             aria-label="OH" /><path
             d="M 1.484375,43 V 2.9140625 H 6.7890625 V 19.375 H 27.625 V 2.9140625 h 5.304687 V 43 H 27.625 V 24.105469 H 6.7890625 V 43 Z M 40.148437,23.476562 q 0,-9.980468 5.359375,-15.6132808 5.359375,-5.6601562 13.835938,-5.6601562 5.550781,0 10.007812,2.6523437 4.457032,2.6523438 6.78125,7.4101563 2.351563,4.730469 2.351563,10.746094 0,6.097656 -2.460938,10.910156 -2.460937,4.8125 -6.972656,7.300781 -4.511719,2.460938 -9.734375,2.460938 -5.660156,0 -10.117187,-2.734375 -4.457032,-2.734375 -6.753907,-7.464844 -2.296875,-4.730469 -2.296875,-10.007813 z m 5.46875,0.08203 q 0,7.246093 3.882813,11.429687 3.910156,4.15625 9.789062,4.15625 5.988282,0 9.84375,-4.210937 3.882813,-4.210938 3.882813,-11.949219 0,-4.894531 -1.667969,-8.53125 -1.640625,-3.664062 -4.839844,-5.6601562 -3.171875,-2.0234376 -7.136718,-2.0234376 -5.632813,0 -9.707032,3.8828128 -4.046875,3.855469 -4.046875,12.90625 z"
             id="text4"
             aria-label="HO" /></g></g></g></g></svg>
