<?xml version="1.0" encoding="UTF-8" standalone="no"?>
<!-- Created with Inkscape (http://www.inkscape.org/) -->

<svg
   version="1.0"
   width="2449.491"
   height="675"
   viewBox="0 0 2449.491 675"
   id="svg2"
   xml:space="preserve"
   sodipodi:docname="vitamine.svg"
   inkscape:version="1.4.2 (f4327f4, 2025-05-13)"
   xmlns:inkscape="http://www.inkscape.org/namespaces/inkscape"
   xmlns:sodipodi="http://sodipodi.sourceforge.net/DTD/sodipodi-0.dtd"
   xmlns="http://www.w3.org/2000/svg"
   xmlns:svg="http://www.w3.org/2000/svg"><sodipodi:namedview
   id="namedview1"
   pagecolor="#ffffff"
   bordercolor="#000000"
   borderopacity="0.25"
   inkscape:showpageshadow="2"
   inkscape:pageopacity="0.0"
   inkscape:pagecheckerboard="0"
   inkscape:deskcolor="#d1d1d1"
   inkscape:zoom="0.74260327"
   inkscape:cx="1224.7455"
   inkscape:cy="337.32682"
   inkscape:window-width="1920"
   inkscape:window-height="1111"
   inkscape:window-x="-9"
   inkscape:window-y="-9"
   inkscape:window-maximized="1"
   inkscape:current-layer="svg2" /><defs
   id="defs112" />
	
		<g
   transform="translate(41.99121,50)"
   id="レイヤー_1">
			<g
   id="g7">
				<path
   id="polygon9"
   d="m 239.501,357.002 -3.999,2.5 -4.003,-2.5 V 217.998 l 4.003,-2.5 3.999,2.5 z" />
				<path
   id="polygon11"
   d="m 360,427.002 v 4.492 l -4,2.5 -120.498,-70 v -4.492 l 3.999,-2.5 z" />
				
					<path
   id="rect13"
   transform="matrix(0.4959,-0.8684,0.8684,0.4959,-167.3851,457.6364)"
   d="m 306.46799,315.87799 h 8.063 v 114.241 h -8.063 z" /> 
				<path
   id="polygon15"
   d="m 480.502,357.002 3.999,2.5 v 4.492 l -120.502,70 -3.999,-2.5 v -4.492 z" />
				<path
   id="polygon17"
   d="m 480.502,217.998 3.999,-2.5 3.999,2.5 v 139.004 l -3.999,2.5 -3.999,-2.5 z" />
				<path
   id="rect19"
   d="m 455,230.498 h 8.003 V 344.502 H 455 Z" /> 
				<path
   id="polygon21"
   d="m 360,147.998 v -4.497 l 3.999,-2.5 120.502,70 v 4.497 l -3.999,2.5 z" />
				<path
   id="polygon23"
   d="m 239.501,217.998 -3.999,-2.5 v -4.497 l 120.498,-70 4,2.5 v 4.497 z" />
				
					<path
   id="rect25"
   transform="matrix(0.4964,0.8681,-0.8681,0.4964,331.7237,-167.8183)"
   d="m 306.46899,144.88 h 8.066 v 114.239 h -8.066 z" /> 
				<path
   style="font-size:100px;font-family:ArialMT"
   d="m 63.964844,-64.355469 q 4.443359,4.882813 6.787109,11.962891 2.392578,7.080078 2.392578,16.064453 0,8.984375 -2.441406,16.113281 -2.392578,7.080078 -6.738281,11.8164065 -4.492188,4.9316406 -10.644532,7.421875 -6.103515,2.4902344 -13.964843,2.4902344 -7.666016,0 -13.964844,-2.5390625 -6.25,-2.5390625 -10.644531,-7.3730469 -4.394531,-4.8339845 -6.7871096,-11.8652345 -2.34375,-7.03125 -2.34375,-16.064453 0,-8.886719 2.34375,-15.917969 2.3437496,-7.080078 6.8359376,-12.109375 4.296875,-4.785156 10.644531,-7.324218 6.396484,-2.539063 13.916016,-2.539063 7.8125,0 14.013672,2.587891 6.25,2.539062 10.595703,7.27539 z m -0.878907,28.027344 q 0,-14.160156 -6.347656,-21.826172 -6.347656,-7.714844 -17.333984,-7.714844 -11.083985,0 -17.431641,7.714844 -6.298828,7.666016 -6.298828,21.826172 0,14.306641 6.445313,21.923828 6.445312,7.5683595 17.285156,7.5683595 10.839844,0 17.236328,-7.5683595 6.445312,-7.617187 6.445312,-21.923828 z"
   id="text27"
   transform="translate(571,470.498)"
   aria-label="O" />

				<path
   id="polygon31"
   d="M 568.002,402.998 563.999,410 484.501,363.994 v -4.492 l 3.999,-2.5 z" />
				<path
   id="polygon33"
   d="m 730,357.002 3.999,2.5 v 4.492 L 654.501,410 l -3.999,-7.002 z" />
				<path
   id="polygon35"
   d="m 730,217.998 8.002,-5 v 144.004 l -4.003,2.5 -3.999,-2.5 z" />
				<path
   id="polygon37"
   d="m 609.501,147.998 v -8.999 l 128.501,73.999 -8.002,5 z" />
				<path
   id="polygon39"
   d="m 488.5,217.998 -3.999,-2.5 v -4.497 l 125,-72.002 v 8.999 z" />
				<path
   id="polygon41"
   d="m 356,0 h 4 3.999 v 141.001 l -3.999,2.5 -4,-2.5 z" />
				<path
   id="polygon43"
   d="M 363.999,575 H 360 356 V 433.994 l 4,-2.5 3.999,2.5 z" />
				<path
   id="polygon45"
   d="m 113.002,434.502 -2.002,-3.506 -2.001,-2.998 122.5,-70.996 4.003,2.5 v 4.492 z" />
				<path
   style="font-size:100px;font-family:ArialMT"
   d="M 65.380859,0 H 55.712891 V -35.595703 H 19.433594 V 0 H 9.765625 v -72.705078 h 9.667969 v 28.515625 h 36.279297 v -28.515625 h 9.667968 z m 73.730471,-64.355469 q 4.44336,4.882813 6.78711,11.962891 2.39258,7.080078 2.39258,16.064453 0,8.984375 -2.44141,16.113281 -2.39258,7.080078 -6.73828,11.8164065 -4.49219,4.9316406 -10.64453,7.421875 -6.10352,2.4902344 -13.96485,2.4902344 -7.66601,0 -13.96484,-2.5390625 -6.250001,-2.5390625 -10.644532,-7.3730469 -4.394531,-4.8339845 -6.787109,-11.8652345 -2.34375,-7.03125 -2.34375,-16.064453 0,-8.886719 2.34375,-15.917969 2.34375,-7.080078 6.835937,-12.109375 4.296875,-4.785156 10.644534,-7.324218 6.39648,-2.539063 13.91601,-2.539063 7.8125,0 14.01367,2.587891 6.25,2.539062 10.59571,7.27539 z m -0.87891,28.027344 q 0,-14.160156 -6.34765,-21.826172 -6.34766,-7.714844 -17.33399,-7.714844 -11.08398,0 -17.431639,7.714844 -6.298829,7.666016 -6.298829,21.826172 0,14.306641 6.445313,21.923828 6.445315,7.5683595 17.285155,7.5683595 10.83985,0 17.23633,-7.5683595 6.44531,-7.617187 6.44531,-21.923828 z"
   id="text47"
   transform="translate(9.765625e-4,182.9976)"
   aria-label="HO" />

				<path
   id="polygon51"
   d="m 154.501,173.501 3.999,-7.002 77.002,44.502 v 4.497 l -4.003,2.5 z" />
				<path
   id="polygon53"
   d="m 733.999,363.994 v -4.492 l 4.003,-2.5 L 870,420.498 848.002,442.5 Z" />
				<path
   id="polygon55"
   d="M 848.002,442.5 870,420.498 983.5,355 v 8.994 z" />
				<path
   id="polygon57"
   d="M 983.5,363.994 V 355 l 124.502,72.002 v 8.994 z" />
				<path
   id="polygon59"
   d="m 1108.002,435.996 v -8.994 L 1233.007,355 v 8.994 z" />
				<path
   id="polygon61"
   d="M 1233.007,363.994 V 355 l 124.493,72.002 v 8.994 z" />
				<path
   id="polygon63"
   d="m 1357.5,435.996 v -8.994 L 1482.5,355 v 8.994 z" />
				<path
   id="polygon65"
   d="M 1482.5,363.994 V 355 l 124.492,72.002 v 8.994 z" />
				<path
   id="polygon67"
   d="m 1606.992,435.996 v -8.994 l 125,-72.002 v 8.994 z" />
				<path
   id="polygon69"
   d="M 1731.992,363.994 V 355 l 124.511,72.002 v 8.994 z" />
				<path
   id="polygon71"
   d="m 1856.503,435.996 v -8.994 L 1980.996,355 v 8.994 z" />
				<path
   id="polygon73"
   d="M 1980.996,363.994 V 355 l 125,72.002 v 8.994 z" />
				<path
   id="polygon75"
   d="m 2105.996,435.996 v -8.994 l 120.507,-70 4.004,2.5 v 4.492 z" />
				<path
   id="polygon77"
   d="m 2230.507,363.994 v -4.492 l 3.985,-2.5 123.008,70.996 -1.993,3.496 -2.011,3.506 z" />
				<path
   id="polygon79"
   d="m 851.499,274.497 11.001,27.505 3.999,-1.504 -7.5,3.496 L 845,278.999 Z" />
				<path
   id="polygon81"
   d="m 828.5,290.498 12.5,21.504 -7.001,3.496 L 822.001,295 Z" />
				<path
   id="polygon83"
   d="m 806,306.494 9.502,17.5 -7.002,3.008 -8.999,-15.508 z" />
				<path
   id="polygon85"
   d="m 783.002,322.998 7.5,12.5 -7.5,3.496 -6.503,-11.494 z" />
				<path
   id="polygon87"
   d="m 760.502,338.994 4.498,8.008 -6.998,3.496 -4.003,-7.002 z" />
				<path
   id="polygon89"
   d="m 1218.007,216.001 29.493,3.999 0.507,-3.999 -1.015,7.998 h -28.496 z" />
				<path
   id="polygon91"
   d="m 1220.507,243.501 h 25 l -1.015,7.998 h -22.989 z" />
				<path
   id="polygon93"
   d="m 1223.007,271.499 h 20 l -1.015,7.5 h -17.989 z" />
				<path
   id="polygon95"
   d="M 1225.507,298.994 H 1240 l -0.508,8.008 h -12.989 z" />
				<path
   id="polygon97"
   d="m 1228.007,326.494 h 9.493 l -0.508,8.008 h -7.989 z" />
				<path
   id="polygon99"
   d="m 1716.992,216.001 29.511,3.999 0.489,-3.999 -0.996,7.998 H 1717.5 Z" />
				<path
   id="polygon101"
   d="m 1719.492,243.501 h 24.511 l -0.507,7.998 H 1720 Z" />
				<path
   id="polygon103"
   d="m 1721.992,271.499 h 19.511 l -0.507,7.5 H 1722.5 Z" />
				<path
   id="polygon105"
   d="m 1724.492,298.994 h 14.511 l -0.507,8.008 H 1725 Z" />
				<path
   id="polygon107"
   d="m 1726.992,326.494 h 9.511 l -0.507,8.008 h -7.989 z" />
				<path
   id="polygon109"
   d="m 2226.503,216.001 h 4.004 3.985 v 141.001 l -3.985,2.5 -4.004,-2.5 z" />
			</g>
		</g>
	</svg>
