<?xml version="1.0" encoding="UTF-8"?>
<!-- Converted by misc2svg (http://www.network-science.de/tools/misc2svg/) -->
<svg xmlns="http://www.w3.org/2000/svg" xmlns:xlink="http://www.w3.org/1999/xlink" width="714pt" height="243pt" viewBox="0 0 714 243" version="1.1">
<defs>
<clipPath id="clip1">
  <path d="M 0 242.5 L 713.75 242.5 L 713.75 0 L 0 0 L 0 242.5 Z M 0 242.5 "/>
</clipPath>
</defs>
<g id="misc2svg">
<g clip-path="url(#clip1)" clip-rule="nonzero">
<path style=" stroke:none;fill-rule: nonzero; fill: rgb(0%,0%,0%); fill-opacity: 1;" d="M 5.898438 168.875 L 5.898438 148.289062 L 8.613281 148.289062 L 8.613281 156.746094 L 19.316406 156.746094 L 19.316406 148.289062 L 22.03125 148.289062 L 22.03125 168.875 L 19.316406 168.875 L 19.316406 159.167969 L 8.613281 159.167969 L 8.613281 168.875 L 5.898438 168.875 Z M 5.898438 168.875 "/>
<path style=" stroke:none;fill-rule: nonzero; fill: rgb(0%,0%,0%); fill-opacity: 1;" d="M 25.136719 170.890625 L 26.992188 170.65625 C 27.210938 171.710938 27.578125 172.472656 28.085938 172.941406 C 28.601562 173.410156 29.238281 173.644531 29.980469 173.644531 C 30.847656 173.644531 31.585938 173.34375 32.1875 172.726562 C 32.796875 172.117188 33.105469 171.359375 33.105469 170.460938 C 33.105469 169.601562 32.820312 168.898438 32.265625 168.351562 C 31.703125 167.796875 30.996094 167.511719 30.136719 167.511719 C 29.785156 167.511719 29.339844 167.582031 28.808594 167.707031 L 29.023438 166.066406 C 29.140625 166.082031 29.238281 166.085938 29.316406 166.085938 C 30.105469 166.085938 30.824219 165.886719 31.464844 165.480469 C 32.097656 165.066406 32.421875 164.421875 32.421875 163.546875 C 32.421875 162.875 32.1875 162.3125 31.71875 161.867188 C 31.257812 161.414062 30.667969 161.183594 29.941406 161.183594 C 29.207031 161.183594 28.601562 161.414062 28.125 161.867188 C 27.640625 162.328125 27.328125 163.011719 27.1875 163.917969 L 25.3125 163.585938 C 25.546875 162.335938 26.0625 161.371094 26.875 160.675781 C 27.679688 159.988281 28.691406 159.640625 29.902344 159.640625 C 30.722656 159.640625 31.484375 159.828125 32.1875 160.1875 C 32.890625 160.539062 33.421875 161.023438 33.789062 161.632812 C 34.148438 162.25 34.335938 162.898438 34.335938 163.585938 C 34.335938 164.25 34.160156 164.855469 33.808594 165.402344 C 33.457031 165.941406 32.933594 166.359375 32.246094 166.671875 C 33.144531 166.882812 33.835938 167.316406 34.335938 167.980469 C 34.84375 168.636719 35.097656 169.445312 35.097656 170.421875 C 35.097656 171.75 34.609375 172.878906 33.632812 173.800781 C 32.664062 174.730469 31.445312 175.1875 29.960938 175.1875 C 28.632812 175.1875 27.523438 174.792969 26.640625 173.996094 C 25.75 173.207031 25.253906 172.171875 25.136719 170.890625 Z M 25.136719 170.890625 "/>
<path style=" stroke:none;fill-rule: nonzero; fill: rgb(0%,0%,0%); fill-opacity: 1;" d="M 53.082031 161.667969 L 55.816406 162.351562 C 55.242188 164.59375 54.214844 166.296875 52.730469 167.46875 C 51.246094 168.640625 49.433594 169.226562 47.300781 169.226562 C 45.074219 169.226562 43.261719 168.777344 41.871094 167.878906 C 40.488281 166.96875 39.433594 165.664062 38.707031 163.953125 C 37.976562 162.234375 37.613281 160.394531 37.613281 158.425781 C 37.613281 156.292969 38.023438 154.429688 38.84375 152.839844 C 39.664062 151.238281 40.828125 150.023438 42.339844 149.1875 C 43.847656 148.359375 45.515625 147.9375 47.339844 147.9375 C 49.394531 147.9375 51.121094 148.464844 52.515625 149.519531 C 53.921875 150.5625 54.902344 152.035156 55.464844 153.933594 L 52.789062 154.578125 C 52.304688 153.085938 51.609375 151.996094 50.699219 151.316406 C 49.785156 150.628906 48.648438 150.28125 47.28125 150.28125 C 45.691406 150.28125 44.363281 150.664062 43.296875 151.414062 C 42.242188 152.171875 41.5 153.1875 41.070312 154.460938 C 40.640625 155.742188 40.425781 157.058594 40.425781 158.425781 C 40.425781 160.171875 40.679688 161.695312 41.1875 162.996094 C 41.695312 164.300781 42.488281 165.277344 43.570312 165.925781 C 44.648438 166.578125 45.816406 166.902344 47.066406 166.902344 C 48.589844 166.902344 49.878906 166.46875 50.933594 165.59375 C 52 164.710938 52.714844 163.402344 53.082031 161.667969 Z M 53.082031 161.667969 "/>
<path style=" stroke:none;fill-rule: nonzero; fill: rgb(0%,0%,0%); fill-opacity: 1;" d="M 87.3125 180.875 L 87.3125 183.1875 L 57.1875 165.8125 L 58.1875 164.0625 L 87.3125 180.875 Z M 87.3125 180.875 "/>
<path style=" stroke:none;fill-rule: nonzero; fill: rgb(0%,0%,0%); fill-opacity: 1;" d="M 128.125 157.3125 L 128.125 159.625 L 87.3125 183.1875 L 87.3125 180.875 L 128.125 157.3125 Z M 128.125 157.3125 "/>
<path style=" stroke:none;fill-rule: nonzero; fill: rgb(0%,0%,0%); fill-opacity: 1;" d="M 168.9375 180.875 L 168.9375 183.1875 L 128.125 159.625 L 128.125 157.3125 L 168.9375 180.875 Z M 168.9375 180.875 "/>
<path style=" stroke:none;fill-rule: nonzero; fill: rgb(0%,0%,0%); fill-opacity: 1;" d="M 209.75 157.3125 L 209.75 159.625 L 168.9375 183.1875 L 168.9375 180.875 L 209.75 157.3125 Z M 209.75 157.3125 "/>
<path style=" stroke:none;fill-rule: nonzero; fill: rgb(0%,0%,0%); fill-opacity: 1;" d="M 250.5625 180.875 L 250.5625 183.1875 L 209.75 159.625 L 209.75 157.3125 L 250.5625 180.875 Z M 250.5625 180.875 "/>
<path style=" stroke:none;fill-rule: nonzero; fill: rgb(0%,0%,0%); fill-opacity: 1;" d="M 291.375 157.3125 L 291.375 159.625 L 250.5625 183.1875 L 250.5625 180.875 L 291.375 157.3125 Z M 291.375 157.3125 "/>
<path style=" stroke:none;fill-rule: nonzero; fill: rgb(0%,0%,0%); fill-opacity: 1;" d="M 332.25 180.875 L 332.25 183.1875 L 291.375 159.625 L 291.375 157.3125 L 332.25 180.875 Z M 332.25 180.875 "/>
<path style=" stroke:none;fill-rule: nonzero; fill: rgb(0%,0%,0%); fill-opacity: 1;" d="M 373.0625 157.3125 L 373.0625 159.625 L 332.25 183.1875 L 332.25 180.875 L 373.0625 157.3125 Z M 373.0625 157.3125 "/>
<path style=" stroke:none;fill-rule: nonzero; fill: rgb(0%,0%,0%); fill-opacity: 1;" d="M 413.875 180.875 L 413.875 183.1875 L 373.0625 159.625 L 373.0625 157.3125 L 413.875 180.875 Z M 413.875 180.875 "/>
<path style=" stroke:none;fill-rule: nonzero; fill: rgb(0%,0%,0%); fill-opacity: 1;" d="M 454.6875 157.3125 L 454.6875 159.625 L 413.875 183.1875 L 413.875 180.875 L 454.6875 157.3125 Z M 454.6875 157.3125 "/>
<path style=" stroke:none;fill-rule: nonzero; fill: rgb(0%,0%,0%); fill-opacity: 1;" d="M 495.5 180.875 L 495.5 183.1875 L 454.6875 159.625 L 454.6875 157.3125 L 495.5 180.875 Z M 495.5 180.875 "/>
<path style=" stroke:none;fill-rule: nonzero; fill: rgb(0%,0%,0%); fill-opacity: 1;" d="M 536.3125 157.3125 L 536.3125 159.625 L 495.5 183.1875 L 495.5 180.875 L 536.3125 157.3125 Z M 536.3125 157.3125 "/>
<path style=" stroke:none;fill-rule: nonzero; fill: rgb(0%,0%,0%); fill-opacity: 1;" d="M 577.1875 180.875 L 577.1875 183.1875 L 536.3125 159.625 L 536.3125 157.3125 L 577.1875 180.875 Z M 577.1875 180.875 "/>
<path style=" stroke:none;fill-rule: nonzero; fill: rgb(0%,0%,0%); fill-opacity: 1;" d="M 618 157.3125 L 618 159.625 L 577.1875 183.1875 L 577.1875 180.875 L 618 157.3125 Z M 618 157.3125 "/>
<path style=" stroke:none;fill-rule: nonzero; fill: rgb(0%,0%,0%); fill-opacity: 1;" d="M 658.8125 180.875 L 658.8125 183.1875 L 618 159.625 L 618 157.3125 L 658.8125 180.875 Z M 658.8125 180.875 "/>
<path style=" stroke:none;fill-rule: nonzero; fill: rgb(0%,0%,0%); fill-opacity: 1;" d="M 689.886719 158.855469 C 689.886719 155.433594 690.804688 152.757812 692.640625 150.828125 C 694.476562 148.90625 696.84375 147.9375 699.75 147.9375 C 701.648438 147.9375 703.363281 148.398438 704.886719 149.304688 C 706.410156 150.203125 707.566406 151.46875 708.363281 153.09375 C 709.167969 154.710938 709.574219 156.550781 709.574219 158.621094 C 709.574219 160.707031 709.148438 162.578125 708.304688 164.226562 C 707.453125 165.867188 706.257812 167.113281 704.710938 167.957031 C 703.171875 168.804688 701.511719 169.226562 699.730469 169.226562 C 697.789062 169.226562 696.058594 168.757812 694.535156 167.820312 C 693.011719 166.882812 691.851562 165.609375 691.058594 163.992188 C 690.277344 162.382812 689.886719 160.667969 689.886719 158.855469 Z M 692.699219 158.894531 C 692.699219 161.371094 693.363281 163.324219 694.691406 164.753906 C 696.03125 166.1875 697.703125 166.902344 699.710938 166.902344 C 701.765625 166.902344 703.453125 166.179688 704.769531 164.734375 C 706.097656 163.289062 706.761719 161.25 706.761719 158.601562 C 706.761719 156.921875 706.472656 155.457031 705.902344 154.207031 C 705.339844 152.957031 704.515625 151.996094 703.421875 151.316406 C 702.335938 150.628906 701.117188 150.28125 699.75 150.28125 C 697.820312 150.28125 696.160156 150.945312 694.769531 152.273438 C 693.386719 153.59375 692.699219 155.796875 692.699219 158.894531 Z M 692.699219 158.894531 "/>
<path style=" stroke:none;fill-rule: nonzero; fill: rgb(0%,0%,0%); fill-opacity: 1;" d="M 687.875 164.125 L 688.875 165.8125 L 658.8125 183.1875 L 658.8125 180.875 L 687.875 164.125 Z M 687.875 164.125 "/>
<path style=" stroke:none;fill-rule: nonzero; fill: rgb(0%,0%,0%); fill-opacity: 1;" d="M 649.074219 229.605469 C 649.074219 226.183594 649.992188 223.507812 651.828125 221.578125 C 653.664062 219.65625 656.03125 218.6875 658.9375 218.6875 C 660.835938 218.6875 662.550781 219.148438 664.074219 220.054688 C 665.597656 220.953125 666.753906 222.21875 667.550781 223.84375 C 668.355469 225.460938 668.761719 227.300781 668.761719 229.371094 C 668.761719 231.457031 668.335938 233.328125 667.492188 234.976562 C 666.640625 236.617188 665.445312 237.863281 663.898438 238.707031 C 662.359375 239.554688 660.699219 239.976562 658.917969 239.976562 C 656.976562 239.976562 655.246094 239.507812 653.722656 238.570312 C 652.199219 237.632812 651.039062 236.359375 650.246094 234.742188 C 649.464844 233.132812 649.074219 231.417969 649.074219 229.605469 Z M 651.886719 229.644531 C 651.886719 232.121094 652.550781 234.074219 653.878906 235.503906 C 655.21875 236.9375 656.890625 237.652344 658.898438 237.652344 C 660.953125 237.652344 662.640625 236.929688 663.957031 235.484375 C 665.285156 234.039062 665.949219 232 665.949219 229.351562 C 665.949219 227.671875 665.660156 226.207031 665.089844 224.957031 C 664.527344 223.707031 663.703125 222.746094 662.609375 222.066406 C 661.523438 221.378906 660.304688 221.03125 658.9375 221.03125 C 657.007812 221.03125 655.347656 221.695312 653.957031 223.023438 C 652.574219 224.34375 651.886719 226.546875 651.886719 229.644531 Z M 651.886719 229.644531 "/>
<path style=" stroke:none;fill-rule: nonzero; fill: rgb(0%,0%,0%); fill-opacity: 1;" d="M 661.3125 216.125 L 663.375 216.125 L 663.375 180 L 661.3125 180 L 661.3125 216.125 Z M 661.3125 216.125 "/>
<path style=" stroke:none;fill-rule: nonzero; fill: rgb(0%,0%,0%); fill-opacity: 1;" d="M 654.25 216.125 L 656.25 216.125 L 656.25 180 L 654.25 180 L 654.25 216.125 Z M 654.25 216.125 "/>
<path style=" stroke:none;fill-rule: nonzero; fill: rgb(0%,0%,0%); fill-opacity: 1;" d="M 698.625 111.9375 L 700.625 110.75 L 700.625 145.4375 L 698.625 145.4375 L 698.625 111.9375 Z M 698.625 111.9375 "/>
<path style=" stroke:none;fill-rule: nonzero; fill: rgb(0%,0%,0%); fill-opacity: 1;" d="M 658.8125 88.9375 L 658.8125 86.625 L 700.625 110.75 L 698.625 111.9375 L 658.8125 88.9375 Z M 658.8125 88.9375 "/>
<path style=" stroke:none;fill-rule: nonzero; fill: rgb(0%,0%,0%); fill-opacity: 1;" d="M 618 112.5 L 618 110.1875 L 658.8125 86.625 L 658.8125 88.9375 L 618 112.5 Z M 618 112.5 "/>
<path style=" stroke:none;fill-rule: nonzero; fill: rgb(0%,0%,0%); fill-opacity: 1;" d="M 577.1875 88.9375 L 577.1875 86.625 L 618 110.1875 L 618 112.5 L 577.1875 88.9375 Z M 577.1875 88.9375 "/>
<path style=" stroke:none;fill-rule: nonzero; fill: rgb(0%,0%,0%); fill-opacity: 1;" d="M 536.3125 112.5 L 536.3125 110.1875 L 577.1875 86.625 L 577.1875 88.9375 L 536.3125 112.5 Z M 536.3125 112.5 "/>
<path style=" stroke:none;fill-rule: nonzero; fill: rgb(0%,0%,0%); fill-opacity: 1;" d="M 495.5 88.9375 L 495.5 86.625 L 536.3125 110.1875 L 536.3125 112.5 L 495.5 88.9375 Z M 495.5 88.9375 "/>
<path style=" stroke:none;fill-rule: nonzero; fill: rgb(0%,0%,0%); fill-opacity: 1;" d="M 454.6875 112.5 L 454.6875 110.1875 L 495.5 86.625 L 495.5 88.9375 L 454.6875 112.5 Z M 454.6875 112.5 "/>
<path style=" stroke:none;fill-rule: nonzero; fill: rgb(0%,0%,0%); fill-opacity: 1;" d="M 413.875 88.9375 L 413.875 86.625 L 454.6875 110.1875 L 454.6875 112.5 L 413.875 88.9375 Z M 413.875 88.9375 "/>
<path style=" stroke:none;fill-rule: nonzero; fill: rgb(0%,0%,0%); fill-opacity: 1;" d="M 373.0625 112.5 L 373.0625 110.1875 L 413.875 86.625 L 413.875 88.9375 L 373.0625 112.5 Z M 373.0625 112.5 "/>
<path style=" stroke:none;fill-rule: nonzero; fill: rgb(0%,0%,0%); fill-opacity: 1;" d="M 332.25 88.9375 L 332.25 86.625 L 373.0625 110.1875 L 373.0625 112.5 L 332.25 88.9375 Z M 332.25 88.9375 "/>
<path style=" stroke:none;fill-rule: nonzero; fill: rgb(0%,0%,0%); fill-opacity: 1;" d="M 291.375 112.5 L 291.375 110.1875 L 332.25 86.625 L 332.25 88.9375 L 291.375 112.5 Z M 291.375 112.5 "/>
<path style=" stroke:none;fill-rule: nonzero; fill: rgb(0%,0%,0%); fill-opacity: 1;" d="M 250.5625 88.9375 L 250.5625 86.625 L 291.375 110.1875 L 291.375 112.5 L 250.5625 88.9375 Z M 250.5625 88.9375 "/>
<path style=" stroke:none;fill-rule: nonzero; fill: rgb(0%,0%,0%); fill-opacity: 1;" d="M 209.75 112.5 L 209.75 110.1875 L 250.5625 86.625 L 250.5625 88.9375 L 209.75 112.5 Z M 209.75 112.5 "/>
<path style=" stroke:none;fill-rule: nonzero; fill: rgb(0%,0%,0%); fill-opacity: 1;" d="M 168.9375 88.9375 L 168.9375 86.625 L 209.75 110.1875 L 209.75 112.5 L 168.9375 88.9375 Z M 168.9375 88.9375 "/>
<path style=" stroke:none;fill-rule: nonzero; fill: rgb(0%,0%,0%); fill-opacity: 1;" d="M 128.125 112.5 L 128.125 110.1875 L 168.9375 86.625 L 168.9375 88.9375 L 128.125 112.5 Z M 128.125 112.5 "/>
<path style=" stroke:none;fill-rule: nonzero; fill: rgb(0%,0%,0%); fill-opacity: 1;" d="M 86.3125 88.375 L 88.3125 87.1875 L 128.125 110.1875 L 128.125 112.5 L 86.3125 88.375 Z M 86.3125 88.375 "/>
<path style=" stroke:none;fill-rule: nonzero; fill: rgb(0%,0%,0%); fill-opacity: 1;" d="M 86.3125 40.0625 L 88.3125 41.25 L 88.3125 87.1875 L 86.3125 88.375 L 86.3125 40.0625 Z M 86.3125 40.0625 "/>
<path style=" stroke:none;fill-rule: nonzero; fill: rgb(0%,0%,0%); fill-opacity: 1;" d="M 128.125 15.9375 L 128.125 18.25 L 88.3125 41.25 L 86.3125 40.0625 L 128.125 15.9375 Z M 128.125 15.9375 "/>
<path style=" stroke:none;fill-rule: nonzero; fill: rgb(0%,0%,0%); fill-opacity: 1;" d="M 168.9375 39.5 L 168.9375 41.8125 L 128.125 18.25 L 128.125 15.9375 L 168.9375 39.5 Z M 168.9375 39.5 "/>
<path style=" stroke:none;fill-rule: nonzero; fill: rgb(0%,0%,0%); fill-opacity: 1;" d="M 209.75 15.9375 L 209.75 18.25 L 168.9375 41.8125 L 168.9375 39.5 L 209.75 15.9375 Z M 209.75 15.9375 "/>
<path style=" stroke:none;fill-rule: nonzero; fill: rgb(0%,0%,0%); fill-opacity: 1;" d="M 250.5625 39.5 L 250.5625 41.8125 L 209.75 18.25 L 209.75 15.9375 L 250.5625 39.5 Z M 250.5625 39.5 "/>
<path style=" stroke:none;fill-rule: nonzero; fill: rgb(0%,0%,0%); fill-opacity: 1;" d="M 291.375 15.9375 L 291.375 18.25 L 250.5625 41.8125 L 250.5625 39.5 L 291.375 15.9375 Z M 291.375 15.9375 "/>
<path style=" stroke:none;fill-rule: nonzero; fill: rgb(0%,0%,0%); fill-opacity: 1;" d="M 332.25 39.5 L 332.25 41.8125 L 291.375 18.25 L 291.375 15.9375 L 332.25 39.5 Z M 332.25 39.5 "/>
<path style=" stroke:none;fill-rule: nonzero; fill: rgb(0%,0%,0%); fill-opacity: 1;" d="M 373.0625 15.9375 L 373.0625 18.25 L 332.25 41.8125 L 332.25 39.5 L 373.0625 15.9375 Z M 373.0625 15.9375 "/>
<path style=" stroke:none;fill-rule: nonzero; fill: rgb(0%,0%,0%); fill-opacity: 1;" d="M 413.875 39.5 L 413.875 41.8125 L 373.0625 18.25 L 373.0625 15.9375 L 413.875 39.5 Z M 413.875 39.5 "/>
<path style=" stroke:none;fill-rule: nonzero; fill: rgb(0%,0%,0%); fill-opacity: 1;" d="M 454.6875 15.9375 L 454.6875 18.25 L 413.875 41.8125 L 413.875 39.5 L 454.6875 15.9375 Z M 454.6875 15.9375 "/>
<path style=" stroke:none;fill-rule: nonzero; fill: rgb(0%,0%,0%); fill-opacity: 1;" d="M 495.5 39.5 L 495.5 41.8125 L 454.6875 18.25 L 454.6875 15.9375 L 495.5 39.5 Z M 495.5 39.5 "/>
<path style=" stroke:none;fill-rule: nonzero; fill: rgb(0%,0%,0%); fill-opacity: 1;" d="M 536.3125 15.9375 L 536.3125 18.25 L 495.5 41.8125 L 495.5 39.5 L 536.3125 15.9375 Z M 536.3125 15.9375 "/>
<path style=" stroke:none;fill-rule: nonzero; fill: rgb(0%,0%,0%); fill-opacity: 1;" d="M 577.1875 39.5 L 577.1875 41.8125 L 536.3125 18.25 L 536.3125 15.9375 L 577.1875 39.5 Z M 577.1875 39.5 "/>
<path style=" stroke:none;fill-rule: nonzero; fill: rgb(0%,0%,0%); fill-opacity: 1;" d="M 624.457031 20.292969 L 627.191406 20.976562 C 626.617188 23.21875 625.589844 24.921875 624.105469 26.09375 C 622.621094 27.265625 620.808594 27.851562 618.675781 27.851562 C 616.449219 27.851562 614.636719 27.402344 613.246094 26.503906 C 611.863281 25.59375 610.808594 24.289062 610.082031 22.578125 C 609.351562 20.859375 608.988281 19.019531 608.988281 17.050781 C 608.988281 14.917969 609.398438 13.054688 610.21875 11.464844 C 611.039062 9.863281 612.203125 8.648438 613.714844 7.8125 C 615.222656 6.984375 616.890625 6.5625 618.714844 6.5625 C 620.769531 6.5625 622.492188 7.089844 623.890625 8.144531 C 625.296875 9.1875 626.277344 10.660156 626.839844 12.558594 L 624.164062 13.203125 C 623.679688 11.710938 622.984375 10.621094 622.074219 9.941406 C 621.160156 9.253906 620.023438 8.90625 618.65625 8.90625 C 617.0625 8.90625 615.734375 9.289062 614.671875 10.039062 C 613.617188 10.796875 612.875 11.8125 612.445312 13.085938 C 612.015625 14.367188 611.800781 15.683594 611.800781 17.050781 C 611.800781 18.796875 612.054688 20.320312 612.5625 21.621094 C 613.070312 22.925781 613.859375 23.902344 614.945312 24.550781 C 616.023438 25.203125 617.191406 25.527344 618.441406 25.527344 C 619.964844 25.527344 621.253906 25.09375 622.308594 24.21875 C 623.375 23.335938 624.089844 22.027344 624.457031 20.292969 Z M 624.457031 20.292969 "/>
<path style=" stroke:none;fill-rule: nonzero; fill: rgb(0%,0%,0%); fill-opacity: 1;" d="M 630.445312 27.5 L 630.445312 6.914062 L 633.160156 6.914062 L 633.160156 15.371094 L 643.863281 15.371094 L 643.863281 6.914062 L 646.578125 6.914062 L 646.578125 27.5 L 643.863281 27.5 L 643.863281 17.792969 L 633.160156 17.792969 L 633.160156 27.5 L 630.445312 27.5 Z M 630.445312 27.5 "/>
<path style=" stroke:none;fill-rule: nonzero; fill: rgb(0%,0%,0%); fill-opacity: 1;" d="M 649.6875 29.515625 L 651.542969 29.28125 C 651.761719 30.335938 652.128906 31.097656 652.636719 31.566406 C 653.152344 32.035156 653.789062 32.269531 654.53125 32.269531 C 655.398438 32.269531 656.136719 31.96875 656.738281 31.351562 C 657.347656 30.742188 657.65625 29.984375 657.65625 29.085938 C 657.65625 28.226562 657.371094 27.523438 656.816406 26.976562 C 656.253906 26.421875 655.546875 26.136719 654.6875 26.136719 C 654.335938 26.136719 653.890625 26.207031 653.359375 26.332031 L 653.574219 24.691406 C 653.691406 24.707031 653.789062 24.710938 653.867188 24.710938 C 654.65625 24.710938 655.375 24.511719 656.015625 24.105469 C 656.648438 23.691406 656.972656 23.046875 656.972656 22.171875 C 656.972656 21.5 656.738281 20.9375 656.269531 20.492188 C 655.808594 20.039062 655.21875 19.808594 654.492188 19.808594 C 653.757812 19.808594 653.152344 20.039062 652.675781 20.492188 C 652.191406 20.953125 651.878906 21.636719 651.738281 22.542969 L 649.863281 22.210938 C 650.097656 20.960938 650.613281 19.996094 651.425781 19.300781 C 652.230469 18.613281 653.242188 18.265625 654.453125 18.265625 C 655.273438 18.265625 656.035156 18.453125 656.738281 18.8125 C 657.441406 19.164062 657.972656 19.648438 658.339844 20.257812 C 658.699219 20.875 658.886719 21.523438 658.886719 22.210938 C 658.886719 22.875 658.710938 23.480469 658.359375 24.027344 C 658.007812 24.566406 657.484375 24.984375 656.796875 25.296875 C 657.695312 25.507812 658.386719 25.941406 658.886719 26.605469 C 659.394531 27.261719 659.648438 28.070312 659.648438 29.046875 C 659.648438 30.375 659.160156 31.503906 658.183594 32.425781 C 657.214844 33.355469 655.996094 33.8125 654.511719 33.8125 C 653.183594 33.8125 652.074219 33.417969 651.191406 32.621094 C 650.300781 31.832031 649.804688 30.796875 649.6875 29.515625 Z M 649.6875 29.515625 "/>
<path style=" stroke:none;fill-rule: nonzero; fill: rgb(0%,0%,0%); fill-opacity: 1;" d="M 606.6875 22.4375 L 607.6875 24.1875 L 577.1875 41.8125 L 577.1875 39.5 L 606.6875 22.4375 Z M 606.6875 22.4375 "/>
</g>
</g>
</svg>
